<?xml version="1.0" encoding="utf-8" standalone="no"?>
<!DOCTYPE svg PUBLIC "-//W3C//DTD SVG 1.1//EN"
  "http://www.w3.org/Graphics/SVG/1.1/DTD/svg11.dtd">
<svg xmlns:xlink="http://www.w3.org/1999/xlink" width="432pt" height="432pt" viewBox="0 0 432 432" xmlns="http://www.w3.org/2000/svg" version="1.1">
 <metadata>
  <rdf:RDF xmlns:dc="http://purl.org/dc/elements/1.1/" xmlns:cc="http://creativecommons.org/ns#" xmlns:rdf="http://www.w3.org/1999/02/22-rdf-syntax-ns#">
   <cc:Work>
    <dc:type rdf:resource="http://purl.org/dc/dcmitype/StillImage"/>
    <dc:date>2025-02-24T22:47:43.300743</dc:date>
    <dc:format>image/svg+xml</dc:format>
    <dc:creator>
     <cc:Agent>
      <dc:title>Matplotlib v3.7.1, https://matplotlib.org/</dc:title>
     </cc:Agent>
    </dc:creator>
   </cc:Work>
  </rdf:RDF>
 </metadata>
 <defs>
  <style type="text/css">*{stroke-linejoin: round; stroke-linecap: butt}</style>
 </defs>
 <g id="figure_1">
  <g id="patch_1">
   <path d="M 0 432 
L 432 432 
L 432 0 
L 0 0 
z
" style="fill: #ffffff"/>
  </g>
  <g id="axes_1">
   <g id="patch_2">
    <path d="M 54 184.896 
L 388.8 184.896 
L 388.8 51.84 
L 54 51.84 
z
" style="fill: #ffffff"/>
   </g>
   <g id="matplotlib.axis_1">
    <g id="xtick_1">
     <g id="line2d_1">
      <defs>
       <path id="m04c21f3a3e" d="M 0 0 
L 0 -3.5 
" style="stroke: #000000; stroke-width: 0.8"/>
      </defs>
      <g>
       <use xlink:href="#m04c21f3a3e" x="76.32" y="184.896" style="stroke: #000000; stroke-width: 0.8"/>
      </g>
     </g>
     <g id="text_1">
      <!-- 260 -->
      <g transform="translate(64.8675 197.514125) scale(0.12 -0.12)">
       <defs>
        <path id="DejaVuSans-32" d="M 1228 531 
L 3431 531 
L 3431 0 
L 469 0 
L 469 531 
Q 828 903 1448 1529 
Q 2069 2156 2228 2338 
Q 2531 2678 2651 2914 
Q 2772 3150 2772 3378 
Q 2772 3750 2511 3984 
Q 2250 4219 1831 4219 
Q 1534 4219 1204 4116 
Q 875 4013 500 3803 
L 500 4441 
Q 881 4594 1212 4672 
Q 1544 4750 1819 4750 
Q 2544 4750 2975 4387 
Q 3406 4025 3406 3419 
Q 3406 3131 3298 2873 
Q 3191 2616 2906 2266 
Q 2828 2175 2409 1742 
Q 1991 1309 1228 531 
z
" transform="scale(0.015625)"/>
        <path id="DejaVuSans-36" d="M 2113 2584 
Q 1688 2584 1439 2293 
Q 1191 2003 1191 1497 
Q 1191 994 1439 701 
Q 1688 409 2113 409 
Q 2538 409 2786 701 
Q 3034 994 3034 1497 
Q 3034 2003 2786 2293 
Q 2538 2584 2113 2584 
z
M 3366 4563 
L 3366 3988 
Q 3128 4100 2886 4159 
Q 2644 4219 2406 4219 
Q 1781 4219 1451 3797 
Q 1122 3375 1075 2522 
Q 1259 2794 1537 2939 
Q 1816 3084 2150 3084 
Q 2853 3084 3261 2657 
Q 3669 2231 3669 1497 
Q 3669 778 3244 343 
Q 2819 -91 2113 -91 
Q 1303 -91 875 529 
Q 447 1150 447 2328 
Q 447 3434 972 4092 
Q 1497 4750 2381 4750 
Q 2619 4750 2861 4703 
Q 3103 4656 3366 4563 
z
" transform="scale(0.015625)"/>
        <path id="DejaVuSans-30" d="M 2034 4250 
Q 1547 4250 1301 3770 
Q 1056 3291 1056 2328 
Q 1056 1369 1301 889 
Q 1547 409 2034 409 
Q 2525 409 2770 889 
Q 3016 1369 3016 2328 
Q 3016 3291 2770 3770 
Q 2525 4250 2034 4250 
z
M 2034 4750 
Q 2819 4750 3233 4129 
Q 3647 3509 3647 2328 
Q 3647 1150 3233 529 
Q 2819 -91 2034 -91 
Q 1250 -91 836 529 
Q 422 1150 422 2328 
Q 422 3509 836 4129 
Q 1250 4750 2034 4750 
z
" transform="scale(0.015625)"/>
       </defs>
       <use xlink:href="#DejaVuSans-32"/>
       <use xlink:href="#DejaVuSans-36" x="63.623047"/>
       <use xlink:href="#DejaVuSans-30" x="127.246094"/>
      </g>
     </g>
    </g>
    <g id="xtick_2">
     <g id="line2d_2">
      <g>
       <use xlink:href="#m04c21f3a3e" x="120.96" y="184.896" style="stroke: #000000; stroke-width: 0.8"/>
      </g>
     </g>
     <g id="text_2">
      <!-- 280 -->
      <g transform="translate(109.5075 197.514125) scale(0.12 -0.12)">
       <defs>
        <path id="DejaVuSans-38" d="M 2034 2216 
Q 1584 2216 1326 1975 
Q 1069 1734 1069 1313 
Q 1069 891 1326 650 
Q 1584 409 2034 409 
Q 2484 409 2743 651 
Q 3003 894 3003 1313 
Q 3003 1734 2745 1975 
Q 2488 2216 2034 2216 
z
M 1403 2484 
Q 997 2584 770 2862 
Q 544 3141 544 3541 
Q 544 4100 942 4425 
Q 1341 4750 2034 4750 
Q 2731 4750 3128 4425 
Q 3525 4100 3525 3541 
Q 3525 3141 3298 2862 
Q 3072 2584 2669 2484 
Q 3125 2378 3379 2068 
Q 3634 1759 3634 1313 
Q 3634 634 3220 271 
Q 2806 -91 2034 -91 
Q 1263 -91 848 271 
Q 434 634 434 1313 
Q 434 1759 690 2068 
Q 947 2378 1403 2484 
z
M 1172 3481 
Q 1172 3119 1398 2916 
Q 1625 2713 2034 2713 
Q 2441 2713 2670 2916 
Q 2900 3119 2900 3481 
Q 2900 3844 2670 4047 
Q 2441 4250 2034 4250 
Q 1625 4250 1398 4047 
Q 1172 3844 1172 3481 
z
" transform="scale(0.015625)"/>
       </defs>
       <use xlink:href="#DejaVuSans-32"/>
       <use xlink:href="#DejaVuSans-38" x="63.623047"/>
       <use xlink:href="#DejaVuSans-30" x="127.246094"/>
      </g>
     </g>
    </g>
    <g id="xtick_3">
     <g id="line2d_3">
      <g>
       <use xlink:href="#m04c21f3a3e" x="165.6" y="184.896" style="stroke: #000000; stroke-width: 0.8"/>
      </g>
     </g>
     <g id="text_3">
      <!-- 300 -->
      <g transform="translate(154.1475 197.514125) scale(0.12 -0.12)">
       <defs>
        <path id="DejaVuSans-33" d="M 2597 2516 
Q 3050 2419 3304 2112 
Q 3559 1806 3559 1356 
Q 3559 666 3084 287 
Q 2609 -91 1734 -91 
Q 1441 -91 1130 -33 
Q 819 25 488 141 
L 488 750 
Q 750 597 1062 519 
Q 1375 441 1716 441 
Q 2309 441 2620 675 
Q 2931 909 2931 1356 
Q 2931 1769 2642 2001 
Q 2353 2234 1838 2234 
L 1294 2234 
L 1294 2753 
L 1863 2753 
Q 2328 2753 2575 2939 
Q 2822 3125 2822 3475 
Q 2822 3834 2567 4026 
Q 2313 4219 1838 4219 
Q 1578 4219 1281 4162 
Q 984 4106 628 3988 
L 628 4550 
Q 988 4650 1302 4700 
Q 1616 4750 1894 4750 
Q 2613 4750 3031 4423 
Q 3450 4097 3450 3541 
Q 3450 3153 3228 2886 
Q 3006 2619 2597 2516 
z
" transform="scale(0.015625)"/>
       </defs>
       <use xlink:href="#DejaVuSans-33"/>
       <use xlink:href="#DejaVuSans-30" x="63.623047"/>
       <use xlink:href="#DejaVuSans-30" x="127.246094"/>
      </g>
     </g>
    </g>
    <g id="xtick_4">
     <g id="line2d_4">
      <g>
       <use xlink:href="#m04c21f3a3e" x="210.24" y="184.896" style="stroke: #000000; stroke-width: 0.8"/>
      </g>
     </g>
     <g id="text_4">
      <!-- 320 -->
      <g transform="translate(198.7875 197.514125) scale(0.12 -0.12)">
       <use xlink:href="#DejaVuSans-33"/>
       <use xlink:href="#DejaVuSans-32" x="63.623047"/>
       <use xlink:href="#DejaVuSans-30" x="127.246094"/>
      </g>
     </g>
    </g>
    <g id="xtick_5">
     <g id="line2d_5">
      <g>
       <use xlink:href="#m04c21f3a3e" x="254.88" y="184.896" style="stroke: #000000; stroke-width: 0.8"/>
      </g>
     </g>
     <g id="text_5">
      <!-- 340 -->
      <g transform="translate(243.4275 197.514125) scale(0.12 -0.12)">
       <defs>
        <path id="DejaVuSans-34" d="M 2419 4116 
L 825 1625 
L 2419 1625 
L 2419 4116 
z
M 2253 4666 
L 3047 4666 
L 3047 1625 
L 3713 1625 
L 3713 1100 
L 3047 1100 
L 3047 0 
L 2419 0 
L 2419 1100 
L 313 1100 
L 313 1709 
L 2253 4666 
z
" transform="scale(0.015625)"/>
       </defs>
       <use xlink:href="#DejaVuSans-33"/>
       <use xlink:href="#DejaVuSans-34" x="63.623047"/>
       <use xlink:href="#DejaVuSans-30" x="127.246094"/>
      </g>
     </g>
    </g>
    <g id="xtick_6">
     <g id="line2d_6">
      <g>
       <use xlink:href="#m04c21f3a3e" x="299.52" y="184.896" style="stroke: #000000; stroke-width: 0.8"/>
      </g>
     </g>
     <g id="text_6">
      <!-- 360 -->
      <g transform="translate(288.0675 197.514125) scale(0.12 -0.12)">
       <use xlink:href="#DejaVuSans-33"/>
       <use xlink:href="#DejaVuSans-36" x="63.623047"/>
       <use xlink:href="#DejaVuSans-30" x="127.246094"/>
      </g>
     </g>
    </g>
    <g id="xtick_7">
     <g id="line2d_7">
      <g>
       <use xlink:href="#m04c21f3a3e" x="344.16" y="184.896" style="stroke: #000000; stroke-width: 0.8"/>
      </g>
     </g>
     <g id="text_7">
      <!-- 380 -->
      <g transform="translate(332.7075 197.514125) scale(0.12 -0.12)">
       <use xlink:href="#DejaVuSans-33"/>
       <use xlink:href="#DejaVuSans-38" x="63.623047"/>
       <use xlink:href="#DejaVuSans-30" x="127.246094"/>
      </g>
     </g>
    </g>
    <g id="xtick_8">
     <g id="line2d_8">
      <g>
       <use xlink:href="#m04c21f3a3e" x="388.8" y="184.896" style="stroke: #000000; stroke-width: 0.8"/>
      </g>
     </g>
     <g id="text_8">
      <!-- 400 -->
      <g transform="translate(377.3475 197.514125) scale(0.12 -0.12)">
       <use xlink:href="#DejaVuSans-34"/>
       <use xlink:href="#DejaVuSans-30" x="63.623047"/>
       <use xlink:href="#DejaVuSans-30" x="127.246094"/>
      </g>
     </g>
    </g>
    <g id="text_9">
     <!-- Temp ($^{o}$C) -->
     <g transform="translate(190.8 213.36975) scale(0.12 -0.12)">
      <defs>
       <path id="DejaVuSans-54" d="M -19 4666 
L 3928 4666 
L 3928 4134 
L 2272 4134 
L 2272 0 
L 1638 0 
L 1638 4134 
L -19 4134 
L -19 4666 
z
" transform="scale(0.015625)"/>
       <path id="DejaVuSans-65" d="M 3597 1894 
L 3597 1613 
L 953 1613 
Q 991 1019 1311 708 
Q 1631 397 2203 397 
Q 2534 397 2845 478 
Q 3156 559 3463 722 
L 3463 178 
Q 3153 47 2828 -22 
Q 2503 -91 2169 -91 
Q 1331 -91 842 396 
Q 353 884 353 1716 
Q 353 2575 817 3079 
Q 1281 3584 2069 3584 
Q 2775 3584 3186 3129 
Q 3597 2675 3597 1894 
z
M 3022 2063 
Q 3016 2534 2758 2815 
Q 2500 3097 2075 3097 
Q 1594 3097 1305 2825 
Q 1016 2553 972 2059 
L 3022 2063 
z
" transform="scale(0.015625)"/>
       <path id="DejaVuSans-6d" d="M 3328 2828 
Q 3544 3216 3844 3400 
Q 4144 3584 4550 3584 
Q 5097 3584 5394 3201 
Q 5691 2819 5691 2113 
L 5691 0 
L 5113 0 
L 5113 2094 
Q 5113 2597 4934 2840 
Q 4756 3084 4391 3084 
Q 3944 3084 3684 2787 
Q 3425 2491 3425 1978 
L 3425 0 
L 2847 0 
L 2847 2094 
Q 2847 2600 2669 2842 
Q 2491 3084 2119 3084 
Q 1678 3084 1418 2786 
Q 1159 2488 1159 1978 
L 1159 0 
L 581 0 
L 581 3500 
L 1159 3500 
L 1159 2956 
Q 1356 3278 1631 3431 
Q 1906 3584 2284 3584 
Q 2666 3584 2933 3390 
Q 3200 3197 3328 2828 
z
" transform="scale(0.015625)"/>
       <path id="DejaVuSans-70" d="M 1159 525 
L 1159 -1331 
L 581 -1331 
L 581 3500 
L 1159 3500 
L 1159 2969 
Q 1341 3281 1617 3432 
Q 1894 3584 2278 3584 
Q 2916 3584 3314 3078 
Q 3713 2572 3713 1747 
Q 3713 922 3314 415 
Q 2916 -91 2278 -91 
Q 1894 -91 1617 61 
Q 1341 213 1159 525 
z
M 3116 1747 
Q 3116 2381 2855 2742 
Q 2594 3103 2138 3103 
Q 1681 3103 1420 2742 
Q 1159 2381 1159 1747 
Q 1159 1113 1420 752 
Q 1681 391 2138 391 
Q 2594 391 2855 752 
Q 3116 1113 3116 1747 
z
" transform="scale(0.015625)"/>
       <path id="DejaVuSans-20" transform="scale(0.015625)"/>
       <path id="DejaVuSans-28" d="M 1984 4856 
Q 1566 4138 1362 3434 
Q 1159 2731 1159 2009 
Q 1159 1288 1364 580 
Q 1569 -128 1984 -844 
L 1484 -844 
Q 1016 -109 783 600 
Q 550 1309 550 2009 
Q 550 2706 781 3412 
Q 1013 4119 1484 4856 
L 1984 4856 
z
" transform="scale(0.015625)"/>
       <path id="DejaVuSans-Oblique-6f" d="M 1625 -91 
Q 1009 -91 651 289 
Q 294 669 294 1325 
Q 294 1706 417 2101 
Q 541 2497 738 2766 
Q 1047 3184 1428 3384 
Q 1809 3584 2291 3584 
Q 2888 3584 3255 3212 
Q 3622 2841 3622 2241 
Q 3622 1825 3500 1412 
Q 3378 1000 3181 728 
Q 2875 309 2494 109 
Q 2113 -91 1625 -91 
z
M 891 1344 
Q 891 869 1089 633 
Q 1288 397 1691 397 
Q 2269 397 2648 901 
Q 3028 1406 3028 2181 
Q 3028 2634 2825 2865 
Q 2622 3097 2228 3097 
Q 1903 3097 1650 2945 
Q 1397 2794 1197 2484 
Q 1050 2253 970 1956 
Q 891 1659 891 1344 
z
" transform="scale(0.015625)"/>
       <path id="DejaVuSans-43" d="M 4122 4306 
L 4122 3641 
Q 3803 3938 3442 4084 
Q 3081 4231 2675 4231 
Q 1875 4231 1450 3742 
Q 1025 3253 1025 2328 
Q 1025 1406 1450 917 
Q 1875 428 2675 428 
Q 3081 428 3442 575 
Q 3803 722 4122 1019 
L 4122 359 
Q 3791 134 3420 21 
Q 3050 -91 2638 -91 
Q 1578 -91 968 557 
Q 359 1206 359 2328 
Q 359 3453 968 4101 
Q 1578 4750 2638 4750 
Q 3056 4750 3426 4639 
Q 3797 4528 4122 4306 
z
" transform="scale(0.015625)"/>
       <path id="DejaVuSans-29" d="M 513 4856 
L 1013 4856 
Q 1481 4119 1714 3412 
Q 1947 2706 1947 2009 
Q 1947 1309 1714 600 
Q 1481 -109 1013 -844 
L 513 -844 
Q 928 -128 1133 580 
Q 1338 1288 1338 2009 
Q 1338 2731 1133 3434 
Q 928 4138 513 4856 
z
" transform="scale(0.015625)"/>
      </defs>
      <use xlink:href="#DejaVuSans-54" transform="translate(0 0.51875)"/>
      <use xlink:href="#DejaVuSans-65" transform="translate(61.083984 0.51875)"/>
      <use xlink:href="#DejaVuSans-6d" transform="translate(122.607422 0.51875)"/>
      <use xlink:href="#DejaVuSans-70" transform="translate(220.019531 0.51875)"/>
      <use xlink:href="#DejaVuSans-20" transform="translate(283.496094 0.51875)"/>
      <use xlink:href="#DejaVuSans-28" transform="translate(315.283203 0.51875)"/>
      <use xlink:href="#DejaVuSans-Oblique-6f" transform="translate(355.253906 38.8) scale(0.7)"/>
      <use xlink:href="#DejaVuSans-43" transform="translate(400.81543 0.51875)"/>
      <use xlink:href="#DejaVuSans-29" transform="translate(470.639648 0.51875)"/>
     </g>
    </g>
   </g>
   <g id="matplotlib.axis_2">
    <g id="ytick_1">
     <g id="line2d_9">
      <defs>
       <path id="m33ab79271d" d="M 0 0 
L 3.5 0 
" style="stroke: #000000; stroke-width: 0.8"/>
      </defs>
      <g>
       <use xlink:href="#m33ab79271d" x="54" y="167.054978" style="stroke: #000000; stroke-width: 0.8"/>
      </g>
     </g>
     <g id="text_10">
      <!-- 20 -->
      <g transform="translate(35.23 171.61404) scale(0.12 -0.12)">
       <use xlink:href="#DejaVuSans-32"/>
       <use xlink:href="#DejaVuSans-30" x="63.623047"/>
      </g>
     </g>
    </g>
    <g id="ytick_2">
     <g id="line2d_10">
      <g>
       <use xlink:href="#m33ab79271d" x="54" y="139.763233" style="stroke: #000000; stroke-width: 0.8"/>
      </g>
     </g>
     <g id="text_11">
      <!-- 40 -->
      <g transform="translate(35.23 144.322296) scale(0.12 -0.12)">
       <use xlink:href="#DejaVuSans-34"/>
       <use xlink:href="#DejaVuSans-30" x="63.623047"/>
      </g>
     </g>
    </g>
    <g id="ytick_3">
     <g id="line2d_11">
      <g>
       <use xlink:href="#m33ab79271d" x="54" y="112.471489" style="stroke: #000000; stroke-width: 0.8"/>
      </g>
     </g>
     <g id="text_12">
      <!-- 60 -->
      <g transform="translate(35.23 117.030551) scale(0.12 -0.12)">
       <use xlink:href="#DejaVuSans-36"/>
       <use xlink:href="#DejaVuSans-30" x="63.623047"/>
      </g>
     </g>
    </g>
    <g id="ytick_4">
     <g id="line2d_12">
      <g>
       <use xlink:href="#m33ab79271d" x="54" y="85.179744" style="stroke: #000000; stroke-width: 0.8"/>
      </g>
     </g>
     <g id="text_13">
      <!-- 80 -->
      <g transform="translate(35.23 89.738807) scale(0.12 -0.12)">
       <use xlink:href="#DejaVuSans-38"/>
       <use xlink:href="#DejaVuSans-30" x="63.623047"/>
      </g>
     </g>
    </g>
    <g id="ytick_5">
     <g id="line2d_13">
      <g>
       <use xlink:href="#m33ab79271d" x="54" y="57.888" style="stroke: #000000; stroke-width: 0.8"/>
      </g>
     </g>
     <g id="text_14">
      <!-- 100 -->
      <g transform="translate(27.595 62.447062) scale(0.12 -0.12)">
       <defs>
        <path id="DejaVuSans-31" d="M 794 531 
L 1825 531 
L 1825 4091 
L 703 3866 
L 703 4441 
L 1819 4666 
L 2450 4666 
L 2450 531 
L 3481 531 
L 3481 0 
L 794 0 
L 794 531 
z
" transform="scale(0.015625)"/>
       </defs>
       <use xlink:href="#DejaVuSans-31"/>
       <use xlink:href="#DejaVuSans-30" x="63.623047"/>
       <use xlink:href="#DejaVuSans-30" x="127.246094"/>
      </g>
     </g>
    </g>
    <g id="text_15">
     <!-- Mass (%) -->
     <g transform="translate(21.099375 145.762687) rotate(-90) scale(0.12 -0.12)">
      <defs>
       <path id="DejaVuSans-4d" d="M 628 4666 
L 1569 4666 
L 2759 1491 
L 3956 4666 
L 4897 4666 
L 4897 0 
L 4281 0 
L 4281 4097 
L 3078 897 
L 2444 897 
L 1241 4097 
L 1241 0 
L 628 0 
L 628 4666 
z
" transform="scale(0.015625)"/>
       <path id="DejaVuSans-61" d="M 2194 1759 
Q 1497 1759 1228 1600 
Q 959 1441 959 1056 
Q 959 750 1161 570 
Q 1363 391 1709 391 
Q 2188 391 2477 730 
Q 2766 1069 2766 1631 
L 2766 1759 
L 2194 1759 
z
M 3341 1997 
L 3341 0 
L 2766 0 
L 2766 531 
Q 2569 213 2275 61 
Q 1981 -91 1556 -91 
Q 1019 -91 701 211 
Q 384 513 384 1019 
Q 384 1609 779 1909 
Q 1175 2209 1959 2209 
L 2766 2209 
L 2766 2266 
Q 2766 2663 2505 2880 
Q 2244 3097 1772 3097 
Q 1472 3097 1187 3025 
Q 903 2953 641 2809 
L 641 3341 
Q 956 3463 1253 3523 
Q 1550 3584 1831 3584 
Q 2591 3584 2966 3190 
Q 3341 2797 3341 1997 
z
" transform="scale(0.015625)"/>
       <path id="DejaVuSans-73" d="M 2834 3397 
L 2834 2853 
Q 2591 2978 2328 3040 
Q 2066 3103 1784 3103 
Q 1356 3103 1142 2972 
Q 928 2841 928 2578 
Q 928 2378 1081 2264 
Q 1234 2150 1697 2047 
L 1894 2003 
Q 2506 1872 2764 1633 
Q 3022 1394 3022 966 
Q 3022 478 2636 193 
Q 2250 -91 1575 -91 
Q 1294 -91 989 -36 
Q 684 19 347 128 
L 347 722 
Q 666 556 975 473 
Q 1284 391 1588 391 
Q 1994 391 2212 530 
Q 2431 669 2431 922 
Q 2431 1156 2273 1281 
Q 2116 1406 1581 1522 
L 1381 1569 
Q 847 1681 609 1914 
Q 372 2147 372 2553 
Q 372 3047 722 3315 
Q 1072 3584 1716 3584 
Q 2034 3584 2315 3537 
Q 2597 3491 2834 3397 
z
" transform="scale(0.015625)"/>
       <path id="DejaVuSans-25" d="M 4653 2053 
Q 4381 2053 4226 1822 
Q 4072 1591 4072 1178 
Q 4072 772 4226 539 
Q 4381 306 4653 306 
Q 4919 306 5073 539 
Q 5228 772 5228 1178 
Q 5228 1588 5073 1820 
Q 4919 2053 4653 2053 
z
M 4653 2450 
Q 5147 2450 5437 2106 
Q 5728 1763 5728 1178 
Q 5728 594 5436 251 
Q 5144 -91 4653 -91 
Q 4153 -91 3862 251 
Q 3572 594 3572 1178 
Q 3572 1766 3864 2108 
Q 4156 2450 4653 2450 
z
M 1428 4353 
Q 1159 4353 1004 4120 
Q 850 3888 850 3481 
Q 850 3069 1003 2837 
Q 1156 2606 1428 2606 
Q 1700 2606 1854 2837 
Q 2009 3069 2009 3481 
Q 2009 3884 1853 4118 
Q 1697 4353 1428 4353 
z
M 4250 4750 
L 4750 4750 
L 1831 -91 
L 1331 -91 
L 4250 4750 
z
M 1428 4750 
Q 1922 4750 2215 4408 
Q 2509 4066 2509 3481 
Q 2509 2891 2217 2550 
Q 1925 2209 1428 2209 
Q 931 2209 642 2551 
Q 353 2894 353 3481 
Q 353 4063 643 4406 
Q 934 4750 1428 4750 
z
" transform="scale(0.015625)"/>
      </defs>
      <use xlink:href="#DejaVuSans-4d"/>
      <use xlink:href="#DejaVuSans-61" x="86.279297"/>
      <use xlink:href="#DejaVuSans-73" x="147.558594"/>
      <use xlink:href="#DejaVuSans-73" x="199.658203"/>
      <use xlink:href="#DejaVuSans-20" x="251.757812"/>
      <use xlink:href="#DejaVuSans-28" x="283.544922"/>
      <use xlink:href="#DejaVuSans-25" x="322.558594"/>
      <use xlink:href="#DejaVuSans-29" x="417.578125"/>
     </g>
    </g>
   </g>
   <g id="line2d_14">
    <path d="M 54.013392 57.888 
L 54.926258 57.942365 
L 58.80775 58.038855 
L 60.872306 58.147326 
L 65.06177 58.237935 
L 65.675592 58.273919 
L 66.42108 58.301101 
L 69.512422 58.409586 
L 70.706498 58.44583 
L 74.427286 58.554301 
L 75.170498 58.590544 
L 77.53865 58.699288 
L 78.014088 58.699288 
L 80.694698 58.807759 
L 81.136634 58.834955 
L 84.24581 58.925305 
L 85.29043 58.997791 
L 88.542454 59.106263 
L 89.303522 59.17849 
L 92.10919 59.287234 
L 93.778682 59.359462 
L 96.15353 59.467933 
L 96.579864 59.504176 
L 98.970358 59.612661 
L 100.311746 59.685148 
L 102.396478 59.793619 
L 102.976754 59.829876 
L 105.358342 59.938347 
L 106.244446 59.97459 
L 108.33804 60.083061 
L 108.78223 60.119318 
L 110.547698 60.227789 
L 111.00749 60.227789 
L 112.51188 60.336533 
L 113.092222 60.372504 
L 115.453634 60.472187 
L 116.511602 60.580658 
L 118.147658 60.662219 
L 118.598522 60.69819 
L 120.39084 60.806934 
L 120.837262 60.842918 
L 122.169722 60.924479 
L 122.765666 60.996693 
L 124.828056 61.105437 
L 130.196016 61.467108 
L 130.921438 61.539608 
L 132.718198 61.648079 
L 133.61323 61.720566 
L 135.09077 61.829051 
L 135.854136 61.901278 
L 137.624112 62.010009 
L 138.220056 62.082236 
L 140.177498 62.190707 
L 143.427334 62.444179 
L 144.916056 62.55265 
L 147.723912 62.778926 
L 148.944794 62.887397 
L 149.681398 62.959625 
L 150.574198 62.995868 
L 150.830856 63.071303 
L 152.350848 63.161652 
L 152.786088 63.197895 
L 162.638136 64.108594 
L 163.783152 64.217078 
L 164.707222 64.325549 
L 166.209358 64.434293 
L 166.921366 64.506521 
L 170.345254 64.86845 
L 171.396459 64.946805 
L 172.246896 65.091533 
L 173.753541 65.200004 
L 174.670848 65.311668 
L 175.862714 65.420153 
L 176.458658 65.49264 
L 177.351502 65.601111 
L 177.925104 65.65549 
L 179.291088 65.763961 
L 180.023206 65.872432 
L 181.186056 65.980903 
L 182.534206 66.161874 
L 183.741674 66.270345 
L 184.46261 66.379089 
L 185.39784 66.45451 
L 185.987088 66.562995 
L 186.998206 66.671466 
L 188.935538 66.888681 
L 189.35069 66.906803 
L 190.091714 67.015274 
L 191.009088 67.123745 
L 192.029112 67.232229 
L 193.243342 67.413187 
L 194.127214 67.521931 
L 195.48869 67.708757 
L 196.52657 67.817242 
L 197.705088 67.998199 
L 198.896976 68.106684 
L 200.102278 68.287642 
L 201.157992 68.396127 
L 202.483778 68.586146 
L 205.776 69.011255 
L 206.539366 69.119986 
L 207.124128 69.192213 
L 208.628541 69.445412 
L 209.648498 69.554156 
L 210.545762 69.698871 
L 211.411778 69.843599 
L 212.485414 69.988313 
L 213.364778 70.133042 
L 214.239722 70.241513 
L 215.895888 70.494971 
L 216.623498 70.591447 
L 218.44481 70.899025 
L 222.136538 71.477897 
L 223.022642 71.622625 
L 223.917674 71.731096 
L 225.54931 72.056782 
L 226.151928 72.141277 
L 228.383928 72.533064 
L 228.984358 72.632733 
L 232.258658 73.18737 
L 232.696152 73.296114 
L 233.461706 73.404585 
L 235.666944 73.844869 
L 239.374318 74.538366 
L 239.981422 74.646837 
L 241.313904 74.900036 
L 258.39761 78.741663 
L 259.018128 78.892245 
L 259.45781 78.991928 
L 266.033326 80.746705 
L 266.606928 80.89142 
L 270.631246 82.037196 
L 273.432406 82.875407 
L 274.65773 83.243463 
L 277.445498 84.132847 
L 278.07943 84.350062 
L 278.501278 84.479588 
L 279.246722 84.745042 
L 280.146262 85.037418 
L 282.090334 85.75197 
L 282.976438 86.041399 
L 284.00539 86.466769 
L 284.89819 86.765272 
L 285.918214 87.154125 
L 288.918 88.336158 
L 289.978222 88.752193 
L 290.98039 89.192477 
L 293.993546 90.492042 
L 297.129506 91.957376 
L 297.553586 92.114358 
L 298.279008 92.518399 
L 299.928478 93.34755 
L 300.673944 93.781707 
L 307.816366 97.71049 
L 308.530562 98.159848 
L 309.570674 98.74486 
L 317.929514 104.105928 
L 318.97188 104.823401 
L 322.826522 107.506998 
L 323.708206 108.152257 
L 325.045152 109.15037 
L 325.480414 109.47899 
L 326.359778 110.118381 
L 326.841912 110.435006 
L 327.290522 110.775621 
L 338.026486 118.998323 
L 338.896944 119.682746 
L 339.776374 120.409279 
L 342.769486 122.851686 
L 343.508278 123.469748 
L 343.825222 123.696024 
L 344.26265 124.063821 
L 344.974658 124.712259 
L 345.298342 124.950271 
L 347.68435 126.970501 
L 348.586056 127.724477 
L 349.349422 128.3516 
L 351.864864 130.55867 
L 355.286498 133.549831 
L 356.201618 134.376048 
L 358.859952 136.806446 
L 360.047398 137.888796 
L 360.362088 138.169177 
L 361.676714 139.378379 
L 363.031538 140.623565 
L 363.62304 141.088111 
L 364.218984 141.627819 
L 365.408618 142.734404 
L 366.029136 143.265051 
L 366.919682 144.136312 
L 367.354944 144.516364 
L 372.089016 148.825212 
L 372.834459 149.521629 
L 373.14031 149.790016 
L 373.425984 150.016292 
L 374.035342 150.546939 
L 374.475024 150.96004 
L 375.707088 151.979223 
L 376.298546 152.503729 
L 377.18023 153.30889 
L 380.144326 155.862702 
L 380.755872 156.348304 
L 381.65539 157.104954 
L 382.108486 157.418645 
L 382.55261 157.864797 
L 383.14188 158.2931 
L 387.284494 161.606754 
L 388.65492 162.435905 
L 390.06108 162.535588 
L 390.64361 162.547569 
L 409.024152 162.656054 
L 413.289459 162.72854 
L 417.82716 162.830885 
L 426.145802 163.168838 
L 428.335438 163.277309 
L 433 163.572842 
L 433 163.572842 
" clip-path="url(#p00221da4fa)" style="fill: none; stroke: #d9d9d9; stroke-width: 1.5; stroke-linecap: square"/>
   </g>
   <g id="line2d_15">
    <path d="M 54.035734 57.888 
L 62.95927 57.986428 
L 63.55075 58.025905 
L 64.008266 58.025905 
L 70.42531 58.124333 
L 70.695382 58.124333 
L 76.045486 58.206495 
L 76.52088 58.206495 
L 81.525024 58.308402 
L 82.589666 58.337727 
L 82.866478 58.337727 
L 85.962262 58.416696 
L 86.73449 58.456187 
L 87.636262 58.456187 
L 92.41051 58.56448 
L 93.15823 58.633583 
L 93.620254 58.633583 
L 94.34119 58.633583 
L 94.756342 58.672774 
L 97.465968 58.751756 
L 98.499406 58.830439 
L 101.342952 58.909407 
L 101.635366 58.948885 
L 101.929968 58.948885 
L 104.025794 59.037446 
L 104.619506 59.067058 
L 107.027856 59.146027 
L 107.630541 59.224709 
L 108.061294 59.204963 
L 108.64157 59.283945 
L 109.083506 59.293811 
L 111.02981 59.392239 
L 111.755254 59.421851 
L 112.648032 59.500533 
L 113.087714 59.510399 
L 113.701514 59.569635 
L 129.71839 60.752173 
L 130.613422 60.870346 
L 131.972666 60.949315 
L 132.869952 61.067488 
L 133.747128 61.14617 
L 134.066326 61.142977 
L 135.084096 61.251271 
L 137.03935 61.458279 
L 137.496888 61.527381 
L 138.519144 61.625809 
L 140.157454 61.852563 
L 141.356016 61.931245 
L 141.922944 62.010213 
L 142.971984 62.088895 
L 144.03888 62.246546 
L 144.927238 62.325515 
L 146.00304 62.483166 
L 146.886912 62.561848 
L 147.621262 62.680308 
L 148.382374 62.75899 
L 149.121144 62.837958 
L 149.72153 62.91664 
L 150.29069 62.995623 
L 151.185722 63.153273 
L 151.50492 63.153273 
L 152.078522 63.271433 
L 152.806198 63.350415 
L 153.830642 63.508066 
L 154.424398 63.586748 
L 155.31269 63.744399 
L 156.073802 63.823368 
L 156.792506 63.931661 
L 164.961626 65.166763 
L 165.69823 65.304668 
L 168.06857 65.682399 
L 168.985944 65.84005 
L 169.550618 65.922226 
L 171.503618 66.280211 
L 172.106302 66.35918 
L 174.369506 66.795848 
L 175.106088 66.874817 
L 177.344762 67.347783 
L 177.77777 67.426751 
L 190.301522 70.110348 
L 190.866262 70.238388 
L 192.65184 70.671862 
L 193.093754 70.750831 
L 198.783144 72.222266 
L 199.381342 72.419394 
L 200.727238 72.695218 
L 205.164454 74.019154 
L 205.635406 74.180012 
L 209.19096 75.227837 
L 209.610554 75.405233 
L 210.371666 75.645046 
L 212.43631 76.361018 
L 212.771088 76.433314 
L 213.192936 76.515489 
L 213.815642 76.765181 
L 215.145936 77.267745 
L 219.00281 78.702895 
L 220.018414 79.110238 
L 220.937976 79.487956 
L 222.149952 79.895299 
L 222.89323 80.197541 
L 224.810541 81.035166 
L 225.538128 81.380092 
L 228.24108 82.529825 
L 229.87939 83.305034 
L 230.761008 83.695824 
L 233.879112 85.154186 
L 235.245096 85.827487 
L 235.497334 85.975272 
L 236.407968 86.409033 
L 239.249326 87.877274 
L 239.974682 88.264872 
L 241.615246 89.181178 
L 243.101714 90.01561 
L 245.50339 91.342452 
L 246.08592 91.687365 
L 247.576896 92.554615 
L 248.916096 93.402106 
L 249.384794 93.576022 
L 249.947302 93.993231 
L 250.407072 94.246117 
L 250.851262 94.518747 
L 252.770738 95.724224 
L 253.35108 96.095569 
L 254.136722 96.60134 
L 262.598278 102.395609 
L 263.026778 102.71091 
L 268.69608 106.803799 
L 269.446032 107.454161 
L 270.028562 107.880963 
L 270.622318 108.370468 
L 276.876382 113.327112 
L 277.162056 113.583191 
L 279.398498 115.481714 
L 279.833738 115.826627 
L 283.721904 118.996536 
L 284.326754 119.423624 
L 287.27969 121.939691 
L 288.034128 122.511071 
L 288.322056 122.780509 
L 288.911326 123.230536 
L 289.078682 123.270014 
L 289.50727 123.710175 
L 290.400048 124.373596 
L 290.703578 124.69557 
L 291.45353 125.293383 
L 291.915554 125.654561 
L 298.763374 131.136722 
L 299.10708 131.379728 
L 299.486498 131.711582 
L 300.238682 132.250157 
L 300.843554 132.746349 
L 305.146872 136.09656 
L 305.881222 136.645288 
L 306.767326 137.292171 
L 307.37443 137.771809 
L 308.887682 138.859113 
L 309.474698 139.345151 
L 310.077382 139.765553 
L 310.662144 140.209194 
L 311.10408 140.488198 
L 311.546016 140.84299 
L 312.170976 141.273272 
L 312.454462 141.516291 
L 325.971454 150.864587 
L 326.270498 151.051849 
L 329.402016 153.108023 
L 331.892928 154.694724 
L 332.953128 155.295716 
L 338.026486 158.274869 
L 338.495206 158.534441 
L 342.932422 161.129476 
L 344.744762 162.200241 
L 345.313944 162.515542 
L 345.918794 162.83405 
L 346.514738 163.162711 
L 349.777944 164.919836 
L 350.681904 165.343731 
L 350.945302 165.527514 
L 355.27757 167.629838 
L 356.02308 167.971285 
L 356.906952 168.355689 
L 357.366722 168.562697 
L 357.674738 168.648052 
L 358.264008 168.91401 
L 361.39104 170.195262 
L 362.174494 170.484158 
L 362.451262 170.609004 
L 364.966682 171.512238 
L 366.127366 171.913195 
L 368.82139 172.734267 
L 369.127152 172.812949 
L 371.350246 173.397689 
L 371.81669 173.529221 
L 372.992976 173.772227 
L 375.841008 174.389771 
L 377.60431 174.724831 
L 378.485928 174.882482 
L 379.226952 174.961164 
L 379.954562 175.079624 
L 381.046032 175.237275 
L 381.740206 175.355435 
L 382.92984 175.434117 
L 383.67977 175.513099 
L 384.878398 175.592068 
L 385.347096 175.631259 
L 386.806802 175.720107 
L 387.264406 175.759584 
L 387.55008 175.759584 
L 388.195128 175.798789 
L 390.67488 175.693688 
L 392.52965 175.588588 
L 394.018438 175.480281 
L 398.007 175.237275 
L 408.981722 174.737891 
L 412.108754 174.649343 
L 414.124294 174.547435 
L 420.03684 174.442335 
L 424.08792 174.383098 
L 433 174.274804 
L 433 174.274804 
" clip-path="url(#p00221da4fa)" style="fill: none; stroke: #a6bddb; stroke-width: 1.5; stroke-linecap: square"/>
   </g>
   <g id="line2d_16">
    <path d="M 54 58.570294 
L 388.8 58.570294 
" clip-path="url(#p00221da4fa)" style="fill: none; stroke-dasharray: 1.11,0.48; stroke-dashoffset: 0; stroke: #ff0000; stroke-width: 0.3"/>
   </g>
   <g id="patch_3">
    <path d="M 54 184.896 
L 54 51.84 
" style="fill: none; stroke: #000000; stroke-width: 0.5; stroke-linejoin: miter; stroke-linecap: square"/>
   </g>
   <g id="patch_4">
    <path d="M 54 184.896 
L 388.8 184.896 
" style="fill: none; stroke: #000000; stroke-width: 0.5; stroke-linejoin: miter; stroke-linecap: square"/>
   </g>
   <g id="text_16">
    <!-- Dynamic TGA -->
    <g transform="translate(180.614063 45.84) scale(0.12 -0.12)">
     <defs>
      <path id="DejaVuSans-44" d="M 1259 4147 
L 1259 519 
L 2022 519 
Q 2988 519 3436 956 
Q 3884 1394 3884 2338 
Q 3884 3275 3436 3711 
Q 2988 4147 2022 4147 
L 1259 4147 
z
M 628 4666 
L 1925 4666 
Q 3281 4666 3915 4102 
Q 4550 3538 4550 2338 
Q 4550 1131 3912 565 
Q 3275 0 1925 0 
L 628 0 
L 628 4666 
z
" transform="scale(0.015625)"/>
      <path id="DejaVuSans-79" d="M 2059 -325 
Q 1816 -950 1584 -1140 
Q 1353 -1331 966 -1331 
L 506 -1331 
L 506 -850 
L 844 -850 
Q 1081 -850 1212 -737 
Q 1344 -625 1503 -206 
L 1606 56 
L 191 3500 
L 800 3500 
L 1894 763 
L 2988 3500 
L 3597 3500 
L 2059 -325 
z
" transform="scale(0.015625)"/>
      <path id="DejaVuSans-6e" d="M 3513 2113 
L 3513 0 
L 2938 0 
L 2938 2094 
Q 2938 2591 2744 2837 
Q 2550 3084 2163 3084 
Q 1697 3084 1428 2787 
Q 1159 2491 1159 1978 
L 1159 0 
L 581 0 
L 581 3500 
L 1159 3500 
L 1159 2956 
Q 1366 3272 1645 3428 
Q 1925 3584 2291 3584 
Q 2894 3584 3203 3211 
Q 3513 2838 3513 2113 
z
" transform="scale(0.015625)"/>
      <path id="DejaVuSans-69" d="M 603 3500 
L 1178 3500 
L 1178 0 
L 603 0 
L 603 3500 
z
M 603 4863 
L 1178 4863 
L 1178 4134 
L 603 4134 
L 603 4863 
z
" transform="scale(0.015625)"/>
      <path id="DejaVuSans-63" d="M 3122 3366 
L 3122 2828 
Q 2878 2963 2633 3030 
Q 2388 3097 2138 3097 
Q 1578 3097 1268 2742 
Q 959 2388 959 1747 
Q 959 1106 1268 751 
Q 1578 397 2138 397 
Q 2388 397 2633 464 
Q 2878 531 3122 666 
L 3122 134 
Q 2881 22 2623 -34 
Q 2366 -91 2075 -91 
Q 1284 -91 818 406 
Q 353 903 353 1747 
Q 353 2603 823 3093 
Q 1294 3584 2113 3584 
Q 2378 3584 2631 3529 
Q 2884 3475 3122 3366 
z
" transform="scale(0.015625)"/>
      <path id="DejaVuSans-47" d="M 3809 666 
L 3809 1919 
L 2778 1919 
L 2778 2438 
L 4434 2438 
L 4434 434 
Q 4069 175 3628 42 
Q 3188 -91 2688 -91 
Q 1594 -91 976 548 
Q 359 1188 359 2328 
Q 359 3472 976 4111 
Q 1594 4750 2688 4750 
Q 3144 4750 3555 4637 
Q 3966 4525 4313 4306 
L 4313 3634 
Q 3963 3931 3569 4081 
Q 3175 4231 2741 4231 
Q 1884 4231 1454 3753 
Q 1025 3275 1025 2328 
Q 1025 1384 1454 906 
Q 1884 428 2741 428 
Q 3075 428 3337 486 
Q 3600 544 3809 666 
z
" transform="scale(0.015625)"/>
      <path id="DejaVuSans-41" d="M 2188 4044 
L 1331 1722 
L 3047 1722 
L 2188 4044 
z
M 1831 4666 
L 2547 4666 
L 4325 0 
L 3669 0 
L 3244 1197 
L 1141 1197 
L 716 0 
L 50 0 
L 1831 4666 
z
" transform="scale(0.015625)"/>
     </defs>
     <use xlink:href="#DejaVuSans-44"/>
     <use xlink:href="#DejaVuSans-79" x="77.001953"/>
     <use xlink:href="#DejaVuSans-6e" x="136.181641"/>
     <use xlink:href="#DejaVuSans-61" x="199.560547"/>
     <use xlink:href="#DejaVuSans-6d" x="260.839844"/>
     <use xlink:href="#DejaVuSans-69" x="358.251953"/>
     <use xlink:href="#DejaVuSans-63" x="386.035156"/>
     <use xlink:href="#DejaVuSans-20" x="441.015625"/>
     <use xlink:href="#DejaVuSans-54" x="472.802734"/>
     <use xlink:href="#DejaVuSans-47" x="533.886719"/>
     <use xlink:href="#DejaVuSans-41" x="611.376953"/>
    </g>
   </g>
   <g id="legend_1">
    <g id="patch_5">
     <path d="M 61 179.896 
L 236.8 179.896 
Q 238.8 179.896 238.8 177.896 
L 238.8 133.841312 
Q 238.8 131.841312 236.8 131.841312 
L 61 131.841312 
Q 59 131.841312 59 133.841312 
L 59 177.896 
Q 59 179.896 61 179.896 
z
" style="fill: #ffffff; opacity: 0.8; stroke: #cccccc; stroke-linejoin: miter"/>
    </g>
    <g id="line2d_17">
     <path d="M 63 139.93975 
L 73 139.93975 
L 83 139.93975 
" style="fill: none; stroke: #d9d9d9; stroke-width: 1.5; stroke-linecap: square"/>
    </g>
    <g id="text_17">
     <!-- PS-1.12K -->
     <g transform="translate(91 143.43975) scale(0.1 -0.1)">
      <defs>
       <path id="DejaVuSans-50" d="M 1259 4147 
L 1259 2394 
L 2053 2394 
Q 2494 2394 2734 2622 
Q 2975 2850 2975 3272 
Q 2975 3691 2734 3919 
Q 2494 4147 2053 4147 
L 1259 4147 
z
M 628 4666 
L 2053 4666 
Q 2838 4666 3239 4311 
Q 3641 3956 3641 3272 
Q 3641 2581 3239 2228 
Q 2838 1875 2053 1875 
L 1259 1875 
L 1259 0 
L 628 0 
L 628 4666 
z
" transform="scale(0.015625)"/>
       <path id="DejaVuSans-53" d="M 3425 4513 
L 3425 3897 
Q 3066 4069 2747 4153 
Q 2428 4238 2131 4238 
Q 1616 4238 1336 4038 
Q 1056 3838 1056 3469 
Q 1056 3159 1242 3001 
Q 1428 2844 1947 2747 
L 2328 2669 
Q 3034 2534 3370 2195 
Q 3706 1856 3706 1288 
Q 3706 609 3251 259 
Q 2797 -91 1919 -91 
Q 1588 -91 1214 -16 
Q 841 59 441 206 
L 441 856 
Q 825 641 1194 531 
Q 1563 422 1919 422 
Q 2459 422 2753 634 
Q 3047 847 3047 1241 
Q 3047 1584 2836 1778 
Q 2625 1972 2144 2069 
L 1759 2144 
Q 1053 2284 737 2584 
Q 422 2884 422 3419 
Q 422 4038 858 4394 
Q 1294 4750 2059 4750 
Q 2388 4750 2728 4690 
Q 3069 4631 3425 4513 
z
" transform="scale(0.015625)"/>
       <path id="DejaVuSans-2d" d="M 313 2009 
L 1997 2009 
L 1997 1497 
L 313 1497 
L 313 2009 
z
" transform="scale(0.015625)"/>
       <path id="DejaVuSans-2e" d="M 684 794 
L 1344 794 
L 1344 0 
L 684 0 
L 684 794 
z
" transform="scale(0.015625)"/>
       <path id="DejaVuSans-4b" d="M 628 4666 
L 1259 4666 
L 1259 2694 
L 3353 4666 
L 4166 4666 
L 1850 2491 
L 4331 0 
L 3500 0 
L 1259 2247 
L 1259 0 
L 628 0 
L 628 4666 
z
" transform="scale(0.015625)"/>
      </defs>
      <use xlink:href="#DejaVuSans-50"/>
      <use xlink:href="#DejaVuSans-53" x="60.302734"/>
      <use xlink:href="#DejaVuSans-2d" x="123.779297"/>
      <use xlink:href="#DejaVuSans-31" x="159.863281"/>
      <use xlink:href="#DejaVuSans-2e" x="223.486328"/>
      <use xlink:href="#DejaVuSans-31" x="255.273438"/>
      <use xlink:href="#DejaVuSans-32" x="318.896484"/>
      <use xlink:href="#DejaVuSans-4b" x="382.519531"/>
     </g>
    </g>
    <g id="line2d_18">
     <path d="M 63 154.617875 
L 73 154.617875 
L 83 154.617875 
" style="fill: none; stroke: #a6bddb; stroke-width: 1.5; stroke-linecap: square"/>
    </g>
    <g id="text_18">
     <!-- PS-1.12K-SCF$_{3}$ -->
     <g transform="translate(91 158.117875) scale(0.1 -0.1)">
      <defs>
       <path id="DejaVuSans-46" d="M 628 4666 
L 3309 4666 
L 3309 4134 
L 1259 4134 
L 1259 2759 
L 3109 2759 
L 3109 2228 
L 1259 2228 
L 1259 0 
L 628 0 
L 628 4666 
z
" transform="scale(0.015625)"/>
      </defs>
      <use xlink:href="#DejaVuSans-50" transform="translate(0 0.78125)"/>
      <use xlink:href="#DejaVuSans-53" transform="translate(60.302734 0.78125)"/>
      <use xlink:href="#DejaVuSans-2d" transform="translate(123.779297 0.78125)"/>
      <use xlink:href="#DejaVuSans-31" transform="translate(159.863281 0.78125)"/>
      <use xlink:href="#DejaVuSans-2e" transform="translate(223.486328 0.78125)"/>
      <use xlink:href="#DejaVuSans-31" transform="translate(255.273438 0.78125)"/>
      <use xlink:href="#DejaVuSans-32" transform="translate(318.896484 0.78125)"/>
      <use xlink:href="#DejaVuSans-4b" transform="translate(382.519531 0.78125)"/>
      <use xlink:href="#DejaVuSans-2d" transform="translate(448.095703 0.78125)"/>
      <use xlink:href="#DejaVuSans-53" transform="translate(484.179688 0.78125)"/>
      <use xlink:href="#DejaVuSans-43" transform="translate(547.65625 0.78125)"/>
      <use xlink:href="#DejaVuSans-46" transform="translate(617.480469 0.78125)"/>
      <use xlink:href="#DejaVuSans-33" transform="translate(675.957031 -15.625) scale(0.7)"/>
     </g>
    </g>
    <g id="line2d_19">
     <path d="M 63 169.296 
L 73 169.296 
L 83 169.296 
" style="fill: none; stroke-dasharray: 1.11,0.48; stroke-dashoffset: 0; stroke: #ff0000; stroke-width: 0.3"/>
    </g>
    <g id="text_19">
     <!-- $T_\mathregular{depolymerization}$ at 99.5% Mass -->
     <g transform="translate(91 172.796) scale(0.1 -0.1)">
      <defs>
       <path id="DejaVuSans-Oblique-54" d="M 378 4666 
L 4325 4666 
L 4225 4134 
L 2559 4134 
L 1759 0 
L 1125 0 
L 1925 4134 
L 275 4134 
L 378 4666 
z
" transform="scale(0.015625)"/>
       <path id="DejaVuSans-64" d="M 2906 2969 
L 2906 4863 
L 3481 4863 
L 3481 0 
L 2906 0 
L 2906 525 
Q 2725 213 2448 61 
Q 2172 -91 1784 -91 
Q 1150 -91 751 415 
Q 353 922 353 1747 
Q 353 2572 751 3078 
Q 1150 3584 1784 3584 
Q 2172 3584 2448 3432 
Q 2725 3281 2906 2969 
z
M 947 1747 
Q 947 1113 1208 752 
Q 1469 391 1925 391 
Q 2381 391 2643 752 
Q 2906 1113 2906 1747 
Q 2906 2381 2643 2742 
Q 2381 3103 1925 3103 
Q 1469 3103 1208 2742 
Q 947 2381 947 1747 
z
" transform="scale(0.015625)"/>
       <path id="DejaVuSans-6f" d="M 1959 3097 
Q 1497 3097 1228 2736 
Q 959 2375 959 1747 
Q 959 1119 1226 758 
Q 1494 397 1959 397 
Q 2419 397 2687 759 
Q 2956 1122 2956 1747 
Q 2956 2369 2687 2733 
Q 2419 3097 1959 3097 
z
M 1959 3584 
Q 2709 3584 3137 3096 
Q 3566 2609 3566 1747 
Q 3566 888 3137 398 
Q 2709 -91 1959 -91 
Q 1206 -91 779 398 
Q 353 888 353 1747 
Q 353 2609 779 3096 
Q 1206 3584 1959 3584 
z
" transform="scale(0.015625)"/>
       <path id="DejaVuSans-6c" d="M 603 4863 
L 1178 4863 
L 1178 0 
L 603 0 
L 603 4863 
z
" transform="scale(0.015625)"/>
       <path id="DejaVuSans-72" d="M 2631 2963 
Q 2534 3019 2420 3045 
Q 2306 3072 2169 3072 
Q 1681 3072 1420 2755 
Q 1159 2438 1159 1844 
L 1159 0 
L 581 0 
L 581 3500 
L 1159 3500 
L 1159 2956 
Q 1341 3275 1631 3429 
Q 1922 3584 2338 3584 
Q 2397 3584 2469 3576 
Q 2541 3569 2628 3553 
L 2631 2963 
z
" transform="scale(0.015625)"/>
       <path id="DejaVuSans-7a" d="M 353 3500 
L 3084 3500 
L 3084 2975 
L 922 459 
L 3084 459 
L 3084 0 
L 275 0 
L 275 525 
L 2438 3041 
L 353 3041 
L 353 3500 
z
" transform="scale(0.015625)"/>
       <path id="DejaVuSans-74" d="M 1172 4494 
L 1172 3500 
L 2356 3500 
L 2356 3053 
L 1172 3053 
L 1172 1153 
Q 1172 725 1289 603 
Q 1406 481 1766 481 
L 2356 481 
L 2356 0 
L 1766 0 
Q 1100 0 847 248 
Q 594 497 594 1153 
L 594 3053 
L 172 3053 
L 172 3500 
L 594 3500 
L 594 4494 
L 1172 4494 
z
" transform="scale(0.015625)"/>
       <path id="DejaVuSans-39" d="M 703 97 
L 703 672 
Q 941 559 1184 500 
Q 1428 441 1663 441 
Q 2288 441 2617 861 
Q 2947 1281 2994 2138 
Q 2813 1869 2534 1725 
Q 2256 1581 1919 1581 
Q 1219 1581 811 2004 
Q 403 2428 403 3163 
Q 403 3881 828 4315 
Q 1253 4750 1959 4750 
Q 2769 4750 3195 4129 
Q 3622 3509 3622 2328 
Q 3622 1225 3098 567 
Q 2575 -91 1691 -91 
Q 1453 -91 1209 -44 
Q 966 3 703 97 
z
M 1959 2075 
Q 2384 2075 2632 2365 
Q 2881 2656 2881 3163 
Q 2881 3666 2632 3958 
Q 2384 4250 1959 4250 
Q 1534 4250 1286 3958 
Q 1038 3666 1038 3163 
Q 1038 2656 1286 2365 
Q 1534 2075 1959 2075 
z
" transform="scale(0.015625)"/>
       <path id="DejaVuSans-35" d="M 691 4666 
L 3169 4666 
L 3169 4134 
L 1269 4134 
L 1269 2991 
Q 1406 3038 1543 3061 
Q 1681 3084 1819 3084 
Q 2600 3084 3056 2656 
Q 3513 2228 3513 1497 
Q 3513 744 3044 326 
Q 2575 -91 1722 -91 
Q 1428 -91 1123 -41 
Q 819 9 494 109 
L 494 744 
Q 775 591 1075 516 
Q 1375 441 1709 441 
Q 2250 441 2565 725 
Q 2881 1009 2881 1497 
Q 2881 1984 2565 2268 
Q 2250 2553 1709 2553 
Q 1456 2553 1204 2497 
Q 953 2441 691 2322 
L 691 4666 
z
" transform="scale(0.015625)"/>
      </defs>
      <use xlink:href="#DejaVuSans-Oblique-54" transform="translate(0 0.78125)"/>
      <use xlink:href="#DejaVuSans-64" transform="translate(61.083984 -15.625) scale(0.7)"/>
      <use xlink:href="#DejaVuSans-65" transform="translate(105.517578 -15.625) scale(0.7)"/>
      <use xlink:href="#DejaVuSans-70" transform="translate(148.583984 -15.625) scale(0.7)"/>
      <use xlink:href="#DejaVuSans-6f" transform="translate(193.017578 -15.625) scale(0.7)"/>
      <use xlink:href="#DejaVuSans-6c" transform="translate(235.844727 -15.625) scale(0.7)"/>
      <use xlink:href="#DejaVuSans-79" transform="translate(255.292969 -15.625) scale(0.7)"/>
      <use xlink:href="#DejaVuSans-6d" transform="translate(296.71875 -15.625) scale(0.7)"/>
      <use xlink:href="#DejaVuSans-65" transform="translate(364.907227 -15.625) scale(0.7)"/>
      <use xlink:href="#DejaVuSans-72" transform="translate(407.973633 -15.625) scale(0.7)"/>
      <use xlink:href="#DejaVuSans-69" transform="translate(436.75293 -15.625) scale(0.7)"/>
      <use xlink:href="#DejaVuSans-7a" transform="translate(456.201172 -15.625) scale(0.7)"/>
      <use xlink:href="#DejaVuSans-61" transform="translate(492.944336 -15.625) scale(0.7)"/>
      <use xlink:href="#DejaVuSans-74" transform="translate(535.839844 -15.625) scale(0.7)"/>
      <use xlink:href="#DejaVuSans-69" transform="translate(563.286133 -15.625) scale(0.7)"/>
      <use xlink:href="#DejaVuSans-6f" transform="translate(582.734375 -15.625) scale(0.7)"/>
      <use xlink:href="#DejaVuSans-6e" transform="translate(625.561523 -15.625) scale(0.7)"/>
      <use xlink:href="#DejaVuSans-20" transform="translate(672.661133 0.78125)"/>
      <use xlink:href="#DejaVuSans-61" transform="translate(704.448242 0.78125)"/>
      <use xlink:href="#DejaVuSans-74" transform="translate(765.727539 0.78125)"/>
      <use xlink:href="#DejaVuSans-20" transform="translate(804.936523 0.78125)"/>
      <use xlink:href="#DejaVuSans-39" transform="translate(836.723633 0.78125)"/>
      <use xlink:href="#DejaVuSans-39" transform="translate(900.34668 0.78125)"/>
      <use xlink:href="#DejaVuSans-2e" transform="translate(963.969727 0.78125)"/>
      <use xlink:href="#DejaVuSans-35" transform="translate(995.756836 0.78125)"/>
      <use xlink:href="#DejaVuSans-25" transform="translate(1059.379883 0.78125)"/>
      <use xlink:href="#DejaVuSans-20" transform="translate(1154.399414 0.78125)"/>
      <use xlink:href="#DejaVuSans-4d" transform="translate(1186.186523 0.78125)"/>
      <use xlink:href="#DejaVuSans-61" transform="translate(1272.46582 0.78125)"/>
      <use xlink:href="#DejaVuSans-73" transform="translate(1333.745117 0.78125)"/>
      <use xlink:href="#DejaVuSans-73" transform="translate(1385.844727 0.78125)"/>
     </g>
    </g>
   </g>
  </g>
  <g id="axes_2">
   <g id="patch_6">
    <path d="M 54 384.48 
L 388.8 384.48 
L 388.8 251.424 
L 54 251.424 
z
" style="fill: #ffffff"/>
   </g>
   <g id="matplotlib.axis_3">
    <g id="xtick_9">
     <g id="line2d_20">
      <g>
       <use xlink:href="#m04c21f3a3e" x="76.32" y="384.48" style="stroke: #000000; stroke-width: 0.8"/>
      </g>
     </g>
     <g id="text_20">
      <!-- 260 -->
      <g transform="translate(64.8675 397.098125) scale(0.12 -0.12)">
       <use xlink:href="#DejaVuSans-32"/>
       <use xlink:href="#DejaVuSans-36" x="63.623047"/>
       <use xlink:href="#DejaVuSans-30" x="127.246094"/>
      </g>
     </g>
    </g>
    <g id="xtick_10">
     <g id="line2d_21">
      <g>
       <use xlink:href="#m04c21f3a3e" x="120.96" y="384.48" style="stroke: #000000; stroke-width: 0.8"/>
      </g>
     </g>
     <g id="text_21">
      <!-- 280 -->
      <g transform="translate(109.5075 397.098125) scale(0.12 -0.12)">
       <use xlink:href="#DejaVuSans-32"/>
       <use xlink:href="#DejaVuSans-38" x="63.623047"/>
       <use xlink:href="#DejaVuSans-30" x="127.246094"/>
      </g>
     </g>
    </g>
    <g id="xtick_11">
     <g id="line2d_22">
      <g>
       <use xlink:href="#m04c21f3a3e" x="165.6" y="384.48" style="stroke: #000000; stroke-width: 0.8"/>
      </g>
     </g>
     <g id="text_22">
      <!-- 300 -->
      <g transform="translate(154.1475 397.098125) scale(0.12 -0.12)">
       <use xlink:href="#DejaVuSans-33"/>
       <use xlink:href="#DejaVuSans-30" x="63.623047"/>
       <use xlink:href="#DejaVuSans-30" x="127.246094"/>
      </g>
     </g>
    </g>
    <g id="xtick_12">
     <g id="line2d_23">
      <g>
       <use xlink:href="#m04c21f3a3e" x="210.24" y="384.48" style="stroke: #000000; stroke-width: 0.8"/>
      </g>
     </g>
     <g id="text_23">
      <!-- 320 -->
      <g transform="translate(198.7875 397.098125) scale(0.12 -0.12)">
       <use xlink:href="#DejaVuSans-33"/>
       <use xlink:href="#DejaVuSans-32" x="63.623047"/>
       <use xlink:href="#DejaVuSans-30" x="127.246094"/>
      </g>
     </g>
    </g>
    <g id="xtick_13">
     <g id="line2d_24">
      <g>
       <use xlink:href="#m04c21f3a3e" x="254.88" y="384.48" style="stroke: #000000; stroke-width: 0.8"/>
      </g>
     </g>
     <g id="text_24">
      <!-- 340 -->
      <g transform="translate(243.4275 397.098125) scale(0.12 -0.12)">
       <use xlink:href="#DejaVuSans-33"/>
       <use xlink:href="#DejaVuSans-34" x="63.623047"/>
       <use xlink:href="#DejaVuSans-30" x="127.246094"/>
      </g>
     </g>
    </g>
    <g id="xtick_14">
     <g id="line2d_25">
      <g>
       <use xlink:href="#m04c21f3a3e" x="299.52" y="384.48" style="stroke: #000000; stroke-width: 0.8"/>
      </g>
     </g>
     <g id="text_25">
      <!-- 360 -->
      <g transform="translate(288.0675 397.098125) scale(0.12 -0.12)">
       <use xlink:href="#DejaVuSans-33"/>
       <use xlink:href="#DejaVuSans-36" x="63.623047"/>
       <use xlink:href="#DejaVuSans-30" x="127.246094"/>
      </g>
     </g>
    </g>
    <g id="xtick_15">
     <g id="line2d_26">
      <g>
       <use xlink:href="#m04c21f3a3e" x="344.16" y="384.48" style="stroke: #000000; stroke-width: 0.8"/>
      </g>
     </g>
     <g id="text_26">
      <!-- 380 -->
      <g transform="translate(332.7075 397.098125) scale(0.12 -0.12)">
       <use xlink:href="#DejaVuSans-33"/>
       <use xlink:href="#DejaVuSans-38" x="63.623047"/>
       <use xlink:href="#DejaVuSans-30" x="127.246094"/>
      </g>
     </g>
    </g>
    <g id="xtick_16">
     <g id="line2d_27">
      <g>
       <use xlink:href="#m04c21f3a3e" x="388.8" y="384.48" style="stroke: #000000; stroke-width: 0.8"/>
      </g>
     </g>
     <g id="text_27">
      <!-- 400 -->
      <g transform="translate(377.3475 397.098125) scale(0.12 -0.12)">
       <use xlink:href="#DejaVuSans-34"/>
       <use xlink:href="#DejaVuSans-30" x="63.623047"/>
       <use xlink:href="#DejaVuSans-30" x="127.246094"/>
      </g>
     </g>
    </g>
    <g id="text_28">
     <!-- Temp (oC) -->
     <g transform="translate(190.960313 412.711875) scale(0.12 -0.12)">
      <use xlink:href="#DejaVuSans-54"/>
      <use xlink:href="#DejaVuSans-65" x="44.083984"/>
      <use xlink:href="#DejaVuSans-6d" x="105.607422"/>
      <use xlink:href="#DejaVuSans-70" x="203.019531"/>
      <use xlink:href="#DejaVuSans-20" x="266.496094"/>
      <use xlink:href="#DejaVuSans-28" x="298.283203"/>
      <use xlink:href="#DejaVuSans-6f" x="337.296875"/>
      <use xlink:href="#DejaVuSans-43" x="398.478516"/>
      <use xlink:href="#DejaVuSans-29" x="468.302734"/>
     </g>
    </g>
   </g>
   <g id="matplotlib.axis_4">
    <g id="ytick_6">
     <g id="line2d_28">
      <g>
       <use xlink:href="#m33ab79271d" x="54" y="378.368582" style="stroke: #000000; stroke-width: 0.8"/>
      </g>
     </g>
     <g id="text_29">
      <!-- 1.3 -->
      <g transform="translate(31.41625 382.927645) scale(0.12 -0.12)">
       <use xlink:href="#DejaVuSans-31"/>
       <use xlink:href="#DejaVuSans-2e" x="63.623047"/>
       <use xlink:href="#DejaVuSans-33" x="95.410156"/>
      </g>
     </g>
    </g>
    <g id="ytick_7">
     <g id="line2d_29">
      <g>
       <use xlink:href="#m33ab79271d" x="54" y="333.708187" style="stroke: #000000; stroke-width: 0.8"/>
      </g>
     </g>
     <g id="text_30">
      <!-- 1.4 -->
      <g transform="translate(31.41625 338.26725) scale(0.12 -0.12)">
       <use xlink:href="#DejaVuSans-31"/>
       <use xlink:href="#DejaVuSans-2e" x="63.623047"/>
       <use xlink:href="#DejaVuSans-34" x="95.410156"/>
      </g>
     </g>
    </g>
    <g id="ytick_8">
     <g id="line2d_30">
      <g>
       <use xlink:href="#m33ab79271d" x="54" y="289.047792" style="stroke: #000000; stroke-width: 0.8"/>
      </g>
     </g>
     <g id="text_31">
      <!-- 1.5 -->
      <g transform="translate(31.41625 293.606855) scale(0.12 -0.12)">
       <use xlink:href="#DejaVuSans-31"/>
       <use xlink:href="#DejaVuSans-2e" x="63.623047"/>
       <use xlink:href="#DejaVuSans-35" x="95.410156"/>
      </g>
     </g>
    </g>
    <g id="text_32">
     <!-- Ion Current (A) -->
     <g transform="translate(24.920625 362.327625) rotate(-90) scale(0.12 -0.12)">
      <defs>
       <path id="DejaVuSans-49" d="M 628 4666 
L 1259 4666 
L 1259 0 
L 628 0 
L 628 4666 
z
" transform="scale(0.015625)"/>
       <path id="DejaVuSans-75" d="M 544 1381 
L 544 3500 
L 1119 3500 
L 1119 1403 
Q 1119 906 1312 657 
Q 1506 409 1894 409 
Q 2359 409 2629 706 
Q 2900 1003 2900 1516 
L 2900 3500 
L 3475 3500 
L 3475 0 
L 2900 0 
L 2900 538 
Q 2691 219 2414 64 
Q 2138 -91 1772 -91 
Q 1169 -91 856 284 
Q 544 659 544 1381 
z
M 1991 3584 
L 1991 3584 
z
" transform="scale(0.015625)"/>
      </defs>
      <use xlink:href="#DejaVuSans-49"/>
      <use xlink:href="#DejaVuSans-6f" x="29.492188"/>
      <use xlink:href="#DejaVuSans-6e" x="90.673828"/>
      <use xlink:href="#DejaVuSans-20" x="154.052734"/>
      <use xlink:href="#DejaVuSans-43" x="185.839844"/>
      <use xlink:href="#DejaVuSans-75" x="255.664062"/>
      <use xlink:href="#DejaVuSans-72" x="319.042969"/>
      <use xlink:href="#DejaVuSans-72" x="358.40625"/>
      <use xlink:href="#DejaVuSans-65" x="397.269531"/>
      <use xlink:href="#DejaVuSans-6e" x="458.792969"/>
      <use xlink:href="#DejaVuSans-74" x="522.171875"/>
      <use xlink:href="#DejaVuSans-20" x="561.380859"/>
      <use xlink:href="#DejaVuSans-28" x="593.167969"/>
      <use xlink:href="#DejaVuSans-41" x="632.181641"/>
      <use xlink:href="#DejaVuSans-29" x="700.589844"/>
     </g>
    </g>
    <g id="text_33">
     <!-- 1e12 -->
     <g transform="translate(54 248.424) scale(0.1 -0.1)">
      <defs>
       <path id="DejaVuSans-2212" d="M 678 2272 
L 4684 2272 
L 4684 1741 
L 678 1741 
L 678 2272 
z
" transform="scale(0.015625)"/>
      </defs>
      <use xlink:href="#DejaVuSans-31"/>
      <use xlink:href="#DejaVuSans-65" x="63.623047"/>
      <use xlink:href="#DejaVuSans-2212" x="125.146484"/>
      <use xlink:href="#DejaVuSans-31" x="208.935547"/>
      <use xlink:href="#DejaVuSans-32" x="272.558594"/>
     </g>
    </g>
   </g>
   <g id="line2d_31">
    <path d="M 54.013392 340.951657 
L 54.499968 346.914266 
L 54.801266 342.655004 
L 55.236528 340.099536 
L 55.551262 368.210129 
L 56.015496 371.61727 
L 56.278872 343.507125 
L 56.727504 323.062936 
L 57.015432 329.025992 
L 57.334608 327.322197 
L 57.75871 337.544069 
L 58.077864 355.43279 
L 58.510872 337.544069 
L 58.80775 353.728996 
L 59.238504 353.728996 
L 59.566608 322.211262 
L 59.879088 334.988601 
L 60.307632 329.877665 
L 60.611206 345.210472 
L 61.05312 326.470524 
L 61.361136 334.988601 
L 61.789702 357.136137 
L 62.088746 344.358798 
L 62.54856 336.692395 
L 62.845416 340.951657 
L 63.296258 363.950867 
L 63.581976 327.322197 
L 64.01052 329.877665 
L 64.31184 329.025992 
L 64.76719 347.76594 
L 65.06177 366.506335 
L 65.494778 352.025202 
L 65.827368 360.543725 
L 66.12871 335.840275 
L 66.570624 323.915056 
L 66.854088 344.358798 
L 67.304952 331.581459 
L 67.586206 340.099536 
L 67.900896 341.803331 
L 68.333904 325.618403 
L 68.791486 349.469734 
L 69.083856 347.76594 
L 69.36953 339.247863 
L 69.80477 330.729339 
L 70.074864 363.099193 
L 70.572578 326.470524 
L 70.858318 359.691605 
L 71.32253 347.76594 
L 71.599342 354.580669 
L 72.070294 343.507125 
L 72.358222 354.580669 
L 72.80239 347.76594 
L 73.088064 333.284807 
L 73.389406 351.173528 
L 73.826856 334.988601 
L 74.286626 334.988601 
L 74.574554 349.469734 
L 75.308904 310.285597 
L 75.612478 371.61727 
L 76.049928 363.950867 
L 76.346762 346.062592 
L 76.78651 343.507125 
L 77.101222 329.877665 
L 77.41147 334.988601 
L 77.857848 364.802541 
L 78.165864 368.210129 
L 78.621214 363.950867 
L 78.915794 328.173871 
L 79.20149 359.691605 
L 80.380008 338.396189 
L 80.694698 359.691605 
L 81.136634 339.247863 
L 81.422374 340.951657 
L 81.85757 323.062936 
L 82.16784 346.062592 
L 82.62319 341.803331 
L 82.931206 353.728996 
L 83.339618 340.951657 
L 83.658794 351.173528 
L 83.946722 340.099536 
L 84.411 359.691605 
L 84.703414 352.876875 
L 85.158698 327.322197 
L 85.455554 323.915056 
L 85.87296 327.322197 
L 86.172048 330.729339 
L 86.60731 352.025202 
L 86.91084 343.507125 
L 87.38177 359.691605 
L 87.66077 340.099536 
L 88.102706 331.581459 
L 88.41965 340.951657 
L 88.854912 342.655004 
L 89.16516 352.876875 
L 89.46869 353.728996 
L 89.897278 318.80412 
L 90.185206 341.803331 
L 90.673992 342.655004 
L 90.93739 361.395399 
L 91.379326 329.877665 
L 91.67616 335.840275 
L 92.10919 359.691605 
L 92.414952 334.136927 
L 92.87923 348.61806 
L 93.16265 342.655004 
L 93.600144 358.839931 
L 93.892514 345.210472 
L 94.338936 346.914266 
L 94.644698 321.359588 
L 94.941554 338.396189 
L 95.376794 327.322197 
L 95.691506 329.877665 
L 95.972738 335.840275 
L 96.445944 360.543725 
L 96.894554 349.469734 
L 97.195896 350.321408 
L 97.486056 352.025202 
L 97.923506 346.062592 
L 98.206992 335.840275 
L 98.666762 354.580669 
L 98.970358 316.248206 
L 99.383278 357.136137 
L 99.706896 334.136927 
L 100.019398 346.062592 
L 100.44792 344.358798 
L 100.749262 358.839931 
L 101.19343 341.803331 
L 101.479104 352.876875 
L 101.802722 340.099536 
L 102.260326 362.247073 
L 102.700008 357.136137 
L 102.976754 320.507468 
L 103.287024 342.655004 
L 103.742374 334.988601 
L 104.012446 321.359588 
L 104.47447 332.433133 
L 104.793602 362.247073 
L 105.061486 337.544069 
L 105.525698 372.468944 
L 105.954286 349.469734 
L 106.244446 360.543725 
L 106.55023 327.322197 
L 106.97873 350.321408 
L 107.286746 332.433133 
L 107.742096 358.839931 
L 108.04788 338.396189 
L 108.469706 338.396189 
L 108.78223 362.247073 
L 109.237514 333.284807 
L 109.518746 334.136927 
L 109.83127 338.396189 
L 110.273206 337.544069 
L 110.547698 349.469734 
L 111.744072 337.544069 
L 112.078872 345.210472 
L 112.371286 347.76594 
L 112.797554 352.876875 
L 113.092222 343.507125 
L 113.534136 368.210129 
L 114.000602 339.247863 
L 114.27516 353.728996 
L 114.576502 359.691605 
L 115.045222 331.581459 
L 115.330896 329.877665 
L 115.786246 346.914266 
L 116.085334 329.025992 
L 116.511602 320.507468 
L 116.80627 349.469734 
L 117.250438 352.876875 
L 117.522698 352.025202 
L 118.002578 342.655004 
L 118.26823 340.099536 
L 118.73916 340.951657 
L 119.044944 331.581459 
L 119.484626 361.395399 
L 119.779294 343.507125 
L 120.053786 346.914266 
L 120.531478 358.839931 
L 121.015778 337.544069 
L 121.268016 338.396189 
L 121.567104 337.544069 
L 122.020222 335.840275 
L 122.303642 338.396189 
L 122.765666 336.692395 
L 123.055848 334.136927 
L 123.50227 348.61806 
L 123.794618 349.469734 
L 124.328088 346.914266 
L 124.828056 335.840275 
L 125.287848 360.543725 
L 125.586936 309.433923 
L 126.356976 341.803331 
L 126.79447 352.025202 
L 127.071238 338.396189 
L 127.51092 332.433133 
L 127.816682 352.025202 
L 128.129206 340.099536 
L 128.60681 337.544069 
L 128.854562 341.803331 
L 129.292056 334.988601 
L 129.70049 345.210472 
L 130.062096 350.321408 
L 130.796446 330.729339 
L 131.088794 334.988601 
L 131.528498 346.062592 
L 131.825398 346.062592 
L 132.26508 344.358798 
L 132.566422 363.950867 
L 133.300706 333.284807 
L 133.61323 338.396189 
L 134.04847 324.76673 
L 134.479246 336.692395 
L 134.816278 350.321408 
L 135.09077 334.136927 
L 135.54612 359.691605 
L 135.854136 347.76594 
L 136.13539 341.803331 
L 136.586254 367.358008 
L 136.876414 343.507125 
L 137.325024 351.173528 
L 137.624112 311.13727 
L 138.066048 354.580669 
L 138.394152 346.062592 
L 138.831602 345.210472 
L 139.112856 336.692395 
L 139.40969 353.728996 
L 139.860554 340.951657 
L 140.177498 345.210472 
L 140.612738 356.284464 
L 140.898478 353.728996 
L 141.335928 331.581459 
L 141.646198 364.802541 
L 142.094786 327.322197 
L 142.41173 312.841064 
L 142.675128 349.469734 
L 143.13492 315.396532 
L 144.324554 349.469734 
L 144.63257 320.507468 
L 144.916056 324.76673 
L 145.663754 369.061803 
L 146.10127 331.581459 
L 146.41596 348.61806 
L 146.860128 344.358798 
L 147.127968 355.43279 
L 147.447144 329.877665 
L 147.880152 332.433133 
L 148.20377 325.618403 
L 148.636778 375.024858 
L 148.944794 339.247863 
L 149.38231 330.729339 
L 149.681398 346.914266 
L 150.123334 328.173871 
L 150.391152 355.43279 
L 150.830856 332.433133 
L 151.154541 337.544069 
L 151.440214 347.76594 
L 151.88657 343.507125 
L 152.201326 335.840275 
L 152.638754 352.876875 
L 152.962438 314.544858 
L 153.388706 361.395399 
L 153.68112 345.210472 
L 154.169928 332.433133 
L 154.45116 343.507125 
L 154.723486 346.062592 
L 155.17877 364.802541 
L 155.491294 329.025992 
L 155.910888 337.544069 
L 156.232318 358.839931 
L 156.687602 339.247863 
L 156.99343 340.951657 
L 157.714366 333.284807 
L 158.171904 353.728996 
L 158.464318 359.691605 
L 158.899514 347.76594 
L 159.19416 330.729339 
L 159.48653 348.61806 
L 159.946366 345.210472 
L 160.254382 316.248206 
L 160.551238 337.544069 
L 160.993152 326.470524 
L 161.444016 321.359588 
L 161.72527 350.321408 
L 162.189459 337.544069 
L 162.475222 372.468944 
L 162.81 349.469734 
L 163.225152 334.988601 
L 163.515334 333.284807 
L 163.955016 369.913476 
L 164.234016 326.470524 
L 164.707222 332.433133 
L 164.992896 344.358798 
L 165.298658 324.76673 
L 165.740594 342.655004 
L 166.04419 342.655004 
L 166.47269 326.470524 
L 166.789634 328.173871 
L 167.236056 316.248206 
L 167.523984 346.062592 
L 167.972594 325.618403 
L 168.269494 352.025202 
L 168.731541 331.581459 
L 169.021634 345.210472 
L 169.452454 333.284807 
L 169.75373 335.840275 
L 170.026056 352.025202 
L 170.79161 316.248206 
L 171.249214 359.691605 
L 171.52596 345.210472 
L 171.976802 350.321408 
L 172.246896 344.358798 
L 172.575 353.728996 
L 173.021422 310.285597 
L 173.322698 344.358798 
L 173.753541 350.321408 
L 174.04812 319.655794 
L 174.494498 330.729339 
L 174.804746 348.61806 
L 175.253422 356.284464 
L 175.543538 311.989391 
L 175.985541 371.61727 
L 176.295722 329.025992 
L 176.597064 329.877665 
L 177.065762 334.988601 
L 177.49877 317.952 
L 177.780024 344.358798 
L 178.092459 332.433133 
L 178.545578 338.396189 
L 178.833506 338.396189 
L 179.291088 328.173871 
L 179.596872 362.247073 
L 179.869198 346.914266 
L 180.331222 339.247863 
L 180.741888 327.322197 
L 181.069992 326.470524 
L 181.364594 341.803331 
L 181.802088 351.173528 
L 182.110104 321.359588 
L 182.534206 344.358798 
L 182.98949 341.803331 
L 183.281904 345.210472 
L 183.580992 323.915056 
L 184.016254 331.581459 
L 184.32427 326.470524 
L 184.799642 313.692738 
L 185.076454 346.062592 
L 185.502722 323.915056 
L 185.817478 345.210472 
L 186.263856 318.80412 
L 186.998206 338.396189 
L 187.29504 315.396532 
L 187.723562 349.469734 
L 188.038318 312.841064 
L 188.478 335.840275 
L 188.761486 336.692395 
L 189.07169 329.025992 
L 189.522554 346.914266 
L 190.25023 320.507468 
L 190.712254 343.507125 
L 191.009088 304.322987 
L 191.301502 352.025202 
L 191.756786 308.581803 
L 192.029112 322.211262 
L 192.495578 338.396189 
L 192.792478 312.841064 
L 193.243342 369.913476 
L 193.555778 320.507468 
L 193.850446 345.210472 
L 194.30131 352.025202 
L 194.58473 321.359588 
L 195.049008 332.433133 
L 195.48869 323.062936 
L 196.080214 318.80412 
L 196.52657 320.507468 
L 196.80557 338.396189 
L 197.254246 326.470524 
L 197.564494 334.988601 
L 197.85461 364.802541 
L 198.303286 323.915056 
L 198.729554 348.61806 
L 199.062144 339.247863 
L 199.34784 346.062592 
L 199.81435 317.952 
L 200.102278 329.025992 
L 200.55312 311.989391 
L 200.84549 357.988258 
L 201.318674 336.692395 
L 201.604414 329.877665 
L 202.030682 324.76673 
L 202.367714 333.284807 
L 202.657896 327.322197 
L 203.09981 336.692395 
L 203.389992 314.544858 
L 203.840856 328.173871 
L 204.139944 324.76673 
L 204.58188 352.025202 
L 204.880968 312.841064 
L 205.302794 333.284807 
L 205.617506 323.915056 
L 206.061674 329.025992 
L 206.360762 346.062592 
L 206.81388 336.692395 
L 207.124128 344.358798 
L 207.561578 330.729339 
L 207.87408 333.284807 
L 208.162008 339.247863 
L 208.628541 326.470524 
L 208.909706 330.729339 
L 209.36057 315.396532 
L 209.809246 341.803331 
L 210.090478 325.618403 
L 210.38508 328.173871 
L 210.818088 347.76594 
L 211.11269 312.841064 
L 211.594802 369.061803 
L 211.849294 362.247073 
L 212.32692 340.951657 
L 213.06569 348.61806 
L 213.364778 347.76594 
L 213.641546 348.61806 
L 214.10357 341.803331 
L 214.416072 362.247073 
L 214.842406 328.173871 
L 215.154864 352.025202 
L 215.614634 352.025202 
L 215.895888 345.210472 
L 216.326642 321.359588 
L 216.623498 352.876875 
L 217.090008 354.580669 
L 217.38461 337.544069 
L 217.80869 324.76673 
L 218.116706 366.506335 
L 218.44481 337.544069 
L 218.871144 319.655794 
L 219.176928 317.952 
L 220.368794 356.284464 
L 220.667904 345.210472 
L 221.100912 320.507468 
L 221.382144 324.76673 
L 221.828522 345.210472 
L 222.136538 334.988601 
L 222.428952 357.136137 
L 222.87312 349.469734 
L 223.156562 365.654661 
L 223.59631 327.322197 
L 223.917674 315.396532 
L 224.35519 338.396189 
L 224.676554 340.099536 
L 224.968968 349.469734 
L 225.417578 325.618403 
L 225.841658 351.173528 
L 226.151928 329.877665 
L 226.459944 332.433133 
L 226.88177 337.544069 
L 227.61612 354.580669 
L 227.935318 334.136927 
L 228.383928 333.284807 
L 228.984358 357.988258 
L 229.428459 335.840275 
L 229.725382 349.469734 
L 230.180666 346.914266 
L 230.439578 352.876875 
L 230.935104 343.507125 
L 231.225286 346.914266 
L 231.667222 354.580669 
L 231.955128 341.803331 
L 232.258658 343.507125 
L 232.696152 355.43279 
L 233.001936 354.580669 
L 233.461706 347.76594 
L 233.738541 340.951657 
L 234.178222 340.099536 
L 234.47731 354.580669 
L 234.903578 312.841064 
L 235.294222 334.136927 
L 235.666944 334.136927 
L 235.98612 328.173871 
L 236.390112 336.692395 
L 236.700382 375.876532 
L 237.171334 328.173871 
L 237.470422 334.136927 
L 237.729334 353.728996 
L 238.202541 300.915399 
L 238.646642 339.247863 
L 238.959144 330.729339 
L 239.258254 337.544069 
L 239.686754 323.062936 
L 239.981422 336.692395 
L 240.467976 335.840275 
L 240.720214 348.61806 
L 241.182238 322.211262 
L 241.479072 320.507468 
L 241.938864 330.729339 
L 242.21561 360.543725 
L 242.673214 332.433133 
L 242.98565 339.247863 
L 243.257976 334.136927 
L 243.699912 335.840275 
L 244.148522 343.507125 
L 245.179706 349.469734 
L 245.47212 349.469734 
L 245.91631 374.172738 
L 246.237674 335.840275 
L 246.530088 335.840275 
L 246.96977 352.025202 
L 247.41396 325.618403 
L 247.721976 323.062936 
L 248.032246 363.099193 
L 248.476414 343.507125 
L 248.764342 336.692395 
L 249.20851 330.729339 
L 249.520968 360.543725 
L 249.965136 340.099536 
L 250.248578 343.507125 
L 250.690514 354.580669 
L 250.99853 343.507125 
L 251.28427 357.988258 
L 251.73288 317.100326 
L 252.034222 337.544069 
L 252.493992 348.61806 
L 252.78192 339.247863 
L 253.210486 329.877665 
L 253.534104 337.544069 
L 253.79969 331.581459 
L 254.554128 346.914266 
L 255.002738 337.544069 
L 255.315262 369.913476 
L 255.775032 346.914266 
L 256.033944 342.655004 
L 256.48704 330.729339 
L 256.781642 326.470524 
L 257.234738 352.876875 
L 257.531594 355.43279 
L 257.982502 324.76673 
L 258.23916 343.507125 
L 258.705626 345.210472 
L 259.018128 365.654661 
L 259.31273 340.099536 
L 259.761406 323.915056 
L 260.08277 340.951657 
L 260.518032 339.247863 
L 260.948786 332.433133 
L 261.252382 342.655004 
L 261.56484 319.655794 
L 261.984478 346.062592 
L 262.292494 311.13727 
L 262.718762 369.913476 
L 263.024546 346.914266 
L 263.473222 334.988601 
L 263.792398 340.099536 
L 264.216478 357.988258 
L 264.515522 351.173528 
L 264.82135 330.729339 
L 265.274446 316.248206 
L 265.562374 334.988601 
L 266.033326 320.507468 
L 266.301144 342.655004 
L 266.752008 336.692395 
L 267.051096 323.915056 
L 267.46627 346.914266 
L 267.767546 323.062936 
L 268.073374 343.507125 
L 268.52647 345.210472 
L 268.984008 317.952 
L 269.298698 335.840275 
L 269.58888 331.581459 
L 270.039722 330.729339 
L 270.329904 340.099536 
L 270.769586 311.989391 
L 271.062 310.285597 
L 271.374502 337.544069 
L 271.809698 338.396189 
L 272.126642 332.433133 
L 272.564136 335.840275 
L 272.823048 345.210472 
L 273.287326 339.247863 
L 273.595342 355.43279 
L 274.02161 340.099536 
L 274.31177 352.876875 
L 274.782722 324.76673 
L 275.526 353.728996 
L 276.26035 318.80412 
L 276.56388 339.247863 
L 277.02365 346.914266 
L 277.599506 330.729339 
L 278.07943 352.025202 
L 278.362872 332.433133 
L 278.80704 323.062936 
L 279.088294 343.507125 
L 279.563666 310.285597 
L 279.835992 352.876875 
L 280.315872 357.136137 
L 280.577016 344.358798 
L 281.047968 341.803331 
L 281.329222 323.062936 
L 281.643912 343.507125 
L 282.090334 323.915056 
L 282.371522 352.876875 
L 282.800088 332.433133 
L 283.123706 337.544069 
L 283.563454 334.136927 
L 283.862498 367.358008 
L 284.311152 354.580669 
L 284.596848 331.581459 
L 285.04769 308.581803 
L 285.77088 352.876875 
L 286.072222 333.284807 
L 286.51639 330.729339 
L 286.835522 340.951657 
L 287.257414 320.507468 
L 287.563198 343.507125 
L 287.848872 323.915056 
L 288.322056 326.470524 
L 288.625586 345.210472 
L 289.065334 346.062592 
L 289.388952 329.877665 
L 289.804104 342.655004 
L 290.118794 333.284807 
L 290.397794 355.43279 
L 290.844238 342.655004 
L 291.141072 337.544069 
L 291.576334 361.395399 
L 292.047286 335.840275 
L 292.335214 339.247863 
L 292.794984 363.099193 
L 293.116414 357.988258 
L 293.828422 305.174661 
L 294.147554 332.433133 
L 294.58949 333.284807 
L 294.893064 337.544069 
L 295.337254 321.359588 
L 295.640762 323.915056 
L 296.361698 363.099193 
L 297.129506 346.914266 
L 297.419666 345.210472 
L 297.83484 369.913476 
L 298.140602 329.877665 
L 298.58035 338.396189 
L 298.89504 317.952 
L 299.321374 329.877665 
L 299.609302 332.433133 
L 299.928478 341.803331 
L 300.361486 331.581459 
L 300.814538 363.950867 
L 301.140454 334.136927 
L 301.401554 342.655004 
L 301.856904 340.099536 
L 302.171594 357.988258 
L 302.626944 357.136137 
L 302.91043 329.025992 
L 303.211706 320.507468 
L 303.66257 352.876875 
L 304.095578 321.359588 
L 304.385738 340.099536 
L 304.669246 340.099536 
L 305.129016 357.136137 
L 305.408016 348.61806 
L 305.861112 354.580669 
L 306.146786 350.321408 
L 306.619992 323.062936 
L 306.91908 336.692395 
L 307.385546 338.396189 
L 307.682446 318.80412 
L 307.948032 347.76594 
L 308.401128 343.507125 
L 308.71584 342.655004 
L 309.126506 345.210472 
L 309.425594 333.284807 
L 309.865342 340.099536 
L 310.166618 361.395399 
L 310.60188 351.173528 
L 310.93447 334.136927 
L 311.367478 328.173871 
L 311.66208 315.396532 
L 312.11743 346.914266 
L 312.405358 339.247863 
L 312.840554 347.76594 
L 313.150802 341.803331 
L 313.597246 345.210472 
L 313.898522 324.76673 
L 314.644032 350.321408 
L 315.369454 324.76673 
L 315.684144 345.210472 
L 316.15061 339.247863 
L 316.889446 357.988258 
L 317.18849 321.359588 
L 317.639398 333.284807 
L 317.929514 335.840275 
L 318.369262 362.247073 
L 318.666096 352.876875 
L 318.97188 353.728996 
L 319.416048 326.470524 
L 319.703976 329.025992 
L 320.148144 318.80412 
L 320.440514 354.580669 
L 320.907024 334.136927 
L 321.19051 356.284464 
L 321.632446 320.507468 
L 321.94265 355.43279 
L 322.235064 319.655794 
L 322.962674 349.469734 
L 323.413538 340.951657 
L 323.708206 306.878455 
L 324.446976 356.284464 
L 324.759478 343.507125 
L 325.154498 354.580669 
L 325.480414 311.989391 
L 325.935698 334.988601 
L 326.232554 335.840275 
L 326.687904 344.358798 
L 326.984738 338.396189 
L 327.422254 348.61806 
L 327.752546 345.210472 
L 328.181112 358.839931 
L 328.471294 350.321408 
L 328.933318 327.322197 
L 329.234594 352.025202 
L 329.689944 328.173871 
L 330.122952 327.322197 
L 330.428714 331.581459 
L 330.723382 361.395399 
L 331.171992 356.284464 
L 331.446506 321.359588 
L 331.91527 320.507468 
L 332.212104 329.025992 
L 332.660714 349.469734 
L 332.948642 322.211262 
L 333.403992 323.915056 
L 333.682992 323.915056 
L 334.138342 345.210472 
L 334.441872 334.988601 
L 334.897222 303.470867 
L 335.22084 329.877665 
L 335.618136 338.396189 
L 335.937334 329.877665 
L 336.374762 344.358798 
L 336.671618 324.76673 
L 336.975214 340.099536 
L 337.42831 315.396532 
L 337.716238 312.841064 
L 338.461682 354.580669 
L 338.896944 327.322197 
L 339.182618 356.284464 
L 339.633459 340.099536 
L 339.937056 321.359588 
L 340.21831 316.248206 
L 340.67808 328.173871 
L 340.961522 330.729339 
L 341.43696 318.80412 
L 341.738302 340.099536 
L 342.157896 298.359931 
L 342.468144 348.61806 
L 342.881064 335.840275 
L 343.184594 340.099536 
L 343.508278 338.396189 
L 343.950214 342.655004 
L 344.26265 357.988258 
L 344.68673 314.544858 
L 344.974658 344.358798 
L 345.454538 344.358798 
L 345.758112 358.839931 
L 346.19112 336.692395 
L 346.508064 346.062592 
L 346.945514 336.692395 
L 347.235674 344.358798 
L 347.55043 338.396189 
L 347.994554 375.024858 
L 348.300382 338.396189 
L 348.735578 325.618403 
L 349.04808 340.099536 
L 349.487762 319.655794 
L 349.784618 329.877665 
L 350.208698 348.61806 
L 350.51004 323.062936 
L 350.815802 334.136927 
L 351.26892 339.247863 
L 351.70416 340.099536 
L 352.016618 319.655794 
L 352.291198 341.803331 
L 352.755454 351.173528 
L 353.04557 318.80412 
L 353.487506 339.247863 
L 353.788848 327.322197 
L 354.250872 322.211262 
L 355.000802 332.433133 
L 355.286498 351.173528 
L 355.730666 337.544069 
L 356.032008 357.136137 
L 356.491778 343.507125 
L 356.768546 340.099536 
L 357.518498 334.136927 
L 357.80647 340.951657 
L 358.264008 340.099536 
L 358.549682 317.952 
L 359.011706 375.024858 
L 359.315302 341.803331 
L 359.763912 346.062592 
L 360.502682 322.211262 
L 360.80177 340.951657 
L 361.08751 342.655004 
L 361.562904 334.136927 
L 361.83523 326.470524 
L 362.123136 340.099536 
L 362.594088 321.359588 
L 363.031538 337.544069 
L 363.34404 331.581459 
L 363.62304 376.728206 
L 364.073904 367.358008 
L 364.359578 341.803331 
L 364.810486 320.507468 
L 365.118502 347.76594 
L 365.580459 325.618403 
L 366.305904 353.728996 
L 366.616152 348.61806 
L 367.354944 319.655794 
L 367.656286 342.655004 
L 368.073626 301.767519 
L 368.36604 338.396189 
L 368.832506 350.321408 
L 369.131594 321.359588 
L 369.575762 319.655794 
L 369.881546 317.952 
L 370.182888 343.507125 
L 370.618128 336.692395 
L 370.897128 334.988601 
L 371.33239 351.173528 
L 371.642594 329.877665 
L 372.089016 346.062592 
L 372.397032 318.80412 
L 373.14031 363.099193 
L 373.425984 322.211262 
L 373.87908 352.876875 
L 374.18935 346.914266 
L 374.635706 357.988258 
L 374.968318 325.618403 
L 375.392398 340.099536 
L 375.707088 325.618403 
L 376.14677 336.692395 
L 376.459294 334.136927 
L 376.76057 363.099193 
L 377.18023 346.914266 
L 377.483738 352.025202 
L 377.932414 336.692395 
L 378.191326 368.210129 
L 378.66451 326.470524 
L 379.418904 357.136137 
L 379.704578 348.61806 
L 379.996992 309.433923 
L 380.459016 347.76594 
L 380.907626 356.284464 
L 381.202294 334.988601 
L 381.499128 359.691605 
L 381.945506 378.432 
L 382.253522 351.173528 
L 382.715546 329.025992 
L 383.001286 340.099536 
L 383.427554 342.655004 
L 383.733382 312.841064 
L 384.460992 335.840275 
L 384.909602 340.951657 
L 385.202016 352.876875 
L 385.655112 334.988601 
L 385.945294 334.136927 
L 386.389462 362.247073 
L 386.704152 321.359588 
L 386.994334 338.396189 
L 387.451872 330.729339 
L 387.75096 333.284807 
L 388.179459 353.728996 
L 389.429446 324.76673 
L 389.429446 324.76673 
" clip-path="url(#pe3421cf5ef)" style="fill: none; stroke: #d9d9d9; stroke-width: 1.5; stroke-linecap: square"/>
   </g>
   <g id="line2d_32">
    <path d="M 54.203112 313.692738 
L 54.506686 321.359588 
L 54.93744 338.396189 
L 55.252152 297.508258 
L 55.555726 307.730129 
L 56.006568 315.396532 
L 56.294496 337.544069 
L 56.698488 287.286386 
L 57.013222 307.730129 
L 57.4596 317.100326 
L 57.783262 318.80412 
L 58.21848 319.655794 
L 58.54212 352.025202 
L 58.818888 319.655794 
L 59.265266 317.952 
L 59.571072 321.359588 
L 60.00629 323.062936 
L 60.314306 321.359588 
L 60.72727 306.878455 
L 61.057584 337.544069 
L 61.492802 301.767519 
L 61.805282 337.544069 
L 62.50171 320.507468 
L 62.95927 326.470524 
L 63.276214 305.174661 
L 63.55075 314.544858 
L 64.008266 324.76673 
L 64.293984 336.692395 
L 64.778306 323.062936 
L 65.032754 321.359588 
L 65.37204 329.025992 
L 65.827368 327.322197 
L 66.262608 314.544858 
L 66.550536 343.507125 
L 66.851856 330.729339 
L 67.27819 329.877665 
L 67.586206 352.876875 
L 68.037048 351.173528 
L 68.481238 324.76673 
L 68.778072 318.80412 
L 69.070486 327.322197 
L 69.59273 319.655794 
L 69.818206 332.433133 
L 70.286904 324.76673 
L 70.556976 322.211262 
L 70.864992 315.396532 
L 71.293514 329.877665 
L 71.603762 301.767519 
L 72.045698 299.211605 
L 72.342554 291.545202 
L 72.80239 318.80412 
L 73.083578 307.730129 
L 73.53 285.582592 
L 73.829088 333.284807 
L 74.273278 323.915056 
L 74.565626 306.026335 
L 75.00312 321.359588 
L 75.333478 319.655794 
L 75.603506 321.359588 
L 76.045486 322.211262 
L 76.353502 336.692395 
L 76.804366 336.692395 
L 77.107896 313.692738 
L 77.54981 296.656584 
L 77.853406 309.433923 
L 78.281928 315.396532 
L 78.58327 325.618403 
L 78.877872 319.655794 
L 79.27961 317.952 
L 79.726032 297.508258 
L 80.058578 308.581803 
L 80.326462 323.915056 
L 80.777326 305.174661 
L 81.085342 325.618403 
L 81.386618 317.952 
L 81.83304 309.433923 
L 82.141056 318.80412 
L 82.589666 306.878455 
L 83.022674 328.173871 
L 83.312856 316.248206 
L 83.632032 292.397322 
L 84.062786 329.877665 
L 84.355222 297.508258 
L 84.79939 329.025992 
L 85.13419 302.619193 
L 85.55827 343.507125 
L 85.84169 311.989391 
L 86.288112 334.988601 
L 86.60057 300.063725 
L 86.899658 323.915056 
L 87.339406 317.952 
L 87.636262 335.840275 
L 88.093778 300.063725 
L 88.828128 317.100326 
L 89.138398 332.433133 
L 89.571406 311.989391 
L 89.915112 334.136927 
L 90.339214 311.989391 
L 90.618214 314.544858 
L 91.091398 322.211262 
L 91.372586 319.655794 
L 91.812334 317.952 
L 92.147112 341.803331 
L 92.87923 306.878455 
L 93.334514 328.173871 
L 93.620254 319.655794 
L 93.88584 316.248206 
L 94.34119 324.76673 
L 94.62019 308.581803 
L 95.064358 306.878455 
L 95.361214 326.470524 
L 95.820984 325.618403 
L 96.10447 331.581459 
L 96.876698 305.174661 
L 97.16688 324.76673 
L 97.686936 323.062936 
L 97.925738 317.952 
L 98.354326 336.692395 
L 98.67127 314.544858 
L 99.139968 317.100326 
L 99.407786 306.026335 
L 99.85865 296.656584 
L 100.153318 317.100326 
L 100.584072 286.434266 
L 100.901016 294.100669 
L 101.342952 320.507468 
L 101.635366 323.915056 
L 102.106318 306.026335 
L 102.387506 317.100326 
L 102.67992 323.062936 
L 103.12853 334.988601 
L 103.429872 324.76673 
L 103.856206 329.877665 
L 104.331578 310.285597 
L 104.619506 329.025992 
L 105.387358 317.100326 
L 105.661872 319.655794 
L 106.128382 308.581803 
L 106.434144 314.544858 
L 106.869406 316.248206 
L 107.181864 300.063725 
L 107.47651 303.470867 
L 107.884944 323.915056 
L 108.344714 321.359588 
L 108.64157 300.915399 
L 108.93847 308.581803 
L 109.469642 334.988601 
L 109.683936 306.878455 
L 110.137032 307.730129 
L 110.429446 315.396532 
L 110.724048 319.655794 
L 111.201674 323.915056 
L 111.460586 315.396532 
L 111.909262 293.248996 
L 112.20835 297.508258 
L 112.648032 323.915056 
L 112.96049 315.396532 
L 113.375642 281.323331 
L 113.701514 286.434266 
L 114.123406 326.470524 
L 114.435864 283.027125 
L 114.871104 320.507468 
L 115.170214 302.619193 
L 115.467048 305.174661 
L 115.931326 325.618403 
L 116.219254 330.729339 
L 116.656682 323.062936 
L 117.123214 311.989391 
L 117.422302 300.063725 
L 117.707976 313.692738 
L 118.13873 326.470524 
L 118.449 322.211262 
L 118.879754 294.100669 
L 119.165494 307.730129 
L 119.623032 321.359588 
L 119.91096 320.507468 
L 120.216722 321.359588 
L 120.667586 311.13727 
L 120.982342 318.80412 
L 121.41977 310.285597 
L 121.855032 292.397322 
L 122.145214 309.433923 
L 122.448722 314.544858 
L 122.913 312.841064 
L 123.941952 300.063725 
L 124.227626 315.396532 
L 124.70081 331.581459 
L 125.11373 338.396189 
L 125.426254 323.062936 
L 125.694072 284.730919 
L 126.153864 280.471657 
L 126.432864 307.730129 
L 126.892634 324.76673 
L 127.220738 312.841064 
L 127.651514 323.062936 
L 127.941674 312.841064 
L 128.392538 282.175451 
L 128.682698 326.470524 
L 129.140302 327.322197 
L 129.448318 311.989391 
L 129.883514 317.100326 
L 130.184856 302.619193 
L 130.613422 326.470524 
L 130.934786 295.804464 
L 131.67139 324.76673 
L 131.972666 300.063725 
L 132.436944 325.618403 
L 132.738286 311.989391 
L 133.155626 316.248206 
L 133.470382 322.211262 
L 133.898904 315.396532 
L 134.184578 323.915056 
L 134.503754 320.507468 
L 134.943502 306.026335 
L 135.380952 313.692738 
L 135.693454 323.915056 
L 136.157666 313.692738 
L 136.443406 296.656584 
L 136.755864 304.322987 
L 137.164342 302.619193 
L 137.496888 300.063725 
L 137.929896 320.507468 
L 138.385246 300.915399 
L 138.673152 307.730129 
L 138.983422 331.581459 
L 139.427546 318.80412 
L 139.71996 302.619193 
L 140.157454 313.692738 
L 140.463238 315.396532 
L 140.898478 332.433133 
L 141.208682 320.507468 
L 141.635016 319.655794 
L 141.922944 313.692738 
L 142.416238 276.212395 
L 143.128246 314.544858 
L 143.447422 342.655004 
L 143.86927 304.322987 
L 144.190634 331.581459 
L 144.478562 303.470867 
L 145.228514 324.76673 
L 145.679422 338.396189 
L 146.00304 308.581803 
L 146.422634 299.211605 
L 146.723976 329.877665 
L 147.485088 341.803331 
L 147.911422 308.581803 
L 148.246222 327.322197 
L 148.663562 286.434266 
L 148.978318 315.396532 
L 149.409072 306.026335 
L 149.993856 307.730129 
L 150.74604 341.803331 
L 151.185722 285.582592 
L 151.50492 323.915056 
L 151.926746 299.211605 
L 152.199072 340.099536 
L 152.66777 300.915399 
L 152.964626 306.026335 
L 153.379778 334.988601 
L 153.690048 317.100326 
L 153.935546 324.76673 
L 154.424398 327.322197 
L 154.745762 323.915056 
L 155.17435 312.841064 
L 155.475626 311.989391 
L 155.906446 339.247863 
L 156.21223 307.730129 
L 156.658586 314.544858 
L 156.935398 305.174661 
L 157.37508 316.248206 
L 157.68535 330.729339 
L 158.14512 331.581459 
L 158.410706 299.211605 
L 158.71649 328.173871 
L 159.156238 300.915399 
L 159.459746 329.877665 
L 159.895008 316.248206 
L 160.20751 297.508258 
L 160.519968 304.322987 
L 160.952976 324.76673 
L 161.394912 302.619193 
L 161.707414 308.581803 
L 162.43277 331.581459 
L 162.73188 318.80412 
L 163.18723 314.544858 
L 163.468462 323.062936 
L 164.211674 319.655794 
L 164.66477 339.247863 
L 164.961626 313.692738 
L 165.251786 316.248206 
L 165.69823 309.433923 
L 165.98839 311.13727 
L 166.423586 319.655794 
L 166.88561 353.728996 
L 167.18251 319.655794 
L 167.490459 325.618403 
L 167.925722 327.322197 
L 168.215904 319.655794 
L 168.677928 317.100326 
L 168.985944 306.026335 
L 169.282778 302.619193 
L 169.722459 308.581803 
L 170.005968 303.470867 
L 170.461318 319.655794 
L 170.776008 318.80412 
L 171.20453 305.174661 
L 171.503618 325.618403 
L 171.956714 326.470524 
L 172.273658 312.841064 
L 173.001334 311.13727 
L 173.45443 306.026335 
L 173.753541 312.841064 
L 174.077136 302.619193 
L 174.510144 314.544858 
L 174.969936 300.915399 
L 175.264538 331.581459 
L 175.554698 311.13727 
L 176.003374 296.656584 
L 176.271214 308.581803 
L 176.730984 304.322987 
L 177.188522 320.507468 
L 177.472008 283.878798 
L 177.77777 299.211605 
L 178.219706 329.025992 
L 178.82681 333.284807 
L 179.257586 300.063725 
L 179.570088 323.062936 
L 180.00977 333.284807 
L 180.311112 308.581803 
L 180.735214 333.284807 
L 181.05439 319.655794 
L 181.503 288.989734 
L 181.80653 331.581459 
L 182.246278 337.544069 
L 182.534206 308.581803 
L 182.987302 341.803331 
L 183.27965 306.878455 
L 184.005072 300.915399 
L 184.322016 300.063725 
L 184.755024 298.359931 
L 185.03177 296.656584 
L 185.527318 307.730129 
L 185.953586 304.322987 
L 186.266088 323.062936 
L 186.558502 306.026335 
L 186.995952 287.286386 
L 187.297294 318.80412 
L 187.75039 277.064069 
L 188.190072 297.508258 
L 188.491414 338.396189 
L 188.763674 316.248206 
L 189.225698 298.359931 
L 189.960048 323.915056 
L 190.417586 309.433923 
L 190.69884 333.284807 
L 191.004602 323.062936 
L 191.453278 311.989391 
L 191.725538 311.989391 
L 192.209904 353.728996 
L 192.508992 294.100669 
L 192.964342 305.174661 
L 193.254502 324.76673 
L 193.703112 322.211262 
L 193.988786 358.839931 
L 194.30573 342.655004 
L 194.743246 313.692738 
L 195.187414 294.95279 
L 195.504358 330.729339 
L 195.946294 293.248996 
L 196.21188 299.211605 
L 196.546658 320.507468 
L 196.966318 322.211262 
L 197.283262 328.173871 
L 197.75196 321.359588 
L 198.035446 326.470524 
L 198.783144 311.13727 
L 199.24961 325.618403 
L 199.517494 320.507468 
L 199.81435 306.878455 
L 200.236198 329.877665 
L 200.727238 303.470867 
L 201.006238 300.915399 
L 201.461522 326.470524 
L 201.77851 324.76673 
L 202.07088 292.397322 
L 202.521722 320.507468 
L 202.825318 323.062936 
L 203.113246 322.211262 
L 203.546254 311.989391 
L 203.972522 319.655794 
L 204.296206 295.804464 
L 204.579626 321.359588 
L 205.04839 323.062936 
L 205.31623 287.286386 
L 205.780486 308.581803 
L 206.057254 306.878455 
L 206.51035 331.581459 
L 206.796024 290.693528 
L 207.251374 306.878455 
L 207.545976 310.285597 
L 207.840578 324.76673 
L 208.271398 303.470867 
L 208.755698 323.062936 
L 209.039206 294.95279 
L 209.476634 307.730129 
L 209.775722 305.174661 
L 210.233326 294.95279 
L 210.96761 311.13727 
L 211.260024 304.322987 
L 211.545698 294.100669 
L 212.014462 306.878455 
L 212.29565 301.767519 
L 212.771088 307.730129 
L 213.052342 313.692738 
L 213.34469 300.063725 
L 213.815642 319.655794 
L 214.119238 317.952 
L 214.581262 301.767519 
L 214.84908 326.470524 
L 215.284342 301.767519 
L 215.574502 312.841064 
L 216.018626 309.433923 
L 216.324454 311.13727 
L 216.784246 309.433923 
L 217.094494 309.433923 
L 217.538618 311.989391 
L 217.822104 322.211262 
L 218.121214 318.80412 
L 218.560896 317.952 
L 218.842128 308.581803 
L 219.295246 352.876875 
L 220.018414 288.13806 
L 220.353214 316.248206 
L 220.647794 304.322987 
L 221.091984 314.544858 
L 221.38884 305.174661 
L 221.857538 302.619193 
L 222.149952 330.729339 
L 222.598562 333.284807 
L 222.89323 288.989734 
L 223.32173 315.396532 
L 223.634254 321.359588 
L 224.08061 308.581803 
L 224.368538 275.360721 
L 224.810541 313.692738 
L 225.143064 291.545202 
L 225.538128 320.507468 
L 225.866254 314.544858 
L 226.31261 339.247863 
L 226.60951 313.692738 
L 227.346048 288.13806 
L 227.669666 301.767519 
L 228.118342 309.433923 
L 228.41069 311.13727 
L 228.832538 316.248206 
L 229.122698 322.211262 
L 229.59365 308.581803 
L 229.87939 310.285597 
L 230.314586 313.692738 
L 230.613674 324.76673 
L 230.923944 307.730129 
L 231.343538 308.581803 
L 231.647112 323.062936 
L 232.09349 328.173871 
L 232.39039 308.581803 
L 232.67381 307.730129 
L 233.147016 330.729339 
L 233.600112 311.989391 
L 233.879112 328.173871 
L 234.153626 317.100326 
L 234.631318 314.544858 
L 234.93708 304.322987 
L 235.347746 336.692395 
L 235.66027 300.915399 
L 236.131222 311.989391 
L 236.845462 309.433923 
L 237.148992 295.804464 
L 237.461494 321.359588 
L 237.901198 324.76673 
L 238.209214 323.915056 
L 238.65557 311.989391 
L 238.954658 299.211605 
L 239.693494 326.470524 
L 240.162214 317.952 
L 240.508152 315.396532 
L 240.89873 320.507468 
L 241.168802 330.729339 
L 241.615246 318.80412 
L 241.907594 298.359931 
L 242.376358 343.507125 
L 242.664286 320.507468 
L 242.970048 315.396532 
L 243.40973 323.915056 
L 243.699912 334.988601 
L 244.159682 302.619193 
L 244.440936 300.063725 
L 244.90296 299.211605 
L 245.50339 297.508258 
L 245.958674 302.619193 
L 246.257762 314.544858 
L 246.688538 309.433923 
L 246.96535 283.027125 
L 247.427374 287.286386 
L 247.73981 316.248206 
L 248.184 327.322197 
L 248.503198 308.581803 
L 248.76653 325.618403 
L 249.19735 334.988601 
L 249.514294 304.322987 
L 249.947302 304.322987 
L 250.257506 285.582592 
L 250.545478 311.989391 
L 250.99853 288.989734 
L 252.031968 320.507468 
L 252.469462 280.471657 
L 252.770738 306.026335 
L 253.23053 303.470867 
L 253.52743 310.285597 
L 253.969366 290.693528 
L 254.268454 308.581803 
L 254.70365 298.359931 
L 255.009478 306.878455 
L 255.310754 310.285597 
L 255.74153 306.878455 
L 256.049546 329.877665 
L 256.509382 326.470524 
L 256.777222 305.174661 
L 257.263754 288.989734 
L 257.545008 338.396189 
L 258.004778 283.027125 
L 258.297214 306.878455 
L 258.580634 288.13806 
L 259.04047 320.507468 
L 259.493522 306.878455 
L 259.763594 318.80412 
L 260.225618 287.286386 
L 260.522541 311.13727 
L 260.81712 321.359588 
L 261.25457 294.95279 
L 261.55147 348.61806 
L 261.995594 294.95279 
L 262.292494 298.359931 
L 262.72327 288.989734 
L 263.026778 295.804464 
L 263.794586 316.248206 
L 264.082514 305.174661 
L 264.528936 300.063725 
L 264.83251 294.100669 
L 265.272214 306.026335 
L 265.555634 283.878798 
L 266.022144 303.470867 
L 266.319 306.026335 
L 266.627016 311.989391 
L 267.044422 337.544069 
L 267.36804 295.804464 
L 267.814462 319.655794 
L 268.093462 311.13727 
L 268.548746 333.284807 
L 268.836674 324.76673 
L 269.294278 303.470867 
L 269.586626 309.433923 
L 269.890222 294.95279 
L 270.325462 301.767519 
L 270.622318 311.989391 
L 271.374502 300.915399 
L 271.80751 322.211262 
L 272.836462 298.359931 
L 273.133318 327.322197 
L 273.586414 293.248996 
L 274.057366 288.989734 
L 274.36757 320.507468 
L 274.66447 302.619193 
L 275.08181 317.952 
L 275.528254 328.173871 
L 275.818414 300.063725 
L 276.128618 306.878455 
L 276.579459 293.248996 
L 276.876382 328.173871 
L 277.31381 300.063725 
L 277.599506 317.100326 
L 278.052602 303.470867 
L 278.499024 310.285597 
L 278.833802 310.285597 
L 279.108382 314.544858 
L 279.554738 316.248206 
L 279.833738 306.026335 
L 280.30027 296.656584 
L 280.61496 306.026335 
L 281.119414 334.988601 
L 281.333642 308.581803 
L 281.630498 309.433923 
L 282.072478 310.285597 
L 282.373754 289.841854 
L 282.831358 302.619193 
L 283.123706 300.063725 
L 283.567896 311.13727 
L 283.887072 315.396532 
L 284.326754 330.729339 
L 284.880334 306.878455 
L 285.346778 295.804464 
L 285.63696 306.026335 
L 286.38247 308.581803 
L 286.85119 311.989391 
L 287.119008 299.211605 
L 287.598888 308.581803 
L 287.857778 291.545202 
L 288.18365 311.13727 
L 288.618912 299.211605 
L 289.078682 333.284807 
L 289.36219 311.989391 
L 289.674626 306.878455 
L 290.07643 317.100326 
L 290.400048 296.656584 
L 290.862072 300.063725 
L 291.132144 318.80412 
L 291.591936 307.730129 
L 291.915554 304.322987 
L 292.341888 302.619193 
L 292.640976 294.100669 
L 292.946738 306.878455 
L 293.404342 295.804464 
L 293.701198 285.582592 
L 294.12751 329.025992 
L 294.437714 323.062936 
L 294.88639 347.76594 
L 295.620674 294.95279 
L 295.910856 309.433923 
L 296.350538 305.174661 
L 296.642952 304.322987 
L 296.957642 292.397322 
L 297.430848 290.693528 
L 297.846 319.655794 
L 298.165198 313.692738 
L 298.97316 303.470867 
L 299.180714 310.285597 
L 299.644992 306.026335 
L 300.082486 317.952 
L 300.379342 306.026335 
L 300.67843 321.359588 
L 301.138222 307.730129 
L 301.419454 271.101459 
L 301.872506 296.656584 
L 302.185008 290.693528 
L 302.61353 303.470867 
L 302.921546 308.581803 
L 303.231794 298.359931 
L 303.671498 307.730129 
L 303.963912 299.211605 
L 304.419262 300.063725 
L 304.850016 305.174661 
L 305.146872 304.322987 
L 305.452634 295.804464 
L 305.881222 308.581803 
L 306.18473 299.211605 
L 306.626666 296.656584 
L 306.91908 300.915399 
L 307.211494 317.952 
L 307.671286 313.692738 
L 308.108714 322.211262 
L 308.430144 295.804464 
L 308.718072 334.988601 
L 309.189024 310.285597 
L 309.474698 268.545992 
L 309.918888 279.619983 
L 310.392072 306.878455 
L 310.662144 330.729339 
L 310.956746 301.767519 
L 311.436626 323.915056 
L 311.722366 289.841854 
L 312.170976 323.062936 
L 312.454462 298.359931 
L 312.862896 305.174661 
L 313.186514 299.211605 
L 313.619522 300.915399 
L 313.938698 309.433923 
L 314.22888 305.174661 
L 314.67749 323.915056 
L 315.128398 305.174661 
L 315.43416 308.581803 
L 315.717602 282.175451 
L 316.177438 291.545202 
L 316.451952 316.248206 
L 316.918462 300.915399 
L 317.371514 326.470524 
L 317.675088 294.95279 
L 317.983104 296.656584 
L 318.416112 300.915399 
L 318.706294 329.877665 
L 319.134794 285.582592 
L 319.451738 278.767863 
L 319.75308 294.95279 
L 320.654786 296.656584 
L 320.927112 293.248996 
L 321.389136 318.80412 
L 321.685992 292.397322 
L 321.982848 311.989391 
L 322.413602 316.248206 
L 322.884554 302.619193 
L 323.194802 315.396532 
L 323.614462 316.248206 
L 323.911318 333.284807 
L 324.210406 306.026335 
L 324.643414 296.656584 
L 324.938016 302.619193 
L 325.234872 305.174661 
L 325.66788 290.693528 
L 326.132136 323.062936 
L 326.705738 281.323331 
L 327.17227 325.618403 
L 327.428928 296.656584 
L 327.978 305.174661 
L 328.192294 292.397322 
L 328.489128 304.322987 
L 328.946666 311.13727 
L 329.402016 295.804464 
L 329.674342 333.284807 
L 330.14304 323.915056 
L 330.439896 308.581803 
L 330.861722 313.692738 
L 331.174246 322.211262 
L 331.466594 302.619193 
L 331.892928 293.248996 
L 332.19869 313.692738 
L 332.62951 276.212395 
L 332.953128 321.359588 
L 333.39281 307.730129 
L 333.689666 315.396532 
L 334.441872 294.95279 
L 334.872626 311.989391 
L 335.187382 293.248996 
L 335.64492 300.915399 
L 336.211848 291.545202 
L 336.691706 288.989734 
L 336.999722 291.545202 
L 337.448398 322.211262 
L 337.73184 309.433923 
L 338.184936 314.544858 
L 338.495206 327.322197 
L 338.93712 286.434266 
L 339.225048 324.76673 
L 339.658056 304.322987 
L 339.957144 274.508601 
L 340.39908 301.767519 
L 340.689262 301.767519 
L 341.142358 306.026335 
L 341.43696 315.396532 
L 341.887802 311.989391 
L 342.19584 304.322987 
L 342.483746 306.026335 
L 342.932422 327.322197 
L 343.22035 301.767519 
L 343.684562 305.174661 
L 343.976976 292.397322 
L 344.421144 300.915399 
L 344.744762 283.878798 
L 345.168864 307.730129 
L 345.474626 308.581803 
L 345.784896 273.656927 
L 346.664326 317.100326 
L 346.979016 303.470867 
L 347.258016 320.507468 
L 347.711112 283.878798 
L 347.99904 326.470524 
L 348.880658 271.101459 
L 349.510104 326.470524 
L 349.938626 300.915399 
L 350.23104 300.063725 
L 350.681904 310.285597 
L 350.945302 308.581803 
L 351.289008 313.692738 
L 351.70416 315.396532 
L 352.163952 317.952 
L 352.458554 312.841064 
L 352.755454 300.915399 
L 353.172794 293.248996 
L 353.643746 301.767519 
L 353.933928 287.286386 
L 354.371422 315.396532 
L 354.688366 271.953133 
L 354.982968 287.286386 
L 355.424904 299.211605 
L 355.726246 300.915399 
L 356.163674 323.915056 
L 356.462762 290.693528 
L 356.777541 305.174661 
L 357.223896 288.989734 
L 357.525238 317.100326 
L 357.960478 293.248996 
L 358.264008 318.80412 
L 358.71043 282.175451 
L 358.984944 284.730919 
L 359.464802 303.470867 
L 359.77284 290.693528 
L 360.210334 309.433923 
L 360.47592 283.027125 
L 360.944618 283.878798 
L 361.239286 301.767519 
L 361.551722 300.915399 
L 361.995912 315.396532 
L 362.451262 291.545202 
L 362.705666 290.693528 
L 363.02935 329.877665 
L 363.471286 303.470867 
L 363.76812 294.95279 
L 364.194454 302.619193 
L 364.506912 292.397322 
L 364.966682 295.804464 
L 365.26135 320.507468 
L 365.703286 291.545202 
L 365.982286 310.285597 
L 366.272446 285.582592 
L 366.743398 313.692738 
L 367.04916 301.767519 
L 367.491096 289.841854 
L 367.790206 308.581803 
L 368.236562 290.693528 
L 369.254398 339.247863 
L 369.56016 300.063725 
L 369.99761 302.619193 
L 370.305626 302.619193 
L 370.74312 294.100669 
L 371.05781 303.470867 
L 371.495326 308.581803 
L 371.81669 317.952 
L 372.27204 320.507468 
L 372.544366 301.767519 
L 372.836714 292.397322 
L 373.300992 334.988601 
L 373.736254 291.545202 
L 374.030856 298.359931 
L 374.318762 286.434266 
L 374.769626 279.619983 
L 375.095498 313.692738 
L 375.548594 302.619193 
L 375.995016 307.730129 
L 376.253928 288.989734 
L 376.573104 292.397322 
L 377.309642 294.95279 
L 377.74939 325.618403 
L 378.050666 299.211605 
L 378.360936 305.174661 
L 378.800618 287.286386 
L 379.534968 303.470867 
L 379.816222 297.508258 
L 380.267064 312.841064 
L 380.552738 302.619193 
L 381.046032 293.248996 
L 381.30943 299.211605 
L 381.579502 318.80412 
L 382.032554 302.619193 
L 382.503506 257.472 
L 382.791478 302.619193 
L 383.235602 303.470867 
L 383.563706 296.656584 
L 383.847214 309.433923 
L 384.289128 306.878455 
L 384.585984 283.878798 
L 385.023478 311.989391 
L 385.347096 303.470867 
L 385.771198 304.322987 
L 386.085888 297.508258 
L 386.530056 307.730129 
L 386.806802 306.026335 
L 387.264406 310.285597 
L 387.55008 291.545202 
L 388.016546 272.805253 
L 388.652666 317.100326 
L 390.43831 305.174661 
L 390.43831 305.174661 
" clip-path="url(#pe3421cf5ef)" style="fill: none; stroke: #a6bddb; stroke-width: 1.5; stroke-linecap: square"/>
   </g>
   <g id="patch_7">
    <path d="M 54 384.48 
L 54 251.424 
" style="fill: none; stroke: #000000; stroke-width: 0.5; stroke-linejoin: miter; stroke-linecap: square"/>
   </g>
   <g id="patch_8">
    <path d="M 54 384.48 
L 388.8 384.48 
" style="fill: none; stroke: #000000; stroke-width: 0.5; stroke-linejoin: miter; stroke-linecap: square"/>
   </g>
   <g id="text_34">
    <!-- 104 m/z for Dynamic TGA -->
    <g transform="translate(144.17625 245.424) scale(0.12 -0.12)">
     <defs>
      <path id="DejaVuSans-2f" d="M 1625 4666 
L 2156 4666 
L 531 -594 
L 0 -594 
L 1625 4666 
z
" transform="scale(0.015625)"/>
      <path id="DejaVuSans-66" d="M 2375 4863 
L 2375 4384 
L 1825 4384 
Q 1516 4384 1395 4259 
Q 1275 4134 1275 3809 
L 1275 3500 
L 2222 3500 
L 2222 3053 
L 1275 3053 
L 1275 0 
L 697 0 
L 697 3053 
L 147 3053 
L 147 3500 
L 697 3500 
L 697 3744 
Q 697 4328 969 4595 
Q 1241 4863 1831 4863 
L 2375 4863 
z
" transform="scale(0.015625)"/>
     </defs>
     <use xlink:href="#DejaVuSans-31"/>
     <use xlink:href="#DejaVuSans-30" x="63.623047"/>
     <use xlink:href="#DejaVuSans-34" x="127.246094"/>
     <use xlink:href="#DejaVuSans-20" x="190.869141"/>
     <use xlink:href="#DejaVuSans-6d" x="222.65625"/>
     <use xlink:href="#DejaVuSans-2f" x="320.068359"/>
     <use xlink:href="#DejaVuSans-7a" x="353.759766"/>
     <use xlink:href="#DejaVuSans-20" x="406.25"/>
     <use xlink:href="#DejaVuSans-66" x="438.037109"/>
     <use xlink:href="#DejaVuSans-6f" x="473.242188"/>
     <use xlink:href="#DejaVuSans-72" x="534.423828"/>
     <use xlink:href="#DejaVuSans-20" x="575.537109"/>
     <use xlink:href="#DejaVuSans-44" x="607.324219"/>
     <use xlink:href="#DejaVuSans-79" x="684.326172"/>
     <use xlink:href="#DejaVuSans-6e" x="743.505859"/>
     <use xlink:href="#DejaVuSans-61" x="806.884766"/>
     <use xlink:href="#DejaVuSans-6d" x="868.164062"/>
     <use xlink:href="#DejaVuSans-69" x="965.576172"/>
     <use xlink:href="#DejaVuSans-63" x="993.359375"/>
     <use xlink:href="#DejaVuSans-20" x="1048.339844"/>
     <use xlink:href="#DejaVuSans-54" x="1080.126953"/>
     <use xlink:href="#DejaVuSans-47" x="1141.210938"/>
     <use xlink:href="#DejaVuSans-41" x="1218.701172"/>
    </g>
   </g>
   <g id="legend_2">
    <g id="patch_9">
     <path d="M 61 288.78025 
L 165.4 288.78025 
Q 167.4 288.78025 167.4 286.78025 
L 167.4 258.424 
Q 167.4 256.424 165.4 256.424 
L 61 256.424 
Q 59 256.424 59 258.424 
L 59 286.78025 
Q 59 288.78025 61 288.78025 
z
" style="fill: #ffffff; opacity: 0.8; stroke: #cccccc; stroke-linejoin: miter"/>
    </g>
    <g id="line2d_33">
     <path d="M 63 264.522437 
L 73 264.522437 
L 83 264.522437 
" style="fill: none; stroke: #d9d9d9; stroke-width: 1.5; stroke-linecap: square"/>
    </g>
    <g id="text_35">
     <!-- PS-1.12K -->
     <g transform="translate(91 268.022437) scale(0.1 -0.1)">
      <use xlink:href="#DejaVuSans-50"/>
      <use xlink:href="#DejaVuSans-53" x="60.302734"/>
      <use xlink:href="#DejaVuSans-2d" x="123.779297"/>
      <use xlink:href="#DejaVuSans-31" x="159.863281"/>
      <use xlink:href="#DejaVuSans-2e" x="223.486328"/>
      <use xlink:href="#DejaVuSans-31" x="255.273438"/>
      <use xlink:href="#DejaVuSans-32" x="318.896484"/>
      <use xlink:href="#DejaVuSans-4b" x="382.519531"/>
     </g>
    </g>
    <g id="line2d_34">
     <path d="M 63 279.200562 
L 73 279.200562 
L 83 279.200562 
" style="fill: none; stroke: #a6bddb; stroke-width: 1.5; stroke-linecap: square"/>
    </g>
    <g id="text_36">
     <!-- PS-1.12K-SCF$_{3}$ -->
     <g transform="translate(91 282.700562) scale(0.1 -0.1)">
      <use xlink:href="#DejaVuSans-50" transform="translate(0 0.78125)"/>
      <use xlink:href="#DejaVuSans-53" transform="translate(60.302734 0.78125)"/>
      <use xlink:href="#DejaVuSans-2d" transform="translate(123.779297 0.78125)"/>
      <use xlink:href="#DejaVuSans-31" transform="translate(159.863281 0.78125)"/>
      <use xlink:href="#DejaVuSans-2e" transform="translate(223.486328 0.78125)"/>
      <use xlink:href="#DejaVuSans-31" transform="translate(255.273438 0.78125)"/>
      <use xlink:href="#DejaVuSans-32" transform="translate(318.896484 0.78125)"/>
      <use xlink:href="#DejaVuSans-4b" transform="translate(382.519531 0.78125)"/>
      <use xlink:href="#DejaVuSans-2d" transform="translate(448.095703 0.78125)"/>
      <use xlink:href="#DejaVuSans-53" transform="translate(484.179688 0.78125)"/>
      <use xlink:href="#DejaVuSans-43" transform="translate(547.65625 0.78125)"/>
      <use xlink:href="#DejaVuSans-46" transform="translate(617.480469 0.78125)"/>
      <use xlink:href="#DejaVuSans-33" transform="translate(675.957031 -15.625) scale(0.7)"/>
     </g>
    </g>
   </g>
  </g>
 </g>
 <defs>
  <clipPath id="p00221da4fa">
   <rect x="54" y="51.84" width="334.8" height="133.056"/>
  </clipPath>
  <clipPath id="pe3421cf5ef">
   <rect x="54" y="251.424" width="334.8" height="133.056"/>
  </clipPath>
 </defs>
</svg>
