<?xml version="1.0" encoding="utf-8" standalone="no"?>
<!DOCTYPE svg PUBLIC "-//W3C//DTD SVG 1.1//EN"
  "http://www.w3.org/Graphics/SVG/1.1/DTD/svg11.dtd">
<svg xmlns:xlink="http://www.w3.org/1999/xlink" width="432pt" height="432pt" viewBox="0 0 432 432" xmlns="http://www.w3.org/2000/svg" version="1.1">
 <metadata>
  <rdf:RDF xmlns:dc="http://purl.org/dc/elements/1.1/" xmlns:cc="http://creativecommons.org/ns#" xmlns:rdf="http://www.w3.org/1999/02/22-rdf-syntax-ns#">
   <cc:Work>
    <dc:type rdf:resource="http://purl.org/dc/dcmitype/StillImage"/>
    <dc:date>2025-07-02T20:36:35.585502</dc:date>
    <dc:format>image/svg+xml</dc:format>
    <dc:creator>
     <cc:Agent>
      <dc:title>Matplotlib v3.7.1, https://matplotlib.org/</dc:title>
     </cc:Agent>
    </dc:creator>
   </cc:Work>
  </rdf:RDF>
 </metadata>
 <defs>
  <style type="text/css">*{stroke-linejoin: round; stroke-linecap: butt}</style>
 </defs>
 <g id="figure_1">
  <g id="patch_1">
   <path d="M 0 432 
L 432 432 
L 432 0 
L 0 0 
z
" style="fill: #ffffff"/>
  </g>
  <g id="axes_1">
   <g id="patch_2">
    <path d="M 54 184.896 
L 388.8 184.896 
L 388.8 51.84 
L 54 51.84 
z
" style="fill: #ffffff"/>
   </g>
   <g id="matplotlib.axis_1">
    <g id="xtick_1">
     <g id="line2d_1">
      <defs>
       <path id="mc4921d8952" d="M 0 0 
L 0 -3.5 
" style="stroke: #000000; stroke-width: 0.8"/>
      </defs>
      <g>
       <use xlink:href="#mc4921d8952" x="76.32" y="184.896" style="stroke: #000000; stroke-width: 0.8"/>
      </g>
     </g>
     <g id="text_1">
      <!-- 260 -->
      <g transform="translate(68.685 194.47475) scale(0.08 -0.08)">
       <defs>
        <path id="DejaVuSans-32" d="M 1228 531 
L 3431 531 
L 3431 0 
L 469 0 
L 469 531 
Q 828 903 1448 1529 
Q 2069 2156 2228 2338 
Q 2531 2678 2651 2914 
Q 2772 3150 2772 3378 
Q 2772 3750 2511 3984 
Q 2250 4219 1831 4219 
Q 1534 4219 1204 4116 
Q 875 4013 500 3803 
L 500 4441 
Q 881 4594 1212 4672 
Q 1544 4750 1819 4750 
Q 2544 4750 2975 4387 
Q 3406 4025 3406 3419 
Q 3406 3131 3298 2873 
Q 3191 2616 2906 2266 
Q 2828 2175 2409 1742 
Q 1991 1309 1228 531 
z
" transform="scale(0.015625)"/>
        <path id="DejaVuSans-36" d="M 2113 2584 
Q 1688 2584 1439 2293 
Q 1191 2003 1191 1497 
Q 1191 994 1439 701 
Q 1688 409 2113 409 
Q 2538 409 2786 701 
Q 3034 994 3034 1497 
Q 3034 2003 2786 2293 
Q 2538 2584 2113 2584 
z
M 3366 4563 
L 3366 3988 
Q 3128 4100 2886 4159 
Q 2644 4219 2406 4219 
Q 1781 4219 1451 3797 
Q 1122 3375 1075 2522 
Q 1259 2794 1537 2939 
Q 1816 3084 2150 3084 
Q 2853 3084 3261 2657 
Q 3669 2231 3669 1497 
Q 3669 778 3244 343 
Q 2819 -91 2113 -91 
Q 1303 -91 875 529 
Q 447 1150 447 2328 
Q 447 3434 972 4092 
Q 1497 4750 2381 4750 
Q 2619 4750 2861 4703 
Q 3103 4656 3366 4563 
z
" transform="scale(0.015625)"/>
        <path id="DejaVuSans-30" d="M 2034 4250 
Q 1547 4250 1301 3770 
Q 1056 3291 1056 2328 
Q 1056 1369 1301 889 
Q 1547 409 2034 409 
Q 2525 409 2770 889 
Q 3016 1369 3016 2328 
Q 3016 3291 2770 3770 
Q 2525 4250 2034 4250 
z
M 2034 4750 
Q 2819 4750 3233 4129 
Q 3647 3509 3647 2328 
Q 3647 1150 3233 529 
Q 2819 -91 2034 -91 
Q 1250 -91 836 529 
Q 422 1150 422 2328 
Q 422 3509 836 4129 
Q 1250 4750 2034 4750 
z
" transform="scale(0.015625)"/>
       </defs>
       <use xlink:href="#DejaVuSans-32"/>
       <use xlink:href="#DejaVuSans-36" x="63.623047"/>
       <use xlink:href="#DejaVuSans-30" x="127.246094"/>
      </g>
     </g>
    </g>
    <g id="xtick_2">
     <g id="line2d_2">
      <g>
       <use xlink:href="#mc4921d8952" x="120.96" y="184.896" style="stroke: #000000; stroke-width: 0.8"/>
      </g>
     </g>
     <g id="text_2">
      <!-- 280 -->
      <g transform="translate(113.325 194.47475) scale(0.08 -0.08)">
       <defs>
        <path id="DejaVuSans-38" d="M 2034 2216 
Q 1584 2216 1326 1975 
Q 1069 1734 1069 1313 
Q 1069 891 1326 650 
Q 1584 409 2034 409 
Q 2484 409 2743 651 
Q 3003 894 3003 1313 
Q 3003 1734 2745 1975 
Q 2488 2216 2034 2216 
z
M 1403 2484 
Q 997 2584 770 2862 
Q 544 3141 544 3541 
Q 544 4100 942 4425 
Q 1341 4750 2034 4750 
Q 2731 4750 3128 4425 
Q 3525 4100 3525 3541 
Q 3525 3141 3298 2862 
Q 3072 2584 2669 2484 
Q 3125 2378 3379 2068 
Q 3634 1759 3634 1313 
Q 3634 634 3220 271 
Q 2806 -91 2034 -91 
Q 1263 -91 848 271 
Q 434 634 434 1313 
Q 434 1759 690 2068 
Q 947 2378 1403 2484 
z
M 1172 3481 
Q 1172 3119 1398 2916 
Q 1625 2713 2034 2713 
Q 2441 2713 2670 2916 
Q 2900 3119 2900 3481 
Q 2900 3844 2670 4047 
Q 2441 4250 2034 4250 
Q 1625 4250 1398 4047 
Q 1172 3844 1172 3481 
z
" transform="scale(0.015625)"/>
       </defs>
       <use xlink:href="#DejaVuSans-32"/>
       <use xlink:href="#DejaVuSans-38" x="63.623047"/>
       <use xlink:href="#DejaVuSans-30" x="127.246094"/>
      </g>
     </g>
    </g>
    <g id="xtick_3">
     <g id="line2d_3">
      <g>
       <use xlink:href="#mc4921d8952" x="165.6" y="184.896" style="stroke: #000000; stroke-width: 0.8"/>
      </g>
     </g>
     <g id="text_3">
      <!-- 300 -->
      <g transform="translate(157.965 194.47475) scale(0.08 -0.08)">
       <defs>
        <path id="DejaVuSans-33" d="M 2597 2516 
Q 3050 2419 3304 2112 
Q 3559 1806 3559 1356 
Q 3559 666 3084 287 
Q 2609 -91 1734 -91 
Q 1441 -91 1130 -33 
Q 819 25 488 141 
L 488 750 
Q 750 597 1062 519 
Q 1375 441 1716 441 
Q 2309 441 2620 675 
Q 2931 909 2931 1356 
Q 2931 1769 2642 2001 
Q 2353 2234 1838 2234 
L 1294 2234 
L 1294 2753 
L 1863 2753 
Q 2328 2753 2575 2939 
Q 2822 3125 2822 3475 
Q 2822 3834 2567 4026 
Q 2313 4219 1838 4219 
Q 1578 4219 1281 4162 
Q 984 4106 628 3988 
L 628 4550 
Q 988 4650 1302 4700 
Q 1616 4750 1894 4750 
Q 2613 4750 3031 4423 
Q 3450 4097 3450 3541 
Q 3450 3153 3228 2886 
Q 3006 2619 2597 2516 
z
" transform="scale(0.015625)"/>
       </defs>
       <use xlink:href="#DejaVuSans-33"/>
       <use xlink:href="#DejaVuSans-30" x="63.623047"/>
       <use xlink:href="#DejaVuSans-30" x="127.246094"/>
      </g>
     </g>
    </g>
    <g id="xtick_4">
     <g id="line2d_4">
      <g>
       <use xlink:href="#mc4921d8952" x="210.24" y="184.896" style="stroke: #000000; stroke-width: 0.8"/>
      </g>
     </g>
     <g id="text_4">
      <!-- 320 -->
      <g transform="translate(202.605 194.47475) scale(0.08 -0.08)">
       <use xlink:href="#DejaVuSans-33"/>
       <use xlink:href="#DejaVuSans-32" x="63.623047"/>
       <use xlink:href="#DejaVuSans-30" x="127.246094"/>
      </g>
     </g>
    </g>
    <g id="xtick_5">
     <g id="line2d_5">
      <g>
       <use xlink:href="#mc4921d8952" x="254.88" y="184.896" style="stroke: #000000; stroke-width: 0.8"/>
      </g>
     </g>
     <g id="text_5">
      <!-- 340 -->
      <g transform="translate(247.245 194.47475) scale(0.08 -0.08)">
       <defs>
        <path id="DejaVuSans-34" d="M 2419 4116 
L 825 1625 
L 2419 1625 
L 2419 4116 
z
M 2253 4666 
L 3047 4666 
L 3047 1625 
L 3713 1625 
L 3713 1100 
L 3047 1100 
L 3047 0 
L 2419 0 
L 2419 1100 
L 313 1100 
L 313 1709 
L 2253 4666 
z
" transform="scale(0.015625)"/>
       </defs>
       <use xlink:href="#DejaVuSans-33"/>
       <use xlink:href="#DejaVuSans-34" x="63.623047"/>
       <use xlink:href="#DejaVuSans-30" x="127.246094"/>
      </g>
     </g>
    </g>
    <g id="xtick_6">
     <g id="line2d_6">
      <g>
       <use xlink:href="#mc4921d8952" x="299.52" y="184.896" style="stroke: #000000; stroke-width: 0.8"/>
      </g>
     </g>
     <g id="text_6">
      <!-- 360 -->
      <g transform="translate(291.885 194.47475) scale(0.08 -0.08)">
       <use xlink:href="#DejaVuSans-33"/>
       <use xlink:href="#DejaVuSans-36" x="63.623047"/>
       <use xlink:href="#DejaVuSans-30" x="127.246094"/>
      </g>
     </g>
    </g>
    <g id="xtick_7">
     <g id="line2d_7">
      <g>
       <use xlink:href="#mc4921d8952" x="344.16" y="184.896" style="stroke: #000000; stroke-width: 0.8"/>
      </g>
     </g>
     <g id="text_7">
      <!-- 380 -->
      <g transform="translate(336.525 194.47475) scale(0.08 -0.08)">
       <use xlink:href="#DejaVuSans-33"/>
       <use xlink:href="#DejaVuSans-38" x="63.623047"/>
       <use xlink:href="#DejaVuSans-30" x="127.246094"/>
      </g>
     </g>
    </g>
    <g id="xtick_8">
     <g id="line2d_8">
      <g>
       <use xlink:href="#mc4921d8952" x="388.8" y="184.896" style="stroke: #000000; stroke-width: 0.8"/>
      </g>
     </g>
     <g id="text_8">
      <!-- 400 -->
      <g transform="translate(381.165 194.47475) scale(0.08 -0.08)">
       <use xlink:href="#DejaVuSans-34"/>
       <use xlink:href="#DejaVuSans-30" x="63.623047"/>
       <use xlink:href="#DejaVuSans-30" x="127.246094"/>
      </g>
     </g>
    </g>
    <g id="text_9">
     <!-- Temp ($^{o}$C) -->
     <g transform="translate(195.9 207.9385) scale(0.1 -0.1)">
      <defs>
       <path id="DejaVuSans-54" d="M -19 4666 
L 3928 4666 
L 3928 4134 
L 2272 4134 
L 2272 0 
L 1638 0 
L 1638 4134 
L -19 4134 
L -19 4666 
z
" transform="scale(0.015625)"/>
       <path id="DejaVuSans-65" d="M 3597 1894 
L 3597 1613 
L 953 1613 
Q 991 1019 1311 708 
Q 1631 397 2203 397 
Q 2534 397 2845 478 
Q 3156 559 3463 722 
L 3463 178 
Q 3153 47 2828 -22 
Q 2503 -91 2169 -91 
Q 1331 -91 842 396 
Q 353 884 353 1716 
Q 353 2575 817 3079 
Q 1281 3584 2069 3584 
Q 2775 3584 3186 3129 
Q 3597 2675 3597 1894 
z
M 3022 2063 
Q 3016 2534 2758 2815 
Q 2500 3097 2075 3097 
Q 1594 3097 1305 2825 
Q 1016 2553 972 2059 
L 3022 2063 
z
" transform="scale(0.015625)"/>
       <path id="DejaVuSans-6d" d="M 3328 2828 
Q 3544 3216 3844 3400 
Q 4144 3584 4550 3584 
Q 5097 3584 5394 3201 
Q 5691 2819 5691 2113 
L 5691 0 
L 5113 0 
L 5113 2094 
Q 5113 2597 4934 2840 
Q 4756 3084 4391 3084 
Q 3944 3084 3684 2787 
Q 3425 2491 3425 1978 
L 3425 0 
L 2847 0 
L 2847 2094 
Q 2847 2600 2669 2842 
Q 2491 3084 2119 3084 
Q 1678 3084 1418 2786 
Q 1159 2488 1159 1978 
L 1159 0 
L 581 0 
L 581 3500 
L 1159 3500 
L 1159 2956 
Q 1356 3278 1631 3431 
Q 1906 3584 2284 3584 
Q 2666 3584 2933 3390 
Q 3200 3197 3328 2828 
z
" transform="scale(0.015625)"/>
       <path id="DejaVuSans-70" d="M 1159 525 
L 1159 -1331 
L 581 -1331 
L 581 3500 
L 1159 3500 
L 1159 2969 
Q 1341 3281 1617 3432 
Q 1894 3584 2278 3584 
Q 2916 3584 3314 3078 
Q 3713 2572 3713 1747 
Q 3713 922 3314 415 
Q 2916 -91 2278 -91 
Q 1894 -91 1617 61 
Q 1341 213 1159 525 
z
M 3116 1747 
Q 3116 2381 2855 2742 
Q 2594 3103 2138 3103 
Q 1681 3103 1420 2742 
Q 1159 2381 1159 1747 
Q 1159 1113 1420 752 
Q 1681 391 2138 391 
Q 2594 391 2855 752 
Q 3116 1113 3116 1747 
z
" transform="scale(0.015625)"/>
       <path id="DejaVuSans-20" transform="scale(0.015625)"/>
       <path id="DejaVuSans-28" d="M 1984 4856 
Q 1566 4138 1362 3434 
Q 1159 2731 1159 2009 
Q 1159 1288 1364 580 
Q 1569 -128 1984 -844 
L 1484 -844 
Q 1016 -109 783 600 
Q 550 1309 550 2009 
Q 550 2706 781 3412 
Q 1013 4119 1484 4856 
L 1984 4856 
z
" transform="scale(0.015625)"/>
       <path id="DejaVuSans-Oblique-6f" d="M 1625 -91 
Q 1009 -91 651 289 
Q 294 669 294 1325 
Q 294 1706 417 2101 
Q 541 2497 738 2766 
Q 1047 3184 1428 3384 
Q 1809 3584 2291 3584 
Q 2888 3584 3255 3212 
Q 3622 2841 3622 2241 
Q 3622 1825 3500 1412 
Q 3378 1000 3181 728 
Q 2875 309 2494 109 
Q 2113 -91 1625 -91 
z
M 891 1344 
Q 891 869 1089 633 
Q 1288 397 1691 397 
Q 2269 397 2648 901 
Q 3028 1406 3028 2181 
Q 3028 2634 2825 2865 
Q 2622 3097 2228 3097 
Q 1903 3097 1650 2945 
Q 1397 2794 1197 2484 
Q 1050 2253 970 1956 
Q 891 1659 891 1344 
z
" transform="scale(0.015625)"/>
       <path id="DejaVuSans-43" d="M 4122 4306 
L 4122 3641 
Q 3803 3938 3442 4084 
Q 3081 4231 2675 4231 
Q 1875 4231 1450 3742 
Q 1025 3253 1025 2328 
Q 1025 1406 1450 917 
Q 1875 428 2675 428 
Q 3081 428 3442 575 
Q 3803 722 4122 1019 
L 4122 359 
Q 3791 134 3420 21 
Q 3050 -91 2638 -91 
Q 1578 -91 968 557 
Q 359 1206 359 2328 
Q 359 3453 968 4101 
Q 1578 4750 2638 4750 
Q 3056 4750 3426 4639 
Q 3797 4528 4122 4306 
z
" transform="scale(0.015625)"/>
       <path id="DejaVuSans-29" d="M 513 4856 
L 1013 4856 
Q 1481 4119 1714 3412 
Q 1947 2706 1947 2009 
Q 1947 1309 1714 600 
Q 1481 -109 1013 -844 
L 513 -844 
Q 928 -128 1133 580 
Q 1338 1288 1338 2009 
Q 1338 2731 1133 3434 
Q 928 4138 513 4856 
z
" transform="scale(0.015625)"/>
      </defs>
      <use xlink:href="#DejaVuSans-54" transform="translate(0 0.51875)"/>
      <use xlink:href="#DejaVuSans-65" transform="translate(61.083984 0.51875)"/>
      <use xlink:href="#DejaVuSans-6d" transform="translate(122.607422 0.51875)"/>
      <use xlink:href="#DejaVuSans-70" transform="translate(220.019531 0.51875)"/>
      <use xlink:href="#DejaVuSans-20" transform="translate(283.496094 0.51875)"/>
      <use xlink:href="#DejaVuSans-28" transform="translate(315.283203 0.51875)"/>
      <use xlink:href="#DejaVuSans-Oblique-6f" transform="translate(355.253906 38.8) scale(0.7)"/>
      <use xlink:href="#DejaVuSans-43" transform="translate(400.81543 0.51875)"/>
      <use xlink:href="#DejaVuSans-29" transform="translate(470.639648 0.51875)"/>
     </g>
    </g>
   </g>
   <g id="matplotlib.axis_2">
    <g id="ytick_1">
     <g id="line2d_9">
      <defs>
       <path id="mb7828b3259" d="M 0 0 
L 3.5 0 
" style="stroke: #000000; stroke-width: 0.8"/>
      </defs>
      <g>
       <use xlink:href="#mb7828b3259" x="54" y="184.896" style="stroke: #000000; stroke-width: 0.8"/>
      </g>
     </g>
     <g id="text_10">
      <!-- 0 -->
      <g transform="translate(45.41 187.935375) scale(0.08 -0.08)">
       <use xlink:href="#DejaVuSans-30"/>
      </g>
     </g>
    </g>
    <g id="ytick_2">
     <g id="line2d_10">
      <g>
       <use xlink:href="#mb7828b3259" x="54" y="159.629551" style="stroke: #000000; stroke-width: 0.8"/>
      </g>
     </g>
     <g id="text_11">
      <!-- 20 -->
      <g transform="translate(40.32 162.668926) scale(0.08 -0.08)">
       <use xlink:href="#DejaVuSans-32"/>
       <use xlink:href="#DejaVuSans-30" x="63.623047"/>
      </g>
     </g>
    </g>
    <g id="ytick_3">
     <g id="line2d_11">
      <g>
       <use xlink:href="#mb7828b3259" x="54" y="134.363101" style="stroke: #000000; stroke-width: 0.8"/>
      </g>
     </g>
     <g id="text_12">
      <!-- 40 -->
      <g transform="translate(40.32 137.402476) scale(0.08 -0.08)">
       <use xlink:href="#DejaVuSans-34"/>
       <use xlink:href="#DejaVuSans-30" x="63.623047"/>
      </g>
     </g>
    </g>
    <g id="ytick_4">
     <g id="line2d_12">
      <g>
       <use xlink:href="#mb7828b3259" x="54" y="109.096652" style="stroke: #000000; stroke-width: 0.8"/>
      </g>
     </g>
     <g id="text_13">
      <!-- 60 -->
      <g transform="translate(40.32 112.136027) scale(0.08 -0.08)">
       <use xlink:href="#DejaVuSans-36"/>
       <use xlink:href="#DejaVuSans-30" x="63.623047"/>
      </g>
     </g>
    </g>
    <g id="ytick_5">
     <g id="line2d_13">
      <g>
       <use xlink:href="#mb7828b3259" x="54" y="83.830203" style="stroke: #000000; stroke-width: 0.8"/>
      </g>
     </g>
     <g id="text_14">
      <!-- 80 -->
      <g transform="translate(40.32 86.869578) scale(0.08 -0.08)">
       <use xlink:href="#DejaVuSans-38"/>
       <use xlink:href="#DejaVuSans-30" x="63.623047"/>
      </g>
     </g>
    </g>
    <g id="ytick_6">
     <g id="line2d_14">
      <g>
       <use xlink:href="#mb7828b3259" x="54" y="58.563753" style="stroke: #000000; stroke-width: 0.8"/>
      </g>
     </g>
     <g id="text_15">
      <!-- 100 -->
      <g transform="translate(35.23 61.603128) scale(0.08 -0.08)">
       <defs>
        <path id="DejaVuSans-31" d="M 794 531 
L 1825 531 
L 1825 4091 
L 703 3866 
L 703 4441 
L 1819 4666 
L 2450 4666 
L 2450 531 
L 3481 531 
L 3481 0 
L 794 0 
L 794 531 
z
" transform="scale(0.015625)"/>
       </defs>
       <use xlink:href="#DejaVuSans-31"/>
       <use xlink:href="#DejaVuSans-30" x="63.623047"/>
       <use xlink:href="#DejaVuSans-30" x="127.246094"/>
      </g>
     </g>
    </g>
    <g id="text_16">
     <!-- Mass (%) -->
     <g transform="translate(29.150313 141.196906) rotate(-90) scale(0.1 -0.1)">
      <defs>
       <path id="DejaVuSans-4d" d="M 628 4666 
L 1569 4666 
L 2759 1491 
L 3956 4666 
L 4897 4666 
L 4897 0 
L 4281 0 
L 4281 4097 
L 3078 897 
L 2444 897 
L 1241 4097 
L 1241 0 
L 628 0 
L 628 4666 
z
" transform="scale(0.015625)"/>
       <path id="DejaVuSans-61" d="M 2194 1759 
Q 1497 1759 1228 1600 
Q 959 1441 959 1056 
Q 959 750 1161 570 
Q 1363 391 1709 391 
Q 2188 391 2477 730 
Q 2766 1069 2766 1631 
L 2766 1759 
L 2194 1759 
z
M 3341 1997 
L 3341 0 
L 2766 0 
L 2766 531 
Q 2569 213 2275 61 
Q 1981 -91 1556 -91 
Q 1019 -91 701 211 
Q 384 513 384 1019 
Q 384 1609 779 1909 
Q 1175 2209 1959 2209 
L 2766 2209 
L 2766 2266 
Q 2766 2663 2505 2880 
Q 2244 3097 1772 3097 
Q 1472 3097 1187 3025 
Q 903 2953 641 2809 
L 641 3341 
Q 956 3463 1253 3523 
Q 1550 3584 1831 3584 
Q 2591 3584 2966 3190 
Q 3341 2797 3341 1997 
z
" transform="scale(0.015625)"/>
       <path id="DejaVuSans-73" d="M 2834 3397 
L 2834 2853 
Q 2591 2978 2328 3040 
Q 2066 3103 1784 3103 
Q 1356 3103 1142 2972 
Q 928 2841 928 2578 
Q 928 2378 1081 2264 
Q 1234 2150 1697 2047 
L 1894 2003 
Q 2506 1872 2764 1633 
Q 3022 1394 3022 966 
Q 3022 478 2636 193 
Q 2250 -91 1575 -91 
Q 1294 -91 989 -36 
Q 684 19 347 128 
L 347 722 
Q 666 556 975 473 
Q 1284 391 1588 391 
Q 1994 391 2212 530 
Q 2431 669 2431 922 
Q 2431 1156 2273 1281 
Q 2116 1406 1581 1522 
L 1381 1569 
Q 847 1681 609 1914 
Q 372 2147 372 2553 
Q 372 3047 722 3315 
Q 1072 3584 1716 3584 
Q 2034 3584 2315 3537 
Q 2597 3491 2834 3397 
z
" transform="scale(0.015625)"/>
       <path id="DejaVuSans-25" d="M 4653 2053 
Q 4381 2053 4226 1822 
Q 4072 1591 4072 1178 
Q 4072 772 4226 539 
Q 4381 306 4653 306 
Q 4919 306 5073 539 
Q 5228 772 5228 1178 
Q 5228 1588 5073 1820 
Q 4919 2053 4653 2053 
z
M 4653 2450 
Q 5147 2450 5437 2106 
Q 5728 1763 5728 1178 
Q 5728 594 5436 251 
Q 5144 -91 4653 -91 
Q 4153 -91 3862 251 
Q 3572 594 3572 1178 
Q 3572 1766 3864 2108 
Q 4156 2450 4653 2450 
z
M 1428 4353 
Q 1159 4353 1004 4120 
Q 850 3888 850 3481 
Q 850 3069 1003 2837 
Q 1156 2606 1428 2606 
Q 1700 2606 1854 2837 
Q 2009 3069 2009 3481 
Q 2009 3884 1853 4118 
Q 1697 4353 1428 4353 
z
M 4250 4750 
L 4750 4750 
L 1831 -91 
L 1331 -91 
L 4250 4750 
z
M 1428 4750 
Q 1922 4750 2215 4408 
Q 2509 4066 2509 3481 
Q 2509 2891 2217 2550 
Q 1925 2209 1428 2209 
Q 931 2209 642 2551 
Q 353 2894 353 3481 
Q 353 4063 643 4406 
Q 934 4750 1428 4750 
z
" transform="scale(0.015625)"/>
      </defs>
      <use xlink:href="#DejaVuSans-4d"/>
      <use xlink:href="#DejaVuSans-61" x="86.279297"/>
      <use xlink:href="#DejaVuSans-73" x="147.558594"/>
      <use xlink:href="#DejaVuSans-73" x="199.658203"/>
      <use xlink:href="#DejaVuSans-20" x="251.757812"/>
      <use xlink:href="#DejaVuSans-28" x="283.544922"/>
      <use xlink:href="#DejaVuSans-25" x="322.558594"/>
      <use xlink:href="#DejaVuSans-29" x="417.578125"/>
     </g>
    </g>
   </g>
   <g id="line2d_15">
    <path d="M 54.035734 58.563753 
L 54.477648 58.5954 
L 55.075802 58.579696 
L 56.104754 58.587655 
L 62.510616 58.500006 
L 62.945856 58.500006 
L 70.541374 58.412572 
L 71.003398 58.412572 
L 83.65212 58.314374 
L 85.013618 58.2825 
L 95.693738 58.187106 
L 96.555334 58.195065 
L 107.730936 58.099672 
L 108.463032 58.107643 
L 121.410864 58.004278 
L 122.026896 58.012023 
L 141.61716 57.916616 
L 142.079206 57.916616 
L 202.162414 58.004278 
L 202.64004 58.012023 
L 208.45661 58.115615 
L 209.048112 58.147261 
L 213.942888 58.234911 
L 214.38931 58.242882 
L 218.551968 58.346247 
L 220.478206 58.433669 
L 224.797104 58.537261 
L 225.544802 58.568908 
L 228.388414 58.672513 
L 229.24769 58.728061 
L 232.231896 58.823455 
L 232.839 58.87923 
L 235.347746 58.982595 
L 236.25396 59.046343 
L 237.852072 59.141736 
L 238.95247 59.205496 
L 240.577366 59.300889 
L 241.624152 59.396283 
L 243.27581 59.475733 
L 244.005674 59.531522 
L 246.98988 59.794027 
L 247.55904 59.857775 
L 248.88708 59.953168 
L 250.10131 60.096378 
L 251.148096 60.1838 
L 252.32657 60.305913 
L 253.37561 60.401319 
L 254.884486 60.592106 
L 255.770546 60.687727 
L 257.99143 60.974147 
L 258.752498 61.069541 
L 261.832658 61.5362 
L 263.49773 61.806677 
L 264.368254 61.941916 
L 266.60916 62.35559 
L 267.031008 62.450984 
L 270.028562 63.071402 
L 271.204848 63.355232 
L 277.470072 65.036462 
L 281.338128 66.264159 
L 282.23316 66.598156 
L 282.983112 66.876605 
L 284.438398 67.449433 
L 290.540642 70.196629 
L 296.33719 73.434158 
L 297.805802 74.396772 
L 299.14951 75.285077 
L 299.604794 75.616497 
L 299.910578 75.812678 
L 300.792262 76.470351 
L 301.533286 76.995375 
L 305.709358 80.357595 
L 306.146786 80.755339 
L 308.985912 83.412296 
L 309.276072 83.651139 
L 311.503586 85.889014 
L 312.092856 86.565207 
L 313.606152 88.158775 
L 314.199864 88.864277 
L 317.896056 93.340279 
L 319.39596 95.276043 
L 320.404802 96.683978 
L 320.728486 97.097666 
L 322.22165 99.136795 
L 323.844358 101.509921 
L 324.768406 102.843787 
L 326.250454 105.113548 
L 329.948856 111.061245 
L 332.500032 115.301233 
L 334.142762 118.133273 
L 334.432944 118.6372 
L 336.361414 122.031293 
L 337.11804 123.359777 
L 338.153666 125.231781 
L 339.921454 128.405803 
L 341.287438 130.826733 
L 342.32081 132.680229 
L 343.653358 135.082652 
L 344.55281 136.639192 
L 344.979144 137.469144 
L 346.023698 139.309514 
L 346.63973 140.269311 
L 347.358478 141.55795 
L 348.112872 142.825492 
L 348.72223 143.851853 
L 350.041342 146.044728 
L 350.956462 147.526972 
L 352.001016 149.165767 
L 352.454112 149.892126 
L 354.087936 152.358296 
L 355.090104 153.880372 
L 355.404794 154.304609 
L 356.752944 156.131626 
L 357.632374 157.367294 
L 358.250594 158.109812 
L 358.984944 159.043129 
L 360.473666 160.833105 
L 362.54273 163.142471 
L 363.761446 164.362437 
L 364.631904 165.202938 
L 365.256864 165.762413 
L 366.87281 167.173152 
L 371.81669 170.683976 
L 376.553016 173.385932 
L 381.760294 175.491398 
L 382.662 175.764453 
L 383.543618 176.026958 
L 385.190856 176.451195 
L 385.757762 176.610335 
L 389.22408 177.188331 
L 392.89351 177.079811 
L 393.781802 177.034572 
L 398.04943 176.856911 
L 402.736586 176.748151 
L 408.394706 176.605181 
L 415.818382 176.501589 
L 419.916334 176.469942 
L 433 176.469942 
L 433 176.469942 
" clip-path="url(#p09b1067ff9)" style="fill: none; stroke: #969696; stroke-width: 1.5; stroke-linecap: square"/>
   </g>
   <g id="line2d_16">
    <path d="M 54.029016 58.563753 
L 55.660608 58.538929 
L 70.548048 58.448134 
L 70.996658 58.415035 
L 71.599342 58.448134 
L 102.999096 58.346146 
L 103.733446 58.362696 
L 124.109374 58.453491 
L 124.542382 58.461765 
L 138.162024 58.544526 
L 138.80484 58.544526 
L 150.692494 58.643595 
L 151.30404 58.676694 
L 152.786088 58.701531 
L 162.27653 58.808876 
L 162.870286 58.841975 
L 168.227064 58.949319 
L 171.057262 58.982431 
L 174.21331 59.064951 
L 174.670848 59.064951 
L 175.523494 59.130909 
L 180.445032 59.238507 
L 181.040976 59.299108 
L 185.056366 59.392581 
L 185.688 59.450517 
L 188.040506 59.557862 
L 188.495856 59.557862 
L 190.567152 59.640382 
L 190.872936 59.690031 
L 193.53127 59.7891 
L 195.957454 59.9242 
L 197.881438 60.02327 
L 198.448366 60.056369 
L 200.088864 60.130614 
L 200.37235 60.196825 
L 202.182502 60.295895 
L 203.075302 60.353831 
L 204.883222 60.461175 
L 205.445642 60.494274 
L 206.646502 60.593344 
L 207.804888 60.692414 
L 209.465541 60.791484 
L 211.251096 60.956764 
L 216.018626 61.353283 
L 217.194912 61.452605 
L 218.527438 61.617633 
L 219.721514 61.716956 
L 220.958064 61.873949 
L 223.906514 62.146574 
L 226.28808 62.430152 
L 227.18088 62.537496 
L 230.149462 62.925753 
L 245.478794 65.4704 
L 246.543502 65.693377 
L 248.599152 66.125673 
L 249.489698 66.299228 
L 250.210634 66.481058 
L 250.813318 66.624193 
L 252.145778 66.935513 
L 252.91584 67.128296 
L 253.368936 67.232723 
L 259.741318 68.973392 
L 260.32608 69.124788 
L 269.111254 72.082277 
L 269.70943 72.286265 
L 270.294214 72.514825 
L 271.497262 72.999461 
L 272.113294 73.255537 
L 272.968128 73.594132 
L 274.195706 74.136704 
L 275.200128 74.585563 
L 276.262538 75.040018 
L 277.31381 75.524653 
L 278.199936 75.973512 
L 280.427494 77.033818 
L 281.472048 77.573472 
L 282.68177 78.239938 
L 282.94961 78.347282 
L 284.014318 78.950468 
L 284.91377 79.498396 
L 291.444602 83.488689 
L 291.737016 83.745004 
L 292.480294 84.207494 
L 293.03604 84.626172 
L 295.439904 86.369266 
L 296.03808 86.790609 
L 298.131674 88.437552 
L 299.02896 89.128615 
L 299.464222 89.514181 
L 301.57123 91.276743 
L 303.501888 93.008885 
L 304.079976 93.521036 
L 310.15327 99.499545 
L 310.459032 99.857608 
L 312.391944 101.892796 
L 314.195422 103.881013 
L 315.07704 104.886061 
L 315.80465 105.778422 
L 316.565762 106.637683 
L 317.44296 107.692393 
L 320.726254 111.693651 
L 321.03869 112.068264 
L 322.953746 114.510924 
L 328.618562 122.020517 
L 329.665414 123.518729 
L 330.413112 124.518434 
L 331.30147 125.738184 
L 332.165254 126.949912 
L 332.61835 127.588876 
L 337.678294 134.622095 
L 338.26531 135.45652 
L 340.64239 138.764037 
L 341.253936 139.554409 
L 341.81419 140.39419 
L 342.57749 141.380264 
L 344.070698 143.390387 
L 344.836318 144.354302 
L 345.73577 145.508094 
L 346.467888 146.469331 
L 348.699888 149.291972 
L 349.161912 149.867403 
L 351.37157 152.615799 
L 351.690746 152.913248 
L 353.612498 155.130026 
L 354.371422 155.986609 
L 357.949318 159.709633 
L 358.697016 160.411888 
L 362.39765 163.782698 
L 363.009262 164.250784 
L 364.64081 165.594669 
L 367.30584 167.541752 
L 367.908502 167.932674 
L 369.535586 169.037046 
L 370.745374 169.777757 
L 373.573318 171.344858 
L 378.148896 173.511986 
L 378.907754 173.812114 
L 380.82281 174.572293 
L 381.878546 174.927438 
L 382.907498 175.252403 
L 388.233072 176.736743 
L 393.844342 176.637674 
L 395.529502 176.541282 
L 399.163198 176.450487 
L 400.665334 176.373323 
L 405.859198 176.268657 
L 408.434904 176.191493 
L 418.753462 176.092424 
L 420.534554 176.067587 
L 433 176.125523 
L 433 176.125523 
" clip-path="url(#p09b1067ff9)" style="fill: none; stroke: #3690c0; stroke-width: 1.5; stroke-linecap: square"/>
   </g>
   <g id="line2d_17">
    <path d="M 54 59.195415 
L 388.8 59.195415 
" clip-path="url(#p09b1067ff9)" style="fill: none; stroke-dasharray: 1.11,0.48; stroke-dashoffset: 0; stroke: #ff0000; stroke-width: 0.3"/>
   </g>
   <g id="patch_3">
    <path d="M 54 184.896 
L 54 51.84 
" style="fill: none; stroke: #000000; stroke-width: 0.5; stroke-linejoin: miter; stroke-linecap: square"/>
   </g>
   <g id="patch_4">
    <path d="M 54 184.896 
L 388.8 184.896 
" style="fill: none; stroke: #000000; stroke-width: 0.5; stroke-linejoin: miter; stroke-linecap: square"/>
   </g>
   <g id="text_17">
    <!-- Dynamic TGA -->
    <g transform="translate(187.411719 45.84) scale(0.1 -0.1)">
     <defs>
      <path id="DejaVuSans-44" d="M 1259 4147 
L 1259 519 
L 2022 519 
Q 2988 519 3436 956 
Q 3884 1394 3884 2338 
Q 3884 3275 3436 3711 
Q 2988 4147 2022 4147 
L 1259 4147 
z
M 628 4666 
L 1925 4666 
Q 3281 4666 3915 4102 
Q 4550 3538 4550 2338 
Q 4550 1131 3912 565 
Q 3275 0 1925 0 
L 628 0 
L 628 4666 
z
" transform="scale(0.015625)"/>
      <path id="DejaVuSans-79" d="M 2059 -325 
Q 1816 -950 1584 -1140 
Q 1353 -1331 966 -1331 
L 506 -1331 
L 506 -850 
L 844 -850 
Q 1081 -850 1212 -737 
Q 1344 -625 1503 -206 
L 1606 56 
L 191 3500 
L 800 3500 
L 1894 763 
L 2988 3500 
L 3597 3500 
L 2059 -325 
z
" transform="scale(0.015625)"/>
      <path id="DejaVuSans-6e" d="M 3513 2113 
L 3513 0 
L 2938 0 
L 2938 2094 
Q 2938 2591 2744 2837 
Q 2550 3084 2163 3084 
Q 1697 3084 1428 2787 
Q 1159 2491 1159 1978 
L 1159 0 
L 581 0 
L 581 3500 
L 1159 3500 
L 1159 2956 
Q 1366 3272 1645 3428 
Q 1925 3584 2291 3584 
Q 2894 3584 3203 3211 
Q 3513 2838 3513 2113 
z
" transform="scale(0.015625)"/>
      <path id="DejaVuSans-69" d="M 603 3500 
L 1178 3500 
L 1178 0 
L 603 0 
L 603 3500 
z
M 603 4863 
L 1178 4863 
L 1178 4134 
L 603 4134 
L 603 4863 
z
" transform="scale(0.015625)"/>
      <path id="DejaVuSans-63" d="M 3122 3366 
L 3122 2828 
Q 2878 2963 2633 3030 
Q 2388 3097 2138 3097 
Q 1578 3097 1268 2742 
Q 959 2388 959 1747 
Q 959 1106 1268 751 
Q 1578 397 2138 397 
Q 2388 397 2633 464 
Q 2878 531 3122 666 
L 3122 134 
Q 2881 22 2623 -34 
Q 2366 -91 2075 -91 
Q 1284 -91 818 406 
Q 353 903 353 1747 
Q 353 2603 823 3093 
Q 1294 3584 2113 3584 
Q 2378 3584 2631 3529 
Q 2884 3475 3122 3366 
z
" transform="scale(0.015625)"/>
      <path id="DejaVuSans-47" d="M 3809 666 
L 3809 1919 
L 2778 1919 
L 2778 2438 
L 4434 2438 
L 4434 434 
Q 4069 175 3628 42 
Q 3188 -91 2688 -91 
Q 1594 -91 976 548 
Q 359 1188 359 2328 
Q 359 3472 976 4111 
Q 1594 4750 2688 4750 
Q 3144 4750 3555 4637 
Q 3966 4525 4313 4306 
L 4313 3634 
Q 3963 3931 3569 4081 
Q 3175 4231 2741 4231 
Q 1884 4231 1454 3753 
Q 1025 3275 1025 2328 
Q 1025 1384 1454 906 
Q 1884 428 2741 428 
Q 3075 428 3337 486 
Q 3600 544 3809 666 
z
" transform="scale(0.015625)"/>
      <path id="DejaVuSans-41" d="M 2188 4044 
L 1331 1722 
L 3047 1722 
L 2188 4044 
z
M 1831 4666 
L 2547 4666 
L 4325 0 
L 3669 0 
L 3244 1197 
L 1141 1197 
L 716 0 
L 50 0 
L 1831 4666 
z
" transform="scale(0.015625)"/>
     </defs>
     <use xlink:href="#DejaVuSans-44"/>
     <use xlink:href="#DejaVuSans-79" x="77.001953"/>
     <use xlink:href="#DejaVuSans-6e" x="136.181641"/>
     <use xlink:href="#DejaVuSans-61" x="199.560547"/>
     <use xlink:href="#DejaVuSans-6d" x="260.839844"/>
     <use xlink:href="#DejaVuSans-69" x="358.251953"/>
     <use xlink:href="#DejaVuSans-63" x="386.035156"/>
     <use xlink:href="#DejaVuSans-20" x="441.015625"/>
     <use xlink:href="#DejaVuSans-54" x="472.802734"/>
     <use xlink:href="#DejaVuSans-47" x="533.886719"/>
     <use xlink:href="#DejaVuSans-41" x="611.376953"/>
    </g>
   </g>
   <g id="legend_1">
    <g id="patch_5">
     <path d="M 61 179.896 
L 236.8 179.896 
Q 238.8 179.896 238.8 177.896 
L 238.8 133.841312 
Q 238.8 131.841312 236.8 131.841312 
L 61 131.841312 
Q 59 131.841312 59 133.841312 
L 59 177.896 
Q 59 179.896 61 179.896 
z
" style="fill: #ffffff; opacity: 0.8; stroke: #cccccc; stroke-linejoin: miter"/>
    </g>
    <g id="line2d_18">
     <path d="M 63 139.93975 
L 73 139.93975 
L 83 139.93975 
" style="fill: none; stroke: #969696; stroke-width: 1.5; stroke-linecap: square"/>
    </g>
    <g id="text_18">
     <!-- PS-19.6K -->
     <g transform="translate(91 143.43975) scale(0.1 -0.1)">
      <defs>
       <path id="DejaVuSans-50" d="M 1259 4147 
L 1259 2394 
L 2053 2394 
Q 2494 2394 2734 2622 
Q 2975 2850 2975 3272 
Q 2975 3691 2734 3919 
Q 2494 4147 2053 4147 
L 1259 4147 
z
M 628 4666 
L 2053 4666 
Q 2838 4666 3239 4311 
Q 3641 3956 3641 3272 
Q 3641 2581 3239 2228 
Q 2838 1875 2053 1875 
L 1259 1875 
L 1259 0 
L 628 0 
L 628 4666 
z
" transform="scale(0.015625)"/>
       <path id="DejaVuSans-53" d="M 3425 4513 
L 3425 3897 
Q 3066 4069 2747 4153 
Q 2428 4238 2131 4238 
Q 1616 4238 1336 4038 
Q 1056 3838 1056 3469 
Q 1056 3159 1242 3001 
Q 1428 2844 1947 2747 
L 2328 2669 
Q 3034 2534 3370 2195 
Q 3706 1856 3706 1288 
Q 3706 609 3251 259 
Q 2797 -91 1919 -91 
Q 1588 -91 1214 -16 
Q 841 59 441 206 
L 441 856 
Q 825 641 1194 531 
Q 1563 422 1919 422 
Q 2459 422 2753 634 
Q 3047 847 3047 1241 
Q 3047 1584 2836 1778 
Q 2625 1972 2144 2069 
L 1759 2144 
Q 1053 2284 737 2584 
Q 422 2884 422 3419 
Q 422 4038 858 4394 
Q 1294 4750 2059 4750 
Q 2388 4750 2728 4690 
Q 3069 4631 3425 4513 
z
" transform="scale(0.015625)"/>
       <path id="DejaVuSans-2d" d="M 313 2009 
L 1997 2009 
L 1997 1497 
L 313 1497 
L 313 2009 
z
" transform="scale(0.015625)"/>
       <path id="DejaVuSans-39" d="M 703 97 
L 703 672 
Q 941 559 1184 500 
Q 1428 441 1663 441 
Q 2288 441 2617 861 
Q 2947 1281 2994 2138 
Q 2813 1869 2534 1725 
Q 2256 1581 1919 1581 
Q 1219 1581 811 2004 
Q 403 2428 403 3163 
Q 403 3881 828 4315 
Q 1253 4750 1959 4750 
Q 2769 4750 3195 4129 
Q 3622 3509 3622 2328 
Q 3622 1225 3098 567 
Q 2575 -91 1691 -91 
Q 1453 -91 1209 -44 
Q 966 3 703 97 
z
M 1959 2075 
Q 2384 2075 2632 2365 
Q 2881 2656 2881 3163 
Q 2881 3666 2632 3958 
Q 2384 4250 1959 4250 
Q 1534 4250 1286 3958 
Q 1038 3666 1038 3163 
Q 1038 2656 1286 2365 
Q 1534 2075 1959 2075 
z
" transform="scale(0.015625)"/>
       <path id="DejaVuSans-2e" d="M 684 794 
L 1344 794 
L 1344 0 
L 684 0 
L 684 794 
z
" transform="scale(0.015625)"/>
       <path id="DejaVuSans-4b" d="M 628 4666 
L 1259 4666 
L 1259 2694 
L 3353 4666 
L 4166 4666 
L 1850 2491 
L 4331 0 
L 3500 0 
L 1259 2247 
L 1259 0 
L 628 0 
L 628 4666 
z
" transform="scale(0.015625)"/>
      </defs>
      <use xlink:href="#DejaVuSans-50"/>
      <use xlink:href="#DejaVuSans-53" x="60.302734"/>
      <use xlink:href="#DejaVuSans-2d" x="123.779297"/>
      <use xlink:href="#DejaVuSans-31" x="159.863281"/>
      <use xlink:href="#DejaVuSans-39" x="223.486328"/>
      <use xlink:href="#DejaVuSans-2e" x="287.109375"/>
      <use xlink:href="#DejaVuSans-36" x="318.896484"/>
      <use xlink:href="#DejaVuSans-4b" x="382.519531"/>
     </g>
    </g>
    <g id="line2d_19">
     <path d="M 63 154.617875 
L 73 154.617875 
L 83 154.617875 
" style="fill: none; stroke: #3690c0; stroke-width: 1.5; stroke-linecap: square"/>
    </g>
    <g id="text_19">
     <!-- PS-19.6K-SCF$_{3}$ -->
     <g transform="translate(91 158.117875) scale(0.1 -0.1)">
      <defs>
       <path id="DejaVuSans-46" d="M 628 4666 
L 3309 4666 
L 3309 4134 
L 1259 4134 
L 1259 2759 
L 3109 2759 
L 3109 2228 
L 1259 2228 
L 1259 0 
L 628 0 
L 628 4666 
z
" transform="scale(0.015625)"/>
      </defs>
      <use xlink:href="#DejaVuSans-50" transform="translate(0 0.78125)"/>
      <use xlink:href="#DejaVuSans-53" transform="translate(60.302734 0.78125)"/>
      <use xlink:href="#DejaVuSans-2d" transform="translate(123.779297 0.78125)"/>
      <use xlink:href="#DejaVuSans-31" transform="translate(159.863281 0.78125)"/>
      <use xlink:href="#DejaVuSans-39" transform="translate(223.486328 0.78125)"/>
      <use xlink:href="#DejaVuSans-2e" transform="translate(287.109375 0.78125)"/>
      <use xlink:href="#DejaVuSans-36" transform="translate(318.896484 0.78125)"/>
      <use xlink:href="#DejaVuSans-4b" transform="translate(382.519531 0.78125)"/>
      <use xlink:href="#DejaVuSans-2d" transform="translate(448.095703 0.78125)"/>
      <use xlink:href="#DejaVuSans-53" transform="translate(484.179688 0.78125)"/>
      <use xlink:href="#DejaVuSans-43" transform="translate(547.65625 0.78125)"/>
      <use xlink:href="#DejaVuSans-46" transform="translate(617.480469 0.78125)"/>
      <use xlink:href="#DejaVuSans-33" transform="translate(675.957031 -15.625) scale(0.7)"/>
     </g>
    </g>
    <g id="line2d_20">
     <path d="M 63 169.296 
L 73 169.296 
L 83 169.296 
" style="fill: none; stroke-dasharray: 1.11,0.48; stroke-dashoffset: 0; stroke: #ff0000; stroke-width: 0.3"/>
    </g>
    <g id="text_20">
     <!-- $T_\mathregular{depolymerization}$ at 99.5% Mass -->
     <g transform="translate(91 172.796) scale(0.1 -0.1)">
      <defs>
       <path id="DejaVuSans-Oblique-54" d="M 378 4666 
L 4325 4666 
L 4225 4134 
L 2559 4134 
L 1759 0 
L 1125 0 
L 1925 4134 
L 275 4134 
L 378 4666 
z
" transform="scale(0.015625)"/>
       <path id="DejaVuSans-64" d="M 2906 2969 
L 2906 4863 
L 3481 4863 
L 3481 0 
L 2906 0 
L 2906 525 
Q 2725 213 2448 61 
Q 2172 -91 1784 -91 
Q 1150 -91 751 415 
Q 353 922 353 1747 
Q 353 2572 751 3078 
Q 1150 3584 1784 3584 
Q 2172 3584 2448 3432 
Q 2725 3281 2906 2969 
z
M 947 1747 
Q 947 1113 1208 752 
Q 1469 391 1925 391 
Q 2381 391 2643 752 
Q 2906 1113 2906 1747 
Q 2906 2381 2643 2742 
Q 2381 3103 1925 3103 
Q 1469 3103 1208 2742 
Q 947 2381 947 1747 
z
" transform="scale(0.015625)"/>
       <path id="DejaVuSans-6f" d="M 1959 3097 
Q 1497 3097 1228 2736 
Q 959 2375 959 1747 
Q 959 1119 1226 758 
Q 1494 397 1959 397 
Q 2419 397 2687 759 
Q 2956 1122 2956 1747 
Q 2956 2369 2687 2733 
Q 2419 3097 1959 3097 
z
M 1959 3584 
Q 2709 3584 3137 3096 
Q 3566 2609 3566 1747 
Q 3566 888 3137 398 
Q 2709 -91 1959 -91 
Q 1206 -91 779 398 
Q 353 888 353 1747 
Q 353 2609 779 3096 
Q 1206 3584 1959 3584 
z
" transform="scale(0.015625)"/>
       <path id="DejaVuSans-6c" d="M 603 4863 
L 1178 4863 
L 1178 0 
L 603 0 
L 603 4863 
z
" transform="scale(0.015625)"/>
       <path id="DejaVuSans-72" d="M 2631 2963 
Q 2534 3019 2420 3045 
Q 2306 3072 2169 3072 
Q 1681 3072 1420 2755 
Q 1159 2438 1159 1844 
L 1159 0 
L 581 0 
L 581 3500 
L 1159 3500 
L 1159 2956 
Q 1341 3275 1631 3429 
Q 1922 3584 2338 3584 
Q 2397 3584 2469 3576 
Q 2541 3569 2628 3553 
L 2631 2963 
z
" transform="scale(0.015625)"/>
       <path id="DejaVuSans-7a" d="M 353 3500 
L 3084 3500 
L 3084 2975 
L 922 459 
L 3084 459 
L 3084 0 
L 275 0 
L 275 525 
L 2438 3041 
L 353 3041 
L 353 3500 
z
" transform="scale(0.015625)"/>
       <path id="DejaVuSans-74" d="M 1172 4494 
L 1172 3500 
L 2356 3500 
L 2356 3053 
L 1172 3053 
L 1172 1153 
Q 1172 725 1289 603 
Q 1406 481 1766 481 
L 2356 481 
L 2356 0 
L 1766 0 
Q 1100 0 847 248 
Q 594 497 594 1153 
L 594 3053 
L 172 3053 
L 172 3500 
L 594 3500 
L 594 4494 
L 1172 4494 
z
" transform="scale(0.015625)"/>
       <path id="DejaVuSans-35" d="M 691 4666 
L 3169 4666 
L 3169 4134 
L 1269 4134 
L 1269 2991 
Q 1406 3038 1543 3061 
Q 1681 3084 1819 3084 
Q 2600 3084 3056 2656 
Q 3513 2228 3513 1497 
Q 3513 744 3044 326 
Q 2575 -91 1722 -91 
Q 1428 -91 1123 -41 
Q 819 9 494 109 
L 494 744 
Q 775 591 1075 516 
Q 1375 441 1709 441 
Q 2250 441 2565 725 
Q 2881 1009 2881 1497 
Q 2881 1984 2565 2268 
Q 2250 2553 1709 2553 
Q 1456 2553 1204 2497 
Q 953 2441 691 2322 
L 691 4666 
z
" transform="scale(0.015625)"/>
      </defs>
      <use xlink:href="#DejaVuSans-Oblique-54" transform="translate(0 0.78125)"/>
      <use xlink:href="#DejaVuSans-64" transform="translate(61.083984 -15.625) scale(0.7)"/>
      <use xlink:href="#DejaVuSans-65" transform="translate(105.517578 -15.625) scale(0.7)"/>
      <use xlink:href="#DejaVuSans-70" transform="translate(148.583984 -15.625) scale(0.7)"/>
      <use xlink:href="#DejaVuSans-6f" transform="translate(193.017578 -15.625) scale(0.7)"/>
      <use xlink:href="#DejaVuSans-6c" transform="translate(235.844727 -15.625) scale(0.7)"/>
      <use xlink:href="#DejaVuSans-79" transform="translate(255.292969 -15.625) scale(0.7)"/>
      <use xlink:href="#DejaVuSans-6d" transform="translate(296.71875 -15.625) scale(0.7)"/>
      <use xlink:href="#DejaVuSans-65" transform="translate(364.907227 -15.625) scale(0.7)"/>
      <use xlink:href="#DejaVuSans-72" transform="translate(407.973633 -15.625) scale(0.7)"/>
      <use xlink:href="#DejaVuSans-69" transform="translate(436.75293 -15.625) scale(0.7)"/>
      <use xlink:href="#DejaVuSans-7a" transform="translate(456.201172 -15.625) scale(0.7)"/>
      <use xlink:href="#DejaVuSans-61" transform="translate(492.944336 -15.625) scale(0.7)"/>
      <use xlink:href="#DejaVuSans-74" transform="translate(535.839844 -15.625) scale(0.7)"/>
      <use xlink:href="#DejaVuSans-69" transform="translate(563.286133 -15.625) scale(0.7)"/>
      <use xlink:href="#DejaVuSans-6f" transform="translate(582.734375 -15.625) scale(0.7)"/>
      <use xlink:href="#DejaVuSans-6e" transform="translate(625.561523 -15.625) scale(0.7)"/>
      <use xlink:href="#DejaVuSans-20" transform="translate(672.661133 0.78125)"/>
      <use xlink:href="#DejaVuSans-61" transform="translate(704.448242 0.78125)"/>
      <use xlink:href="#DejaVuSans-74" transform="translate(765.727539 0.78125)"/>
      <use xlink:href="#DejaVuSans-20" transform="translate(804.936523 0.78125)"/>
      <use xlink:href="#DejaVuSans-39" transform="translate(836.723633 0.78125)"/>
      <use xlink:href="#DejaVuSans-39" transform="translate(900.34668 0.78125)"/>
      <use xlink:href="#DejaVuSans-2e" transform="translate(963.969727 0.78125)"/>
      <use xlink:href="#DejaVuSans-35" transform="translate(995.756836 0.78125)"/>
      <use xlink:href="#DejaVuSans-25" transform="translate(1059.379883 0.78125)"/>
      <use xlink:href="#DejaVuSans-20" transform="translate(1154.399414 0.78125)"/>
      <use xlink:href="#DejaVuSans-4d" transform="translate(1186.186523 0.78125)"/>
      <use xlink:href="#DejaVuSans-61" transform="translate(1272.46582 0.78125)"/>
      <use xlink:href="#DejaVuSans-73" transform="translate(1333.745117 0.78125)"/>
      <use xlink:href="#DejaVuSans-73" transform="translate(1385.844727 0.78125)"/>
     </g>
    </g>
   </g>
  </g>
  <g id="axes_2">
   <g id="patch_6">
    <path d="M 54 384.48 
L 388.8 384.48 
L 388.8 251.424 
L 54 251.424 
z
" style="fill: #ffffff"/>
   </g>
   <g id="matplotlib.axis_3">
    <g id="xtick_9">
     <g id="line2d_21">
      <g>
       <use xlink:href="#mc4921d8952" x="76.32" y="384.48" style="stroke: #000000; stroke-width: 0.8"/>
      </g>
     </g>
     <g id="text_21">
      <!-- 260 -->
      <g transform="translate(68.685 394.05875) scale(0.08 -0.08)">
       <use xlink:href="#DejaVuSans-32"/>
       <use xlink:href="#DejaVuSans-36" x="63.623047"/>
       <use xlink:href="#DejaVuSans-30" x="127.246094"/>
      </g>
     </g>
    </g>
    <g id="xtick_10">
     <g id="line2d_22">
      <g>
       <use xlink:href="#mc4921d8952" x="120.96" y="384.48" style="stroke: #000000; stroke-width: 0.8"/>
      </g>
     </g>
     <g id="text_22">
      <!-- 280 -->
      <g transform="translate(113.325 394.05875) scale(0.08 -0.08)">
       <use xlink:href="#DejaVuSans-32"/>
       <use xlink:href="#DejaVuSans-38" x="63.623047"/>
       <use xlink:href="#DejaVuSans-30" x="127.246094"/>
      </g>
     </g>
    </g>
    <g id="xtick_11">
     <g id="line2d_23">
      <g>
       <use xlink:href="#mc4921d8952" x="165.6" y="384.48" style="stroke: #000000; stroke-width: 0.8"/>
      </g>
     </g>
     <g id="text_23">
      <!-- 300 -->
      <g transform="translate(157.965 394.05875) scale(0.08 -0.08)">
       <use xlink:href="#DejaVuSans-33"/>
       <use xlink:href="#DejaVuSans-30" x="63.623047"/>
       <use xlink:href="#DejaVuSans-30" x="127.246094"/>
      </g>
     </g>
    </g>
    <g id="xtick_12">
     <g id="line2d_24">
      <g>
       <use xlink:href="#mc4921d8952" x="210.24" y="384.48" style="stroke: #000000; stroke-width: 0.8"/>
      </g>
     </g>
     <g id="text_24">
      <!-- 320 -->
      <g transform="translate(202.605 394.05875) scale(0.08 -0.08)">
       <use xlink:href="#DejaVuSans-33"/>
       <use xlink:href="#DejaVuSans-32" x="63.623047"/>
       <use xlink:href="#DejaVuSans-30" x="127.246094"/>
      </g>
     </g>
    </g>
    <g id="xtick_13">
     <g id="line2d_25">
      <g>
       <use xlink:href="#mc4921d8952" x="254.88" y="384.48" style="stroke: #000000; stroke-width: 0.8"/>
      </g>
     </g>
     <g id="text_25">
      <!-- 340 -->
      <g transform="translate(247.245 394.05875) scale(0.08 -0.08)">
       <use xlink:href="#DejaVuSans-33"/>
       <use xlink:href="#DejaVuSans-34" x="63.623047"/>
       <use xlink:href="#DejaVuSans-30" x="127.246094"/>
      </g>
     </g>
    </g>
    <g id="xtick_14">
     <g id="line2d_26">
      <g>
       <use xlink:href="#mc4921d8952" x="299.52" y="384.48" style="stroke: #000000; stroke-width: 0.8"/>
      </g>
     </g>
     <g id="text_26">
      <!-- 360 -->
      <g transform="translate(291.885 394.05875) scale(0.08 -0.08)">
       <use xlink:href="#DejaVuSans-33"/>
       <use xlink:href="#DejaVuSans-36" x="63.623047"/>
       <use xlink:href="#DejaVuSans-30" x="127.246094"/>
      </g>
     </g>
    </g>
    <g id="xtick_15">
     <g id="line2d_27">
      <g>
       <use xlink:href="#mc4921d8952" x="344.16" y="384.48" style="stroke: #000000; stroke-width: 0.8"/>
      </g>
     </g>
     <g id="text_27">
      <!-- 380 -->
      <g transform="translate(336.525 394.05875) scale(0.08 -0.08)">
       <use xlink:href="#DejaVuSans-33"/>
       <use xlink:href="#DejaVuSans-38" x="63.623047"/>
       <use xlink:href="#DejaVuSans-30" x="127.246094"/>
      </g>
     </g>
    </g>
    <g id="xtick_16">
     <g id="line2d_28">
      <g>
       <use xlink:href="#mc4921d8952" x="388.8" y="384.48" style="stroke: #000000; stroke-width: 0.8"/>
      </g>
     </g>
     <g id="text_28">
      <!-- 400 -->
      <g transform="translate(381.165 394.05875) scale(0.08 -0.08)">
       <use xlink:href="#DejaVuSans-34"/>
       <use xlink:href="#DejaVuSans-30" x="63.623047"/>
       <use xlink:href="#DejaVuSans-30" x="127.246094"/>
      </g>
     </g>
    </g>
    <g id="text_29">
     <!-- Temp ($^{o}$C) -->
     <g transform="translate(195.9 407.5225) scale(0.1 -0.1)">
      <use xlink:href="#DejaVuSans-54" transform="translate(0 0.51875)"/>
      <use xlink:href="#DejaVuSans-65" transform="translate(61.083984 0.51875)"/>
      <use xlink:href="#DejaVuSans-6d" transform="translate(122.607422 0.51875)"/>
      <use xlink:href="#DejaVuSans-70" transform="translate(220.019531 0.51875)"/>
      <use xlink:href="#DejaVuSans-20" transform="translate(283.496094 0.51875)"/>
      <use xlink:href="#DejaVuSans-28" transform="translate(315.283203 0.51875)"/>
      <use xlink:href="#DejaVuSans-Oblique-6f" transform="translate(355.253906 38.8) scale(0.7)"/>
      <use xlink:href="#DejaVuSans-43" transform="translate(400.81543 0.51875)"/>
      <use xlink:href="#DejaVuSans-29" transform="translate(470.639648 0.51875)"/>
     </g>
    </g>
   </g>
   <g id="matplotlib.axis_4">
    <g id="ytick_7">
     <g id="line2d_29">
      <g>
       <use xlink:href="#mb7828b3259" x="54" y="361.215488" style="stroke: #000000; stroke-width: 0.8"/>
      </g>
     </g>
     <g id="text_30">
      <!-- 1.40 -->
      <g transform="translate(32.6875 364.254863) scale(0.08 -0.08)">
       <use xlink:href="#DejaVuSans-31"/>
       <use xlink:href="#DejaVuSans-2e" x="63.623047"/>
       <use xlink:href="#DejaVuSans-34" x="95.410156"/>
       <use xlink:href="#DejaVuSans-30" x="159.033203"/>
      </g>
     </g>
    </g>
    <g id="ytick_8">
     <g id="line2d_30">
      <g>
       <use xlink:href="#mb7828b3259" x="54" y="336.823965" style="stroke: #000000; stroke-width: 0.8"/>
      </g>
     </g>
     <g id="text_31">
      <!-- 1.45 -->
      <g transform="translate(32.6875 339.86334) scale(0.08 -0.08)">
       <use xlink:href="#DejaVuSans-31"/>
       <use xlink:href="#DejaVuSans-2e" x="63.623047"/>
       <use xlink:href="#DejaVuSans-34" x="95.410156"/>
       <use xlink:href="#DejaVuSans-35" x="159.033203"/>
      </g>
     </g>
    </g>
    <g id="ytick_9">
     <g id="line2d_31">
      <g>
       <use xlink:href="#mb7828b3259" x="54" y="312.432442" style="stroke: #000000; stroke-width: 0.8"/>
      </g>
     </g>
     <g id="text_32">
      <!-- 1.50 -->
      <g transform="translate(32.6875 315.471817) scale(0.08 -0.08)">
       <use xlink:href="#DejaVuSans-31"/>
       <use xlink:href="#DejaVuSans-2e" x="63.623047"/>
       <use xlink:href="#DejaVuSans-35" x="95.410156"/>
       <use xlink:href="#DejaVuSans-30" x="159.033203"/>
      </g>
     </g>
    </g>
    <g id="ytick_10">
     <g id="line2d_32">
      <g>
       <use xlink:href="#mb7828b3259" x="54" y="288.04092" style="stroke: #000000; stroke-width: 0.8"/>
      </g>
     </g>
     <g id="text_33">
      <!-- 1.55 -->
      <g transform="translate(32.6875 291.080295) scale(0.08 -0.08)">
       <use xlink:href="#DejaVuSans-31"/>
       <use xlink:href="#DejaVuSans-2e" x="63.623047"/>
       <use xlink:href="#DejaVuSans-35" x="95.410156"/>
       <use xlink:href="#DejaVuSans-35" x="159.033203"/>
      </g>
     </g>
    </g>
    <g id="ytick_11">
     <g id="line2d_33">
      <g>
       <use xlink:href="#mb7828b3259" x="54" y="263.649397" style="stroke: #000000; stroke-width: 0.8"/>
      </g>
     </g>
     <g id="text_34">
      <!-- 1.60 -->
      <g transform="translate(32.6875 266.688772) scale(0.08 -0.08)">
       <use xlink:href="#DejaVuSans-31"/>
       <use xlink:href="#DejaVuSans-2e" x="63.623047"/>
       <use xlink:href="#DejaVuSans-36" x="95.410156"/>
       <use xlink:href="#DejaVuSans-30" x="159.033203"/>
      </g>
     </g>
    </g>
    <g id="text_35">
     <!-- Ion Current (A) -->
     <g transform="translate(26.607812 354.931687) rotate(-90) scale(0.1 -0.1)">
      <defs>
       <path id="DejaVuSans-49" d="M 628 4666 
L 1259 4666 
L 1259 0 
L 628 0 
L 628 4666 
z
" transform="scale(0.015625)"/>
       <path id="DejaVuSans-75" d="M 544 1381 
L 544 3500 
L 1119 3500 
L 1119 1403 
Q 1119 906 1312 657 
Q 1506 409 1894 409 
Q 2359 409 2629 706 
Q 2900 1003 2900 1516 
L 2900 3500 
L 3475 3500 
L 3475 0 
L 2900 0 
L 2900 538 
Q 2691 219 2414 64 
Q 2138 -91 1772 -91 
Q 1169 -91 856 284 
Q 544 659 544 1381 
z
M 1991 3584 
L 1991 3584 
z
" transform="scale(0.015625)"/>
      </defs>
      <use xlink:href="#DejaVuSans-49"/>
      <use xlink:href="#DejaVuSans-6f" x="29.492188"/>
      <use xlink:href="#DejaVuSans-6e" x="90.673828"/>
      <use xlink:href="#DejaVuSans-20" x="154.052734"/>
      <use xlink:href="#DejaVuSans-43" x="185.839844"/>
      <use xlink:href="#DejaVuSans-75" x="255.664062"/>
      <use xlink:href="#DejaVuSans-72" x="319.042969"/>
      <use xlink:href="#DejaVuSans-72" x="358.40625"/>
      <use xlink:href="#DejaVuSans-65" x="397.269531"/>
      <use xlink:href="#DejaVuSans-6e" x="458.792969"/>
      <use xlink:href="#DejaVuSans-74" x="522.171875"/>
      <use xlink:href="#DejaVuSans-20" x="561.380859"/>
      <use xlink:href="#DejaVuSans-28" x="593.167969"/>
      <use xlink:href="#DejaVuSans-41" x="632.181641"/>
      <use xlink:href="#DejaVuSans-29" x="700.589844"/>
     </g>
    </g>
    <g id="text_36">
     <!-- 1e−12 -->
     <g transform="translate(54 248.424) scale(0.1 -0.1)">
      <defs>
       <path id="DejaVuSans-2212" d="M 678 2272 
L 4684 2272 
L 4684 1741 
L 678 1741 
L 678 2272 
z
" transform="scale(0.015625)"/>
      </defs>
      <use xlink:href="#DejaVuSans-31"/>
      <use xlink:href="#DejaVuSans-65" x="63.623047"/>
      <use xlink:href="#DejaVuSans-2212" x="125.146484"/>
      <use xlink:href="#DejaVuSans-31" x="208.935547"/>
      <use xlink:href="#DejaVuSans-32" x="272.558594"/>
     </g>
    </g>
   </g>
   <g id="line2d_34">
    <path d="M 53.917416 333.769659 
L 54.17856 316.091171 
L 54.63612 309.577659 
L 54.9486 342.143756 
L 55.354802 364.475171 
L 55.674 360.753024 
L 56.104754 342.143756 
L 56.43288 342.143756 
L 56.841314 308.647366 
L 57.59352 345.865902 
L 57.914928 335.630732 
L 58.19616 370.057902 
L 58.647024 330.048 
L 58.948344 355.170293 
L 59.392512 354.24 
L 59.67823 334.700439 
L 60.122376 324.465268 
L 60.425928 339.35239 
L 60.870096 354.24 
L 61.171416 332.839366 
L 61.622258 366.336244 
L 62.229384 332.839366 
L 62.651254 336.561024 
L 62.945856 347.726976 
L 63.401206 335.630732 
L 63.706968 360.753024 
L 64.137766 361.683805 
L 64.439064 334.700439 
L 64.758262 349.587561 
L 65.189016 357.961659 
L 65.514888 335.630732 
L 65.950128 339.35239 
L 66.24252 353.309707 
L 66.673274 334.700439 
L 66.96792 345.865902 
L 67.425502 342.143756 
L 67.731286 347.726976 
L 68.168714 352.378927 
L 68.467802 345.865902 
L 68.784746 344.004829 
L 69.19992 355.170293 
L 69.512422 337.491805 
L 69.961032 342.143756 
L 70.255634 357.961659 
L 70.541374 330.978293 
L 71.003398 329.117707 
L 71.427478 335.630732 
L 71.72208 338.422098 
L 72.018936 332.839366 
L 72.45643 330.048 
L 72.777794 350.518341 
L 73.21973 349.587561 
L 73.49431 327.256634 
L 73.95408 351.448634 
L 74.271024 325.395561 
L 74.726374 338.422098 
L 75.02323 327.256634 
L 75.741912 343.074537 
L 76.020912 336.561024 
L 76.491864 339.35239 
L 76.808786 336.561024 
L 77.261904 340.283171 
L 77.54539 366.336244 
L 77.844478 354.24 
L 78.288602 378.432 
L 78.73951 359.822732 
L 79.03188 357.961659 
L 79.32204 333.769659 
L 79.77065 342.143756 
L 80.08092 344.004829 
L 80.527342 344.004829 
L 80.810762 319.812829 
L 81.279459 344.004829 
L 81.580802 373.779561 
L 82.047334 348.657268 
L 82.333008 350.518341 
L 82.616494 335.630732 
L 83.036088 337.491805 
L 83.366446 357.961659 
L 83.803896 358.892439 
L 84.529318 325.395561 
L 85.120754 370.988195 
L 85.602888 323.534488 
L 86.055984 369.12761 
L 86.61847 321.673902 
L 87.060406 355.170293 
L 87.37735 319.812829 
L 87.830446 370.057902 
L 88.093778 338.422098 
L 88.399562 339.35239 
L 88.834802 340.283171 
L 89.138398 343.074537 
L 89.582522 343.074537 
L 89.87719 353.309707 
L 90.330286 331.909073 
L 90.64049 352.378927 
L 91.066802 316.091171 
L 91.383746 354.24 
L 91.803406 331.909073 
L 92.106936 366.336244 
L 92.40377 341.213463 
L 92.852446 351.448634 
L 93.171578 354.24 
L 93.602398 324.465268 
L 93.912602 360.753024 
L 94.64251 319.812829 
L 95.385722 348.657268 
L 95.693738 344.004829 
L 96.113398 369.12761 
L 96.88788 328.186927 
L 97.184714 327.256634 
L 97.588706 356.101073 
L 97.892302 332.839366 
L 98.343144 359.822732 
L 98.642254 356.101073 
L 99.077494 359.822732 
L 99.407786 326.326341 
L 99.691294 313.299805 
L 100.139904 343.074537 
L 100.40549 322.604195 
L 100.858586 332.839366 
L 101.191198 330.048 
L 101.648714 342.143756 
L 101.925459 353.309707 
L 102.211222 335.630732 
L 102.97008 346.796195 
L 103.387486 333.769659 
L 103.691016 344.004829 
L 104.159714 321.673902 
L 104.436459 334.700439 
L 104.889578 342.143756 
L 105.472152 360.753024 
L 105.920762 350.518341 
L 106.248888 319.812829 
L 106.710912 317.951756 
L 106.987658 330.978293 
L 107.427406 326.326341 
L 107.730936 338.422098 
L 108.188541 368.196829 
L 108.463032 369.12761 
L 108.77549 368.196829 
L 109.224144 360.753024 
L 109.516514 347.726976 
L 109.974096 378.432 
L 110.230754 349.587561 
L 110.697286 334.700439 
L 111.000794 374.710341 
L 111.458398 334.700439 
L 111.739586 326.326341 
L 112.179334 357.031366 
L 112.773024 327.256634 
L 113.25065 306.786293 
L 113.489541 338.422098 
L 113.958238 345.865902 
L 114.259514 333.769659 
L 114.694754 337.491805 
L 115.455888 332.839366 
L 115.75049 341.213463 
L 116.214746 336.561024 
L 116.518342 354.24 
L 116.80627 349.587561 
L 117.24151 344.93561 
L 117.542786 353.309707 
L 117.978048 336.561024 
L 118.286064 346.796195 
L 118.712398 333.769659 
L 119.015928 334.700439 
L 119.471278 348.657268 
L 119.774786 345.865902 
L 120.207794 352.378927 
L 120.529246 338.422098 
L 120.82608 345.865902 
L 121.279198 327.256634 
L 121.56043 357.961659 
L 122.026896 339.35239 
L 122.303642 344.93561 
L 122.745578 331.909073 
L 123.033506 341.213463 
L 123.49553 336.561024 
L 123.794618 337.491805 
L 124.252222 356.101073 
L 124.526714 304.925707 
L 124.986506 358.892439 
L 125.283406 330.048 
L 125.732016 363.54439 
L 126.033358 333.769659 
L 126.484222 337.491805 
L 126.75204 355.170293 
L 127.064498 340.283171 
L 127.497506 345.865902 
L 127.812262 321.673902 
L 128.24969 346.796195 
L 128.52869 350.518341 
L 128.85012 343.074537 
L 129.29431 320.74361 
L 129.727318 348.657268 
L 130.048682 314.230098 
L 130.800888 347.726976 
L 131.091048 346.796195 
L 131.378976 357.031366 
L 131.845486 349.587561 
L 132.298538 351.448634 
L 132.56419 317.021463 
L 133.057462 364.475171 
L 133.34539 321.673902 
L 133.798486 329.117707 
L 134.37653 345.865902 
L 134.79619 352.378927 
L 135.119786 332.839366 
L 135.423382 356.101073 
L 135.854136 317.951756 
L 136.296072 331.909073 
L 136.584 336.561024 
L 137.037096 351.448634 
L 137.32277 331.909073 
L 137.784794 341.213463 
L 138.086136 339.35239 
L 138.374064 312.369024 
L 138.813746 327.256634 
L 139.17312 348.657268 
L 139.577112 325.395561 
L 139.858366 300.273268 
L 140.139554 339.35239 
L 140.56812 330.048 
L 141.050254 330.978293 
L 141.340414 346.796195 
L 141.61716 336.561024 
L 142.079206 313.299805 
L 142.373786 364.475171 
L 142.846992 336.561024 
L 143.125992 327.256634 
L 143.572414 331.909073 
L 143.86927 324.465268 
L 144.161618 348.657268 
L 144.612459 330.048 
L 145.041048 348.657268 
L 145.371406 324.465268 
L 145.659334 323.534488 
L 146.083414 349.587561 
L 146.41596 324.465268 
L 146.81551 331.909073 
L 147.116786 362.614098 
L 147.583318 333.769659 
L 147.85781 350.518341 
L 148.185936 350.518341 
L 148.625618 344.004829 
L 148.93812 317.021463 
L 149.35104 352.378927 
L 149.632294 334.700439 
L 150.105478 341.213463 
L 150.411262 327.256634 
L 150.846502 330.048 
L 151.141104 320.74361 
L 151.435706 357.961659 
L 152.174498 360.753024 
L 152.605318 365.405463 
L 152.928936 351.448634 
L 153.368618 327.256634 
L 153.692302 333.769659 
L 153.953446 347.726976 
L 154.256976 325.395561 
L 154.705586 353.309707 
L 155.172096 332.839366 
L 155.91312 345.865902 
L 156.187634 355.170293 
L 156.645238 343.074537 
L 156.93984 328.186927 
L 157.263502 356.101073 
L 157.700952 350.518341 
L 158.00004 351.448634 
L 158.43749 366.336244 
L 158.712048 362.614098 
L 159.205342 339.35239 
L 159.499944 343.074537 
L 159.935206 367.266537 
L 160.238714 350.518341 
L 160.700738 349.587561 
L 160.986478 314.230098 
L 161.267666 372.849268 
L 161.743104 327.256634 
L 162.481896 364.475171 
L 162.754222 321.673902 
L 163.213992 360.753024 
L 163.517522 352.378927 
L 163.95727 352.378927 
L 164.251872 350.518341 
L 164.713896 332.839366 
L 164.997382 331.909073 
L 165.303144 315.16039 
L 165.74508 334.700439 
L 166.086554 323.534488 
L 166.501706 333.769659 
L 166.78296 307.717073 
L 167.539586 362.614098 
L 168.240478 331.909073 
L 168.740446 336.561024 
L 169.450222 358.892439 
L 169.740382 337.491805 
L 170.026056 336.561024 
L 170.479152 353.309707 
L 170.76708 330.048 
L 171.233546 320.74361 
L 171.523706 331.909073 
L 171.967896 362.614098 
L 172.291514 361.683805 
L 172.711152 331.909073 
L 173.025864 341.213463 
L 173.30261 362.614098 
L 173.760214 323.534488 
L 174.04812 329.117707 
L 174.490056 310.508439 
L 174.811486 344.004829 
L 175.275698 335.630732 
L 175.570366 316.091171 
L 176.30023 337.491805 
L 176.603738 348.657268 
L 177.052414 336.561024 
L 177.311326 347.726976 
L 177.782278 341.213463 
L 178.08804 352.378927 
L 178.35588 340.283171 
L 178.824578 306.786293 
L 179.134848 338.422098 
L 179.570088 348.657268 
L 179.887032 353.309707 
L 180.346802 343.074537 
L 180.619128 355.170293 
L 181.061064 366.336244 
L 181.348992 335.630732 
L 181.819944 359.822732 
L 182.10343 337.491805 
L 182.38243 334.700439 
L 182.839968 357.031366 
L 183.143498 338.422098 
L 183.592152 344.004829 
L 183.862246 337.491805 
L 184.621104 302.134341 
L 185.047438 361.683805 
L 185.34204 344.93561 
L 185.799578 349.587561 
L 186.103152 359.822732 
L 186.377666 330.978293 
L 187.145541 350.518341 
L 187.580714 328.186927 
L 187.890984 334.700439 
L 188.335152 340.283171 
L 188.62308 329.117707 
L 189.069502 331.909073 
L 189.39312 334.700439 
L 189.67212 321.673902 
L 190.118498 342.143756 
L 190.424326 346.796195 
L 190.88635 321.673902 
L 191.156422 364.475171 
L 191.901888 299.342488 
L 192.357238 342.143756 
L 192.658514 308.647366 
L 192.944254 363.54439 
L 193.39061 357.031366 
L 193.694206 317.021463 
L 194.14949 348.657268 
L 194.437462 355.170293 
L 194.912856 330.048 
L 195.475342 359.822732 
L 195.894936 305.856 
L 196.656048 333.769659 
L 197.414928 315.16039 
L 197.714016 329.117707 
L 198.153698 303.064634 
L 198.448366 362.614098 
L 198.894722 337.491805 
L 199.204992 329.117707 
L 199.490666 343.074537 
L 199.921486 319.812829 
L 200.22053 353.309707 
L 200.709382 345.865902 
L 201.006238 331.909073 
L 201.428064 364.475171 
L 201.711506 335.630732 
L 202.162414 322.604195 
L 202.477104 345.865902 
L 202.782888 346.796195 
L 203.23373 318.882537 
L 203.499382 338.422098 
L 203.95692 360.753024 
L 204.27835 349.587561 
L 204.718032 340.283171 
L 205.019374 320.74361 
L 205.470238 359.822732 
L 206.061674 323.534488 
L 206.519278 325.395561 
L 206.822786 332.839366 
L 207.258048 359.822732 
L 207.566064 359.822732 
L 208.008 324.465268 
L 208.29816 353.309707 
L 208.757952 354.24 
L 209.048112 325.395561 
L 209.347222 346.796195 
L 209.771302 356.101073 
L 210.112754 343.074537 
L 210.545762 303.994927 
L 210.847104 347.726976 
L 211.284554 353.309707 
L 211.59931 365.405463 
L 212.043478 324.465268 
L 212.33808 330.048 
L 212.76216 346.796195 
L 213.059016 330.048 
L 213.35143 342.143756 
L 213.791112 343.074537 
L 214.094642 330.978293 
L 214.565594 327.256634 
L 214.84908 313.299805 
L 215.277602 341.213463 
L 215.58343 330.978293 
L 216.040968 344.004829 
L 216.322222 329.117707 
L 216.616802 336.561024 
L 217.052064 334.700439 
L 217.366754 323.534488 
L 217.822104 338.422098 
L 218.114541 303.994927 
L 218.551968 335.630732 
L 218.85773 321.673902 
L 219.295246 325.395561 
L 219.598754 309.577659 
L 220.049618 342.143756 
L 220.359888 321.673902 
L 220.627706 349.587561 
L 221.080802 315.16039 
L 221.38884 316.091171 
L 221.821848 341.213463 
L 222.143278 347.726976 
L 222.576286 311.438732 
L 222.911064 334.700439 
L 223.312802 345.865902 
L 223.647602 345.865902 
L 223.919928 340.283171 
L 224.667626 308.647366 
L 225.158666 330.978293 
L 225.40423 330.048 
L 225.830498 312.369024 
L 226.134072 331.909073 
L 226.422 320.74361 
L 226.868422 340.283171 
L 227.187554 314.230098 
L 227.928578 352.378927 
L 228.388414 310.508439 
L 228.667414 346.796195 
L 229.107096 313.299805 
L 229.406206 311.438732 
L 229.714222 351.448634 
L 230.153904 349.587561 
L 230.43065 341.213463 
L 230.908342 346.796195 
L 231.191762 332.839366 
L 231.647112 334.700439 
L 232.106904 331.909073 
L 232.370302 349.587561 
L 232.676064 356.101073 
L 233.144762 332.839366 
L 233.437198 347.726976 
L 233.725104 355.170293 
L 234.151438 350.518341 
L 234.461642 357.961659 
L 234.930406 325.395561 
L 235.187064 327.256634 
L 235.689286 333.769659 
L 236.111112 337.491805 
L 236.39904 320.74361 
L 236.695896 335.630732 
L 237.001658 311.438732 
L 237.698064 361.683805 
L 238.200286 346.796195 
L 238.49712 329.117707 
L 238.95247 309.577659 
L 239.26716 346.796195 
L 239.691262 335.630732 
L 239.974682 336.561024 
L 240.434541 339.35239 
L 240.74923 306.786293 
L 241.048318 372.849268 
L 241.492486 339.35239 
L 241.789342 350.518341 
L 242.231278 346.796195 
L 242.499096 345.865902 
L 242.972302 317.951756 
L 243.27581 317.951756 
L 243.715514 347.726976 
L 244.005674 317.951756 
L 244.293602 345.865902 
L 244.751206 366.336244 
L 245.054714 339.35239 
L 245.478794 337.491805 
L 245.791318 344.004829 
L 246.226514 341.213463 
L 246.54127 340.283171 
L 246.98988 322.604195 
L 247.271112 336.561024 
L 247.55904 326.326341 
L 247.992048 358.892439 
L 248.302318 303.994927 
L 248.744254 328.186927 
L 249.043342 370.988195 
L 249.509786 370.057902 
L 249.802222 335.630732 
L 250.237462 347.726976 
L 250.545478 333.769659 
L 250.851262 351.448634 
L 251.29543 339.35239 
L 251.59896 344.93561 
L 252.043128 341.213463 
L 252.32657 352.378927 
L 252.777478 342.143756 
L 253.067594 350.518341 
L 253.538546 330.978293 
L 253.83096 335.630732 
L 254.127794 344.93561 
L 254.585398 331.909073 
L 255.038494 346.796195 
L 255.321936 346.796195 
L 255.621024 334.700439 
L 256.056286 349.587561 
L 256.362048 330.978293 
L 256.65665 320.74361 
L 257.08073 330.048 
L 257.384326 361.683805 
L 257.853024 355.170293 
L 258.145438 313.299805 
L 258.591794 328.186927 
L 258.881976 314.230098 
L 259.185506 330.978293 
L 259.614072 335.630732 
L 259.946618 348.657268 
L 260.375206 330.978293 
L 260.64751 337.491805 
L 261.102794 352.378927 
L 261.408578 336.561024 
L 261.832658 344.93561 
L 262.14516 332.839366 
L 262.421928 356.101073 
L 262.89288 337.491805 
L 263.18304 331.909073 
L 263.616048 334.700439 
L 263.935246 333.769659 
L 264.368254 307.717073 
L 264.660602 356.101073 
L 265.118206 339.35239 
L 265.417294 321.673902 
L 265.872578 319.812829 
L 266.14939 321.673902 
L 266.441738 331.909073 
L 266.879254 338.422098 
L 267.218541 322.604195 
L 267.658222 333.769659 
L 267.943896 322.604195 
L 268.376904 318.882537 
L 268.702754 313.299805 
L 269.122414 328.186927 
L 269.41927 332.839366 
L 269.70269 329.117707 
L 270.171454 339.35239 
L 270.454896 349.587561 
L 270.878976 331.909073 
L 271.204848 326.326341 
L 271.657944 344.93561 
L 271.950358 324.465268 
L 272.387786 336.561024 
L 272.675714 351.448634 
L 272.98373 331.909073 
L 273.452494 333.769659 
L 273.711406 313.299805 
L 274.010494 341.213463 
L 274.47696 316.091171 
L 274.916642 341.213463 
L 275.22247 338.422098 
L 275.521514 366.336244 
L 275.990278 317.951756 
L 276.287112 339.35239 
L 276.706706 311.438732 
L 277.025904 344.004829 
L 277.329478 337.491805 
L 277.751326 339.35239 
L 278.06153 356.101073 
L 278.514626 336.561024 
L 278.804786 349.587561 
L 279.257904 303.994927 
L 279.561478 341.213463 
L 279.994486 317.021463 
L 280.284602 331.909073 
L 280.59043 317.021463 
L 281.041294 338.422098 
L 281.338128 332.839366 
L 281.780064 335.630732 
L 282.059064 330.048 
L 282.538944 344.004829 
L 282.81569 303.994927 
L 283.268786 330.048 
L 283.563454 326.326341 
L 283.855802 335.630732 
L 284.322334 335.630732 
L 284.603522 331.909073 
L 285.056618 341.213463 
L 285.340104 330.048 
L 285.759698 322.604195 
L 286.076642 333.769659 
L 286.511904 341.213463 
L 286.824406 336.561024 
L 287.261856 337.491805 
L 287.578778 349.587561 
L 287.90023 300.273268 
L 288.32431 349.587561 
L 288.62784 356.101073 
L 289.067522 348.657268 
L 289.359936 337.491805 
L 289.813032 324.465268 
L 290.11212 342.143756 
L 290.540642 312.369024 
L 290.83973 318.882537 
L 291.116498 347.726976 
L 291.571848 337.491805 
L 291.94457 335.630732 
L 292.310618 308.647366 
L 292.591872 337.491805 
L 293.06731 319.812829 
L 293.355238 340.283171 
L 293.79492 336.561024 
L 294.096262 338.422098 
L 294.39977 352.378927 
L 294.837286 327.256634 
L 295.136374 344.004829 
L 295.57831 337.491805 
L 295.890746 323.534488 
L 296.33719 326.326341 
L 296.63851 335.630732 
L 297.053618 331.909073 
L 297.357214 341.213463 
L 297.805802 334.700439 
L 298.120514 350.518341 
L 298.388398 339.35239 
L 298.850422 311.438732 
L 299.14951 305.856 
L 299.604794 346.796195 
L 299.910578 301.203561 
L 300.343586 338.422098 
L 300.636 346.796195 
L 301.098024 324.465268 
L 301.379278 362.614098 
L 301.687294 338.422098 
L 302.149318 336.561024 
L 302.439478 329.117707 
L 302.894762 304.925707 
L 303.247462 317.021463 
L 303.470618 344.004829 
L 303.934896 337.491805 
L 304.394666 322.604195 
L 304.67592 340.283171 
L 304.963848 333.769659 
L 305.401342 330.048 
L 305.825422 337.491805 
L 306.146786 322.604195 
L 306.439222 322.604195 
L 306.894506 329.117707 
L 307.19808 367.266537 
L 307.49719 317.021463 
L 307.939104 328.186927 
L 308.253794 325.395561 
L 308.671222 352.378927 
L 308.985912 357.961659 
L 309.718008 327.256634 
L 309.997008 364.475171 
L 310.452358 348.657268 
L 310.735778 346.796195 
L 311.19557 318.882537 
L 311.503586 342.143756 
L 311.94108 346.796195 
L 312.25577 346.796195 
L 312.72449 348.657268 
L 313.28923 321.673902 
L 313.726658 351.448634 
L 314.05927 335.630732 
L 314.474422 323.534488 
L 314.78688 330.048 
L 315.239976 330.048 
L 315.52123 335.630732 
L 315.987674 312.369024 
L 316.280088 362.614098 
L 316.722024 321.673902 
L 317.009952 351.448634 
L 317.313459 358.892439 
L 317.748722 323.534488 
L 318.04781 328.186927 
L 318.496486 326.326341 
L 318.831286 367.266537 
L 319.257554 353.309707 
L 319.527626 322.604195 
L 319.97849 307.717073 
L 320.295478 334.700439 
L 320.583406 349.587561 
L 321.01416 332.839366 
L 321.31327 342.143756 
L 321.764112 339.35239 
L 322.067642 324.465268 
L 322.505136 297.481902 
L 322.813152 326.326341 
L 323.540762 331.909073 
L 323.844358 333.769659 
L 324.297454 329.117707 
L 324.609912 340.283171 
L 325.047406 338.422098 
L 325.339754 336.561024 
L 325.797358 314.230098 
L 326.085286 313.299805 
L 326.536128 365.405463 
L 327.283848 336.561024 
L 327.556152 282.594293 
L 327.986928 326.326341 
L 328.306104 320.74361 
L 328.752459 324.465268 
L 329.031459 330.048 
L 329.332802 314.230098 
L 329.810494 333.769659 
L 330.087262 351.448634 
L 330.857302 331.909073 
L 331.281382 342.143756 
L 331.602746 345.865902 
L 332.352698 317.951756 
L 332.79912 336.561024 
L 333.07812 328.186927 
L 333.38165 344.004829 
L 334.142762 348.657268 
L 334.602554 344.004829 
L 334.86151 309.577659 
L 335.33465 317.951756 
L 335.627064 342.143756 
L 336.08016 314.230098 
L 336.361414 326.326341 
L 336.647088 329.117707 
L 337.11804 302.134341 
L 337.843462 331.909073 
L 338.153666 305.856 
L 338.879088 333.769659 
L 339.182618 303.064634 
L 339.62904 318.882537 
L 340.07765 341.213463 
L 340.669152 309.577659 
L 341.131198 330.978293 
L 341.41243 330.048 
L 341.856554 350.518341 
L 342.180238 350.518341 
L 342.602064 340.283171 
L 342.903406 344.004829 
L 343.349762 358.892439 
L 343.653358 314.230098 
L 343.941286 320.74361 
L 344.40331 340.283171 
L 344.657714 337.491805 
L 345.133152 321.673902 
L 345.432262 346.796195 
L 345.889778 349.587561 
L 346.197794 344.004829 
L 346.63973 328.186927 
L 346.943326 324.465268 
L 347.220072 342.143756 
L 347.675422 314.230098 
L 347.98788 329.117707 
L 348.409706 321.673902 
L 348.72223 347.726976 
L 349.141802 305.856 
L 349.454326 329.117707 
L 349.88508 339.35239 
L 350.18861 322.604195 
L 350.494438 335.630732 
L 350.956462 337.491805 
L 351.242136 337.491805 
L 351.686326 336.561024 
L 352.001016 325.395561 
L 352.454112 350.518341 
L 352.748714 322.604195 
L 353.20181 343.074537 
L 353.489738 329.117707 
L 353.942856 348.657268 
L 354.221856 332.839366 
L 354.51869 353.309707 
L 354.965112 336.561024 
L 355.268642 315.16039 
L 355.703904 306.786293 
L 355.996318 339.35239 
L 356.444928 345.865902 
L 356.752944 340.283171 
L 357.054286 341.213463 
L 357.480554 326.326341 
L 357.808658 324.465268 
L 358.250594 333.769659 
L 358.543008 332.839366 
L 358.984944 341.213463 
L 359.74831 316.091171 
L 360.12996 319.812829 
L 360.324144 352.378927 
L 360.779494 333.769659 
L 361.08077 302.134341 
L 361.817374 318.882537 
L 362.26373 330.978293 
L 362.54273 358.892439 
L 363.011494 345.865902 
L 363.294936 317.021463 
L 363.761446 348.657268 
L 364.03596 308.647366 
L 364.348462 319.812829 
L 364.810486 324.465268 
L 365.105088 333.769659 
L 365.547024 353.309707 
L 365.848366 332.839366 
L 366.296976 330.048 
L 366.573722 306.786293 
L 367.042486 333.769659 
L 367.34827 312.369024 
L 367.633944 338.422098 
L 368.064698 320.74361 
L 368.807976 340.283171 
L 369.115992 337.491805 
L 369.562414 328.186927 
L 369.872618 328.186927 
L 370.30788 330.048 
L 370.64047 330.048 
L 371.055578 338.422098 
L 371.363594 310.508439 
L 371.656008 322.604195 
L 372.097944 350.518341 
L 372.401541 326.326341 
L 372.852382 333.769659 
L 373.15147 318.882537 
L 373.62461 344.004829 
L 373.892494 319.812829 
L 374.33443 330.048 
L 374.64912 361.683805 
L 375.088802 328.186927 
L 375.394586 334.700439 
L 375.678072 332.839366 
L 376.120008 310.508439 
L 376.407936 351.448634 
L 376.86996 311.438732 
L 377.157888 326.326341 
L 377.613238 335.630732 
L 377.898912 310.508439 
L 378.345334 335.630732 
L 378.637682 326.326341 
L 378.954626 331.909073 
L 379.403302 310.508439 
L 379.682302 316.091171 
L 380.130912 316.091171 
L 380.414398 346.796195 
L 380.876422 335.630732 
L 381.17551 345.865902 
L 381.62412 346.796195 
L 381.912048 320.74361 
L 382.331642 319.812829 
L 382.662 330.048 
L 382.96553 359.822732 
L 383.376262 327.256634 
L 383.69988 333.769659 
L 384.137374 326.326341 
L 384.440904 341.213463 
L 384.945358 318.882537 
L 385.190856 336.561024 
L 385.62161 318.882537 
L 385.920698 345.865902 
L 386.217554 315.16039 
L 386.65949 344.004829 
L 386.96081 339.35239 
L 387.384912 326.326341 
L 387.721944 349.587561 
L 388.188454 349.587561 
L 389.295459 326.326341 
L 389.295459 326.326341 
" clip-path="url(#pb0cb334882)" style="fill: none; stroke: #969696; stroke-width: 1.5; stroke-linecap: square"/>
   </g>
   <g id="line2d_35">
    <path d="M 54.189742 348.657268 
L 54.439726 322.604195 
L 54.921794 323.534488 
L 55.218694 320.74361 
L 55.660608 340.283171 
L 55.966392 323.534488 
L 56.392726 340.283171 
L 56.694024 341.213463 
L 57.144888 309.577659 
L 57.443976 277.011561 
L 57.885912 323.534488 
L 58.171608 316.091171 
L 58.903726 331.909073 
L 59.238504 325.395561 
L 59.6916 304.925707 
L 59.977274 333.769659 
L 60.417 346.796195 
L 60.70716 346.796195 
L 61.164742 330.048 
L 61.46825 331.909073 
L 61.91244 313.299805 
L 62.211528 347.726976 
L 62.646746 280.733707 
L 62.957016 303.064634 
L 63.256104 343.074537 
L 63.680206 314.230098 
L 64.135512 307.717073 
L 64.74708 329.117707 
L 65.184552 307.717073 
L 65.490314 328.186927 
L 65.91888 332.839366 
L 66.235802 330.978293 
L 66.66881 302.134341 
L 66.992472 317.021463 
L 67.271472 309.577659 
L 67.711198 350.518341 
L 68.032562 332.839366 
L 68.474498 300.273268 
L 68.773586 323.534488 
L 69.213334 309.577659 
L 69.501262 315.16039 
L 69.961032 329.117707 
L 70.251214 307.717073 
L 70.677459 331.909073 
L 71.293514 305.856 
L 71.726522 305.856 
L 72.48096 328.186927 
L 72.78449 310.508439 
L 73.224238 302.134341 
L 73.516586 334.700439 
L 73.969682 325.395561 
L 74.237522 311.438732 
L 74.556698 317.951756 
L 74.998634 304.925707 
L 75.286562 331.909073 
L 75.724056 320.74361 
L 76.181594 292.829463 
L 76.491864 314.230098 
L 76.759682 347.726976 
L 77.226214 316.091171 
L 77.536462 329.117707 
L 77.980586 314.230098 
L 78.413594 332.839366 
L 78.71719 313.299805 
L 79.027438 313.299805 
L 79.478302 331.909073 
L 79.752794 332.839366 
L 80.18357 330.048 
L 80.475984 313.299805 
L 80.906738 337.491805 
L 81.221494 316.091171 
L 81.681286 326.326341 
L 81.975888 339.35239 
L 82.283904 278.872634 
L 82.696802 330.978293 
L 83.04053 308.647366 
L 83.473538 293.759756 
L 83.908778 317.951756 
L 84.221302 291.899171 
L 84.634222 319.812829 
L 84.964514 330.048 
L 85.245746 300.273268 
L 85.69661 331.909073 
L 85.98235 317.021463 
L 86.43096 323.534488 
L 86.87957 321.673902 
L 87.17647 296.551122 
L 87.484486 342.143756 
L 87.917494 303.064634 
L 88.209864 317.021463 
L 88.68749 302.134341 
L 88.970976 303.064634 
L 89.42184 321.673902 
L 89.729856 321.673902 
L 90.16061 326.326341 
L 90.939578 306.786293 
L 91.214136 339.35239 
L 91.508738 291.899171 
L 91.964088 332.839366 
L 92.426112 333.769659 
L 92.707366 302.134341 
L 93.45281 329.117707 
L 93.738506 281.664 
L 94.173746 316.091171 
L 94.63577 310.508439 
L 95.35896 331.909073 
L 95.972738 286.316439 
L 96.437016 317.021463 
L 96.736104 310.508439 
L 97.171366 307.717073 
L 97.45704 289.107805 
L 97.903462 307.717073 
L 98.211478 326.326341 
L 98.68243 310.508439 
L 98.972546 313.299805 
L 99.41004 308.647366 
L 99.709128 348.657268 
L 99.983642 303.994927 
L 100.418904 325.395561 
L 100.75819 322.604195 
L 101.188944 308.647366 
L 101.488032 316.091171 
L 101.943382 303.064634 
L 102.233498 301.203561 
L 102.700008 325.395561 
L 102.999096 305.856 
L 103.278096 306.786293 
L 103.733446 310.508439 
L 104.155294 308.647366 
L 104.46773 344.004829 
L 104.918594 302.134341 
L 105.213262 319.812829 
L 105.510096 353.309707 
L 106.273462 315.16039 
L 106.710912 310.508439 
L 107.014486 308.647366 
L 107.451936 296.551122 
L 107.78004 317.951756 
L 108.181778 321.673902 
L 108.50765 313.299805 
L 108.942912 330.048 
L 109.255414 314.230098 
L 109.683936 321.673902 
L 110.00088 341.213463 
L 110.43612 303.064634 
L 110.744136 328.186927 
L 111.49853 313.299805 
L 111.77753 326.326341 
L 112.221698 341.213463 
L 112.520786 309.577659 
L 112.98281 306.786293 
L 113.286406 300.273268 
L 113.71716 314.230098 
L 114.011762 336.561024 
L 114.469366 338.422098 
L 114.763968 317.021463 
L 115.201462 298.412195 
L 115.500506 298.412195 
L 115.935746 324.465268 
L 116.217 317.021463 
L 116.53169 317.021463 
L 116.973626 308.647366 
L 117.315144 331.909073 
L 117.741478 284.455366 
L 118.022666 327.256634 
L 118.469088 315.16039 
L 118.750342 300.273268 
L 119.203438 351.448634 
L 119.52257 298.412195 
L 119.799382 316.091171 
L 120.250246 332.839366 
L 120.524738 298.412195 
L 120.98453 324.465268 
L 121.294778 298.412195 
L 121.741222 308.647366 
L 122.006786 298.412195 
L 122.475506 303.064634 
L 122.772406 299.342488 
L 123.205414 324.465268 
L 123.522358 332.839366 
L 123.814706 319.812829 
L 124.261128 314.230098 
L 124.542382 307.717073 
L 125.002152 291.899171 
L 125.296754 320.74361 
L 125.732016 315.16039 
L 126.040032 316.091171 
L 126.490896 332.839366 
L 126.796658 322.604195 
L 127.064498 286.316439 
L 127.548864 325.395561 
L 127.823422 301.203561 
L 128.28096 299.342488 
L 128.564446 290.038098 
L 129.028658 311.438732 
L 129.327746 303.064634 
L 129.769682 299.342488 
L 130.046494 312.369024 
L 130.490618 304.925707 
L 130.812048 318.882537 
L 131.108904 317.021463 
L 131.557514 316.091171 
L 131.841 304.925707 
L 132.28519 307.717073 
L 132.582024 313.299805 
L 133.010546 310.508439 
L 133.316374 307.717073 
L 133.747128 299.342488 
L 134.200246 318.882537 
L 134.488152 324.465268 
L 134.79619 305.856 
L 135.226944 313.299805 
L 135.555048 327.256634 
L 135.985802 318.882537 
L 136.425506 294.690537 
L 136.755864 319.812829 
L 137.017008 313.299805 
L 137.485706 308.647366 
L 137.769214 291.899171 
L 138.162024 323.534488 
L 138.490128 294.690537 
L 138.956594 290.96839 
L 139.253494 298.412195 
L 139.715541 319.812829 
L 139.987778 290.96839 
L 140.291374 308.647366 
L 140.74447 317.021463 
L 141.034586 314.230098 
L 141.483262 301.203561 
L 141.78235 317.951756 
L 142.233214 300.273268 
L 142.538976 307.717073 
L 143.266586 313.299805 
L 143.713008 283.525073 
L 144.30451 344.93561 
L 144.735286 312.369024 
L 145.029888 313.299805 
L 145.485238 356.101073 
L 145.940522 317.021463 
L 146.24635 336.561024 
L 146.52535 322.604195 
L 146.99849 345.865902 
L 147.273048 319.812829 
L 147.714984 322.604195 
L 148.03416 304.925707 
L 148.47835 327.256634 
L 148.797459 309.577659 
L 149.20596 304.925707 
L 149.507302 328.186927 
L 149.79965 303.994927 
L 150.239398 343.074537 
L 150.554088 285.385659 
L 151.002698 302.134341 
L 151.30404 319.812829 
L 151.74823 324.465268 
L 152.053992 278.872634 
L 152.473586 303.064634 
L 152.786088 296.551122 
L 153.502538 327.256634 
L 153.951214 314.230098 
L 154.254722 320.74361 
L 154.569478 317.951756 
L 154.995746 319.812829 
L 155.45335 292.829463 
L 155.745698 317.021463 
L 156.033626 315.16039 
L 156.468888 335.630732 
L 157.252342 314.230098 
L 157.700952 303.994927 
L 158.00004 322.604195 
L 158.417446 324.465268 
L 158.743318 319.812829 
L 159.015578 292.829463 
L 159.47316 316.091171 
L 160.20077 300.273268 
L 160.65612 319.812829 
L 160.919541 313.299805 
L 161.254318 311.438732 
L 161.694 297.481902 
L 162.16051 312.369024 
L 162.435024 312.369024 
L 162.870286 318.882537 
L 163.196136 326.326341 
L 163.492992 320.74361 
L 163.943856 304.925707 
L 164.24069 320.74361 
L 164.662538 302.134341 
L 164.979459 333.769659 
L 165.280802 303.994927 
L 165.70265 302.134341 
L 166.153514 296.551122 
L 166.439254 328.186927 
L 166.89235 322.604195 
L 167.186952 269.567756 
L 167.64449 307.717073 
L 167.943578 353.309707 
L 168.392254 319.812829 
L 168.65784 320.74361 
L 169.122096 326.326341 
L 169.416698 319.812829 
L 169.715786 305.856 
L 170.182318 321.673902 
L 170.537206 324.465268 
L 170.753666 317.021463 
L 171.21569 296.551122 
L 171.666554 333.769659 
L 172.412064 316.091171 
L 172.70892 319.812829 
L 173.141928 330.048 
L 173.44327 307.717073 
L 173.909714 329.117707 
L 174.21331 270.498537 
L 174.949848 330.048 
L 175.25119 343.074537 
L 175.681944 328.186927 
L 175.95869 302.134341 
L 176.422968 330.048 
L 176.708642 324.465268 
L 177.177406 307.717073 
L 177.764422 330.978293 
L 178.242048 294.690537 
L 178.51212 336.561024 
L 178.951802 314.230098 
L 179.250912 316.091171 
L 179.68392 320.74361 
L 179.99419 333.769659 
L 180.445032 302.134341 
L 180.710618 319.812829 
L 181.148112 333.769659 
L 181.462802 316.091171 
L 181.788674 344.004829 
L 182.210522 313.299805 
L 182.518538 336.561024 
L 183.25512 300.273268 
L 183.717144 328.186927 
L 184.034088 307.717073 
L 184.491626 291.899171 
L 184.781786 319.812829 
L 185.056366 301.203561 
L 185.951398 292.829463 
L 186.286198 301.203561 
L 186.69461 305.856 
L 186.998206 327.256634 
L 187.73923 293.759756 
L 188.040506 303.994927 
L 188.495856 311.438732 
L 188.928864 337.491805 
L 189.241366 295.620829 
L 189.535968 303.994927 
L 190.256904 333.769659 
L 190.687658 324.465268 
L 191.022502 295.620829 
L 191.46888 330.048 
L 191.765714 317.021463 
L 192.185374 306.786293 
L 192.49781 317.951756 
L 192.924144 328.186927 
L 193.243342 288.177024 
L 193.53127 319.812829 
L 193.999968 309.577659 
L 194.30573 309.577659 
L 194.732064 311.438732 
L 195.073538 315.16039 
L 195.493198 301.203561 
L 195.785546 316.091171 
L 196.53773 306.786293 
L 196.984152 315.16039 
L 197.30335 307.717073 
L 197.591278 317.951756 
L 198.008618 321.673902 
L 198.448366 295.620829 
L 199.073326 331.909073 
L 199.515262 324.465268 
L 199.80319 333.769659 
L 200.225016 320.74361 
L 200.698222 331.909073 
L 200.995056 325.395561 
L 201.312 297.481902 
L 201.740522 332.839366 
L 202.044096 317.021463 
L 202.486032 300.273268 
L 202.760546 297.481902 
L 203.075302 313.299805 
L 203.539514 297.481902 
L 203.829674 298.412195 
L 204.260494 320.74361 
L 204.700198 302.134341 
L 205.010446 327.256634 
L 205.32065 341.213463 
L 205.755912 330.048 
L 206.034912 316.091171 
L 206.517024 313.299805 
L 206.945546 314.230098 
L 207.217872 310.508439 
L 207.539302 295.620829 
L 207.99684 330.048 
L 208.284746 299.342488 
L 208.713334 330.048 
L 209.179778 327.256634 
L 209.465541 305.856 
L 209.800318 323.534488 
L 210.22884 277.941854 
L 210.512326 311.438732 
L 210.94308 283.525073 
L 211.251096 319.812829 
L 211.681872 323.534488 
L 212.44073 296.551122 
L 212.746514 353.309707 
L 213.177334 291.899171 
L 213.465262 310.508439 
L 213.922778 318.882537 
L 214.21296 299.342488 
L 214.648222 308.647366 
L 214.960658 333.769659 
L 215.418262 305.856 
L 215.697262 344.93561 
L 216.018626 330.048 
L 216.429358 289.107805 
L 216.75523 325.395561 
L 217.194912 315.16039 
L 217.511856 323.534488 
L 218.25288 333.769659 
L 218.70149 311.438732 
L 219.011738 334.700439 
L 219.721514 313.299805 
L 220.04069 317.021463 
L 220.48488 319.812829 
L 220.804056 310.508439 
L 221.103144 315.16039 
L 221.53392 303.994927 
L 221.98253 333.769659 
L 222.259342 320.74361 
L 222.719112 343.074537 
L 223.029382 334.700439 
L 223.319498 311.438732 
L 223.768152 321.673902 
L 224.21453 317.951756 
L 224.489088 333.769659 
L 224.812706 309.577659 
L 225.26357 293.759756 
L 225.571586 316.091171 
L 225.993478 310.508439 
L 226.28808 308.647366 
L 226.584936 343.074537 
L 227.044706 302.134341 
L 227.493382 306.786293 
L 228.223246 300.273268 
L 228.524522 330.978293 
L 228.794594 337.491805 
L 229.252198 313.299805 
L 229.544546 323.534488 
L 230.011056 318.882537 
L 230.305658 321.673902 
L 230.731992 320.74361 
L 231.035522 324.465268 
L 231.502032 303.064634 
L 231.781032 296.551122 
L 232.075634 316.091171 
L 232.52873 324.465268 
L 232.80331 289.107805 
L 233.289864 317.021463 
L 233.595626 291.899171 
L 234.33665 341.213463 
L 234.76747 312.369024 
L 235.066514 321.673902 
L 235.53077 304.925707 
L 235.79861 303.994927 
L 236.102206 308.647366 
L 236.566462 306.786293 
L 236.972642 316.091171 
L 237.280658 300.273268 
L 237.74719 331.909073 
L 238.04177 308.647366 
L 238.798462 339.35239 
L 239.08639 305.856 
L 239.532746 287.246732 
L 239.827414 298.412195 
L 240.291626 330.048 
L 241.054992 291.899171 
L 241.472398 316.091171 
L 241.77816 309.577659 
L 242.052674 309.577659 
L 242.510278 300.273268 
L 242.795952 307.717073 
L 243.25349 283.525073 
L 243.552578 303.064634 
L 244.01016 322.604195 
L 244.295856 281.664 
L 244.728864 317.021463 
L 245.030206 328.186927 
L 245.344896 328.186927 
L 245.809152 301.203561 
L 246.09708 319.812829 
L 246.543502 334.700439 
L 247.277786 301.203561 
L 247.579128 317.021463 
L 248.01439 296.551122 
L 248.302318 302.134341 
L 248.762088 317.951756 
L 249.03216 310.508439 
L 249.489698 287.246732 
L 249.77988 293.759756 
L 250.210634 300.273268 
L 250.496374 322.604195 
L 250.813318 308.647366 
L 251.246326 302.134341 
L 251.703864 334.700439 
L 252.295366 297.481902 
L 252.752904 313.299805 
L 253.045318 311.438732 
L 253.498414 313.299805 
L 253.79527 290.038098 
L 254.542968 317.021463 
L 254.980462 322.604195 
L 255.286246 296.551122 
L 255.567478 284.455366 
L 256.466952 336.561024 
L 256.768294 304.925707 
L 257.216904 289.107805 
L 257.806152 326.326341 
L 258.250342 304.925707 
L 258.705626 310.508439 
L 259.020382 295.620829 
L 259.299382 310.508439 
L 259.741318 298.412195 
L 260.049334 279.802927 
L 260.783618 345.865902 
L 261.087214 280.733707 
L 261.517968 286.316439 
L 261.971064 330.978293 
L 262.261246 307.717073 
L 262.567008 306.786293 
L 263.026778 280.733707 
L 263.321446 317.951756 
L 263.77231 298.412195 
L 264.060238 345.865902 
L 264.488738 329.117707 
L 264.81461 304.925707 
L 265.229762 296.551122 
L 265.546706 311.438732 
L 265.990896 286.316439 
L 266.265454 316.091171 
L 266.589072 317.021463 
L 267.019848 290.96839 
L 267.32561 312.369024 
L 267.778706 313.299805 
L 268.218454 299.342488 
L 268.499642 295.620829 
L 268.816586 325.395561 
L 269.25408 321.673902 
L 269.55761 290.038098 
L 270.294214 316.091171 
L 270.611136 300.273268 
L 271.07316 305.856 
L 271.497262 324.465268 
L 271.780682 308.647366 
L 272.240541 314.230098 
L 272.854318 301.203561 
L 273.280586 314.230098 
L 273.586414 303.994927 
L 274.03277 326.326341 
L 274.322952 281.664 
L 274.75596 308.647366 
L 275.075136 283.525073 
L 275.510398 325.395561 
L 275.807254 325.395561 
L 276.133104 300.273268 
L 276.53261 329.117707 
L 276.87857 290.038098 
L 277.31381 278.872634 
L 277.766928 308.647366 
L 278.032514 270.498537 
L 278.35169 299.342488 
L 278.83831 302.134341 
L 279.08604 319.812829 
L 279.53465 315.16039 
L 279.983326 307.717073 
L 280.273486 321.673902 
L 280.722096 319.812829 
L 281.041294 303.064634 
L 281.304626 301.203561 
L 281.771136 307.717073 
L 282.079152 285.385659 
L 282.51216 334.700439 
L 282.82243 295.620829 
L 283.242024 265.846098 
L 283.547786 306.786293 
L 284.014318 303.064634 
L 284.279904 309.577659 
L 285.038762 291.899171 
L 285.480698 295.620829 
L 285.799896 325.395561 
L 286.24181 301.203561 
L 286.527506 306.786293 
L 286.81992 309.577659 
L 287.250674 299.342488 
L 287.576546 315.16039 
L 288.043056 295.620829 
L 288.339912 305.856 
L 288.743904 304.925707 
L 289.065334 344.93561 
L 289.792944 306.786293 
L 290.257222 302.134341 
L 290.850912 323.534488 
L 291.279478 295.620829 
L 292.007088 317.951756 
L 292.480294 327.256634 
L 292.750366 298.412195 
L 293.03604 297.481902 
L 293.48023 333.769659 
L 293.95116 294.690537 
L 294.241342 289.107805 
L 294.531502 318.882537 
L 294.982366 298.412195 
L 295.30373 291.899171 
L 295.734506 329.117707 
L 296.03808 291.899171 
L 296.47553 321.673902 
L 296.794706 319.812829 
L 297.069286 330.048 
L 297.54247 320.74361 
L 297.846 306.786293 
L 298.296864 296.551122 
L 298.58035 280.733707 
L 299.02896 314.230098 
L 299.314634 313.299805 
L 299.76773 308.647366 
L 300.075746 288.177024 
L 300.488666 295.620829 
L 300.803422 290.038098 
L 301.256541 287.246732 
L 301.57123 317.951756 
L 301.99973 303.064634 
L 302.305514 312.369024 
L 302.713992 282.594293 
L 303.030936 276.081268 
L 304.079976 317.021463 
L 304.51747 300.273268 
L 304.80984 320.74361 
L 305.238406 311.438732 
L 305.528522 300.273268 
L 305.999541 301.203561 
L 306.31423 301.203561 
L 306.579794 307.717073 
L 307.046326 300.273268 
L 307.503864 290.038098 
L 307.778422 301.203561 
L 308.23596 297.481902 
L 308.519446 309.577659 
L 308.97031 310.508439 
L 309.267144 321.673902 
L 310.003682 286.316439 
L 310.282682 311.438732 
L 310.755888 290.96839 
L 311.046048 303.064634 
L 311.496912 289.107805 
L 311.796 305.856 
L 312.231262 313.299805 
L 312.992374 275.150488 
L 313.284722 267.707171 
L 313.590506 318.882537 
L 314.028 332.839366 
L 314.333762 293.759756 
L 314.831498 290.96839 
L 315.208706 292.829463 
L 315.527904 313.299805 
L 315.963144 309.577659 
L 316.26 308.647366 
L 316.565762 284.455366 
L 316.989864 306.786293 
L 317.44296 319.812829 
L 317.755462 298.412195 
L 318.054506 328.186927 
L 318.48084 295.620829 
L 318.797762 294.690537 
L 319.244206 302.134341 
L 319.57673 303.994927 
L 320.007506 277.941854 
L 320.284318 314.230098 
L 320.726254 336.561024 
L 321.03869 304.925707 
L 321.471698 311.438732 
L 321.775294 297.481902 
L 322.243992 327.256634 
L 322.668072 296.551122 
L 322.953746 328.186927 
L 323.255088 312.369024 
L 324.009459 287.246732 
L 324.44923 309.577659 
L 324.748318 289.107805 
L 325.172398 292.829463 
L 325.484856 315.16039 
L 325.935698 300.273268 
L 326.234786 324.465268 
L 326.538382 322.604195 
L 326.96023 323.534488 
L 327.257064 309.577659 
L 327.712414 311.438732 
L 328.047214 306.786293 
L 328.473459 321.673902 
L 328.910976 321.673902 
L 329.212318 318.882537 
L 329.495738 288.177024 
L 329.819422 288.177024 
L 330.268032 303.064634 
L 330.549286 329.117707 
L 330.977786 319.812829 
L 331.30147 292.829463 
L 331.736666 308.647366 
L 332.165254 287.246732 
L 332.776778 331.909073 
L 333.232128 316.091171 
L 333.52231 298.412195 
L 333.961992 320.74361 
L 334.263334 319.812829 
L 334.707502 294.690537 
L 335.01996 288.177024 
L 335.44404 303.994927 
L 335.740896 301.203561 
L 336.211848 310.508439 
L 336.495334 319.812829 
L 336.94169 319.812829 
L 337.214016 317.021463 
L 337.678294 317.951756 
L 337.975128 304.925707 
L 338.419318 277.011561 
L 338.718406 287.246732 
L 338.997406 317.021463 
L 339.443762 299.342488 
L 339.749546 331.909073 
L 340.207128 304.925707 
L 340.474968 315.16039 
L 340.961522 299.342488 
L 341.253936 310.508439 
L 341.695872 341.213463 
L 341.981546 306.786293 
L 342.278446 286.316439 
L 342.738238 286.316439 
L 343.180152 320.74361 
L 343.514952 301.203561 
L 343.921198 303.064634 
L 344.204618 307.717073 
L 344.521562 322.604195 
L 345.00816 309.577659 
L 345.289414 295.620829 
L 346.02151 316.091171 
L 346.340642 313.299805 
L 346.77365 274.220195 
L 347.068318 307.717073 
L 347.528088 331.909073 
L 347.795928 293.759756 
L 348.25351 274.220195 
L 348.563714 271.428829 
L 349.01681 309.577659 
L 349.322594 315.16039 
L 349.773502 327.256634 
L 350.036856 277.941854 
L 350.530128 304.925707 
L 350.773438 291.899171 
L 351.239904 298.412195 
L 351.532318 300.273268 
L 351.972 322.604195 
L 352.257674 294.690537 
L 352.70635 301.203561 
L 353.016554 313.299805 
L 353.471904 291.899171 
L 353.75539 309.577659 
L 354.056666 281.664 
L 354.509762 327.256634 
L 354.815546 279.802927 
L 355.268642 289.107805 
L 355.56331 302.134341 
L 356.295406 317.951756 
L 356.744016 283.525073 
L 357.031944 304.925707 
L 357.493968 288.177024 
L 357.79531 292.829463 
L 358.096586 326.326341 
L 358.543008 313.299805 
L 358.976016 296.551122 
L 359.281778 275.150488 
L 359.587562 327.256634 
L 360.033984 298.412195 
L 360.344254 305.856 
L 361.07635 298.412195 
L 361.357538 288.177024 
L 362.250382 334.700439 
L 362.576254 302.134341 
L 362.844072 303.064634 
L 363.317278 312.369024 
L 363.61188 291.899171 
L 364.015872 275.150488 
L 364.343976 307.717073 
L 364.64081 282.594293 
L 365.114016 322.604195 
L 365.52919 302.134341 
L 365.859459 257.472 
L 366.27912 299.342488 
L 366.587136 315.16039 
L 367.02684 273.289902 
L 367.30584 338.422098 
L 367.767864 304.925707 
L 368.073626 298.412195 
L 368.533462 277.941854 
L 368.783446 307.717073 
L 369.09365 274.220195 
L 369.535586 326.326341 
L 369.872618 329.117707 
L 370.292278 297.481902 
L 370.589112 288.177024 
L 371.037722 295.620829 
L 371.341318 317.951756 
L 372.118032 294.690537 
L 372.544366 302.134341 
L 372.847896 263.985024 
L 373.292064 297.481902 
L 373.573318 303.064634 
L 373.876848 290.038098 
L 374.318762 295.620829 
L 374.600016 289.107805 
L 375.03077 269.567756 
L 375.291936 282.594293 
L 375.78965 343.074537 
L 376.113334 286.316439 
L 376.530674 299.342488 
L 376.818602 294.690537 
L 377.343144 314.230098 
L 377.550698 294.690537 
L 378.02839 308.647366 
L 378.305136 277.011561 
L 378.604246 299.342488 
L 379.055088 308.647366 
L 379.50151 293.759756 
L 379.809459 309.577659 
L 380.099642 280.733707 
L 380.514794 303.994927 
L 380.82281 303.064634 
L 381.271486 313.299805 
L 381.708936 276.081268 
L 382.010278 290.96839 
L 382.302626 278.872634 
L 382.780318 298.412195 
L 383.045904 276.081268 
L 383.490072 290.96839 
L 383.815944 273.289902 
L 384.253438 297.481902 
L 384.52351 323.534488 
L 384.994462 298.412195 
L 385.295738 303.994927 
L 385.581478 298.412195 
L 386.030088 303.994927 
L 386.309088 290.038098 
L 386.764438 306.786293 
L 387.20412 271.428829 
L 387.498722 311.438732 
L 387.81792 308.647366 
L 388.42277 330.978293 
L 390.232944 300.273268 
L 390.232944 300.273268 
" clip-path="url(#pb0cb334882)" style="fill: none; stroke: #3690c0; stroke-width: 1.5; stroke-linecap: square"/>
   </g>
   <g id="patch_7">
    <path d="M 54 384.48 
L 54 251.424 
" style="fill: none; stroke: #000000; stroke-width: 0.5; stroke-linejoin: miter; stroke-linecap: square"/>
   </g>
   <g id="patch_8">
    <path d="M 54 384.48 
L 388.8 384.48 
" style="fill: none; stroke: #000000; stroke-width: 0.5; stroke-linejoin: miter; stroke-linecap: square"/>
   </g>
   <g id="text_37">
    <!-- 104 m/z for Dynamic TGA -->
    <g transform="translate(157.046875 245.424) scale(0.1 -0.1)">
     <defs>
      <path id="DejaVuSans-2f" d="M 1625 4666 
L 2156 4666 
L 531 -594 
L 0 -594 
L 1625 4666 
z
" transform="scale(0.015625)"/>
      <path id="DejaVuSans-66" d="M 2375 4863 
L 2375 4384 
L 1825 4384 
Q 1516 4384 1395 4259 
Q 1275 4134 1275 3809 
L 1275 3500 
L 2222 3500 
L 2222 3053 
L 1275 3053 
L 1275 0 
L 697 0 
L 697 3053 
L 147 3053 
L 147 3500 
L 697 3500 
L 697 3744 
Q 697 4328 969 4595 
Q 1241 4863 1831 4863 
L 2375 4863 
z
" transform="scale(0.015625)"/>
     </defs>
     <use xlink:href="#DejaVuSans-31"/>
     <use xlink:href="#DejaVuSans-30" x="63.623047"/>
     <use xlink:href="#DejaVuSans-34" x="127.246094"/>
     <use xlink:href="#DejaVuSans-20" x="190.869141"/>
     <use xlink:href="#DejaVuSans-6d" x="222.65625"/>
     <use xlink:href="#DejaVuSans-2f" x="320.068359"/>
     <use xlink:href="#DejaVuSans-7a" x="353.759766"/>
     <use xlink:href="#DejaVuSans-20" x="406.25"/>
     <use xlink:href="#DejaVuSans-66" x="438.037109"/>
     <use xlink:href="#DejaVuSans-6f" x="473.242188"/>
     <use xlink:href="#DejaVuSans-72" x="534.423828"/>
     <use xlink:href="#DejaVuSans-20" x="575.537109"/>
     <use xlink:href="#DejaVuSans-44" x="607.324219"/>
     <use xlink:href="#DejaVuSans-79" x="684.326172"/>
     <use xlink:href="#DejaVuSans-6e" x="743.505859"/>
     <use xlink:href="#DejaVuSans-61" x="806.884766"/>
     <use xlink:href="#DejaVuSans-6d" x="868.164062"/>
     <use xlink:href="#DejaVuSans-69" x="965.576172"/>
     <use xlink:href="#DejaVuSans-63" x="993.359375"/>
     <use xlink:href="#DejaVuSans-20" x="1048.339844"/>
     <use xlink:href="#DejaVuSans-54" x="1080.126953"/>
     <use xlink:href="#DejaVuSans-47" x="1141.210938"/>
     <use xlink:href="#DejaVuSans-41" x="1218.701172"/>
    </g>
   </g>
   <g id="legend_2">
    <g id="patch_9">
     <path d="M 61 288.78025 
L 165.4 288.78025 
Q 167.4 288.78025 167.4 286.78025 
L 167.4 258.424 
Q 167.4 256.424 165.4 256.424 
L 61 256.424 
Q 59 256.424 59 258.424 
L 59 286.78025 
Q 59 288.78025 61 288.78025 
z
" style="fill: #ffffff; opacity: 0.8; stroke: #cccccc; stroke-linejoin: miter"/>
    </g>
    <g id="line2d_36">
     <path d="M 63 264.522437 
L 73 264.522437 
L 83 264.522437 
" style="fill: none; stroke: #969696; stroke-width: 1.5; stroke-linecap: square"/>
    </g>
    <g id="text_38">
     <!-- PS-19.6K -->
     <g transform="translate(91 268.022437) scale(0.1 -0.1)">
      <use xlink:href="#DejaVuSans-50"/>
      <use xlink:href="#DejaVuSans-53" x="60.302734"/>
      <use xlink:href="#DejaVuSans-2d" x="123.779297"/>
      <use xlink:href="#DejaVuSans-31" x="159.863281"/>
      <use xlink:href="#DejaVuSans-39" x="223.486328"/>
      <use xlink:href="#DejaVuSans-2e" x="287.109375"/>
      <use xlink:href="#DejaVuSans-36" x="318.896484"/>
      <use xlink:href="#DejaVuSans-4b" x="382.519531"/>
     </g>
    </g>
    <g id="line2d_37">
     <path d="M 63 279.200562 
L 73 279.200562 
L 83 279.200562 
" style="fill: none; stroke: #3690c0; stroke-width: 1.5; stroke-linecap: square"/>
    </g>
    <g id="text_39">
     <!-- PS-19.6K-SCF$_{3}$ -->
     <g transform="translate(91 282.700562) scale(0.1 -0.1)">
      <use xlink:href="#DejaVuSans-50" transform="translate(0 0.78125)"/>
      <use xlink:href="#DejaVuSans-53" transform="translate(60.302734 0.78125)"/>
      <use xlink:href="#DejaVuSans-2d" transform="translate(123.779297 0.78125)"/>
      <use xlink:href="#DejaVuSans-31" transform="translate(159.863281 0.78125)"/>
      <use xlink:href="#DejaVuSans-39" transform="translate(223.486328 0.78125)"/>
      <use xlink:href="#DejaVuSans-2e" transform="translate(287.109375 0.78125)"/>
      <use xlink:href="#DejaVuSans-36" transform="translate(318.896484 0.78125)"/>
      <use xlink:href="#DejaVuSans-4b" transform="translate(382.519531 0.78125)"/>
      <use xlink:href="#DejaVuSans-2d" transform="translate(448.095703 0.78125)"/>
      <use xlink:href="#DejaVuSans-53" transform="translate(484.179688 0.78125)"/>
      <use xlink:href="#DejaVuSans-43" transform="translate(547.65625 0.78125)"/>
      <use xlink:href="#DejaVuSans-46" transform="translate(617.480469 0.78125)"/>
      <use xlink:href="#DejaVuSans-33" transform="translate(675.957031 -15.625) scale(0.7)"/>
     </g>
    </g>
   </g>
  </g>
 </g>
 <defs>
  <clipPath id="p09b1067ff9">
   <rect x="54" y="51.84" width="334.8" height="133.056"/>
  </clipPath>
  <clipPath id="pb0cb334882">
   <rect x="54" y="251.424" width="334.8" height="133.056"/>
  </clipPath>
 </defs>
</svg>
