<?xml version="1.0" encoding="utf-8" standalone="no"?>
<!DOCTYPE svg PUBLIC "-//W3C//DTD SVG 1.1//EN"
  "http://www.w3.org/Graphics/SVG/1.1/DTD/svg11.dtd">
<svg xmlns:xlink="http://www.w3.org/1999/xlink" width="432pt" height="432pt" viewBox="0 0 432 432" xmlns="http://www.w3.org/2000/svg" version="1.1">
 <metadata>
  <rdf:RDF xmlns:dc="http://purl.org/dc/elements/1.1/" xmlns:cc="http://creativecommons.org/ns#" xmlns:rdf="http://www.w3.org/1999/02/22-rdf-syntax-ns#">
   <cc:Work>
    <dc:type rdf:resource="http://purl.org/dc/dcmitype/StillImage"/>
    <dc:date>2025-02-25T17:03:26.505538</dc:date>
    <dc:format>image/svg+xml</dc:format>
    <dc:creator>
     <cc:Agent>
      <dc:title>Matplotlib v3.7.1, https://matplotlib.org/</dc:title>
     </cc:Agent>
    </dc:creator>
   </cc:Work>
  </rdf:RDF>
 </metadata>
 <defs>
  <style type="text/css">*{stroke-linejoin: round; stroke-linecap: butt}</style>
 </defs>
 <g id="figure_1">
  <g id="patch_1">
   <path d="M 0 432 
L 432 432 
L 432 0 
L 0 0 
z
" style="fill: #ffffff"/>
  </g>
  <g id="axes_1">
   <g id="patch_2">
    <path d="M 54 184.896 
L 388.8 184.896 
L 388.8 51.84 
L 54 51.84 
z
" style="fill: #ffffff"/>
   </g>
   <g id="matplotlib.axis_1">
    <g id="xtick_1">
     <g id="line2d_1">
      <defs>
       <path id="mfa7923b7cf" d="M 0 0 
L 0 -3.5 
" style="stroke: #000000; stroke-width: 0.8"/>
      </defs>
      <g>
       <use xlink:href="#mfa7923b7cf" x="76.32" y="184.896" style="stroke: #000000; stroke-width: 0.8"/>
      </g>
     </g>
     <g id="text_1">
      <!-- 260 -->
      <g transform="translate(66.310313 197.004125) scale(0.12 -0.12)">
       <defs>
        <path id="Helvetica-32" d="M 200 0 
Q 231 578 439 1006 
Q 647 1434 1250 1784 
L 1850 2131 
Q 2253 2366 2416 2531 
Q 2672 2791 2672 3125 
Q 2672 3516 2437 3745 
Q 2203 3975 1813 3975 
Q 1234 3975 1013 3538 
Q 894 3303 881 2888 
L 309 2888 
Q 319 3472 525 3841 
Q 891 4491 1816 4491 
Q 2584 4491 2939 4075 
Q 3294 3659 3294 3150 
Q 3294 2613 2916 2231 
Q 2697 2009 2131 1694 
L 1703 1456 
Q 1397 1288 1222 1134 
Q 909 863 828 531 
L 3272 531 
L 3272 0 
L 200 0 
z
" transform="scale(0.015625)"/>
        <path id="Helvetica-36" d="M 1872 4494 
Q 2622 4494 2917 4105 
Q 3213 3716 3213 3303 
L 2656 3303 
Q 2606 3569 2497 3719 
Q 2294 4000 1881 4000 
Q 1409 4000 1131 3564 
Q 853 3128 822 2316 
Q 1016 2600 1309 2741 
Q 1578 2866 1909 2866 
Q 2472 2866 2890 2506 
Q 3309 2147 3309 1434 
Q 3309 825 2912 354 
Q 2516 -116 1781 -116 
Q 1153 -116 697 361 
Q 241 838 241 1966 
Q 241 2800 444 3381 
Q 834 4494 1872 4494 
z
M 1831 384 
Q 2275 384 2495 682 
Q 2716 981 2716 1388 
Q 2716 1731 2519 2042 
Q 2322 2353 1803 2353 
Q 1441 2353 1167 2112 
Q 894 1872 894 1388 
Q 894 963 1142 673 
Q 1391 384 1831 384 
z
" transform="scale(0.015625)"/>
        <path id="Helvetica-30" d="M 1731 4475 
Q 2600 4475 2988 3759 
Q 3288 3206 3288 2244 
Q 3288 1331 3016 734 
Q 2622 -122 1728 -122 
Q 922 -122 528 578 
Q 200 1163 200 2147 
Q 200 2909 397 3456 
Q 766 4475 1731 4475 
z
M 1725 391 
Q 2163 391 2422 778 
Q 2681 1166 2681 2222 
Q 2681 2984 2493 3476 
Q 2306 3969 1766 3969 
Q 1269 3969 1039 3501 
Q 809 3034 809 2125 
Q 809 1441 956 1025 
Q 1181 391 1725 391 
z
" transform="scale(0.015625)"/>
       </defs>
       <use xlink:href="#Helvetica-32"/>
       <use xlink:href="#Helvetica-36" x="55.615234"/>
       <use xlink:href="#Helvetica-30" x="111.230469"/>
      </g>
     </g>
    </g>
    <g id="xtick_2">
     <g id="line2d_2">
      <g>
       <use xlink:href="#mfa7923b7cf" x="120.96" y="184.896" style="stroke: #000000; stroke-width: 0.8"/>
      </g>
     </g>
     <g id="text_2">
      <!-- 280 -->
      <g transform="translate(110.950313 197.004125) scale(0.12 -0.12)">
       <defs>
        <path id="Helvetica-38" d="M 1741 2600 
Q 2113 2600 2322 2808 
Q 2531 3016 2531 3303 
Q 2531 3553 2331 3762 
Q 2131 3972 1722 3972 
Q 1316 3972 1134 3762 
Q 953 3553 953 3272 
Q 953 2956 1187 2778 
Q 1422 2600 1741 2600 
z
M 1775 384 
Q 2166 384 2423 595 
Q 2681 806 2681 1225 
Q 2681 1659 2415 1884 
Q 2150 2109 1734 2109 
Q 1331 2109 1076 1879 
Q 822 1650 822 1244 
Q 822 894 1055 639 
Q 1288 384 1775 384 
z
M 975 2384 
Q 741 2484 609 2619 
Q 363 2869 363 3269 
Q 363 3769 725 4128 
Q 1088 4488 1753 4488 
Q 2397 4488 2762 4148 
Q 3128 3809 3128 3356 
Q 3128 2938 2916 2678 
Q 2797 2531 2547 2391 
Q 2825 2263 2984 2097 
Q 3281 1784 3281 1284 
Q 3281 694 2884 283 
Q 2488 -128 1763 -128 
Q 1109 -128 657 226 
Q 206 581 206 1256 
Q 206 1653 400 1942 
Q 594 2231 975 2384 
z
" transform="scale(0.015625)"/>
       </defs>
       <use xlink:href="#Helvetica-32"/>
       <use xlink:href="#Helvetica-38" x="55.615234"/>
       <use xlink:href="#Helvetica-30" x="111.230469"/>
      </g>
     </g>
    </g>
    <g id="xtick_3">
     <g id="line2d_3">
      <g>
       <use xlink:href="#mfa7923b7cf" x="165.6" y="184.896" style="stroke: #000000; stroke-width: 0.8"/>
      </g>
     </g>
     <g id="text_3">
      <!-- 300 -->
      <g transform="translate(155.590313 197.004125) scale(0.12 -0.12)">
       <defs>
        <path id="Helvetica-33" d="M 1663 -122 
Q 869 -122 511 314 
Q 153 750 153 1375 
L 741 1375 
Q 778 941 903 744 
Q 1122 391 1694 391 
Q 2138 391 2406 628 
Q 2675 866 2675 1241 
Q 2675 1703 2392 1887 
Q 2109 2072 1606 2072 
Q 1550 2072 1492 2070 
Q 1434 2069 1375 2066 
L 1375 2563 
Q 1463 2553 1522 2550 
Q 1581 2547 1650 2547 
Q 1966 2547 2169 2647 
Q 2525 2822 2525 3272 
Q 2525 3606 2287 3787 
Q 2050 3969 1734 3969 
Q 1172 3969 956 3594 
Q 838 3388 822 3006 
L 266 3006 
Q 266 3506 466 3856 
Q 809 4481 1675 4481 
Q 2359 4481 2734 4176 
Q 3109 3872 3109 3294 
Q 3109 2881 2888 2625 
Q 2750 2466 2531 2375 
Q 2884 2278 3082 2001 
Q 3281 1725 3281 1325 
Q 3281 684 2859 281 
Q 2438 -122 1663 -122 
z
" transform="scale(0.015625)"/>
       </defs>
       <use xlink:href="#Helvetica-33"/>
       <use xlink:href="#Helvetica-30" x="55.615234"/>
       <use xlink:href="#Helvetica-30" x="111.230469"/>
      </g>
     </g>
    </g>
    <g id="xtick_4">
     <g id="line2d_4">
      <g>
       <use xlink:href="#mfa7923b7cf" x="210.24" y="184.896" style="stroke: #000000; stroke-width: 0.8"/>
      </g>
     </g>
     <g id="text_4">
      <!-- 320 -->
      <g transform="translate(200.230312 197.004125) scale(0.12 -0.12)">
       <use xlink:href="#Helvetica-33"/>
       <use xlink:href="#Helvetica-32" x="55.615234"/>
       <use xlink:href="#Helvetica-30" x="111.230469"/>
      </g>
     </g>
    </g>
    <g id="xtick_5">
     <g id="line2d_5">
      <g>
       <use xlink:href="#mfa7923b7cf" x="254.88" y="184.896" style="stroke: #000000; stroke-width: 0.8"/>
      </g>
     </g>
     <g id="text_5">
      <!-- 340 -->
      <g transform="translate(244.870313 197.004125) scale(0.12 -0.12)">
       <defs>
        <path id="Helvetica-34" d="M 2116 1584 
L 2116 3613 
L 681 1584 
L 2116 1584 
z
M 2125 0 
L 2125 1094 
L 163 1094 
L 163 1644 
L 2213 4488 
L 2688 4488 
L 2688 1584 
L 3347 1584 
L 3347 1094 
L 2688 1094 
L 2688 0 
L 2125 0 
z
" transform="scale(0.015625)"/>
       </defs>
       <use xlink:href="#Helvetica-33"/>
       <use xlink:href="#Helvetica-34" x="55.615234"/>
       <use xlink:href="#Helvetica-30" x="111.230469"/>
      </g>
     </g>
    </g>
    <g id="xtick_6">
     <g id="line2d_6">
      <g>
       <use xlink:href="#mfa7923b7cf" x="299.52" y="184.896" style="stroke: #000000; stroke-width: 0.8"/>
      </g>
     </g>
     <g id="text_6">
      <!-- 360 -->
      <g transform="translate(289.510313 197.004125) scale(0.12 -0.12)">
       <use xlink:href="#Helvetica-33"/>
       <use xlink:href="#Helvetica-36" x="55.615234"/>
       <use xlink:href="#Helvetica-30" x="111.230469"/>
      </g>
     </g>
    </g>
    <g id="xtick_7">
     <g id="line2d_7">
      <g>
       <use xlink:href="#mfa7923b7cf" x="344.16" y="184.896" style="stroke: #000000; stroke-width: 0.8"/>
      </g>
     </g>
     <g id="text_7">
      <!-- 380 -->
      <g transform="translate(334.150313 197.004125) scale(0.12 -0.12)">
       <use xlink:href="#Helvetica-33"/>
       <use xlink:href="#Helvetica-38" x="55.615234"/>
       <use xlink:href="#Helvetica-30" x="111.230469"/>
      </g>
     </g>
    </g>
    <g id="xtick_8">
     <g id="line2d_8">
      <g>
       <use xlink:href="#mfa7923b7cf" x="388.8" y="184.896" style="stroke: #000000; stroke-width: 0.8"/>
      </g>
     </g>
     <g id="text_8">
      <!-- 400 -->
      <g transform="translate(378.790313 197.004125) scale(0.12 -0.12)">
       <use xlink:href="#Helvetica-34"/>
       <use xlink:href="#Helvetica-30" x="55.615234"/>
       <use xlink:href="#Helvetica-30" x="111.230469"/>
      </g>
     </g>
    </g>
    <g id="text_9">
     <!-- Temp ($^{o}$C) -->
     <g transform="translate(193.26 212.865375) scale(0.12 -0.12)">
      <defs>
       <path id="Helvetica-54" d="M 3828 4591 
L 3828 4044 
L 2281 4044 
L 2281 0 
L 1650 0 
L 1650 4044 
L 103 4044 
L 103 4591 
L 3828 4591 
z
" transform="scale(0.015625)"/>
       <path id="Helvetica-65" d="M 1806 3422 
Q 2163 3422 2497 3255 
Q 2831 3088 3006 2822 
Q 3175 2569 3231 2231 
Q 3281 2000 3281 1494 
L 828 1494 
Q 844 984 1069 676 
Q 1294 369 1766 369 
Q 2206 369 2469 659 
Q 2619 828 2681 1050 
L 3234 1050 
Q 3213 866 3089 639 
Q 2966 413 2813 269 
Q 2556 19 2178 -69 
Q 1975 -119 1719 -119 
Q 1094 -119 659 336 
Q 225 791 225 1609 
Q 225 2416 662 2919 
Q 1100 3422 1806 3422 
z
M 2703 1941 
Q 2669 2306 2544 2525 
Q 2313 2931 1772 2931 
Q 1384 2931 1121 2651 
Q 859 2372 844 1941 
L 2703 1941 
z
M 1753 3428 
L 1753 3428 
z
" transform="scale(0.015625)"/>
       <path id="Helvetica-6d" d="M 413 3347 
L 969 3347 
L 969 2872 
Q 1169 3119 1331 3231 
Q 1609 3422 1963 3422 
Q 2363 3422 2606 3225 
Q 2744 3113 2856 2894 
Q 3044 3163 3297 3292 
Q 3550 3422 3866 3422 
Q 4541 3422 4784 2934 
Q 4916 2672 4916 2228 
L 4916 0 
L 4331 0 
L 4331 2325 
Q 4331 2659 4164 2784 
Q 3997 2909 3756 2909 
Q 3425 2909 3186 2687 
Q 2947 2466 2947 1947 
L 2947 0 
L 2375 0 
L 2375 2184 
Q 2375 2525 2294 2681 
Q 2166 2916 1816 2916 
Q 1497 2916 1236 2669 
Q 975 2422 975 1775 
L 975 0 
L 413 0 
L 413 3347 
z
" transform="scale(0.015625)"/>
       <path id="Helvetica-70" d="M 1825 378 
Q 2219 378 2480 708 
Q 2741 1038 2741 1694 
Q 2741 2094 2625 2381 
Q 2406 2934 1825 2934 
Q 1241 2934 1025 2350 
Q 909 2038 909 1556 
Q 909 1169 1025 897 
Q 1244 378 1825 378 
z
M 369 3331 
L 916 3331 
L 916 2888 
Q 1084 3116 1284 3241 
Q 1569 3428 1953 3428 
Q 2522 3428 2919 2992 
Q 3316 2556 3316 1747 
Q 3316 653 2744 184 
Q 2381 -113 1900 -113 
Q 1522 -113 1266 53 
Q 1116 147 931 375 
L 931 -1334 
L 369 -1334 
L 369 3331 
z
" transform="scale(0.015625)"/>
       <path id="Helvetica-20" transform="scale(0.015625)"/>
       <path id="Helvetica-28" d="M 1894 4666 
Q 1403 3713 1256 3263 
Q 1034 2578 1034 1681 
Q 1034 775 1288 25 
Q 1444 -438 1903 -1306 
L 1525 -1306 
Q 1069 -594 959 -397 
Q 850 -200 722 138 
Q 547 600 478 1125 
Q 444 1397 444 1644 
Q 444 2569 734 3291 
Q 919 3750 1503 4666 
L 1894 4666 
z
" transform="scale(0.015625)"/>
       <path id="DejaVuSans-Oblique-6f" d="M 1625 -91 
Q 1009 -91 651 289 
Q 294 669 294 1325 
Q 294 1706 417 2101 
Q 541 2497 738 2766 
Q 1047 3184 1428 3384 
Q 1809 3584 2291 3584 
Q 2888 3584 3255 3212 
Q 3622 2841 3622 2241 
Q 3622 1825 3500 1412 
Q 3378 1000 3181 728 
Q 2875 309 2494 109 
Q 2113 -91 1625 -91 
z
M 891 1344 
Q 891 869 1089 633 
Q 1288 397 1691 397 
Q 2269 397 2648 901 
Q 3028 1406 3028 2181 
Q 3028 2634 2825 2865 
Q 2622 3097 2228 3097 
Q 1903 3097 1650 2945 
Q 1397 2794 1197 2484 
Q 1050 2253 970 1956 
Q 891 1659 891 1344 
z
" transform="scale(0.015625)"/>
       <path id="Helvetica-43" d="M 2422 4716 
Q 3294 4716 3775 4256 
Q 4256 3797 4309 3213 
L 3703 3213 
Q 3600 3656 3292 3915 
Q 2984 4175 2428 4175 
Q 1750 4175 1333 3698 
Q 916 3222 916 2238 
Q 916 1431 1292 929 
Q 1669 428 2416 428 
Q 3103 428 3463 956 
Q 3653 1234 3747 1688 
L 4353 1688 
Q 4272 963 3816 472 
Q 3269 -119 2341 -119 
Q 1541 -119 997 366 
Q 281 1006 281 2344 
Q 281 3359 819 4009 
Q 1400 4716 2422 4716 
z
M 2297 4716 
L 2297 4716 
z
" transform="scale(0.015625)"/>
       <path id="Helvetica-29" d="M 222 -1306 
Q 719 -338 863 106 
Q 1081 778 1081 1681 
Q 1081 2584 828 3334 
Q 672 3797 213 4666 
L 591 4666 
Q 1072 3897 1173 3717 
Q 1275 3538 1394 3222 
Q 1544 2831 1608 2450 
Q 1672 2069 1672 1716 
Q 1672 791 1378 66 
Q 1194 -400 613 -1306 
L 222 -1306 
z
" transform="scale(0.015625)"/>
      </defs>
      <use xlink:href="#Helvetica-54" transform="translate(0 0.51875)"/>
      <use xlink:href="#Helvetica-65" transform="translate(61.083984 0.51875)"/>
      <use xlink:href="#Helvetica-6d" transform="translate(116.699219 0.51875)"/>
      <use xlink:href="#Helvetica-70" transform="translate(200 0.51875)"/>
      <use xlink:href="#Helvetica-20" transform="translate(255.615234 0.51875)"/>
      <use xlink:href="#Helvetica-28" transform="translate(283.398438 0.51875)"/>
      <use xlink:href="#DejaVuSans-Oblique-6f" transform="translate(317.65625 38.8) scale(0.7)"/>
      <use xlink:href="#Helvetica-43" transform="translate(363.217773 0.51875)"/>
      <use xlink:href="#Helvetica-29" transform="translate(435.43457 0.51875)"/>
     </g>
    </g>
   </g>
   <g id="matplotlib.axis_2">
    <g id="ytick_1">
     <g id="line2d_9">
      <defs>
       <path id="m12e7c8d37f" d="M 0 0 
L 3.5 0 
" style="stroke: #000000; stroke-width: 0.8"/>
      </defs>
      <g>
       <use xlink:href="#m12e7c8d37f" x="54" y="154.445828" style="stroke: #000000; stroke-width: 0.8"/>
      </g>
     </g>
     <g id="text_10">
      <!-- 25 -->
      <g transform="translate(37.15375 158.74989) scale(0.12 -0.12)">
       <defs>
        <path id="Helvetica-35" d="M 791 1141 
Q 847 659 1238 475 
Q 1438 381 1700 381 
Q 2200 381 2440 700 
Q 2681 1019 2681 1406 
Q 2681 1875 2395 2131 
Q 2109 2388 1709 2388 
Q 1419 2388 1211 2275 
Q 1003 2163 856 1963 
L 369 1991 
L 709 4400 
L 3034 4400 
L 3034 3856 
L 1131 3856 
L 941 2613 
Q 1097 2731 1238 2791 
Q 1488 2894 1816 2894 
Q 2431 2894 2859 2497 
Q 3288 2100 3288 1491 
Q 3288 856 2895 371 
Q 2503 -113 1644 -113 
Q 1097 -113 676 195 
Q 256 503 206 1141 
L 791 1141 
z
" transform="scale(0.015625)"/>
       </defs>
       <use xlink:href="#Helvetica-32"/>
       <use xlink:href="#Helvetica-35" x="55.615234"/>
      </g>
     </g>
    </g>
    <g id="ytick_2">
     <g id="line2d_10">
      <g>
       <use xlink:href="#m12e7c8d37f" x="54" y="122.510158" style="stroke: #000000; stroke-width: 0.8"/>
      </g>
     </g>
     <g id="text_11">
      <!-- 50 -->
      <g transform="translate(37.15375 126.814221) scale(0.12 -0.12)">
       <use xlink:href="#Helvetica-35"/>
       <use xlink:href="#Helvetica-30" x="55.615234"/>
      </g>
     </g>
    </g>
    <g id="ytick_3">
     <g id="line2d_11">
      <g>
       <use xlink:href="#m12e7c8d37f" x="54" y="90.574489" style="stroke: #000000; stroke-width: 0.8"/>
      </g>
     </g>
     <g id="text_12">
      <!-- 75 -->
      <g transform="translate(37.15375 94.878552) scale(0.12 -0.12)">
       <defs>
        <path id="Helvetica-37" d="M 3347 4400 
L 3347 3909 
Q 3131 3700 2773 3181 
Q 2416 2663 2141 2063 
Q 1869 1478 1728 997 
Q 1638 688 1494 0 
L 872 0 
Q 1084 1281 1809 2550 
Q 2238 3294 2709 3834 
L 234 3834 
L 234 4400 
L 3347 4400 
z
" transform="scale(0.015625)"/>
       </defs>
       <use xlink:href="#Helvetica-37"/>
       <use xlink:href="#Helvetica-35" x="55.615234"/>
      </g>
     </g>
    </g>
    <g id="ytick_4">
     <g id="line2d_12">
      <g>
       <use xlink:href="#m12e7c8d37f" x="54" y="58.63882" style="stroke: #000000; stroke-width: 0.8"/>
      </g>
     </g>
     <g id="text_13">
      <!-- 100 -->
      <g transform="translate(30.480625 62.942883) scale(0.12 -0.12)">
       <defs>
        <path id="Helvetica-31" d="M 613 3169 
L 613 3600 
Q 1222 3659 1462 3798 
Q 1703 3938 1822 4456 
L 2266 4456 
L 2266 0 
L 1666 0 
L 1666 3169 
L 613 3169 
z
" transform="scale(0.015625)"/>
       </defs>
       <use xlink:href="#Helvetica-31"/>
       <use xlink:href="#Helvetica-30" x="55.615234"/>
       <use xlink:href="#Helvetica-30" x="111.230469"/>
      </g>
     </g>
    </g>
    <g id="text_14">
     <!-- Mass (%) -->
     <g transform="translate(23.979375 143.700187) rotate(-90) scale(0.12 -0.12)">
      <defs>
       <path id="Helvetica-4d" d="M 472 4591 
L 1363 4591 
L 2681 709 
L 3991 4591 
L 4872 4591 
L 4872 0 
L 4281 0 
L 4281 2709 
Q 4281 2850 4287 3175 
Q 4294 3500 4294 3872 
L 2984 0 
L 2369 0 
L 1050 3872 
L 1050 3731 
Q 1050 3563 1058 3217 
Q 1066 2872 1066 2709 
L 1066 0 
L 472 0 
L 472 4591 
z
" transform="scale(0.015625)"/>
       <path id="Helvetica-61" d="M 844 891 
Q 844 647 1022 506 
Q 1200 366 1444 366 
Q 1741 366 2019 503 
Q 2488 731 2488 1250 
L 2488 1703 
Q 2384 1638 2221 1594 
Q 2059 1550 1903 1531 
L 1563 1488 
Q 1256 1447 1103 1359 
Q 844 1213 844 891 
z
M 2206 2028 
Q 2400 2053 2466 2191 
Q 2503 2266 2503 2406 
Q 2503 2694 2298 2823 
Q 2094 2953 1713 2953 
Q 1272 2953 1088 2716 
Q 984 2584 953 2325 
L 428 2325 
Q 444 2944 830 3186 
Q 1216 3428 1725 3428 
Q 2316 3428 2684 3203 
Q 3050 2978 3050 2503 
L 3050 575 
Q 3050 488 3086 434 
Q 3122 381 3238 381 
Q 3275 381 3322 386 
Q 3369 391 3422 400 
L 3422 -16 
Q 3291 -53 3222 -62 
Q 3153 -72 3034 -72 
Q 2744 -72 2613 134 
Q 2544 244 2516 444 
Q 2344 219 2022 53 
Q 1700 -113 1313 -113 
Q 847 -113 551 170 
Q 256 453 256 878 
Q 256 1344 547 1600 
Q 838 1856 1309 1916 
L 2206 2028 
z
M 1741 3428 
L 1741 3428 
z
" transform="scale(0.015625)"/>
       <path id="Helvetica-73" d="M 747 1050 
Q 772 769 888 619 
Q 1100 347 1625 347 
Q 1938 347 2175 483 
Q 2413 619 2413 903 
Q 2413 1119 2222 1231 
Q 2100 1300 1741 1391 
L 1294 1503 
Q 866 1609 663 1741 
Q 300 1969 300 2372 
Q 300 2847 642 3140 
Q 984 3434 1563 3434 
Q 2319 3434 2653 2991 
Q 2863 2709 2856 2384 
L 2325 2384 
Q 2309 2575 2191 2731 
Q 1997 2953 1519 2953 
Q 1200 2953 1036 2831 
Q 872 2709 872 2509 
Q 872 2291 1088 2159 
Q 1213 2081 1456 2022 
L 1828 1931 
Q 2434 1784 2641 1647 
Q 2969 1431 2969 969 
Q 2969 522 2630 197 
Q 2291 -128 1597 -128 
Q 850 -128 539 211 
Q 228 550 206 1050 
L 747 1050 
z
M 1578 3428 
L 1578 3428 
z
" transform="scale(0.015625)"/>
       <path id="Helvetica-25" d="M 4363 2175 
Q 4813 2175 5131 1856 
Q 5450 1538 5450 1088 
Q 5450 638 5131 319 
Q 4813 0 4363 0 
Q 3909 0 3590 319 
Q 3272 638 3272 1088 
Q 3272 1538 3590 1856 
Q 3909 2175 4363 2175 
z
M 3909 4456 
L 4256 4456 
L 1753 -119 
L 1406 -119 
L 3909 4456 
z
M 1294 2606 
Q 1563 2606 1752 2795 
Q 1941 2984 1941 3250 
Q 1941 3516 1752 3705 
Q 1563 3894 1294 3894 
Q 1028 3894 839 3706 
Q 650 3519 650 3250 
Q 650 2984 839 2795 
Q 1028 2606 1294 2606 
z
M 1294 4341 
Q 1747 4341 2065 4020 
Q 2384 3700 2384 3250 
Q 2384 2800 2065 2481 
Q 1747 2163 1294 2163 
Q 844 2163 525 2481 
Q 206 2800 206 3250 
Q 206 3700 525 4020 
Q 844 4341 1294 4341 
z
M 4363 444 
Q 4628 444 4817 633 
Q 5006 822 5006 1088 
Q 5006 1353 4817 1542 
Q 4628 1731 4363 1731 
Q 4094 1731 3905 1542 
Q 3716 1353 3716 1088 
Q 3716 822 3905 633 
Q 4094 444 4363 444 
z
" transform="scale(0.015625)"/>
      </defs>
      <use xlink:href="#Helvetica-4d"/>
      <use xlink:href="#Helvetica-61" x="83.300781"/>
      <use xlink:href="#Helvetica-73" x="138.916016"/>
      <use xlink:href="#Helvetica-73" x="188.916016"/>
      <use xlink:href="#Helvetica-20" x="238.916016"/>
      <use xlink:href="#Helvetica-28" x="266.699219"/>
      <use xlink:href="#Helvetica-25" x="300"/>
      <use xlink:href="#Helvetica-29" x="388.916016"/>
     </g>
    </g>
   </g>
   <g id="line2d_13">
    <path d="M 54.035734 58.63882 
L 54.477648 58.67082 
L 55.075802 58.654941 
L 56.104754 58.662989 
L 62.510616 58.574361 
L 62.945856 58.574361 
L 70.541374 58.485951 
L 71.003398 58.485951 
L 83.65212 58.386656 
L 84.850682 58.354427 
L 95.693738 58.257968 
L 96.555334 58.266016 
L 107.730936 58.169558 
L 108.463032 58.177618 
L 121.410864 58.073099 
L 122.026896 58.08093 
L 141.61716 57.984458 
L 142.079206 57.984458 
L 202.162414 58.073099 
L 202.64004 58.08093 
L 208.45661 58.185679 
L 209.048112 58.217678 
L 213.942888 58.306306 
L 214.38931 58.314367 
L 218.551968 58.418886 
L 220.478206 58.507284 
L 224.797104 58.612033 
L 225.544802 58.644032 
L 228.388414 58.748794 
L 229.24769 58.804962 
L 232.231896 58.901421 
L 232.839 58.957819 
L 235.347746 59.062338 
L 236.25396 59.126797 
L 237.852072 59.223256 
L 238.95247 59.287728 
L 240.577366 59.384186 
L 241.624152 59.480645 
L 243.27581 59.560982 
L 244.005674 59.617393 
L 246.98988 59.88283 
L 247.55904 59.947289 
L 248.88708 60.043747 
L 250.10131 60.188556 
L 251.148096 60.276954 
L 252.32657 60.40043 
L 253.37561 60.496901 
L 254.884486 60.689818 
L 255.770546 60.786507 
L 257.99143 61.076125 
L 258.752498 61.172584 
L 261.832658 61.644452 
L 263.49773 61.917949 
L 264.368254 62.054698 
L 266.60916 62.472991 
L 267.031008 62.56945 
L 270.028562 63.196794 
L 271.204848 63.483793 
L 277.470072 65.183793 
L 281.338128 66.425196 
L 282.23316 66.762922 
L 282.983112 67.04448 
L 284.438398 67.623704 
L 290.540642 70.40157 
L 296.33719 73.675245 
L 297.805802 74.648606 
L 299.14951 75.546828 
L 299.604794 75.881948 
L 299.910578 76.08032 
L 300.792262 76.745336 
L 301.533286 77.276221 
L 305.709358 80.675978 
L 306.146786 81.078163 
L 308.985912 83.764783 
L 309.276072 84.006293 
L 311.503586 86.269152 
L 312.092856 86.952895 
L 313.606152 88.564254 
L 314.199864 89.277633 
L 317.748722 93.623963 
L 319.527626 95.96196 
L 324.297454 102.734928 
L 325.339754 104.319512 
L 326.85084 106.609389 
L 327.690072 108.041103 
L 328.14761 108.778408 
L 329.810494 111.467647 
L 331.281382 113.958744 
L 331.763494 114.752218 
L 349.88508 146.852369 
L 356.444928 156.920574 
L 357.054286 157.71429 
L 357.632374 158.545448 
L 358.250594 159.296255 
L 358.984944 160.239993 
L 360.473666 162.049953 
L 362.54273 164.385102 
L 363.761446 165.618687 
L 364.631904 166.468572 
L 365.256864 167.034293 
L 366.87281 168.460783 
L 371.81669 172.010803 
L 376.553016 174.742925 
L 381.760294 176.871897 
L 382.662 177.148 
L 383.376262 177.378602 
L 385.190856 177.84241 
L 385.757762 178.003327 
L 389.22408 178.587775 
L 392.89351 178.478044 
L 393.781802 178.4323 
L 398.04943 178.252655 
L 402.736586 178.142682 
L 408.394706 177.998115 
L 415.818382 177.893366 
L 419.686438 177.861367 
L 433 177.861367 
L 433 177.861367 
" clip-path="url(#p9e1266a07b)" style="fill: none; stroke: #969696; stroke-width: 1.5; stroke-linecap: square"/>
   </g>
   <g id="line2d_14">
    <path d="M 54.029016 58.63882 
L 55.660608 58.613719 
L 70.548048 58.52191 
L 70.996658 58.488442 
L 71.599342 58.52191 
L 99.08861 58.427151 
L 99.983642 58.410416 
L 100.588514 58.443885 
L 124.109374 58.527327 
L 124.542382 58.535694 
L 138.162024 58.619378 
L 138.80484 58.619378 
L 150.692494 58.719554 
L 151.30404 58.753022 
L 152.641008 58.778137 
L 162.27653 58.886679 
L 162.870286 58.920148 
L 168.227064 59.028691 
L 171.057262 59.062172 
L 174.21331 59.145614 
L 174.670848 59.145614 
L 175.523494 59.212308 
L 180.445032 59.321107 
L 181.040976 59.382385 
L 183.717144 59.460167 
L 184.319762 59.493636 
L 185.190286 59.510383 
L 187.73923 59.610559 
L 188.190072 59.610559 
L 190.413144 59.710977 
L 192.350498 59.811153 
L 194.13612 59.914037 
L 194.732064 59.947506 
L 196.669462 60.047924 
L 198.178294 60.1481 
L 200.088864 60.223174 
L 200.37235 60.290124 
L 202.182502 60.3903 
L 203.075302 60.448883 
L 204.883222 60.557426 
L 205.445642 60.590895 
L 206.646502 60.69107 
L 207.804888 60.791246 
L 209.465541 60.891422 
L 211.251096 61.058548 
L 216.018626 61.459494 
L 217.194912 61.559925 
L 218.527438 61.726795 
L 219.721514 61.827226 
L 220.958064 61.985972 
L 223.906514 62.261641 
L 226.28808 62.548385 
L 227.18088 62.656928 
L 230.011056 63.049519 
L 230.731992 63.149938 
L 232.376976 63.383758 
L 232.963992 63.483934 
L 241.891992 64.926519 
L 253.663538 67.471524 
L 254.08543 67.57465 
L 256.03843 68.089811 
L 259.020382 68.919525 
L 259.893072 69.234079 
L 261.517968 69.674165 
L 262.567008 70.027859 
L 263.77231 70.364806 
L 264.352586 70.601347 
L 267.019848 71.520405 
L 267.778706 71.80149 
L 268.816586 72.160843 
L 269.70943 72.514536 
L 270.294214 72.745648 
L 271.497262 73.235695 
L 272.113294 73.494629 
L 272.968128 73.837005 
L 274.195706 74.385635 
L 275.200128 74.839504 
L 276.262538 75.299033 
L 277.31381 75.789079 
L 278.199936 76.242949 
L 280.427494 77.315093 
L 281.472048 77.860772 
L 282.68177 78.534678 
L 282.94961 78.643221 
L 284.014318 79.253141 
L 284.91377 79.807187 
L 291.444602 83.842029 
L 291.737016 84.101206 
L 292.480294 84.568859 
L 293.03604 84.992211 
L 295.439904 86.754766 
L 296.03808 87.180814 
L 298.131674 88.846144 
L 299.02896 89.544922 
L 299.464222 89.934792 
L 301.57123 91.717033 
L 303.501888 93.468513 
L 304.079976 93.986381 
L 310.15327 100.031637 
L 310.459032 100.393698 
L 312.391944 102.451607 
L 314.195422 104.462022 
L 315.07704 105.478291 
L 315.80465 106.380614 
L 316.565762 107.249469 
L 317.44296 108.315954 
L 320.726254 112.361884 
L 321.03869 112.74068 
L 322.953746 115.21061 
L 328.618562 122.804043 
L 329.665414 124.318982 
L 330.413112 125.329848 
L 331.30147 126.563216 
L 332.165254 127.788473 
L 332.61835 128.43457 
L 337.678294 135.546311 
L 338.26531 136.390052 
L 340.64239 139.734496 
L 341.253936 140.533692 
L 341.81419 141.382849 
L 342.57749 142.379931 
L 344.070698 144.412496 
L 344.836318 145.387173 
L 345.73577 146.553847 
L 346.467888 147.525815 
L 348.699888 150.37997 
L 349.161912 150.961825 
L 351.37157 153.740905 
L 351.690746 154.041675 
L 353.612498 156.283202 
L 354.371422 157.149348 
L 357.949318 160.913937 
L 358.697016 161.624033 
L 362.39765 165.032476 
L 363.009262 165.505788 
L 364.64081 166.864677 
L 367.30584 168.833498 
L 367.908502 169.228785 
L 369.535586 170.345486 
L 370.745374 171.094467 
L 373.573318 172.679063 
L 378.148896 174.870387 
L 378.907754 175.173865 
L 380.82281 175.942531 
L 381.878546 176.301641 
L 382.907498 176.630234 
L 388.233072 178.131146 
L 393.844342 178.030971 
L 395.529502 177.933503 
L 399.163198 177.841694 
L 400.665334 177.763669 
L 405.859198 177.657834 
L 408.434904 177.579809 
L 418.753462 177.479633 
L 420.534554 177.454519 
L 433 177.513102 
L 433 177.513102 
" clip-path="url(#p9e1266a07b)" style="fill: none; stroke: #3690c0; stroke-width: 1.5; stroke-linecap: square"/>
   </g>
   <g id="line2d_15">
    <path d="M 54 59.277534 
L 388.8 59.277534 
" clip-path="url(#p9e1266a07b)" style="fill: none; stroke-dasharray: 1.11,0.48; stroke-dashoffset: 0; stroke: #ff0000; stroke-width: 0.3"/>
   </g>
   <g id="patch_3">
    <path d="M 54 184.896 
L 54 51.84 
" style="fill: none; stroke: #000000; stroke-width: 0.5; stroke-linejoin: miter; stroke-linecap: square"/>
   </g>
   <g id="patch_4">
    <path d="M 54 184.896 
L 388.8 184.896 
" style="fill: none; stroke: #000000; stroke-width: 0.5; stroke-linejoin: miter; stroke-linecap: square"/>
   </g>
   <g id="text_15">
    <!-- Dynamic TGA -->
    <g transform="translate(184.062187 45.84) scale(0.12 -0.12)">
     <defs>
      <path id="Helvetica-44" d="M 2250 531 
Q 2566 531 2769 597 
Q 3131 719 3363 1066 
Q 3547 1344 3628 1778 
Q 3675 2038 3675 2259 
Q 3675 3113 3336 3584 
Q 2997 4056 2244 4056 
L 1141 4056 
L 1141 531 
L 2250 531 
z
M 516 4591 
L 2375 4591 
Q 3322 4591 3844 3919 
Q 4309 3313 4309 2366 
Q 4309 1634 4034 1044 
Q 3550 0 2369 0 
L 516 0 
L 516 4591 
z
" transform="scale(0.015625)"/>
      <path id="Helvetica-79" d="M 2503 3347 
L 3125 3347 
Q 3006 3025 2597 1878 
Q 2291 1016 2084 472 
Q 1597 -809 1397 -1090 
Q 1197 -1372 709 -1372 
Q 591 -1372 527 -1362 
Q 463 -1353 369 -1328 
L 369 -816 
Q 516 -856 581 -865 
Q 647 -875 697 -875 
Q 853 -875 926 -823 
Q 1000 -772 1050 -697 
Q 1066 -672 1162 -440 
Q 1259 -209 1303 -97 
L 66 3347 
L 703 3347 
L 1600 622 
L 2503 3347 
z
M 1597 3428 
L 1597 3428 
z
" transform="scale(0.015625)"/>
      <path id="Helvetica-6e" d="M 413 3347 
L 947 3347 
L 947 2872 
Q 1184 3166 1450 3294 
Q 1716 3422 2041 3422 
Q 2753 3422 3003 2925 
Q 3141 2653 3141 2147 
L 3141 0 
L 2569 0 
L 2569 2109 
Q 2569 2416 2478 2603 
Q 2328 2916 1934 2916 
Q 1734 2916 1606 2875 
Q 1375 2806 1200 2600 
Q 1059 2434 1017 2257 
Q 975 2081 975 1753 
L 975 0 
L 413 0 
L 413 3347 
z
M 1734 3428 
L 1734 3428 
z
" transform="scale(0.015625)"/>
      <path id="Helvetica-69" d="M 413 3331 
L 984 3331 
L 984 0 
L 413 0 
L 413 3331 
z
M 413 4591 
L 984 4591 
L 984 3953 
L 413 3953 
L 413 4591 
z
" transform="scale(0.015625)"/>
      <path id="Helvetica-63" d="M 1703 3444 
Q 2269 3444 2623 3169 
Q 2978 2894 3050 2222 
L 2503 2222 
Q 2453 2531 2275 2736 
Q 2097 2941 1703 2941 
Q 1166 2941 934 2416 
Q 784 2075 784 1575 
Q 784 1072 996 728 
Q 1209 384 1666 384 
Q 2016 384 2220 598 
Q 2425 813 2503 1184 
L 3050 1184 
Q 2956 519 2581 211 
Q 2206 -97 1622 -97 
Q 966 -97 575 383 
Q 184 863 184 1581 
Q 184 2463 612 2953 
Q 1041 3444 1703 3444 
z
M 1616 3428 
L 1616 3428 
z
" transform="scale(0.015625)"/>
      <path id="Helvetica-47" d="M 2472 4709 
Q 3119 4709 3591 4459 
Q 4275 4100 4428 3200 
L 3813 3200 
Q 3700 3703 3347 3933 
Q 2994 4163 2456 4163 
Q 1819 4163 1383 3684 
Q 947 3206 947 2259 
Q 947 1441 1306 927 
Q 1666 413 2478 413 
Q 3100 413 3508 773 
Q 3916 1134 3925 1941 
L 2488 1941 
L 2488 2456 
L 4503 2456 
L 4503 0 
L 4103 0 
L 3953 591 
Q 3638 244 3394 109 
Q 2984 -122 2353 -122 
Q 1538 -122 950 406 
Q 309 1069 309 2225 
Q 309 3378 934 4059 
Q 1528 4709 2472 4709 
z
M 2369 4716 
L 2369 4716 
z
" transform="scale(0.015625)"/>
      <path id="Helvetica-41" d="M 2844 1881 
L 2147 3909 
L 1406 1881 
L 2844 1881 
z
M 1822 4591 
L 2525 4591 
L 4191 0 
L 3509 0 
L 3044 1375 
L 1228 1375 
L 731 0 
L 94 0 
L 1822 4591 
z
" transform="scale(0.015625)"/>
     </defs>
     <use xlink:href="#Helvetica-44"/>
     <use xlink:href="#Helvetica-79" x="72.216797"/>
     <use xlink:href="#Helvetica-6e" x="122.216797"/>
     <use xlink:href="#Helvetica-61" x="177.832031"/>
     <use xlink:href="#Helvetica-6d" x="233.447266"/>
     <use xlink:href="#Helvetica-69" x="316.748047"/>
     <use xlink:href="#Helvetica-63" x="338.964844"/>
     <use xlink:href="#Helvetica-20" x="388.964844"/>
     <use xlink:href="#Helvetica-54" x="416.748047"/>
     <use xlink:href="#Helvetica-47" x="477.832031"/>
     <use xlink:href="#Helvetica-41" x="555.615234"/>
    </g>
   </g>
   <g id="legend_1">
    <g id="patch_5">
     <path d="M 61 179.896 
L 221.3 179.896 
Q 223.3 179.896 223.3 177.896 
L 223.3 134.880375 
Q 223.3 132.880375 221.3 132.880375 
L 61 132.880375 
Q 59 132.880375 59 134.880375 
L 59 177.896 
Q 59 179.896 61 179.896 
z
" style="fill: #ffffff; opacity: 0.8; stroke: #cccccc; stroke-linejoin: miter"/>
    </g>
    <g id="line2d_16">
     <path d="M 63 140.553812 
L 73 140.553812 
L 83 140.553812 
" style="fill: none; stroke: #969696; stroke-width: 1.5; stroke-linecap: square"/>
    </g>
    <g id="text_16">
     <!-- PS-19.6K -->
     <g transform="translate(91 144.053812) scale(0.1 -0.1)">
      <defs>
       <path id="Helvetica-50" d="M 547 4591 
L 2613 4591 
Q 3225 4591 3600 4245 
Q 3975 3900 3975 3275 
Q 3975 2738 3640 2339 
Q 3306 1941 2613 1941 
L 1169 1941 
L 1169 0 
L 547 0 
L 547 4591 
z
M 3347 3272 
Q 3347 3778 2972 3959 
Q 2766 4056 2406 4056 
L 1169 4056 
L 1169 2466 
L 2406 2466 
Q 2825 2466 3086 2644 
Q 3347 2822 3347 3272 
z
" transform="scale(0.015625)"/>
       <path id="Helvetica-53" d="M 894 1481 
Q 916 1091 1078 847 
Q 1388 391 2169 391 
Q 2519 391 2806 491 
Q 3363 684 3363 1184 
Q 3363 1559 3128 1719 
Q 2891 1875 2384 1991 
L 1763 2131 
Q 1153 2269 900 2434 
Q 463 2722 463 3294 
Q 463 3913 891 4309 
Q 1319 4706 2103 4706 
Q 2825 4706 3329 4357 
Q 3834 4009 3834 3244 
L 3250 3244 
Q 3203 3613 3050 3809 
Q 2766 4169 2084 4169 
Q 1534 4169 1293 3937 
Q 1053 3706 1053 3400 
Q 1053 3063 1334 2906 
Q 1519 2806 2169 2656 
L 2813 2509 
Q 3278 2403 3531 2219 
Q 3969 1897 3969 1284 
Q 3969 522 3414 194 
Q 2859 -134 2125 -134 
Q 1269 -134 784 303 
Q 300 738 309 1481 
L 894 1481 
z
M 2150 4716 
L 2150 4716 
z
" transform="scale(0.015625)"/>
       <path id="Helvetica-2d" d="M 266 2072 
L 1834 2072 
L 1834 1494 
L 266 1494 
L 266 2072 
z
" transform="scale(0.015625)"/>
       <path id="Helvetica-39" d="M 850 1081 
Q 875 616 1209 438 
Q 1381 344 1597 344 
Q 2000 344 2284 680 
Q 2569 1016 2688 2044 
Q 2500 1747 2223 1626 
Q 1947 1506 1628 1506 
Q 981 1506 604 1909 
Q 228 2313 228 2947 
Q 228 3556 600 4018 
Q 972 4481 1697 4481 
Q 2675 4481 3047 3600 
Q 3253 3116 3253 2388 
Q 3253 1566 3006 931 
Q 2597 -125 1619 -125 
Q 963 -125 622 219 
Q 281 563 281 1081 
L 850 1081 
z
M 1703 2000 
Q 2038 2000 2314 2220 
Q 2591 2441 2591 2991 
Q 2591 3484 2342 3726 
Q 2094 3969 1709 3969 
Q 1297 3969 1055 3692 
Q 813 3416 813 2953 
Q 813 2516 1025 2258 
Q 1238 2000 1703 2000 
z
" transform="scale(0.015625)"/>
       <path id="Helvetica-2e" d="M 547 681 
L 1200 681 
L 1200 0 
L 547 0 
L 547 681 
z
" transform="scale(0.015625)"/>
       <path id="Helvetica-4b" d="M 488 4591 
L 1094 4591 
L 1094 2353 
L 3331 4591 
L 4191 4591 
L 2281 2741 
L 4244 0 
L 3434 0 
L 1828 2303 
L 1094 1600 
L 1094 0 
L 488 0 
L 488 4591 
z
" transform="scale(0.015625)"/>
      </defs>
      <use xlink:href="#Helvetica-50"/>
      <use xlink:href="#Helvetica-53" x="66.699219"/>
      <use xlink:href="#Helvetica-2d" x="133.398438"/>
      <use xlink:href="#Helvetica-31" x="166.699219"/>
      <use xlink:href="#Helvetica-39" x="222.314453"/>
      <use xlink:href="#Helvetica-2e" x="277.929688"/>
      <use xlink:href="#Helvetica-36" x="305.712891"/>
      <use xlink:href="#Helvetica-4b" x="361.328125"/>
     </g>
    </g>
    <g id="line2d_17">
     <path d="M 63 154.811625 
L 73 154.811625 
L 83 154.811625 
" style="fill: none; stroke: #3690c0; stroke-width: 1.5; stroke-linecap: square"/>
    </g>
    <g id="text_17">
     <!-- PS-19.6K-SCF$_{3}$ -->
     <g transform="translate(91 158.311625) scale(0.1 -0.1)">
      <defs>
       <path id="Helvetica-46" d="M 547 4591 
L 3731 4591 
L 3731 4028 
L 1169 4028 
L 1169 2634 
L 3422 2634 
L 3422 2088 
L 1169 2088 
L 1169 0 
L 547 0 
L 547 4591 
z
" transform="scale(0.015625)"/>
       <path id="DejaVuSans-33" d="M 2597 2516 
Q 3050 2419 3304 2112 
Q 3559 1806 3559 1356 
Q 3559 666 3084 287 
Q 2609 -91 1734 -91 
Q 1441 -91 1130 -33 
Q 819 25 488 141 
L 488 750 
Q 750 597 1062 519 
Q 1375 441 1716 441 
Q 2309 441 2620 675 
Q 2931 909 2931 1356 
Q 2931 1769 2642 2001 
Q 2353 2234 1838 2234 
L 1294 2234 
L 1294 2753 
L 1863 2753 
Q 2328 2753 2575 2939 
Q 2822 3125 2822 3475 
Q 2822 3834 2567 4026 
Q 2313 4219 1838 4219 
Q 1578 4219 1281 4162 
Q 984 4106 628 3988 
L 628 4550 
Q 988 4650 1302 4700 
Q 1616 4750 1894 4750 
Q 2613 4750 3031 4423 
Q 3450 4097 3450 3541 
Q 3450 3153 3228 2886 
Q 3006 2619 2597 2516 
z
" transform="scale(0.015625)"/>
      </defs>
      <use xlink:href="#Helvetica-50" transform="translate(0 0.3125)"/>
      <use xlink:href="#Helvetica-53" transform="translate(66.699219 0.3125)"/>
      <use xlink:href="#Helvetica-2d" transform="translate(133.398438 0.3125)"/>
      <use xlink:href="#Helvetica-31" transform="translate(166.699219 0.3125)"/>
      <use xlink:href="#Helvetica-39" transform="translate(222.314453 0.3125)"/>
      <use xlink:href="#Helvetica-2e" transform="translate(277.929688 0.3125)"/>
      <use xlink:href="#Helvetica-36" transform="translate(305.712891 0.3125)"/>
      <use xlink:href="#Helvetica-4b" transform="translate(361.328125 0.3125)"/>
      <use xlink:href="#Helvetica-2d" transform="translate(428.027344 0.3125)"/>
      <use xlink:href="#Helvetica-53" transform="translate(461.328125 0.3125)"/>
      <use xlink:href="#Helvetica-43" transform="translate(528.027344 0.3125)"/>
      <use xlink:href="#Helvetica-46" transform="translate(600.244141 0.3125)"/>
      <use xlink:href="#DejaVuSans-33" transform="translate(662.285156 -16.09375) scale(0.7)"/>
     </g>
    </g>
    <g id="line2d_18">
     <path d="M 63 169.196 
L 73 169.196 
L 83 169.196 
" style="fill: none; stroke-dasharray: 1.11,0.48; stroke-dashoffset: 0; stroke: #ff0000; stroke-width: 0.3"/>
    </g>
    <g id="text_18">
     <!-- $T_\mathregular{depolymerization}$ at 99.5% Mass -->
     <g transform="translate(91 172.696) scale(0.1 -0.1)">
      <defs>
       <path id="DejaVuSans-Oblique-54" d="M 378 4666 
L 4325 4666 
L 4225 4134 
L 2559 4134 
L 1759 0 
L 1125 0 
L 1925 4134 
L 275 4134 
L 378 4666 
z
" transform="scale(0.015625)"/>
       <path id="Helvetica-64" d="M 769 1634 
Q 769 1097 997 734 
Q 1225 372 1728 372 
Q 2119 372 2370 708 
Q 2622 1044 2622 1672 
Q 2622 2306 2362 2611 
Q 2103 2916 1722 2916 
Q 1297 2916 1033 2591 
Q 769 2266 769 1634 
z
M 1616 3406 
Q 2000 3406 2259 3244 
Q 2409 3150 2600 2916 
L 2600 4606 
L 3141 4606 
L 3141 0 
L 2634 0 
L 2634 466 
Q 2438 156 2169 18 
Q 1900 -119 1553 -119 
Q 994 -119 584 351 
Q 175 822 175 1603 
Q 175 2334 548 2870 
Q 922 3406 1616 3406 
z
" transform="scale(0.015625)"/>
       <path id="Helvetica-6f" d="M 1741 363 
Q 2300 363 2508 786 
Q 2716 1209 2716 1728 
Q 2716 2197 2566 2491 
Q 2328 2953 1747 2953 
Q 1231 2953 997 2559 
Q 763 2166 763 1609 
Q 763 1075 997 719 
Q 1231 363 1741 363 
z
M 1763 3444 
Q 2409 3444 2856 3012 
Q 3303 2581 3303 1744 
Q 3303 934 2909 406 
Q 2516 -122 1688 -122 
Q 997 -122 590 345 
Q 184 813 184 1600 
Q 184 2444 612 2944 
Q 1041 3444 1763 3444 
z
M 1744 3428 
L 1744 3428 
z
" transform="scale(0.015625)"/>
       <path id="Helvetica-6c" d="M 428 4591 
L 991 4591 
L 991 0 
L 428 0 
L 428 4591 
z
" transform="scale(0.015625)"/>
       <path id="Helvetica-72" d="M 428 3347 
L 963 3347 
L 963 2769 
Q 1028 2938 1284 3180 
Q 1541 3422 1875 3422 
Q 1891 3422 1928 3419 
Q 1966 3416 2056 3406 
L 2056 2813 
Q 2006 2822 1964 2825 
Q 1922 2828 1872 2828 
Q 1447 2828 1219 2554 
Q 991 2281 991 1925 
L 991 0 
L 428 0 
L 428 3347 
z
" transform="scale(0.015625)"/>
       <path id="Helvetica-7a" d="M 163 444 
L 2147 2844 
L 309 2844 
L 309 3347 
L 2903 3347 
L 2903 2888 
L 931 503 
L 2963 503 
L 2963 0 
L 163 0 
L 163 444 
z
M 1609 3428 
L 1609 3428 
z
" transform="scale(0.015625)"/>
       <path id="Helvetica-74" d="M 525 4281 
L 1094 4281 
L 1094 3347 
L 1628 3347 
L 1628 2888 
L 1094 2888 
L 1094 703 
Q 1094 528 1213 469 
Q 1278 434 1431 434 
Q 1472 434 1519 436 
Q 1566 438 1628 444 
L 1628 0 
Q 1531 -28 1426 -40 
Q 1322 -53 1200 -53 
Q 806 -53 665 148 
Q 525 350 525 672 
L 525 2888 
L 72 2888 
L 72 3347 
L 525 3347 
L 525 4281 
z
" transform="scale(0.015625)"/>
      </defs>
      <use xlink:href="#DejaVuSans-Oblique-54" transform="translate(0 0.09375)"/>
      <use xlink:href="#Helvetica-64" transform="translate(61.083984 -16.3125) scale(0.7)"/>
      <use xlink:href="#Helvetica-65" transform="translate(100.014648 -16.3125) scale(0.7)"/>
      <use xlink:href="#Helvetica-70" transform="translate(138.945312 -16.3125) scale(0.7)"/>
      <use xlink:href="#Helvetica-6f" transform="translate(177.875977 -16.3125) scale(0.7)"/>
      <use xlink:href="#Helvetica-6c" transform="translate(216.806641 -16.3125) scale(0.7)"/>
      <use xlink:href="#Helvetica-79" transform="translate(232.358398 -16.3125) scale(0.7)"/>
      <use xlink:href="#Helvetica-6d" transform="translate(267.358398 -16.3125) scale(0.7)"/>
      <use xlink:href="#Helvetica-65" transform="translate(325.668945 -16.3125) scale(0.7)"/>
      <use xlink:href="#Helvetica-72" transform="translate(364.599609 -16.3125) scale(0.7)"/>
      <use xlink:href="#Helvetica-69" transform="translate(387.910156 -16.3125) scale(0.7)"/>
      <use xlink:href="#Helvetica-7a" transform="translate(403.461914 -16.3125) scale(0.7)"/>
      <use xlink:href="#Helvetica-61" transform="translate(438.461914 -16.3125) scale(0.7)"/>
      <use xlink:href="#Helvetica-74" transform="translate(477.392578 -16.3125) scale(0.7)"/>
      <use xlink:href="#Helvetica-69" transform="translate(496.84082 -16.3125) scale(0.7)"/>
      <use xlink:href="#Helvetica-6f" transform="translate(512.392578 -16.3125) scale(0.7)"/>
      <use xlink:href="#Helvetica-6e" transform="translate(551.323242 -16.3125) scale(0.7)"/>
      <use xlink:href="#Helvetica-20" transform="translate(592.988281 0.09375)"/>
      <use xlink:href="#Helvetica-61" transform="translate(620.771484 0.09375)"/>
      <use xlink:href="#Helvetica-74" transform="translate(676.386719 0.09375)"/>
      <use xlink:href="#Helvetica-20" transform="translate(704.169922 0.09375)"/>
      <use xlink:href="#Helvetica-39" transform="translate(731.953125 0.09375)"/>
      <use xlink:href="#Helvetica-39" transform="translate(787.568359 0.09375)"/>
      <use xlink:href="#Helvetica-2e" transform="translate(843.183594 0.09375)"/>
      <use xlink:href="#Helvetica-35" transform="translate(870.966797 0.09375)"/>
      <use xlink:href="#Helvetica-25" transform="translate(926.582031 0.09375)"/>
      <use xlink:href="#Helvetica-20" transform="translate(1015.498047 0.09375)"/>
      <use xlink:href="#Helvetica-4d" transform="translate(1043.28125 0.09375)"/>
      <use xlink:href="#Helvetica-61" transform="translate(1126.582031 0.09375)"/>
      <use xlink:href="#Helvetica-73" transform="translate(1182.197266 0.09375)"/>
      <use xlink:href="#Helvetica-73" transform="translate(1232.197266 0.09375)"/>
     </g>
    </g>
   </g>
  </g>
  <g id="axes_2">
   <g id="patch_6">
    <path d="M 54 384.48 
L 388.8 384.48 
L 388.8 251.424 
L 54 251.424 
z
" style="fill: #ffffff"/>
   </g>
   <g id="matplotlib.axis_3">
    <g id="xtick_9">
     <g id="line2d_19">
      <g>
       <use xlink:href="#mfa7923b7cf" x="76.32" y="384.48" style="stroke: #000000; stroke-width: 0.8"/>
      </g>
     </g>
     <g id="text_19">
      <!-- 260 -->
      <g transform="translate(66.310313 396.588125) scale(0.12 -0.12)">
       <use xlink:href="#Helvetica-32"/>
       <use xlink:href="#Helvetica-36" x="55.615234"/>
       <use xlink:href="#Helvetica-30" x="111.230469"/>
      </g>
     </g>
    </g>
    <g id="xtick_10">
     <g id="line2d_20">
      <g>
       <use xlink:href="#mfa7923b7cf" x="120.96" y="384.48" style="stroke: #000000; stroke-width: 0.8"/>
      </g>
     </g>
     <g id="text_20">
      <!-- 280 -->
      <g transform="translate(110.950313 396.588125) scale(0.12 -0.12)">
       <use xlink:href="#Helvetica-32"/>
       <use xlink:href="#Helvetica-38" x="55.615234"/>
       <use xlink:href="#Helvetica-30" x="111.230469"/>
      </g>
     </g>
    </g>
    <g id="xtick_11">
     <g id="line2d_21">
      <g>
       <use xlink:href="#mfa7923b7cf" x="165.6" y="384.48" style="stroke: #000000; stroke-width: 0.8"/>
      </g>
     </g>
     <g id="text_21">
      <!-- 300 -->
      <g transform="translate(155.590313 396.588125) scale(0.12 -0.12)">
       <use xlink:href="#Helvetica-33"/>
       <use xlink:href="#Helvetica-30" x="55.615234"/>
       <use xlink:href="#Helvetica-30" x="111.230469"/>
      </g>
     </g>
    </g>
    <g id="xtick_12">
     <g id="line2d_22">
      <g>
       <use xlink:href="#mfa7923b7cf" x="210.24" y="384.48" style="stroke: #000000; stroke-width: 0.8"/>
      </g>
     </g>
     <g id="text_22">
      <!-- 320 -->
      <g transform="translate(200.230312 396.588125) scale(0.12 -0.12)">
       <use xlink:href="#Helvetica-33"/>
       <use xlink:href="#Helvetica-32" x="55.615234"/>
       <use xlink:href="#Helvetica-30" x="111.230469"/>
      </g>
     </g>
    </g>
    <g id="xtick_13">
     <g id="line2d_23">
      <g>
       <use xlink:href="#mfa7923b7cf" x="254.88" y="384.48" style="stroke: #000000; stroke-width: 0.8"/>
      </g>
     </g>
     <g id="text_23">
      <!-- 340 -->
      <g transform="translate(244.870313 396.588125) scale(0.12 -0.12)">
       <use xlink:href="#Helvetica-33"/>
       <use xlink:href="#Helvetica-34" x="55.615234"/>
       <use xlink:href="#Helvetica-30" x="111.230469"/>
      </g>
     </g>
    </g>
    <g id="xtick_14">
     <g id="line2d_24">
      <g>
       <use xlink:href="#mfa7923b7cf" x="299.52" y="384.48" style="stroke: #000000; stroke-width: 0.8"/>
      </g>
     </g>
     <g id="text_24">
      <!-- 360 -->
      <g transform="translate(289.510313 396.588125) scale(0.12 -0.12)">
       <use xlink:href="#Helvetica-33"/>
       <use xlink:href="#Helvetica-36" x="55.615234"/>
       <use xlink:href="#Helvetica-30" x="111.230469"/>
      </g>
     </g>
    </g>
    <g id="xtick_15">
     <g id="line2d_25">
      <g>
       <use xlink:href="#mfa7923b7cf" x="344.16" y="384.48" style="stroke: #000000; stroke-width: 0.8"/>
      </g>
     </g>
     <g id="text_25">
      <!-- 380 -->
      <g transform="translate(334.150313 396.588125) scale(0.12 -0.12)">
       <use xlink:href="#Helvetica-33"/>
       <use xlink:href="#Helvetica-38" x="55.615234"/>
       <use xlink:href="#Helvetica-30" x="111.230469"/>
      </g>
     </g>
    </g>
    <g id="xtick_16">
     <g id="line2d_26">
      <g>
       <use xlink:href="#mfa7923b7cf" x="388.8" y="384.48" style="stroke: #000000; stroke-width: 0.8"/>
      </g>
     </g>
     <g id="text_26">
      <!-- 400 -->
      <g transform="translate(378.790313 396.588125) scale(0.12 -0.12)">
       <use xlink:href="#Helvetica-34"/>
       <use xlink:href="#Helvetica-30" x="55.615234"/>
       <use xlink:href="#Helvetica-30" x="111.230469"/>
      </g>
     </g>
    </g>
    <g id="text_27">
     <!-- Temp ($^{o}$C) -->
     <g transform="translate(193.26 412.449375) scale(0.12 -0.12)">
      <use xlink:href="#Helvetica-54" transform="translate(0 0.51875)"/>
      <use xlink:href="#Helvetica-65" transform="translate(61.083984 0.51875)"/>
      <use xlink:href="#Helvetica-6d" transform="translate(116.699219 0.51875)"/>
      <use xlink:href="#Helvetica-70" transform="translate(200 0.51875)"/>
      <use xlink:href="#Helvetica-20" transform="translate(255.615234 0.51875)"/>
      <use xlink:href="#Helvetica-28" transform="translate(283.398438 0.51875)"/>
      <use xlink:href="#DejaVuSans-Oblique-6f" transform="translate(317.65625 38.8) scale(0.7)"/>
      <use xlink:href="#Helvetica-43" transform="translate(363.217773 0.51875)"/>
      <use xlink:href="#Helvetica-29" transform="translate(435.43457 0.51875)"/>
     </g>
    </g>
   </g>
   <g id="matplotlib.axis_4">
    <g id="ytick_5">
     <g id="line2d_27">
      <g>
       <use xlink:href="#m12e7c8d37f" x="54" y="361.215488" style="stroke: #000000; stroke-width: 0.8"/>
      </g>
     </g>
     <g id="text_28">
      <!-- 1.4 -->
      <g transform="translate(33.82 365.51955) scale(0.12 -0.12)">
       <use xlink:href="#Helvetica-31"/>
       <use xlink:href="#Helvetica-2e" x="55.615234"/>
       <use xlink:href="#Helvetica-34" x="83.398438"/>
      </g>
     </g>
    </g>
    <g id="ytick_6">
     <g id="line2d_28">
      <g>
       <use xlink:href="#m12e7c8d37f" x="54" y="312.432442" style="stroke: #000000; stroke-width: 0.8"/>
      </g>
     </g>
     <g id="text_29">
      <!-- 1.5 -->
      <g transform="translate(33.82 316.736505) scale(0.12 -0.12)">
       <use xlink:href="#Helvetica-31"/>
       <use xlink:href="#Helvetica-2e" x="55.615234"/>
       <use xlink:href="#Helvetica-35" x="83.398438"/>
      </g>
     </g>
    </g>
    <g id="ytick_7">
     <g id="line2d_29">
      <g>
       <use xlink:href="#m12e7c8d37f" x="54" y="263.649397" style="stroke: #000000; stroke-width: 0.8"/>
      </g>
     </g>
     <g id="text_30">
      <!-- 1.6 -->
      <g transform="translate(33.82 267.95346) scale(0.12 -0.12)">
       <use xlink:href="#Helvetica-31"/>
       <use xlink:href="#Helvetica-2e" x="55.615234"/>
       <use xlink:href="#Helvetica-36" x="83.398438"/>
      </g>
     </g>
    </g>
    <g id="text_31">
     <!-- Ion Current (A) -->
     <g transform="translate(27.31875 357.628875) rotate(-90) scale(0.12 -0.12)">
      <defs>
       <path id="Helvetica-49" d="M 628 4591 
L 1256 4591 
L 1256 0 
L 628 0 
L 628 4591 
z
" transform="scale(0.015625)"/>
       <path id="Helvetica-75" d="M 975 3347 
L 975 1125 
Q 975 869 1056 706 
Q 1206 406 1616 406 
Q 2203 406 2416 931 
Q 2531 1213 2531 1703 
L 2531 3347 
L 3094 3347 
L 3094 0 
L 2563 0 
L 2569 494 
Q 2459 303 2297 172 
Q 1975 -91 1516 -91 
Q 800 -91 541 388 
Q 400 644 400 1072 
L 400 3347 
L 975 3347 
z
M 1747 3428 
L 1747 3428 
z
" transform="scale(0.015625)"/>
      </defs>
      <use xlink:href="#Helvetica-49"/>
      <use xlink:href="#Helvetica-6f" x="27.783203"/>
      <use xlink:href="#Helvetica-6e" x="83.398438"/>
      <use xlink:href="#Helvetica-20" x="139.013672"/>
      <use xlink:href="#Helvetica-43" x="166.796875"/>
      <use xlink:href="#Helvetica-75" x="239.013672"/>
      <use xlink:href="#Helvetica-72" x="294.628906"/>
      <use xlink:href="#Helvetica-72" x="327.929688"/>
      <use xlink:href="#Helvetica-65" x="361.230469"/>
      <use xlink:href="#Helvetica-6e" x="416.845703"/>
      <use xlink:href="#Helvetica-74" x="472.460938"/>
      <use xlink:href="#Helvetica-20" x="500.244141"/>
      <use xlink:href="#Helvetica-28" x="528.027344"/>
      <use xlink:href="#Helvetica-41" x="561.328125"/>
      <use xlink:href="#Helvetica-29" x="628.027344"/>
     </g>
    </g>
    <g id="text_32">
     <!-- 1e−12 -->
     <g transform="translate(54 248.424) scale(0.1 -0.1)">
      <defs>
       <path id="Helvetica-2212" d="M 3547 1894 
L 3547 1369 
L 288 1369 
L 288 1894 
L 3547 1894 
z
" transform="scale(0.015625)"/>
      </defs>
      <use xlink:href="#Helvetica-31"/>
      <use xlink:href="#Helvetica-65" x="55.615234"/>
      <use xlink:href="#Helvetica-2212" x="111.230469"/>
      <use xlink:href="#Helvetica-31" x="169.628906"/>
      <use xlink:href="#Helvetica-32" x="225.244141"/>
     </g>
    </g>
   </g>
   <g id="line2d_30">
    <path d="M 53.917416 333.769659 
L 54.17856 316.091171 
L 54.63612 309.577659 
L 54.9486 342.143756 
L 55.354802 364.475171 
L 55.674 360.753024 
L 56.104754 342.143756 
L 56.43288 342.143756 
L 56.841314 308.647366 
L 57.59352 345.865902 
L 57.914928 335.630732 
L 58.19616 370.057902 
L 58.647024 330.048 
L 58.948344 355.170293 
L 59.392512 354.24 
L 59.67823 334.700439 
L 60.122376 324.465268 
L 60.425928 339.35239 
L 60.870096 354.24 
L 61.171416 332.839366 
L 61.622258 366.336244 
L 62.229384 332.839366 
L 62.651254 336.561024 
L 62.945856 347.726976 
L 63.401206 335.630732 
L 63.706968 360.753024 
L 64.137766 361.683805 
L 64.439064 334.700439 
L 64.758262 349.587561 
L 65.189016 357.961659 
L 65.514888 335.630732 
L 65.950128 339.35239 
L 66.24252 353.309707 
L 66.673274 334.700439 
L 66.96792 345.865902 
L 67.425502 342.143756 
L 67.731286 347.726976 
L 68.168714 352.378927 
L 68.467802 345.865902 
L 68.784746 344.004829 
L 69.19992 355.170293 
L 69.512422 337.491805 
L 69.961032 342.143756 
L 70.255634 357.961659 
L 70.541374 330.978293 
L 71.003398 329.117707 
L 71.427478 335.630732 
L 71.72208 338.422098 
L 72.018936 332.839366 
L 72.45643 330.048 
L 72.777794 350.518341 
L 73.21973 349.587561 
L 73.49431 327.256634 
L 73.95408 351.448634 
L 74.271024 325.395561 
L 74.726374 338.422098 
L 75.02323 327.256634 
L 75.741912 343.074537 
L 76.020912 336.561024 
L 76.491864 339.35239 
L 76.808786 336.561024 
L 77.261904 340.283171 
L 77.54539 366.336244 
L 77.844478 354.24 
L 78.288602 378.432 
L 78.73951 359.822732 
L 79.03188 357.961659 
L 79.32204 333.769659 
L 79.77065 342.143756 
L 80.08092 344.004829 
L 80.527342 344.004829 
L 80.810762 319.812829 
L 81.279459 344.004829 
L 81.580802 373.779561 
L 82.047334 348.657268 
L 82.333008 350.518341 
L 82.616494 335.630732 
L 83.036088 337.491805 
L 83.366446 357.961659 
L 83.803896 358.892439 
L 84.529318 325.395561 
L 85.120754 370.988195 
L 85.602888 323.534488 
L 86.055984 369.12761 
L 86.61847 321.673902 
L 87.060406 355.170293 
L 87.37735 319.812829 
L 87.830446 370.057902 
L 88.093778 338.422098 
L 88.399562 339.35239 
L 88.834802 340.283171 
L 89.138398 343.074537 
L 89.582522 343.074537 
L 89.87719 353.309707 
L 90.330286 331.909073 
L 90.64049 352.378927 
L 91.066802 316.091171 
L 91.383746 354.24 
L 91.803406 331.909073 
L 92.106936 366.336244 
L 92.40377 341.213463 
L 92.852446 351.448634 
L 93.171578 354.24 
L 93.602398 324.465268 
L 93.912602 360.753024 
L 94.64251 319.812829 
L 95.385722 348.657268 
L 95.693738 344.004829 
L 96.113398 369.12761 
L 96.88788 328.186927 
L 97.184714 327.256634 
L 97.588706 356.101073 
L 97.892302 332.839366 
L 98.343144 359.822732 
L 98.642254 356.101073 
L 99.077494 359.822732 
L 99.407786 326.326341 
L 99.691294 313.299805 
L 100.139904 343.074537 
L 100.40549 322.604195 
L 100.858586 332.839366 
L 101.191198 330.048 
L 101.648714 342.143756 
L 101.925459 353.309707 
L 102.211222 335.630732 
L 102.97008 346.796195 
L 103.387486 333.769659 
L 103.691016 344.004829 
L 104.159714 321.673902 
L 104.436459 334.700439 
L 104.889578 342.143756 
L 105.472152 360.753024 
L 105.920762 350.518341 
L 106.248888 319.812829 
L 106.710912 317.951756 
L 106.987658 330.978293 
L 107.427406 326.326341 
L 107.730936 338.422098 
L 108.188541 368.196829 
L 108.463032 369.12761 
L 108.77549 368.196829 
L 109.224144 360.753024 
L 109.516514 347.726976 
L 109.974096 378.432 
L 110.230754 349.587561 
L 110.697286 334.700439 
L 111.000794 374.710341 
L 111.458398 334.700439 
L 111.739586 326.326341 
L 112.179334 357.031366 
L 112.773024 327.256634 
L 113.25065 306.786293 
L 113.489541 338.422098 
L 113.958238 345.865902 
L 114.259514 333.769659 
L 114.694754 337.491805 
L 115.455888 332.839366 
L 115.75049 341.213463 
L 116.214746 336.561024 
L 116.518342 354.24 
L 116.80627 349.587561 
L 117.24151 344.93561 
L 117.542786 353.309707 
L 117.978048 336.561024 
L 118.286064 346.796195 
L 118.712398 333.769659 
L 119.015928 334.700439 
L 119.471278 348.657268 
L 119.774786 345.865902 
L 120.207794 352.378927 
L 120.529246 338.422098 
L 120.82608 345.865902 
L 121.279198 327.256634 
L 121.56043 357.961659 
L 122.026896 339.35239 
L 122.303642 344.93561 
L 122.745578 331.909073 
L 123.033506 341.213463 
L 123.49553 336.561024 
L 123.794618 337.491805 
L 124.252222 356.101073 
L 124.526714 304.925707 
L 124.986506 358.892439 
L 125.283406 330.048 
L 125.732016 363.54439 
L 126.033358 333.769659 
L 126.484222 337.491805 
L 126.75204 355.170293 
L 127.064498 340.283171 
L 127.497506 345.865902 
L 127.812262 321.673902 
L 128.24969 346.796195 
L 128.52869 350.518341 
L 128.85012 343.074537 
L 129.29431 320.74361 
L 129.727318 348.657268 
L 130.048682 314.230098 
L 130.800888 347.726976 
L 131.091048 346.796195 
L 131.378976 357.031366 
L 131.845486 349.587561 
L 132.298538 351.448634 
L 132.56419 317.021463 
L 133.057462 364.475171 
L 133.34539 321.673902 
L 133.798486 329.117707 
L 134.37653 345.865902 
L 134.79619 352.378927 
L 135.119786 332.839366 
L 135.423382 356.101073 
L 135.854136 317.951756 
L 136.296072 331.909073 
L 136.584 336.561024 
L 137.037096 351.448634 
L 137.32277 331.909073 
L 137.784794 341.213463 
L 138.086136 339.35239 
L 138.374064 312.369024 
L 138.813746 327.256634 
L 139.17312 348.657268 
L 139.577112 325.395561 
L 139.858366 300.273268 
L 140.139554 339.35239 
L 140.56812 330.048 
L 141.050254 330.978293 
L 141.340414 346.796195 
L 141.61716 336.561024 
L 142.079206 313.299805 
L 142.373786 364.475171 
L 142.846992 336.561024 
L 143.125992 327.256634 
L 143.572414 331.909073 
L 143.86927 324.465268 
L 144.161618 348.657268 
L 144.612459 330.048 
L 145.041048 348.657268 
L 145.371406 324.465268 
L 145.659334 323.534488 
L 146.083414 349.587561 
L 146.41596 324.465268 
L 146.81551 331.909073 
L 147.116786 362.614098 
L 147.583318 333.769659 
L 147.85781 350.518341 
L 148.185936 350.518341 
L 148.625618 344.004829 
L 148.93812 317.021463 
L 149.35104 352.378927 
L 149.632294 334.700439 
L 150.105478 341.213463 
L 150.411262 327.256634 
L 150.846502 330.048 
L 151.141104 320.74361 
L 151.435706 357.961659 
L 152.174498 360.753024 
L 152.605318 365.405463 
L 152.928936 351.448634 
L 153.368618 327.256634 
L 153.692302 333.769659 
L 153.953446 347.726976 
L 154.256976 325.395561 
L 154.705586 353.309707 
L 155.172096 332.839366 
L 155.91312 345.865902 
L 156.187634 355.170293 
L 156.645238 343.074537 
L 156.93984 328.186927 
L 157.263502 356.101073 
L 157.700952 350.518341 
L 158.00004 351.448634 
L 158.43749 366.336244 
L 158.712048 362.614098 
L 159.205342 339.35239 
L 159.499944 343.074537 
L 159.935206 367.266537 
L 160.238714 350.518341 
L 160.700738 349.587561 
L 160.986478 314.230098 
L 161.267666 372.849268 
L 161.743104 327.256634 
L 162.481896 364.475171 
L 162.754222 321.673902 
L 163.213992 360.753024 
L 163.517522 352.378927 
L 163.95727 352.378927 
L 164.251872 350.518341 
L 164.713896 332.839366 
L 164.997382 331.909073 
L 165.303144 315.16039 
L 165.74508 334.700439 
L 166.086554 323.534488 
L 166.501706 333.769659 
L 166.78296 307.717073 
L 167.539586 362.614098 
L 168.240478 331.909073 
L 168.740446 336.561024 
L 169.450222 358.892439 
L 169.740382 337.491805 
L 170.026056 336.561024 
L 170.479152 353.309707 
L 170.76708 330.048 
L 171.233546 320.74361 
L 171.523706 331.909073 
L 171.967896 362.614098 
L 172.291514 361.683805 
L 172.711152 331.909073 
L 173.025864 341.213463 
L 173.30261 362.614098 
L 173.760214 323.534488 
L 174.04812 329.117707 
L 174.490056 310.508439 
L 174.811486 344.004829 
L 175.275698 335.630732 
L 175.570366 316.091171 
L 176.30023 337.491805 
L 176.603738 348.657268 
L 177.052414 336.561024 
L 177.311326 347.726976 
L 177.782278 341.213463 
L 178.08804 352.378927 
L 178.35588 340.283171 
L 178.824578 306.786293 
L 179.134848 338.422098 
L 179.570088 348.657268 
L 179.887032 353.309707 
L 180.346802 343.074537 
L 180.619128 355.170293 
L 181.061064 366.336244 
L 181.348992 335.630732 
L 181.819944 359.822732 
L 182.10343 337.491805 
L 182.38243 334.700439 
L 182.839968 357.031366 
L 183.143498 338.422098 
L 183.592152 344.004829 
L 183.862246 337.491805 
L 184.621104 302.134341 
L 185.047438 361.683805 
L 185.34204 344.93561 
L 185.799578 349.587561 
L 186.103152 359.822732 
L 186.377666 330.978293 
L 187.145541 350.518341 
L 187.580714 328.186927 
L 187.890984 334.700439 
L 188.335152 340.283171 
L 188.62308 329.117707 
L 189.069502 331.909073 
L 189.39312 334.700439 
L 189.67212 321.673902 
L 190.118498 342.143756 
L 190.424326 346.796195 
L 190.88635 321.673902 
L 191.156422 364.475171 
L 191.901888 299.342488 
L 192.357238 342.143756 
L 192.658514 308.647366 
L 192.944254 363.54439 
L 193.39061 357.031366 
L 193.694206 317.021463 
L 194.14949 348.657268 
L 194.437462 355.170293 
L 194.912856 330.048 
L 195.475342 359.822732 
L 195.894936 305.856 
L 196.656048 333.769659 
L 197.414928 315.16039 
L 197.714016 329.117707 
L 198.153698 303.064634 
L 198.448366 362.614098 
L 198.894722 337.491805 
L 199.204992 329.117707 
L 199.490666 343.074537 
L 199.921486 319.812829 
L 200.22053 353.309707 
L 200.709382 345.865902 
L 201.006238 331.909073 
L 201.428064 364.475171 
L 201.711506 335.630732 
L 202.162414 322.604195 
L 202.477104 345.865902 
L 202.782888 346.796195 
L 203.23373 318.882537 
L 203.499382 338.422098 
L 203.95692 360.753024 
L 204.27835 349.587561 
L 204.718032 340.283171 
L 205.019374 320.74361 
L 205.470238 359.822732 
L 206.061674 323.534488 
L 206.519278 325.395561 
L 206.822786 332.839366 
L 207.258048 359.822732 
L 207.566064 359.822732 
L 208.008 324.465268 
L 208.29816 353.309707 
L 208.757952 354.24 
L 209.048112 325.395561 
L 209.347222 346.796195 
L 209.771302 356.101073 
L 210.112754 343.074537 
L 210.545762 303.994927 
L 210.847104 347.726976 
L 211.284554 353.309707 
L 211.59931 365.405463 
L 212.043478 324.465268 
L 212.33808 330.048 
L 212.76216 346.796195 
L 213.059016 330.048 
L 213.35143 342.143756 
L 213.791112 343.074537 
L 214.094642 330.978293 
L 214.565594 327.256634 
L 214.84908 313.299805 
L 215.277602 341.213463 
L 215.58343 330.978293 
L 216.040968 344.004829 
L 216.322222 329.117707 
L 216.616802 336.561024 
L 217.052064 334.700439 
L 217.366754 323.534488 
L 217.822104 338.422098 
L 218.114541 303.994927 
L 218.551968 335.630732 
L 218.85773 321.673902 
L 219.295246 325.395561 
L 219.598754 309.577659 
L 220.049618 342.143756 
L 220.359888 321.673902 
L 220.627706 349.587561 
L 221.080802 315.16039 
L 221.38884 316.091171 
L 221.821848 341.213463 
L 222.143278 347.726976 
L 222.576286 311.438732 
L 222.911064 334.700439 
L 223.312802 345.865902 
L 223.647602 345.865902 
L 223.919928 340.283171 
L 224.667626 308.647366 
L 225.158666 330.978293 
L 225.40423 330.048 
L 225.830498 312.369024 
L 226.134072 331.909073 
L 226.422 320.74361 
L 226.868422 340.283171 
L 227.187554 314.230098 
L 227.928578 352.378927 
L 228.388414 310.508439 
L 228.667414 346.796195 
L 229.107096 313.299805 
L 229.406206 311.438732 
L 229.714222 351.448634 
L 230.153904 349.587561 
L 230.43065 341.213463 
L 230.908342 346.796195 
L 231.191762 332.839366 
L 231.647112 334.700439 
L 232.106904 331.909073 
L 232.370302 349.587561 
L 232.676064 356.101073 
L 233.144762 332.839366 
L 233.437198 347.726976 
L 233.725104 355.170293 
L 234.151438 350.518341 
L 234.461642 357.961659 
L 234.930406 325.395561 
L 235.187064 327.256634 
L 235.689286 333.769659 
L 236.111112 337.491805 
L 236.39904 320.74361 
L 236.695896 335.630732 
L 237.001658 311.438732 
L 237.698064 361.683805 
L 238.200286 346.796195 
L 238.49712 329.117707 
L 238.95247 309.577659 
L 239.26716 346.796195 
L 239.691262 335.630732 
L 239.974682 336.561024 
L 240.434541 339.35239 
L 240.74923 306.786293 
L 241.048318 372.849268 
L 241.492486 339.35239 
L 241.789342 350.518341 
L 242.231278 346.796195 
L 242.499096 345.865902 
L 242.972302 317.951756 
L 243.27581 317.951756 
L 243.715514 347.726976 
L 244.005674 317.951756 
L 244.293602 345.865902 
L 244.751206 366.336244 
L 245.054714 339.35239 
L 245.478794 337.491805 
L 245.791318 344.004829 
L 246.226514 341.213463 
L 246.54127 340.283171 
L 246.98988 322.604195 
L 247.271112 336.561024 
L 247.55904 326.326341 
L 247.992048 358.892439 
L 248.302318 303.994927 
L 248.744254 328.186927 
L 249.043342 370.988195 
L 249.509786 370.057902 
L 249.802222 335.630732 
L 250.237462 347.726976 
L 250.545478 333.769659 
L 250.851262 351.448634 
L 251.29543 339.35239 
L 251.59896 344.93561 
L 252.043128 341.213463 
L 252.32657 352.378927 
L 252.777478 342.143756 
L 253.067594 350.518341 
L 253.538546 330.978293 
L 253.83096 335.630732 
L 254.127794 344.93561 
L 254.585398 331.909073 
L 255.038494 346.796195 
L 255.321936 346.796195 
L 255.621024 334.700439 
L 256.056286 349.587561 
L 256.362048 330.978293 
L 256.65665 320.74361 
L 257.08073 330.048 
L 257.384326 361.683805 
L 257.853024 355.170293 
L 258.145438 313.299805 
L 258.591794 328.186927 
L 258.881976 314.230098 
L 259.185506 330.978293 
L 259.614072 335.630732 
L 259.946618 348.657268 
L 260.375206 330.978293 
L 260.64751 337.491805 
L 261.102794 352.378927 
L 261.408578 336.561024 
L 261.832658 344.93561 
L 262.14516 332.839366 
L 262.421928 356.101073 
L 262.89288 337.491805 
L 263.18304 331.909073 
L 263.616048 334.700439 
L 263.935246 333.769659 
L 264.368254 307.717073 
L 264.660602 356.101073 
L 265.118206 339.35239 
L 265.417294 321.673902 
L 265.872578 319.812829 
L 266.14939 321.673902 
L 266.441738 331.909073 
L 266.879254 338.422098 
L 267.218541 322.604195 
L 267.658222 333.769659 
L 267.943896 322.604195 
L 268.376904 318.882537 
L 268.702754 313.299805 
L 269.122414 328.186927 
L 269.41927 332.839366 
L 269.70269 329.117707 
L 270.171454 339.35239 
L 270.454896 349.587561 
L 270.878976 331.909073 
L 271.204848 326.326341 
L 271.657944 344.93561 
L 271.950358 324.465268 
L 272.387786 336.561024 
L 272.675714 351.448634 
L 272.98373 331.909073 
L 273.452494 333.769659 
L 273.711406 313.299805 
L 274.010494 341.213463 
L 274.47696 316.091171 
L 274.916642 341.213463 
L 275.22247 338.422098 
L 275.521514 366.336244 
L 275.990278 317.951756 
L 276.287112 339.35239 
L 276.706706 311.438732 
L 277.025904 344.004829 
L 277.329478 337.491805 
L 277.751326 339.35239 
L 278.06153 356.101073 
L 278.514626 336.561024 
L 278.804786 349.587561 
L 279.257904 303.994927 
L 279.561478 341.213463 
L 279.994486 317.021463 
L 280.284602 331.909073 
L 280.59043 317.021463 
L 281.041294 338.422098 
L 281.338128 332.839366 
L 281.780064 335.630732 
L 282.059064 330.048 
L 282.538944 344.004829 
L 282.81569 303.994927 
L 283.268786 330.048 
L 283.563454 326.326341 
L 283.855802 335.630732 
L 284.322334 335.630732 
L 284.603522 331.909073 
L 285.056618 341.213463 
L 285.340104 330.048 
L 285.759698 322.604195 
L 286.076642 333.769659 
L 286.511904 341.213463 
L 286.824406 336.561024 
L 287.261856 337.491805 
L 287.578778 349.587561 
L 287.90023 300.273268 
L 288.32431 349.587561 
L 288.62784 356.101073 
L 289.067522 348.657268 
L 289.359936 337.491805 
L 289.813032 324.465268 
L 290.11212 342.143756 
L 290.540642 312.369024 
L 290.83973 318.882537 
L 291.116498 347.726976 
L 291.571848 337.491805 
L 291.94457 335.630732 
L 292.310618 308.647366 
L 292.591872 337.491805 
L 293.06731 319.812829 
L 293.355238 340.283171 
L 293.79492 336.561024 
L 294.096262 338.422098 
L 294.39977 352.378927 
L 294.837286 327.256634 
L 295.136374 344.004829 
L 295.57831 337.491805 
L 295.890746 323.534488 
L 296.33719 326.326341 
L 296.63851 335.630732 
L 297.053618 331.909073 
L 297.357214 341.213463 
L 297.805802 334.700439 
L 298.120514 350.518341 
L 298.388398 339.35239 
L 298.850422 311.438732 
L 299.14951 305.856 
L 299.604794 346.796195 
L 299.910578 301.203561 
L 300.343586 338.422098 
L 300.636 346.796195 
L 301.098024 324.465268 
L 301.379278 362.614098 
L 301.687294 338.422098 
L 302.149318 336.561024 
L 302.439478 329.117707 
L 302.894762 304.925707 
L 303.247462 317.021463 
L 303.470618 344.004829 
L 303.934896 337.491805 
L 304.394666 322.604195 
L 304.67592 340.283171 
L 304.963848 333.769659 
L 305.401342 330.048 
L 305.825422 337.491805 
L 306.146786 322.604195 
L 306.439222 322.604195 
L 306.894506 329.117707 
L 307.19808 367.266537 
L 307.49719 317.021463 
L 307.939104 328.186927 
L 308.253794 325.395561 
L 308.671222 352.378927 
L 308.985912 357.961659 
L 309.718008 327.256634 
L 309.997008 364.475171 
L 310.452358 348.657268 
L 310.735778 346.796195 
L 311.19557 318.882537 
L 311.503586 342.143756 
L 311.94108 346.796195 
L 312.25577 346.796195 
L 312.72449 348.657268 
L 313.28923 321.673902 
L 313.726658 351.448634 
L 314.05927 335.630732 
L 314.474422 323.534488 
L 314.78688 330.048 
L 315.239976 330.048 
L 315.52123 335.630732 
L 315.987674 312.369024 
L 316.280088 362.614098 
L 316.722024 321.673902 
L 317.009952 351.448634 
L 317.313459 358.892439 
L 317.748722 323.534488 
L 318.04781 328.186927 
L 318.496486 326.326341 
L 318.831286 367.266537 
L 319.257554 353.309707 
L 319.527626 322.604195 
L 319.97849 307.717073 
L 320.295478 334.700439 
L 320.583406 349.587561 
L 321.01416 332.839366 
L 321.31327 342.143756 
L 321.764112 339.35239 
L 322.067642 324.465268 
L 322.505136 297.481902 
L 322.813152 326.326341 
L 323.540762 331.909073 
L 323.844358 333.769659 
L 324.297454 329.117707 
L 324.609912 340.283171 
L 325.047406 338.422098 
L 325.339754 336.561024 
L 325.797358 314.230098 
L 326.085286 313.299805 
L 326.536128 365.405463 
L 327.283848 336.561024 
L 327.556152 282.594293 
L 327.986928 326.326341 
L 328.306104 320.74361 
L 328.752459 324.465268 
L 329.031459 330.048 
L 329.332802 314.230098 
L 329.810494 333.769659 
L 330.087262 351.448634 
L 330.857302 331.909073 
L 331.281382 342.143756 
L 331.602746 345.865902 
L 332.352698 317.951756 
L 332.79912 336.561024 
L 333.07812 328.186927 
L 333.38165 344.004829 
L 334.142762 348.657268 
L 334.602554 344.004829 
L 334.86151 309.577659 
L 335.33465 317.951756 
L 335.627064 342.143756 
L 336.08016 314.230098 
L 336.361414 326.326341 
L 336.647088 329.117707 
L 337.11804 302.134341 
L 337.843462 331.909073 
L 338.153666 305.856 
L 338.879088 333.769659 
L 339.182618 303.064634 
L 339.62904 318.882537 
L 340.07765 341.213463 
L 340.669152 309.577659 
L 341.131198 330.978293 
L 341.41243 330.048 
L 341.856554 350.518341 
L 342.180238 350.518341 
L 342.602064 340.283171 
L 342.903406 344.004829 
L 343.349762 358.892439 
L 343.653358 314.230098 
L 343.941286 320.74361 
L 344.40331 340.283171 
L 344.657714 337.491805 
L 345.133152 321.673902 
L 345.432262 346.796195 
L 345.889778 349.587561 
L 346.197794 344.004829 
L 346.63973 328.186927 
L 346.943326 324.465268 
L 347.220072 342.143756 
L 347.675422 314.230098 
L 347.98788 329.117707 
L 348.409706 321.673902 
L 348.72223 347.726976 
L 349.141802 305.856 
L 349.454326 329.117707 
L 349.88508 339.35239 
L 350.18861 322.604195 
L 350.494438 335.630732 
L 350.956462 337.491805 
L 351.242136 337.491805 
L 351.686326 336.561024 
L 352.001016 325.395561 
L 352.454112 350.518341 
L 352.748714 322.604195 
L 353.20181 343.074537 
L 353.489738 329.117707 
L 353.942856 348.657268 
L 354.221856 332.839366 
L 354.51869 353.309707 
L 354.965112 336.561024 
L 355.268642 315.16039 
L 355.703904 306.786293 
L 355.996318 339.35239 
L 356.444928 345.865902 
L 356.752944 340.283171 
L 357.054286 341.213463 
L 357.480554 326.326341 
L 357.808658 324.465268 
L 358.250594 333.769659 
L 358.543008 332.839366 
L 358.984944 341.213463 
L 359.74831 316.091171 
L 360.12996 319.812829 
L 360.324144 352.378927 
L 360.779494 333.769659 
L 361.08077 302.134341 
L 361.817374 318.882537 
L 362.26373 330.978293 
L 362.54273 358.892439 
L 363.011494 345.865902 
L 363.294936 317.021463 
L 363.761446 348.657268 
L 364.03596 308.647366 
L 364.348462 319.812829 
L 364.810486 324.465268 
L 365.105088 333.769659 
L 365.547024 353.309707 
L 365.848366 332.839366 
L 366.296976 330.048 
L 366.573722 306.786293 
L 367.042486 333.769659 
L 367.34827 312.369024 
L 367.633944 338.422098 
L 368.064698 320.74361 
L 368.807976 340.283171 
L 369.115992 337.491805 
L 369.562414 328.186927 
L 369.872618 328.186927 
L 370.30788 330.048 
L 370.64047 330.048 
L 371.055578 338.422098 
L 371.363594 310.508439 
L 371.656008 322.604195 
L 372.097944 350.518341 
L 372.401541 326.326341 
L 372.852382 333.769659 
L 373.15147 318.882537 
L 373.62461 344.004829 
L 373.892494 319.812829 
L 374.33443 330.048 
L 374.64912 361.683805 
L 375.088802 328.186927 
L 375.394586 334.700439 
L 375.678072 332.839366 
L 376.120008 310.508439 
L 376.407936 351.448634 
L 376.86996 311.438732 
L 377.157888 326.326341 
L 377.613238 335.630732 
L 377.898912 310.508439 
L 378.345334 335.630732 
L 378.637682 326.326341 
L 378.954626 331.909073 
L 379.403302 310.508439 
L 379.682302 316.091171 
L 380.130912 316.091171 
L 380.414398 346.796195 
L 380.876422 335.630732 
L 381.17551 345.865902 
L 381.62412 346.796195 
L 381.912048 320.74361 
L 382.331642 319.812829 
L 382.662 330.048 
L 382.96553 359.822732 
L 383.376262 327.256634 
L 383.69988 333.769659 
L 384.137374 326.326341 
L 384.440904 341.213463 
L 384.945358 318.882537 
L 385.190856 336.561024 
L 385.62161 318.882537 
L 385.920698 345.865902 
L 386.217554 315.16039 
L 386.65949 344.004829 
L 386.96081 339.35239 
L 387.384912 326.326341 
L 387.721944 349.587561 
L 388.188454 349.587561 
L 389.295459 326.326341 
L 389.295459 326.326341 
" clip-path="url(#pba221feff1)" style="fill: none; stroke: #969696; stroke-width: 1.5; stroke-linecap: square"/>
   </g>
   <g id="line2d_31">
    <path d="M 54.189742 348.657268 
L 54.439726 322.604195 
L 54.921794 323.534488 
L 55.218694 320.74361 
L 55.660608 340.283171 
L 55.966392 323.534488 
L 56.392726 340.283171 
L 56.694024 341.213463 
L 57.144888 309.577659 
L 57.443976 277.011561 
L 57.885912 323.534488 
L 58.171608 316.091171 
L 58.903726 331.909073 
L 59.238504 325.395561 
L 59.6916 304.925707 
L 59.977274 333.769659 
L 60.417 346.796195 
L 60.70716 346.796195 
L 61.164742 330.048 
L 61.46825 331.909073 
L 61.91244 313.299805 
L 62.211528 347.726976 
L 62.646746 280.733707 
L 62.957016 303.064634 
L 63.256104 343.074537 
L 63.680206 314.230098 
L 64.135512 307.717073 
L 64.74708 329.117707 
L 65.184552 307.717073 
L 65.490314 328.186927 
L 65.91888 332.839366 
L 66.235802 330.978293 
L 66.66881 302.134341 
L 66.992472 317.021463 
L 67.271472 309.577659 
L 67.711198 350.518341 
L 68.032562 332.839366 
L 68.474498 300.273268 
L 68.773586 323.534488 
L 69.213334 309.577659 
L 69.501262 315.16039 
L 69.961032 329.117707 
L 70.251214 307.717073 
L 70.677459 331.909073 
L 71.293514 305.856 
L 71.726522 305.856 
L 72.48096 328.186927 
L 72.78449 310.508439 
L 73.224238 302.134341 
L 73.516586 334.700439 
L 73.969682 325.395561 
L 74.237522 311.438732 
L 74.556698 317.951756 
L 74.998634 304.925707 
L 75.286562 331.909073 
L 75.724056 320.74361 
L 76.181594 292.829463 
L 76.491864 314.230098 
L 76.759682 347.726976 
L 77.226214 316.091171 
L 77.536462 329.117707 
L 77.980586 314.230098 
L 78.413594 332.839366 
L 78.71719 313.299805 
L 79.027438 313.299805 
L 79.478302 331.909073 
L 79.752794 332.839366 
L 80.18357 330.048 
L 80.475984 313.299805 
L 80.906738 337.491805 
L 81.221494 316.091171 
L 81.681286 326.326341 
L 81.975888 339.35239 
L 82.283904 278.872634 
L 82.696802 330.978293 
L 83.04053 308.647366 
L 83.473538 293.759756 
L 83.908778 317.951756 
L 84.221302 291.899171 
L 84.634222 319.812829 
L 84.964514 330.048 
L 85.245746 300.273268 
L 85.69661 331.909073 
L 85.98235 317.021463 
L 86.43096 323.534488 
L 86.87957 321.673902 
L 87.17647 296.551122 
L 87.484486 342.143756 
L 87.917494 303.064634 
L 88.209864 317.021463 
L 88.68749 302.134341 
L 88.970976 303.064634 
L 89.42184 321.673902 
L 89.729856 321.673902 
L 90.16061 326.326341 
L 90.939578 306.786293 
L 91.214136 339.35239 
L 91.508738 291.899171 
L 91.964088 332.839366 
L 92.426112 333.769659 
L 92.707366 302.134341 
L 93.45281 329.117707 
L 93.738506 281.664 
L 94.173746 316.091171 
L 94.63577 310.508439 
L 95.35896 331.909073 
L 95.972738 286.316439 
L 96.437016 317.021463 
L 96.736104 310.508439 
L 97.171366 307.717073 
L 97.45704 289.107805 
L 97.903462 307.717073 
L 98.211478 326.326341 
L 98.68243 310.508439 
L 98.972546 313.299805 
L 99.41004 308.647366 
L 99.709128 348.657268 
L 99.983642 303.994927 
L 100.418904 325.395561 
L 100.75819 322.604195 
L 101.188944 308.647366 
L 101.488032 316.091171 
L 101.943382 303.064634 
L 102.233498 301.203561 
L 102.700008 325.395561 
L 102.999096 305.856 
L 103.278096 306.786293 
L 103.733446 310.508439 
L 104.155294 308.647366 
L 104.46773 344.004829 
L 104.918594 302.134341 
L 105.213262 319.812829 
L 105.510096 353.309707 
L 106.273462 315.16039 
L 106.710912 310.508439 
L 107.014486 308.647366 
L 107.451936 296.551122 
L 107.78004 317.951756 
L 108.181778 321.673902 
L 108.50765 313.299805 
L 108.942912 330.048 
L 109.255414 314.230098 
L 109.683936 321.673902 
L 110.00088 341.213463 
L 110.43612 303.064634 
L 110.744136 328.186927 
L 111.49853 313.299805 
L 111.77753 326.326341 
L 112.221698 341.213463 
L 112.520786 309.577659 
L 112.98281 306.786293 
L 113.286406 300.273268 
L 113.71716 314.230098 
L 114.011762 336.561024 
L 114.469366 338.422098 
L 114.763968 317.021463 
L 115.201462 298.412195 
L 115.500506 298.412195 
L 115.935746 324.465268 
L 116.217 317.021463 
L 116.53169 317.021463 
L 116.973626 308.647366 
L 117.315144 331.909073 
L 117.741478 284.455366 
L 118.022666 327.256634 
L 118.469088 315.16039 
L 118.750342 300.273268 
L 119.203438 351.448634 
L 119.52257 298.412195 
L 119.799382 316.091171 
L 120.250246 332.839366 
L 120.524738 298.412195 
L 120.98453 324.465268 
L 121.294778 298.412195 
L 121.741222 308.647366 
L 122.006786 298.412195 
L 122.475506 303.064634 
L 122.772406 299.342488 
L 123.205414 324.465268 
L 123.522358 332.839366 
L 123.814706 319.812829 
L 124.261128 314.230098 
L 124.542382 307.717073 
L 125.002152 291.899171 
L 125.296754 320.74361 
L 125.732016 315.16039 
L 126.040032 316.091171 
L 126.490896 332.839366 
L 126.796658 322.604195 
L 127.064498 286.316439 
L 127.548864 325.395561 
L 127.823422 301.203561 
L 128.28096 299.342488 
L 128.564446 290.038098 
L 129.028658 311.438732 
L 129.327746 303.064634 
L 129.769682 299.342488 
L 130.046494 312.369024 
L 130.490618 304.925707 
L 130.812048 318.882537 
L 131.108904 317.021463 
L 131.557514 316.091171 
L 131.841 304.925707 
L 132.28519 307.717073 
L 132.582024 313.299805 
L 133.010546 310.508439 
L 133.316374 307.717073 
L 133.747128 299.342488 
L 134.200246 318.882537 
L 134.488152 324.465268 
L 134.79619 305.856 
L 135.226944 313.299805 
L 135.555048 327.256634 
L 135.985802 318.882537 
L 136.425506 294.690537 
L 136.755864 319.812829 
L 137.017008 313.299805 
L 137.485706 308.647366 
L 137.769214 291.899171 
L 138.162024 323.534488 
L 138.490128 294.690537 
L 138.956594 290.96839 
L 139.253494 298.412195 
L 139.715541 319.812829 
L 139.987778 290.96839 
L 140.291374 308.647366 
L 140.74447 317.021463 
L 141.034586 314.230098 
L 141.483262 301.203561 
L 141.78235 317.951756 
L 142.233214 300.273268 
L 142.538976 307.717073 
L 143.266586 313.299805 
L 143.713008 283.525073 
L 144.30451 344.93561 
L 144.735286 312.369024 
L 145.029888 313.299805 
L 145.485238 356.101073 
L 145.940522 317.021463 
L 146.24635 336.561024 
L 146.52535 322.604195 
L 146.99849 345.865902 
L 147.273048 319.812829 
L 147.714984 322.604195 
L 148.03416 304.925707 
L 148.47835 327.256634 
L 148.797459 309.577659 
L 149.20596 304.925707 
L 149.507302 328.186927 
L 149.79965 303.994927 
L 150.239398 343.074537 
L 150.554088 285.385659 
L 151.002698 302.134341 
L 151.30404 319.812829 
L 151.74823 324.465268 
L 152.053992 278.872634 
L 152.473586 303.064634 
L 152.786088 296.551122 
L 153.502538 327.256634 
L 153.951214 314.230098 
L 154.254722 320.74361 
L 154.569478 317.951756 
L 154.995746 319.812829 
L 155.45335 292.829463 
L 155.745698 317.021463 
L 156.033626 315.16039 
L 156.468888 335.630732 
L 157.252342 314.230098 
L 157.700952 303.994927 
L 158.00004 322.604195 
L 158.417446 324.465268 
L 158.743318 319.812829 
L 159.015578 292.829463 
L 159.47316 316.091171 
L 160.20077 300.273268 
L 160.65612 319.812829 
L 160.919541 313.299805 
L 161.254318 311.438732 
L 161.694 297.481902 
L 162.16051 312.369024 
L 162.435024 312.369024 
L 162.870286 318.882537 
L 163.196136 326.326341 
L 163.492992 320.74361 
L 163.943856 304.925707 
L 164.24069 320.74361 
L 164.662538 302.134341 
L 164.979459 333.769659 
L 165.280802 303.994927 
L 165.70265 302.134341 
L 166.153514 296.551122 
L 166.439254 328.186927 
L 166.89235 322.604195 
L 167.186952 269.567756 
L 167.64449 307.717073 
L 167.943578 353.309707 
L 168.392254 319.812829 
L 168.65784 320.74361 
L 169.122096 326.326341 
L 169.416698 319.812829 
L 169.715786 305.856 
L 170.182318 321.673902 
L 170.537206 324.465268 
L 170.753666 317.021463 
L 171.21569 296.551122 
L 171.666554 333.769659 
L 172.412064 316.091171 
L 172.70892 319.812829 
L 173.141928 330.048 
L 173.44327 307.717073 
L 173.909714 329.117707 
L 174.21331 270.498537 
L 174.949848 330.048 
L 175.25119 343.074537 
L 175.681944 328.186927 
L 175.95869 302.134341 
L 176.422968 330.048 
L 176.708642 324.465268 
L 177.177406 307.717073 
L 177.764422 330.978293 
L 178.242048 294.690537 
L 178.51212 336.561024 
L 178.951802 314.230098 
L 179.250912 316.091171 
L 179.68392 320.74361 
L 179.99419 333.769659 
L 180.445032 302.134341 
L 180.710618 319.812829 
L 181.148112 333.769659 
L 181.462802 316.091171 
L 181.788674 344.004829 
L 182.210522 313.299805 
L 182.518538 336.561024 
L 183.25512 300.273268 
L 183.717144 328.186927 
L 184.034088 307.717073 
L 184.491626 291.899171 
L 184.781786 319.812829 
L 185.056366 301.203561 
L 185.951398 292.829463 
L 186.286198 301.203561 
L 186.69461 305.856 
L 186.998206 327.256634 
L 187.73923 293.759756 
L 188.040506 303.994927 
L 188.495856 311.438732 
L 188.928864 337.491805 
L 189.241366 295.620829 
L 189.535968 303.994927 
L 190.256904 333.769659 
L 190.687658 324.465268 
L 191.022502 295.620829 
L 191.46888 330.048 
L 191.765714 317.021463 
L 192.185374 306.786293 
L 192.49781 317.951756 
L 192.924144 328.186927 
L 193.243342 288.177024 
L 193.53127 319.812829 
L 193.999968 309.577659 
L 194.30573 309.577659 
L 194.732064 311.438732 
L 195.073538 315.16039 
L 195.493198 301.203561 
L 195.785546 316.091171 
L 196.53773 306.786293 
L 196.984152 315.16039 
L 197.30335 307.717073 
L 197.591278 317.951756 
L 198.008618 321.673902 
L 198.448366 295.620829 
L 199.073326 331.909073 
L 199.515262 324.465268 
L 199.80319 333.769659 
L 200.225016 320.74361 
L 200.698222 331.909073 
L 200.995056 325.395561 
L 201.312 297.481902 
L 201.740522 332.839366 
L 202.044096 317.021463 
L 202.486032 300.273268 
L 202.760546 297.481902 
L 203.075302 313.299805 
L 203.539514 297.481902 
L 203.829674 298.412195 
L 204.260494 320.74361 
L 204.700198 302.134341 
L 205.010446 327.256634 
L 205.32065 341.213463 
L 205.755912 330.048 
L 206.034912 316.091171 
L 206.517024 313.299805 
L 206.945546 314.230098 
L 207.217872 310.508439 
L 207.539302 295.620829 
L 207.99684 330.048 
L 208.284746 299.342488 
L 208.713334 330.048 
L 209.179778 327.256634 
L 209.465541 305.856 
L 209.800318 323.534488 
L 210.22884 277.941854 
L 210.512326 311.438732 
L 210.94308 283.525073 
L 211.251096 319.812829 
L 211.681872 323.534488 
L 212.44073 296.551122 
L 212.746514 353.309707 
L 213.177334 291.899171 
L 213.465262 310.508439 
L 213.922778 318.882537 
L 214.21296 299.342488 
L 214.648222 308.647366 
L 214.960658 333.769659 
L 215.418262 305.856 
L 215.697262 344.93561 
L 216.018626 330.048 
L 216.429358 289.107805 
L 216.75523 325.395561 
L 217.194912 315.16039 
L 217.511856 323.534488 
L 218.25288 333.769659 
L 218.70149 311.438732 
L 219.011738 334.700439 
L 219.721514 313.299805 
L 220.04069 317.021463 
L 220.48488 319.812829 
L 220.804056 310.508439 
L 221.103144 315.16039 
L 221.53392 303.994927 
L 221.98253 333.769659 
L 222.259342 320.74361 
L 222.719112 343.074537 
L 223.029382 334.700439 
L 223.319498 311.438732 
L 223.768152 321.673902 
L 224.21453 317.951756 
L 224.489088 333.769659 
L 224.812706 309.577659 
L 225.26357 293.759756 
L 225.571586 316.091171 
L 225.993478 310.508439 
L 226.28808 308.647366 
L 226.584936 343.074537 
L 227.044706 302.134341 
L 227.493382 306.786293 
L 228.223246 300.273268 
L 228.524522 330.978293 
L 228.794594 337.491805 
L 229.252198 313.299805 
L 229.544546 323.534488 
L 230.011056 318.882537 
L 230.305658 321.673902 
L 230.731992 320.74361 
L 231.035522 324.465268 
L 231.502032 303.064634 
L 231.781032 296.551122 
L 232.075634 316.091171 
L 232.52873 324.465268 
L 232.80331 289.107805 
L 233.289864 317.021463 
L 233.595626 291.899171 
L 234.33665 341.213463 
L 234.76747 312.369024 
L 235.066514 321.673902 
L 235.53077 304.925707 
L 235.79861 303.994927 
L 236.102206 308.647366 
L 236.566462 306.786293 
L 236.972642 316.091171 
L 237.280658 300.273268 
L 237.74719 331.909073 
L 238.04177 308.647366 
L 238.798462 339.35239 
L 239.08639 305.856 
L 239.532746 287.246732 
L 239.827414 298.412195 
L 240.291626 330.048 
L 241.054992 291.899171 
L 241.472398 316.091171 
L 241.77816 309.577659 
L 242.052674 309.577659 
L 242.510278 300.273268 
L 242.795952 307.717073 
L 243.25349 283.525073 
L 243.552578 303.064634 
L 244.01016 322.604195 
L 244.295856 281.664 
L 244.728864 317.021463 
L 245.030206 328.186927 
L 245.344896 328.186927 
L 245.809152 301.203561 
L 246.09708 319.812829 
L 246.543502 334.700439 
L 247.277786 301.203561 
L 247.579128 317.021463 
L 248.01439 296.551122 
L 248.302318 302.134341 
L 248.762088 317.951756 
L 249.03216 310.508439 
L 249.489698 287.246732 
L 249.77988 293.759756 
L 250.210634 300.273268 
L 250.496374 322.604195 
L 250.813318 308.647366 
L 251.246326 302.134341 
L 251.703864 334.700439 
L 252.295366 297.481902 
L 252.752904 313.299805 
L 253.045318 311.438732 
L 253.498414 313.299805 
L 253.79527 290.038098 
L 254.542968 317.021463 
L 254.980462 322.604195 
L 255.286246 296.551122 
L 255.567478 284.455366 
L 256.466952 336.561024 
L 256.768294 304.925707 
L 257.216904 289.107805 
L 257.806152 326.326341 
L 258.250342 304.925707 
L 258.705626 310.508439 
L 259.020382 295.620829 
L 259.299382 310.508439 
L 259.741318 298.412195 
L 260.049334 279.802927 
L 260.783618 345.865902 
L 261.087214 280.733707 
L 261.517968 286.316439 
L 261.971064 330.978293 
L 262.261246 307.717073 
L 262.567008 306.786293 
L 263.026778 280.733707 
L 263.321446 317.951756 
L 263.77231 298.412195 
L 264.060238 345.865902 
L 264.488738 329.117707 
L 264.81461 304.925707 
L 265.229762 296.551122 
L 265.546706 311.438732 
L 265.990896 286.316439 
L 266.265454 316.091171 
L 266.589072 317.021463 
L 267.019848 290.96839 
L 267.32561 312.369024 
L 267.778706 313.299805 
L 268.218454 299.342488 
L 268.499642 295.620829 
L 268.816586 325.395561 
L 269.25408 321.673902 
L 269.55761 290.038098 
L 270.294214 316.091171 
L 270.611136 300.273268 
L 271.07316 305.856 
L 271.497262 324.465268 
L 271.780682 308.647366 
L 272.240541 314.230098 
L 272.854318 301.203561 
L 273.280586 314.230098 
L 273.586414 303.994927 
L 274.03277 326.326341 
L 274.322952 281.664 
L 274.75596 308.647366 
L 275.075136 283.525073 
L 275.510398 325.395561 
L 275.807254 325.395561 
L 276.133104 300.273268 
L 276.53261 329.117707 
L 276.87857 290.038098 
L 277.31381 278.872634 
L 277.766928 308.647366 
L 278.032514 270.498537 
L 278.35169 299.342488 
L 278.83831 302.134341 
L 279.08604 319.812829 
L 279.53465 315.16039 
L 279.983326 307.717073 
L 280.273486 321.673902 
L 280.722096 319.812829 
L 281.041294 303.064634 
L 281.304626 301.203561 
L 281.771136 307.717073 
L 282.079152 285.385659 
L 282.51216 334.700439 
L 282.82243 295.620829 
L 283.242024 265.846098 
L 283.547786 306.786293 
L 284.014318 303.064634 
L 284.279904 309.577659 
L 285.038762 291.899171 
L 285.480698 295.620829 
L 285.799896 325.395561 
L 286.24181 301.203561 
L 286.527506 306.786293 
L 286.81992 309.577659 
L 287.250674 299.342488 
L 287.576546 315.16039 
L 288.043056 295.620829 
L 288.339912 305.856 
L 288.743904 304.925707 
L 289.065334 344.93561 
L 289.792944 306.786293 
L 290.257222 302.134341 
L 290.850912 323.534488 
L 291.279478 295.620829 
L 292.007088 317.951756 
L 292.480294 327.256634 
L 292.750366 298.412195 
L 293.03604 297.481902 
L 293.48023 333.769659 
L 293.95116 294.690537 
L 294.241342 289.107805 
L 294.531502 318.882537 
L 294.982366 298.412195 
L 295.30373 291.899171 
L 295.734506 329.117707 
L 296.03808 291.899171 
L 296.47553 321.673902 
L 296.794706 319.812829 
L 297.069286 330.048 
L 297.54247 320.74361 
L 297.846 306.786293 
L 298.296864 296.551122 
L 298.58035 280.733707 
L 299.02896 314.230098 
L 299.314634 313.299805 
L 299.76773 308.647366 
L 300.075746 288.177024 
L 300.488666 295.620829 
L 300.803422 290.038098 
L 301.256541 287.246732 
L 301.57123 317.951756 
L 301.99973 303.064634 
L 302.305514 312.369024 
L 302.713992 282.594293 
L 303.030936 276.081268 
L 304.079976 317.021463 
L 304.51747 300.273268 
L 304.80984 320.74361 
L 305.238406 311.438732 
L 305.528522 300.273268 
L 305.999541 301.203561 
L 306.31423 301.203561 
L 306.579794 307.717073 
L 307.046326 300.273268 
L 307.503864 290.038098 
L 307.778422 301.203561 
L 308.23596 297.481902 
L 308.519446 309.577659 
L 308.97031 310.508439 
L 309.267144 321.673902 
L 310.003682 286.316439 
L 310.282682 311.438732 
L 310.755888 290.96839 
L 311.046048 303.064634 
L 311.496912 289.107805 
L 311.796 305.856 
L 312.231262 313.299805 
L 312.992374 275.150488 
L 313.284722 267.707171 
L 313.590506 318.882537 
L 314.028 332.839366 
L 314.333762 293.759756 
L 314.831498 290.96839 
L 315.208706 292.829463 
L 315.527904 313.299805 
L 315.963144 309.577659 
L 316.26 308.647366 
L 316.565762 284.455366 
L 316.989864 306.786293 
L 317.44296 319.812829 
L 317.755462 298.412195 
L 318.054506 328.186927 
L 318.48084 295.620829 
L 318.797762 294.690537 
L 319.244206 302.134341 
L 319.57673 303.994927 
L 320.007506 277.941854 
L 320.284318 314.230098 
L 320.726254 336.561024 
L 321.03869 304.925707 
L 321.471698 311.438732 
L 321.775294 297.481902 
L 322.243992 327.256634 
L 322.668072 296.551122 
L 322.953746 328.186927 
L 323.255088 312.369024 
L 324.009459 287.246732 
L 324.44923 309.577659 
L 324.748318 289.107805 
L 325.172398 292.829463 
L 325.484856 315.16039 
L 325.935698 300.273268 
L 326.234786 324.465268 
L 326.538382 322.604195 
L 326.96023 323.534488 
L 327.257064 309.577659 
L 327.712414 311.438732 
L 328.047214 306.786293 
L 328.473459 321.673902 
L 328.910976 321.673902 
L 329.212318 318.882537 
L 329.495738 288.177024 
L 329.819422 288.177024 
L 330.268032 303.064634 
L 330.549286 329.117707 
L 330.977786 319.812829 
L 331.30147 292.829463 
L 331.736666 308.647366 
L 332.165254 287.246732 
L 332.776778 331.909073 
L 333.232128 316.091171 
L 333.52231 298.412195 
L 333.961992 320.74361 
L 334.263334 319.812829 
L 334.707502 294.690537 
L 335.01996 288.177024 
L 335.44404 303.994927 
L 335.740896 301.203561 
L 336.211848 310.508439 
L 336.495334 319.812829 
L 336.94169 319.812829 
L 337.214016 317.021463 
L 337.678294 317.951756 
L 337.975128 304.925707 
L 338.419318 277.011561 
L 338.718406 287.246732 
L 338.997406 317.021463 
L 339.443762 299.342488 
L 339.749546 331.909073 
L 340.207128 304.925707 
L 340.474968 315.16039 
L 340.961522 299.342488 
L 341.253936 310.508439 
L 341.695872 341.213463 
L 341.981546 306.786293 
L 342.278446 286.316439 
L 342.738238 286.316439 
L 343.180152 320.74361 
L 343.514952 301.203561 
L 343.921198 303.064634 
L 344.204618 307.717073 
L 344.521562 322.604195 
L 345.00816 309.577659 
L 345.289414 295.620829 
L 346.02151 316.091171 
L 346.340642 313.299805 
L 346.77365 274.220195 
L 347.068318 307.717073 
L 347.528088 331.909073 
L 347.795928 293.759756 
L 348.25351 274.220195 
L 348.563714 271.428829 
L 349.01681 309.577659 
L 349.322594 315.16039 
L 349.773502 327.256634 
L 350.036856 277.941854 
L 350.530128 304.925707 
L 350.773438 291.899171 
L 351.239904 298.412195 
L 351.532318 300.273268 
L 351.972 322.604195 
L 352.257674 294.690537 
L 352.70635 301.203561 
L 353.016554 313.299805 
L 353.471904 291.899171 
L 353.75539 309.577659 
L 354.056666 281.664 
L 354.509762 327.256634 
L 354.815546 279.802927 
L 355.268642 289.107805 
L 355.56331 302.134341 
L 356.295406 317.951756 
L 356.744016 283.525073 
L 357.031944 304.925707 
L 357.493968 288.177024 
L 357.79531 292.829463 
L 358.096586 326.326341 
L 358.543008 313.299805 
L 358.976016 296.551122 
L 359.281778 275.150488 
L 359.587562 327.256634 
L 360.033984 298.412195 
L 360.344254 305.856 
L 361.07635 298.412195 
L 361.357538 288.177024 
L 362.250382 334.700439 
L 362.576254 302.134341 
L 362.844072 303.064634 
L 363.317278 312.369024 
L 363.61188 291.899171 
L 364.015872 275.150488 
L 364.343976 307.717073 
L 364.64081 282.594293 
L 365.114016 322.604195 
L 365.52919 302.134341 
L 365.859459 257.472 
L 366.27912 299.342488 
L 366.587136 315.16039 
L 367.02684 273.289902 
L 367.30584 338.422098 
L 367.767864 304.925707 
L 368.073626 298.412195 
L 368.533462 277.941854 
L 368.783446 307.717073 
L 369.09365 274.220195 
L 369.535586 326.326341 
L 369.872618 329.117707 
L 370.292278 297.481902 
L 370.589112 288.177024 
L 371.037722 295.620829 
L 371.341318 317.951756 
L 372.118032 294.690537 
L 372.544366 302.134341 
L 372.847896 263.985024 
L 373.292064 297.481902 
L 373.573318 303.064634 
L 373.876848 290.038098 
L 374.318762 295.620829 
L 374.600016 289.107805 
L 375.03077 269.567756 
L 375.291936 282.594293 
L 375.78965 343.074537 
L 376.113334 286.316439 
L 376.530674 299.342488 
L 376.818602 294.690537 
L 377.343144 314.230098 
L 377.550698 294.690537 
L 378.02839 308.647366 
L 378.305136 277.011561 
L 378.604246 299.342488 
L 379.055088 308.647366 
L 379.50151 293.759756 
L 379.809459 309.577659 
L 380.099642 280.733707 
L 380.514794 303.994927 
L 380.82281 303.064634 
L 381.271486 313.299805 
L 381.708936 276.081268 
L 382.010278 290.96839 
L 382.302626 278.872634 
L 382.780318 298.412195 
L 383.045904 276.081268 
L 383.490072 290.96839 
L 383.815944 273.289902 
L 384.253438 297.481902 
L 384.52351 323.534488 
L 384.994462 298.412195 
L 385.295738 303.994927 
L 385.581478 298.412195 
L 386.030088 303.994927 
L 386.309088 290.038098 
L 386.764438 306.786293 
L 387.20412 271.428829 
L 387.498722 311.438732 
L 387.81792 308.647366 
L 388.42277 330.978293 
L 390.232944 300.273268 
L 390.232944 300.273268 
" clip-path="url(#pba221feff1)" style="fill: none; stroke: #3690c0; stroke-width: 1.5; stroke-linecap: square"/>
   </g>
   <g id="patch_7">
    <path d="M 54 384.48 
L 54 251.424 
" style="fill: none; stroke: #000000; stroke-width: 0.5; stroke-linejoin: miter; stroke-linecap: square"/>
   </g>
   <g id="patch_8">
    <path d="M 54 384.48 
L 388.8 384.48 
" style="fill: none; stroke: #000000; stroke-width: 0.5; stroke-linejoin: miter; stroke-linecap: square"/>
   </g>
   <g id="text_33">
    <!-- 104 m/z for Dynamic TGA -->
    <g transform="translate(152.385938 245.424) scale(0.12 -0.12)">
     <defs>
      <path id="Helvetica-2f" d="M 1456 4591 
L 1931 4591 
L 475 0 
L 0 0 
L 1456 4591 
z
" transform="scale(0.015625)"/>
      <path id="Helvetica-66" d="M 553 3856 
Q 566 4206 675 4369 
Q 872 4656 1434 4656 
Q 1488 4656 1544 4653 
Q 1600 4650 1672 4644 
L 1672 4131 
Q 1584 4138 1545 4139 
Q 1506 4141 1472 4141 
Q 1216 4141 1166 4008 
Q 1116 3875 1116 3331 
L 1672 3331 
L 1672 2888 
L 1109 2888 
L 1109 0 
L 553 0 
L 553 2888 
L 88 2888 
L 88 3331 
L 553 3331 
L 553 3856 
z
" transform="scale(0.015625)"/>
     </defs>
     <use xlink:href="#Helvetica-31"/>
     <use xlink:href="#Helvetica-30" x="55.615234"/>
     <use xlink:href="#Helvetica-34" x="111.230469"/>
     <use xlink:href="#Helvetica-20" x="166.845703"/>
     <use xlink:href="#Helvetica-6d" x="194.628906"/>
     <use xlink:href="#Helvetica-2f" x="277.929688"/>
     <use xlink:href="#Helvetica-7a" x="305.712891"/>
     <use xlink:href="#Helvetica-20" x="355.712891"/>
     <use xlink:href="#Helvetica-66" x="383.496094"/>
     <use xlink:href="#Helvetica-6f" x="411.279297"/>
     <use xlink:href="#Helvetica-72" x="466.894531"/>
     <use xlink:href="#Helvetica-20" x="500.195312"/>
     <use xlink:href="#Helvetica-44" x="527.978516"/>
     <use xlink:href="#Helvetica-79" x="600.195312"/>
     <use xlink:href="#Helvetica-6e" x="650.195312"/>
     <use xlink:href="#Helvetica-61" x="705.810547"/>
     <use xlink:href="#Helvetica-6d" x="761.425781"/>
     <use xlink:href="#Helvetica-69" x="844.726562"/>
     <use xlink:href="#Helvetica-63" x="866.943359"/>
     <use xlink:href="#Helvetica-20" x="916.943359"/>
     <use xlink:href="#Helvetica-54" x="944.726562"/>
     <use xlink:href="#Helvetica-47" x="1005.810547"/>
     <use xlink:href="#Helvetica-41" x="1083.59375"/>
    </g>
   </g>
   <g id="legend_2">
    <g id="patch_9">
     <path d="M 61 287.939625 
L 164 287.939625 
Q 166 287.939625 166 285.939625 
L 166 258.424 
Q 166 256.424 164 256.424 
L 61 256.424 
Q 59 256.424 59 258.424 
L 59 285.939625 
Q 59 287.939625 61 287.939625 
z
" style="fill: #ffffff; opacity: 0.8; stroke: #cccccc; stroke-linejoin: miter"/>
    </g>
    <g id="line2d_32">
     <path d="M 63 264.097437 
L 73 264.097437 
L 83 264.097437 
" style="fill: none; stroke: #969696; stroke-width: 1.5; stroke-linecap: square"/>
    </g>
    <g id="text_34">
     <!-- PS-19.6K -->
     <g transform="translate(91 267.597437) scale(0.1 -0.1)">
      <use xlink:href="#Helvetica-50"/>
      <use xlink:href="#Helvetica-53" x="66.699219"/>
      <use xlink:href="#Helvetica-2d" x="133.398438"/>
      <use xlink:href="#Helvetica-31" x="166.699219"/>
      <use xlink:href="#Helvetica-39" x="222.314453"/>
      <use xlink:href="#Helvetica-2e" x="277.929688"/>
      <use xlink:href="#Helvetica-36" x="305.712891"/>
      <use xlink:href="#Helvetica-4b" x="361.328125"/>
     </g>
    </g>
    <g id="line2d_33">
     <path d="M 63 278.35525 
L 73 278.35525 
L 83 278.35525 
" style="fill: none; stroke: #3690c0; stroke-width: 1.5; stroke-linecap: square"/>
    </g>
    <g id="text_35">
     <!-- PS-19.6K-SCF$_{3}$ -->
     <g transform="translate(91 281.85525) scale(0.1 -0.1)">
      <use xlink:href="#Helvetica-50" transform="translate(0 0.3125)"/>
      <use xlink:href="#Helvetica-53" transform="translate(66.699219 0.3125)"/>
      <use xlink:href="#Helvetica-2d" transform="translate(133.398438 0.3125)"/>
      <use xlink:href="#Helvetica-31" transform="translate(166.699219 0.3125)"/>
      <use xlink:href="#Helvetica-39" transform="translate(222.314453 0.3125)"/>
      <use xlink:href="#Helvetica-2e" transform="translate(277.929688 0.3125)"/>
      <use xlink:href="#Helvetica-36" transform="translate(305.712891 0.3125)"/>
      <use xlink:href="#Helvetica-4b" transform="translate(361.328125 0.3125)"/>
      <use xlink:href="#Helvetica-2d" transform="translate(428.027344 0.3125)"/>
      <use xlink:href="#Helvetica-53" transform="translate(461.328125 0.3125)"/>
      <use xlink:href="#Helvetica-43" transform="translate(528.027344 0.3125)"/>
      <use xlink:href="#Helvetica-46" transform="translate(600.244141 0.3125)"/>
      <use xlink:href="#DejaVuSans-33" transform="translate(662.285156 -16.09375) scale(0.7)"/>
     </g>
    </g>
   </g>
  </g>
 </g>
 <defs>
  <clipPath id="p9e1266a07b">
   <rect x="54" y="51.84" width="334.8" height="133.056"/>
  </clipPath>
  <clipPath id="pba221feff1">
   <rect x="54" y="251.424" width="334.8" height="133.056"/>
  </clipPath>
 </defs>
</svg>
