<?xml version="1.0" encoding="utf-8" standalone="no"?>
<!DOCTYPE svg PUBLIC "-//W3C//DTD SVG 1.1//EN"
  "http://www.w3.org/Graphics/SVG/1.1/DTD/svg11.dtd">
<svg xmlns:xlink="http://www.w3.org/1999/xlink" width="432pt" height="432pt" viewBox="0 0 432 432" xmlns="http://www.w3.org/2000/svg" version="1.1">
 <metadata>
  <rdf:RDF xmlns:dc="http://purl.org/dc/elements/1.1/" xmlns:cc="http://creativecommons.org/ns#" xmlns:rdf="http://www.w3.org/1999/02/22-rdf-syntax-ns#">
   <cc:Work>
    <dc:type rdf:resource="http://purl.org/dc/dcmitype/StillImage"/>
    <dc:date>2025-02-21T19:39:40.149852</dc:date>
    <dc:format>image/svg+xml</dc:format>
    <dc:creator>
     <cc:Agent>
      <dc:title>Matplotlib v3.7.1, https://matplotlib.org/</dc:title>
     </cc:Agent>
    </dc:creator>
   </cc:Work>
  </rdf:RDF>
 </metadata>
 <defs>
  <style type="text/css">*{stroke-linejoin: round; stroke-linecap: butt}</style>
 </defs>
 <g id="figure_1">
  <g id="patch_1">
   <path d="M 0 432 
L 432 432 
L 432 0 
L 0 0 
z
" style="fill: #ffffff"/>
  </g>
  <g id="axes_1">
   <g id="patch_2">
    <path d="M 54 184.896 
L 388.8 184.896 
L 388.8 51.84 
L 54 51.84 
z
" style="fill: #ffffff"/>
   </g>
   <g id="matplotlib.axis_1">
    <g id="xtick_1">
     <g id="line2d_1">
      <defs>
       <path id="mba071957ef" d="M 0 0 
L 0 -3.5 
" style="stroke: #000000; stroke-width: 0.8"/>
      </defs>
      <g>
       <use xlink:href="#mba071957ef" x="76.32" y="184.896" style="stroke: #000000; stroke-width: 0.8"/>
      </g>
     </g>
     <g id="text_1">
      <!-- 260 -->
      <g transform="translate(66.310313 197.004125) scale(0.12 -0.12)">
       <defs>
        <path id="Helvetica-32" d="M 200 0 
Q 231 578 439 1006 
Q 647 1434 1250 1784 
L 1850 2131 
Q 2253 2366 2416 2531 
Q 2672 2791 2672 3125 
Q 2672 3516 2437 3745 
Q 2203 3975 1813 3975 
Q 1234 3975 1013 3538 
Q 894 3303 881 2888 
L 309 2888 
Q 319 3472 525 3841 
Q 891 4491 1816 4491 
Q 2584 4491 2939 4075 
Q 3294 3659 3294 3150 
Q 3294 2613 2916 2231 
Q 2697 2009 2131 1694 
L 1703 1456 
Q 1397 1288 1222 1134 
Q 909 863 828 531 
L 3272 531 
L 3272 0 
L 200 0 
z
" transform="scale(0.015625)"/>
        <path id="Helvetica-36" d="M 1872 4494 
Q 2622 4494 2917 4105 
Q 3213 3716 3213 3303 
L 2656 3303 
Q 2606 3569 2497 3719 
Q 2294 4000 1881 4000 
Q 1409 4000 1131 3564 
Q 853 3128 822 2316 
Q 1016 2600 1309 2741 
Q 1578 2866 1909 2866 
Q 2472 2866 2890 2506 
Q 3309 2147 3309 1434 
Q 3309 825 2912 354 
Q 2516 -116 1781 -116 
Q 1153 -116 697 361 
Q 241 838 241 1966 
Q 241 2800 444 3381 
Q 834 4494 1872 4494 
z
M 1831 384 
Q 2275 384 2495 682 
Q 2716 981 2716 1388 
Q 2716 1731 2519 2042 
Q 2322 2353 1803 2353 
Q 1441 2353 1167 2112 
Q 894 1872 894 1388 
Q 894 963 1142 673 
Q 1391 384 1831 384 
z
" transform="scale(0.015625)"/>
        <path id="Helvetica-30" d="M 1731 4475 
Q 2600 4475 2988 3759 
Q 3288 3206 3288 2244 
Q 3288 1331 3016 734 
Q 2622 -122 1728 -122 
Q 922 -122 528 578 
Q 200 1163 200 2147 
Q 200 2909 397 3456 
Q 766 4475 1731 4475 
z
M 1725 391 
Q 2163 391 2422 778 
Q 2681 1166 2681 2222 
Q 2681 2984 2493 3476 
Q 2306 3969 1766 3969 
Q 1269 3969 1039 3501 
Q 809 3034 809 2125 
Q 809 1441 956 1025 
Q 1181 391 1725 391 
z
" transform="scale(0.015625)"/>
       </defs>
       <use xlink:href="#Helvetica-32"/>
       <use xlink:href="#Helvetica-36" x="55.615234"/>
       <use xlink:href="#Helvetica-30" x="111.230469"/>
      </g>
     </g>
    </g>
    <g id="xtick_2">
     <g id="line2d_2">
      <g>
       <use xlink:href="#mba071957ef" x="120.96" y="184.896" style="stroke: #000000; stroke-width: 0.8"/>
      </g>
     </g>
     <g id="text_2">
      <!-- 280 -->
      <g transform="translate(110.950313 197.004125) scale(0.12 -0.12)">
       <defs>
        <path id="Helvetica-38" d="M 1741 2600 
Q 2113 2600 2322 2808 
Q 2531 3016 2531 3303 
Q 2531 3553 2331 3762 
Q 2131 3972 1722 3972 
Q 1316 3972 1134 3762 
Q 953 3553 953 3272 
Q 953 2956 1187 2778 
Q 1422 2600 1741 2600 
z
M 1775 384 
Q 2166 384 2423 595 
Q 2681 806 2681 1225 
Q 2681 1659 2415 1884 
Q 2150 2109 1734 2109 
Q 1331 2109 1076 1879 
Q 822 1650 822 1244 
Q 822 894 1055 639 
Q 1288 384 1775 384 
z
M 975 2384 
Q 741 2484 609 2619 
Q 363 2869 363 3269 
Q 363 3769 725 4128 
Q 1088 4488 1753 4488 
Q 2397 4488 2762 4148 
Q 3128 3809 3128 3356 
Q 3128 2938 2916 2678 
Q 2797 2531 2547 2391 
Q 2825 2263 2984 2097 
Q 3281 1784 3281 1284 
Q 3281 694 2884 283 
Q 2488 -128 1763 -128 
Q 1109 -128 657 226 
Q 206 581 206 1256 
Q 206 1653 400 1942 
Q 594 2231 975 2384 
z
" transform="scale(0.015625)"/>
       </defs>
       <use xlink:href="#Helvetica-32"/>
       <use xlink:href="#Helvetica-38" x="55.615234"/>
       <use xlink:href="#Helvetica-30" x="111.230469"/>
      </g>
     </g>
    </g>
    <g id="xtick_3">
     <g id="line2d_3">
      <g>
       <use xlink:href="#mba071957ef" x="165.6" y="184.896" style="stroke: #000000; stroke-width: 0.8"/>
      </g>
     </g>
     <g id="text_3">
      <!-- 300 -->
      <g transform="translate(155.590313 197.004125) scale(0.12 -0.12)">
       <defs>
        <path id="Helvetica-33" d="M 1663 -122 
Q 869 -122 511 314 
Q 153 750 153 1375 
L 741 1375 
Q 778 941 903 744 
Q 1122 391 1694 391 
Q 2138 391 2406 628 
Q 2675 866 2675 1241 
Q 2675 1703 2392 1887 
Q 2109 2072 1606 2072 
Q 1550 2072 1492 2070 
Q 1434 2069 1375 2066 
L 1375 2563 
Q 1463 2553 1522 2550 
Q 1581 2547 1650 2547 
Q 1966 2547 2169 2647 
Q 2525 2822 2525 3272 
Q 2525 3606 2287 3787 
Q 2050 3969 1734 3969 
Q 1172 3969 956 3594 
Q 838 3388 822 3006 
L 266 3006 
Q 266 3506 466 3856 
Q 809 4481 1675 4481 
Q 2359 4481 2734 4176 
Q 3109 3872 3109 3294 
Q 3109 2881 2888 2625 
Q 2750 2466 2531 2375 
Q 2884 2278 3082 2001 
Q 3281 1725 3281 1325 
Q 3281 684 2859 281 
Q 2438 -122 1663 -122 
z
" transform="scale(0.015625)"/>
       </defs>
       <use xlink:href="#Helvetica-33"/>
       <use xlink:href="#Helvetica-30" x="55.615234"/>
       <use xlink:href="#Helvetica-30" x="111.230469"/>
      </g>
     </g>
    </g>
    <g id="xtick_4">
     <g id="line2d_4">
      <g>
       <use xlink:href="#mba071957ef" x="210.24" y="184.896" style="stroke: #000000; stroke-width: 0.8"/>
      </g>
     </g>
     <g id="text_4">
      <!-- 320 -->
      <g transform="translate(200.230312 197.004125) scale(0.12 -0.12)">
       <use xlink:href="#Helvetica-33"/>
       <use xlink:href="#Helvetica-32" x="55.615234"/>
       <use xlink:href="#Helvetica-30" x="111.230469"/>
      </g>
     </g>
    </g>
    <g id="xtick_5">
     <g id="line2d_5">
      <g>
       <use xlink:href="#mba071957ef" x="254.88" y="184.896" style="stroke: #000000; stroke-width: 0.8"/>
      </g>
     </g>
     <g id="text_5">
      <!-- 340 -->
      <g transform="translate(244.870313 197.004125) scale(0.12 -0.12)">
       <defs>
        <path id="Helvetica-34" d="M 2116 1584 
L 2116 3613 
L 681 1584 
L 2116 1584 
z
M 2125 0 
L 2125 1094 
L 163 1094 
L 163 1644 
L 2213 4488 
L 2688 4488 
L 2688 1584 
L 3347 1584 
L 3347 1094 
L 2688 1094 
L 2688 0 
L 2125 0 
z
" transform="scale(0.015625)"/>
       </defs>
       <use xlink:href="#Helvetica-33"/>
       <use xlink:href="#Helvetica-34" x="55.615234"/>
       <use xlink:href="#Helvetica-30" x="111.230469"/>
      </g>
     </g>
    </g>
    <g id="xtick_6">
     <g id="line2d_6">
      <g>
       <use xlink:href="#mba071957ef" x="299.52" y="184.896" style="stroke: #000000; stroke-width: 0.8"/>
      </g>
     </g>
     <g id="text_6">
      <!-- 360 -->
      <g transform="translate(289.510313 197.004125) scale(0.12 -0.12)">
       <use xlink:href="#Helvetica-33"/>
       <use xlink:href="#Helvetica-36" x="55.615234"/>
       <use xlink:href="#Helvetica-30" x="111.230469"/>
      </g>
     </g>
    </g>
    <g id="xtick_7">
     <g id="line2d_7">
      <g>
       <use xlink:href="#mba071957ef" x="344.16" y="184.896" style="stroke: #000000; stroke-width: 0.8"/>
      </g>
     </g>
     <g id="text_7">
      <!-- 380 -->
      <g transform="translate(334.150313 197.004125) scale(0.12 -0.12)">
       <use xlink:href="#Helvetica-33"/>
       <use xlink:href="#Helvetica-38" x="55.615234"/>
       <use xlink:href="#Helvetica-30" x="111.230469"/>
      </g>
     </g>
    </g>
    <g id="xtick_8">
     <g id="line2d_8">
      <g>
       <use xlink:href="#mba071957ef" x="388.8" y="184.896" style="stroke: #000000; stroke-width: 0.8"/>
      </g>
     </g>
     <g id="text_8">
      <!-- 400 -->
      <g transform="translate(378.790313 197.004125) scale(0.12 -0.12)">
       <use xlink:href="#Helvetica-34"/>
       <use xlink:href="#Helvetica-30" x="55.615234"/>
       <use xlink:href="#Helvetica-30" x="111.230469"/>
      </g>
     </g>
    </g>
    <g id="text_9">
     <!-- Temp (oC) -->
     <g transform="translate(192.732188 212.347875) scale(0.12 -0.12)">
      <defs>
       <path id="Helvetica-54" d="M 3828 4591 
L 3828 4044 
L 2281 4044 
L 2281 0 
L 1650 0 
L 1650 4044 
L 103 4044 
L 103 4591 
L 3828 4591 
z
" transform="scale(0.015625)"/>
       <path id="Helvetica-65" d="M 1806 3422 
Q 2163 3422 2497 3255 
Q 2831 3088 3006 2822 
Q 3175 2569 3231 2231 
Q 3281 2000 3281 1494 
L 828 1494 
Q 844 984 1069 676 
Q 1294 369 1766 369 
Q 2206 369 2469 659 
Q 2619 828 2681 1050 
L 3234 1050 
Q 3213 866 3089 639 
Q 2966 413 2813 269 
Q 2556 19 2178 -69 
Q 1975 -119 1719 -119 
Q 1094 -119 659 336 
Q 225 791 225 1609 
Q 225 2416 662 2919 
Q 1100 3422 1806 3422 
z
M 2703 1941 
Q 2669 2306 2544 2525 
Q 2313 2931 1772 2931 
Q 1384 2931 1121 2651 
Q 859 2372 844 1941 
L 2703 1941 
z
M 1753 3428 
L 1753 3428 
z
" transform="scale(0.015625)"/>
       <path id="Helvetica-6d" d="M 413 3347 
L 969 3347 
L 969 2872 
Q 1169 3119 1331 3231 
Q 1609 3422 1963 3422 
Q 2363 3422 2606 3225 
Q 2744 3113 2856 2894 
Q 3044 3163 3297 3292 
Q 3550 3422 3866 3422 
Q 4541 3422 4784 2934 
Q 4916 2672 4916 2228 
L 4916 0 
L 4331 0 
L 4331 2325 
Q 4331 2659 4164 2784 
Q 3997 2909 3756 2909 
Q 3425 2909 3186 2687 
Q 2947 2466 2947 1947 
L 2947 0 
L 2375 0 
L 2375 2184 
Q 2375 2525 2294 2681 
Q 2166 2916 1816 2916 
Q 1497 2916 1236 2669 
Q 975 2422 975 1775 
L 975 0 
L 413 0 
L 413 3347 
z
" transform="scale(0.015625)"/>
       <path id="Helvetica-70" d="M 1825 378 
Q 2219 378 2480 708 
Q 2741 1038 2741 1694 
Q 2741 2094 2625 2381 
Q 2406 2934 1825 2934 
Q 1241 2934 1025 2350 
Q 909 2038 909 1556 
Q 909 1169 1025 897 
Q 1244 378 1825 378 
z
M 369 3331 
L 916 3331 
L 916 2888 
Q 1084 3116 1284 3241 
Q 1569 3428 1953 3428 
Q 2522 3428 2919 2992 
Q 3316 2556 3316 1747 
Q 3316 653 2744 184 
Q 2381 -113 1900 -113 
Q 1522 -113 1266 53 
Q 1116 147 931 375 
L 931 -1334 
L 369 -1334 
L 369 3331 
z
" transform="scale(0.015625)"/>
       <path id="Helvetica-20" transform="scale(0.015625)"/>
       <path id="Helvetica-28" d="M 1894 4666 
Q 1403 3713 1256 3263 
Q 1034 2578 1034 1681 
Q 1034 775 1288 25 
Q 1444 -438 1903 -1306 
L 1525 -1306 
Q 1069 -594 959 -397 
Q 850 -200 722 138 
Q 547 600 478 1125 
Q 444 1397 444 1644 
Q 444 2569 734 3291 
Q 919 3750 1503 4666 
L 1894 4666 
z
" transform="scale(0.015625)"/>
       <path id="Helvetica-6f" d="M 1741 363 
Q 2300 363 2508 786 
Q 2716 1209 2716 1728 
Q 2716 2197 2566 2491 
Q 2328 2953 1747 2953 
Q 1231 2953 997 2559 
Q 763 2166 763 1609 
Q 763 1075 997 719 
Q 1231 363 1741 363 
z
M 1763 3444 
Q 2409 3444 2856 3012 
Q 3303 2581 3303 1744 
Q 3303 934 2909 406 
Q 2516 -122 1688 -122 
Q 997 -122 590 345 
Q 184 813 184 1600 
Q 184 2444 612 2944 
Q 1041 3444 1763 3444 
z
M 1744 3428 
L 1744 3428 
z
" transform="scale(0.015625)"/>
       <path id="Helvetica-43" d="M 2422 4716 
Q 3294 4716 3775 4256 
Q 4256 3797 4309 3213 
L 3703 3213 
Q 3600 3656 3292 3915 
Q 2984 4175 2428 4175 
Q 1750 4175 1333 3698 
Q 916 3222 916 2238 
Q 916 1431 1292 929 
Q 1669 428 2416 428 
Q 3103 428 3463 956 
Q 3653 1234 3747 1688 
L 4353 1688 
Q 4272 963 3816 472 
Q 3269 -119 2341 -119 
Q 1541 -119 997 366 
Q 281 1006 281 2344 
Q 281 3359 819 4009 
Q 1400 4716 2422 4716 
z
M 2297 4716 
L 2297 4716 
z
" transform="scale(0.015625)"/>
       <path id="Helvetica-29" d="M 222 -1306 
Q 719 -338 863 106 
Q 1081 778 1081 1681 
Q 1081 2584 828 3334 
Q 672 3797 213 4666 
L 591 4666 
Q 1072 3897 1173 3717 
Q 1275 3538 1394 3222 
Q 1544 2831 1608 2450 
Q 1672 2069 1672 1716 
Q 1672 791 1378 66 
Q 1194 -400 613 -1306 
L 222 -1306 
z
" transform="scale(0.015625)"/>
      </defs>
      <use xlink:href="#Helvetica-54"/>
      <use xlink:href="#Helvetica-65" x="61.083984"/>
      <use xlink:href="#Helvetica-6d" x="116.699219"/>
      <use xlink:href="#Helvetica-70" x="200"/>
      <use xlink:href="#Helvetica-20" x="255.615234"/>
      <use xlink:href="#Helvetica-28" x="283.398438"/>
      <use xlink:href="#Helvetica-6f" x="316.699219"/>
      <use xlink:href="#Helvetica-43" x="372.314453"/>
      <use xlink:href="#Helvetica-29" x="444.53125"/>
     </g>
    </g>
   </g>
   <g id="matplotlib.axis_2">
    <g id="ytick_1">
     <g id="line2d_9">
      <defs>
       <path id="mcadf52b89c" d="M 0 0 
L 3.5 0 
" style="stroke: #000000; stroke-width: 0.8"/>
      </defs>
      <g>
       <use xlink:href="#mcadf52b89c" x="54" y="153.843245" style="stroke: #000000; stroke-width: 0.8"/>
      </g>
     </g>
     <g id="text_10">
      <!-- 25 -->
      <g transform="translate(37.15375 158.147307) scale(0.12 -0.12)">
       <defs>
        <path id="Helvetica-35" d="M 791 1141 
Q 847 659 1238 475 
Q 1438 381 1700 381 
Q 2200 381 2440 700 
Q 2681 1019 2681 1406 
Q 2681 1875 2395 2131 
Q 2109 2388 1709 2388 
Q 1419 2388 1211 2275 
Q 1003 2163 856 1963 
L 369 1991 
L 709 4400 
L 3034 4400 
L 3034 3856 
L 1131 3856 
L 941 2613 
Q 1097 2731 1238 2791 
Q 1488 2894 1816 2894 
Q 2431 2894 2859 2497 
Q 3288 2100 3288 1491 
Q 3288 856 2895 371 
Q 2503 -113 1644 -113 
Q 1097 -113 676 195 
Q 256 503 206 1141 
L 791 1141 
z
" transform="scale(0.015625)"/>
       </defs>
       <use xlink:href="#Helvetica-32"/>
       <use xlink:href="#Helvetica-35" x="55.615234"/>
      </g>
     </g>
    </g>
    <g id="ytick_2">
     <g id="line2d_10">
      <g>
       <use xlink:href="#mcadf52b89c" x="54" y="122.115219" style="stroke: #000000; stroke-width: 0.8"/>
      </g>
     </g>
     <g id="text_11">
      <!-- 50 -->
      <g transform="translate(37.15375 126.419282) scale(0.12 -0.12)">
       <use xlink:href="#Helvetica-35"/>
       <use xlink:href="#Helvetica-30" x="55.615234"/>
      </g>
     </g>
    </g>
    <g id="ytick_3">
     <g id="line2d_11">
      <g>
       <use xlink:href="#mcadf52b89c" x="54" y="90.387194" style="stroke: #000000; stroke-width: 0.8"/>
      </g>
     </g>
     <g id="text_12">
      <!-- 75 -->
      <g transform="translate(37.15375 94.691257) scale(0.12 -0.12)">
       <defs>
        <path id="Helvetica-37" d="M 3347 4400 
L 3347 3909 
Q 3131 3700 2773 3181 
Q 2416 2663 2141 2063 
Q 1869 1478 1728 997 
Q 1638 688 1494 0 
L 872 0 
Q 1084 1281 1809 2550 
Q 2238 3294 2709 3834 
L 234 3834 
L 234 4400 
L 3347 4400 
z
" transform="scale(0.015625)"/>
       </defs>
       <use xlink:href="#Helvetica-37"/>
       <use xlink:href="#Helvetica-35" x="55.615234"/>
      </g>
     </g>
    </g>
    <g id="ytick_4">
     <g id="line2d_12">
      <g>
       <use xlink:href="#mcadf52b89c" x="54" y="58.659169" style="stroke: #000000; stroke-width: 0.8"/>
      </g>
     </g>
     <g id="text_13">
      <!-- 100 -->
      <g transform="translate(30.480625 62.963231) scale(0.12 -0.12)">
       <defs>
        <path id="Helvetica-31" d="M 613 3169 
L 613 3600 
Q 1222 3659 1462 3798 
Q 1703 3938 1822 4456 
L 2266 4456 
L 2266 0 
L 1666 0 
L 1666 3169 
L 613 3169 
z
" transform="scale(0.015625)"/>
       </defs>
       <use xlink:href="#Helvetica-31"/>
       <use xlink:href="#Helvetica-30" x="55.615234"/>
       <use xlink:href="#Helvetica-30" x="111.230469"/>
      </g>
     </g>
    </g>
    <g id="text_14">
     <!-- Mass (%) -->
     <g transform="translate(23.979375 143.700187) rotate(-90) scale(0.12 -0.12)">
      <defs>
       <path id="Helvetica-4d" d="M 472 4591 
L 1363 4591 
L 2681 709 
L 3991 4591 
L 4872 4591 
L 4872 0 
L 4281 0 
L 4281 2709 
Q 4281 2850 4287 3175 
Q 4294 3500 4294 3872 
L 2984 0 
L 2369 0 
L 1050 3872 
L 1050 3731 
Q 1050 3563 1058 3217 
Q 1066 2872 1066 2709 
L 1066 0 
L 472 0 
L 472 4591 
z
" transform="scale(0.015625)"/>
       <path id="Helvetica-61" d="M 844 891 
Q 844 647 1022 506 
Q 1200 366 1444 366 
Q 1741 366 2019 503 
Q 2488 731 2488 1250 
L 2488 1703 
Q 2384 1638 2221 1594 
Q 2059 1550 1903 1531 
L 1563 1488 
Q 1256 1447 1103 1359 
Q 844 1213 844 891 
z
M 2206 2028 
Q 2400 2053 2466 2191 
Q 2503 2266 2503 2406 
Q 2503 2694 2298 2823 
Q 2094 2953 1713 2953 
Q 1272 2953 1088 2716 
Q 984 2584 953 2325 
L 428 2325 
Q 444 2944 830 3186 
Q 1216 3428 1725 3428 
Q 2316 3428 2684 3203 
Q 3050 2978 3050 2503 
L 3050 575 
Q 3050 488 3086 434 
Q 3122 381 3238 381 
Q 3275 381 3322 386 
Q 3369 391 3422 400 
L 3422 -16 
Q 3291 -53 3222 -62 
Q 3153 -72 3034 -72 
Q 2744 -72 2613 134 
Q 2544 244 2516 444 
Q 2344 219 2022 53 
Q 1700 -113 1313 -113 
Q 847 -113 551 170 
Q 256 453 256 878 
Q 256 1344 547 1600 
Q 838 1856 1309 1916 
L 2206 2028 
z
M 1741 3428 
L 1741 3428 
z
" transform="scale(0.015625)"/>
       <path id="Helvetica-73" d="M 747 1050 
Q 772 769 888 619 
Q 1100 347 1625 347 
Q 1938 347 2175 483 
Q 2413 619 2413 903 
Q 2413 1119 2222 1231 
Q 2100 1300 1741 1391 
L 1294 1503 
Q 866 1609 663 1741 
Q 300 1969 300 2372 
Q 300 2847 642 3140 
Q 984 3434 1563 3434 
Q 2319 3434 2653 2991 
Q 2863 2709 2856 2384 
L 2325 2384 
Q 2309 2575 2191 2731 
Q 1997 2953 1519 2953 
Q 1200 2953 1036 2831 
Q 872 2709 872 2509 
Q 872 2291 1088 2159 
Q 1213 2081 1456 2022 
L 1828 1931 
Q 2434 1784 2641 1647 
Q 2969 1431 2969 969 
Q 2969 522 2630 197 
Q 2291 -128 1597 -128 
Q 850 -128 539 211 
Q 228 550 206 1050 
L 747 1050 
z
M 1578 3428 
L 1578 3428 
z
" transform="scale(0.015625)"/>
       <path id="Helvetica-25" d="M 4363 2175 
Q 4813 2175 5131 1856 
Q 5450 1538 5450 1088 
Q 5450 638 5131 319 
Q 4813 0 4363 0 
Q 3909 0 3590 319 
Q 3272 638 3272 1088 
Q 3272 1538 3590 1856 
Q 3909 2175 4363 2175 
z
M 3909 4456 
L 4256 4456 
L 1753 -119 
L 1406 -119 
L 3909 4456 
z
M 1294 2606 
Q 1563 2606 1752 2795 
Q 1941 2984 1941 3250 
Q 1941 3516 1752 3705 
Q 1563 3894 1294 3894 
Q 1028 3894 839 3706 
Q 650 3519 650 3250 
Q 650 2984 839 2795 
Q 1028 2606 1294 2606 
z
M 1294 4341 
Q 1747 4341 2065 4020 
Q 2384 3700 2384 3250 
Q 2384 2800 2065 2481 
Q 1747 2163 1294 2163 
Q 844 2163 525 2481 
Q 206 2800 206 3250 
Q 206 3700 525 4020 
Q 844 4341 1294 4341 
z
M 4363 444 
Q 4628 444 4817 633 
Q 5006 822 5006 1088 
Q 5006 1353 4817 1542 
Q 4628 1731 4363 1731 
Q 4094 1731 3905 1542 
Q 3716 1353 3716 1088 
Q 3716 822 3905 633 
Q 4094 444 4363 444 
z
" transform="scale(0.015625)"/>
      </defs>
      <use xlink:href="#Helvetica-4d"/>
      <use xlink:href="#Helvetica-61" x="83.300781"/>
      <use xlink:href="#Helvetica-73" x="138.916016"/>
      <use xlink:href="#Helvetica-73" x="188.916016"/>
      <use xlink:href="#Helvetica-20" x="238.916016"/>
      <use xlink:href="#Helvetica-28" x="266.699219"/>
      <use xlink:href="#Helvetica-25" x="300"/>
      <use xlink:href="#Helvetica-29" x="388.916016"/>
     </g>
    </g>
   </g>
   <g id="line2d_13">
    <path d="M 54.071424 58.659169 
L 64.753754 58.55524 
L 65.186762 58.558045 
L 71.47435 58.480159 
L 71.911778 58.480159 
L 81.86873 58.376231 
L 82.60308 58.350188 
L 95.40139 58.246006 
L 95.829912 58.246006 
L 102.99019 58.16812 
L 103.456634 58.150759 
L 117.53388 58.072873 
L 117.978048 58.072873 
L 130.789706 57.977372 
L 131.245056 57.951583 
L 131.82984 57.986052 
L 195.950714 58.087176 
L 196.70292 58.104537 
L 198.35681 58.121899 
L 206.06616 58.217147 
L 207.081698 58.243189 
L 210.07039 58.295286 
L 214.402658 58.399215 
L 214.99416 58.43395 
L 217.844446 58.511824 
L 218.438136 58.549364 
L 221.136602 58.653546 
L 222.12319 58.688029 
L 225.401976 58.792211 
L 226.125144 58.835361 
L 228.383928 58.939556 
L 229.111538 59.008748 
L 231.798888 59.095569 
L 233.00419 59.19951 
L 235.079928 59.303438 
L 236.401294 59.433409 
L 238.035096 59.511548 
L 238.936802 59.615477 
L 241.001446 59.719405 
L 241.762514 59.788864 
L 243.101714 59.89561 
L 243.815976 59.965056 
L 245.019024 60.068997 
L 245.773462 60.138443 
L 247.097016 60.242384 
L 248.11704 60.381036 
L 249.172754 60.484964 
L 254.08543 61.07739 
L 254.690302 61.163957 
L 255.42684 61.267885 
L 266.997506 63.255582 
L 267.323422 63.342149 
L 268.372462 63.567634 
L 270.631246 64.090347 
L 274.055112 64.994811 
L 276.856294 65.777745 
L 277.766928 66.066546 
L 279.572594 66.676079 
L 280.487714 66.970769 
L 281.351498 67.285613 
L 281.960856 67.502417 
L 283.748666 68.204393 
L 284.474088 68.490389 
L 285.523128 68.917855 
L 286.123514 69.169128 
L 290.429064 71.176992 
L 295.627414 73.953232 
L 297.283514 74.967247 
L 299.33923 76.31348 
L 306.024048 81.279652 
L 308.548462 83.457844 
L 310.336294 85.081659 
L 310.929984 85.618929 
L 311.530414 86.228462 
L 311.963422 86.606901 
L 318.965206 94.034445 
L 319.26204 94.407021 
L 319.840128 95.097499 
L 321.491786 97.053278 
L 325.371024 101.987772 
L 335.772144 116.703967 
L 336.343514 117.628356 
L 337.850136 119.916353 
L 338.140318 120.326711 
L 343.956888 129.282301 
L 344.82065 130.617048 
L 345.73577 131.995212 
L 346.30051 132.939781 
L 346.829494 133.612897 
L 347.057136 134.057724 
L 348.273554 135.866412 
L 349.43647 137.672041 
L 350.06143 138.553014 
L 351.210888 140.321103 
L 351.842522 141.132884 
L 357.768459 149.322928 
L 359.266198 151.180642 
L 362.067358 154.583777 
L 363.149856 155.719094 
L 363.743546 156.374849 
L 365.234522 157.935081 
L 365.663088 158.391394 
L 366.852722 159.56731 
L 368.361554 160.939598 
L 369.37265 161.88135 
L 369.828 162.230942 
L 371.026562 163.247761 
L 372.501936 164.437981 
L 374.45719 165.980585 
L 375.472706 166.749216 
L 375.928056 167.090114 
L 376.977096 167.844175 
L 377.858714 168.491249 
L 378.46584 168.901353 
L 381.744626 170.995783 
L 382.041459 171.20977 
L 382.322714 171.362737 
L 382.925398 171.712316 
L 383.842706 172.217921 
L 385.030152 172.859373 
L 387.833522 174.248769 
L 388.09692 174.352951 
L 388.085738 174.361645 
L 388.244254 174.370325 
L 388.755382 174.465573 
L 388.924992 174.488557 
L 398.265912 174.381811 
L 399.698856 174.347088 
L 406.928326 174.243159 
L 410.66465 174.208424 
L 425.786494 174.303671 
L 428.002848 174.349892 
L 432.933358 174.488557 
L 433 174.491314 
L 433 174.491314 
" clip-path="url(#p29b7bf19f1)" style="fill: none; stroke: #bdbdbd; stroke-width: 1.5; stroke-linecap: square"/>
   </g>
   <g id="line2d_14">
    <path d="M 54.06696 58.659169 
L 54.486576 58.63503 
L 55.546754 58.626908 
L 124.97981 58.71869 
L 125.865936 58.751193 
L 126.301198 58.71869 
L 126.92165 58.751193 
L 136.568398 58.832213 
L 137.023682 58.864716 
L 137.655382 58.840336 
L 138.374064 58.897218 
L 138.644136 58.818824 
L 139.411944 58.8836 
L 146.119104 58.989242 
L 146.563294 59.021503 
L 150.136682 59.102765 
L 150.411262 59.135038 
L 151.30404 59.151283 
L 157.25453 59.248802 
L 157.852706 59.289198 
L 162.765382 59.394827 
L 163.93716 59.459603 
L 167.07312 59.556881 
L 167.677992 59.592011 
L 171.653206 59.68953 
L 172.414318 59.721791 
L 173.92757 59.786808 
L 176.744398 59.884074 
L 177.331414 59.932833 
L 178.050096 59.949091 
L 178.96747 60.013854 
L 181.784254 60.111373 
L 182.567642 60.176149 
L 185.214794 60.28155 
L 186.272762 60.346554 
L 188.042738 60.443832 
L 188.627522 60.508836 
L 191.029198 60.606115 
L 191.620634 60.67089 
L 193.714294 60.768397 
L 194.314658 60.833173 
L 196.689506 60.938815 
L 197.419414 61.003578 
L 198.61349 61.095602 
L 199.798682 61.225382 
L 201.75619 61.328156 
L 202.778446 61.387665 
L 203.67792 61.457936 
L 204.414502 61.587716 
L 204.849698 61.587716 
L 206.046072 61.687621 
L 206.932198 61.785128 
L 208.128506 61.882406 
L 208.73119 61.947182 
L 209.905222 62.044689 
L 211.132778 62.174469 
L 212.612594 62.271747 
L 213.33353 62.369025 
L 214.387056 62.466532 
L 214.969586 62.555687 
L 215.29327 62.407023 
L 215.86243 62.642203 
L 216.860112 62.771984 
L 217.197144 62.750231 
L 217.63908 62.837001 
L 219.134498 63.064047 
L 220.335358 63.161325 
L 221.795064 63.369499 
L 222.866446 63.469645 
L 223.94669 63.599425 
L 234.028634 65.267685 
L 235.687032 65.562375 
L 236.262888 65.659894 
L 238.215888 66.084364 
L 238.820738 66.184269 
L 240.01488 66.444071 
L 240.592968 66.541349 
L 245.190888 67.56883 
L 245.929658 67.752624 
L 247.288968 68.096086 
L 251.438278 69.17758 
L 252.47165 69.480646 
L 253.214928 69.683312 
L 256.042872 70.510754 
L 256.951318 70.810952 
L 257.52492 70.962244 
L 259.02931 71.457213 
L 260.058262 71.835564 
L 265.086936 73.693354 
L 270.762912 76.04303 
L 271.814206 76.527009 
L 279.068206 80.142215 
L 280.29353 80.818364 
L 282.059064 81.813342 
L 282.659494 82.156792 
L 284.420498 83.249048 
L 285.174936 83.706033 
L 285.924888 84.157752 
L 286.686 84.676873 
L 287.476128 85.12835 
L 287.873446 85.434043 
L 289.493856 86.47754 
L 290.714738 87.342979 
L 291.308494 87.751204 
L 291.748198 88.097281 
L 294.444454 90.065738 
L 295.605072 90.952689 
L 296.230032 91.428546 
L 297.39065 92.410148 
L 299.93292 94.483993 
L 303.671498 97.750495 
L 303.954984 98.007428 
L 306.747238 100.700541 
L 307.523952 101.379318 
L 308.671222 102.541845 
L 310.048366 103.850639 
L 310.50365 104.318373 
L 311.233514 105.064782 
L 312.25577 106.116655 
L 313.751254 107.655134 
L 314.34943 108.336538 
L 315.106056 109.109965 
L 316.273414 110.40226 
L 316.724278 110.87549 
L 322.223904 116.991892 
L 323.105522 118.057383 
L 324.034056 119.081995 
L 324.768406 119.958196 
L 340.98161 138.839899 
L 342.032904 139.991906 
L 343.974722 142.147025 
L 344.697912 142.968959 
L 346.63531 145.056435 
L 347.086152 145.529664 
L 350.059198 148.590378 
L 350.95423 149.485451 
L 352.302358 150.821265 
L 357.328778 155.61811 
L 358.996104 157.056685 
L 359.397864 157.46491 
L 360.328586 158.202955 
L 364.645318 161.750757 
L 368.207546 164.430252 
L 370.158358 165.795687 
L 370.602459 166.112142 
L 376.97261 170.178825 
L 377.593128 170.484505 
L 378.327478 170.963002 
L 380.106382 171.931214 
L 381.608541 172.677381 
L 382.644144 173.158746 
L 383.561541 173.561705 
L 385.775618 174.462045 
L 386.228714 174.670219 
L 386.797896 174.889142 
L 387.842494 175.275856 
L 388.190642 175.384125 
L 388.291104 175.413771 
L 397.422238 175.316493 
L 399.169872 175.238099 
L 405.475294 175.135326 
L 407.376936 175.086566 
L 411.796318 175.03518 
L 433 175.097557 
L 433 175.097557 
" clip-path="url(#p29b7bf19f1)" style="fill: none; stroke: #74a9cf; stroke-width: 1.5; stroke-linecap: square"/>
   </g>
   <g id="line2d_15">
    <path d="M 54 59.293729 
L 388.8 59.293729 
" clip-path="url(#p29b7bf19f1)" style="fill: none; stroke-dasharray: 1.11,0.48; stroke-dashoffset: 0; stroke: #ff0000; stroke-width: 0.3"/>
   </g>
   <g id="patch_3">
    <path d="M 54 184.896 
L 54 51.84 
" style="fill: none; stroke: #000000; stroke-width: 0.5; stroke-linejoin: miter; stroke-linecap: square"/>
   </g>
   <g id="patch_4">
    <path d="M 54 184.896 
L 388.8 184.896 
" style="fill: none; stroke: #000000; stroke-width: 0.5; stroke-linejoin: miter; stroke-linecap: square"/>
   </g>
   <g id="text_15">
    <!-- Dynamic TGA -->
    <g transform="translate(184.062187 45.84) scale(0.12 -0.12)">
     <defs>
      <path id="Helvetica-44" d="M 2250 531 
Q 2566 531 2769 597 
Q 3131 719 3363 1066 
Q 3547 1344 3628 1778 
Q 3675 2038 3675 2259 
Q 3675 3113 3336 3584 
Q 2997 4056 2244 4056 
L 1141 4056 
L 1141 531 
L 2250 531 
z
M 516 4591 
L 2375 4591 
Q 3322 4591 3844 3919 
Q 4309 3313 4309 2366 
Q 4309 1634 4034 1044 
Q 3550 0 2369 0 
L 516 0 
L 516 4591 
z
" transform="scale(0.015625)"/>
      <path id="Helvetica-79" d="M 2503 3347 
L 3125 3347 
Q 3006 3025 2597 1878 
Q 2291 1016 2084 472 
Q 1597 -809 1397 -1090 
Q 1197 -1372 709 -1372 
Q 591 -1372 527 -1362 
Q 463 -1353 369 -1328 
L 369 -816 
Q 516 -856 581 -865 
Q 647 -875 697 -875 
Q 853 -875 926 -823 
Q 1000 -772 1050 -697 
Q 1066 -672 1162 -440 
Q 1259 -209 1303 -97 
L 66 3347 
L 703 3347 
L 1600 622 
L 2503 3347 
z
M 1597 3428 
L 1597 3428 
z
" transform="scale(0.015625)"/>
      <path id="Helvetica-6e" d="M 413 3347 
L 947 3347 
L 947 2872 
Q 1184 3166 1450 3294 
Q 1716 3422 2041 3422 
Q 2753 3422 3003 2925 
Q 3141 2653 3141 2147 
L 3141 0 
L 2569 0 
L 2569 2109 
Q 2569 2416 2478 2603 
Q 2328 2916 1934 2916 
Q 1734 2916 1606 2875 
Q 1375 2806 1200 2600 
Q 1059 2434 1017 2257 
Q 975 2081 975 1753 
L 975 0 
L 413 0 
L 413 3347 
z
M 1734 3428 
L 1734 3428 
z
" transform="scale(0.015625)"/>
      <path id="Helvetica-69" d="M 413 3331 
L 984 3331 
L 984 0 
L 413 0 
L 413 3331 
z
M 413 4591 
L 984 4591 
L 984 3953 
L 413 3953 
L 413 4591 
z
" transform="scale(0.015625)"/>
      <path id="Helvetica-63" d="M 1703 3444 
Q 2269 3444 2623 3169 
Q 2978 2894 3050 2222 
L 2503 2222 
Q 2453 2531 2275 2736 
Q 2097 2941 1703 2941 
Q 1166 2941 934 2416 
Q 784 2075 784 1575 
Q 784 1072 996 728 
Q 1209 384 1666 384 
Q 2016 384 2220 598 
Q 2425 813 2503 1184 
L 3050 1184 
Q 2956 519 2581 211 
Q 2206 -97 1622 -97 
Q 966 -97 575 383 
Q 184 863 184 1581 
Q 184 2463 612 2953 
Q 1041 3444 1703 3444 
z
M 1616 3428 
L 1616 3428 
z
" transform="scale(0.015625)"/>
      <path id="Helvetica-47" d="M 2472 4709 
Q 3119 4709 3591 4459 
Q 4275 4100 4428 3200 
L 3813 3200 
Q 3700 3703 3347 3933 
Q 2994 4163 2456 4163 
Q 1819 4163 1383 3684 
Q 947 3206 947 2259 
Q 947 1441 1306 927 
Q 1666 413 2478 413 
Q 3100 413 3508 773 
Q 3916 1134 3925 1941 
L 2488 1941 
L 2488 2456 
L 4503 2456 
L 4503 0 
L 4103 0 
L 3953 591 
Q 3638 244 3394 109 
Q 2984 -122 2353 -122 
Q 1538 -122 950 406 
Q 309 1069 309 2225 
Q 309 3378 934 4059 
Q 1528 4709 2472 4709 
z
M 2369 4716 
L 2369 4716 
z
" transform="scale(0.015625)"/>
      <path id="Helvetica-41" d="M 2844 1881 
L 2147 3909 
L 1406 1881 
L 2844 1881 
z
M 1822 4591 
L 2525 4591 
L 4191 0 
L 3509 0 
L 3044 1375 
L 1228 1375 
L 731 0 
L 94 0 
L 1822 4591 
z
" transform="scale(0.015625)"/>
     </defs>
     <use xlink:href="#Helvetica-44"/>
     <use xlink:href="#Helvetica-79" x="72.216797"/>
     <use xlink:href="#Helvetica-6e" x="122.216797"/>
     <use xlink:href="#Helvetica-61" x="177.832031"/>
     <use xlink:href="#Helvetica-6d" x="233.447266"/>
     <use xlink:href="#Helvetica-69" x="316.748047"/>
     <use xlink:href="#Helvetica-63" x="338.964844"/>
     <use xlink:href="#Helvetica-20" x="388.964844"/>
     <use xlink:href="#Helvetica-54" x="416.748047"/>
     <use xlink:href="#Helvetica-47" x="477.832031"/>
     <use xlink:href="#Helvetica-41" x="555.615234"/>
    </g>
   </g>
   <g id="legend_1">
    <g id="patch_5">
     <path d="M 61 179.896 
L 221.3 179.896 
Q 223.3 179.896 223.3 177.896 
L 223.3 134.880375 
Q 223.3 132.880375 221.3 132.880375 
L 61 132.880375 
Q 59 132.880375 59 134.880375 
L 59 177.896 
Q 59 179.896 61 179.896 
z
" style="fill: #ffffff; opacity: 0.8; stroke: #cccccc; stroke-linejoin: miter"/>
    </g>
    <g id="line2d_16">
     <path d="M 63 140.553812 
L 73 140.553812 
L 83 140.553812 
" style="fill: none; stroke: #bdbdbd; stroke-width: 1.5; stroke-linecap: square"/>
    </g>
    <g id="text_16">
     <!-- PS-10K -->
     <g transform="translate(91 144.053812) scale(0.1 -0.1)">
      <defs>
       <path id="Helvetica-50" d="M 547 4591 
L 2613 4591 
Q 3225 4591 3600 4245 
Q 3975 3900 3975 3275 
Q 3975 2738 3640 2339 
Q 3306 1941 2613 1941 
L 1169 1941 
L 1169 0 
L 547 0 
L 547 4591 
z
M 3347 3272 
Q 3347 3778 2972 3959 
Q 2766 4056 2406 4056 
L 1169 4056 
L 1169 2466 
L 2406 2466 
Q 2825 2466 3086 2644 
Q 3347 2822 3347 3272 
z
" transform="scale(0.015625)"/>
       <path id="Helvetica-53" d="M 894 1481 
Q 916 1091 1078 847 
Q 1388 391 2169 391 
Q 2519 391 2806 491 
Q 3363 684 3363 1184 
Q 3363 1559 3128 1719 
Q 2891 1875 2384 1991 
L 1763 2131 
Q 1153 2269 900 2434 
Q 463 2722 463 3294 
Q 463 3913 891 4309 
Q 1319 4706 2103 4706 
Q 2825 4706 3329 4357 
Q 3834 4009 3834 3244 
L 3250 3244 
Q 3203 3613 3050 3809 
Q 2766 4169 2084 4169 
Q 1534 4169 1293 3937 
Q 1053 3706 1053 3400 
Q 1053 3063 1334 2906 
Q 1519 2806 2169 2656 
L 2813 2509 
Q 3278 2403 3531 2219 
Q 3969 1897 3969 1284 
Q 3969 522 3414 194 
Q 2859 -134 2125 -134 
Q 1269 -134 784 303 
Q 300 738 309 1481 
L 894 1481 
z
M 2150 4716 
L 2150 4716 
z
" transform="scale(0.015625)"/>
       <path id="Helvetica-2d" d="M 266 2072 
L 1834 2072 
L 1834 1494 
L 266 1494 
L 266 2072 
z
" transform="scale(0.015625)"/>
       <path id="Helvetica-4b" d="M 488 4591 
L 1094 4591 
L 1094 2353 
L 3331 4591 
L 4191 4591 
L 2281 2741 
L 4244 0 
L 3434 0 
L 1828 2303 
L 1094 1600 
L 1094 0 
L 488 0 
L 488 4591 
z
" transform="scale(0.015625)"/>
      </defs>
      <use xlink:href="#Helvetica-50"/>
      <use xlink:href="#Helvetica-53" x="66.699219"/>
      <use xlink:href="#Helvetica-2d" x="133.398438"/>
      <use xlink:href="#Helvetica-31" x="166.699219"/>
      <use xlink:href="#Helvetica-30" x="222.314453"/>
      <use xlink:href="#Helvetica-4b" x="277.929688"/>
     </g>
    </g>
    <g id="line2d_17">
     <path d="M 63 154.811625 
L 73 154.811625 
L 83 154.811625 
" style="fill: none; stroke: #74a9cf; stroke-width: 1.5; stroke-linecap: square"/>
    </g>
    <g id="text_17">
     <!-- PS-10K-SCF3 -->
     <g transform="translate(91 158.311625) scale(0.1 -0.1)">
      <defs>
       <path id="Helvetica-46" d="M 547 4591 
L 3731 4591 
L 3731 4028 
L 1169 4028 
L 1169 2634 
L 3422 2634 
L 3422 2088 
L 1169 2088 
L 1169 0 
L 547 0 
L 547 4591 
z
" transform="scale(0.015625)"/>
      </defs>
      <use xlink:href="#Helvetica-50"/>
      <use xlink:href="#Helvetica-53" x="66.699219"/>
      <use xlink:href="#Helvetica-2d" x="133.398438"/>
      <use xlink:href="#Helvetica-31" x="166.699219"/>
      <use xlink:href="#Helvetica-30" x="222.314453"/>
      <use xlink:href="#Helvetica-4b" x="277.929688"/>
      <use xlink:href="#Helvetica-2d" x="344.628906"/>
      <use xlink:href="#Helvetica-53" x="377.929688"/>
      <use xlink:href="#Helvetica-43" x="444.628906"/>
      <use xlink:href="#Helvetica-46" x="516.845703"/>
      <use xlink:href="#Helvetica-33" x="577.929688"/>
     </g>
    </g>
    <g id="line2d_18">
     <path d="M 63 169.196 
L 73 169.196 
L 83 169.196 
" style="fill: none; stroke-dasharray: 1.11,0.48; stroke-dashoffset: 0; stroke: #ff0000; stroke-width: 0.3"/>
    </g>
    <g id="text_18">
     <!-- $T_\mathregular{depolymerization}$ at 99.5% Mass -->
     <g transform="translate(91 172.696) scale(0.1 -0.1)">
      <defs>
       <path id="DejaVuSans-Oblique-54" d="M 378 4666 
L 4325 4666 
L 4225 4134 
L 2559 4134 
L 1759 0 
L 1125 0 
L 1925 4134 
L 275 4134 
L 378 4666 
z
" transform="scale(0.015625)"/>
       <path id="Helvetica-64" d="M 769 1634 
Q 769 1097 997 734 
Q 1225 372 1728 372 
Q 2119 372 2370 708 
Q 2622 1044 2622 1672 
Q 2622 2306 2362 2611 
Q 2103 2916 1722 2916 
Q 1297 2916 1033 2591 
Q 769 2266 769 1634 
z
M 1616 3406 
Q 2000 3406 2259 3244 
Q 2409 3150 2600 2916 
L 2600 4606 
L 3141 4606 
L 3141 0 
L 2634 0 
L 2634 466 
Q 2438 156 2169 18 
Q 1900 -119 1553 -119 
Q 994 -119 584 351 
Q 175 822 175 1603 
Q 175 2334 548 2870 
Q 922 3406 1616 3406 
z
" transform="scale(0.015625)"/>
       <path id="Helvetica-6c" d="M 428 4591 
L 991 4591 
L 991 0 
L 428 0 
L 428 4591 
z
" transform="scale(0.015625)"/>
       <path id="Helvetica-72" d="M 428 3347 
L 963 3347 
L 963 2769 
Q 1028 2938 1284 3180 
Q 1541 3422 1875 3422 
Q 1891 3422 1928 3419 
Q 1966 3416 2056 3406 
L 2056 2813 
Q 2006 2822 1964 2825 
Q 1922 2828 1872 2828 
Q 1447 2828 1219 2554 
Q 991 2281 991 1925 
L 991 0 
L 428 0 
L 428 3347 
z
" transform="scale(0.015625)"/>
       <path id="Helvetica-7a" d="M 163 444 
L 2147 2844 
L 309 2844 
L 309 3347 
L 2903 3347 
L 2903 2888 
L 931 503 
L 2963 503 
L 2963 0 
L 163 0 
L 163 444 
z
M 1609 3428 
L 1609 3428 
z
" transform="scale(0.015625)"/>
       <path id="Helvetica-74" d="M 525 4281 
L 1094 4281 
L 1094 3347 
L 1628 3347 
L 1628 2888 
L 1094 2888 
L 1094 703 
Q 1094 528 1213 469 
Q 1278 434 1431 434 
Q 1472 434 1519 436 
Q 1566 438 1628 444 
L 1628 0 
Q 1531 -28 1426 -40 
Q 1322 -53 1200 -53 
Q 806 -53 665 148 
Q 525 350 525 672 
L 525 2888 
L 72 2888 
L 72 3347 
L 525 3347 
L 525 4281 
z
" transform="scale(0.015625)"/>
       <path id="Helvetica-39" d="M 850 1081 
Q 875 616 1209 438 
Q 1381 344 1597 344 
Q 2000 344 2284 680 
Q 2569 1016 2688 2044 
Q 2500 1747 2223 1626 
Q 1947 1506 1628 1506 
Q 981 1506 604 1909 
Q 228 2313 228 2947 
Q 228 3556 600 4018 
Q 972 4481 1697 4481 
Q 2675 4481 3047 3600 
Q 3253 3116 3253 2388 
Q 3253 1566 3006 931 
Q 2597 -125 1619 -125 
Q 963 -125 622 219 
Q 281 563 281 1081 
L 850 1081 
z
M 1703 2000 
Q 2038 2000 2314 2220 
Q 2591 2441 2591 2991 
Q 2591 3484 2342 3726 
Q 2094 3969 1709 3969 
Q 1297 3969 1055 3692 
Q 813 3416 813 2953 
Q 813 2516 1025 2258 
Q 1238 2000 1703 2000 
z
" transform="scale(0.015625)"/>
       <path id="Helvetica-2e" d="M 547 681 
L 1200 681 
L 1200 0 
L 547 0 
L 547 681 
z
" transform="scale(0.015625)"/>
      </defs>
      <use xlink:href="#DejaVuSans-Oblique-54" transform="translate(0 0.09375)"/>
      <use xlink:href="#Helvetica-64" transform="translate(61.083984 -16.3125) scale(0.7)"/>
      <use xlink:href="#Helvetica-65" transform="translate(100.014648 -16.3125) scale(0.7)"/>
      <use xlink:href="#Helvetica-70" transform="translate(138.945312 -16.3125) scale(0.7)"/>
      <use xlink:href="#Helvetica-6f" transform="translate(177.875977 -16.3125) scale(0.7)"/>
      <use xlink:href="#Helvetica-6c" transform="translate(216.806641 -16.3125) scale(0.7)"/>
      <use xlink:href="#Helvetica-79" transform="translate(232.358398 -16.3125) scale(0.7)"/>
      <use xlink:href="#Helvetica-6d" transform="translate(267.358398 -16.3125) scale(0.7)"/>
      <use xlink:href="#Helvetica-65" transform="translate(325.668945 -16.3125) scale(0.7)"/>
      <use xlink:href="#Helvetica-72" transform="translate(364.599609 -16.3125) scale(0.7)"/>
      <use xlink:href="#Helvetica-69" transform="translate(387.910156 -16.3125) scale(0.7)"/>
      <use xlink:href="#Helvetica-7a" transform="translate(403.461914 -16.3125) scale(0.7)"/>
      <use xlink:href="#Helvetica-61" transform="translate(438.461914 -16.3125) scale(0.7)"/>
      <use xlink:href="#Helvetica-74" transform="translate(477.392578 -16.3125) scale(0.7)"/>
      <use xlink:href="#Helvetica-69" transform="translate(496.84082 -16.3125) scale(0.7)"/>
      <use xlink:href="#Helvetica-6f" transform="translate(512.392578 -16.3125) scale(0.7)"/>
      <use xlink:href="#Helvetica-6e" transform="translate(551.323242 -16.3125) scale(0.7)"/>
      <use xlink:href="#Helvetica-20" transform="translate(592.988281 0.09375)"/>
      <use xlink:href="#Helvetica-61" transform="translate(620.771484 0.09375)"/>
      <use xlink:href="#Helvetica-74" transform="translate(676.386719 0.09375)"/>
      <use xlink:href="#Helvetica-20" transform="translate(704.169922 0.09375)"/>
      <use xlink:href="#Helvetica-39" transform="translate(731.953125 0.09375)"/>
      <use xlink:href="#Helvetica-39" transform="translate(787.568359 0.09375)"/>
      <use xlink:href="#Helvetica-2e" transform="translate(843.183594 0.09375)"/>
      <use xlink:href="#Helvetica-35" transform="translate(870.966797 0.09375)"/>
      <use xlink:href="#Helvetica-25" transform="translate(926.582031 0.09375)"/>
      <use xlink:href="#Helvetica-20" transform="translate(1015.498047 0.09375)"/>
      <use xlink:href="#Helvetica-4d" transform="translate(1043.28125 0.09375)"/>
      <use xlink:href="#Helvetica-61" transform="translate(1126.582031 0.09375)"/>
      <use xlink:href="#Helvetica-73" transform="translate(1182.197266 0.09375)"/>
      <use xlink:href="#Helvetica-73" transform="translate(1232.197266 0.09375)"/>
     </g>
    </g>
   </g>
  </g>
  <g id="axes_2">
   <g id="patch_6">
    <path d="M 54 384.48 
L 388.8 384.48 
L 388.8 251.424 
L 54 251.424 
z
" style="fill: #ffffff"/>
   </g>
   <g id="matplotlib.axis_3">
    <g id="xtick_9">
     <g id="line2d_19">
      <g>
       <use xlink:href="#mba071957ef" x="76.32" y="384.48" style="stroke: #000000; stroke-width: 0.8"/>
      </g>
     </g>
     <g id="text_19">
      <!-- 260 -->
      <g transform="translate(66.310313 396.588125) scale(0.12 -0.12)">
       <use xlink:href="#Helvetica-32"/>
       <use xlink:href="#Helvetica-36" x="55.615234"/>
       <use xlink:href="#Helvetica-30" x="111.230469"/>
      </g>
     </g>
    </g>
    <g id="xtick_10">
     <g id="line2d_20">
      <g>
       <use xlink:href="#mba071957ef" x="120.96" y="384.48" style="stroke: #000000; stroke-width: 0.8"/>
      </g>
     </g>
     <g id="text_20">
      <!-- 280 -->
      <g transform="translate(110.950313 396.588125) scale(0.12 -0.12)">
       <use xlink:href="#Helvetica-32"/>
       <use xlink:href="#Helvetica-38" x="55.615234"/>
       <use xlink:href="#Helvetica-30" x="111.230469"/>
      </g>
     </g>
    </g>
    <g id="xtick_11">
     <g id="line2d_21">
      <g>
       <use xlink:href="#mba071957ef" x="165.6" y="384.48" style="stroke: #000000; stroke-width: 0.8"/>
      </g>
     </g>
     <g id="text_21">
      <!-- 300 -->
      <g transform="translate(155.590313 396.588125) scale(0.12 -0.12)">
       <use xlink:href="#Helvetica-33"/>
       <use xlink:href="#Helvetica-30" x="55.615234"/>
       <use xlink:href="#Helvetica-30" x="111.230469"/>
      </g>
     </g>
    </g>
    <g id="xtick_12">
     <g id="line2d_22">
      <g>
       <use xlink:href="#mba071957ef" x="210.24" y="384.48" style="stroke: #000000; stroke-width: 0.8"/>
      </g>
     </g>
     <g id="text_22">
      <!-- 320 -->
      <g transform="translate(200.230312 396.588125) scale(0.12 -0.12)">
       <use xlink:href="#Helvetica-33"/>
       <use xlink:href="#Helvetica-32" x="55.615234"/>
       <use xlink:href="#Helvetica-30" x="111.230469"/>
      </g>
     </g>
    </g>
    <g id="xtick_13">
     <g id="line2d_23">
      <g>
       <use xlink:href="#mba071957ef" x="254.88" y="384.48" style="stroke: #000000; stroke-width: 0.8"/>
      </g>
     </g>
     <g id="text_23">
      <!-- 340 -->
      <g transform="translate(244.870313 396.588125) scale(0.12 -0.12)">
       <use xlink:href="#Helvetica-33"/>
       <use xlink:href="#Helvetica-34" x="55.615234"/>
       <use xlink:href="#Helvetica-30" x="111.230469"/>
      </g>
     </g>
    </g>
    <g id="xtick_14">
     <g id="line2d_24">
      <g>
       <use xlink:href="#mba071957ef" x="299.52" y="384.48" style="stroke: #000000; stroke-width: 0.8"/>
      </g>
     </g>
     <g id="text_24">
      <!-- 360 -->
      <g transform="translate(289.510313 396.588125) scale(0.12 -0.12)">
       <use xlink:href="#Helvetica-33"/>
       <use xlink:href="#Helvetica-36" x="55.615234"/>
       <use xlink:href="#Helvetica-30" x="111.230469"/>
      </g>
     </g>
    </g>
    <g id="xtick_15">
     <g id="line2d_25">
      <g>
       <use xlink:href="#mba071957ef" x="344.16" y="384.48" style="stroke: #000000; stroke-width: 0.8"/>
      </g>
     </g>
     <g id="text_25">
      <!-- 380 -->
      <g transform="translate(334.150313 396.588125) scale(0.12 -0.12)">
       <use xlink:href="#Helvetica-33"/>
       <use xlink:href="#Helvetica-38" x="55.615234"/>
       <use xlink:href="#Helvetica-30" x="111.230469"/>
      </g>
     </g>
    </g>
    <g id="xtick_16">
     <g id="line2d_26">
      <g>
       <use xlink:href="#mba071957ef" x="388.8" y="384.48" style="stroke: #000000; stroke-width: 0.8"/>
      </g>
     </g>
     <g id="text_26">
      <!-- 400 -->
      <g transform="translate(378.790313 396.588125) scale(0.12 -0.12)">
       <use xlink:href="#Helvetica-34"/>
       <use xlink:href="#Helvetica-30" x="55.615234"/>
       <use xlink:href="#Helvetica-30" x="111.230469"/>
      </g>
     </g>
    </g>
    <g id="text_27">
     <!-- Temp (oC) -->
     <g transform="translate(192.732188 411.931875) scale(0.12 -0.12)">
      <use xlink:href="#Helvetica-54"/>
      <use xlink:href="#Helvetica-65" x="61.083984"/>
      <use xlink:href="#Helvetica-6d" x="116.699219"/>
      <use xlink:href="#Helvetica-70" x="200"/>
      <use xlink:href="#Helvetica-20" x="255.615234"/>
      <use xlink:href="#Helvetica-28" x="283.398438"/>
      <use xlink:href="#Helvetica-6f" x="316.699219"/>
      <use xlink:href="#Helvetica-43" x="372.314453"/>
      <use xlink:href="#Helvetica-29" x="444.53125"/>
     </g>
    </g>
   </g>
   <g id="matplotlib.axis_4">
    <g id="ytick_5">
     <g id="line2d_27">
      <g>
       <use xlink:href="#mcadf52b89c" x="54" y="347.474553" style="stroke: #000000; stroke-width: 0.8"/>
      </g>
     </g>
     <g id="text_28">
      <!-- 1.4 -->
      <g transform="translate(33.82 351.778616) scale(0.12 -0.12)">
       <use xlink:href="#Helvetica-31"/>
       <use xlink:href="#Helvetica-2e" x="55.615234"/>
       <use xlink:href="#Helvetica-34" x="83.398438"/>
      </g>
     </g>
    </g>
    <g id="ytick_6">
     <g id="line2d_28">
      <g>
       <use xlink:href="#mcadf52b89c" x="54" y="297.53916" style="stroke: #000000; stroke-width: 0.8"/>
      </g>
     </g>
     <g id="text_29">
      <!-- 1.5 -->
      <g transform="translate(33.82 301.843223) scale(0.12 -0.12)">
       <use xlink:href="#Helvetica-31"/>
       <use xlink:href="#Helvetica-2e" x="55.615234"/>
       <use xlink:href="#Helvetica-35" x="83.398438"/>
      </g>
     </g>
    </g>
    <g id="text_30">
     <!-- Ion Current (A) -->
     <g transform="translate(27.31875 357.628875) rotate(-90) scale(0.12 -0.12)">
      <defs>
       <path id="Helvetica-49" d="M 628 4591 
L 1256 4591 
L 1256 0 
L 628 0 
L 628 4591 
z
" transform="scale(0.015625)"/>
       <path id="Helvetica-75" d="M 975 3347 
L 975 1125 
Q 975 869 1056 706 
Q 1206 406 1616 406 
Q 2203 406 2416 931 
Q 2531 1213 2531 1703 
L 2531 3347 
L 3094 3347 
L 3094 0 
L 2563 0 
L 2569 494 
Q 2459 303 2297 172 
Q 1975 -91 1516 -91 
Q 800 -91 541 388 
Q 400 644 400 1072 
L 400 3347 
L 975 3347 
z
M 1747 3428 
L 1747 3428 
z
" transform="scale(0.015625)"/>
      </defs>
      <use xlink:href="#Helvetica-49"/>
      <use xlink:href="#Helvetica-6f" x="27.783203"/>
      <use xlink:href="#Helvetica-6e" x="83.398438"/>
      <use xlink:href="#Helvetica-20" x="139.013672"/>
      <use xlink:href="#Helvetica-43" x="166.796875"/>
      <use xlink:href="#Helvetica-75" x="239.013672"/>
      <use xlink:href="#Helvetica-72" x="294.628906"/>
      <use xlink:href="#Helvetica-72" x="327.929688"/>
      <use xlink:href="#Helvetica-65" x="361.230469"/>
      <use xlink:href="#Helvetica-6e" x="416.845703"/>
      <use xlink:href="#Helvetica-74" x="472.460938"/>
      <use xlink:href="#Helvetica-20" x="500.244141"/>
      <use xlink:href="#Helvetica-28" x="528.027344"/>
      <use xlink:href="#Helvetica-41" x="561.328125"/>
      <use xlink:href="#Helvetica-29" x="628.027344"/>
     </g>
    </g>
    <g id="text_31">
     <!-- 1e−12 -->
     <g transform="translate(54 248.424) scale(0.1 -0.1)">
      <defs>
       <path id="Helvetica-2212" d="M 3547 1894 
L 3547 1369 
L 288 1369 
L 288 1894 
L 3547 1894 
z
" transform="scale(0.015625)"/>
      </defs>
      <use xlink:href="#Helvetica-31"/>
      <use xlink:href="#Helvetica-65" x="55.615234"/>
      <use xlink:href="#Helvetica-2212" x="111.230469"/>
      <use xlink:href="#Helvetica-31" x="169.628906"/>
      <use xlink:href="#Helvetica-32" x="225.244141"/>
     </g>
    </g>
   </g>
   <g id="line2d_29">
    <path d="M 54.071424 356.525843 
L 54.495504 370.812358 
L 54.778968 336.52472 
L 55.256616 345.09663 
L 55.569096 359.383146 
L 55.975298 318.428134 
L 56.281104 329.857347 
L 56.72525 360.335414 
L 57.008758 344.143863 
L 57.455136 329.857347 
L 57.75871 349.858469 
L 58.077864 333.667417 
L 58.52875 335.571953 
L 58.937206 357.47811 
L 59.575536 313.665796 
L 60.294262 359.383146 
L 60.733944 360.335414 
L 61.035242 335.571953 
L 61.479432 347.001166 
L 61.782984 344.143863 
L 62.073144 359.383146 
L 62.519544 350.811236 
L 62.845416 338.429256 
L 63.280656 327.952311 
L 63.579766 349.858469 
L 64.044 335.571953 
L 64.327464 357.47811 
L 64.753754 333.667417 
L 65.057306 333.667417 
L 65.519352 321.285437 
L 65.811766 331.762382 
L 66.246984 342.239327 
L 66.541608 325.095008 
L 66.985754 329.857347 
L 67.29377 308.903457 
L 67.595112 313.665796 
L 68.329462 344.143863 
L 68.773586 341.286559 
L 69.068254 319.380402 
L 69.534698 314.618563 
L 69.838294 328.905079 
L 70.119459 327.000043 
L 70.565904 335.571953 
L 70.887334 347.001166 
L 71.295746 317.475866 
L 71.61943 365.097752 
L 72.059112 323.190472 
L 72.358222 336.52472 
L 72.79123 367.955055 
L 73.103666 347.953933 
L 73.536674 312.713528 
L 73.858104 342.239327 
L 74.150541 338.429256 
L 74.581294 305.093886 
L 74.891498 321.285437 
L 75.328992 334.619685 
L 75.79327 321.285437 
L 76.094546 345.09663 
L 76.53204 339.382023 
L 76.833382 313.665796 
L 77.13247 337.476988 
L 77.590008 325.095008 
L 77.875682 342.239327 
L 78.295342 325.095008 
L 78.598872 346.048898 
L 79.065382 333.667417 
L 79.342128 344.143863 
L 79.77739 337.476988 
L 80.078666 345.09663 
L 80.51616 348.906201 
L 80.813016 334.619685 
L 81.118778 344.143863 
L 81.565222 334.619685 
L 81.86873 356.525843 
L 82.60308 329.857347 
L 83.065104 332.71465 
L 83.370888 314.618563 
L 83.797222 342.239327 
L 84.085128 322.237705 
L 84.82392 353.668539 
L 85.131936 353.668539 
L 85.576104 344.143863 
L 85.861778 346.048898 
L 86.308222 346.048898 
L 86.622912 333.667417 
L 87.069334 339.382023 
L 87.357262 347.953933 
L 87.654096 329.857347 
L 88.118374 358.430878 
L 88.417462 321.285437 
L 88.845984 347.953933 
L 89.147326 351.763504 
L 89.589262 319.380402 
L 89.886096 313.665796 
L 90.33696 327.952311 
L 90.638302 360.335414 
L 91.107 329.857347 
L 91.39716 331.762382 
L 91.81008 337.476988 
L 92.12477 324.14274 
L 92.575634 337.476988 
L 92.868048 326.047776 
L 93.323398 329.857347 
L 93.615746 343.191595 
L 94.039848 327.952311 
L 94.35235 358.430878 
L 94.664786 328.905079 
L 95.097794 346.048898 
L 95.40139 368.907323 
L 95.829912 318.428134 
L 96.146856 349.858469 
L 96.59551 334.619685 
L 96.896786 333.667417 
L 97.334302 341.286559 
L 97.63781 319.380402 
L 97.932478 338.429256 
L 98.365486 321.285437 
L 98.691358 322.237705 
L 99.142222 333.667417 
L 99.423454 375.574697 
L 100.597486 339.382023 
L 100.918872 355.573575 
L 101.36304 344.143863 
L 101.63088 332.71465 
L 101.936642 329.857347 
L 102.394246 348.906201 
L 102.686594 347.953933 
L 103.124088 364.145484 
L 103.456634 338.429256 
L 104.170896 346.048898 
L 104.615064 349.858469 
L 105.061486 363.192717 
L 105.36727 339.382023 
L 105.659618 369.86009 
L 106.092626 359.383146 
L 106.405128 309.856224 
L 106.842578 346.048898 
L 107.164008 347.953933 
L 107.57916 353.668539 
L 107.884944 318.428134 
L 108.632642 346.048898 
L 109.056722 338.429256 
L 109.378152 346.048898 
L 110.096856 331.762382 
L 110.38253 315.570831 
L 110.842366 332.71465 
L 111.605666 347.001166 
L 111.89808 343.191595 
L 112.34227 335.571953 
L 112.645778 367.002787 
L 112.942634 347.001166 
L 113.386802 332.71465 
L 113.668056 342.239327 
L 114.125594 363.192717 
L 114.84653 313.665796 
L 115.172446 339.382023 
L 115.877714 351.763504 
L 116.339738 337.476988 
L 116.654494 331.762382 
L 117.091944 349.858469 
L 117.382104 310.808492 
L 117.830714 350.811236 
L 118.118642 339.382023 
L 118.571738 335.571953 
L 118.877522 350.811236 
L 119.618546 339.382023 
L 119.917634 356.525843 
L 120.348454 337.476988 
L 120.631896 337.476988 
L 121.09392 347.953933 
L 121.370666 311.76126 
L 121.82827 336.52472 
L 122.140706 295.569709 
L 122.428634 338.429256 
L 122.872802 317.475866 
L 123.198674 314.618563 
L 123.629494 303.188851 
L 123.939698 315.570831 
L 124.359358 359.383146 
L 124.671794 333.667417 
L 125.12047 330.810114 
L 125.881538 351.763504 
L 126.16951 327.952311 
L 126.598032 331.762382 
L 126.92839 315.570831 
L 127.354658 327.952311 
L 127.658254 359.383146 
L 128.372494 310.808492 
L 128.709459 315.570831 
L 129.162578 354.620807 
L 129.461666 338.429256 
L 129.914762 355.573575 
L 130.20943 347.953933 
L 130.617864 340.334291 
L 130.939294 360.335414 
L 131.394578 351.763504 
L 131.704848 354.620807 
L 132.008422 330.810114 
L 132.44143 355.573575 
L 132.71369 320.333169 
L 133.184642 352.716271 
L 133.459222 360.335414 
L 133.930152 349.858469 
L 134.18681 326.047776 
L 134.65553 357.47811 
L 134.927856 318.428134 
L 135.258214 337.476988 
L 135.653278 336.52472 
L 135.961294 297.474244 
L 136.405462 314.618563 
L 136.715666 372.717394 
L 137.450016 328.905079 
L 137.90088 356.525843 
L 138.199968 332.71465 
L 138.65081 366.05002 
L 138.954406 301.284315 
L 139.407502 326.047776 
L 139.69543 361.288181 
L 140.117278 306.998921 
L 140.416366 341.286559 
L 140.880578 347.953933 
L 141.143976 331.762382 
L 141.458666 341.286559 
L 141.900602 369.86009 
L 142.184088 337.476988 
L 142.650554 359.383146 
L 142.947454 356.525843 
L 143.396064 315.570831 
L 143.697406 326.047776 
L 144.14827 337.476988 
L 144.445104 313.665796 
L 144.708502 313.665796 
L 145.181642 346.048898 
L 145.453968 320.333169 
L 145.909318 340.334291 
L 146.219522 320.333169 
L 146.632486 358.430878 
L 146.962778 314.618563 
L 147.42931 360.335414 
L 147.70831 326.047776 
L 148.145738 323.190472 
L 148.456008 333.667417 
L 149.016262 329.857347 
L 149.212634 338.429256 
L 149.694746 321.285437 
L 149.96484 319.380402 
L 150.295198 331.762382 
L 150.71035 324.14274 
L 151.004952 348.906201 
L 151.451374 327.952311 
L 151.766064 329.857347 
L 152.214674 340.334291 
L 152.545032 318.428134 
L 152.957952 333.667417 
L 153.268222 333.667417 
L 153.53604 342.239327 
L 154.031522 349.858469 
L 154.368554 323.190472 
L 154.759198 330.810114 
L 155.049358 320.333169 
L 155.500222 328.905079 
L 155.805984 347.001166 
L 156.243478 294.616941 
L 156.560422 345.09663 
L 156.991198 331.762382 
L 157.283546 314.618563 
L 158.022382 346.048898 
L 158.484406 345.09663 
L 158.79019 323.190472 
L 159.07361 320.333169 
L 159.511104 337.476988 
L 159.790104 334.619685 
L 160.245454 319.380402 
L 160.560144 345.09663 
L 161.004334 311.76126 
L 161.31235 347.001166 
L 161.745358 329.857347 
L 162.03996 348.906201 
L 162.49973 347.001166 
L 162.807746 341.286559 
L 163.086746 325.095008 
L 163.852366 330.810114 
L 164.289794 354.620807 
L 164.58223 343.191595 
L 165.039746 299.37928 
L 165.318746 330.810114 
L 165.78077 320.333169 
L 166.070952 340.334291 
L 166.356626 342.239327 
L 167.111064 313.665796 
L 167.550746 335.571953 
L 167.854342 338.429256 
L 168.586438 314.618563 
L 169.05065 308.903457 
L 169.338578 327.000043 
L 169.776072 333.667417 
L 170.086342 344.143863 
L 170.503682 312.713528 
L 171.128642 337.476988 
L 171.56839 317.475866 
L 171.862992 312.713528 
L 172.300486 327.952311 
L 172.60627 332.71465 
L 173.03477 318.428134 
L 173.34504 347.001166 
L 173.766888 353.668539 
L 174.070462 349.858469 
L 174.380666 326.047776 
L 174.851618 345.09663 
L 175.119502 325.095008 
L 175.570366 336.52472 
L 175.858294 360.335414 
L 176.612666 307.951189 
L 176.914008 327.952311 
L 177.35369 339.382023 
L 177.650546 351.763504 
L 178.081366 328.905079 
L 178.396056 322.237705 
L 178.849152 331.762382 
L 179.123666 323.190472 
L 179.603546 320.333169 
L 179.887032 335.571953 
L 180.299952 305.093886 
L 180.612454 332.71465 
L 181.049904 341.286559 
L 181.355666 315.570831 
L 181.81769 310.808492 
L 182.101198 327.952311 
L 182.844454 347.953933 
L 183.306478 313.665796 
L 184.043016 346.048898 
L 184.32869 350.811236 
L 185.083128 332.71465 
L 185.395586 303.188851 
L 185.828594 322.237705 
L 186.127682 316.523099 
L 186.585286 346.048898 
L 186.87096 346.048898 
L 187.310642 330.810114 
L 187.645486 347.001166 
L 188.098538 347.001166 
L 188.373096 323.190472 
L 188.661024 309.856224 
L 189.433318 327.000043 
L 189.86184 321.285437 
L 190.158674 342.239327 
L 190.638554 320.333169 
L 190.915366 317.475866 
L 191.24347 310.808492 
L 191.65639 331.762382 
L 191.953246 354.620807 
L 192.397414 313.665796 
L 192.68753 310.808492 
L 193.133952 315.570831 
L 193.450896 334.619685 
L 193.872722 339.382023 
L 194.182992 324.14274 
L 194.631602 321.285437 
L 194.917342 347.001166 
L 195.357024 357.47811 
L 195.678454 337.476988 
L 196.115904 322.237705 
L 196.412738 347.953933 
L 196.70292 344.143863 
L 197.153762 321.285437 
L 197.450618 344.143863 
L 197.894786 337.476988 
L 198.191642 295.569709 
L 198.63581 356.525843 
L 198.921506 306.998921 
L 199.684872 327.000043 
L 199.968358 343.191595 
L 200.448238 320.333169 
L 200.720498 329.857347 
L 201.191494 330.810114 
L 201.452594 318.428134 
L 202.195872 339.382023 
L 202.648968 316.523099 
L 202.948056 321.285437 
L 203.392246 341.286559 
L 203.711422 332.71465 
L 204.146618 315.570831 
L 204.42343 354.620807 
L 205.177802 301.284315 
L 205.463498 295.569709 
L 205.912152 305.093886 
L 206.20008 291.759638 
L 206.662104 325.095008 
L 206.947778 321.285437 
L 207.244634 328.905079 
L 207.695498 334.619685 
L 207.992398 331.762382 
L 208.436522 345.09663 
L 208.75351 312.713528 
L 209.193214 318.428134 
L 209.50123 351.763504 
L 209.93647 351.763504 
L 210.69535 327.952311 
L 210.965422 281.282693 
L 211.284554 327.952311 
L 211.715374 323.190472 
L 212.036738 341.286559 
L 212.472 304.141618 
L 212.757674 328.905079 
L 213.20635 328.905079 
L 213.52104 345.09663 
L 213.956302 309.856224 
L 214.266506 350.811236 
L 214.99416 306.046653 
L 215.322286 345.09663 
L 215.755294 321.285437 
L 216.215064 329.857347 
L 216.502992 319.380402 
L 216.777506 284.139997 
L 217.25069 330.810114 
L 217.543104 373.669662 
L 218.281896 327.000043 
L 218.594398 332.71465 
L 219.029594 312.713528 
L 219.451486 355.573575 
L 220.04069 319.380402 
L 220.511642 326.047776 
L 220.804056 327.952311 
L 221.261594 331.762382 
L 221.562936 302.236583 
L 222.00043 347.953933 
L 222.277198 317.475866 
L 222.77047 316.523099 
L 223.053912 336.52472 
L 223.484666 320.333169 
L 223.77708 327.000043 
L 224.212342 305.093886 
L 224.823888 351.763504 
L 225.259128 316.523099 
L 225.571586 330.810114 
L 225.980064 358.430878 
L 226.263506 314.618563 
L 226.714414 368.907323 
L 227.042541 333.667417 
L 227.479968 334.619685 
L 227.772382 348.906201 
L 228.089326 344.143863 
L 228.529008 299.37928 
L 228.83035 347.953933 
L 229.55796 324.14274 
L 230.008802 341.286559 
L 230.319072 360.335414 
L 230.767682 347.953933 
L 231.046682 315.570831 
L 231.506541 331.762382 
L 231.798888 347.953933 
L 232.24973 308.903457 
L 232.539912 306.998921 
L 232.852414 306.046653 
L 233.289864 327.952311 
L 233.57777 328.905079 
L 234.039794 356.525843 
L 234.33665 309.856224 
L 234.765238 320.333169 
L 235.079928 348.906201 
L 235.52635 315.570831 
L 235.81651 325.095008 
L 236.26512 349.858469 
L 236.56865 357.47811 
L 237.028486 324.14274 
L 237.300746 312.713528 
L 237.718152 334.619685 
L 238.474778 324.14274 
L 238.77612 364.145484 
L 239.226984 366.05002 
L 239.532746 322.237705 
L 239.80284 346.048898 
L 240.264864 319.380402 
L 240.550538 341.286559 
L 241.001446 349.858469 
L 241.302722 303.188851 
L 241.762514 329.857347 
L 242.05716 317.475866 
L 242.78477 354.620807 
L 243.548136 301.284315 
L 243.972238 342.239327 
L 244.278 342.239327 
L 244.583762 316.523099 
L 245.324786 353.668539 
L 245.773462 334.619685 
L 246.059136 334.619685 
L 246.494398 339.382023 
L 246.82027 345.09663 
L 247.24435 334.619685 
L 247.552366 286.045032 
L 248.273302 348.906201 
L 248.746486 355.573575 
L 249.04553 347.953933 
L 249.494206 322.237705 
L 249.770952 340.334291 
L 250.065554 351.763504 
L 250.496374 340.334291 
L 250.802136 336.52472 
L 251.110152 310.808492 
L 251.536486 332.71465 
L 251.989538 343.191595 
L 252.30204 334.619685 
L 252.737302 337.476988 
L 253.027462 332.71465 
L 253.342152 331.762382 
L 253.79527 310.808492 
L 254.08543 325.095008 
L 254.540714 323.190472 
L 254.835382 330.810114 
L 255.585334 320.333169 
L 256.049546 301.284315 
L 257.10084 335.571953 
L 257.373144 358.430878 
L 257.824008 312.713528 
L 258.116422 312.713528 
L 258.562778 337.476988 
L 258.841778 333.667417 
L 259.279294 324.14274 
L 259.602912 309.856224 
L 260.038152 321.285437 
L 260.317152 320.333169 
L 260.77027 313.665796 
L 261.038088 326.047776 
L 261.361706 332.71465 
L 261.817056 323.190472 
L 262.113912 344.143863 
L 263.276762 327.000043 
L 263.59596 310.808492 
L 264.057984 328.905079 
L 264.328056 300.331548 
L 264.785594 358.430878 
L 265.080262 330.810114 
L 265.51769 311.76126 
L 265.814546 339.382023 
L 266.263222 342.239327 
L 266.56231 303.188851 
L 266.997506 312.713528 
L 267.323422 328.905079 
L 267.751944 321.285437 
L 268.066634 350.811236 
L 268.372462 331.762382 
L 268.836674 321.285437 
L 269.122414 334.619685 
L 269.559864 322.237705 
L 269.876786 320.333169 
L 270.341064 347.953933 
L 270.631246 351.763504 
L 271.07316 320.333169 
L 271.347674 321.285437 
L 271.642342 312.713528 
L 272.119968 315.570831 
L 272.396714 329.857347 
L 272.83865 323.190472 
L 273.155594 314.618563 
L 273.595342 327.000043 
L 273.889944 312.713528 
L 274.351968 319.380402 
L 274.635454 302.236583 
L 275.090738 302.236583 
L 275.378666 343.191595 
L 275.686682 327.952311 
L 276.133104 342.239327 
L 276.434446 318.428134 
L 276.856294 361.288181 
L 277.617406 297.474244 
L 277.941024 327.000043 
L 278.228952 321.285437 
L 278.679794 335.571953 
L 278.974462 332.71465 
L 279.425326 347.001166 
L 279.733342 324.14274 
L 280.188626 316.523099 
L 280.487714 326.047776 
L 280.90512 327.952311 
L 281.20865 312.713528 
L 281.659514 344.143863 
L 281.960856 282.235461 
L 282.68851 325.095008 
L 283.427302 313.665796 
L 283.748666 326.047776 
L 284.190602 305.093886 
L 284.474088 331.762382 
L 284.773198 316.523099 
L 285.22404 335.571953 
L 285.523128 316.523099 
L 285.987406 312.713528 
L 286.268594 274.615819 
L 286.723944 328.905079 
L 287.020778 302.236583 
L 287.462714 337.476988 
L 287.772984 317.475866 
L 288.50508 308.903457 
L 288.94927 304.141618 
L 289.23943 323.190472 
L 289.978222 340.334291 
L 290.429064 326.047776 
L 290.730406 308.903457 
L 291.147746 303.188851 
L 291.451342 323.190472 
L 291.931222 327.000043 
L 292.203459 322.237705 
L 292.527144 313.665796 
L 292.960152 328.905079 
L 293.265936 327.000043 
L 293.710104 304.141618 
L 294.002541 315.570831 
L 294.457802 327.952311 
L 294.743498 316.523099 
L 295.038144 356.525843 
L 295.486754 338.429256 
L 295.77919 331.762382 
L 296.225546 294.616941 
L 296.52912 344.143863 
L 296.98447 299.37928 
L 297.283514 322.237705 
L 297.721008 330.810114 
L 298.024538 327.000043 
L 298.292422 301.284315 
L 298.736546 329.857347 
L 299.046794 323.190472 
L 299.49547 306.998921 
L 299.790072 341.286559 
L 300.511008 311.76126 
L 300.968546 312.713528 
L 301.249778 311.76126 
L 301.693968 324.14274 
L 302.013144 336.52472 
L 302.450594 332.71465 
L 302.767538 318.428134 
L 303.475104 331.762382 
L 303.789794 318.428134 
L 304.260746 349.858469 
L 304.550928 313.665796 
L 304.983936 311.76126 
L 305.47723 316.523099 
L 305.747302 341.286559 
L 306.17357 340.334291 
L 306.474912 359.383146 
L 306.771746 316.523099 
L 307.213682 307.951189 
L 307.510538 314.618563 
L 307.96812 313.665796 
L 308.289506 319.380402 
L 308.69573 319.380402 
L 309.014928 338.429256 
L 309.439008 338.429256 
L 309.731422 324.14274 
L 310.195634 333.667417 
L 310.501462 313.665796 
L 310.929984 357.47811 
L 311.222398 318.428134 
L 311.69335 330.810114 
L 311.963422 342.239327 
L 312.278112 319.380402 
L 312.722302 353.668539 
L 313.463326 303.188851 
L 313.740072 314.618563 
L 314.514554 350.811236 
L 314.940888 306.998921 
L 315.262318 348.906201 
L 315.708674 291.759638 
L 315.994414 322.237705 
L 316.438538 335.571953 
L 316.748786 308.903457 
L 317.197462 308.903457 
L 317.496506 328.905079 
L 317.925072 311.76126 
L 318.210746 317.475866 
L 318.66835 301.284315 
L 318.965206 323.190472 
L 319.26204 317.475866 
L 319.701722 336.52472 
L 320.005318 306.998921 
L 320.449486 320.333169 
L 320.74853 291.759638 
L 321.208366 332.71465 
L 321.491786 345.09663 
L 321.802056 309.856224 
L 322.226136 336.52472 
L 322.536406 338.429256 
L 322.982762 319.380402 
L 323.284104 321.285437 
L 323.723786 308.903457 
L 324.458136 315.570831 
L 324.746064 327.000043 
L 325.232618 308.903457 
L 325.81296 335.571953 
L 326.263802 328.905079 
L 326.553984 298.427012 
L 326.993666 311.76126 
L 327.288334 329.857347 
L 327.743618 330.810114 
L 328.022618 327.952311 
L 328.45788 313.665796 
L 328.77257 336.52472 
L 329.216738 334.619685 
L 329.51808 347.953933 
L 329.968944 306.998921 
L 330.727802 327.952311 
L 331.000128 322.237705 
L 331.43981 335.571953 
L 331.754522 311.76126 
L 332.044682 325.095008 
L 332.47769 284.139997 
L 332.78796 327.000043 
L 333.227642 320.333169 
L 333.535658 340.334291 
L 333.973152 336.52472 
L 334.29235 357.47811 
L 335.017706 302.236583 
L 335.32349 299.37928 
L 335.772144 326.047776 
L 336.189506 307.951189 
L 336.486406 325.095008 
L 336.812278 324.14274 
L 337.254214 314.618563 
L 337.548794 327.952311 
L 338.004144 277.473122 
L 338.303254 306.998921 
L 338.738494 298.427012 
L 339.048698 331.762382 
L 339.497374 349.858469 
L 339.760706 306.046653 
L 340.216056 339.382023 
L 340.517398 329.857347 
L 340.990538 352.716271 
L 341.280698 333.667417 
L 341.597642 297.474244 
L 342.028462 313.665796 
L 342.318578 340.334291 
L 342.816358 329.857347 
L 343.05516 329.857347 
L 343.818459 304.141618 
L 344.09304 307.951189 
L 344.534976 337.476988 
L 344.82065 295.569709 
L 345.273746 304.141618 
L 345.575088 336.52472 
L 346.028206 327.952311 
L 346.30051 314.618563 
L 346.829494 315.570831 
L 347.057136 325.095008 
L 347.514674 303.188851 
L 347.804856 307.951189 
L 348.273554 286.997799 
L 348.568222 317.475866 
L 348.853896 321.285437 
L 349.311478 311.76126 
L 349.621682 302.236583 
L 350.06143 306.046653 
L 350.33369 322.237705 
L 350.78904 326.047776 
L 351.081454 322.237705 
L 351.543478 325.095008 
L 352.150538 353.668539 
L 352.585778 301.284315 
L 352.889374 347.953933 
L 353.329056 332.71465 
L 353.625912 311.76126 
L 354.076754 308.903457 
L 354.378096 318.428134 
L 354.82896 363.192717 
L 355.121374 317.475866 
L 355.413722 339.382023 
L 355.844498 341.286559 
L 356.159254 333.667417 
L 356.58108 307.951189 
L 356.89135 324.14274 
L 357.322104 333.667417 
L 357.63012 300.331548 
L 358.089912 318.428134 
L 358.828682 323.190472 
L 359.58312 333.667417 
L 359.859888 337.476988 
L 360.308498 334.619685 
L 360.618746 337.476988 
L 361.083024 370.812358 
L 361.339682 347.001166 
L 361.795032 327.952311 
L 362.067358 307.951189 
L 362.513714 333.667417 
L 362.835144 328.905079 
L 363.288262 327.000043 
L 363.571682 321.285437 
L 363.897554 300.331548 
L 364.33949 297.474244 
L 364.656478 326.047776 
L 365.098414 352.716271 
L 365.350586 305.093886 
L 365.82377 328.905079 
L 366.555888 299.37928 
L 366.852722 317.475866 
L 367.13623 289.855102 
L 367.587072 321.285437 
L 367.89953 297.474244 
L 368.361554 332.71465 
L 368.638366 340.334291 
L 369.111506 337.476988 
L 369.828 298.427012 
L 370.127088 339.382023 
L 370.41727 299.37928 
L 370.87704 311.76126 
L 371.176128 347.953933 
L 371.597976 300.331548 
L 372.064486 342.239327 
L 372.354602 325.095008 
L 372.647016 318.428134 
L 373.09788 321.285437 
L 373.38804 328.905079 
L 373.834462 296.521977 
L 374.144666 316.523099 
L 374.60669 322.237705 
L 374.88569 316.523099 
L 375.32988 309.856224 
L 375.622294 296.521977 
L 376.095478 324.14274 
L 376.372246 295.569709 
L 376.820856 303.188851 
L 377.122198 345.09663 
L 377.425706 316.523099 
L 377.858714 289.855102 
L 378.18684 319.380402 
L 378.644422 314.618563 
L 378.92119 308.903457 
L 379.682302 359.383146 
L 380.130912 318.428134 
L 380.414398 346.048898 
L 380.860754 301.284315 
L 381.159864 300.331548 
L 381.43661 295.569709 
L 381.885286 309.856224 
L 382.199976 297.474244 
L 382.63747 320.333169 
L 382.925398 325.095008 
L 383.394096 320.333169 
L 383.67535 312.713528 
L 384.117286 330.810114 
L 384.423048 300.331548 
L 384.880586 332.71465 
L 385.18416 321.285437 
L 385.458674 327.000043 
L 385.902864 313.665796 
L 386.362634 317.475866 
L 386.675136 334.619685 
L 387.076896 326.047776 
L 387.38047 316.523099 
L 387.692928 345.09663 
L 388.239746 327.000043 
L 389.621398 299.37928 
L 389.621398 299.37928 
" clip-path="url(#pc0c3f7fb98)" style="fill: none; stroke: #bdbdbd; stroke-width: 1.5; stroke-linecap: square"/>
   </g>
   <g id="line2d_30">
    <path d="M 54.06696 324.14274 
L 54.486576 328.905079 
L 54.776758 351.763504 
L 55.245456 353.668539 
L 55.546754 337.476988 
L 55.982016 332.71465 
L 56.281104 319.380402 
L 56.72304 338.429256 
L 56.995344 325.095008 
L 57.439512 320.333169 
L 57.736368 323.190472 
L 58.202856 317.475866 
L 58.490762 334.619685 
L 59.205024 310.808492 
L 59.519758 348.906201 
L 59.997384 319.380402 
L 60.289754 324.14274 
L 60.579936 342.239327 
L 60.999552 334.619685 
L 61.760686 338.429256 
L 62.075376 339.382023 
L 62.524008 310.808492 
L 62.834234 344.143863 
L 63.249408 318.428134 
L 63.738238 324.14274 
L 64.01052 312.713528 
L 64.441274 327.000043 
L 64.78056 321.285437 
L 65.064024 319.380402 
L 65.48364 332.71465 
L 65.934504 311.76126 
L 66.233592 345.09663 
L 66.508128 317.475866 
L 66.976848 349.858469 
L 67.27819 321.285437 
L 67.742446 326.047776 
L 68.02812 331.762382 
L 68.32049 347.001166 
L 68.75131 324.14274 
L 69.063746 345.09663 
L 69.507936 328.905079 
L 69.813698 311.76126 
L 70.242286 331.762382 
L 70.556976 308.903457 
L 70.989984 339.382023 
L 71.300254 306.046653 
L 71.606016 317.475866 
L 72.034538 322.237705 
L 72.313538 323.190472 
L 72.764446 331.762382 
L 73.083578 319.380402 
L 73.369318 348.906201 
L 73.838016 327.000043 
L 74.273278 325.095008 
L 74.57904 315.570831 
L 75.01649 322.237705 
L 75.33792 295.569709 
L 75.610246 340.334291 
L 76.054414 324.14274 
L 76.35127 324.14274 
L 76.77535 298.427012 
L 77.07888 336.52472 
L 77.516374 331.762382 
L 78.266326 309.856224 
L 78.574342 308.903457 
L 79.009538 347.001166 
L 79.293024 351.763504 
L 79.74612 308.903457 
L 80.036302 311.76126 
L 80.498326 311.76126 
L 80.801856 300.331548 
L 81.114358 361.288181 
L 81.565222 322.237705 
L 82.007136 315.570831 
L 82.308478 319.380402 
L 82.730326 378.432 
L 83.038342 321.285437 
L 83.33743 296.521977 
L 83.77488 333.667417 
L 84.058366 307.951189 
L 84.50923 320.333169 
L 84.808318 321.285437 
L 85.265856 322.237705 
L 85.571618 325.095008 
L 86.01804 313.665796 
L 86.341658 341.286559 
L 86.781406 291.759638 
L 87.040318 337.476988 
L 87.359494 327.000043 
L 87.830446 321.285437 
L 88.084872 323.190472 
L 88.40849 313.665796 
L 88.875 305.093886 
L 89.294594 329.857347 
L 89.624952 336.52472 
L 89.89951 338.429256 
L 90.332541 314.618563 
L 90.624888 327.000043 
L 91.084658 341.286559 
L 91.368144 339.382023 
L 91.843538 347.001166 
L 92.104682 311.76126 
L 92.551104 334.619685 
L 92.832358 356.525843 
L 93.31447 304.141618 
L 93.591238 334.619685 
L 94.06219 330.810114 
L 94.778618 363.192717 
L 95.064358 313.665796 
L 95.52857 313.665796 
L 95.829912 340.334291 
L 96.287494 321.285437 
L 96.575422 304.141618 
L 97.006198 322.237705 
L 97.332048 341.286559 
L 97.776238 345.09663 
L 98.802936 301.284315 
L 99.251546 325.095008 
L 99.537286 328.905079 
L 99.972459 329.857347 
L 100.287238 289.855102 
L 100.599674 333.667417 
L 101.021522 320.333169 
L 101.35188 322.237705 
L 101.798302 321.285437 
L 102.099578 321.285437 
L 102.546 332.71465 
L 102.818326 332.71465 
L 103.282538 317.475866 
L 103.581626 330.810114 
L 103.878459 306.998921 
L 104.336064 337.476988 
L 104.626246 320.333169 
L 105.050326 327.952311 
L 105.369502 322.237705 
L 105.777936 299.37928 
L 106.117222 306.046653 
L 106.55465 317.475866 
L 106.847064 321.285437 
L 107.291254 331.762382 
L 107.60369 320.333169 
L 108.041206 290.80737 
L 108.344714 333.667417 
L 108.79339 302.236583 
L 109.067904 332.71465 
L 109.503144 345.09663 
L 109.826762 287.950067 
L 110.12143 336.52472 
L 110.549952 318.428134 
L 110.860222 343.191595 
L 111.30881 320.333169 
L 111.61908 343.191595 
L 112.06327 327.952311 
L 112.357872 343.191595 
L 112.636872 347.001166 
L 113.076554 311.76126 
L 113.53639 314.618563 
L 114.259514 294.616941 
L 114.576502 335.571953 
L 114.875546 335.571953 
L 115.330896 333.667417 
L 115.609896 333.667417 
L 116.092008 321.285437 
L 116.498254 337.476988 
L 117.112032 333.667417 
L 117.547294 323.190472 
L 118.28381 327.952311 
L 118.591848 294.616941 
L 118.877522 324.14274 
L 119.341778 324.14274 
L 119.783714 325.095008 
L 120.071642 320.333169 
L 120.379658 340.334291 
L 120.823848 319.380402 
L 121.109522 321.285437 
L 121.567104 344.143863 
L 121.848358 327.000043 
L 122.301454 356.525843 
L 122.763478 306.998921 
L 123.033506 332.71465 
L 123.352682 341.286559 
L 123.794618 345.09663 
L 124.06469 345.09663 
L 124.381634 330.810114 
L 124.83031 329.857347 
L 125.167342 296.521977 
L 125.573522 328.905079 
L 126.01327 313.665796 
L 126.301198 344.143863 
L 127.039968 306.998921 
L 127.354658 346.048898 
L 127.796594 322.237705 
L 128.318904 303.188851 
L 128.553286 338.429256 
L 128.83896 329.857347 
L 129.289802 324.14274 
L 129.624602 344.143863 
L 129.89916 338.429256 
L 130.323262 315.570831 
L 131.079888 304.141618 
L 131.367794 325.095008 
L 131.811984 306.046653 
L 132.153502 337.476988 
L 132.56419 334.619685 
L 132.85877 335.571953 
L 133.325302 329.857347 
L 133.622136 328.905079 
L 133.914506 331.762382 
L 134.358674 325.095008 
L 134.639928 303.188851 
L 135.099698 307.951189 
L 135.383206 328.905079 
L 135.831794 319.380402 
L 136.126462 309.856224 
L 136.427738 315.570831 
L 136.892016 302.236583 
L 137.200032 324.14274 
L 137.655382 336.52472 
L 137.916459 319.380402 
L 138.199968 335.571953 
L 138.644136 343.191595 
L 139.411944 290.80737 
L 139.838278 334.619685 
L 140.139554 330.810114 
L 140.443128 320.333169 
L 140.891738 328.905079 
L 141.197522 339.382023 
L 141.61716 327.952311 
L 142.08588 293.664673 
L 142.355952 327.952311 
L 142.668454 330.810114 
L 143.141594 311.76126 
L 143.422848 295.569709 
L 143.882618 329.857347 
L 144.311206 324.14274 
L 144.637056 325.095008 
L 145.094594 316.523099 
L 145.373594 317.475866 
L 145.648152 328.905079 
L 146.119104 311.76126 
L 146.404778 339.382023 
L 146.688286 304.141618 
L 147.170398 348.906201 
L 147.601152 336.52472 
L 147.871246 302.236583 
L 148.18819 321.285437 
L 148.641286 320.333169 
L 148.911358 317.475866 
L 149.39347 306.998921 
L 149.679144 349.858469 
L 149.976 335.571953 
L 150.411262 326.047776 
L 150.719278 315.570831 
L 151.161214 311.76126 
L 151.587459 309.856224 
L 151.911144 341.286559 
L 152.192398 277.473122 
L 152.629848 301.284315 
L 153.07627 312.713528 
L 153.665541 347.953933 
L 154.120802 340.334291 
L 154.39757 341.286559 
L 154.846246 307.951189 
L 155.16319 334.619685 
L 155.63412 334.619685 
L 155.93323 316.523099 
L 156.341642 347.953933 
L 156.685414 325.095008 
L 156.971088 325.095008 
L 157.397422 292.712405 
L 157.67861 302.236583 
L 158.111618 305.093886 
L 158.58931 290.80737 
L 158.910674 328.905079 
L 159.174072 307.951189 
L 159.620494 352.716271 
L 159.930698 288.902335 
L 160.37712 333.667417 
L 160.647214 305.093886 
L 161.106984 308.903457 
L 161.423928 322.237705 
L 161.856936 309.856224 
L 162.164952 297.474244 
L 162.593541 338.429256 
L 162.928318 315.570831 
L 163.376928 323.190472 
L 163.669342 295.569709 
L 164.10235 315.570831 
L 164.394698 321.285437 
L 164.827706 340.334291 
L 165.43481 306.046653 
L 165.863398 306.046653 
L 166.184762 327.952311 
L 166.604422 317.475866 
L 166.930294 314.618563 
L 167.37223 329.857347 
L 167.677992 348.906201 
L 168.119928 309.856224 
L 168.439104 304.141618 
L 168.85651 329.857347 
L 169.177896 296.521977 
L 169.593048 331.762382 
L 169.896578 327.000043 
L 170.356414 332.71465 
L 170.93669 323.190472 
L 171.387554 305.093886 
L 171.653206 327.952311 
L 172.106302 316.523099 
L 172.414318 319.380402 
L 172.854 322.237705 
L 173.184358 320.333169 
L 173.606206 313.665796 
L 173.92757 334.619685 
L 174.199896 339.382023 
L 174.670848 321.285437 
L 175.106088 294.616941 
L 175.409618 330.810114 
L 175.858294 322.237705 
L 176.130554 326.047776 
L 176.565794 314.618563 
L 176.86265 326.047776 
L 177.181848 309.856224 
L 177.626016 328.905079 
L 177.909502 332.71465 
L 178.340278 324.14274 
L 178.817904 307.951189 
L 179.116992 320.333169 
L 179.407152 300.331548 
L 179.87143 309.856224 
L 180.159358 322.237705 
L 180.612454 321.285437 
L 180.882459 337.476988 
L 181.360152 339.382023 
L 181.68377 317.475866 
L 182.125706 315.570831 
L 182.415888 325.095008 
L 182.826554 311.76126 
L 183.121222 320.333169 
L 183.56981 305.093886 
L 183.871152 301.284315 
L 184.355541 338.429256 
L 184.61443 287.950067 
L 185.089802 338.429256 
L 185.371056 340.334291 
L 186.123262 329.857347 
L 186.42677 321.285437 
L 186.875446 339.382023 
L 187.308454 316.523099 
L 187.59857 347.001166 
L 187.886498 321.285437 
L 188.341848 303.188851 
L 188.627522 333.667417 
L 188.93335 342.239327 
L 189.386446 321.285437 
L 189.70781 318.428134 
L 190.138586 327.952311 
L 190.558246 341.286559 
L 190.884096 315.570831 
L 191.350562 310.808492 
L 191.620634 314.618563 
L 191.910794 327.952311 
L 192.379514 302.236583 
L 192.654072 321.285437 
L 193.404024 321.285437 
L 193.843706 303.188851 
L 194.145048 321.285437 
L 194.595912 327.952311 
L 194.897254 316.523099 
L 195.63377 331.762382 
L 195.935112 324.14274 
L 196.377048 306.998921 
L 196.689506 317.475866 
L 197.419414 330.810114 
L 197.879206 293.664673 
L 198.202802 330.810114 
L 198.459459 330.810114 
L 198.923738 314.618563 
L 199.216152 338.429256 
L 199.644674 305.093886 
L 199.946016 337.476988 
L 200.39688 289.855102 
L 200.767414 328.905079 
L 201.122302 346.048898 
L 201.443666 337.476988 
L 201.910198 337.476988 
L 202.178016 320.333169 
L 202.472618 315.570831 
L 202.91904 310.808492 
L 203.227056 332.71465 
L 203.67792 285.092764 
L 203.972522 329.857347 
L 204.414502 322.237705 
L 204.742562 323.190472 
L 205.164454 327.000043 
L 205.467984 324.14274 
L 205.778254 316.523099 
L 206.204522 328.905079 
L 206.666546 329.857347 
L 206.932198 326.047776 
L 207.220104 332.71465 
L 207.699984 329.857347 
L 207.963382 331.762382 
L 208.411992 320.333169 
L 208.73119 324.14274 
L 209.005682 349.858469 
L 209.474446 326.047776 
L 209.905222 310.808492 
L 210.210984 314.618563 
L 210.523486 316.523099 
L 210.949754 311.76126 
L 211.251096 365.097752 
L 211.719794 315.570831 
L 212.44747 333.667417 
L 212.898334 308.903457 
L 213.204096 336.52472 
L 213.608088 308.903457 
L 213.96523 306.998921 
L 214.387056 302.236583 
L 214.688398 328.905079 
L 214.969586 331.762382 
L 215.43835 320.333169 
L 215.724024 318.428134 
L 216.154778 323.190472 
L 216.467302 337.476988 
L 216.73512 317.475866 
L 217.197144 306.998921 
L 217.48284 308.903457 
L 217.94935 300.331548 
L 218.243952 310.808492 
L 218.683634 302.236583 
L 218.99165 333.667417 
L 219.444746 325.095008 
L 219.734928 342.239327 
L 220.176864 320.333169 
L 220.458096 321.285437 
L 220.757206 331.762382 
L 221.232578 310.808492 
L 221.50939 320.333169 
L 221.973602 313.665796 
L 222.257088 307.951189 
L 222.72804 346.048898 
L 223.011459 318.428134 
L 223.489152 327.000043 
L 223.752506 346.048898 
L 224.21453 336.52472 
L 224.524778 324.14274 
L 224.953366 321.285437 
L 225.254642 308.903457 
L 225.535896 329.857347 
L 225.986738 316.523099 
L 226.422 315.570831 
L 226.73669 343.191595 
L 227.060374 330.810114 
L 227.49557 308.903457 
L 227.77457 336.52472 
L 228.232152 323.190472 
L 228.524522 347.953933 
L 228.96869 340.334291 
L 229.305722 322.237705 
L 229.714222 313.665796 
L 230.004382 338.429256 
L 230.470848 317.475866 
L 230.738666 327.952311 
L 231.060096 326.047776 
L 231.504286 310.808492 
L 231.796634 316.523099 
L 232.229642 315.570831 
L 232.684992 336.52472 
L 232.981848 327.952311 
L 233.276494 329.857347 
L 233.745214 293.664673 
L 234.028634 316.523099 
L 234.472802 311.76126 
L 234.76747 330.810114 
L 235.207152 327.952311 
L 235.501754 311.76126 
L 235.961546 344.143863 
L 236.262888 324.14274 
L 236.577578 345.09663 
L 237.019514 317.475866 
L 237.298514 330.810114 
L 237.753864 287.950067 
L 238.052952 310.808492 
L 238.494888 309.856224 
L 238.979254 328.905079 
L 239.251514 324.14274 
L 239.552856 298.427012 
L 240.01488 331.762382 
L 240.276024 311.76126 
L 240.592968 334.619685 
L 241.030462 317.475866 
L 241.34292 332.71465 
L 242.23351 289.855102 
L 242.539294 324.14274 
L 242.818294 307.951189 
L 243.29592 323.190472 
L 243.545904 300.331548 
L 244.019088 303.188851 
L 244.300342 322.237705 
L 244.74451 297.474244 
L 245.050294 317.475866 
L 245.483302 312.713528 
L 245.777904 341.286559 
L 246.204238 317.475866 
L 246.54569 335.571953 
L 246.96535 292.712405 
L 247.288968 327.000043 
L 247.730904 320.333169 
L 248.009904 331.762382 
L 248.480856 321.285437 
L 248.76653 311.76126 
L 249.038856 323.190472 
L 249.507554 296.521977 
L 249.95623 326.047776 
L 250.24639 333.667417 
L 250.697254 333.667417 
L 251.00527 315.570831 
L 251.293198 307.951189 
L 251.71277 322.237705 
L 252.025294 311.76126 
L 252.47165 307.951189 
L 252.922514 329.857347 
L 253.214928 317.475866 
L 253.51627 320.333169 
L 253.938096 294.616941 
L 254.226024 317.475866 
L 254.723738 326.047776 
L 255.000506 313.665796 
L 255.444674 301.284315 
L 255.739342 315.570831 
L 256.18351 309.856224 
L 256.491459 269.853481 
L 256.792802 318.428134 
L 257.241478 327.000043 
L 257.52492 311.76126 
L 257.969088 323.190472 
L 258.422206 311.76126 
L 258.721294 312.713528 
L 259.16765 306.046653 
L 259.444462 319.380402 
L 259.761406 328.905079 
L 260.214502 318.428134 
L 260.477856 297.474244 
L 260.946554 309.856224 
L 261.366214 306.046653 
L 261.96439 340.334291 
L 262.430856 297.474244 
L 262.705414 306.998921 
L 263.185294 313.665796 
L 263.466459 338.429256 
L 263.919578 335.571953 
L 264.205318 314.618563 
L 264.674016 336.52472 
L 264.93516 310.808492 
L 265.272214 316.523099 
L 265.723056 334.619685 
L 266.182848 315.570831 
L 266.917198 309.856224 
L 267.185016 327.000043 
L 267.490778 316.523099 
L 267.943896 324.14274 
L 268.256398 323.190472 
L 268.678246 332.71465 
L 268.992936 329.857347 
L 269.42369 330.810114 
L 269.738446 292.712405 
L 270.162459 338.429256 
L 270.457128 341.286559 
L 270.88565 322.237705 
L 271.220494 289.855102 
L 271.50619 353.668539 
L 271.96596 334.619685 
L 272.231546 314.618563 
L 272.71147 340.334291 
L 273.001586 302.236583 
L 273.461422 330.810114 
L 273.756024 313.665796 
L 274.218048 318.428134 
L 274.497048 296.521977 
L 274.934498 328.905079 
L 275.224658 300.331548 
L 275.680008 305.093886 
L 275.97019 337.476988 
L 276.414358 307.951189 
L 276.784848 305.093886 
L 277.014722 320.333169 
L 277.461144 328.905079 
L 277.72673 337.476988 
L 278.208864 325.095008 
L 278.624016 323.190472 
L 278.954374 316.523099 
L 279.224446 285.092764 
L 279.715486 328.905079 
L 279.97884 325.095008 
L 280.43861 299.37928 
L 280.719864 307.951189 
L 281.030112 306.998921 
L 281.46312 318.428134 
L 281.896128 318.428134 
L 282.19747 321.285437 
L 282.494326 339.382023 
L 283.22861 292.712405 
L 283.706302 337.476988 
L 283.991976 334.619685 
L 284.420498 303.188851 
L 284.75753 310.808492 
L 285.04769 342.239327 
L 285.500786 307.951189 
L 286.228462 350.811236 
L 286.545406 319.380402 
L 286.987342 333.667417 
L 287.27969 306.046653 
L 288.040802 331.762382 
L 288.464904 331.762382 
L 288.755064 330.810114 
L 289.201486 329.857347 
L 289.493856 334.619685 
L 289.958112 318.428134 
L 290.292912 340.334291 
L 290.714738 293.664673 
L 290.98481 299.37928 
L 291.426746 302.236583 
L 291.748198 312.713528 
L 292.183438 332.71465 
L 292.475786 322.237705 
L 292.942318 318.428134 
L 293.230246 327.952311 
L 293.524848 324.14274 
L 293.957856 282.235461 
L 294.25469 316.523099 
L 294.705554 304.141618 
L 295.038144 337.476988 
L 295.477848 315.570831 
L 295.785864 343.191595 
L 296.230032 292.712405 
L 296.770198 316.523099 
L 297.241128 329.857347 
L 297.968738 316.523099 
L 298.263406 314.618563 
L 298.720944 343.191595 
L 299.013358 302.236583 
L 299.45304 326.047776 
L 299.75657 311.76126 
L 300.214152 324.14274 
L 300.515494 303.188851 
L 300.95743 331.762382 
L 301.256541 307.951189 
L 301.689459 303.188851 
L 302.017586 306.046653 
L 302.441666 295.569709 
L 302.767538 327.000043 
L 303.04877 306.046653 
L 303.499634 304.141618 
L 303.776446 337.476988 
L 304.542 319.380402 
L 304.995096 306.998921 
L 305.285278 302.236583 
L 305.745048 311.76126 
L 306.010634 307.951189 
L 306.305302 310.808492 
L 306.747238 312.713528 
L 307.06416 297.474244 
L 307.523952 331.762382 
L 307.796278 327.952311 
L 308.249374 303.188851 
L 308.99484 328.905079 
L 309.302856 340.334291 
L 309.755952 330.810114 
L 310.048366 311.76126 
L 310.331786 322.237705 
L 310.79381 317.475866 
L 311.233514 339.382023 
L 311.52816 307.951189 
L 311.809414 335.571953 
L 312.25577 330.810114 
L 312.552626 285.092764 
L 312.994562 302.236583 
L 313.599478 312.713528 
L 314.054762 316.523099 
L 314.485538 312.713528 
L 314.791366 307.951189 
L 315.217634 304.141618 
L 315.831478 342.239327 
L 316.273414 309.856224 
L 316.57469 304.141618 
L 316.98761 332.71465 
L 317.311294 309.856224 
L 317.596968 302.236583 
L 318.056738 310.808492 
L 318.505414 321.285437 
L 318.80669 293.664673 
L 319.103546 291.759638 
L 319.563382 308.903457 
L 319.871398 327.952311 
L 320.270904 324.14274 
L 320.587848 316.523099 
L 321.018602 328.905079 
L 321.476206 257.472 
L 321.77304 302.236583 
L 322.101144 310.808492 
L 322.522992 326.047776 
L 322.817594 311.76126 
L 323.268502 297.474244 
L 324.034056 338.429256 
L 324.324238 290.80737 
L 324.768406 326.047776 
L 325.071936 288.902335 
L 325.346494 330.810114 
L 325.783944 320.333169 
L 326.06743 289.855102 
L 326.529454 295.569709 
L 326.824056 309.856224 
L 327.312864 326.047776 
L 327.580682 324.14274 
L 328.024872 335.571953 
L 328.346302 319.380402 
L 328.77257 305.093886 
L 329.50692 327.000043 
L 329.83951 295.569709 
L 330.274706 344.143863 
L 330.564888 353.668539 
L 330.975554 304.141618 
L 331.310398 351.763504 
L 331.575984 300.331548 
L 332.07151 308.903457 
L 332.348278 345.09663 
L 333.089302 313.665796 
L 333.53347 343.191595 
L 333.852602 322.237705 
L 334.28561 314.618563 
L 334.584698 317.475866 
L 334.890459 303.188851 
L 335.34139 326.047776 
L 335.633738 313.665796 
L 336.08016 306.046653 
L 336.365856 324.14274 
L 336.82788 297.474244 
L 337.57781 324.14274 
L 337.874666 325.095008 
L 338.595602 301.284315 
L 339.05988 314.618563 
L 339.356714 291.759638 
L 339.791976 316.523099 
L 340.091064 306.046653 
L 340.524072 335.571953 
L 340.825414 309.856224 
L 341.137872 318.428134 
L 341.561952 315.570831 
L 341.872222 275.568087 
L 342.32081 317.475866 
L 342.628848 310.808492 
L 343.077502 298.427012 
L 343.378778 301.284315 
L 343.822968 304.141618 
L 344.115382 318.428134 
L 344.543904 311.76126 
L 344.854152 310.808492 
L 345.608546 289.855102 
L 345.90096 290.80737 
L 346.36747 335.571953 
L 346.63531 327.000043 
L 347.086152 321.285437 
L 347.400864 302.236583 
L 347.842778 320.333169 
L 348.128541 326.047776 
L 348.583802 331.762382 
L 348.885144 296.521977 
L 349.623936 340.334291 
L 350.059198 302.236583 
L 350.338198 311.76126 
L 350.82031 290.80737 
L 351.12384 319.380402 
L 351.420674 296.521977 
L 352.175112 332.71465 
L 352.610374 303.188851 
L 352.909462 294.616941 
L 353.333498 333.667417 
L 353.91384 307.951189 
L 354.375864 304.141618 
L 354.65935 311.76126 
L 355.125794 333.667417 
L 355.413722 293.664673 
L 355.844498 305.093886 
L 356.279738 287.950067 
L 356.585522 356.525843 
L 356.898024 304.141618 
L 357.328778 309.856224 
L 358.103326 327.000043 
L 358.540754 315.570831 
L 358.828682 303.188851 
L 359.098754 347.001166 
L 359.567541 304.141618 
L 359.88665 291.759638 
L 360.328586 342.239327 
L 360.763848 300.331548 
L 361.06961 297.474244 
L 361.377626 280.330425 
L 361.80396 276.520854 
L 362.100794 307.951189 
L 362.567326 318.428134 
L 362.853 301.284315 
L 363.27708 300.331548 
L 363.605206 335.571953 
L 364.33949 317.475866 
L 364.645318 311.76126 
L 365.058238 298.427012 
L 365.370674 335.571953 
L 365.814864 321.285437 
L 366.120626 318.428134 
L 366.415294 294.616941 
L 366.852722 327.952311 
L 367.330414 311.76126 
L 367.62053 310.808492 
L 368.383896 284.139997 
L 368.685238 329.857347 
L 369.098136 323.190472 
L 369.401666 313.665796 
L 369.83916 305.093886 
L 370.158358 287.950067 
L 370.602459 328.905079 
L 370.90157 291.759638 
L 371.323462 320.333169 
L 371.631478 303.188851 
L 371.921594 325.095008 
L 372.392546 292.712405 
L 372.691634 334.619685 
L 373.138056 301.284315 
L 373.446072 311.76126 
L 373.881334 311.76126 
L 374.160334 316.523099 
L 374.624546 294.616941 
L 374.912541 308.903457 
L 375.218302 313.665796 
L 375.64457 273.663551 
L 375.959326 275.568087 
L 376.416864 318.428134 
L 376.678008 310.808492 
L 377.162374 328.905079 
L 377.593128 310.808492 
L 377.901144 306.998921 
L 378.18684 293.664673 
L 378.62208 317.475866 
L 379.081872 310.808492 
L 379.372032 315.570831 
L 379.666634 310.808492 
L 380.106382 307.951189 
L 380.407658 315.570831 
L 380.860754 314.618563 
L 381.15319 317.475866 
L 381.441096 318.428134 
L 381.918722 314.618563 
L 382.20665 309.856224 
L 382.644144 306.998921 
L 382.949928 275.568087 
L 383.425366 305.093886 
L 383.722222 277.473122 
L 384.132888 289.855102 
L 384.423048 316.523099 
L 384.746666 290.80737 
L 385.188602 295.569709 
L 385.474342 319.380402 
L 385.91851 326.047776 
L 386.228714 311.76126 
L 386.507714 326.047776 
L 387.255478 288.902335 
L 387.701856 299.37928 
L 388.105848 299.37928 
L 389.134778 287.950067 
L 389.134778 287.950067 
" clip-path="url(#pc0c3f7fb98)" style="fill: none; stroke: #74a9cf; stroke-width: 1.5; stroke-linecap: square"/>
   </g>
   <g id="patch_7">
    <path d="M 54 384.48 
L 54 251.424 
" style="fill: none; stroke: #000000; stroke-width: 0.5; stroke-linejoin: miter; stroke-linecap: square"/>
   </g>
   <g id="patch_8">
    <path d="M 54 384.48 
L 388.8 384.48 
" style="fill: none; stroke: #000000; stroke-width: 0.5; stroke-linejoin: miter; stroke-linecap: square"/>
   </g>
   <g id="text_32">
    <!-- 104 m/z for Dynamic TGA -->
    <g transform="translate(152.385938 245.424) scale(0.12 -0.12)">
     <defs>
      <path id="Helvetica-2f" d="M 1456 4591 
L 1931 4591 
L 475 0 
L 0 0 
L 1456 4591 
z
" transform="scale(0.015625)"/>
      <path id="Helvetica-66" d="M 553 3856 
Q 566 4206 675 4369 
Q 872 4656 1434 4656 
Q 1488 4656 1544 4653 
Q 1600 4650 1672 4644 
L 1672 4131 
Q 1584 4138 1545 4139 
Q 1506 4141 1472 4141 
Q 1216 4141 1166 4008 
Q 1116 3875 1116 3331 
L 1672 3331 
L 1672 2888 
L 1109 2888 
L 1109 0 
L 553 0 
L 553 2888 
L 88 2888 
L 88 3331 
L 553 3331 
L 553 3856 
z
" transform="scale(0.015625)"/>
     </defs>
     <use xlink:href="#Helvetica-31"/>
     <use xlink:href="#Helvetica-30" x="55.615234"/>
     <use xlink:href="#Helvetica-34" x="111.230469"/>
     <use xlink:href="#Helvetica-20" x="166.845703"/>
     <use xlink:href="#Helvetica-6d" x="194.628906"/>
     <use xlink:href="#Helvetica-2f" x="277.929688"/>
     <use xlink:href="#Helvetica-7a" x="305.712891"/>
     <use xlink:href="#Helvetica-20" x="355.712891"/>
     <use xlink:href="#Helvetica-66" x="383.496094"/>
     <use xlink:href="#Helvetica-6f" x="411.279297"/>
     <use xlink:href="#Helvetica-72" x="466.894531"/>
     <use xlink:href="#Helvetica-20" x="500.195312"/>
     <use xlink:href="#Helvetica-44" x="527.978516"/>
     <use xlink:href="#Helvetica-79" x="600.195312"/>
     <use xlink:href="#Helvetica-6e" x="650.195312"/>
     <use xlink:href="#Helvetica-61" x="705.810547"/>
     <use xlink:href="#Helvetica-6d" x="761.425781"/>
     <use xlink:href="#Helvetica-69" x="844.726562"/>
     <use xlink:href="#Helvetica-63" x="866.943359"/>
     <use xlink:href="#Helvetica-20" x="916.943359"/>
     <use xlink:href="#Helvetica-54" x="944.726562"/>
     <use xlink:href="#Helvetica-47" x="1005.810547"/>
     <use xlink:href="#Helvetica-41" x="1083.59375"/>
    </g>
   </g>
   <g id="legend_2">
    <g id="patch_9">
     <path d="M 61 287.939625 
L 156.353125 287.939625 
Q 158.353125 287.939625 158.353125 285.939625 
L 158.353125 258.424 
Q 158.353125 256.424 156.353125 256.424 
L 61 256.424 
Q 59 256.424 59 258.424 
L 59 285.939625 
Q 59 287.939625 61 287.939625 
z
" style="fill: #ffffff; opacity: 0.8; stroke: #cccccc; stroke-linejoin: miter"/>
    </g>
    <g id="line2d_31">
     <path d="M 63 264.097437 
L 73 264.097437 
L 83 264.097437 
" style="fill: none; stroke: #bdbdbd; stroke-width: 1.5; stroke-linecap: square"/>
    </g>
    <g id="text_33">
     <!-- PS-10K -->
     <g transform="translate(91 267.597437) scale(0.1 -0.1)">
      <use xlink:href="#Helvetica-50"/>
      <use xlink:href="#Helvetica-53" x="66.699219"/>
      <use xlink:href="#Helvetica-2d" x="133.398438"/>
      <use xlink:href="#Helvetica-31" x="166.699219"/>
      <use xlink:href="#Helvetica-30" x="222.314453"/>
      <use xlink:href="#Helvetica-4b" x="277.929688"/>
     </g>
    </g>
    <g id="line2d_32">
     <path d="M 63 278.35525 
L 73 278.35525 
L 83 278.35525 
" style="fill: none; stroke: #74a9cf; stroke-width: 1.5; stroke-linecap: square"/>
    </g>
    <g id="text_34">
     <!-- PS-10K-SCF3 -->
     <g transform="translate(91 281.85525) scale(0.1 -0.1)">
      <use xlink:href="#Helvetica-50"/>
      <use xlink:href="#Helvetica-53" x="66.699219"/>
      <use xlink:href="#Helvetica-2d" x="133.398438"/>
      <use xlink:href="#Helvetica-31" x="166.699219"/>
      <use xlink:href="#Helvetica-30" x="222.314453"/>
      <use xlink:href="#Helvetica-4b" x="277.929688"/>
      <use xlink:href="#Helvetica-2d" x="344.628906"/>
      <use xlink:href="#Helvetica-53" x="377.929688"/>
      <use xlink:href="#Helvetica-43" x="444.628906"/>
      <use xlink:href="#Helvetica-46" x="516.845703"/>
      <use xlink:href="#Helvetica-33" x="577.929688"/>
     </g>
    </g>
   </g>
  </g>
 </g>
 <defs>
  <clipPath id="p29b7bf19f1">
   <rect x="54" y="51.84" width="334.8" height="133.056"/>
  </clipPath>
  <clipPath id="pc0c3f7fb98">
   <rect x="54" y="251.424" width="334.8" height="133.056"/>
  </clipPath>
 </defs>
</svg>
