<?xml version="1.0" encoding="utf-8" standalone="no"?>
<!DOCTYPE svg PUBLIC "-//W3C//DTD SVG 1.1//EN"
  "http://www.w3.org/Graphics/SVG/1.1/DTD/svg11.dtd">
<svg xmlns:xlink="http://www.w3.org/1999/xlink" width="432pt" height="432pt" viewBox="0 0 432 432" xmlns="http://www.w3.org/2000/svg" version="1.1">
 <metadata>
  <rdf:RDF xmlns:dc="http://purl.org/dc/elements/1.1/" xmlns:cc="http://creativecommons.org/ns#" xmlns:rdf="http://www.w3.org/1999/02/22-rdf-syntax-ns#">
   <cc:Work>
    <dc:type rdf:resource="http://purl.org/dc/dcmitype/StillImage"/>
    <dc:date>2025-02-24T22:47:38.146017</dc:date>
    <dc:format>image/svg+xml</dc:format>
    <dc:creator>
     <cc:Agent>
      <dc:title>Matplotlib v3.7.1, https://matplotlib.org/</dc:title>
     </cc:Agent>
    </dc:creator>
   </cc:Work>
  </rdf:RDF>
 </metadata>
 <defs>
  <style type="text/css">*{stroke-linejoin: round; stroke-linecap: butt}</style>
 </defs>
 <g id="figure_1">
  <g id="patch_1">
   <path d="M 0 432 
L 432 432 
L 432 0 
L 0 0 
z
" style="fill: #ffffff"/>
  </g>
  <g id="axes_1">
   <g id="patch_2">
    <path d="M 54 184.896 
L 388.8 184.896 
L 388.8 51.84 
L 54 51.84 
z
" style="fill: #ffffff"/>
   </g>
   <g id="matplotlib.axis_1">
    <g id="xtick_1">
     <g id="line2d_1">
      <defs>
       <path id="mb5762c78e7" d="M 0 0 
L 0 -3.5 
" style="stroke: #000000; stroke-width: 0.8"/>
      </defs>
      <g>
       <use xlink:href="#mb5762c78e7" x="76.32" y="184.896" style="stroke: #000000; stroke-width: 0.8"/>
      </g>
     </g>
     <g id="text_1">
      <!-- 260 -->
      <g transform="translate(64.8675 197.514125) scale(0.12 -0.12)">
       <defs>
        <path id="DejaVuSans-32" d="M 1228 531 
L 3431 531 
L 3431 0 
L 469 0 
L 469 531 
Q 828 903 1448 1529 
Q 2069 2156 2228 2338 
Q 2531 2678 2651 2914 
Q 2772 3150 2772 3378 
Q 2772 3750 2511 3984 
Q 2250 4219 1831 4219 
Q 1534 4219 1204 4116 
Q 875 4013 500 3803 
L 500 4441 
Q 881 4594 1212 4672 
Q 1544 4750 1819 4750 
Q 2544 4750 2975 4387 
Q 3406 4025 3406 3419 
Q 3406 3131 3298 2873 
Q 3191 2616 2906 2266 
Q 2828 2175 2409 1742 
Q 1991 1309 1228 531 
z
" transform="scale(0.015625)"/>
        <path id="DejaVuSans-36" d="M 2113 2584 
Q 1688 2584 1439 2293 
Q 1191 2003 1191 1497 
Q 1191 994 1439 701 
Q 1688 409 2113 409 
Q 2538 409 2786 701 
Q 3034 994 3034 1497 
Q 3034 2003 2786 2293 
Q 2538 2584 2113 2584 
z
M 3366 4563 
L 3366 3988 
Q 3128 4100 2886 4159 
Q 2644 4219 2406 4219 
Q 1781 4219 1451 3797 
Q 1122 3375 1075 2522 
Q 1259 2794 1537 2939 
Q 1816 3084 2150 3084 
Q 2853 3084 3261 2657 
Q 3669 2231 3669 1497 
Q 3669 778 3244 343 
Q 2819 -91 2113 -91 
Q 1303 -91 875 529 
Q 447 1150 447 2328 
Q 447 3434 972 4092 
Q 1497 4750 2381 4750 
Q 2619 4750 2861 4703 
Q 3103 4656 3366 4563 
z
" transform="scale(0.015625)"/>
        <path id="DejaVuSans-30" d="M 2034 4250 
Q 1547 4250 1301 3770 
Q 1056 3291 1056 2328 
Q 1056 1369 1301 889 
Q 1547 409 2034 409 
Q 2525 409 2770 889 
Q 3016 1369 3016 2328 
Q 3016 3291 2770 3770 
Q 2525 4250 2034 4250 
z
M 2034 4750 
Q 2819 4750 3233 4129 
Q 3647 3509 3647 2328 
Q 3647 1150 3233 529 
Q 2819 -91 2034 -91 
Q 1250 -91 836 529 
Q 422 1150 422 2328 
Q 422 3509 836 4129 
Q 1250 4750 2034 4750 
z
" transform="scale(0.015625)"/>
       </defs>
       <use xlink:href="#DejaVuSans-32"/>
       <use xlink:href="#DejaVuSans-36" x="63.623047"/>
       <use xlink:href="#DejaVuSans-30" x="127.246094"/>
      </g>
     </g>
    </g>
    <g id="xtick_2">
     <g id="line2d_2">
      <g>
       <use xlink:href="#mb5762c78e7" x="120.96" y="184.896" style="stroke: #000000; stroke-width: 0.8"/>
      </g>
     </g>
     <g id="text_2">
      <!-- 280 -->
      <g transform="translate(109.5075 197.514125) scale(0.12 -0.12)">
       <defs>
        <path id="DejaVuSans-38" d="M 2034 2216 
Q 1584 2216 1326 1975 
Q 1069 1734 1069 1313 
Q 1069 891 1326 650 
Q 1584 409 2034 409 
Q 2484 409 2743 651 
Q 3003 894 3003 1313 
Q 3003 1734 2745 1975 
Q 2488 2216 2034 2216 
z
M 1403 2484 
Q 997 2584 770 2862 
Q 544 3141 544 3541 
Q 544 4100 942 4425 
Q 1341 4750 2034 4750 
Q 2731 4750 3128 4425 
Q 3525 4100 3525 3541 
Q 3525 3141 3298 2862 
Q 3072 2584 2669 2484 
Q 3125 2378 3379 2068 
Q 3634 1759 3634 1313 
Q 3634 634 3220 271 
Q 2806 -91 2034 -91 
Q 1263 -91 848 271 
Q 434 634 434 1313 
Q 434 1759 690 2068 
Q 947 2378 1403 2484 
z
M 1172 3481 
Q 1172 3119 1398 2916 
Q 1625 2713 2034 2713 
Q 2441 2713 2670 2916 
Q 2900 3119 2900 3481 
Q 2900 3844 2670 4047 
Q 2441 4250 2034 4250 
Q 1625 4250 1398 4047 
Q 1172 3844 1172 3481 
z
" transform="scale(0.015625)"/>
       </defs>
       <use xlink:href="#DejaVuSans-32"/>
       <use xlink:href="#DejaVuSans-38" x="63.623047"/>
       <use xlink:href="#DejaVuSans-30" x="127.246094"/>
      </g>
     </g>
    </g>
    <g id="xtick_3">
     <g id="line2d_3">
      <g>
       <use xlink:href="#mb5762c78e7" x="165.6" y="184.896" style="stroke: #000000; stroke-width: 0.8"/>
      </g>
     </g>
     <g id="text_3">
      <!-- 300 -->
      <g transform="translate(154.1475 197.514125) scale(0.12 -0.12)">
       <defs>
        <path id="DejaVuSans-33" d="M 2597 2516 
Q 3050 2419 3304 2112 
Q 3559 1806 3559 1356 
Q 3559 666 3084 287 
Q 2609 -91 1734 -91 
Q 1441 -91 1130 -33 
Q 819 25 488 141 
L 488 750 
Q 750 597 1062 519 
Q 1375 441 1716 441 
Q 2309 441 2620 675 
Q 2931 909 2931 1356 
Q 2931 1769 2642 2001 
Q 2353 2234 1838 2234 
L 1294 2234 
L 1294 2753 
L 1863 2753 
Q 2328 2753 2575 2939 
Q 2822 3125 2822 3475 
Q 2822 3834 2567 4026 
Q 2313 4219 1838 4219 
Q 1578 4219 1281 4162 
Q 984 4106 628 3988 
L 628 4550 
Q 988 4650 1302 4700 
Q 1616 4750 1894 4750 
Q 2613 4750 3031 4423 
Q 3450 4097 3450 3541 
Q 3450 3153 3228 2886 
Q 3006 2619 2597 2516 
z
" transform="scale(0.015625)"/>
       </defs>
       <use xlink:href="#DejaVuSans-33"/>
       <use xlink:href="#DejaVuSans-30" x="63.623047"/>
       <use xlink:href="#DejaVuSans-30" x="127.246094"/>
      </g>
     </g>
    </g>
    <g id="xtick_4">
     <g id="line2d_4">
      <g>
       <use xlink:href="#mb5762c78e7" x="210.24" y="184.896" style="stroke: #000000; stroke-width: 0.8"/>
      </g>
     </g>
     <g id="text_4">
      <!-- 320 -->
      <g transform="translate(198.7875 197.514125) scale(0.12 -0.12)">
       <use xlink:href="#DejaVuSans-33"/>
       <use xlink:href="#DejaVuSans-32" x="63.623047"/>
       <use xlink:href="#DejaVuSans-30" x="127.246094"/>
      </g>
     </g>
    </g>
    <g id="xtick_5">
     <g id="line2d_5">
      <g>
       <use xlink:href="#mb5762c78e7" x="254.88" y="184.896" style="stroke: #000000; stroke-width: 0.8"/>
      </g>
     </g>
     <g id="text_5">
      <!-- 340 -->
      <g transform="translate(243.4275 197.514125) scale(0.12 -0.12)">
       <defs>
        <path id="DejaVuSans-34" d="M 2419 4116 
L 825 1625 
L 2419 1625 
L 2419 4116 
z
M 2253 4666 
L 3047 4666 
L 3047 1625 
L 3713 1625 
L 3713 1100 
L 3047 1100 
L 3047 0 
L 2419 0 
L 2419 1100 
L 313 1100 
L 313 1709 
L 2253 4666 
z
" transform="scale(0.015625)"/>
       </defs>
       <use xlink:href="#DejaVuSans-33"/>
       <use xlink:href="#DejaVuSans-34" x="63.623047"/>
       <use xlink:href="#DejaVuSans-30" x="127.246094"/>
      </g>
     </g>
    </g>
    <g id="xtick_6">
     <g id="line2d_6">
      <g>
       <use xlink:href="#mb5762c78e7" x="299.52" y="184.896" style="stroke: #000000; stroke-width: 0.8"/>
      </g>
     </g>
     <g id="text_6">
      <!-- 360 -->
      <g transform="translate(288.0675 197.514125) scale(0.12 -0.12)">
       <use xlink:href="#DejaVuSans-33"/>
       <use xlink:href="#DejaVuSans-36" x="63.623047"/>
       <use xlink:href="#DejaVuSans-30" x="127.246094"/>
      </g>
     </g>
    </g>
    <g id="xtick_7">
     <g id="line2d_7">
      <g>
       <use xlink:href="#mb5762c78e7" x="344.16" y="184.896" style="stroke: #000000; stroke-width: 0.8"/>
      </g>
     </g>
     <g id="text_7">
      <!-- 380 -->
      <g transform="translate(332.7075 197.514125) scale(0.12 -0.12)">
       <use xlink:href="#DejaVuSans-33"/>
       <use xlink:href="#DejaVuSans-38" x="63.623047"/>
       <use xlink:href="#DejaVuSans-30" x="127.246094"/>
      </g>
     </g>
    </g>
    <g id="xtick_8">
     <g id="line2d_8">
      <g>
       <use xlink:href="#mb5762c78e7" x="388.8" y="184.896" style="stroke: #000000; stroke-width: 0.8"/>
      </g>
     </g>
     <g id="text_8">
      <!-- 400 -->
      <g transform="translate(377.3475 197.514125) scale(0.12 -0.12)">
       <use xlink:href="#DejaVuSans-34"/>
       <use xlink:href="#DejaVuSans-30" x="63.623047"/>
       <use xlink:href="#DejaVuSans-30" x="127.246094"/>
      </g>
     </g>
    </g>
    <g id="text_9">
     <!-- Temp ($^{o}$C) -->
     <g transform="translate(190.8 213.36975) scale(0.12 -0.12)">
      <defs>
       <path id="DejaVuSans-54" d="M -19 4666 
L 3928 4666 
L 3928 4134 
L 2272 4134 
L 2272 0 
L 1638 0 
L 1638 4134 
L -19 4134 
L -19 4666 
z
" transform="scale(0.015625)"/>
       <path id="DejaVuSans-65" d="M 3597 1894 
L 3597 1613 
L 953 1613 
Q 991 1019 1311 708 
Q 1631 397 2203 397 
Q 2534 397 2845 478 
Q 3156 559 3463 722 
L 3463 178 
Q 3153 47 2828 -22 
Q 2503 -91 2169 -91 
Q 1331 -91 842 396 
Q 353 884 353 1716 
Q 353 2575 817 3079 
Q 1281 3584 2069 3584 
Q 2775 3584 3186 3129 
Q 3597 2675 3597 1894 
z
M 3022 2063 
Q 3016 2534 2758 2815 
Q 2500 3097 2075 3097 
Q 1594 3097 1305 2825 
Q 1016 2553 972 2059 
L 3022 2063 
z
" transform="scale(0.015625)"/>
       <path id="DejaVuSans-6d" d="M 3328 2828 
Q 3544 3216 3844 3400 
Q 4144 3584 4550 3584 
Q 5097 3584 5394 3201 
Q 5691 2819 5691 2113 
L 5691 0 
L 5113 0 
L 5113 2094 
Q 5113 2597 4934 2840 
Q 4756 3084 4391 3084 
Q 3944 3084 3684 2787 
Q 3425 2491 3425 1978 
L 3425 0 
L 2847 0 
L 2847 2094 
Q 2847 2600 2669 2842 
Q 2491 3084 2119 3084 
Q 1678 3084 1418 2786 
Q 1159 2488 1159 1978 
L 1159 0 
L 581 0 
L 581 3500 
L 1159 3500 
L 1159 2956 
Q 1356 3278 1631 3431 
Q 1906 3584 2284 3584 
Q 2666 3584 2933 3390 
Q 3200 3197 3328 2828 
z
" transform="scale(0.015625)"/>
       <path id="DejaVuSans-70" d="M 1159 525 
L 1159 -1331 
L 581 -1331 
L 581 3500 
L 1159 3500 
L 1159 2969 
Q 1341 3281 1617 3432 
Q 1894 3584 2278 3584 
Q 2916 3584 3314 3078 
Q 3713 2572 3713 1747 
Q 3713 922 3314 415 
Q 2916 -91 2278 -91 
Q 1894 -91 1617 61 
Q 1341 213 1159 525 
z
M 3116 1747 
Q 3116 2381 2855 2742 
Q 2594 3103 2138 3103 
Q 1681 3103 1420 2742 
Q 1159 2381 1159 1747 
Q 1159 1113 1420 752 
Q 1681 391 2138 391 
Q 2594 391 2855 752 
Q 3116 1113 3116 1747 
z
" transform="scale(0.015625)"/>
       <path id="DejaVuSans-20" transform="scale(0.015625)"/>
       <path id="DejaVuSans-28" d="M 1984 4856 
Q 1566 4138 1362 3434 
Q 1159 2731 1159 2009 
Q 1159 1288 1364 580 
Q 1569 -128 1984 -844 
L 1484 -844 
Q 1016 -109 783 600 
Q 550 1309 550 2009 
Q 550 2706 781 3412 
Q 1013 4119 1484 4856 
L 1984 4856 
z
" transform="scale(0.015625)"/>
       <path id="DejaVuSans-Oblique-6f" d="M 1625 -91 
Q 1009 -91 651 289 
Q 294 669 294 1325 
Q 294 1706 417 2101 
Q 541 2497 738 2766 
Q 1047 3184 1428 3384 
Q 1809 3584 2291 3584 
Q 2888 3584 3255 3212 
Q 3622 2841 3622 2241 
Q 3622 1825 3500 1412 
Q 3378 1000 3181 728 
Q 2875 309 2494 109 
Q 2113 -91 1625 -91 
z
M 891 1344 
Q 891 869 1089 633 
Q 1288 397 1691 397 
Q 2269 397 2648 901 
Q 3028 1406 3028 2181 
Q 3028 2634 2825 2865 
Q 2622 3097 2228 3097 
Q 1903 3097 1650 2945 
Q 1397 2794 1197 2484 
Q 1050 2253 970 1956 
Q 891 1659 891 1344 
z
" transform="scale(0.015625)"/>
       <path id="DejaVuSans-43" d="M 4122 4306 
L 4122 3641 
Q 3803 3938 3442 4084 
Q 3081 4231 2675 4231 
Q 1875 4231 1450 3742 
Q 1025 3253 1025 2328 
Q 1025 1406 1450 917 
Q 1875 428 2675 428 
Q 3081 428 3442 575 
Q 3803 722 4122 1019 
L 4122 359 
Q 3791 134 3420 21 
Q 3050 -91 2638 -91 
Q 1578 -91 968 557 
Q 359 1206 359 2328 
Q 359 3453 968 4101 
Q 1578 4750 2638 4750 
Q 3056 4750 3426 4639 
Q 3797 4528 4122 4306 
z
" transform="scale(0.015625)"/>
       <path id="DejaVuSans-29" d="M 513 4856 
L 1013 4856 
Q 1481 4119 1714 3412 
Q 1947 2706 1947 2009 
Q 1947 1309 1714 600 
Q 1481 -109 1013 -844 
L 513 -844 
Q 928 -128 1133 580 
Q 1338 1288 1338 2009 
Q 1338 2731 1133 3434 
Q 928 4138 513 4856 
z
" transform="scale(0.015625)"/>
      </defs>
      <use xlink:href="#DejaVuSans-54" transform="translate(0 0.51875)"/>
      <use xlink:href="#DejaVuSans-65" transform="translate(61.083984 0.51875)"/>
      <use xlink:href="#DejaVuSans-6d" transform="translate(122.607422 0.51875)"/>
      <use xlink:href="#DejaVuSans-70" transform="translate(220.019531 0.51875)"/>
      <use xlink:href="#DejaVuSans-20" transform="translate(283.496094 0.51875)"/>
      <use xlink:href="#DejaVuSans-28" transform="translate(315.283203 0.51875)"/>
      <use xlink:href="#DejaVuSans-Oblique-6f" transform="translate(355.253906 38.8) scale(0.7)"/>
      <use xlink:href="#DejaVuSans-43" transform="translate(400.81543 0.51875)"/>
      <use xlink:href="#DejaVuSans-29" transform="translate(470.639648 0.51875)"/>
     </g>
    </g>
   </g>
   <g id="matplotlib.axis_2">
    <g id="ytick_1">
     <g id="line2d_9">
      <defs>
       <path id="m13c65ad9fb" d="M 0 0 
L 3.5 0 
" style="stroke: #000000; stroke-width: 0.8"/>
      </defs>
      <g>
       <use xlink:href="#m13c65ad9fb" x="54" y="153.843245" style="stroke: #000000; stroke-width: 0.8"/>
      </g>
     </g>
     <g id="text_10">
      <!-- 25 -->
      <g transform="translate(35.23 158.402307) scale(0.12 -0.12)">
       <defs>
        <path id="DejaVuSans-35" d="M 691 4666 
L 3169 4666 
L 3169 4134 
L 1269 4134 
L 1269 2991 
Q 1406 3038 1543 3061 
Q 1681 3084 1819 3084 
Q 2600 3084 3056 2656 
Q 3513 2228 3513 1497 
Q 3513 744 3044 326 
Q 2575 -91 1722 -91 
Q 1428 -91 1123 -41 
Q 819 9 494 109 
L 494 744 
Q 775 591 1075 516 
Q 1375 441 1709 441 
Q 2250 441 2565 725 
Q 2881 1009 2881 1497 
Q 2881 1984 2565 2268 
Q 2250 2553 1709 2553 
Q 1456 2553 1204 2497 
Q 953 2441 691 2322 
L 691 4666 
z
" transform="scale(0.015625)"/>
       </defs>
       <use xlink:href="#DejaVuSans-32"/>
       <use xlink:href="#DejaVuSans-35" x="63.623047"/>
      </g>
     </g>
    </g>
    <g id="ytick_2">
     <g id="line2d_10">
      <g>
       <use xlink:href="#m13c65ad9fb" x="54" y="122.115219" style="stroke: #000000; stroke-width: 0.8"/>
      </g>
     </g>
     <g id="text_11">
      <!-- 50 -->
      <g transform="translate(35.23 126.674282) scale(0.12 -0.12)">
       <use xlink:href="#DejaVuSans-35"/>
       <use xlink:href="#DejaVuSans-30" x="63.623047"/>
      </g>
     </g>
    </g>
    <g id="ytick_3">
     <g id="line2d_11">
      <g>
       <use xlink:href="#m13c65ad9fb" x="54" y="90.387194" style="stroke: #000000; stroke-width: 0.8"/>
      </g>
     </g>
     <g id="text_12">
      <!-- 75 -->
      <g transform="translate(35.23 94.946257) scale(0.12 -0.12)">
       <defs>
        <path id="DejaVuSans-37" d="M 525 4666 
L 3525 4666 
L 3525 4397 
L 1831 0 
L 1172 0 
L 2766 4134 
L 525 4134 
L 525 4666 
z
" transform="scale(0.015625)"/>
       </defs>
       <use xlink:href="#DejaVuSans-37"/>
       <use xlink:href="#DejaVuSans-35" x="63.623047"/>
      </g>
     </g>
    </g>
    <g id="ytick_4">
     <g id="line2d_12">
      <g>
       <use xlink:href="#m13c65ad9fb" x="54" y="58.659169" style="stroke: #000000; stroke-width: 0.8"/>
      </g>
     </g>
     <g id="text_13">
      <!-- 100 -->
      <g transform="translate(27.595 63.218231) scale(0.12 -0.12)">
       <defs>
        <path id="DejaVuSans-31" d="M 794 531 
L 1825 531 
L 1825 4091 
L 703 3866 
L 703 4441 
L 1819 4666 
L 2450 4666 
L 2450 531 
L 3481 531 
L 3481 0 
L 794 0 
L 794 531 
z
" transform="scale(0.015625)"/>
       </defs>
       <use xlink:href="#DejaVuSans-31"/>
       <use xlink:href="#DejaVuSans-30" x="63.623047"/>
       <use xlink:href="#DejaVuSans-30" x="127.246094"/>
      </g>
     </g>
    </g>
    <g id="text_14">
     <!-- Mass (%) -->
     <g transform="translate(21.099375 145.762687) rotate(-90) scale(0.12 -0.12)">
      <defs>
       <path id="DejaVuSans-4d" d="M 628 4666 
L 1569 4666 
L 2759 1491 
L 3956 4666 
L 4897 4666 
L 4897 0 
L 4281 0 
L 4281 4097 
L 3078 897 
L 2444 897 
L 1241 4097 
L 1241 0 
L 628 0 
L 628 4666 
z
" transform="scale(0.015625)"/>
       <path id="DejaVuSans-61" d="M 2194 1759 
Q 1497 1759 1228 1600 
Q 959 1441 959 1056 
Q 959 750 1161 570 
Q 1363 391 1709 391 
Q 2188 391 2477 730 
Q 2766 1069 2766 1631 
L 2766 1759 
L 2194 1759 
z
M 3341 1997 
L 3341 0 
L 2766 0 
L 2766 531 
Q 2569 213 2275 61 
Q 1981 -91 1556 -91 
Q 1019 -91 701 211 
Q 384 513 384 1019 
Q 384 1609 779 1909 
Q 1175 2209 1959 2209 
L 2766 2209 
L 2766 2266 
Q 2766 2663 2505 2880 
Q 2244 3097 1772 3097 
Q 1472 3097 1187 3025 
Q 903 2953 641 2809 
L 641 3341 
Q 956 3463 1253 3523 
Q 1550 3584 1831 3584 
Q 2591 3584 2966 3190 
Q 3341 2797 3341 1997 
z
" transform="scale(0.015625)"/>
       <path id="DejaVuSans-73" d="M 2834 3397 
L 2834 2853 
Q 2591 2978 2328 3040 
Q 2066 3103 1784 3103 
Q 1356 3103 1142 2972 
Q 928 2841 928 2578 
Q 928 2378 1081 2264 
Q 1234 2150 1697 2047 
L 1894 2003 
Q 2506 1872 2764 1633 
Q 3022 1394 3022 966 
Q 3022 478 2636 193 
Q 2250 -91 1575 -91 
Q 1294 -91 989 -36 
Q 684 19 347 128 
L 347 722 
Q 666 556 975 473 
Q 1284 391 1588 391 
Q 1994 391 2212 530 
Q 2431 669 2431 922 
Q 2431 1156 2273 1281 
Q 2116 1406 1581 1522 
L 1381 1569 
Q 847 1681 609 1914 
Q 372 2147 372 2553 
Q 372 3047 722 3315 
Q 1072 3584 1716 3584 
Q 2034 3584 2315 3537 
Q 2597 3491 2834 3397 
z
" transform="scale(0.015625)"/>
       <path id="DejaVuSans-25" d="M 4653 2053 
Q 4381 2053 4226 1822 
Q 4072 1591 4072 1178 
Q 4072 772 4226 539 
Q 4381 306 4653 306 
Q 4919 306 5073 539 
Q 5228 772 5228 1178 
Q 5228 1588 5073 1820 
Q 4919 2053 4653 2053 
z
M 4653 2450 
Q 5147 2450 5437 2106 
Q 5728 1763 5728 1178 
Q 5728 594 5436 251 
Q 5144 -91 4653 -91 
Q 4153 -91 3862 251 
Q 3572 594 3572 1178 
Q 3572 1766 3864 2108 
Q 4156 2450 4653 2450 
z
M 1428 4353 
Q 1159 4353 1004 4120 
Q 850 3888 850 3481 
Q 850 3069 1003 2837 
Q 1156 2606 1428 2606 
Q 1700 2606 1854 2837 
Q 2009 3069 2009 3481 
Q 2009 3884 1853 4118 
Q 1697 4353 1428 4353 
z
M 4250 4750 
L 4750 4750 
L 1831 -91 
L 1331 -91 
L 4250 4750 
z
M 1428 4750 
Q 1922 4750 2215 4408 
Q 2509 4066 2509 3481 
Q 2509 2891 2217 2550 
Q 1925 2209 1428 2209 
Q 931 2209 642 2551 
Q 353 2894 353 3481 
Q 353 4063 643 4406 
Q 934 4750 1428 4750 
z
" transform="scale(0.015625)"/>
      </defs>
      <use xlink:href="#DejaVuSans-4d"/>
      <use xlink:href="#DejaVuSans-61" x="86.279297"/>
      <use xlink:href="#DejaVuSans-73" x="147.558594"/>
      <use xlink:href="#DejaVuSans-73" x="199.658203"/>
      <use xlink:href="#DejaVuSans-20" x="251.757812"/>
      <use xlink:href="#DejaVuSans-28" x="283.544922"/>
      <use xlink:href="#DejaVuSans-25" x="322.558594"/>
      <use xlink:href="#DejaVuSans-29" x="417.578125"/>
     </g>
    </g>
   </g>
   <g id="line2d_13">
    <path d="M 54.071424 58.659169 
L 64.753754 58.55524 
L 65.186762 58.558045 
L 71.47435 58.480159 
L 71.911778 58.480159 
L 81.86873 58.376231 
L 82.60308 58.350188 
L 95.40139 58.246006 
L 95.829912 58.246006 
L 102.99019 58.16812 
L 103.456634 58.150759 
L 117.53388 58.072873 
L 117.978048 58.072873 
L 130.789706 57.977372 
L 131.245056 57.951583 
L 131.82984 57.986052 
L 195.950714 58.087176 
L 196.70292 58.104537 
L 198.35681 58.121899 
L 206.06616 58.217147 
L 207.081698 58.243189 
L 210.07039 58.295286 
L 214.402658 58.399215 
L 214.99416 58.43395 
L 217.844446 58.511824 
L 218.438136 58.549364 
L 221.136602 58.653546 
L 222.12319 58.688029 
L 225.401976 58.792211 
L 226.125144 58.835361 
L 228.383928 58.939556 
L 229.111538 59.008748 
L 231.798888 59.095569 
L 233.00419 59.19951 
L 235.079928 59.303438 
L 236.401294 59.433409 
L 238.035096 59.511548 
L 238.936802 59.615477 
L 241.001446 59.719405 
L 241.762514 59.788864 
L 243.101714 59.89561 
L 243.815976 59.965056 
L 245.019024 60.068997 
L 245.773462 60.138443 
L 247.097016 60.242384 
L 248.11704 60.381036 
L 249.172754 60.484964 
L 254.08543 61.07739 
L 254.690302 61.163957 
L 255.42684 61.267885 
L 266.997506 63.255582 
L 267.323422 63.342149 
L 268.372462 63.567634 
L 270.631246 64.090347 
L 274.055112 64.994811 
L 276.856294 65.777745 
L 277.766928 66.066546 
L 279.572594 66.676079 
L 280.487714 66.970769 
L 281.351498 67.285613 
L 281.960856 67.502417 
L 283.748666 68.204393 
L 284.474088 68.490389 
L 285.523128 68.917855 
L 286.123514 69.169128 
L 290.429064 71.176992 
L 295.627414 73.953232 
L 297.283514 74.967247 
L 299.33923 76.31348 
L 306.024048 81.279652 
L 308.548462 83.457844 
L 310.336294 85.081659 
L 310.929984 85.618929 
L 311.530414 86.228462 
L 311.963422 86.606901 
L 318.965206 94.034445 
L 319.26204 94.407021 
L 319.840128 95.097499 
L 321.491786 97.053278 
L 325.371024 101.987772 
L 335.772144 116.703967 
L 336.343514 117.628356 
L 337.850136 119.916353 
L 338.140318 120.326711 
L 343.956888 129.282301 
L 344.82065 130.617048 
L 345.73577 131.995212 
L 346.30051 132.939781 
L 346.829494 133.612897 
L 347.057136 134.057724 
L 348.273554 135.866412 
L 349.43647 137.672041 
L 350.06143 138.553014 
L 351.210888 140.321103 
L 351.842522 141.132884 
L 357.768459 149.322928 
L 359.266198 151.180642 
L 362.067358 154.583777 
L 363.149856 155.719094 
L 363.743546 156.374849 
L 365.234522 157.935081 
L 365.663088 158.391394 
L 366.852722 159.56731 
L 368.361554 160.939598 
L 369.37265 161.88135 
L 369.828 162.230942 
L 371.026562 163.247761 
L 372.501936 164.437981 
L 374.45719 165.980585 
L 375.472706 166.749216 
L 375.928056 167.090114 
L 376.977096 167.844175 
L 377.858714 168.491249 
L 378.46584 168.901353 
L 381.744626 170.995783 
L 382.041459 171.20977 
L 382.322714 171.362737 
L 382.925398 171.712316 
L 383.842706 172.217921 
L 385.030152 172.859373 
L 387.833522 174.248769 
L 388.09692 174.352951 
L 388.085738 174.361645 
L 388.244254 174.370325 
L 388.755382 174.465573 
L 388.924992 174.488557 
L 398.265912 174.381811 
L 399.698856 174.347088 
L 406.928326 174.243159 
L 410.66465 174.208424 
L 425.786494 174.303671 
L 428.002848 174.349892 
L 432.933358 174.488557 
L 433 174.491314 
L 433 174.491314 
" clip-path="url(#pcddfffd251)" style="fill: none; stroke: #bdbdbd; stroke-width: 1.5; stroke-linecap: square"/>
   </g>
   <g id="line2d_14">
    <path d="M 54.06696 58.659169 
L 54.486576 58.63503 
L 55.546754 58.626908 
L 124.97981 58.71869 
L 125.865936 58.751193 
L 126.301198 58.71869 
L 126.92165 58.751193 
L 136.568398 58.832213 
L 137.023682 58.864716 
L 137.655382 58.840336 
L 138.374064 58.897218 
L 138.644136 58.818824 
L 139.411944 58.8836 
L 146.119104 58.989242 
L 146.563294 59.021503 
L 150.136682 59.102765 
L 150.411262 59.135038 
L 151.30404 59.151283 
L 157.25453 59.248802 
L 157.852706 59.289198 
L 162.765382 59.394827 
L 163.93716 59.459603 
L 167.07312 59.556881 
L 167.677992 59.592011 
L 171.653206 59.68953 
L 172.414318 59.721791 
L 173.92757 59.786808 
L 176.744398 59.884074 
L 177.331414 59.932833 
L 178.050096 59.949091 
L 178.96747 60.013854 
L 181.784254 60.111373 
L 182.567642 60.176149 
L 185.214794 60.28155 
L 186.272762 60.346554 
L 188.042738 60.443832 
L 188.627522 60.508836 
L 191.029198 60.606115 
L 191.620634 60.67089 
L 193.714294 60.768397 
L 194.314658 60.833173 
L 196.689506 60.938815 
L 197.419414 61.003578 
L 198.61349 61.095602 
L 199.798682 61.225382 
L 201.75619 61.328156 
L 202.778446 61.387665 
L 203.67792 61.457936 
L 204.414502 61.587716 
L 204.849698 61.587716 
L 206.046072 61.687621 
L 206.932198 61.785128 
L 208.128506 61.882406 
L 208.73119 61.947182 
L 209.905222 62.044689 
L 211.132778 62.174469 
L 212.612594 62.271747 
L 213.33353 62.369025 
L 214.387056 62.466532 
L 214.969586 62.555687 
L 215.29327 62.407023 
L 215.86243 62.642203 
L 216.860112 62.771984 
L 217.197144 62.750231 
L 217.63908 62.837001 
L 219.134498 63.064047 
L 220.335358 63.161325 
L 221.795064 63.369499 
L 222.866446 63.469645 
L 223.94669 63.599425 
L 234.028634 65.267685 
L 235.687032 65.562375 
L 236.262888 65.659894 
L 238.215888 66.084364 
L 238.820738 66.184269 
L 240.01488 66.444071 
L 240.592968 66.541349 
L 245.190888 67.56883 
L 245.929658 67.752624 
L 247.288968 68.096086 
L 251.438278 69.17758 
L 252.47165 69.480646 
L 253.214928 69.683312 
L 256.042872 70.510754 
L 256.951318 70.810952 
L 257.52492 70.962244 
L 259.02931 71.457213 
L 260.058262 71.835564 
L 265.086936 73.693354 
L 270.762912 76.04303 
L 271.814206 76.527009 
L 279.068206 80.142215 
L 280.29353 80.818364 
L 282.059064 81.813342 
L 282.659494 82.156792 
L 284.420498 83.249048 
L 285.174936 83.706033 
L 285.924888 84.157752 
L 286.686 84.676873 
L 287.476128 85.12835 
L 287.873446 85.434043 
L 289.493856 86.47754 
L 290.714738 87.342979 
L 291.308494 87.751204 
L 291.748198 88.097281 
L 294.444454 90.065738 
L 295.605072 90.952689 
L 296.230032 91.428546 
L 297.39065 92.410148 
L 299.93292 94.483993 
L 303.671498 97.750495 
L 303.954984 98.007428 
L 306.747238 100.700541 
L 307.523952 101.379318 
L 308.671222 102.541845 
L 310.048366 103.850639 
L 310.50365 104.318373 
L 311.233514 105.064782 
L 312.25577 106.116655 
L 313.751254 107.655134 
L 314.34943 108.336538 
L 315.106056 109.109965 
L 316.273414 110.40226 
L 316.724278 110.87549 
L 322.223904 116.991892 
L 323.105522 118.057383 
L 324.034056 119.081995 
L 324.768406 119.958196 
L 340.98161 138.839899 
L 342.032904 139.991906 
L 343.974722 142.147025 
L 344.697912 142.968959 
L 346.63531 145.056435 
L 347.086152 145.529664 
L 350.059198 148.590378 
L 350.95423 149.485451 
L 352.302358 150.821265 
L 357.328778 155.61811 
L 358.996104 157.056685 
L 359.397864 157.46491 
L 360.328586 158.202955 
L 364.645318 161.750757 
L 368.207546 164.430252 
L 370.158358 165.795687 
L 370.602459 166.112142 
L 376.97261 170.178825 
L 377.593128 170.484505 
L 378.327478 170.963002 
L 380.106382 171.931214 
L 381.608541 172.677381 
L 382.644144 173.158746 
L 383.561541 173.561705 
L 385.775618 174.462045 
L 386.228714 174.670219 
L 386.797896 174.889142 
L 387.842494 175.275856 
L 388.190642 175.384125 
L 388.291104 175.413771 
L 397.422238 175.316493 
L 399.169872 175.238099 
L 405.475294 175.135326 
L 407.376936 175.086566 
L 411.796318 175.03518 
L 433 175.097557 
L 433 175.097557 
" clip-path="url(#pcddfffd251)" style="fill: none; stroke: #74a9cf; stroke-width: 1.5; stroke-linecap: square"/>
   </g>
   <g id="line2d_15">
    <path d="M 54 59.293729 
L 388.8 59.293729 
" clip-path="url(#pcddfffd251)" style="fill: none; stroke-dasharray: 1.11,0.48; stroke-dashoffset: 0; stroke: #ff0000; stroke-width: 0.3"/>
   </g>
   <g id="patch_3">
    <path d="M 54 184.896 
L 54 51.84 
" style="fill: none; stroke: #000000; stroke-width: 0.5; stroke-linejoin: miter; stroke-linecap: square"/>
   </g>
   <g id="patch_4">
    <path d="M 54 184.896 
L 388.8 184.896 
" style="fill: none; stroke: #000000; stroke-width: 0.5; stroke-linejoin: miter; stroke-linecap: square"/>
   </g>
   <g id="text_15">
    <!-- Dynamic TGA -->
    <g transform="translate(180.614063 45.84) scale(0.12 -0.12)">
     <defs>
      <path id="DejaVuSans-44" d="M 1259 4147 
L 1259 519 
L 2022 519 
Q 2988 519 3436 956 
Q 3884 1394 3884 2338 
Q 3884 3275 3436 3711 
Q 2988 4147 2022 4147 
L 1259 4147 
z
M 628 4666 
L 1925 4666 
Q 3281 4666 3915 4102 
Q 4550 3538 4550 2338 
Q 4550 1131 3912 565 
Q 3275 0 1925 0 
L 628 0 
L 628 4666 
z
" transform="scale(0.015625)"/>
      <path id="DejaVuSans-79" d="M 2059 -325 
Q 1816 -950 1584 -1140 
Q 1353 -1331 966 -1331 
L 506 -1331 
L 506 -850 
L 844 -850 
Q 1081 -850 1212 -737 
Q 1344 -625 1503 -206 
L 1606 56 
L 191 3500 
L 800 3500 
L 1894 763 
L 2988 3500 
L 3597 3500 
L 2059 -325 
z
" transform="scale(0.015625)"/>
      <path id="DejaVuSans-6e" d="M 3513 2113 
L 3513 0 
L 2938 0 
L 2938 2094 
Q 2938 2591 2744 2837 
Q 2550 3084 2163 3084 
Q 1697 3084 1428 2787 
Q 1159 2491 1159 1978 
L 1159 0 
L 581 0 
L 581 3500 
L 1159 3500 
L 1159 2956 
Q 1366 3272 1645 3428 
Q 1925 3584 2291 3584 
Q 2894 3584 3203 3211 
Q 3513 2838 3513 2113 
z
" transform="scale(0.015625)"/>
      <path id="DejaVuSans-69" d="M 603 3500 
L 1178 3500 
L 1178 0 
L 603 0 
L 603 3500 
z
M 603 4863 
L 1178 4863 
L 1178 4134 
L 603 4134 
L 603 4863 
z
" transform="scale(0.015625)"/>
      <path id="DejaVuSans-63" d="M 3122 3366 
L 3122 2828 
Q 2878 2963 2633 3030 
Q 2388 3097 2138 3097 
Q 1578 3097 1268 2742 
Q 959 2388 959 1747 
Q 959 1106 1268 751 
Q 1578 397 2138 397 
Q 2388 397 2633 464 
Q 2878 531 3122 666 
L 3122 134 
Q 2881 22 2623 -34 
Q 2366 -91 2075 -91 
Q 1284 -91 818 406 
Q 353 903 353 1747 
Q 353 2603 823 3093 
Q 1294 3584 2113 3584 
Q 2378 3584 2631 3529 
Q 2884 3475 3122 3366 
z
" transform="scale(0.015625)"/>
      <path id="DejaVuSans-47" d="M 3809 666 
L 3809 1919 
L 2778 1919 
L 2778 2438 
L 4434 2438 
L 4434 434 
Q 4069 175 3628 42 
Q 3188 -91 2688 -91 
Q 1594 -91 976 548 
Q 359 1188 359 2328 
Q 359 3472 976 4111 
Q 1594 4750 2688 4750 
Q 3144 4750 3555 4637 
Q 3966 4525 4313 4306 
L 4313 3634 
Q 3963 3931 3569 4081 
Q 3175 4231 2741 4231 
Q 1884 4231 1454 3753 
Q 1025 3275 1025 2328 
Q 1025 1384 1454 906 
Q 1884 428 2741 428 
Q 3075 428 3337 486 
Q 3600 544 3809 666 
z
" transform="scale(0.015625)"/>
      <path id="DejaVuSans-41" d="M 2188 4044 
L 1331 1722 
L 3047 1722 
L 2188 4044 
z
M 1831 4666 
L 2547 4666 
L 4325 0 
L 3669 0 
L 3244 1197 
L 1141 1197 
L 716 0 
L 50 0 
L 1831 4666 
z
" transform="scale(0.015625)"/>
     </defs>
     <use xlink:href="#DejaVuSans-44"/>
     <use xlink:href="#DejaVuSans-79" x="77.001953"/>
     <use xlink:href="#DejaVuSans-6e" x="136.181641"/>
     <use xlink:href="#DejaVuSans-61" x="199.560547"/>
     <use xlink:href="#DejaVuSans-6d" x="260.839844"/>
     <use xlink:href="#DejaVuSans-69" x="358.251953"/>
     <use xlink:href="#DejaVuSans-63" x="386.035156"/>
     <use xlink:href="#DejaVuSans-20" x="441.015625"/>
     <use xlink:href="#DejaVuSans-54" x="472.802734"/>
     <use xlink:href="#DejaVuSans-47" x="533.886719"/>
     <use xlink:href="#DejaVuSans-41" x="611.376953"/>
    </g>
   </g>
   <g id="legend_1">
    <g id="patch_5">
     <path d="M 61 179.896 
L 236.8 179.896 
Q 238.8 179.896 238.8 177.896 
L 238.8 133.841312 
Q 238.8 131.841312 236.8 131.841312 
L 61 131.841312 
Q 59 131.841312 59 133.841312 
L 59 177.896 
Q 59 179.896 61 179.896 
z
" style="fill: #ffffff; opacity: 0.8; stroke: #cccccc; stroke-linejoin: miter"/>
    </g>
    <g id="line2d_16">
     <path d="M 63 139.93975 
L 73 139.93975 
L 83 139.93975 
" style="fill: none; stroke: #bdbdbd; stroke-width: 1.5; stroke-linecap: square"/>
    </g>
    <g id="text_16">
     <!-- PS-10K -->
     <g transform="translate(91 143.43975) scale(0.1 -0.1)">
      <defs>
       <path id="DejaVuSans-50" d="M 1259 4147 
L 1259 2394 
L 2053 2394 
Q 2494 2394 2734 2622 
Q 2975 2850 2975 3272 
Q 2975 3691 2734 3919 
Q 2494 4147 2053 4147 
L 1259 4147 
z
M 628 4666 
L 2053 4666 
Q 2838 4666 3239 4311 
Q 3641 3956 3641 3272 
Q 3641 2581 3239 2228 
Q 2838 1875 2053 1875 
L 1259 1875 
L 1259 0 
L 628 0 
L 628 4666 
z
" transform="scale(0.015625)"/>
       <path id="DejaVuSans-53" d="M 3425 4513 
L 3425 3897 
Q 3066 4069 2747 4153 
Q 2428 4238 2131 4238 
Q 1616 4238 1336 4038 
Q 1056 3838 1056 3469 
Q 1056 3159 1242 3001 
Q 1428 2844 1947 2747 
L 2328 2669 
Q 3034 2534 3370 2195 
Q 3706 1856 3706 1288 
Q 3706 609 3251 259 
Q 2797 -91 1919 -91 
Q 1588 -91 1214 -16 
Q 841 59 441 206 
L 441 856 
Q 825 641 1194 531 
Q 1563 422 1919 422 
Q 2459 422 2753 634 
Q 3047 847 3047 1241 
Q 3047 1584 2836 1778 
Q 2625 1972 2144 2069 
L 1759 2144 
Q 1053 2284 737 2584 
Q 422 2884 422 3419 
Q 422 4038 858 4394 
Q 1294 4750 2059 4750 
Q 2388 4750 2728 4690 
Q 3069 4631 3425 4513 
z
" transform="scale(0.015625)"/>
       <path id="DejaVuSans-2d" d="M 313 2009 
L 1997 2009 
L 1997 1497 
L 313 1497 
L 313 2009 
z
" transform="scale(0.015625)"/>
       <path id="DejaVuSans-4b" d="M 628 4666 
L 1259 4666 
L 1259 2694 
L 3353 4666 
L 4166 4666 
L 1850 2491 
L 4331 0 
L 3500 0 
L 1259 2247 
L 1259 0 
L 628 0 
L 628 4666 
z
" transform="scale(0.015625)"/>
      </defs>
      <use xlink:href="#DejaVuSans-50"/>
      <use xlink:href="#DejaVuSans-53" x="60.302734"/>
      <use xlink:href="#DejaVuSans-2d" x="123.779297"/>
      <use xlink:href="#DejaVuSans-31" x="159.863281"/>
      <use xlink:href="#DejaVuSans-30" x="223.486328"/>
      <use xlink:href="#DejaVuSans-4b" x="287.109375"/>
     </g>
    </g>
    <g id="line2d_17">
     <path d="M 63 154.617875 
L 73 154.617875 
L 83 154.617875 
" style="fill: none; stroke: #74a9cf; stroke-width: 1.5; stroke-linecap: square"/>
    </g>
    <g id="text_17">
     <!-- PS-10K-SCF$_{3}$ -->
     <g transform="translate(91 158.117875) scale(0.1 -0.1)">
      <defs>
       <path id="DejaVuSans-46" d="M 628 4666 
L 3309 4666 
L 3309 4134 
L 1259 4134 
L 1259 2759 
L 3109 2759 
L 3109 2228 
L 1259 2228 
L 1259 0 
L 628 0 
L 628 4666 
z
" transform="scale(0.015625)"/>
      </defs>
      <use xlink:href="#DejaVuSans-50" transform="translate(0 0.78125)"/>
      <use xlink:href="#DejaVuSans-53" transform="translate(60.302734 0.78125)"/>
      <use xlink:href="#DejaVuSans-2d" transform="translate(123.779297 0.78125)"/>
      <use xlink:href="#DejaVuSans-31" transform="translate(159.863281 0.78125)"/>
      <use xlink:href="#DejaVuSans-30" transform="translate(223.486328 0.78125)"/>
      <use xlink:href="#DejaVuSans-4b" transform="translate(287.109375 0.78125)"/>
      <use xlink:href="#DejaVuSans-2d" transform="translate(352.685547 0.78125)"/>
      <use xlink:href="#DejaVuSans-53" transform="translate(388.769531 0.78125)"/>
      <use xlink:href="#DejaVuSans-43" transform="translate(452.246094 0.78125)"/>
      <use xlink:href="#DejaVuSans-46" transform="translate(522.070312 0.78125)"/>
      <use xlink:href="#DejaVuSans-33" transform="translate(580.546875 -15.625) scale(0.7)"/>
     </g>
    </g>
    <g id="line2d_18">
     <path d="M 63 169.296 
L 73 169.296 
L 83 169.296 
" style="fill: none; stroke-dasharray: 1.11,0.48; stroke-dashoffset: 0; stroke: #ff0000; stroke-width: 0.3"/>
    </g>
    <g id="text_18">
     <!-- $T_\mathregular{depolymerization}$ at 99.5% Mass -->
     <g transform="translate(91 172.796) scale(0.1 -0.1)">
      <defs>
       <path id="DejaVuSans-Oblique-54" d="M 378 4666 
L 4325 4666 
L 4225 4134 
L 2559 4134 
L 1759 0 
L 1125 0 
L 1925 4134 
L 275 4134 
L 378 4666 
z
" transform="scale(0.015625)"/>
       <path id="DejaVuSans-64" d="M 2906 2969 
L 2906 4863 
L 3481 4863 
L 3481 0 
L 2906 0 
L 2906 525 
Q 2725 213 2448 61 
Q 2172 -91 1784 -91 
Q 1150 -91 751 415 
Q 353 922 353 1747 
Q 353 2572 751 3078 
Q 1150 3584 1784 3584 
Q 2172 3584 2448 3432 
Q 2725 3281 2906 2969 
z
M 947 1747 
Q 947 1113 1208 752 
Q 1469 391 1925 391 
Q 2381 391 2643 752 
Q 2906 1113 2906 1747 
Q 2906 2381 2643 2742 
Q 2381 3103 1925 3103 
Q 1469 3103 1208 2742 
Q 947 2381 947 1747 
z
" transform="scale(0.015625)"/>
       <path id="DejaVuSans-6f" d="M 1959 3097 
Q 1497 3097 1228 2736 
Q 959 2375 959 1747 
Q 959 1119 1226 758 
Q 1494 397 1959 397 
Q 2419 397 2687 759 
Q 2956 1122 2956 1747 
Q 2956 2369 2687 2733 
Q 2419 3097 1959 3097 
z
M 1959 3584 
Q 2709 3584 3137 3096 
Q 3566 2609 3566 1747 
Q 3566 888 3137 398 
Q 2709 -91 1959 -91 
Q 1206 -91 779 398 
Q 353 888 353 1747 
Q 353 2609 779 3096 
Q 1206 3584 1959 3584 
z
" transform="scale(0.015625)"/>
       <path id="DejaVuSans-6c" d="M 603 4863 
L 1178 4863 
L 1178 0 
L 603 0 
L 603 4863 
z
" transform="scale(0.015625)"/>
       <path id="DejaVuSans-72" d="M 2631 2963 
Q 2534 3019 2420 3045 
Q 2306 3072 2169 3072 
Q 1681 3072 1420 2755 
Q 1159 2438 1159 1844 
L 1159 0 
L 581 0 
L 581 3500 
L 1159 3500 
L 1159 2956 
Q 1341 3275 1631 3429 
Q 1922 3584 2338 3584 
Q 2397 3584 2469 3576 
Q 2541 3569 2628 3553 
L 2631 2963 
z
" transform="scale(0.015625)"/>
       <path id="DejaVuSans-7a" d="M 353 3500 
L 3084 3500 
L 3084 2975 
L 922 459 
L 3084 459 
L 3084 0 
L 275 0 
L 275 525 
L 2438 3041 
L 353 3041 
L 353 3500 
z
" transform="scale(0.015625)"/>
       <path id="DejaVuSans-74" d="M 1172 4494 
L 1172 3500 
L 2356 3500 
L 2356 3053 
L 1172 3053 
L 1172 1153 
Q 1172 725 1289 603 
Q 1406 481 1766 481 
L 2356 481 
L 2356 0 
L 1766 0 
Q 1100 0 847 248 
Q 594 497 594 1153 
L 594 3053 
L 172 3053 
L 172 3500 
L 594 3500 
L 594 4494 
L 1172 4494 
z
" transform="scale(0.015625)"/>
       <path id="DejaVuSans-39" d="M 703 97 
L 703 672 
Q 941 559 1184 500 
Q 1428 441 1663 441 
Q 2288 441 2617 861 
Q 2947 1281 2994 2138 
Q 2813 1869 2534 1725 
Q 2256 1581 1919 1581 
Q 1219 1581 811 2004 
Q 403 2428 403 3163 
Q 403 3881 828 4315 
Q 1253 4750 1959 4750 
Q 2769 4750 3195 4129 
Q 3622 3509 3622 2328 
Q 3622 1225 3098 567 
Q 2575 -91 1691 -91 
Q 1453 -91 1209 -44 
Q 966 3 703 97 
z
M 1959 2075 
Q 2384 2075 2632 2365 
Q 2881 2656 2881 3163 
Q 2881 3666 2632 3958 
Q 2384 4250 1959 4250 
Q 1534 4250 1286 3958 
Q 1038 3666 1038 3163 
Q 1038 2656 1286 2365 
Q 1534 2075 1959 2075 
z
" transform="scale(0.015625)"/>
       <path id="DejaVuSans-2e" d="M 684 794 
L 1344 794 
L 1344 0 
L 684 0 
L 684 794 
z
" transform="scale(0.015625)"/>
      </defs>
      <use xlink:href="#DejaVuSans-Oblique-54" transform="translate(0 0.78125)"/>
      <use xlink:href="#DejaVuSans-64" transform="translate(61.083984 -15.625) scale(0.7)"/>
      <use xlink:href="#DejaVuSans-65" transform="translate(105.517578 -15.625) scale(0.7)"/>
      <use xlink:href="#DejaVuSans-70" transform="translate(148.583984 -15.625) scale(0.7)"/>
      <use xlink:href="#DejaVuSans-6f" transform="translate(193.017578 -15.625) scale(0.7)"/>
      <use xlink:href="#DejaVuSans-6c" transform="translate(235.844727 -15.625) scale(0.7)"/>
      <use xlink:href="#DejaVuSans-79" transform="translate(255.292969 -15.625) scale(0.7)"/>
      <use xlink:href="#DejaVuSans-6d" transform="translate(296.71875 -15.625) scale(0.7)"/>
      <use xlink:href="#DejaVuSans-65" transform="translate(364.907227 -15.625) scale(0.7)"/>
      <use xlink:href="#DejaVuSans-72" transform="translate(407.973633 -15.625) scale(0.7)"/>
      <use xlink:href="#DejaVuSans-69" transform="translate(436.75293 -15.625) scale(0.7)"/>
      <use xlink:href="#DejaVuSans-7a" transform="translate(456.201172 -15.625) scale(0.7)"/>
      <use xlink:href="#DejaVuSans-61" transform="translate(492.944336 -15.625) scale(0.7)"/>
      <use xlink:href="#DejaVuSans-74" transform="translate(535.839844 -15.625) scale(0.7)"/>
      <use xlink:href="#DejaVuSans-69" transform="translate(563.286133 -15.625) scale(0.7)"/>
      <use xlink:href="#DejaVuSans-6f" transform="translate(582.734375 -15.625) scale(0.7)"/>
      <use xlink:href="#DejaVuSans-6e" transform="translate(625.561523 -15.625) scale(0.7)"/>
      <use xlink:href="#DejaVuSans-20" transform="translate(672.661133 0.78125)"/>
      <use xlink:href="#DejaVuSans-61" transform="translate(704.448242 0.78125)"/>
      <use xlink:href="#DejaVuSans-74" transform="translate(765.727539 0.78125)"/>
      <use xlink:href="#DejaVuSans-20" transform="translate(804.936523 0.78125)"/>
      <use xlink:href="#DejaVuSans-39" transform="translate(836.723633 0.78125)"/>
      <use xlink:href="#DejaVuSans-39" transform="translate(900.34668 0.78125)"/>
      <use xlink:href="#DejaVuSans-2e" transform="translate(963.969727 0.78125)"/>
      <use xlink:href="#DejaVuSans-35" transform="translate(995.756836 0.78125)"/>
      <use xlink:href="#DejaVuSans-25" transform="translate(1059.379883 0.78125)"/>
      <use xlink:href="#DejaVuSans-20" transform="translate(1154.399414 0.78125)"/>
      <use xlink:href="#DejaVuSans-4d" transform="translate(1186.186523 0.78125)"/>
      <use xlink:href="#DejaVuSans-61" transform="translate(1272.46582 0.78125)"/>
      <use xlink:href="#DejaVuSans-73" transform="translate(1333.745117 0.78125)"/>
      <use xlink:href="#DejaVuSans-73" transform="translate(1385.844727 0.78125)"/>
     </g>
    </g>
   </g>
  </g>
  <g id="axes_2">
   <g id="patch_6">
    <path d="M 54 384.48 
L 388.8 384.48 
L 388.8 251.424 
L 54 251.424 
z
" style="fill: #ffffff"/>
   </g>
   <g id="matplotlib.axis_3">
    <g id="xtick_9">
     <g id="line2d_19">
      <g>
       <use xlink:href="#mb5762c78e7" x="76.32" y="384.48" style="stroke: #000000; stroke-width: 0.8"/>
      </g>
     </g>
     <g id="text_19">
      <!-- 260 -->
      <g transform="translate(64.8675 397.098125) scale(0.12 -0.12)">
       <use xlink:href="#DejaVuSans-32"/>
       <use xlink:href="#DejaVuSans-36" x="63.623047"/>
       <use xlink:href="#DejaVuSans-30" x="127.246094"/>
      </g>
     </g>
    </g>
    <g id="xtick_10">
     <g id="line2d_20">
      <g>
       <use xlink:href="#mb5762c78e7" x="120.96" y="384.48" style="stroke: #000000; stroke-width: 0.8"/>
      </g>
     </g>
     <g id="text_20">
      <!-- 280 -->
      <g transform="translate(109.5075 397.098125) scale(0.12 -0.12)">
       <use xlink:href="#DejaVuSans-32"/>
       <use xlink:href="#DejaVuSans-38" x="63.623047"/>
       <use xlink:href="#DejaVuSans-30" x="127.246094"/>
      </g>
     </g>
    </g>
    <g id="xtick_11">
     <g id="line2d_21">
      <g>
       <use xlink:href="#mb5762c78e7" x="165.6" y="384.48" style="stroke: #000000; stroke-width: 0.8"/>
      </g>
     </g>
     <g id="text_21">
      <!-- 300 -->
      <g transform="translate(154.1475 397.098125) scale(0.12 -0.12)">
       <use xlink:href="#DejaVuSans-33"/>
       <use xlink:href="#DejaVuSans-30" x="63.623047"/>
       <use xlink:href="#DejaVuSans-30" x="127.246094"/>
      </g>
     </g>
    </g>
    <g id="xtick_12">
     <g id="line2d_22">
      <g>
       <use xlink:href="#mb5762c78e7" x="210.24" y="384.48" style="stroke: #000000; stroke-width: 0.8"/>
      </g>
     </g>
     <g id="text_22">
      <!-- 320 -->
      <g transform="translate(198.7875 397.098125) scale(0.12 -0.12)">
       <use xlink:href="#DejaVuSans-33"/>
       <use xlink:href="#DejaVuSans-32" x="63.623047"/>
       <use xlink:href="#DejaVuSans-30" x="127.246094"/>
      </g>
     </g>
    </g>
    <g id="xtick_13">
     <g id="line2d_23">
      <g>
       <use xlink:href="#mb5762c78e7" x="254.88" y="384.48" style="stroke: #000000; stroke-width: 0.8"/>
      </g>
     </g>
     <g id="text_23">
      <!-- 340 -->
      <g transform="translate(243.4275 397.098125) scale(0.12 -0.12)">
       <use xlink:href="#DejaVuSans-33"/>
       <use xlink:href="#DejaVuSans-34" x="63.623047"/>
       <use xlink:href="#DejaVuSans-30" x="127.246094"/>
      </g>
     </g>
    </g>
    <g id="xtick_14">
     <g id="line2d_24">
      <g>
       <use xlink:href="#mb5762c78e7" x="299.52" y="384.48" style="stroke: #000000; stroke-width: 0.8"/>
      </g>
     </g>
     <g id="text_24">
      <!-- 360 -->
      <g transform="translate(288.0675 397.098125) scale(0.12 -0.12)">
       <use xlink:href="#DejaVuSans-33"/>
       <use xlink:href="#DejaVuSans-36" x="63.623047"/>
       <use xlink:href="#DejaVuSans-30" x="127.246094"/>
      </g>
     </g>
    </g>
    <g id="xtick_15">
     <g id="line2d_25">
      <g>
       <use xlink:href="#mb5762c78e7" x="344.16" y="384.48" style="stroke: #000000; stroke-width: 0.8"/>
      </g>
     </g>
     <g id="text_25">
      <!-- 380 -->
      <g transform="translate(332.7075 397.098125) scale(0.12 -0.12)">
       <use xlink:href="#DejaVuSans-33"/>
       <use xlink:href="#DejaVuSans-38" x="63.623047"/>
       <use xlink:href="#DejaVuSans-30" x="127.246094"/>
      </g>
     </g>
    </g>
    <g id="xtick_16">
     <g id="line2d_26">
      <g>
       <use xlink:href="#mb5762c78e7" x="388.8" y="384.48" style="stroke: #000000; stroke-width: 0.8"/>
      </g>
     </g>
     <g id="text_26">
      <!-- 400 -->
      <g transform="translate(377.3475 397.098125) scale(0.12 -0.12)">
       <use xlink:href="#DejaVuSans-34"/>
       <use xlink:href="#DejaVuSans-30" x="63.623047"/>
       <use xlink:href="#DejaVuSans-30" x="127.246094"/>
      </g>
     </g>
    </g>
    <g id="text_27">
     <!-- Temp (oC) -->
     <g transform="translate(190.960313 412.711875) scale(0.12 -0.12)">
      <use xlink:href="#DejaVuSans-54"/>
      <use xlink:href="#DejaVuSans-65" x="44.083984"/>
      <use xlink:href="#DejaVuSans-6d" x="105.607422"/>
      <use xlink:href="#DejaVuSans-70" x="203.019531"/>
      <use xlink:href="#DejaVuSans-20" x="266.496094"/>
      <use xlink:href="#DejaVuSans-28" x="298.283203"/>
      <use xlink:href="#DejaVuSans-6f" x="337.296875"/>
      <use xlink:href="#DejaVuSans-43" x="398.478516"/>
      <use xlink:href="#DejaVuSans-29" x="468.302734"/>
     </g>
    </g>
   </g>
   <g id="matplotlib.axis_4">
    <g id="ytick_5">
     <g id="line2d_27">
      <g>
       <use xlink:href="#m13c65ad9fb" x="54" y="347.474553" style="stroke: #000000; stroke-width: 0.8"/>
      </g>
     </g>
     <g id="text_28">
      <!-- 1.4 -->
      <g transform="translate(31.41625 352.033616) scale(0.12 -0.12)">
       <use xlink:href="#DejaVuSans-31"/>
       <use xlink:href="#DejaVuSans-2e" x="63.623047"/>
       <use xlink:href="#DejaVuSans-34" x="95.410156"/>
      </g>
     </g>
    </g>
    <g id="ytick_6">
     <g id="line2d_28">
      <g>
       <use xlink:href="#m13c65ad9fb" x="54" y="297.53916" style="stroke: #000000; stroke-width: 0.8"/>
      </g>
     </g>
     <g id="text_29">
      <!-- 1.5 -->
      <g transform="translate(31.41625 302.098223) scale(0.12 -0.12)">
       <use xlink:href="#DejaVuSans-31"/>
       <use xlink:href="#DejaVuSans-2e" x="63.623047"/>
       <use xlink:href="#DejaVuSans-35" x="95.410156"/>
      </g>
     </g>
    </g>
    <g id="text_30">
     <!-- Ion Current (A) -->
     <g transform="translate(24.920625 362.327625) rotate(-90) scale(0.12 -0.12)">
      <defs>
       <path id="DejaVuSans-49" d="M 628 4666 
L 1259 4666 
L 1259 0 
L 628 0 
L 628 4666 
z
" transform="scale(0.015625)"/>
       <path id="DejaVuSans-75" d="M 544 1381 
L 544 3500 
L 1119 3500 
L 1119 1403 
Q 1119 906 1312 657 
Q 1506 409 1894 409 
Q 2359 409 2629 706 
Q 2900 1003 2900 1516 
L 2900 3500 
L 3475 3500 
L 3475 0 
L 2900 0 
L 2900 538 
Q 2691 219 2414 64 
Q 2138 -91 1772 -91 
Q 1169 -91 856 284 
Q 544 659 544 1381 
z
M 1991 3584 
L 1991 3584 
z
" transform="scale(0.015625)"/>
      </defs>
      <use xlink:href="#DejaVuSans-49"/>
      <use xlink:href="#DejaVuSans-6f" x="29.492188"/>
      <use xlink:href="#DejaVuSans-6e" x="90.673828"/>
      <use xlink:href="#DejaVuSans-20" x="154.052734"/>
      <use xlink:href="#DejaVuSans-43" x="185.839844"/>
      <use xlink:href="#DejaVuSans-75" x="255.664062"/>
      <use xlink:href="#DejaVuSans-72" x="319.042969"/>
      <use xlink:href="#DejaVuSans-72" x="358.40625"/>
      <use xlink:href="#DejaVuSans-65" x="397.269531"/>
      <use xlink:href="#DejaVuSans-6e" x="458.792969"/>
      <use xlink:href="#DejaVuSans-74" x="522.171875"/>
      <use xlink:href="#DejaVuSans-20" x="561.380859"/>
      <use xlink:href="#DejaVuSans-28" x="593.167969"/>
      <use xlink:href="#DejaVuSans-41" x="632.181641"/>
      <use xlink:href="#DejaVuSans-29" x="700.589844"/>
     </g>
    </g>
    <g id="text_31">
     <!-- 1e−12 -->
     <g transform="translate(54 248.424) scale(0.1 -0.1)">
      <defs>
       <path id="DejaVuSans-2212" d="M 678 2272 
L 4684 2272 
L 4684 1741 
L 678 1741 
L 678 2272 
z
" transform="scale(0.015625)"/>
      </defs>
      <use xlink:href="#DejaVuSans-31"/>
      <use xlink:href="#DejaVuSans-65" x="63.623047"/>
      <use xlink:href="#DejaVuSans-2212" x="125.146484"/>
      <use xlink:href="#DejaVuSans-31" x="208.935547"/>
      <use xlink:href="#DejaVuSans-32" x="272.558594"/>
     </g>
    </g>
   </g>
   <g id="line2d_29">
    <path d="M 54.071424 356.525843 
L 54.495504 370.812358 
L 54.778968 336.52472 
L 55.256616 345.09663 
L 55.569096 359.383146 
L 55.975298 318.428134 
L 56.281104 329.857347 
L 56.72525 360.335414 
L 57.008758 344.143863 
L 57.455136 329.857347 
L 57.75871 349.858469 
L 58.077864 333.667417 
L 58.52875 335.571953 
L 58.937206 357.47811 
L 59.575536 313.665796 
L 60.294262 359.383146 
L 60.733944 360.335414 
L 61.035242 335.571953 
L 61.479432 347.001166 
L 61.782984 344.143863 
L 62.073144 359.383146 
L 62.519544 350.811236 
L 62.845416 338.429256 
L 63.280656 327.952311 
L 63.579766 349.858469 
L 64.044 335.571953 
L 64.327464 357.47811 
L 64.753754 333.667417 
L 65.057306 333.667417 
L 65.519352 321.285437 
L 65.811766 331.762382 
L 66.246984 342.239327 
L 66.541608 325.095008 
L 66.985754 329.857347 
L 67.29377 308.903457 
L 67.595112 313.665796 
L 68.329462 344.143863 
L 68.773586 341.286559 
L 69.068254 319.380402 
L 69.534698 314.618563 
L 69.838294 328.905079 
L 70.119459 327.000043 
L 70.565904 335.571953 
L 70.887334 347.001166 
L 71.295746 317.475866 
L 71.61943 365.097752 
L 72.059112 323.190472 
L 72.358222 336.52472 
L 72.79123 367.955055 
L 73.103666 347.953933 
L 73.536674 312.713528 
L 73.858104 342.239327 
L 74.150541 338.429256 
L 74.581294 305.093886 
L 74.891498 321.285437 
L 75.328992 334.619685 
L 75.79327 321.285437 
L 76.094546 345.09663 
L 76.53204 339.382023 
L 76.833382 313.665796 
L 77.13247 337.476988 
L 77.590008 325.095008 
L 77.875682 342.239327 
L 78.295342 325.095008 
L 78.598872 346.048898 
L 79.065382 333.667417 
L 79.342128 344.143863 
L 79.77739 337.476988 
L 80.078666 345.09663 
L 80.51616 348.906201 
L 80.813016 334.619685 
L 81.118778 344.143863 
L 81.565222 334.619685 
L 81.86873 356.525843 
L 82.60308 329.857347 
L 83.065104 332.71465 
L 83.370888 314.618563 
L 83.797222 342.239327 
L 84.085128 322.237705 
L 84.82392 353.668539 
L 85.131936 353.668539 
L 85.576104 344.143863 
L 85.861778 346.048898 
L 86.308222 346.048898 
L 86.622912 333.667417 
L 87.069334 339.382023 
L 87.357262 347.953933 
L 87.654096 329.857347 
L 88.118374 358.430878 
L 88.417462 321.285437 
L 88.845984 347.953933 
L 89.147326 351.763504 
L 89.589262 319.380402 
L 89.886096 313.665796 
L 90.33696 327.952311 
L 90.638302 360.335414 
L 91.107 329.857347 
L 91.39716 331.762382 
L 91.81008 337.476988 
L 92.12477 324.14274 
L 92.575634 337.476988 
L 92.868048 326.047776 
L 93.323398 329.857347 
L 93.615746 343.191595 
L 94.039848 327.952311 
L 94.35235 358.430878 
L 94.664786 328.905079 
L 95.097794 346.048898 
L 95.40139 368.907323 
L 95.829912 318.428134 
L 96.146856 349.858469 
L 96.59551 334.619685 
L 96.896786 333.667417 
L 97.334302 341.286559 
L 97.63781 319.380402 
L 97.932478 338.429256 
L 98.365486 321.285437 
L 98.691358 322.237705 
L 99.142222 333.667417 
L 99.423454 375.574697 
L 100.597486 339.382023 
L 100.918872 355.573575 
L 101.36304 344.143863 
L 101.63088 332.71465 
L 101.936642 329.857347 
L 102.394246 348.906201 
L 102.686594 347.953933 
L 103.124088 364.145484 
L 103.456634 338.429256 
L 104.170896 346.048898 
L 104.615064 349.858469 
L 105.061486 363.192717 
L 105.36727 339.382023 
L 105.659618 369.86009 
L 106.092626 359.383146 
L 106.405128 309.856224 
L 106.842578 346.048898 
L 107.164008 347.953933 
L 107.57916 353.668539 
L 107.884944 318.428134 
L 108.632642 346.048898 
L 109.056722 338.429256 
L 109.378152 346.048898 
L 110.096856 331.762382 
L 110.38253 315.570831 
L 110.842366 332.71465 
L 111.605666 347.001166 
L 111.89808 343.191595 
L 112.34227 335.571953 
L 112.645778 367.002787 
L 112.942634 347.001166 
L 113.386802 332.71465 
L 113.668056 342.239327 
L 114.125594 363.192717 
L 114.84653 313.665796 
L 115.172446 339.382023 
L 115.877714 351.763504 
L 116.339738 337.476988 
L 116.654494 331.762382 
L 117.091944 349.858469 
L 117.382104 310.808492 
L 117.830714 350.811236 
L 118.118642 339.382023 
L 118.571738 335.571953 
L 118.877522 350.811236 
L 119.618546 339.382023 
L 119.917634 356.525843 
L 120.348454 337.476988 
L 120.631896 337.476988 
L 121.09392 347.953933 
L 121.370666 311.76126 
L 121.82827 336.52472 
L 122.140706 295.569709 
L 122.428634 338.429256 
L 122.872802 317.475866 
L 123.198674 314.618563 
L 123.629494 303.188851 
L 123.939698 315.570831 
L 124.359358 359.383146 
L 124.671794 333.667417 
L 125.12047 330.810114 
L 125.881538 351.763504 
L 126.16951 327.952311 
L 126.598032 331.762382 
L 126.92839 315.570831 
L 127.354658 327.952311 
L 127.658254 359.383146 
L 128.372494 310.808492 
L 128.709459 315.570831 
L 129.162578 354.620807 
L 129.461666 338.429256 
L 129.914762 355.573575 
L 130.20943 347.953933 
L 130.617864 340.334291 
L 130.939294 360.335414 
L 131.394578 351.763504 
L 131.704848 354.620807 
L 132.008422 330.810114 
L 132.44143 355.573575 
L 132.71369 320.333169 
L 133.184642 352.716271 
L 133.459222 360.335414 
L 133.930152 349.858469 
L 134.18681 326.047776 
L 134.65553 357.47811 
L 134.927856 318.428134 
L 135.258214 337.476988 
L 135.653278 336.52472 
L 135.961294 297.474244 
L 136.405462 314.618563 
L 136.715666 372.717394 
L 137.450016 328.905079 
L 137.90088 356.525843 
L 138.199968 332.71465 
L 138.65081 366.05002 
L 138.954406 301.284315 
L 139.407502 326.047776 
L 139.69543 361.288181 
L 140.117278 306.998921 
L 140.416366 341.286559 
L 140.880578 347.953933 
L 141.143976 331.762382 
L 141.458666 341.286559 
L 141.900602 369.86009 
L 142.184088 337.476988 
L 142.650554 359.383146 
L 142.947454 356.525843 
L 143.396064 315.570831 
L 143.697406 326.047776 
L 144.14827 337.476988 
L 144.445104 313.665796 
L 144.708502 313.665796 
L 145.181642 346.048898 
L 145.453968 320.333169 
L 145.909318 340.334291 
L 146.219522 320.333169 
L 146.632486 358.430878 
L 146.962778 314.618563 
L 147.42931 360.335414 
L 147.70831 326.047776 
L 148.145738 323.190472 
L 148.456008 333.667417 
L 149.016262 329.857347 
L 149.212634 338.429256 
L 149.694746 321.285437 
L 149.96484 319.380402 
L 150.295198 331.762382 
L 150.71035 324.14274 
L 151.004952 348.906201 
L 151.451374 327.952311 
L 151.766064 329.857347 
L 152.214674 340.334291 
L 152.545032 318.428134 
L 152.957952 333.667417 
L 153.268222 333.667417 
L 153.53604 342.239327 
L 154.031522 349.858469 
L 154.368554 323.190472 
L 154.759198 330.810114 
L 155.049358 320.333169 
L 155.500222 328.905079 
L 155.805984 347.001166 
L 156.243478 294.616941 
L 156.560422 345.09663 
L 156.991198 331.762382 
L 157.283546 314.618563 
L 158.022382 346.048898 
L 158.484406 345.09663 
L 158.79019 323.190472 
L 159.07361 320.333169 
L 159.511104 337.476988 
L 159.790104 334.619685 
L 160.245454 319.380402 
L 160.560144 345.09663 
L 161.004334 311.76126 
L 161.31235 347.001166 
L 161.745358 329.857347 
L 162.03996 348.906201 
L 162.49973 347.001166 
L 162.807746 341.286559 
L 163.086746 325.095008 
L 163.852366 330.810114 
L 164.289794 354.620807 
L 164.58223 343.191595 
L 165.039746 299.37928 
L 165.318746 330.810114 
L 165.78077 320.333169 
L 166.070952 340.334291 
L 166.356626 342.239327 
L 167.111064 313.665796 
L 167.550746 335.571953 
L 167.854342 338.429256 
L 168.586438 314.618563 
L 169.05065 308.903457 
L 169.338578 327.000043 
L 169.776072 333.667417 
L 170.086342 344.143863 
L 170.503682 312.713528 
L 171.128642 337.476988 
L 171.56839 317.475866 
L 171.862992 312.713528 
L 172.300486 327.952311 
L 172.60627 332.71465 
L 173.03477 318.428134 
L 173.34504 347.001166 
L 173.766888 353.668539 
L 174.070462 349.858469 
L 174.380666 326.047776 
L 174.851618 345.09663 
L 175.119502 325.095008 
L 175.570366 336.52472 
L 175.858294 360.335414 
L 176.612666 307.951189 
L 176.914008 327.952311 
L 177.35369 339.382023 
L 177.650546 351.763504 
L 178.081366 328.905079 
L 178.396056 322.237705 
L 178.849152 331.762382 
L 179.123666 323.190472 
L 179.603546 320.333169 
L 179.887032 335.571953 
L 180.299952 305.093886 
L 180.612454 332.71465 
L 181.049904 341.286559 
L 181.355666 315.570831 
L 181.81769 310.808492 
L 182.101198 327.952311 
L 182.844454 347.953933 
L 183.306478 313.665796 
L 184.043016 346.048898 
L 184.32869 350.811236 
L 185.083128 332.71465 
L 185.395586 303.188851 
L 185.828594 322.237705 
L 186.127682 316.523099 
L 186.585286 346.048898 
L 186.87096 346.048898 
L 187.310642 330.810114 
L 187.645486 347.001166 
L 188.098538 347.001166 
L 188.373096 323.190472 
L 188.661024 309.856224 
L 189.433318 327.000043 
L 189.86184 321.285437 
L 190.158674 342.239327 
L 190.638554 320.333169 
L 190.915366 317.475866 
L 191.24347 310.808492 
L 191.65639 331.762382 
L 191.953246 354.620807 
L 192.397414 313.665796 
L 192.68753 310.808492 
L 193.133952 315.570831 
L 193.450896 334.619685 
L 193.872722 339.382023 
L 194.182992 324.14274 
L 194.631602 321.285437 
L 194.917342 347.001166 
L 195.357024 357.47811 
L 195.678454 337.476988 
L 196.115904 322.237705 
L 196.412738 347.953933 
L 196.70292 344.143863 
L 197.153762 321.285437 
L 197.450618 344.143863 
L 197.894786 337.476988 
L 198.191642 295.569709 
L 198.63581 356.525843 
L 198.921506 306.998921 
L 199.684872 327.000043 
L 199.968358 343.191595 
L 200.448238 320.333169 
L 200.720498 329.857347 
L 201.191494 330.810114 
L 201.452594 318.428134 
L 202.195872 339.382023 
L 202.648968 316.523099 
L 202.948056 321.285437 
L 203.392246 341.286559 
L 203.711422 332.71465 
L 204.146618 315.570831 
L 204.42343 354.620807 
L 205.177802 301.284315 
L 205.463498 295.569709 
L 205.912152 305.093886 
L 206.20008 291.759638 
L 206.662104 325.095008 
L 206.947778 321.285437 
L 207.244634 328.905079 
L 207.695498 334.619685 
L 207.992398 331.762382 
L 208.436522 345.09663 
L 208.75351 312.713528 
L 209.193214 318.428134 
L 209.50123 351.763504 
L 209.93647 351.763504 
L 210.69535 327.952311 
L 210.965422 281.282693 
L 211.284554 327.952311 
L 211.715374 323.190472 
L 212.036738 341.286559 
L 212.472 304.141618 
L 212.757674 328.905079 
L 213.20635 328.905079 
L 213.52104 345.09663 
L 213.956302 309.856224 
L 214.266506 350.811236 
L 214.99416 306.046653 
L 215.322286 345.09663 
L 215.755294 321.285437 
L 216.215064 329.857347 
L 216.502992 319.380402 
L 216.777506 284.139997 
L 217.25069 330.810114 
L 217.543104 373.669662 
L 218.281896 327.000043 
L 218.594398 332.71465 
L 219.029594 312.713528 
L 219.451486 355.573575 
L 220.04069 319.380402 
L 220.511642 326.047776 
L 220.804056 327.952311 
L 221.261594 331.762382 
L 221.562936 302.236583 
L 222.00043 347.953933 
L 222.277198 317.475866 
L 222.77047 316.523099 
L 223.053912 336.52472 
L 223.484666 320.333169 
L 223.77708 327.000043 
L 224.212342 305.093886 
L 224.823888 351.763504 
L 225.259128 316.523099 
L 225.571586 330.810114 
L 225.980064 358.430878 
L 226.263506 314.618563 
L 226.714414 368.907323 
L 227.042541 333.667417 
L 227.479968 334.619685 
L 227.772382 348.906201 
L 228.089326 344.143863 
L 228.529008 299.37928 
L 228.83035 347.953933 
L 229.55796 324.14274 
L 230.008802 341.286559 
L 230.319072 360.335414 
L 230.767682 347.953933 
L 231.046682 315.570831 
L 231.506541 331.762382 
L 231.798888 347.953933 
L 232.24973 308.903457 
L 232.539912 306.998921 
L 232.852414 306.046653 
L 233.289864 327.952311 
L 233.57777 328.905079 
L 234.039794 356.525843 
L 234.33665 309.856224 
L 234.765238 320.333169 
L 235.079928 348.906201 
L 235.52635 315.570831 
L 235.81651 325.095008 
L 236.26512 349.858469 
L 236.56865 357.47811 
L 237.028486 324.14274 
L 237.300746 312.713528 
L 237.718152 334.619685 
L 238.474778 324.14274 
L 238.77612 364.145484 
L 239.226984 366.05002 
L 239.532746 322.237705 
L 239.80284 346.048898 
L 240.264864 319.380402 
L 240.550538 341.286559 
L 241.001446 349.858469 
L 241.302722 303.188851 
L 241.762514 329.857347 
L 242.05716 317.475866 
L 242.78477 354.620807 
L 243.548136 301.284315 
L 243.972238 342.239327 
L 244.278 342.239327 
L 244.583762 316.523099 
L 245.324786 353.668539 
L 245.773462 334.619685 
L 246.059136 334.619685 
L 246.494398 339.382023 
L 246.82027 345.09663 
L 247.24435 334.619685 
L 247.552366 286.045032 
L 248.273302 348.906201 
L 248.746486 355.573575 
L 249.04553 347.953933 
L 249.494206 322.237705 
L 249.770952 340.334291 
L 250.065554 351.763504 
L 250.496374 340.334291 
L 250.802136 336.52472 
L 251.110152 310.808492 
L 251.536486 332.71465 
L 251.989538 343.191595 
L 252.30204 334.619685 
L 252.737302 337.476988 
L 253.027462 332.71465 
L 253.342152 331.762382 
L 253.79527 310.808492 
L 254.08543 325.095008 
L 254.540714 323.190472 
L 254.835382 330.810114 
L 255.585334 320.333169 
L 256.049546 301.284315 
L 257.10084 335.571953 
L 257.373144 358.430878 
L 257.824008 312.713528 
L 258.116422 312.713528 
L 258.562778 337.476988 
L 258.841778 333.667417 
L 259.279294 324.14274 
L 259.602912 309.856224 
L 260.038152 321.285437 
L 260.317152 320.333169 
L 260.77027 313.665796 
L 261.038088 326.047776 
L 261.361706 332.71465 
L 261.817056 323.190472 
L 262.113912 344.143863 
L 263.276762 327.000043 
L 263.59596 310.808492 
L 264.057984 328.905079 
L 264.328056 300.331548 
L 264.785594 358.430878 
L 265.080262 330.810114 
L 265.51769 311.76126 
L 265.814546 339.382023 
L 266.263222 342.239327 
L 266.56231 303.188851 
L 266.997506 312.713528 
L 267.323422 328.905079 
L 267.751944 321.285437 
L 268.066634 350.811236 
L 268.372462 331.762382 
L 268.836674 321.285437 
L 269.122414 334.619685 
L 269.559864 322.237705 
L 269.876786 320.333169 
L 270.341064 347.953933 
L 270.631246 351.763504 
L 271.07316 320.333169 
L 271.347674 321.285437 
L 271.642342 312.713528 
L 272.119968 315.570831 
L 272.396714 329.857347 
L 272.83865 323.190472 
L 273.155594 314.618563 
L 273.595342 327.000043 
L 273.889944 312.713528 
L 274.351968 319.380402 
L 274.635454 302.236583 
L 275.090738 302.236583 
L 275.378666 343.191595 
L 275.686682 327.952311 
L 276.133104 342.239327 
L 276.434446 318.428134 
L 276.856294 361.288181 
L 277.617406 297.474244 
L 277.941024 327.000043 
L 278.228952 321.285437 
L 278.679794 335.571953 
L 278.974462 332.71465 
L 279.425326 347.001166 
L 279.733342 324.14274 
L 280.188626 316.523099 
L 280.487714 326.047776 
L 280.90512 327.952311 
L 281.20865 312.713528 
L 281.659514 344.143863 
L 281.960856 282.235461 
L 282.68851 325.095008 
L 283.427302 313.665796 
L 283.748666 326.047776 
L 284.190602 305.093886 
L 284.474088 331.762382 
L 284.773198 316.523099 
L 285.22404 335.571953 
L 285.523128 316.523099 
L 285.987406 312.713528 
L 286.268594 274.615819 
L 286.723944 328.905079 
L 287.020778 302.236583 
L 287.462714 337.476988 
L 287.772984 317.475866 
L 288.50508 308.903457 
L 288.94927 304.141618 
L 289.23943 323.190472 
L 289.978222 340.334291 
L 290.429064 326.047776 
L 290.730406 308.903457 
L 291.147746 303.188851 
L 291.451342 323.190472 
L 291.931222 327.000043 
L 292.203459 322.237705 
L 292.527144 313.665796 
L 292.960152 328.905079 
L 293.265936 327.000043 
L 293.710104 304.141618 
L 294.002541 315.570831 
L 294.457802 327.952311 
L 294.743498 316.523099 
L 295.038144 356.525843 
L 295.486754 338.429256 
L 295.77919 331.762382 
L 296.225546 294.616941 
L 296.52912 344.143863 
L 296.98447 299.37928 
L 297.283514 322.237705 
L 297.721008 330.810114 
L 298.024538 327.000043 
L 298.292422 301.284315 
L 298.736546 329.857347 
L 299.046794 323.190472 
L 299.49547 306.998921 
L 299.790072 341.286559 
L 300.511008 311.76126 
L 300.968546 312.713528 
L 301.249778 311.76126 
L 301.693968 324.14274 
L 302.013144 336.52472 
L 302.450594 332.71465 
L 302.767538 318.428134 
L 303.475104 331.762382 
L 303.789794 318.428134 
L 304.260746 349.858469 
L 304.550928 313.665796 
L 304.983936 311.76126 
L 305.47723 316.523099 
L 305.747302 341.286559 
L 306.17357 340.334291 
L 306.474912 359.383146 
L 306.771746 316.523099 
L 307.213682 307.951189 
L 307.510538 314.618563 
L 307.96812 313.665796 
L 308.289506 319.380402 
L 308.69573 319.380402 
L 309.014928 338.429256 
L 309.439008 338.429256 
L 309.731422 324.14274 
L 310.195634 333.667417 
L 310.501462 313.665796 
L 310.929984 357.47811 
L 311.222398 318.428134 
L 311.69335 330.810114 
L 311.963422 342.239327 
L 312.278112 319.380402 
L 312.722302 353.668539 
L 313.463326 303.188851 
L 313.740072 314.618563 
L 314.514554 350.811236 
L 314.940888 306.998921 
L 315.262318 348.906201 
L 315.708674 291.759638 
L 315.994414 322.237705 
L 316.438538 335.571953 
L 316.748786 308.903457 
L 317.197462 308.903457 
L 317.496506 328.905079 
L 317.925072 311.76126 
L 318.210746 317.475866 
L 318.66835 301.284315 
L 318.965206 323.190472 
L 319.26204 317.475866 
L 319.701722 336.52472 
L 320.005318 306.998921 
L 320.449486 320.333169 
L 320.74853 291.759638 
L 321.208366 332.71465 
L 321.491786 345.09663 
L 321.802056 309.856224 
L 322.226136 336.52472 
L 322.536406 338.429256 
L 322.982762 319.380402 
L 323.284104 321.285437 
L 323.723786 308.903457 
L 324.458136 315.570831 
L 324.746064 327.000043 
L 325.232618 308.903457 
L 325.81296 335.571953 
L 326.263802 328.905079 
L 326.553984 298.427012 
L 326.993666 311.76126 
L 327.288334 329.857347 
L 327.743618 330.810114 
L 328.022618 327.952311 
L 328.45788 313.665796 
L 328.77257 336.52472 
L 329.216738 334.619685 
L 329.51808 347.953933 
L 329.968944 306.998921 
L 330.727802 327.952311 
L 331.000128 322.237705 
L 331.43981 335.571953 
L 331.754522 311.76126 
L 332.044682 325.095008 
L 332.47769 284.139997 
L 332.78796 327.000043 
L 333.227642 320.333169 
L 333.535658 340.334291 
L 333.973152 336.52472 
L 334.29235 357.47811 
L 335.017706 302.236583 
L 335.32349 299.37928 
L 335.772144 326.047776 
L 336.189506 307.951189 
L 336.486406 325.095008 
L 336.812278 324.14274 
L 337.254214 314.618563 
L 337.548794 327.952311 
L 338.004144 277.473122 
L 338.303254 306.998921 
L 338.738494 298.427012 
L 339.048698 331.762382 
L 339.497374 349.858469 
L 339.760706 306.046653 
L 340.216056 339.382023 
L 340.517398 329.857347 
L 340.990538 352.716271 
L 341.280698 333.667417 
L 341.597642 297.474244 
L 342.028462 313.665796 
L 342.318578 340.334291 
L 342.816358 329.857347 
L 343.05516 329.857347 
L 343.818459 304.141618 
L 344.09304 307.951189 
L 344.534976 337.476988 
L 344.82065 295.569709 
L 345.273746 304.141618 
L 345.575088 336.52472 
L 346.028206 327.952311 
L 346.30051 314.618563 
L 346.829494 315.570831 
L 347.057136 325.095008 
L 347.514674 303.188851 
L 347.804856 307.951189 
L 348.273554 286.997799 
L 348.568222 317.475866 
L 348.853896 321.285437 
L 349.311478 311.76126 
L 349.621682 302.236583 
L 350.06143 306.046653 
L 350.33369 322.237705 
L 350.78904 326.047776 
L 351.081454 322.237705 
L 351.543478 325.095008 
L 352.150538 353.668539 
L 352.585778 301.284315 
L 352.889374 347.953933 
L 353.329056 332.71465 
L 353.625912 311.76126 
L 354.076754 308.903457 
L 354.378096 318.428134 
L 354.82896 363.192717 
L 355.121374 317.475866 
L 355.413722 339.382023 
L 355.844498 341.286559 
L 356.159254 333.667417 
L 356.58108 307.951189 
L 356.89135 324.14274 
L 357.322104 333.667417 
L 357.63012 300.331548 
L 358.089912 318.428134 
L 358.828682 323.190472 
L 359.58312 333.667417 
L 359.859888 337.476988 
L 360.308498 334.619685 
L 360.618746 337.476988 
L 361.083024 370.812358 
L 361.339682 347.001166 
L 361.795032 327.952311 
L 362.067358 307.951189 
L 362.513714 333.667417 
L 362.835144 328.905079 
L 363.288262 327.000043 
L 363.571682 321.285437 
L 363.897554 300.331548 
L 364.33949 297.474244 
L 364.656478 326.047776 
L 365.098414 352.716271 
L 365.350586 305.093886 
L 365.82377 328.905079 
L 366.555888 299.37928 
L 366.852722 317.475866 
L 367.13623 289.855102 
L 367.587072 321.285437 
L 367.89953 297.474244 
L 368.361554 332.71465 
L 368.638366 340.334291 
L 369.111506 337.476988 
L 369.828 298.427012 
L 370.127088 339.382023 
L 370.41727 299.37928 
L 370.87704 311.76126 
L 371.176128 347.953933 
L 371.597976 300.331548 
L 372.064486 342.239327 
L 372.354602 325.095008 
L 372.647016 318.428134 
L 373.09788 321.285437 
L 373.38804 328.905079 
L 373.834462 296.521977 
L 374.144666 316.523099 
L 374.60669 322.237705 
L 374.88569 316.523099 
L 375.32988 309.856224 
L 375.622294 296.521977 
L 376.095478 324.14274 
L 376.372246 295.569709 
L 376.820856 303.188851 
L 377.122198 345.09663 
L 377.425706 316.523099 
L 377.858714 289.855102 
L 378.18684 319.380402 
L 378.644422 314.618563 
L 378.92119 308.903457 
L 379.682302 359.383146 
L 380.130912 318.428134 
L 380.414398 346.048898 
L 380.860754 301.284315 
L 381.159864 300.331548 
L 381.43661 295.569709 
L 381.885286 309.856224 
L 382.199976 297.474244 
L 382.63747 320.333169 
L 382.925398 325.095008 
L 383.394096 320.333169 
L 383.67535 312.713528 
L 384.117286 330.810114 
L 384.423048 300.331548 
L 384.880586 332.71465 
L 385.18416 321.285437 
L 385.458674 327.000043 
L 385.902864 313.665796 
L 386.362634 317.475866 
L 386.675136 334.619685 
L 387.076896 326.047776 
L 387.38047 316.523099 
L 387.692928 345.09663 
L 388.239746 327.000043 
L 389.621398 299.37928 
L 389.621398 299.37928 
" clip-path="url(#p0cccd2af98)" style="fill: none; stroke: #bdbdbd; stroke-width: 1.5; stroke-linecap: square"/>
   </g>
   <g id="line2d_30">
    <path d="M 54.06696 324.14274 
L 54.486576 328.905079 
L 54.776758 351.763504 
L 55.245456 353.668539 
L 55.546754 337.476988 
L 55.982016 332.71465 
L 56.281104 319.380402 
L 56.72304 338.429256 
L 56.995344 325.095008 
L 57.439512 320.333169 
L 57.736368 323.190472 
L 58.202856 317.475866 
L 58.490762 334.619685 
L 59.205024 310.808492 
L 59.519758 348.906201 
L 59.997384 319.380402 
L 60.289754 324.14274 
L 60.579936 342.239327 
L 60.999552 334.619685 
L 61.760686 338.429256 
L 62.075376 339.382023 
L 62.524008 310.808492 
L 62.834234 344.143863 
L 63.249408 318.428134 
L 63.738238 324.14274 
L 64.01052 312.713528 
L 64.441274 327.000043 
L 64.78056 321.285437 
L 65.064024 319.380402 
L 65.48364 332.71465 
L 65.934504 311.76126 
L 66.233592 345.09663 
L 66.508128 317.475866 
L 66.976848 349.858469 
L 67.27819 321.285437 
L 67.742446 326.047776 
L 68.02812 331.762382 
L 68.32049 347.001166 
L 68.75131 324.14274 
L 69.063746 345.09663 
L 69.507936 328.905079 
L 69.813698 311.76126 
L 70.242286 331.762382 
L 70.556976 308.903457 
L 70.989984 339.382023 
L 71.300254 306.046653 
L 71.606016 317.475866 
L 72.034538 322.237705 
L 72.313538 323.190472 
L 72.764446 331.762382 
L 73.083578 319.380402 
L 73.369318 348.906201 
L 73.838016 327.000043 
L 74.273278 325.095008 
L 74.57904 315.570831 
L 75.01649 322.237705 
L 75.33792 295.569709 
L 75.610246 340.334291 
L 76.054414 324.14274 
L 76.35127 324.14274 
L 76.77535 298.427012 
L 77.07888 336.52472 
L 77.516374 331.762382 
L 78.266326 309.856224 
L 78.574342 308.903457 
L 79.009538 347.001166 
L 79.293024 351.763504 
L 79.74612 308.903457 
L 80.036302 311.76126 
L 80.498326 311.76126 
L 80.801856 300.331548 
L 81.114358 361.288181 
L 81.565222 322.237705 
L 82.007136 315.570831 
L 82.308478 319.380402 
L 82.730326 378.432 
L 83.038342 321.285437 
L 83.33743 296.521977 
L 83.77488 333.667417 
L 84.058366 307.951189 
L 84.50923 320.333169 
L 84.808318 321.285437 
L 85.265856 322.237705 
L 85.571618 325.095008 
L 86.01804 313.665796 
L 86.341658 341.286559 
L 86.781406 291.759638 
L 87.040318 337.476988 
L 87.359494 327.000043 
L 87.830446 321.285437 
L 88.084872 323.190472 
L 88.40849 313.665796 
L 88.875 305.093886 
L 89.294594 329.857347 
L 89.624952 336.52472 
L 89.89951 338.429256 
L 90.332541 314.618563 
L 90.624888 327.000043 
L 91.084658 341.286559 
L 91.368144 339.382023 
L 91.843538 347.001166 
L 92.104682 311.76126 
L 92.551104 334.619685 
L 92.832358 356.525843 
L 93.31447 304.141618 
L 93.591238 334.619685 
L 94.06219 330.810114 
L 94.778618 363.192717 
L 95.064358 313.665796 
L 95.52857 313.665796 
L 95.829912 340.334291 
L 96.287494 321.285437 
L 96.575422 304.141618 
L 97.006198 322.237705 
L 97.332048 341.286559 
L 97.776238 345.09663 
L 98.802936 301.284315 
L 99.251546 325.095008 
L 99.537286 328.905079 
L 99.972459 329.857347 
L 100.287238 289.855102 
L 100.599674 333.667417 
L 101.021522 320.333169 
L 101.35188 322.237705 
L 101.798302 321.285437 
L 102.099578 321.285437 
L 102.546 332.71465 
L 102.818326 332.71465 
L 103.282538 317.475866 
L 103.581626 330.810114 
L 103.878459 306.998921 
L 104.336064 337.476988 
L 104.626246 320.333169 
L 105.050326 327.952311 
L 105.369502 322.237705 
L 105.777936 299.37928 
L 106.117222 306.046653 
L 106.55465 317.475866 
L 106.847064 321.285437 
L 107.291254 331.762382 
L 107.60369 320.333169 
L 108.041206 290.80737 
L 108.344714 333.667417 
L 108.79339 302.236583 
L 109.067904 332.71465 
L 109.503144 345.09663 
L 109.826762 287.950067 
L 110.12143 336.52472 
L 110.549952 318.428134 
L 110.860222 343.191595 
L 111.30881 320.333169 
L 111.61908 343.191595 
L 112.06327 327.952311 
L 112.357872 343.191595 
L 112.636872 347.001166 
L 113.076554 311.76126 
L 113.53639 314.618563 
L 114.259514 294.616941 
L 114.576502 335.571953 
L 114.875546 335.571953 
L 115.330896 333.667417 
L 115.609896 333.667417 
L 116.092008 321.285437 
L 116.498254 337.476988 
L 117.112032 333.667417 
L 117.547294 323.190472 
L 118.28381 327.952311 
L 118.591848 294.616941 
L 118.877522 324.14274 
L 119.341778 324.14274 
L 119.783714 325.095008 
L 120.071642 320.333169 
L 120.379658 340.334291 
L 120.823848 319.380402 
L 121.109522 321.285437 
L 121.567104 344.143863 
L 121.848358 327.000043 
L 122.301454 356.525843 
L 122.763478 306.998921 
L 123.033506 332.71465 
L 123.352682 341.286559 
L 123.794618 345.09663 
L 124.06469 345.09663 
L 124.381634 330.810114 
L 124.83031 329.857347 
L 125.167342 296.521977 
L 125.573522 328.905079 
L 126.01327 313.665796 
L 126.301198 344.143863 
L 127.039968 306.998921 
L 127.354658 346.048898 
L 127.796594 322.237705 
L 128.318904 303.188851 
L 128.553286 338.429256 
L 128.83896 329.857347 
L 129.289802 324.14274 
L 129.624602 344.143863 
L 129.89916 338.429256 
L 130.323262 315.570831 
L 131.079888 304.141618 
L 131.367794 325.095008 
L 131.811984 306.046653 
L 132.153502 337.476988 
L 132.56419 334.619685 
L 132.85877 335.571953 
L 133.325302 329.857347 
L 133.622136 328.905079 
L 133.914506 331.762382 
L 134.358674 325.095008 
L 134.639928 303.188851 
L 135.099698 307.951189 
L 135.383206 328.905079 
L 135.831794 319.380402 
L 136.126462 309.856224 
L 136.427738 315.570831 
L 136.892016 302.236583 
L 137.200032 324.14274 
L 137.655382 336.52472 
L 137.916459 319.380402 
L 138.199968 335.571953 
L 138.644136 343.191595 
L 139.411944 290.80737 
L 139.838278 334.619685 
L 140.139554 330.810114 
L 140.443128 320.333169 
L 140.891738 328.905079 
L 141.197522 339.382023 
L 141.61716 327.952311 
L 142.08588 293.664673 
L 142.355952 327.952311 
L 142.668454 330.810114 
L 143.141594 311.76126 
L 143.422848 295.569709 
L 143.882618 329.857347 
L 144.311206 324.14274 
L 144.637056 325.095008 
L 145.094594 316.523099 
L 145.373594 317.475866 
L 145.648152 328.905079 
L 146.119104 311.76126 
L 146.404778 339.382023 
L 146.688286 304.141618 
L 147.170398 348.906201 
L 147.601152 336.52472 
L 147.871246 302.236583 
L 148.18819 321.285437 
L 148.641286 320.333169 
L 148.911358 317.475866 
L 149.39347 306.998921 
L 149.679144 349.858469 
L 149.976 335.571953 
L 150.411262 326.047776 
L 150.719278 315.570831 
L 151.161214 311.76126 
L 151.587459 309.856224 
L 151.911144 341.286559 
L 152.192398 277.473122 
L 152.629848 301.284315 
L 153.07627 312.713528 
L 153.665541 347.953933 
L 154.120802 340.334291 
L 154.39757 341.286559 
L 154.846246 307.951189 
L 155.16319 334.619685 
L 155.63412 334.619685 
L 155.93323 316.523099 
L 156.341642 347.953933 
L 156.685414 325.095008 
L 156.971088 325.095008 
L 157.397422 292.712405 
L 157.67861 302.236583 
L 158.111618 305.093886 
L 158.58931 290.80737 
L 158.910674 328.905079 
L 159.174072 307.951189 
L 159.620494 352.716271 
L 159.930698 288.902335 
L 160.37712 333.667417 
L 160.647214 305.093886 
L 161.106984 308.903457 
L 161.423928 322.237705 
L 161.856936 309.856224 
L 162.164952 297.474244 
L 162.593541 338.429256 
L 162.928318 315.570831 
L 163.376928 323.190472 
L 163.669342 295.569709 
L 164.10235 315.570831 
L 164.394698 321.285437 
L 164.827706 340.334291 
L 165.43481 306.046653 
L 165.863398 306.046653 
L 166.184762 327.952311 
L 166.604422 317.475866 
L 166.930294 314.618563 
L 167.37223 329.857347 
L 167.677992 348.906201 
L 168.119928 309.856224 
L 168.439104 304.141618 
L 168.85651 329.857347 
L 169.177896 296.521977 
L 169.593048 331.762382 
L 169.896578 327.000043 
L 170.356414 332.71465 
L 170.93669 323.190472 
L 171.387554 305.093886 
L 171.653206 327.952311 
L 172.106302 316.523099 
L 172.414318 319.380402 
L 172.854 322.237705 
L 173.184358 320.333169 
L 173.606206 313.665796 
L 173.92757 334.619685 
L 174.199896 339.382023 
L 174.670848 321.285437 
L 175.106088 294.616941 
L 175.409618 330.810114 
L 175.858294 322.237705 
L 176.130554 326.047776 
L 176.565794 314.618563 
L 176.86265 326.047776 
L 177.181848 309.856224 
L 177.626016 328.905079 
L 177.909502 332.71465 
L 178.340278 324.14274 
L 178.817904 307.951189 
L 179.116992 320.333169 
L 179.407152 300.331548 
L 179.87143 309.856224 
L 180.159358 322.237705 
L 180.612454 321.285437 
L 180.882459 337.476988 
L 181.360152 339.382023 
L 181.68377 317.475866 
L 182.125706 315.570831 
L 182.415888 325.095008 
L 182.826554 311.76126 
L 183.121222 320.333169 
L 183.56981 305.093886 
L 183.871152 301.284315 
L 184.355541 338.429256 
L 184.61443 287.950067 
L 185.089802 338.429256 
L 185.371056 340.334291 
L 186.123262 329.857347 
L 186.42677 321.285437 
L 186.875446 339.382023 
L 187.308454 316.523099 
L 187.59857 347.001166 
L 187.886498 321.285437 
L 188.341848 303.188851 
L 188.627522 333.667417 
L 188.93335 342.239327 
L 189.386446 321.285437 
L 189.70781 318.428134 
L 190.138586 327.952311 
L 190.558246 341.286559 
L 190.884096 315.570831 
L 191.350562 310.808492 
L 191.620634 314.618563 
L 191.910794 327.952311 
L 192.379514 302.236583 
L 192.654072 321.285437 
L 193.404024 321.285437 
L 193.843706 303.188851 
L 194.145048 321.285437 
L 194.595912 327.952311 
L 194.897254 316.523099 
L 195.63377 331.762382 
L 195.935112 324.14274 
L 196.377048 306.998921 
L 196.689506 317.475866 
L 197.419414 330.810114 
L 197.879206 293.664673 
L 198.202802 330.810114 
L 198.459459 330.810114 
L 198.923738 314.618563 
L 199.216152 338.429256 
L 199.644674 305.093886 
L 199.946016 337.476988 
L 200.39688 289.855102 
L 200.767414 328.905079 
L 201.122302 346.048898 
L 201.443666 337.476988 
L 201.910198 337.476988 
L 202.178016 320.333169 
L 202.472618 315.570831 
L 202.91904 310.808492 
L 203.227056 332.71465 
L 203.67792 285.092764 
L 203.972522 329.857347 
L 204.414502 322.237705 
L 204.742562 323.190472 
L 205.164454 327.000043 
L 205.467984 324.14274 
L 205.778254 316.523099 
L 206.204522 328.905079 
L 206.666546 329.857347 
L 206.932198 326.047776 
L 207.220104 332.71465 
L 207.699984 329.857347 
L 207.963382 331.762382 
L 208.411992 320.333169 
L 208.73119 324.14274 
L 209.005682 349.858469 
L 209.474446 326.047776 
L 209.905222 310.808492 
L 210.210984 314.618563 
L 210.523486 316.523099 
L 210.949754 311.76126 
L 211.251096 365.097752 
L 211.719794 315.570831 
L 212.44747 333.667417 
L 212.898334 308.903457 
L 213.204096 336.52472 
L 213.608088 308.903457 
L 213.96523 306.998921 
L 214.387056 302.236583 
L 214.688398 328.905079 
L 214.969586 331.762382 
L 215.43835 320.333169 
L 215.724024 318.428134 
L 216.154778 323.190472 
L 216.467302 337.476988 
L 216.73512 317.475866 
L 217.197144 306.998921 
L 217.48284 308.903457 
L 217.94935 300.331548 
L 218.243952 310.808492 
L 218.683634 302.236583 
L 218.99165 333.667417 
L 219.444746 325.095008 
L 219.734928 342.239327 
L 220.176864 320.333169 
L 220.458096 321.285437 
L 220.757206 331.762382 
L 221.232578 310.808492 
L 221.50939 320.333169 
L 221.973602 313.665796 
L 222.257088 307.951189 
L 222.72804 346.048898 
L 223.011459 318.428134 
L 223.489152 327.000043 
L 223.752506 346.048898 
L 224.21453 336.52472 
L 224.524778 324.14274 
L 224.953366 321.285437 
L 225.254642 308.903457 
L 225.535896 329.857347 
L 225.986738 316.523099 
L 226.422 315.570831 
L 226.73669 343.191595 
L 227.060374 330.810114 
L 227.49557 308.903457 
L 227.77457 336.52472 
L 228.232152 323.190472 
L 228.524522 347.953933 
L 228.96869 340.334291 
L 229.305722 322.237705 
L 229.714222 313.665796 
L 230.004382 338.429256 
L 230.470848 317.475866 
L 230.738666 327.952311 
L 231.060096 326.047776 
L 231.504286 310.808492 
L 231.796634 316.523099 
L 232.229642 315.570831 
L 232.684992 336.52472 
L 232.981848 327.952311 
L 233.276494 329.857347 
L 233.745214 293.664673 
L 234.028634 316.523099 
L 234.472802 311.76126 
L 234.76747 330.810114 
L 235.207152 327.952311 
L 235.501754 311.76126 
L 235.961546 344.143863 
L 236.262888 324.14274 
L 236.577578 345.09663 
L 237.019514 317.475866 
L 237.298514 330.810114 
L 237.753864 287.950067 
L 238.052952 310.808492 
L 238.494888 309.856224 
L 238.979254 328.905079 
L 239.251514 324.14274 
L 239.552856 298.427012 
L 240.01488 331.762382 
L 240.276024 311.76126 
L 240.592968 334.619685 
L 241.030462 317.475866 
L 241.34292 332.71465 
L 242.23351 289.855102 
L 242.539294 324.14274 
L 242.818294 307.951189 
L 243.29592 323.190472 
L 243.545904 300.331548 
L 244.019088 303.188851 
L 244.300342 322.237705 
L 244.74451 297.474244 
L 245.050294 317.475866 
L 245.483302 312.713528 
L 245.777904 341.286559 
L 246.204238 317.475866 
L 246.54569 335.571953 
L 246.96535 292.712405 
L 247.288968 327.000043 
L 247.730904 320.333169 
L 248.009904 331.762382 
L 248.480856 321.285437 
L 248.76653 311.76126 
L 249.038856 323.190472 
L 249.507554 296.521977 
L 249.95623 326.047776 
L 250.24639 333.667417 
L 250.697254 333.667417 
L 251.00527 315.570831 
L 251.293198 307.951189 
L 251.71277 322.237705 
L 252.025294 311.76126 
L 252.47165 307.951189 
L 252.922514 329.857347 
L 253.214928 317.475866 
L 253.51627 320.333169 
L 253.938096 294.616941 
L 254.226024 317.475866 
L 254.723738 326.047776 
L 255.000506 313.665796 
L 255.444674 301.284315 
L 255.739342 315.570831 
L 256.18351 309.856224 
L 256.491459 269.853481 
L 256.792802 318.428134 
L 257.241478 327.000043 
L 257.52492 311.76126 
L 257.969088 323.190472 
L 258.422206 311.76126 
L 258.721294 312.713528 
L 259.16765 306.046653 
L 259.444462 319.380402 
L 259.761406 328.905079 
L 260.214502 318.428134 
L 260.477856 297.474244 
L 260.946554 309.856224 
L 261.366214 306.046653 
L 261.96439 340.334291 
L 262.430856 297.474244 
L 262.705414 306.998921 
L 263.185294 313.665796 
L 263.466459 338.429256 
L 263.919578 335.571953 
L 264.205318 314.618563 
L 264.674016 336.52472 
L 264.93516 310.808492 
L 265.272214 316.523099 
L 265.723056 334.619685 
L 266.182848 315.570831 
L 266.917198 309.856224 
L 267.185016 327.000043 
L 267.490778 316.523099 
L 267.943896 324.14274 
L 268.256398 323.190472 
L 268.678246 332.71465 
L 268.992936 329.857347 
L 269.42369 330.810114 
L 269.738446 292.712405 
L 270.162459 338.429256 
L 270.457128 341.286559 
L 270.88565 322.237705 
L 271.220494 289.855102 
L 271.50619 353.668539 
L 271.96596 334.619685 
L 272.231546 314.618563 
L 272.71147 340.334291 
L 273.001586 302.236583 
L 273.461422 330.810114 
L 273.756024 313.665796 
L 274.218048 318.428134 
L 274.497048 296.521977 
L 274.934498 328.905079 
L 275.224658 300.331548 
L 275.680008 305.093886 
L 275.97019 337.476988 
L 276.414358 307.951189 
L 276.784848 305.093886 
L 277.014722 320.333169 
L 277.461144 328.905079 
L 277.72673 337.476988 
L 278.208864 325.095008 
L 278.624016 323.190472 
L 278.954374 316.523099 
L 279.224446 285.092764 
L 279.715486 328.905079 
L 279.97884 325.095008 
L 280.43861 299.37928 
L 280.719864 307.951189 
L 281.030112 306.998921 
L 281.46312 318.428134 
L 281.896128 318.428134 
L 282.19747 321.285437 
L 282.494326 339.382023 
L 283.22861 292.712405 
L 283.706302 337.476988 
L 283.991976 334.619685 
L 284.420498 303.188851 
L 284.75753 310.808492 
L 285.04769 342.239327 
L 285.500786 307.951189 
L 286.228462 350.811236 
L 286.545406 319.380402 
L 286.987342 333.667417 
L 287.27969 306.046653 
L 288.040802 331.762382 
L 288.464904 331.762382 
L 288.755064 330.810114 
L 289.201486 329.857347 
L 289.493856 334.619685 
L 289.958112 318.428134 
L 290.292912 340.334291 
L 290.714738 293.664673 
L 290.98481 299.37928 
L 291.426746 302.236583 
L 291.748198 312.713528 
L 292.183438 332.71465 
L 292.475786 322.237705 
L 292.942318 318.428134 
L 293.230246 327.952311 
L 293.524848 324.14274 
L 293.957856 282.235461 
L 294.25469 316.523099 
L 294.705554 304.141618 
L 295.038144 337.476988 
L 295.477848 315.570831 
L 295.785864 343.191595 
L 296.230032 292.712405 
L 296.770198 316.523099 
L 297.241128 329.857347 
L 297.968738 316.523099 
L 298.263406 314.618563 
L 298.720944 343.191595 
L 299.013358 302.236583 
L 299.45304 326.047776 
L 299.75657 311.76126 
L 300.214152 324.14274 
L 300.515494 303.188851 
L 300.95743 331.762382 
L 301.256541 307.951189 
L 301.689459 303.188851 
L 302.017586 306.046653 
L 302.441666 295.569709 
L 302.767538 327.000043 
L 303.04877 306.046653 
L 303.499634 304.141618 
L 303.776446 337.476988 
L 304.542 319.380402 
L 304.995096 306.998921 
L 305.285278 302.236583 
L 305.745048 311.76126 
L 306.010634 307.951189 
L 306.305302 310.808492 
L 306.747238 312.713528 
L 307.06416 297.474244 
L 307.523952 331.762382 
L 307.796278 327.952311 
L 308.249374 303.188851 
L 308.99484 328.905079 
L 309.302856 340.334291 
L 309.755952 330.810114 
L 310.048366 311.76126 
L 310.331786 322.237705 
L 310.79381 317.475866 
L 311.233514 339.382023 
L 311.52816 307.951189 
L 311.809414 335.571953 
L 312.25577 330.810114 
L 312.552626 285.092764 
L 312.994562 302.236583 
L 313.599478 312.713528 
L 314.054762 316.523099 
L 314.485538 312.713528 
L 314.791366 307.951189 
L 315.217634 304.141618 
L 315.831478 342.239327 
L 316.273414 309.856224 
L 316.57469 304.141618 
L 316.98761 332.71465 
L 317.311294 309.856224 
L 317.596968 302.236583 
L 318.056738 310.808492 
L 318.505414 321.285437 
L 318.80669 293.664673 
L 319.103546 291.759638 
L 319.563382 308.903457 
L 319.871398 327.952311 
L 320.270904 324.14274 
L 320.587848 316.523099 
L 321.018602 328.905079 
L 321.476206 257.472 
L 321.77304 302.236583 
L 322.101144 310.808492 
L 322.522992 326.047776 
L 322.817594 311.76126 
L 323.268502 297.474244 
L 324.034056 338.429256 
L 324.324238 290.80737 
L 324.768406 326.047776 
L 325.071936 288.902335 
L 325.346494 330.810114 
L 325.783944 320.333169 
L 326.06743 289.855102 
L 326.529454 295.569709 
L 326.824056 309.856224 
L 327.312864 326.047776 
L 327.580682 324.14274 
L 328.024872 335.571953 
L 328.346302 319.380402 
L 328.77257 305.093886 
L 329.50692 327.000043 
L 329.83951 295.569709 
L 330.274706 344.143863 
L 330.564888 353.668539 
L 330.975554 304.141618 
L 331.310398 351.763504 
L 331.575984 300.331548 
L 332.07151 308.903457 
L 332.348278 345.09663 
L 333.089302 313.665796 
L 333.53347 343.191595 
L 333.852602 322.237705 
L 334.28561 314.618563 
L 334.584698 317.475866 
L 334.890459 303.188851 
L 335.34139 326.047776 
L 335.633738 313.665796 
L 336.08016 306.046653 
L 336.365856 324.14274 
L 336.82788 297.474244 
L 337.57781 324.14274 
L 337.874666 325.095008 
L 338.595602 301.284315 
L 339.05988 314.618563 
L 339.356714 291.759638 
L 339.791976 316.523099 
L 340.091064 306.046653 
L 340.524072 335.571953 
L 340.825414 309.856224 
L 341.137872 318.428134 
L 341.561952 315.570831 
L 341.872222 275.568087 
L 342.32081 317.475866 
L 342.628848 310.808492 
L 343.077502 298.427012 
L 343.378778 301.284315 
L 343.822968 304.141618 
L 344.115382 318.428134 
L 344.543904 311.76126 
L 344.854152 310.808492 
L 345.608546 289.855102 
L 345.90096 290.80737 
L 346.36747 335.571953 
L 346.63531 327.000043 
L 347.086152 321.285437 
L 347.400864 302.236583 
L 347.842778 320.333169 
L 348.128541 326.047776 
L 348.583802 331.762382 
L 348.885144 296.521977 
L 349.623936 340.334291 
L 350.059198 302.236583 
L 350.338198 311.76126 
L 350.82031 290.80737 
L 351.12384 319.380402 
L 351.420674 296.521977 
L 352.175112 332.71465 
L 352.610374 303.188851 
L 352.909462 294.616941 
L 353.333498 333.667417 
L 353.91384 307.951189 
L 354.375864 304.141618 
L 354.65935 311.76126 
L 355.125794 333.667417 
L 355.413722 293.664673 
L 355.844498 305.093886 
L 356.279738 287.950067 
L 356.585522 356.525843 
L 356.898024 304.141618 
L 357.328778 309.856224 
L 358.103326 327.000043 
L 358.540754 315.570831 
L 358.828682 303.188851 
L 359.098754 347.001166 
L 359.567541 304.141618 
L 359.88665 291.759638 
L 360.328586 342.239327 
L 360.763848 300.331548 
L 361.06961 297.474244 
L 361.377626 280.330425 
L 361.80396 276.520854 
L 362.100794 307.951189 
L 362.567326 318.428134 
L 362.853 301.284315 
L 363.27708 300.331548 
L 363.605206 335.571953 
L 364.33949 317.475866 
L 364.645318 311.76126 
L 365.058238 298.427012 
L 365.370674 335.571953 
L 365.814864 321.285437 
L 366.120626 318.428134 
L 366.415294 294.616941 
L 366.852722 327.952311 
L 367.330414 311.76126 
L 367.62053 310.808492 
L 368.383896 284.139997 
L 368.685238 329.857347 
L 369.098136 323.190472 
L 369.401666 313.665796 
L 369.83916 305.093886 
L 370.158358 287.950067 
L 370.602459 328.905079 
L 370.90157 291.759638 
L 371.323462 320.333169 
L 371.631478 303.188851 
L 371.921594 325.095008 
L 372.392546 292.712405 
L 372.691634 334.619685 
L 373.138056 301.284315 
L 373.446072 311.76126 
L 373.881334 311.76126 
L 374.160334 316.523099 
L 374.624546 294.616941 
L 374.912541 308.903457 
L 375.218302 313.665796 
L 375.64457 273.663551 
L 375.959326 275.568087 
L 376.416864 318.428134 
L 376.678008 310.808492 
L 377.162374 328.905079 
L 377.593128 310.808492 
L 377.901144 306.998921 
L 378.18684 293.664673 
L 378.62208 317.475866 
L 379.081872 310.808492 
L 379.372032 315.570831 
L 379.666634 310.808492 
L 380.106382 307.951189 
L 380.407658 315.570831 
L 380.860754 314.618563 
L 381.15319 317.475866 
L 381.441096 318.428134 
L 381.918722 314.618563 
L 382.20665 309.856224 
L 382.644144 306.998921 
L 382.949928 275.568087 
L 383.425366 305.093886 
L 383.722222 277.473122 
L 384.132888 289.855102 
L 384.423048 316.523099 
L 384.746666 290.80737 
L 385.188602 295.569709 
L 385.474342 319.380402 
L 385.91851 326.047776 
L 386.228714 311.76126 
L 386.507714 326.047776 
L 387.255478 288.902335 
L 387.701856 299.37928 
L 388.105848 299.37928 
L 389.134778 287.950067 
L 389.134778 287.950067 
" clip-path="url(#p0cccd2af98)" style="fill: none; stroke: #74a9cf; stroke-width: 1.5; stroke-linecap: square"/>
   </g>
   <g id="patch_7">
    <path d="M 54 384.48 
L 54 251.424 
" style="fill: none; stroke: #000000; stroke-width: 0.5; stroke-linejoin: miter; stroke-linecap: square"/>
   </g>
   <g id="patch_8">
    <path d="M 54 384.48 
L 388.8 384.48 
" style="fill: none; stroke: #000000; stroke-width: 0.5; stroke-linejoin: miter; stroke-linecap: square"/>
   </g>
   <g id="text_32">
    <!-- 104 m/z for Dynamic TGA -->
    <g transform="translate(144.17625 245.424) scale(0.12 -0.12)">
     <defs>
      <path id="DejaVuSans-2f" d="M 1625 4666 
L 2156 4666 
L 531 -594 
L 0 -594 
L 1625 4666 
z
" transform="scale(0.015625)"/>
      <path id="DejaVuSans-66" d="M 2375 4863 
L 2375 4384 
L 1825 4384 
Q 1516 4384 1395 4259 
Q 1275 4134 1275 3809 
L 1275 3500 
L 2222 3500 
L 2222 3053 
L 1275 3053 
L 1275 0 
L 697 0 
L 697 3053 
L 147 3053 
L 147 3500 
L 697 3500 
L 697 3744 
Q 697 4328 969 4595 
Q 1241 4863 1831 4863 
L 2375 4863 
z
" transform="scale(0.015625)"/>
     </defs>
     <use xlink:href="#DejaVuSans-31"/>
     <use xlink:href="#DejaVuSans-30" x="63.623047"/>
     <use xlink:href="#DejaVuSans-34" x="127.246094"/>
     <use xlink:href="#DejaVuSans-20" x="190.869141"/>
     <use xlink:href="#DejaVuSans-6d" x="222.65625"/>
     <use xlink:href="#DejaVuSans-2f" x="320.068359"/>
     <use xlink:href="#DejaVuSans-7a" x="353.759766"/>
     <use xlink:href="#DejaVuSans-20" x="406.25"/>
     <use xlink:href="#DejaVuSans-66" x="438.037109"/>
     <use xlink:href="#DejaVuSans-6f" x="473.242188"/>
     <use xlink:href="#DejaVuSans-72" x="534.423828"/>
     <use xlink:href="#DejaVuSans-20" x="575.537109"/>
     <use xlink:href="#DejaVuSans-44" x="607.324219"/>
     <use xlink:href="#DejaVuSans-79" x="684.326172"/>
     <use xlink:href="#DejaVuSans-6e" x="743.505859"/>
     <use xlink:href="#DejaVuSans-61" x="806.884766"/>
     <use xlink:href="#DejaVuSans-6d" x="868.164062"/>
     <use xlink:href="#DejaVuSans-69" x="965.576172"/>
     <use xlink:href="#DejaVuSans-63" x="993.359375"/>
     <use xlink:href="#DejaVuSans-20" x="1048.339844"/>
     <use xlink:href="#DejaVuSans-54" x="1080.126953"/>
     <use xlink:href="#DejaVuSans-47" x="1141.210938"/>
     <use xlink:href="#DejaVuSans-41" x="1218.701172"/>
    </g>
   </g>
   <g id="legend_2">
    <g id="patch_9">
     <path d="M 61 288.78025 
L 155.8 288.78025 
Q 157.8 288.78025 157.8 286.78025 
L 157.8 258.424 
Q 157.8 256.424 155.8 256.424 
L 61 256.424 
Q 59 256.424 59 258.424 
L 59 286.78025 
Q 59 288.78025 61 288.78025 
z
" style="fill: #ffffff; opacity: 0.8; stroke: #cccccc; stroke-linejoin: miter"/>
    </g>
    <g id="line2d_31">
     <path d="M 63 264.522437 
L 73 264.522437 
L 83 264.522437 
" style="fill: none; stroke: #bdbdbd; stroke-width: 1.5; stroke-linecap: square"/>
    </g>
    <g id="text_33">
     <!-- PS-10K -->
     <g transform="translate(91 268.022437) scale(0.1 -0.1)">
      <use xlink:href="#DejaVuSans-50"/>
      <use xlink:href="#DejaVuSans-53" x="60.302734"/>
      <use xlink:href="#DejaVuSans-2d" x="123.779297"/>
      <use xlink:href="#DejaVuSans-31" x="159.863281"/>
      <use xlink:href="#DejaVuSans-30" x="223.486328"/>
      <use xlink:href="#DejaVuSans-4b" x="287.109375"/>
     </g>
    </g>
    <g id="line2d_32">
     <path d="M 63 279.200562 
L 73 279.200562 
L 83 279.200562 
" style="fill: none; stroke: #74a9cf; stroke-width: 1.5; stroke-linecap: square"/>
    </g>
    <g id="text_34">
     <!-- PS-10K-SCF$_{3}$ -->
     <g transform="translate(91 282.700562) scale(0.1 -0.1)">
      <use xlink:href="#DejaVuSans-50" transform="translate(0 0.78125)"/>
      <use xlink:href="#DejaVuSans-53" transform="translate(60.302734 0.78125)"/>
      <use xlink:href="#DejaVuSans-2d" transform="translate(123.779297 0.78125)"/>
      <use xlink:href="#DejaVuSans-31" transform="translate(159.863281 0.78125)"/>
      <use xlink:href="#DejaVuSans-30" transform="translate(223.486328 0.78125)"/>
      <use xlink:href="#DejaVuSans-4b" transform="translate(287.109375 0.78125)"/>
      <use xlink:href="#DejaVuSans-2d" transform="translate(352.685547 0.78125)"/>
      <use xlink:href="#DejaVuSans-53" transform="translate(388.769531 0.78125)"/>
      <use xlink:href="#DejaVuSans-43" transform="translate(452.246094 0.78125)"/>
      <use xlink:href="#DejaVuSans-46" transform="translate(522.070312 0.78125)"/>
      <use xlink:href="#DejaVuSans-33" transform="translate(580.546875 -15.625) scale(0.7)"/>
     </g>
    </g>
   </g>
  </g>
 </g>
 <defs>
  <clipPath id="pcddfffd251">
   <rect x="54" y="51.84" width="334.8" height="133.056"/>
  </clipPath>
  <clipPath id="p0cccd2af98">
   <rect x="54" y="251.424" width="334.8" height="133.056"/>
  </clipPath>
 </defs>
</svg>
