<?xml version="1.0" encoding="utf-8" standalone="no"?>
<!DOCTYPE svg PUBLIC "-//W3C//DTD SVG 1.1//EN"
  "http://www.w3.org/Graphics/SVG/1.1/DTD/svg11.dtd">
<svg xmlns:xlink="http://www.w3.org/1999/xlink" width="432pt" height="432pt" viewBox="0 0 432 432" xmlns="http://www.w3.org/2000/svg" version="1.1">
 <metadata>
  <rdf:RDF xmlns:dc="http://purl.org/dc/elements/1.1/" xmlns:cc="http://creativecommons.org/ns#" xmlns:rdf="http://www.w3.org/1999/02/22-rdf-syntax-ns#">
   <cc:Work>
    <dc:type rdf:resource="http://purl.org/dc/dcmitype/StillImage"/>
    <dc:date>2025-07-14T20:04:48.112872</dc:date>
    <dc:format>image/svg+xml</dc:format>
    <dc:creator>
     <cc:Agent>
      <dc:title>Matplotlib v3.7.1, https://matplotlib.org/</dc:title>
     </cc:Agent>
    </dc:creator>
   </cc:Work>
  </rdf:RDF>
 </metadata>
 <defs>
  <style type="text/css">*{stroke-linejoin: round; stroke-linecap: butt}</style>
 </defs>
 <g id="figure_1">
  <g id="patch_1">
   <path d="M 0 432 
L 432 432 
L 432 0 
L 0 0 
z
" style="fill: #ffffff"/>
  </g>
  <g id="axes_1">
   <g id="patch_2">
    <path d="M 54 184.896 
L 388.8 184.896 
L 388.8 51.84 
L 54 51.84 
z
" style="fill: #ffffff"/>
   </g>
   <g id="matplotlib.axis_1">
    <g id="xtick_1">
     <g id="line2d_1">
      <defs>
       <path id="m0c7ed881a1" d="M 0 0 
L 0 -3.5 
" style="stroke: #000000; stroke-width: 0.8"/>
      </defs>
      <g>
       <use xlink:href="#m0c7ed881a1" x="76.32" y="184.896" style="stroke: #000000; stroke-width: 0.8"/>
      </g>
     </g>
     <g id="text_1">
      <!-- 260 -->
      <g transform="translate(69.646875 194.13475) scale(0.08 -0.08)">
       <defs>
        <path id="Helvetica-32" d="M 200 0 
Q 231 578 439 1006 
Q 647 1434 1250 1784 
L 1850 2131 
Q 2253 2366 2416 2531 
Q 2672 2791 2672 3125 
Q 2672 3516 2437 3745 
Q 2203 3975 1813 3975 
Q 1234 3975 1013 3538 
Q 894 3303 881 2888 
L 309 2888 
Q 319 3472 525 3841 
Q 891 4491 1816 4491 
Q 2584 4491 2939 4075 
Q 3294 3659 3294 3150 
Q 3294 2613 2916 2231 
Q 2697 2009 2131 1694 
L 1703 1456 
Q 1397 1288 1222 1134 
Q 909 863 828 531 
L 3272 531 
L 3272 0 
L 200 0 
z
" transform="scale(0.015625)"/>
        <path id="Helvetica-36" d="M 1872 4494 
Q 2622 4494 2917 4105 
Q 3213 3716 3213 3303 
L 2656 3303 
Q 2606 3569 2497 3719 
Q 2294 4000 1881 4000 
Q 1409 4000 1131 3564 
Q 853 3128 822 2316 
Q 1016 2600 1309 2741 
Q 1578 2866 1909 2866 
Q 2472 2866 2890 2506 
Q 3309 2147 3309 1434 
Q 3309 825 2912 354 
Q 2516 -116 1781 -116 
Q 1153 -116 697 361 
Q 241 838 241 1966 
Q 241 2800 444 3381 
Q 834 4494 1872 4494 
z
M 1831 384 
Q 2275 384 2495 682 
Q 2716 981 2716 1388 
Q 2716 1731 2519 2042 
Q 2322 2353 1803 2353 
Q 1441 2353 1167 2112 
Q 894 1872 894 1388 
Q 894 963 1142 673 
Q 1391 384 1831 384 
z
" transform="scale(0.015625)"/>
        <path id="Helvetica-30" d="M 1731 4475 
Q 2600 4475 2988 3759 
Q 3288 3206 3288 2244 
Q 3288 1331 3016 734 
Q 2622 -122 1728 -122 
Q 922 -122 528 578 
Q 200 1163 200 2147 
Q 200 2909 397 3456 
Q 766 4475 1731 4475 
z
M 1725 391 
Q 2163 391 2422 778 
Q 2681 1166 2681 2222 
Q 2681 2984 2493 3476 
Q 2306 3969 1766 3969 
Q 1269 3969 1039 3501 
Q 809 3034 809 2125 
Q 809 1441 956 1025 
Q 1181 391 1725 391 
z
" transform="scale(0.015625)"/>
       </defs>
       <use xlink:href="#Helvetica-32"/>
       <use xlink:href="#Helvetica-36" x="55.615234"/>
       <use xlink:href="#Helvetica-30" x="111.230469"/>
      </g>
     </g>
    </g>
    <g id="xtick_2">
     <g id="line2d_2">
      <g>
       <use xlink:href="#m0c7ed881a1" x="120.96" y="184.896" style="stroke: #000000; stroke-width: 0.8"/>
      </g>
     </g>
     <g id="text_2">
      <!-- 280 -->
      <g transform="translate(114.286875 194.13475) scale(0.08 -0.08)">
       <defs>
        <path id="Helvetica-38" d="M 1741 2600 
Q 2113 2600 2322 2808 
Q 2531 3016 2531 3303 
Q 2531 3553 2331 3762 
Q 2131 3972 1722 3972 
Q 1316 3972 1134 3762 
Q 953 3553 953 3272 
Q 953 2956 1187 2778 
Q 1422 2600 1741 2600 
z
M 1775 384 
Q 2166 384 2423 595 
Q 2681 806 2681 1225 
Q 2681 1659 2415 1884 
Q 2150 2109 1734 2109 
Q 1331 2109 1076 1879 
Q 822 1650 822 1244 
Q 822 894 1055 639 
Q 1288 384 1775 384 
z
M 975 2384 
Q 741 2484 609 2619 
Q 363 2869 363 3269 
Q 363 3769 725 4128 
Q 1088 4488 1753 4488 
Q 2397 4488 2762 4148 
Q 3128 3809 3128 3356 
Q 3128 2938 2916 2678 
Q 2797 2531 2547 2391 
Q 2825 2263 2984 2097 
Q 3281 1784 3281 1284 
Q 3281 694 2884 283 
Q 2488 -128 1763 -128 
Q 1109 -128 657 226 
Q 206 581 206 1256 
Q 206 1653 400 1942 
Q 594 2231 975 2384 
z
" transform="scale(0.015625)"/>
       </defs>
       <use xlink:href="#Helvetica-32"/>
       <use xlink:href="#Helvetica-38" x="55.615234"/>
       <use xlink:href="#Helvetica-30" x="111.230469"/>
      </g>
     </g>
    </g>
    <g id="xtick_3">
     <g id="line2d_3">
      <g>
       <use xlink:href="#m0c7ed881a1" x="165.6" y="184.896" style="stroke: #000000; stroke-width: 0.8"/>
      </g>
     </g>
     <g id="text_3">
      <!-- 300 -->
      <g transform="translate(158.926875 194.13475) scale(0.08 -0.08)">
       <defs>
        <path id="Helvetica-33" d="M 1663 -122 
Q 869 -122 511 314 
Q 153 750 153 1375 
L 741 1375 
Q 778 941 903 744 
Q 1122 391 1694 391 
Q 2138 391 2406 628 
Q 2675 866 2675 1241 
Q 2675 1703 2392 1887 
Q 2109 2072 1606 2072 
Q 1550 2072 1492 2070 
Q 1434 2069 1375 2066 
L 1375 2563 
Q 1463 2553 1522 2550 
Q 1581 2547 1650 2547 
Q 1966 2547 2169 2647 
Q 2525 2822 2525 3272 
Q 2525 3606 2287 3787 
Q 2050 3969 1734 3969 
Q 1172 3969 956 3594 
Q 838 3388 822 3006 
L 266 3006 
Q 266 3506 466 3856 
Q 809 4481 1675 4481 
Q 2359 4481 2734 4176 
Q 3109 3872 3109 3294 
Q 3109 2881 2888 2625 
Q 2750 2466 2531 2375 
Q 2884 2278 3082 2001 
Q 3281 1725 3281 1325 
Q 3281 684 2859 281 
Q 2438 -122 1663 -122 
z
" transform="scale(0.015625)"/>
       </defs>
       <use xlink:href="#Helvetica-33"/>
       <use xlink:href="#Helvetica-30" x="55.615234"/>
       <use xlink:href="#Helvetica-30" x="111.230469"/>
      </g>
     </g>
    </g>
    <g id="xtick_4">
     <g id="line2d_4">
      <g>
       <use xlink:href="#m0c7ed881a1" x="210.24" y="184.896" style="stroke: #000000; stroke-width: 0.8"/>
      </g>
     </g>
     <g id="text_4">
      <!-- 320 -->
      <g transform="translate(203.566875 194.13475) scale(0.08 -0.08)">
       <use xlink:href="#Helvetica-33"/>
       <use xlink:href="#Helvetica-32" x="55.615234"/>
       <use xlink:href="#Helvetica-30" x="111.230469"/>
      </g>
     </g>
    </g>
    <g id="xtick_5">
     <g id="line2d_5">
      <g>
       <use xlink:href="#m0c7ed881a1" x="254.88" y="184.896" style="stroke: #000000; stroke-width: 0.8"/>
      </g>
     </g>
     <g id="text_5">
      <!-- 340 -->
      <g transform="translate(248.206875 194.13475) scale(0.08 -0.08)">
       <defs>
        <path id="Helvetica-34" d="M 2116 1584 
L 2116 3613 
L 681 1584 
L 2116 1584 
z
M 2125 0 
L 2125 1094 
L 163 1094 
L 163 1644 
L 2213 4488 
L 2688 4488 
L 2688 1584 
L 3347 1584 
L 3347 1094 
L 2688 1094 
L 2688 0 
L 2125 0 
z
" transform="scale(0.015625)"/>
       </defs>
       <use xlink:href="#Helvetica-33"/>
       <use xlink:href="#Helvetica-34" x="55.615234"/>
       <use xlink:href="#Helvetica-30" x="111.230469"/>
      </g>
     </g>
    </g>
    <g id="xtick_6">
     <g id="line2d_6">
      <g>
       <use xlink:href="#m0c7ed881a1" x="299.52" y="184.896" style="stroke: #000000; stroke-width: 0.8"/>
      </g>
     </g>
     <g id="text_6">
      <!-- 360 -->
      <g transform="translate(292.846875 194.13475) scale(0.08 -0.08)">
       <use xlink:href="#Helvetica-33"/>
       <use xlink:href="#Helvetica-36" x="55.615234"/>
       <use xlink:href="#Helvetica-30" x="111.230469"/>
      </g>
     </g>
    </g>
    <g id="xtick_7">
     <g id="line2d_7">
      <g>
       <use xlink:href="#m0c7ed881a1" x="344.16" y="184.896" style="stroke: #000000; stroke-width: 0.8"/>
      </g>
     </g>
     <g id="text_7">
      <!-- 380 -->
      <g transform="translate(337.486875 194.13475) scale(0.08 -0.08)">
       <use xlink:href="#Helvetica-33"/>
       <use xlink:href="#Helvetica-38" x="55.615234"/>
       <use xlink:href="#Helvetica-30" x="111.230469"/>
      </g>
     </g>
    </g>
    <g id="xtick_8">
     <g id="line2d_8">
      <g>
       <use xlink:href="#m0c7ed881a1" x="388.8" y="184.896" style="stroke: #000000; stroke-width: 0.8"/>
      </g>
     </g>
     <g id="text_8">
      <!-- 400 -->
      <g transform="translate(382.126875 194.13475) scale(0.08 -0.08)">
       <use xlink:href="#Helvetica-34"/>
       <use xlink:href="#Helvetica-30" x="55.615234"/>
       <use xlink:href="#Helvetica-30" x="111.230469"/>
      </g>
     </g>
    </g>
    <g id="text_9">
     <!-- Temp ($^{o}$C) -->
     <g transform="translate(197.95 207.60225) scale(0.1 -0.1)">
      <defs>
       <path id="Helvetica-54" d="M 3828 4591 
L 3828 4044 
L 2281 4044 
L 2281 0 
L 1650 0 
L 1650 4044 
L 103 4044 
L 103 4591 
L 3828 4591 
z
" transform="scale(0.015625)"/>
       <path id="Helvetica-65" d="M 1806 3422 
Q 2163 3422 2497 3255 
Q 2831 3088 3006 2822 
Q 3175 2569 3231 2231 
Q 3281 2000 3281 1494 
L 828 1494 
Q 844 984 1069 676 
Q 1294 369 1766 369 
Q 2206 369 2469 659 
Q 2619 828 2681 1050 
L 3234 1050 
Q 3213 866 3089 639 
Q 2966 413 2813 269 
Q 2556 19 2178 -69 
Q 1975 -119 1719 -119 
Q 1094 -119 659 336 
Q 225 791 225 1609 
Q 225 2416 662 2919 
Q 1100 3422 1806 3422 
z
M 2703 1941 
Q 2669 2306 2544 2525 
Q 2313 2931 1772 2931 
Q 1384 2931 1121 2651 
Q 859 2372 844 1941 
L 2703 1941 
z
M 1753 3428 
L 1753 3428 
z
" transform="scale(0.015625)"/>
       <path id="Helvetica-6d" d="M 413 3347 
L 969 3347 
L 969 2872 
Q 1169 3119 1331 3231 
Q 1609 3422 1963 3422 
Q 2363 3422 2606 3225 
Q 2744 3113 2856 2894 
Q 3044 3163 3297 3292 
Q 3550 3422 3866 3422 
Q 4541 3422 4784 2934 
Q 4916 2672 4916 2228 
L 4916 0 
L 4331 0 
L 4331 2325 
Q 4331 2659 4164 2784 
Q 3997 2909 3756 2909 
Q 3425 2909 3186 2687 
Q 2947 2466 2947 1947 
L 2947 0 
L 2375 0 
L 2375 2184 
Q 2375 2525 2294 2681 
Q 2166 2916 1816 2916 
Q 1497 2916 1236 2669 
Q 975 2422 975 1775 
L 975 0 
L 413 0 
L 413 3347 
z
" transform="scale(0.015625)"/>
       <path id="Helvetica-70" d="M 1825 378 
Q 2219 378 2480 708 
Q 2741 1038 2741 1694 
Q 2741 2094 2625 2381 
Q 2406 2934 1825 2934 
Q 1241 2934 1025 2350 
Q 909 2038 909 1556 
Q 909 1169 1025 897 
Q 1244 378 1825 378 
z
M 369 3331 
L 916 3331 
L 916 2888 
Q 1084 3116 1284 3241 
Q 1569 3428 1953 3428 
Q 2522 3428 2919 2992 
Q 3316 2556 3316 1747 
Q 3316 653 2744 184 
Q 2381 -113 1900 -113 
Q 1522 -113 1266 53 
Q 1116 147 931 375 
L 931 -1334 
L 369 -1334 
L 369 3331 
z
" transform="scale(0.015625)"/>
       <path id="Helvetica-20" transform="scale(0.015625)"/>
       <path id="Helvetica-28" d="M 1894 4666 
Q 1403 3713 1256 3263 
Q 1034 2578 1034 1681 
Q 1034 775 1288 25 
Q 1444 -438 1903 -1306 
L 1525 -1306 
Q 1069 -594 959 -397 
Q 850 -200 722 138 
Q 547 600 478 1125 
Q 444 1397 444 1644 
Q 444 2569 734 3291 
Q 919 3750 1503 4666 
L 1894 4666 
z
" transform="scale(0.015625)"/>
       <path id="DejaVuSans-Oblique-6f" d="M 1625 -91 
Q 1009 -91 651 289 
Q 294 669 294 1325 
Q 294 1706 417 2101 
Q 541 2497 738 2766 
Q 1047 3184 1428 3384 
Q 1809 3584 2291 3584 
Q 2888 3584 3255 3212 
Q 3622 2841 3622 2241 
Q 3622 1825 3500 1412 
Q 3378 1000 3181 728 
Q 2875 309 2494 109 
Q 2113 -91 1625 -91 
z
M 891 1344 
Q 891 869 1089 633 
Q 1288 397 1691 397 
Q 2269 397 2648 901 
Q 3028 1406 3028 2181 
Q 3028 2634 2825 2865 
Q 2622 3097 2228 3097 
Q 1903 3097 1650 2945 
Q 1397 2794 1197 2484 
Q 1050 2253 970 1956 
Q 891 1659 891 1344 
z
" transform="scale(0.015625)"/>
       <path id="Helvetica-43" d="M 2422 4716 
Q 3294 4716 3775 4256 
Q 4256 3797 4309 3213 
L 3703 3213 
Q 3600 3656 3292 3915 
Q 2984 4175 2428 4175 
Q 1750 4175 1333 3698 
Q 916 3222 916 2238 
Q 916 1431 1292 929 
Q 1669 428 2416 428 
Q 3103 428 3463 956 
Q 3653 1234 3747 1688 
L 4353 1688 
Q 4272 963 3816 472 
Q 3269 -119 2341 -119 
Q 1541 -119 997 366 
Q 281 1006 281 2344 
Q 281 3359 819 4009 
Q 1400 4716 2422 4716 
z
M 2297 4716 
L 2297 4716 
z
" transform="scale(0.015625)"/>
       <path id="Helvetica-29" d="M 222 -1306 
Q 719 -338 863 106 
Q 1081 778 1081 1681 
Q 1081 2584 828 3334 
Q 672 3797 213 4666 
L 591 4666 
Q 1072 3897 1173 3717 
Q 1275 3538 1394 3222 
Q 1544 2831 1608 2450 
Q 1672 2069 1672 1716 
Q 1672 791 1378 66 
Q 1194 -400 613 -1306 
L 222 -1306 
z
" transform="scale(0.015625)"/>
      </defs>
      <use xlink:href="#Helvetica-54" transform="translate(0 0.51875)"/>
      <use xlink:href="#Helvetica-65" transform="translate(61.083984 0.51875)"/>
      <use xlink:href="#Helvetica-6d" transform="translate(116.699219 0.51875)"/>
      <use xlink:href="#Helvetica-70" transform="translate(200 0.51875)"/>
      <use xlink:href="#Helvetica-20" transform="translate(255.615234 0.51875)"/>
      <use xlink:href="#Helvetica-28" transform="translate(283.398438 0.51875)"/>
      <use xlink:href="#DejaVuSans-Oblique-6f" transform="translate(317.65625 38.8) scale(0.7)"/>
      <use xlink:href="#Helvetica-43" transform="translate(363.217773 0.51875)"/>
      <use xlink:href="#Helvetica-29" transform="translate(435.43457 0.51875)"/>
     </g>
    </g>
   </g>
   <g id="matplotlib.axis_2">
    <g id="ytick_1">
     <g id="line2d_9">
      <defs>
       <path id="m68a606abec" d="M 0 0 
L 3.5 0 
" style="stroke: #000000; stroke-width: 0.8"/>
      </defs>
      <g>
       <use xlink:href="#m68a606abec" x="54" y="184.896" style="stroke: #000000; stroke-width: 0.8"/>
      </g>
     </g>
     <g id="text_10">
      <!-- 0 -->
      <g transform="translate(46.05125 187.765375) scale(0.08 -0.08)">
       <use xlink:href="#Helvetica-30"/>
      </g>
     </g>
    </g>
    <g id="ytick_2">
     <g id="line2d_10">
      <g>
       <use xlink:href="#m68a606abec" x="54" y="160.704" style="stroke: #000000; stroke-width: 0.8"/>
      </g>
     </g>
     <g id="text_11">
      <!-- 20 -->
      <g transform="translate(41.6025 163.573375) scale(0.08 -0.08)">
       <use xlink:href="#Helvetica-32"/>
       <use xlink:href="#Helvetica-30" x="55.615234"/>
      </g>
     </g>
    </g>
    <g id="ytick_3">
     <g id="line2d_11">
      <g>
       <use xlink:href="#m68a606abec" x="54" y="136.512" style="stroke: #000000; stroke-width: 0.8"/>
      </g>
     </g>
     <g id="text_12">
      <!-- 40 -->
      <g transform="translate(41.6025 139.381375) scale(0.08 -0.08)">
       <use xlink:href="#Helvetica-34"/>
       <use xlink:href="#Helvetica-30" x="55.615234"/>
      </g>
     </g>
    </g>
    <g id="ytick_4">
     <g id="line2d_12">
      <g>
       <use xlink:href="#m68a606abec" x="54" y="112.32" style="stroke: #000000; stroke-width: 0.8"/>
      </g>
     </g>
     <g id="text_13">
      <!-- 60 -->
      <g transform="translate(41.6025 115.189375) scale(0.08 -0.08)">
       <use xlink:href="#Helvetica-36"/>
       <use xlink:href="#Helvetica-30" x="55.615234"/>
      </g>
     </g>
    </g>
    <g id="ytick_5">
     <g id="line2d_13">
      <g>
       <use xlink:href="#m68a606abec" x="54" y="88.128" style="stroke: #000000; stroke-width: 0.8"/>
      </g>
     </g>
     <g id="text_14">
      <!-- 80 -->
      <g transform="translate(41.6025 90.997375) scale(0.08 -0.08)">
       <use xlink:href="#Helvetica-38"/>
       <use xlink:href="#Helvetica-30" x="55.615234"/>
      </g>
     </g>
    </g>
    <g id="ytick_6">
     <g id="line2d_14">
      <g>
       <use xlink:href="#m68a606abec" x="54" y="63.936" style="stroke: #000000; stroke-width: 0.8"/>
      </g>
     </g>
     <g id="text_15">
      <!-- 100 -->
      <g transform="translate(37.15375 66.805375) scale(0.08 -0.08)">
       <defs>
        <path id="Helvetica-31" d="M 613 3169 
L 613 3600 
Q 1222 3659 1462 3798 
Q 1703 3938 1822 4456 
L 2266 4456 
L 2266 0 
L 1666 0 
L 1666 3169 
L 613 3169 
z
" transform="scale(0.015625)"/>
       </defs>
       <use xlink:href="#Helvetica-31"/>
       <use xlink:href="#Helvetica-30" x="55.615234"/>
       <use xlink:href="#Helvetica-30" x="111.230469"/>
      </g>
     </g>
    </g>
    <g id="text_16">
     <!-- Mass (%) -->
     <g transform="translate(31.069375 139.478156) rotate(-90) scale(0.1 -0.1)">
      <defs>
       <path id="Helvetica-4d" d="M 472 4591 
L 1363 4591 
L 2681 709 
L 3991 4591 
L 4872 4591 
L 4872 0 
L 4281 0 
L 4281 2709 
Q 4281 2850 4287 3175 
Q 4294 3500 4294 3872 
L 2984 0 
L 2369 0 
L 1050 3872 
L 1050 3731 
Q 1050 3563 1058 3217 
Q 1066 2872 1066 2709 
L 1066 0 
L 472 0 
L 472 4591 
z
" transform="scale(0.015625)"/>
       <path id="Helvetica-61" d="M 844 891 
Q 844 647 1022 506 
Q 1200 366 1444 366 
Q 1741 366 2019 503 
Q 2488 731 2488 1250 
L 2488 1703 
Q 2384 1638 2221 1594 
Q 2059 1550 1903 1531 
L 1563 1488 
Q 1256 1447 1103 1359 
Q 844 1213 844 891 
z
M 2206 2028 
Q 2400 2053 2466 2191 
Q 2503 2266 2503 2406 
Q 2503 2694 2298 2823 
Q 2094 2953 1713 2953 
Q 1272 2953 1088 2716 
Q 984 2584 953 2325 
L 428 2325 
Q 444 2944 830 3186 
Q 1216 3428 1725 3428 
Q 2316 3428 2684 3203 
Q 3050 2978 3050 2503 
L 3050 575 
Q 3050 488 3086 434 
Q 3122 381 3238 381 
Q 3275 381 3322 386 
Q 3369 391 3422 400 
L 3422 -16 
Q 3291 -53 3222 -62 
Q 3153 -72 3034 -72 
Q 2744 -72 2613 134 
Q 2544 244 2516 444 
Q 2344 219 2022 53 
Q 1700 -113 1313 -113 
Q 847 -113 551 170 
Q 256 453 256 878 
Q 256 1344 547 1600 
Q 838 1856 1309 1916 
L 2206 2028 
z
M 1741 3428 
L 1741 3428 
z
" transform="scale(0.015625)"/>
       <path id="Helvetica-73" d="M 747 1050 
Q 772 769 888 619 
Q 1100 347 1625 347 
Q 1938 347 2175 483 
Q 2413 619 2413 903 
Q 2413 1119 2222 1231 
Q 2100 1300 1741 1391 
L 1294 1503 
Q 866 1609 663 1741 
Q 300 1969 300 2372 
Q 300 2847 642 3140 
Q 984 3434 1563 3434 
Q 2319 3434 2653 2991 
Q 2863 2709 2856 2384 
L 2325 2384 
Q 2309 2575 2191 2731 
Q 1997 2953 1519 2953 
Q 1200 2953 1036 2831 
Q 872 2709 872 2509 
Q 872 2291 1088 2159 
Q 1213 2081 1456 2022 
L 1828 1931 
Q 2434 1784 2641 1647 
Q 2969 1431 2969 969 
Q 2969 522 2630 197 
Q 2291 -128 1597 -128 
Q 850 -128 539 211 
Q 228 550 206 1050 
L 747 1050 
z
M 1578 3428 
L 1578 3428 
z
" transform="scale(0.015625)"/>
       <path id="Helvetica-25" d="M 4363 2175 
Q 4813 2175 5131 1856 
Q 5450 1538 5450 1088 
Q 5450 638 5131 319 
Q 4813 0 4363 0 
Q 3909 0 3590 319 
Q 3272 638 3272 1088 
Q 3272 1538 3590 1856 
Q 3909 2175 4363 2175 
z
M 3909 4456 
L 4256 4456 
L 1753 -119 
L 1406 -119 
L 3909 4456 
z
M 1294 2606 
Q 1563 2606 1752 2795 
Q 1941 2984 1941 3250 
Q 1941 3516 1752 3705 
Q 1563 3894 1294 3894 
Q 1028 3894 839 3706 
Q 650 3519 650 3250 
Q 650 2984 839 2795 
Q 1028 2606 1294 2606 
z
M 1294 4341 
Q 1747 4341 2065 4020 
Q 2384 3700 2384 3250 
Q 2384 2800 2065 2481 
Q 1747 2163 1294 2163 
Q 844 2163 525 2481 
Q 206 2800 206 3250 
Q 206 3700 525 4020 
Q 844 4341 1294 4341 
z
M 4363 444 
Q 4628 444 4817 633 
Q 5006 822 5006 1088 
Q 5006 1353 4817 1542 
Q 4628 1731 4363 1731 
Q 4094 1731 3905 1542 
Q 3716 1353 3716 1088 
Q 3716 822 3905 633 
Q 4094 444 4363 444 
z
" transform="scale(0.015625)"/>
      </defs>
      <use xlink:href="#Helvetica-4d"/>
      <use xlink:href="#Helvetica-61" x="83.300781"/>
      <use xlink:href="#Helvetica-73" x="138.916016"/>
      <use xlink:href="#Helvetica-73" x="188.916016"/>
      <use xlink:href="#Helvetica-20" x="238.916016"/>
      <use xlink:href="#Helvetica-28" x="266.699219"/>
      <use xlink:href="#Helvetica-25" x="300"/>
      <use xlink:href="#Helvetica-29" x="388.916016"/>
     </g>
    </g>
   </g>
   <g id="line2d_15">
    <path d="M 54.03127 63.936 
L 64.742616 63.846828 
L 65.182298 63.846828 
L 77.802048 63.757669 
L 78.295342 63.789941 
L 87.026904 63.692641 
L 87.50453 63.660127 
L 87.92861 63.698144 
L 101.026008 63.616859 
L 101.481358 63.616859 
L 150.813 63.698144 
L 151.26835 63.698144 
L 152.324064 63.681887 
L 152.768254 63.719651 
L 153.203494 63.719651 
L 164.693786 63.82508 
L 167.057541 63.857582 
L 173.907459 63.955124 
L 174.490056 63.987396 
L 174.94092 64.003653 
L 178.81565 64.10907 
L 179.56116 64.174086 
L 186.098666 64.271386 
L 186.65892 64.328273 
L 190.401984 64.433702 
L 190.984514 64.466216 
L 194.30573 64.566141 
L 194.700794 64.598643 
L 197.680514 64.695943 
L 198.595634 64.760959 
L 218.549714 65.888802 
L 219.130056 65.953589 
L 220.634446 66.050889 
L 221.527246 66.14029 
L 225.096214 66.440537 
L 225.859514 66.505323 
L 226.875096 66.602612 
L 238.78949 67.9982 
L 239.83853 68.160516 
L 240.579554 68.257804 
L 244.146334 68.812164 
L 245.32704 69.006994 
L 246.06139 69.107161 
L 246.797928 69.236963 
L 258.97351 71.862944 
L 261.955462 72.674283 
L 263.464294 73.074455 
L 264.339238 73.382831 
L 266.883674 74.123892 
L 267.747502 74.472668 
L 268.658136 74.740401 
L 270.300888 75.373409 
L 270.903506 75.576126 
L 271.512864 75.800591 
L 273.131064 76.422604 
L 273.709152 76.68222 
L 280.264514 79.554416 
L 289.199254 84.492741 
L 292.904374 86.924134 
L 293.33957 87.251391 
L 293.638658 87.413707 
L 295.13412 88.511673 
L 296.62061 89.617768 
L 297.192024 90.085592 
L 297.526802 90.312925 
L 298.25892 90.937562 
L 298.562494 91.124264 
L 299.140538 91.635356 
L 299.886048 92.246615 
L 302.294398 94.285723 
L 303.01308 95.016019 
L 303.921459 95.811113 
L 310.03051 101.728585 
L 310.465706 102.22342 
L 311.655406 103.521466 
L 312.545952 104.505887 
L 317.157286 109.782465 
L 317.608128 110.282804 
L 319.070088 112.102937 
L 319.815554 113.073726 
L 320.418238 113.779649 
L 323.40019 117.611879 
L 326.507112 121.752485 
L 327.11647 122.577456 
L 327.721342 123.375163 
L 328.169952 123.902513 
L 328.45788 124.354081 
L 331.134048 128.14591 
L 332.031334 129.352172 
L 333.207554 131.058518 
L 334.24992 132.516256 
L 335.441786 134.168811 
L 336.20292 135.218006 
L 340.06649 140.70018 
L 340.370064 141.075966 
L 340.809746 141.695342 
L 350.748864 154.717436 
L 352.246514 156.437402 
L 352.84027 157.151453 
L 355.561056 160.069553 
L 355.994064 160.515859 
L 361.34419 165.594751 
L 362.837398 166.860525 
L 363.38647 167.20404 
L 363.424414 167.336479 
L 363.743546 167.555682 
L 364.473454 168.104551 
L 364.935478 168.391165 
L 365.515754 168.845612 
L 366.252358 169.332319 
L 368.225446 170.579211 
L 368.807976 170.919858 
L 369.850342 171.51486 
L 372.513096 172.953704 
L 373.113459 173.232202 
L 378.309578 175.301187 
L 378.912262 175.514899 
L 379.218024 175.59068 
L 380.099642 175.852922 
L 382.188794 176.426163 
L 388.826762 177.737841 
L 392.991674 177.627163 
L 396.652198 177.440461 
L 399.910896 177.332166 
L 406.914912 177.129461 
L 411.517318 177.026669 
L 414.423382 176.98339 
L 425.833366 176.877973 
L 427.355546 176.853587 
L 433 176.882594 
L 433 176.882594 
" clip-path="url(#p779ca3157e)" style="fill: none; stroke: #525252; stroke-width: 1.5; stroke-linecap: square"/>
   </g>
   <g id="line2d_16">
    <path d="M 54 63.921983 
L 57.381818 63.898554 
L 60.763636 63.875124 
L 64.145455 63.851695 
L 67.527273 63.828266 
L 70.909091 63.804836 
L 74.290909 63.781407 
L 77.672727 63.757977 
L 81.054545 63.734548 
L 84.436364 63.711118 
L 87.818182 63.687689 
L 91.2 63.664259 
L 94.581818 63.64083 
L 97.963636 63.617401 
L 101.345455 63.593971 
L 104.727273 63.570542 
L 108.109091 63.547112 
L 111.490909 63.523683 
L 114.872727 63.500253 
L 118.254545 63.476824 
L 121.636364 63.453394 
L 125.018182 63.429965 
L 128.4 63.406535 
L 131.781818 63.383106 
L 135.163636 63.359677 
L 138.545455 63.336247 
L 141.927273 63.312818 
L 145.309091 63.289388 
L 148.690909 63.265959 
L 152.072727 63.242529 
L 155.454545 63.2191 
L 158.836364 63.19567 
L 162.218182 63.172241 
L 165.6 63.148812 
L 168.981818 63.125382 
L 172.363636 63.101953 
L 175.745455 63.078523 
L 179.127273 63.055094 
L 182.509091 63.031664 
L 185.890909 63.008235 
L 189.272727 62.984805 
L 192.654545 62.961376 
L 196.036364 62.937946 
L 199.418182 62.914517 
L 202.8 62.891088 
L 206.181818 62.867658 
L 209.563636 62.844229 
L 212.945455 62.820799 
L 216.327273 62.79737 
L 219.709091 62.77394 
L 223.090909 62.750511 
L 226.472727 62.727081 
L 229.854545 62.703652 
L 233.236364 62.680223 
L 236.618182 62.656793 
L 240 62.633364 
L 243.381818 62.609934 
L 246.763636 62.586505 
L 250.145455 62.563075 
L 253.527273 62.539646 
L 256.909091 62.516216 
L 260.290909 62.492787 
L 263.672727 62.469357 
L 267.054545 62.445928 
L 270.436364 62.422499 
L 273.818182 62.399069 
L 277.2 62.37564 
L 280.581818 62.35221 
L 283.963636 62.328781 
L 287.345455 62.305351 
L 290.727273 62.281922 
L 294.109091 62.258492 
L 297.490909 62.235063 
L 300.872727 62.211634 
L 304.254545 62.188204 
L 307.636364 62.164775 
L 311.018182 62.141345 
L 314.4 62.117916 
L 317.781818 62.094486 
L 321.163636 62.071057 
L 324.545455 62.047627 
L 327.927273 62.024198 
L 331.309091 62.000768 
L 334.690909 61.977339 
L 338.072727 61.95391 
L 341.454545 61.93048 
L 344.836364 61.907051 
L 348.218182 61.883621 
L 351.6 61.860192 
L 354.981818 61.836762 
L 358.363636 61.813333 
L 361.745455 61.789903 
L 365.127273 61.766474 
L 368.509091 61.743044 
L 371.890909 61.719615 
L 375.272727 61.696186 
L 378.654545 61.672756 
L 382.036364 61.649327 
L 385.418182 61.625897 
L 388.8 61.602468 
" clip-path="url(#p779ca3157e)" style="fill: none; stroke-dasharray: 1,1.65; stroke-dashoffset: 0; stroke: #525252; stroke-opacity: 0.8"/>
   </g>
   <g id="line2d_17">
    <path d="M 227.4477 -1 
L 229.854545 2.016073 
L 233.236364 6.253909 
L 236.618182 10.491744 
L 240 14.729579 
L 243.381818 18.967414 
L 246.763636 23.205249 
L 250.145455 27.443084 
L 253.527273 31.680919 
L 256.909091 35.918754 
L 260.290909 40.156589 
L 263.672727 44.394424 
L 267.054545 48.63226 
L 270.436364 52.870095 
L 273.818182 57.10793 
L 277.2 61.345765 
L 280.581818 65.5836 
L 283.963636 69.821435 
L 287.345455 74.05927 
L 290.727273 78.297105 
L 294.109091 82.53494 
L 297.490909 86.772775 
L 300.872727 91.010611 
L 304.254545 95.248446 
L 307.636364 99.486281 
L 311.018182 103.724116 
L 314.4 107.961951 
L 317.781818 112.199786 
L 321.163636 116.437621 
L 324.545455 120.675456 
L 327.927273 124.913291 
L 331.309091 129.151126 
L 334.690909 133.388961 
L 338.072727 137.626797 
L 341.454545 141.864632 
L 344.836364 146.102467 
L 348.218182 150.340302 
L 351.6 154.578137 
L 354.981818 158.815972 
L 358.363636 163.053807 
L 361.745455 167.291642 
L 365.127273 171.529477 
L 368.509091 175.767312 
L 371.890909 180.005148 
L 375.272727 184.242983 
L 378.654545 188.480818 
L 382.036364 192.718653 
L 385.418182 196.956488 
L 388.8 201.194323 
" clip-path="url(#p779ca3157e)" style="fill: none; stroke-dasharray: 1,1.65; stroke-dashoffset: 0; stroke: #525252; stroke-opacity: 0.8"/>
   </g>
   <g id="line2d_18">
    <path d="M 54 64.5408 
L 388.8 64.5408 
" clip-path="url(#p779ca3157e)" style="fill: none; stroke-dasharray: 1.11,0.48; stroke-dashoffset: 0; stroke: #ff0000; stroke-width: 0.3"/>
   </g>
   <g id="patch_3">
    <path d="M 54 184.896 
L 54 51.84 
" style="fill: none; stroke: #000000; stroke-width: 0.5; stroke-linejoin: miter; stroke-linecap: square"/>
   </g>
   <g id="patch_4">
    <path d="M 54 184.896 
L 388.8 184.896 
" style="fill: none; stroke: #000000; stroke-width: 0.5; stroke-linejoin: miter; stroke-linecap: square"/>
   </g>
   <g id="text_17">
    <!-- Dynamic TGA -->
    <g transform="translate(190.285156 45.84) scale(0.1 -0.1)">
     <defs>
      <path id="Helvetica-44" d="M 2250 531 
Q 2566 531 2769 597 
Q 3131 719 3363 1066 
Q 3547 1344 3628 1778 
Q 3675 2038 3675 2259 
Q 3675 3113 3336 3584 
Q 2997 4056 2244 4056 
L 1141 4056 
L 1141 531 
L 2250 531 
z
M 516 4591 
L 2375 4591 
Q 3322 4591 3844 3919 
Q 4309 3313 4309 2366 
Q 4309 1634 4034 1044 
Q 3550 0 2369 0 
L 516 0 
L 516 4591 
z
" transform="scale(0.015625)"/>
      <path id="Helvetica-79" d="M 2503 3347 
L 3125 3347 
Q 3006 3025 2597 1878 
Q 2291 1016 2084 472 
Q 1597 -809 1397 -1090 
Q 1197 -1372 709 -1372 
Q 591 -1372 527 -1362 
Q 463 -1353 369 -1328 
L 369 -816 
Q 516 -856 581 -865 
Q 647 -875 697 -875 
Q 853 -875 926 -823 
Q 1000 -772 1050 -697 
Q 1066 -672 1162 -440 
Q 1259 -209 1303 -97 
L 66 3347 
L 703 3347 
L 1600 622 
L 2503 3347 
z
M 1597 3428 
L 1597 3428 
z
" transform="scale(0.015625)"/>
      <path id="Helvetica-6e" d="M 413 3347 
L 947 3347 
L 947 2872 
Q 1184 3166 1450 3294 
Q 1716 3422 2041 3422 
Q 2753 3422 3003 2925 
Q 3141 2653 3141 2147 
L 3141 0 
L 2569 0 
L 2569 2109 
Q 2569 2416 2478 2603 
Q 2328 2916 1934 2916 
Q 1734 2916 1606 2875 
Q 1375 2806 1200 2600 
Q 1059 2434 1017 2257 
Q 975 2081 975 1753 
L 975 0 
L 413 0 
L 413 3347 
z
M 1734 3428 
L 1734 3428 
z
" transform="scale(0.015625)"/>
      <path id="Helvetica-69" d="M 413 3331 
L 984 3331 
L 984 0 
L 413 0 
L 413 3331 
z
M 413 4591 
L 984 4591 
L 984 3953 
L 413 3953 
L 413 4591 
z
" transform="scale(0.015625)"/>
      <path id="Helvetica-63" d="M 1703 3444 
Q 2269 3444 2623 3169 
Q 2978 2894 3050 2222 
L 2503 2222 
Q 2453 2531 2275 2736 
Q 2097 2941 1703 2941 
Q 1166 2941 934 2416 
Q 784 2075 784 1575 
Q 784 1072 996 728 
Q 1209 384 1666 384 
Q 2016 384 2220 598 
Q 2425 813 2503 1184 
L 3050 1184 
Q 2956 519 2581 211 
Q 2206 -97 1622 -97 
Q 966 -97 575 383 
Q 184 863 184 1581 
Q 184 2463 612 2953 
Q 1041 3444 1703 3444 
z
M 1616 3428 
L 1616 3428 
z
" transform="scale(0.015625)"/>
      <path id="Helvetica-47" d="M 2472 4709 
Q 3119 4709 3591 4459 
Q 4275 4100 4428 3200 
L 3813 3200 
Q 3700 3703 3347 3933 
Q 2994 4163 2456 4163 
Q 1819 4163 1383 3684 
Q 947 3206 947 2259 
Q 947 1441 1306 927 
Q 1666 413 2478 413 
Q 3100 413 3508 773 
Q 3916 1134 3925 1941 
L 2488 1941 
L 2488 2456 
L 4503 2456 
L 4503 0 
L 4103 0 
L 3953 591 
Q 3638 244 3394 109 
Q 2984 -122 2353 -122 
Q 1538 -122 950 406 
Q 309 1069 309 2225 
Q 309 3378 934 4059 
Q 1528 4709 2472 4709 
z
M 2369 4716 
L 2369 4716 
z
" transform="scale(0.015625)"/>
      <path id="Helvetica-41" d="M 2844 1881 
L 2147 3909 
L 1406 1881 
L 2844 1881 
z
M 1822 4591 
L 2525 4591 
L 4191 0 
L 3509 0 
L 3044 1375 
L 1228 1375 
L 731 0 
L 94 0 
L 1822 4591 
z
" transform="scale(0.015625)"/>
     </defs>
     <use xlink:href="#Helvetica-44"/>
     <use xlink:href="#Helvetica-79" x="72.216797"/>
     <use xlink:href="#Helvetica-6e" x="122.216797"/>
     <use xlink:href="#Helvetica-61" x="177.832031"/>
     <use xlink:href="#Helvetica-6d" x="233.447266"/>
     <use xlink:href="#Helvetica-69" x="316.748047"/>
     <use xlink:href="#Helvetica-63" x="338.964844"/>
     <use xlink:href="#Helvetica-20" x="388.964844"/>
     <use xlink:href="#Helvetica-54" x="416.748047"/>
     <use xlink:href="#Helvetica-47" x="477.832031"/>
     <use xlink:href="#Helvetica-41" x="555.615234"/>
    </g>
   </g>
   <g id="line2d_19">
    <defs>
     <path id="m122c583d80" d="M -3 3 
L 3 -3 
M -3 -3 
L 3 3 
" style="stroke: #525252"/>
    </defs>
    <g clip-path="url(#p779ca3157e)">
     <use xlink:href="#m122c583d80" x="278.017328" y="62.369977" style="fill: #525252; stroke: #525252"/>
    </g>
   </g>
   <g id="legend_1">
    <g id="patch_5">
     <path d="M 61 179.896 
L 221.3 179.896 
Q 223.3 179.896 223.3 177.896 
L 223.3 134.638187 
Q 223.3 132.638187 221.3 132.638187 
L 61 132.638187 
Q 59 132.638187 59 134.638187 
L 59 177.896 
Q 59 179.896 61 179.896 
z
" style="fill: #ffffff; opacity: 0.8; stroke: #cccccc; stroke-linejoin: miter"/>
    </g>
    <g id="line2d_20">
     <path d="M 63 140.311625 
L 73 140.311625 
L 83 140.311625 
" style="fill: none; stroke: #525252; stroke-width: 1.5; stroke-linecap: square"/>
    </g>
    <g id="text_18">
     <!-- PS-110K -->
     <g transform="translate(91 143.811625) scale(0.1 -0.1)">
      <defs>
       <path id="Helvetica-50" d="M 547 4591 
L 2613 4591 
Q 3225 4591 3600 4245 
Q 3975 3900 3975 3275 
Q 3975 2738 3640 2339 
Q 3306 1941 2613 1941 
L 1169 1941 
L 1169 0 
L 547 0 
L 547 4591 
z
M 3347 3272 
Q 3347 3778 2972 3959 
Q 2766 4056 2406 4056 
L 1169 4056 
L 1169 2466 
L 2406 2466 
Q 2825 2466 3086 2644 
Q 3347 2822 3347 3272 
z
" transform="scale(0.015625)"/>
       <path id="Helvetica-53" d="M 894 1481 
Q 916 1091 1078 847 
Q 1388 391 2169 391 
Q 2519 391 2806 491 
Q 3363 684 3363 1184 
Q 3363 1559 3128 1719 
Q 2891 1875 2384 1991 
L 1763 2131 
Q 1153 2269 900 2434 
Q 463 2722 463 3294 
Q 463 3913 891 4309 
Q 1319 4706 2103 4706 
Q 2825 4706 3329 4357 
Q 3834 4009 3834 3244 
L 3250 3244 
Q 3203 3613 3050 3809 
Q 2766 4169 2084 4169 
Q 1534 4169 1293 3937 
Q 1053 3706 1053 3400 
Q 1053 3063 1334 2906 
Q 1519 2806 2169 2656 
L 2813 2509 
Q 3278 2403 3531 2219 
Q 3969 1897 3969 1284 
Q 3969 522 3414 194 
Q 2859 -134 2125 -134 
Q 1269 -134 784 303 
Q 300 738 309 1481 
L 894 1481 
z
M 2150 4716 
L 2150 4716 
z
" transform="scale(0.015625)"/>
       <path id="Helvetica-2d" d="M 266 2072 
L 1834 2072 
L 1834 1494 
L 266 1494 
L 266 2072 
z
" transform="scale(0.015625)"/>
       <path id="Helvetica-4b" d="M 488 4591 
L 1094 4591 
L 1094 2353 
L 3331 4591 
L 4191 4591 
L 2281 2741 
L 4244 0 
L 3434 0 
L 1828 2303 
L 1094 1600 
L 1094 0 
L 488 0 
L 488 4591 
z
" transform="scale(0.015625)"/>
      </defs>
      <use xlink:href="#Helvetica-50"/>
      <use xlink:href="#Helvetica-53" x="66.699219"/>
      <use xlink:href="#Helvetica-2d" x="133.398438"/>
      <use xlink:href="#Helvetica-31" x="166.699219"/>
      <use xlink:href="#Helvetica-31" x="222.314453"/>
      <use xlink:href="#Helvetica-30" x="277.929688"/>
      <use xlink:href="#Helvetica-4b" x="333.544922"/>
     </g>
    </g>
    <g id="line2d_21">
     <g>
      <use xlink:href="#m122c583d80" x="73" y="154.796" style="fill: #525252; stroke: #525252"/>
     </g>
    </g>
    <g id="text_19">
     <!-- PS-110K (T$_{onset}$ = 350.4°C) -->
     <g transform="translate(91 158.296) scale(0.1 -0.1)">
      <defs>
       <path id="DejaVuSans-Oblique-6e" d="M 3566 2113 
L 3156 0 
L 2578 0 
L 2988 2091 
Q 3016 2238 3031 2350 
Q 3047 2463 3047 2528 
Q 3047 2791 2881 2937 
Q 2716 3084 2419 3084 
Q 1956 3084 1622 2776 
Q 1288 2469 1184 1941 
L 800 0 
L 225 0 
L 903 3500 
L 1478 3500 
L 1363 2950 
Q 1603 3253 1940 3418 
Q 2278 3584 2650 3584 
Q 3113 3584 3367 3334 
Q 3622 3084 3622 2631 
Q 3622 2519 3608 2391 
Q 3594 2263 3566 2113 
z
" transform="scale(0.015625)"/>
       <path id="DejaVuSans-Oblique-73" d="M 3200 3397 
L 3091 2853 
Q 2863 2978 2609 3040 
Q 2356 3103 2088 3103 
Q 1634 3103 1373 2948 
Q 1113 2794 1113 2528 
Q 1113 2219 1719 2053 
Q 1766 2041 1788 2034 
L 1972 1978 
Q 2547 1819 2739 1644 
Q 2931 1469 2931 1166 
Q 2931 609 2489 259 
Q 2047 -91 1331 -91 
Q 1053 -91 747 -37 
Q 441 16 72 128 
L 184 722 
Q 500 559 806 475 
Q 1113 391 1394 391 
Q 1816 391 2080 572 
Q 2344 753 2344 1031 
Q 2344 1331 1650 1516 
L 1591 1531 
L 1394 1581 
Q 956 1697 753 1886 
Q 550 2075 550 2369 
Q 550 2928 970 3256 
Q 1391 3584 2113 3584 
Q 2397 3584 2667 3537 
Q 2938 3491 3200 3397 
z
" transform="scale(0.015625)"/>
       <path id="DejaVuSans-Oblique-65" d="M 3078 2063 
Q 3088 2113 3092 2166 
Q 3097 2219 3097 2272 
Q 3097 2653 2873 2875 
Q 2650 3097 2266 3097 
Q 1838 3097 1509 2826 
Q 1181 2556 1013 2059 
L 3078 2063 
z
M 3578 1613 
L 903 1613 
Q 884 1494 878 1425 
Q 872 1356 872 1306 
Q 872 872 1139 634 
Q 1406 397 1894 397 
Q 2269 397 2603 481 
Q 2938 566 3225 728 
L 3116 159 
Q 2806 34 2476 -28 
Q 2147 -91 1806 -91 
Q 1078 -91 686 257 
Q 294 606 294 1247 
Q 294 1794 489 2264 
Q 684 2734 1063 3103 
Q 1306 3334 1642 3459 
Q 1978 3584 2356 3584 
Q 2950 3584 3301 3228 
Q 3653 2872 3653 2272 
Q 3653 2128 3634 1964 
Q 3616 1800 3578 1613 
z
" transform="scale(0.015625)"/>
       <path id="DejaVuSans-Oblique-74" d="M 2706 3500 
L 2619 3053 
L 1472 3053 
L 1100 1153 
Q 1081 1047 1072 975 
Q 1063 903 1063 863 
Q 1063 663 1183 572 
Q 1303 481 1569 481 
L 2150 481 
L 2053 0 
L 1503 0 
Q 991 0 739 200 
Q 488 400 488 806 
Q 488 878 497 964 
Q 506 1050 525 1153 
L 897 3053 
L 409 3053 
L 500 3500 
L 978 3500 
L 1172 4494 
L 1747 4494 
L 1556 3500 
L 2706 3500 
z
" transform="scale(0.015625)"/>
       <path id="Helvetica-3d" d="M 3547 2569 
L 3547 2044 
L 288 2044 
L 288 2569 
L 3547 2569 
z
M 3547 1228 
L 3547 694 
L 288 694 
L 288 1228 
L 3547 1228 
z
" transform="scale(0.015625)"/>
       <path id="Helvetica-35" d="M 791 1141 
Q 847 659 1238 475 
Q 1438 381 1700 381 
Q 2200 381 2440 700 
Q 2681 1019 2681 1406 
Q 2681 1875 2395 2131 
Q 2109 2388 1709 2388 
Q 1419 2388 1211 2275 
Q 1003 2163 856 1963 
L 369 1991 
L 709 4400 
L 3034 4400 
L 3034 3856 
L 1131 3856 
L 941 2613 
Q 1097 2731 1238 2791 
Q 1488 2894 1816 2894 
Q 2431 2894 2859 2497 
Q 3288 2100 3288 1491 
Q 3288 856 2895 371 
Q 2503 -113 1644 -113 
Q 1097 -113 676 195 
Q 256 503 206 1141 
L 791 1141 
z
" transform="scale(0.015625)"/>
       <path id="Helvetica-2e" d="M 547 681 
L 1200 681 
L 1200 0 
L 547 0 
L 547 681 
z
" transform="scale(0.015625)"/>
       <path id="Helvetica-b0" d="M 1294 4472 
Q 1691 4472 1962 4198 
Q 2234 3925 2234 3531 
Q 2234 3125 1951 2854 
Q 1669 2584 1294 2584 
Q 878 2584 612 2865 
Q 347 3147 347 3522 
Q 347 3922 626 4197 
Q 906 4472 1294 4472 
z
M 688 3525 
Q 688 3281 866 3103 
Q 1044 2925 1294 2925 
Q 1534 2925 1714 3101 
Q 1894 3278 1894 3531 
Q 1894 3775 1717 3953 
Q 1541 4131 1294 4131 
Q 1047 4131 867 3954 
Q 688 3778 688 3525 
z
" transform="scale(0.015625)"/>
      </defs>
      <use xlink:href="#Helvetica-50" transform="translate(0 0.3125)"/>
      <use xlink:href="#Helvetica-53" transform="translate(66.699219 0.3125)"/>
      <use xlink:href="#Helvetica-2d" transform="translate(133.398438 0.3125)"/>
      <use xlink:href="#Helvetica-31" transform="translate(166.699219 0.3125)"/>
      <use xlink:href="#Helvetica-31" transform="translate(222.314453 0.3125)"/>
      <use xlink:href="#Helvetica-30" transform="translate(277.929688 0.3125)"/>
      <use xlink:href="#Helvetica-4b" transform="translate(333.544922 0.3125)"/>
      <use xlink:href="#Helvetica-20" transform="translate(400.244141 0.3125)"/>
      <use xlink:href="#Helvetica-28" transform="translate(428.027344 0.3125)"/>
      <use xlink:href="#Helvetica-54" transform="translate(461.328125 0.3125)"/>
      <use xlink:href="#DejaVuSans-Oblique-6f" transform="translate(523.369141 -16.09375) scale(0.7)"/>
      <use xlink:href="#DejaVuSans-Oblique-6e" transform="translate(566.196289 -16.09375) scale(0.7)"/>
      <use xlink:href="#DejaVuSans-Oblique-73" transform="translate(610.561523 -16.09375) scale(0.7)"/>
      <use xlink:href="#DejaVuSans-Oblique-65" transform="translate(647.03125 -16.09375) scale(0.7)"/>
      <use xlink:href="#DejaVuSans-Oblique-74" transform="translate(690.097656 -16.09375) scale(0.7)"/>
      <use xlink:href="#Helvetica-20" transform="translate(720.27832 0.3125)"/>
      <use xlink:href="#Helvetica-3d" transform="translate(748.061523 0.3125)"/>
      <use xlink:href="#Helvetica-20" transform="translate(806.459961 0.3125)"/>
      <use xlink:href="#Helvetica-33" transform="translate(834.243164 0.3125)"/>
      <use xlink:href="#Helvetica-35" transform="translate(889.858398 0.3125)"/>
      <use xlink:href="#Helvetica-30" transform="translate(945.473633 0.3125)"/>
      <use xlink:href="#Helvetica-2e" transform="translate(1001.088867 0.3125)"/>
      <use xlink:href="#Helvetica-34" transform="translate(1028.87207 0.3125)"/>
      <use xlink:href="#Helvetica-b0" transform="translate(1084.487305 0.3125)"/>
      <use xlink:href="#Helvetica-43" transform="translate(1124.477539 0.3125)"/>
      <use xlink:href="#Helvetica-29" transform="translate(1196.694336 0.3125)"/>
     </g>
    </g>
    <g id="line2d_22">
     <path d="M 63 169.196 
L 73 169.196 
L 83 169.196 
" style="fill: none; stroke-dasharray: 1.11,0.48; stroke-dashoffset: 0; stroke: #ff0000; stroke-width: 0.3"/>
    </g>
    <g id="text_20">
     <!-- $T_\mathregular{depolymerization}$ at 99.5% Mass -->
     <g transform="translate(91 172.696) scale(0.1 -0.1)">
      <defs>
       <path id="DejaVuSans-Oblique-54" d="M 378 4666 
L 4325 4666 
L 4225 4134 
L 2559 4134 
L 1759 0 
L 1125 0 
L 1925 4134 
L 275 4134 
L 378 4666 
z
" transform="scale(0.015625)"/>
       <path id="Helvetica-64" d="M 769 1634 
Q 769 1097 997 734 
Q 1225 372 1728 372 
Q 2119 372 2370 708 
Q 2622 1044 2622 1672 
Q 2622 2306 2362 2611 
Q 2103 2916 1722 2916 
Q 1297 2916 1033 2591 
Q 769 2266 769 1634 
z
M 1616 3406 
Q 2000 3406 2259 3244 
Q 2409 3150 2600 2916 
L 2600 4606 
L 3141 4606 
L 3141 0 
L 2634 0 
L 2634 466 
Q 2438 156 2169 18 
Q 1900 -119 1553 -119 
Q 994 -119 584 351 
Q 175 822 175 1603 
Q 175 2334 548 2870 
Q 922 3406 1616 3406 
z
" transform="scale(0.015625)"/>
       <path id="Helvetica-6f" d="M 1741 363 
Q 2300 363 2508 786 
Q 2716 1209 2716 1728 
Q 2716 2197 2566 2491 
Q 2328 2953 1747 2953 
Q 1231 2953 997 2559 
Q 763 2166 763 1609 
Q 763 1075 997 719 
Q 1231 363 1741 363 
z
M 1763 3444 
Q 2409 3444 2856 3012 
Q 3303 2581 3303 1744 
Q 3303 934 2909 406 
Q 2516 -122 1688 -122 
Q 997 -122 590 345 
Q 184 813 184 1600 
Q 184 2444 612 2944 
Q 1041 3444 1763 3444 
z
M 1744 3428 
L 1744 3428 
z
" transform="scale(0.015625)"/>
       <path id="Helvetica-6c" d="M 428 4591 
L 991 4591 
L 991 0 
L 428 0 
L 428 4591 
z
" transform="scale(0.015625)"/>
       <path id="Helvetica-72" d="M 428 3347 
L 963 3347 
L 963 2769 
Q 1028 2938 1284 3180 
Q 1541 3422 1875 3422 
Q 1891 3422 1928 3419 
Q 1966 3416 2056 3406 
L 2056 2813 
Q 2006 2822 1964 2825 
Q 1922 2828 1872 2828 
Q 1447 2828 1219 2554 
Q 991 2281 991 1925 
L 991 0 
L 428 0 
L 428 3347 
z
" transform="scale(0.015625)"/>
       <path id="Helvetica-7a" d="M 163 444 
L 2147 2844 
L 309 2844 
L 309 3347 
L 2903 3347 
L 2903 2888 
L 931 503 
L 2963 503 
L 2963 0 
L 163 0 
L 163 444 
z
M 1609 3428 
L 1609 3428 
z
" transform="scale(0.015625)"/>
       <path id="Helvetica-74" d="M 525 4281 
L 1094 4281 
L 1094 3347 
L 1628 3347 
L 1628 2888 
L 1094 2888 
L 1094 703 
Q 1094 528 1213 469 
Q 1278 434 1431 434 
Q 1472 434 1519 436 
Q 1566 438 1628 444 
L 1628 0 
Q 1531 -28 1426 -40 
Q 1322 -53 1200 -53 
Q 806 -53 665 148 
Q 525 350 525 672 
L 525 2888 
L 72 2888 
L 72 3347 
L 525 3347 
L 525 4281 
z
" transform="scale(0.015625)"/>
       <path id="Helvetica-39" d="M 850 1081 
Q 875 616 1209 438 
Q 1381 344 1597 344 
Q 2000 344 2284 680 
Q 2569 1016 2688 2044 
Q 2500 1747 2223 1626 
Q 1947 1506 1628 1506 
Q 981 1506 604 1909 
Q 228 2313 228 2947 
Q 228 3556 600 4018 
Q 972 4481 1697 4481 
Q 2675 4481 3047 3600 
Q 3253 3116 3253 2388 
Q 3253 1566 3006 931 
Q 2597 -125 1619 -125 
Q 963 -125 622 219 
Q 281 563 281 1081 
L 850 1081 
z
M 1703 2000 
Q 2038 2000 2314 2220 
Q 2591 2441 2591 2991 
Q 2591 3484 2342 3726 
Q 2094 3969 1709 3969 
Q 1297 3969 1055 3692 
Q 813 3416 813 2953 
Q 813 2516 1025 2258 
Q 1238 2000 1703 2000 
z
" transform="scale(0.015625)"/>
      </defs>
      <use xlink:href="#DejaVuSans-Oblique-54" transform="translate(0 0.09375)"/>
      <use xlink:href="#Helvetica-64" transform="translate(61.083984 -16.3125) scale(0.7)"/>
      <use xlink:href="#Helvetica-65" transform="translate(100.014648 -16.3125) scale(0.7)"/>
      <use xlink:href="#Helvetica-70" transform="translate(138.945312 -16.3125) scale(0.7)"/>
      <use xlink:href="#Helvetica-6f" transform="translate(177.875977 -16.3125) scale(0.7)"/>
      <use xlink:href="#Helvetica-6c" transform="translate(216.806641 -16.3125) scale(0.7)"/>
      <use xlink:href="#Helvetica-79" transform="translate(232.358398 -16.3125) scale(0.7)"/>
      <use xlink:href="#Helvetica-6d" transform="translate(267.358398 -16.3125) scale(0.7)"/>
      <use xlink:href="#Helvetica-65" transform="translate(325.668945 -16.3125) scale(0.7)"/>
      <use xlink:href="#Helvetica-72" transform="translate(364.599609 -16.3125) scale(0.7)"/>
      <use xlink:href="#Helvetica-69" transform="translate(387.910156 -16.3125) scale(0.7)"/>
      <use xlink:href="#Helvetica-7a" transform="translate(403.461914 -16.3125) scale(0.7)"/>
      <use xlink:href="#Helvetica-61" transform="translate(438.461914 -16.3125) scale(0.7)"/>
      <use xlink:href="#Helvetica-74" transform="translate(477.392578 -16.3125) scale(0.7)"/>
      <use xlink:href="#Helvetica-69" transform="translate(496.84082 -16.3125) scale(0.7)"/>
      <use xlink:href="#Helvetica-6f" transform="translate(512.392578 -16.3125) scale(0.7)"/>
      <use xlink:href="#Helvetica-6e" transform="translate(551.323242 -16.3125) scale(0.7)"/>
      <use xlink:href="#Helvetica-20" transform="translate(592.988281 0.09375)"/>
      <use xlink:href="#Helvetica-61" transform="translate(620.771484 0.09375)"/>
      <use xlink:href="#Helvetica-74" transform="translate(676.386719 0.09375)"/>
      <use xlink:href="#Helvetica-20" transform="translate(704.169922 0.09375)"/>
      <use xlink:href="#Helvetica-39" transform="translate(731.953125 0.09375)"/>
      <use xlink:href="#Helvetica-39" transform="translate(787.568359 0.09375)"/>
      <use xlink:href="#Helvetica-2e" transform="translate(843.183594 0.09375)"/>
      <use xlink:href="#Helvetica-35" transform="translate(870.966797 0.09375)"/>
      <use xlink:href="#Helvetica-25" transform="translate(926.582031 0.09375)"/>
      <use xlink:href="#Helvetica-20" transform="translate(1015.498047 0.09375)"/>
      <use xlink:href="#Helvetica-4d" transform="translate(1043.28125 0.09375)"/>
      <use xlink:href="#Helvetica-61" transform="translate(1126.582031 0.09375)"/>
      <use xlink:href="#Helvetica-73" transform="translate(1182.197266 0.09375)"/>
      <use xlink:href="#Helvetica-73" transform="translate(1232.197266 0.09375)"/>
     </g>
    </g>
   </g>
  </g>
  <g id="axes_2">
   <g id="patch_6">
    <path d="M 54 384.48 
L 388.8 384.48 
L 388.8 251.424 
L 54 251.424 
z
" style="fill: #ffffff"/>
   </g>
   <g id="matplotlib.axis_3">
    <g id="xtick_9">
     <g id="line2d_23">
      <g>
       <use xlink:href="#m0c7ed881a1" x="76.32" y="384.48" style="stroke: #000000; stroke-width: 0.8"/>
      </g>
     </g>
     <g id="text_21">
      <!-- 260 -->
      <g transform="translate(69.646875 393.71875) scale(0.08 -0.08)">
       <use xlink:href="#Helvetica-32"/>
       <use xlink:href="#Helvetica-36" x="55.615234"/>
       <use xlink:href="#Helvetica-30" x="111.230469"/>
      </g>
     </g>
    </g>
    <g id="xtick_10">
     <g id="line2d_24">
      <g>
       <use xlink:href="#m0c7ed881a1" x="120.96" y="384.48" style="stroke: #000000; stroke-width: 0.8"/>
      </g>
     </g>
     <g id="text_22">
      <!-- 280 -->
      <g transform="translate(114.286875 393.71875) scale(0.08 -0.08)">
       <use xlink:href="#Helvetica-32"/>
       <use xlink:href="#Helvetica-38" x="55.615234"/>
       <use xlink:href="#Helvetica-30" x="111.230469"/>
      </g>
     </g>
    </g>
    <g id="xtick_11">
     <g id="line2d_25">
      <g>
       <use xlink:href="#m0c7ed881a1" x="165.6" y="384.48" style="stroke: #000000; stroke-width: 0.8"/>
      </g>
     </g>
     <g id="text_23">
      <!-- 300 -->
      <g transform="translate(158.926875 393.71875) scale(0.08 -0.08)">
       <use xlink:href="#Helvetica-33"/>
       <use xlink:href="#Helvetica-30" x="55.615234"/>
       <use xlink:href="#Helvetica-30" x="111.230469"/>
      </g>
     </g>
    </g>
    <g id="xtick_12">
     <g id="line2d_26">
      <g>
       <use xlink:href="#m0c7ed881a1" x="210.24" y="384.48" style="stroke: #000000; stroke-width: 0.8"/>
      </g>
     </g>
     <g id="text_24">
      <!-- 320 -->
      <g transform="translate(203.566875 393.71875) scale(0.08 -0.08)">
       <use xlink:href="#Helvetica-33"/>
       <use xlink:href="#Helvetica-32" x="55.615234"/>
       <use xlink:href="#Helvetica-30" x="111.230469"/>
      </g>
     </g>
    </g>
    <g id="xtick_13">
     <g id="line2d_27">
      <g>
       <use xlink:href="#m0c7ed881a1" x="254.88" y="384.48" style="stroke: #000000; stroke-width: 0.8"/>
      </g>
     </g>
     <g id="text_25">
      <!-- 340 -->
      <g transform="translate(248.206875 393.71875) scale(0.08 -0.08)">
       <use xlink:href="#Helvetica-33"/>
       <use xlink:href="#Helvetica-34" x="55.615234"/>
       <use xlink:href="#Helvetica-30" x="111.230469"/>
      </g>
     </g>
    </g>
    <g id="xtick_14">
     <g id="line2d_28">
      <g>
       <use xlink:href="#m0c7ed881a1" x="299.52" y="384.48" style="stroke: #000000; stroke-width: 0.8"/>
      </g>
     </g>
     <g id="text_26">
      <!-- 360 -->
      <g transform="translate(292.846875 393.71875) scale(0.08 -0.08)">
       <use xlink:href="#Helvetica-33"/>
       <use xlink:href="#Helvetica-36" x="55.615234"/>
       <use xlink:href="#Helvetica-30" x="111.230469"/>
      </g>
     </g>
    </g>
    <g id="xtick_15">
     <g id="line2d_29">
      <g>
       <use xlink:href="#m0c7ed881a1" x="344.16" y="384.48" style="stroke: #000000; stroke-width: 0.8"/>
      </g>
     </g>
     <g id="text_27">
      <!-- 380 -->
      <g transform="translate(337.486875 393.71875) scale(0.08 -0.08)">
       <use xlink:href="#Helvetica-33"/>
       <use xlink:href="#Helvetica-38" x="55.615234"/>
       <use xlink:href="#Helvetica-30" x="111.230469"/>
      </g>
     </g>
    </g>
    <g id="xtick_16">
     <g id="line2d_30">
      <g>
       <use xlink:href="#m0c7ed881a1" x="388.8" y="384.48" style="stroke: #000000; stroke-width: 0.8"/>
      </g>
     </g>
     <g id="text_28">
      <!-- 400 -->
      <g transform="translate(382.126875 393.71875) scale(0.08 -0.08)">
       <use xlink:href="#Helvetica-34"/>
       <use xlink:href="#Helvetica-30" x="55.615234"/>
       <use xlink:href="#Helvetica-30" x="111.230469"/>
      </g>
     </g>
    </g>
    <g id="text_29">
     <!-- Temp ($^{o}$C) -->
     <g transform="translate(197.95 407.18625) scale(0.1 -0.1)">
      <use xlink:href="#Helvetica-54" transform="translate(0 0.51875)"/>
      <use xlink:href="#Helvetica-65" transform="translate(61.083984 0.51875)"/>
      <use xlink:href="#Helvetica-6d" transform="translate(116.699219 0.51875)"/>
      <use xlink:href="#Helvetica-70" transform="translate(200 0.51875)"/>
      <use xlink:href="#Helvetica-20" transform="translate(255.615234 0.51875)"/>
      <use xlink:href="#Helvetica-28" transform="translate(283.398438 0.51875)"/>
      <use xlink:href="#DejaVuSans-Oblique-6f" transform="translate(317.65625 38.8) scale(0.7)"/>
      <use xlink:href="#Helvetica-43" transform="translate(363.217773 0.51875)"/>
      <use xlink:href="#Helvetica-29" transform="translate(435.43457 0.51875)"/>
     </g>
    </g>
   </g>
   <g id="matplotlib.axis_4">
    <g id="ytick_7">
     <g id="line2d_31">
      <g>
       <use xlink:href="#m68a606abec" x="54" y="370.6945" style="stroke: #000000; stroke-width: 0.8"/>
      </g>
     </g>
     <g id="text_30">
      <!-- 1.50 -->
      <g transform="translate(34.93125 373.563875) scale(0.08 -0.08)">
       <use xlink:href="#Helvetica-31"/>
       <use xlink:href="#Helvetica-2e" x="55.615234"/>
       <use xlink:href="#Helvetica-35" x="83.398438"/>
       <use xlink:href="#Helvetica-30" x="139.013672"/>
      </g>
     </g>
    </g>
    <g id="ytick_8">
     <g id="line2d_32">
      <g>
       <use xlink:href="#m68a606abec" x="54" y="345.122751" style="stroke: #000000; stroke-width: 0.8"/>
      </g>
     </g>
     <g id="text_31">
      <!-- 1.55 -->
      <g transform="translate(34.93125 347.992126) scale(0.08 -0.08)">
       <use xlink:href="#Helvetica-31"/>
       <use xlink:href="#Helvetica-2e" x="55.615234"/>
       <use xlink:href="#Helvetica-35" x="83.398438"/>
       <use xlink:href="#Helvetica-35" x="139.013672"/>
      </g>
     </g>
    </g>
    <g id="ytick_9">
     <g id="line2d_33">
      <g>
       <use xlink:href="#m68a606abec" x="54" y="319.551001" style="stroke: #000000; stroke-width: 0.8"/>
      </g>
     </g>
     <g id="text_32">
      <!-- 1.60 -->
      <g transform="translate(34.93125 322.420376) scale(0.08 -0.08)">
       <use xlink:href="#Helvetica-31"/>
       <use xlink:href="#Helvetica-2e" x="55.615234"/>
       <use xlink:href="#Helvetica-36" x="83.398438"/>
       <use xlink:href="#Helvetica-30" x="139.013672"/>
      </g>
     </g>
    </g>
    <g id="ytick_10">
     <g id="line2d_34">
      <g>
       <use xlink:href="#m68a606abec" x="54" y="293.979252" style="stroke: #000000; stroke-width: 0.8"/>
      </g>
     </g>
     <g id="text_33">
      <!-- 1.65 -->
      <g transform="translate(34.93125 296.848627) scale(0.08 -0.08)">
       <use xlink:href="#Helvetica-31"/>
       <use xlink:href="#Helvetica-2e" x="55.615234"/>
       <use xlink:href="#Helvetica-36" x="83.398438"/>
       <use xlink:href="#Helvetica-35" x="139.013672"/>
      </g>
     </g>
    </g>
    <g id="ytick_11">
     <g id="line2d_35">
      <g>
       <use xlink:href="#m68a606abec" x="54" y="268.407503" style="stroke: #000000; stroke-width: 0.8"/>
      </g>
     </g>
     <g id="text_34">
      <!-- 1.70 -->
      <g transform="translate(34.93125 271.276878) scale(0.08 -0.08)">
       <defs>
        <path id="Helvetica-37" d="M 3347 4400 
L 3347 3909 
Q 3131 3700 2773 3181 
Q 2416 2663 2141 2063 
Q 1869 1478 1728 997 
Q 1638 688 1494 0 
L 872 0 
Q 1084 1281 1809 2550 
Q 2238 3294 2709 3834 
L 234 3834 
L 234 4400 
L 3347 4400 
z
" transform="scale(0.015625)"/>
       </defs>
       <use xlink:href="#Helvetica-31"/>
       <use xlink:href="#Helvetica-2e" x="55.615234"/>
       <use xlink:href="#Helvetica-37" x="83.398438"/>
       <use xlink:href="#Helvetica-30" x="139.013672"/>
      </g>
     </g>
    </g>
    <g id="text_35">
     <!-- Ion Current (A) -->
     <g transform="translate(28.846875 351.016062) rotate(-90) scale(0.1 -0.1)">
      <defs>
       <path id="Helvetica-49" d="M 628 4591 
L 1256 4591 
L 1256 0 
L 628 0 
L 628 4591 
z
" transform="scale(0.015625)"/>
       <path id="Helvetica-75" d="M 975 3347 
L 975 1125 
Q 975 869 1056 706 
Q 1206 406 1616 406 
Q 2203 406 2416 931 
Q 2531 1213 2531 1703 
L 2531 3347 
L 3094 3347 
L 3094 0 
L 2563 0 
L 2569 494 
Q 2459 303 2297 172 
Q 1975 -91 1516 -91 
Q 800 -91 541 388 
Q 400 644 400 1072 
L 400 3347 
L 975 3347 
z
M 1747 3428 
L 1747 3428 
z
" transform="scale(0.015625)"/>
      </defs>
      <use xlink:href="#Helvetica-49"/>
      <use xlink:href="#Helvetica-6f" x="27.783203"/>
      <use xlink:href="#Helvetica-6e" x="83.398438"/>
      <use xlink:href="#Helvetica-20" x="139.013672"/>
      <use xlink:href="#Helvetica-43" x="166.796875"/>
      <use xlink:href="#Helvetica-75" x="239.013672"/>
      <use xlink:href="#Helvetica-72" x="294.628906"/>
      <use xlink:href="#Helvetica-72" x="327.929688"/>
      <use xlink:href="#Helvetica-65" x="361.230469"/>
      <use xlink:href="#Helvetica-6e" x="416.845703"/>
      <use xlink:href="#Helvetica-74" x="472.460938"/>
      <use xlink:href="#Helvetica-20" x="500.244141"/>
      <use xlink:href="#Helvetica-28" x="528.027344"/>
      <use xlink:href="#Helvetica-41" x="561.328125"/>
      <use xlink:href="#Helvetica-29" x="628.027344"/>
     </g>
    </g>
    <g id="text_36">
     <!-- 1e−12 -->
     <g transform="translate(54 248.424) scale(0.1 -0.1)">
      <defs>
       <path id="Helvetica-2212" d="M 3547 1894 
L 3547 1369 
L 288 1369 
L 288 1894 
L 3547 1894 
z
" transform="scale(0.015625)"/>
      </defs>
      <use xlink:href="#Helvetica-31"/>
      <use xlink:href="#Helvetica-65" x="55.615234"/>
      <use xlink:href="#Helvetica-2212" x="111.230469"/>
      <use xlink:href="#Helvetica-31" x="169.628906"/>
      <use xlink:href="#Helvetica-32" x="225.244141"/>
     </g>
    </g>
   </g>
   <g id="line2d_36">
    <path d="M 54.03127 325.755731 
L 54.328104 323.805118 
L 54.761112 325.755731 
L 55.057968 316.001131 
L 55.502136 330.633286 
L 55.801246 347.216566 
L 56.236464 324.780424 
L 56.531088 326.731549 
L 56.995344 333.559717 
L 57.294432 294.540296 
L 57.729694 316.976438 
L 58.03771 313.0747 
L 58.490762 323.805118 
L 58.792104 355.020552 
L 59.06664 320.878687 
L 59.519758 315.025313 
L 59.803222 356.971165 
L 60.26971 311.123576 
L 60.553152 339.412579 
L 61.010734 340.388397 
L 61.316496 320.878687 
L 61.635694 330.633286 
L 62.05752 351.118303 
L 62.33873 307.221838 
L 62.787384 335.510842 
L 63.10656 327.706855 
L 63.403416 332.584411 
L 63.856512 306.24602 
L 64.285056 366.726276 
L 64.885464 294.540296 
L 65.63988 352.094121 
L 66.050568 313.0747 
L 66.385368 337.461966 
L 66.807238 310.148269 
L 67.121928 332.584411 
L 67.575024 347.216566 
L 67.854024 323.805118 
L 68.289286 320.878687 
L 68.592794 340.388397 
L 68.914246 316.976438 
L 69.338326 305.270714 
L 69.81151 329.65798 
L 70.101626 352.094121 
L 70.376206 319.902869 
L 70.862738 343.314828 
L 71.13281 333.559717 
L 71.592602 327.706855 
L 71.88053 318.927562 
L 72.31577 333.559717 
L 72.619366 310.148269 
L 73.072462 322.8293 
L 73.362578 334.535024 
L 73.804514 322.8293 
L 74.117016 328.682162 
L 74.39827 354.044734 
L 74.829024 332.584411 
L 75.166056 338.437273 
L 75.599064 314.050007 
L 75.891478 316.976438 
L 76.33116 307.221838 
L 76.62353 335.510842 
L 77.067698 320.878687 
L 77.362366 345.265441 
L 77.802048 301.368976 
L 78.114506 354.044734 
L 78.543072 311.123576 
L 78.86227 324.780424 
L 79.281864 304.295407 
L 79.585438 344.290135 
L 79.877786 316.976438 
L 80.32423 298.442545 
L 80.627738 319.902869 
L 81.096502 309.172451 
L 81.393358 344.290135 
L 81.683541 342.33901 
L 82.129896 313.0747 
L 82.428984 335.510842 
L 82.893262 339.412579 
L 83.199024 297.466727 
L 83.625358 353.069428 
L 83.93112 298.442545 
L 84.366382 323.805118 
L 84.674398 297.466727 
L 84.995762 322.8293 
L 85.404262 325.755731 
L 85.84843 321.853993 
L 86.143032 334.535024 
L 86.471136 308.197145 
L 86.892984 327.706855 
L 87.194326 321.853993 
L 87.631754 347.216566 
L 88.254459 302.344283 
L 88.66296 321.853993 
L 88.97323 317.952256 
L 89.419586 292.589172 
L 89.689658 334.535024 
L 90.15619 336.486148 
L 90.45077 315.025313 
L 90.888286 319.902869 
L 91.180634 321.853993 
L 91.627056 376.480876 
L 91.952928 310.148269 
L 92.39261 342.33901 
L 92.70288 300.393158 
L 93.133634 324.780424 
L 93.44839 333.559717 
L 93.881398 311.123576 
L 94.167072 309.172451 
L 94.463928 279.908141 
L 94.939366 333.559717 
L 95.38349 321.853993 
L 95.66923 308.197145 
L 95.957136 305.270714 
L 96.421414 311.123576 
L 96.707088 344.290135 
L 97.17804 333.559717 
L 97.461459 317.952256 
L 97.77847 321.853993 
L 98.204738 343.314828 
L 98.662342 320.878687 
L 98.977032 333.559717 
L 99.392206 327.706855 
L 99.693459 338.437273 
L 99.979222 323.805118 
L 100.430064 337.461966 
L 100.711318 361.848721 
L 101.481358 306.24602 
L 101.898698 316.976438 
L 102.197786 332.584411 
L 102.670992 321.853993 
L 102.97008 343.314828 
L 103.233478 304.295407 
L 103.702198 332.584411 
L 104.436459 296.491421 
L 104.722222 351.118303 
L 105.186478 351.118303 
L 105.474406 316.976438 
L 105.920762 304.295407 
L 106.226546 345.265441 
L 106.684128 352.094121 
L 106.976498 329.65798 
L 107.447494 315.025313 
L 107.735422 324.780424 
L 108.052366 341.363704 
L 108.48312 334.535024 
L 108.784462 348.191872 
L 109.21073 317.952256 
L 109.503144 354.044734 
L 109.962936 316.001131 
L 110.275438 348.191872 
L 110.576714 353.069428 
L 111.30881 294.540296 
L 111.744072 279.908141 
L 112.20835 331.608593 
L 112.509626 344.290135 
L 112.931541 316.976438 
L 113.248462 315.025313 
L 113.54081 321.853993 
L 113.958238 295.516114 
L 114.290762 311.123576 
L 114.739438 340.388397 
L 115.464794 297.466727 
L 115.76839 339.412579 
L 116.078594 338.437273 
L 116.536198 360.873414 
L 116.870976 326.731549 
L 117.23035 334.535024 
L 117.53388 347.216566 
L 117.978048 323.805118 
L 118.312848 312.098882 
L 119.029342 343.314828 
L 119.45561 346.241259 
L 119.763626 321.853993 
L 120.203374 325.755731 
L 120.506904 334.535024 
L 120.957746 355.995859 
L 121.245674 343.314828 
L 121.518 277.957017 
L 121.959936 332.584411 
L 122.290294 314.050007 
L 122.729976 317.952256 
L 123.037992 308.197145 
L 123.500016 314.050007 
L 123.75 344.290135 
L 124.069198 341.363704 
L 124.504438 309.172451 
L 124.832498 337.461966 
L 125.265506 295.516114 
L 125.540064 321.853993 
L 126.004342 334.535024 
L 126.312358 333.559717 
L 126.756459 333.559717 
L 127.039968 353.069428 
L 127.51092 341.363704 
L 127.807754 328.682162 
L 128.251944 320.878687 
L 128.687206 328.682162 
L 129.01531 303.319589 
L 129.274222 330.633286 
L 129.725064 297.466727 
L 130.037522 341.363704 
L 130.463856 304.295407 
L 130.76743 348.191872 
L 131.229454 316.001131 
L 131.503968 338.437273 
L 131.95481 356.971165 
L 132.260594 310.148269 
L 132.680254 344.290135 
L 132.99269 310.148269 
L 133.294032 317.952256 
L 133.724786 318.927562 
L 134.180136 286.73631 
L 134.45465 320.878687 
L 134.927856 341.363704 
L 135.215762 342.33901 
L 135.517104 295.516114 
L 135.981382 322.8293 
L 136.69339 334.535024 
L 137.005848 355.995859 
L 137.436602 280.883448 
L 137.722342 332.584411 
L 138.208896 321.853993 
L 138.483454 337.461966 
L 138.762454 325.755731 
L 139.219992 334.535024 
L 139.530262 329.65798 
L 139.96327 346.241259 
L 140.28912 319.902869 
L 140.55696 333.559717 
L 141.01673 301.368976 
L 141.766682 325.755731 
L 142.197502 352.094121 
L 142.793446 303.319589 
L 143.224222 341.363704 
L 143.686246 317.952256 
L 143.998682 352.094121 
L 144.284422 336.486148 
L 144.74196 328.682162 
L 145.029888 331.608593 
L 145.471802 342.33901 
L 145.761984 328.682162 
L 146.052144 358.92229 
L 146.534278 356.971165 
L 146.817698 337.461966 
L 147.27749 335.510842 
L 147.57439 308.197145 
L 148.036414 322.8293 
L 148.310928 319.902869 
L 148.78188 326.731549 
L 149.058626 320.878687 
L 149.507302 321.853993 
L 149.808578 293.56499 
L 150.094318 335.510842 
L 150.531746 344.290135 
L 150.991538 355.995859 
L 151.26835 347.216566 
L 151.596454 320.878687 
L 152.324064 340.388397 
L 152.768254 333.559717 
L 153.062856 309.172451 
L 153.375358 317.952256 
L 153.801626 315.025313 
L 154.098459 316.976438 
L 154.547136 320.878687 
L 154.841738 310.148269 
L 155.31943 347.216566 
L 156.060454 298.442545 
L 156.328294 321.853993 
L 157.071506 339.412579 
L 157.529088 313.0747 
L 157.834872 307.221838 
L 158.299128 307.221838 
L 158.58931 338.437273 
L 159.022318 329.65798 
L 159.31692 317.952256 
L 159.778944 311.123576 
L 160.064618 349.16769 
L 160.531128 317.952256 
L 160.79004 334.535024 
L 161.542246 320.878687 
L 161.832406 309.172451 
L 162.582358 344.290135 
L 162.863546 319.902869 
L 163.327802 317.952256 
L 163.78092 314.050007 
L 164.080008 319.902869 
L 164.832214 343.314828 
L 165.117888 340.388397 
L 165.582144 316.976438 
L 165.885674 341.363704 
L 166.332096 320.878687 
L 166.622278 328.682162 
L 167.057541 354.044734 
L 167.378904 324.780424 
L 167.809658 328.682162 
L 168.12216 343.314828 
L 168.423502 316.001131 
L 168.83861 327.706855 
L 169.151112 306.24602 
L 169.590794 322.8293 
L 169.901064 347.216566 
L 170.343 346.241259 
L 170.630928 326.731549 
L 171.08851 329.65798 
L 171.65988 313.0747 
L 172.124136 332.584411 
L 172.407578 315.025313 
L 172.847326 312.098882 
L 173.159762 329.65798 
L 173.615112 302.344283 
L 173.907459 324.780424 
L 174.34723 317.952256 
L 174.635136 324.780424 
L 174.94092 351.118303 
L 175.39627 340.388397 
L 175.684198 340.388397 
L 176.130554 324.780424 
L 176.460912 336.486148 
L 176.878318 332.584411 
L 177.188522 326.731549 
L 177.62827 348.191872 
L 177.925104 343.314828 
L 178.382642 325.755731 
L 178.659454 327.706855 
L 179.409406 316.001131 
L 179.710682 338.437273 
L 180.148198 333.559717 
L 180.59904 332.584411 
L 180.875786 363.799845 
L 181.161459 325.755731 
L 181.632478 354.044734 
L 181.91592 291.613865 
L 182.37569 321.853993 
L 182.670358 322.8293 
L 183.116714 341.363704 
L 183.429238 373.554445 
L 183.84439 327.706855 
L 184.15908 313.0747 
L 184.612198 339.412579 
L 184.906778 311.123576 
L 185.313024 305.270714 
L 185.616554 320.878687 
L 185.933498 319.902869 
L 186.377666 297.466727 
L 186.65892 334.535024 
L 187.145541 280.883448 
L 187.420032 326.731549 
L 187.85304 304.295407 
L 188.176658 322.8293 
L 188.625334 315.025313 
L 188.908754 321.853993 
L 189.352944 308.197145 
L 189.667634 314.050007 
L 190.401984 342.33901 
L 190.680984 327.706855 
L 191.113992 315.025313 
L 191.58943 308.197145 
L 191.895214 316.976438 
L 192.200976 320.878687 
L 192.63173 330.633286 
L 192.928586 324.780424 
L 193.399538 342.33901 
L 193.696438 328.682162 
L 194.140562 322.8293 
L 194.412888 341.363704 
L 194.872658 309.172451 
L 195.18516 322.8293 
L 195.486502 341.363704 
L 195.97973 295.516114 
L 196.214112 368.677401 
L 196.640446 308.197145 
L 196.93949 299.417852 
L 197.399326 340.388397 
L 197.680514 298.442545 
L 198.138096 319.902869 
L 198.439438 303.319589 
L 198.90365 317.952256 
L 199.341144 307.221838 
L 199.653602 337.461966 
L 199.957198 317.952256 
L 200.358936 316.001131 
L 200.669206 333.559717 
L 201.097706 325.755731 
L 201.394562 313.0747 
L 201.686976 326.731549 
L 202.16016 309.172451 
L 202.912366 337.461966 
L 203.338634 338.437273 
L 203.660064 346.241259 
L 203.934578 319.902869 
L 204.40553 333.559717 
L 204.682342 352.094121 
L 204.997032 291.613865 
L 205.43004 302.344283 
L 205.923334 342.33901 
L 206.177738 305.270714 
L 206.92769 316.976438 
L 207.21343 317.952256 
L 207.713398 317.952256 
L 207.978984 346.241259 
L 208.405318 337.461966 
L 208.73561 293.56499 
L 209.16643 321.853993 
L 209.472214 310.148269 
L 209.91857 335.510842 
L 210.188642 329.65798 
L 210.666334 333.559717 
L 210.958682 311.123576 
L 211.233262 333.559717 
L 211.688546 329.65798 
L 212.11488 332.584411 
L 212.418454 310.148269 
L 212.893848 298.442545 
L 213.166152 346.241259 
L 213.476422 306.24602 
L 213.922778 312.098882 
L 214.21296 329.65798 
L 214.657128 310.148269 
L 214.953984 316.001131 
L 215.40708 316.976438 
L 215.71061 328.682162 
L 216.16596 306.24602 
L 216.458374 323.805118 
L 216.750722 331.608593 
L 217.206072 324.780424 
L 217.491746 337.461966 
L 217.935936 334.535024 
L 218.23951 325.755731 
L 218.679214 319.902869 
L 218.971562 358.92229 
L 219.71484 312.098882 
L 220.190278 313.0747 
L 220.475952 303.319589 
L 220.779459 303.319589 
L 221.225904 333.559717 
L 221.527246 343.314828 
L 221.82408 308.197145 
L 222.26827 312.098882 
L 222.730294 318.927562 
L 223.015968 326.731549 
L 223.473506 324.780424 
L 223.761478 340.388397 
L 224.060522 316.976438 
L 224.51143 318.927562 
L 224.819446 317.952256 
L 225.261382 326.731549 
L 225.555984 378.432 
L 226.015754 333.559717 
L 226.721088 311.123576 
L 227.024618 331.608593 
L 227.482222 316.976438 
L 227.765642 333.559717 
L 228.055802 327.706855 
L 228.50892 325.755731 
L 228.821422 322.8293 
L 229.274541 332.584411 
L 229.540104 327.706855 
L 230.00657 333.559717 
L 230.321326 293.56499 
L 230.58247 319.902869 
L 231.057864 305.270714 
L 231.372554 363.799845 
L 232.11581 302.344283 
L 232.537658 288.687434 
L 232.847928 335.510842 
L 233.321112 339.412579 
L 233.59788 301.368976 
L 234.010778 318.927562 
L 234.31212 316.001131 
L 234.76073 294.540296 
L 235.024128 300.393158 
L 235.33884 327.706855 
L 235.80977 336.486148 
L 236.553048 306.24602 
L 236.829794 318.927562 
L 237.303 318.927562 
L 237.588674 324.780424 
L 238.055206 358.92229 
L 238.349786 318.927562 
L 238.78949 335.510842 
L 239.07965 333.559717 
L 239.528326 333.559717 
L 239.83853 342.33901 
L 240.276024 359.898108 
L 240.85188 309.172451 
L 241.289374 340.388397 
L 241.59739 322.8293 
L 242.041514 308.197145 
L 242.36743 332.584411 
L 242.807112 319.902869 
L 243.40973 289.662741 
L 243.842738 318.927562 
L 244.146334 308.197145 
L 244.583762 301.368976 
L 244.889546 320.878687 
L 245.32704 310.148269 
L 245.612714 315.025313 
L 246.06139 335.510842 
L 246.492144 318.927562 
L 247.097016 328.682162 
L 247.532278 293.56499 
L 247.829112 312.098882 
L 248.29781 289.662741 
L 248.614754 342.33901 
L 248.884848 334.535024 
L 249.349104 333.559717 
L 249.773206 317.952256 
L 250.063366 345.265441 
L 250.389238 329.65798 
L 250.842334 329.65798 
L 251.145864 327.706855 
L 251.56769 307.221838 
L 251.860104 316.976438 
L 252.174794 309.172451 
L 252.610056 309.172451 
L 253.063152 322.8293 
L 253.362262 286.73631 
L 253.636754 332.584411 
L 254.107706 339.412579 
L 254.386706 328.682162 
L 254.84873 303.319589 
L 255.259462 301.368976 
L 255.57192 307.221838 
L 256.004928 320.878687 
L 256.326358 322.8293 
L 256.618706 319.902869 
L 257.062896 317.952256 
L 257.361984 325.755731 
L 257.667746 320.878687 
L 258.11861 321.853993 
L 258.39761 309.172451 
L 258.837358 350.142997 
L 259.292642 302.344283 
L 259.605144 323.805118 
L 259.897514 313.0747 
L 260.303738 328.682162 
L 260.616262 329.65798 
L 261.055944 339.412579 
L 261.522454 322.8293 
L 261.832658 326.731549 
L 262.258992 315.025313 
L 262.560334 302.344283 
L 262.87277 309.172451 
L 263.287944 304.295407 
L 263.604888 294.540296 
L 263.897302 322.8293 
L 264.339238 316.001131 
L 264.774478 316.976438 
L 265.10477 316.001131 
L 265.381538 346.241259 
L 265.814546 332.584411 
L 266.120374 330.633286 
L 266.577912 350.142997 
L 266.883674 319.902869 
L 267.330096 348.191872 
L 267.638112 325.755731 
L 268.05996 339.412579 
L 268.383578 320.878687 
L 268.816586 338.437273 
L 269.102326 329.65798 
L 269.414762 309.172451 
L 269.84777 331.608593 
L 270.14688 305.270714 
L 270.597722 310.148269 
L 270.903506 324.780424 
L 271.37669 336.486148 
L 271.649016 319.902869 
L 272.06861 355.995859 
L 272.352096 336.486148 
L 272.800706 327.706855 
L 273.131064 288.687434 
L 273.42792 323.805118 
L 273.86316 304.295407 
L 274.302864 345.265441 
L 274.604206 301.368976 
L 275.06623 344.290135 
L 275.378666 334.535024 
L 275.655478 355.020552 
L 276.124198 308.197145 
L 276.400944 321.853993 
L 276.849554 315.025313 
L 277.146454 299.417852 
L 277.610666 336.486148 
L 278.331602 312.098882 
L 278.648546 332.584411 
L 278.920872 339.412579 
L 279.382896 319.902869 
L 279.695398 327.706855 
L 280.128406 312.098882 
L 280.405152 334.535024 
L 280.867198 278.932835 
L 281.139502 322.8293 
L 281.626056 301.368976 
L 281.925144 302.344283 
L 282.35592 324.780424 
L 282.628246 307.221838 
L 283.074602 346.241259 
L 283.393778 336.486148 
L 283.806698 368.677401 
L 284.119222 363.799845 
L 284.41831 301.368976 
L 284.855738 322.8293 
L 285.166008 313.0747 
L 285.578928 315.025313 
L 285.900358 292.589172 
L 286.348968 304.295407 
L 286.641382 325.755731 
L 286.927056 334.535024 
L 288.130104 308.197145 
L 288.424706 340.388397 
L 288.868896 306.24602 
L 289.199254 317.952256 
L 289.484928 339.412579 
L 289.94251 292.589172 
L 290.40449 324.780424 
L 290.687976 330.633286 
L 290.982578 295.516114 
L 291.449088 315.025313 
L 291.73253 331.608593 
L 292.16335 288.687434 
L 292.460206 309.172451 
L 292.904374 330.633286 
L 293.20123 321.853993 
L 293.638658 293.56499 
L 293.94 336.486148 
L 294.26143 315.025313 
L 294.705554 331.608593 
L 294.96451 316.001131 
L 295.435462 326.731549 
L 295.743478 325.755731 
L 296.205502 322.8293 
L 296.471088 338.437273 
L 296.937554 325.755731 
L 297.192024 337.461966 
L 297.66965 320.878687 
L 297.968738 305.270714 
L 298.25892 322.8293 
L 298.72543 311.123576 
L 299.006618 308.197145 
L 299.459714 309.172451 
L 299.736459 312.098882 
L 300.194064 312.098882 
L 300.484246 296.491421 
L 300.765478 317.952256 
L 301.22527 343.314828 
L 301.568976 325.755731 
L 301.970714 328.682162 
L 302.428318 327.706855 
L 302.729594 324.780424 
L 303.01308 311.123576 
L 303.463944 322.8293 
L 303.769706 337.461966 
L 304.216128 329.65798 
L 304.67592 318.927562 
L 304.950478 290.638559 
L 305.240594 324.780424 
L 305.702618 323.805118 
L 306.001706 295.516114 
L 306.296374 294.540296 
L 306.740498 329.65798 
L 307.023984 302.344283 
L 307.488262 310.148269 
L 307.789538 343.314828 
L 308.231541 281.859266 
L 308.965802 337.461966 
L 309.425594 277.957017 
L 309.70908 303.319589 
L 310.151016 355.995859 
L 310.465706 318.927562 
L 310.905454 291.613865 
L 311.217912 333.559717 
L 311.916506 311.123576 
L 312.237936 312.098882 
L 312.682104 314.050007 
L 313.291462 294.540296 
L 313.726658 338.437273 
L 314.150738 326.731549 
L 314.469936 300.393158 
L 314.76677 302.344283 
L 315.233302 328.682162 
L 315.510048 289.662741 
L 315.967586 328.682162 
L 316.242144 302.344283 
L 316.556856 341.363704 
L 317.007698 309.172451 
L 317.476462 316.001131 
L 317.75765 300.393158 
L 318.485326 312.098882 
L 318.775486 291.613865 
L 319.070088 310.148269 
L 319.556642 268.202417 
L 319.815554 301.368976 
L 320.270904 307.221838 
L 320.592334 305.270714 
L 321.018602 331.608593 
L 321.311016 318.927562 
L 321.755206 257.472 
L 322.054294 335.510842 
L 322.833262 306.24602 
L 323.52516 326.731549 
L 323.987206 325.755731 
L 324.299642 310.148269 
L 324.748318 302.344283 
L 325.05408 329.65798 
L 325.337522 325.755731 
L 325.78843 350.142997 
L 326.076358 306.24602 
L 326.507112 329.65798 
L 326.83747 326.731549 
L 327.268246 288.687434 
L 327.571754 324.780424 
L 327.998088 319.902869 
L 328.321706 302.344283 
L 328.743554 321.853993 
L 329.064984 289.662741 
L 329.34847 352.094121 
L 329.781478 319.902869 
L 330.259104 328.682162 
L 330.533618 262.349555 
L 330.984459 336.486148 
L 331.29031 315.025313 
L 331.575984 309.172451 
L 332.031334 303.319589 
L 332.334864 294.540296 
L 332.767872 307.221838 
L 333.064706 332.584411 
L 333.502222 282.834572 
L 333.82584 318.927562 
L 334.24992 291.613865 
L 334.537848 319.902869 
L 334.993198 282.834572 
L 335.301214 295.516114 
L 335.75873 291.613865 
L 336.035498 312.098882 
L 336.785494 323.805118 
L 337.091278 321.853993 
L 337.53096 306.24602 
L 337.818888 312.098882 
L 338.115722 336.486148 
L 338.573326 289.662741 
L 339.329952 320.878687 
L 340.06649 282.834572 
L 340.370064 312.098882 
L 340.809746 305.270714 
L 341.095486 342.33901 
L 341.55751 326.731549 
L 341.845438 346.241259 
L 342.323064 291.613865 
L 342.59981 335.510842 
L 343.026144 302.344283 
L 343.340856 321.853993 
L 343.798438 331.608593 
L 344.084112 358.92229 
L 344.394382 293.56499 
L 344.83181 271.128848 
L 345.144334 312.098882 
L 345.570602 284.785697 
L 346.164358 325.755731 
L 346.612968 311.123576 
L 346.889714 297.466727 
L 347.371848 335.510842 
L 347.675422 284.785697 
L 348.110618 328.682162 
L 348.374016 296.491421 
L 348.844968 304.295407 
L 349.130642 306.24602 
L 349.601594 319.902869 
L 349.889522 323.805118 
L 350.30916 302.344283 
L 350.599342 323.805118 
L 350.931888 287.712128 
L 351.338112 316.976438 
L 351.655056 311.123576 
L 352.090318 285.761003 
L 352.39608 306.24602 
L 352.84027 327.706855 
L 353.139358 311.123576 
L 353.599128 313.0747 
L 353.918326 288.687434 
L 354.364682 277.957017 
L 354.654864 316.976438 
L 355.110214 297.466727 
L 355.679374 331.608593 
L 356.143586 317.952256 
L 356.440486 289.662741 
L 356.875682 306.24602 
L 357.188206 328.682162 
L 357.65023 317.952256 
L 357.951506 333.559717 
L 358.250594 289.662741 
L 358.67916 307.221838 
L 358.984944 305.270714 
L 359.420206 313.0747 
L 359.721459 301.368976 
L 360.16565 311.123576 
L 360.819626 331.608593 
L 361.192414 286.73631 
L 361.654438 315.025313 
L 361.944554 298.442545 
L 362.225786 335.510842 
L 362.690064 297.466727 
L 362.991406 289.662741 
L 363.424414 326.731549 
L 363.743546 286.73631 
L 364.029286 301.368976 
L 364.473454 315.025313 
L 364.76357 306.24602 
L 365.207738 303.319589 
L 365.515754 297.466727 
L 365.96443 264.300168 
L 366.252358 316.001131 
L 366.698714 324.780424 
L 366.99557 339.412579 
L 367.444246 333.559717 
L 367.76119 300.393158 
L 368.225446 303.319589 
L 368.504446 314.050007 
L 368.944128 279.908141 
L 369.267746 304.295407 
L 369.546746 316.001131 
L 370.013278 313.0747 
L 370.330222 303.319589 
L 370.749794 309.172451 
L 371.207398 328.682162 
L 371.497514 322.8293 
L 372.23635 295.516114 
L 372.513096 330.633286 
L 372.83004 311.123576 
L 373.256374 328.682162 
L 373.707238 304.295407 
L 374.019674 293.56499 
L 374.452682 315.025313 
L 374.738422 289.662741 
L 375.046438 309.172451 
L 375.483888 322.8293 
L 375.774048 314.050007 
L 376.22047 311.123576 
L 376.501658 275.030586 
L 377.28288 329.65798 
L 377.709214 275.030586 
L 378.03281 315.025313 
L 378.479254 336.486148 
L 378.74484 317.952256 
L 379.06627 315.025313 
L 379.523786 324.780424 
L 379.952374 292.589172 
L 380.275992 301.368976 
L 380.711254 284.785697 
L 380.988 281.859266 
L 381.304944 286.73631 
L 381.740206 316.976438 
L 382.03704 322.8293 
L 382.483462 312.098882 
L 382.925398 332.584411 
L 383.233414 307.221838 
L 383.507928 301.368976 
L 383.94319 317.952256 
L 384.260112 323.805118 
L 384.731064 316.001131 
L 385.00339 303.319589 
L 385.315848 296.491421 
L 385.753342 276.98171 
L 386.19751 316.001131 
L 386.47651 313.0747 
L 386.951904 287.712128 
L 387.237578 296.491421 
L 387.53892 288.687434 
L 388.009872 312.098882 
L 388.641506 313.0747 
L 390.77753 302.344283 
L 390.77753 302.344283 
" clip-path="url(#pcf73839bb5)" style="fill: none; stroke: #525252; stroke-width: 1.5; stroke-linecap: square"/>
   </g>
   <g id="patch_7">
    <path d="M 54 384.48 
L 54 251.424 
" style="fill: none; stroke: #000000; stroke-width: 0.5; stroke-linejoin: miter; stroke-linecap: square"/>
   </g>
   <g id="patch_8">
    <path d="M 54 384.48 
L 388.8 384.48 
" style="fill: none; stroke: #000000; stroke-width: 0.5; stroke-linejoin: miter; stroke-linecap: square"/>
   </g>
   <g id="text_37">
    <!-- 104 m/z for Dynamic TGA -->
    <g transform="translate(163.888281 245.424) scale(0.1 -0.1)">
     <defs>
      <path id="Helvetica-2f" d="M 1456 4591 
L 1931 4591 
L 475 0 
L 0 0 
L 1456 4591 
z
" transform="scale(0.015625)"/>
      <path id="Helvetica-66" d="M 553 3856 
Q 566 4206 675 4369 
Q 872 4656 1434 4656 
Q 1488 4656 1544 4653 
Q 1600 4650 1672 4644 
L 1672 4131 
Q 1584 4138 1545 4139 
Q 1506 4141 1472 4141 
Q 1216 4141 1166 4008 
Q 1116 3875 1116 3331 
L 1672 3331 
L 1672 2888 
L 1109 2888 
L 1109 0 
L 553 0 
L 553 2888 
L 88 2888 
L 88 3331 
L 553 3331 
L 553 3856 
z
" transform="scale(0.015625)"/>
     </defs>
     <use xlink:href="#Helvetica-31"/>
     <use xlink:href="#Helvetica-30" x="55.615234"/>
     <use xlink:href="#Helvetica-34" x="111.230469"/>
     <use xlink:href="#Helvetica-20" x="166.845703"/>
     <use xlink:href="#Helvetica-6d" x="194.628906"/>
     <use xlink:href="#Helvetica-2f" x="277.929688"/>
     <use xlink:href="#Helvetica-7a" x="305.712891"/>
     <use xlink:href="#Helvetica-20" x="355.712891"/>
     <use xlink:href="#Helvetica-66" x="383.496094"/>
     <use xlink:href="#Helvetica-6f" x="411.279297"/>
     <use xlink:href="#Helvetica-72" x="466.894531"/>
     <use xlink:href="#Helvetica-20" x="500.195312"/>
     <use xlink:href="#Helvetica-44" x="527.978516"/>
     <use xlink:href="#Helvetica-79" x="600.195312"/>
     <use xlink:href="#Helvetica-6e" x="650.195312"/>
     <use xlink:href="#Helvetica-61" x="705.810547"/>
     <use xlink:href="#Helvetica-6d" x="761.425781"/>
     <use xlink:href="#Helvetica-69" x="844.726562"/>
     <use xlink:href="#Helvetica-63" x="866.943359"/>
     <use xlink:href="#Helvetica-20" x="916.943359"/>
     <use xlink:href="#Helvetica-54" x="944.726562"/>
     <use xlink:href="#Helvetica-47" x="1005.810547"/>
     <use xlink:href="#Helvetica-41" x="1083.59375"/>
    </g>
   </g>
   <g id="legend_2">
    <g id="patch_9">
     <path d="M 61 273.681812 
L 133.023438 273.681812 
Q 135.023438 273.681812 135.023438 271.681812 
L 135.023438 258.424 
Q 135.023438 256.424 133.023438 256.424 
L 61 256.424 
Q 59 256.424 59 258.424 
L 59 271.681812 
Q 59 273.681812 61 273.681812 
z
" style="fill: #ffffff; opacity: 0.8; stroke: #cccccc; stroke-linejoin: miter"/>
    </g>
    <g id="line2d_37">
     <path d="M 63 264.097437 
L 73 264.097437 
L 83 264.097437 
" style="fill: none; stroke: #525252; stroke-width: 1.5; stroke-linecap: square"/>
    </g>
    <g id="text_38">
     <!-- PS-110K -->
     <g transform="translate(91 267.597437) scale(0.1 -0.1)">
      <use xlink:href="#Helvetica-50"/>
      <use xlink:href="#Helvetica-53" x="66.699219"/>
      <use xlink:href="#Helvetica-2d" x="133.398438"/>
      <use xlink:href="#Helvetica-31" x="166.699219"/>
      <use xlink:href="#Helvetica-31" x="222.314453"/>
      <use xlink:href="#Helvetica-30" x="277.929688"/>
      <use xlink:href="#Helvetica-4b" x="333.544922"/>
     </g>
    </g>
   </g>
  </g>
 </g>
 <defs>
  <clipPath id="p779ca3157e">
   <rect x="54" y="51.84" width="334.8" height="133.056"/>
  </clipPath>
  <clipPath id="pcf73839bb5">
   <rect x="54" y="251.424" width="334.8" height="133.056"/>
  </clipPath>
 </defs>
</svg>
