<?xml version="1.0" encoding="utf-8" standalone="no"?>
<!DOCTYPE svg PUBLIC "-//W3C//DTD SVG 1.1//EN"
  "http://www.w3.org/Graphics/SVG/1.1/DTD/svg11.dtd">
<svg xmlns:xlink="http://www.w3.org/1999/xlink" width="432pt" height="432pt" viewBox="0 0 432 432" xmlns="http://www.w3.org/2000/svg" version="1.1">
 <metadata>
  <rdf:RDF xmlns:dc="http://purl.org/dc/elements/1.1/" xmlns:cc="http://creativecommons.org/ns#" xmlns:rdf="http://www.w3.org/1999/02/22-rdf-syntax-ns#">
   <cc:Work>
    <dc:type rdf:resource="http://purl.org/dc/dcmitype/StillImage"/>
    <dc:date>2025-07-02T20:43:40.363039</dc:date>
    <dc:format>image/svg+xml</dc:format>
    <dc:creator>
     <cc:Agent>
      <dc:title>Matplotlib v3.7.1, https://matplotlib.org/</dc:title>
     </cc:Agent>
    </dc:creator>
   </cc:Work>
  </rdf:RDF>
 </metadata>
 <defs>
  <style type="text/css">*{stroke-linejoin: round; stroke-linecap: butt}</style>
 </defs>
 <g id="figure_1">
  <g id="patch_1">
   <path d="M 0 432 
L 432 432 
L 432 0 
L 0 0 
z
" style="fill: #ffffff"/>
  </g>
  <g id="axes_1">
   <g id="patch_2">
    <path d="M 54 184.896 
L 388.8 184.896 
L 388.8 51.84 
L 54 51.84 
z
" style="fill: #ffffff"/>
   </g>
   <g id="matplotlib.axis_1">
    <g id="xtick_1">
     <g id="line2d_1">
      <defs>
       <path id="m7257f77081" d="M 0 0 
L 0 -3.5 
" style="stroke: #000000; stroke-width: 0.8"/>
      </defs>
      <g>
       <use xlink:href="#m7257f77081" x="76.32" y="184.896" style="stroke: #000000; stroke-width: 0.8"/>
      </g>
     </g>
     <g id="text_1">
      <!-- 260 -->
      <g transform="translate(68.685 194.47475) scale(0.08 -0.08)">
       <defs>
        <path id="DejaVuSans-32" d="M 1228 531 
L 3431 531 
L 3431 0 
L 469 0 
L 469 531 
Q 828 903 1448 1529 
Q 2069 2156 2228 2338 
Q 2531 2678 2651 2914 
Q 2772 3150 2772 3378 
Q 2772 3750 2511 3984 
Q 2250 4219 1831 4219 
Q 1534 4219 1204 4116 
Q 875 4013 500 3803 
L 500 4441 
Q 881 4594 1212 4672 
Q 1544 4750 1819 4750 
Q 2544 4750 2975 4387 
Q 3406 4025 3406 3419 
Q 3406 3131 3298 2873 
Q 3191 2616 2906 2266 
Q 2828 2175 2409 1742 
Q 1991 1309 1228 531 
z
" transform="scale(0.015625)"/>
        <path id="DejaVuSans-36" d="M 2113 2584 
Q 1688 2584 1439 2293 
Q 1191 2003 1191 1497 
Q 1191 994 1439 701 
Q 1688 409 2113 409 
Q 2538 409 2786 701 
Q 3034 994 3034 1497 
Q 3034 2003 2786 2293 
Q 2538 2584 2113 2584 
z
M 3366 4563 
L 3366 3988 
Q 3128 4100 2886 4159 
Q 2644 4219 2406 4219 
Q 1781 4219 1451 3797 
Q 1122 3375 1075 2522 
Q 1259 2794 1537 2939 
Q 1816 3084 2150 3084 
Q 2853 3084 3261 2657 
Q 3669 2231 3669 1497 
Q 3669 778 3244 343 
Q 2819 -91 2113 -91 
Q 1303 -91 875 529 
Q 447 1150 447 2328 
Q 447 3434 972 4092 
Q 1497 4750 2381 4750 
Q 2619 4750 2861 4703 
Q 3103 4656 3366 4563 
z
" transform="scale(0.015625)"/>
        <path id="DejaVuSans-30" d="M 2034 4250 
Q 1547 4250 1301 3770 
Q 1056 3291 1056 2328 
Q 1056 1369 1301 889 
Q 1547 409 2034 409 
Q 2525 409 2770 889 
Q 3016 1369 3016 2328 
Q 3016 3291 2770 3770 
Q 2525 4250 2034 4250 
z
M 2034 4750 
Q 2819 4750 3233 4129 
Q 3647 3509 3647 2328 
Q 3647 1150 3233 529 
Q 2819 -91 2034 -91 
Q 1250 -91 836 529 
Q 422 1150 422 2328 
Q 422 3509 836 4129 
Q 1250 4750 2034 4750 
z
" transform="scale(0.015625)"/>
       </defs>
       <use xlink:href="#DejaVuSans-32"/>
       <use xlink:href="#DejaVuSans-36" x="63.623047"/>
       <use xlink:href="#DejaVuSans-30" x="127.246094"/>
      </g>
     </g>
    </g>
    <g id="xtick_2">
     <g id="line2d_2">
      <g>
       <use xlink:href="#m7257f77081" x="120.96" y="184.896" style="stroke: #000000; stroke-width: 0.8"/>
      </g>
     </g>
     <g id="text_2">
      <!-- 280 -->
      <g transform="translate(113.325 194.47475) scale(0.08 -0.08)">
       <defs>
        <path id="DejaVuSans-38" d="M 2034 2216 
Q 1584 2216 1326 1975 
Q 1069 1734 1069 1313 
Q 1069 891 1326 650 
Q 1584 409 2034 409 
Q 2484 409 2743 651 
Q 3003 894 3003 1313 
Q 3003 1734 2745 1975 
Q 2488 2216 2034 2216 
z
M 1403 2484 
Q 997 2584 770 2862 
Q 544 3141 544 3541 
Q 544 4100 942 4425 
Q 1341 4750 2034 4750 
Q 2731 4750 3128 4425 
Q 3525 4100 3525 3541 
Q 3525 3141 3298 2862 
Q 3072 2584 2669 2484 
Q 3125 2378 3379 2068 
Q 3634 1759 3634 1313 
Q 3634 634 3220 271 
Q 2806 -91 2034 -91 
Q 1263 -91 848 271 
Q 434 634 434 1313 
Q 434 1759 690 2068 
Q 947 2378 1403 2484 
z
M 1172 3481 
Q 1172 3119 1398 2916 
Q 1625 2713 2034 2713 
Q 2441 2713 2670 2916 
Q 2900 3119 2900 3481 
Q 2900 3844 2670 4047 
Q 2441 4250 2034 4250 
Q 1625 4250 1398 4047 
Q 1172 3844 1172 3481 
z
" transform="scale(0.015625)"/>
       </defs>
       <use xlink:href="#DejaVuSans-32"/>
       <use xlink:href="#DejaVuSans-38" x="63.623047"/>
       <use xlink:href="#DejaVuSans-30" x="127.246094"/>
      </g>
     </g>
    </g>
    <g id="xtick_3">
     <g id="line2d_3">
      <g>
       <use xlink:href="#m7257f77081" x="165.6" y="184.896" style="stroke: #000000; stroke-width: 0.8"/>
      </g>
     </g>
     <g id="text_3">
      <!-- 300 -->
      <g transform="translate(157.965 194.47475) scale(0.08 -0.08)">
       <defs>
        <path id="DejaVuSans-33" d="M 2597 2516 
Q 3050 2419 3304 2112 
Q 3559 1806 3559 1356 
Q 3559 666 3084 287 
Q 2609 -91 1734 -91 
Q 1441 -91 1130 -33 
Q 819 25 488 141 
L 488 750 
Q 750 597 1062 519 
Q 1375 441 1716 441 
Q 2309 441 2620 675 
Q 2931 909 2931 1356 
Q 2931 1769 2642 2001 
Q 2353 2234 1838 2234 
L 1294 2234 
L 1294 2753 
L 1863 2753 
Q 2328 2753 2575 2939 
Q 2822 3125 2822 3475 
Q 2822 3834 2567 4026 
Q 2313 4219 1838 4219 
Q 1578 4219 1281 4162 
Q 984 4106 628 3988 
L 628 4550 
Q 988 4650 1302 4700 
Q 1616 4750 1894 4750 
Q 2613 4750 3031 4423 
Q 3450 4097 3450 3541 
Q 3450 3153 3228 2886 
Q 3006 2619 2597 2516 
z
" transform="scale(0.015625)"/>
       </defs>
       <use xlink:href="#DejaVuSans-33"/>
       <use xlink:href="#DejaVuSans-30" x="63.623047"/>
       <use xlink:href="#DejaVuSans-30" x="127.246094"/>
      </g>
     </g>
    </g>
    <g id="xtick_4">
     <g id="line2d_4">
      <g>
       <use xlink:href="#m7257f77081" x="210.24" y="184.896" style="stroke: #000000; stroke-width: 0.8"/>
      </g>
     </g>
     <g id="text_4">
      <!-- 320 -->
      <g transform="translate(202.605 194.47475) scale(0.08 -0.08)">
       <use xlink:href="#DejaVuSans-33"/>
       <use xlink:href="#DejaVuSans-32" x="63.623047"/>
       <use xlink:href="#DejaVuSans-30" x="127.246094"/>
      </g>
     </g>
    </g>
    <g id="xtick_5">
     <g id="line2d_5">
      <g>
       <use xlink:href="#m7257f77081" x="254.88" y="184.896" style="stroke: #000000; stroke-width: 0.8"/>
      </g>
     </g>
     <g id="text_5">
      <!-- 340 -->
      <g transform="translate(247.245 194.47475) scale(0.08 -0.08)">
       <defs>
        <path id="DejaVuSans-34" d="M 2419 4116 
L 825 1625 
L 2419 1625 
L 2419 4116 
z
M 2253 4666 
L 3047 4666 
L 3047 1625 
L 3713 1625 
L 3713 1100 
L 3047 1100 
L 3047 0 
L 2419 0 
L 2419 1100 
L 313 1100 
L 313 1709 
L 2253 4666 
z
" transform="scale(0.015625)"/>
       </defs>
       <use xlink:href="#DejaVuSans-33"/>
       <use xlink:href="#DejaVuSans-34" x="63.623047"/>
       <use xlink:href="#DejaVuSans-30" x="127.246094"/>
      </g>
     </g>
    </g>
    <g id="xtick_6">
     <g id="line2d_6">
      <g>
       <use xlink:href="#m7257f77081" x="299.52" y="184.896" style="stroke: #000000; stroke-width: 0.8"/>
      </g>
     </g>
     <g id="text_6">
      <!-- 360 -->
      <g transform="translate(291.885 194.47475) scale(0.08 -0.08)">
       <use xlink:href="#DejaVuSans-33"/>
       <use xlink:href="#DejaVuSans-36" x="63.623047"/>
       <use xlink:href="#DejaVuSans-30" x="127.246094"/>
      </g>
     </g>
    </g>
    <g id="xtick_7">
     <g id="line2d_7">
      <g>
       <use xlink:href="#m7257f77081" x="344.16" y="184.896" style="stroke: #000000; stroke-width: 0.8"/>
      </g>
     </g>
     <g id="text_7">
      <!-- 380 -->
      <g transform="translate(336.525 194.47475) scale(0.08 -0.08)">
       <use xlink:href="#DejaVuSans-33"/>
       <use xlink:href="#DejaVuSans-38" x="63.623047"/>
       <use xlink:href="#DejaVuSans-30" x="127.246094"/>
      </g>
     </g>
    </g>
    <g id="xtick_8">
     <g id="line2d_8">
      <g>
       <use xlink:href="#m7257f77081" x="388.8" y="184.896" style="stroke: #000000; stroke-width: 0.8"/>
      </g>
     </g>
     <g id="text_8">
      <!-- 400 -->
      <g transform="translate(381.165 194.47475) scale(0.08 -0.08)">
       <use xlink:href="#DejaVuSans-34"/>
       <use xlink:href="#DejaVuSans-30" x="63.623047"/>
       <use xlink:href="#DejaVuSans-30" x="127.246094"/>
      </g>
     </g>
    </g>
    <g id="text_9">
     <!-- Temp ($^{o}$C) -->
     <g transform="translate(195.9 207.9385) scale(0.1 -0.1)">
      <defs>
       <path id="DejaVuSans-54" d="M -19 4666 
L 3928 4666 
L 3928 4134 
L 2272 4134 
L 2272 0 
L 1638 0 
L 1638 4134 
L -19 4134 
L -19 4666 
z
" transform="scale(0.015625)"/>
       <path id="DejaVuSans-65" d="M 3597 1894 
L 3597 1613 
L 953 1613 
Q 991 1019 1311 708 
Q 1631 397 2203 397 
Q 2534 397 2845 478 
Q 3156 559 3463 722 
L 3463 178 
Q 3153 47 2828 -22 
Q 2503 -91 2169 -91 
Q 1331 -91 842 396 
Q 353 884 353 1716 
Q 353 2575 817 3079 
Q 1281 3584 2069 3584 
Q 2775 3584 3186 3129 
Q 3597 2675 3597 1894 
z
M 3022 2063 
Q 3016 2534 2758 2815 
Q 2500 3097 2075 3097 
Q 1594 3097 1305 2825 
Q 1016 2553 972 2059 
L 3022 2063 
z
" transform="scale(0.015625)"/>
       <path id="DejaVuSans-6d" d="M 3328 2828 
Q 3544 3216 3844 3400 
Q 4144 3584 4550 3584 
Q 5097 3584 5394 3201 
Q 5691 2819 5691 2113 
L 5691 0 
L 5113 0 
L 5113 2094 
Q 5113 2597 4934 2840 
Q 4756 3084 4391 3084 
Q 3944 3084 3684 2787 
Q 3425 2491 3425 1978 
L 3425 0 
L 2847 0 
L 2847 2094 
Q 2847 2600 2669 2842 
Q 2491 3084 2119 3084 
Q 1678 3084 1418 2786 
Q 1159 2488 1159 1978 
L 1159 0 
L 581 0 
L 581 3500 
L 1159 3500 
L 1159 2956 
Q 1356 3278 1631 3431 
Q 1906 3584 2284 3584 
Q 2666 3584 2933 3390 
Q 3200 3197 3328 2828 
z
" transform="scale(0.015625)"/>
       <path id="DejaVuSans-70" d="M 1159 525 
L 1159 -1331 
L 581 -1331 
L 581 3500 
L 1159 3500 
L 1159 2969 
Q 1341 3281 1617 3432 
Q 1894 3584 2278 3584 
Q 2916 3584 3314 3078 
Q 3713 2572 3713 1747 
Q 3713 922 3314 415 
Q 2916 -91 2278 -91 
Q 1894 -91 1617 61 
Q 1341 213 1159 525 
z
M 3116 1747 
Q 3116 2381 2855 2742 
Q 2594 3103 2138 3103 
Q 1681 3103 1420 2742 
Q 1159 2381 1159 1747 
Q 1159 1113 1420 752 
Q 1681 391 2138 391 
Q 2594 391 2855 752 
Q 3116 1113 3116 1747 
z
" transform="scale(0.015625)"/>
       <path id="DejaVuSans-20" transform="scale(0.015625)"/>
       <path id="DejaVuSans-28" d="M 1984 4856 
Q 1566 4138 1362 3434 
Q 1159 2731 1159 2009 
Q 1159 1288 1364 580 
Q 1569 -128 1984 -844 
L 1484 -844 
Q 1016 -109 783 600 
Q 550 1309 550 2009 
Q 550 2706 781 3412 
Q 1013 4119 1484 4856 
L 1984 4856 
z
" transform="scale(0.015625)"/>
       <path id="DejaVuSans-Oblique-6f" d="M 1625 -91 
Q 1009 -91 651 289 
Q 294 669 294 1325 
Q 294 1706 417 2101 
Q 541 2497 738 2766 
Q 1047 3184 1428 3384 
Q 1809 3584 2291 3584 
Q 2888 3584 3255 3212 
Q 3622 2841 3622 2241 
Q 3622 1825 3500 1412 
Q 3378 1000 3181 728 
Q 2875 309 2494 109 
Q 2113 -91 1625 -91 
z
M 891 1344 
Q 891 869 1089 633 
Q 1288 397 1691 397 
Q 2269 397 2648 901 
Q 3028 1406 3028 2181 
Q 3028 2634 2825 2865 
Q 2622 3097 2228 3097 
Q 1903 3097 1650 2945 
Q 1397 2794 1197 2484 
Q 1050 2253 970 1956 
Q 891 1659 891 1344 
z
" transform="scale(0.015625)"/>
       <path id="DejaVuSans-43" d="M 4122 4306 
L 4122 3641 
Q 3803 3938 3442 4084 
Q 3081 4231 2675 4231 
Q 1875 4231 1450 3742 
Q 1025 3253 1025 2328 
Q 1025 1406 1450 917 
Q 1875 428 2675 428 
Q 3081 428 3442 575 
Q 3803 722 4122 1019 
L 4122 359 
Q 3791 134 3420 21 
Q 3050 -91 2638 -91 
Q 1578 -91 968 557 
Q 359 1206 359 2328 
Q 359 3453 968 4101 
Q 1578 4750 2638 4750 
Q 3056 4750 3426 4639 
Q 3797 4528 4122 4306 
z
" transform="scale(0.015625)"/>
       <path id="DejaVuSans-29" d="M 513 4856 
L 1013 4856 
Q 1481 4119 1714 3412 
Q 1947 2706 1947 2009 
Q 1947 1309 1714 600 
Q 1481 -109 1013 -844 
L 513 -844 
Q 928 -128 1133 580 
Q 1338 1288 1338 2009 
Q 1338 2731 1133 3434 
Q 928 4138 513 4856 
z
" transform="scale(0.015625)"/>
      </defs>
      <use xlink:href="#DejaVuSans-54" transform="translate(0 0.51875)"/>
      <use xlink:href="#DejaVuSans-65" transform="translate(61.083984 0.51875)"/>
      <use xlink:href="#DejaVuSans-6d" transform="translate(122.607422 0.51875)"/>
      <use xlink:href="#DejaVuSans-70" transform="translate(220.019531 0.51875)"/>
      <use xlink:href="#DejaVuSans-20" transform="translate(283.496094 0.51875)"/>
      <use xlink:href="#DejaVuSans-28" transform="translate(315.283203 0.51875)"/>
      <use xlink:href="#DejaVuSans-Oblique-6f" transform="translate(355.253906 38.8) scale(0.7)"/>
      <use xlink:href="#DejaVuSans-43" transform="translate(400.81543 0.51875)"/>
      <use xlink:href="#DejaVuSans-29" transform="translate(470.639648 0.51875)"/>
     </g>
    </g>
   </g>
   <g id="matplotlib.axis_2">
    <g id="ytick_1">
     <g id="line2d_9">
      <defs>
       <path id="m779968ca36" d="M 0 0 
L 3.5 0 
" style="stroke: #000000; stroke-width: 0.8"/>
      </defs>
      <g>
       <use xlink:href="#m779968ca36" x="54" y="183.651509" style="stroke: #000000; stroke-width: 0.8"/>
      </g>
     </g>
     <g id="text_10">
      <!-- 0 -->
      <g transform="translate(45.41 186.690884) scale(0.08 -0.08)">
       <use xlink:href="#DejaVuSans-30"/>
      </g>
     </g>
    </g>
    <g id="ytick_2">
     <g id="line2d_10">
      <g>
       <use xlink:href="#m779968ca36" x="54" y="158.636881" style="stroke: #000000; stroke-width: 0.8"/>
      </g>
     </g>
     <g id="text_11">
      <!-- 20 -->
      <g transform="translate(40.32 161.676256) scale(0.08 -0.08)">
       <use xlink:href="#DejaVuSans-32"/>
       <use xlink:href="#DejaVuSans-30" x="63.623047"/>
      </g>
     </g>
    </g>
    <g id="ytick_3">
     <g id="line2d_11">
      <g>
       <use xlink:href="#m779968ca36" x="54" y="133.622252" style="stroke: #000000; stroke-width: 0.8"/>
      </g>
     </g>
     <g id="text_12">
      <!-- 40 -->
      <g transform="translate(40.32 136.661627) scale(0.08 -0.08)">
       <use xlink:href="#DejaVuSans-34"/>
       <use xlink:href="#DejaVuSans-30" x="63.623047"/>
      </g>
     </g>
    </g>
    <g id="ytick_4">
     <g id="line2d_12">
      <g>
       <use xlink:href="#m779968ca36" x="54" y="108.607623" style="stroke: #000000; stroke-width: 0.8"/>
      </g>
     </g>
     <g id="text_13">
      <!-- 60 -->
      <g transform="translate(40.32 111.646998) scale(0.08 -0.08)">
       <use xlink:href="#DejaVuSans-36"/>
       <use xlink:href="#DejaVuSans-30" x="63.623047"/>
      </g>
     </g>
    </g>
    <g id="ytick_5">
     <g id="line2d_13">
      <g>
       <use xlink:href="#m779968ca36" x="54" y="83.592995" style="stroke: #000000; stroke-width: 0.8"/>
      </g>
     </g>
     <g id="text_14">
      <!-- 80 -->
      <g transform="translate(40.32 86.63237) scale(0.08 -0.08)">
       <use xlink:href="#DejaVuSans-38"/>
       <use xlink:href="#DejaVuSans-30" x="63.623047"/>
      </g>
     </g>
    </g>
    <g id="ytick_6">
     <g id="line2d_14">
      <g>
       <use xlink:href="#m779968ca36" x="54" y="58.578366" style="stroke: #000000; stroke-width: 0.8"/>
      </g>
     </g>
     <g id="text_15">
      <!-- 100 -->
      <g transform="translate(35.23 61.617741) scale(0.08 -0.08)">
       <defs>
        <path id="DejaVuSans-31" d="M 794 531 
L 1825 531 
L 1825 4091 
L 703 3866 
L 703 4441 
L 1819 4666 
L 2450 4666 
L 2450 531 
L 3481 531 
L 3481 0 
L 794 0 
L 794 531 
z
" transform="scale(0.015625)"/>
       </defs>
       <use xlink:href="#DejaVuSans-31"/>
       <use xlink:href="#DejaVuSans-30" x="63.623047"/>
       <use xlink:href="#DejaVuSans-30" x="127.246094"/>
      </g>
     </g>
    </g>
    <g id="text_16">
     <!-- Mass (%) -->
     <g transform="translate(29.150313 141.196906) rotate(-90) scale(0.1 -0.1)">
      <defs>
       <path id="DejaVuSans-4d" d="M 628 4666 
L 1569 4666 
L 2759 1491 
L 3956 4666 
L 4897 4666 
L 4897 0 
L 4281 0 
L 4281 4097 
L 3078 897 
L 2444 897 
L 1241 4097 
L 1241 0 
L 628 0 
L 628 4666 
z
" transform="scale(0.015625)"/>
       <path id="DejaVuSans-61" d="M 2194 1759 
Q 1497 1759 1228 1600 
Q 959 1441 959 1056 
Q 959 750 1161 570 
Q 1363 391 1709 391 
Q 2188 391 2477 730 
Q 2766 1069 2766 1631 
L 2766 1759 
L 2194 1759 
z
M 3341 1997 
L 3341 0 
L 2766 0 
L 2766 531 
Q 2569 213 2275 61 
Q 1981 -91 1556 -91 
Q 1019 -91 701 211 
Q 384 513 384 1019 
Q 384 1609 779 1909 
Q 1175 2209 1959 2209 
L 2766 2209 
L 2766 2266 
Q 2766 2663 2505 2880 
Q 2244 3097 1772 3097 
Q 1472 3097 1187 3025 
Q 903 2953 641 2809 
L 641 3341 
Q 956 3463 1253 3523 
Q 1550 3584 1831 3584 
Q 2591 3584 2966 3190 
Q 3341 2797 3341 1997 
z
" transform="scale(0.015625)"/>
       <path id="DejaVuSans-73" d="M 2834 3397 
L 2834 2853 
Q 2591 2978 2328 3040 
Q 2066 3103 1784 3103 
Q 1356 3103 1142 2972 
Q 928 2841 928 2578 
Q 928 2378 1081 2264 
Q 1234 2150 1697 2047 
L 1894 2003 
Q 2506 1872 2764 1633 
Q 3022 1394 3022 966 
Q 3022 478 2636 193 
Q 2250 -91 1575 -91 
Q 1294 -91 989 -36 
Q 684 19 347 128 
L 347 722 
Q 666 556 975 473 
Q 1284 391 1588 391 
Q 1994 391 2212 530 
Q 2431 669 2431 922 
Q 2431 1156 2273 1281 
Q 2116 1406 1581 1522 
L 1381 1569 
Q 847 1681 609 1914 
Q 372 2147 372 2553 
Q 372 3047 722 3315 
Q 1072 3584 1716 3584 
Q 2034 3584 2315 3537 
Q 2597 3491 2834 3397 
z
" transform="scale(0.015625)"/>
       <path id="DejaVuSans-25" d="M 4653 2053 
Q 4381 2053 4226 1822 
Q 4072 1591 4072 1178 
Q 4072 772 4226 539 
Q 4381 306 4653 306 
Q 4919 306 5073 539 
Q 5228 772 5228 1178 
Q 5228 1588 5073 1820 
Q 4919 2053 4653 2053 
z
M 4653 2450 
Q 5147 2450 5437 2106 
Q 5728 1763 5728 1178 
Q 5728 594 5436 251 
Q 5144 -91 4653 -91 
Q 4153 -91 3862 251 
Q 3572 594 3572 1178 
Q 3572 1766 3864 2108 
Q 4156 2450 4653 2450 
z
M 1428 4353 
Q 1159 4353 1004 4120 
Q 850 3888 850 3481 
Q 850 3069 1003 2837 
Q 1156 2606 1428 2606 
Q 1700 2606 1854 2837 
Q 2009 3069 2009 3481 
Q 2009 3884 1853 4118 
Q 1697 4353 1428 4353 
z
M 4250 4750 
L 4750 4750 
L 1831 -91 
L 1331 -91 
L 4250 4750 
z
M 1428 4750 
Q 1922 4750 2215 4408 
Q 2509 4066 2509 3481 
Q 2509 2891 2217 2550 
Q 1925 2209 1428 2209 
Q 931 2209 642 2551 
Q 353 2894 353 3481 
Q 353 4063 643 4406 
Q 934 4750 1428 4750 
z
" transform="scale(0.015625)"/>
      </defs>
      <use xlink:href="#DejaVuSans-4d"/>
      <use xlink:href="#DejaVuSans-61" x="86.279297"/>
      <use xlink:href="#DejaVuSans-73" x="147.558594"/>
      <use xlink:href="#DejaVuSans-73" x="199.658203"/>
      <use xlink:href="#DejaVuSans-20" x="251.757812"/>
      <use xlink:href="#DejaVuSans-28" x="283.544922"/>
      <use xlink:href="#DejaVuSans-25" x="322.558594"/>
      <use xlink:href="#DejaVuSans-29" x="417.578125"/>
     </g>
    </g>
   </g>
   <g id="line2d_15">
    <path d="M 54.008928 58.578366 
L 66.465742 58.475031 
L 67.188888 58.443475 
L 67.813848 58.475031 
L 68.876302 58.427578 
L 81.975888 58.332185 
L 82.41557 58.332185 
L 97.309706 58.229087 
L 98.048498 58.205248 
L 112.174848 58.110092 
L 112.93596 58.086253 
L 133.171294 57.991098 
L 133.760498 57.991098 
L 199.642486 58.10215 
L 200.249546 58.118047 
L 205.773746 58.205248 
L 206.195594 58.237042 
L 207.23796 58.237042 
L 213.045602 58.340139 
L 213.639358 58.356036 
L 218.116706 58.467076 
L 219.025152 58.522721 
L 222.725786 58.617877 
L 223.312802 58.64967 
L 225.864 58.744814 
L 226.593864 58.784562 
L 229.263358 58.877141 
L 230.290056 58.951247 
L 233.140342 59.062287 
L 234.184896 59.141546 
L 236.27849 59.244868 
L 236.863318 59.308231 
L 237.16908 59.310795 
L 237.905618 59.374394 
L 239.666666 59.469537 
L 240.72912 59.564693 
L 242.193334 59.660074 
L 243.224541 59.755217 
L 244.583762 59.850373 
L 245.456541 59.945753 
L 246.641666 60.040897 
L 247.384944 60.136052 
L 248.29781 60.231195 
L 248.913864 60.262989 
L 249.813382 60.358145 
L 250.712856 60.453525 
L 250.989602 60.493036 
L 252.025294 60.619973 
L 252.74623 60.715366 
L 253.94477 60.858199 
L 254.84873 60.955919 
L 256.489294 61.212619 
L 257.219136 61.307762 
L 264.526682 62.516419 
L 264.957502 62.611562 
L 272.686896 64.444647 
L 276.534864 65.60046 
L 277.590578 65.962822 
L 278.501278 66.227227 
L 279.217706 66.523425 
L 280.266746 66.949149 
L 281.025626 67.195318 
L 281.594786 67.427929 
L 284.14373 68.486023 
L 284.893682 68.800694 
L 290.527294 71.664982 
L 293.835096 73.62758 
L 294.252502 73.921214 
L 295.239024 74.532083 
L 295.455506 74.701345 
L 297.553586 76.18515 
L 297.973246 76.513155 
L 298.723198 77.063239 
L 301.410459 79.258447 
L 302.586746 80.292465 
L 303.162602 80.787141 
L 304.18488 81.752431 
L 305.990546 83.442669 
L 307.472594 84.98726 
L 308.079698 85.585047 
L 309.126506 86.701112 
L 310.021538 87.743084 
L 315.826992 94.902871 
L 319.241952 99.682079 
L 319.98523 100.803522 
L 322.22165 104.225848 
L 329.042642 115.884541 
L 334.381586 125.85556 
L 335.127096 127.328847 
L 335.58912 128.183084 
L 344.825136 146.035811 
L 345.447864 147.152127 
L 346.02151 148.302562 
L 347.356246 150.73576 
L 349.608334 154.597368 
L 350.342618 155.821909 
L 351.693 158.009176 
L 353.15496 160.26517 
L 354.049992 161.553299 
L 356.587754 165.023328 
L 356.802048 165.182058 
L 357.19488 165.729578 
L 357.790802 166.443784 
L 360.781682 169.598891 
L 365.357326 173.283296 
L 366.294722 173.777973 
L 367.314746 174.391419 
L 367.475494 174.399361 
L 367.901762 174.682476 
L 369.412848 175.364888 
L 371.486398 176.155538 
L 372.30773 176.404271 
L 372.52651 176.48353 
L 373.908096 176.882827 
L 374.318762 176.98336 
L 379.97465 178.030935 
L 380.87419 178.134032 
L 382.786992 178.379964 
L 383.831546 178.475119 
L 384.880586 178.602056 
L 386.480952 178.697212 
L 387.543406 178.792593 
L 392.05651 178.689495 
L 394.85988 178.567686 
L 402.680786 178.210702 
L 405.35249 178.102226 
L 409.468342 178.020178 
L 413.046238 177.917081 
L 416.470104 177.872192 
L 426.123459 177.768856 
L 427.893502 177.745243 
L 433 177.713449 
L 433 177.713449 
" clip-path="url(#pa32ac394d2)" style="fill: none; stroke: #bdbdbd; stroke-width: 1.5; stroke-linecap: square"/>
   </g>
   <g id="line2d_16">
    <path d="M 54.03127 58.578366 
L 64.742616 58.486162 
L 65.182298 58.486162 
L 77.802048 58.393971 
L 78.295342 58.42734 
L 87.026904 58.326732 
L 87.50453 58.293112 
L 87.92861 58.332422 
L 101.026008 58.248373 
L 101.481358 58.248373 
L 150.813 58.332422 
L 151.26835 58.332422 
L 152.324064 58.315613 
L 152.768254 58.35466 
L 153.203494 58.35466 
L 164.693786 58.463674 
L 167.057541 58.497281 
L 173.907459 58.59814 
L 174.34723 58.63151 
L 178.382642 58.723951 
L 179.09023 58.757321 
L 182.50519 58.858167 
L 183.563136 58.883132 
L 184.016254 58.858167 
L 184.612198 58.925157 
L 185.06304 58.899942 
L 185.76612 58.925157 
L 188.908754 59.034158 
L 189.509206 59.059373 
L 192.787992 59.168386 
L 193.091522 59.196565 
L 196.062358 59.297162 
L 196.798896 59.347341 
L 198.138096 59.397758 
L 200.669206 59.498367 
L 201.394562 59.557201 
L 203.79173 59.666202 
L 204.40553 59.699822 
L 206.177738 59.800418 
L 206.80051 59.834038 
L 208.592762 59.934634 
L 209.16643 59.968254 
L 210.666334 60.068863 
L 211.382762 60.094065 
L 213.166152 60.194674 
L 214.050024 60.287116 
L 215.849016 60.396129 
L 216.607896 60.463356 
L 218.081016 60.563965 
L 218.848802 60.630942 
L 220.337546 60.731801 
L 221.225904 60.832397 
L 223.761478 61.033602 
L 224.819446 61.134449 
L 225.71892 61.235057 
L 226.875096 61.335654 
L 238.78949 62.778698 
L 239.83853 62.946533 
L 240.579554 63.04713 
L 244.146334 63.62034 
L 245.32704 63.821795 
L 246.06139 63.925368 
L 246.797928 64.059584 
L 258.837358 66.713311 
L 259.431048 66.886575 
L 260.917538 67.294926 
L 261.370634 67.437547 
L 262.87277 67.857005 
L 263.287944 67.993947 
L 264.057984 68.240141 
L 272.06861 71.067382 
L 272.528446 71.276992 
L 273.42792 71.59858 
L 275.06623 72.30328 
L 275.378666 72.445913 
L 275.813928 72.622154 
L 276.711214 73.024802 
L 285.578928 77.613948 
L 286.489562 78.150825 
L 287.101152 78.497615 
L 287.677008 78.852573 
L 289.199254 79.834122 
L 292.904374 82.348192 
L 293.33957 82.686577 
L 293.638658 82.854413 
L 295.13412 83.989714 
L 296.62061 85.133421 
L 297.192024 85.617154 
L 297.526802 85.852216 
L 298.25892 86.498094 
L 298.562494 86.691144 
L 299.140538 87.219616 
L 299.886048 87.85166 
L 302.294398 89.960106 
L 303.01308 90.715235 
L 303.921459 91.537366 
L 309.70908 97.348314 
L 315.510048 103.95075 
L 316.099318 104.72813 
L 317.157286 105.983801 
L 317.608128 106.501154 
L 319.070088 108.38318 
L 319.815554 109.386979 
L 320.418238 110.116906 
L 323.40019 114.079448 
L 326.507112 118.360852 
L 327.11647 119.213876 
L 327.721342 120.038708 
L 328.169952 120.58399 
L 328.45788 121.050913 
L 331.134048 124.971681 
L 332.031334 126.21896 
L 333.207554 127.983329 
L 334.24992 129.490636 
L 335.441786 131.199385 
L 336.20292 132.284257 
L 340.06649 137.952847 
L 340.370064 138.341412 
L 340.809746 138.981849 
L 350.748864 152.446748 
L 352.246514 154.225201 
L 352.84027 154.963532 
L 355.561056 157.980859 
L 355.994064 158.442342 
L 361.34419 163.693938 
L 362.837398 165.002753 
L 363.38647 165.357949 
L 363.424414 165.494891 
L 363.743546 165.721549 
L 364.473454 166.289081 
L 364.935478 166.585441 
L 365.515754 167.055341 
L 365.96443 167.346274 
L 366.553634 167.824316 
L 366.99557 168.084343 
L 368.807976 169.20012 
L 369.850342 169.815355 
L 372.068928 171.071027 
L 372.691634 171.353555 
L 374.452682 172.220412 
L 374.59553 172.228817 
L 374.905778 172.396652 
L 376.501658 173.050935 
L 376.96819 173.246699 
L 382.188794 174.893663 
L 388.793326 176.249943 
L 392.889024 176.143906 
L 396.652198 175.942451 
L 399.372984 175.841855 
L 403.379446 175.674019 
L 406.49081 175.620875 
L 411.517318 175.514588 
L 414.202414 175.469837 
L 425.833366 175.360836 
L 427.355546 175.335621 
L 433 175.365614 
L 433 175.365614 
" clip-path="url(#pa32ac394d2)" style="fill: none; stroke: #74a9cf; stroke-width: 1.5; stroke-linecap: square"/>
   </g>
   <g id="line2d_17">
    <path d="M 54 59.203732 
L 388.8 59.203732 
" clip-path="url(#pa32ac394d2)" style="fill: none; stroke-dasharray: 1.11,0.48; stroke-dashoffset: 0; stroke: #ff0000; stroke-width: 0.3"/>
   </g>
   <g id="patch_3">
    <path d="M 54 184.896 
L 54 51.84 
" style="fill: none; stroke: #000000; stroke-width: 0.5; stroke-linejoin: miter; stroke-linecap: square"/>
   </g>
   <g id="patch_4">
    <path d="M 54 184.896 
L 388.8 184.896 
" style="fill: none; stroke: #000000; stroke-width: 0.5; stroke-linejoin: miter; stroke-linecap: square"/>
   </g>
   <g id="text_17">
    <!-- Dynamic TGA -->
    <g transform="translate(187.411719 45.84) scale(0.1 -0.1)">
     <defs>
      <path id="DejaVuSans-44" d="M 1259 4147 
L 1259 519 
L 2022 519 
Q 2988 519 3436 956 
Q 3884 1394 3884 2338 
Q 3884 3275 3436 3711 
Q 2988 4147 2022 4147 
L 1259 4147 
z
M 628 4666 
L 1925 4666 
Q 3281 4666 3915 4102 
Q 4550 3538 4550 2338 
Q 4550 1131 3912 565 
Q 3275 0 1925 0 
L 628 0 
L 628 4666 
z
" transform="scale(0.015625)"/>
      <path id="DejaVuSans-79" d="M 2059 -325 
Q 1816 -950 1584 -1140 
Q 1353 -1331 966 -1331 
L 506 -1331 
L 506 -850 
L 844 -850 
Q 1081 -850 1212 -737 
Q 1344 -625 1503 -206 
L 1606 56 
L 191 3500 
L 800 3500 
L 1894 763 
L 2988 3500 
L 3597 3500 
L 2059 -325 
z
" transform="scale(0.015625)"/>
      <path id="DejaVuSans-6e" d="M 3513 2113 
L 3513 0 
L 2938 0 
L 2938 2094 
Q 2938 2591 2744 2837 
Q 2550 3084 2163 3084 
Q 1697 3084 1428 2787 
Q 1159 2491 1159 1978 
L 1159 0 
L 581 0 
L 581 3500 
L 1159 3500 
L 1159 2956 
Q 1366 3272 1645 3428 
Q 1925 3584 2291 3584 
Q 2894 3584 3203 3211 
Q 3513 2838 3513 2113 
z
" transform="scale(0.015625)"/>
      <path id="DejaVuSans-69" d="M 603 3500 
L 1178 3500 
L 1178 0 
L 603 0 
L 603 3500 
z
M 603 4863 
L 1178 4863 
L 1178 4134 
L 603 4134 
L 603 4863 
z
" transform="scale(0.015625)"/>
      <path id="DejaVuSans-63" d="M 3122 3366 
L 3122 2828 
Q 2878 2963 2633 3030 
Q 2388 3097 2138 3097 
Q 1578 3097 1268 2742 
Q 959 2388 959 1747 
Q 959 1106 1268 751 
Q 1578 397 2138 397 
Q 2388 397 2633 464 
Q 2878 531 3122 666 
L 3122 134 
Q 2881 22 2623 -34 
Q 2366 -91 2075 -91 
Q 1284 -91 818 406 
Q 353 903 353 1747 
Q 353 2603 823 3093 
Q 1294 3584 2113 3584 
Q 2378 3584 2631 3529 
Q 2884 3475 3122 3366 
z
" transform="scale(0.015625)"/>
      <path id="DejaVuSans-47" d="M 3809 666 
L 3809 1919 
L 2778 1919 
L 2778 2438 
L 4434 2438 
L 4434 434 
Q 4069 175 3628 42 
Q 3188 -91 2688 -91 
Q 1594 -91 976 548 
Q 359 1188 359 2328 
Q 359 3472 976 4111 
Q 1594 4750 2688 4750 
Q 3144 4750 3555 4637 
Q 3966 4525 4313 4306 
L 4313 3634 
Q 3963 3931 3569 4081 
Q 3175 4231 2741 4231 
Q 1884 4231 1454 3753 
Q 1025 3275 1025 2328 
Q 1025 1384 1454 906 
Q 1884 428 2741 428 
Q 3075 428 3337 486 
Q 3600 544 3809 666 
z
" transform="scale(0.015625)"/>
      <path id="DejaVuSans-41" d="M 2188 4044 
L 1331 1722 
L 3047 1722 
L 2188 4044 
z
M 1831 4666 
L 2547 4666 
L 4325 0 
L 3669 0 
L 3244 1197 
L 1141 1197 
L 716 0 
L 50 0 
L 1831 4666 
z
" transform="scale(0.015625)"/>
     </defs>
     <use xlink:href="#DejaVuSans-44"/>
     <use xlink:href="#DejaVuSans-79" x="77.001953"/>
     <use xlink:href="#DejaVuSans-6e" x="136.181641"/>
     <use xlink:href="#DejaVuSans-61" x="199.560547"/>
     <use xlink:href="#DejaVuSans-6d" x="260.839844"/>
     <use xlink:href="#DejaVuSans-69" x="358.251953"/>
     <use xlink:href="#DejaVuSans-63" x="386.035156"/>
     <use xlink:href="#DejaVuSans-20" x="441.015625"/>
     <use xlink:href="#DejaVuSans-54" x="472.802734"/>
     <use xlink:href="#DejaVuSans-47" x="533.886719"/>
     <use xlink:href="#DejaVuSans-41" x="611.376953"/>
    </g>
   </g>
   <g id="legend_1">
    <g id="patch_5">
     <path d="M 61 179.896 
L 236.8 179.896 
Q 238.8 179.896 238.8 177.896 
L 238.8 133.841312 
Q 238.8 131.841312 236.8 131.841312 
L 61 131.841312 
Q 59 131.841312 59 133.841312 
L 59 177.896 
Q 59 179.896 61 179.896 
z
" style="fill: #ffffff; opacity: 0.8; stroke: #cccccc; stroke-linejoin: miter"/>
    </g>
    <g id="line2d_18">
     <path d="M 63 139.93975 
L 73 139.93975 
L 83 139.93975 
" style="fill: none; stroke: #bdbdbd; stroke-width: 1.5; stroke-linecap: square"/>
    </g>
    <g id="text_18">
     <!-- PS-10K -->
     <g transform="translate(91 143.43975) scale(0.1 -0.1)">
      <defs>
       <path id="DejaVuSans-50" d="M 1259 4147 
L 1259 2394 
L 2053 2394 
Q 2494 2394 2734 2622 
Q 2975 2850 2975 3272 
Q 2975 3691 2734 3919 
Q 2494 4147 2053 4147 
L 1259 4147 
z
M 628 4666 
L 2053 4666 
Q 2838 4666 3239 4311 
Q 3641 3956 3641 3272 
Q 3641 2581 3239 2228 
Q 2838 1875 2053 1875 
L 1259 1875 
L 1259 0 
L 628 0 
L 628 4666 
z
" transform="scale(0.015625)"/>
       <path id="DejaVuSans-53" d="M 3425 4513 
L 3425 3897 
Q 3066 4069 2747 4153 
Q 2428 4238 2131 4238 
Q 1616 4238 1336 4038 
Q 1056 3838 1056 3469 
Q 1056 3159 1242 3001 
Q 1428 2844 1947 2747 
L 2328 2669 
Q 3034 2534 3370 2195 
Q 3706 1856 3706 1288 
Q 3706 609 3251 259 
Q 2797 -91 1919 -91 
Q 1588 -91 1214 -16 
Q 841 59 441 206 
L 441 856 
Q 825 641 1194 531 
Q 1563 422 1919 422 
Q 2459 422 2753 634 
Q 3047 847 3047 1241 
Q 3047 1584 2836 1778 
Q 2625 1972 2144 2069 
L 1759 2144 
Q 1053 2284 737 2584 
Q 422 2884 422 3419 
Q 422 4038 858 4394 
Q 1294 4750 2059 4750 
Q 2388 4750 2728 4690 
Q 3069 4631 3425 4513 
z
" transform="scale(0.015625)"/>
       <path id="DejaVuSans-2d" d="M 313 2009 
L 1997 2009 
L 1997 1497 
L 313 1497 
L 313 2009 
z
" transform="scale(0.015625)"/>
       <path id="DejaVuSans-4b" d="M 628 4666 
L 1259 4666 
L 1259 2694 
L 3353 4666 
L 4166 4666 
L 1850 2491 
L 4331 0 
L 3500 0 
L 1259 2247 
L 1259 0 
L 628 0 
L 628 4666 
z
" transform="scale(0.015625)"/>
      </defs>
      <use xlink:href="#DejaVuSans-50"/>
      <use xlink:href="#DejaVuSans-53" x="60.302734"/>
      <use xlink:href="#DejaVuSans-2d" x="123.779297"/>
      <use xlink:href="#DejaVuSans-31" x="159.863281"/>
      <use xlink:href="#DejaVuSans-30" x="223.486328"/>
      <use xlink:href="#DejaVuSans-4b" x="287.109375"/>
     </g>
    </g>
    <g id="line2d_19">
     <path d="M 63 154.617875 
L 73 154.617875 
L 83 154.617875 
" style="fill: none; stroke: #74a9cf; stroke-width: 1.5; stroke-linecap: square"/>
    </g>
    <g id="text_19">
     <!-- PS-10K-SCF$_{3}$ -->
     <g transform="translate(91 158.117875) scale(0.1 -0.1)">
      <defs>
       <path id="DejaVuSans-46" d="M 628 4666 
L 3309 4666 
L 3309 4134 
L 1259 4134 
L 1259 2759 
L 3109 2759 
L 3109 2228 
L 1259 2228 
L 1259 0 
L 628 0 
L 628 4666 
z
" transform="scale(0.015625)"/>
      </defs>
      <use xlink:href="#DejaVuSans-50" transform="translate(0 0.78125)"/>
      <use xlink:href="#DejaVuSans-53" transform="translate(60.302734 0.78125)"/>
      <use xlink:href="#DejaVuSans-2d" transform="translate(123.779297 0.78125)"/>
      <use xlink:href="#DejaVuSans-31" transform="translate(159.863281 0.78125)"/>
      <use xlink:href="#DejaVuSans-30" transform="translate(223.486328 0.78125)"/>
      <use xlink:href="#DejaVuSans-4b" transform="translate(287.109375 0.78125)"/>
      <use xlink:href="#DejaVuSans-2d" transform="translate(352.685547 0.78125)"/>
      <use xlink:href="#DejaVuSans-53" transform="translate(388.769531 0.78125)"/>
      <use xlink:href="#DejaVuSans-43" transform="translate(452.246094 0.78125)"/>
      <use xlink:href="#DejaVuSans-46" transform="translate(522.070312 0.78125)"/>
      <use xlink:href="#DejaVuSans-33" transform="translate(580.546875 -15.625) scale(0.7)"/>
     </g>
    </g>
    <g id="line2d_20">
     <path d="M 63 169.296 
L 73 169.296 
L 83 169.296 
" style="fill: none; stroke-dasharray: 1.11,0.48; stroke-dashoffset: 0; stroke: #ff0000; stroke-width: 0.3"/>
    </g>
    <g id="text_20">
     <!-- $T_\mathregular{depolymerization}$ at 99.5% Mass -->
     <g transform="translate(91 172.796) scale(0.1 -0.1)">
      <defs>
       <path id="DejaVuSans-Oblique-54" d="M 378 4666 
L 4325 4666 
L 4225 4134 
L 2559 4134 
L 1759 0 
L 1125 0 
L 1925 4134 
L 275 4134 
L 378 4666 
z
" transform="scale(0.015625)"/>
       <path id="DejaVuSans-64" d="M 2906 2969 
L 2906 4863 
L 3481 4863 
L 3481 0 
L 2906 0 
L 2906 525 
Q 2725 213 2448 61 
Q 2172 -91 1784 -91 
Q 1150 -91 751 415 
Q 353 922 353 1747 
Q 353 2572 751 3078 
Q 1150 3584 1784 3584 
Q 2172 3584 2448 3432 
Q 2725 3281 2906 2969 
z
M 947 1747 
Q 947 1113 1208 752 
Q 1469 391 1925 391 
Q 2381 391 2643 752 
Q 2906 1113 2906 1747 
Q 2906 2381 2643 2742 
Q 2381 3103 1925 3103 
Q 1469 3103 1208 2742 
Q 947 2381 947 1747 
z
" transform="scale(0.015625)"/>
       <path id="DejaVuSans-6f" d="M 1959 3097 
Q 1497 3097 1228 2736 
Q 959 2375 959 1747 
Q 959 1119 1226 758 
Q 1494 397 1959 397 
Q 2419 397 2687 759 
Q 2956 1122 2956 1747 
Q 2956 2369 2687 2733 
Q 2419 3097 1959 3097 
z
M 1959 3584 
Q 2709 3584 3137 3096 
Q 3566 2609 3566 1747 
Q 3566 888 3137 398 
Q 2709 -91 1959 -91 
Q 1206 -91 779 398 
Q 353 888 353 1747 
Q 353 2609 779 3096 
Q 1206 3584 1959 3584 
z
" transform="scale(0.015625)"/>
       <path id="DejaVuSans-6c" d="M 603 4863 
L 1178 4863 
L 1178 0 
L 603 0 
L 603 4863 
z
" transform="scale(0.015625)"/>
       <path id="DejaVuSans-72" d="M 2631 2963 
Q 2534 3019 2420 3045 
Q 2306 3072 2169 3072 
Q 1681 3072 1420 2755 
Q 1159 2438 1159 1844 
L 1159 0 
L 581 0 
L 581 3500 
L 1159 3500 
L 1159 2956 
Q 1341 3275 1631 3429 
Q 1922 3584 2338 3584 
Q 2397 3584 2469 3576 
Q 2541 3569 2628 3553 
L 2631 2963 
z
" transform="scale(0.015625)"/>
       <path id="DejaVuSans-7a" d="M 353 3500 
L 3084 3500 
L 3084 2975 
L 922 459 
L 3084 459 
L 3084 0 
L 275 0 
L 275 525 
L 2438 3041 
L 353 3041 
L 353 3500 
z
" transform="scale(0.015625)"/>
       <path id="DejaVuSans-74" d="M 1172 4494 
L 1172 3500 
L 2356 3500 
L 2356 3053 
L 1172 3053 
L 1172 1153 
Q 1172 725 1289 603 
Q 1406 481 1766 481 
L 2356 481 
L 2356 0 
L 1766 0 
Q 1100 0 847 248 
Q 594 497 594 1153 
L 594 3053 
L 172 3053 
L 172 3500 
L 594 3500 
L 594 4494 
L 1172 4494 
z
" transform="scale(0.015625)"/>
       <path id="DejaVuSans-39" d="M 703 97 
L 703 672 
Q 941 559 1184 500 
Q 1428 441 1663 441 
Q 2288 441 2617 861 
Q 2947 1281 2994 2138 
Q 2813 1869 2534 1725 
Q 2256 1581 1919 1581 
Q 1219 1581 811 2004 
Q 403 2428 403 3163 
Q 403 3881 828 4315 
Q 1253 4750 1959 4750 
Q 2769 4750 3195 4129 
Q 3622 3509 3622 2328 
Q 3622 1225 3098 567 
Q 2575 -91 1691 -91 
Q 1453 -91 1209 -44 
Q 966 3 703 97 
z
M 1959 2075 
Q 2384 2075 2632 2365 
Q 2881 2656 2881 3163 
Q 2881 3666 2632 3958 
Q 2384 4250 1959 4250 
Q 1534 4250 1286 3958 
Q 1038 3666 1038 3163 
Q 1038 2656 1286 2365 
Q 1534 2075 1959 2075 
z
" transform="scale(0.015625)"/>
       <path id="DejaVuSans-2e" d="M 684 794 
L 1344 794 
L 1344 0 
L 684 0 
L 684 794 
z
" transform="scale(0.015625)"/>
       <path id="DejaVuSans-35" d="M 691 4666 
L 3169 4666 
L 3169 4134 
L 1269 4134 
L 1269 2991 
Q 1406 3038 1543 3061 
Q 1681 3084 1819 3084 
Q 2600 3084 3056 2656 
Q 3513 2228 3513 1497 
Q 3513 744 3044 326 
Q 2575 -91 1722 -91 
Q 1428 -91 1123 -41 
Q 819 9 494 109 
L 494 744 
Q 775 591 1075 516 
Q 1375 441 1709 441 
Q 2250 441 2565 725 
Q 2881 1009 2881 1497 
Q 2881 1984 2565 2268 
Q 2250 2553 1709 2553 
Q 1456 2553 1204 2497 
Q 953 2441 691 2322 
L 691 4666 
z
" transform="scale(0.015625)"/>
      </defs>
      <use xlink:href="#DejaVuSans-Oblique-54" transform="translate(0 0.78125)"/>
      <use xlink:href="#DejaVuSans-64" transform="translate(61.083984 -15.625) scale(0.7)"/>
      <use xlink:href="#DejaVuSans-65" transform="translate(105.517578 -15.625) scale(0.7)"/>
      <use xlink:href="#DejaVuSans-70" transform="translate(148.583984 -15.625) scale(0.7)"/>
      <use xlink:href="#DejaVuSans-6f" transform="translate(193.017578 -15.625) scale(0.7)"/>
      <use xlink:href="#DejaVuSans-6c" transform="translate(235.844727 -15.625) scale(0.7)"/>
      <use xlink:href="#DejaVuSans-79" transform="translate(255.292969 -15.625) scale(0.7)"/>
      <use xlink:href="#DejaVuSans-6d" transform="translate(296.71875 -15.625) scale(0.7)"/>
      <use xlink:href="#DejaVuSans-65" transform="translate(364.907227 -15.625) scale(0.7)"/>
      <use xlink:href="#DejaVuSans-72" transform="translate(407.973633 -15.625) scale(0.7)"/>
      <use xlink:href="#DejaVuSans-69" transform="translate(436.75293 -15.625) scale(0.7)"/>
      <use xlink:href="#DejaVuSans-7a" transform="translate(456.201172 -15.625) scale(0.7)"/>
      <use xlink:href="#DejaVuSans-61" transform="translate(492.944336 -15.625) scale(0.7)"/>
      <use xlink:href="#DejaVuSans-74" transform="translate(535.839844 -15.625) scale(0.7)"/>
      <use xlink:href="#DejaVuSans-69" transform="translate(563.286133 -15.625) scale(0.7)"/>
      <use xlink:href="#DejaVuSans-6f" transform="translate(582.734375 -15.625) scale(0.7)"/>
      <use xlink:href="#DejaVuSans-6e" transform="translate(625.561523 -15.625) scale(0.7)"/>
      <use xlink:href="#DejaVuSans-20" transform="translate(672.661133 0.78125)"/>
      <use xlink:href="#DejaVuSans-61" transform="translate(704.448242 0.78125)"/>
      <use xlink:href="#DejaVuSans-74" transform="translate(765.727539 0.78125)"/>
      <use xlink:href="#DejaVuSans-20" transform="translate(804.936523 0.78125)"/>
      <use xlink:href="#DejaVuSans-39" transform="translate(836.723633 0.78125)"/>
      <use xlink:href="#DejaVuSans-39" transform="translate(900.34668 0.78125)"/>
      <use xlink:href="#DejaVuSans-2e" transform="translate(963.969727 0.78125)"/>
      <use xlink:href="#DejaVuSans-35" transform="translate(995.756836 0.78125)"/>
      <use xlink:href="#DejaVuSans-25" transform="translate(1059.379883 0.78125)"/>
      <use xlink:href="#DejaVuSans-20" transform="translate(1154.399414 0.78125)"/>
      <use xlink:href="#DejaVuSans-4d" transform="translate(1186.186523 0.78125)"/>
      <use xlink:href="#DejaVuSans-61" transform="translate(1272.46582 0.78125)"/>
      <use xlink:href="#DejaVuSans-73" transform="translate(1333.745117 0.78125)"/>
      <use xlink:href="#DejaVuSans-73" transform="translate(1385.844727 0.78125)"/>
     </g>
    </g>
   </g>
  </g>
  <g id="axes_2">
   <g id="patch_6">
    <path d="M 54 384.48 
L 388.8 384.48 
L 388.8 251.424 
L 54 251.424 
z
" style="fill: #ffffff"/>
   </g>
   <g id="matplotlib.axis_3">
    <g id="xtick_9">
     <g id="line2d_21">
      <g>
       <use xlink:href="#m7257f77081" x="76.32" y="384.48" style="stroke: #000000; stroke-width: 0.8"/>
      </g>
     </g>
     <g id="text_21">
      <!-- 260 -->
      <g transform="translate(68.685 394.05875) scale(0.08 -0.08)">
       <use xlink:href="#DejaVuSans-32"/>
       <use xlink:href="#DejaVuSans-36" x="63.623047"/>
       <use xlink:href="#DejaVuSans-30" x="127.246094"/>
      </g>
     </g>
    </g>
    <g id="xtick_10">
     <g id="line2d_22">
      <g>
       <use xlink:href="#m7257f77081" x="120.96" y="384.48" style="stroke: #000000; stroke-width: 0.8"/>
      </g>
     </g>
     <g id="text_22">
      <!-- 280 -->
      <g transform="translate(113.325 394.05875) scale(0.08 -0.08)">
       <use xlink:href="#DejaVuSans-32"/>
       <use xlink:href="#DejaVuSans-38" x="63.623047"/>
       <use xlink:href="#DejaVuSans-30" x="127.246094"/>
      </g>
     </g>
    </g>
    <g id="xtick_11">
     <g id="line2d_23">
      <g>
       <use xlink:href="#m7257f77081" x="165.6" y="384.48" style="stroke: #000000; stroke-width: 0.8"/>
      </g>
     </g>
     <g id="text_23">
      <!-- 300 -->
      <g transform="translate(157.965 394.05875) scale(0.08 -0.08)">
       <use xlink:href="#DejaVuSans-33"/>
       <use xlink:href="#DejaVuSans-30" x="63.623047"/>
       <use xlink:href="#DejaVuSans-30" x="127.246094"/>
      </g>
     </g>
    </g>
    <g id="xtick_12">
     <g id="line2d_24">
      <g>
       <use xlink:href="#m7257f77081" x="210.24" y="384.48" style="stroke: #000000; stroke-width: 0.8"/>
      </g>
     </g>
     <g id="text_24">
      <!-- 320 -->
      <g transform="translate(202.605 394.05875) scale(0.08 -0.08)">
       <use xlink:href="#DejaVuSans-33"/>
       <use xlink:href="#DejaVuSans-32" x="63.623047"/>
       <use xlink:href="#DejaVuSans-30" x="127.246094"/>
      </g>
     </g>
    </g>
    <g id="xtick_13">
     <g id="line2d_25">
      <g>
       <use xlink:href="#m7257f77081" x="254.88" y="384.48" style="stroke: #000000; stroke-width: 0.8"/>
      </g>
     </g>
     <g id="text_25">
      <!-- 340 -->
      <g transform="translate(247.245 394.05875) scale(0.08 -0.08)">
       <use xlink:href="#DejaVuSans-33"/>
       <use xlink:href="#DejaVuSans-34" x="63.623047"/>
       <use xlink:href="#DejaVuSans-30" x="127.246094"/>
      </g>
     </g>
    </g>
    <g id="xtick_14">
     <g id="line2d_26">
      <g>
       <use xlink:href="#m7257f77081" x="299.52" y="384.48" style="stroke: #000000; stroke-width: 0.8"/>
      </g>
     </g>
     <g id="text_26">
      <!-- 360 -->
      <g transform="translate(291.885 394.05875) scale(0.08 -0.08)">
       <use xlink:href="#DejaVuSans-33"/>
       <use xlink:href="#DejaVuSans-36" x="63.623047"/>
       <use xlink:href="#DejaVuSans-30" x="127.246094"/>
      </g>
     </g>
    </g>
    <g id="xtick_15">
     <g id="line2d_27">
      <g>
       <use xlink:href="#m7257f77081" x="344.16" y="384.48" style="stroke: #000000; stroke-width: 0.8"/>
      </g>
     </g>
     <g id="text_27">
      <!-- 380 -->
      <g transform="translate(336.525 394.05875) scale(0.08 -0.08)">
       <use xlink:href="#DejaVuSans-33"/>
       <use xlink:href="#DejaVuSans-38" x="63.623047"/>
       <use xlink:href="#DejaVuSans-30" x="127.246094"/>
      </g>
     </g>
    </g>
    <g id="xtick_16">
     <g id="line2d_28">
      <g>
       <use xlink:href="#m7257f77081" x="388.8" y="384.48" style="stroke: #000000; stroke-width: 0.8"/>
      </g>
     </g>
     <g id="text_28">
      <!-- 400 -->
      <g transform="translate(381.165 394.05875) scale(0.08 -0.08)">
       <use xlink:href="#DejaVuSans-34"/>
       <use xlink:href="#DejaVuSans-30" x="63.623047"/>
       <use xlink:href="#DejaVuSans-30" x="127.246094"/>
      </g>
     </g>
    </g>
    <g id="text_29">
     <!-- Temp ($^{o}$C) -->
     <g transform="translate(195.9 407.5225) scale(0.1 -0.1)">
      <use xlink:href="#DejaVuSans-54" transform="translate(0 0.51875)"/>
      <use xlink:href="#DejaVuSans-65" transform="translate(61.083984 0.51875)"/>
      <use xlink:href="#DejaVuSans-6d" transform="translate(122.607422 0.51875)"/>
      <use xlink:href="#DejaVuSans-70" transform="translate(220.019531 0.51875)"/>
      <use xlink:href="#DejaVuSans-20" transform="translate(283.496094 0.51875)"/>
      <use xlink:href="#DejaVuSans-28" transform="translate(315.283203 0.51875)"/>
      <use xlink:href="#DejaVuSans-Oblique-6f" transform="translate(355.253906 38.8) scale(0.7)"/>
      <use xlink:href="#DejaVuSans-43" transform="translate(400.81543 0.51875)"/>
      <use xlink:href="#DejaVuSans-29" transform="translate(470.639648 0.51875)"/>
     </g>
    </g>
   </g>
   <g id="matplotlib.axis_4">
    <g id="ytick_7">
     <g id="line2d_29">
      <g>
       <use xlink:href="#m779968ca36" x="54" y="377.306689" style="stroke: #000000; stroke-width: 0.8"/>
      </g>
     </g>
     <g id="text_30">
      <!-- 1.3 -->
      <g transform="translate(37.7775 380.346064) scale(0.08 -0.08)">
       <use xlink:href="#DejaVuSans-31"/>
       <use xlink:href="#DejaVuSans-2e" x="63.623047"/>
       <use xlink:href="#DejaVuSans-33" x="95.410156"/>
      </g>
     </g>
    </g>
    <g id="ytick_8">
     <g id="line2d_30">
      <g>
       <use xlink:href="#m779968ca36" x="54" y="348.868196" style="stroke: #000000; stroke-width: 0.8"/>
      </g>
     </g>
     <g id="text_31">
      <!-- 1.4 -->
      <g transform="translate(37.7775 351.907571) scale(0.08 -0.08)">
       <use xlink:href="#DejaVuSans-31"/>
       <use xlink:href="#DejaVuSans-2e" x="63.623047"/>
       <use xlink:href="#DejaVuSans-34" x="95.410156"/>
      </g>
     </g>
    </g>
    <g id="ytick_9">
     <g id="line2d_31">
      <g>
       <use xlink:href="#m779968ca36" x="54" y="320.429704" style="stroke: #000000; stroke-width: 0.8"/>
      </g>
     </g>
     <g id="text_32">
      <!-- 1.5 -->
      <g transform="translate(37.7775 323.469079) scale(0.08 -0.08)">
       <use xlink:href="#DejaVuSans-31"/>
       <use xlink:href="#DejaVuSans-2e" x="63.623047"/>
       <use xlink:href="#DejaVuSans-35" x="95.410156"/>
      </g>
     </g>
    </g>
    <g id="ytick_10">
     <g id="line2d_32">
      <g>
       <use xlink:href="#m779968ca36" x="54" y="291.991211" style="stroke: #000000; stroke-width: 0.8"/>
      </g>
     </g>
     <g id="text_33">
      <!-- 1.6 -->
      <g transform="translate(37.7775 295.030586) scale(0.08 -0.08)">
       <use xlink:href="#DejaVuSans-31"/>
       <use xlink:href="#DejaVuSans-2e" x="63.623047"/>
       <use xlink:href="#DejaVuSans-36" x="95.410156"/>
      </g>
     </g>
    </g>
    <g id="ytick_11">
     <g id="line2d_33">
      <g>
       <use xlink:href="#m779968ca36" x="54" y="263.552718" style="stroke: #000000; stroke-width: 0.8"/>
      </g>
     </g>
     <g id="text_34">
      <!-- 1.7 -->
      <g transform="translate(37.7775 266.592093) scale(0.08 -0.08)">
       <defs>
        <path id="DejaVuSans-37" d="M 525 4666 
L 3525 4666 
L 3525 4397 
L 1831 0 
L 1172 0 
L 2766 4134 
L 525 4134 
L 525 4666 
z
" transform="scale(0.015625)"/>
       </defs>
       <use xlink:href="#DejaVuSans-31"/>
       <use xlink:href="#DejaVuSans-2e" x="63.623047"/>
       <use xlink:href="#DejaVuSans-37" x="95.410156"/>
      </g>
     </g>
    </g>
    <g id="text_35">
     <!-- Ion Current (A) -->
     <g transform="translate(31.697813 354.931687) rotate(-90) scale(0.1 -0.1)">
      <defs>
       <path id="DejaVuSans-49" d="M 628 4666 
L 1259 4666 
L 1259 0 
L 628 0 
L 628 4666 
z
" transform="scale(0.015625)"/>
       <path id="DejaVuSans-75" d="M 544 1381 
L 544 3500 
L 1119 3500 
L 1119 1403 
Q 1119 906 1312 657 
Q 1506 409 1894 409 
Q 2359 409 2629 706 
Q 2900 1003 2900 1516 
L 2900 3500 
L 3475 3500 
L 3475 0 
L 2900 0 
L 2900 538 
Q 2691 219 2414 64 
Q 2138 -91 1772 -91 
Q 1169 -91 856 284 
Q 544 659 544 1381 
z
M 1991 3584 
L 1991 3584 
z
" transform="scale(0.015625)"/>
      </defs>
      <use xlink:href="#DejaVuSans-49"/>
      <use xlink:href="#DejaVuSans-6f" x="29.492188"/>
      <use xlink:href="#DejaVuSans-6e" x="90.673828"/>
      <use xlink:href="#DejaVuSans-20" x="154.052734"/>
      <use xlink:href="#DejaVuSans-43" x="185.839844"/>
      <use xlink:href="#DejaVuSans-75" x="255.664062"/>
      <use xlink:href="#DejaVuSans-72" x="319.042969"/>
      <use xlink:href="#DejaVuSans-72" x="358.40625"/>
      <use xlink:href="#DejaVuSans-65" x="397.269531"/>
      <use xlink:href="#DejaVuSans-6e" x="458.792969"/>
      <use xlink:href="#DejaVuSans-74" x="522.171875"/>
      <use xlink:href="#DejaVuSans-20" x="561.380859"/>
      <use xlink:href="#DejaVuSans-28" x="593.167969"/>
      <use xlink:href="#DejaVuSans-41" x="632.181641"/>
      <use xlink:href="#DejaVuSans-29" x="700.589844"/>
     </g>
    </g>
    <g id="text_36">
     <!-- 1e−12 -->
     <g transform="translate(54 248.424) scale(0.1 -0.1)">
      <defs>
       <path id="DejaVuSans-2212" d="M 678 2272 
L 4684 2272 
L 4684 1741 
L 678 1741 
L 678 2272 
z
" transform="scale(0.015625)"/>
      </defs>
      <use xlink:href="#DejaVuSans-31"/>
      <use xlink:href="#DejaVuSans-65" x="63.623047"/>
      <use xlink:href="#DejaVuSans-2212" x="125.146484"/>
      <use xlink:href="#DejaVuSans-31" x="208.935547"/>
      <use xlink:href="#DejaVuSans-32" x="272.558594"/>
     </g>
    </g>
   </g>
   <g id="line2d_34">
    <path d="M 53.839274 320.93534 
L 54.319198 328.529271 
L 54.897242 320.93534 
L 55.343686 346.429027 
L 55.767766 331.241165 
L 56.388262 320.392734 
L 56.827944 331.783772 
L 57.140424 319.850412 
L 57.586802 325.817092 
L 57.888144 337.207846 
L 58.604616 321.477662 
L 59.062198 327.986664 
L 59.361242 324.189841 
L 59.805432 341.004953 
L 60.091128 313.341409 
L 60.54871 328.529271 
L 60.845544 328.529271 
L 61.307568 338.292774 
L 61.586568 341.004953 
L 62.037432 314.426338 
L 62.318686 324.732163 
L 63.079754 327.986664 
L 63.361008 323.647235 
L 63.800734 326.359414 
L 64.253786 333.953344 
L 64.550686 330.156521 
L 65.010456 331.783772 
L 65.358648 317.680839 
L 65.75148 320.392734 
L 66.039408 319.30809 
L 66.331778 323.104913 
L 66.775968 340.462347 
L 67.043786 326.359414 
L 67.546008 327.444342 
L 67.813848 320.93534 
L 68.275872 304.66255 
L 68.572706 318.765483 
L 68.99904 319.30809 
L 69.340514 318.223161 
L 69.751246 315.510982 
L 70.512358 331.241165 
L 70.80696 316.59591 
L 71.12165 324.189841 
L 71.597088 310.086908 
L 71.871602 313.883731 
L 72.31577 327.444342 
L 72.628294 328.529271 
L 73.054562 333.411022 
L 73.355904 319.30809 
L 73.654992 328.529271 
L 74.413872 312.256481 
L 74.829024 328.529271 
L 75.29549 327.444342 
L 75.583462 319.30809 
L 75.886992 319.30809 
L 76.337856 305.747479 
L 76.636944 317.138233 
L 77.05877 314.96866 
L 77.520794 311.171552 
L 77.822136 312.256481 
L 78.134594 319.30809 
L 78.578762 315.510982 
L 78.880104 323.647235 
L 79.32204 318.223161 
L 79.614454 329.613915 
L 80.065318 318.765483 
L 80.362152 320.93534 
L 80.804088 309.00198 
L 81.096502 320.93534 
L 81.395546 318.765483 
L 81.853128 321.477662 
L 82.13657 330.156521 
L 82.55623 311.171552 
L 82.904422 318.223161 
L 83.310602 335.580595 
L 83.596342 323.104913 
L 83.88427 322.019984 
L 84.337366 323.647235 
L 84.801578 334.495666 
L 85.07839 307.917051 
L 85.819414 325.27477 
L 86.28588 320.392734 
L 86.580459 340.462347 
L 87.044738 335.038273 
L 87.352754 306.832407 
L 88.067016 327.986664 
L 88.38396 314.96866 
L 88.83257 316.053588 
L 89.12273 320.392734 
L 89.580334 316.59591 
L 89.879422 316.59591 
L 90.303502 319.850412 
L 90.607032 318.223161 
L 91.069056 343.174526 
L 91.359238 324.189841 
L 91.642658 318.223161 
L 92.100262 311.714159 
L 92.394864 314.426338 
L 92.841286 327.986664 
L 93.147048 314.96866 
L 93.58673 316.053588 
L 93.845642 327.444342 
L 94.63135 316.59591 
L 94.92151 324.189841 
L 95.367888 310.086908 
L 95.671462 316.053588 
L 96.09331 327.444342 
L 96.463778 313.341409 
L 97.15351 335.038273 
L 97.599888 314.426338 
L 97.90123 329.071593 
L 98.19139 311.171552 
L 98.653414 315.510982 
L 98.934602 302.492978 
L 99.389952 331.241165 
L 99.827446 317.138233 
L 100.11312 320.392734 
L 100.584072 306.289801 
L 100.878674 326.359414 
L 101.180016 323.104913 
L 101.619698 300.865727 
L 101.900952 324.189841 
L 102.35849 319.30809 
L 102.657578 331.241165 
L 103.108486 330.156521 
L 103.39416 305.747479 
L 103.836096 318.765483 
L 104.157459 311.714159 
L 104.445454 337.207846 
L 104.889578 316.053588 
L 105.193152 323.647235 
L 105.63953 298.153548 
L 106.079278 318.765483 
L 106.387294 323.104913 
L 106.853738 304.66255 
L 107.126064 311.171552 
L 107.39839 320.392734 
L 107.880502 329.613915 
L 108.184032 318.223161 
L 108.619294 333.953344 
L 108.92057 302.492978 
L 109.360318 313.341409 
L 109.650478 326.901736 
L 110.11469 324.189841 
L 110.398198 311.171552 
L 110.766478 302.492978 
L 111.125786 323.104913 
L 111.440498 307.374729 
L 111.884666 329.071593 
L 112.174848 325.27477 
L 112.639104 326.359414 
L 112.93596 327.986664 
L 113.366714 329.613915 
L 113.690398 319.850412 
L 114.127848 319.30809 
L 114.413522 321.477662 
L 114.85327 332.868416 
L 115.145618 336.122917 
L 115.598714 319.850412 
L 115.924586 327.986664 
L 116.337506 327.986664 
L 116.643334 310.62923 
L 117.07853 324.189841 
L 117.386546 326.901736 
L 117.846382 340.462347 
L 118.587406 333.411022 
L 119.167682 319.850412 
L 119.625286 321.477662 
L 120.364056 308.459658 
L 120.643056 314.96866 
L 121.076064 322.019984 
L 121.38408 318.765483 
L 121.834944 309.544302 
L 122.158562 316.053588 
L 122.444302 313.883731 
L 122.87731 313.883731 
L 123.341522 329.613915 
L 123.63619 326.901736 
L 124.080358 314.96866 
L 124.674048 320.93534 
L 125.11373 335.580595 
L 125.408398 333.411022 
L 125.859262 319.30809 
L 126.18288 328.529271 
L 126.622562 325.817092 
L 126.903794 309.544302 
L 127.368072 310.086908 
L 127.660486 311.714159 
L 128.089008 317.680839 
L 128.421554 312.798803 
L 128.711714 326.359414 
L 129.140302 319.30809 
L 129.457246 327.986664 
L 129.885746 321.477662 
L 130.193762 322.019984 
L 130.635698 318.223161 
L 130.919206 329.071593 
L 131.372302 341.004953 
L 131.662462 322.562591 
L 132.104398 323.104913 
L 132.436944 315.510982 
L 132.869952 317.680839 
L 133.171294 312.256481 
L 133.602048 335.580595 
L 133.898904 331.783772 
L 134.336398 323.647235 
L 134.92116 342.089597 
L 135.37651 370.838069 
L 135.816214 343.174526 
L 136.09296 354.022957 
L 136.398722 360.53196 
L 136.847398 363.244139 
L 137.604024 348.056277 
L 137.909786 350.22585 
L 138.347302 349.141206 
L 138.648578 367.040962 
L 139.095 373.007642 
L 139.407502 341.004953 
L 139.856112 352.395707 
L 140.16857 351.853385 
L 140.621666 367.583568 
L 140.916334 354.022957 
L 141.219864 348.056277 
L 141.666286 361.616888 
L 142.398382 342.632204 
L 142.806794 356.19253 
L 143.11481 348.056277 
L 143.420594 352.938029 
L 143.858088 347.513955 
L 144.163872 342.089597 
L 144.467446 369.210819 
L 144.873626 351.853385 
L 145.168294 349.141206 
L 145.643666 356.19253 
L 146.085602 353.480635 
L 146.364602 348.056277 
L 146.690541 348.598599 
L 147.114554 357.277459 
L 147.431498 343.174526 
L 147.864506 335.580595 
L 148.185936 378.432 
L 148.473864 344.259454 
L 148.920286 356.19253 
L 149.366642 354.022957 
L 149.681398 359.447031 
L 149.96484 361.074282 
L 150.402334 338.292774 
L 150.70361 354.022957 
L 151.163446 359.447031 
L 151.460302 358.362387 
L 151.732562 364.871389 
L 152.174498 362.15921 
L 152.471398 349.141206 
L 152.93561 351.310778 
L 153.250366 349.683528 
L 153.665541 359.989638 
L 153.982462 360.53196 
L 154.422144 341.547275 
L 154.714514 358.362387 
L 154.991326 356.735136 
L 155.486786 365.413711 
L 155.765786 350.768456 
L 156.194374 340.462347 
L 156.62957 346.429027 
L 156.964414 368.12589 
L 157.243414 343.716848 
L 157.68977 362.15921 
L 157.997786 334.495666 
L 158.261206 363.786461 
L 158.707562 344.259454 
L 159.468674 341.547275 
L 159.77669 330.156521 
L 160.20077 358.362387 
L 160.51104 352.395707 
L 161.258738 341.004953 
L 161.707414 354.022957 
L 162.019872 359.447031 
L 162.461786 352.938029 
L 162.763128 346.429027 
L 163.200578 350.768456 
L 163.490738 345.886705 
L 163.934928 362.701817 
L 164.242944 347.513955 
L 164.548706 360.53196 
L 164.979459 359.989638 
L 165.303144 348.056277 
L 165.579912 357.277459 
L 166.021848 357.819781 
L 166.486104 340.462347 
L 166.789634 355.107886 
L 167.077562 359.989638 
L 167.51057 358.362387 
L 167.778454 352.938029 
L 168.258334 354.565279 
L 168.546262 359.989638 
L 168.994872 348.056277 
L 169.450222 366.49864 
L 169.740382 362.701817 
L 170.184506 349.141206 
L 170.492522 346.971349 
L 170.800538 350.768456 
L 171.195602 348.598599 
L 171.528214 352.395707 
L 171.976802 350.22585 
L 172.278144 350.768456 
L 172.53931 363.244139 
L 172.99908 350.22585 
L 173.304864 350.768456 
L 174.063722 342.632204 
L 174.498984 362.15921 
L 174.804746 369.753141 
L 175.563626 352.938029 
L 176.01449 351.853385 
L 176.26896 359.447031 
L 176.746586 356.19253 
L 177.039 335.038273 
L 177.492096 341.004953 
L 177.793438 339.920025 
L 178.244302 352.395707 
L 178.521048 355.107886 
L 178.965238 352.395707 
L 179.275486 349.683528 
L 179.57453 354.022957 
L 179.991936 357.277459 
L 180.324459 349.141206 
L 181.049904 377.347072 
L 181.489586 346.971349 
L 181.764144 339.920025 
L 182.094502 337.207846 
L 182.523024 354.565279 
L 182.953778 345.886705 
L 183.250634 356.19253 
L 183.567578 349.141206 
L 184.014 351.310778 
L 184.299674 356.19253 
L 184.757278 355.650208 
L 185.05188 345.886705 
L 185.52281 363.244139 
L 186.23484 341.547275 
L 186.54953 339.377703 
L 186.83527 351.853385 
L 187.301714 348.598599 
L 187.589642 352.938029 
L 188.036064 352.395707 
L 188.330666 367.040962 
L 188.777088 358.904709 
L 189.359618 340.462347 
L 189.788206 338.292774 
L 190.864008 354.565279 
L 191.30369 356.19253 
L 191.741206 343.716848 
L 192.033554 352.395707 
L 192.357238 355.107886 
L 192.803594 347.513955 
L 193.084848 362.15921 
L 193.558032 364.871389 
L 193.81027 358.904709 
L 194.274459 368.12589 
L 194.564642 346.429027 
L 195.019992 354.022957 
L 195.31908 350.22585 
L 195.76769 349.141206 
L 196.073541 344.801776 
L 196.499786 365.413711 
L 196.814498 342.089597 
L 197.258666 352.395707 
L 197.705088 346.429027 
L 198.004198 349.141206 
L 198.283198 363.786461 
L 198.754128 350.22585 
L 199.057658 345.886705 
L 199.501848 358.362387 
L 199.792008 336.665523 
L 200.249546 335.580595 
L 200.519618 357.819781 
L 200.959366 367.040962 
L 201.296398 363.786461 
L 201.573144 347.513955 
L 202.037422 345.886705 
L 202.323096 347.513955 
L 202.782888 353.480635 
L 203.22931 356.735136 
L 203.825254 341.547275 
L 204.260494 359.989638 
L 204.983618 345.886705 
L 205.325136 341.547275 
L 205.604136 342.089597 
L 206.028238 356.19253 
L 206.351856 330.156521 
L 207.23796 364.871389 
L 207.84281 354.022957 
L 208.278072 355.107886 
L 208.568254 342.632204 
L 208.909706 351.310778 
L 209.329366 343.716848 
L 209.619459 351.310778 
L 210.061462 335.038273 
L 210.37392 361.616888 
L 210.813602 350.768456 
L 211.117198 370.295463 
L 211.572459 359.447031 
L 211.853714 361.074282 
L 212.177398 346.971349 
L 212.614848 341.547275 
L 212.909494 339.377703 
L 213.813454 354.565279 
L 214.096896 348.598599 
L 214.387056 352.395707 
L 214.824506 352.938029 
L 215.12808 348.598599 
L 215.43161 338.292774 
L 215.85127 342.089597 
L 216.17712 354.022957 
L 216.619056 337.207846 
L 216.956088 333.953344 
L 218.116706 370.838069 
L 218.418048 338.835096 
L 218.862238 341.004953 
L 219.170254 355.107886 
L 219.447 354.565279 
L 219.90235 365.956318 
L 220.344286 361.616888 
L 220.650048 359.989638 
L 220.95139 350.22585 
L 221.393326 348.056277 
L 221.670072 356.19253 
L 222.129864 359.447031 
L 222.388754 357.819781 
L 222.725786 335.580595 
L 223.18339 353.480635 
L 223.904326 345.344098 
L 224.22569 358.904709 
L 224.64535 357.819781 
L 224.980128 361.074282 
L 225.457754 341.004953 
L 225.714478 360.53196 
L 226.134072 357.277459 
L 226.444342 361.074282 
L 226.87735 349.141206 
L 227.16751 352.395707 
L 227.613888 355.650208 
L 227.88396 338.835096 
L 228.180794 346.429027 
L 228.662928 344.801776 
L 228.962016 346.429027 
L 229.700786 355.650208 
L 230.14049 343.174526 
L 230.44181 345.344098 
L 230.888254 352.938029 
L 231.173928 354.565279 
L 231.638206 349.683528 
L 231.928366 352.395707 
L 232.243056 354.022957 
L 232.67381 352.395707 
L 233.140342 343.716848 
L 233.430502 351.310778 
L 233.879112 334.495666 
L 234.184896 347.513955 
L 234.47057 340.462347 
L 234.92592 359.989638 
L 235.220522 340.462347 
L 235.669198 351.853385 
L 235.966032 362.701817 
L 236.724912 333.411022 
L 237.16908 362.701817 
L 237.457008 349.683528 
L 237.905618 354.565279 
L 238.215888 354.022957 
L 238.939056 342.089597 
L 239.394406 339.920025 
L 239.666666 353.480635 
L 240.126502 356.19253 
L 240.425546 349.141206 
L 240.72912 360.53196 
L 241.162128 357.277459 
L 241.46347 350.22585 
L 241.905406 351.310778 
L 242.193334 336.665523 
L 242.644198 347.513955 
L 242.963374 348.056277 
L 243.400802 350.768456 
L 243.67757 356.735136 
L 244.141848 358.362387 
L 244.45435 341.004953 
L 244.894032 349.683528 
L 245.186446 344.259454 
L 245.456541 345.886705 
L 245.945326 354.022957 
L 246.228746 354.565279 
L 246.641666 362.15921 
L 246.936334 341.004953 
L 247.384944 349.683528 
L 247.69296 350.768456 
L 248.143802 341.004953 
L 248.449586 360.53196 
L 248.913864 335.580595 
L 249.181682 338.835096 
L 249.641541 352.938029 
L 249.927214 351.310778 
L 250.393658 353.480635 
L 250.712856 332.868416 
L 251.134682 343.716848 
L 251.41819 343.716848 
L 251.869032 363.244139 
L 252.185976 345.886705 
L 252.61673 337.750168 
L 252.906912 364.871389 
L 253.353334 345.344098 
L 253.656864 364.871389 
L 253.94477 351.310778 
L 254.406794 354.565279 
L 254.69249 350.768456 
L 255.440254 346.429027 
L 255.89777 357.277459 
L 256.181278 347.513955 
L 256.634374 351.310778 
L 256.962478 352.395707 
L 257.424502 335.038273 
L 257.676674 359.989638 
L 258.11861 354.565279 
L 258.41551 338.835096 
L 258.830618 355.650208 
L 259.152048 345.886705 
L 259.618514 341.004953 
L 259.89084 356.735136 
L 260.341682 352.938029 
L 260.64751 354.022957 
L 261.089446 342.089597 
L 261.381794 345.886705 
L 261.676462 354.565279 
L 262.127326 343.174526 
L 262.430856 343.174526 
L 262.883952 343.716848 
L 263.167438 344.801776 
L 263.62049 343.174526 
L 263.932992 345.344098 
L 264.374928 346.971349 
L 264.662856 366.49864 
L 265.10035 346.429027 
L 265.707454 365.413711 
L 266.200682 351.853385 
L 266.510952 351.310778 
L 266.883674 329.613915 
L 267.178342 348.056277 
L 267.64704 347.513955 
L 267.952802 342.089597 
L 268.372462 356.19253 
L 268.671506 346.971349 
L 268.977334 355.107886 
L 269.41927 349.141206 
L 269.716104 356.735136 
L 270.173642 349.141206 
L 270.47273 359.447031 
L 270.776326 345.344098 
L 271.182506 352.938029 
L 271.642342 354.022957 
L 271.943618 345.344098 
L 272.387786 358.904709 
L 272.686896 341.547275 
L 272.981498 365.956318 
L 273.423478 338.835096 
L 273.735936 336.665523 
L 274.180104 360.53196 
L 274.454618 353.480635 
L 274.914454 355.650208 
L 275.21131 355.650208 
L 275.642064 342.089597 
L 275.943406 357.819781 
L 276.22908 347.513955 
L 276.691104 361.074282 
L 276.994634 358.362387 
L 277.456658 346.971349 
L 277.753514 333.953344 
L 278.177594 361.616888 
L 278.501278 344.801776 
L 278.927546 352.395707 
L 279.217706 347.513955 
L 279.521302 356.19253 
L 279.976586 355.650208 
L 280.266746 353.480635 
L 280.71761 345.886705 
L 281.168541 356.735136 
L 281.440778 343.174526 
L 281.77339 341.004953 
L 282.201912 342.632204 
L 282.503254 348.056277 
L 282.929522 344.801776 
L 283.41612 344.801776 
L 283.692888 345.344098 
L 283.985302 348.056277 
L 284.445072 333.953344 
L 284.755342 339.377703 
L 285.186096 358.362387 
L 285.779786 348.598599 
L 286.223976 358.904709 
L 286.50965 346.429027 
L 286.962746 354.565279 
L 287.261856 354.022957 
L 288.03857 348.598599 
L 288.449302 342.089597 
L 288.743904 335.038273 
L 289.040738 348.598599 
L 289.498342 344.801776 
L 289.799618 345.344098 
L 290.063016 343.716848 
L 290.527294 348.598599 
L 290.98039 361.616888 
L 291.26381 361.074282 
L 291.728088 349.683528 
L 292.042778 359.447031 
L 292.337446 345.886705 
L 292.772642 351.310778 
L 293.225738 355.107886 
L 293.529334 348.598599 
L 293.835096 344.801776 
L 294.252502 346.971349 
L 294.551546 343.716848 
L 294.98904 369.753141 
L 295.285896 349.683528 
L 295.611746 355.107886 
L 296.042522 344.259454 
L 296.35277 352.395707 
L 296.79696 356.19253 
L 297.078214 371.922713 
L 297.553586 346.971349 
L 297.830398 357.819781 
L 298.587024 346.971349 
L 299.017778 354.565279 
L 299.310214 344.801776 
L 299.772238 356.19253 
L 300.073514 343.174526 
L 300.515494 344.259454 
L 300.819024 341.004953 
L 301.26096 334.495666 
L 301.535541 354.565279 
L 301.839048 339.920025 
L 302.31 335.580595 
L 302.586746 355.650208 
L 303.008594 336.122917 
L 303.307682 345.886705 
L 303.74743 349.141206 
L 304.064374 337.750168 
L 304.79647 352.938029 
L 305.247334 342.632204 
L 305.537494 352.938029 
L 305.990546 354.022957 
L 306.271778 351.310778 
L 306.736056 351.310778 
L 307.032912 335.038273 
L 307.472594 346.971349 
L 307.785096 336.122917 
L 308.530562 358.904709 
L 308.988144 348.598599 
L 309.267144 355.107886 
L 309.561746 338.835096 
L 310.021538 343.174526 
L 310.313952 348.056277 
L 310.740286 348.598599 
L 311.041562 358.904709 
L 311.501398 348.598599 
L 311.78484 350.22585 
L 312.237936 349.683528 
L 312.539278 349.141206 
L 312.976706 347.513955 
L 313.302578 331.241165 
L 313.744514 334.495666 
L 314.03916 349.683528 
L 314.333762 341.547275 
L 314.79804 359.989638 
L 315.074786 339.920025 
L 315.51449 349.683528 
L 315.826992 336.665523 
L 316.244398 348.056277 
L 316.556856 341.004953 
L 317.00551 356.19253 
L 317.304554 341.004953 
L 317.61257 338.835096 
L 318.034462 343.716848 
L 318.333506 357.819781 
L 318.80669 354.022957 
L 319.54104 345.886705 
L 319.98523 349.141206 
L 320.266462 348.598599 
L 320.592334 354.022957 
L 321.029762 363.244139 
L 321.30653 346.429027 
L 321.759626 347.513955 
L 322.074382 339.920025 
L 322.505136 355.650208 
L 322.817594 352.938029 
L 323.268502 345.344098 
L 323.54527 351.853385 
L 323.839872 348.598599 
L 324.268438 367.583568 
L 324.59431 341.004953 
L 325.045152 342.089597 
L 325.335334 347.513955 
L 325.768342 342.089597 
L 326.062944 354.022957 
L 326.38212 342.632204 
L 326.828498 357.819781 
L 327.268246 354.565279 
L 327.578494 356.19253 
L 328.02043 326.359414 
L 328.330634 347.513955 
L 328.582872 341.004953 
L 329.042642 341.547275 
L 329.489064 350.22585 
L 329.83277 359.447031 
L 330.105096 348.056277 
L 330.544778 355.107886 
L 330.85949 356.19253 
L 331.279128 356.735136 
L 331.571498 344.801776 
L 331.863912 341.004953 
L 332.321494 357.277459 
L 332.747762 341.004953 
L 333.04243 356.19253 
L 333.374976 350.768456 
L 333.810238 326.901736 
L 334.095912 348.056277 
L 334.517738 336.122917 
L 334.986502 348.056277 
L 335.31012 359.447031 
L 335.58912 350.768456 
L 336.05784 340.462347 
L 336.350254 343.716848 
L 336.627 363.786461 
L 337.100206 346.429027 
L 337.401459 352.938029 
L 337.82112 350.768456 
L 338.292072 351.853385 
L 338.58 359.447031 
L 339.019682 354.565279 
L 339.296494 344.801776 
L 339.611206 354.022957 
L 340.075462 342.632204 
L 340.343302 350.22585 
L 340.628976 352.938029 
L 341.11553 338.292774 
L 341.544096 349.683528 
L 341.863294 345.886705 
L 342.323064 348.056277 
L 342.602064 336.665523 
L 342.914522 349.141206 
L 343.34753 325.27477 
L 343.664541 352.395707 
L 344.113128 351.853385 
L 344.380968 337.207846 
L 345.13092 350.768456 
L 345.56616 355.107886 
L 346.168778 344.801776 
L 346.62857 359.989638 
L 346.932144 347.513955 
L 347.356246 357.277459 
L 347.666494 356.735136 
L 347.961096 330.156521 
L 348.407541 356.19253 
L 348.873984 355.650208 
L 349.15073 341.004953 
L 349.608334 338.835096 
L 349.898494 350.768456 
L 350.342618 341.004953 
L 350.648446 341.004953 
L 351.09257 347.513955 
L 351.376056 348.056277 
L 351.693 341.547275 
L 352.110406 336.122917 
L 352.425096 343.716848 
L 352.87596 350.22585 
L 353.15496 363.786461 
L 353.46523 329.071593 
L 353.90047 352.938029 
L 354.224088 354.022957 
L 354.677206 341.004953 
L 354.945024 337.207846 
L 355.395888 332.868416 
L 356.148072 353.480635 
L 356.406984 331.241165 
L 356.91588 348.056277 
L 357.19488 353.480635 
L 357.65465 353.480635 
L 357.96492 364.871389 
L 358.409088 351.310778 
L 358.67916 347.513955 
L 358.97827 355.107886 
L 359.429112 351.310778 
L 359.732642 339.920025 
L 360.194666 362.701817 
L 360.473666 358.904709 
L 360.922342 343.174526 
L 361.21469 351.853385 
L 361.652206 348.598599 
L 361.971382 354.022957 
L 362.395462 351.310778 
L 362.705666 336.665523 
L 363.04051 335.580595 
L 363.466778 341.547275 
L 363.745778 352.395707 
L 364.201128 338.835096 
L 364.95108 352.395707 
L 365.214478 332.868416 
L 365.705541 349.683528 
L 365.977778 341.547275 
L 366.426454 365.413711 
L 366.72331 347.513955 
L 367.029072 350.22585 
L 367.475494 339.377703 
L 367.756682 339.377703 
L 368.183016 348.598599 
L 368.520048 341.547275 
L 368.95531 350.768456 
L 369.263326 335.580595 
L 369.723096 338.292774 
L 370.013278 338.292774 
L 370.455214 342.632204 
L 370.760976 325.817092 
L 371.055578 323.104913 
L 371.486398 340.462347 
L 371.803342 362.15921 
L 372.30773 348.056277 
L 372.52651 362.15921 
L 372.99523 338.835096 
L 373.280904 343.716848 
L 373.573318 335.580595 
L 374.039762 338.835096 
L 374.318762 338.835096 
L 374.778554 339.377703 
L 375.059786 335.580595 
L 375.526318 350.22585 
L 375.963746 346.429027 
L 376.253928 331.783772 
L 376.55969 347.513955 
L 377.01504 334.495666 
L 377.31857 351.310778 
L 377.776152 332.326094 
L 378.066334 343.716848 
L 378.523872 328.529271 
L 378.802872 355.107886 
L 379.27831 349.141206 
L 379.541642 342.632204 
L 379.97465 351.853385 
L 380.280478 346.429027 
L 380.584008 338.292774 
L 381.30943 349.141206 
L 381.811586 336.665523 
L 382.041459 342.632204 
L 382.494578 361.074282 
L 382.786992 345.344098 
L 383.237856 344.801776 
L 383.552546 345.886705 
L 383.985554 353.480635 
L 384.277968 334.495666 
L 384.561454 346.429027 
L 385.016738 355.107886 
L 385.309152 335.038273 
L 386.039016 344.801776 
L 386.480952 343.174526 
L 386.800128 343.716848 
L 387.246506 346.429027 
L 387.543406 337.207846 
L 388.007618 366.49864 
L 388.76431 348.056277 
L 390.967294 338.835096 
L 390.967294 338.835096 
" clip-path="url(#p1219ef946c)" style="fill: none; stroke: #bdbdbd; stroke-width: 1.5; stroke-linecap: square"/>
   </g>
   <g id="line2d_35">
    <path d="M 54.03127 295.441369 
L 54.328104 294.356725 
L 54.761112 295.441369 
L 55.057968 290.017295 
L 55.502136 298.153548 
L 55.801246 307.374729 
L 56.236464 294.899047 
L 56.531088 295.983975 
L 56.995344 299.780799 
L 57.294432 278.083935 
L 57.729694 290.559617 
L 58.03771 288.390045 
L 58.490762 294.356725 
L 58.792104 311.714159 
L 59.06664 292.729474 
L 59.519758 289.474689 
L 59.803222 312.798803 
L 60.26971 287.305116 
L 60.553152 303.0353 
L 61.010734 303.577906 
L 61.316496 292.729474 
L 61.635694 298.153548 
L 62.05752 309.544302 
L 62.33873 285.135544 
L 62.787384 300.865727 
L 63.10656 296.526297 
L 63.403416 299.238477 
L 63.856512 284.592937 
L 64.285056 318.223161 
L 64.885464 278.083935 
L 65.63988 310.086908 
L 66.050568 288.390045 
L 66.385368 301.950656 
L 66.807238 286.762794 
L 67.121928 299.238477 
L 67.575024 307.374729 
L 67.854024 294.356725 
L 68.289286 292.729474 
L 68.592794 303.577906 
L 68.914246 290.559617 
L 69.338326 284.050615 
L 69.81151 297.611226 
L 70.101626 310.086908 
L 70.376206 292.186868 
L 70.862738 305.205157 
L 71.13281 299.780799 
L 71.592602 296.526297 
L 71.88053 291.644546 
L 72.31577 299.780799 
L 72.619366 286.762794 
L 73.072462 293.814118 
L 73.362578 300.323121 
L 73.804514 293.814118 
L 74.117016 297.06862 
L 74.39827 311.171552 
L 74.829024 299.238477 
L 75.166056 302.492978 
L 75.599064 288.932367 
L 75.891478 290.559617 
L 76.33116 285.135544 
L 76.62353 300.865727 
L 77.067698 292.729474 
L 77.362366 306.289801 
L 77.802048 281.881043 
L 78.114506 311.171552 
L 78.543072 287.305116 
L 78.86227 294.899047 
L 79.281864 283.508293 
L 79.585438 305.747479 
L 79.877786 290.559617 
L 80.32423 280.253792 
L 80.627738 292.186868 
L 81.096502 286.220188 
L 81.393358 305.747479 
L 81.683541 304.66255 
L 82.129896 288.390045 
L 82.428984 300.865727 
L 82.893262 303.0353 
L 83.199024 279.711186 
L 83.625358 310.62923 
L 83.93112 280.253792 
L 84.366382 294.356725 
L 84.674398 279.711186 
L 84.995762 293.814118 
L 85.404262 295.441369 
L 85.84843 293.271796 
L 86.143032 300.323121 
L 86.471136 285.677866 
L 86.892984 296.526297 
L 87.194326 293.271796 
L 87.631754 307.374729 
L 88.254459 282.423365 
L 88.66296 293.271796 
L 88.97323 291.102224 
L 89.419586 276.999007 
L 89.689658 300.323121 
L 90.15619 301.408049 
L 90.45077 289.474689 
L 90.888286 292.186868 
L 91.180634 293.271796 
L 91.627056 323.647235 
L 91.952928 286.762794 
L 92.39261 304.66255 
L 92.70288 281.338436 
L 93.133634 294.899047 
L 93.44839 299.780799 
L 93.881398 287.305116 
L 94.167072 286.220188 
L 94.463928 269.947682 
L 94.939366 299.780799 
L 95.38349 293.271796 
L 95.66923 285.677866 
L 95.957136 284.050615 
L 96.421414 287.305116 
L 96.707088 305.747479 
L 97.17804 299.780799 
L 97.461459 291.102224 
L 97.77847 293.271796 
L 98.204738 305.205157 
L 98.662342 292.729474 
L 98.977032 299.780799 
L 99.392206 296.526297 
L 99.693459 302.492978 
L 99.979222 294.356725 
L 100.430064 301.950656 
L 100.711318 315.510982 
L 101.481358 284.592937 
L 101.898698 290.559617 
L 102.197786 299.238477 
L 102.670992 293.271796 
L 102.97008 305.205157 
L 103.233478 283.508293 
L 103.702198 299.238477 
L 104.436459 279.168864 
L 104.722222 309.544302 
L 105.186478 309.544302 
L 105.474406 290.559617 
L 105.920762 283.508293 
L 106.226546 306.289801 
L 106.684128 310.086908 
L 106.976498 297.611226 
L 107.447494 289.474689 
L 107.735422 294.899047 
L 108.052366 304.120228 
L 108.48312 300.323121 
L 108.784462 307.917051 
L 109.21073 291.102224 
L 109.503144 311.171552 
L 109.962936 290.017295 
L 110.275438 307.917051 
L 110.576714 310.62923 
L 111.30881 278.083935 
L 111.744072 269.947682 
L 112.20835 298.69587 
L 112.509626 305.747479 
L 112.931541 290.559617 
L 113.248462 289.474689 
L 113.54081 293.271796 
L 113.958238 278.626541 
L 114.290762 287.305116 
L 114.739438 303.577906 
L 115.464794 279.711186 
L 115.76839 303.0353 
L 116.078594 302.492978 
L 116.536198 314.96866 
L 116.870976 295.983975 
L 117.23035 300.323121 
L 117.53388 307.374729 
L 117.978048 294.356725 
L 118.312848 287.847438 
L 119.029342 305.205157 
L 119.45561 306.832407 
L 119.763626 293.271796 
L 120.203374 295.441369 
L 120.506904 300.323121 
L 120.957746 312.256481 
L 121.245674 305.205157 
L 121.518 268.862754 
L 121.959936 299.238477 
L 122.290294 288.932367 
L 122.729976 291.102224 
L 123.037992 285.677866 
L 123.500016 288.932367 
L 123.75 305.747479 
L 124.069198 304.120228 
L 124.504438 286.220188 
L 124.832498 301.950656 
L 125.265506 278.626541 
L 125.540064 293.271796 
L 126.004342 300.323121 
L 126.312358 299.780799 
L 126.756459 299.780799 
L 127.039968 310.62923 
L 127.51092 304.120228 
L 127.807754 297.06862 
L 128.251944 292.729474 
L 128.687206 297.06862 
L 129.01531 282.965687 
L 129.274222 298.153548 
L 129.725064 279.711186 
L 130.037522 304.120228 
L 130.463856 283.508293 
L 130.76743 307.917051 
L 131.229454 290.017295 
L 131.503968 302.492978 
L 131.95481 312.798803 
L 132.260594 286.762794 
L 132.680254 305.747479 
L 132.99269 286.762794 
L 133.294032 291.102224 
L 133.724786 291.644546 
L 134.180136 273.744505 
L 134.45465 292.729474 
L 134.927856 304.120228 
L 135.215762 304.66255 
L 135.517104 278.626541 
L 135.981382 293.814118 
L 136.69339 300.323121 
L 137.005848 312.256481 
L 137.436602 270.490004 
L 137.722342 299.238477 
L 138.208896 293.271796 
L 138.483454 301.950656 
L 138.762454 295.441369 
L 139.219992 300.323121 
L 139.530262 297.611226 
L 139.96327 306.832407 
L 140.28912 292.186868 
L 140.55696 299.780799 
L 141.01673 281.881043 
L 141.766682 295.441369 
L 142.197502 310.086908 
L 142.793446 282.965687 
L 143.224222 304.120228 
L 143.686246 291.102224 
L 143.998682 310.086908 
L 144.284422 301.408049 
L 144.74196 297.06862 
L 145.029888 298.69587 
L 145.471802 304.66255 
L 145.761984 297.06862 
L 146.052144 313.883731 
L 146.534278 312.798803 
L 146.817698 301.950656 
L 147.27749 300.865727 
L 147.57439 285.677866 
L 148.036414 293.814118 
L 148.310928 292.186868 
L 148.78188 295.983975 
L 149.058626 292.729474 
L 149.507302 293.271796 
L 149.808578 277.541613 
L 150.094318 300.865727 
L 150.531746 305.747479 
L 150.991538 312.256481 
L 151.26835 307.374729 
L 151.596454 292.729474 
L 152.324064 303.577906 
L 152.768254 299.780799 
L 153.062856 286.220188 
L 153.375358 291.102224 
L 153.801626 289.474689 
L 154.098459 290.559617 
L 154.547136 292.729474 
L 154.841738 286.762794 
L 155.31943 307.374729 
L 156.060454 280.253792 
L 156.328294 293.271796 
L 157.071506 303.0353 
L 157.529088 288.390045 
L 157.834872 285.135544 
L 158.299128 285.135544 
L 158.58931 302.492978 
L 159.022318 297.611226 
L 159.31692 291.102224 
L 159.778944 287.305116 
L 160.064618 308.459658 
L 160.531128 291.102224 
L 160.79004 300.323121 
L 161.542246 292.729474 
L 161.832406 286.220188 
L 162.582358 305.747479 
L 162.863546 292.186868 
L 163.327802 291.102224 
L 163.78092 288.932367 
L 164.080008 292.186868 
L 164.832214 305.205157 
L 165.117888 303.577906 
L 165.582144 290.559617 
L 165.885674 304.120228 
L 166.332096 292.729474 
L 166.622278 297.06862 
L 167.057541 311.171552 
L 167.378904 294.899047 
L 167.809658 297.06862 
L 168.12216 305.205157 
L 168.423502 290.017295 
L 168.83861 296.526297 
L 169.151112 284.592937 
L 169.590794 293.814118 
L 169.901064 307.374729 
L 170.343 306.832407 
L 170.630928 295.983975 
L 171.08851 297.611226 
L 171.65988 288.390045 
L 172.124136 299.238477 
L 172.407578 289.474689 
L 172.847326 287.847438 
L 173.159762 297.611226 
L 173.615112 282.423365 
L 173.907459 294.899047 
L 174.34723 291.102224 
L 174.635136 294.899047 
L 174.94092 309.544302 
L 175.39627 303.577906 
L 175.684198 303.577906 
L 176.130554 294.899047 
L 176.460912 301.408049 
L 176.878318 299.238477 
L 177.188522 295.983975 
L 177.62827 307.917051 
L 177.925104 305.205157 
L 178.382642 295.441369 
L 178.659454 296.526297 
L 179.409406 290.017295 
L 179.710682 302.492978 
L 180.148198 299.780799 
L 180.59904 299.238477 
L 180.875786 316.59591 
L 181.161459 295.441369 
L 181.632478 311.171552 
L 181.91592 276.456684 
L 182.37569 293.271796 
L 182.670358 293.814118 
L 183.116714 304.120228 
L 183.429238 322.019984 
L 183.84439 296.526297 
L 184.15908 288.390045 
L 184.612198 303.0353 
L 184.906778 287.305116 
L 185.313024 284.050615 
L 185.616554 292.729474 
L 185.933498 292.186868 
L 186.377666 279.711186 
L 186.65892 300.323121 
L 187.145541 270.490004 
L 187.420032 295.983975 
L 187.85304 283.508293 
L 188.176658 293.814118 
L 188.625334 289.474689 
L 188.908754 293.271796 
L 189.352944 285.677866 
L 189.667634 288.932367 
L 190.401984 304.66255 
L 190.680984 296.526297 
L 191.113992 289.474689 
L 191.58943 285.677866 
L 191.895214 290.559617 
L 192.200976 292.729474 
L 192.63173 298.153548 
L 192.928586 294.899047 
L 193.399538 304.66255 
L 193.696438 297.06862 
L 194.140562 293.814118 
L 194.412888 304.120228 
L 194.872658 286.220188 
L 195.18516 293.814118 
L 195.486502 304.120228 
L 195.97973 278.626541 
L 196.214112 319.30809 
L 196.640446 285.677866 
L 196.93949 280.796114 
L 197.399326 303.577906 
L 197.680514 280.253792 
L 198.138096 292.186868 
L 198.439438 282.965687 
L 198.90365 291.102224 
L 199.341144 285.135544 
L 199.653602 301.950656 
L 199.957198 291.102224 
L 200.358936 290.017295 
L 200.669206 299.780799 
L 201.097706 295.441369 
L 201.394562 288.390045 
L 201.686976 295.983975 
L 202.16016 286.220188 
L 202.912366 301.950656 
L 203.338634 302.492978 
L 203.660064 306.832407 
L 203.934578 292.186868 
L 204.40553 299.780799 
L 204.682342 310.086908 
L 204.997032 276.456684 
L 205.43004 282.423365 
L 205.923334 304.66255 
L 206.177738 284.050615 
L 206.92769 290.559617 
L 207.21343 291.102224 
L 207.713398 291.102224 
L 207.978984 306.832407 
L 208.405318 301.950656 
L 208.73561 277.541613 
L 209.16643 293.271796 
L 209.472214 286.762794 
L 209.91857 300.865727 
L 210.188642 297.611226 
L 210.666334 299.780799 
L 210.958682 287.305116 
L 211.233262 299.780799 
L 211.688546 297.611226 
L 212.11488 299.238477 
L 212.418454 286.762794 
L 212.893848 280.253792 
L 213.166152 306.832407 
L 213.476422 284.592937 
L 213.922778 287.847438 
L 214.21296 297.611226 
L 214.657128 286.762794 
L 214.953984 290.017295 
L 215.40708 290.559617 
L 215.71061 297.06862 
L 216.16596 284.592937 
L 216.458374 294.356725 
L 216.750722 298.69587 
L 217.206072 294.899047 
L 217.491746 301.950656 
L 217.935936 300.323121 
L 218.23951 295.441369 
L 218.679214 292.186868 
L 218.971562 313.883731 
L 219.71484 287.847438 
L 220.190278 288.390045 
L 220.475952 282.965687 
L 220.779459 282.965687 
L 221.225904 299.780799 
L 221.527246 305.205157 
L 221.82408 285.677866 
L 222.26827 287.847438 
L 222.730294 291.644546 
L 223.015968 295.983975 
L 223.473506 294.899047 
L 223.761478 303.577906 
L 224.060522 290.559617 
L 224.51143 291.644546 
L 224.819446 291.102224 
L 225.261382 295.983975 
L 225.555984 324.732163 
L 226.015754 299.780799 
L 226.721088 287.305116 
L 227.024618 298.69587 
L 227.482222 290.559617 
L 227.765642 299.780799 
L 228.055802 296.526297 
L 228.50892 295.441369 
L 228.821422 293.814118 
L 229.274541 299.238477 
L 229.540104 296.526297 
L 230.00657 299.780799 
L 230.321326 277.541613 
L 230.58247 292.186868 
L 231.057864 284.050615 
L 231.372554 316.59591 
L 232.11581 282.423365 
L 232.537658 274.829434 
L 232.847928 300.865727 
L 233.321112 303.0353 
L 233.59788 281.881043 
L 234.010778 291.644546 
L 234.31212 290.017295 
L 234.76073 278.083935 
L 235.024128 281.338436 
L 235.33884 296.526297 
L 235.80977 301.408049 
L 236.553048 284.592937 
L 236.829794 291.644546 
L 237.303 291.644546 
L 237.588674 294.899047 
L 238.055206 313.883731 
L 238.349786 291.644546 
L 238.78949 300.865727 
L 239.07965 299.780799 
L 239.528326 299.780799 
L 239.83853 304.66255 
L 240.276024 314.426338 
L 240.85188 286.220188 
L 241.289374 303.577906 
L 241.59739 293.814118 
L 242.041514 285.677866 
L 242.36743 299.238477 
L 242.807112 292.186868 
L 243.40973 275.371756 
L 243.842738 291.644546 
L 244.146334 285.677866 
L 244.583762 281.881043 
L 244.889546 292.729474 
L 245.32704 286.762794 
L 245.612714 289.474689 
L 246.06139 300.865727 
L 246.492144 291.644546 
L 247.097016 297.06862 
L 247.532278 277.541613 
L 247.829112 287.847438 
L 248.29781 275.371756 
L 248.614754 304.66255 
L 248.884848 300.323121 
L 249.349104 299.780799 
L 249.773206 291.102224 
L 250.063366 306.289801 
L 250.389238 297.611226 
L 250.842334 297.611226 
L 251.145864 296.526297 
L 251.56769 285.135544 
L 251.860104 290.559617 
L 252.174794 286.220188 
L 252.610056 286.220188 
L 253.063152 293.814118 
L 253.362262 273.744505 
L 253.636754 299.238477 
L 254.107706 303.0353 
L 254.386706 297.06862 
L 254.84873 282.965687 
L 255.259462 281.881043 
L 255.57192 285.135544 
L 256.004928 292.729474 
L 256.326358 293.814118 
L 256.618706 292.186868 
L 257.062896 291.102224 
L 257.361984 295.441369 
L 257.667746 292.729474 
L 258.11861 293.271796 
L 258.39761 286.220188 
L 258.837358 309.00198 
L 259.292642 282.423365 
L 259.605144 294.356725 
L 259.897514 288.390045 
L 260.303738 297.06862 
L 260.616262 297.611226 
L 261.055944 303.0353 
L 261.522454 293.814118 
L 261.832658 295.983975 
L 262.258992 289.474689 
L 262.560334 282.423365 
L 262.87277 286.220188 
L 263.287944 283.508293 
L 263.604888 278.083935 
L 263.897302 293.814118 
L 264.339238 290.017295 
L 264.774478 290.559617 
L 265.10477 290.017295 
L 265.381538 306.832407 
L 265.814546 299.238477 
L 266.120374 298.153548 
L 266.577912 309.00198 
L 266.883674 292.186868 
L 267.330096 307.917051 
L 267.638112 295.441369 
L 268.05996 303.0353 
L 268.383578 292.729474 
L 268.816586 302.492978 
L 269.102326 297.611226 
L 269.414762 286.220188 
L 269.84777 298.69587 
L 270.14688 284.050615 
L 270.597722 286.762794 
L 270.903506 294.899047 
L 271.37669 301.408049 
L 271.649016 292.186868 
L 272.06861 312.256481 
L 272.352096 301.408049 
L 272.800706 296.526297 
L 273.131064 274.829434 
L 273.42792 294.356725 
L 273.86316 283.508293 
L 274.302864 306.289801 
L 274.604206 281.881043 
L 275.06623 305.747479 
L 275.378666 300.323121 
L 275.655478 311.714159 
L 276.124198 285.677866 
L 276.400944 293.271796 
L 276.849554 289.474689 
L 277.146454 280.796114 
L 277.610666 301.408049 
L 278.331602 287.847438 
L 278.648546 299.238477 
L 278.920872 303.0353 
L 279.382896 292.186868 
L 279.695398 296.526297 
L 280.128406 287.847438 
L 280.405152 300.323121 
L 280.867198 269.40536 
L 281.139502 293.814118 
L 281.626056 281.881043 
L 281.925144 282.423365 
L 282.35592 294.899047 
L 282.628246 285.135544 
L 283.074602 306.832407 
L 283.393778 301.408049 
L 283.806698 319.30809 
L 284.119222 316.59591 
L 284.41831 281.881043 
L 284.855738 293.814118 
L 285.166008 288.390045 
L 285.578928 289.474689 
L 285.900358 276.999007 
L 286.348968 283.508293 
L 286.641382 295.441369 
L 286.927056 300.323121 
L 288.130104 285.677866 
L 288.424706 303.577906 
L 288.868896 284.592937 
L 289.199254 291.102224 
L 289.484928 303.0353 
L 289.94251 276.999007 
L 290.40449 294.899047 
L 290.687976 298.153548 
L 290.982578 278.626541 
L 291.449088 289.474689 
L 291.73253 298.69587 
L 292.16335 274.829434 
L 292.460206 286.220188 
L 292.904374 298.153548 
L 293.20123 293.271796 
L 293.638658 277.541613 
L 293.94 301.408049 
L 294.26143 289.474689 
L 294.705554 298.69587 
L 294.96451 290.017295 
L 295.435462 295.983975 
L 295.743478 295.441369 
L 296.205502 293.814118 
L 296.471088 302.492978 
L 296.937554 295.441369 
L 297.192024 301.950656 
L 297.66965 292.729474 
L 297.968738 284.050615 
L 298.25892 293.814118 
L 298.72543 287.305116 
L 299.006618 285.677866 
L 299.459714 286.220188 
L 299.736459 287.847438 
L 300.194064 287.847438 
L 300.484246 279.168864 
L 300.765478 291.102224 
L 301.22527 305.205157 
L 301.568976 295.441369 
L 301.970714 297.06862 
L 302.428318 296.526297 
L 302.729594 294.899047 
L 303.01308 287.305116 
L 303.463944 293.814118 
L 303.769706 301.950656 
L 304.216128 297.611226 
L 304.67592 291.644546 
L 304.950478 275.914362 
L 305.240594 294.899047 
L 305.702618 294.356725 
L 306.001706 278.626541 
L 306.296374 278.083935 
L 306.740498 297.611226 
L 307.023984 282.423365 
L 307.488262 286.762794 
L 307.789538 305.205157 
L 308.231541 271.032611 
L 308.965802 301.950656 
L 309.425594 268.862754 
L 309.70908 282.965687 
L 310.151016 312.256481 
L 310.465706 291.644546 
L 310.905454 276.456684 
L 311.217912 299.780799 
L 311.916506 287.305116 
L 312.237936 287.847438 
L 312.682104 288.932367 
L 313.291462 278.083935 
L 313.726658 302.492978 
L 314.150738 295.983975 
L 314.469936 281.338436 
L 314.76677 282.423365 
L 315.233302 297.06862 
L 315.510048 275.371756 
L 315.967586 297.06862 
L 316.242144 282.423365 
L 316.556856 304.120228 
L 317.007698 286.220188 
L 317.476462 290.017295 
L 317.75765 281.338436 
L 318.485326 287.847438 
L 318.775486 276.456684 
L 319.070088 286.762794 
L 319.556642 263.43868 
L 319.815554 281.881043 
L 320.270904 285.135544 
L 320.592334 284.050615 
L 321.018602 298.69587 
L 321.311016 291.644546 
L 321.755206 257.472 
L 322.054294 300.865727 
L 322.833262 284.592937 
L 323.52516 295.983975 
L 323.987206 295.441369 
L 324.299642 286.762794 
L 324.748318 282.423365 
L 325.05408 297.611226 
L 325.337522 295.441369 
L 325.78843 309.00198 
L 326.076358 284.592937 
L 326.507112 297.611226 
L 326.83747 295.983975 
L 327.268246 274.829434 
L 327.571754 294.899047 
L 327.998088 292.186868 
L 328.321706 282.423365 
L 328.743554 293.271796 
L 329.064984 275.371756 
L 329.34847 310.086908 
L 329.781478 292.186868 
L 330.259104 297.06862 
L 330.533618 260.184179 
L 330.984459 301.408049 
L 331.29031 289.474689 
L 331.575984 286.220188 
L 332.031334 282.965687 
L 332.334864 278.083935 
L 332.767872 285.135544 
L 333.064706 299.238477 
L 333.502222 271.574933 
L 333.82584 291.644546 
L 334.24992 276.456684 
L 334.537848 292.186868 
L 334.993198 271.574933 
L 335.301214 278.626541 
L 335.75873 276.456684 
L 336.035498 287.847438 
L 336.785494 294.356725 
L 337.091278 293.271796 
L 337.53096 284.592937 
L 337.818888 287.847438 
L 338.115722 301.408049 
L 338.573326 275.371756 
L 339.329952 292.729474 
L 340.06649 271.574933 
L 340.370064 287.847438 
L 340.809746 284.050615 
L 341.095486 304.66255 
L 341.55751 295.983975 
L 341.845438 306.832407 
L 342.323064 276.456684 
L 342.59981 300.865727 
L 343.026144 282.423365 
L 343.340856 293.271796 
L 343.798438 298.69587 
L 344.084112 313.883731 
L 344.394382 277.541613 
L 344.83181 265.065931 
L 345.144334 287.847438 
L 345.570602 272.659861 
L 346.164358 295.441369 
L 346.612968 287.305116 
L 346.889714 279.711186 
L 347.371848 300.865727 
L 347.675422 272.659861 
L 348.110618 297.06862 
L 348.374016 279.168864 
L 348.844968 283.508293 
L 349.130642 284.592937 
L 349.601594 292.186868 
L 349.889522 294.356725 
L 350.30916 282.423365 
L 350.599342 294.356725 
L 350.931888 274.287112 
L 351.338112 290.559617 
L 351.655056 287.305116 
L 352.090318 273.202183 
L 352.39608 284.592937 
L 352.84027 296.526297 
L 353.139358 287.305116 
L 353.599128 288.390045 
L 353.918326 274.829434 
L 354.364682 268.862754 
L 354.654864 290.559617 
L 355.110214 279.711186 
L 355.679374 298.69587 
L 356.143586 291.102224 
L 356.440486 275.371756 
L 356.875682 284.592937 
L 357.188206 297.06862 
L 357.65023 291.102224 
L 357.951506 299.780799 
L 358.250594 275.371756 
L 358.67916 285.135544 
L 358.984944 284.050615 
L 359.420206 288.390045 
L 359.721459 281.881043 
L 360.16565 287.305116 
L 360.819626 298.69587 
L 361.192414 273.744505 
L 361.654438 289.474689 
L 361.944554 280.253792 
L 362.225786 300.865727 
L 362.690064 279.711186 
L 362.991406 275.371756 
L 363.424414 295.983975 
L 363.743546 273.744505 
L 364.029286 281.881043 
L 364.473454 289.474689 
L 364.76357 284.592937 
L 365.207738 282.965687 
L 365.515754 279.711186 
L 365.96443 261.268823 
L 366.252358 290.017295 
L 366.698714 294.899047 
L 366.99557 303.0353 
L 367.444246 299.780799 
L 367.76119 281.338436 
L 368.225446 282.965687 
L 368.504446 288.932367 
L 368.944128 269.947682 
L 369.267746 283.508293 
L 369.546746 290.017295 
L 370.013278 288.390045 
L 370.330222 282.965687 
L 370.749794 286.220188 
L 371.207398 297.06862 
L 371.497514 293.814118 
L 372.23635 278.626541 
L 372.513096 298.153548 
L 372.83004 287.305116 
L 373.256374 297.06862 
L 373.707238 283.508293 
L 374.019674 277.541613 
L 374.452682 289.474689 
L 374.738422 275.371756 
L 375.046438 286.220188 
L 375.483888 293.814118 
L 375.774048 288.932367 
L 376.22047 287.305116 
L 376.501658 267.235503 
L 377.28288 297.611226 
L 377.709214 267.235503 
L 378.03281 289.474689 
L 378.479254 301.408049 
L 378.74484 291.102224 
L 379.06627 289.474689 
L 379.523786 294.899047 
L 379.952374 276.999007 
L 380.275992 281.881043 
L 380.711254 272.659861 
L 380.988 271.032611 
L 381.304944 273.744505 
L 381.740206 290.559617 
L 382.03704 293.814118 
L 382.483462 287.847438 
L 382.925398 299.238477 
L 383.233414 285.135544 
L 383.507928 281.881043 
L 383.94319 291.102224 
L 384.260112 294.356725 
L 384.731064 290.017295 
L 385.00339 282.965687 
L 385.315848 279.168864 
L 385.753342 268.320432 
L 386.19751 290.017295 
L 386.47651 288.390045 
L 386.951904 274.287112 
L 387.237578 279.168864 
L 387.53892 274.829434 
L 388.009872 287.847438 
L 388.641506 288.390045 
L 390.77753 282.423365 
L 390.77753 282.423365 
" clip-path="url(#p1219ef946c)" style="fill: none; stroke: #74a9cf; stroke-width: 1.5; stroke-linecap: square"/>
   </g>
   <g id="patch_7">
    <path d="M 54 384.48 
L 54 251.424 
" style="fill: none; stroke: #000000; stroke-width: 0.5; stroke-linejoin: miter; stroke-linecap: square"/>
   </g>
   <g id="patch_8">
    <path d="M 54 384.48 
L 388.8 384.48 
" style="fill: none; stroke: #000000; stroke-width: 0.5; stroke-linejoin: miter; stroke-linecap: square"/>
   </g>
   <g id="text_37">
    <!-- 104 m/z for Dynamic TGA -->
    <g transform="translate(157.046875 245.424) scale(0.1 -0.1)">
     <defs>
      <path id="DejaVuSans-2f" d="M 1625 4666 
L 2156 4666 
L 531 -594 
L 0 -594 
L 1625 4666 
z
" transform="scale(0.015625)"/>
      <path id="DejaVuSans-66" d="M 2375 4863 
L 2375 4384 
L 1825 4384 
Q 1516 4384 1395 4259 
Q 1275 4134 1275 3809 
L 1275 3500 
L 2222 3500 
L 2222 3053 
L 1275 3053 
L 1275 0 
L 697 0 
L 697 3053 
L 147 3053 
L 147 3500 
L 697 3500 
L 697 3744 
Q 697 4328 969 4595 
Q 1241 4863 1831 4863 
L 2375 4863 
z
" transform="scale(0.015625)"/>
     </defs>
     <use xlink:href="#DejaVuSans-31"/>
     <use xlink:href="#DejaVuSans-30" x="63.623047"/>
     <use xlink:href="#DejaVuSans-34" x="127.246094"/>
     <use xlink:href="#DejaVuSans-20" x="190.869141"/>
     <use xlink:href="#DejaVuSans-6d" x="222.65625"/>
     <use xlink:href="#DejaVuSans-2f" x="320.068359"/>
     <use xlink:href="#DejaVuSans-7a" x="353.759766"/>
     <use xlink:href="#DejaVuSans-20" x="406.25"/>
     <use xlink:href="#DejaVuSans-66" x="438.037109"/>
     <use xlink:href="#DejaVuSans-6f" x="473.242188"/>
     <use xlink:href="#DejaVuSans-72" x="534.423828"/>
     <use xlink:href="#DejaVuSans-20" x="575.537109"/>
     <use xlink:href="#DejaVuSans-44" x="607.324219"/>
     <use xlink:href="#DejaVuSans-79" x="684.326172"/>
     <use xlink:href="#DejaVuSans-6e" x="743.505859"/>
     <use xlink:href="#DejaVuSans-61" x="806.884766"/>
     <use xlink:href="#DejaVuSans-6d" x="868.164062"/>
     <use xlink:href="#DejaVuSans-69" x="965.576172"/>
     <use xlink:href="#DejaVuSans-63" x="993.359375"/>
     <use xlink:href="#DejaVuSans-20" x="1048.339844"/>
     <use xlink:href="#DejaVuSans-54" x="1080.126953"/>
     <use xlink:href="#DejaVuSans-47" x="1141.210938"/>
     <use xlink:href="#DejaVuSans-41" x="1218.701172"/>
    </g>
   </g>
   <g id="legend_2">
    <g id="patch_9">
     <path d="M 287 334.130125 
L 381.8 334.130125 
Q 383.8 334.130125 383.8 332.130125 
L 383.8 303.773875 
Q 383.8 301.773875 381.8 301.773875 
L 287 301.773875 
Q 285 301.773875 285 303.773875 
L 285 332.130125 
Q 285 334.130125 287 334.130125 
z
" style="fill: #ffffff; opacity: 0.8; stroke: #cccccc; stroke-linejoin: miter"/>
    </g>
    <g id="line2d_36">
     <path d="M 289 309.872313 
L 299 309.872313 
L 309 309.872313 
" style="fill: none; stroke: #bdbdbd; stroke-width: 1.5; stroke-linecap: square"/>
    </g>
    <g id="text_38">
     <!-- PS-10K -->
     <g transform="translate(317 313.372313) scale(0.1 -0.1)">
      <use xlink:href="#DejaVuSans-50"/>
      <use xlink:href="#DejaVuSans-53" x="60.302734"/>
      <use xlink:href="#DejaVuSans-2d" x="123.779297"/>
      <use xlink:href="#DejaVuSans-31" x="159.863281"/>
      <use xlink:href="#DejaVuSans-30" x="223.486328"/>
      <use xlink:href="#DejaVuSans-4b" x="287.109375"/>
     </g>
    </g>
    <g id="line2d_37">
     <path d="M 289 324.550437 
L 299 324.550437 
L 309 324.550437 
" style="fill: none; stroke: #74a9cf; stroke-width: 1.5; stroke-linecap: square"/>
    </g>
    <g id="text_39">
     <!-- PS-10K-SCF$_{3}$ -->
     <g transform="translate(317 328.050437) scale(0.1 -0.1)">
      <use xlink:href="#DejaVuSans-50" transform="translate(0 0.78125)"/>
      <use xlink:href="#DejaVuSans-53" transform="translate(60.302734 0.78125)"/>
      <use xlink:href="#DejaVuSans-2d" transform="translate(123.779297 0.78125)"/>
      <use xlink:href="#DejaVuSans-31" transform="translate(159.863281 0.78125)"/>
      <use xlink:href="#DejaVuSans-30" transform="translate(223.486328 0.78125)"/>
      <use xlink:href="#DejaVuSans-4b" transform="translate(287.109375 0.78125)"/>
      <use xlink:href="#DejaVuSans-2d" transform="translate(352.685547 0.78125)"/>
      <use xlink:href="#DejaVuSans-53" transform="translate(388.769531 0.78125)"/>
      <use xlink:href="#DejaVuSans-43" transform="translate(452.246094 0.78125)"/>
      <use xlink:href="#DejaVuSans-46" transform="translate(522.070312 0.78125)"/>
      <use xlink:href="#DejaVuSans-33" transform="translate(580.546875 -15.625) scale(0.7)"/>
     </g>
    </g>
   </g>
  </g>
 </g>
 <defs>
  <clipPath id="pa32ac394d2">
   <rect x="54" y="51.84" width="334.8" height="133.056"/>
  </clipPath>
  <clipPath id="p1219ef946c">
   <rect x="54" y="251.424" width="334.8" height="133.056"/>
  </clipPath>
 </defs>
</svg>
