<?xml version="1.0" encoding="utf-8" standalone="no"?>
<!DOCTYPE svg PUBLIC "-//W3C//DTD SVG 1.1//EN"
  "http://www.w3.org/Graphics/SVG/1.1/DTD/svg11.dtd">
<svg xmlns:xlink="http://www.w3.org/1999/xlink" width="432pt" height="432pt" viewBox="0 0 432 432" xmlns="http://www.w3.org/2000/svg" version="1.1">
 <metadata>
  <rdf:RDF xmlns:dc="http://purl.org/dc/elements/1.1/" xmlns:cc="http://creativecommons.org/ns#" xmlns:rdf="http://www.w3.org/1999/02/22-rdf-syntax-ns#">
   <cc:Work>
    <dc:type rdf:resource="http://purl.org/dc/dcmitype/StillImage"/>
    <dc:date>2025-07-02T20:25:19.344754</dc:date>
    <dc:format>image/svg+xml</dc:format>
    <dc:creator>
     <cc:Agent>
      <dc:title>Matplotlib v3.7.1, https://matplotlib.org/</dc:title>
     </cc:Agent>
    </dc:creator>
   </cc:Work>
  </rdf:RDF>
 </metadata>
 <defs>
  <style type="text/css">*{stroke-linejoin: round; stroke-linecap: butt}</style>
 </defs>
 <g id="figure_1">
  <g id="patch_1">
   <path d="M 0 432 
L 432 432 
L 432 0 
L 0 0 
z
" style="fill: #ffffff"/>
  </g>
  <g id="axes_1">
   <g id="patch_2">
    <path d="M 54 184.896 
L 388.8 184.896 
L 388.8 51.84 
L 54 51.84 
z
" style="fill: #ffffff"/>
   </g>
   <g id="matplotlib.axis_1">
    <g id="xtick_1">
     <g id="line2d_1">
      <defs>
       <path id="mde5cb341bd" d="M 0 0 
L 0 -3.5 
" style="stroke: #000000; stroke-width: 0.8"/>
      </defs>
      <g>
       <use xlink:href="#mde5cb341bd" x="76.32" y="184.896" style="stroke: #000000; stroke-width: 0.8"/>
      </g>
     </g>
     <g id="text_1">
      <!-- 260 -->
      <g transform="translate(68.685 194.47475) scale(0.08 -0.08)">
       <defs>
        <path id="DejaVuSans-32" d="M 1228 531 
L 3431 531 
L 3431 0 
L 469 0 
L 469 531 
Q 828 903 1448 1529 
Q 2069 2156 2228 2338 
Q 2531 2678 2651 2914 
Q 2772 3150 2772 3378 
Q 2772 3750 2511 3984 
Q 2250 4219 1831 4219 
Q 1534 4219 1204 4116 
Q 875 4013 500 3803 
L 500 4441 
Q 881 4594 1212 4672 
Q 1544 4750 1819 4750 
Q 2544 4750 2975 4387 
Q 3406 4025 3406 3419 
Q 3406 3131 3298 2873 
Q 3191 2616 2906 2266 
Q 2828 2175 2409 1742 
Q 1991 1309 1228 531 
z
" transform="scale(0.015625)"/>
        <path id="DejaVuSans-36" d="M 2113 2584 
Q 1688 2584 1439 2293 
Q 1191 2003 1191 1497 
Q 1191 994 1439 701 
Q 1688 409 2113 409 
Q 2538 409 2786 701 
Q 3034 994 3034 1497 
Q 3034 2003 2786 2293 
Q 2538 2584 2113 2584 
z
M 3366 4563 
L 3366 3988 
Q 3128 4100 2886 4159 
Q 2644 4219 2406 4219 
Q 1781 4219 1451 3797 
Q 1122 3375 1075 2522 
Q 1259 2794 1537 2939 
Q 1816 3084 2150 3084 
Q 2853 3084 3261 2657 
Q 3669 2231 3669 1497 
Q 3669 778 3244 343 
Q 2819 -91 2113 -91 
Q 1303 -91 875 529 
Q 447 1150 447 2328 
Q 447 3434 972 4092 
Q 1497 4750 2381 4750 
Q 2619 4750 2861 4703 
Q 3103 4656 3366 4563 
z
" transform="scale(0.015625)"/>
        <path id="DejaVuSans-30" d="M 2034 4250 
Q 1547 4250 1301 3770 
Q 1056 3291 1056 2328 
Q 1056 1369 1301 889 
Q 1547 409 2034 409 
Q 2525 409 2770 889 
Q 3016 1369 3016 2328 
Q 3016 3291 2770 3770 
Q 2525 4250 2034 4250 
z
M 2034 4750 
Q 2819 4750 3233 4129 
Q 3647 3509 3647 2328 
Q 3647 1150 3233 529 
Q 2819 -91 2034 -91 
Q 1250 -91 836 529 
Q 422 1150 422 2328 
Q 422 3509 836 4129 
Q 1250 4750 2034 4750 
z
" transform="scale(0.015625)"/>
       </defs>
       <use xlink:href="#DejaVuSans-32"/>
       <use xlink:href="#DejaVuSans-36" x="63.623047"/>
       <use xlink:href="#DejaVuSans-30" x="127.246094"/>
      </g>
     </g>
    </g>
    <g id="xtick_2">
     <g id="line2d_2">
      <g>
       <use xlink:href="#mde5cb341bd" x="120.96" y="184.896" style="stroke: #000000; stroke-width: 0.8"/>
      </g>
     </g>
     <g id="text_2">
      <!-- 280 -->
      <g transform="translate(113.325 194.47475) scale(0.08 -0.08)">
       <defs>
        <path id="DejaVuSans-38" d="M 2034 2216 
Q 1584 2216 1326 1975 
Q 1069 1734 1069 1313 
Q 1069 891 1326 650 
Q 1584 409 2034 409 
Q 2484 409 2743 651 
Q 3003 894 3003 1313 
Q 3003 1734 2745 1975 
Q 2488 2216 2034 2216 
z
M 1403 2484 
Q 997 2584 770 2862 
Q 544 3141 544 3541 
Q 544 4100 942 4425 
Q 1341 4750 2034 4750 
Q 2731 4750 3128 4425 
Q 3525 4100 3525 3541 
Q 3525 3141 3298 2862 
Q 3072 2584 2669 2484 
Q 3125 2378 3379 2068 
Q 3634 1759 3634 1313 
Q 3634 634 3220 271 
Q 2806 -91 2034 -91 
Q 1263 -91 848 271 
Q 434 634 434 1313 
Q 434 1759 690 2068 
Q 947 2378 1403 2484 
z
M 1172 3481 
Q 1172 3119 1398 2916 
Q 1625 2713 2034 2713 
Q 2441 2713 2670 2916 
Q 2900 3119 2900 3481 
Q 2900 3844 2670 4047 
Q 2441 4250 2034 4250 
Q 1625 4250 1398 4047 
Q 1172 3844 1172 3481 
z
" transform="scale(0.015625)"/>
       </defs>
       <use xlink:href="#DejaVuSans-32"/>
       <use xlink:href="#DejaVuSans-38" x="63.623047"/>
       <use xlink:href="#DejaVuSans-30" x="127.246094"/>
      </g>
     </g>
    </g>
    <g id="xtick_3">
     <g id="line2d_3">
      <g>
       <use xlink:href="#mde5cb341bd" x="165.6" y="184.896" style="stroke: #000000; stroke-width: 0.8"/>
      </g>
     </g>
     <g id="text_3">
      <!-- 300 -->
      <g transform="translate(157.965 194.47475) scale(0.08 -0.08)">
       <defs>
        <path id="DejaVuSans-33" d="M 2597 2516 
Q 3050 2419 3304 2112 
Q 3559 1806 3559 1356 
Q 3559 666 3084 287 
Q 2609 -91 1734 -91 
Q 1441 -91 1130 -33 
Q 819 25 488 141 
L 488 750 
Q 750 597 1062 519 
Q 1375 441 1716 441 
Q 2309 441 2620 675 
Q 2931 909 2931 1356 
Q 2931 1769 2642 2001 
Q 2353 2234 1838 2234 
L 1294 2234 
L 1294 2753 
L 1863 2753 
Q 2328 2753 2575 2939 
Q 2822 3125 2822 3475 
Q 2822 3834 2567 4026 
Q 2313 4219 1838 4219 
Q 1578 4219 1281 4162 
Q 984 4106 628 3988 
L 628 4550 
Q 988 4650 1302 4700 
Q 1616 4750 1894 4750 
Q 2613 4750 3031 4423 
Q 3450 4097 3450 3541 
Q 3450 3153 3228 2886 
Q 3006 2619 2597 2516 
z
" transform="scale(0.015625)"/>
       </defs>
       <use xlink:href="#DejaVuSans-33"/>
       <use xlink:href="#DejaVuSans-30" x="63.623047"/>
       <use xlink:href="#DejaVuSans-30" x="127.246094"/>
      </g>
     </g>
    </g>
    <g id="xtick_4">
     <g id="line2d_4">
      <g>
       <use xlink:href="#mde5cb341bd" x="210.24" y="184.896" style="stroke: #000000; stroke-width: 0.8"/>
      </g>
     </g>
     <g id="text_4">
      <!-- 320 -->
      <g transform="translate(202.605 194.47475) scale(0.08 -0.08)">
       <use xlink:href="#DejaVuSans-33"/>
       <use xlink:href="#DejaVuSans-32" x="63.623047"/>
       <use xlink:href="#DejaVuSans-30" x="127.246094"/>
      </g>
     </g>
    </g>
    <g id="xtick_5">
     <g id="line2d_5">
      <g>
       <use xlink:href="#mde5cb341bd" x="254.88" y="184.896" style="stroke: #000000; stroke-width: 0.8"/>
      </g>
     </g>
     <g id="text_5">
      <!-- 340 -->
      <g transform="translate(247.245 194.47475) scale(0.08 -0.08)">
       <defs>
        <path id="DejaVuSans-34" d="M 2419 4116 
L 825 1625 
L 2419 1625 
L 2419 4116 
z
M 2253 4666 
L 3047 4666 
L 3047 1625 
L 3713 1625 
L 3713 1100 
L 3047 1100 
L 3047 0 
L 2419 0 
L 2419 1100 
L 313 1100 
L 313 1709 
L 2253 4666 
z
" transform="scale(0.015625)"/>
       </defs>
       <use xlink:href="#DejaVuSans-33"/>
       <use xlink:href="#DejaVuSans-34" x="63.623047"/>
       <use xlink:href="#DejaVuSans-30" x="127.246094"/>
      </g>
     </g>
    </g>
    <g id="xtick_6">
     <g id="line2d_6">
      <g>
       <use xlink:href="#mde5cb341bd" x="299.52" y="184.896" style="stroke: #000000; stroke-width: 0.8"/>
      </g>
     </g>
     <g id="text_6">
      <!-- 360 -->
      <g transform="translate(291.885 194.47475) scale(0.08 -0.08)">
       <use xlink:href="#DejaVuSans-33"/>
       <use xlink:href="#DejaVuSans-36" x="63.623047"/>
       <use xlink:href="#DejaVuSans-30" x="127.246094"/>
      </g>
     </g>
    </g>
    <g id="xtick_7">
     <g id="line2d_7">
      <g>
       <use xlink:href="#mde5cb341bd" x="344.16" y="184.896" style="stroke: #000000; stroke-width: 0.8"/>
      </g>
     </g>
     <g id="text_7">
      <!-- 380 -->
      <g transform="translate(336.525 194.47475) scale(0.08 -0.08)">
       <use xlink:href="#DejaVuSans-33"/>
       <use xlink:href="#DejaVuSans-38" x="63.623047"/>
       <use xlink:href="#DejaVuSans-30" x="127.246094"/>
      </g>
     </g>
    </g>
    <g id="xtick_8">
     <g id="line2d_8">
      <g>
       <use xlink:href="#mde5cb341bd" x="388.8" y="184.896" style="stroke: #000000; stroke-width: 0.8"/>
      </g>
     </g>
     <g id="text_8">
      <!-- 400 -->
      <g transform="translate(381.165 194.47475) scale(0.08 -0.08)">
       <use xlink:href="#DejaVuSans-34"/>
       <use xlink:href="#DejaVuSans-30" x="63.623047"/>
       <use xlink:href="#DejaVuSans-30" x="127.246094"/>
      </g>
     </g>
    </g>
    <g id="text_9">
     <!-- Temp ($^{o}$C) -->
     <g transform="translate(195.9 207.9385) scale(0.1 -0.1)">
      <defs>
       <path id="DejaVuSans-54" d="M -19 4666 
L 3928 4666 
L 3928 4134 
L 2272 4134 
L 2272 0 
L 1638 0 
L 1638 4134 
L -19 4134 
L -19 4666 
z
" transform="scale(0.015625)"/>
       <path id="DejaVuSans-65" d="M 3597 1894 
L 3597 1613 
L 953 1613 
Q 991 1019 1311 708 
Q 1631 397 2203 397 
Q 2534 397 2845 478 
Q 3156 559 3463 722 
L 3463 178 
Q 3153 47 2828 -22 
Q 2503 -91 2169 -91 
Q 1331 -91 842 396 
Q 353 884 353 1716 
Q 353 2575 817 3079 
Q 1281 3584 2069 3584 
Q 2775 3584 3186 3129 
Q 3597 2675 3597 1894 
z
M 3022 2063 
Q 3016 2534 2758 2815 
Q 2500 3097 2075 3097 
Q 1594 3097 1305 2825 
Q 1016 2553 972 2059 
L 3022 2063 
z
" transform="scale(0.015625)"/>
       <path id="DejaVuSans-6d" d="M 3328 2828 
Q 3544 3216 3844 3400 
Q 4144 3584 4550 3584 
Q 5097 3584 5394 3201 
Q 5691 2819 5691 2113 
L 5691 0 
L 5113 0 
L 5113 2094 
Q 5113 2597 4934 2840 
Q 4756 3084 4391 3084 
Q 3944 3084 3684 2787 
Q 3425 2491 3425 1978 
L 3425 0 
L 2847 0 
L 2847 2094 
Q 2847 2600 2669 2842 
Q 2491 3084 2119 3084 
Q 1678 3084 1418 2786 
Q 1159 2488 1159 1978 
L 1159 0 
L 581 0 
L 581 3500 
L 1159 3500 
L 1159 2956 
Q 1356 3278 1631 3431 
Q 1906 3584 2284 3584 
Q 2666 3584 2933 3390 
Q 3200 3197 3328 2828 
z
" transform="scale(0.015625)"/>
       <path id="DejaVuSans-70" d="M 1159 525 
L 1159 -1331 
L 581 -1331 
L 581 3500 
L 1159 3500 
L 1159 2969 
Q 1341 3281 1617 3432 
Q 1894 3584 2278 3584 
Q 2916 3584 3314 3078 
Q 3713 2572 3713 1747 
Q 3713 922 3314 415 
Q 2916 -91 2278 -91 
Q 1894 -91 1617 61 
Q 1341 213 1159 525 
z
M 3116 1747 
Q 3116 2381 2855 2742 
Q 2594 3103 2138 3103 
Q 1681 3103 1420 2742 
Q 1159 2381 1159 1747 
Q 1159 1113 1420 752 
Q 1681 391 2138 391 
Q 2594 391 2855 752 
Q 3116 1113 3116 1747 
z
" transform="scale(0.015625)"/>
       <path id="DejaVuSans-20" transform="scale(0.015625)"/>
       <path id="DejaVuSans-28" d="M 1984 4856 
Q 1566 4138 1362 3434 
Q 1159 2731 1159 2009 
Q 1159 1288 1364 580 
Q 1569 -128 1984 -844 
L 1484 -844 
Q 1016 -109 783 600 
Q 550 1309 550 2009 
Q 550 2706 781 3412 
Q 1013 4119 1484 4856 
L 1984 4856 
z
" transform="scale(0.015625)"/>
       <path id="DejaVuSans-Oblique-6f" d="M 1625 -91 
Q 1009 -91 651 289 
Q 294 669 294 1325 
Q 294 1706 417 2101 
Q 541 2497 738 2766 
Q 1047 3184 1428 3384 
Q 1809 3584 2291 3584 
Q 2888 3584 3255 3212 
Q 3622 2841 3622 2241 
Q 3622 1825 3500 1412 
Q 3378 1000 3181 728 
Q 2875 309 2494 109 
Q 2113 -91 1625 -91 
z
M 891 1344 
Q 891 869 1089 633 
Q 1288 397 1691 397 
Q 2269 397 2648 901 
Q 3028 1406 3028 2181 
Q 3028 2634 2825 2865 
Q 2622 3097 2228 3097 
Q 1903 3097 1650 2945 
Q 1397 2794 1197 2484 
Q 1050 2253 970 1956 
Q 891 1659 891 1344 
z
" transform="scale(0.015625)"/>
       <path id="DejaVuSans-43" d="M 4122 4306 
L 4122 3641 
Q 3803 3938 3442 4084 
Q 3081 4231 2675 4231 
Q 1875 4231 1450 3742 
Q 1025 3253 1025 2328 
Q 1025 1406 1450 917 
Q 1875 428 2675 428 
Q 3081 428 3442 575 
Q 3803 722 4122 1019 
L 4122 359 
Q 3791 134 3420 21 
Q 3050 -91 2638 -91 
Q 1578 -91 968 557 
Q 359 1206 359 2328 
Q 359 3453 968 4101 
Q 1578 4750 2638 4750 
Q 3056 4750 3426 4639 
Q 3797 4528 4122 4306 
z
" transform="scale(0.015625)"/>
       <path id="DejaVuSans-29" d="M 513 4856 
L 1013 4856 
Q 1481 4119 1714 3412 
Q 1947 2706 1947 2009 
Q 1947 1309 1714 600 
Q 1481 -109 1013 -844 
L 513 -844 
Q 928 -128 1133 580 
Q 1338 1288 1338 2009 
Q 1338 2731 1133 3434 
Q 928 4138 513 4856 
z
" transform="scale(0.015625)"/>
      </defs>
      <use xlink:href="#DejaVuSans-54" transform="translate(0 0.51875)"/>
      <use xlink:href="#DejaVuSans-65" transform="translate(61.083984 0.51875)"/>
      <use xlink:href="#DejaVuSans-6d" transform="translate(122.607422 0.51875)"/>
      <use xlink:href="#DejaVuSans-70" transform="translate(220.019531 0.51875)"/>
      <use xlink:href="#DejaVuSans-20" transform="translate(283.496094 0.51875)"/>
      <use xlink:href="#DejaVuSans-28" transform="translate(315.283203 0.51875)"/>
      <use xlink:href="#DejaVuSans-Oblique-6f" transform="translate(355.253906 38.8) scale(0.7)"/>
      <use xlink:href="#DejaVuSans-43" transform="translate(400.81543 0.51875)"/>
      <use xlink:href="#DejaVuSans-29" transform="translate(470.639648 0.51875)"/>
     </g>
    </g>
   </g>
   <g id="matplotlib.axis_2">
    <g id="ytick_1">
     <g id="line2d_9">
      <defs>
       <path id="m1a0a0d0cc7" d="M 0 0 
L 3.5 0 
" style="stroke: #000000; stroke-width: 0.8"/>
      </defs>
      <g>
       <use xlink:href="#m1a0a0d0cc7" x="54" y="183.651509" style="stroke: #000000; stroke-width: 0.8"/>
      </g>
     </g>
     <g id="text_10">
      <!-- 0 -->
      <g transform="translate(45.41 186.690884) scale(0.08 -0.08)">
       <use xlink:href="#DejaVuSans-30"/>
      </g>
     </g>
    </g>
    <g id="ytick_2">
     <g id="line2d_10">
      <g>
       <use xlink:href="#m1a0a0d0cc7" x="54" y="158.636881" style="stroke: #000000; stroke-width: 0.8"/>
      </g>
     </g>
     <g id="text_11">
      <!-- 20 -->
      <g transform="translate(40.32 161.676256) scale(0.08 -0.08)">
       <use xlink:href="#DejaVuSans-32"/>
       <use xlink:href="#DejaVuSans-30" x="63.623047"/>
      </g>
     </g>
    </g>
    <g id="ytick_3">
     <g id="line2d_11">
      <g>
       <use xlink:href="#m1a0a0d0cc7" x="54" y="133.622252" style="stroke: #000000; stroke-width: 0.8"/>
      </g>
     </g>
     <g id="text_12">
      <!-- 40 -->
      <g transform="translate(40.32 136.661627) scale(0.08 -0.08)">
       <use xlink:href="#DejaVuSans-34"/>
       <use xlink:href="#DejaVuSans-30" x="63.623047"/>
      </g>
     </g>
    </g>
    <g id="ytick_4">
     <g id="line2d_12">
      <g>
       <use xlink:href="#m1a0a0d0cc7" x="54" y="108.607623" style="stroke: #000000; stroke-width: 0.8"/>
      </g>
     </g>
     <g id="text_13">
      <!-- 60 -->
      <g transform="translate(40.32 111.646998) scale(0.08 -0.08)">
       <use xlink:href="#DejaVuSans-36"/>
       <use xlink:href="#DejaVuSans-30" x="63.623047"/>
      </g>
     </g>
    </g>
    <g id="ytick_5">
     <g id="line2d_13">
      <g>
       <use xlink:href="#m1a0a0d0cc7" x="54" y="83.592995" style="stroke: #000000; stroke-width: 0.8"/>
      </g>
     </g>
     <g id="text_14">
      <!-- 80 -->
      <g transform="translate(40.32 86.63237) scale(0.08 -0.08)">
       <use xlink:href="#DejaVuSans-38"/>
       <use xlink:href="#DejaVuSans-30" x="63.623047"/>
      </g>
     </g>
    </g>
    <g id="ytick_6">
     <g id="line2d_14">
      <g>
       <use xlink:href="#m1a0a0d0cc7" x="54" y="58.578366" style="stroke: #000000; stroke-width: 0.8"/>
      </g>
     </g>
     <g id="text_15">
      <!-- 100 -->
      <g transform="translate(35.23 61.617741) scale(0.08 -0.08)">
       <defs>
        <path id="DejaVuSans-31" d="M 794 531 
L 1825 531 
L 1825 4091 
L 703 3866 
L 703 4441 
L 1819 4666 
L 2450 4666 
L 2450 531 
L 3481 531 
L 3481 0 
L 794 0 
L 794 531 
z
" transform="scale(0.015625)"/>
       </defs>
       <use xlink:href="#DejaVuSans-31"/>
       <use xlink:href="#DejaVuSans-30" x="63.623047"/>
       <use xlink:href="#DejaVuSans-30" x="127.246094"/>
      </g>
     </g>
    </g>
    <g id="text_16">
     <!-- Mass (%) -->
     <g transform="translate(29.150313 141.196906) rotate(-90) scale(0.1 -0.1)">
      <defs>
       <path id="DejaVuSans-4d" d="M 628 4666 
L 1569 4666 
L 2759 1491 
L 3956 4666 
L 4897 4666 
L 4897 0 
L 4281 0 
L 4281 4097 
L 3078 897 
L 2444 897 
L 1241 4097 
L 1241 0 
L 628 0 
L 628 4666 
z
" transform="scale(0.015625)"/>
       <path id="DejaVuSans-61" d="M 2194 1759 
Q 1497 1759 1228 1600 
Q 959 1441 959 1056 
Q 959 750 1161 570 
Q 1363 391 1709 391 
Q 2188 391 2477 730 
Q 2766 1069 2766 1631 
L 2766 1759 
L 2194 1759 
z
M 3341 1997 
L 3341 0 
L 2766 0 
L 2766 531 
Q 2569 213 2275 61 
Q 1981 -91 1556 -91 
Q 1019 -91 701 211 
Q 384 513 384 1019 
Q 384 1609 779 1909 
Q 1175 2209 1959 2209 
L 2766 2209 
L 2766 2266 
Q 2766 2663 2505 2880 
Q 2244 3097 1772 3097 
Q 1472 3097 1187 3025 
Q 903 2953 641 2809 
L 641 3341 
Q 956 3463 1253 3523 
Q 1550 3584 1831 3584 
Q 2591 3584 2966 3190 
Q 3341 2797 3341 1997 
z
" transform="scale(0.015625)"/>
       <path id="DejaVuSans-73" d="M 2834 3397 
L 2834 2853 
Q 2591 2978 2328 3040 
Q 2066 3103 1784 3103 
Q 1356 3103 1142 2972 
Q 928 2841 928 2578 
Q 928 2378 1081 2264 
Q 1234 2150 1697 2047 
L 1894 2003 
Q 2506 1872 2764 1633 
Q 3022 1394 3022 966 
Q 3022 478 2636 193 
Q 2250 -91 1575 -91 
Q 1294 -91 989 -36 
Q 684 19 347 128 
L 347 722 
Q 666 556 975 473 
Q 1284 391 1588 391 
Q 1994 391 2212 530 
Q 2431 669 2431 922 
Q 2431 1156 2273 1281 
Q 2116 1406 1581 1522 
L 1381 1569 
Q 847 1681 609 1914 
Q 372 2147 372 2553 
Q 372 3047 722 3315 
Q 1072 3584 1716 3584 
Q 2034 3584 2315 3537 
Q 2597 3491 2834 3397 
z
" transform="scale(0.015625)"/>
       <path id="DejaVuSans-25" d="M 4653 2053 
Q 4381 2053 4226 1822 
Q 4072 1591 4072 1178 
Q 4072 772 4226 539 
Q 4381 306 4653 306 
Q 4919 306 5073 539 
Q 5228 772 5228 1178 
Q 5228 1588 5073 1820 
Q 4919 2053 4653 2053 
z
M 4653 2450 
Q 5147 2450 5437 2106 
Q 5728 1763 5728 1178 
Q 5728 594 5436 251 
Q 5144 -91 4653 -91 
Q 4153 -91 3862 251 
Q 3572 594 3572 1178 
Q 3572 1766 3864 2108 
Q 4156 2450 4653 2450 
z
M 1428 4353 
Q 1159 4353 1004 4120 
Q 850 3888 850 3481 
Q 850 3069 1003 2837 
Q 1156 2606 1428 2606 
Q 1700 2606 1854 2837 
Q 2009 3069 2009 3481 
Q 2009 3884 1853 4118 
Q 1697 4353 1428 4353 
z
M 4250 4750 
L 4750 4750 
L 1831 -91 
L 1331 -91 
L 4250 4750 
z
M 1428 4750 
Q 1922 4750 2215 4408 
Q 2509 4066 2509 3481 
Q 2509 2891 2217 2550 
Q 1925 2209 1428 2209 
Q 931 2209 642 2551 
Q 353 2894 353 3481 
Q 353 4063 643 4406 
Q 934 4750 1428 4750 
z
" transform="scale(0.015625)"/>
      </defs>
      <use xlink:href="#DejaVuSans-4d"/>
      <use xlink:href="#DejaVuSans-61" x="86.279297"/>
      <use xlink:href="#DejaVuSans-73" x="147.558594"/>
      <use xlink:href="#DejaVuSans-73" x="199.658203"/>
      <use xlink:href="#DejaVuSans-20" x="251.757812"/>
      <use xlink:href="#DejaVuSans-28" x="283.544922"/>
      <use xlink:href="#DejaVuSans-25" x="322.558594"/>
      <use xlink:href="#DejaVuSans-29" x="417.578125"/>
     </g>
    </g>
   </g>
   <g id="line2d_15">
    <path d="M 54.008928 58.578366 
L 66.465742 58.475031 
L 67.188888 58.443475 
L 67.813848 58.475031 
L 68.876302 58.427578 
L 81.975888 58.332185 
L 82.41557 58.332185 
L 97.309706 58.229087 
L 98.048498 58.205248 
L 112.174848 58.110092 
L 112.93596 58.086253 
L 133.171294 57.991098 
L 133.760498 57.991098 
L 199.642486 58.10215 
L 200.249546 58.118047 
L 205.773746 58.205248 
L 206.195594 58.237042 
L 207.23796 58.237042 
L 213.045602 58.340139 
L 213.639358 58.356036 
L 218.116706 58.467076 
L 219.025152 58.522721 
L 222.725786 58.617877 
L 223.312802 58.64967 
L 225.864 58.744814 
L 226.593864 58.784562 
L 229.263358 58.877141 
L 230.290056 58.951247 
L 233.140342 59.062287 
L 234.184896 59.141546 
L 236.27849 59.244868 
L 236.863318 59.308231 
L 237.16908 59.310795 
L 237.905618 59.374394 
L 239.666666 59.469537 
L 240.72912 59.564693 
L 242.193334 59.660074 
L 243.224541 59.755217 
L 244.583762 59.850373 
L 245.456541 59.945753 
L 246.641666 60.040897 
L 247.384944 60.136052 
L 248.29781 60.231195 
L 248.913864 60.262989 
L 249.813382 60.358145 
L 250.712856 60.453525 
L 250.989602 60.493036 
L 252.025294 60.619973 
L 252.74623 60.715366 
L 253.94477 60.858199 
L 254.84873 60.955919 
L 256.489294 61.212619 
L 257.219136 61.307762 
L 264.526682 62.516419 
L 264.957502 62.611562 
L 272.686896 64.444647 
L 276.534864 65.60046 
L 277.590578 65.962822 
L 278.501278 66.227227 
L 279.217706 66.523425 
L 280.266746 66.949149 
L 281.025626 67.195318 
L 281.594786 67.427929 
L 284.14373 68.486023 
L 284.893682 68.800694 
L 290.527294 71.664982 
L 293.835096 73.62758 
L 294.252502 73.921214 
L 295.239024 74.532083 
L 295.455506 74.701345 
L 297.553586 76.18515 
L 297.973246 76.513155 
L 298.723198 77.063239 
L 301.410459 79.258447 
L 302.586746 80.292465 
L 303.162602 80.787141 
L 304.18488 81.752431 
L 305.990546 83.442669 
L 307.472594 84.98726 
L 308.079698 85.585047 
L 309.126506 86.701112 
L 310.021538 87.743084 
L 315.826992 94.902871 
L 319.241952 99.682079 
L 319.98523 100.803522 
L 322.22165 104.225848 
L 329.042642 115.884541 
L 334.381586 125.85556 
L 335.127096 127.328847 
L 335.58912 128.183084 
L 344.825136 146.035811 
L 345.447864 147.152127 
L 346.02151 148.302562 
L 347.356246 150.73576 
L 349.608334 154.597368 
L 350.342618 155.821909 
L 351.693 158.009176 
L 353.15496 160.26517 
L 354.049992 161.553299 
L 356.587754 165.023328 
L 356.802048 165.182058 
L 357.19488 165.729578 
L 357.790802 166.443784 
L 360.781682 169.598891 
L 365.357326 173.283296 
L 366.294722 173.777973 
L 367.314746 174.391419 
L 367.475494 174.399361 
L 367.901762 174.682476 
L 369.412848 175.364888 
L 371.486398 176.155538 
L 372.30773 176.404271 
L 372.52651 176.48353 
L 373.908096 176.882827 
L 374.318762 176.98336 
L 379.97465 178.030935 
L 380.87419 178.134032 
L 382.786992 178.379964 
L 383.831546 178.475119 
L 384.880586 178.602056 
L 386.480952 178.697212 
L 387.543406 178.792593 
L 392.05651 178.689495 
L 394.85988 178.567686 
L 402.680786 178.210702 
L 405.35249 178.102226 
L 409.468342 178.020178 
L 413.046238 177.917081 
L 416.470104 177.872192 
L 426.123459 177.768856 
L 427.893502 177.745243 
L 433 177.713449 
L 433 177.713449 
" clip-path="url(#pb35ac1dc9f)" style="fill: none; stroke: #737373; stroke-width: 1.5; stroke-linecap: square"/>
   </g>
   <g id="line2d_16">
    <path d="M 54.017856 58.578366 
L 54.475416 58.578366 
L 55.031206 58.569911 
L 71.416318 58.485374 
L 71.860486 58.485374 
L 84.529318 58.389894 
L 85.100666 58.389894 
L 94.153658 58.311072 
L 94.47953 58.311072 
L 95.18935 58.378699 
L 104.757912 58.285708 
L 105.03247 58.277253 
L 105.50561 58.353335 
L 143.717494 58.44335 
L 144.266522 58.47717 
L 145.172714 58.47717 
L 147.527541 58.502284 
L 154.53149 58.595276 
L 154.97347 58.628846 
L 155.573856 58.595276 
L 164.24069 58.685291 
L 164.983968 58.752681 
L 165.582144 58.718861 
L 168.820754 58.828763 
L 169.539502 58.862332 
L 174.610562 58.969257 
L 175.222152 58.994622 
L 177.119374 59.045339 
L 177.594746 59.045339 
L 177.996506 59.045339 
L 181.639152 59.146549 
L 182.215008 59.214176 
L 182.677032 59.214176 
L 185.804064 59.315385 
L 186.525 59.382762 
L 186.98477 59.349192 
L 187.725794 59.416581 
L 190.850594 59.517791 
L 191.899634 59.585418 
L 194.59147 59.686627 
L 195.930626 59.737344 
L 198.305541 59.838553 
L 198.921506 59.90618 
L 201.14239 60.015844 
L 202.33651 60.075016 
L 203.974754 60.176226 
L 205.15104 60.277422 
L 207.112968 60.378632 
L 207.847318 60.446259 
L 209.630642 60.547468 
L 211.110502 60.682484 
L 211.55688 60.699394 
L 212.29123 60.767021 
L 213.650541 60.86823 
L 215.134754 60.969427 
L 216.016438 61.070636 
L 217.36008 61.172083 
L 218.25288 61.27328 
L 220.779459 61.48713 
L 221.23481 61.579872 
L 222.433438 61.681081 
L 223.040498 61.748708 
L 224.219016 61.849917 
L 225.245714 61.984933 
L 226.283594 62.08638 
L 227.171952 62.187589 
L 231.064538 62.646108 
L 231.363626 62.716474 
L 232.54884 62.88531 
L 233.28761 62.986519 
L 234.02196 63.087716 
L 234.769658 63.191902 
L 236.10888 63.363477 
L 236.707056 63.498494 
L 237.454754 63.59969 
L 238.334206 63.771266 
L 239.662246 63.866997 
L 242.474522 64.443634 
L 243.371786 64.545081 
L 243.96331 64.722122 
L 246.003358 65.138615 
L 246.634992 65.242551 
L 258.299446 68.100835 
L 258.739128 68.22442 
L 260.062682 68.581729 
L 260.957714 68.894049 
L 261.975506 69.206356 
L 263.611562 69.757616 
L 264.374928 69.991103 
L 266.00873 70.587627 
L 266.73192 70.835046 
L 267.327864 71.0546 
L 268.651462 71.555143 
L 269.829936 72.027831 
L 271.93469 72.914037 
L 272.374438 73.096807 
L 273.423478 73.535676 
L 274.599698 74.044924 
L 275.988024 74.655368 
L 276.425541 74.905765 
L 277.177658 75.260097 
L 286.34004 80.337866 
L 288.73723 81.890712 
L 289.48716 82.346491 
L 290.20361 82.847034 
L 290.88216 83.260801 
L 298.575864 89.16833 
L 299.589214 90.034637 
L 306.874462 96.704537 
L 307.298498 97.199614 
L 308.206944 98.097002 
L 312.67543 102.792097 
L 313.244546 103.478636 
L 315.33151 105.802308 
L 322.023024 113.881583 
L 330.973366 125.47435 
L 332.47327 127.525249 
L 332.750016 127.896491 
L 335.580214 131.683005 
L 336.17165 132.473468 
L 336.633674 133.033195 
L 338.722848 135.801464 
L 339.198286 136.375362 
L 339.466104 136.777435 
L 340.207128 137.736733 
L 341.84988 139.903012 
L 342.724802 140.955078 
L 346.91431 146.195955 
L 352.108152 151.996572 
L 353.306714 153.228655 
L 354.324506 154.289163 
L 355.384706 155.296214 
L 355.688302 155.608522 
L 356.462762 156.261241 
L 356.755198 156.556639 
L 357.313198 157.110888 
L 358.817522 158.421792 
L 362.085214 161.077183 
L 362.995848 161.760982 
L 364.172112 162.627289 
L 364.77031 163.040806 
L 367.12949 164.506613 
L 371.013214 166.672642 
L 375.472706 168.66138 
L 376.053048 168.880946 
L 376.963682 169.221358 
L 379.175594 169.947182 
L 380.52149 170.329606 
L 381.273674 170.571547 
L 388.596888 172.070937 
L 393.147936 171.961273 
L 396.250438 171.792436 
L 398.580602 171.696956 
L 400.033634 171.635044 
L 402.73884 171.516688 
L 406.497506 171.415478 
L 409.720514 171.333918 
L 416.246904 171.227006 
L 420.57031 171.156627 
L 433 171.123057 
L 433 171.123057 
" clip-path="url(#pb35ac1dc9f)" style="fill: none; stroke: #0570b0; stroke-width: 1.5; stroke-linecap: square"/>
   </g>
   <g id="line2d_17">
    <path d="M 54 59.203732 
L 388.8 59.203732 
" clip-path="url(#pb35ac1dc9f)" style="fill: none; stroke-dasharray: 1.11,0.48; stroke-dashoffset: 0; stroke: #ff0000; stroke-width: 0.3"/>
   </g>
   <g id="patch_3">
    <path d="M 54 184.896 
L 54 51.84 
" style="fill: none; stroke: #000000; stroke-width: 0.5; stroke-linejoin: miter; stroke-linecap: square"/>
   </g>
   <g id="patch_4">
    <path d="M 54 184.896 
L 388.8 184.896 
" style="fill: none; stroke: #000000; stroke-width: 0.5; stroke-linejoin: miter; stroke-linecap: square"/>
   </g>
   <g id="text_17">
    <!-- Dynamic TGA -->
    <g transform="translate(187.411719 45.84) scale(0.1 -0.1)">
     <defs>
      <path id="DejaVuSans-44" d="M 1259 4147 
L 1259 519 
L 2022 519 
Q 2988 519 3436 956 
Q 3884 1394 3884 2338 
Q 3884 3275 3436 3711 
Q 2988 4147 2022 4147 
L 1259 4147 
z
M 628 4666 
L 1925 4666 
Q 3281 4666 3915 4102 
Q 4550 3538 4550 2338 
Q 4550 1131 3912 565 
Q 3275 0 1925 0 
L 628 0 
L 628 4666 
z
" transform="scale(0.015625)"/>
      <path id="DejaVuSans-79" d="M 2059 -325 
Q 1816 -950 1584 -1140 
Q 1353 -1331 966 -1331 
L 506 -1331 
L 506 -850 
L 844 -850 
Q 1081 -850 1212 -737 
Q 1344 -625 1503 -206 
L 1606 56 
L 191 3500 
L 800 3500 
L 1894 763 
L 2988 3500 
L 3597 3500 
L 2059 -325 
z
" transform="scale(0.015625)"/>
      <path id="DejaVuSans-6e" d="M 3513 2113 
L 3513 0 
L 2938 0 
L 2938 2094 
Q 2938 2591 2744 2837 
Q 2550 3084 2163 3084 
Q 1697 3084 1428 2787 
Q 1159 2491 1159 1978 
L 1159 0 
L 581 0 
L 581 3500 
L 1159 3500 
L 1159 2956 
Q 1366 3272 1645 3428 
Q 1925 3584 2291 3584 
Q 2894 3584 3203 3211 
Q 3513 2838 3513 2113 
z
" transform="scale(0.015625)"/>
      <path id="DejaVuSans-69" d="M 603 3500 
L 1178 3500 
L 1178 0 
L 603 0 
L 603 3500 
z
M 603 4863 
L 1178 4863 
L 1178 4134 
L 603 4134 
L 603 4863 
z
" transform="scale(0.015625)"/>
      <path id="DejaVuSans-63" d="M 3122 3366 
L 3122 2828 
Q 2878 2963 2633 3030 
Q 2388 3097 2138 3097 
Q 1578 3097 1268 2742 
Q 959 2388 959 1747 
Q 959 1106 1268 751 
Q 1578 397 2138 397 
Q 2388 397 2633 464 
Q 2878 531 3122 666 
L 3122 134 
Q 2881 22 2623 -34 
Q 2366 -91 2075 -91 
Q 1284 -91 818 406 
Q 353 903 353 1747 
Q 353 2603 823 3093 
Q 1294 3584 2113 3584 
Q 2378 3584 2631 3529 
Q 2884 3475 3122 3366 
z
" transform="scale(0.015625)"/>
      <path id="DejaVuSans-47" d="M 3809 666 
L 3809 1919 
L 2778 1919 
L 2778 2438 
L 4434 2438 
L 4434 434 
Q 4069 175 3628 42 
Q 3188 -91 2688 -91 
Q 1594 -91 976 548 
Q 359 1188 359 2328 
Q 359 3472 976 4111 
Q 1594 4750 2688 4750 
Q 3144 4750 3555 4637 
Q 3966 4525 4313 4306 
L 4313 3634 
Q 3963 3931 3569 4081 
Q 3175 4231 2741 4231 
Q 1884 4231 1454 3753 
Q 1025 3275 1025 2328 
Q 1025 1384 1454 906 
Q 1884 428 2741 428 
Q 3075 428 3337 486 
Q 3600 544 3809 666 
z
" transform="scale(0.015625)"/>
      <path id="DejaVuSans-41" d="M 2188 4044 
L 1331 1722 
L 3047 1722 
L 2188 4044 
z
M 1831 4666 
L 2547 4666 
L 4325 0 
L 3669 0 
L 3244 1197 
L 1141 1197 
L 716 0 
L 50 0 
L 1831 4666 
z
" transform="scale(0.015625)"/>
     </defs>
     <use xlink:href="#DejaVuSans-44"/>
     <use xlink:href="#DejaVuSans-79" x="77.001953"/>
     <use xlink:href="#DejaVuSans-6e" x="136.181641"/>
     <use xlink:href="#DejaVuSans-61" x="199.560547"/>
     <use xlink:href="#DejaVuSans-6d" x="260.839844"/>
     <use xlink:href="#DejaVuSans-69" x="358.251953"/>
     <use xlink:href="#DejaVuSans-63" x="386.035156"/>
     <use xlink:href="#DejaVuSans-20" x="441.015625"/>
     <use xlink:href="#DejaVuSans-54" x="472.802734"/>
     <use xlink:href="#DejaVuSans-47" x="533.886719"/>
     <use xlink:href="#DejaVuSans-41" x="611.376953"/>
    </g>
   </g>
   <g id="legend_1">
    <g id="patch_5">
     <path d="M 61 179.896 
L 236.8 179.896 
Q 238.8 179.896 238.8 177.896 
L 238.8 133.841312 
Q 238.8 131.841312 236.8 131.841312 
L 61 131.841312 
Q 59 131.841312 59 133.841312 
L 59 177.896 
Q 59 179.896 61 179.896 
z
" style="fill: #ffffff; opacity: 0.8; stroke: #cccccc; stroke-linejoin: miter"/>
    </g>
    <g id="line2d_18">
     <path d="M 63 139.93975 
L 73 139.93975 
L 83 139.93975 
" style="fill: none; stroke: #737373; stroke-width: 1.5; stroke-linecap: square"/>
    </g>
    <g id="text_18">
     <!-- PS-40.4K -->
     <g transform="translate(91 143.43975) scale(0.1 -0.1)">
      <defs>
       <path id="DejaVuSans-50" d="M 1259 4147 
L 1259 2394 
L 2053 2394 
Q 2494 2394 2734 2622 
Q 2975 2850 2975 3272 
Q 2975 3691 2734 3919 
Q 2494 4147 2053 4147 
L 1259 4147 
z
M 628 4666 
L 2053 4666 
Q 2838 4666 3239 4311 
Q 3641 3956 3641 3272 
Q 3641 2581 3239 2228 
Q 2838 1875 2053 1875 
L 1259 1875 
L 1259 0 
L 628 0 
L 628 4666 
z
" transform="scale(0.015625)"/>
       <path id="DejaVuSans-53" d="M 3425 4513 
L 3425 3897 
Q 3066 4069 2747 4153 
Q 2428 4238 2131 4238 
Q 1616 4238 1336 4038 
Q 1056 3838 1056 3469 
Q 1056 3159 1242 3001 
Q 1428 2844 1947 2747 
L 2328 2669 
Q 3034 2534 3370 2195 
Q 3706 1856 3706 1288 
Q 3706 609 3251 259 
Q 2797 -91 1919 -91 
Q 1588 -91 1214 -16 
Q 841 59 441 206 
L 441 856 
Q 825 641 1194 531 
Q 1563 422 1919 422 
Q 2459 422 2753 634 
Q 3047 847 3047 1241 
Q 3047 1584 2836 1778 
Q 2625 1972 2144 2069 
L 1759 2144 
Q 1053 2284 737 2584 
Q 422 2884 422 3419 
Q 422 4038 858 4394 
Q 1294 4750 2059 4750 
Q 2388 4750 2728 4690 
Q 3069 4631 3425 4513 
z
" transform="scale(0.015625)"/>
       <path id="DejaVuSans-2d" d="M 313 2009 
L 1997 2009 
L 1997 1497 
L 313 1497 
L 313 2009 
z
" transform="scale(0.015625)"/>
       <path id="DejaVuSans-2e" d="M 684 794 
L 1344 794 
L 1344 0 
L 684 0 
L 684 794 
z
" transform="scale(0.015625)"/>
       <path id="DejaVuSans-4b" d="M 628 4666 
L 1259 4666 
L 1259 2694 
L 3353 4666 
L 4166 4666 
L 1850 2491 
L 4331 0 
L 3500 0 
L 1259 2247 
L 1259 0 
L 628 0 
L 628 4666 
z
" transform="scale(0.015625)"/>
      </defs>
      <use xlink:href="#DejaVuSans-50"/>
      <use xlink:href="#DejaVuSans-53" x="60.302734"/>
      <use xlink:href="#DejaVuSans-2d" x="123.779297"/>
      <use xlink:href="#DejaVuSans-34" x="159.863281"/>
      <use xlink:href="#DejaVuSans-30" x="223.486328"/>
      <use xlink:href="#DejaVuSans-2e" x="287.109375"/>
      <use xlink:href="#DejaVuSans-34" x="318.896484"/>
      <use xlink:href="#DejaVuSans-4b" x="382.519531"/>
     </g>
    </g>
    <g id="line2d_19">
     <path d="M 63 154.617875 
L 73 154.617875 
L 83 154.617875 
" style="fill: none; stroke: #0570b0; stroke-width: 1.5; stroke-linecap: square"/>
    </g>
    <g id="text_19">
     <!-- PS-40.4K-SCF$_{3}$ -->
     <g transform="translate(91 158.117875) scale(0.1 -0.1)">
      <defs>
       <path id="DejaVuSans-46" d="M 628 4666 
L 3309 4666 
L 3309 4134 
L 1259 4134 
L 1259 2759 
L 3109 2759 
L 3109 2228 
L 1259 2228 
L 1259 0 
L 628 0 
L 628 4666 
z
" transform="scale(0.015625)"/>
      </defs>
      <use xlink:href="#DejaVuSans-50" transform="translate(0 0.78125)"/>
      <use xlink:href="#DejaVuSans-53" transform="translate(60.302734 0.78125)"/>
      <use xlink:href="#DejaVuSans-2d" transform="translate(123.779297 0.78125)"/>
      <use xlink:href="#DejaVuSans-34" transform="translate(159.863281 0.78125)"/>
      <use xlink:href="#DejaVuSans-30" transform="translate(223.486328 0.78125)"/>
      <use xlink:href="#DejaVuSans-2e" transform="translate(287.109375 0.78125)"/>
      <use xlink:href="#DejaVuSans-34" transform="translate(318.896484 0.78125)"/>
      <use xlink:href="#DejaVuSans-4b" transform="translate(382.519531 0.78125)"/>
      <use xlink:href="#DejaVuSans-2d" transform="translate(448.095703 0.78125)"/>
      <use xlink:href="#DejaVuSans-53" transform="translate(484.179688 0.78125)"/>
      <use xlink:href="#DejaVuSans-43" transform="translate(547.65625 0.78125)"/>
      <use xlink:href="#DejaVuSans-46" transform="translate(617.480469 0.78125)"/>
      <use xlink:href="#DejaVuSans-33" transform="translate(675.957031 -15.625) scale(0.7)"/>
     </g>
    </g>
    <g id="line2d_20">
     <path d="M 63 169.296 
L 73 169.296 
L 83 169.296 
" style="fill: none; stroke-dasharray: 1.11,0.48; stroke-dashoffset: 0; stroke: #ff0000; stroke-width: 0.3"/>
    </g>
    <g id="text_20">
     <!-- $T_\mathregular{depolymerization}$ at 99.5% Mass -->
     <g transform="translate(91 172.796) scale(0.1 -0.1)">
      <defs>
       <path id="DejaVuSans-Oblique-54" d="M 378 4666 
L 4325 4666 
L 4225 4134 
L 2559 4134 
L 1759 0 
L 1125 0 
L 1925 4134 
L 275 4134 
L 378 4666 
z
" transform="scale(0.015625)"/>
       <path id="DejaVuSans-64" d="M 2906 2969 
L 2906 4863 
L 3481 4863 
L 3481 0 
L 2906 0 
L 2906 525 
Q 2725 213 2448 61 
Q 2172 -91 1784 -91 
Q 1150 -91 751 415 
Q 353 922 353 1747 
Q 353 2572 751 3078 
Q 1150 3584 1784 3584 
Q 2172 3584 2448 3432 
Q 2725 3281 2906 2969 
z
M 947 1747 
Q 947 1113 1208 752 
Q 1469 391 1925 391 
Q 2381 391 2643 752 
Q 2906 1113 2906 1747 
Q 2906 2381 2643 2742 
Q 2381 3103 1925 3103 
Q 1469 3103 1208 2742 
Q 947 2381 947 1747 
z
" transform="scale(0.015625)"/>
       <path id="DejaVuSans-6f" d="M 1959 3097 
Q 1497 3097 1228 2736 
Q 959 2375 959 1747 
Q 959 1119 1226 758 
Q 1494 397 1959 397 
Q 2419 397 2687 759 
Q 2956 1122 2956 1747 
Q 2956 2369 2687 2733 
Q 2419 3097 1959 3097 
z
M 1959 3584 
Q 2709 3584 3137 3096 
Q 3566 2609 3566 1747 
Q 3566 888 3137 398 
Q 2709 -91 1959 -91 
Q 1206 -91 779 398 
Q 353 888 353 1747 
Q 353 2609 779 3096 
Q 1206 3584 1959 3584 
z
" transform="scale(0.015625)"/>
       <path id="DejaVuSans-6c" d="M 603 4863 
L 1178 4863 
L 1178 0 
L 603 0 
L 603 4863 
z
" transform="scale(0.015625)"/>
       <path id="DejaVuSans-72" d="M 2631 2963 
Q 2534 3019 2420 3045 
Q 2306 3072 2169 3072 
Q 1681 3072 1420 2755 
Q 1159 2438 1159 1844 
L 1159 0 
L 581 0 
L 581 3500 
L 1159 3500 
L 1159 2956 
Q 1341 3275 1631 3429 
Q 1922 3584 2338 3584 
Q 2397 3584 2469 3576 
Q 2541 3569 2628 3553 
L 2631 2963 
z
" transform="scale(0.015625)"/>
       <path id="DejaVuSans-7a" d="M 353 3500 
L 3084 3500 
L 3084 2975 
L 922 459 
L 3084 459 
L 3084 0 
L 275 0 
L 275 525 
L 2438 3041 
L 353 3041 
L 353 3500 
z
" transform="scale(0.015625)"/>
       <path id="DejaVuSans-74" d="M 1172 4494 
L 1172 3500 
L 2356 3500 
L 2356 3053 
L 1172 3053 
L 1172 1153 
Q 1172 725 1289 603 
Q 1406 481 1766 481 
L 2356 481 
L 2356 0 
L 1766 0 
Q 1100 0 847 248 
Q 594 497 594 1153 
L 594 3053 
L 172 3053 
L 172 3500 
L 594 3500 
L 594 4494 
L 1172 4494 
z
" transform="scale(0.015625)"/>
       <path id="DejaVuSans-39" d="M 703 97 
L 703 672 
Q 941 559 1184 500 
Q 1428 441 1663 441 
Q 2288 441 2617 861 
Q 2947 1281 2994 2138 
Q 2813 1869 2534 1725 
Q 2256 1581 1919 1581 
Q 1219 1581 811 2004 
Q 403 2428 403 3163 
Q 403 3881 828 4315 
Q 1253 4750 1959 4750 
Q 2769 4750 3195 4129 
Q 3622 3509 3622 2328 
Q 3622 1225 3098 567 
Q 2575 -91 1691 -91 
Q 1453 -91 1209 -44 
Q 966 3 703 97 
z
M 1959 2075 
Q 2384 2075 2632 2365 
Q 2881 2656 2881 3163 
Q 2881 3666 2632 3958 
Q 2384 4250 1959 4250 
Q 1534 4250 1286 3958 
Q 1038 3666 1038 3163 
Q 1038 2656 1286 2365 
Q 1534 2075 1959 2075 
z
" transform="scale(0.015625)"/>
       <path id="DejaVuSans-35" d="M 691 4666 
L 3169 4666 
L 3169 4134 
L 1269 4134 
L 1269 2991 
Q 1406 3038 1543 3061 
Q 1681 3084 1819 3084 
Q 2600 3084 3056 2656 
Q 3513 2228 3513 1497 
Q 3513 744 3044 326 
Q 2575 -91 1722 -91 
Q 1428 -91 1123 -41 
Q 819 9 494 109 
L 494 744 
Q 775 591 1075 516 
Q 1375 441 1709 441 
Q 2250 441 2565 725 
Q 2881 1009 2881 1497 
Q 2881 1984 2565 2268 
Q 2250 2553 1709 2553 
Q 1456 2553 1204 2497 
Q 953 2441 691 2322 
L 691 4666 
z
" transform="scale(0.015625)"/>
      </defs>
      <use xlink:href="#DejaVuSans-Oblique-54" transform="translate(0 0.78125)"/>
      <use xlink:href="#DejaVuSans-64" transform="translate(61.083984 -15.625) scale(0.7)"/>
      <use xlink:href="#DejaVuSans-65" transform="translate(105.517578 -15.625) scale(0.7)"/>
      <use xlink:href="#DejaVuSans-70" transform="translate(148.583984 -15.625) scale(0.7)"/>
      <use xlink:href="#DejaVuSans-6f" transform="translate(193.017578 -15.625) scale(0.7)"/>
      <use xlink:href="#DejaVuSans-6c" transform="translate(235.844727 -15.625) scale(0.7)"/>
      <use xlink:href="#DejaVuSans-79" transform="translate(255.292969 -15.625) scale(0.7)"/>
      <use xlink:href="#DejaVuSans-6d" transform="translate(296.71875 -15.625) scale(0.7)"/>
      <use xlink:href="#DejaVuSans-65" transform="translate(364.907227 -15.625) scale(0.7)"/>
      <use xlink:href="#DejaVuSans-72" transform="translate(407.973633 -15.625) scale(0.7)"/>
      <use xlink:href="#DejaVuSans-69" transform="translate(436.75293 -15.625) scale(0.7)"/>
      <use xlink:href="#DejaVuSans-7a" transform="translate(456.201172 -15.625) scale(0.7)"/>
      <use xlink:href="#DejaVuSans-61" transform="translate(492.944336 -15.625) scale(0.7)"/>
      <use xlink:href="#DejaVuSans-74" transform="translate(535.839844 -15.625) scale(0.7)"/>
      <use xlink:href="#DejaVuSans-69" transform="translate(563.286133 -15.625) scale(0.7)"/>
      <use xlink:href="#DejaVuSans-6f" transform="translate(582.734375 -15.625) scale(0.7)"/>
      <use xlink:href="#DejaVuSans-6e" transform="translate(625.561523 -15.625) scale(0.7)"/>
      <use xlink:href="#DejaVuSans-20" transform="translate(672.661133 0.78125)"/>
      <use xlink:href="#DejaVuSans-61" transform="translate(704.448242 0.78125)"/>
      <use xlink:href="#DejaVuSans-74" transform="translate(765.727539 0.78125)"/>
      <use xlink:href="#DejaVuSans-20" transform="translate(804.936523 0.78125)"/>
      <use xlink:href="#DejaVuSans-39" transform="translate(836.723633 0.78125)"/>
      <use xlink:href="#DejaVuSans-39" transform="translate(900.34668 0.78125)"/>
      <use xlink:href="#DejaVuSans-2e" transform="translate(963.969727 0.78125)"/>
      <use xlink:href="#DejaVuSans-35" transform="translate(995.756836 0.78125)"/>
      <use xlink:href="#DejaVuSans-25" transform="translate(1059.379883 0.78125)"/>
      <use xlink:href="#DejaVuSans-20" transform="translate(1154.399414 0.78125)"/>
      <use xlink:href="#DejaVuSans-4d" transform="translate(1186.186523 0.78125)"/>
      <use xlink:href="#DejaVuSans-61" transform="translate(1272.46582 0.78125)"/>
      <use xlink:href="#DejaVuSans-73" transform="translate(1333.745117 0.78125)"/>
      <use xlink:href="#DejaVuSans-73" transform="translate(1385.844727 0.78125)"/>
     </g>
    </g>
   </g>
  </g>
  <g id="axes_2">
   <g id="patch_6">
    <path d="M 54 384.48 
L 388.8 384.48 
L 388.8 251.424 
L 54 251.424 
z
" style="fill: #ffffff"/>
   </g>
   <g id="matplotlib.axis_3">
    <g id="xtick_9">
     <g id="line2d_21">
      <g>
       <use xlink:href="#mde5cb341bd" x="76.32" y="384.48" style="stroke: #000000; stroke-width: 0.8"/>
      </g>
     </g>
     <g id="text_21">
      <!-- 260 -->
      <g transform="translate(68.685 394.05875) scale(0.08 -0.08)">
       <use xlink:href="#DejaVuSans-32"/>
       <use xlink:href="#DejaVuSans-36" x="63.623047"/>
       <use xlink:href="#DejaVuSans-30" x="127.246094"/>
      </g>
     </g>
    </g>
    <g id="xtick_10">
     <g id="line2d_22">
      <g>
       <use xlink:href="#mde5cb341bd" x="120.96" y="384.48" style="stroke: #000000; stroke-width: 0.8"/>
      </g>
     </g>
     <g id="text_22">
      <!-- 280 -->
      <g transform="translate(113.325 394.05875) scale(0.08 -0.08)">
       <use xlink:href="#DejaVuSans-32"/>
       <use xlink:href="#DejaVuSans-38" x="63.623047"/>
       <use xlink:href="#DejaVuSans-30" x="127.246094"/>
      </g>
     </g>
    </g>
    <g id="xtick_11">
     <g id="line2d_23">
      <g>
       <use xlink:href="#mde5cb341bd" x="165.6" y="384.48" style="stroke: #000000; stroke-width: 0.8"/>
      </g>
     </g>
     <g id="text_23">
      <!-- 300 -->
      <g transform="translate(157.965 394.05875) scale(0.08 -0.08)">
       <use xlink:href="#DejaVuSans-33"/>
       <use xlink:href="#DejaVuSans-30" x="63.623047"/>
       <use xlink:href="#DejaVuSans-30" x="127.246094"/>
      </g>
     </g>
    </g>
    <g id="xtick_12">
     <g id="line2d_24">
      <g>
       <use xlink:href="#mde5cb341bd" x="210.24" y="384.48" style="stroke: #000000; stroke-width: 0.8"/>
      </g>
     </g>
     <g id="text_24">
      <!-- 320 -->
      <g transform="translate(202.605 394.05875) scale(0.08 -0.08)">
       <use xlink:href="#DejaVuSans-33"/>
       <use xlink:href="#DejaVuSans-32" x="63.623047"/>
       <use xlink:href="#DejaVuSans-30" x="127.246094"/>
      </g>
     </g>
    </g>
    <g id="xtick_13">
     <g id="line2d_25">
      <g>
       <use xlink:href="#mde5cb341bd" x="254.88" y="384.48" style="stroke: #000000; stroke-width: 0.8"/>
      </g>
     </g>
     <g id="text_25">
      <!-- 340 -->
      <g transform="translate(247.245 394.05875) scale(0.08 -0.08)">
       <use xlink:href="#DejaVuSans-33"/>
       <use xlink:href="#DejaVuSans-34" x="63.623047"/>
       <use xlink:href="#DejaVuSans-30" x="127.246094"/>
      </g>
     </g>
    </g>
    <g id="xtick_14">
     <g id="line2d_26">
      <g>
       <use xlink:href="#mde5cb341bd" x="299.52" y="384.48" style="stroke: #000000; stroke-width: 0.8"/>
      </g>
     </g>
     <g id="text_26">
      <!-- 360 -->
      <g transform="translate(291.885 394.05875) scale(0.08 -0.08)">
       <use xlink:href="#DejaVuSans-33"/>
       <use xlink:href="#DejaVuSans-36" x="63.623047"/>
       <use xlink:href="#DejaVuSans-30" x="127.246094"/>
      </g>
     </g>
    </g>
    <g id="xtick_15">
     <g id="line2d_27">
      <g>
       <use xlink:href="#mde5cb341bd" x="344.16" y="384.48" style="stroke: #000000; stroke-width: 0.8"/>
      </g>
     </g>
     <g id="text_27">
      <!-- 380 -->
      <g transform="translate(336.525 394.05875) scale(0.08 -0.08)">
       <use xlink:href="#DejaVuSans-33"/>
       <use xlink:href="#DejaVuSans-38" x="63.623047"/>
       <use xlink:href="#DejaVuSans-30" x="127.246094"/>
      </g>
     </g>
    </g>
    <g id="xtick_16">
     <g id="line2d_28">
      <g>
       <use xlink:href="#mde5cb341bd" x="388.8" y="384.48" style="stroke: #000000; stroke-width: 0.8"/>
      </g>
     </g>
     <g id="text_28">
      <!-- 400 -->
      <g transform="translate(381.165 394.05875) scale(0.08 -0.08)">
       <use xlink:href="#DejaVuSans-34"/>
       <use xlink:href="#DejaVuSans-30" x="63.623047"/>
       <use xlink:href="#DejaVuSans-30" x="127.246094"/>
      </g>
     </g>
    </g>
    <g id="text_29">
     <!-- Temp ($^{o}$C) -->
     <g transform="translate(195.9 407.5225) scale(0.1 -0.1)">
      <use xlink:href="#DejaVuSans-54" transform="translate(0 0.51875)"/>
      <use xlink:href="#DejaVuSans-65" transform="translate(61.083984 0.51875)"/>
      <use xlink:href="#DejaVuSans-6d" transform="translate(122.607422 0.51875)"/>
      <use xlink:href="#DejaVuSans-70" transform="translate(220.019531 0.51875)"/>
      <use xlink:href="#DejaVuSans-20" transform="translate(283.496094 0.51875)"/>
      <use xlink:href="#DejaVuSans-28" transform="translate(315.283203 0.51875)"/>
      <use xlink:href="#DejaVuSans-Oblique-6f" transform="translate(355.253906 38.8) scale(0.7)"/>
      <use xlink:href="#DejaVuSans-43" transform="translate(400.81543 0.51875)"/>
      <use xlink:href="#DejaVuSans-29" transform="translate(470.639648 0.51875)"/>
     </g>
    </g>
   </g>
   <g id="matplotlib.axis_4">
    <g id="ytick_7">
     <g id="line2d_29">
      <g>
       <use xlink:href="#m1a0a0d0cc7" x="54" y="376.736431" style="stroke: #000000; stroke-width: 0.8"/>
      </g>
     </g>
     <g id="text_30">
      <!-- 1.30 -->
      <g transform="translate(32.6875 379.775806) scale(0.08 -0.08)">
       <use xlink:href="#DejaVuSans-31"/>
       <use xlink:href="#DejaVuSans-2e" x="63.623047"/>
       <use xlink:href="#DejaVuSans-33" x="95.410156"/>
       <use xlink:href="#DejaVuSans-30" x="159.033203"/>
      </g>
     </g>
    </g>
    <g id="ytick_8">
     <g id="line2d_30">
      <g>
       <use xlink:href="#m1a0a0d0cc7" x="54" y="355.311503" style="stroke: #000000; stroke-width: 0.8"/>
      </g>
     </g>
     <g id="text_31">
      <!-- 1.35 -->
      <g transform="translate(32.6875 358.350878) scale(0.08 -0.08)">
       <use xlink:href="#DejaVuSans-31"/>
       <use xlink:href="#DejaVuSans-2e" x="63.623047"/>
       <use xlink:href="#DejaVuSans-33" x="95.410156"/>
       <use xlink:href="#DejaVuSans-35" x="159.033203"/>
      </g>
     </g>
    </g>
    <g id="ytick_9">
     <g id="line2d_31">
      <g>
       <use xlink:href="#m1a0a0d0cc7" x="54" y="333.886576" style="stroke: #000000; stroke-width: 0.8"/>
      </g>
     </g>
     <g id="text_32">
      <!-- 1.40 -->
      <g transform="translate(32.6875 336.925951) scale(0.08 -0.08)">
       <use xlink:href="#DejaVuSans-31"/>
       <use xlink:href="#DejaVuSans-2e" x="63.623047"/>
       <use xlink:href="#DejaVuSans-34" x="95.410156"/>
       <use xlink:href="#DejaVuSans-30" x="159.033203"/>
      </g>
     </g>
    </g>
    <g id="ytick_10">
     <g id="line2d_32">
      <g>
       <use xlink:href="#m1a0a0d0cc7" x="54" y="312.461648" style="stroke: #000000; stroke-width: 0.8"/>
      </g>
     </g>
     <g id="text_33">
      <!-- 1.45 -->
      <g transform="translate(32.6875 315.501023) scale(0.08 -0.08)">
       <use xlink:href="#DejaVuSans-31"/>
       <use xlink:href="#DejaVuSans-2e" x="63.623047"/>
       <use xlink:href="#DejaVuSans-34" x="95.410156"/>
       <use xlink:href="#DejaVuSans-35" x="159.033203"/>
      </g>
     </g>
    </g>
    <g id="ytick_11">
     <g id="line2d_33">
      <g>
       <use xlink:href="#m1a0a0d0cc7" x="54" y="291.03672" style="stroke: #000000; stroke-width: 0.8"/>
      </g>
     </g>
     <g id="text_34">
      <!-- 1.50 -->
      <g transform="translate(32.6875 294.076095) scale(0.08 -0.08)">
       <use xlink:href="#DejaVuSans-31"/>
       <use xlink:href="#DejaVuSans-2e" x="63.623047"/>
       <use xlink:href="#DejaVuSans-35" x="95.410156"/>
       <use xlink:href="#DejaVuSans-30" x="159.033203"/>
      </g>
     </g>
    </g>
    <g id="ytick_12">
     <g id="line2d_34">
      <g>
       <use xlink:href="#m1a0a0d0cc7" x="54" y="269.611793" style="stroke: #000000; stroke-width: 0.8"/>
      </g>
     </g>
     <g id="text_35">
      <!-- 1.55 -->
      <g transform="translate(32.6875 272.651168) scale(0.08 -0.08)">
       <use xlink:href="#DejaVuSans-31"/>
       <use xlink:href="#DejaVuSans-2e" x="63.623047"/>
       <use xlink:href="#DejaVuSans-35" x="95.410156"/>
       <use xlink:href="#DejaVuSans-35" x="159.033203"/>
      </g>
     </g>
    </g>
    <g id="text_36">
     <!-- Ion Current (A) -->
     <g transform="translate(26.607812 354.931687) rotate(-90) scale(0.1 -0.1)">
      <defs>
       <path id="DejaVuSans-49" d="M 628 4666 
L 1259 4666 
L 1259 0 
L 628 0 
L 628 4666 
z
" transform="scale(0.015625)"/>
       <path id="DejaVuSans-75" d="M 544 1381 
L 544 3500 
L 1119 3500 
L 1119 1403 
Q 1119 906 1312 657 
Q 1506 409 1894 409 
Q 2359 409 2629 706 
Q 2900 1003 2900 1516 
L 2900 3500 
L 3475 3500 
L 3475 0 
L 2900 0 
L 2900 538 
Q 2691 219 2414 64 
Q 2138 -91 1772 -91 
Q 1169 -91 856 284 
Q 544 659 544 1381 
z
M 1991 3584 
L 1991 3584 
z
" transform="scale(0.015625)"/>
      </defs>
      <use xlink:href="#DejaVuSans-49"/>
      <use xlink:href="#DejaVuSans-6f" x="29.492188"/>
      <use xlink:href="#DejaVuSans-6e" x="90.673828"/>
      <use xlink:href="#DejaVuSans-20" x="154.052734"/>
      <use xlink:href="#DejaVuSans-43" x="185.839844"/>
      <use xlink:href="#DejaVuSans-75" x="255.664062"/>
      <use xlink:href="#DejaVuSans-72" x="319.042969"/>
      <use xlink:href="#DejaVuSans-72" x="358.40625"/>
      <use xlink:href="#DejaVuSans-65" x="397.269531"/>
      <use xlink:href="#DejaVuSans-6e" x="458.792969"/>
      <use xlink:href="#DejaVuSans-74" x="522.171875"/>
      <use xlink:href="#DejaVuSans-20" x="561.380859"/>
      <use xlink:href="#DejaVuSans-28" x="593.167969"/>
      <use xlink:href="#DejaVuSans-41" x="632.181641"/>
      <use xlink:href="#DejaVuSans-29" x="700.589844"/>
     </g>
    </g>
    <g id="text_37">
     <!-- 1e12 -->
     <g transform="translate(54 248.424) scale(0.1 -0.1)">
      <defs>
       <path id="DejaVuSans-2212" d="M 678 2272 
L 4684 2272 
L 4684 1741 
L 678 1741 
L 678 2272 
z
" transform="scale(0.015625)"/>
      </defs>
      <use xlink:href="#DejaVuSans-31"/>
      <use xlink:href="#DejaVuSans-65" x="63.623047"/>
      <use xlink:href="#DejaVuSans-2212" x="125.146484"/>
      <use xlink:href="#DejaVuSans-31" x="208.935547"/>
      <use xlink:href="#DejaVuSans-32" x="272.558594"/>
     </g>
    </g>
   </g>
   <g id="line2d_35">
    <path d="M 53.839274 291.798591 
L 54.319198 303.240788 
L 54.897242 291.798591 
L 55.343686 330.211344 
L 55.767766 307.32695 
L 56.388262 290.981015 
L 56.827944 308.144525 
L 57.140424 290.163869 
L 57.586802 299.154197 
L 57.888144 316.317278 
L 58.604616 292.615737 
L 59.062198 302.423212 
L 59.361242 296.702328 
L 59.805432 322.038591 
L 60.091128 280.356394 
L 60.54871 303.240788 
L 60.845544 303.240788 
L 61.307568 317.952 
L 61.586568 322.038591 
L 62.037432 281.991116 
L 62.318686 297.519475 
L 63.079754 302.423212 
L 63.361008 295.884753 
L 63.800734 299.971344 
L 64.253786 311.413541 
L 64.550686 305.692656 
L 65.010456 308.144525 
L 65.358648 286.894853 
L 65.75148 290.981015 
L 66.039408 289.346722 
L 66.331778 295.067606 
L 66.775968 321.221015 
L 67.043786 299.971344 
L 67.546008 301.606066 
L 67.813848 291.798591 
L 68.275872 267.279475 
L 68.572706 288.529147 
L 68.99904 289.346722 
L 69.340514 287.712 
L 69.751246 283.625409 
L 70.512358 307.32695 
L 70.80696 285.260131 
L 71.12165 296.702328 
L 71.597088 275.452656 
L 71.871602 281.173541 
L 72.31577 301.606066 
L 72.628294 303.240788 
L 73.054562 310.596394 
L 73.355904 289.346722 
L 73.654992 303.240788 
L 74.413872 278.721672 
L 74.829024 303.240788 
L 75.29549 301.606066 
L 75.583462 289.346722 
L 75.886992 289.346722 
L 76.337856 268.914197 
L 76.636944 286.077278 
L 77.05877 282.808263 
L 77.520794 277.08695 
L 77.822136 278.721672 
L 78.134594 289.346722 
L 78.578762 283.625409 
L 78.880104 295.884753 
L 79.32204 287.712 
L 79.614454 304.875081 
L 80.065318 288.529147 
L 80.362152 291.798591 
L 80.804088 273.817934 
L 81.096502 291.798591 
L 81.395546 288.529147 
L 81.853128 292.615737 
L 82.13657 305.692656 
L 82.55623 277.08695 
L 82.904422 287.712 
L 83.310602 313.865409 
L 83.596342 295.067606 
L 83.88427 293.432884 
L 84.337366 295.884753 
L 84.801578 312.230687 
L 85.07839 272.183212 
L 85.819414 298.33705 
L 86.28588 290.981015 
L 86.580459 321.221015 
L 87.044738 313.048263 
L 87.352754 270.548919 
L 88.067016 302.423212 
L 88.38396 282.808263 
L 88.83257 284.442985 
L 89.12273 290.981015 
L 89.580334 285.260131 
L 89.879422 285.260131 
L 90.303502 290.163869 
L 90.607032 287.712 
L 91.069056 325.307606 
L 91.359238 296.702328 
L 91.642658 287.712 
L 92.100262 277.904525 
L 92.394864 281.991116 
L 92.841286 302.423212 
L 93.147048 282.808263 
L 93.58673 284.442985 
L 93.845642 301.606066 
L 94.63135 285.260131 
L 94.92151 296.702328 
L 95.367888 275.452656 
L 95.671462 284.442985 
L 96.09331 301.606066 
L 96.463778 280.356394 
L 97.15351 313.048263 
L 97.599888 281.991116 
L 97.90123 304.057934 
L 98.19139 277.08695 
L 98.653414 283.625409 
L 98.934602 264.010459 
L 99.389952 307.32695 
L 99.827446 286.077278 
L 100.11312 290.981015 
L 100.584072 269.731344 
L 100.878674 299.971344 
L 101.180016 295.067606 
L 101.619698 261.558591 
L 101.900952 296.702328 
L 102.35849 289.346722 
L 102.657578 307.32695 
L 103.108486 305.692656 
L 103.39416 268.914197 
L 103.836096 288.529147 
L 104.157459 277.904525 
L 104.445454 316.317278 
L 104.889578 284.442985 
L 105.193152 295.884753 
L 105.63953 257.472 
L 106.079278 288.529147 
L 106.387294 295.067606 
L 106.853738 267.279475 
L 107.126064 277.08695 
L 107.39839 290.981015 
L 107.880502 304.875081 
L 108.184032 287.712 
L 108.619294 311.413541 
L 108.92057 264.010459 
L 109.360318 280.356394 
L 109.650478 300.78849 
L 110.11469 296.702328 
L 110.398198 277.08695 
L 110.766478 264.010459 
L 111.125786 295.067606 
L 111.440498 271.366066 
L 111.884666 304.057934 
L 112.174848 298.33705 
L 112.639104 299.971344 
L 112.93596 302.423212 
L 113.366714 304.875081 
L 113.690398 290.163869 
L 114.127848 289.346722 
L 114.413522 292.615737 
L 114.85327 309.778819 
L 115.145618 314.682556 
L 115.598714 290.163869 
L 115.924586 302.423212 
L 116.337506 302.423212 
L 116.643334 276.269803 
L 117.07853 296.702328 
L 117.386546 300.78849 
L 117.846382 321.221015 
L 118.587406 310.596394 
L 119.167682 290.163869 
L 119.625286 292.615737 
L 120.364056 273.000788 
L 120.643056 282.808263 
L 121.076064 293.432884 
L 121.38408 288.529147 
L 121.834944 274.635081 
L 122.158562 284.442985 
L 122.444302 281.173541 
L 122.87731 281.173541 
L 123.341522 304.875081 
L 123.63619 300.78849 
L 124.080358 282.808263 
L 124.674048 291.798591 
L 125.11373 313.865409 
L 125.408398 310.596394 
L 125.859262 289.346722 
L 126.18288 303.240788 
L 126.622562 299.154197 
L 126.903794 274.635081 
L 127.368072 275.452656 
L 127.660486 277.904525 
L 128.089008 286.894853 
L 128.421554 279.538819 
L 128.711714 299.971344 
L 129.140302 289.346722 
L 129.457246 302.423212 
L 129.885746 292.615737 
L 130.193762 293.432884 
L 130.635698 287.712 
L 130.919206 304.057934 
L 131.372302 322.038591 
L 131.662462 294.250459 
L 132.104398 295.067606 
L 132.436944 283.625409 
L 132.869952 286.894853 
L 133.171294 278.721672 
L 133.602048 313.865409 
L 133.898904 308.144525 
L 134.336398 295.884753 
L 134.92116 323.672884 
L 135.37651 366.989803 
L 135.816214 325.307606 
L 136.09296 341.653541 
L 136.398722 351.461015 
L 136.847398 355.547606 
L 137.604024 332.663212 
L 137.909786 335.932228 
L 138.347302 334.297934 
L 138.648578 361.26849 
L 139.095 370.258819 
L 139.407502 322.038591 
L 139.856112 339.201672 
L 140.16857 338.384525 
L 140.621666 362.086066 
L 140.916334 341.653541 
L 141.219864 332.663212 
L 141.666286 353.095737 
L 142.398382 324.490459 
L 142.806794 344.922556 
L 143.11481 332.663212 
L 143.420594 340.018819 
L 143.858088 331.846066 
L 144.163872 323.672884 
L 144.467446 364.537934 
L 144.873626 338.384525 
L 145.168294 334.297934 
L 145.643666 344.922556 
L 146.085602 340.836394 
L 146.364602 332.663212 
L 146.690541 333.480359 
L 147.114554 346.557278 
L 147.431498 325.307606 
L 147.864506 313.865409 
L 148.185936 378.432 
L 148.473864 326.942328 
L 148.920286 344.922556 
L 149.366642 341.653541 
L 149.681398 349.826293 
L 149.96484 352.278162 
L 150.402334 317.952 
L 150.70361 341.653541 
L 151.163446 349.826293 
L 151.460302 348.192 
L 151.732562 357.999475 
L 152.174498 353.912884 
L 152.471398 334.297934 
L 152.93561 337.56695 
L 153.250366 335.115081 
L 153.665541 350.643869 
L 153.982462 351.461015 
L 154.422144 322.855737 
L 154.714514 348.192 
L 154.991326 345.740131 
L 155.486786 358.816622 
L 155.765786 336.749803 
L 156.194374 321.221015 
L 156.62957 330.211344 
L 156.964414 362.903212 
L 157.243414 326.124753 
L 157.68977 353.912884 
L 157.997786 312.230687 
L 158.261206 356.364753 
L 158.707562 326.942328 
L 159.468674 322.855737 
L 159.77669 305.692656 
L 160.20077 348.192 
L 160.51104 339.201672 
L 161.258738 322.038591 
L 161.707414 341.653541 
L 162.019872 349.826293 
L 162.461786 340.018819 
L 162.763128 330.211344 
L 163.200578 336.749803 
L 163.490738 329.394197 
L 163.934928 354.730459 
L 164.242944 331.846066 
L 164.548706 351.461015 
L 164.979459 350.643869 
L 165.303144 332.663212 
L 165.579912 346.557278 
L 166.021848 347.374425 
L 166.486104 321.221015 
L 166.789634 343.288263 
L 167.077562 350.643869 
L 167.51057 348.192 
L 167.778454 340.018819 
L 168.258334 342.470687 
L 168.546262 350.643869 
L 168.994872 332.663212 
L 169.450222 360.451344 
L 169.740382 354.730459 
L 170.184506 334.297934 
L 170.492522 331.02849 
L 170.800538 336.749803 
L 171.195602 333.480359 
L 171.528214 339.201672 
L 171.976802 335.932228 
L 172.278144 336.749803 
L 172.53931 355.547606 
L 172.99908 335.932228 
L 173.304864 336.749803 
L 174.063722 324.490459 
L 174.498984 353.912884 
L 174.804746 365.355081 
L 175.563626 340.018819 
L 176.01449 338.384525 
L 176.26896 349.826293 
L 176.746586 344.922556 
L 177.039 313.048263 
L 177.492096 322.038591 
L 177.793438 320.403869 
L 178.244302 339.201672 
L 178.521048 343.288263 
L 178.965238 339.201672 
L 179.275486 335.115081 
L 179.57453 341.653541 
L 179.991936 346.557278 
L 180.324459 334.297934 
L 181.049904 376.797278 
L 181.489586 331.02849 
L 181.764144 320.403869 
L 182.094502 316.317278 
L 182.523024 342.470687 
L 182.953778 329.394197 
L 183.250634 344.922556 
L 183.567578 334.297934 
L 184.014 337.56695 
L 184.299674 344.922556 
L 184.757278 344.105409 
L 185.05188 329.394197 
L 185.52281 355.547606 
L 186.23484 322.855737 
L 186.54953 319.586722 
L 186.83527 338.384525 
L 187.301714 333.480359 
L 187.589642 340.018819 
L 188.036064 339.201672 
L 188.330666 361.26849 
L 188.777088 349.009147 
L 189.359618 321.221015 
L 189.788206 317.952 
L 190.864008 342.470687 
L 191.30369 344.922556 
L 191.741206 326.124753 
L 192.033554 339.201672 
L 192.357238 343.288263 
L 192.803594 331.846066 
L 193.084848 353.912884 
L 193.558032 357.999475 
L 193.81027 349.009147 
L 194.274459 362.903212 
L 194.564642 330.211344 
L 195.019992 341.653541 
L 195.31908 335.932228 
L 195.76769 334.297934 
L 196.073541 327.759475 
L 196.499786 358.816622 
L 196.814498 323.672884 
L 197.258666 339.201672 
L 197.705088 330.211344 
L 198.004198 334.297934 
L 198.283198 356.364753 
L 198.754128 335.932228 
L 199.057658 329.394197 
L 199.501848 348.192 
L 199.792008 315.500131 
L 200.249546 313.865409 
L 200.519618 347.374425 
L 200.959366 361.26849 
L 201.296398 356.364753 
L 201.573144 331.846066 
L 202.037422 329.394197 
L 202.323096 331.846066 
L 202.782888 340.836394 
L 203.22931 345.740131 
L 203.825254 322.855737 
L 204.260494 350.643869 
L 204.983618 329.394197 
L 205.325136 322.855737 
L 205.604136 323.672884 
L 206.028238 344.922556 
L 206.351856 305.692656 
L 207.23796 357.999475 
L 207.84281 341.653541 
L 208.278072 343.288263 
L 208.568254 324.490459 
L 208.909706 337.56695 
L 209.329366 326.124753 
L 209.619459 337.56695 
L 210.061462 313.048263 
L 210.37392 353.095737 
L 210.813602 336.749803 
L 211.117198 366.172228 
L 211.572459 349.826293 
L 211.853714 352.278162 
L 212.177398 331.02849 
L 212.614848 322.855737 
L 212.909494 319.586722 
L 213.813454 342.470687 
L 214.096896 333.480359 
L 214.387056 339.201672 
L 214.824506 340.018819 
L 215.12808 333.480359 
L 215.43161 317.952 
L 215.85127 323.672884 
L 216.17712 341.653541 
L 216.619056 316.317278 
L 216.956088 311.413541 
L 218.116706 366.989803 
L 218.418048 318.769147 
L 218.862238 322.038591 
L 219.170254 343.288263 
L 219.447 342.470687 
L 219.90235 359.634197 
L 220.344286 353.095737 
L 220.650048 350.643869 
L 220.95139 335.932228 
L 221.393326 332.663212 
L 221.670072 344.922556 
L 222.129864 349.826293 
L 222.388754 347.374425 
L 222.725786 313.865409 
L 223.18339 340.836394 
L 223.904326 328.576622 
L 224.22569 349.009147 
L 224.64535 347.374425 
L 224.980128 352.278162 
L 225.457754 322.038591 
L 225.714478 351.461015 
L 226.134072 346.557278 
L 226.444342 352.278162 
L 226.87735 334.297934 
L 227.16751 339.201672 
L 227.613888 344.105409 
L 227.88396 318.769147 
L 228.180794 330.211344 
L 228.662928 327.759475 
L 228.962016 330.211344 
L 229.700786 344.105409 
L 230.14049 325.307606 
L 230.44181 328.576622 
L 230.888254 340.018819 
L 231.173928 342.470687 
L 231.638206 335.115081 
L 231.928366 339.201672 
L 232.243056 341.653541 
L 232.67381 339.201672 
L 233.140342 326.124753 
L 233.430502 337.56695 
L 233.879112 312.230687 
L 234.184896 331.846066 
L 234.47057 321.221015 
L 234.92592 350.643869 
L 235.220522 321.221015 
L 235.669198 338.384525 
L 235.966032 354.730459 
L 236.724912 310.596394 
L 237.16908 354.730459 
L 237.457008 335.115081 
L 237.905618 342.470687 
L 238.215888 341.653541 
L 238.939056 323.672884 
L 239.394406 320.403869 
L 239.666666 340.836394 
L 240.126502 344.922556 
L 240.425546 334.297934 
L 240.72912 351.461015 
L 241.162128 346.557278 
L 241.46347 335.932228 
L 241.905406 337.56695 
L 242.193334 315.500131 
L 242.644198 331.846066 
L 242.963374 332.663212 
L 243.400802 336.749803 
L 243.67757 345.740131 
L 244.141848 348.192 
L 244.45435 322.038591 
L 244.894032 335.115081 
L 245.186446 326.942328 
L 245.456541 329.394197 
L 245.945326 341.653541 
L 246.228746 342.470687 
L 246.641666 353.912884 
L 246.936334 322.038591 
L 247.384944 335.115081 
L 247.69296 336.749803 
L 248.143802 322.038591 
L 248.449586 351.461015 
L 248.913864 313.865409 
L 249.181682 318.769147 
L 249.641541 340.018819 
L 249.927214 337.56695 
L 250.393658 340.836394 
L 250.712856 309.778819 
L 251.134682 326.124753 
L 251.41819 326.124753 
L 251.869032 355.547606 
L 252.185976 329.394197 
L 252.61673 317.134425 
L 252.906912 357.999475 
L 253.353334 328.576622 
L 253.656864 357.999475 
L 253.94477 337.56695 
L 254.406794 342.470687 
L 254.69249 336.749803 
L 255.440254 330.211344 
L 255.89777 346.557278 
L 256.181278 331.846066 
L 256.634374 337.56695 
L 256.962478 339.201672 
L 257.424502 313.048263 
L 257.676674 350.643869 
L 258.11861 342.470687 
L 258.41551 318.769147 
L 258.830618 344.105409 
L 259.152048 329.394197 
L 259.618514 322.038591 
L 259.89084 345.740131 
L 260.341682 340.018819 
L 260.64751 341.653541 
L 261.089446 323.672884 
L 261.381794 329.394197 
L 261.676462 342.470687 
L 262.127326 325.307606 
L 262.430856 325.307606 
L 262.883952 326.124753 
L 263.167438 327.759475 
L 263.62049 325.307606 
L 263.932992 328.576622 
L 264.374928 331.02849 
L 264.662856 360.451344 
L 265.10035 330.211344 
L 265.707454 358.816622 
L 266.200682 338.384525 
L 266.510952 337.56695 
L 266.883674 304.875081 
L 267.178342 332.663212 
L 267.64704 331.846066 
L 267.952802 323.672884 
L 268.372462 344.922556 
L 268.671506 331.02849 
L 268.977334 343.288263 
L 269.41927 334.297934 
L 269.716104 345.740131 
L 270.173642 334.297934 
L 270.47273 349.826293 
L 270.776326 328.576622 
L 271.182506 340.018819 
L 271.642342 341.653541 
L 271.943618 328.576622 
L 272.387786 349.009147 
L 272.686896 322.855737 
L 272.981498 359.634197 
L 273.423478 318.769147 
L 273.735936 315.500131 
L 274.180104 351.461015 
L 274.454618 340.836394 
L 274.914454 344.105409 
L 275.21131 344.105409 
L 275.642064 323.672884 
L 275.943406 347.374425 
L 276.22908 331.846066 
L 276.691104 352.278162 
L 276.994634 348.192 
L 277.456658 331.02849 
L 277.753514 311.413541 
L 278.177594 353.095737 
L 278.501278 327.759475 
L 278.927546 339.201672 
L 279.217706 331.846066 
L 279.521302 344.922556 
L 279.976586 344.105409 
L 280.266746 340.836394 
L 280.71761 329.394197 
L 281.168541 345.740131 
L 281.440778 325.307606 
L 281.77339 322.038591 
L 282.201912 324.490459 
L 282.503254 332.663212 
L 282.929522 327.759475 
L 283.41612 327.759475 
L 283.692888 328.576622 
L 283.985302 332.663212 
L 284.445072 311.413541 
L 284.755342 319.586722 
L 285.186096 348.192 
L 285.779786 333.480359 
L 286.223976 349.009147 
L 286.50965 330.211344 
L 286.962746 342.470687 
L 287.261856 341.653541 
L 288.03857 333.480359 
L 288.449302 323.672884 
L 288.743904 313.048263 
L 289.040738 333.480359 
L 289.498342 327.759475 
L 289.799618 328.576622 
L 290.063016 326.124753 
L 290.527294 333.480359 
L 290.98039 353.095737 
L 291.26381 352.278162 
L 291.728088 335.115081 
L 292.042778 349.826293 
L 292.337446 329.394197 
L 292.772642 337.56695 
L 293.225738 343.288263 
L 293.529334 333.480359 
L 293.835096 327.759475 
L 294.252502 331.02849 
L 294.551546 326.124753 
L 294.98904 365.355081 
L 295.285896 335.115081 
L 295.611746 343.288263 
L 296.042522 326.942328 
L 296.35277 339.201672 
L 296.79696 344.922556 
L 297.078214 368.624097 
L 297.553586 331.02849 
L 297.830398 347.374425 
L 298.587024 331.02849 
L 299.017778 342.470687 
L 299.310214 327.759475 
L 299.772238 344.922556 
L 300.073514 325.307606 
L 300.515494 326.942328 
L 300.819024 322.038591 
L 301.26096 312.230687 
L 301.535541 342.470687 
L 301.839048 320.403869 
L 302.31 313.865409 
L 302.586746 344.105409 
L 303.008594 314.682556 
L 303.307682 329.394197 
L 303.74743 334.297934 
L 304.064374 317.134425 
L 304.79647 340.018819 
L 305.247334 324.490459 
L 305.537494 340.018819 
L 305.990546 341.653541 
L 306.271778 337.56695 
L 306.736056 337.56695 
L 307.032912 313.048263 
L 307.472594 331.02849 
L 307.785096 314.682556 
L 308.530562 349.009147 
L 308.988144 333.480359 
L 309.267144 343.288263 
L 309.561746 318.769147 
L 310.021538 325.307606 
L 310.313952 332.663212 
L 310.740286 333.480359 
L 311.041562 349.009147 
L 311.501398 333.480359 
L 311.78484 335.932228 
L 312.237936 335.115081 
L 312.539278 334.297934 
L 312.976706 331.846066 
L 313.302578 307.32695 
L 313.744514 312.230687 
L 314.03916 335.115081 
L 314.333762 322.855737 
L 314.79804 350.643869 
L 315.074786 320.403869 
L 315.51449 335.115081 
L 315.826992 315.500131 
L 316.244398 332.663212 
L 316.556856 322.038591 
L 317.00551 344.922556 
L 317.304554 322.038591 
L 317.61257 318.769147 
L 318.034462 326.124753 
L 318.333506 347.374425 
L 318.80669 341.653541 
L 319.54104 329.394197 
L 319.98523 334.297934 
L 320.266462 333.480359 
L 320.592334 341.653541 
L 321.029762 355.547606 
L 321.30653 330.211344 
L 321.759626 331.846066 
L 322.074382 320.403869 
L 322.505136 344.105409 
L 322.817594 340.018819 
L 323.268502 328.576622 
L 323.54527 338.384525 
L 323.839872 333.480359 
L 324.268438 362.086066 
L 324.59431 322.038591 
L 325.045152 323.672884 
L 325.335334 331.846066 
L 325.768342 323.672884 
L 326.062944 341.653541 
L 326.38212 324.490459 
L 326.828498 347.374425 
L 327.268246 342.470687 
L 327.578494 344.922556 
L 328.02043 299.971344 
L 328.330634 331.846066 
L 328.582872 322.038591 
L 329.042642 322.855737 
L 329.489064 335.932228 
L 329.83277 349.826293 
L 330.105096 332.663212 
L 330.544778 343.288263 
L 330.85949 344.922556 
L 331.279128 345.740131 
L 331.571498 327.759475 
L 331.863912 322.038591 
L 332.321494 346.557278 
L 332.747762 322.038591 
L 333.04243 344.922556 
L 333.374976 336.749803 
L 333.810238 300.78849 
L 334.095912 332.663212 
L 334.517738 314.682556 
L 334.986502 332.663212 
L 335.31012 349.826293 
L 335.58912 336.749803 
L 336.05784 321.221015 
L 336.350254 326.124753 
L 336.627 356.364753 
L 337.100206 330.211344 
L 337.401459 340.018819 
L 337.82112 336.749803 
L 338.292072 338.384525 
L 338.58 349.826293 
L 339.019682 342.470687 
L 339.296494 327.759475 
L 339.611206 341.653541 
L 340.075462 324.490459 
L 340.343302 335.932228 
L 340.628976 340.018819 
L 341.11553 317.952 
L 341.544096 335.115081 
L 341.863294 329.394197 
L 342.323064 332.663212 
L 342.602064 315.500131 
L 342.914522 334.297934 
L 343.34753 298.33705 
L 343.664541 339.201672 
L 344.113128 338.384525 
L 344.380968 316.317278 
L 345.13092 336.749803 
L 345.56616 343.288263 
L 346.168778 327.759475 
L 346.62857 350.643869 
L 346.932144 331.846066 
L 347.356246 346.557278 
L 347.666494 345.740131 
L 347.961096 305.692656 
L 348.407541 344.922556 
L 348.873984 344.105409 
L 349.15073 322.038591 
L 349.608334 318.769147 
L 349.898494 336.749803 
L 350.342618 322.038591 
L 350.648446 322.038591 
L 351.09257 331.846066 
L 351.376056 332.663212 
L 351.693 322.855737 
L 352.110406 314.682556 
L 352.425096 326.124753 
L 352.87596 335.932228 
L 353.15496 356.364753 
L 353.46523 304.057934 
L 353.90047 340.018819 
L 354.224088 341.653541 
L 354.677206 322.038591 
L 354.945024 316.317278 
L 355.395888 309.778819 
L 356.148072 340.836394 
L 356.406984 307.32695 
L 356.91588 332.663212 
L 357.19488 340.836394 
L 357.65465 340.836394 
L 357.96492 357.999475 
L 358.409088 337.56695 
L 358.67916 331.846066 
L 358.97827 343.288263 
L 359.429112 337.56695 
L 359.732642 320.403869 
L 360.194666 354.730459 
L 360.473666 349.009147 
L 360.922342 325.307606 
L 361.21469 338.384525 
L 361.652206 333.480359 
L 361.971382 341.653541 
L 362.395462 337.56695 
L 362.705666 315.500131 
L 363.04051 313.865409 
L 363.466778 322.855737 
L 363.745778 339.201672 
L 364.201128 318.769147 
L 364.95108 339.201672 
L 365.214478 309.778819 
L 365.705541 335.115081 
L 365.977778 322.855737 
L 366.426454 358.816622 
L 366.72331 331.846066 
L 367.029072 335.932228 
L 367.475494 319.586722 
L 367.756682 319.586722 
L 368.183016 333.480359 
L 368.520048 322.855737 
L 368.95531 336.749803 
L 369.263326 313.865409 
L 369.723096 317.952 
L 370.013278 317.952 
L 370.455214 324.490459 
L 370.760976 299.154197 
L 371.055578 295.067606 
L 371.486398 321.221015 
L 371.803342 353.912884 
L 372.30773 332.663212 
L 372.52651 353.912884 
L 372.99523 318.769147 
L 373.280904 326.124753 
L 373.573318 313.865409 
L 374.039762 318.769147 
L 374.318762 318.769147 
L 374.778554 319.586722 
L 375.059786 313.865409 
L 375.526318 335.932228 
L 375.963746 330.211344 
L 376.253928 308.144525 
L 376.55969 331.846066 
L 377.01504 312.230687 
L 377.31857 337.56695 
L 377.776152 308.961672 
L 378.066334 326.124753 
L 378.523872 303.240788 
L 378.802872 343.288263 
L 379.27831 334.297934 
L 379.541642 324.490459 
L 379.97465 338.384525 
L 380.280478 330.211344 
L 380.584008 317.952 
L 381.30943 334.297934 
L 381.811586 315.500131 
L 382.041459 324.490459 
L 382.494578 352.278162 
L 382.786992 328.576622 
L 383.237856 327.759475 
L 383.552546 329.394197 
L 383.985554 340.836394 
L 384.277968 312.230687 
L 384.561454 330.211344 
L 385.016738 343.288263 
L 385.309152 313.048263 
L 386.039016 327.759475 
L 386.480952 325.307606 
L 386.800128 326.124753 
L 387.246506 330.211344 
L 387.543406 316.317278 
L 388.007618 360.451344 
L 388.76431 332.663212 
L 390.967294 318.769147 
L 390.967294 318.769147 
" clip-path="url(#pf9b8a46c59)" style="fill: none; stroke: #737373; stroke-width: 1.5; stroke-linecap: square"/>
   </g>
   <g id="line2d_36">
    <path d="M 53.86608 327.759475 
L 54.613778 344.105409 
L 54.93523 315.500131 
L 55.153944 348.192 
L 56.127096 312.230687 
L 56.702952 329.394197 
L 57.14712 328.576622 
L 57.450694 352.278162 
L 57.892608 329.394197 
L 58.158238 341.653541 
L 58.640306 311.413541 
L 58.92377 332.663212 
L 59.354568 336.749803 
L 59.673766 319.586722 
L 60.111238 333.480359 
L 60.443762 335.115081 
L 60.709392 346.557278 
L 61.137936 341.653541 
L 61.46604 339.201672 
L 61.894584 324.490459 
L 62.16912 326.124753 
L 62.657928 339.201672 
L 62.948088 299.971344 
L 63.405648 320.403869 
L 63.704758 317.134425 
L 64.151136 304.875081 
L 64.593072 317.134425 
L 64.894392 334.297934 
L 65.180088 338.384525 
L 65.626488 346.557278 
L 65.950128 346.557278 
L 66.235802 342.470687 
L 66.671064 327.759475 
L 66.961246 340.018819 
L 67.414342 330.211344 
L 67.733541 330.211344 
L 67.999104 299.971344 
L 68.454454 338.384525 
L 68.905318 331.02849 
L 69.188738 333.480359 
L 69.51019 341.653541 
L 69.96996 303.240788 
L 70.405222 347.374425 
L 70.690896 349.009147 
L 71.103794 341.653541 
L 71.860486 350.643869 
L 72.14616 348.192 
L 72.458618 322.855737 
L 72.89388 328.576622 
L 73.38492 305.692656 
L 73.637136 331.02849 
L 74.105856 332.663212 
L 74.413872 345.740131 
L 74.697358 317.952 
L 75.123626 331.846066 
L 75.45847 334.297934 
L 75.86023 317.952 
L 76.165992 329.394197 
L 76.471754 312.230687 
L 76.900342 335.115081 
L 77.415912 337.56695 
L 77.67257 326.942328 
L 77.964984 322.038591 
L 78.427008 322.855737 
L 78.71719 318.769147 
L 79.159104 339.201672 
L 79.607714 334.297934 
L 79.909056 338.384525 
L 80.212586 339.201672 
L 80.659008 321.221015 
L 80.92908 315.500131 
L 81.368762 299.154197 
L 81.97812 317.952 
L 82.435658 311.413541 
L 82.891008 343.288263 
L 83.190096 309.778819 
L 84.194541 356.364753 
L 84.67884 326.124753 
L 85.100666 333.480359 
L 85.399754 348.192 
L 85.832762 325.307606 
L 86.134104 340.018819 
L 86.433214 330.211344 
L 86.906398 325.307606 
L 87.192072 340.836394 
L 87.62508 299.154197 
L 87.919682 316.317278 
L 88.23888 319.586722 
L 88.67412 320.403869 
L 89.12947 343.288263 
L 89.40847 334.297934 
L 89.839246 331.02849 
L 90.113738 342.470687 
L 90.595872 335.115081 
L 90.886032 327.759475 
L 91.327968 325.307606 
L 91.631498 314.682556 
L 92.068992 326.942328 
L 92.372522 339.201672 
L 92.662682 322.855737 
L 93.12696 329.394197 
L 93.58673 338.384525 
L 93.901486 326.942328 
L 94.338936 320.403869 
L 94.62019 326.942328 
L 94.923698 327.759475 
L 95.341104 322.038591 
L 95.81431 340.018819 
L 96.11784 320.403869 
L 96.408 335.932228 
L 96.865538 329.394197 
L 97.14235 299.971344 
L 97.60212 306.509803 
L 97.887794 326.942328 
L 98.34984 304.875081 
L 98.637746 317.952 
L 99.075262 345.740131 
L 99.36319 326.942328 
L 99.82296 314.682556 
L 100.128722 325.307606 
L 100.44792 314.682556 
L 100.887602 333.480359 
L 101.166602 314.682556 
L 101.588494 317.952 
L 101.88977 300.78849 
L 102.662064 343.288263 
L 103.066056 325.307606 
L 103.380746 353.095737 
L 103.83161 318.769147 
L 104.126278 305.692656 
L 104.429786 336.749803 
L 104.898506 308.144525 
L 105.188666 336.749803 
L 105.621674 330.211344 
L 105.940872 322.038591 
L 106.400642 328.576622 
L 106.66404 314.682556 
L 107.105976 315.500131 
L 107.411738 317.134425 
L 107.87153 314.682556 
L 108.163944 316.317278 
L 108.612554 299.154197 
L 108.933984 329.394197 
L 109.663848 333.480359 
L 109.949522 309.778819 
L 110.411546 324.490459 
L 110.690546 344.105409 
L 111.136968 304.875081 
L 111.447238 344.922556 
L 111.880246 340.836394 
L 112.181522 317.134425 
L 112.62569 340.018819 
L 112.918104 328.576622 
L 113.377896 335.932228 
L 113.668056 317.952 
L 114.121152 312.230687 
L 114.40908 322.855737 
L 114.837602 296.702328 
L 115.147872 322.038591 
L 115.406762 322.038591 
L 115.89557 300.78849 
L 116.650008 333.480359 
L 116.913406 331.02849 
L 117.36427 297.519475 
L 117.658872 326.942328 
L 118.107459 311.413541 
L 118.426658 316.317278 
L 118.70347 324.490459 
L 119.165494 314.682556 
L 119.448936 351.461015 
L 119.906541 325.307606 
L 120.21449 324.490459 
L 120.643056 318.769147 
L 120.93547 331.846066 
L 121.68761 327.759475 
L 121.988952 326.942328 
L 122.437562 313.865409 
L 122.74339 313.865409 
L 123.20316 333.480359 
L 123.473254 318.769147 
L 123.91961 331.846066 
L 124.223206 353.912884 
L 124.674048 314.682556 
L 124.990992 312.230687 
L 125.428486 307.32695 
L 125.707486 308.144525 
L 126.035546 335.932228 
L 126.439538 326.942328 
L 126.901562 313.865409 
L 127.20739 335.115081 
L 127.495318 328.576622 
L 127.935 290.163869 
L 128.229602 338.384525 
L 128.698366 335.115081 
L 128.98404 322.855737 
L 129.403634 321.221015 
L 129.702722 318.769147 
L 130.164746 317.134425 
L 130.45716 303.240788 
L 130.765198 325.307606 
L 131.207112 303.240788 
L 131.506222 295.884753 
L 131.990522 304.057934 
L 132.70253 334.297934 
L 133.135538 311.413541 
L 133.452459 323.672884 
L 133.733714 314.682556 
L 134.160048 312.230687 
L 134.474738 318.769147 
L 134.789494 315.500131 
L 135.530541 326.124753 
L 135.974642 344.922556 
L 136.429992 349.826293 
L 136.735754 319.586722 
L 137.014754 310.596394 
L 137.780374 316.317278 
L 138.21557 345.740131 
L 138.54816 295.884753 
L 138.974494 340.836394 
L 139.708778 313.865409 
L 140.016794 335.115081 
L 140.463238 349.009147 
L 141.041326 332.663212 
L 141.445318 343.288263 
L 141.724318 325.307606 
L 142.166254 326.124753 
L 142.47869 322.038591 
L 142.931786 340.018819 
L 143.24431 313.048263 
L 143.717494 304.875081 
L 144.000936 313.048263 
L 144.429502 334.297934 
L 144.869206 304.057934 
L 145.172714 308.961672 
L 145.467382 293.432884 
L 146.212848 317.952 
L 146.746318 321.221015 
L 147.043152 320.403869 
L 147.244032 322.855737 
L 147.70831 320.403869 
L 147.98057 329.394197 
L 148.426992 311.413541 
L 148.826498 329.394197 
L 149.277406 314.682556 
L 149.556406 321.221015 
L 149.989414 304.875081 
L 150.275088 320.403869 
L 150.574198 311.413541 
L 151.033968 301.606066 
L 151.23708 334.297934 
L 151.676762 344.922556 
L 152.078522 314.682556 
L 152.435642 331.846066 
L 152.73031 298.33705 
L 153.491422 336.749803 
L 153.926618 317.952 
L 154.236888 326.942328 
L 154.53149 327.759475 
L 154.97347 309.778819 
L 155.277 344.922556 
L 155.718936 292.615737 
L 156.08273 322.038591 
L 156.52692 332.663212 
L 156.810406 312.230687 
L 157.256762 304.057934 
L 157.571541 311.413541 
L 157.843778 308.144525 
L 158.709794 340.836394 
L 159.040152 313.865409 
L 159.462 295.067606 
L 159.774502 323.672884 
L 160.276658 293.432884 
L 160.488698 334.297934 
L 160.95965 317.952 
L 161.231976 340.836394 
L 161.66947 325.307606 
L 161.98416 305.692656 
L 162.281016 331.846066 
L 162.722952 330.211344 
L 163.039896 311.413541 
L 163.463976 331.846066 
L 163.767506 335.932228 
L 164.062152 329.394197 
L 164.499602 314.682556 
L 164.807618 326.124753 
L 165.280802 315.500131 
L 165.582144 335.932228 
L 166.01292 325.307606 
L 166.305334 324.490459 
L 166.745016 300.78849 
L 167.044104 322.038591 
L 167.497222 339.201672 
L 167.758366 318.769147 
L 168.215904 323.672884 
L 168.530594 319.586722 
L 168.985944 333.480359 
L 169.249342 334.297934 
L 169.704626 327.759475 
L 170.003714 316.317278 
L 170.751478 327.759475 
L 171.03492 340.018819 
L 171.760342 320.403869 
L 172.242454 319.586722 
L 172.53257 330.211344 
L 173.005754 310.596394 
L 173.289262 310.596394 
L 173.740104 308.144525 
L 174.028032 329.394197 
L 174.46104 306.509803 
L 174.769056 330.211344 
L 175.222152 322.855737 
L 175.507848 315.500131 
L 175.822538 335.932228 
L 176.264541 322.038591 
L 176.565794 328.576622 
L 177.00331 317.952 
L 177.28673 325.307606 
L 177.737594 341.653541 
L 177.996506 327.759475 
L 178.45853 320.403869 
L 178.771032 326.124753 
L 179.23531 319.586722 
L 179.523238 324.490459 
L 179.815586 304.875081 
L 180.27319 328.576622 
L 180.592366 329.394197 
L 181.032048 323.672884 
L 181.308794 330.211344 
L 181.782 335.932228 
L 182.063254 309.778819 
L 182.52077 335.932228 
L 182.833294 309.778819 
L 183.139056 314.682556 
L 183.556462 315.500131 
L 183.857738 320.403869 
L 184.299674 324.490459 
L 184.60327 302.423212 
L 185.060786 302.423212 
L 185.502722 310.596394 
L 185.804064 331.02849 
L 186.083064 318.769147 
L 186.525 309.778819 
L 186.824088 306.509803 
L 187.274952 318.769147 
L 187.551698 320.403869 
L 187.99812 325.307606 
L 188.306136 308.144525 
L 188.772602 315.500131 
L 189.34627 313.865409 
L 189.808294 290.163869 
L 190.569406 323.672884 
L 190.850594 303.240788 
L 191.314872 296.702328 
L 191.616214 313.865409 
L 192.055896 323.672884 
L 192.357238 318.769147 
L 192.785738 329.394197 
L 193.08708 299.971344 
L 193.381682 308.961672 
L 193.828104 302.423212 
L 194.13612 327.759475 
L 194.59147 314.682556 
L 194.999904 320.403869 
L 195.325754 307.32695 
L 195.604754 328.576622 
L 196.075706 337.56695 
L 196.296674 335.932228 
L 196.834586 322.855737 
L 197.09573 326.124753 
L 197.421602 309.778819 
L 197.843494 308.144525 
L 198.305541 309.778819 
L 198.611302 331.846066 
L 198.921506 313.865409 
L 199.361254 309.778819 
L 199.635746 318.769147 
L 200.091096 300.78849 
L 200.367864 303.240788 
L 200.84549 343.288263 
L 201.14239 297.519475 
L 201.577586 297.519475 
L 201.872254 317.134425 
L 202.186944 319.586722 
L 202.62888 324.490459 
L 202.927968 322.038591 
L 203.36765 304.057934 
L 203.675666 314.682556 
L 203.974754 309.778819 
L 204.418944 313.865409 
L 204.883222 332.663212 
L 205.15104 308.144525 
L 205.459056 330.211344 
L 205.916594 324.490459 
L 206.204522 298.33705 
L 206.686634 304.875081 
L 206.950032 331.02849 
L 207.420984 304.875081 
L 207.702238 279.538819 
L 208.434334 331.846066 
L 208.88743 308.961672 
L 209.186541 319.586722 
L 209.630642 295.884753 
L 210.213238 326.942328 
L 210.693096 295.067606 
L 211.110502 287.712 
L 211.411778 313.048263 
L 211.70196 307.32695 
L 212.15731 313.865409 
L 212.463072 303.240788 
L 212.88492 315.500131 
L 213.338016 310.596394 
L 213.650541 320.403869 
L 214.092454 321.221015 
L 214.41384 300.78849 
L 214.683912 297.519475 
L 215.134754 290.163869 
L 215.581198 322.038591 
L 215.853502 319.586722 
L 216.154778 328.576622 
L 216.62131 319.586722 
L 216.902498 352.278162 
L 217.36008 299.971344 
L 217.668096 308.144525 
L 217.971626 326.942328 
L 218.402446 313.048263 
L 218.851056 313.048263 
L 219.15684 325.307606 
L 219.609936 299.154197 
L 219.884494 311.413541 
L 220.333104 283.625409 
L 220.647794 340.018819 
L 220.924562 307.32695 
L 221.393326 320.403869 
L 221.82408 300.78849 
L 222.129864 318.769147 
L 222.433438 316.317278 
L 222.86196 319.586722 
L 223.167722 326.124753 
L 223.609658 329.394197 
L 223.908746 323.672884 
L 224.219016 289.346722 
L 224.663206 316.317278 
L 224.944438 322.038591 
L 225.381888 324.490459 
L 225.68323 317.134425 
L 226.165342 308.144525 
L 226.435414 296.702328 
L 226.90188 321.221015 
L 227.171952 323.672884 
L 227.622794 312.230687 
L 227.91523 334.297934 
L 228.354912 323.672884 
L 228.66516 293.432884 
L 229.116024 301.606066 
L 229.406206 313.865409 
L 229.863722 292.615737 
L 230.475334 313.865409 
L 230.92169 292.615737 
L 231.194016 310.596394 
L 231.952896 321.221015 
L 232.236382 295.067606 
L 232.678318 322.038591 
L 232.986334 316.317278 
L 233.417088 324.490459 
L 233.738541 292.615737 
L 234.175968 313.865409 
L 234.47057 304.875081 
L 234.919246 295.884753 
L 235.229494 330.211344 
L 235.655762 306.509803 
L 235.977214 296.702328 
L 236.401294 320.403869 
L 236.707056 317.952 
L 237.15792 340.018819 
L 237.454754 329.394197 
L 237.863254 332.663212 
L 238.195778 329.394197 
L 238.483706 304.875081 
L 238.914459 330.211344 
L 239.662246 290.163869 
L 239.945666 330.211344 
L 240.392088 305.692656 
L 240.691198 326.942328 
L 241.13088 313.048263 
L 241.447802 311.413541 
L 241.796016 311.413541 
L 242.157578 325.307606 
L 242.920944 286.077278 
L 243.231214 329.394197 
L 243.96331 306.509803 
L 244.402992 322.038591 
L 244.719936 303.240788 
L 245.159618 324.490459 
L 245.58151 317.134425 
L 246.201984 292.615737 
L 246.634992 315.500131 
L 246.916246 310.596394 
L 247.364856 316.317278 
L 247.675104 294.250459 
L 248.110366 313.865409 
L 248.422802 283.625409 
L 248.858064 304.875081 
L 249.19061 315.500131 
L 249.483024 294.250459 
L 249.945048 336.749803 
L 250.21512 324.490459 
L 250.665984 311.413541 
L 251.103478 327.759475 
L 251.42261 312.230687 
L 252.143546 298.33705 
L 252.453794 317.952 
L 252.89573 299.154197 
L 253.183658 316.317278 
L 253.634522 300.78849 
L 253.920262 309.778819 
L 254.397888 346.557278 
L 255.145586 295.884753 
L 255.739342 327.759475 
L 256.19688 320.403869 
L 256.498222 297.519475 
L 256.94239 317.134425 
L 257.375398 299.154197 
L 257.674486 319.586722 
L 257.995872 307.32695 
L 258.444459 299.971344 
L 258.739128 301.606066 
L 259.165462 288.529147 
L 259.44665 309.778819 
L 260.210016 299.154197 
L 260.678714 291.798591 
L 261.41081 286.077278 
L 261.696506 316.317278 
L 262.142928 327.759475 
L 262.473286 300.78849 
L 262.73443 331.846066 
L 263.178554 321.221015 
L 263.611562 304.057934 
L 263.935246 299.154197 
L 264.236522 331.02849 
L 264.651674 320.403869 
L 264.94853 285.260131 
L 265.401626 291.798591 
L 265.685112 308.961672 
L 266.176152 288.529147 
L 266.466334 294.250459 
L 266.885928 330.211344 
L 267.171602 317.134425 
L 267.618024 303.240788 
L 267.930459 322.038591 
L 268.20504 316.317278 
L 268.651462 289.346722 
L 269.115674 304.057934 
L 269.388 308.144525 
L 269.829936 308.961672 
L 270.137952 303.240788 
L 270.445968 305.692656 
L 270.887904 314.682556 
L 271.182506 304.057934 
L 271.675778 295.067606 
L 271.93469 326.942328 
L 272.374438 306.509803 
L 272.673459 302.423212 
L 273.144478 307.32695 
L 273.423478 305.692656 
L 273.867602 307.32695 
L 274.16227 305.692656 
L 274.470286 303.240788 
L 274.941238 297.519475 
L 275.374246 326.124753 
L 275.637578 309.778819 
L 276.117502 303.240788 
L 276.735722 313.865409 
L 277.177658 290.981015 
L 277.456658 318.769147 
L 277.762486 304.875081 
L 278.632944 322.855737 
L 278.945446 311.413541 
L 279.246722 311.413541 
L 279.684238 298.33705 
L 279.987746 333.480359 
L 280.425262 302.423212 
L 280.73551 314.682556 
L 281.17296 319.586722 
L 281.458634 324.490459 
L 281.905056 322.038591 
L 282.188498 294.250459 
L 282.621506 308.961672 
L 282.931754 276.269803 
L 283.230864 314.682556 
L 283.668358 310.596394 
L 283.983048 340.836394 
L 284.41157 299.971344 
L 284.726326 318.769147 
L 285.018674 290.981015 
L 285.47177 306.509803 
L 285.898104 300.78849 
L 286.20612 295.067606 
L 286.636896 313.048263 
L 286.927056 295.067606 
L 287.37792 319.586722 
L 287.68819 314.682556 
L 288.130104 301.606066 
L 288.43812 328.576622 
L 288.88673 317.952 
L 289.201486 296.702328 
L 289.48716 309.778819 
L 289.92019 299.154197 
L 290.20361 295.067606 
L 290.656706 335.932228 
L 291.031682 302.423212 
L 291.384382 322.855737 
L 291.705746 303.240788 
L 292.136522 320.403869 
L 292.45351 338.384525 
L 292.734698 317.952 
L 293.18112 299.971344 
L 293.652072 307.32695 
L 294.25469 334.297934 
L 295.44881 281.991116 
L 295.707722 311.413541 
L 296.151912 307.32695 
L 296.47553 308.961672 
L 296.788032 290.981015 
L 297.225459 314.682556 
L 297.506714 313.865409 
L 297.950904 292.615737 
L 298.265594 313.048263 
L 298.720944 308.144525 
L 299.022286 278.721672 
L 299.747642 321.221015 
L 300.167302 313.048263 
L 300.47081 310.596394 
L 300.92616 324.490459 
L 301.209602 318.769147 
L 301.68504 290.981015 
L 301.979642 326.124753 
L 302.673794 275.452656 
L 303.432674 317.952 
L 303.742944 274.635081 
L 304.187112 298.33705 
L 304.50631 335.932228 
L 304.950478 305.692656 
L 305.229478 305.692656 
L 305.658 320.403869 
L 305.97269 316.317278 
L 306.443642 304.875081 
L 306.702554 304.875081 
L 307.16239 309.778819 
L 307.459246 308.961672 
L 307.887746 326.124753 
L 308.206944 304.875081 
L 308.631024 312.230687 
L 308.925626 290.981015 
L 309.211366 293.432884 
L 309.682318 289.346722 
L 310.00819 326.124753 
L 310.42553 319.586722 
L 310.72243 299.971344 
L 311.023706 316.317278 
L 311.470128 325.307606 
L 311.918738 290.163869 
L 312.231262 278.721672 
L 312.510262 304.875081 
L 312.920928 302.423212 
L 313.244546 307.32695 
L 313.704382 290.981015 
L 313.994498 320.403869 
L 314.307 286.077278 
L 314.742262 301.606066 
L 315.193104 323.672884 
L 315.478778 311.413541 
L 315.911786 308.961672 
L 316.52784 308.961672 
L 316.949666 308.144525 
L 317.264422 290.981015 
L 317.570206 313.865409 
L 318.03223 303.240788 
L 318.39377 300.78849 
L 318.744238 292.615737 
L 319.212936 294.250459 
L 319.507538 328.576622 
L 319.815554 310.596394 
L 320.250794 267.279475 
L 320.53649 307.32695 
L 320.985144 304.057934 
L 321.290928 309.778819 
L 321.74851 305.692656 
L 322.023024 325.307606 
L 322.493976 302.423212 
L 322.76849 303.240788 
L 323.219398 320.403869 
L 323.507326 300.78849 
L 323.976024 290.163869 
L 324.292968 299.154197 
L 324.74381 290.163869 
L 325.038478 295.067606 
L 325.475928 292.615737 
L 325.763856 284.442985 
L 326.083032 314.682556 
L 326.520459 295.067606 
L 326.799459 292.615737 
L 327.234722 297.519475 
L 327.556152 315.500131 
L 327.982486 326.124753 
L 328.297198 314.682556 
L 328.734626 304.057934 
L 329.05831 312.230687 
L 329.366326 312.230687 
L 329.79708 292.615737 
L 330.087262 314.682556 
L 330.549286 310.596394 
L 330.973366 304.875081 
L 331.310398 307.32695 
L 331.732246 328.576622 
L 332.044682 302.423212 
L 332.750016 270.548919 
L 333.064706 299.154197 
L 333.488786 289.346722 
L 333.796802 310.596394 
L 334.553494 281.173541 
L 334.836936 295.067606 
L 335.26769 300.78849 
L 335.580214 327.759475 
L 336.022128 314.682556 
L 336.327912 298.33705 
L 336.633674 315.500131 
L 337.405968 330.211344 
L 337.832302 285.260131 
L 338.301 319.586722 
L 338.896944 277.904525 
L 339.31435 292.615737 
L 339.637968 316.317278 
L 340.07765 283.625409 
L 340.374506 299.971344 
L 340.809746 289.346722 
L 341.091 303.240788 
L 341.541864 301.606066 
L 341.84988 298.33705 
L 342.30965 287.712 
L 342.590904 286.077278 
L 342.903406 323.672884 
L 343.610928 283.625409 
L 343.901088 296.702328 
L 344.36088 291.798591 
L 344.811722 299.154197 
L 345.124246 289.346722 
L 345.575088 312.230687 
L 345.851856 318.769147 
L 346.171032 305.692656 
L 346.606294 299.971344 
L 346.91431 310.596394 
L 347.351738 296.702328 
L 347.659754 295.067606 
L 348.396358 331.846066 
L 348.86731 296.702328 
L 349.144056 301.606066 
L 349.603848 313.865409 
L 349.88508 295.884753 
L 350.202024 310.596394 
L 350.630546 290.981015 
L 350.918541 314.682556 
L 351.66847 287.712 
L 352.108152 313.048263 
L 352.400522 302.423212 
L 352.869286 329.394197 
L 353.148286 316.317278 
L 353.601382 317.134425 
L 353.875896 303.240788 
L 354.324506 295.884753 
L 354.641494 313.048263 
L 355.078944 309.778819 
L 355.384706 298.33705 
L 355.857912 321.221015 
L 356.13247 304.057934 
L 356.462762 304.875081 
L 356.89577 283.625409 
L 357.634562 330.211344 
L 357.904634 278.721672 
L 358.670254 315.500131 
L 358.97153 313.865409 
L 359.433554 305.692656 
L 359.873302 294.250459 
L 360.167904 293.432884 
L 360.614326 276.269803 
L 360.92453 299.154197 
L 361.350864 296.702328 
L 361.661112 317.134425 
L 362.085214 321.221015 
L 362.382048 299.971344 
L 362.681136 302.423212 
L 363.14316 299.971344 
L 363.444502 289.346722 
L 363.873024 306.509803 
L 364.172112 296.702328 
L 364.602888 296.702328 
L 364.890794 317.134425 
L 365.364 274.635081 
L 365.683198 293.432884 
L 366.111698 291.798591 
L 366.406366 285.260131 
L 366.846048 306.509803 
L 367.12949 288.529147 
L 367.46208 299.154197 
L 367.901762 308.144525 
L 368.174088 307.32695 
L 368.622698 308.961672 
L 368.950802 315.500131 
L 369.408406 297.519475 
L 369.711936 281.173541 
L 370.439546 317.952 
L 370.872554 326.124753 
L 371.18057 289.346722 
L 371.644848 296.702328 
L 371.917152 317.134425 
L 372.216262 304.875081 
L 372.669358 308.961672 
L 372.966214 290.163869 
L 373.704984 311.413541 
L 374.142478 309.778819 
L 374.439334 284.442985 
L 374.87453 281.991116 
L 375.16027 289.346722 
L 375.631222 286.894853 
L 375.925802 304.875081 
L 376.369992 286.894853 
L 376.655666 313.865409 
L 377.099856 294.250459 
L 377.425706 296.702328 
L 377.838626 313.865409 
L 378.160056 293.432884 
L 378.439056 303.240788 
L 378.894406 313.865409 
L 379.175594 298.33705 
L 379.63543 303.240788 
L 379.925546 318.769147 
L 380.39431 298.33705 
L 380.679984 317.134425 
L 381.110738 307.32695 
L 381.427682 292.615737 
L 381.702262 300.78849 
L 382.184374 299.971344 
L 382.490136 286.077278 
L 382.90973 324.490459 
L 383.731128 290.981015 
L 383.96551 268.09705 
L 384.389546 315.500131 
L 384.688634 291.798591 
L 385.135056 301.606066 
L 385.414056 277.08695 
L 385.855992 304.875081 
L 386.172936 285.260131 
L 386.605944 284.442985 
L 386.922888 320.403869 
L 387.384912 284.442985 
L 388.110334 313.048263 
L 389.206246 306.509803 
L 389.206246 306.509803 
" clip-path="url(#pf9b8a46c59)" style="fill: none; stroke: #0570b0; stroke-width: 1.5; stroke-linecap: square"/>
   </g>
   <g id="patch_7">
    <path d="M 54 384.48 
L 54 251.424 
" style="fill: none; stroke: #000000; stroke-width: 0.5; stroke-linejoin: miter; stroke-linecap: square"/>
   </g>
   <g id="patch_8">
    <path d="M 54 384.48 
L 388.8 384.48 
" style="fill: none; stroke: #000000; stroke-width: 0.5; stroke-linejoin: miter; stroke-linecap: square"/>
   </g>
   <g id="text_38">
    <!-- 104 m/z for Dynamic TGA -->
    <g transform="translate(157.046875 245.424) scale(0.1 -0.1)">
     <defs>
      <path id="DejaVuSans-2f" d="M 1625 4666 
L 2156 4666 
L 531 -594 
L 0 -594 
L 1625 4666 
z
" transform="scale(0.015625)"/>
      <path id="DejaVuSans-66" d="M 2375 4863 
L 2375 4384 
L 1825 4384 
Q 1516 4384 1395 4259 
Q 1275 4134 1275 3809 
L 1275 3500 
L 2222 3500 
L 2222 3053 
L 1275 3053 
L 1275 0 
L 697 0 
L 697 3053 
L 147 3053 
L 147 3500 
L 697 3500 
L 697 3744 
Q 697 4328 969 4595 
Q 1241 4863 1831 4863 
L 2375 4863 
z
" transform="scale(0.015625)"/>
     </defs>
     <use xlink:href="#DejaVuSans-31"/>
     <use xlink:href="#DejaVuSans-30" x="63.623047"/>
     <use xlink:href="#DejaVuSans-34" x="127.246094"/>
     <use xlink:href="#DejaVuSans-20" x="190.869141"/>
     <use xlink:href="#DejaVuSans-6d" x="222.65625"/>
     <use xlink:href="#DejaVuSans-2f" x="320.068359"/>
     <use xlink:href="#DejaVuSans-7a" x="353.759766"/>
     <use xlink:href="#DejaVuSans-20" x="406.25"/>
     <use xlink:href="#DejaVuSans-66" x="438.037109"/>
     <use xlink:href="#DejaVuSans-6f" x="473.242188"/>
     <use xlink:href="#DejaVuSans-72" x="534.423828"/>
     <use xlink:href="#DejaVuSans-20" x="575.537109"/>
     <use xlink:href="#DejaVuSans-44" x="607.324219"/>
     <use xlink:href="#DejaVuSans-79" x="684.326172"/>
     <use xlink:href="#DejaVuSans-6e" x="743.505859"/>
     <use xlink:href="#DejaVuSans-61" x="806.884766"/>
     <use xlink:href="#DejaVuSans-6d" x="868.164062"/>
     <use xlink:href="#DejaVuSans-69" x="965.576172"/>
     <use xlink:href="#DejaVuSans-63" x="993.359375"/>
     <use xlink:href="#DejaVuSans-20" x="1048.339844"/>
     <use xlink:href="#DejaVuSans-54" x="1080.126953"/>
     <use xlink:href="#DejaVuSans-47" x="1141.210938"/>
     <use xlink:href="#DejaVuSans-41" x="1218.701172"/>
    </g>
   </g>
   <g id="legend_2">
    <g id="patch_9">
     <path d="M 169.2 288.78025 
L 273.6 288.78025 
Q 275.6 288.78025 275.6 286.78025 
L 275.6 258.424 
Q 275.6 256.424 273.6 256.424 
L 169.2 256.424 
Q 167.2 256.424 167.2 258.424 
L 167.2 286.78025 
Q 167.2 288.78025 169.2 288.78025 
z
" style="fill: #ffffff; opacity: 0.8; stroke: #cccccc; stroke-linejoin: miter"/>
    </g>
    <g id="line2d_37">
     <path d="M 171.2 264.522437 
L 181.2 264.522437 
L 191.2 264.522437 
" style="fill: none; stroke: #737373; stroke-width: 1.5; stroke-linecap: square"/>
    </g>
    <g id="text_39">
     <!-- PS-40.4K -->
     <g transform="translate(199.2 268.022437) scale(0.1 -0.1)">
      <use xlink:href="#DejaVuSans-50"/>
      <use xlink:href="#DejaVuSans-53" x="60.302734"/>
      <use xlink:href="#DejaVuSans-2d" x="123.779297"/>
      <use xlink:href="#DejaVuSans-34" x="159.863281"/>
      <use xlink:href="#DejaVuSans-30" x="223.486328"/>
      <use xlink:href="#DejaVuSans-2e" x="287.109375"/>
      <use xlink:href="#DejaVuSans-34" x="318.896484"/>
      <use xlink:href="#DejaVuSans-4b" x="382.519531"/>
     </g>
    </g>
    <g id="line2d_38">
     <path d="M 171.2 279.200562 
L 181.2 279.200562 
L 191.2 279.200562 
" style="fill: none; stroke: #0570b0; stroke-width: 1.5; stroke-linecap: square"/>
    </g>
    <g id="text_40">
     <!-- PS-40.4K-SCF$_{3}$ -->
     <g transform="translate(199.2 282.700562) scale(0.1 -0.1)">
      <use xlink:href="#DejaVuSans-50" transform="translate(0 0.78125)"/>
      <use xlink:href="#DejaVuSans-53" transform="translate(60.302734 0.78125)"/>
      <use xlink:href="#DejaVuSans-2d" transform="translate(123.779297 0.78125)"/>
      <use xlink:href="#DejaVuSans-34" transform="translate(159.863281 0.78125)"/>
      <use xlink:href="#DejaVuSans-30" transform="translate(223.486328 0.78125)"/>
      <use xlink:href="#DejaVuSans-2e" transform="translate(287.109375 0.78125)"/>
      <use xlink:href="#DejaVuSans-34" transform="translate(318.896484 0.78125)"/>
      <use xlink:href="#DejaVuSans-4b" transform="translate(382.519531 0.78125)"/>
      <use xlink:href="#DejaVuSans-2d" transform="translate(448.095703 0.78125)"/>
      <use xlink:href="#DejaVuSans-53" transform="translate(484.179688 0.78125)"/>
      <use xlink:href="#DejaVuSans-43" transform="translate(547.65625 0.78125)"/>
      <use xlink:href="#DejaVuSans-46" transform="translate(617.480469 0.78125)"/>
      <use xlink:href="#DejaVuSans-33" transform="translate(675.957031 -15.625) scale(0.7)"/>
     </g>
    </g>
   </g>
  </g>
 </g>
 <defs>
  <clipPath id="pb35ac1dc9f">
   <rect x="54" y="51.84" width="334.8" height="133.056"/>
  </clipPath>
  <clipPath id="pf9b8a46c59">
   <rect x="54" y="251.424" width="334.8" height="133.056"/>
  </clipPath>
 </defs>
</svg>
