<?xml version="1.0" encoding="utf-8" standalone="no"?>
<!DOCTYPE svg PUBLIC "-//W3C//DTD SVG 1.1//EN"
  "http://www.w3.org/Graphics/SVG/1.1/DTD/svg11.dtd">
<svg xmlns:xlink="http://www.w3.org/1999/xlink" width="432pt" height="432pt" viewBox="0 0 432 432" xmlns="http://www.w3.org/2000/svg" version="1.1">
 <metadata>
  <rdf:RDF xmlns:dc="http://purl.org/dc/elements/1.1/" xmlns:cc="http://creativecommons.org/ns#" xmlns:rdf="http://www.w3.org/1999/02/22-rdf-syntax-ns#">
   <cc:Work>
    <dc:type rdf:resource="http://purl.org/dc/dcmitype/StillImage"/>
    <dc:date>2025-02-25T17:03:39.782428</dc:date>
    <dc:format>image/svg+xml</dc:format>
    <dc:creator>
     <cc:Agent>
      <dc:title>Matplotlib v3.7.1, https://matplotlib.org/</dc:title>
     </cc:Agent>
    </dc:creator>
   </cc:Work>
  </rdf:RDF>
 </metadata>
 <defs>
  <style type="text/css">*{stroke-linejoin: round; stroke-linecap: butt}</style>
 </defs>
 <g id="figure_1">
  <g id="patch_1">
   <path d="M 0 432 
L 432 432 
L 432 0 
L 0 0 
z
" style="fill: #ffffff"/>
  </g>
  <g id="axes_1">
   <g id="patch_2">
    <path d="M 54 184.896 
L 388.8 184.896 
L 388.8 51.84 
L 54 51.84 
z
" style="fill: #ffffff"/>
   </g>
   <g id="matplotlib.axis_1">
    <g id="xtick_1">
     <g id="line2d_1">
      <defs>
       <path id="m7fe5fa5b3e" d="M 0 0 
L 0 -3.5 
" style="stroke: #000000; stroke-width: 0.8"/>
      </defs>
      <g>
       <use xlink:href="#m7fe5fa5b3e" x="76.32" y="184.896" style="stroke: #000000; stroke-width: 0.8"/>
      </g>
     </g>
     <g id="text_1">
      <!-- 260 -->
      <g transform="translate(66.310313 197.004125) scale(0.12 -0.12)">
       <defs>
        <path id="Helvetica-32" d="M 200 0 
Q 231 578 439 1006 
Q 647 1434 1250 1784 
L 1850 2131 
Q 2253 2366 2416 2531 
Q 2672 2791 2672 3125 
Q 2672 3516 2437 3745 
Q 2203 3975 1813 3975 
Q 1234 3975 1013 3538 
Q 894 3303 881 2888 
L 309 2888 
Q 319 3472 525 3841 
Q 891 4491 1816 4491 
Q 2584 4491 2939 4075 
Q 3294 3659 3294 3150 
Q 3294 2613 2916 2231 
Q 2697 2009 2131 1694 
L 1703 1456 
Q 1397 1288 1222 1134 
Q 909 863 828 531 
L 3272 531 
L 3272 0 
L 200 0 
z
" transform="scale(0.015625)"/>
        <path id="Helvetica-36" d="M 1872 4494 
Q 2622 4494 2917 4105 
Q 3213 3716 3213 3303 
L 2656 3303 
Q 2606 3569 2497 3719 
Q 2294 4000 1881 4000 
Q 1409 4000 1131 3564 
Q 853 3128 822 2316 
Q 1016 2600 1309 2741 
Q 1578 2866 1909 2866 
Q 2472 2866 2890 2506 
Q 3309 2147 3309 1434 
Q 3309 825 2912 354 
Q 2516 -116 1781 -116 
Q 1153 -116 697 361 
Q 241 838 241 1966 
Q 241 2800 444 3381 
Q 834 4494 1872 4494 
z
M 1831 384 
Q 2275 384 2495 682 
Q 2716 981 2716 1388 
Q 2716 1731 2519 2042 
Q 2322 2353 1803 2353 
Q 1441 2353 1167 2112 
Q 894 1872 894 1388 
Q 894 963 1142 673 
Q 1391 384 1831 384 
z
" transform="scale(0.015625)"/>
        <path id="Helvetica-30" d="M 1731 4475 
Q 2600 4475 2988 3759 
Q 3288 3206 3288 2244 
Q 3288 1331 3016 734 
Q 2622 -122 1728 -122 
Q 922 -122 528 578 
Q 200 1163 200 2147 
Q 200 2909 397 3456 
Q 766 4475 1731 4475 
z
M 1725 391 
Q 2163 391 2422 778 
Q 2681 1166 2681 2222 
Q 2681 2984 2493 3476 
Q 2306 3969 1766 3969 
Q 1269 3969 1039 3501 
Q 809 3034 809 2125 
Q 809 1441 956 1025 
Q 1181 391 1725 391 
z
" transform="scale(0.015625)"/>
       </defs>
       <use xlink:href="#Helvetica-32"/>
       <use xlink:href="#Helvetica-36" x="55.615234"/>
       <use xlink:href="#Helvetica-30" x="111.230469"/>
      </g>
     </g>
    </g>
    <g id="xtick_2">
     <g id="line2d_2">
      <g>
       <use xlink:href="#m7fe5fa5b3e" x="120.96" y="184.896" style="stroke: #000000; stroke-width: 0.8"/>
      </g>
     </g>
     <g id="text_2">
      <!-- 280 -->
      <g transform="translate(110.950313 197.004125) scale(0.12 -0.12)">
       <defs>
        <path id="Helvetica-38" d="M 1741 2600 
Q 2113 2600 2322 2808 
Q 2531 3016 2531 3303 
Q 2531 3553 2331 3762 
Q 2131 3972 1722 3972 
Q 1316 3972 1134 3762 
Q 953 3553 953 3272 
Q 953 2956 1187 2778 
Q 1422 2600 1741 2600 
z
M 1775 384 
Q 2166 384 2423 595 
Q 2681 806 2681 1225 
Q 2681 1659 2415 1884 
Q 2150 2109 1734 2109 
Q 1331 2109 1076 1879 
Q 822 1650 822 1244 
Q 822 894 1055 639 
Q 1288 384 1775 384 
z
M 975 2384 
Q 741 2484 609 2619 
Q 363 2869 363 3269 
Q 363 3769 725 4128 
Q 1088 4488 1753 4488 
Q 2397 4488 2762 4148 
Q 3128 3809 3128 3356 
Q 3128 2938 2916 2678 
Q 2797 2531 2547 2391 
Q 2825 2263 2984 2097 
Q 3281 1784 3281 1284 
Q 3281 694 2884 283 
Q 2488 -128 1763 -128 
Q 1109 -128 657 226 
Q 206 581 206 1256 
Q 206 1653 400 1942 
Q 594 2231 975 2384 
z
" transform="scale(0.015625)"/>
       </defs>
       <use xlink:href="#Helvetica-32"/>
       <use xlink:href="#Helvetica-38" x="55.615234"/>
       <use xlink:href="#Helvetica-30" x="111.230469"/>
      </g>
     </g>
    </g>
    <g id="xtick_3">
     <g id="line2d_3">
      <g>
       <use xlink:href="#m7fe5fa5b3e" x="165.6" y="184.896" style="stroke: #000000; stroke-width: 0.8"/>
      </g>
     </g>
     <g id="text_3">
      <!-- 300 -->
      <g transform="translate(155.590313 197.004125) scale(0.12 -0.12)">
       <defs>
        <path id="Helvetica-33" d="M 1663 -122 
Q 869 -122 511 314 
Q 153 750 153 1375 
L 741 1375 
Q 778 941 903 744 
Q 1122 391 1694 391 
Q 2138 391 2406 628 
Q 2675 866 2675 1241 
Q 2675 1703 2392 1887 
Q 2109 2072 1606 2072 
Q 1550 2072 1492 2070 
Q 1434 2069 1375 2066 
L 1375 2563 
Q 1463 2553 1522 2550 
Q 1581 2547 1650 2547 
Q 1966 2547 2169 2647 
Q 2525 2822 2525 3272 
Q 2525 3606 2287 3787 
Q 2050 3969 1734 3969 
Q 1172 3969 956 3594 
Q 838 3388 822 3006 
L 266 3006 
Q 266 3506 466 3856 
Q 809 4481 1675 4481 
Q 2359 4481 2734 4176 
Q 3109 3872 3109 3294 
Q 3109 2881 2888 2625 
Q 2750 2466 2531 2375 
Q 2884 2278 3082 2001 
Q 3281 1725 3281 1325 
Q 3281 684 2859 281 
Q 2438 -122 1663 -122 
z
" transform="scale(0.015625)"/>
       </defs>
       <use xlink:href="#Helvetica-33"/>
       <use xlink:href="#Helvetica-30" x="55.615234"/>
       <use xlink:href="#Helvetica-30" x="111.230469"/>
      </g>
     </g>
    </g>
    <g id="xtick_4">
     <g id="line2d_4">
      <g>
       <use xlink:href="#m7fe5fa5b3e" x="210.24" y="184.896" style="stroke: #000000; stroke-width: 0.8"/>
      </g>
     </g>
     <g id="text_4">
      <!-- 320 -->
      <g transform="translate(200.230312 197.004125) scale(0.12 -0.12)">
       <use xlink:href="#Helvetica-33"/>
       <use xlink:href="#Helvetica-32" x="55.615234"/>
       <use xlink:href="#Helvetica-30" x="111.230469"/>
      </g>
     </g>
    </g>
    <g id="xtick_5">
     <g id="line2d_5">
      <g>
       <use xlink:href="#m7fe5fa5b3e" x="254.88" y="184.896" style="stroke: #000000; stroke-width: 0.8"/>
      </g>
     </g>
     <g id="text_5">
      <!-- 340 -->
      <g transform="translate(244.870313 197.004125) scale(0.12 -0.12)">
       <defs>
        <path id="Helvetica-34" d="M 2116 1584 
L 2116 3613 
L 681 1584 
L 2116 1584 
z
M 2125 0 
L 2125 1094 
L 163 1094 
L 163 1644 
L 2213 4488 
L 2688 4488 
L 2688 1584 
L 3347 1584 
L 3347 1094 
L 2688 1094 
L 2688 0 
L 2125 0 
z
" transform="scale(0.015625)"/>
       </defs>
       <use xlink:href="#Helvetica-33"/>
       <use xlink:href="#Helvetica-34" x="55.615234"/>
       <use xlink:href="#Helvetica-30" x="111.230469"/>
      </g>
     </g>
    </g>
    <g id="xtick_6">
     <g id="line2d_6">
      <g>
       <use xlink:href="#m7fe5fa5b3e" x="299.52" y="184.896" style="stroke: #000000; stroke-width: 0.8"/>
      </g>
     </g>
     <g id="text_6">
      <!-- 360 -->
      <g transform="translate(289.510313 197.004125) scale(0.12 -0.12)">
       <use xlink:href="#Helvetica-33"/>
       <use xlink:href="#Helvetica-36" x="55.615234"/>
       <use xlink:href="#Helvetica-30" x="111.230469"/>
      </g>
     </g>
    </g>
    <g id="xtick_7">
     <g id="line2d_7">
      <g>
       <use xlink:href="#m7fe5fa5b3e" x="344.16" y="184.896" style="stroke: #000000; stroke-width: 0.8"/>
      </g>
     </g>
     <g id="text_7">
      <!-- 380 -->
      <g transform="translate(334.150313 197.004125) scale(0.12 -0.12)">
       <use xlink:href="#Helvetica-33"/>
       <use xlink:href="#Helvetica-38" x="55.615234"/>
       <use xlink:href="#Helvetica-30" x="111.230469"/>
      </g>
     </g>
    </g>
    <g id="xtick_8">
     <g id="line2d_8">
      <g>
       <use xlink:href="#m7fe5fa5b3e" x="388.8" y="184.896" style="stroke: #000000; stroke-width: 0.8"/>
      </g>
     </g>
     <g id="text_8">
      <!-- 400 -->
      <g transform="translate(378.790313 197.004125) scale(0.12 -0.12)">
       <use xlink:href="#Helvetica-34"/>
       <use xlink:href="#Helvetica-30" x="55.615234"/>
       <use xlink:href="#Helvetica-30" x="111.230469"/>
      </g>
     </g>
    </g>
    <g id="text_9">
     <!-- Temp ($^{o}$C) -->
     <g transform="translate(193.26 212.865375) scale(0.12 -0.12)">
      <defs>
       <path id="Helvetica-54" d="M 3828 4591 
L 3828 4044 
L 2281 4044 
L 2281 0 
L 1650 0 
L 1650 4044 
L 103 4044 
L 103 4591 
L 3828 4591 
z
" transform="scale(0.015625)"/>
       <path id="Helvetica-65" d="M 1806 3422 
Q 2163 3422 2497 3255 
Q 2831 3088 3006 2822 
Q 3175 2569 3231 2231 
Q 3281 2000 3281 1494 
L 828 1494 
Q 844 984 1069 676 
Q 1294 369 1766 369 
Q 2206 369 2469 659 
Q 2619 828 2681 1050 
L 3234 1050 
Q 3213 866 3089 639 
Q 2966 413 2813 269 
Q 2556 19 2178 -69 
Q 1975 -119 1719 -119 
Q 1094 -119 659 336 
Q 225 791 225 1609 
Q 225 2416 662 2919 
Q 1100 3422 1806 3422 
z
M 2703 1941 
Q 2669 2306 2544 2525 
Q 2313 2931 1772 2931 
Q 1384 2931 1121 2651 
Q 859 2372 844 1941 
L 2703 1941 
z
M 1753 3428 
L 1753 3428 
z
" transform="scale(0.015625)"/>
       <path id="Helvetica-6d" d="M 413 3347 
L 969 3347 
L 969 2872 
Q 1169 3119 1331 3231 
Q 1609 3422 1963 3422 
Q 2363 3422 2606 3225 
Q 2744 3113 2856 2894 
Q 3044 3163 3297 3292 
Q 3550 3422 3866 3422 
Q 4541 3422 4784 2934 
Q 4916 2672 4916 2228 
L 4916 0 
L 4331 0 
L 4331 2325 
Q 4331 2659 4164 2784 
Q 3997 2909 3756 2909 
Q 3425 2909 3186 2687 
Q 2947 2466 2947 1947 
L 2947 0 
L 2375 0 
L 2375 2184 
Q 2375 2525 2294 2681 
Q 2166 2916 1816 2916 
Q 1497 2916 1236 2669 
Q 975 2422 975 1775 
L 975 0 
L 413 0 
L 413 3347 
z
" transform="scale(0.015625)"/>
       <path id="Helvetica-70" d="M 1825 378 
Q 2219 378 2480 708 
Q 2741 1038 2741 1694 
Q 2741 2094 2625 2381 
Q 2406 2934 1825 2934 
Q 1241 2934 1025 2350 
Q 909 2038 909 1556 
Q 909 1169 1025 897 
Q 1244 378 1825 378 
z
M 369 3331 
L 916 3331 
L 916 2888 
Q 1084 3116 1284 3241 
Q 1569 3428 1953 3428 
Q 2522 3428 2919 2992 
Q 3316 2556 3316 1747 
Q 3316 653 2744 184 
Q 2381 -113 1900 -113 
Q 1522 -113 1266 53 
Q 1116 147 931 375 
L 931 -1334 
L 369 -1334 
L 369 3331 
z
" transform="scale(0.015625)"/>
       <path id="Helvetica-20" transform="scale(0.015625)"/>
       <path id="Helvetica-28" d="M 1894 4666 
Q 1403 3713 1256 3263 
Q 1034 2578 1034 1681 
Q 1034 775 1288 25 
Q 1444 -438 1903 -1306 
L 1525 -1306 
Q 1069 -594 959 -397 
Q 850 -200 722 138 
Q 547 600 478 1125 
Q 444 1397 444 1644 
Q 444 2569 734 3291 
Q 919 3750 1503 4666 
L 1894 4666 
z
" transform="scale(0.015625)"/>
       <path id="DejaVuSans-Oblique-6f" d="M 1625 -91 
Q 1009 -91 651 289 
Q 294 669 294 1325 
Q 294 1706 417 2101 
Q 541 2497 738 2766 
Q 1047 3184 1428 3384 
Q 1809 3584 2291 3584 
Q 2888 3584 3255 3212 
Q 3622 2841 3622 2241 
Q 3622 1825 3500 1412 
Q 3378 1000 3181 728 
Q 2875 309 2494 109 
Q 2113 -91 1625 -91 
z
M 891 1344 
Q 891 869 1089 633 
Q 1288 397 1691 397 
Q 2269 397 2648 901 
Q 3028 1406 3028 2181 
Q 3028 2634 2825 2865 
Q 2622 3097 2228 3097 
Q 1903 3097 1650 2945 
Q 1397 2794 1197 2484 
Q 1050 2253 970 1956 
Q 891 1659 891 1344 
z
" transform="scale(0.015625)"/>
       <path id="Helvetica-43" d="M 2422 4716 
Q 3294 4716 3775 4256 
Q 4256 3797 4309 3213 
L 3703 3213 
Q 3600 3656 3292 3915 
Q 2984 4175 2428 4175 
Q 1750 4175 1333 3698 
Q 916 3222 916 2238 
Q 916 1431 1292 929 
Q 1669 428 2416 428 
Q 3103 428 3463 956 
Q 3653 1234 3747 1688 
L 4353 1688 
Q 4272 963 3816 472 
Q 3269 -119 2341 -119 
Q 1541 -119 997 366 
Q 281 1006 281 2344 
Q 281 3359 819 4009 
Q 1400 4716 2422 4716 
z
M 2297 4716 
L 2297 4716 
z
" transform="scale(0.015625)"/>
       <path id="Helvetica-29" d="M 222 -1306 
Q 719 -338 863 106 
Q 1081 778 1081 1681 
Q 1081 2584 828 3334 
Q 672 3797 213 4666 
L 591 4666 
Q 1072 3897 1173 3717 
Q 1275 3538 1394 3222 
Q 1544 2831 1608 2450 
Q 1672 2069 1672 1716 
Q 1672 791 1378 66 
Q 1194 -400 613 -1306 
L 222 -1306 
z
" transform="scale(0.015625)"/>
      </defs>
      <use xlink:href="#Helvetica-54" transform="translate(0 0.51875)"/>
      <use xlink:href="#Helvetica-65" transform="translate(61.083984 0.51875)"/>
      <use xlink:href="#Helvetica-6d" transform="translate(116.699219 0.51875)"/>
      <use xlink:href="#Helvetica-70" transform="translate(200 0.51875)"/>
      <use xlink:href="#Helvetica-20" transform="translate(255.615234 0.51875)"/>
      <use xlink:href="#Helvetica-28" transform="translate(283.398438 0.51875)"/>
      <use xlink:href="#DejaVuSans-Oblique-6f" transform="translate(317.65625 38.8) scale(0.7)"/>
      <use xlink:href="#Helvetica-43" transform="translate(363.217773 0.51875)"/>
      <use xlink:href="#Helvetica-29" transform="translate(435.43457 0.51875)"/>
     </g>
    </g>
   </g>
   <g id="matplotlib.axis_2">
    <g id="ytick_1">
     <g id="line2d_9">
      <defs>
       <path id="m005b60ae87" d="M 0 0 
L 3.5 0 
" style="stroke: #000000; stroke-width: 0.8"/>
      </defs>
      <g>
       <use xlink:href="#m005b60ae87" x="54" y="183.651509" style="stroke: #000000; stroke-width: 0.8"/>
      </g>
     </g>
     <g id="text_10">
      <!-- 0 -->
      <g transform="translate(43.826875 187.955572) scale(0.12 -0.12)">
       <use xlink:href="#Helvetica-30"/>
      </g>
     </g>
    </g>
    <g id="ytick_2">
     <g id="line2d_10">
      <g>
       <use xlink:href="#m005b60ae87" x="54" y="152.383223" style="stroke: #000000; stroke-width: 0.8"/>
      </g>
     </g>
     <g id="text_11">
      <!-- 25 -->
      <g transform="translate(37.15375 156.687286) scale(0.12 -0.12)">
       <defs>
        <path id="Helvetica-35" d="M 791 1141 
Q 847 659 1238 475 
Q 1438 381 1700 381 
Q 2200 381 2440 700 
Q 2681 1019 2681 1406 
Q 2681 1875 2395 2131 
Q 2109 2388 1709 2388 
Q 1419 2388 1211 2275 
Q 1003 2163 856 1963 
L 369 1991 
L 709 4400 
L 3034 4400 
L 3034 3856 
L 1131 3856 
L 941 2613 
Q 1097 2731 1238 2791 
Q 1488 2894 1816 2894 
Q 2431 2894 2859 2497 
Q 3288 2100 3288 1491 
Q 3288 856 2895 371 
Q 2503 -113 1644 -113 
Q 1097 -113 676 195 
Q 256 503 206 1141 
L 791 1141 
z
" transform="scale(0.015625)"/>
       </defs>
       <use xlink:href="#Helvetica-32"/>
       <use xlink:href="#Helvetica-35" x="55.615234"/>
      </g>
     </g>
    </g>
    <g id="ytick_3">
     <g id="line2d_11">
      <g>
       <use xlink:href="#m005b60ae87" x="54" y="121.114938" style="stroke: #000000; stroke-width: 0.8"/>
      </g>
     </g>
     <g id="text_12">
      <!-- 50 -->
      <g transform="translate(37.15375 125.419) scale(0.12 -0.12)">
       <use xlink:href="#Helvetica-35"/>
       <use xlink:href="#Helvetica-30" x="55.615234"/>
      </g>
     </g>
    </g>
    <g id="ytick_4">
     <g id="line2d_12">
      <g>
       <use xlink:href="#m005b60ae87" x="54" y="89.846652" style="stroke: #000000; stroke-width: 0.8"/>
      </g>
     </g>
     <g id="text_13">
      <!-- 75 -->
      <g transform="translate(37.15375 94.150714) scale(0.12 -0.12)">
       <defs>
        <path id="Helvetica-37" d="M 3347 4400 
L 3347 3909 
Q 3131 3700 2773 3181 
Q 2416 2663 2141 2063 
Q 1869 1478 1728 997 
Q 1638 688 1494 0 
L 872 0 
Q 1084 1281 1809 2550 
Q 2238 3294 2709 3834 
L 234 3834 
L 234 4400 
L 3347 4400 
z
" transform="scale(0.015625)"/>
       </defs>
       <use xlink:href="#Helvetica-37"/>
       <use xlink:href="#Helvetica-35" x="55.615234"/>
      </g>
     </g>
    </g>
    <g id="ytick_5">
     <g id="line2d_13">
      <g>
       <use xlink:href="#m005b60ae87" x="54" y="58.578366" style="stroke: #000000; stroke-width: 0.8"/>
      </g>
     </g>
     <g id="text_14">
      <!-- 100 -->
      <g transform="translate(30.480625 62.882429) scale(0.12 -0.12)">
       <defs>
        <path id="Helvetica-31" d="M 613 3169 
L 613 3600 
Q 1222 3659 1462 3798 
Q 1703 3938 1822 4456 
L 2266 4456 
L 2266 0 
L 1666 0 
L 1666 3169 
L 613 3169 
z
" transform="scale(0.015625)"/>
       </defs>
       <use xlink:href="#Helvetica-31"/>
       <use xlink:href="#Helvetica-30" x="55.615234"/>
       <use xlink:href="#Helvetica-30" x="111.230469"/>
      </g>
     </g>
    </g>
    <g id="text_15">
     <!-- Mass (%) -->
     <g transform="translate(23.979375 143.700187) rotate(-90) scale(0.12 -0.12)">
      <defs>
       <path id="Helvetica-4d" d="M 472 4591 
L 1363 4591 
L 2681 709 
L 3991 4591 
L 4872 4591 
L 4872 0 
L 4281 0 
L 4281 2709 
Q 4281 2850 4287 3175 
Q 4294 3500 4294 3872 
L 2984 0 
L 2369 0 
L 1050 3872 
L 1050 3731 
Q 1050 3563 1058 3217 
Q 1066 2872 1066 2709 
L 1066 0 
L 472 0 
L 472 4591 
z
" transform="scale(0.015625)"/>
       <path id="Helvetica-61" d="M 844 891 
Q 844 647 1022 506 
Q 1200 366 1444 366 
Q 1741 366 2019 503 
Q 2488 731 2488 1250 
L 2488 1703 
Q 2384 1638 2221 1594 
Q 2059 1550 1903 1531 
L 1563 1488 
Q 1256 1447 1103 1359 
Q 844 1213 844 891 
z
M 2206 2028 
Q 2400 2053 2466 2191 
Q 2503 2266 2503 2406 
Q 2503 2694 2298 2823 
Q 2094 2953 1713 2953 
Q 1272 2953 1088 2716 
Q 984 2584 953 2325 
L 428 2325 
Q 444 2944 830 3186 
Q 1216 3428 1725 3428 
Q 2316 3428 2684 3203 
Q 3050 2978 3050 2503 
L 3050 575 
Q 3050 488 3086 434 
Q 3122 381 3238 381 
Q 3275 381 3322 386 
Q 3369 391 3422 400 
L 3422 -16 
Q 3291 -53 3222 -62 
Q 3153 -72 3034 -72 
Q 2744 -72 2613 134 
Q 2544 244 2516 444 
Q 2344 219 2022 53 
Q 1700 -113 1313 -113 
Q 847 -113 551 170 
Q 256 453 256 878 
Q 256 1344 547 1600 
Q 838 1856 1309 1916 
L 2206 2028 
z
M 1741 3428 
L 1741 3428 
z
" transform="scale(0.015625)"/>
       <path id="Helvetica-73" d="M 747 1050 
Q 772 769 888 619 
Q 1100 347 1625 347 
Q 1938 347 2175 483 
Q 2413 619 2413 903 
Q 2413 1119 2222 1231 
Q 2100 1300 1741 1391 
L 1294 1503 
Q 866 1609 663 1741 
Q 300 1969 300 2372 
Q 300 2847 642 3140 
Q 984 3434 1563 3434 
Q 2319 3434 2653 2991 
Q 2863 2709 2856 2384 
L 2325 2384 
Q 2309 2575 2191 2731 
Q 1997 2953 1519 2953 
Q 1200 2953 1036 2831 
Q 872 2709 872 2509 
Q 872 2291 1088 2159 
Q 1213 2081 1456 2022 
L 1828 1931 
Q 2434 1784 2641 1647 
Q 2969 1431 2969 969 
Q 2969 522 2630 197 
Q 2291 -128 1597 -128 
Q 850 -128 539 211 
Q 228 550 206 1050 
L 747 1050 
z
M 1578 3428 
L 1578 3428 
z
" transform="scale(0.015625)"/>
       <path id="Helvetica-25" d="M 4363 2175 
Q 4813 2175 5131 1856 
Q 5450 1538 5450 1088 
Q 5450 638 5131 319 
Q 4813 0 4363 0 
Q 3909 0 3590 319 
Q 3272 638 3272 1088 
Q 3272 1538 3590 1856 
Q 3909 2175 4363 2175 
z
M 3909 4456 
L 4256 4456 
L 1753 -119 
L 1406 -119 
L 3909 4456 
z
M 1294 2606 
Q 1563 2606 1752 2795 
Q 1941 2984 1941 3250 
Q 1941 3516 1752 3705 
Q 1563 3894 1294 3894 
Q 1028 3894 839 3706 
Q 650 3519 650 3250 
Q 650 2984 839 2795 
Q 1028 2606 1294 2606 
z
M 1294 4341 
Q 1747 4341 2065 4020 
Q 2384 3700 2384 3250 
Q 2384 2800 2065 2481 
Q 1747 2163 1294 2163 
Q 844 2163 525 2481 
Q 206 2800 206 3250 
Q 206 3700 525 4020 
Q 844 4341 1294 4341 
z
M 4363 444 
Q 4628 444 4817 633 
Q 5006 822 5006 1088 
Q 5006 1353 4817 1542 
Q 4628 1731 4363 1731 
Q 4094 1731 3905 1542 
Q 3716 1353 3716 1088 
Q 3716 822 3905 633 
Q 4094 444 4363 444 
z
" transform="scale(0.015625)"/>
      </defs>
      <use xlink:href="#Helvetica-4d"/>
      <use xlink:href="#Helvetica-61" x="83.300781"/>
      <use xlink:href="#Helvetica-73" x="138.916016"/>
      <use xlink:href="#Helvetica-73" x="188.916016"/>
      <use xlink:href="#Helvetica-20" x="238.916016"/>
      <use xlink:href="#Helvetica-28" x="266.699219"/>
      <use xlink:href="#Helvetica-25" x="300"/>
      <use xlink:href="#Helvetica-29" x="388.916016"/>
     </g>
    </g>
   </g>
   <g id="line2d_14">
    <path d="M 54.008928 58.578366 
L 66.465742 58.475031 
L 67.188888 58.443475 
L 67.813848 58.475031 
L 68.876302 58.427578 
L 81.975888 58.332185 
L 82.41557 58.332185 
L 97.309706 58.229087 
L 98.048498 58.205248 
L 112.174848 58.110092 
L 112.93596 58.086253 
L 133.171294 57.991098 
L 133.760498 57.991098 
L 199.642486 58.10215 
L 200.249546 58.118047 
L 205.773746 58.205248 
L 206.195594 58.237042 
L 207.23796 58.237042 
L 213.045602 58.340139 
L 213.639358 58.356036 
L 218.116706 58.467076 
L 219.025152 58.522721 
L 222.725786 58.617877 
L 223.312802 58.64967 
L 225.864 58.744814 
L 226.593864 58.784562 
L 229.263358 58.877141 
L 230.290056 58.951247 
L 233.140342 59.062287 
L 234.184896 59.141546 
L 236.27849 59.244868 
L 236.863318 59.308231 
L 237.16908 59.310795 
L 237.905618 59.374394 
L 239.666666 59.469537 
L 240.72912 59.564693 
L 242.193334 59.660074 
L 243.224541 59.755217 
L 244.583762 59.850373 
L 245.456541 59.945753 
L 246.641666 60.040897 
L 247.384944 60.136052 
L 248.29781 60.231195 
L 248.913864 60.262989 
L 249.813382 60.358145 
L 250.712856 60.453525 
L 250.989602 60.493036 
L 252.025294 60.619973 
L 252.74623 60.715366 
L 253.94477 60.858199 
L 254.84873 60.955919 
L 256.489294 61.212619 
L 257.219136 61.307762 
L 264.526682 62.516419 
L 264.957502 62.611562 
L 272.686896 64.444647 
L 276.534864 65.60046 
L 277.590578 65.962822 
L 278.501278 66.227227 
L 279.217706 66.523425 
L 280.266746 66.949149 
L 281.025626 67.195318 
L 281.594786 67.427929 
L 284.14373 68.486023 
L 284.893682 68.800694 
L 290.527294 71.664982 
L 293.835096 73.62758 
L 294.252502 73.921214 
L 295.239024 74.532083 
L 295.455506 74.701345 
L 297.553586 76.18515 
L 297.973246 76.513155 
L 298.723198 77.063239 
L 301.410459 79.258447 
L 302.586746 80.292465 
L 303.162602 80.787141 
L 304.18488 81.752431 
L 305.990546 83.442669 
L 307.472594 84.98726 
L 308.079698 85.585047 
L 309.126506 86.701112 
L 310.021538 87.743084 
L 315.826992 94.902871 
L 319.241952 99.682079 
L 319.98523 100.803522 
L 322.22165 104.225848 
L 329.042642 115.884541 
L 334.381586 125.85556 
L 335.127096 127.328847 
L 335.58912 128.183084 
L 344.825136 146.035811 
L 345.447864 147.152127 
L 346.02151 148.302562 
L 347.356246 150.73576 
L 349.608334 154.597368 
L 350.342618 155.821909 
L 351.693 158.009176 
L 353.15496 160.26517 
L 354.049992 161.553299 
L 356.587754 165.023328 
L 356.802048 165.182058 
L 357.19488 165.729578 
L 357.790802 166.443784 
L 360.781682 169.598891 
L 365.357326 173.283296 
L 366.294722 173.777973 
L 367.314746 174.391419 
L 367.475494 174.399361 
L 367.901762 174.682476 
L 369.412848 175.364888 
L 371.486398 176.155538 
L 372.30773 176.404271 
L 372.52651 176.48353 
L 373.908096 176.882827 
L 374.318762 176.98336 
L 379.97465 178.030935 
L 380.87419 178.134032 
L 382.786992 178.379964 
L 383.831546 178.475119 
L 384.880586 178.602056 
L 386.480952 178.697212 
L 387.543406 178.792593 
L 392.05651 178.689495 
L 394.85988 178.567686 
L 402.680786 178.210702 
L 405.35249 178.102226 
L 409.468342 178.020178 
L 413.046238 177.917081 
L 416.470104 177.872192 
L 426.123459 177.768856 
L 427.893502 177.745243 
L 433 177.713449 
L 433 177.713449 
" clip-path="url(#p9161ff2742)" style="fill: none; stroke: #737373; stroke-width: 1.5; stroke-linecap: square"/>
   </g>
   <g id="line2d_15">
    <path d="M 54.017856 58.578366 
L 54.475416 58.578366 
L 55.031206 58.569911 
L 71.416318 58.485374 
L 71.860486 58.485374 
L 84.529318 58.389894 
L 85.100666 58.389894 
L 94.153658 58.311072 
L 94.47953 58.311072 
L 95.18935 58.378699 
L 104.757912 58.285708 
L 105.03247 58.277253 
L 105.50561 58.353335 
L 143.717494 58.44335 
L 144.266522 58.47717 
L 145.172714 58.47717 
L 147.527541 58.502284 
L 154.53149 58.595276 
L 154.97347 58.628846 
L 155.573856 58.595276 
L 164.24069 58.685291 
L 164.983968 58.752681 
L 165.582144 58.718861 
L 168.820754 58.828763 
L 169.539502 58.862332 
L 174.610562 58.969257 
L 175.222152 58.994622 
L 177.119374 59.045339 
L 177.594746 59.045339 
L 177.996506 59.045339 
L 181.639152 59.146549 
L 182.215008 59.214176 
L 182.677032 59.214176 
L 185.804064 59.315385 
L 186.525 59.382762 
L 186.98477 59.349192 
L 187.725794 59.416581 
L 190.850594 59.517791 
L 191.899634 59.585418 
L 194.59147 59.686627 
L 195.930626 59.737344 
L 198.305541 59.838553 
L 198.921506 59.90618 
L 201.14239 60.015844 
L 202.33651 60.075016 
L 203.974754 60.176226 
L 205.15104 60.277422 
L 207.112968 60.378632 
L 207.847318 60.446259 
L 209.630642 60.547468 
L 211.110502 60.682484 
L 211.55688 60.699394 
L 212.29123 60.767021 
L 213.650541 60.86823 
L 215.134754 60.969427 
L 216.016438 61.070636 
L 217.36008 61.172083 
L 218.25288 61.27328 
L 220.779459 61.48713 
L 221.23481 61.579872 
L 222.433438 61.681081 
L 223.040498 61.748708 
L 224.219016 61.849917 
L 225.245714 61.984933 
L 226.283594 62.08638 
L 227.171952 62.187589 
L 231.064538 62.646108 
L 231.363626 62.716474 
L 232.54884 62.88531 
L 233.28761 62.986519 
L 234.02196 63.087716 
L 234.769658 63.191902 
L 236.10888 63.363477 
L 236.707056 63.498494 
L 237.454754 63.59969 
L 238.334206 63.771266 
L 239.662246 63.866997 
L 242.474522 64.443634 
L 243.371786 64.545081 
L 243.96331 64.722122 
L 246.003358 65.138615 
L 246.634992 65.242551 
L 258.299446 68.100835 
L 258.739128 68.22442 
L 260.062682 68.581729 
L 260.957714 68.894049 
L 261.975506 69.206356 
L 263.611562 69.757616 
L 264.374928 69.991103 
L 266.00873 70.587627 
L 266.73192 70.835046 
L 267.327864 71.0546 
L 268.651462 71.555143 
L 269.829936 72.027831 
L 271.93469 72.914037 
L 272.374438 73.096807 
L 273.423478 73.535676 
L 274.599698 74.044924 
L 275.988024 74.655368 
L 276.425541 74.905765 
L 277.177658 75.260097 
L 286.34004 80.337866 
L 288.73723 81.890712 
L 289.48716 82.346491 
L 290.20361 82.847034 
L 290.88216 83.260801 
L 298.575864 89.16833 
L 299.589214 90.034637 
L 306.874462 96.704537 
L 307.298498 97.199614 
L 308.206944 98.097002 
L 312.67543 102.792097 
L 313.244546 103.478636 
L 315.33151 105.802308 
L 322.023024 113.881583 
L 330.973366 125.47435 
L 332.47327 127.525249 
L 332.750016 127.896491 
L 335.580214 131.683005 
L 336.17165 132.473468 
L 336.633674 133.033195 
L 338.722848 135.801464 
L 339.198286 136.375362 
L 339.466104 136.777435 
L 340.207128 137.736733 
L 341.84988 139.903012 
L 342.724802 140.955078 
L 346.91431 146.195955 
L 352.108152 151.996572 
L 353.306714 153.228655 
L 354.324506 154.289163 
L 355.384706 155.296214 
L 355.688302 155.608522 
L 356.462762 156.261241 
L 356.755198 156.556639 
L 357.313198 157.110888 
L 358.817522 158.421792 
L 362.085214 161.077183 
L 362.995848 161.760982 
L 364.172112 162.627289 
L 364.77031 163.040806 
L 367.12949 164.506613 
L 371.013214 166.672642 
L 375.472706 168.66138 
L 376.053048 168.880946 
L 376.963682 169.221358 
L 379.175594 169.947182 
L 380.52149 170.329606 
L 381.273674 170.571547 
L 388.596888 172.070937 
L 393.147936 171.961273 
L 396.250438 171.792436 
L 398.580602 171.696956 
L 400.033634 171.635044 
L 402.73884 171.516688 
L 406.497506 171.415478 
L 409.720514 171.333918 
L 416.246904 171.227006 
L 420.57031 171.156627 
L 433 171.123057 
L 433 171.123057 
" clip-path="url(#p9161ff2742)" style="fill: none; stroke: #0570b0; stroke-width: 1.5; stroke-linecap: square"/>
   </g>
   <g id="line2d_16">
    <path d="M 54 59.203732 
L 388.8 59.203732 
" clip-path="url(#p9161ff2742)" style="fill: none; stroke-dasharray: 1.11,0.48; stroke-dashoffset: 0; stroke: #ff0000; stroke-width: 0.3"/>
   </g>
   <g id="patch_3">
    <path d="M 54 184.896 
L 54 51.84 
" style="fill: none; stroke: #000000; stroke-width: 0.5; stroke-linejoin: miter; stroke-linecap: square"/>
   </g>
   <g id="patch_4">
    <path d="M 54 184.896 
L 388.8 184.896 
" style="fill: none; stroke: #000000; stroke-width: 0.5; stroke-linejoin: miter; stroke-linecap: square"/>
   </g>
   <g id="text_16">
    <!-- Dynamic TGA -->
    <g transform="translate(184.062187 45.84) scale(0.12 -0.12)">
     <defs>
      <path id="Helvetica-44" d="M 2250 531 
Q 2566 531 2769 597 
Q 3131 719 3363 1066 
Q 3547 1344 3628 1778 
Q 3675 2038 3675 2259 
Q 3675 3113 3336 3584 
Q 2997 4056 2244 4056 
L 1141 4056 
L 1141 531 
L 2250 531 
z
M 516 4591 
L 2375 4591 
Q 3322 4591 3844 3919 
Q 4309 3313 4309 2366 
Q 4309 1634 4034 1044 
Q 3550 0 2369 0 
L 516 0 
L 516 4591 
z
" transform="scale(0.015625)"/>
      <path id="Helvetica-79" d="M 2503 3347 
L 3125 3347 
Q 3006 3025 2597 1878 
Q 2291 1016 2084 472 
Q 1597 -809 1397 -1090 
Q 1197 -1372 709 -1372 
Q 591 -1372 527 -1362 
Q 463 -1353 369 -1328 
L 369 -816 
Q 516 -856 581 -865 
Q 647 -875 697 -875 
Q 853 -875 926 -823 
Q 1000 -772 1050 -697 
Q 1066 -672 1162 -440 
Q 1259 -209 1303 -97 
L 66 3347 
L 703 3347 
L 1600 622 
L 2503 3347 
z
M 1597 3428 
L 1597 3428 
z
" transform="scale(0.015625)"/>
      <path id="Helvetica-6e" d="M 413 3347 
L 947 3347 
L 947 2872 
Q 1184 3166 1450 3294 
Q 1716 3422 2041 3422 
Q 2753 3422 3003 2925 
Q 3141 2653 3141 2147 
L 3141 0 
L 2569 0 
L 2569 2109 
Q 2569 2416 2478 2603 
Q 2328 2916 1934 2916 
Q 1734 2916 1606 2875 
Q 1375 2806 1200 2600 
Q 1059 2434 1017 2257 
Q 975 2081 975 1753 
L 975 0 
L 413 0 
L 413 3347 
z
M 1734 3428 
L 1734 3428 
z
" transform="scale(0.015625)"/>
      <path id="Helvetica-69" d="M 413 3331 
L 984 3331 
L 984 0 
L 413 0 
L 413 3331 
z
M 413 4591 
L 984 4591 
L 984 3953 
L 413 3953 
L 413 4591 
z
" transform="scale(0.015625)"/>
      <path id="Helvetica-63" d="M 1703 3444 
Q 2269 3444 2623 3169 
Q 2978 2894 3050 2222 
L 2503 2222 
Q 2453 2531 2275 2736 
Q 2097 2941 1703 2941 
Q 1166 2941 934 2416 
Q 784 2075 784 1575 
Q 784 1072 996 728 
Q 1209 384 1666 384 
Q 2016 384 2220 598 
Q 2425 813 2503 1184 
L 3050 1184 
Q 2956 519 2581 211 
Q 2206 -97 1622 -97 
Q 966 -97 575 383 
Q 184 863 184 1581 
Q 184 2463 612 2953 
Q 1041 3444 1703 3444 
z
M 1616 3428 
L 1616 3428 
z
" transform="scale(0.015625)"/>
      <path id="Helvetica-47" d="M 2472 4709 
Q 3119 4709 3591 4459 
Q 4275 4100 4428 3200 
L 3813 3200 
Q 3700 3703 3347 3933 
Q 2994 4163 2456 4163 
Q 1819 4163 1383 3684 
Q 947 3206 947 2259 
Q 947 1441 1306 927 
Q 1666 413 2478 413 
Q 3100 413 3508 773 
Q 3916 1134 3925 1941 
L 2488 1941 
L 2488 2456 
L 4503 2456 
L 4503 0 
L 4103 0 
L 3953 591 
Q 3638 244 3394 109 
Q 2984 -122 2353 -122 
Q 1538 -122 950 406 
Q 309 1069 309 2225 
Q 309 3378 934 4059 
Q 1528 4709 2472 4709 
z
M 2369 4716 
L 2369 4716 
z
" transform="scale(0.015625)"/>
      <path id="Helvetica-41" d="M 2844 1881 
L 2147 3909 
L 1406 1881 
L 2844 1881 
z
M 1822 4591 
L 2525 4591 
L 4191 0 
L 3509 0 
L 3044 1375 
L 1228 1375 
L 731 0 
L 94 0 
L 1822 4591 
z
" transform="scale(0.015625)"/>
     </defs>
     <use xlink:href="#Helvetica-44"/>
     <use xlink:href="#Helvetica-79" x="72.216797"/>
     <use xlink:href="#Helvetica-6e" x="122.216797"/>
     <use xlink:href="#Helvetica-61" x="177.832031"/>
     <use xlink:href="#Helvetica-6d" x="233.447266"/>
     <use xlink:href="#Helvetica-69" x="316.748047"/>
     <use xlink:href="#Helvetica-63" x="338.964844"/>
     <use xlink:href="#Helvetica-20" x="388.964844"/>
     <use xlink:href="#Helvetica-54" x="416.748047"/>
     <use xlink:href="#Helvetica-47" x="477.832031"/>
     <use xlink:href="#Helvetica-41" x="555.615234"/>
    </g>
   </g>
   <g id="legend_1">
    <g id="patch_5">
     <path d="M 61 179.896 
L 221.3 179.896 
Q 223.3 179.896 223.3 177.896 
L 223.3 134.880375 
Q 223.3 132.880375 221.3 132.880375 
L 61 132.880375 
Q 59 132.880375 59 134.880375 
L 59 177.896 
Q 59 179.896 61 179.896 
z
" style="fill: #ffffff; opacity: 0.8; stroke: #cccccc; stroke-linejoin: miter"/>
    </g>
    <g id="line2d_17">
     <path d="M 63 140.553812 
L 73 140.553812 
L 83 140.553812 
" style="fill: none; stroke: #737373; stroke-width: 1.5; stroke-linecap: square"/>
    </g>
    <g id="text_17">
     <!-- PS-40.4K -->
     <g transform="translate(91 144.053812) scale(0.1 -0.1)">
      <defs>
       <path id="Helvetica-50" d="M 547 4591 
L 2613 4591 
Q 3225 4591 3600 4245 
Q 3975 3900 3975 3275 
Q 3975 2738 3640 2339 
Q 3306 1941 2613 1941 
L 1169 1941 
L 1169 0 
L 547 0 
L 547 4591 
z
M 3347 3272 
Q 3347 3778 2972 3959 
Q 2766 4056 2406 4056 
L 1169 4056 
L 1169 2466 
L 2406 2466 
Q 2825 2466 3086 2644 
Q 3347 2822 3347 3272 
z
" transform="scale(0.015625)"/>
       <path id="Helvetica-53" d="M 894 1481 
Q 916 1091 1078 847 
Q 1388 391 2169 391 
Q 2519 391 2806 491 
Q 3363 684 3363 1184 
Q 3363 1559 3128 1719 
Q 2891 1875 2384 1991 
L 1763 2131 
Q 1153 2269 900 2434 
Q 463 2722 463 3294 
Q 463 3913 891 4309 
Q 1319 4706 2103 4706 
Q 2825 4706 3329 4357 
Q 3834 4009 3834 3244 
L 3250 3244 
Q 3203 3613 3050 3809 
Q 2766 4169 2084 4169 
Q 1534 4169 1293 3937 
Q 1053 3706 1053 3400 
Q 1053 3063 1334 2906 
Q 1519 2806 2169 2656 
L 2813 2509 
Q 3278 2403 3531 2219 
Q 3969 1897 3969 1284 
Q 3969 522 3414 194 
Q 2859 -134 2125 -134 
Q 1269 -134 784 303 
Q 300 738 309 1481 
L 894 1481 
z
M 2150 4716 
L 2150 4716 
z
" transform="scale(0.015625)"/>
       <path id="Helvetica-2d" d="M 266 2072 
L 1834 2072 
L 1834 1494 
L 266 1494 
L 266 2072 
z
" transform="scale(0.015625)"/>
       <path id="Helvetica-2e" d="M 547 681 
L 1200 681 
L 1200 0 
L 547 0 
L 547 681 
z
" transform="scale(0.015625)"/>
       <path id="Helvetica-4b" d="M 488 4591 
L 1094 4591 
L 1094 2353 
L 3331 4591 
L 4191 4591 
L 2281 2741 
L 4244 0 
L 3434 0 
L 1828 2303 
L 1094 1600 
L 1094 0 
L 488 0 
L 488 4591 
z
" transform="scale(0.015625)"/>
      </defs>
      <use xlink:href="#Helvetica-50"/>
      <use xlink:href="#Helvetica-53" x="66.699219"/>
      <use xlink:href="#Helvetica-2d" x="133.398438"/>
      <use xlink:href="#Helvetica-34" x="166.699219"/>
      <use xlink:href="#Helvetica-30" x="222.314453"/>
      <use xlink:href="#Helvetica-2e" x="277.929688"/>
      <use xlink:href="#Helvetica-34" x="305.712891"/>
      <use xlink:href="#Helvetica-4b" x="361.328125"/>
     </g>
    </g>
    <g id="line2d_18">
     <path d="M 63 154.811625 
L 73 154.811625 
L 83 154.811625 
" style="fill: none; stroke: #0570b0; stroke-width: 1.5; stroke-linecap: square"/>
    </g>
    <g id="text_18">
     <!-- PS-40.4K-SCF$_{3}$ -->
     <g transform="translate(91 158.311625) scale(0.1 -0.1)">
      <defs>
       <path id="Helvetica-46" d="M 547 4591 
L 3731 4591 
L 3731 4028 
L 1169 4028 
L 1169 2634 
L 3422 2634 
L 3422 2088 
L 1169 2088 
L 1169 0 
L 547 0 
L 547 4591 
z
" transform="scale(0.015625)"/>
       <path id="DejaVuSans-33" d="M 2597 2516 
Q 3050 2419 3304 2112 
Q 3559 1806 3559 1356 
Q 3559 666 3084 287 
Q 2609 -91 1734 -91 
Q 1441 -91 1130 -33 
Q 819 25 488 141 
L 488 750 
Q 750 597 1062 519 
Q 1375 441 1716 441 
Q 2309 441 2620 675 
Q 2931 909 2931 1356 
Q 2931 1769 2642 2001 
Q 2353 2234 1838 2234 
L 1294 2234 
L 1294 2753 
L 1863 2753 
Q 2328 2753 2575 2939 
Q 2822 3125 2822 3475 
Q 2822 3834 2567 4026 
Q 2313 4219 1838 4219 
Q 1578 4219 1281 4162 
Q 984 4106 628 3988 
L 628 4550 
Q 988 4650 1302 4700 
Q 1616 4750 1894 4750 
Q 2613 4750 3031 4423 
Q 3450 4097 3450 3541 
Q 3450 3153 3228 2886 
Q 3006 2619 2597 2516 
z
" transform="scale(0.015625)"/>
      </defs>
      <use xlink:href="#Helvetica-50" transform="translate(0 0.3125)"/>
      <use xlink:href="#Helvetica-53" transform="translate(66.699219 0.3125)"/>
      <use xlink:href="#Helvetica-2d" transform="translate(133.398438 0.3125)"/>
      <use xlink:href="#Helvetica-34" transform="translate(166.699219 0.3125)"/>
      <use xlink:href="#Helvetica-30" transform="translate(222.314453 0.3125)"/>
      <use xlink:href="#Helvetica-2e" transform="translate(277.929688 0.3125)"/>
      <use xlink:href="#Helvetica-34" transform="translate(305.712891 0.3125)"/>
      <use xlink:href="#Helvetica-4b" transform="translate(361.328125 0.3125)"/>
      <use xlink:href="#Helvetica-2d" transform="translate(428.027344 0.3125)"/>
      <use xlink:href="#Helvetica-53" transform="translate(461.328125 0.3125)"/>
      <use xlink:href="#Helvetica-43" transform="translate(528.027344 0.3125)"/>
      <use xlink:href="#Helvetica-46" transform="translate(600.244141 0.3125)"/>
      <use xlink:href="#DejaVuSans-33" transform="translate(662.285156 -16.09375) scale(0.7)"/>
     </g>
    </g>
    <g id="line2d_19">
     <path d="M 63 169.196 
L 73 169.196 
L 83 169.196 
" style="fill: none; stroke-dasharray: 1.11,0.48; stroke-dashoffset: 0; stroke: #ff0000; stroke-width: 0.3"/>
    </g>
    <g id="text_19">
     <!-- $T_\mathregular{depolymerization}$ at 99.5% Mass -->
     <g transform="translate(91 172.696) scale(0.1 -0.1)">
      <defs>
       <path id="DejaVuSans-Oblique-54" d="M 378 4666 
L 4325 4666 
L 4225 4134 
L 2559 4134 
L 1759 0 
L 1125 0 
L 1925 4134 
L 275 4134 
L 378 4666 
z
" transform="scale(0.015625)"/>
       <path id="Helvetica-64" d="M 769 1634 
Q 769 1097 997 734 
Q 1225 372 1728 372 
Q 2119 372 2370 708 
Q 2622 1044 2622 1672 
Q 2622 2306 2362 2611 
Q 2103 2916 1722 2916 
Q 1297 2916 1033 2591 
Q 769 2266 769 1634 
z
M 1616 3406 
Q 2000 3406 2259 3244 
Q 2409 3150 2600 2916 
L 2600 4606 
L 3141 4606 
L 3141 0 
L 2634 0 
L 2634 466 
Q 2438 156 2169 18 
Q 1900 -119 1553 -119 
Q 994 -119 584 351 
Q 175 822 175 1603 
Q 175 2334 548 2870 
Q 922 3406 1616 3406 
z
" transform="scale(0.015625)"/>
       <path id="Helvetica-6f" d="M 1741 363 
Q 2300 363 2508 786 
Q 2716 1209 2716 1728 
Q 2716 2197 2566 2491 
Q 2328 2953 1747 2953 
Q 1231 2953 997 2559 
Q 763 2166 763 1609 
Q 763 1075 997 719 
Q 1231 363 1741 363 
z
M 1763 3444 
Q 2409 3444 2856 3012 
Q 3303 2581 3303 1744 
Q 3303 934 2909 406 
Q 2516 -122 1688 -122 
Q 997 -122 590 345 
Q 184 813 184 1600 
Q 184 2444 612 2944 
Q 1041 3444 1763 3444 
z
M 1744 3428 
L 1744 3428 
z
" transform="scale(0.015625)"/>
       <path id="Helvetica-6c" d="M 428 4591 
L 991 4591 
L 991 0 
L 428 0 
L 428 4591 
z
" transform="scale(0.015625)"/>
       <path id="Helvetica-72" d="M 428 3347 
L 963 3347 
L 963 2769 
Q 1028 2938 1284 3180 
Q 1541 3422 1875 3422 
Q 1891 3422 1928 3419 
Q 1966 3416 2056 3406 
L 2056 2813 
Q 2006 2822 1964 2825 
Q 1922 2828 1872 2828 
Q 1447 2828 1219 2554 
Q 991 2281 991 1925 
L 991 0 
L 428 0 
L 428 3347 
z
" transform="scale(0.015625)"/>
       <path id="Helvetica-7a" d="M 163 444 
L 2147 2844 
L 309 2844 
L 309 3347 
L 2903 3347 
L 2903 2888 
L 931 503 
L 2963 503 
L 2963 0 
L 163 0 
L 163 444 
z
M 1609 3428 
L 1609 3428 
z
" transform="scale(0.015625)"/>
       <path id="Helvetica-74" d="M 525 4281 
L 1094 4281 
L 1094 3347 
L 1628 3347 
L 1628 2888 
L 1094 2888 
L 1094 703 
Q 1094 528 1213 469 
Q 1278 434 1431 434 
Q 1472 434 1519 436 
Q 1566 438 1628 444 
L 1628 0 
Q 1531 -28 1426 -40 
Q 1322 -53 1200 -53 
Q 806 -53 665 148 
Q 525 350 525 672 
L 525 2888 
L 72 2888 
L 72 3347 
L 525 3347 
L 525 4281 
z
" transform="scale(0.015625)"/>
       <path id="Helvetica-39" d="M 850 1081 
Q 875 616 1209 438 
Q 1381 344 1597 344 
Q 2000 344 2284 680 
Q 2569 1016 2688 2044 
Q 2500 1747 2223 1626 
Q 1947 1506 1628 1506 
Q 981 1506 604 1909 
Q 228 2313 228 2947 
Q 228 3556 600 4018 
Q 972 4481 1697 4481 
Q 2675 4481 3047 3600 
Q 3253 3116 3253 2388 
Q 3253 1566 3006 931 
Q 2597 -125 1619 -125 
Q 963 -125 622 219 
Q 281 563 281 1081 
L 850 1081 
z
M 1703 2000 
Q 2038 2000 2314 2220 
Q 2591 2441 2591 2991 
Q 2591 3484 2342 3726 
Q 2094 3969 1709 3969 
Q 1297 3969 1055 3692 
Q 813 3416 813 2953 
Q 813 2516 1025 2258 
Q 1238 2000 1703 2000 
z
" transform="scale(0.015625)"/>
      </defs>
      <use xlink:href="#DejaVuSans-Oblique-54" transform="translate(0 0.09375)"/>
      <use xlink:href="#Helvetica-64" transform="translate(61.083984 -16.3125) scale(0.7)"/>
      <use xlink:href="#Helvetica-65" transform="translate(100.014648 -16.3125) scale(0.7)"/>
      <use xlink:href="#Helvetica-70" transform="translate(138.945312 -16.3125) scale(0.7)"/>
      <use xlink:href="#Helvetica-6f" transform="translate(177.875977 -16.3125) scale(0.7)"/>
      <use xlink:href="#Helvetica-6c" transform="translate(216.806641 -16.3125) scale(0.7)"/>
      <use xlink:href="#Helvetica-79" transform="translate(232.358398 -16.3125) scale(0.7)"/>
      <use xlink:href="#Helvetica-6d" transform="translate(267.358398 -16.3125) scale(0.7)"/>
      <use xlink:href="#Helvetica-65" transform="translate(325.668945 -16.3125) scale(0.7)"/>
      <use xlink:href="#Helvetica-72" transform="translate(364.599609 -16.3125) scale(0.7)"/>
      <use xlink:href="#Helvetica-69" transform="translate(387.910156 -16.3125) scale(0.7)"/>
      <use xlink:href="#Helvetica-7a" transform="translate(403.461914 -16.3125) scale(0.7)"/>
      <use xlink:href="#Helvetica-61" transform="translate(438.461914 -16.3125) scale(0.7)"/>
      <use xlink:href="#Helvetica-74" transform="translate(477.392578 -16.3125) scale(0.7)"/>
      <use xlink:href="#Helvetica-69" transform="translate(496.84082 -16.3125) scale(0.7)"/>
      <use xlink:href="#Helvetica-6f" transform="translate(512.392578 -16.3125) scale(0.7)"/>
      <use xlink:href="#Helvetica-6e" transform="translate(551.323242 -16.3125) scale(0.7)"/>
      <use xlink:href="#Helvetica-20" transform="translate(592.988281 0.09375)"/>
      <use xlink:href="#Helvetica-61" transform="translate(620.771484 0.09375)"/>
      <use xlink:href="#Helvetica-74" transform="translate(676.386719 0.09375)"/>
      <use xlink:href="#Helvetica-20" transform="translate(704.169922 0.09375)"/>
      <use xlink:href="#Helvetica-39" transform="translate(731.953125 0.09375)"/>
      <use xlink:href="#Helvetica-39" transform="translate(787.568359 0.09375)"/>
      <use xlink:href="#Helvetica-2e" transform="translate(843.183594 0.09375)"/>
      <use xlink:href="#Helvetica-35" transform="translate(870.966797 0.09375)"/>
      <use xlink:href="#Helvetica-25" transform="translate(926.582031 0.09375)"/>
      <use xlink:href="#Helvetica-20" transform="translate(1015.498047 0.09375)"/>
      <use xlink:href="#Helvetica-4d" transform="translate(1043.28125 0.09375)"/>
      <use xlink:href="#Helvetica-61" transform="translate(1126.582031 0.09375)"/>
      <use xlink:href="#Helvetica-73" transform="translate(1182.197266 0.09375)"/>
      <use xlink:href="#Helvetica-73" transform="translate(1232.197266 0.09375)"/>
     </g>
    </g>
   </g>
  </g>
  <g id="axes_2">
   <g id="patch_6">
    <path d="M 54 384.48 
L 388.8 384.48 
L 388.8 251.424 
L 54 251.424 
z
" style="fill: #ffffff"/>
   </g>
   <g id="matplotlib.axis_3">
    <g id="xtick_9">
     <g id="line2d_20">
      <g>
       <use xlink:href="#m7fe5fa5b3e" x="76.32" y="384.48" style="stroke: #000000; stroke-width: 0.8"/>
      </g>
     </g>
     <g id="text_20">
      <!-- 260 -->
      <g transform="translate(66.310313 396.588125) scale(0.12 -0.12)">
       <use xlink:href="#Helvetica-32"/>
       <use xlink:href="#Helvetica-36" x="55.615234"/>
       <use xlink:href="#Helvetica-30" x="111.230469"/>
      </g>
     </g>
    </g>
    <g id="xtick_10">
     <g id="line2d_21">
      <g>
       <use xlink:href="#m7fe5fa5b3e" x="120.96" y="384.48" style="stroke: #000000; stroke-width: 0.8"/>
      </g>
     </g>
     <g id="text_21">
      <!-- 280 -->
      <g transform="translate(110.950313 396.588125) scale(0.12 -0.12)">
       <use xlink:href="#Helvetica-32"/>
       <use xlink:href="#Helvetica-38" x="55.615234"/>
       <use xlink:href="#Helvetica-30" x="111.230469"/>
      </g>
     </g>
    </g>
    <g id="xtick_11">
     <g id="line2d_22">
      <g>
       <use xlink:href="#m7fe5fa5b3e" x="165.6" y="384.48" style="stroke: #000000; stroke-width: 0.8"/>
      </g>
     </g>
     <g id="text_22">
      <!-- 300 -->
      <g transform="translate(155.590313 396.588125) scale(0.12 -0.12)">
       <use xlink:href="#Helvetica-33"/>
       <use xlink:href="#Helvetica-30" x="55.615234"/>
       <use xlink:href="#Helvetica-30" x="111.230469"/>
      </g>
     </g>
    </g>
    <g id="xtick_12">
     <g id="line2d_23">
      <g>
       <use xlink:href="#m7fe5fa5b3e" x="210.24" y="384.48" style="stroke: #000000; stroke-width: 0.8"/>
      </g>
     </g>
     <g id="text_23">
      <!-- 320 -->
      <g transform="translate(200.230312 396.588125) scale(0.12 -0.12)">
       <use xlink:href="#Helvetica-33"/>
       <use xlink:href="#Helvetica-32" x="55.615234"/>
       <use xlink:href="#Helvetica-30" x="111.230469"/>
      </g>
     </g>
    </g>
    <g id="xtick_13">
     <g id="line2d_24">
      <g>
       <use xlink:href="#m7fe5fa5b3e" x="254.88" y="384.48" style="stroke: #000000; stroke-width: 0.8"/>
      </g>
     </g>
     <g id="text_24">
      <!-- 340 -->
      <g transform="translate(244.870313 396.588125) scale(0.12 -0.12)">
       <use xlink:href="#Helvetica-33"/>
       <use xlink:href="#Helvetica-34" x="55.615234"/>
       <use xlink:href="#Helvetica-30" x="111.230469"/>
      </g>
     </g>
    </g>
    <g id="xtick_14">
     <g id="line2d_25">
      <g>
       <use xlink:href="#m7fe5fa5b3e" x="299.52" y="384.48" style="stroke: #000000; stroke-width: 0.8"/>
      </g>
     </g>
     <g id="text_25">
      <!-- 360 -->
      <g transform="translate(289.510313 396.588125) scale(0.12 -0.12)">
       <use xlink:href="#Helvetica-33"/>
       <use xlink:href="#Helvetica-36" x="55.615234"/>
       <use xlink:href="#Helvetica-30" x="111.230469"/>
      </g>
     </g>
    </g>
    <g id="xtick_15">
     <g id="line2d_26">
      <g>
       <use xlink:href="#m7fe5fa5b3e" x="344.16" y="384.48" style="stroke: #000000; stroke-width: 0.8"/>
      </g>
     </g>
     <g id="text_26">
      <!-- 380 -->
      <g transform="translate(334.150313 396.588125) scale(0.12 -0.12)">
       <use xlink:href="#Helvetica-33"/>
       <use xlink:href="#Helvetica-38" x="55.615234"/>
       <use xlink:href="#Helvetica-30" x="111.230469"/>
      </g>
     </g>
    </g>
    <g id="xtick_16">
     <g id="line2d_27">
      <g>
       <use xlink:href="#m7fe5fa5b3e" x="388.8" y="384.48" style="stroke: #000000; stroke-width: 0.8"/>
      </g>
     </g>
     <g id="text_27">
      <!-- 400 -->
      <g transform="translate(378.790313 396.588125) scale(0.12 -0.12)">
       <use xlink:href="#Helvetica-34"/>
       <use xlink:href="#Helvetica-30" x="55.615234"/>
       <use xlink:href="#Helvetica-30" x="111.230469"/>
      </g>
     </g>
    </g>
    <g id="text_28">
     <!-- Temp ($^{o}$C) -->
     <g transform="translate(193.26 412.449375) scale(0.12 -0.12)">
      <use xlink:href="#Helvetica-54" transform="translate(0 0.51875)"/>
      <use xlink:href="#Helvetica-65" transform="translate(61.083984 0.51875)"/>
      <use xlink:href="#Helvetica-6d" transform="translate(116.699219 0.51875)"/>
      <use xlink:href="#Helvetica-70" transform="translate(200 0.51875)"/>
      <use xlink:href="#Helvetica-20" transform="translate(255.615234 0.51875)"/>
      <use xlink:href="#Helvetica-28" transform="translate(283.398438 0.51875)"/>
      <use xlink:href="#DejaVuSans-Oblique-6f" transform="translate(317.65625 38.8) scale(0.7)"/>
      <use xlink:href="#Helvetica-43" transform="translate(363.217773 0.51875)"/>
      <use xlink:href="#Helvetica-29" transform="translate(435.43457 0.51875)"/>
     </g>
    </g>
   </g>
   <g id="matplotlib.axis_4">
    <g id="ytick_6">
     <g id="line2d_28">
      <g>
       <use xlink:href="#m005b60ae87" x="54" y="376.736431" style="stroke: #000000; stroke-width: 0.8"/>
      </g>
     </g>
     <g id="text_29">
      <!-- 1.3 -->
      <g transform="translate(33.82 381.040494) scale(0.12 -0.12)">
       <use xlink:href="#Helvetica-31"/>
       <use xlink:href="#Helvetica-2e" x="55.615234"/>
       <use xlink:href="#Helvetica-33" x="83.398438"/>
      </g>
     </g>
    </g>
    <g id="ytick_7">
     <g id="line2d_29">
      <g>
       <use xlink:href="#m005b60ae87" x="54" y="333.886576" style="stroke: #000000; stroke-width: 0.8"/>
      </g>
     </g>
     <g id="text_30">
      <!-- 1.4 -->
      <g transform="translate(33.82 338.190638) scale(0.12 -0.12)">
       <use xlink:href="#Helvetica-31"/>
       <use xlink:href="#Helvetica-2e" x="55.615234"/>
       <use xlink:href="#Helvetica-34" x="83.398438"/>
      </g>
     </g>
    </g>
    <g id="ytick_8">
     <g id="line2d_30">
      <g>
       <use xlink:href="#m005b60ae87" x="54" y="291.03672" style="stroke: #000000; stroke-width: 0.8"/>
      </g>
     </g>
     <g id="text_31">
      <!-- 1.5 -->
      <g transform="translate(33.82 295.340783) scale(0.12 -0.12)">
       <use xlink:href="#Helvetica-31"/>
       <use xlink:href="#Helvetica-2e" x="55.615234"/>
       <use xlink:href="#Helvetica-35" x="83.398438"/>
      </g>
     </g>
    </g>
    <g id="text_32">
     <!-- Ion Current (A) -->
     <g transform="translate(27.31875 357.628875) rotate(-90) scale(0.12 -0.12)">
      <defs>
       <path id="Helvetica-49" d="M 628 4591 
L 1256 4591 
L 1256 0 
L 628 0 
L 628 4591 
z
" transform="scale(0.015625)"/>
       <path id="Helvetica-75" d="M 975 3347 
L 975 1125 
Q 975 869 1056 706 
Q 1206 406 1616 406 
Q 2203 406 2416 931 
Q 2531 1213 2531 1703 
L 2531 3347 
L 3094 3347 
L 3094 0 
L 2563 0 
L 2569 494 
Q 2459 303 2297 172 
Q 1975 -91 1516 -91 
Q 800 -91 541 388 
Q 400 644 400 1072 
L 400 3347 
L 975 3347 
z
M 1747 3428 
L 1747 3428 
z
" transform="scale(0.015625)"/>
      </defs>
      <use xlink:href="#Helvetica-49"/>
      <use xlink:href="#Helvetica-6f" x="27.783203"/>
      <use xlink:href="#Helvetica-6e" x="83.398438"/>
      <use xlink:href="#Helvetica-20" x="139.013672"/>
      <use xlink:href="#Helvetica-43" x="166.796875"/>
      <use xlink:href="#Helvetica-75" x="239.013672"/>
      <use xlink:href="#Helvetica-72" x="294.628906"/>
      <use xlink:href="#Helvetica-72" x="327.929688"/>
      <use xlink:href="#Helvetica-65" x="361.230469"/>
      <use xlink:href="#Helvetica-6e" x="416.845703"/>
      <use xlink:href="#Helvetica-74" x="472.460938"/>
      <use xlink:href="#Helvetica-20" x="500.244141"/>
      <use xlink:href="#Helvetica-28" x="528.027344"/>
      <use xlink:href="#Helvetica-41" x="561.328125"/>
      <use xlink:href="#Helvetica-29" x="628.027344"/>
     </g>
    </g>
    <g id="text_33">
     <!-- 1e−12 -->
     <g transform="translate(54 248.424) scale(0.1 -0.1)">
      <defs>
       <path id="Helvetica-2212" d="M 3547 1894 
L 3547 1369 
L 288 1369 
L 288 1894 
L 3547 1894 
z
" transform="scale(0.015625)"/>
      </defs>
      <use xlink:href="#Helvetica-31"/>
      <use xlink:href="#Helvetica-65" x="55.615234"/>
      <use xlink:href="#Helvetica-2212" x="111.230469"/>
      <use xlink:href="#Helvetica-31" x="169.628906"/>
      <use xlink:href="#Helvetica-32" x="225.244141"/>
     </g>
    </g>
   </g>
   <g id="line2d_31">
    <path d="M 53.839274 291.798591 
L 54.319198 303.240788 
L 54.897242 291.798591 
L 55.343686 330.211344 
L 55.767766 307.32695 
L 56.388262 290.981015 
L 56.827944 308.144525 
L 57.140424 290.163869 
L 57.586802 299.154197 
L 57.888144 316.317278 
L 58.604616 292.615737 
L 59.062198 302.423212 
L 59.361242 296.702328 
L 59.805432 322.038591 
L 60.091128 280.356394 
L 60.54871 303.240788 
L 60.845544 303.240788 
L 61.307568 317.952 
L 61.586568 322.038591 
L 62.037432 281.991116 
L 62.318686 297.519475 
L 63.079754 302.423212 
L 63.361008 295.884753 
L 63.800734 299.971344 
L 64.253786 311.413541 
L 64.550686 305.692656 
L 65.010456 308.144525 
L 65.358648 286.894853 
L 65.75148 290.981015 
L 66.039408 289.346722 
L 66.331778 295.067606 
L 66.775968 321.221015 
L 67.043786 299.971344 
L 67.546008 301.606066 
L 67.813848 291.798591 
L 68.275872 267.279475 
L 68.572706 288.529147 
L 68.99904 289.346722 
L 69.340514 287.712 
L 69.751246 283.625409 
L 70.512358 307.32695 
L 70.80696 285.260131 
L 71.12165 296.702328 
L 71.597088 275.452656 
L 71.871602 281.173541 
L 72.31577 301.606066 
L 72.628294 303.240788 
L 73.054562 310.596394 
L 73.355904 289.346722 
L 73.654992 303.240788 
L 74.413872 278.721672 
L 74.829024 303.240788 
L 75.29549 301.606066 
L 75.583462 289.346722 
L 75.886992 289.346722 
L 76.337856 268.914197 
L 76.636944 286.077278 
L 77.05877 282.808263 
L 77.520794 277.08695 
L 77.822136 278.721672 
L 78.134594 289.346722 
L 78.578762 283.625409 
L 78.880104 295.884753 
L 79.32204 287.712 
L 79.614454 304.875081 
L 80.065318 288.529147 
L 80.362152 291.798591 
L 80.804088 273.817934 
L 81.096502 291.798591 
L 81.395546 288.529147 
L 81.853128 292.615737 
L 82.13657 305.692656 
L 82.55623 277.08695 
L 82.904422 287.712 
L 83.310602 313.865409 
L 83.596342 295.067606 
L 83.88427 293.432884 
L 84.337366 295.884753 
L 84.801578 312.230687 
L 85.07839 272.183212 
L 85.819414 298.33705 
L 86.28588 290.981015 
L 86.580459 321.221015 
L 87.044738 313.048263 
L 87.352754 270.548919 
L 88.067016 302.423212 
L 88.38396 282.808263 
L 88.83257 284.442985 
L 89.12273 290.981015 
L 89.580334 285.260131 
L 89.879422 285.260131 
L 90.303502 290.163869 
L 90.607032 287.712 
L 91.069056 325.307606 
L 91.359238 296.702328 
L 91.642658 287.712 
L 92.100262 277.904525 
L 92.394864 281.991116 
L 92.841286 302.423212 
L 93.147048 282.808263 
L 93.58673 284.442985 
L 93.845642 301.606066 
L 94.63135 285.260131 
L 94.92151 296.702328 
L 95.367888 275.452656 
L 95.671462 284.442985 
L 96.09331 301.606066 
L 96.463778 280.356394 
L 97.15351 313.048263 
L 97.599888 281.991116 
L 97.90123 304.057934 
L 98.19139 277.08695 
L 98.653414 283.625409 
L 98.934602 264.010459 
L 99.389952 307.32695 
L 99.827446 286.077278 
L 100.11312 290.981015 
L 100.584072 269.731344 
L 100.878674 299.971344 
L 101.180016 295.067606 
L 101.619698 261.558591 
L 101.900952 296.702328 
L 102.35849 289.346722 
L 102.657578 307.32695 
L 103.108486 305.692656 
L 103.39416 268.914197 
L 103.836096 288.529147 
L 104.157459 277.904525 
L 104.445454 316.317278 
L 104.889578 284.442985 
L 105.193152 295.884753 
L 105.63953 257.472 
L 106.079278 288.529147 
L 106.387294 295.067606 
L 106.853738 267.279475 
L 107.126064 277.08695 
L 107.39839 290.981015 
L 107.880502 304.875081 
L 108.184032 287.712 
L 108.619294 311.413541 
L 108.92057 264.010459 
L 109.360318 280.356394 
L 109.650478 300.78849 
L 110.11469 296.702328 
L 110.398198 277.08695 
L 110.766478 264.010459 
L 111.125786 295.067606 
L 111.440498 271.366066 
L 111.884666 304.057934 
L 112.174848 298.33705 
L 112.639104 299.971344 
L 112.93596 302.423212 
L 113.366714 304.875081 
L 113.690398 290.163869 
L 114.127848 289.346722 
L 114.413522 292.615737 
L 114.85327 309.778819 
L 115.145618 314.682556 
L 115.598714 290.163869 
L 115.924586 302.423212 
L 116.337506 302.423212 
L 116.643334 276.269803 
L 117.07853 296.702328 
L 117.386546 300.78849 
L 117.846382 321.221015 
L 118.587406 310.596394 
L 119.167682 290.163869 
L 119.625286 292.615737 
L 120.364056 273.000788 
L 120.643056 282.808263 
L 121.076064 293.432884 
L 121.38408 288.529147 
L 121.834944 274.635081 
L 122.158562 284.442985 
L 122.444302 281.173541 
L 122.87731 281.173541 
L 123.341522 304.875081 
L 123.63619 300.78849 
L 124.080358 282.808263 
L 124.674048 291.798591 
L 125.11373 313.865409 
L 125.408398 310.596394 
L 125.859262 289.346722 
L 126.18288 303.240788 
L 126.622562 299.154197 
L 126.903794 274.635081 
L 127.368072 275.452656 
L 127.660486 277.904525 
L 128.089008 286.894853 
L 128.421554 279.538819 
L 128.711714 299.971344 
L 129.140302 289.346722 
L 129.457246 302.423212 
L 129.885746 292.615737 
L 130.193762 293.432884 
L 130.635698 287.712 
L 130.919206 304.057934 
L 131.372302 322.038591 
L 131.662462 294.250459 
L 132.104398 295.067606 
L 132.436944 283.625409 
L 132.869952 286.894853 
L 133.171294 278.721672 
L 133.602048 313.865409 
L 133.898904 308.144525 
L 134.336398 295.884753 
L 134.92116 323.672884 
L 135.37651 366.989803 
L 135.816214 325.307606 
L 136.09296 341.653541 
L 136.398722 351.461015 
L 136.847398 355.547606 
L 137.604024 332.663212 
L 137.909786 335.932228 
L 138.347302 334.297934 
L 138.648578 361.26849 
L 139.095 370.258819 
L 139.407502 322.038591 
L 139.856112 339.201672 
L 140.16857 338.384525 
L 140.621666 362.086066 
L 140.916334 341.653541 
L 141.219864 332.663212 
L 141.666286 353.095737 
L 142.398382 324.490459 
L 142.806794 344.922556 
L 143.11481 332.663212 
L 143.420594 340.018819 
L 143.858088 331.846066 
L 144.163872 323.672884 
L 144.467446 364.537934 
L 144.873626 338.384525 
L 145.168294 334.297934 
L 145.643666 344.922556 
L 146.085602 340.836394 
L 146.364602 332.663212 
L 146.690541 333.480359 
L 147.114554 346.557278 
L 147.431498 325.307606 
L 147.864506 313.865409 
L 148.185936 378.432 
L 148.473864 326.942328 
L 148.920286 344.922556 
L 149.366642 341.653541 
L 149.681398 349.826293 
L 149.96484 352.278162 
L 150.402334 317.952 
L 150.70361 341.653541 
L 151.163446 349.826293 
L 151.460302 348.192 
L 151.732562 357.999475 
L 152.174498 353.912884 
L 152.471398 334.297934 
L 152.93561 337.56695 
L 153.250366 335.115081 
L 153.665541 350.643869 
L 153.982462 351.461015 
L 154.422144 322.855737 
L 154.714514 348.192 
L 154.991326 345.740131 
L 155.486786 358.816622 
L 155.765786 336.749803 
L 156.194374 321.221015 
L 156.62957 330.211344 
L 156.964414 362.903212 
L 157.243414 326.124753 
L 157.68977 353.912884 
L 157.997786 312.230687 
L 158.261206 356.364753 
L 158.707562 326.942328 
L 159.468674 322.855737 
L 159.77669 305.692656 
L 160.20077 348.192 
L 160.51104 339.201672 
L 161.258738 322.038591 
L 161.707414 341.653541 
L 162.019872 349.826293 
L 162.461786 340.018819 
L 162.763128 330.211344 
L 163.200578 336.749803 
L 163.490738 329.394197 
L 163.934928 354.730459 
L 164.242944 331.846066 
L 164.548706 351.461015 
L 164.979459 350.643869 
L 165.303144 332.663212 
L 165.579912 346.557278 
L 166.021848 347.374425 
L 166.486104 321.221015 
L 166.789634 343.288263 
L 167.077562 350.643869 
L 167.51057 348.192 
L 167.778454 340.018819 
L 168.258334 342.470687 
L 168.546262 350.643869 
L 168.994872 332.663212 
L 169.450222 360.451344 
L 169.740382 354.730459 
L 170.184506 334.297934 
L 170.492522 331.02849 
L 170.800538 336.749803 
L 171.195602 333.480359 
L 171.528214 339.201672 
L 171.976802 335.932228 
L 172.278144 336.749803 
L 172.53931 355.547606 
L 172.99908 335.932228 
L 173.304864 336.749803 
L 174.063722 324.490459 
L 174.498984 353.912884 
L 174.804746 365.355081 
L 175.563626 340.018819 
L 176.01449 338.384525 
L 176.26896 349.826293 
L 176.746586 344.922556 
L 177.039 313.048263 
L 177.492096 322.038591 
L 177.793438 320.403869 
L 178.244302 339.201672 
L 178.521048 343.288263 
L 178.965238 339.201672 
L 179.275486 335.115081 
L 179.57453 341.653541 
L 179.991936 346.557278 
L 180.324459 334.297934 
L 181.049904 376.797278 
L 181.489586 331.02849 
L 181.764144 320.403869 
L 182.094502 316.317278 
L 182.523024 342.470687 
L 182.953778 329.394197 
L 183.250634 344.922556 
L 183.567578 334.297934 
L 184.014 337.56695 
L 184.299674 344.922556 
L 184.757278 344.105409 
L 185.05188 329.394197 
L 185.52281 355.547606 
L 186.23484 322.855737 
L 186.54953 319.586722 
L 186.83527 338.384525 
L 187.301714 333.480359 
L 187.589642 340.018819 
L 188.036064 339.201672 
L 188.330666 361.26849 
L 188.777088 349.009147 
L 189.359618 321.221015 
L 189.788206 317.952 
L 190.864008 342.470687 
L 191.30369 344.922556 
L 191.741206 326.124753 
L 192.033554 339.201672 
L 192.357238 343.288263 
L 192.803594 331.846066 
L 193.084848 353.912884 
L 193.558032 357.999475 
L 193.81027 349.009147 
L 194.274459 362.903212 
L 194.564642 330.211344 
L 195.019992 341.653541 
L 195.31908 335.932228 
L 195.76769 334.297934 
L 196.073541 327.759475 
L 196.499786 358.816622 
L 196.814498 323.672884 
L 197.258666 339.201672 
L 197.705088 330.211344 
L 198.004198 334.297934 
L 198.283198 356.364753 
L 198.754128 335.932228 
L 199.057658 329.394197 
L 199.501848 348.192 
L 199.792008 315.500131 
L 200.249546 313.865409 
L 200.519618 347.374425 
L 200.959366 361.26849 
L 201.296398 356.364753 
L 201.573144 331.846066 
L 202.037422 329.394197 
L 202.323096 331.846066 
L 202.782888 340.836394 
L 203.22931 345.740131 
L 203.825254 322.855737 
L 204.260494 350.643869 
L 204.983618 329.394197 
L 205.325136 322.855737 
L 205.604136 323.672884 
L 206.028238 344.922556 
L 206.351856 305.692656 
L 207.23796 357.999475 
L 207.84281 341.653541 
L 208.278072 343.288263 
L 208.568254 324.490459 
L 208.909706 337.56695 
L 209.329366 326.124753 
L 209.619459 337.56695 
L 210.061462 313.048263 
L 210.37392 353.095737 
L 210.813602 336.749803 
L 211.117198 366.172228 
L 211.572459 349.826293 
L 211.853714 352.278162 
L 212.177398 331.02849 
L 212.614848 322.855737 
L 212.909494 319.586722 
L 213.813454 342.470687 
L 214.096896 333.480359 
L 214.387056 339.201672 
L 214.824506 340.018819 
L 215.12808 333.480359 
L 215.43161 317.952 
L 215.85127 323.672884 
L 216.17712 341.653541 
L 216.619056 316.317278 
L 216.956088 311.413541 
L 218.116706 366.989803 
L 218.418048 318.769147 
L 218.862238 322.038591 
L 219.170254 343.288263 
L 219.447 342.470687 
L 219.90235 359.634197 
L 220.344286 353.095737 
L 220.650048 350.643869 
L 220.95139 335.932228 
L 221.393326 332.663212 
L 221.670072 344.922556 
L 222.129864 349.826293 
L 222.388754 347.374425 
L 222.725786 313.865409 
L 223.18339 340.836394 
L 223.904326 328.576622 
L 224.22569 349.009147 
L 224.64535 347.374425 
L 224.980128 352.278162 
L 225.457754 322.038591 
L 225.714478 351.461015 
L 226.134072 346.557278 
L 226.444342 352.278162 
L 226.87735 334.297934 
L 227.16751 339.201672 
L 227.613888 344.105409 
L 227.88396 318.769147 
L 228.180794 330.211344 
L 228.662928 327.759475 
L 228.962016 330.211344 
L 229.700786 344.105409 
L 230.14049 325.307606 
L 230.44181 328.576622 
L 230.888254 340.018819 
L 231.173928 342.470687 
L 231.638206 335.115081 
L 231.928366 339.201672 
L 232.243056 341.653541 
L 232.67381 339.201672 
L 233.140342 326.124753 
L 233.430502 337.56695 
L 233.879112 312.230687 
L 234.184896 331.846066 
L 234.47057 321.221015 
L 234.92592 350.643869 
L 235.220522 321.221015 
L 235.669198 338.384525 
L 235.966032 354.730459 
L 236.724912 310.596394 
L 237.16908 354.730459 
L 237.457008 335.115081 
L 237.905618 342.470687 
L 238.215888 341.653541 
L 238.939056 323.672884 
L 239.394406 320.403869 
L 239.666666 340.836394 
L 240.126502 344.922556 
L 240.425546 334.297934 
L 240.72912 351.461015 
L 241.162128 346.557278 
L 241.46347 335.932228 
L 241.905406 337.56695 
L 242.193334 315.500131 
L 242.644198 331.846066 
L 242.963374 332.663212 
L 243.400802 336.749803 
L 243.67757 345.740131 
L 244.141848 348.192 
L 244.45435 322.038591 
L 244.894032 335.115081 
L 245.186446 326.942328 
L 245.456541 329.394197 
L 245.945326 341.653541 
L 246.228746 342.470687 
L 246.641666 353.912884 
L 246.936334 322.038591 
L 247.384944 335.115081 
L 247.69296 336.749803 
L 248.143802 322.038591 
L 248.449586 351.461015 
L 248.913864 313.865409 
L 249.181682 318.769147 
L 249.641541 340.018819 
L 249.927214 337.56695 
L 250.393658 340.836394 
L 250.712856 309.778819 
L 251.134682 326.124753 
L 251.41819 326.124753 
L 251.869032 355.547606 
L 252.185976 329.394197 
L 252.61673 317.134425 
L 252.906912 357.999475 
L 253.353334 328.576622 
L 253.656864 357.999475 
L 253.94477 337.56695 
L 254.406794 342.470687 
L 254.69249 336.749803 
L 255.440254 330.211344 
L 255.89777 346.557278 
L 256.181278 331.846066 
L 256.634374 337.56695 
L 256.962478 339.201672 
L 257.424502 313.048263 
L 257.676674 350.643869 
L 258.11861 342.470687 
L 258.41551 318.769147 
L 258.830618 344.105409 
L 259.152048 329.394197 
L 259.618514 322.038591 
L 259.89084 345.740131 
L 260.341682 340.018819 
L 260.64751 341.653541 
L 261.089446 323.672884 
L 261.381794 329.394197 
L 261.676462 342.470687 
L 262.127326 325.307606 
L 262.430856 325.307606 
L 262.883952 326.124753 
L 263.167438 327.759475 
L 263.62049 325.307606 
L 263.932992 328.576622 
L 264.374928 331.02849 
L 264.662856 360.451344 
L 265.10035 330.211344 
L 265.707454 358.816622 
L 266.200682 338.384525 
L 266.510952 337.56695 
L 266.883674 304.875081 
L 267.178342 332.663212 
L 267.64704 331.846066 
L 267.952802 323.672884 
L 268.372462 344.922556 
L 268.671506 331.02849 
L 268.977334 343.288263 
L 269.41927 334.297934 
L 269.716104 345.740131 
L 270.173642 334.297934 
L 270.47273 349.826293 
L 270.776326 328.576622 
L 271.182506 340.018819 
L 271.642342 341.653541 
L 271.943618 328.576622 
L 272.387786 349.009147 
L 272.686896 322.855737 
L 272.981498 359.634197 
L 273.423478 318.769147 
L 273.735936 315.500131 
L 274.180104 351.461015 
L 274.454618 340.836394 
L 274.914454 344.105409 
L 275.21131 344.105409 
L 275.642064 323.672884 
L 275.943406 347.374425 
L 276.22908 331.846066 
L 276.691104 352.278162 
L 276.994634 348.192 
L 277.456658 331.02849 
L 277.753514 311.413541 
L 278.177594 353.095737 
L 278.501278 327.759475 
L 278.927546 339.201672 
L 279.217706 331.846066 
L 279.521302 344.922556 
L 279.976586 344.105409 
L 280.266746 340.836394 
L 280.71761 329.394197 
L 281.168541 345.740131 
L 281.440778 325.307606 
L 281.77339 322.038591 
L 282.201912 324.490459 
L 282.503254 332.663212 
L 282.929522 327.759475 
L 283.41612 327.759475 
L 283.692888 328.576622 
L 283.985302 332.663212 
L 284.445072 311.413541 
L 284.755342 319.586722 
L 285.186096 348.192 
L 285.779786 333.480359 
L 286.223976 349.009147 
L 286.50965 330.211344 
L 286.962746 342.470687 
L 287.261856 341.653541 
L 288.03857 333.480359 
L 288.449302 323.672884 
L 288.743904 313.048263 
L 289.040738 333.480359 
L 289.498342 327.759475 
L 289.799618 328.576622 
L 290.063016 326.124753 
L 290.527294 333.480359 
L 290.98039 353.095737 
L 291.26381 352.278162 
L 291.728088 335.115081 
L 292.042778 349.826293 
L 292.337446 329.394197 
L 292.772642 337.56695 
L 293.225738 343.288263 
L 293.529334 333.480359 
L 293.835096 327.759475 
L 294.252502 331.02849 
L 294.551546 326.124753 
L 294.98904 365.355081 
L 295.285896 335.115081 
L 295.611746 343.288263 
L 296.042522 326.942328 
L 296.35277 339.201672 
L 296.79696 344.922556 
L 297.078214 368.624097 
L 297.553586 331.02849 
L 297.830398 347.374425 
L 298.587024 331.02849 
L 299.017778 342.470687 
L 299.310214 327.759475 
L 299.772238 344.922556 
L 300.073514 325.307606 
L 300.515494 326.942328 
L 300.819024 322.038591 
L 301.26096 312.230687 
L 301.535541 342.470687 
L 301.839048 320.403869 
L 302.31 313.865409 
L 302.586746 344.105409 
L 303.008594 314.682556 
L 303.307682 329.394197 
L 303.74743 334.297934 
L 304.064374 317.134425 
L 304.79647 340.018819 
L 305.247334 324.490459 
L 305.537494 340.018819 
L 305.990546 341.653541 
L 306.271778 337.56695 
L 306.736056 337.56695 
L 307.032912 313.048263 
L 307.472594 331.02849 
L 307.785096 314.682556 
L 308.530562 349.009147 
L 308.988144 333.480359 
L 309.267144 343.288263 
L 309.561746 318.769147 
L 310.021538 325.307606 
L 310.313952 332.663212 
L 310.740286 333.480359 
L 311.041562 349.009147 
L 311.501398 333.480359 
L 311.78484 335.932228 
L 312.237936 335.115081 
L 312.539278 334.297934 
L 312.976706 331.846066 
L 313.302578 307.32695 
L 313.744514 312.230687 
L 314.03916 335.115081 
L 314.333762 322.855737 
L 314.79804 350.643869 
L 315.074786 320.403869 
L 315.51449 335.115081 
L 315.826992 315.500131 
L 316.244398 332.663212 
L 316.556856 322.038591 
L 317.00551 344.922556 
L 317.304554 322.038591 
L 317.61257 318.769147 
L 318.034462 326.124753 
L 318.333506 347.374425 
L 318.80669 341.653541 
L 319.54104 329.394197 
L 319.98523 334.297934 
L 320.266462 333.480359 
L 320.592334 341.653541 
L 321.029762 355.547606 
L 321.30653 330.211344 
L 321.759626 331.846066 
L 322.074382 320.403869 
L 322.505136 344.105409 
L 322.817594 340.018819 
L 323.268502 328.576622 
L 323.54527 338.384525 
L 323.839872 333.480359 
L 324.268438 362.086066 
L 324.59431 322.038591 
L 325.045152 323.672884 
L 325.335334 331.846066 
L 325.768342 323.672884 
L 326.062944 341.653541 
L 326.38212 324.490459 
L 326.828498 347.374425 
L 327.268246 342.470687 
L 327.578494 344.922556 
L 328.02043 299.971344 
L 328.330634 331.846066 
L 328.582872 322.038591 
L 329.042642 322.855737 
L 329.489064 335.932228 
L 329.83277 349.826293 
L 330.105096 332.663212 
L 330.544778 343.288263 
L 330.85949 344.922556 
L 331.279128 345.740131 
L 331.571498 327.759475 
L 331.863912 322.038591 
L 332.321494 346.557278 
L 332.747762 322.038591 
L 333.04243 344.922556 
L 333.374976 336.749803 
L 333.810238 300.78849 
L 334.095912 332.663212 
L 334.517738 314.682556 
L 334.986502 332.663212 
L 335.31012 349.826293 
L 335.58912 336.749803 
L 336.05784 321.221015 
L 336.350254 326.124753 
L 336.627 356.364753 
L 337.100206 330.211344 
L 337.401459 340.018819 
L 337.82112 336.749803 
L 338.292072 338.384525 
L 338.58 349.826293 
L 339.019682 342.470687 
L 339.296494 327.759475 
L 339.611206 341.653541 
L 340.075462 324.490459 
L 340.343302 335.932228 
L 340.628976 340.018819 
L 341.11553 317.952 
L 341.544096 335.115081 
L 341.863294 329.394197 
L 342.323064 332.663212 
L 342.602064 315.500131 
L 342.914522 334.297934 
L 343.34753 298.33705 
L 343.664541 339.201672 
L 344.113128 338.384525 
L 344.380968 316.317278 
L 345.13092 336.749803 
L 345.56616 343.288263 
L 346.168778 327.759475 
L 346.62857 350.643869 
L 346.932144 331.846066 
L 347.356246 346.557278 
L 347.666494 345.740131 
L 347.961096 305.692656 
L 348.407541 344.922556 
L 348.873984 344.105409 
L 349.15073 322.038591 
L 349.608334 318.769147 
L 349.898494 336.749803 
L 350.342618 322.038591 
L 350.648446 322.038591 
L 351.09257 331.846066 
L 351.376056 332.663212 
L 351.693 322.855737 
L 352.110406 314.682556 
L 352.425096 326.124753 
L 352.87596 335.932228 
L 353.15496 356.364753 
L 353.46523 304.057934 
L 353.90047 340.018819 
L 354.224088 341.653541 
L 354.677206 322.038591 
L 354.945024 316.317278 
L 355.395888 309.778819 
L 356.148072 340.836394 
L 356.406984 307.32695 
L 356.91588 332.663212 
L 357.19488 340.836394 
L 357.65465 340.836394 
L 357.96492 357.999475 
L 358.409088 337.56695 
L 358.67916 331.846066 
L 358.97827 343.288263 
L 359.429112 337.56695 
L 359.732642 320.403869 
L 360.194666 354.730459 
L 360.473666 349.009147 
L 360.922342 325.307606 
L 361.21469 338.384525 
L 361.652206 333.480359 
L 361.971382 341.653541 
L 362.395462 337.56695 
L 362.705666 315.500131 
L 363.04051 313.865409 
L 363.466778 322.855737 
L 363.745778 339.201672 
L 364.201128 318.769147 
L 364.95108 339.201672 
L 365.214478 309.778819 
L 365.705541 335.115081 
L 365.977778 322.855737 
L 366.426454 358.816622 
L 366.72331 331.846066 
L 367.029072 335.932228 
L 367.475494 319.586722 
L 367.756682 319.586722 
L 368.183016 333.480359 
L 368.520048 322.855737 
L 368.95531 336.749803 
L 369.263326 313.865409 
L 369.723096 317.952 
L 370.013278 317.952 
L 370.455214 324.490459 
L 370.760976 299.154197 
L 371.055578 295.067606 
L 371.486398 321.221015 
L 371.803342 353.912884 
L 372.30773 332.663212 
L 372.52651 353.912884 
L 372.99523 318.769147 
L 373.280904 326.124753 
L 373.573318 313.865409 
L 374.039762 318.769147 
L 374.318762 318.769147 
L 374.778554 319.586722 
L 375.059786 313.865409 
L 375.526318 335.932228 
L 375.963746 330.211344 
L 376.253928 308.144525 
L 376.55969 331.846066 
L 377.01504 312.230687 
L 377.31857 337.56695 
L 377.776152 308.961672 
L 378.066334 326.124753 
L 378.523872 303.240788 
L 378.802872 343.288263 
L 379.27831 334.297934 
L 379.541642 324.490459 
L 379.97465 338.384525 
L 380.280478 330.211344 
L 380.584008 317.952 
L 381.30943 334.297934 
L 381.811586 315.500131 
L 382.041459 324.490459 
L 382.494578 352.278162 
L 382.786992 328.576622 
L 383.237856 327.759475 
L 383.552546 329.394197 
L 383.985554 340.836394 
L 384.277968 312.230687 
L 384.561454 330.211344 
L 385.016738 343.288263 
L 385.309152 313.048263 
L 386.039016 327.759475 
L 386.480952 325.307606 
L 386.800128 326.124753 
L 387.246506 330.211344 
L 387.543406 316.317278 
L 388.007618 360.451344 
L 388.76431 332.663212 
L 390.967294 318.769147 
L 390.967294 318.769147 
" clip-path="url(#p8fe80a818f)" style="fill: none; stroke: #737373; stroke-width: 1.5; stroke-linecap: square"/>
   </g>
   <g id="line2d_32">
    <path d="M 53.86608 327.759475 
L 54.613778 344.105409 
L 54.93523 315.500131 
L 55.153944 348.192 
L 56.127096 312.230687 
L 56.702952 329.394197 
L 57.14712 328.576622 
L 57.450694 352.278162 
L 57.892608 329.394197 
L 58.158238 341.653541 
L 58.640306 311.413541 
L 58.92377 332.663212 
L 59.354568 336.749803 
L 59.673766 319.586722 
L 60.111238 333.480359 
L 60.443762 335.115081 
L 60.709392 346.557278 
L 61.137936 341.653541 
L 61.46604 339.201672 
L 61.894584 324.490459 
L 62.16912 326.124753 
L 62.657928 339.201672 
L 62.948088 299.971344 
L 63.405648 320.403869 
L 63.704758 317.134425 
L 64.151136 304.875081 
L 64.593072 317.134425 
L 64.894392 334.297934 
L 65.180088 338.384525 
L 65.626488 346.557278 
L 65.950128 346.557278 
L 66.235802 342.470687 
L 66.671064 327.759475 
L 66.961246 340.018819 
L 67.414342 330.211344 
L 67.733541 330.211344 
L 67.999104 299.971344 
L 68.454454 338.384525 
L 68.905318 331.02849 
L 69.188738 333.480359 
L 69.51019 341.653541 
L 69.96996 303.240788 
L 70.405222 347.374425 
L 70.690896 349.009147 
L 71.103794 341.653541 
L 71.860486 350.643869 
L 72.14616 348.192 
L 72.458618 322.855737 
L 72.89388 328.576622 
L 73.38492 305.692656 
L 73.637136 331.02849 
L 74.105856 332.663212 
L 74.413872 345.740131 
L 74.697358 317.952 
L 75.123626 331.846066 
L 75.45847 334.297934 
L 75.86023 317.952 
L 76.165992 329.394197 
L 76.471754 312.230687 
L 76.900342 335.115081 
L 77.415912 337.56695 
L 77.67257 326.942328 
L 77.964984 322.038591 
L 78.427008 322.855737 
L 78.71719 318.769147 
L 79.159104 339.201672 
L 79.607714 334.297934 
L 79.909056 338.384525 
L 80.212586 339.201672 
L 80.659008 321.221015 
L 80.92908 315.500131 
L 81.368762 299.154197 
L 81.97812 317.952 
L 82.435658 311.413541 
L 82.891008 343.288263 
L 83.190096 309.778819 
L 84.194541 356.364753 
L 84.67884 326.124753 
L 85.100666 333.480359 
L 85.399754 348.192 
L 85.832762 325.307606 
L 86.134104 340.018819 
L 86.433214 330.211344 
L 86.906398 325.307606 
L 87.192072 340.836394 
L 87.62508 299.154197 
L 87.919682 316.317278 
L 88.23888 319.586722 
L 88.67412 320.403869 
L 89.12947 343.288263 
L 89.40847 334.297934 
L 89.839246 331.02849 
L 90.113738 342.470687 
L 90.595872 335.115081 
L 90.886032 327.759475 
L 91.327968 325.307606 
L 91.631498 314.682556 
L 92.068992 326.942328 
L 92.372522 339.201672 
L 92.662682 322.855737 
L 93.12696 329.394197 
L 93.58673 338.384525 
L 93.901486 326.942328 
L 94.338936 320.403869 
L 94.62019 326.942328 
L 94.923698 327.759475 
L 95.341104 322.038591 
L 95.81431 340.018819 
L 96.11784 320.403869 
L 96.408 335.932228 
L 96.865538 329.394197 
L 97.14235 299.971344 
L 97.60212 306.509803 
L 97.887794 326.942328 
L 98.34984 304.875081 
L 98.637746 317.952 
L 99.075262 345.740131 
L 99.36319 326.942328 
L 99.82296 314.682556 
L 100.128722 325.307606 
L 100.44792 314.682556 
L 100.887602 333.480359 
L 101.166602 314.682556 
L 101.588494 317.952 
L 101.88977 300.78849 
L 102.662064 343.288263 
L 103.066056 325.307606 
L 103.380746 353.095737 
L 103.83161 318.769147 
L 104.126278 305.692656 
L 104.429786 336.749803 
L 104.898506 308.144525 
L 105.188666 336.749803 
L 105.621674 330.211344 
L 105.940872 322.038591 
L 106.400642 328.576622 
L 106.66404 314.682556 
L 107.105976 315.500131 
L 107.411738 317.134425 
L 107.87153 314.682556 
L 108.163944 316.317278 
L 108.612554 299.154197 
L 108.933984 329.394197 
L 109.663848 333.480359 
L 109.949522 309.778819 
L 110.411546 324.490459 
L 110.690546 344.105409 
L 111.136968 304.875081 
L 111.447238 344.922556 
L 111.880246 340.836394 
L 112.181522 317.134425 
L 112.62569 340.018819 
L 112.918104 328.576622 
L 113.377896 335.932228 
L 113.668056 317.952 
L 114.121152 312.230687 
L 114.40908 322.855737 
L 114.837602 296.702328 
L 115.147872 322.038591 
L 115.406762 322.038591 
L 115.89557 300.78849 
L 116.650008 333.480359 
L 116.913406 331.02849 
L 117.36427 297.519475 
L 117.658872 326.942328 
L 118.107459 311.413541 
L 118.426658 316.317278 
L 118.70347 324.490459 
L 119.165494 314.682556 
L 119.448936 351.461015 
L 119.906541 325.307606 
L 120.21449 324.490459 
L 120.643056 318.769147 
L 120.93547 331.846066 
L 121.68761 327.759475 
L 121.988952 326.942328 
L 122.437562 313.865409 
L 122.74339 313.865409 
L 123.20316 333.480359 
L 123.473254 318.769147 
L 123.91961 331.846066 
L 124.223206 353.912884 
L 124.674048 314.682556 
L 124.990992 312.230687 
L 125.428486 307.32695 
L 125.707486 308.144525 
L 126.035546 335.932228 
L 126.439538 326.942328 
L 126.901562 313.865409 
L 127.20739 335.115081 
L 127.495318 328.576622 
L 127.935 290.163869 
L 128.229602 338.384525 
L 128.698366 335.115081 
L 128.98404 322.855737 
L 129.403634 321.221015 
L 129.702722 318.769147 
L 130.164746 317.134425 
L 130.45716 303.240788 
L 130.765198 325.307606 
L 131.207112 303.240788 
L 131.506222 295.884753 
L 131.990522 304.057934 
L 132.70253 334.297934 
L 133.135538 311.413541 
L 133.452459 323.672884 
L 133.733714 314.682556 
L 134.160048 312.230687 
L 134.474738 318.769147 
L 134.789494 315.500131 
L 135.530541 326.124753 
L 135.974642 344.922556 
L 136.429992 349.826293 
L 136.735754 319.586722 
L 137.014754 310.596394 
L 137.780374 316.317278 
L 138.21557 345.740131 
L 138.54816 295.884753 
L 138.974494 340.836394 
L 139.708778 313.865409 
L 140.016794 335.115081 
L 140.463238 349.009147 
L 141.041326 332.663212 
L 141.445318 343.288263 
L 141.724318 325.307606 
L 142.166254 326.124753 
L 142.47869 322.038591 
L 142.931786 340.018819 
L 143.24431 313.048263 
L 143.717494 304.875081 
L 144.000936 313.048263 
L 144.429502 334.297934 
L 144.869206 304.057934 
L 145.172714 308.961672 
L 145.467382 293.432884 
L 146.212848 317.952 
L 146.746318 321.221015 
L 147.043152 320.403869 
L 147.244032 322.855737 
L 147.70831 320.403869 
L 147.98057 329.394197 
L 148.426992 311.413541 
L 148.826498 329.394197 
L 149.277406 314.682556 
L 149.556406 321.221015 
L 149.989414 304.875081 
L 150.275088 320.403869 
L 150.574198 311.413541 
L 151.033968 301.606066 
L 151.23708 334.297934 
L 151.676762 344.922556 
L 152.078522 314.682556 
L 152.435642 331.846066 
L 152.73031 298.33705 
L 153.491422 336.749803 
L 153.926618 317.952 
L 154.236888 326.942328 
L 154.53149 327.759475 
L 154.97347 309.778819 
L 155.277 344.922556 
L 155.718936 292.615737 
L 156.08273 322.038591 
L 156.52692 332.663212 
L 156.810406 312.230687 
L 157.256762 304.057934 
L 157.571541 311.413541 
L 157.843778 308.144525 
L 158.709794 340.836394 
L 159.040152 313.865409 
L 159.462 295.067606 
L 159.774502 323.672884 
L 160.276658 293.432884 
L 160.488698 334.297934 
L 160.95965 317.952 
L 161.231976 340.836394 
L 161.66947 325.307606 
L 161.98416 305.692656 
L 162.281016 331.846066 
L 162.722952 330.211344 
L 163.039896 311.413541 
L 163.463976 331.846066 
L 163.767506 335.932228 
L 164.062152 329.394197 
L 164.499602 314.682556 
L 164.807618 326.124753 
L 165.280802 315.500131 
L 165.582144 335.932228 
L 166.01292 325.307606 
L 166.305334 324.490459 
L 166.745016 300.78849 
L 167.044104 322.038591 
L 167.497222 339.201672 
L 167.758366 318.769147 
L 168.215904 323.672884 
L 168.530594 319.586722 
L 168.985944 333.480359 
L 169.249342 334.297934 
L 169.704626 327.759475 
L 170.003714 316.317278 
L 170.751478 327.759475 
L 171.03492 340.018819 
L 171.760342 320.403869 
L 172.242454 319.586722 
L 172.53257 330.211344 
L 173.005754 310.596394 
L 173.289262 310.596394 
L 173.740104 308.144525 
L 174.028032 329.394197 
L 174.46104 306.509803 
L 174.769056 330.211344 
L 175.222152 322.855737 
L 175.507848 315.500131 
L 175.822538 335.932228 
L 176.264541 322.038591 
L 176.565794 328.576622 
L 177.00331 317.952 
L 177.28673 325.307606 
L 177.737594 341.653541 
L 177.996506 327.759475 
L 178.45853 320.403869 
L 178.771032 326.124753 
L 179.23531 319.586722 
L 179.523238 324.490459 
L 179.815586 304.875081 
L 180.27319 328.576622 
L 180.592366 329.394197 
L 181.032048 323.672884 
L 181.308794 330.211344 
L 181.782 335.932228 
L 182.063254 309.778819 
L 182.52077 335.932228 
L 182.833294 309.778819 
L 183.139056 314.682556 
L 183.556462 315.500131 
L 183.857738 320.403869 
L 184.299674 324.490459 
L 184.60327 302.423212 
L 185.060786 302.423212 
L 185.502722 310.596394 
L 185.804064 331.02849 
L 186.083064 318.769147 
L 186.525 309.778819 
L 186.824088 306.509803 
L 187.274952 318.769147 
L 187.551698 320.403869 
L 187.99812 325.307606 
L 188.306136 308.144525 
L 188.772602 315.500131 
L 189.34627 313.865409 
L 189.808294 290.163869 
L 190.569406 323.672884 
L 190.850594 303.240788 
L 191.314872 296.702328 
L 191.616214 313.865409 
L 192.055896 323.672884 
L 192.357238 318.769147 
L 192.785738 329.394197 
L 193.08708 299.971344 
L 193.381682 308.961672 
L 193.828104 302.423212 
L 194.13612 327.759475 
L 194.59147 314.682556 
L 194.999904 320.403869 
L 195.325754 307.32695 
L 195.604754 328.576622 
L 196.075706 337.56695 
L 196.296674 335.932228 
L 196.834586 322.855737 
L 197.09573 326.124753 
L 197.421602 309.778819 
L 197.843494 308.144525 
L 198.305541 309.778819 
L 198.611302 331.846066 
L 198.921506 313.865409 
L 199.361254 309.778819 
L 199.635746 318.769147 
L 200.091096 300.78849 
L 200.367864 303.240788 
L 200.84549 343.288263 
L 201.14239 297.519475 
L 201.577586 297.519475 
L 201.872254 317.134425 
L 202.186944 319.586722 
L 202.62888 324.490459 
L 202.927968 322.038591 
L 203.36765 304.057934 
L 203.675666 314.682556 
L 203.974754 309.778819 
L 204.418944 313.865409 
L 204.883222 332.663212 
L 205.15104 308.144525 
L 205.459056 330.211344 
L 205.916594 324.490459 
L 206.204522 298.33705 
L 206.686634 304.875081 
L 206.950032 331.02849 
L 207.420984 304.875081 
L 207.702238 279.538819 
L 208.434334 331.846066 
L 208.88743 308.961672 
L 209.186541 319.586722 
L 209.630642 295.884753 
L 210.213238 326.942328 
L 210.693096 295.067606 
L 211.110502 287.712 
L 211.411778 313.048263 
L 211.70196 307.32695 
L 212.15731 313.865409 
L 212.463072 303.240788 
L 212.88492 315.500131 
L 213.338016 310.596394 
L 213.650541 320.403869 
L 214.092454 321.221015 
L 214.41384 300.78849 
L 214.683912 297.519475 
L 215.134754 290.163869 
L 215.581198 322.038591 
L 215.853502 319.586722 
L 216.154778 328.576622 
L 216.62131 319.586722 
L 216.902498 352.278162 
L 217.36008 299.971344 
L 217.668096 308.144525 
L 217.971626 326.942328 
L 218.402446 313.048263 
L 218.851056 313.048263 
L 219.15684 325.307606 
L 219.609936 299.154197 
L 219.884494 311.413541 
L 220.333104 283.625409 
L 220.647794 340.018819 
L 220.924562 307.32695 
L 221.393326 320.403869 
L 221.82408 300.78849 
L 222.129864 318.769147 
L 222.433438 316.317278 
L 222.86196 319.586722 
L 223.167722 326.124753 
L 223.609658 329.394197 
L 223.908746 323.672884 
L 224.219016 289.346722 
L 224.663206 316.317278 
L 224.944438 322.038591 
L 225.381888 324.490459 
L 225.68323 317.134425 
L 226.165342 308.144525 
L 226.435414 296.702328 
L 226.90188 321.221015 
L 227.171952 323.672884 
L 227.622794 312.230687 
L 227.91523 334.297934 
L 228.354912 323.672884 
L 228.66516 293.432884 
L 229.116024 301.606066 
L 229.406206 313.865409 
L 229.863722 292.615737 
L 230.475334 313.865409 
L 230.92169 292.615737 
L 231.194016 310.596394 
L 231.952896 321.221015 
L 232.236382 295.067606 
L 232.678318 322.038591 
L 232.986334 316.317278 
L 233.417088 324.490459 
L 233.738541 292.615737 
L 234.175968 313.865409 
L 234.47057 304.875081 
L 234.919246 295.884753 
L 235.229494 330.211344 
L 235.655762 306.509803 
L 235.977214 296.702328 
L 236.401294 320.403869 
L 236.707056 317.952 
L 237.15792 340.018819 
L 237.454754 329.394197 
L 237.863254 332.663212 
L 238.195778 329.394197 
L 238.483706 304.875081 
L 238.914459 330.211344 
L 239.662246 290.163869 
L 239.945666 330.211344 
L 240.392088 305.692656 
L 240.691198 326.942328 
L 241.13088 313.048263 
L 241.447802 311.413541 
L 241.796016 311.413541 
L 242.157578 325.307606 
L 242.920944 286.077278 
L 243.231214 329.394197 
L 243.96331 306.509803 
L 244.402992 322.038591 
L 244.719936 303.240788 
L 245.159618 324.490459 
L 245.58151 317.134425 
L 246.201984 292.615737 
L 246.634992 315.500131 
L 246.916246 310.596394 
L 247.364856 316.317278 
L 247.675104 294.250459 
L 248.110366 313.865409 
L 248.422802 283.625409 
L 248.858064 304.875081 
L 249.19061 315.500131 
L 249.483024 294.250459 
L 249.945048 336.749803 
L 250.21512 324.490459 
L 250.665984 311.413541 
L 251.103478 327.759475 
L 251.42261 312.230687 
L 252.143546 298.33705 
L 252.453794 317.952 
L 252.89573 299.154197 
L 253.183658 316.317278 
L 253.634522 300.78849 
L 253.920262 309.778819 
L 254.397888 346.557278 
L 255.145586 295.884753 
L 255.739342 327.759475 
L 256.19688 320.403869 
L 256.498222 297.519475 
L 256.94239 317.134425 
L 257.375398 299.154197 
L 257.674486 319.586722 
L 257.995872 307.32695 
L 258.444459 299.971344 
L 258.739128 301.606066 
L 259.165462 288.529147 
L 259.44665 309.778819 
L 260.210016 299.154197 
L 260.678714 291.798591 
L 261.41081 286.077278 
L 261.696506 316.317278 
L 262.142928 327.759475 
L 262.473286 300.78849 
L 262.73443 331.846066 
L 263.178554 321.221015 
L 263.611562 304.057934 
L 263.935246 299.154197 
L 264.236522 331.02849 
L 264.651674 320.403869 
L 264.94853 285.260131 
L 265.401626 291.798591 
L 265.685112 308.961672 
L 266.176152 288.529147 
L 266.466334 294.250459 
L 266.885928 330.211344 
L 267.171602 317.134425 
L 267.618024 303.240788 
L 267.930459 322.038591 
L 268.20504 316.317278 
L 268.651462 289.346722 
L 269.115674 304.057934 
L 269.388 308.144525 
L 269.829936 308.961672 
L 270.137952 303.240788 
L 270.445968 305.692656 
L 270.887904 314.682556 
L 271.182506 304.057934 
L 271.675778 295.067606 
L 271.93469 326.942328 
L 272.374438 306.509803 
L 272.673459 302.423212 
L 273.144478 307.32695 
L 273.423478 305.692656 
L 273.867602 307.32695 
L 274.16227 305.692656 
L 274.470286 303.240788 
L 274.941238 297.519475 
L 275.374246 326.124753 
L 275.637578 309.778819 
L 276.117502 303.240788 
L 276.735722 313.865409 
L 277.177658 290.981015 
L 277.456658 318.769147 
L 277.762486 304.875081 
L 278.632944 322.855737 
L 278.945446 311.413541 
L 279.246722 311.413541 
L 279.684238 298.33705 
L 279.987746 333.480359 
L 280.425262 302.423212 
L 280.73551 314.682556 
L 281.17296 319.586722 
L 281.458634 324.490459 
L 281.905056 322.038591 
L 282.188498 294.250459 
L 282.621506 308.961672 
L 282.931754 276.269803 
L 283.230864 314.682556 
L 283.668358 310.596394 
L 283.983048 340.836394 
L 284.41157 299.971344 
L 284.726326 318.769147 
L 285.018674 290.981015 
L 285.47177 306.509803 
L 285.898104 300.78849 
L 286.20612 295.067606 
L 286.636896 313.048263 
L 286.927056 295.067606 
L 287.37792 319.586722 
L 287.68819 314.682556 
L 288.130104 301.606066 
L 288.43812 328.576622 
L 288.88673 317.952 
L 289.201486 296.702328 
L 289.48716 309.778819 
L 289.92019 299.154197 
L 290.20361 295.067606 
L 290.656706 335.932228 
L 291.031682 302.423212 
L 291.384382 322.855737 
L 291.705746 303.240788 
L 292.136522 320.403869 
L 292.45351 338.384525 
L 292.734698 317.952 
L 293.18112 299.971344 
L 293.652072 307.32695 
L 294.25469 334.297934 
L 295.44881 281.991116 
L 295.707722 311.413541 
L 296.151912 307.32695 
L 296.47553 308.961672 
L 296.788032 290.981015 
L 297.225459 314.682556 
L 297.506714 313.865409 
L 297.950904 292.615737 
L 298.265594 313.048263 
L 298.720944 308.144525 
L 299.022286 278.721672 
L 299.747642 321.221015 
L 300.167302 313.048263 
L 300.47081 310.596394 
L 300.92616 324.490459 
L 301.209602 318.769147 
L 301.68504 290.981015 
L 301.979642 326.124753 
L 302.673794 275.452656 
L 303.432674 317.952 
L 303.742944 274.635081 
L 304.187112 298.33705 
L 304.50631 335.932228 
L 304.950478 305.692656 
L 305.229478 305.692656 
L 305.658 320.403869 
L 305.97269 316.317278 
L 306.443642 304.875081 
L 306.702554 304.875081 
L 307.16239 309.778819 
L 307.459246 308.961672 
L 307.887746 326.124753 
L 308.206944 304.875081 
L 308.631024 312.230687 
L 308.925626 290.981015 
L 309.211366 293.432884 
L 309.682318 289.346722 
L 310.00819 326.124753 
L 310.42553 319.586722 
L 310.72243 299.971344 
L 311.023706 316.317278 
L 311.470128 325.307606 
L 311.918738 290.163869 
L 312.231262 278.721672 
L 312.510262 304.875081 
L 312.920928 302.423212 
L 313.244546 307.32695 
L 313.704382 290.981015 
L 313.994498 320.403869 
L 314.307 286.077278 
L 314.742262 301.606066 
L 315.193104 323.672884 
L 315.478778 311.413541 
L 315.911786 308.961672 
L 316.52784 308.961672 
L 316.949666 308.144525 
L 317.264422 290.981015 
L 317.570206 313.865409 
L 318.03223 303.240788 
L 318.39377 300.78849 
L 318.744238 292.615737 
L 319.212936 294.250459 
L 319.507538 328.576622 
L 319.815554 310.596394 
L 320.250794 267.279475 
L 320.53649 307.32695 
L 320.985144 304.057934 
L 321.290928 309.778819 
L 321.74851 305.692656 
L 322.023024 325.307606 
L 322.493976 302.423212 
L 322.76849 303.240788 
L 323.219398 320.403869 
L 323.507326 300.78849 
L 323.976024 290.163869 
L 324.292968 299.154197 
L 324.74381 290.163869 
L 325.038478 295.067606 
L 325.475928 292.615737 
L 325.763856 284.442985 
L 326.083032 314.682556 
L 326.520459 295.067606 
L 326.799459 292.615737 
L 327.234722 297.519475 
L 327.556152 315.500131 
L 327.982486 326.124753 
L 328.297198 314.682556 
L 328.734626 304.057934 
L 329.05831 312.230687 
L 329.366326 312.230687 
L 329.79708 292.615737 
L 330.087262 314.682556 
L 330.549286 310.596394 
L 330.973366 304.875081 
L 331.310398 307.32695 
L 331.732246 328.576622 
L 332.044682 302.423212 
L 332.750016 270.548919 
L 333.064706 299.154197 
L 333.488786 289.346722 
L 333.796802 310.596394 
L 334.553494 281.173541 
L 334.836936 295.067606 
L 335.26769 300.78849 
L 335.580214 327.759475 
L 336.022128 314.682556 
L 336.327912 298.33705 
L 336.633674 315.500131 
L 337.405968 330.211344 
L 337.832302 285.260131 
L 338.301 319.586722 
L 338.896944 277.904525 
L 339.31435 292.615737 
L 339.637968 316.317278 
L 340.07765 283.625409 
L 340.374506 299.971344 
L 340.809746 289.346722 
L 341.091 303.240788 
L 341.541864 301.606066 
L 341.84988 298.33705 
L 342.30965 287.712 
L 342.590904 286.077278 
L 342.903406 323.672884 
L 343.610928 283.625409 
L 343.901088 296.702328 
L 344.36088 291.798591 
L 344.811722 299.154197 
L 345.124246 289.346722 
L 345.575088 312.230687 
L 345.851856 318.769147 
L 346.171032 305.692656 
L 346.606294 299.971344 
L 346.91431 310.596394 
L 347.351738 296.702328 
L 347.659754 295.067606 
L 348.396358 331.846066 
L 348.86731 296.702328 
L 349.144056 301.606066 
L 349.603848 313.865409 
L 349.88508 295.884753 
L 350.202024 310.596394 
L 350.630546 290.981015 
L 350.918541 314.682556 
L 351.66847 287.712 
L 352.108152 313.048263 
L 352.400522 302.423212 
L 352.869286 329.394197 
L 353.148286 316.317278 
L 353.601382 317.134425 
L 353.875896 303.240788 
L 354.324506 295.884753 
L 354.641494 313.048263 
L 355.078944 309.778819 
L 355.384706 298.33705 
L 355.857912 321.221015 
L 356.13247 304.057934 
L 356.462762 304.875081 
L 356.89577 283.625409 
L 357.634562 330.211344 
L 357.904634 278.721672 
L 358.670254 315.500131 
L 358.97153 313.865409 
L 359.433554 305.692656 
L 359.873302 294.250459 
L 360.167904 293.432884 
L 360.614326 276.269803 
L 360.92453 299.154197 
L 361.350864 296.702328 
L 361.661112 317.134425 
L 362.085214 321.221015 
L 362.382048 299.971344 
L 362.681136 302.423212 
L 363.14316 299.971344 
L 363.444502 289.346722 
L 363.873024 306.509803 
L 364.172112 296.702328 
L 364.602888 296.702328 
L 364.890794 317.134425 
L 365.364 274.635081 
L 365.683198 293.432884 
L 366.111698 291.798591 
L 366.406366 285.260131 
L 366.846048 306.509803 
L 367.12949 288.529147 
L 367.46208 299.154197 
L 367.901762 308.144525 
L 368.174088 307.32695 
L 368.622698 308.961672 
L 368.950802 315.500131 
L 369.408406 297.519475 
L 369.711936 281.173541 
L 370.439546 317.952 
L 370.872554 326.124753 
L 371.18057 289.346722 
L 371.644848 296.702328 
L 371.917152 317.134425 
L 372.216262 304.875081 
L 372.669358 308.961672 
L 372.966214 290.163869 
L 373.704984 311.413541 
L 374.142478 309.778819 
L 374.439334 284.442985 
L 374.87453 281.991116 
L 375.16027 289.346722 
L 375.631222 286.894853 
L 375.925802 304.875081 
L 376.369992 286.894853 
L 376.655666 313.865409 
L 377.099856 294.250459 
L 377.425706 296.702328 
L 377.838626 313.865409 
L 378.160056 293.432884 
L 378.439056 303.240788 
L 378.894406 313.865409 
L 379.175594 298.33705 
L 379.63543 303.240788 
L 379.925546 318.769147 
L 380.39431 298.33705 
L 380.679984 317.134425 
L 381.110738 307.32695 
L 381.427682 292.615737 
L 381.702262 300.78849 
L 382.184374 299.971344 
L 382.490136 286.077278 
L 382.90973 324.490459 
L 383.731128 290.981015 
L 383.96551 268.09705 
L 384.389546 315.500131 
L 384.688634 291.798591 
L 385.135056 301.606066 
L 385.414056 277.08695 
L 385.855992 304.875081 
L 386.172936 285.260131 
L 386.605944 284.442985 
L 386.922888 320.403869 
L 387.384912 284.442985 
L 388.110334 313.048263 
L 389.206246 306.509803 
L 389.206246 306.509803 
" clip-path="url(#p8fe80a818f)" style="fill: none; stroke: #0570b0; stroke-width: 1.5; stroke-linecap: square"/>
   </g>
   <g id="patch_7">
    <path d="M 54 384.48 
L 54 251.424 
" style="fill: none; stroke: #000000; stroke-width: 0.5; stroke-linejoin: miter; stroke-linecap: square"/>
   </g>
   <g id="patch_8">
    <path d="M 54 384.48 
L 388.8 384.48 
" style="fill: none; stroke: #000000; stroke-width: 0.5; stroke-linejoin: miter; stroke-linecap: square"/>
   </g>
   <g id="text_34">
    <!-- 104 m/z for Dynamic TGA -->
    <g transform="translate(152.385938 245.424) scale(0.12 -0.12)">
     <defs>
      <path id="Helvetica-2f" d="M 1456 4591 
L 1931 4591 
L 475 0 
L 0 0 
L 1456 4591 
z
" transform="scale(0.015625)"/>
      <path id="Helvetica-66" d="M 553 3856 
Q 566 4206 675 4369 
Q 872 4656 1434 4656 
Q 1488 4656 1544 4653 
Q 1600 4650 1672 4644 
L 1672 4131 
Q 1584 4138 1545 4139 
Q 1506 4141 1472 4141 
Q 1216 4141 1166 4008 
Q 1116 3875 1116 3331 
L 1672 3331 
L 1672 2888 
L 1109 2888 
L 1109 0 
L 553 0 
L 553 2888 
L 88 2888 
L 88 3331 
L 553 3331 
L 553 3856 
z
" transform="scale(0.015625)"/>
     </defs>
     <use xlink:href="#Helvetica-31"/>
     <use xlink:href="#Helvetica-30" x="55.615234"/>
     <use xlink:href="#Helvetica-34" x="111.230469"/>
     <use xlink:href="#Helvetica-20" x="166.845703"/>
     <use xlink:href="#Helvetica-6d" x="194.628906"/>
     <use xlink:href="#Helvetica-2f" x="277.929688"/>
     <use xlink:href="#Helvetica-7a" x="305.712891"/>
     <use xlink:href="#Helvetica-20" x="355.712891"/>
     <use xlink:href="#Helvetica-66" x="383.496094"/>
     <use xlink:href="#Helvetica-6f" x="411.279297"/>
     <use xlink:href="#Helvetica-72" x="466.894531"/>
     <use xlink:href="#Helvetica-20" x="500.195312"/>
     <use xlink:href="#Helvetica-44" x="527.978516"/>
     <use xlink:href="#Helvetica-79" x="600.195312"/>
     <use xlink:href="#Helvetica-6e" x="650.195312"/>
     <use xlink:href="#Helvetica-61" x="705.810547"/>
     <use xlink:href="#Helvetica-6d" x="761.425781"/>
     <use xlink:href="#Helvetica-69" x="844.726562"/>
     <use xlink:href="#Helvetica-63" x="866.943359"/>
     <use xlink:href="#Helvetica-20" x="916.943359"/>
     <use xlink:href="#Helvetica-54" x="944.726562"/>
     <use xlink:href="#Helvetica-47" x="1005.810547"/>
     <use xlink:href="#Helvetica-41" x="1083.59375"/>
    </g>
   </g>
   <g id="legend_2">
    <g id="patch_9">
     <path d="M 169.9 287.939625 
L 272.9 287.939625 
Q 274.9 287.939625 274.9 285.939625 
L 274.9 258.424 
Q 274.9 256.424 272.9 256.424 
L 169.9 256.424 
Q 167.9 256.424 167.9 258.424 
L 167.9 285.939625 
Q 167.9 287.939625 169.9 287.939625 
z
" style="fill: #ffffff; opacity: 0.8; stroke: #cccccc; stroke-linejoin: miter"/>
    </g>
    <g id="line2d_33">
     <path d="M 171.9 264.097437 
L 181.9 264.097437 
L 191.9 264.097437 
" style="fill: none; stroke: #737373; stroke-width: 1.5; stroke-linecap: square"/>
    </g>
    <g id="text_35">
     <!-- PS-40.4K -->
     <g transform="translate(199.9 267.597437) scale(0.1 -0.1)">
      <use xlink:href="#Helvetica-50"/>
      <use xlink:href="#Helvetica-53" x="66.699219"/>
      <use xlink:href="#Helvetica-2d" x="133.398438"/>
      <use xlink:href="#Helvetica-34" x="166.699219"/>
      <use xlink:href="#Helvetica-30" x="222.314453"/>
      <use xlink:href="#Helvetica-2e" x="277.929688"/>
      <use xlink:href="#Helvetica-34" x="305.712891"/>
      <use xlink:href="#Helvetica-4b" x="361.328125"/>
     </g>
    </g>
    <g id="line2d_34">
     <path d="M 171.9 278.35525 
L 181.9 278.35525 
L 191.9 278.35525 
" style="fill: none; stroke: #0570b0; stroke-width: 1.5; stroke-linecap: square"/>
    </g>
    <g id="text_36">
     <!-- PS-40.4K-SCF$_{3}$ -->
     <g transform="translate(199.9 281.85525) scale(0.1 -0.1)">
      <use xlink:href="#Helvetica-50" transform="translate(0 0.3125)"/>
      <use xlink:href="#Helvetica-53" transform="translate(66.699219 0.3125)"/>
      <use xlink:href="#Helvetica-2d" transform="translate(133.398438 0.3125)"/>
      <use xlink:href="#Helvetica-34" transform="translate(166.699219 0.3125)"/>
      <use xlink:href="#Helvetica-30" transform="translate(222.314453 0.3125)"/>
      <use xlink:href="#Helvetica-2e" transform="translate(277.929688 0.3125)"/>
      <use xlink:href="#Helvetica-34" transform="translate(305.712891 0.3125)"/>
      <use xlink:href="#Helvetica-4b" transform="translate(361.328125 0.3125)"/>
      <use xlink:href="#Helvetica-2d" transform="translate(428.027344 0.3125)"/>
      <use xlink:href="#Helvetica-53" transform="translate(461.328125 0.3125)"/>
      <use xlink:href="#Helvetica-43" transform="translate(528.027344 0.3125)"/>
      <use xlink:href="#Helvetica-46" transform="translate(600.244141 0.3125)"/>
      <use xlink:href="#DejaVuSans-33" transform="translate(662.285156 -16.09375) scale(0.7)"/>
     </g>
    </g>
   </g>
  </g>
 </g>
 <defs>
  <clipPath id="p9161ff2742">
   <rect x="54" y="51.84" width="334.8" height="133.056"/>
  </clipPath>
  <clipPath id="p8fe80a818f">
   <rect x="54" y="251.424" width="334.8" height="133.056"/>
  </clipPath>
 </defs>
</svg>
