<?xml version="1.0" encoding="utf-8" standalone="no"?>
<!DOCTYPE svg PUBLIC "-//W3C//DTD SVG 1.1//EN"
  "http://www.w3.org/Graphics/SVG/1.1/DTD/svg11.dtd">
<svg xmlns:xlink="http://www.w3.org/1999/xlink" width="824.394962pt" height="452.0875pt" viewBox="0 0 824.394962 452.0875" xmlns="http://www.w3.org/2000/svg" version="1.1">
 <metadata>
  <rdf:RDF xmlns:dc="http://purl.org/dc/elements/1.1/" xmlns:cc="http://creativecommons.org/ns#" xmlns:rdf="http://www.w3.org/1999/02/22-rdf-syntax-ns#">
   <cc:Work>
    <dc:type rdf:resource="http://purl.org/dc/dcmitype/StillImage"/>
    <dc:date>2025-11-29T21:12:20.676181</dc:date>
    <dc:format>image/svg+xml</dc:format>
    <dc:creator>
     <cc:Agent>
      <dc:title>Matplotlib v3.7.1, https://matplotlib.org/</dc:title>
     </cc:Agent>
    </dc:creator>
   </cc:Work>
  </rdf:RDF>
 </metadata>
 <defs>
  <style type="text/css">*{stroke-linejoin: round; stroke-linecap: butt}</style>
 </defs>
 <g id="figure_1">
  <g id="patch_1">
   <path d="M 0 452.0875 
L 824.394962 452.0875 
L 824.394962 0 
L 0 0 
z
" style="fill: #ffffff"/>
  </g>
  <g id="axes_1">
   <g id="patch_2">
    <path d="M 160.454963 414.16 
L 809.559962 414.16 
L 809.559962 7.2 
L 160.454963 7.2 
z
" style="fill: #ffffff"/>
   </g>
   <g id="matplotlib.axis_1">
    <g id="xtick_1">
     <g id="line2d_1">
      <defs>
       <path id="m8f5231c7a7" d="M 0 0 
L 0 -3.5 
" style="stroke: #000000; stroke-width: 0.8"/>
      </defs>
      <g>
       <use xlink:href="#m8f5231c7a7" x="160.454963" y="414.16" style="stroke: #000000; stroke-width: 0.8"/>
      </g>
     </g>
     <g id="text_1">
      <!-- 0 -->
      <g transform="translate(156.637463 426.778125) scale(0.12 -0.12)">
       <defs>
        <path id="DejaVuSans-30" d="M 2034 4250 
Q 1547 4250 1301 3770 
Q 1056 3291 1056 2328 
Q 1056 1369 1301 889 
Q 1547 409 2034 409 
Q 2525 409 2770 889 
Q 3016 1369 3016 2328 
Q 3016 3291 2770 3770 
Q 2525 4250 2034 4250 
z
M 2034 4750 
Q 2819 4750 3233 4129 
Q 3647 3509 3647 2328 
Q 3647 1150 3233 529 
Q 2819 -91 2034 -91 
Q 1250 -91 836 529 
Q 422 1150 422 2328 
Q 422 3509 836 4129 
Q 1250 4750 2034 4750 
z
" transform="scale(0.015625)"/>
       </defs>
       <use xlink:href="#DejaVuSans-30"/>
      </g>
     </g>
    </g>
    <g id="xtick_2">
     <g id="line2d_2">
      <g>
       <use xlink:href="#m8f5231c7a7" x="268.639129" y="414.16" style="stroke: #000000; stroke-width: 0.8"/>
      </g>
     </g>
     <g id="text_2">
      <!-- 2 -->
      <g transform="translate(264.821629 426.778125) scale(0.12 -0.12)">
       <defs>
        <path id="DejaVuSans-32" d="M 1228 531 
L 3431 531 
L 3431 0 
L 469 0 
L 469 531 
Q 828 903 1448 1529 
Q 2069 2156 2228 2338 
Q 2531 2678 2651 2914 
Q 2772 3150 2772 3378 
Q 2772 3750 2511 3984 
Q 2250 4219 1831 4219 
Q 1534 4219 1204 4116 
Q 875 4013 500 3803 
L 500 4441 
Q 881 4594 1212 4672 
Q 1544 4750 1819 4750 
Q 2544 4750 2975 4387 
Q 3406 4025 3406 3419 
Q 3406 3131 3298 2873 
Q 3191 2616 2906 2266 
Q 2828 2175 2409 1742 
Q 1991 1309 1228 531 
z
" transform="scale(0.015625)"/>
       </defs>
       <use xlink:href="#DejaVuSans-32"/>
      </g>
     </g>
    </g>
    <g id="xtick_3">
     <g id="line2d_3">
      <g>
       <use xlink:href="#m8f5231c7a7" x="376.823296" y="414.16" style="stroke: #000000; stroke-width: 0.8"/>
      </g>
     </g>
     <g id="text_3">
      <!-- 4 -->
      <g transform="translate(373.005796 426.778125) scale(0.12 -0.12)">
       <defs>
        <path id="DejaVuSans-34" d="M 2419 4116 
L 825 1625 
L 2419 1625 
L 2419 4116 
z
M 2253 4666 
L 3047 4666 
L 3047 1625 
L 3713 1625 
L 3713 1100 
L 3047 1100 
L 3047 0 
L 2419 0 
L 2419 1100 
L 313 1100 
L 313 1709 
L 2253 4666 
z
" transform="scale(0.015625)"/>
       </defs>
       <use xlink:href="#DejaVuSans-34"/>
      </g>
     </g>
    </g>
    <g id="xtick_4">
     <g id="line2d_4">
      <g>
       <use xlink:href="#m8f5231c7a7" x="485.007463" y="414.16" style="stroke: #000000; stroke-width: 0.8"/>
      </g>
     </g>
     <g id="text_4">
      <!-- 6 -->
      <g transform="translate(481.189963 426.778125) scale(0.12 -0.12)">
       <defs>
        <path id="DejaVuSans-36" d="M 2113 2584 
Q 1688 2584 1439 2293 
Q 1191 2003 1191 1497 
Q 1191 994 1439 701 
Q 1688 409 2113 409 
Q 2538 409 2786 701 
Q 3034 994 3034 1497 
Q 3034 2003 2786 2293 
Q 2538 2584 2113 2584 
z
M 3366 4563 
L 3366 3988 
Q 3128 4100 2886 4159 
Q 2644 4219 2406 4219 
Q 1781 4219 1451 3797 
Q 1122 3375 1075 2522 
Q 1259 2794 1537 2939 
Q 1816 3084 2150 3084 
Q 2853 3084 3261 2657 
Q 3669 2231 3669 1497 
Q 3669 778 3244 343 
Q 2819 -91 2113 -91 
Q 1303 -91 875 529 
Q 447 1150 447 2328 
Q 447 3434 972 4092 
Q 1497 4750 2381 4750 
Q 2619 4750 2861 4703 
Q 3103 4656 3366 4563 
z
" transform="scale(0.015625)"/>
       </defs>
       <use xlink:href="#DejaVuSans-36"/>
      </g>
     </g>
    </g>
    <g id="xtick_5">
     <g id="line2d_5">
      <g>
       <use xlink:href="#m8f5231c7a7" x="593.191629" y="414.16" style="stroke: #000000; stroke-width: 0.8"/>
      </g>
     </g>
     <g id="text_5">
      <!-- 8 -->
      <g transform="translate(589.374129 426.778125) scale(0.12 -0.12)">
       <defs>
        <path id="DejaVuSans-38" d="M 2034 2216 
Q 1584 2216 1326 1975 
Q 1069 1734 1069 1313 
Q 1069 891 1326 650 
Q 1584 409 2034 409 
Q 2484 409 2743 651 
Q 3003 894 3003 1313 
Q 3003 1734 2745 1975 
Q 2488 2216 2034 2216 
z
M 1403 2484 
Q 997 2584 770 2862 
Q 544 3141 544 3541 
Q 544 4100 942 4425 
Q 1341 4750 2034 4750 
Q 2731 4750 3128 4425 
Q 3525 4100 3525 3541 
Q 3525 3141 3298 2862 
Q 3072 2584 2669 2484 
Q 3125 2378 3379 2068 
Q 3634 1759 3634 1313 
Q 3634 634 3220 271 
Q 2806 -91 2034 -91 
Q 1263 -91 848 271 
Q 434 634 434 1313 
Q 434 1759 690 2068 
Q 947 2378 1403 2484 
z
M 1172 3481 
Q 1172 3119 1398 2916 
Q 1625 2713 2034 2713 
Q 2441 2713 2670 2916 
Q 2900 3119 2900 3481 
Q 2900 3844 2670 4047 
Q 2441 4250 2034 4250 
Q 1625 4250 1398 4047 
Q 1172 3844 1172 3481 
z
" transform="scale(0.015625)"/>
       </defs>
       <use xlink:href="#DejaVuSans-38"/>
      </g>
     </g>
    </g>
    <g id="xtick_6">
     <g id="line2d_6">
      <g>
       <use xlink:href="#m8f5231c7a7" x="701.375796" y="414.16" style="stroke: #000000; stroke-width: 0.8"/>
      </g>
     </g>
     <g id="text_6">
      <!-- 10 -->
      <g transform="translate(693.740796 426.778125) scale(0.12 -0.12)">
       <defs>
        <path id="DejaVuSans-31" d="M 794 531 
L 1825 531 
L 1825 4091 
L 703 3866 
L 703 4441 
L 1819 4666 
L 2450 4666 
L 2450 531 
L 3481 531 
L 3481 0 
L 794 0 
L 794 531 
z
" transform="scale(0.015625)"/>
       </defs>
       <use xlink:href="#DejaVuSans-31"/>
       <use xlink:href="#DejaVuSans-30" x="63.623047"/>
      </g>
     </g>
    </g>
    <g id="xtick_7">
     <g id="line2d_7">
      <g>
       <use xlink:href="#m8f5231c7a7" x="809.559962" y="414.16" style="stroke: #000000; stroke-width: 0.8"/>
      </g>
     </g>
     <g id="text_7">
      <!-- 12 -->
      <g transform="translate(801.924962 426.778125) scale(0.12 -0.12)">
       <use xlink:href="#DejaVuSans-31"/>
       <use xlink:href="#DejaVuSans-32" x="63.623047"/>
      </g>
     </g>
    </g>
    <g id="text_8">
     <!-- Retention Time (min) -->
     <g transform="translate(421.587463 442.391875) scale(0.12 -0.12)">
      <defs>
       <path id="DejaVuSans-52" d="M 2841 2188 
Q 3044 2119 3236 1894 
Q 3428 1669 3622 1275 
L 4263 0 
L 3584 0 
L 2988 1197 
Q 2756 1666 2539 1819 
Q 2322 1972 1947 1972 
L 1259 1972 
L 1259 0 
L 628 0 
L 628 4666 
L 2053 4666 
Q 2853 4666 3247 4331 
Q 3641 3997 3641 3322 
Q 3641 2881 3436 2590 
Q 3231 2300 2841 2188 
z
M 1259 4147 
L 1259 2491 
L 2053 2491 
Q 2509 2491 2742 2702 
Q 2975 2913 2975 3322 
Q 2975 3731 2742 3939 
Q 2509 4147 2053 4147 
L 1259 4147 
z
" transform="scale(0.015625)"/>
       <path id="DejaVuSans-65" d="M 3597 1894 
L 3597 1613 
L 953 1613 
Q 991 1019 1311 708 
Q 1631 397 2203 397 
Q 2534 397 2845 478 
Q 3156 559 3463 722 
L 3463 178 
Q 3153 47 2828 -22 
Q 2503 -91 2169 -91 
Q 1331 -91 842 396 
Q 353 884 353 1716 
Q 353 2575 817 3079 
Q 1281 3584 2069 3584 
Q 2775 3584 3186 3129 
Q 3597 2675 3597 1894 
z
M 3022 2063 
Q 3016 2534 2758 2815 
Q 2500 3097 2075 3097 
Q 1594 3097 1305 2825 
Q 1016 2553 972 2059 
L 3022 2063 
z
" transform="scale(0.015625)"/>
       <path id="DejaVuSans-74" d="M 1172 4494 
L 1172 3500 
L 2356 3500 
L 2356 3053 
L 1172 3053 
L 1172 1153 
Q 1172 725 1289 603 
Q 1406 481 1766 481 
L 2356 481 
L 2356 0 
L 1766 0 
Q 1100 0 847 248 
Q 594 497 594 1153 
L 594 3053 
L 172 3053 
L 172 3500 
L 594 3500 
L 594 4494 
L 1172 4494 
z
" transform="scale(0.015625)"/>
       <path id="DejaVuSans-6e" d="M 3513 2113 
L 3513 0 
L 2938 0 
L 2938 2094 
Q 2938 2591 2744 2837 
Q 2550 3084 2163 3084 
Q 1697 3084 1428 2787 
Q 1159 2491 1159 1978 
L 1159 0 
L 581 0 
L 581 3500 
L 1159 3500 
L 1159 2956 
Q 1366 3272 1645 3428 
Q 1925 3584 2291 3584 
Q 2894 3584 3203 3211 
Q 3513 2838 3513 2113 
z
" transform="scale(0.015625)"/>
       <path id="DejaVuSans-69" d="M 603 3500 
L 1178 3500 
L 1178 0 
L 603 0 
L 603 3500 
z
M 603 4863 
L 1178 4863 
L 1178 4134 
L 603 4134 
L 603 4863 
z
" transform="scale(0.015625)"/>
       <path id="DejaVuSans-6f" d="M 1959 3097 
Q 1497 3097 1228 2736 
Q 959 2375 959 1747 
Q 959 1119 1226 758 
Q 1494 397 1959 397 
Q 2419 397 2687 759 
Q 2956 1122 2956 1747 
Q 2956 2369 2687 2733 
Q 2419 3097 1959 3097 
z
M 1959 3584 
Q 2709 3584 3137 3096 
Q 3566 2609 3566 1747 
Q 3566 888 3137 398 
Q 2709 -91 1959 -91 
Q 1206 -91 779 398 
Q 353 888 353 1747 
Q 353 2609 779 3096 
Q 1206 3584 1959 3584 
z
" transform="scale(0.015625)"/>
       <path id="DejaVuSans-20" transform="scale(0.015625)"/>
       <path id="DejaVuSans-54" d="M -19 4666 
L 3928 4666 
L 3928 4134 
L 2272 4134 
L 2272 0 
L 1638 0 
L 1638 4134 
L -19 4134 
L -19 4666 
z
" transform="scale(0.015625)"/>
       <path id="DejaVuSans-6d" d="M 3328 2828 
Q 3544 3216 3844 3400 
Q 4144 3584 4550 3584 
Q 5097 3584 5394 3201 
Q 5691 2819 5691 2113 
L 5691 0 
L 5113 0 
L 5113 2094 
Q 5113 2597 4934 2840 
Q 4756 3084 4391 3084 
Q 3944 3084 3684 2787 
Q 3425 2491 3425 1978 
L 3425 0 
L 2847 0 
L 2847 2094 
Q 2847 2600 2669 2842 
Q 2491 3084 2119 3084 
Q 1678 3084 1418 2786 
Q 1159 2488 1159 1978 
L 1159 0 
L 581 0 
L 581 3500 
L 1159 3500 
L 1159 2956 
Q 1356 3278 1631 3431 
Q 1906 3584 2284 3584 
Q 2666 3584 2933 3390 
Q 3200 3197 3328 2828 
z
" transform="scale(0.015625)"/>
       <path id="DejaVuSans-28" d="M 1984 4856 
Q 1566 4138 1362 3434 
Q 1159 2731 1159 2009 
Q 1159 1288 1364 580 
Q 1569 -128 1984 -844 
L 1484 -844 
Q 1016 -109 783 600 
Q 550 1309 550 2009 
Q 550 2706 781 3412 
Q 1013 4119 1484 4856 
L 1984 4856 
z
" transform="scale(0.015625)"/>
       <path id="DejaVuSans-29" d="M 513 4856 
L 1013 4856 
Q 1481 4119 1714 3412 
Q 1947 2706 1947 2009 
Q 1947 1309 1714 600 
Q 1481 -109 1013 -844 
L 513 -844 
Q 928 -128 1133 580 
Q 1338 1288 1338 2009 
Q 1338 2731 1133 3434 
Q 928 4138 513 4856 
z
" transform="scale(0.015625)"/>
      </defs>
      <use xlink:href="#DejaVuSans-52"/>
      <use xlink:href="#DejaVuSans-65" x="64.982422"/>
      <use xlink:href="#DejaVuSans-74" x="126.505859"/>
      <use xlink:href="#DejaVuSans-65" x="165.714844"/>
      <use xlink:href="#DejaVuSans-6e" x="227.238281"/>
      <use xlink:href="#DejaVuSans-74" x="290.617188"/>
      <use xlink:href="#DejaVuSans-69" x="329.826172"/>
      <use xlink:href="#DejaVuSans-6f" x="357.609375"/>
      <use xlink:href="#DejaVuSans-6e" x="418.791016"/>
      <use xlink:href="#DejaVuSans-20" x="482.169922"/>
      <use xlink:href="#DejaVuSans-54" x="513.957031"/>
      <use xlink:href="#DejaVuSans-69" x="571.916016"/>
      <use xlink:href="#DejaVuSans-6d" x="599.699219"/>
      <use xlink:href="#DejaVuSans-65" x="697.111328"/>
      <use xlink:href="#DejaVuSans-20" x="758.634766"/>
      <use xlink:href="#DejaVuSans-28" x="790.421875"/>
      <use xlink:href="#DejaVuSans-6d" x="829.435547"/>
      <use xlink:href="#DejaVuSans-69" x="926.847656"/>
      <use xlink:href="#DejaVuSans-6e" x="954.630859"/>
      <use xlink:href="#DejaVuSans-29" x="1018.009766"/>
     </g>
    </g>
   </g>
   <g id="matplotlib.axis_2">
    <g id="text_9">
     <!-- Chromatograms at λ=210nm -->
     <g transform="translate(153.959338 298.663437) rotate(-90) scale(0.12 -0.12)">
      <defs>
       <path id="DejaVuSans-43" d="M 4122 4306 
L 4122 3641 
Q 3803 3938 3442 4084 
Q 3081 4231 2675 4231 
Q 1875 4231 1450 3742 
Q 1025 3253 1025 2328 
Q 1025 1406 1450 917 
Q 1875 428 2675 428 
Q 3081 428 3442 575 
Q 3803 722 4122 1019 
L 4122 359 
Q 3791 134 3420 21 
Q 3050 -91 2638 -91 
Q 1578 -91 968 557 
Q 359 1206 359 2328 
Q 359 3453 968 4101 
Q 1578 4750 2638 4750 
Q 3056 4750 3426 4639 
Q 3797 4528 4122 4306 
z
" transform="scale(0.015625)"/>
       <path id="DejaVuSans-68" d="M 3513 2113 
L 3513 0 
L 2938 0 
L 2938 2094 
Q 2938 2591 2744 2837 
Q 2550 3084 2163 3084 
Q 1697 3084 1428 2787 
Q 1159 2491 1159 1978 
L 1159 0 
L 581 0 
L 581 4863 
L 1159 4863 
L 1159 2956 
Q 1366 3272 1645 3428 
Q 1925 3584 2291 3584 
Q 2894 3584 3203 3211 
Q 3513 2838 3513 2113 
z
" transform="scale(0.015625)"/>
       <path id="DejaVuSans-72" d="M 2631 2963 
Q 2534 3019 2420 3045 
Q 2306 3072 2169 3072 
Q 1681 3072 1420 2755 
Q 1159 2438 1159 1844 
L 1159 0 
L 581 0 
L 581 3500 
L 1159 3500 
L 1159 2956 
Q 1341 3275 1631 3429 
Q 1922 3584 2338 3584 
Q 2397 3584 2469 3576 
Q 2541 3569 2628 3553 
L 2631 2963 
z
" transform="scale(0.015625)"/>
       <path id="DejaVuSans-61" d="M 2194 1759 
Q 1497 1759 1228 1600 
Q 959 1441 959 1056 
Q 959 750 1161 570 
Q 1363 391 1709 391 
Q 2188 391 2477 730 
Q 2766 1069 2766 1631 
L 2766 1759 
L 2194 1759 
z
M 3341 1997 
L 3341 0 
L 2766 0 
L 2766 531 
Q 2569 213 2275 61 
Q 1981 -91 1556 -91 
Q 1019 -91 701 211 
Q 384 513 384 1019 
Q 384 1609 779 1909 
Q 1175 2209 1959 2209 
L 2766 2209 
L 2766 2266 
Q 2766 2663 2505 2880 
Q 2244 3097 1772 3097 
Q 1472 3097 1187 3025 
Q 903 2953 641 2809 
L 641 3341 
Q 956 3463 1253 3523 
Q 1550 3584 1831 3584 
Q 2591 3584 2966 3190 
Q 3341 2797 3341 1997 
z
" transform="scale(0.015625)"/>
       <path id="DejaVuSans-67" d="M 2906 1791 
Q 2906 2416 2648 2759 
Q 2391 3103 1925 3103 
Q 1463 3103 1205 2759 
Q 947 2416 947 1791 
Q 947 1169 1205 825 
Q 1463 481 1925 481 
Q 2391 481 2648 825 
Q 2906 1169 2906 1791 
z
M 3481 434 
Q 3481 -459 3084 -895 
Q 2688 -1331 1869 -1331 
Q 1566 -1331 1297 -1286 
Q 1028 -1241 775 -1147 
L 775 -588 
Q 1028 -725 1275 -790 
Q 1522 -856 1778 -856 
Q 2344 -856 2625 -561 
Q 2906 -266 2906 331 
L 2906 616 
Q 2728 306 2450 153 
Q 2172 0 1784 0 
Q 1141 0 747 490 
Q 353 981 353 1791 
Q 353 2603 747 3093 
Q 1141 3584 1784 3584 
Q 2172 3584 2450 3431 
Q 2728 3278 2906 2969 
L 2906 3500 
L 3481 3500 
L 3481 434 
z
" transform="scale(0.015625)"/>
       <path id="DejaVuSans-73" d="M 2834 3397 
L 2834 2853 
Q 2591 2978 2328 3040 
Q 2066 3103 1784 3103 
Q 1356 3103 1142 2972 
Q 928 2841 928 2578 
Q 928 2378 1081 2264 
Q 1234 2150 1697 2047 
L 1894 2003 
Q 2506 1872 2764 1633 
Q 3022 1394 3022 966 
Q 3022 478 2636 193 
Q 2250 -91 1575 -91 
Q 1294 -91 989 -36 
Q 684 19 347 128 
L 347 722 
Q 666 556 975 473 
Q 1284 391 1588 391 
Q 1994 391 2212 530 
Q 2431 669 2431 922 
Q 2431 1156 2273 1281 
Q 2116 1406 1581 1522 
L 1381 1569 
Q 847 1681 609 1914 
Q 372 2147 372 2553 
Q 372 3047 722 3315 
Q 1072 3584 1716 3584 
Q 2034 3584 2315 3537 
Q 2597 3491 2834 3397 
z
" transform="scale(0.015625)"/>
       <path id="DejaVuSans-3bb" d="M 1981 4316 
L 3597 0 
L 2988 0 
L 2006 2588 
L 800 0 
L 191 0 
L 1725 3356 
L 1494 3975 
Q 1347 4369 1013 4369 
L 713 4369 
L 713 4863 
L 1078 4856 
Q 1784 4847 1981 4316 
z
" transform="scale(0.015625)"/>
       <path id="DejaVuSans-3d" d="M 678 2906 
L 4684 2906 
L 4684 2381 
L 678 2381 
L 678 2906 
z
M 678 1631 
L 4684 1631 
L 4684 1100 
L 678 1100 
L 678 1631 
z
" transform="scale(0.015625)"/>
      </defs>
      <use xlink:href="#DejaVuSans-43"/>
      <use xlink:href="#DejaVuSans-68" x="69.824219"/>
      <use xlink:href="#DejaVuSans-72" x="133.203125"/>
      <use xlink:href="#DejaVuSans-6f" x="172.066406"/>
      <use xlink:href="#DejaVuSans-6d" x="233.248047"/>
      <use xlink:href="#DejaVuSans-61" x="330.660156"/>
      <use xlink:href="#DejaVuSans-74" x="391.939453"/>
      <use xlink:href="#DejaVuSans-6f" x="431.148438"/>
      <use xlink:href="#DejaVuSans-67" x="492.330078"/>
      <use xlink:href="#DejaVuSans-72" x="555.806641"/>
      <use xlink:href="#DejaVuSans-61" x="596.919922"/>
      <use xlink:href="#DejaVuSans-6d" x="658.199219"/>
      <use xlink:href="#DejaVuSans-73" x="755.611328"/>
      <use xlink:href="#DejaVuSans-20" x="807.710938"/>
      <use xlink:href="#DejaVuSans-61" x="839.498047"/>
      <use xlink:href="#DejaVuSans-74" x="900.777344"/>
      <use xlink:href="#DejaVuSans-20" x="939.986328"/>
      <use xlink:href="#DejaVuSans-3bb" x="971.773438"/>
      <use xlink:href="#DejaVuSans-3d" x="1030.953125"/>
      <use xlink:href="#DejaVuSans-32" x="1114.742188"/>
      <use xlink:href="#DejaVuSans-31" x="1178.365234"/>
      <use xlink:href="#DejaVuSans-30" x="1241.988281"/>
      <use xlink:href="#DejaVuSans-6e" x="1305.611328"/>
      <use xlink:href="#DejaVuSans-6d" x="1368.990234"/>
     </g>
    </g>
   </g>
   <g id="line2d_8">
    <path d="M 161.288882 396.027876 
L 165.255635 396.301758 
L 169.943615 396.900897 
L 173.910368 397.255869 
L 174.270982 397.162069 
L 174.631596 396.951556 
L 175.352824 396.142441 
L 176.074052 395.187793 
L 176.434665 394.933602 
L 176.795279 394.932886 
L 177.155893 395.179021 
L 178.958963 397.305633 
L 179.68019 397.574861 
L 181.48326 397.865211 
L 185.089399 398.048694 
L 186.892468 399.024645 
L 187.253082 399.638104 
L 188.334924 402.462846 
L 188.695538 403.049276 
L 189.056152 403.186933 
L 189.416765 402.679088 
L 190.859221 398.742707 
L 191.219835 398.424432 
L 191.580449 398.32365 
L 192.301677 398.456116 
L 193.744132 398.885735 
L 194.825974 398.772781 
L 195.547202 398.716393 
L 196.268429 398.895759 
L 198.071499 399.614296 
L 198.792727 399.517811 
L 200.95641 398.705295 
L 201.677638 398.750763 
L 202.398865 399.01462 
L 204.562549 400.233484 
L 205.283777 400.220774 
L 206.005004 399.913418 
L 207.44746 399.112179 
L 208.168688 398.90274 
L 209.250529 398.878753 
L 210.332371 399.096427 
L 212.13544 399.730293 
L 214.659738 400.639473 
L 215.741579 400.816691 
L 217.905263 401.054413 
L 223.314471 402.090868 
L 230.166135 402.98179 
L 235.575343 403.496974 
L 240.623938 403.906007 
L 243.508849 404.030059 
L 246.033146 403.984949 
L 247.836215 404.151605 
L 249.278671 404.167716 
L 254.327265 404.815187 
L 259.015246 405.088353 
L 277.767168 406.005589 
L 280.291465 406.067704 
L 284.979446 406.346419 
L 286.782515 406.326729 
L 289.306813 406.213059 
L 293.273565 406.428405 
L 299.404002 406.616542 
L 306.976893 406.769773 
L 315.631627 406.907072 
L 322.48329 406.929806 
L 325.728815 406.960774 
L 331.859252 407.036494 
L 368.281254 406.894541 
L 380.90274 406.782482 
L 391.721157 406.620301 
L 395.68791 406.587722 
L 403.621415 406.445948 
L 419.488427 406.20554 
L 430.306843 406.019909 
L 442.928329 405.884937 
L 444.731399 405.811186 
L 447.255696 405.452097 
L 450.140607 405.800088 
L 451.943677 405.7113 
L 454.467974 405.383358 
L 456.992271 405.707362 
L 459.877182 405.666011 
L 466.728846 405.535335 
L 473.941124 405.450665 
L 482.235243 405.232096 
L 482.595857 404.98972 
L 482.956471 404.400068 
L 483.317085 403.112286 
L 483.677699 400.58595 
L 484.038313 396.119349 
L 484.398927 388.978551 
L 485.120154 365.139195 
L 486.201996 319.216548 
L 486.56261 310.189009 
L 486.923224 307.996522 
L 487.283838 313.127063 
L 487.644452 324.513924 
L 489.086907 383.594356 
L 489.447521 392.035824 
L 489.808135 397.318164 
L 490.168749 400.333191 
L 490.529363 401.964131 
L 490.889977 402.850398 
L 491.611204 403.694957 
L 492.332432 404.090922 
L 493.414274 404.376081 
L 494.856729 404.471134 
L 496.659799 404.575138 
L 498.823482 404.752713 
L 500.987165 404.66858 
L 502.790235 404.479906 
L 508.560057 404.750028 
L 522.984613 404.733381 
L 534.163643 404.581403 
L 559.046002 404.127618 
L 562.291527 404.110613 
L 582.485904 403.512727 
L 583.92836 403.462784 
L 587.534499 403.62765 
L 606.647035 403.313312 
L 621.792818 403.00166 
L 641.987196 402.471081 
L 644.511493 402.267012 
L 647.757018 402.434563 
L 658.936049 402.182162 
L 665.427099 402.041462 
L 675.884902 401.793357 
L 684.900249 401.676465 
L 691.391299 401.994204 
L 701.849102 402.468396 
L 708.700765 402.628071 
L 729.976985 402.876712 
L 787.314593 403.222197 
L 809.672654 403.27035 
L 809.672654 403.27035 
" clip-path="url(#p1ced037f03)" style="fill: none; stroke: #8286ff; stroke-linecap: square"/>
   </g>
   <g id="line2d_9">
    <path d="M 161.198729 254.922285 
L 165.165481 254.938146 
L 174.180829 254.948036 
L 175.26267 254.772013 
L 177.426354 254.183319 
L 178.147581 254.378379 
L 179.590037 254.858031 
L 181.393106 254.940556 
L 186.081087 254.933031 
L 187.884156 254.800198 
L 190.408454 255.094815 
L 192.211523 254.983678 
L 201.948098 255.008392 
L 206.636079 255.055006 
L 209.160376 254.880222 
L 212.766515 254.903811 
L 253.15527 255.472432 
L 268.661668 255.532157 
L 314.459631 255.460694 
L 317.344543 255.285392 
L 319.508226 255.458598 
L 373.239695 255.364313 
L 408.219243 255.235332 
L 420.480115 255.136563 
L 423.004412 255.212464 
L 435.265284 255.143457 
L 437.789581 255.082717 
L 438.871423 255.04079 
L 439.953265 254.757707 
L 441.035106 254.314891 
L 441.756334 254.291032 
L 442.477562 254.552802 
L 443.559404 255.019657 
L 444.641245 255.149945 
L 447.526156 255.121851 
L 450.771681 255.107026 
L 454.37782 255.105832 
L 456.541504 255.060818 
L 459.426415 255.138951 
L 475.65404 255.112411 
L 485.390615 255.07134 
L 486.83307 254.848861 
L 487.914912 254.707241 
L 488.996754 254.846563 
L 490.439209 255.025515 
L 496.209031 255.069537 
L 498.012101 254.934631 
L 499.81517 254.661664 
L 500.897012 254.800401 
L 502.339468 254.982168 
L 506.30622 255.026484 
L 519.648934 254.954367 
L 521.812618 254.837845 
L 525.77937 255.001386 
L 527.58244 254.855643 
L 529.024895 254.717898 
L 530.827965 254.916179 
L 532.631034 254.984196 
L 534.07349 254.898944 
L 536.597787 254.517701 
L 539.482698 254.978969 
L 543.088837 254.89329 
L 545.25252 254.881124 
L 548.858659 254.942269 
L 564.72567 254.874027 
L 565.807512 254.675204 
L 567.971195 253.932071 
L 568.692423 254.145109 
L 569.774265 254.637986 
L 570.495493 254.769715 
L 576.625929 254.832325 
L 577.347156 254.591936 
L 577.70777 254.282561 
L 578.068384 253.658293 
L 578.428998 252.349106 
L 578.789612 249.620813 
L 579.150226 244.330718 
L 579.51084 235.393308 
L 580.232068 207.606138 
L 580.953295 178.955302 
L 581.313909 169.817448 
L 581.674523 166.445217 
L 582.035137 169.194081 
L 582.395751 176.910102 
L 584.559434 237.84895 
L 585.280662 247.205926 
L 585.641276 249.808618 
L 586.00189 251.462978 
L 586.362504 252.477614 
L 586.723118 253.094899 
L 587.444345 253.727458 
L 588.165573 254.014145 
L 589.608029 254.254039 
L 591.411098 254.332892 
L 594.296009 254.321695 
L 597.18092 254.429611 
L 620.981437 254.775055 
L 655.239756 254.735155 
L 664.615718 254.711905 
L 692.743601 254.729433 
L 720.150256 254.824485 
L 809.582501 254.884999 
L 809.582501 254.884999 
" clip-path="url(#p1ced037f03)" style="fill: none; stroke: #5445ff; stroke-linecap: square"/>
   </g>
   <g id="line2d_10">
    <path d="M 161.266344 91.044943 
L 161.987572 91.30391 
L 163.430027 91.538495 
L 164.872483 91.96088 
L 166.675552 92.863308 
L 168.839235 94.228975 
L 170.281691 94.966008 
L 174.969672 96.72935 
L 175.690899 96.687836 
L 176.412127 96.354409 
L 176.772741 96.027901 
L 177.133355 95.543904 
L 177.493969 94.85201 
L 178.215197 92.64256 
L 178.936424 90.293744 
L 179.297038 89.759338 
L 179.657652 89.741876 
L 180.018266 90.175133 
L 180.739494 91.825796 
L 181.100108 92.297272 
L 181.460722 92.135171 
L 182.181949 91.030117 
L 182.542563 90.913813 
L 182.903177 91.324007 
L 183.263791 92.245215 
L 185.06686 99.479794 
L 185.427474 103.195267 
L 185.788088 109.576839 
L 186.509316 128.748573 
L 187.230544 149.975233 
L 187.591158 154.183927 
L 187.951772 151.821931 
L 188.312385 144.567584 
L 189.754841 101.947551 
L 190.115455 97.219277 
L 190.476069 95.038162 
L 190.836683 94.175271 
L 191.197297 93.954524 
L 191.55791 94.060614 
L 192.639752 95.014111 
L 194.803435 96.938565 
L 196.245891 99.316376 
L 196.606505 99.575342 
L 196.967119 99.587203 
L 197.327733 99.377328 
L 198.04896 98.544749 
L 199.130802 97.282865 
L 199.85203 96.88585 
L 200.573258 96.901994 
L 201.294485 97.286489 
L 202.015713 98.016603 
L 202.736941 99.077837 
L 204.179397 101.38481 
L 204.54001 101.702093 
L 204.900624 101.824328 
L 205.261238 101.738665 
L 205.621852 101.463884 
L 206.34308 100.541688 
L 207.424922 99.102877 
L 208.146149 98.563199 
L 208.867377 98.434705 
L 209.588605 98.668631 
L 210.309833 99.189199 
L 211.391674 100.34631 
L 214.637199 104.259467 
L 215.358427 104.765867 
L 216.440269 105.199454 
L 217.882724 105.824795 
L 219.32518 106.530527 
L 222.570705 107.587808 
L 226.898072 108.921846 
L 229.782983 109.564649 
L 232.667894 110.159348 
L 236.99526 111.254518 
L 239.519558 111.47856 
L 245.28938 112.016261 
L 253.944113 113.101876 
L 262.95946 114.216156 
L 266.565599 114.481711 
L 270.532352 114.869831 
L 273.056649 114.999314 
L 275.94156 115.397648 
L 279.187085 115.59665 
L 283.153838 115.866159 
L 292.890413 116.549158 
L 299.020849 116.713235 
L 301.90576 116.937607 
L 313.084791 117.046004 
L 319.215227 117.156048 
L 330.033644 117.157036 
L 331.476099 116.989005 
L 332.557941 116.903671 
L 336.885308 117.202833 
L 353.473547 116.991311 
L 356.358458 116.702033 
L 362.12828 116.940572 
L 380.158974 116.658213 
L 386.650024 116.317208 
L 387.731866 116.143246 
L 388.813708 116.237146 
L 390.256163 116.424617 
L 394.222916 116.455587 
L 399.992738 116.336647 
L 407.926244 116.136657 
L 412.25361 115.910967 
L 412.614224 115.768964 
L 412.974838 115.504397 
L 413.335452 115.07048 
L 414.05668 113.690316 
L 414.777908 112.224488 
L 415.138522 111.81693 
L 415.499135 111.764214 
L 415.859749 112.071283 
L 416.580977 113.389836 
L 417.302205 114.708719 
L 418.023433 115.394353 
L 418.74466 115.614112 
L 419.826502 115.645082 
L 420.908344 115.50275 
L 422.350799 115.150872 
L 423.072027 115.204906 
L 424.875097 115.607852 
L 426.678166 115.566009 
L 430.284305 115.243784 
L 433.169216 115.314291 
L 435.332899 115.281014 
L 438.578424 115.252679 
L 442.905791 115.103757 
L 448.675613 114.924524 
L 458.412188 114.570999 
L 460.575872 114.499503 
L 464.18201 114.14466 
L 466.345694 114.235924 
L 468.148763 114.162122 
L 471.754902 114.037252 
L 474.279199 114.102817 
L 482.212705 113.839567 
L 484.015774 113.657039 
L 487.261299 113.723922 
L 487.982527 113.552926 
L 488.703755 113.17469 
L 489.785597 112.541112 
L 490.506824 112.541771 
L 491.588666 113.114067 
L 492.309894 113.39346 
L 493.391735 113.492302 
L 497.719102 113.421466 
L 504.210152 113.202695 
L 509.61936 112.78064 
L 510.701202 112.577354 
L 511.783044 112.652145 
L 513.586113 112.901556 
L 515.389183 112.86828 
L 518.995322 112.80535 
L 524.765144 112.479171 
L 527.650055 112.097641 
L 530.534966 112.184622 
L 531.616808 111.938505 
L 532.338035 111.444625 
L 533.780491 109.830863 
L 534.141105 109.69545 
L 534.501719 109.783419 
L 535.222947 110.49014 
L 535.944174 111.344135 
L 536.304788 111.614633 
L 537.026016 111.757624 
L 538.829085 111.589922 
L 541.353383 111.883483 
L 543.517066 111.880848 
L 544.598908 111.855149 
L 547.844433 111.424856 
L 550.008116 111.406735 
L 550.729344 111.173468 
L 551.450572 110.532642 
L 552.171799 109.276689 
L 552.893027 107.157186 
L 553.974869 103.409754 
L 554.335483 102.896435 
L 554.696097 103.06183 
L 555.05671 103.890786 
L 555.777938 106.813875 
L 556.499166 109.555753 
L 556.85978 110.376472 
L 557.220394 110.852231 
L 557.941622 111.226513 
L 559.023463 111.34084 
L 561.54776 111.266709 
L 564.432672 111.149087 
L 566.596355 111.092088 
L 571.284335 110.662125 
L 573.808633 110.139251 
L 574.169247 109.877649 
L 574.52986 109.304365 
L 574.890474 108.104752 
L 575.251088 105.77142 
L 575.611702 101.569315 
L 575.972316 94.617425 
L 576.33293 84.199143 
L 577.775385 29.023204 
L 578.135999 24.893913 
L 578.496613 28.311871 
L 578.857227 38.490296 
L 580.299683 93.338408 
L 580.660297 99.803667 
L 581.02091 103.252595 
L 581.381524 104.866357 
L 581.742138 105.585927 
L 584.987663 108.944909 
L 585.708891 109.392334 
L 586.790733 109.642075 
L 588.593802 109.748824 
L 591.118099 109.55773 
L 593.642397 109.199922 
L 596.166694 109.4322 
L 601.936516 109.435495 
L 604.821427 109.261533 
L 605.542655 108.99433 
L 606.624497 108.246425 
L 607.345724 107.829312 
L 608.066952 107.800977 
L 609.148794 108.284315 
L 610.230635 108.658267 
L 611.673091 108.889228 
L 613.115547 108.854963 
L 615.27923 108.658267 
L 617.082299 108.273442 
L 618.164141 108.469149 
L 619.606597 108.770288 
L 621.049052 108.814108 
L 623.212735 108.653655 
L 626.818874 108.130451 
L 628.26133 107.709384 
L 628.982558 107.708395 
L 631.867469 108.085972 
L 633.670538 107.995037 
L 635.834222 108.128474 
L 637.637291 107.893889 
L 641.24343 107.430649 
L 641.964658 107.332466 
L 643.046499 106.898879 
L 643.767727 106.632005 
L 644.488955 106.635959 
L 645.570797 107.076135 
L 646.652638 107.461619 
L 647.73448 107.547942 
L 651.340619 107.309073 
L 652.061847 107.121932 
L 652.783074 106.639913 
L 654.586144 104.827808 
L 654.946758 104.839669 
L 656.028599 105.324325 
L 656.389213 105.206703 
L 656.749827 104.783988 
L 658.192283 102.203552 
L 658.552897 102.09812 
L 658.91351 102.34852 
L 659.634738 103.56889 
L 660.355966 104.86438 
L 661.077194 105.700913 
L 661.798422 106.117038 
L 662.880263 106.338444 
L 664.322719 106.332514 
L 666.486402 106.249486 
L 667.928858 106.231695 
L 669.010699 105.954278 
L 669.731927 105.750993 
L 670.453155 105.750664 
L 672.977452 106.243885 
L 676.944205 106.036647 
L 679.107888 105.75297 
L 680.18973 105.567806 
L 680.910958 105.197478 
L 682.353413 104.293073 
L 682.714027 104.249582 
L 683.435255 104.483179 
L 684.87771 105.352989 
L 685.959552 105.62118 
L 690.286919 106.156245 
L 692.089988 106.315052 
L 693.893058 106.274856 
L 694.974899 105.972729 
L 696.056741 105.319053 
L 697.138583 104.694372 
L 697.85981 104.660106 
L 698.581038 104.984638 
L 700.384108 106.080796 
L 701.826563 106.654409 
L 703.269019 107.042859 
L 704.711474 107.184532 
L 716.251119 107.556178 
L 718.414802 107.576606 
L 733.560585 108.298812 
L 752.673122 108.423023 
L 757.721716 108.427636 
L 772.146272 108.603245 
L 775.391797 108.535703 
L 794.504333 108.879673 
L 804.601522 108.901089 
L 809.650116 109.036503 
L 809.650116 109.036503 
" clip-path="url(#p1ced037f03)" style="fill: none; stroke: #1004ff; stroke-linecap: square"/>
   </g>
   <g id="patch_3">
    <path d="M 160.454963 414.16 
L 160.454963 7.2 
" style="fill: none; stroke: #000000; stroke-width: 0.5; stroke-linejoin: miter; stroke-linecap: square"/>
   </g>
   <g id="patch_4">
    <path d="M 160.454963 414.16 
L 809.559962 414.16 
" style="fill: none; stroke: #000000; stroke-width: 0.5; stroke-linejoin: miter; stroke-linecap: square"/>
   </g>
   <g id="text_10">
    <!-- TIT -->
    <g style="fill: #8286ff" transform="translate(91.1625 354.990679) scale(0.1 -0.1)">
     <defs>
      <path id="DejaVuSans-Bold-54" d="M 31 4666 
L 4331 4666 
L 4331 3756 
L 2784 3756 
L 2784 0 
L 1581 0 
L 1581 3756 
L 31 3756 
L 31 4666 
z
" transform="scale(0.015625)"/>
      <path id="DejaVuSans-Bold-49" d="M 588 4666 
L 1791 4666 
L 1791 0 
L 588 0 
L 588 4666 
z
" transform="scale(0.015625)"/>
     </defs>
     <use xlink:href="#DejaVuSans-Bold-54"/>
     <use xlink:href="#DejaVuSans-Bold-49" x="68.212891"/>
     <use xlink:href="#DejaVuSans-Bold-54" x="105.419922"/>
    </g>
   </g>
   <g id="text_11">
    <!-- DPP -->
    <g style="fill: #5445ff" transform="translate(85.565625 213.439375) scale(0.1 -0.1)">
     <defs>
      <path id="DejaVuSans-Bold-44" d="M 1791 3756 
L 1791 909 
L 2222 909 
Q 2959 909 3348 1275 
Q 3738 1641 3738 2338 
Q 3738 3031 3350 3393 
Q 2963 3756 2222 3756 
L 1791 3756 
z
M 588 4666 
L 1856 4666 
Q 2919 4666 3439 4514 
Q 3959 4363 4331 4000 
Q 4659 3684 4818 3271 
Q 4978 2859 4978 2338 
Q 4978 1809 4818 1395 
Q 4659 981 4331 666 
Q 3956 303 3431 151 
Q 2906 0 1856 0 
L 588 0 
L 588 4666 
z
" transform="scale(0.015625)"/>
      <path id="DejaVuSans-Bold-50" d="M 588 4666 
L 2584 4666 
Q 3475 4666 3951 4270 
Q 4428 3875 4428 3144 
Q 4428 2409 3951 2014 
Q 3475 1619 2584 1619 
L 1791 1619 
L 1791 0 
L 588 0 
L 588 4666 
z
M 1791 3794 
L 1791 2491 
L 2456 2491 
Q 2806 2491 2997 2661 
Q 3188 2831 3188 3144 
Q 3188 3456 2997 3625 
Q 2806 3794 2456 3794 
L 1791 3794 
z
" transform="scale(0.015625)"/>
     </defs>
     <use xlink:href="#DejaVuSans-Bold-44"/>
     <use xlink:href="#DejaVuSans-Bold-50" x="83.007812"/>
     <use xlink:href="#DejaVuSans-Bold-50" x="156.298828"/>
    </g>
   </g>
   <g id="text_12">
    <!-- Degraded DPP-TIT -->
    <g style="fill: #1004ff" transform="translate(7.2 71.849008) scale(0.1 -0.1)">
     <defs>
      <path id="DejaVuSans-Bold-65" d="M 4031 1759 
L 4031 1441 
L 1416 1441 
Q 1456 1047 1700 850 
Q 1944 653 2381 653 
Q 2734 653 3104 758 
Q 3475 863 3866 1075 
L 3866 213 
Q 3469 63 3072 -14 
Q 2675 -91 2278 -91 
Q 1328 -91 801 392 
Q 275 875 275 1747 
Q 275 2603 792 3093 
Q 1309 3584 2216 3584 
Q 3041 3584 3536 3087 
Q 4031 2591 4031 1759 
z
M 2881 2131 
Q 2881 2450 2695 2645 
Q 2509 2841 2209 2841 
Q 1884 2841 1681 2658 
Q 1478 2475 1428 2131 
L 2881 2131 
z
" transform="scale(0.015625)"/>
      <path id="DejaVuSans-Bold-67" d="M 2919 594 
Q 2688 288 2409 144 
Q 2131 0 1766 0 
Q 1125 0 706 504 
Q 288 1009 288 1791 
Q 288 2575 706 3076 
Q 1125 3578 1766 3578 
Q 2131 3578 2409 3434 
Q 2688 3291 2919 2981 
L 2919 3500 
L 4044 3500 
L 4044 353 
Q 4044 -491 3511 -936 
Q 2978 -1381 1966 -1381 
Q 1638 -1381 1331 -1331 
Q 1025 -1281 716 -1178 
L 716 -306 
Q 1009 -475 1290 -558 
Q 1572 -641 1856 -641 
Q 2406 -641 2662 -400 
Q 2919 -159 2919 353 
L 2919 594 
z
M 2181 2772 
Q 1834 2772 1640 2515 
Q 1447 2259 1447 1791 
Q 1447 1309 1634 1061 
Q 1822 813 2181 813 
Q 2531 813 2725 1069 
Q 2919 1325 2919 1791 
Q 2919 2259 2725 2515 
Q 2531 2772 2181 2772 
z
" transform="scale(0.015625)"/>
      <path id="DejaVuSans-Bold-72" d="M 3138 2547 
Q 2991 2616 2845 2648 
Q 2700 2681 2553 2681 
Q 2122 2681 1889 2404 
Q 1656 2128 1656 1613 
L 1656 0 
L 538 0 
L 538 3500 
L 1656 3500 
L 1656 2925 
Q 1872 3269 2151 3426 
Q 2431 3584 2822 3584 
Q 2878 3584 2943 3579 
Q 3009 3575 3134 3559 
L 3138 2547 
z
" transform="scale(0.015625)"/>
      <path id="DejaVuSans-Bold-61" d="M 2106 1575 
Q 1756 1575 1579 1456 
Q 1403 1338 1403 1106 
Q 1403 894 1545 773 
Q 1688 653 1941 653 
Q 2256 653 2472 879 
Q 2688 1106 2688 1447 
L 2688 1575 
L 2106 1575 
z
M 3816 1997 
L 3816 0 
L 2688 0 
L 2688 519 
Q 2463 200 2181 54 
Q 1900 -91 1497 -91 
Q 953 -91 614 226 
Q 275 544 275 1050 
Q 275 1666 698 1953 
Q 1122 2241 2028 2241 
L 2688 2241 
L 2688 2328 
Q 2688 2594 2478 2717 
Q 2269 2841 1825 2841 
Q 1466 2841 1156 2769 
Q 847 2697 581 2553 
L 581 3406 
Q 941 3494 1303 3539 
Q 1666 3584 2028 3584 
Q 2975 3584 3395 3211 
Q 3816 2838 3816 1997 
z
" transform="scale(0.015625)"/>
      <path id="DejaVuSans-Bold-64" d="M 2919 2988 
L 2919 4863 
L 4044 4863 
L 4044 0 
L 2919 0 
L 2919 506 
Q 2688 197 2409 53 
Q 2131 -91 1766 -91 
Q 1119 -91 703 423 
Q 288 938 288 1747 
Q 288 2556 703 3070 
Q 1119 3584 1766 3584 
Q 2128 3584 2408 3439 
Q 2688 3294 2919 2988 
z
M 2181 722 
Q 2541 722 2730 984 
Q 2919 1247 2919 1747 
Q 2919 2247 2730 2509 
Q 2541 2772 2181 2772 
Q 1825 2772 1636 2509 
Q 1447 2247 1447 1747 
Q 1447 1247 1636 984 
Q 1825 722 2181 722 
z
" transform="scale(0.015625)"/>
      <path id="DejaVuSans-Bold-20" transform="scale(0.015625)"/>
      <path id="DejaVuSans-Bold-2d" d="M 347 2297 
L 2309 2297 
L 2309 1388 
L 347 1388 
L 347 2297 
z
" transform="scale(0.015625)"/>
     </defs>
     <use xlink:href="#DejaVuSans-Bold-44"/>
     <use xlink:href="#DejaVuSans-Bold-65" x="83.007812"/>
     <use xlink:href="#DejaVuSans-Bold-67" x="150.830078"/>
     <use xlink:href="#DejaVuSans-Bold-72" x="222.412109"/>
     <use xlink:href="#DejaVuSans-Bold-61" x="271.728516"/>
     <use xlink:href="#DejaVuSans-Bold-64" x="339.208984"/>
     <use xlink:href="#DejaVuSans-Bold-65" x="410.791016"/>
     <use xlink:href="#DejaVuSans-Bold-64" x="478.613281"/>
     <use xlink:href="#DejaVuSans-Bold-20" x="550.195312"/>
     <use xlink:href="#DejaVuSans-Bold-44" x="585.009766"/>
     <use xlink:href="#DejaVuSans-Bold-50" x="668.017578"/>
     <use xlink:href="#DejaVuSans-Bold-50" x="741.308594"/>
     <use xlink:href="#DejaVuSans-Bold-2d" x="812.849609"/>
     <use xlink:href="#DejaVuSans-Bold-54" x="839.603516"/>
     <use xlink:href="#DejaVuSans-Bold-49" x="907.816406"/>
     <use xlink:href="#DejaVuSans-Bold-54" x="945.023438"/>
    </g>
   </g>
   <g id="legend_1">
    <g id="text_13">
     <!-- Chromatograms -->
     <g transform="translate(701.242775 23.798437) scale(0.1 -0.1)">
      <use xlink:href="#DejaVuSans-43"/>
      <use xlink:href="#DejaVuSans-68" x="69.824219"/>
      <use xlink:href="#DejaVuSans-72" x="133.203125"/>
      <use xlink:href="#DejaVuSans-6f" x="172.066406"/>
      <use xlink:href="#DejaVuSans-6d" x="233.248047"/>
      <use xlink:href="#DejaVuSans-61" x="330.660156"/>
      <use xlink:href="#DejaVuSans-74" x="391.939453"/>
      <use xlink:href="#DejaVuSans-6f" x="431.148438"/>
      <use xlink:href="#DejaVuSans-67" x="492.330078"/>
      <use xlink:href="#DejaVuSans-72" x="555.806641"/>
      <use xlink:href="#DejaVuSans-61" x="596.919922"/>
      <use xlink:href="#DejaVuSans-6d" x="658.199219"/>
      <use xlink:href="#DejaVuSans-73" x="755.611328"/>
     </g>
    </g>
    <g id="line2d_11">
     <path d="M 682.6959 34.976562 
L 692.6959 34.976562 
L 702.6959 34.976562 
" style="fill: none; stroke: #8286ff; stroke-linecap: square"/>
    </g>
    <g id="text_14">
     <!-- TIT -->
     <g transform="translate(710.6959 38.476562) scale(0.1 -0.1)">
      <defs>
       <path id="DejaVuSans-49" d="M 628 4666 
L 1259 4666 
L 1259 0 
L 628 0 
L 628 4666 
z
" transform="scale(0.015625)"/>
      </defs>
      <use xlink:href="#DejaVuSans-54"/>
      <use xlink:href="#DejaVuSans-49" x="61.083984"/>
      <use xlink:href="#DejaVuSans-54" x="90.576172"/>
     </g>
    </g>
    <g id="line2d_12">
     <path d="M 682.6959 49.654687 
L 692.6959 49.654687 
L 702.6959 49.654687 
" style="fill: none; stroke: #5445ff; stroke-linecap: square"/>
    </g>
    <g id="text_15">
     <!-- DPP -->
     <g transform="translate(710.6959 53.154687) scale(0.1 -0.1)">
      <defs>
       <path id="DejaVuSans-44" d="M 1259 4147 
L 1259 519 
L 2022 519 
Q 2988 519 3436 956 
Q 3884 1394 3884 2338 
Q 3884 3275 3436 3711 
Q 2988 4147 2022 4147 
L 1259 4147 
z
M 628 4666 
L 1925 4666 
Q 3281 4666 3915 4102 
Q 4550 3538 4550 2338 
Q 4550 1131 3912 565 
Q 3275 0 1925 0 
L 628 0 
L 628 4666 
z
" transform="scale(0.015625)"/>
       <path id="DejaVuSans-50" d="M 1259 4147 
L 1259 2394 
L 2053 2394 
Q 2494 2394 2734 2622 
Q 2975 2850 2975 3272 
Q 2975 3691 2734 3919 
Q 2494 4147 2053 4147 
L 1259 4147 
z
M 628 4666 
L 2053 4666 
Q 2838 4666 3239 4311 
Q 3641 3956 3641 3272 
Q 3641 2581 3239 2228 
Q 2838 1875 2053 1875 
L 1259 1875 
L 1259 0 
L 628 0 
L 628 4666 
z
" transform="scale(0.015625)"/>
      </defs>
      <use xlink:href="#DejaVuSans-44"/>
      <use xlink:href="#DejaVuSans-50" x="77.001953"/>
      <use xlink:href="#DejaVuSans-50" x="137.304688"/>
     </g>
    </g>
    <g id="line2d_13">
     <path d="M 682.6959 64.332812 
L 692.6959 64.332812 
L 702.6959 64.332812 
" style="fill: none; stroke: #1004ff; stroke-linecap: square"/>
    </g>
    <g id="text_16">
     <!-- Degraded DPP-TIT -->
     <g transform="translate(710.6959 67.832812) scale(0.1 -0.1)">
      <defs>
       <path id="DejaVuSans-64" d="M 2906 2969 
L 2906 4863 
L 3481 4863 
L 3481 0 
L 2906 0 
L 2906 525 
Q 2725 213 2448 61 
Q 2172 -91 1784 -91 
Q 1150 -91 751 415 
Q 353 922 353 1747 
Q 353 2572 751 3078 
Q 1150 3584 1784 3584 
Q 2172 3584 2448 3432 
Q 2725 3281 2906 2969 
z
M 947 1747 
Q 947 1113 1208 752 
Q 1469 391 1925 391 
Q 2381 391 2643 752 
Q 2906 1113 2906 1747 
Q 2906 2381 2643 2742 
Q 2381 3103 1925 3103 
Q 1469 3103 1208 2742 
Q 947 2381 947 1747 
z
" transform="scale(0.015625)"/>
       <path id="DejaVuSans-2d" d="M 313 2009 
L 1997 2009 
L 1997 1497 
L 313 1497 
L 313 2009 
z
" transform="scale(0.015625)"/>
      </defs>
      <use xlink:href="#DejaVuSans-44"/>
      <use xlink:href="#DejaVuSans-65" x="77.001953"/>
      <use xlink:href="#DejaVuSans-67" x="138.525391"/>
      <use xlink:href="#DejaVuSans-72" x="202.001953"/>
      <use xlink:href="#DejaVuSans-61" x="243.115234"/>
      <use xlink:href="#DejaVuSans-64" x="304.394531"/>
      <use xlink:href="#DejaVuSans-65" x="367.871094"/>
      <use xlink:href="#DejaVuSans-64" x="429.394531"/>
      <use xlink:href="#DejaVuSans-20" x="492.871094"/>
      <use xlink:href="#DejaVuSans-44" x="524.658203"/>
      <use xlink:href="#DejaVuSans-50" x="601.660156"/>
      <use xlink:href="#DejaVuSans-50" x="661.962891"/>
      <use xlink:href="#DejaVuSans-2d" x="720.015625"/>
      <use xlink:href="#DejaVuSans-54" x="746.974609"/>
      <use xlink:href="#DejaVuSans-49" x="808.058594"/>
      <use xlink:href="#DejaVuSans-54" x="837.550781"/>
     </g>
    </g>
   </g>
  </g>
 </g>
 <defs>
  <clipPath id="p1ced037f03">
   <rect x="160.454963" y="7.2" width="649.105" height="406.96"/>
  </clipPath>
 </defs>
</svg>
