<?xml version="1.0" encoding="utf-8" standalone="no"?>
<!DOCTYPE svg PUBLIC "-//W3C//DTD SVG 1.1//EN"
  "http://www.w3.org/Graphics/SVG/1.1/DTD/svg11.dtd">
<svg xmlns:xlink="http://www.w3.org/1999/xlink" width="744.69775pt" height="432.246875pt" viewBox="0 0 744.69775 432.246875" xmlns="http://www.w3.org/2000/svg" version="1.1">
 <metadata>
  <rdf:RDF xmlns:dc="http://purl.org/dc/elements/1.1/" xmlns:cc="http://creativecommons.org/ns#" xmlns:rdf="http://www.w3.org/1999/02/22-rdf-syntax-ns#">
   <cc:Work>
    <dc:type rdf:resource="http://purl.org/dc/dcmitype/StillImage"/>
    <dc:date>2025-07-31T14:19:16.934101</dc:date>
    <dc:format>image/svg+xml</dc:format>
    <dc:creator>
     <cc:Agent>
      <dc:title>Matplotlib v3.7.1, https://matplotlib.org/</dc:title>
     </cc:Agent>
    </dc:creator>
   </cc:Work>
  </rdf:RDF>
 </metadata>
 <defs>
  <style type="text/css">*{stroke-linejoin: round; stroke-linecap: butt}</style>
 </defs>
 <g id="figure_1">
  <g id="patch_1">
   <path d="M 0 432.246875 
L 744.69775 432.246875 
L 744.69775 0 
L 0 0 
z
" style="fill: #ffffff"/>
  </g>
  <g id="axes_1">
   <g id="patch_2">
    <path d="M 105.42275 395.24 
L 737.49775 395.24 
L 737.49775 7.2 
L 105.42275 7.2 
z
" style="fill: #ffffff"/>
   </g>
   <g id="matplotlib.axis_1">
    <g id="xtick_1">
     <g id="line2d_1">
      <defs>
       <path id="m33b0152392" d="M 0 0 
L 0 -3.5 
" style="stroke: #000000; stroke-width: 0.8"/>
      </defs>
      <g>
       <use xlink:href="#m33b0152392" x="105.42275" y="395.24" style="stroke: #000000; stroke-width: 0.8"/>
      </g>
     </g>
     <g id="text_1">
      <!-- 0 -->
      <g transform="translate(102.086188 407.348125) scale(0.12 -0.12)">
       <defs>
        <path id="Helvetica-30" d="M 1731 4475 
Q 2600 4475 2988 3759 
Q 3288 3206 3288 2244 
Q 3288 1331 3016 734 
Q 2622 -122 1728 -122 
Q 922 -122 528 578 
Q 200 1163 200 2147 
Q 200 2909 397 3456 
Q 766 4475 1731 4475 
z
M 1725 391 
Q 2163 391 2422 778 
Q 2681 1166 2681 2222 
Q 2681 2984 2493 3476 
Q 2306 3969 1766 3969 
Q 1269 3969 1039 3501 
Q 809 3034 809 2125 
Q 809 1441 956 1025 
Q 1181 391 1725 391 
z
" transform="scale(0.015625)"/>
       </defs>
       <use xlink:href="#Helvetica-30"/>
      </g>
     </g>
    </g>
    <g id="xtick_2">
     <g id="line2d_2">
      <g>
       <use xlink:href="#m33b0152392" x="189.699417" y="395.24" style="stroke: #000000; stroke-width: 0.8"/>
      </g>
     </g>
     <g id="text_2">
      <!-- 2 -->
      <g transform="translate(186.362854 407.348125) scale(0.12 -0.12)">
       <defs>
        <path id="Helvetica-32" d="M 200 0 
Q 231 578 439 1006 
Q 647 1434 1250 1784 
L 1850 2131 
Q 2253 2366 2416 2531 
Q 2672 2791 2672 3125 
Q 2672 3516 2437 3745 
Q 2203 3975 1813 3975 
Q 1234 3975 1013 3538 
Q 894 3303 881 2888 
L 309 2888 
Q 319 3472 525 3841 
Q 891 4491 1816 4491 
Q 2584 4491 2939 4075 
Q 3294 3659 3294 3150 
Q 3294 2613 2916 2231 
Q 2697 2009 2131 1694 
L 1703 1456 
Q 1397 1288 1222 1134 
Q 909 863 828 531 
L 3272 531 
L 3272 0 
L 200 0 
z
" transform="scale(0.015625)"/>
       </defs>
       <use xlink:href="#Helvetica-32"/>
      </g>
     </g>
    </g>
    <g id="xtick_3">
     <g id="line2d_3">
      <g>
       <use xlink:href="#m33b0152392" x="273.976083" y="395.24" style="stroke: #000000; stroke-width: 0.8"/>
      </g>
     </g>
     <g id="text_3">
      <!-- 4 -->
      <g transform="translate(270.639521 407.348125) scale(0.12 -0.12)">
       <defs>
        <path id="Helvetica-34" d="M 2116 1584 
L 2116 3613 
L 681 1584 
L 2116 1584 
z
M 2125 0 
L 2125 1094 
L 163 1094 
L 163 1644 
L 2213 4488 
L 2688 4488 
L 2688 1584 
L 3347 1584 
L 3347 1094 
L 2688 1094 
L 2688 0 
L 2125 0 
z
" transform="scale(0.015625)"/>
       </defs>
       <use xlink:href="#Helvetica-34"/>
      </g>
     </g>
    </g>
    <g id="xtick_4">
     <g id="line2d_4">
      <g>
       <use xlink:href="#m33b0152392" x="358.25275" y="395.24" style="stroke: #000000; stroke-width: 0.8"/>
      </g>
     </g>
     <g id="text_4">
      <!-- 6 -->
      <g transform="translate(354.916187 407.348125) scale(0.12 -0.12)">
       <defs>
        <path id="Helvetica-36" d="M 1872 4494 
Q 2622 4494 2917 4105 
Q 3213 3716 3213 3303 
L 2656 3303 
Q 2606 3569 2497 3719 
Q 2294 4000 1881 4000 
Q 1409 4000 1131 3564 
Q 853 3128 822 2316 
Q 1016 2600 1309 2741 
Q 1578 2866 1909 2866 
Q 2472 2866 2890 2506 
Q 3309 2147 3309 1434 
Q 3309 825 2912 354 
Q 2516 -116 1781 -116 
Q 1153 -116 697 361 
Q 241 838 241 1966 
Q 241 2800 444 3381 
Q 834 4494 1872 4494 
z
M 1831 384 
Q 2275 384 2495 682 
Q 2716 981 2716 1388 
Q 2716 1731 2519 2042 
Q 2322 2353 1803 2353 
Q 1441 2353 1167 2112 
Q 894 1872 894 1388 
Q 894 963 1142 673 
Q 1391 384 1831 384 
z
" transform="scale(0.015625)"/>
       </defs>
       <use xlink:href="#Helvetica-36"/>
      </g>
     </g>
    </g>
    <g id="xtick_5">
     <g id="line2d_5">
      <g>
       <use xlink:href="#m33b0152392" x="442.529417" y="395.24" style="stroke: #000000; stroke-width: 0.8"/>
      </g>
     </g>
     <g id="text_5">
      <!-- 8 -->
      <g transform="translate(439.192854 407.348125) scale(0.12 -0.12)">
       <defs>
        <path id="Helvetica-38" d="M 1741 2600 
Q 2113 2600 2322 2808 
Q 2531 3016 2531 3303 
Q 2531 3553 2331 3762 
Q 2131 3972 1722 3972 
Q 1316 3972 1134 3762 
Q 953 3553 953 3272 
Q 953 2956 1187 2778 
Q 1422 2600 1741 2600 
z
M 1775 384 
Q 2166 384 2423 595 
Q 2681 806 2681 1225 
Q 2681 1659 2415 1884 
Q 2150 2109 1734 2109 
Q 1331 2109 1076 1879 
Q 822 1650 822 1244 
Q 822 894 1055 639 
Q 1288 384 1775 384 
z
M 975 2384 
Q 741 2484 609 2619 
Q 363 2869 363 3269 
Q 363 3769 725 4128 
Q 1088 4488 1753 4488 
Q 2397 4488 2762 4148 
Q 3128 3809 3128 3356 
Q 3128 2938 2916 2678 
Q 2797 2531 2547 2391 
Q 2825 2263 2984 2097 
Q 3281 1784 3281 1284 
Q 3281 694 2884 283 
Q 2488 -128 1763 -128 
Q 1109 -128 657 226 
Q 206 581 206 1256 
Q 206 1653 400 1942 
Q 594 2231 975 2384 
z
" transform="scale(0.015625)"/>
       </defs>
       <use xlink:href="#Helvetica-38"/>
      </g>
     </g>
    </g>
    <g id="xtick_6">
     <g id="line2d_6">
      <g>
       <use xlink:href="#m33b0152392" x="526.806083" y="395.24" style="stroke: #000000; stroke-width: 0.8"/>
      </g>
     </g>
     <g id="text_6">
      <!-- 10 -->
      <g transform="translate(520.132958 407.348125) scale(0.12 -0.12)">
       <defs>
        <path id="Helvetica-31" d="M 613 3169 
L 613 3600 
Q 1222 3659 1462 3798 
Q 1703 3938 1822 4456 
L 2266 4456 
L 2266 0 
L 1666 0 
L 1666 3169 
L 613 3169 
z
" transform="scale(0.015625)"/>
       </defs>
       <use xlink:href="#Helvetica-31"/>
       <use xlink:href="#Helvetica-30" x="55.615234"/>
      </g>
     </g>
    </g>
    <g id="xtick_7">
     <g id="line2d_7">
      <g>
       <use xlink:href="#m33b0152392" x="611.08275" y="395.24" style="stroke: #000000; stroke-width: 0.8"/>
      </g>
     </g>
     <g id="text_7">
      <!-- 12 -->
      <g transform="translate(604.409625 407.348125) scale(0.12 -0.12)">
       <use xlink:href="#Helvetica-31"/>
       <use xlink:href="#Helvetica-32" x="55.615234"/>
      </g>
     </g>
    </g>
    <g id="xtick_8">
     <g id="line2d_8">
      <g>
       <use xlink:href="#m33b0152392" x="695.359417" y="395.24" style="stroke: #000000; stroke-width: 0.8"/>
      </g>
     </g>
     <g id="text_8">
      <!-- 14 -->
      <g transform="translate(688.686292 407.348125) scale(0.12 -0.12)">
       <use xlink:href="#Helvetica-31"/>
       <use xlink:href="#Helvetica-34" x="55.615234"/>
      </g>
     </g>
    </g>
    <g id="text_9">
     <!-- Retention Time (min) -->
     <g transform="translate(365.448375 422.545625) scale(0.12 -0.12)">
      <defs>
       <path id="Helvetica-52" d="M 2622 2488 
Q 3059 2488 3314 2663 
Q 3569 2838 3569 3294 
Q 3569 3784 3213 3963 
Q 3022 4056 2703 4056 
L 1184 4056 
L 1184 2488 
L 2622 2488 
z
M 563 4591 
L 2688 4591 
Q 3213 4591 3553 4438 
Q 4200 4144 4200 3353 
Q 4200 2941 4029 2678 
Q 3859 2416 3553 2256 
Q 3822 2147 3958 1969 
Q 4094 1791 4109 1391 
L 4131 775 
Q 4141 513 4175 384 
Q 4231 166 4375 103 
L 4375 0 
L 3613 0 
Q 3581 59 3562 153 
Q 3544 247 3531 516 
L 3494 1281 
Q 3472 1731 3159 1884 
Q 2981 1969 2600 1969 
L 1184 1969 
L 1184 0 
L 563 0 
L 563 4591 
z
" transform="scale(0.015625)"/>
       <path id="Helvetica-65" d="M 1806 3422 
Q 2163 3422 2497 3255 
Q 2831 3088 3006 2822 
Q 3175 2569 3231 2231 
Q 3281 2000 3281 1494 
L 828 1494 
Q 844 984 1069 676 
Q 1294 369 1766 369 
Q 2206 369 2469 659 
Q 2619 828 2681 1050 
L 3234 1050 
Q 3213 866 3089 639 
Q 2966 413 2813 269 
Q 2556 19 2178 -69 
Q 1975 -119 1719 -119 
Q 1094 -119 659 336 
Q 225 791 225 1609 
Q 225 2416 662 2919 
Q 1100 3422 1806 3422 
z
M 2703 1941 
Q 2669 2306 2544 2525 
Q 2313 2931 1772 2931 
Q 1384 2931 1121 2651 
Q 859 2372 844 1941 
L 2703 1941 
z
M 1753 3428 
L 1753 3428 
z
" transform="scale(0.015625)"/>
       <path id="Helvetica-74" d="M 525 4281 
L 1094 4281 
L 1094 3347 
L 1628 3347 
L 1628 2888 
L 1094 2888 
L 1094 703 
Q 1094 528 1213 469 
Q 1278 434 1431 434 
Q 1472 434 1519 436 
Q 1566 438 1628 444 
L 1628 0 
Q 1531 -28 1426 -40 
Q 1322 -53 1200 -53 
Q 806 -53 665 148 
Q 525 350 525 672 
L 525 2888 
L 72 2888 
L 72 3347 
L 525 3347 
L 525 4281 
z
" transform="scale(0.015625)"/>
       <path id="Helvetica-6e" d="M 413 3347 
L 947 3347 
L 947 2872 
Q 1184 3166 1450 3294 
Q 1716 3422 2041 3422 
Q 2753 3422 3003 2925 
Q 3141 2653 3141 2147 
L 3141 0 
L 2569 0 
L 2569 2109 
Q 2569 2416 2478 2603 
Q 2328 2916 1934 2916 
Q 1734 2916 1606 2875 
Q 1375 2806 1200 2600 
Q 1059 2434 1017 2257 
Q 975 2081 975 1753 
L 975 0 
L 413 0 
L 413 3347 
z
M 1734 3428 
L 1734 3428 
z
" transform="scale(0.015625)"/>
       <path id="Helvetica-69" d="M 413 3331 
L 984 3331 
L 984 0 
L 413 0 
L 413 3331 
z
M 413 4591 
L 984 4591 
L 984 3953 
L 413 3953 
L 413 4591 
z
" transform="scale(0.015625)"/>
       <path id="Helvetica-6f" d="M 1741 363 
Q 2300 363 2508 786 
Q 2716 1209 2716 1728 
Q 2716 2197 2566 2491 
Q 2328 2953 1747 2953 
Q 1231 2953 997 2559 
Q 763 2166 763 1609 
Q 763 1075 997 719 
Q 1231 363 1741 363 
z
M 1763 3444 
Q 2409 3444 2856 3012 
Q 3303 2581 3303 1744 
Q 3303 934 2909 406 
Q 2516 -122 1688 -122 
Q 997 -122 590 345 
Q 184 813 184 1600 
Q 184 2444 612 2944 
Q 1041 3444 1763 3444 
z
M 1744 3428 
L 1744 3428 
z
" transform="scale(0.015625)"/>
       <path id="Helvetica-20" transform="scale(0.015625)"/>
       <path id="Helvetica-54" d="M 3828 4591 
L 3828 4044 
L 2281 4044 
L 2281 0 
L 1650 0 
L 1650 4044 
L 103 4044 
L 103 4591 
L 3828 4591 
z
" transform="scale(0.015625)"/>
       <path id="Helvetica-6d" d="M 413 3347 
L 969 3347 
L 969 2872 
Q 1169 3119 1331 3231 
Q 1609 3422 1963 3422 
Q 2363 3422 2606 3225 
Q 2744 3113 2856 2894 
Q 3044 3163 3297 3292 
Q 3550 3422 3866 3422 
Q 4541 3422 4784 2934 
Q 4916 2672 4916 2228 
L 4916 0 
L 4331 0 
L 4331 2325 
Q 4331 2659 4164 2784 
Q 3997 2909 3756 2909 
Q 3425 2909 3186 2687 
Q 2947 2466 2947 1947 
L 2947 0 
L 2375 0 
L 2375 2184 
Q 2375 2525 2294 2681 
Q 2166 2916 1816 2916 
Q 1497 2916 1236 2669 
Q 975 2422 975 1775 
L 975 0 
L 413 0 
L 413 3347 
z
" transform="scale(0.015625)"/>
       <path id="Helvetica-28" d="M 1894 4666 
Q 1403 3713 1256 3263 
Q 1034 2578 1034 1681 
Q 1034 775 1288 25 
Q 1444 -438 1903 -1306 
L 1525 -1306 
Q 1069 -594 959 -397 
Q 850 -200 722 138 
Q 547 600 478 1125 
Q 444 1397 444 1644 
Q 444 2569 734 3291 
Q 919 3750 1503 4666 
L 1894 4666 
z
" transform="scale(0.015625)"/>
       <path id="Helvetica-29" d="M 222 -1306 
Q 719 -338 863 106 
Q 1081 778 1081 1681 
Q 1081 2584 828 3334 
Q 672 3797 213 4666 
L 591 4666 
Q 1072 3897 1173 3717 
Q 1275 3538 1394 3222 
Q 1544 2831 1608 2450 
Q 1672 2069 1672 1716 
Q 1672 791 1378 66 
Q 1194 -400 613 -1306 
L 222 -1306 
z
" transform="scale(0.015625)"/>
      </defs>
      <use xlink:href="#Helvetica-52"/>
      <use xlink:href="#Helvetica-65" x="72.216797"/>
      <use xlink:href="#Helvetica-74" x="127.832031"/>
      <use xlink:href="#Helvetica-65" x="155.615234"/>
      <use xlink:href="#Helvetica-6e" x="211.230469"/>
      <use xlink:href="#Helvetica-74" x="266.845703"/>
      <use xlink:href="#Helvetica-69" x="294.628906"/>
      <use xlink:href="#Helvetica-6f" x="316.845703"/>
      <use xlink:href="#Helvetica-6e" x="372.460938"/>
      <use xlink:href="#Helvetica-20" x="428.076172"/>
      <use xlink:href="#Helvetica-54" x="455.859375"/>
      <use xlink:href="#Helvetica-69" x="516.943359"/>
      <use xlink:href="#Helvetica-6d" x="539.160156"/>
      <use xlink:href="#Helvetica-65" x="622.460938"/>
      <use xlink:href="#Helvetica-20" x="678.076172"/>
      <use xlink:href="#Helvetica-28" x="705.859375"/>
      <use xlink:href="#Helvetica-6d" x="739.160156"/>
      <use xlink:href="#Helvetica-69" x="822.460938"/>
      <use xlink:href="#Helvetica-6e" x="844.677734"/>
      <use xlink:href="#Helvetica-29" x="900.292969"/>
     </g>
    </g>
   </g>
   <g id="matplotlib.axis_2">
    <g id="text_10">
     <!-- Chromatograms at λ=380nm -->
     <g transform="translate(98.76775 277.752813) rotate(-90) scale(0.12 -0.12)">
      <defs>
       <path id="Helvetica-43" d="M 2422 4716 
Q 3294 4716 3775 4256 
Q 4256 3797 4309 3213 
L 3703 3213 
Q 3600 3656 3292 3915 
Q 2984 4175 2428 4175 
Q 1750 4175 1333 3698 
Q 916 3222 916 2238 
Q 916 1431 1292 929 
Q 1669 428 2416 428 
Q 3103 428 3463 956 
Q 3653 1234 3747 1688 
L 4353 1688 
Q 4272 963 3816 472 
Q 3269 -119 2341 -119 
Q 1541 -119 997 366 
Q 281 1006 281 2344 
Q 281 3359 819 4009 
Q 1400 4716 2422 4716 
z
M 2297 4716 
L 2297 4716 
z
" transform="scale(0.015625)"/>
       <path id="Helvetica-68" d="M 413 4606 
L 975 4606 
L 975 2894 
Q 1175 3147 1334 3250 
Q 1606 3428 2013 3428 
Q 2741 3428 3000 2919 
Q 3141 2641 3141 2147 
L 3141 0 
L 2563 0 
L 2563 2109 
Q 2563 2478 2469 2650 
Q 2316 2925 1894 2925 
Q 1544 2925 1259 2684 
Q 975 2444 975 1775 
L 975 0 
L 413 0 
L 413 4606 
z
" transform="scale(0.015625)"/>
       <path id="Helvetica-72" d="M 428 3347 
L 963 3347 
L 963 2769 
Q 1028 2938 1284 3180 
Q 1541 3422 1875 3422 
Q 1891 3422 1928 3419 
Q 1966 3416 2056 3406 
L 2056 2813 
Q 2006 2822 1964 2825 
Q 1922 2828 1872 2828 
Q 1447 2828 1219 2554 
Q 991 2281 991 1925 
L 991 0 
L 428 0 
L 428 3347 
z
" transform="scale(0.015625)"/>
       <path id="Helvetica-61" d="M 844 891 
Q 844 647 1022 506 
Q 1200 366 1444 366 
Q 1741 366 2019 503 
Q 2488 731 2488 1250 
L 2488 1703 
Q 2384 1638 2221 1594 
Q 2059 1550 1903 1531 
L 1563 1488 
Q 1256 1447 1103 1359 
Q 844 1213 844 891 
z
M 2206 2028 
Q 2400 2053 2466 2191 
Q 2503 2266 2503 2406 
Q 2503 2694 2298 2823 
Q 2094 2953 1713 2953 
Q 1272 2953 1088 2716 
Q 984 2584 953 2325 
L 428 2325 
Q 444 2944 830 3186 
Q 1216 3428 1725 3428 
Q 2316 3428 2684 3203 
Q 3050 2978 3050 2503 
L 3050 575 
Q 3050 488 3086 434 
Q 3122 381 3238 381 
Q 3275 381 3322 386 
Q 3369 391 3422 400 
L 3422 -16 
Q 3291 -53 3222 -62 
Q 3153 -72 3034 -72 
Q 2744 -72 2613 134 
Q 2544 244 2516 444 
Q 2344 219 2022 53 
Q 1700 -113 1313 -113 
Q 847 -113 551 170 
Q 256 453 256 878 
Q 256 1344 547 1600 
Q 838 1856 1309 1916 
L 2206 2028 
z
M 1741 3428 
L 1741 3428 
z
" transform="scale(0.015625)"/>
       <path id="Helvetica-67" d="M 1594 3406 
Q 1988 3406 2281 3213 
Q 2441 3103 2606 2894 
L 2606 3316 
L 3125 3316 
L 3125 272 
Q 3125 -366 2938 -734 
Q 2588 -1416 1616 -1416 
Q 1075 -1416 706 -1173 
Q 338 -931 294 -416 
L 866 -416 
Q 906 -641 1028 -763 
Q 1219 -950 1628 -950 
Q 2275 -950 2475 -494 
Q 2594 -225 2584 466 
Q 2416 209 2178 84 
Q 1941 -41 1550 -41 
Q 1006 -41 598 345 
Q 191 731 191 1622 
Q 191 2463 602 2934 
Q 1013 3406 1594 3406 
z
M 2606 1688 
Q 2606 2309 2350 2609 
Q 2094 2909 1697 2909 
Q 1103 2909 884 2353 
Q 769 2056 769 1575 
Q 769 1009 998 714 
Q 1228 419 1616 419 
Q 2222 419 2469 966 
Q 2606 1275 2606 1688 
z
M 1659 3428 
L 1659 3428 
z
" transform="scale(0.015625)"/>
       <path id="Helvetica-73" d="M 747 1050 
Q 772 769 888 619 
Q 1100 347 1625 347 
Q 1938 347 2175 483 
Q 2413 619 2413 903 
Q 2413 1119 2222 1231 
Q 2100 1300 1741 1391 
L 1294 1503 
Q 866 1609 663 1741 
Q 300 1969 300 2372 
Q 300 2847 642 3140 
Q 984 3434 1563 3434 
Q 2319 3434 2653 2991 
Q 2863 2709 2856 2384 
L 2325 2384 
Q 2309 2575 2191 2731 
Q 1997 2953 1519 2953 
Q 1200 2953 1036 2831 
Q 872 2709 872 2509 
Q 872 2291 1088 2159 
Q 1213 2081 1456 2022 
L 1828 1931 
Q 2434 1784 2641 1647 
Q 2969 1431 2969 969 
Q 2969 522 2630 197 
Q 2291 -128 1597 -128 
Q 850 -128 539 211 
Q 228 550 206 1050 
L 747 1050 
z
M 1578 3428 
L 1578 3428 
z
" transform="scale(0.015625)"/>
       <path id="Helvetica-3bb" d="M 609 4600 
Q 738 4634 928 4634 
Q 1253 4634 1416 4466 
Q 1575 4294 1716 3909 
L 3006 722 
Q 3053 628 3116 544 
Q 3181 459 3284 459 
L 3444 459 
L 3444 0 
L 3116 0 
Q 2656 0 2484 475 
L 1703 2534 
L 738 0 
L 116 0 
L 1428 3219 
L 1197 3834 
Q 1075 4147 813 4134 
L 609 4134 
L 609 4600 
z
" transform="scale(0.015625)"/>
       <path id="Helvetica-3d" d="M 3547 2569 
L 3547 2044 
L 288 2044 
L 288 2569 
L 3547 2569 
z
M 3547 1228 
L 3547 694 
L 288 694 
L 288 1228 
L 3547 1228 
z
" transform="scale(0.015625)"/>
       <path id="Helvetica-33" d="M 1663 -122 
Q 869 -122 511 314 
Q 153 750 153 1375 
L 741 1375 
Q 778 941 903 744 
Q 1122 391 1694 391 
Q 2138 391 2406 628 
Q 2675 866 2675 1241 
Q 2675 1703 2392 1887 
Q 2109 2072 1606 2072 
Q 1550 2072 1492 2070 
Q 1434 2069 1375 2066 
L 1375 2563 
Q 1463 2553 1522 2550 
Q 1581 2547 1650 2547 
Q 1966 2547 2169 2647 
Q 2525 2822 2525 3272 
Q 2525 3606 2287 3787 
Q 2050 3969 1734 3969 
Q 1172 3969 956 3594 
Q 838 3388 822 3006 
L 266 3006 
Q 266 3506 466 3856 
Q 809 4481 1675 4481 
Q 2359 4481 2734 4176 
Q 3109 3872 3109 3294 
Q 3109 2881 2888 2625 
Q 2750 2466 2531 2375 
Q 2884 2278 3082 2001 
Q 3281 1725 3281 1325 
Q 3281 684 2859 281 
Q 2438 -122 1663 -122 
z
" transform="scale(0.015625)"/>
      </defs>
      <use xlink:href="#Helvetica-43"/>
      <use xlink:href="#Helvetica-68" x="72.216797"/>
      <use xlink:href="#Helvetica-72" x="127.832031"/>
      <use xlink:href="#Helvetica-6f" x="161.132812"/>
      <use xlink:href="#Helvetica-6d" x="216.748047"/>
      <use xlink:href="#Helvetica-61" x="300.048828"/>
      <use xlink:href="#Helvetica-74" x="355.664062"/>
      <use xlink:href="#Helvetica-6f" x="383.447266"/>
      <use xlink:href="#Helvetica-67" x="439.0625"/>
      <use xlink:href="#Helvetica-72" x="494.677734"/>
      <use xlink:href="#Helvetica-61" x="527.978516"/>
      <use xlink:href="#Helvetica-6d" x="583.59375"/>
      <use xlink:href="#Helvetica-73" x="666.894531"/>
      <use xlink:href="#Helvetica-20" x="716.894531"/>
      <use xlink:href="#Helvetica-61" x="744.677734"/>
      <use xlink:href="#Helvetica-74" x="800.292969"/>
      <use xlink:href="#Helvetica-20" x="828.076172"/>
      <use xlink:href="#Helvetica-3bb" x="855.859375"/>
      <use xlink:href="#Helvetica-3d" x="911.474609"/>
      <use xlink:href="#Helvetica-33" x="969.873047"/>
      <use xlink:href="#Helvetica-38" x="1025.488281"/>
      <use xlink:href="#Helvetica-30" x="1081.103516"/>
      <use xlink:href="#Helvetica-6e" x="1136.71875"/>
      <use xlink:href="#Helvetica-6d" x="1192.333984"/>
     </g>
    </g>
   </g>
   <g id="line2d_9">
    <path d="M 106.072383 384.545158 
L 117.309272 384.770701 
L 125.175094 385.003419 
L 126.298783 385.173397 
L 127.422472 385.834152 
L 127.703394 385.852394 
L 127.984316 385.737294 
L 129.108005 384.847104 
L 129.669849 384.778792 
L 135.569216 385.148133 
L 137.254749 385.032042 
L 138.65936 385.210263 
L 140.063972 385.36635 
L 141.468583 385.185533 
L 142.873194 385.095316 
L 145.401494 385.298877 
L 148.77256 385.529687 
L 217.03666 387.571714 
L 233.891994 387.73406 
L 282.491538 387.664145 
L 298.223183 387.573317 
L 353.283938 387.193671 
L 355.812238 387.137495 
L 356.09316 387.053384 
L 356.374083 386.823719 
L 356.655005 386.256998 
L 356.935927 385.007083 
L 357.216849 382.538546 
L 357.497772 378.156211 
L 357.778694 371.131697 
L 358.340538 347.609844 
L 359.183305 302.188755 
L 359.464227 293.269447 
L 359.745149 291.131707 
L 360.026072 296.259901 
L 360.587916 322.85754 
L 361.430683 366.143332 
L 361.992527 379.632203 
L 362.273449 382.565337 
L 362.554372 384.135745 
L 362.835294 384.975026 
L 363.397138 385.753017 
L 363.958983 386.120222 
L 364.801749 386.407895 
L 366.20636 386.617791 
L 369.015583 386.769222 
L 400.759794 386.839671 
L 447.11196 386.583216 
L 457.22516 386.522536 
L 479.698938 386.377975 
L 491.216749 386.288139 
L 497.397038 386.286613 
L 526.051105 386.303786 
L 542.906438 386.385378 
L 565.94206 386.431327 
L 581.673705 386.463231 
L 641.79106 386.565126 
L 645.443049 386.841655 
L 653.308872 387.516683 
L 659.48916 387.852594 
L 668.197749 388.090273 
L 679.434638 388.073939 
L 696.009049 387.780466 
L 718.201905 387.163751 
L 737.304616 386.541465 
L 737.304616 386.541465 
" clip-path="url(#p579061198e)" style="fill: none; stroke: #8286ff; stroke-linecap: square"/>
   </g>
   <g id="line2d_10">
    <path d="M 105.42275 385.77561 
L 737.49775 385.77561 
" clip-path="url(#p579061198e)" style="fill: none; stroke-dasharray: 1.85,0.8; stroke-dashoffset: 0; stroke: #808080; stroke-opacity: 0.5; stroke-width: 0.5"/>
   </g>
   <g id="line2d_11">
    <path d="M 106.002152 253.351726 
L 108.530452 253.355053 
L 115.272585 253.415763 
L 125.385785 253.430006 
L 126.790397 253.270994 
L 128.47593 253.675353 
L 130.161463 253.461061 
L 135.498985 253.483126 
L 138.870052 253.585457 
L 140.274663 253.682183 
L 141.679274 253.490365 
L 143.083885 253.381497 
L 145.612185 253.524631 
L 149.826019 253.747796 
L 175.109019 254.473155 
L 182.974841 254.767654 
L 191.964352 254.881659 
L 210.224297 254.829589 
L 337.201141 253.983044 
L 341.134052 253.958994 
L 344.224197 253.866588 
L 345.628808 253.797706 
L 348.43803 253.917899 
L 359.674919 253.644882 
L 360.517685 253.522646 
L 361.360452 253.660234 
L 362.484141 253.824908 
L 366.978897 253.823157 
L 390.857285 253.683175 
L 396.194808 253.642255 
L 399.00403 253.510446 
L 400.408641 253.631981 
L 429.624552 253.438412 
L 430.186397 253.213846 
L 430.467319 252.916954 
L 430.748241 252.312779 
L 431.029163 251.035432 
L 431.310085 248.339529 
L 431.591008 243.005515 
L 431.87193 233.725279 
L 432.433774 203.535118 
L 432.995619 171.902994 
L 433.276541 162.03055 
L 433.557463 158.630244 
L 433.838385 162.163176 
L 434.40023 183.677216 
L 435.242997 220.233158 
L 435.804841 236.699568 
L 436.366685 246.015355 
L 436.92853 250.223153 
L 437.490374 251.823194 
L 438.052219 252.431746 
L 438.614063 252.693847 
L 439.737752 252.917479 
L 441.423285 253.045319 
L 450.131874 253.135799 
L 456.874008 253.258093 
L 462.773374 253.304034 
L 489.180063 253.248987 
L 526.823641 253.234218 
L 548.454652 253.304034 
L 596.492352 253.373032 
L 643.968208 253.55446 
L 661.94723 254.505145 
L 673.184119 254.632225 
L 689.196685 254.491835 
L 721.502741 253.833081 
L 737.515308 253.425745 
L 737.515308 253.425745 
" clip-path="url(#p579061198e)" style="fill: none; stroke: #5445ff; stroke-linecap: square"/>
   </g>
   <g id="line2d_12">
    <path d="M 105.42275 253.274146 
L 737.49775 253.274146 
" clip-path="url(#p579061198e)" style="fill: none; stroke-dasharray: 1.85,0.8; stroke-dashoffset: 0; stroke: #808080; stroke-opacity: 0.5; stroke-width: 0.5"/>
   </g>
   <g id="line2d_13">
    <path d="M 106.054825 113.55072 
L 106.897592 113.29778 
L 108.864047 112.991266 
L 110.830503 112.546864 
L 112.516036 112.59451 
L 115.325258 112.827909 
L 122.629236 113.80871 
L 124.033847 113.883582 
L 124.314769 113.954282 
L 124.595692 114.213589 
L 124.876614 115.143451 
L 125.157536 116.996368 
L 125.719381 122.959999 
L 126.281225 130.272423 
L 126.562147 132.059251 
L 126.843069 131.468179 
L 127.123992 129.041537 
L 128.528603 111.799023 
L 128.809525 111.148449 
L 129.090447 111.066331 
L 129.652292 111.515124 
L 130.775981 112.706489 
L 133.585203 114.762065 
L 134.147047 114.745378 
L 135.832581 114.224787 
L 136.675347 114.354551 
L 137.799036 114.8758 
L 139.765492 115.975167 
L 140.327336 115.936084 
L 141.170103 115.510565 
L 142.012869 115.041792 
L 142.855636 114.8657 
L 143.698403 115.004905 
L 144.822092 115.446233 
L 147.069469 116.389268 
L 148.193158 116.613884 
L 150.721458 116.781194 
L 154.373447 116.802711 
L 157.744514 117.361287 
L 171.509703 118.865972 
L 182.184747 120.022646 
L 186.398581 120.442895 
L 190.612414 120.899153 
L 193.702558 121.193371 
L 203.815758 122.142774 
L 208.029592 122.427771 
L 211.400658 122.627796 
L 215.333569 122.834846 
L 222.637547 122.983492 
L 231.346136 123.158926 
L 237.807347 123.107986 
L 238.650114 122.797301 
L 239.211958 122.613963 
L 239.773803 122.651289 
L 241.459336 123.15695 
L 243.706714 123.184395 
L 254.662681 123.154973 
L 278.260147 122.79269 
L 279.664758 122.624941 
L 281.069369 122.63043 
L 282.473981 122.236968 
L 283.035825 122.325234 
L 284.440436 122.686859 
L 287.530581 122.732089 
L 288.935192 122.532065 
L 290.058881 122.437432 
L 293.149025 122.635261 
L 297.643781 122.542165 
L 299.891158 122.464658 
L 301.014847 122.412401 
L 301.576692 122.10962 
L 301.857614 121.683442 
L 302.138536 120.887955 
L 302.419458 119.573633 
L 302.981303 115.336889 
L 303.543147 110.806804 
L 303.824069 109.569989 
L 304.104992 109.4534 
L 304.385914 110.467794 
L 304.947758 114.700587 
L 305.509603 118.901542 
L 306.071447 121.073049 
L 306.633292 121.794323 
L 307.195136 122.015646 
L 307.756981 122.057144 
L 308.318825 121.895763 
L 309.442514 121.200397 
L 310.004358 121.283393 
L 311.408969 122.106327 
L 312.251736 122.120818 
L 314.780036 121.883467 
L 316.184647 122.063731 
L 324.612314 121.881052 
L 326.297847 121.771488 
L 328.826147 121.777417 
L 337.534736 121.445653 
L 339.220269 121.500105 
L 342.310414 121.114108 
L 344.838714 121.200617 
L 345.962403 121.210497 
L 347.367014 121.294811 
L 349.614392 121.269122 
L 351.299925 121.121354 
L 352.423614 121.146604 
L 354.109147 121.187443 
L 356.637447 121.023427 
L 357.761136 120.944383 
L 360.008514 120.988077 
L 360.570358 120.818572 
L 361.132203 120.406227 
L 361.974969 119.68671 
L 362.255892 119.61579 
L 362.817736 119.841943 
L 363.941425 120.682222 
L 364.784192 120.839431 
L 368.436181 120.853703 
L 377.706614 120.402275 
L 378.549381 120.315327 
L 383.605981 120.545432 
L 387.538892 120.476049 
L 389.786269 120.260436 
L 391.190881 120.119255 
L 394.281025 120.109813 
L 394.842869 119.951945 
L 395.404714 119.510837 
L 396.247481 118.580317 
L 396.528403 118.448577 
L 396.809325 118.483488 
L 397.371169 118.978829 
L 398.213936 119.859069 
L 398.775781 119.992346 
L 400.461314 119.844578 
L 401.865925 119.999372 
L 403.551458 120.022865 
L 404.675147 120.105422 
L 409.450825 119.625231 
L 410.012669 119.186099 
L 410.574514 118.321449 
L 411.136358 116.817861 
L 411.979125 114.105343 
L 412.260047 113.734277 
L 412.540969 113.859429 
L 412.821892 114.470921 
L 414.226503 119.197736 
L 414.788347 119.709764 
L 415.631114 119.857093 
L 418.159414 119.83338 
L 424.058781 119.632038 
L 425.744314 119.423889 
L 427.429847 119.026694 
L 427.710769 118.746528 
L 427.991692 118.124937 
L 428.272614 116.825326 
L 428.553536 114.295268 
L 428.834458 109.735542 
L 429.115381 102.17918 
L 429.677225 75.759687 
L 430.519992 30.578065 
L 430.800914 26.12878 
L 431.081836 29.983261 
L 431.362758 41.274001 
L 432.486447 101.932168 
L 432.767369 109.110438 
L 433.048292 112.964259 
L 433.329214 114.789511 
L 433.610136 115.607614 
L 434.171981 116.295075 
L 435.295669 117.477437 
L 436.138436 118.342966 
L 436.700281 118.67473 
L 437.823969 118.92789 
L 438.947658 119.024718 
L 440.914114 118.843137 
L 442.880569 118.511812 
L 444.847025 118.84687 
L 450.465469 119.006494 
L 451.589158 118.915814 
L 452.151003 118.697126 
L 453.836536 117.669338 
L 454.398381 117.88561 
L 455.522069 118.566484 
L 456.645758 118.778365 
L 457.488525 118.764972 
L 458.893136 118.656945 
L 460.016825 118.561434 
L 461.140514 118.354384 
L 461.983281 118.541893 
L 463.106969 118.82162 
L 464.511581 118.843137 
L 469.287258 118.606226 
L 470.691869 118.489856 
L 473.501092 118.46263 
L 474.624781 118.542552 
L 476.029392 118.611934 
L 481.085992 118.11352 
L 482.209681 117.847625 
L 483.052447 118.024376 
L 484.176136 118.357897 
L 485.299825 118.425523 
L 490.356425 118.107152 
L 491.199192 117.912178 
L 491.761036 117.442746 
L 492.322881 116.503443 
L 492.884725 115.517152 
L 493.165647 115.230619 
L 493.446569 115.167603 
L 493.727492 115.337987 
L 494.289336 116.139622 
L 494.851181 116.975509 
L 495.413025 117.484902 
L 495.974869 117.712592 
L 497.098558 117.843234 
L 501.874236 117.908006 
L 503.559769 117.940282 
L 505.807147 117.957189 
L 508.335447 117.833134 
L 510.301903 117.618179 
L 510.863747 117.335817 
L 511.987436 116.591928 
L 512.549281 116.604004 
L 513.111125 116.93467 
L 513.953892 117.473485 
L 514.796658 117.677462 
L 520.415103 117.896369 
L 521.538792 117.701834 
L 522.381558 117.322424 
L 523.505247 116.632328 
L 524.067092 116.530669 
L 524.628936 116.681511 
L 527.157236 117.805249 
L 528.280925 118.015593 
L 530.247381 118.080804 
L 537.270436 118.182244 
L 540.641503 118.210348 
L 545.417181 118.411471 
L 567.048192 118.558141 
L 571.542947 118.571534 
L 575.475858 118.608641 
L 578.846925 118.595467 
L 582.498914 118.607763 
L 586.431825 118.577243 
L 591.488425 118.701956 
L 596.545025 118.729183 
L 607.220069 118.677804 
L 625.199092 118.974657 
L 641.211658 119.186099 
L 643.739958 119.611179 
L 645.706414 120.13682 
L 649.639325 121.23948 
L 657.224225 122.806742 
L 660.033447 123.193837 
L 664.247281 123.624845 
L 669.303881 123.914452 
L 675.484169 123.974613 
L 684.473681 123.758999 
L 690.092125 123.437994 
L 703.295469 122.557535 
L 737.287058 119.516546 
L 737.287058 119.516546 
" clip-path="url(#p579061198e)" style="fill: none; stroke: #1004ff; stroke-linecap: square"/>
   </g>
   <g id="line2d_14">
    <path d="M 105.42275 120.772683 
L 737.49775 120.772683 
" clip-path="url(#p579061198e)" style="fill: none; stroke-dasharray: 1.85,0.8; stroke-dashoffset: 0; stroke: #808080; stroke-opacity: 0.5; stroke-width: 0.5"/>
   </g>
   <g id="patch_3">
    <path d="M 105.42275 395.24 
L 105.42275 7.2 
" style="fill: none; stroke: #000000; stroke-width: 0.5; stroke-linejoin: miter; stroke-linecap: square"/>
   </g>
   <g id="patch_4">
    <path d="M 105.42275 395.24 
L 737.49775 395.24 
" style="fill: none; stroke: #000000; stroke-width: 0.5; stroke-linejoin: miter; stroke-linecap: square"/>
   </g>
   <g id="text_11">
    <!-- TIT -->
    <g style="fill: #8286ff" transform="translate(77.7875 340.99819) scale(0.1 -0.1)">
     <defs>
      <path id="Helvetica-49" d="M 628 4591 
L 1256 4591 
L 1256 0 
L 628 0 
L 628 4591 
z
" transform="scale(0.015625)"/>
     </defs>
     <use xlink:href="#Helvetica-54"/>
     <use xlink:href="#Helvetica-49" x="61.083984"/>
     <use xlink:href="#Helvetica-54" x="88.867188"/>
    </g>
   </g>
   <g id="text_12">
    <!-- DPP -->
    <g style="fill: #5445ff" transform="translate(72.21875 208.496726) scale(0.1 -0.1)">
     <defs>
      <path id="Helvetica-44" d="M 2250 531 
Q 2566 531 2769 597 
Q 3131 719 3363 1066 
Q 3547 1344 3628 1778 
Q 3675 2038 3675 2259 
Q 3675 3113 3336 3584 
Q 2997 4056 2244 4056 
L 1141 4056 
L 1141 531 
L 2250 531 
z
M 516 4591 
L 2375 4591 
Q 3322 4591 3844 3919 
Q 4309 3313 4309 2366 
Q 4309 1634 4034 1044 
Q 3550 0 2369 0 
L 516 0 
L 516 4591 
z
" transform="scale(0.015625)"/>
      <path id="Helvetica-50" d="M 547 4591 
L 2613 4591 
Q 3225 4591 3600 4245 
Q 3975 3900 3975 3275 
Q 3975 2738 3640 2339 
Q 3306 1941 2613 1941 
L 1169 1941 
L 1169 0 
L 547 0 
L 547 4591 
z
M 3347 3272 
Q 3347 3778 2972 3959 
Q 2766 4056 2406 4056 
L 1169 4056 
L 1169 2466 
L 2406 2466 
Q 2825 2466 3086 2644 
Q 3347 2822 3347 3272 
z
" transform="scale(0.015625)"/>
     </defs>
     <use xlink:href="#Helvetica-44"/>
     <use xlink:href="#Helvetica-50" x="72.216797"/>
     <use xlink:href="#Helvetica-50" x="138.916016"/>
    </g>
   </g>
   <g id="text_13">
    <!-- Degraded DPP-TIT -->
    <g style="fill: #1004ff" transform="translate(7.2 75.942919) scale(0.1 -0.1)">
     <defs>
      <path id="Helvetica-64" d="M 769 1634 
Q 769 1097 997 734 
Q 1225 372 1728 372 
Q 2119 372 2370 708 
Q 2622 1044 2622 1672 
Q 2622 2306 2362 2611 
Q 2103 2916 1722 2916 
Q 1297 2916 1033 2591 
Q 769 2266 769 1634 
z
M 1616 3406 
Q 2000 3406 2259 3244 
Q 2409 3150 2600 2916 
L 2600 4606 
L 3141 4606 
L 3141 0 
L 2634 0 
L 2634 466 
Q 2438 156 2169 18 
Q 1900 -119 1553 -119 
Q 994 -119 584 351 
Q 175 822 175 1603 
Q 175 2334 548 2870 
Q 922 3406 1616 3406 
z
" transform="scale(0.015625)"/>
      <path id="Helvetica-2d" d="M 266 2072 
L 1834 2072 
L 1834 1494 
L 266 1494 
L 266 2072 
z
" transform="scale(0.015625)"/>
     </defs>
     <use xlink:href="#Helvetica-44"/>
     <use xlink:href="#Helvetica-65" x="72.216797"/>
     <use xlink:href="#Helvetica-67" x="127.832031"/>
     <use xlink:href="#Helvetica-72" x="183.447266"/>
     <use xlink:href="#Helvetica-61" x="216.748047"/>
     <use xlink:href="#Helvetica-64" x="272.363281"/>
     <use xlink:href="#Helvetica-65" x="327.978516"/>
     <use xlink:href="#Helvetica-64" x="383.59375"/>
     <use xlink:href="#Helvetica-20" x="439.208984"/>
     <use xlink:href="#Helvetica-44" x="466.992188"/>
     <use xlink:href="#Helvetica-50" x="539.208984"/>
     <use xlink:href="#Helvetica-50" x="605.908203"/>
     <use xlink:href="#Helvetica-2d" x="672.607422"/>
     <use xlink:href="#Helvetica-54" x="705.908203"/>
     <use xlink:href="#Helvetica-49" x="766.992188"/>
     <use xlink:href="#Helvetica-54" x="794.775391"/>
    </g>
   </g>
   <g id="legend_1">
    <g id="text_14">
     <!-- Chromatograms -->
     <g transform="translate(635.864937 23.56875) scale(0.1 -0.1)">
      <use xlink:href="#Helvetica-43"/>
      <use xlink:href="#Helvetica-68" x="72.216797"/>
      <use xlink:href="#Helvetica-72" x="127.832031"/>
      <use xlink:href="#Helvetica-6f" x="161.132812"/>
      <use xlink:href="#Helvetica-6d" x="216.748047"/>
      <use xlink:href="#Helvetica-61" x="300.048828"/>
      <use xlink:href="#Helvetica-74" x="355.664062"/>
      <use xlink:href="#Helvetica-6f" x="383.447266"/>
      <use xlink:href="#Helvetica-67" x="439.0625"/>
      <use xlink:href="#Helvetica-72" x="494.677734"/>
      <use xlink:href="#Helvetica-61" x="527.978516"/>
      <use xlink:href="#Helvetica-6d" x="583.59375"/>
      <use xlink:href="#Helvetica-73" x="666.894531"/>
     </g>
    </g>
    <g id="line2d_15">
     <path d="M 614.9165 34.454688 
L 624.9165 34.454688 
L 634.9165 34.454688 
" style="fill: none; stroke: #8286ff; stroke-linecap: square"/>
    </g>
    <g id="text_15">
     <!-- TIT -->
     <g transform="translate(642.9165 37.954688) scale(0.1 -0.1)">
      <use xlink:href="#Helvetica-54"/>
      <use xlink:href="#Helvetica-49" x="61.083984"/>
      <use xlink:href="#Helvetica-54" x="88.867188"/>
     </g>
    </g>
    <g id="line2d_16">
     <path d="M 614.9165 48.7125 
L 624.9165 48.7125 
L 634.9165 48.7125 
" style="fill: none; stroke: #5445ff; stroke-linecap: square"/>
    </g>
    <g id="text_16">
     <!-- DPP -->
     <g transform="translate(642.9165 52.2125) scale(0.1 -0.1)">
      <use xlink:href="#Helvetica-44"/>
      <use xlink:href="#Helvetica-50" x="72.216797"/>
      <use xlink:href="#Helvetica-50" x="138.916016"/>
     </g>
    </g>
    <g id="line2d_17">
     <path d="M 614.9165 62.99375 
L 624.9165 62.99375 
L 634.9165 62.99375 
" style="fill: none; stroke: #1004ff; stroke-linecap: square"/>
    </g>
    <g id="text_17">
     <!-- Degraded DPP-TIT -->
     <g transform="translate(642.9165 66.49375) scale(0.1 -0.1)">
      <use xlink:href="#Helvetica-44"/>
      <use xlink:href="#Helvetica-65" x="72.216797"/>
      <use xlink:href="#Helvetica-67" x="127.832031"/>
      <use xlink:href="#Helvetica-72" x="183.447266"/>
      <use xlink:href="#Helvetica-61" x="216.748047"/>
      <use xlink:href="#Helvetica-64" x="272.363281"/>
      <use xlink:href="#Helvetica-65" x="327.978516"/>
      <use xlink:href="#Helvetica-64" x="383.59375"/>
      <use xlink:href="#Helvetica-20" x="439.208984"/>
      <use xlink:href="#Helvetica-44" x="466.992188"/>
      <use xlink:href="#Helvetica-50" x="539.208984"/>
      <use xlink:href="#Helvetica-50" x="605.908203"/>
      <use xlink:href="#Helvetica-2d" x="672.607422"/>
      <use xlink:href="#Helvetica-54" x="705.908203"/>
      <use xlink:href="#Helvetica-49" x="766.992188"/>
      <use xlink:href="#Helvetica-54" x="794.775391"/>
     </g>
    </g>
   </g>
  </g>
 </g>
 <defs>
  <clipPath id="p579061198e">
   <rect x="105.42275" y="7.2" width="632.075" height="388.04"/>
  </clipPath>
 </defs>
</svg>
