<?xml version="1.0" encoding="utf-8" standalone="no"?>
<!DOCTYPE svg PUBLIC "-//W3C//DTD SVG 1.1//EN"
  "http://www.w3.org/Graphics/SVG/1.1/DTD/svg11.dtd">
<svg xmlns:xlink="http://www.w3.org/1999/xlink" width="385.559375pt" height="273.614688pt" viewBox="0 0 385.559375 273.614688" xmlns="http://www.w3.org/2000/svg" version="1.1">
 <metadata>
  <rdf:RDF xmlns:dc="http://purl.org/dc/elements/1.1/" xmlns:cc="http://creativecommons.org/ns#" xmlns:rdf="http://www.w3.org/1999/02/22-rdf-syntax-ns#">
   <cc:Work>
    <dc:type rdf:resource="http://purl.org/dc/dcmitype/StillImage"/>
    <dc:date>2024-05-28T11:00:26.842115</dc:date>
    <dc:format>image/svg+xml</dc:format>
    <dc:creator>
     <cc:Agent>
      <dc:title>Matplotlib v3.7.1, https://matplotlib.org/</dc:title>
     </cc:Agent>
    </dc:creator>
   </cc:Work>
  </rdf:RDF>
 </metadata>
 <defs>
  <style type="text/css">*{stroke-linejoin: round; stroke-linecap: butt}</style>
 </defs>
 <g id="figure_1">
  <g id="patch_1">
   <path d="M 0 273.614688 
L 385.559375 273.614688 
L 385.559375 0 
L 0 0 
z
" style="fill: #ffffff"/>
  </g>
  <g id="axes_1">
   <g id="patch_2">
    <path d="M 40.378125 239.558437 
L 375.178125 239.558437 
L 375.178125 17.798438 
L 40.378125 17.798438 
z
" style="fill: #ffffff"/>
   </g>
   <g id="matplotlib.axis_1">
    <g id="xtick_1">
     <g id="line2d_1">
      <defs>
       <path id="m52b4bf9e75" d="M 0 0 
L 0 -6 
" style="stroke: #000000; stroke-width: 0.8"/>
      </defs>
      <g>
       <use xlink:href="#m52b4bf9e75" x="40.378125" y="239.558437" style="stroke: #000000; stroke-width: 0.8"/>
      </g>
     </g>
     <g id="text_1">
      <!-- −80 -->
      <g transform="translate(29.825781 250.656875) scale(0.1 -0.1)">
       <defs>
        <path id="DejaVuSans-2212" d="M 678 2272 
L 4684 2272 
L 4684 1741 
L 678 1741 
L 678 2272 
z
" transform="scale(0.015625)"/>
        <path id="DejaVuSans-38" d="M 2034 2216 
Q 1584 2216 1326 1975 
Q 1069 1734 1069 1313 
Q 1069 891 1326 650 
Q 1584 409 2034 409 
Q 2484 409 2743 651 
Q 3003 894 3003 1313 
Q 3003 1734 2745 1975 
Q 2488 2216 2034 2216 
z
M 1403 2484 
Q 997 2584 770 2862 
Q 544 3141 544 3541 
Q 544 4100 942 4425 
Q 1341 4750 2034 4750 
Q 2731 4750 3128 4425 
Q 3525 4100 3525 3541 
Q 3525 3141 3298 2862 
Q 3072 2584 2669 2484 
Q 3125 2378 3379 2068 
Q 3634 1759 3634 1313 
Q 3634 634 3220 271 
Q 2806 -91 2034 -91 
Q 1263 -91 848 271 
Q 434 634 434 1313 
Q 434 1759 690 2068 
Q 947 2378 1403 2484 
z
M 1172 3481 
Q 1172 3119 1398 2916 
Q 1625 2713 2034 2713 
Q 2441 2713 2670 2916 
Q 2900 3119 2900 3481 
Q 2900 3844 2670 4047 
Q 2441 4250 2034 4250 
Q 1625 4250 1398 4047 
Q 1172 3844 1172 3481 
z
" transform="scale(0.015625)"/>
        <path id="DejaVuSans-30" d="M 2034 4250 
Q 1547 4250 1301 3770 
Q 1056 3291 1056 2328 
Q 1056 1369 1301 889 
Q 1547 409 2034 409 
Q 2525 409 2770 889 
Q 3016 1369 3016 2328 
Q 3016 3291 2770 3770 
Q 2525 4250 2034 4250 
z
M 2034 4750 
Q 2819 4750 3233 4129 
Q 3647 3509 3647 2328 
Q 3647 1150 3233 529 
Q 2819 -91 2034 -91 
Q 1250 -91 836 529 
Q 422 1150 422 2328 
Q 422 3509 836 4129 
Q 1250 4750 2034 4750 
z
" transform="scale(0.015625)"/>
       </defs>
       <use xlink:href="#DejaVuSans-2212"/>
       <use xlink:href="#DejaVuSans-38" x="83.789062"/>
       <use xlink:href="#DejaVuSans-30" x="147.412109"/>
      </g>
     </g>
    </g>
    <g id="xtick_2">
     <g id="line2d_2">
      <g>
       <use xlink:href="#m52b4bf9e75" x="82.228125" y="239.558437" style="stroke: #000000; stroke-width: 0.8"/>
      </g>
     </g>
     <g id="text_2">
      <!-- −70 -->
      <g transform="translate(71.675781 250.656875) scale(0.1 -0.1)">
       <defs>
        <path id="DejaVuSans-37" d="M 525 4666 
L 3525 4666 
L 3525 4397 
L 1831 0 
L 1172 0 
L 2766 4134 
L 525 4134 
L 525 4666 
z
" transform="scale(0.015625)"/>
       </defs>
       <use xlink:href="#DejaVuSans-2212"/>
       <use xlink:href="#DejaVuSans-37" x="83.789062"/>
       <use xlink:href="#DejaVuSans-30" x="147.412109"/>
      </g>
     </g>
    </g>
    <g id="xtick_3">
     <g id="line2d_3">
      <g>
       <use xlink:href="#m52b4bf9e75" x="124.078125" y="239.558437" style="stroke: #000000; stroke-width: 0.8"/>
      </g>
     </g>
     <g id="text_3">
      <!-- −60 -->
      <g transform="translate(113.525781 250.656875) scale(0.1 -0.1)">
       <defs>
        <path id="DejaVuSans-36" d="M 2113 2584 
Q 1688 2584 1439 2293 
Q 1191 2003 1191 1497 
Q 1191 994 1439 701 
Q 1688 409 2113 409 
Q 2538 409 2786 701 
Q 3034 994 3034 1497 
Q 3034 2003 2786 2293 
Q 2538 2584 2113 2584 
z
M 3366 4563 
L 3366 3988 
Q 3128 4100 2886 4159 
Q 2644 4219 2406 4219 
Q 1781 4219 1451 3797 
Q 1122 3375 1075 2522 
Q 1259 2794 1537 2939 
Q 1816 3084 2150 3084 
Q 2853 3084 3261 2657 
Q 3669 2231 3669 1497 
Q 3669 778 3244 343 
Q 2819 -91 2113 -91 
Q 1303 -91 875 529 
Q 447 1150 447 2328 
Q 447 3434 972 4092 
Q 1497 4750 2381 4750 
Q 2619 4750 2861 4703 
Q 3103 4656 3366 4563 
z
" transform="scale(0.015625)"/>
       </defs>
       <use xlink:href="#DejaVuSans-2212"/>
       <use xlink:href="#DejaVuSans-36" x="83.789062"/>
       <use xlink:href="#DejaVuSans-30" x="147.412109"/>
      </g>
     </g>
    </g>
    <g id="xtick_4">
     <g id="line2d_4">
      <g>
       <use xlink:href="#m52b4bf9e75" x="165.928125" y="239.558437" style="stroke: #000000; stroke-width: 0.8"/>
      </g>
     </g>
     <g id="text_4">
      <!-- −50 -->
      <g transform="translate(155.375781 250.656875) scale(0.1 -0.1)">
       <defs>
        <path id="DejaVuSans-35" d="M 691 4666 
L 3169 4666 
L 3169 4134 
L 1269 4134 
L 1269 2991 
Q 1406 3038 1543 3061 
Q 1681 3084 1819 3084 
Q 2600 3084 3056 2656 
Q 3513 2228 3513 1497 
Q 3513 744 3044 326 
Q 2575 -91 1722 -91 
Q 1428 -91 1123 -41 
Q 819 9 494 109 
L 494 744 
Q 775 591 1075 516 
Q 1375 441 1709 441 
Q 2250 441 2565 725 
Q 2881 1009 2881 1497 
Q 2881 1984 2565 2268 
Q 2250 2553 1709 2553 
Q 1456 2553 1204 2497 
Q 953 2441 691 2322 
L 691 4666 
z
" transform="scale(0.015625)"/>
       </defs>
       <use xlink:href="#DejaVuSans-2212"/>
       <use xlink:href="#DejaVuSans-35" x="83.789062"/>
       <use xlink:href="#DejaVuSans-30" x="147.412109"/>
      </g>
     </g>
    </g>
    <g id="xtick_5">
     <g id="line2d_5">
      <g>
       <use xlink:href="#m52b4bf9e75" x="207.778125" y="239.558437" style="stroke: #000000; stroke-width: 0.8"/>
      </g>
     </g>
     <g id="text_5">
      <!-- −40 -->
      <g transform="translate(197.225781 250.656875) scale(0.1 -0.1)">
       <defs>
        <path id="DejaVuSans-34" d="M 2419 4116 
L 825 1625 
L 2419 1625 
L 2419 4116 
z
M 2253 4666 
L 3047 4666 
L 3047 1625 
L 3713 1625 
L 3713 1100 
L 3047 1100 
L 3047 0 
L 2419 0 
L 2419 1100 
L 313 1100 
L 313 1709 
L 2253 4666 
z
" transform="scale(0.015625)"/>
       </defs>
       <use xlink:href="#DejaVuSans-2212"/>
       <use xlink:href="#DejaVuSans-34" x="83.789062"/>
       <use xlink:href="#DejaVuSans-30" x="147.412109"/>
      </g>
     </g>
    </g>
    <g id="xtick_6">
     <g id="line2d_6">
      <g>
       <use xlink:href="#m52b4bf9e75" x="249.628125" y="239.558437" style="stroke: #000000; stroke-width: 0.8"/>
      </g>
     </g>
     <g id="text_6">
      <!-- −30 -->
      <g transform="translate(239.075781 250.656875) scale(0.1 -0.1)">
       <defs>
        <path id="DejaVuSans-33" d="M 2597 2516 
Q 3050 2419 3304 2112 
Q 3559 1806 3559 1356 
Q 3559 666 3084 287 
Q 2609 -91 1734 -91 
Q 1441 -91 1130 -33 
Q 819 25 488 141 
L 488 750 
Q 750 597 1062 519 
Q 1375 441 1716 441 
Q 2309 441 2620 675 
Q 2931 909 2931 1356 
Q 2931 1769 2642 2001 
Q 2353 2234 1838 2234 
L 1294 2234 
L 1294 2753 
L 1863 2753 
Q 2328 2753 2575 2939 
Q 2822 3125 2822 3475 
Q 2822 3834 2567 4026 
Q 2313 4219 1838 4219 
Q 1578 4219 1281 4162 
Q 984 4106 628 3988 
L 628 4550 
Q 988 4650 1302 4700 
Q 1616 4750 1894 4750 
Q 2613 4750 3031 4423 
Q 3450 4097 3450 3541 
Q 3450 3153 3228 2886 
Q 3006 2619 2597 2516 
z
" transform="scale(0.015625)"/>
       </defs>
       <use xlink:href="#DejaVuSans-2212"/>
       <use xlink:href="#DejaVuSans-33" x="83.789062"/>
       <use xlink:href="#DejaVuSans-30" x="147.412109"/>
      </g>
     </g>
    </g>
    <g id="xtick_7">
     <g id="line2d_7">
      <g>
       <use xlink:href="#m52b4bf9e75" x="291.478125" y="239.558437" style="stroke: #000000; stroke-width: 0.8"/>
      </g>
     </g>
     <g id="text_7">
      <!-- −20 -->
      <g transform="translate(280.925781 250.656875) scale(0.1 -0.1)">
       <defs>
        <path id="DejaVuSans-32" d="M 1228 531 
L 3431 531 
L 3431 0 
L 469 0 
L 469 531 
Q 828 903 1448 1529 
Q 2069 2156 2228 2338 
Q 2531 2678 2651 2914 
Q 2772 3150 2772 3378 
Q 2772 3750 2511 3984 
Q 2250 4219 1831 4219 
Q 1534 4219 1204 4116 
Q 875 4013 500 3803 
L 500 4441 
Q 881 4594 1212 4672 
Q 1544 4750 1819 4750 
Q 2544 4750 2975 4387 
Q 3406 4025 3406 3419 
Q 3406 3131 3298 2873 
Q 3191 2616 2906 2266 
Q 2828 2175 2409 1742 
Q 1991 1309 1228 531 
z
" transform="scale(0.015625)"/>
       </defs>
       <use xlink:href="#DejaVuSans-2212"/>
       <use xlink:href="#DejaVuSans-32" x="83.789062"/>
       <use xlink:href="#DejaVuSans-30" x="147.412109"/>
      </g>
     </g>
    </g>
    <g id="xtick_8">
     <g id="line2d_8">
      <g>
       <use xlink:href="#m52b4bf9e75" x="333.328125" y="239.558437" style="stroke: #000000; stroke-width: 0.8"/>
      </g>
     </g>
     <g id="text_8">
      <!-- −10 -->
      <g transform="translate(322.775781 250.656875) scale(0.1 -0.1)">
       <defs>
        <path id="DejaVuSans-31" d="M 794 531 
L 1825 531 
L 1825 4091 
L 703 3866 
L 703 4441 
L 1819 4666 
L 2450 4666 
L 2450 531 
L 3481 531 
L 3481 0 
L 794 0 
L 794 531 
z
" transform="scale(0.015625)"/>
       </defs>
       <use xlink:href="#DejaVuSans-2212"/>
       <use xlink:href="#DejaVuSans-31" x="83.789062"/>
       <use xlink:href="#DejaVuSans-30" x="147.412109"/>
      </g>
     </g>
    </g>
    <g id="xtick_9">
     <g id="line2d_9">
      <g>
       <use xlink:href="#m52b4bf9e75" x="375.178125" y="239.558437" style="stroke: #000000; stroke-width: 0.8"/>
      </g>
     </g>
     <g id="text_9">
      <!-- 0 -->
      <g transform="translate(371.996875 250.656875) scale(0.1 -0.1)">
       <use xlink:href="#DejaVuSans-30"/>
      </g>
     </g>
    </g>
    <g id="xtick_10">
     <g id="line2d_10">
      <defs>
       <path id="ma9928c29ac" d="M 0 0 
L 0 -4 
" style="stroke: #000000; stroke-width: 0.6"/>
      </defs>
      <g>
       <use xlink:href="#ma9928c29ac" x="61.303125" y="239.558437" style="stroke: #000000; stroke-width: 0.6"/>
      </g>
     </g>
    </g>
    <g id="xtick_11">
     <g id="line2d_11">
      <g>
       <use xlink:href="#ma9928c29ac" x="103.153125" y="239.558437" style="stroke: #000000; stroke-width: 0.6"/>
      </g>
     </g>
    </g>
    <g id="xtick_12">
     <g id="line2d_12">
      <g>
       <use xlink:href="#ma9928c29ac" x="145.003125" y="239.558437" style="stroke: #000000; stroke-width: 0.6"/>
      </g>
     </g>
    </g>
    <g id="xtick_13">
     <g id="line2d_13">
      <g>
       <use xlink:href="#ma9928c29ac" x="186.853125" y="239.558437" style="stroke: #000000; stroke-width: 0.6"/>
      </g>
     </g>
    </g>
    <g id="xtick_14">
     <g id="line2d_14">
      <g>
       <use xlink:href="#ma9928c29ac" x="228.703125" y="239.558437" style="stroke: #000000; stroke-width: 0.6"/>
      </g>
     </g>
    </g>
    <g id="xtick_15">
     <g id="line2d_15">
      <g>
       <use xlink:href="#ma9928c29ac" x="270.553125" y="239.558437" style="stroke: #000000; stroke-width: 0.6"/>
      </g>
     </g>
    </g>
    <g id="xtick_16">
     <g id="line2d_16">
      <g>
       <use xlink:href="#ma9928c29ac" x="312.403125" y="239.558437" style="stroke: #000000; stroke-width: 0.6"/>
      </g>
     </g>
    </g>
    <g id="xtick_17">
     <g id="line2d_17">
      <g>
       <use xlink:href="#ma9928c29ac" x="354.253125" y="239.558437" style="stroke: #000000; stroke-width: 0.6"/>
      </g>
     </g>
    </g>
    <g id="text_10">
     <!-- V$_D$ (V) -->
     <g transform="translate(192.528125 264.335) scale(0.1 -0.1)">
      <defs>
       <path id="DejaVuSans-56" d="M 1831 0 
L 50 4666 
L 709 4666 
L 2188 738 
L 3669 4666 
L 4325 4666 
L 2547 0 
L 1831 0 
z
" transform="scale(0.015625)"/>
       <path id="DejaVuSans-Oblique-44" d="M 1081 4666 
L 2438 4666 
Q 3519 4666 4070 4208 
Q 4622 3750 4622 2847 
Q 4622 2250 4412 1698 
Q 4203 1147 3834 769 
Q 3463 381 2891 190 
Q 2319 0 1538 0 
L 172 0 
L 1081 4666 
z
M 1613 4147 
L 909 519 
L 1734 519 
Q 2794 519 3375 1128 
Q 3956 1738 3956 2847 
Q 3956 3519 3581 3833 
Q 3206 4147 2406 4147 
L 1613 4147 
z
" transform="scale(0.015625)"/>
       <path id="DejaVuSans-20" transform="scale(0.015625)"/>
       <path id="DejaVuSans-28" d="M 1984 4856 
Q 1566 4138 1362 3434 
Q 1159 2731 1159 2009 
Q 1159 1288 1364 580 
Q 1569 -128 1984 -844 
L 1484 -844 
Q 1016 -109 783 600 
Q 550 1309 550 2009 
Q 550 2706 781 3412 
Q 1013 4119 1484 4856 
L 1984 4856 
z
" transform="scale(0.015625)"/>
       <path id="DejaVuSans-29" d="M 513 4856 
L 1013 4856 
Q 1481 4119 1714 3412 
Q 1947 2706 1947 2009 
Q 1947 1309 1714 600 
Q 1481 -109 1013 -844 
L 513 -844 
Q 928 -128 1133 580 
Q 1338 1288 1338 2009 
Q 1338 2731 1133 3434 
Q 928 4138 513 4856 
z
" transform="scale(0.015625)"/>
      </defs>
      <use xlink:href="#DejaVuSans-56" transform="translate(0 0.125)"/>
      <use xlink:href="#DejaVuSans-Oblique-44" transform="translate(69.365234 -16.28125) scale(0.7)"/>
      <use xlink:href="#DejaVuSans-20" transform="translate(126.000977 0.125)"/>
      <use xlink:href="#DejaVuSans-28" transform="translate(157.788086 0.125)"/>
      <use xlink:href="#DejaVuSans-56" transform="translate(196.801758 0.125)"/>
      <use xlink:href="#DejaVuSans-29" transform="translate(265.209961 0.125)"/>
     </g>
    </g>
   </g>
   <g id="matplotlib.axis_2">
    <g id="ytick_1">
     <g id="line2d_18">
      <defs>
       <path id="m47d6a6eb8c" d="M 0 0 
L 6 0 
" style="stroke: #000000; stroke-width: 0.8"/>
      </defs>
      <g>
       <use xlink:href="#m47d6a6eb8c" x="40.378125" y="239.558437" style="stroke: #000000; stroke-width: 0.8"/>
      </g>
     </g>
     <g id="text_11">
      <!-- $\mathdefault{0.0}$ -->
      <g transform="translate(20.878125 243.357656) scale(0.1 -0.1)">
       <defs>
        <path id="DejaVuSans-2e" d="M 684 794 
L 1344 794 
L 1344 0 
L 684 0 
L 684 794 
z
" transform="scale(0.015625)"/>
       </defs>
       <use xlink:href="#DejaVuSans-30" transform="translate(0 0.78125)"/>
       <use xlink:href="#DejaVuSans-2e" transform="translate(63.623047 0.78125)"/>
       <use xlink:href="#DejaVuSans-30" transform="translate(95.410156 0.78125)"/>
      </g>
     </g>
    </g>
    <g id="ytick_2">
     <g id="line2d_19">
      <g>
       <use xlink:href="#m47d6a6eb8c" x="40.378125" y="210.563326" style="stroke: #000000; stroke-width: 0.8"/>
      </g>
     </g>
     <g id="text_12">
      <!-- $\mathdefault{0.5}$ -->
      <g transform="translate(20.878125 214.362545) scale(0.1 -0.1)">
       <use xlink:href="#DejaVuSans-30" transform="translate(0 0.78125)"/>
       <use xlink:href="#DejaVuSans-2e" transform="translate(63.623047 0.78125)"/>
       <use xlink:href="#DejaVuSans-35" transform="translate(95.410156 0.78125)"/>
      </g>
     </g>
    </g>
    <g id="ytick_3">
     <g id="line2d_20">
      <g>
       <use xlink:href="#m47d6a6eb8c" x="40.378125" y="181.568215" style="stroke: #000000; stroke-width: 0.8"/>
      </g>
     </g>
     <g id="text_13">
      <!-- $\mathdefault{1.0}$ -->
      <g transform="translate(20.878125 185.367433) scale(0.1 -0.1)">
       <use xlink:href="#DejaVuSans-31" transform="translate(0 0.78125)"/>
       <use xlink:href="#DejaVuSans-2e" transform="translate(63.623047 0.78125)"/>
       <use xlink:href="#DejaVuSans-30" transform="translate(95.410156 0.78125)"/>
      </g>
     </g>
    </g>
    <g id="ytick_4">
     <g id="line2d_21">
      <g>
       <use xlink:href="#m47d6a6eb8c" x="40.378125" y="152.573103" style="stroke: #000000; stroke-width: 0.8"/>
      </g>
     </g>
     <g id="text_14">
      <!-- $\mathdefault{1.5}$ -->
      <g transform="translate(20.878125 156.372322) scale(0.1 -0.1)">
       <use xlink:href="#DejaVuSans-31" transform="translate(0 0.09375)"/>
       <use xlink:href="#DejaVuSans-2e" transform="translate(63.623047 0.09375)"/>
       <use xlink:href="#DejaVuSans-35" transform="translate(95.410156 0.09375)"/>
      </g>
     </g>
    </g>
    <g id="ytick_5">
     <g id="line2d_22">
      <g>
       <use xlink:href="#m47d6a6eb8c" x="40.378125" y="123.577992" style="stroke: #000000; stroke-width: 0.8"/>
      </g>
     </g>
     <g id="text_15">
      <!-- $\mathdefault{2.0}$ -->
      <g transform="translate(20.878125 127.377211) scale(0.1 -0.1)">
       <use xlink:href="#DejaVuSans-32" transform="translate(0 0.78125)"/>
       <use xlink:href="#DejaVuSans-2e" transform="translate(63.623047 0.78125)"/>
       <use xlink:href="#DejaVuSans-30" transform="translate(95.410156 0.78125)"/>
      </g>
     </g>
    </g>
    <g id="ytick_6">
     <g id="line2d_23">
      <g>
       <use xlink:href="#m47d6a6eb8c" x="40.378125" y="94.582881" style="stroke: #000000; stroke-width: 0.8"/>
      </g>
     </g>
     <g id="text_16">
      <!-- $\mathdefault{2.5}$ -->
      <g transform="translate(20.878125 98.382099) scale(0.1 -0.1)">
       <use xlink:href="#DejaVuSans-32" transform="translate(0 0.78125)"/>
       <use xlink:href="#DejaVuSans-2e" transform="translate(63.623047 0.78125)"/>
       <use xlink:href="#DejaVuSans-35" transform="translate(95.410156 0.78125)"/>
      </g>
     </g>
    </g>
    <g id="ytick_7">
     <g id="line2d_24">
      <g>
       <use xlink:href="#m47d6a6eb8c" x="40.378125" y="65.587769" style="stroke: #000000; stroke-width: 0.8"/>
      </g>
     </g>
     <g id="text_17">
      <!-- $\mathdefault{3.0}$ -->
      <g transform="translate(20.878125 69.386988) scale(0.1 -0.1)">
       <use xlink:href="#DejaVuSans-33" transform="translate(0 0.78125)"/>
       <use xlink:href="#DejaVuSans-2e" transform="translate(63.623047 0.78125)"/>
       <use xlink:href="#DejaVuSans-30" transform="translate(95.410156 0.78125)"/>
      </g>
     </g>
    </g>
    <g id="ytick_8">
     <g id="line2d_25">
      <g>
       <use xlink:href="#m47d6a6eb8c" x="40.378125" y="36.592658" style="stroke: #000000; stroke-width: 0.8"/>
      </g>
     </g>
     <g id="text_18">
      <!-- $\mathdefault{3.5}$ -->
      <g transform="translate(20.878125 40.391877) scale(0.1 -0.1)">
       <use xlink:href="#DejaVuSans-33" transform="translate(0 0.78125)"/>
       <use xlink:href="#DejaVuSans-2e" transform="translate(63.623047 0.78125)"/>
       <use xlink:href="#DejaVuSans-35" transform="translate(95.410156 0.78125)"/>
      </g>
     </g>
    </g>
    <g id="text_19">
     <!-- -I$_D$ (A) -->
     <g transform="translate(14.798438 143.778437) rotate(-90) scale(0.1 -0.1)">
      <defs>
       <path id="DejaVuSans-2d" d="M 313 2009 
L 1997 2009 
L 1997 1497 
L 313 1497 
L 313 2009 
z
" transform="scale(0.015625)"/>
       <path id="DejaVuSans-49" d="M 628 4666 
L 1259 4666 
L 1259 0 
L 628 0 
L 628 4666 
z
" transform="scale(0.015625)"/>
       <path id="DejaVuSans-41" d="M 2188 4044 
L 1331 1722 
L 3047 1722 
L 2188 4044 
z
M 1831 4666 
L 2547 4666 
L 4325 0 
L 3669 0 
L 3244 1197 
L 1141 1197 
L 716 0 
L 50 0 
L 1831 4666 
z
" transform="scale(0.015625)"/>
      </defs>
      <use xlink:href="#DejaVuSans-2d" transform="translate(0 0.125)"/>
      <use xlink:href="#DejaVuSans-49" transform="translate(36.083984 0.125)"/>
      <use xlink:href="#DejaVuSans-Oblique-44" transform="translate(66.533203 -16.28125) scale(0.7)"/>
      <use xlink:href="#DejaVuSans-20" transform="translate(123.168945 0.125)"/>
      <use xlink:href="#DejaVuSans-28" transform="translate(154.956055 0.125)"/>
      <use xlink:href="#DejaVuSans-41" transform="translate(193.969727 0.125)"/>
      <use xlink:href="#DejaVuSans-29" transform="translate(262.37793 0.125)"/>
     </g>
    </g>
    <g id="text_20">
     <!-- $\times\mathdefault{10^{−7}}\mathdefault{}$ -->
     <g transform="translate(40.378125 14.798438) scale(0.1 -0.1)">
      <defs>
       <path id="DejaVuSans-d7" d="M 4488 3438 
L 3059 2003 
L 4488 575 
L 4116 197 
L 2681 1631 
L 1247 197 
L 878 575 
L 2303 2003 
L 878 3438 
L 1247 3816 
L 2681 2381 
L 4116 3816 
L 4488 3438 
z
" transform="scale(0.015625)"/>
      </defs>
      <use xlink:href="#DejaVuSans-d7" transform="translate(0 0.684375)"/>
      <use xlink:href="#DejaVuSans-31" transform="translate(83.789062 0.684375)"/>
      <use xlink:href="#DejaVuSans-30" transform="translate(147.412109 0.684375)"/>
      <use xlink:href="#DejaVuSans-2212" transform="translate(211.992188 38.965625) scale(0.7)"/>
      <use xlink:href="#DejaVuSans-37" transform="translate(270.644531 38.965625) scale(0.7)"/>
     </g>
    </g>
   </g>
   <g id="line2d_26">
    <path d="M 375.169898 239.553797 
L 370.98449 239.549603 
L 366.793485 239.528323 
L 362.605945 239.113884 
L 358.416523 239.138196 
L 354.228857 239.176866 
L 350.040083 239.212119 
L 345.856039 239.245811 
L 341.666408 239.275302 
L 337.478805 239.298127 
L 333.289048 239.318196 
L 329.101426 239.330415 
L 324.912399 239.339418 
L 320.724461 239.347968 
L 316.541509 239.356836 
L 312.359302 239.36707 
L 308.176258 239.375216 
L 303.995026 239.385117 
L 299.812676 239.394156 
L 295.630581 239.399451 
L 291.452853 239.401217 
L 287.270735 239.404961 
L 283.087132 239.404599 
L 278.906745 239.406148 
L 274.72402 239.406013 
L 270.542173 239.406559 
L 266.360558 239.406674 
L 262.174544 239.404922 
L 257.985146 239.405821 
L 253.797105 239.4048 
L 249.608952 239.403772 
L 245.42087 239.403562 
L 241.231879 239.403692 
L 237.044102 239.402939 
L 232.859676 239.402919 
L 228.672074 239.402241 
L 224.482812 239.402702 
L 220.295672 239.400908 
L 216.106585 239.402245 
L 211.917898 239.402191 
L 207.728523 239.40129 
L 203.546445 239.401262 
L 199.363728 239.400572 
L 195.181984 239.400969 
L 191.000193 239.400538 
L 186.818083 239.400069 
L 182.635637 239.399203 
L 178.455107 239.400242 
L 174.276733 239.397502 
L 170.094846 239.397532 
L 165.913055 239.397303 
L 161.730737 239.395257 
L 157.549919 239.394522 
L 153.368032 239.39296 
L 149.184278 239.391342 
L 144.996532 239.389251 
L 140.807141 239.388021 
L 136.619443 239.385536 
L 132.431266 239.38296 
L 128.243664 239.378872 
L 124.054545 239.377166 
L 119.871238 239.373665 
L 115.682231 239.368945 
L 111.49375 239.36558 
L 107.305621 239.360123 
L 103.117939 239.354224 
L 98.928565 239.347788 
L 94.741394 239.341957 
L 90.554925 239.332097 
L 86.373629 239.323723 
L 82.190896 239.311263 
L 78.023425 239.30199 
L 73.840436 239.29026 
L 69.660353 239.274958 
L 65.478004 239.260515 
L 61.300986 239.239164 
L 57.119274 239.214982 
L 52.937276 239.188484 
L 48.755245 239.152937 
L 44.574045 239.110981 
L 40.391216 239.057897 
" clip-path="url(#p83eee65ea6)" style="fill: none; stroke: #e0f3db; stroke-width: 1.5; stroke-linecap: square"/>
   </g>
   <g id="line2d_27">
    <path d="M 375.17055 225.930836 
L 370.983136 235.662013 
L 366.794551 235.989452 
L 362.606678 236.526978 
L 358.417633 236.937491 
L 354.227875 238.283505 
L 350.039395 238.299049 
L 345.855245 238.425974 
L 341.665821 238.531379 
L 337.4778 238.627882 
L 333.288377 238.712506 
L 329.100631 238.781956 
L 324.911521 238.840669 
L 320.724046 238.890058 
L 316.541277 238.932656 
L 312.358464 238.967971 
L 308.175843 239.002017 
L 303.994212 239.029717 
L 299.813011 239.055107 
L 295.630007 239.078298 
L 291.452765 239.099082 
L 287.270064 239.117292 
L 283.087403 239.133407 
L 278.906282 239.151074 
L 274.724292 239.164034 
L 270.541295 239.176402 
L 266.36035 239.18871 
L 262.173977 239.199643 
L 257.985705 239.208719 
L 253.796809 239.217628 
L 249.609375 239.226258 
L 245.420288 239.234136 
L 241.232151 239.239989 
L 237.043718 239.246195 
L 232.859948 239.253654 
L 228.671404 239.256486 
L 224.48278 239.261674 
L 220.294842 239.266143 
L 216.106761 239.269187 
L 211.917355 239.271204 
L 207.73004 239.274333 
L 203.545806 239.275978 
L 199.363935 239.276252 
L 195.181617 239.277802 
L 190.999571 239.277367 
L 186.81762 239.277099 
L 182.635829 239.274943 
L 178.454086 239.27283 
L 174.276956 239.270454 
L 170.094846 239.265405 
L 165.913118 239.26119 
L 161.7308 239.254793 
L 157.550015 239.249079 
L 153.368304 239.239211 
L 149.184437 239.232402 
L 144.996516 239.222191 
L 140.805321 239.208052 
L 136.61847 239.194057 
L 132.431298 239.180691 
L 128.243441 239.166605 
L 124.054513 239.147871 
L 119.871078 239.128875 
L 115.681879 239.104007 
L 111.493176 239.074362 
L 107.305302 239.039059 
L 103.117045 238.999919 
L 98.928246 238.961605 
L 94.740436 238.92392 
L 90.554925 238.88448 
L 86.373182 238.837549 
L 82.190321 238.792811 
L 78.022946 238.756006 
L 73.840915 238.707653 
L 69.658853 238.683538 
L 65.477141 238.680887 
L 61.299741 238.691389 
L 57.119083 238.705398 
L 52.936094 238.729359 
L 48.755277 238.74288 
L 44.57363 238.761269 
L 40.391088 238.773489 
" clip-path="url(#p83eee65ea6)" style="fill: none; stroke: #ccebc5; stroke-width: 1.5; stroke-linecap: square"/>
   </g>
   <g id="line2d_28">
    <path d="M 375.170801 227.554673 
L 370.983221 235.189063 
L 366.794049 235.309343 
L 362.60605 236.048738 
L 358.417381 236.51003 
L 354.229088 236.865627 
L 350.040461 237.1516 
L 345.855075 238.262926 
L 341.665821 238.247563 
L 337.477301 238.350344 
L 333.288421 238.437848 
L 329.100504 238.514896 
L 324.911165 238.584535 
L 320.723292 238.647314 
L 316.541026 238.708626 
L 312.358257 238.75739 
L 308.175659 238.799871 
L 303.994563 238.836236 
L 299.812756 238.86762 
L 295.628298 238.89602 
L 291.452582 238.920192 
L 287.269665 238.943258 
L 283.087148 238.962888 
L 278.90574 238.982096 
L 274.72398 238.998469 
L 270.541128 239.014812 
L 266.360151 239.030263 
L 262.173562 239.041534 
L 257.985138 239.054128 
L 253.796243 239.065851 
L 249.608808 239.075828 
L 245.419976 239.083816 
L 241.231895 239.094947 
L 237.043511 239.101747 
L 232.859405 239.108769 
L 228.671451 239.117409 
L 224.482508 239.122989 
L 220.294938 239.12844 
L 216.106106 239.134339 
L 211.917227 239.139887 
L 207.729385 239.142773 
L 203.545678 239.147497 
L 199.363313 239.149704 
L 195.181649 239.15343 
L 190.999603 239.154605 
L 186.817748 239.156354 
L 182.635174 239.158008 
L 178.454437 239.159054 
L 174.276046 239.157579 
L 170.094494 239.157095 
L 165.912863 239.156775 
L 161.7308 239.152067 
L 157.549265 239.149316 
L 153.368016 239.145127 
L 149.183847 239.139107 
L 144.995973 239.132315 
L 140.806391 239.124203 
L 136.617464 239.11609 
L 132.431155 239.102487 
L 128.242722 239.09121 
L 124.054114 239.076238 
L 119.870296 239.061811 
L 115.681768 239.046188 
L 111.492761 239.025268 
L 107.30527 238.999827 
L 103.11647 238.969999 
L 98.928341 238.934886 
L 94.740212 238.899481 
L 90.55103 238.86553 
L 86.372799 238.838516 
L 82.190353 238.811398 
L 78.022595 238.770811 
L 73.839031 238.734253 
L 69.658725 238.699671 
L 65.477269 238.667956 
L 61.299453 238.6499 
L 57.118412 238.639197 
L 52.936478 238.641083 
L 48.754479 238.640376 
L 44.573374 238.653132 
L 40.390673 238.66711 
" clip-path="url(#p83eee65ea6)" style="fill: none; stroke: #a8ddb5; stroke-width: 1.5; stroke-linecap: square"/>
   </g>
   <g id="line2d_29">
    <path d="M 375.170843 229.063158 
L 370.982676 234.572541 
L 366.793965 233.698068 
L 362.606134 234.436341 
L 358.417004 235.2147 
L 354.228085 235.586672 
L 350.039832 235.836169 
L 345.855474 236.054034 
L 341.666886 236.237429 
L 337.478554 236.349867 
L 333.289132 236.512778 
L 329.101134 236.584744 
L 324.911457 236.719945 
L 320.723835 236.825386 
L 316.542115 236.921676 
L 312.359055 236.999469 
L 308.176154 237.060547 
L 303.99402 237.152406 
L 299.811415 237.687415 
L 295.628147 237.63405 
L 291.450969 237.673581 
L 287.268324 237.729234 
L 283.085855 237.766631 
L 278.904319 237.787916 
L 274.722304 237.815902 
L 270.53989 237.85655 
L 266.358985 237.869231 
L 262.172469 237.908047 
L 257.983988 237.919889 
L 253.795636 237.965146 
L 249.607387 237.97716 
L 245.418995 237.995501 
L 241.230634 238.036432 
L 237.042106 238.028478 
L 232.856851 238.039269 
L 228.670302 238.059416 
L 224.481455 238.087633 
L 220.294012 238.103389 
L 216.104925 238.113187 
L 211.916588 238.134231 
L 207.728683 238.145758 
L 203.543699 238.156274 
L 199.362371 238.159357 
L 195.180484 238.166336 
L 190.998645 238.163265 
L 186.816055 238.182169 
L 182.634743 238.193679 
L 178.45308 238.184967 
L 174.275423 238.196667 
L 170.093457 238.213594 
L 165.911841 238.192285 
L 161.729396 238.188229 
L 157.549057 238.216415 
L 153.366691 238.212212 
L 149.183719 238.21149 
L 144.995031 238.220366 
L 140.806056 238.219837 
L 136.618278 238.226585 
L 132.429798 238.206603 
L 128.242243 238.215175 
L 124.053556 238.202135 
L 119.870136 238.192145 
L 115.680906 238.179175 
L 111.492473 238.182648 
L 107.303929 238.168636 
L 103.116311 238.164272 
L 98.924095 238.136157 
L 94.739957 238.108414 
L 90.553616 238.077305 
L 86.371426 238.041199 
L 82.189714 238.015597 
L 78.022403 237.991794 
L 73.840245 237.955322 
L 69.658246 237.943717 
L 65.476662 237.900972 
L 61.299166 237.862452 
L 57.11838 237.833177 
L 52.935328 237.821815 
L 48.754255 237.844364 
L 44.572704 237.869096 
L 40.390098 237.863991 
" clip-path="url(#p83eee65ea6)" style="fill: none; stroke: #7bccc4; stroke-width: 1.5; stroke-linecap: square"/>
   </g>
   <g id="line2d_30">
    <path d="M 375.164398 215.147017 
L 370.975101 220.963877 
L 366.792668 224.376472 
L 362.600777 224.908691 
L 358.414953 223.925572 
L 354.226325 223.646306 
L 350.03887 224.004425 
L 345.854427 224.041626 
L 341.665761 224.39334 
L 337.476794 224.515346 
L 333.287751 224.599272 
L 329.099378 224.802186 
L 324.910455 224.792304 
L 320.722957 224.787295 
L 316.540774 224.868063 
L 312.358009 225.124766 
L 308.174486 225.130369 
L 303.992384 225.216159 
L 299.811375 225.243172 
L 295.628817 225.251159 
L 291.451616 225.452049 
L 287.269146 225.585698 
L 283.085791 225.843148 
L 278.904654 225.910954 
L 274.722344 225.935603 
L 270.539835 226.205422 
L 266.358866 226.272345 
L 262.173203 226.46271 
L 257.984372 226.396994 
L 253.795325 226.63785 
L 249.607283 226.839508 
L 245.418987 226.864686 
L 241.2314 226.859385 
L 237.042617 226.974296 
L 232.858543 227.16035 
L 228.670222 227.172381 
L 224.481343 227.262416 
L 220.293581 227.229996 
L 216.105548 227.194967 
L 211.916413 227.261749 
L 207.728667 227.463605 
L 203.544561 227.550956 
L 199.361876 227.457401 
L 195.180739 227.343911 
L 190.998852 227.425046 
L 186.81655 227.647058 
L 182.634983 227.700654 
L 178.453271 227.671401 
L 174.275152 227.767329 
L 170.09376 227.788666 
L 165.91224 227.782356 
L 161.730609 227.89736 
L 157.549313 228.056768 
L 153.366883 228.01458 
L 149.183144 228.078347 
L 144.995366 228.109311 
L 140.806599 228.227424 
L 136.618773 228.116207 
L 132.430564 228.142751 
L 128.241876 228.224003 
L 124.053268 228.335577 
L 119.869913 228.314255 
L 115.681672 228.326086 
L 111.493 228.338217 
L 107.305142 228.269663 
L 103.116087 228.358823 
L 98.927926 228.507715 
L 94.739606 228.443675 
L 90.55451 228.462588 
L 86.372799 228.515808 
L 82.190129 228.502486 
L 78.022882 228.660362 
L 73.840724 228.709999 
L 69.658502 228.79914 
L 65.477014 228.601049 
L 61.300124 228.730664 
L 57.118827 228.648721 
L 52.936158 228.589593 
L 48.75416 228.538043 
L 44.573853 228.650584 
L 40.390929 228.440359 
" clip-path="url(#p83eee65ea6)" style="fill: none; stroke: #4eb3d3; stroke-width: 1.5; stroke-linecap: square"/>
   </g>
   <g id="line2d_31">
    <path d="M 375.171638 239.791695 
L 370.982648 239.339873 
L 366.795012 235.490362 
L 362.604668 226.818061 
L 358.414996 219.365102 
L 354.226073 212.977821 
L 350.041464 211.671266 
L 345.85581 208.015619 
L 341.666471 206.33619 
L 337.478554 205.373609 
L 333.289427 204.380864 
L 329.101426 203.88856 
L 324.912211 203.482374 
L 320.723416 203.032017 
L 316.541193 202.998299 
L 312.358257 202.603717 
L 308.17633 202.149989 
L 303.994978 202.212525 
L 299.812764 202.170933 
L 295.62932 202.354446 
L 291.452247 202.285609 
L 287.270064 202.147414 
L 283.087052 202.047031 
L 278.906706 202.303772 
L 274.724731 202.365221 
L 270.541375 202.561943 
L 266.359863 202.927358 
L 262.173794 203.027534 
L 257.985705 203.024897 
L 253.797208 203.096927 
L 249.60971 203.250179 
L 245.419992 203.481171 
L 241.231624 203.604023 
L 237.041659 203.801594 
L 232.85998 203.758799 
L 228.671691 203.717731 
L 224.482588 204.062464 
L 220.294842 204.293927 
L 216.10534 204.362672 
L 211.916956 204.499232 
L 207.729753 204.61786 
L 203.545854 204.766868 
L 199.363712 204.922143 
L 195.181442 204.862475 
L 190.999347 205.241184 
L 186.817013 205.304688 
L 182.635861 205.328267 
L 178.45482 205.416701 
L 174.276349 205.501936 
L 170.094351 205.536647 
L 165.912336 205.557915 
L 161.730242 205.669923 
L 157.548754 205.840108 
L 153.368128 205.856864 
L 149.184613 205.996026 
L 144.996564 206.013043 
L 140.806487 206.098254 
L 136.61898 206.041602 
L 132.431059 206.173533 
L 128.243648 206.478723 
L 124.054817 206.546092 
L 119.87087 206.43956 
L 115.681145 206.462729 
L 111.492649 206.234312 
L 107.305525 206.286979 
L 103.117588 206.528372 
L 98.926074 206.52392 
L 94.740436 206.752949 
L 90.554446 206.727553 
L 86.372958 206.848148 
L 82.190832 207.034763 
L 78.023744 206.941647 
L 73.842129 206.664372 
L 69.659811 206.829635 
L 65.477588 207.089071 
L 61.300219 207.139452 
L 57.11969 207.056968 
L 52.937276 207.269417 
L 48.75582 207.489165 
L 44.574428 207.397188 
L 40.391567 207.525456 
" clip-path="url(#p83eee65ea6)" style="fill: none; stroke: #2b8cbe; stroke-width: 1.5; stroke-linecap: square"/>
   </g>
   <g id="line2d_32">
    <path d="M 372.657528 274.614688 
L 370.984852 242.814243 
L 366.794594 234.895738 
L 362.604585 222.991169 
L 358.417714 214.065793 
L 354.228043 201.178448 
L 350.03975 190.347515 
L 345.855726 180.66258 
L 341.666344 172.366447 
L 337.478263 165.927646 
L 333.28884 161.518555 
L 329.100172 157.896099 
L 324.911209 155.169818 
L 320.723 153.071486 
L 316.540399 151.383888 
L 312.358384 149.752312 
L 308.175739 148.476282 
L 303.994148 147.204479 
L 299.81155 146.102497 
L 295.628945 145.228409 
L 291.452829 144.999262 
L 287.269937 144.531006 
L 283.087211 144.247848 
L 278.905827 143.820747 
L 274.723398 143.442209 
L 270.540545 143.273287 
L 266.359193 143.068154 
L 262.173411 142.994134 
L 257.985585 143.434776 
L 253.79641 143.672971 
L 249.608329 143.861638 
L 245.419106 143.857419 
L 241.231241 144.132723 
L 237.043208 144.015966 
L 232.859261 144.366476 
L 228.6711 144.687394 
L 224.481758 145.041555 
L 220.293884 145.398304 
L 216.105548 145.642861 
L 211.917419 146.314445 
L 207.729258 146.419937 
L 203.545487 146.531502 
L 199.362754 146.761967 
L 195.179191 146.783493 
L 190.998932 146.828727 
L 186.816662 147.685213 
L 182.635254 147.91403 
L 178.454022 148.249245 
L 174.275743 148.405311 
L 170.0936 148.778723 
L 165.912081 149.007252 
L 161.729731 149.392086 
L 157.54968 149.284616 
L 153.367841 149.846835 
L 149.183894 150.084066 
L 144.995446 150.32072 
L 140.806726 150.687128 
L 136.618565 150.72661 
L 132.430804 151.057812 
L 128.243058 151.157255 
L 124.054098 151.162941 
L 119.869785 151.574517 
L 115.681448 151.594023 
L 111.492808 152.21931 
L 107.305206 152.45692 
L 103.117269 152.901393 
L 98.928629 153.089706 
L 94.740883 153.392757 
L 90.554414 153.605505 
L 86.372799 153.823757 
L 82.191087 153.747125 
L 78.023584 154.120742 
L 73.841873 154.511172 
L 69.659172 154.544852 
L 65.477237 154.801862 
L 61.299932 155.041079 
L 57.119338 155.227167 
L 52.937308 155.532039 
L 48.755596 155.705477 
L 44.573757 155.916485 
L 40.390929 156.14822 
" clip-path="url(#p83eee65ea6)" style="fill: none; stroke: #0868ac; stroke-width: 1.5; stroke-linecap: square"/>
   </g>
   <g id="line2d_33">
    <path d="M 371.625295 274.614688 
L 370.98569 263.021925 
L 366.795305 234.959172 
L 362.604334 220.485616 
L 358.417884 210.204667 
L 354.229254 195.786427 
L 350.040712 182.988683 
L 345.855516 171.239693 
L 341.666595 159.872986 
L 337.478051 149.312561 
L 333.288968 139.634869 
L 329.100927 131.474435 
L 324.911752 124.234214 
L 320.722793 118.28765 
L 316.540818 112.865661 
L 312.357506 108.234198 
L 308.175157 104.330159 
L 303.993812 100.602978 
L 299.812005 97.213988 
L 295.628817 94.565608 
L 291.451153 92.064823 
L 287.268891 89.964858 
L 283.085495 88.085684 
L 278.904782 86.754959 
L 274.722847 85.421235 
L 270.540713 83.952886 
L 266.359368 83.048496 
L 262.172788 82.504432 
L 257.984116 82.296596 
L 253.795612 82.085448 
L 249.607698 81.551997 
L 245.419665 81.323312 
L 241.231209 81.761745 
L 237.042521 81.655421 
L 232.857457 81.79995 
L 228.669711 81.962543 
L 224.482045 82.251947 
L 220.293709 82.562398 
L 216.10534 82.947644 
L 211.91587 83.161628 
L 207.727949 83.529172 
L 203.544258 84.078099 
L 199.362051 84.472954 
L 195.180707 84.716176 
L 190.999156 85.107569 
L 186.81647 85.705826 
L 182.634153 86.135309 
L 178.45284 86.639669 
L 174.275392 86.940446 
L 170.09301 87.581242 
L 165.911825 88.231928 
L 161.729603 88.69655 
L 157.548642 88.851957 
L 153.366372 89.210337 
L 149.182505 89.656006 
L 144.994935 90.041861 
L 140.806263 90.655562 
L 136.617512 91.060734 
L 132.429606 91.617869 
L 128.241046 91.964992 
L 124.052885 92.413034 
L 119.869529 92.744269 
L 115.680985 92.981014 
L 111.492505 93.48478 
L 107.304951 93.904951 
L 103.115768 94.520234 
L 98.927447 94.978016 
L 94.73951 94.835745 
L 90.554606 95.613406 
L 86.372511 95.865512 
L 82.189555 96.30495 
L 78.021988 96.496189 
L 73.840213 96.920068 
L 69.658438 97.416418 
L 65.477173 97.790472 
L 61.300443 98.256496 
L 57.118221 98.684298 
L 52.935935 99.129076 
L 48.75416 99.475293 
L 44.573374 99.989624 
L 40.390801 100.440517 
" clip-path="url(#p83eee65ea6)" style="fill: none; stroke: #084081; stroke-width: 1.5; stroke-linecap: square"/>
   </g>
   <g id="line2d_34">
    <path d="M 371.523324 274.614688 
L 370.986443 266.353299 
L 366.794385 233.74489 
L 362.603705 218.535226 
L 358.417213 208.264191 
L 354.228043 193.308246 
L 350.039958 180.350538 
L 345.855139 167.897881 
L 341.666723 155.503155 
L 337.477512 143.973673 
L 333.288505 132.66893 
L 329.099666 122.049706 
L 324.910619 112.13583 
L 320.722793 103.32467 
L 316.540188 95.457505 
L 312.357634 88.106171 
L 308.175196 81.415198 
L 303.99327 75.330261 
L 299.81096 69.857756 
L 295.627899 64.780055 
L 291.450618 60.242101 
L 287.268683 56.071329 
L 283.085543 52.152679 
L 278.904989 48.731006 
L 274.722049 45.851452 
L 270.539156 43.047566 
L 266.358315 40.811923 
L 262.171662 38.970608 
L 257.983613 37.243116 
L 253.795444 35.791052 
L 249.607371 34.86606 
L 245.418659 33.979487 
L 241.230155 33.516842 
L 237.041196 33.342168 
L 232.857824 33.44307 
L 228.669759 33.147402 
L 224.481423 33.29264 
L 220.293214 33.342662 
L 216.104366 33.60558 
L 211.915359 33.795632 
L 207.727533 34.219693 
L 203.544561 34.753159 
L 199.361748 35.155629 
L 195.179829 35.456867 
L 190.997559 36.058865 
L 186.814954 36.737108 
L 182.633865 37.268152 
L 178.453479 37.713722 
L 174.275056 38.118004 
L 170.092786 38.896226 
L 165.910692 39.424979 
L 161.72898 40.188861 
L 157.548211 40.595435 
L 153.366005 41.349956 
L 149.182505 41.869429 
L 144.994504 42.431261 
L 140.80497 42.836351 
L 136.616602 43.533697 
L 132.429335 44.183525 
L 128.241317 45.013516 
L 124.052885 45.23195 
L 119.869402 46.026456 
L 115.680315 46.702688 
L 111.491388 47.271986 
L 107.303418 47.566302 
L 103.115768 48.3719 
L 98.927639 48.915322 
L 94.739318 49.635115 
L 90.552882 50.283741 
L 86.371362 50.4003 
L 82.188916 50.824245 
L 78.022052 51.507532 
L 73.840532 52.21386 
L 69.658438 52.734224 
L 65.476375 52.997488 
L 61.298783 53.552167 
L 57.11755 53.927556 
L 52.935424 54.465589 
L 48.75467 55.196227 
L 44.573406 55.75501 
L 40.390258 56.227066 
" clip-path="url(#p83eee65ea6)" style="fill: none; stroke: #081d58; stroke-width: 1.5; stroke-linecap: square"/>
   </g>
   <g id="patch_3">
    <path d="M 40.378125 239.558437 
L 40.378125 17.798438 
" style="fill: none; stroke: #000000; stroke-width: 0.8; stroke-linejoin: miter; stroke-linecap: square"/>
   </g>
   <g id="patch_4">
    <path d="M 40.378125 239.558437 
L 375.178125 239.558437 
" style="fill: none; stroke: #000000; stroke-width: 0.8; stroke-linejoin: miter; stroke-linecap: square"/>
   </g>
   <g id="text_21">
    <!-- $V_G$=-40 -->
    <g transform="translate(235.957283 222.839508) scale(0.1 -0.1)">
     <defs>
      <path id="DejaVuSans-Oblique-56" d="M 1319 0 
L 500 4666 
L 1119 4666 
L 1797 653 
L 4063 4666 
L 4750 4666 
L 2053 0 
L 1319 0 
z
" transform="scale(0.015625)"/>
      <path id="DejaVuSans-Oblique-47" d="M 3494 697 
L 3738 1919 
L 2700 1919 
L 2797 2438 
L 4453 2438 
L 4050 384 
Q 3634 156 3143 32 
Q 2653 -91 2156 -91 
Q 1278 -91 783 396 
Q 288 884 288 1753 
Q 288 2475 589 3126 
Q 891 3778 1422 4213 
Q 1756 4484 2153 4617 
Q 2550 4750 3034 4750 
Q 3472 4750 3873 4639 
Q 4275 4528 4641 4306 
L 4513 3634 
Q 4231 3928 3853 4083 
Q 3475 4238 3047 4238 
Q 2550 4238 2172 4048 
Q 1794 3859 1497 3463 
Q 1244 3125 1098 2667 
Q 953 2209 953 1734 
Q 953 1081 1287 751 
Q 1622 422 2284 422 
Q 2616 422 2925 492 
Q 3234 563 3494 697 
z
" transform="scale(0.015625)"/>
      <path id="DejaVuSans-3d" d="M 678 2906 
L 4684 2906 
L 4684 2381 
L 678 2381 
L 678 2906 
z
M 678 1631 
L 4684 1631 
L 4684 1100 
L 678 1100 
L 678 1631 
z
" transform="scale(0.015625)"/>
     </defs>
     <use xlink:href="#DejaVuSans-Oblique-56" transform="translate(0 0.78125)"/>
     <use xlink:href="#DejaVuSans-Oblique-47" transform="translate(68.408203 -15.625) scale(0.7)"/>
     <use xlink:href="#DejaVuSans-3d" transform="translate(125.385742 0.78125)"/>
     <use xlink:href="#DejaVuSans-2d" transform="translate(209.174805 0.78125)"/>
     <use xlink:href="#DejaVuSans-34" transform="translate(245.258789 0.78125)"/>
     <use xlink:href="#DejaVuSans-30" transform="translate(308.881836 0.78125)"/>
    </g>
   </g>
   <g id="text_22">
    <!-- $V_G$=-50 -->
    <g transform="translate(235.95971 199.250179) scale(0.1 -0.1)">
     <use xlink:href="#DejaVuSans-Oblique-56" transform="translate(0 0.78125)"/>
     <use xlink:href="#DejaVuSans-Oblique-47" transform="translate(68.408203 -15.625) scale(0.7)"/>
     <use xlink:href="#DejaVuSans-3d" transform="translate(125.385742 0.78125)"/>
     <use xlink:href="#DejaVuSans-2d" transform="translate(209.174805 0.78125)"/>
     <use xlink:href="#DejaVuSans-35" transform="translate(245.258789 0.78125)"/>
     <use xlink:href="#DejaVuSans-30" transform="translate(308.881836 0.78125)"/>
    </g>
   </g>
   <g id="text_23">
    <!-- $V_G$=-60 -->
    <g transform="translate(235.958329 139.861638) scale(0.1 -0.1)">
     <use xlink:href="#DejaVuSans-Oblique-56" transform="translate(0 0.78125)"/>
     <use xlink:href="#DejaVuSans-Oblique-47" transform="translate(68.408203 -15.625) scale(0.7)"/>
     <use xlink:href="#DejaVuSans-3d" transform="translate(125.385742 0.78125)"/>
     <use xlink:href="#DejaVuSans-2d" transform="translate(209.174805 0.78125)"/>
     <use xlink:href="#DejaVuSans-36" transform="translate(245.258789 0.78125)"/>
     <use xlink:href="#DejaVuSans-30" transform="translate(308.881836 0.78125)"/>
    </g>
   </g>
   <g id="text_24">
    <!-- $V_G$=-70 -->
    <g transform="translate(235.957698 77.551997) scale(0.1 -0.1)">
     <use xlink:href="#DejaVuSans-Oblique-56" transform="translate(0 0.78125)"/>
     <use xlink:href="#DejaVuSans-Oblique-47" transform="translate(68.408203 -15.625) scale(0.7)"/>
     <use xlink:href="#DejaVuSans-3d" transform="translate(125.385742 0.78125)"/>
     <use xlink:href="#DejaVuSans-2d" transform="translate(209.174805 0.78125)"/>
     <use xlink:href="#DejaVuSans-37" transform="translate(245.258789 0.78125)"/>
     <use xlink:href="#DejaVuSans-30" transform="translate(308.881836 0.78125)"/>
    </g>
   </g>
   <g id="text_25">
    <!-- $V_G$=-80 -->
    <g transform="translate(235.957371 30.86606) scale(0.1 -0.1)">
     <use xlink:href="#DejaVuSans-Oblique-56" transform="translate(0 0.78125)"/>
     <use xlink:href="#DejaVuSans-Oblique-47" transform="translate(68.408203 -15.625) scale(0.7)"/>
     <use xlink:href="#DejaVuSans-3d" transform="translate(125.385742 0.78125)"/>
     <use xlink:href="#DejaVuSans-2d" transform="translate(209.174805 0.78125)"/>
     <use xlink:href="#DejaVuSans-38" transform="translate(245.258789 0.78125)"/>
     <use xlink:href="#DejaVuSans-30" transform="translate(308.881836 0.78125)"/>
    </g>
   </g>
  </g>
 </g>
 <defs>
  <clipPath id="p83eee65ea6">
   <rect x="40.378125" y="17.798438" width="334.8" height="221.76"/>
  </clipPath>
 </defs>
</svg>
