<?xml version="1.0" encoding="utf-8" standalone="no"?>
<!DOCTYPE svg PUBLIC "-//W3C//DTD SVG 1.1//EN"
  "http://www.w3.org/Graphics/SVG/1.1/DTD/svg11.dtd">
<svg xmlns:xlink="http://www.w3.org/1999/xlink" width="382.378125pt" height="273.614688pt" viewBox="0 0 382.378125 273.614688" xmlns="http://www.w3.org/2000/svg" version="1.1">
 <metadata>
  <rdf:RDF xmlns:dc="http://purl.org/dc/elements/1.1/" xmlns:cc="http://creativecommons.org/ns#" xmlns:rdf="http://www.w3.org/1999/02/22-rdf-syntax-ns#">
   <cc:Work>
    <dc:type rdf:resource="http://purl.org/dc/dcmitype/StillImage"/>
    <dc:date>2024-05-23T12:31:05.351474</dc:date>
    <dc:format>image/svg+xml</dc:format>
    <dc:creator>
     <cc:Agent>
      <dc:title>Matplotlib v3.7.1, https://matplotlib.org/</dc:title>
     </cc:Agent>
    </dc:creator>
   </cc:Work>
  </rdf:RDF>
 </metadata>
 <defs>
  <style type="text/css">*{stroke-linejoin: round; stroke-linecap: butt}</style>
 </defs>
 <g id="figure_1">
  <g id="patch_1">
   <path d="M 0 273.614688 
L 382.378125 273.614688 
L 382.378125 0 
L 0 0 
z
" style="fill: #ffffff"/>
  </g>
  <g id="axes_1">
   <g id="patch_2">
    <path d="M 40.378125 239.558437 
L 375.178125 239.558437 
L 375.178125 17.798438 
L 40.378125 17.798438 
z
" style="fill: #ffffff"/>
   </g>
   <g id="matplotlib.axis_1">
    <g id="xtick_1">
     <g id="line2d_1">
      <defs>
       <path id="m72297993d2" d="M 0 0 
L 0 -6 
" style="stroke: #000000; stroke-width: 0.8"/>
      </defs>
      <g>
       <use xlink:href="#m72297993d2" x="55.585424" y="239.558437" style="stroke: #000000; stroke-width: 0.8"/>
      </g>
     </g>
     <g id="text_1">
      <!-- −80 -->
      <g transform="translate(45.03308 250.656875) scale(0.1 -0.1)">
       <defs>
        <path id="DejaVuSans-2212" d="M 678 2272 
L 4684 2272 
L 4684 1741 
L 678 1741 
L 678 2272 
z
" transform="scale(0.015625)"/>
        <path id="DejaVuSans-38" d="M 2034 2216 
Q 1584 2216 1326 1975 
Q 1069 1734 1069 1313 
Q 1069 891 1326 650 
Q 1584 409 2034 409 
Q 2484 409 2743 651 
Q 3003 894 3003 1313 
Q 3003 1734 2745 1975 
Q 2488 2216 2034 2216 
z
M 1403 2484 
Q 997 2584 770 2862 
Q 544 3141 544 3541 
Q 544 4100 942 4425 
Q 1341 4750 2034 4750 
Q 2731 4750 3128 4425 
Q 3525 4100 3525 3541 
Q 3525 3141 3298 2862 
Q 3072 2584 2669 2484 
Q 3125 2378 3379 2068 
Q 3634 1759 3634 1313 
Q 3634 634 3220 271 
Q 2806 -91 2034 -91 
Q 1263 -91 848 271 
Q 434 634 434 1313 
Q 434 1759 690 2068 
Q 947 2378 1403 2484 
z
M 1172 3481 
Q 1172 3119 1398 2916 
Q 1625 2713 2034 2713 
Q 2441 2713 2670 2916 
Q 2900 3119 2900 3481 
Q 2900 3844 2670 4047 
Q 2441 4250 2034 4250 
Q 1625 4250 1398 4047 
Q 1172 3844 1172 3481 
z
" transform="scale(0.015625)"/>
        <path id="DejaVuSans-30" d="M 2034 4250 
Q 1547 4250 1301 3770 
Q 1056 3291 1056 2328 
Q 1056 1369 1301 889 
Q 1547 409 2034 409 
Q 2525 409 2770 889 
Q 3016 1369 3016 2328 
Q 3016 3291 2770 3770 
Q 2525 4250 2034 4250 
z
M 2034 4750 
Q 2819 4750 3233 4129 
Q 3647 3509 3647 2328 
Q 3647 1150 3233 529 
Q 2819 -91 2034 -91 
Q 1250 -91 836 529 
Q 422 1150 422 2328 
Q 422 3509 836 4129 
Q 1250 4750 2034 4750 
z
" transform="scale(0.015625)"/>
       </defs>
       <use xlink:href="#DejaVuSans-2212"/>
       <use xlink:href="#DejaVuSans-38" x="83.789062"/>
       <use xlink:href="#DejaVuSans-30" x="147.412109"/>
      </g>
     </g>
    </g>
    <g id="xtick_2">
     <g id="line2d_2">
      <g>
       <use xlink:href="#m72297993d2" x="93.625029" y="239.558437" style="stroke: #000000; stroke-width: 0.8"/>
      </g>
     </g>
     <g id="text_2">
      <!-- −70 -->
      <g transform="translate(83.072686 250.656875) scale(0.1 -0.1)">
       <defs>
        <path id="DejaVuSans-37" d="M 525 4666 
L 3525 4666 
L 3525 4397 
L 1831 0 
L 1172 0 
L 2766 4134 
L 525 4134 
L 525 4666 
z
" transform="scale(0.015625)"/>
       </defs>
       <use xlink:href="#DejaVuSans-2212"/>
       <use xlink:href="#DejaVuSans-37" x="83.789062"/>
       <use xlink:href="#DejaVuSans-30" x="147.412109"/>
      </g>
     </g>
    </g>
    <g id="xtick_3">
     <g id="line2d_3">
      <g>
       <use xlink:href="#m72297993d2" x="131.664635" y="239.558437" style="stroke: #000000; stroke-width: 0.8"/>
      </g>
     </g>
     <g id="text_3">
      <!-- −60 -->
      <g transform="translate(121.112291 250.656875) scale(0.1 -0.1)">
       <defs>
        <path id="DejaVuSans-36" d="M 2113 2584 
Q 1688 2584 1439 2293 
Q 1191 2003 1191 1497 
Q 1191 994 1439 701 
Q 1688 409 2113 409 
Q 2538 409 2786 701 
Q 3034 994 3034 1497 
Q 3034 2003 2786 2293 
Q 2538 2584 2113 2584 
z
M 3366 4563 
L 3366 3988 
Q 3128 4100 2886 4159 
Q 2644 4219 2406 4219 
Q 1781 4219 1451 3797 
Q 1122 3375 1075 2522 
Q 1259 2794 1537 2939 
Q 1816 3084 2150 3084 
Q 2853 3084 3261 2657 
Q 3669 2231 3669 1497 
Q 3669 778 3244 343 
Q 2819 -91 2113 -91 
Q 1303 -91 875 529 
Q 447 1150 447 2328 
Q 447 3434 972 4092 
Q 1497 4750 2381 4750 
Q 2619 4750 2861 4703 
Q 3103 4656 3366 4563 
z
" transform="scale(0.015625)"/>
       </defs>
       <use xlink:href="#DejaVuSans-2212"/>
       <use xlink:href="#DejaVuSans-36" x="83.789062"/>
       <use xlink:href="#DejaVuSans-30" x="147.412109"/>
      </g>
     </g>
    </g>
    <g id="xtick_4">
     <g id="line2d_4">
      <g>
       <use xlink:href="#m72297993d2" x="169.704241" y="239.558437" style="stroke: #000000; stroke-width: 0.8"/>
      </g>
     </g>
     <g id="text_4">
      <!-- −50 -->
      <g transform="translate(159.151897 250.656875) scale(0.1 -0.1)">
       <defs>
        <path id="DejaVuSans-35" d="M 691 4666 
L 3169 4666 
L 3169 4134 
L 1269 4134 
L 1269 2991 
Q 1406 3038 1543 3061 
Q 1681 3084 1819 3084 
Q 2600 3084 3056 2656 
Q 3513 2228 3513 1497 
Q 3513 744 3044 326 
Q 2575 -91 1722 -91 
Q 1428 -91 1123 -41 
Q 819 9 494 109 
L 494 744 
Q 775 591 1075 516 
Q 1375 441 1709 441 
Q 2250 441 2565 725 
Q 2881 1009 2881 1497 
Q 2881 1984 2565 2268 
Q 2250 2553 1709 2553 
Q 1456 2553 1204 2497 
Q 953 2441 691 2322 
L 691 4666 
z
" transform="scale(0.015625)"/>
       </defs>
       <use xlink:href="#DejaVuSans-2212"/>
       <use xlink:href="#DejaVuSans-35" x="83.789062"/>
       <use xlink:href="#DejaVuSans-30" x="147.412109"/>
      </g>
     </g>
    </g>
    <g id="xtick_5">
     <g id="line2d_5">
      <g>
       <use xlink:href="#m72297993d2" x="207.743846" y="239.558437" style="stroke: #000000; stroke-width: 0.8"/>
      </g>
     </g>
     <g id="text_5">
      <!-- −40 -->
      <g transform="translate(197.191503 250.656875) scale(0.1 -0.1)">
       <defs>
        <path id="DejaVuSans-34" d="M 2419 4116 
L 825 1625 
L 2419 1625 
L 2419 4116 
z
M 2253 4666 
L 3047 4666 
L 3047 1625 
L 3713 1625 
L 3713 1100 
L 3047 1100 
L 3047 0 
L 2419 0 
L 2419 1100 
L 313 1100 
L 313 1709 
L 2253 4666 
z
" transform="scale(0.015625)"/>
       </defs>
       <use xlink:href="#DejaVuSans-2212"/>
       <use xlink:href="#DejaVuSans-34" x="83.789062"/>
       <use xlink:href="#DejaVuSans-30" x="147.412109"/>
      </g>
     </g>
    </g>
    <g id="xtick_6">
     <g id="line2d_6">
      <g>
       <use xlink:href="#m72297993d2" x="245.783452" y="239.558437" style="stroke: #000000; stroke-width: 0.8"/>
      </g>
     </g>
     <g id="text_6">
      <!-- −30 -->
      <g transform="translate(235.231108 250.656875) scale(0.1 -0.1)">
       <defs>
        <path id="DejaVuSans-33" d="M 2597 2516 
Q 3050 2419 3304 2112 
Q 3559 1806 3559 1356 
Q 3559 666 3084 287 
Q 2609 -91 1734 -91 
Q 1441 -91 1130 -33 
Q 819 25 488 141 
L 488 750 
Q 750 597 1062 519 
Q 1375 441 1716 441 
Q 2309 441 2620 675 
Q 2931 909 2931 1356 
Q 2931 1769 2642 2001 
Q 2353 2234 1838 2234 
L 1294 2234 
L 1294 2753 
L 1863 2753 
Q 2328 2753 2575 2939 
Q 2822 3125 2822 3475 
Q 2822 3834 2567 4026 
Q 2313 4219 1838 4219 
Q 1578 4219 1281 4162 
Q 984 4106 628 3988 
L 628 4550 
Q 988 4650 1302 4700 
Q 1616 4750 1894 4750 
Q 2613 4750 3031 4423 
Q 3450 4097 3450 3541 
Q 3450 3153 3228 2886 
Q 3006 2619 2597 2516 
z
" transform="scale(0.015625)"/>
       </defs>
       <use xlink:href="#DejaVuSans-2212"/>
       <use xlink:href="#DejaVuSans-33" x="83.789062"/>
       <use xlink:href="#DejaVuSans-30" x="147.412109"/>
      </g>
     </g>
    </g>
    <g id="xtick_7">
     <g id="line2d_7">
      <g>
       <use xlink:href="#m72297993d2" x="283.823058" y="239.558437" style="stroke: #000000; stroke-width: 0.8"/>
      </g>
     </g>
     <g id="text_7">
      <!-- −20 -->
      <g transform="translate(273.270714 250.656875) scale(0.1 -0.1)">
       <defs>
        <path id="DejaVuSans-32" d="M 1228 531 
L 3431 531 
L 3431 0 
L 469 0 
L 469 531 
Q 828 903 1448 1529 
Q 2069 2156 2228 2338 
Q 2531 2678 2651 2914 
Q 2772 3150 2772 3378 
Q 2772 3750 2511 3984 
Q 2250 4219 1831 4219 
Q 1534 4219 1204 4116 
Q 875 4013 500 3803 
L 500 4441 
Q 881 4594 1212 4672 
Q 1544 4750 1819 4750 
Q 2544 4750 2975 4387 
Q 3406 4025 3406 3419 
Q 3406 3131 3298 2873 
Q 3191 2616 2906 2266 
Q 2828 2175 2409 1742 
Q 1991 1309 1228 531 
z
" transform="scale(0.015625)"/>
       </defs>
       <use xlink:href="#DejaVuSans-2212"/>
       <use xlink:href="#DejaVuSans-32" x="83.789062"/>
       <use xlink:href="#DejaVuSans-30" x="147.412109"/>
      </g>
     </g>
    </g>
    <g id="xtick_8">
     <g id="line2d_8">
      <g>
       <use xlink:href="#m72297993d2" x="321.862663" y="239.558437" style="stroke: #000000; stroke-width: 0.8"/>
      </g>
     </g>
     <g id="text_8">
      <!-- −10 -->
      <g transform="translate(311.31032 250.656875) scale(0.1 -0.1)">
       <defs>
        <path id="DejaVuSans-31" d="M 794 531 
L 1825 531 
L 1825 4091 
L 703 3866 
L 703 4441 
L 1819 4666 
L 2450 4666 
L 2450 531 
L 3481 531 
L 3481 0 
L 794 0 
L 794 531 
z
" transform="scale(0.015625)"/>
       </defs>
       <use xlink:href="#DejaVuSans-2212"/>
       <use xlink:href="#DejaVuSans-31" x="83.789062"/>
       <use xlink:href="#DejaVuSans-30" x="147.412109"/>
      </g>
     </g>
    </g>
    <g id="xtick_9">
     <g id="line2d_9">
      <g>
       <use xlink:href="#m72297993d2" x="359.902269" y="239.558437" style="stroke: #000000; stroke-width: 0.8"/>
      </g>
     </g>
     <g id="text_9">
      <!-- 0 -->
      <g transform="translate(356.721019 250.656875) scale(0.1 -0.1)">
       <use xlink:href="#DejaVuSans-30"/>
      </g>
     </g>
    </g>
    <g id="xtick_10">
     <g id="line2d_10">
      <defs>
       <path id="m7bcb571cb1" d="M 0 0 
L 0 -4 
" style="stroke: #000000; stroke-width: 0.6"/>
      </defs>
      <g>
       <use xlink:href="#m7bcb571cb1" x="74.605226" y="239.558437" style="stroke: #000000; stroke-width: 0.6"/>
      </g>
     </g>
    </g>
    <g id="xtick_11">
     <g id="line2d_11">
      <g>
       <use xlink:href="#m7bcb571cb1" x="112.644832" y="239.558437" style="stroke: #000000; stroke-width: 0.6"/>
      </g>
     </g>
    </g>
    <g id="xtick_12">
     <g id="line2d_12">
      <g>
       <use xlink:href="#m7bcb571cb1" x="150.684438" y="239.558437" style="stroke: #000000; stroke-width: 0.6"/>
      </g>
     </g>
    </g>
    <g id="xtick_13">
     <g id="line2d_13">
      <g>
       <use xlink:href="#m7bcb571cb1" x="188.724044" y="239.558437" style="stroke: #000000; stroke-width: 0.6"/>
      </g>
     </g>
    </g>
    <g id="xtick_14">
     <g id="line2d_14">
      <g>
       <use xlink:href="#m7bcb571cb1" x="226.763649" y="239.558437" style="stroke: #000000; stroke-width: 0.6"/>
      </g>
     </g>
    </g>
    <g id="xtick_15">
     <g id="line2d_15">
      <g>
       <use xlink:href="#m7bcb571cb1" x="264.803255" y="239.558437" style="stroke: #000000; stroke-width: 0.6"/>
      </g>
     </g>
    </g>
    <g id="xtick_16">
     <g id="line2d_16">
      <g>
       <use xlink:href="#m7bcb571cb1" x="302.842861" y="239.558437" style="stroke: #000000; stroke-width: 0.6"/>
      </g>
     </g>
    </g>
    <g id="xtick_17">
     <g id="line2d_17">
      <g>
       <use xlink:href="#m7bcb571cb1" x="340.882466" y="239.558437" style="stroke: #000000; stroke-width: 0.6"/>
      </g>
     </g>
    </g>
    <g id="text_10">
     <!-- V$_D$ (V) -->
     <g transform="translate(192.528125 264.335) scale(0.1 -0.1)">
      <defs>
       <path id="DejaVuSans-56" d="M 1831 0 
L 50 4666 
L 709 4666 
L 2188 738 
L 3669 4666 
L 4325 4666 
L 2547 0 
L 1831 0 
z
" transform="scale(0.015625)"/>
       <path id="DejaVuSans-Oblique-44" d="M 1081 4666 
L 2438 4666 
Q 3519 4666 4070 4208 
Q 4622 3750 4622 2847 
Q 4622 2250 4412 1698 
Q 4203 1147 3834 769 
Q 3463 381 2891 190 
Q 2319 0 1538 0 
L 172 0 
L 1081 4666 
z
M 1613 4147 
L 909 519 
L 1734 519 
Q 2794 519 3375 1128 
Q 3956 1738 3956 2847 
Q 3956 3519 3581 3833 
Q 3206 4147 2406 4147 
L 1613 4147 
z
" transform="scale(0.015625)"/>
       <path id="DejaVuSans-20" transform="scale(0.015625)"/>
       <path id="DejaVuSans-28" d="M 1984 4856 
Q 1566 4138 1362 3434 
Q 1159 2731 1159 2009 
Q 1159 1288 1364 580 
Q 1569 -128 1984 -844 
L 1484 -844 
Q 1016 -109 783 600 
Q 550 1309 550 2009 
Q 550 2706 781 3412 
Q 1013 4119 1484 4856 
L 1984 4856 
z
" transform="scale(0.015625)"/>
       <path id="DejaVuSans-29" d="M 513 4856 
L 1013 4856 
Q 1481 4119 1714 3412 
Q 1947 2706 1947 2009 
Q 1947 1309 1714 600 
Q 1481 -109 1013 -844 
L 513 -844 
Q 928 -128 1133 580 
Q 1338 1288 1338 2009 
Q 1338 2731 1133 3434 
Q 928 4138 513 4856 
z
" transform="scale(0.015625)"/>
      </defs>
      <use xlink:href="#DejaVuSans-56" transform="translate(0 0.125)"/>
      <use xlink:href="#DejaVuSans-Oblique-44" transform="translate(69.365234 -16.28125) scale(0.7)"/>
      <use xlink:href="#DejaVuSans-20" transform="translate(126.000977 0.125)"/>
      <use xlink:href="#DejaVuSans-28" transform="translate(157.788086 0.125)"/>
      <use xlink:href="#DejaVuSans-56" transform="translate(196.801758 0.125)"/>
      <use xlink:href="#DejaVuSans-29" transform="translate(265.209961 0.125)"/>
     </g>
    </g>
   </g>
   <g id="matplotlib.axis_2">
    <g id="ytick_1">
     <g id="line2d_18">
      <defs>
       <path id="mdc6a364aa6" d="M 0 0 
L 6 0 
" style="stroke: #000000; stroke-width: 0.8"/>
      </defs>
      <g>
       <use xlink:href="#mdc6a364aa6" x="40.378125" y="239.558437" style="stroke: #000000; stroke-width: 0.8"/>
      </g>
     </g>
     <g id="text_11">
      <!-- $\mathdefault{0.0}$ -->
      <g transform="translate(20.878125 243.357656) scale(0.1 -0.1)">
       <defs>
        <path id="DejaVuSans-2e" d="M 684 794 
L 1344 794 
L 1344 0 
L 684 0 
L 684 794 
z
" transform="scale(0.015625)"/>
       </defs>
       <use xlink:href="#DejaVuSans-30" transform="translate(0 0.78125)"/>
       <use xlink:href="#DejaVuSans-2e" transform="translate(63.623047 0.78125)"/>
       <use xlink:href="#DejaVuSans-30" transform="translate(95.410156 0.78125)"/>
      </g>
     </g>
    </g>
    <g id="ytick_2">
     <g id="line2d_19">
      <g>
       <use xlink:href="#mdc6a364aa6" x="40.378125" y="210.563326" style="stroke: #000000; stroke-width: 0.8"/>
      </g>
     </g>
     <g id="text_12">
      <!-- $\mathdefault{0.5}$ -->
      <g transform="translate(20.878125 214.362545) scale(0.1 -0.1)">
       <use xlink:href="#DejaVuSans-30" transform="translate(0 0.78125)"/>
       <use xlink:href="#DejaVuSans-2e" transform="translate(63.623047 0.78125)"/>
       <use xlink:href="#DejaVuSans-35" transform="translate(95.410156 0.78125)"/>
      </g>
     </g>
    </g>
    <g id="ytick_3">
     <g id="line2d_20">
      <g>
       <use xlink:href="#mdc6a364aa6" x="40.378125" y="181.568215" style="stroke: #000000; stroke-width: 0.8"/>
      </g>
     </g>
     <g id="text_13">
      <!-- $\mathdefault{1.0}$ -->
      <g transform="translate(20.878125 185.367433) scale(0.1 -0.1)">
       <use xlink:href="#DejaVuSans-31" transform="translate(0 0.78125)"/>
       <use xlink:href="#DejaVuSans-2e" transform="translate(63.623047 0.78125)"/>
       <use xlink:href="#DejaVuSans-30" transform="translate(95.410156 0.78125)"/>
      </g>
     </g>
    </g>
    <g id="ytick_4">
     <g id="line2d_21">
      <g>
       <use xlink:href="#mdc6a364aa6" x="40.378125" y="152.573103" style="stroke: #000000; stroke-width: 0.8"/>
      </g>
     </g>
     <g id="text_14">
      <!-- $\mathdefault{1.5}$ -->
      <g transform="translate(20.878125 156.372322) scale(0.1 -0.1)">
       <use xlink:href="#DejaVuSans-31" transform="translate(0 0.09375)"/>
       <use xlink:href="#DejaVuSans-2e" transform="translate(63.623047 0.09375)"/>
       <use xlink:href="#DejaVuSans-35" transform="translate(95.410156 0.09375)"/>
      </g>
     </g>
    </g>
    <g id="ytick_5">
     <g id="line2d_22">
      <g>
       <use xlink:href="#mdc6a364aa6" x="40.378125" y="123.577992" style="stroke: #000000; stroke-width: 0.8"/>
      </g>
     </g>
     <g id="text_15">
      <!-- $\mathdefault{2.0}$ -->
      <g transform="translate(20.878125 127.377211) scale(0.1 -0.1)">
       <use xlink:href="#DejaVuSans-32" transform="translate(0 0.78125)"/>
       <use xlink:href="#DejaVuSans-2e" transform="translate(63.623047 0.78125)"/>
       <use xlink:href="#DejaVuSans-30" transform="translate(95.410156 0.78125)"/>
      </g>
     </g>
    </g>
    <g id="ytick_6">
     <g id="line2d_23">
      <g>
       <use xlink:href="#mdc6a364aa6" x="40.378125" y="94.582881" style="stroke: #000000; stroke-width: 0.8"/>
      </g>
     </g>
     <g id="text_16">
      <!-- $\mathdefault{2.5}$ -->
      <g transform="translate(20.878125 98.382099) scale(0.1 -0.1)">
       <use xlink:href="#DejaVuSans-32" transform="translate(0 0.78125)"/>
       <use xlink:href="#DejaVuSans-2e" transform="translate(63.623047 0.78125)"/>
       <use xlink:href="#DejaVuSans-35" transform="translate(95.410156 0.78125)"/>
      </g>
     </g>
    </g>
    <g id="ytick_7">
     <g id="line2d_24">
      <g>
       <use xlink:href="#mdc6a364aa6" x="40.378125" y="65.587769" style="stroke: #000000; stroke-width: 0.8"/>
      </g>
     </g>
     <g id="text_17">
      <!-- $\mathdefault{3.0}$ -->
      <g transform="translate(20.878125 69.386988) scale(0.1 -0.1)">
       <use xlink:href="#DejaVuSans-33" transform="translate(0 0.78125)"/>
       <use xlink:href="#DejaVuSans-2e" transform="translate(63.623047 0.78125)"/>
       <use xlink:href="#DejaVuSans-30" transform="translate(95.410156 0.78125)"/>
      </g>
     </g>
    </g>
    <g id="ytick_8">
     <g id="line2d_25">
      <g>
       <use xlink:href="#mdc6a364aa6" x="40.378125" y="36.592658" style="stroke: #000000; stroke-width: 0.8"/>
      </g>
     </g>
     <g id="text_18">
      <!-- $\mathdefault{3.5}$ -->
      <g transform="translate(20.878125 40.391877) scale(0.1 -0.1)">
       <use xlink:href="#DejaVuSans-33" transform="translate(0 0.78125)"/>
       <use xlink:href="#DejaVuSans-2e" transform="translate(63.623047 0.78125)"/>
       <use xlink:href="#DejaVuSans-35" transform="translate(95.410156 0.78125)"/>
      </g>
     </g>
    </g>
    <g id="text_19">
     <!-- -I$_D$ (A) -->
     <g transform="translate(14.798438 143.778437) rotate(-90) scale(0.1 -0.1)">
      <defs>
       <path id="DejaVuSans-2d" d="M 313 2009 
L 1997 2009 
L 1997 1497 
L 313 1497 
L 313 2009 
z
" transform="scale(0.015625)"/>
       <path id="DejaVuSans-49" d="M 628 4666 
L 1259 4666 
L 1259 0 
L 628 0 
L 628 4666 
z
" transform="scale(0.015625)"/>
       <path id="DejaVuSans-41" d="M 2188 4044 
L 1331 1722 
L 3047 1722 
L 2188 4044 
z
M 1831 4666 
L 2547 4666 
L 4325 0 
L 3669 0 
L 3244 1197 
L 1141 1197 
L 716 0 
L 50 0 
L 1831 4666 
z
" transform="scale(0.015625)"/>
      </defs>
      <use xlink:href="#DejaVuSans-2d" transform="translate(0 0.125)"/>
      <use xlink:href="#DejaVuSans-49" transform="translate(36.083984 0.125)"/>
      <use xlink:href="#DejaVuSans-Oblique-44" transform="translate(66.533203 -16.28125) scale(0.7)"/>
      <use xlink:href="#DejaVuSans-20" transform="translate(123.168945 0.125)"/>
      <use xlink:href="#DejaVuSans-28" transform="translate(154.956055 0.125)"/>
      <use xlink:href="#DejaVuSans-41" transform="translate(193.969727 0.125)"/>
      <use xlink:href="#DejaVuSans-29" transform="translate(262.37793 0.125)"/>
     </g>
    </g>
    <g id="text_20">
     <!-- $\times\mathdefault{10^{−7}}\mathdefault{}$ -->
     <g transform="translate(40.378125 14.798438) scale(0.1 -0.1)">
      <defs>
       <path id="DejaVuSans-d7" d="M 4488 3438 
L 3059 2003 
L 4488 575 
L 4116 197 
L 2681 1631 
L 1247 197 
L 878 575 
L 2303 2003 
L 878 3438 
L 1247 3816 
L 2681 2381 
L 4116 3816 
L 4488 3438 
z
" transform="scale(0.015625)"/>
      </defs>
      <use xlink:href="#DejaVuSans-d7" transform="translate(0 0.684375)"/>
      <use xlink:href="#DejaVuSans-31" transform="translate(83.789062 0.684375)"/>
      <use xlink:href="#DejaVuSans-30" transform="translate(147.412109 0.684375)"/>
      <use xlink:href="#DejaVuSans-2212" transform="translate(211.992188 38.965625) scale(0.7)"/>
      <use xlink:href="#DejaVuSans-37" transform="translate(270.644531 38.965625) scale(0.7)"/>
     </g>
    </g>
   </g>
   <g id="line2d_26">
    <path d="M 359.894791 239.553797 
L 356.090459 239.549603 
L 352.28104 239.528323 
L 348.474772 239.113884 
L 344.666792 239.138196 
L 340.860408 239.176866 
L 337.053017 239.212119 
L 333.249925 239.245811 
L 329.441755 239.275302 
L 325.635429 239.298127 
L 321.827144 239.318196 
L 318.0208 239.330415 
L 314.213179 239.339418 
L 310.406549 239.347968 
L 306.604449 239.356836 
L 302.803028 239.36707 
L 299.000845 239.375216 
L 295.200309 239.385117 
L 291.398757 239.394156 
L 287.597438 239.399451 
L 283.800087 239.401217 
L 279.998746 239.404961 
L 276.196055 239.404599 
L 272.396288 239.406148 
L 268.594395 239.406013 
L 264.7933 239.406559 
L 260.992416 239.406674 
L 257.187534 239.404922 
L 253.379576 239.405821 
L 249.572851 239.4048 
L 245.766024 239.403772 
L 241.959263 239.403562 
L 238.151675 239.403692 
L 234.345189 239.402939 
L 230.541751 239.402919 
L 226.735425 239.402241 
L 222.92759 239.402702 
L 219.121685 239.400908 
L 215.31401 239.402245 
L 211.506697 239.402191 
L 207.698761 239.40129 
L 203.897456 239.401262 
L 200.09557 239.400572 
L 196.29457 239.400969 
L 192.493526 239.400538 
L 188.692192 239.400069 
L 184.890553 239.399203 
L 181.090656 239.400242 
L 177.292717 239.397502 
L 173.491586 239.397532 
L 169.690542 239.397303 
L 165.88902 239.395257 
L 162.088861 239.394522 
L 158.28773 239.39296 
L 154.484901 239.391342 
L 150.678445 239.389251 
L 146.870494 239.388021 
L 143.064081 239.385536 
L 139.257233 239.38296 
L 135.450907 239.378872 
L 131.643202 239.377166 
L 127.84078 239.373665 
L 124.033177 239.368945 
L 120.226053 239.36558 
L 116.419248 239.360123 
L 112.61285 239.354224 
L 108.804913 239.347788 
L 104.998979 239.341957 
L 101.193684 239.332097 
L 97.39309 239.323723 
L 93.59119 239.311263 
L 89.803162 239.30199 
L 86.00103 239.29026 
L 82.201539 239.274958 
L 78.399987 239.260515 
L 74.603282 239.239164 
L 70.802311 239.214982 
L 67.001078 239.188484 
L 63.199817 239.152937 
L 59.39931 239.110981 
L 55.597323 239.057897 
" clip-path="url(#pf0f801b13e)" style="fill: none; stroke: #e0f3db; stroke-width: 1.5; stroke-linecap: square"/>
   </g>
   <g id="line2d_27">
    <path d="M 359.895384 225.930836 
L 356.089229 235.662013 
L 352.28201 235.989452 
L 348.475437 236.526978 
L 344.6678 236.937491 
L 340.859515 238.283505 
L 337.052391 238.299049 
L 333.249204 238.425974 
L 329.441222 238.531379 
L 325.634515 238.627882 
L 321.826535 238.712506 
L 318.020078 238.781956 
L 314.212381 238.840669 
L 310.406171 238.890058 
L 306.604239 238.932656 
L 302.802266 238.967971 
L 299.000468 239.002017 
L 295.199569 239.029717 
L 291.399062 239.055107 
L 287.596915 239.078298 
L 283.800007 239.099082 
L 279.998136 239.117292 
L 276.196301 239.133407 
L 272.395867 239.151074 
L 268.594642 239.164034 
L 264.792502 239.176402 
L 260.992227 239.18871 
L 257.187019 239.199643 
L 253.380084 239.208719 
L 249.572582 239.217628 
L 245.766409 239.226258 
L 241.958734 239.234136 
L 238.151922 239.239989 
L 234.344841 239.246195 
L 230.541998 239.253654 
L 226.734816 239.256486 
L 222.927561 239.261674 
L 219.120931 239.266143 
L 215.31417 239.269187 
L 211.506204 239.271204 
L 207.700139 239.274333 
L 203.896875 239.275978 
L 200.095759 239.276252 
L 196.294236 239.277802 
L 192.49296 239.277367 
L 188.691771 239.277099 
L 184.890727 239.274943 
L 181.089727 239.27283 
L 177.29292 239.270454 
L 173.491586 239.265405 
L 169.6906 239.26119 
L 165.889078 239.254793 
L 162.088948 239.249079 
L 158.287977 239.239211 
L 154.485046 239.232402 
L 150.67843 239.222191 
L 146.868839 239.208052 
L 143.063196 239.194057 
L 139.257262 239.180691 
L 135.450704 239.166605 
L 131.643173 239.147871 
L 127.840635 239.128875 
L 124.032858 239.104007 
L 120.225531 239.074362 
L 116.418958 239.039059 
L 112.612037 238.999919 
L 108.804623 238.961605 
L 104.998109 238.92392 
L 101.193684 238.88448 
L 97.392683 238.837549 
L 93.590667 238.792811 
L 89.802727 238.756006 
L 86.001465 238.707653 
L 82.200175 238.683538 
L 78.399203 238.680887 
L 74.60215 238.691389 
L 70.802137 238.705398 
L 67.000004 238.729359 
L 63.199846 238.74288 
L 59.398932 238.761269 
L 55.597206 238.773489 
" clip-path="url(#pf0f801b13e)" style="fill: none; stroke: #ccebc5; stroke-width: 1.5; stroke-linecap: square"/>
   </g>
   <g id="line2d_28">
    <path d="M 359.895612 227.554673 
L 356.089306 235.189063 
L 352.281554 235.309343 
L 348.474867 236.048738 
L 344.667572 236.51003 
L 340.860618 236.865627 
L 337.05336 237.1516 
L 333.249049 238.262926 
L 329.441222 238.247563 
L 325.634061 238.350344 
L 321.826575 238.437848 
L 318.019962 238.514896 
L 314.212058 238.584535 
L 310.405486 238.647314 
L 306.60401 238.708626 
L 302.802078 238.75739 
L 299.000301 238.799871 
L 295.199888 238.836236 
L 291.39883 238.86762 
L 287.595363 238.89602 
L 283.79984 238.920192 
L 279.997773 238.943258 
L 276.196069 238.962888 
L 272.395374 238.982096 
L 268.594359 238.998469 
L 264.79235 239.014812 
L 260.992046 239.030263 
L 257.186642 239.041534 
L 253.379569 239.054128 
L 249.572067 239.065851 
L 245.765894 239.075828 
L 241.958451 239.083816 
L 238.151689 239.094947 
L 234.344652 239.101747 
L 230.541505 239.108769 
L 226.734859 239.117409 
L 222.927315 239.122989 
L 219.121018 239.12844 
L 215.313575 239.134339 
L 211.506088 239.139887 
L 207.699544 239.142773 
L 203.896759 239.147497 
L 200.095193 239.149704 
L 196.294265 239.15343 
L 192.492989 239.154605 
L 188.691887 239.156354 
L 184.890132 239.158008 
L 181.090046 239.159054 
L 177.292093 239.157579 
L 173.491267 239.157095 
L 169.690368 239.156775 
L 165.889078 239.152067 
L 162.088266 239.149316 
L 158.287715 239.145127 
L 154.484509 239.139107 
L 150.677937 239.132315 
L 146.869812 239.124203 
L 143.062281 239.11609 
L 139.257131 239.102487 
L 135.450051 239.09121 
L 131.64281 239.076238 
L 127.839924 239.061811 
L 124.032756 239.046188 
L 120.225153 239.025268 
L 116.418929 238.999827 
L 112.611515 238.969999 
L 108.80471 238.934886 
L 104.997906 238.899481 
L 101.190143 238.86553 
L 97.392335 238.838516 
L 93.590696 238.811398 
L 89.802408 238.770811 
L 85.999753 238.734253 
L 82.200059 238.699671 
L 78.39932 238.667956 
L 74.601889 238.6499 
L 70.801527 238.639197 
L 67.000353 238.641083 
L 63.19912 238.640376 
L 59.3987 238.653132 
L 55.596829 238.66711 
" clip-path="url(#pf0f801b13e)" style="fill: none; stroke: #a8ddb5; stroke-width: 1.5; stroke-linecap: square"/>
   </g>
   <g id="line2d_29">
    <path d="M 359.89565 229.063158 
L 356.088811 234.572541 
L 352.281478 233.698068 
L 348.474943 234.436341 
L 344.667229 235.2147 
L 340.859706 235.586672 
L 337.052789 235.836169 
L 333.249412 236.054034 
L 329.44219 236.237429 
L 325.6352 236.349867 
L 321.82722 236.512778 
L 318.020535 236.584744 
L 314.212323 236.719945 
L 310.405979 236.825386 
L 306.605001 236.921676 
L 302.802803 236.999469 
L 299.000751 237.060547 
L 295.199395 237.152406 
L 291.397611 237.687415 
L 287.595225 237.63405 
L 283.798375 237.673581 
L 279.996554 237.729234 
L 276.194894 237.766631 
L 272.394082 237.787916 
L 268.592835 237.815902 
L 264.791225 237.85655 
L 260.990987 237.869231 
L 257.185648 237.908047 
L 253.378524 237.919889 
L 249.571516 237.965146 
L 245.764602 237.97716 
L 241.957558 237.995501 
L 238.150543 238.036432 
L 234.343376 238.028478 
L 230.539183 238.039269 
L 226.733815 238.059416 
L 222.926357 238.087633 
L 219.120176 238.103389 
L 215.312501 238.113187 
L 211.505507 238.134231 
L 207.698906 238.145758 
L 203.89496 238.156274 
L 200.094337 238.159357 
L 196.293206 238.166336 
L 192.492118 238.163265 
L 188.690349 238.182169 
L 184.889741 238.193679 
L 181.088813 238.184967 
L 177.291527 238.196667 
L 173.490324 238.213594 
L 169.689439 238.192285 
L 165.887801 238.188229 
L 162.088077 238.216415 
L 158.286511 238.212212 
L 154.484393 238.21149 
L 150.677081 238.220366 
L 146.869507 238.219837 
L 143.063021 238.226585 
L 139.255898 238.206603 
L 135.449615 238.215175 
L 131.642303 238.202135 
L 127.839779 238.192145 
L 124.031973 238.179175 
L 120.224892 238.182648 
L 116.41771 238.168636 
L 112.61137 238.164272 
L 108.80085 238.136157 
L 104.997673 238.108414 
L 101.192494 238.077305 
L 97.391087 238.041199 
L 93.590116 238.015597 
L 89.802233 237.991794 
L 86.000856 237.955322 
L 82.199623 237.943717 
L 78.398768 237.900972 
L 74.601628 237.862452 
L 70.801498 237.833177 
L 66.999308 237.821815 
L 63.198917 237.844364 
L 59.398091 237.869096 
L 55.596307 237.863991 
" clip-path="url(#pf0f801b13e)" style="fill: none; stroke: #7bccc4; stroke-width: 1.5; stroke-linecap: square"/>
   </g>
   <g id="line2d_30">
    <path d="M 359.889792 215.147017 
L 356.081925 220.963877 
L 352.280299 224.376472 
L 348.470074 224.908691 
L 344.665364 223.925572 
L 340.858106 223.646306 
L 337.051914 224.004425 
L 333.24846 224.041626 
L 329.441167 224.39334 
L 325.633601 224.515346 
L 321.825965 224.599272 
L 318.018939 224.802186 
L 314.211413 224.792304 
L 310.405181 224.787295 
L 306.603782 224.868063 
L 302.801853 225.124766 
L 298.999234 225.130369 
L 295.197907 225.216159 
L 291.397575 225.243172 
L 287.595834 225.251159 
L 283.798962 225.452049 
L 279.997302 225.585698 
L 276.194836 225.843148 
L 272.394387 225.910954 
L 268.592871 225.935603 
L 264.791175 226.205422 
L 260.990878 226.272345 
L 257.186315 226.46271 
L 253.378872 226.396994 
L 249.571233 226.63785 
L 245.764508 226.839508 
L 241.957551 226.864686 
L 238.15124 226.859385 
L 234.34384 226.974296 
L 230.540721 227.16035 
L 226.733742 227.172381 
L 222.926255 227.262416 
L 219.119784 227.229996 
L 215.313067 227.194967 
L 211.505348 227.261749 
L 207.698891 227.463605 
L 203.895743 227.550956 
L 200.093887 227.457401 
L 196.293438 227.343911 
L 192.492307 227.425046 
L 188.690799 227.647058 
L 184.889958 227.700654 
L 181.088987 227.671401 
L 177.291281 227.767329 
L 173.490599 227.788666 
L 169.689802 227.782356 
L 165.888903 227.89736 
L 162.088309 228.056768 
L 158.286685 228.01458 
L 154.483871 228.078347 
L 150.677385 228.109311 
L 146.87 228.227424 
L 143.063471 228.116207 
L 139.256594 228.142751 
L 135.449281 228.224003 
L 131.642041 228.335577 
L 127.839575 228.314255 
L 124.032669 228.326086 
L 120.225371 228.338217 
L 116.418813 228.269663 
L 112.611167 228.358823 
L 108.804333 228.507715 
L 104.997354 228.443675 
L 101.193306 228.462588 
L 97.392335 228.515808 
L 93.590493 228.502486 
L 89.802669 228.660362 
L 86.001291 228.709999 
L 82.199856 228.79914 
L 78.399087 228.601049 
L 74.602498 228.730664 
L 70.801904 228.648721 
L 67.000062 228.589593 
L 63.19883 228.538043 
L 59.399136 228.650584 
L 55.597061 228.440359 
" clip-path="url(#pf0f801b13e)" style="fill: none; stroke: #4eb3d3; stroke-width: 1.5; stroke-linecap: square"/>
   </g>
   <g id="line2d_31">
    <path d="M 359.896373 239.791695 
L 356.088785 239.339873 
L 352.282429 235.490362 
L 348.473611 226.818061 
L 344.665404 219.365102 
L 340.857877 212.977821 
L 337.054272 211.671266 
L 333.249717 208.015619 
L 329.441813 206.33619 
L 325.6352 205.373609 
L 321.827489 204.380864 
L 318.0208 203.88856 
L 314.213009 203.482374 
L 310.405598 203.032017 
L 306.604163 202.998299 
L 302.802078 202.603717 
L 299.00091 202.149989 
L 295.200265 202.212525 
L 291.398837 202.170933 
L 287.596291 202.354446 
L 283.799535 202.285609 
L 279.998136 202.147414 
L 276.195982 202.047031 
L 272.396251 202.303772 
L 268.595041 202.365221 
L 264.792575 202.561943 
L 260.991785 202.927358 
L 257.186852 203.027534 
L 253.380084 203.024897 
L 249.572945 203.096927 
L 245.766714 203.250179 
L 241.958465 203.481171 
L 238.151443 203.604023 
L 234.342969 203.801594 
L 230.542027 203.758799 
L 226.735077 203.717731 
L 222.927387 204.062464 
L 219.120931 204.293927 
L 215.312878 204.362672 
L 211.505841 204.499232 
L 207.699878 204.61786 
L 203.896919 204.766868 
L 200.095556 204.922143 
L 196.294077 204.862475 
L 192.492757 205.241184 
L 188.69122 205.304688 
L 184.890756 205.328267 
L 181.090394 205.416701 
L 177.292369 205.501936 
L 173.491136 205.536647 
L 169.689889 205.557915 
L 165.88857 205.669923 
L 162.087802 205.840108 
L 158.287817 205.856864 
L 154.485206 205.996026 
L 150.678474 206.013043 
L 146.869899 206.098254 
L 143.06366 206.041602 
L 139.257044 206.173533 
L 135.450892 206.478723 
L 131.643449 206.546092 
L 127.840446 206.43956 
L 124.03219 206.462729 
L 120.225052 206.234312 
L 116.419161 206.286979 
L 112.612531 206.528372 
L 108.80265 206.52392 
L 104.998109 206.752949 
L 101.193248 206.727553 
L 97.39248 206.848148 
L 93.591132 207.034763 
L 89.803452 206.941647 
L 86.002568 206.664372 
L 82.201045 206.829635 
L 78.39961 207.089071 
L 74.602585 207.139452 
L 70.802688 207.056968 
L 67.001078 207.269417 
L 63.200339 207.489165 
L 59.399658 207.397188 
L 55.597642 207.525456 
" clip-path="url(#pf0f801b13e)" style="fill: none; stroke: #2b8cbe; stroke-width: 1.5; stroke-linecap: square"/>
   </g>
   <g id="line2d_32">
    <path d="M 357.61117 274.614688 
L 356.090789 242.814243 
L 352.282049 234.895738 
L 348.473536 222.991169 
L 344.667875 214.065793 
L 340.859668 201.178448 
L 337.052714 190.347515 
L 333.249641 180.66258 
L 329.441697 172.366447 
L 325.634936 165.927646 
L 321.826956 161.518555 
L 318.019661 157.896099 
L 314.212098 155.169818 
L 310.405221 153.071486 
L 306.603441 151.383888 
L 302.802194 149.752312 
L 299.000373 148.476282 
L 295.199511 147.204479 
L 291.397734 146.102497 
L 287.59595 145.228409 
L 283.800065 144.999262 
L 279.99802 144.531006 
L 276.196127 144.247848 
L 272.395453 143.820747 
L 268.593829 143.442209 
L 264.79182 143.273287 
L 260.991175 143.068154 
L 257.186504 142.994134 
L 253.379975 143.434776 
L 249.57222 143.672971 
L 245.765458 143.861638 
L 241.95766 143.857419 
L 238.151094 144.132723 
L 234.344377 144.015966 
L 230.541374 144.366476 
L 226.73454 144.687394 
L 222.926633 145.041555 
L 219.12006 145.398304 
L 215.313067 145.642861 
L 211.506262 146.314445 
L 207.699428 146.419937 
L 203.896585 146.531502 
L 200.094685 146.761967 
L 196.29203 146.783493 
L 192.49238 146.828727 
L 188.6909 147.685213 
L 184.890205 147.91403 
L 181.089669 148.249245 
L 177.291817 148.405311 
L 173.490454 148.778723 
L 169.689657 149.007252 
L 165.888105 149.392086 
L 162.088643 149.284616 
L 158.287556 149.846835 
L 154.484553 150.084066 
L 150.677458 150.32072 
L 146.870116 150.687128 
L 143.063283 150.72661 
L 139.256812 151.057812 
L 135.450355 151.157255 
L 131.642796 151.162941 
L 127.839459 151.574517 
L 124.032466 151.594023 
L 120.225197 152.21931 
L 116.418871 152.45692 
L 112.612241 152.901393 
L 108.804971 153.089706 
L 104.998515 153.392757 
L 101.193219 153.605505 
L 97.392335 153.823757 
L 93.591364 153.747125 
L 89.803307 154.120742 
L 86.002336 154.511172 
L 82.200465 154.544852 
L 78.399291 154.801862 
L 74.602324 155.041079 
L 70.802369 155.227167 
L 67.001107 155.532039 
L 63.200136 155.705477 
L 59.399048 155.916485 
L 55.597061 156.14822 
" clip-path="url(#pf0f801b13e)" style="fill: none; stroke: #0868ac; stroke-width: 1.5; stroke-linecap: square"/>
   </g>
   <g id="line2d_33">
    <path d="M 356.67292 274.614688 
L 356.09155 263.021925 
L 352.282695 234.959172 
L 348.473307 220.485616 
L 344.668029 210.204667 
L 340.860769 195.786427 
L 337.053589 182.988683 
L 333.24945 171.239693 
L 329.441925 159.872986 
L 325.634743 149.312561 
L 321.827072 139.634869 
L 318.020347 131.474435 
L 314.212592 124.234214 
L 310.405032 118.28765 
L 306.603822 112.865661 
L 302.801395 108.234198 
L 298.999844 104.330159 
L 295.199206 100.602978 
L 291.398148 97.213988 
L 287.595834 94.565608 
L 283.798541 92.064823 
L 279.99707 89.964858 
L 276.194567 88.085684 
L 272.394503 86.754959 
L 268.593328 85.421235 
L 264.791973 83.952886 
L 260.991335 83.048496 
L 257.185938 82.504432 
L 253.37864 82.296596 
L 249.571494 82.085448 
L 245.764885 81.551997 
L 241.958168 81.323312 
L 238.151065 81.761745 
L 234.343753 81.655421 
L 230.539734 81.79995 
L 226.733278 81.962543 
L 222.926894 82.251947 
L 219.1199 82.562398 
L 215.312878 82.947644 
L 211.504854 83.161628 
L 207.698238 83.529172 
L 203.895468 84.078099 
L 200.094047 84.472954 
L 196.293409 84.716176 
L 192.492583 85.107569 
L 188.690726 85.705826 
L 184.889204 86.135309 
L 181.088595 86.639669 
L 177.291498 86.940446 
L 173.489917 87.581242 
L 169.689425 88.231928 
L 165.887989 88.69655 
L 162.0877 88.851957 
L 158.286221 89.210337 
L 154.483291 89.656006 
L 150.676994 90.041861 
L 146.869696 90.655562 
L 143.062325 91.060734 
L 139.255723 91.617869 
L 135.448527 91.964992 
L 131.641693 92.413034 
L 127.839227 92.744269 
L 124.032045 92.981014 
L 120.224921 93.48478 
L 116.418639 93.904951 
L 112.610876 94.520234 
L 108.803898 94.978016 
L 104.997267 94.835745 
L 101.193394 95.613406 
L 97.392074 95.865512 
L 93.589971 96.30495 
L 89.801856 96.496189 
L 86.000827 96.920068 
L 82.199797 97.416418 
L 78.399232 97.790472 
L 74.602789 98.256496 
L 70.801353 98.684298 
L 66.999859 99.129076 
L 63.19883 99.475293 
L 59.3987 99.989624 
L 55.596945 100.440517 
" clip-path="url(#pf0f801b13e)" style="fill: none; stroke: #084081; stroke-width: 1.5; stroke-linecap: square"/>
   </g>
   <g id="line2d_34">
    <path d="M 356.580233 274.614688 
L 356.092235 266.353299 
L 352.281859 233.74489 
L 348.472736 218.535226 
L 344.667419 208.264191 
L 340.859668 193.308246 
L 337.052903 180.350538 
L 333.249107 167.897881 
L 329.442041 155.503155 
L 325.634254 143.973673 
L 321.826651 132.66893 
L 318.0192 122.049706 
L 314.211561 112.13583 
L 310.405032 103.32467 
L 306.603248 95.457505 
L 302.801512 88.106171 
L 298.99988 81.415198 
L 295.198713 75.330261 
L 291.397197 69.857756 
L 287.595 64.780055 
L 283.798055 60.242101 
L 279.996881 56.071329 
L 276.194611 52.152679 
L 272.394692 48.731006 
L 268.592603 45.851452 
L 264.790558 43.047566 
L 260.990377 40.811923 
L 257.184915 38.970608 
L 253.378183 37.243116 
L 249.571342 35.791052 
L 245.764588 34.86606 
L 241.957253 33.979487 
L 238.150108 33.516842 
L 234.342548 33.342168 
L 230.540068 33.44307 
L 226.733321 33.147402 
L 222.926328 33.29264 
L 219.119451 33.342662 
L 215.311993 33.60558 
L 211.50439 33.795632 
L 207.697861 34.219693 
L 203.895743 34.753159 
L 200.093771 35.155629 
L 196.292611 35.456867 
L 192.491132 36.058865 
L 188.689348 36.737108 
L 184.888942 37.268152 
L 181.089176 37.713722 
L 177.291193 38.118004 
L 173.489714 38.896226 
L 169.688395 39.424979 
L 165.887423 40.188861 
L 162.087308 40.595435 
L 158.285887 41.349956 
L 154.483291 41.869429 
L 150.676602 42.431261 
L 146.86852 42.836351 
L 143.061498 43.533697 
L 139.255477 44.183525 
L 135.448774 45.013516 
L 131.641693 45.23195 
L 127.839111 46.026456 
L 124.031436 46.702688 
L 120.223905 47.271986 
L 116.417246 47.566302 
L 112.610876 48.3719 
L 108.804072 48.915322 
L 104.997093 49.635115 
L 101.191826 50.283741 
L 97.391029 50.4003 
L 93.58939 50.824245 
L 89.801914 51.507532 
L 86.001117 52.21386 
L 82.199797 52.734224 
L 78.398507 52.997488 
L 74.601279 53.552167 
L 70.800743 53.927556 
L 66.999395 54.465589 
L 63.199294 55.196227 
L 59.398729 55.75501 
L 55.596452 56.227066 
" clip-path="url(#pf0f801b13e)" style="fill: none; stroke: #081d58; stroke-width: 1.5; stroke-linecap: square"/>
   </g>
   <g id="patch_3">
    <path d="M 40.378125 239.558437 
L 40.378125 17.798438 
" style="fill: none; stroke: #000000; stroke-width: 0.8; stroke-linejoin: miter; stroke-linecap: square"/>
   </g>
   <g id="patch_4">
    <path d="M 40.378125 239.558437 
L 375.178125 239.558437 
" style="fill: none; stroke: #000000; stroke-width: 0.8; stroke-linejoin: miter; stroke-linecap: square"/>
   </g>
   <g id="text_21">
    <!-- $V_G$=-40 -->
    <g transform="translate(232.114508 222.839508) scale(0.1 -0.1)">
     <defs>
      <path id="DejaVuSans-Oblique-56" d="M 1319 0 
L 500 4666 
L 1119 4666 
L 1797 653 
L 4063 4666 
L 4750 4666 
L 2053 0 
L 1319 0 
z
" transform="scale(0.015625)"/>
      <path id="DejaVuSans-Oblique-47" d="M 3494 697 
L 3738 1919 
L 2700 1919 
L 2797 2438 
L 4453 2438 
L 4050 384 
Q 3634 156 3143 32 
Q 2653 -91 2156 -91 
Q 1278 -91 783 396 
Q 288 884 288 1753 
Q 288 2475 589 3126 
Q 891 3778 1422 4213 
Q 1756 4484 2153 4617 
Q 2550 4750 3034 4750 
Q 3472 4750 3873 4639 
Q 4275 4528 4641 4306 
L 4513 3634 
Q 4231 3928 3853 4083 
Q 3475 4238 3047 4238 
Q 2550 4238 2172 4048 
Q 1794 3859 1497 3463 
Q 1244 3125 1098 2667 
Q 953 2209 953 1734 
Q 953 1081 1287 751 
Q 1622 422 2284 422 
Q 2616 422 2925 492 
Q 3234 563 3494 697 
z
" transform="scale(0.015625)"/>
      <path id="DejaVuSans-3d" d="M 678 2906 
L 4684 2906 
L 4684 2381 
L 678 2381 
L 678 2906 
z
M 678 1631 
L 4684 1631 
L 4684 1100 
L 678 1100 
L 678 1631 
z
" transform="scale(0.015625)"/>
     </defs>
     <use xlink:href="#DejaVuSans-Oblique-56" transform="translate(0 0.78125)"/>
     <use xlink:href="#DejaVuSans-Oblique-47" transform="translate(68.408203 -15.625) scale(0.7)"/>
     <use xlink:href="#DejaVuSans-3d" transform="translate(125.385742 0.78125)"/>
     <use xlink:href="#DejaVuSans-2d" transform="translate(209.174805 0.78125)"/>
     <use xlink:href="#DejaVuSans-34" transform="translate(245.258789 0.78125)"/>
     <use xlink:href="#DejaVuSans-30" transform="translate(308.881836 0.78125)"/>
    </g>
   </g>
   <g id="text_22">
    <!-- $V_G$=-50 -->
    <g transform="translate(232.116714 199.250179) scale(0.1 -0.1)">
     <use xlink:href="#DejaVuSans-Oblique-56" transform="translate(0 0.78125)"/>
     <use xlink:href="#DejaVuSans-Oblique-47" transform="translate(68.408203 -15.625) scale(0.7)"/>
     <use xlink:href="#DejaVuSans-3d" transform="translate(125.385742 0.78125)"/>
     <use xlink:href="#DejaVuSans-2d" transform="translate(209.174805 0.78125)"/>
     <use xlink:href="#DejaVuSans-35" transform="translate(245.258789 0.78125)"/>
     <use xlink:href="#DejaVuSans-30" transform="translate(308.881836 0.78125)"/>
    </g>
   </g>
   <g id="text_23">
    <!-- $V_G$=-60 -->
    <g transform="translate(232.115458 139.861638) scale(0.1 -0.1)">
     <use xlink:href="#DejaVuSans-Oblique-56" transform="translate(0 0.78125)"/>
     <use xlink:href="#DejaVuSans-Oblique-47" transform="translate(68.408203 -15.625) scale(0.7)"/>
     <use xlink:href="#DejaVuSans-3d" transform="translate(125.385742 0.78125)"/>
     <use xlink:href="#DejaVuSans-2d" transform="translate(209.174805 0.78125)"/>
     <use xlink:href="#DejaVuSans-36" transform="translate(245.258789 0.78125)"/>
     <use xlink:href="#DejaVuSans-30" transform="translate(308.881836 0.78125)"/>
    </g>
   </g>
   <g id="text_24">
    <!-- $V_G$=-70 -->
    <g transform="translate(232.114885 77.551997) scale(0.1 -0.1)">
     <use xlink:href="#DejaVuSans-Oblique-56" transform="translate(0 0.78125)"/>
     <use xlink:href="#DejaVuSans-Oblique-47" transform="translate(68.408203 -15.625) scale(0.7)"/>
     <use xlink:href="#DejaVuSans-3d" transform="translate(125.385742 0.78125)"/>
     <use xlink:href="#DejaVuSans-2d" transform="translate(209.174805 0.78125)"/>
     <use xlink:href="#DejaVuSans-37" transform="translate(245.258789 0.78125)"/>
     <use xlink:href="#DejaVuSans-30" transform="translate(308.881836 0.78125)"/>
    </g>
   </g>
   <g id="text_25">
    <!-- $V_G$=-80 -->
    <g transform="translate(232.114588 30.86606) scale(0.1 -0.1)">
     <use xlink:href="#DejaVuSans-Oblique-56" transform="translate(0 0.78125)"/>
     <use xlink:href="#DejaVuSans-Oblique-47" transform="translate(68.408203 -15.625) scale(0.7)"/>
     <use xlink:href="#DejaVuSans-3d" transform="translate(125.385742 0.78125)"/>
     <use xlink:href="#DejaVuSans-2d" transform="translate(209.174805 0.78125)"/>
     <use xlink:href="#DejaVuSans-38" transform="translate(245.258789 0.78125)"/>
     <use xlink:href="#DejaVuSans-30" transform="translate(308.881836 0.78125)"/>
    </g>
   </g>
  </g>
 </g>
 <defs>
  <clipPath id="pf0f801b13e">
   <rect x="40.378125" y="17.798438" width="334.8" height="221.76"/>
  </clipPath>
 </defs>
</svg>
