<?xml version="1.0" encoding="utf-8" standalone="no"?>
<!DOCTYPE svg PUBLIC "-//W3C//DTD SVG 1.1//EN"
  "http://www.w3.org/Graphics/SVG/1.1/DTD/svg11.dtd">
<svg xmlns:xlink="http://www.w3.org/1999/xlink" width="377.644375pt" height="267.325pt" viewBox="0 0 377.644375 267.325" xmlns="http://www.w3.org/2000/svg" version="1.1">
 <metadata>
  <rdf:RDF xmlns:dc="http://purl.org/dc/elements/1.1/" xmlns:cc="http://creativecommons.org/ns#" xmlns:rdf="http://www.w3.org/1999/02/22-rdf-syntax-ns#">
   <cc:Work>
    <dc:type rdf:resource="http://purl.org/dc/dcmitype/StillImage"/>
    <dc:date>2024-05-28T17:29:09.725183</dc:date>
    <dc:format>image/svg+xml</dc:format>
    <dc:creator>
     <cc:Agent>
      <dc:title>Matplotlib v3.7.1, https://matplotlib.org/</dc:title>
     </cc:Agent>
    </dc:creator>
   </cc:Work>
  </rdf:RDF>
 </metadata>
 <defs>
  <style type="text/css">*{stroke-linejoin: round; stroke-linecap: butt}</style>
 </defs>
 <g id="figure_1">
  <g id="patch_1">
   <path d="M 0 267.325 
L 377.644375 267.325 
L 377.644375 0 
L 0 0 
z
" style="fill: #ffffff"/>
  </g>
  <g id="axes_1">
   <g id="patch_2">
    <path d="M 33.42 237.69875 
L 368.22 237.69875 
L 368.22 15.93875 
L 33.42 15.93875 
z
" style="fill: #ffffff"/>
   </g>
   <g id="matplotlib.axis_1">
    <g id="xtick_1">
     <g id="line2d_1">
      <defs>
       <path id="me1620756f0" d="M 0 0 
L 0 -6 
" style="stroke: #000000; stroke-width: 0.8"/>
      </defs>
      <g>
       <use xlink:href="#me1620756f0" x="33.42" y="237.69875" style="stroke: #000000; stroke-width: 0.8"/>
      </g>
     </g>
     <g id="text_1">
      <!-- −80 -->
      <g transform="translate(26.635 246.9375) scale(0.08 -0.08)">
       <defs>
        <path id="Helvetica-2212" d="M 3547 1894 
L 3547 1369 
L 288 1369 
L 288 1894 
L 3547 1894 
z
" transform="scale(0.015625)"/>
        <path id="Helvetica-38" d="M 1741 2600 
Q 2113 2600 2322 2808 
Q 2531 3016 2531 3303 
Q 2531 3553 2331 3762 
Q 2131 3972 1722 3972 
Q 1316 3972 1134 3762 
Q 953 3553 953 3272 
Q 953 2956 1187 2778 
Q 1422 2600 1741 2600 
z
M 1775 384 
Q 2166 384 2423 595 
Q 2681 806 2681 1225 
Q 2681 1659 2415 1884 
Q 2150 2109 1734 2109 
Q 1331 2109 1076 1879 
Q 822 1650 822 1244 
Q 822 894 1055 639 
Q 1288 384 1775 384 
z
M 975 2384 
Q 741 2484 609 2619 
Q 363 2869 363 3269 
Q 363 3769 725 4128 
Q 1088 4488 1753 4488 
Q 2397 4488 2762 4148 
Q 3128 3809 3128 3356 
Q 3128 2938 2916 2678 
Q 2797 2531 2547 2391 
Q 2825 2263 2984 2097 
Q 3281 1784 3281 1284 
Q 3281 694 2884 283 
Q 2488 -128 1763 -128 
Q 1109 -128 657 226 
Q 206 581 206 1256 
Q 206 1653 400 1942 
Q 594 2231 975 2384 
z
" transform="scale(0.015625)"/>
        <path id="Helvetica-30" d="M 1731 4475 
Q 2600 4475 2988 3759 
Q 3288 3206 3288 2244 
Q 3288 1331 3016 734 
Q 2622 -122 1728 -122 
Q 922 -122 528 578 
Q 200 1163 200 2147 
Q 200 2909 397 3456 
Q 766 4475 1731 4475 
z
M 1725 391 
Q 2163 391 2422 778 
Q 2681 1166 2681 2222 
Q 2681 2984 2493 3476 
Q 2306 3969 1766 3969 
Q 1269 3969 1039 3501 
Q 809 3034 809 2125 
Q 809 1441 956 1025 
Q 1181 391 1725 391 
z
" transform="scale(0.015625)"/>
       </defs>
       <use xlink:href="#Helvetica-2212"/>
       <use xlink:href="#Helvetica-38" x="58.398438"/>
       <use xlink:href="#Helvetica-30" x="114.013672"/>
      </g>
     </g>
    </g>
    <g id="xtick_2">
     <g id="line2d_2">
      <g>
       <use xlink:href="#me1620756f0" x="75.27" y="237.69875" style="stroke: #000000; stroke-width: 0.8"/>
      </g>
     </g>
     <g id="text_2">
      <!-- −70 -->
      <g transform="translate(68.485 246.9375) scale(0.08 -0.08)">
       <defs>
        <path id="Helvetica-37" d="M 3347 4400 
L 3347 3909 
Q 3131 3700 2773 3181 
Q 2416 2663 2141 2063 
Q 1869 1478 1728 997 
Q 1638 688 1494 0 
L 872 0 
Q 1084 1281 1809 2550 
Q 2238 3294 2709 3834 
L 234 3834 
L 234 4400 
L 3347 4400 
z
" transform="scale(0.015625)"/>
       </defs>
       <use xlink:href="#Helvetica-2212"/>
       <use xlink:href="#Helvetica-37" x="58.398438"/>
       <use xlink:href="#Helvetica-30" x="114.013672"/>
      </g>
     </g>
    </g>
    <g id="xtick_3">
     <g id="line2d_3">
      <g>
       <use xlink:href="#me1620756f0" x="117.12" y="237.69875" style="stroke: #000000; stroke-width: 0.8"/>
      </g>
     </g>
     <g id="text_3">
      <!-- −60 -->
      <g transform="translate(110.335 246.9375) scale(0.08 -0.08)">
       <defs>
        <path id="Helvetica-36" d="M 1872 4494 
Q 2622 4494 2917 4105 
Q 3213 3716 3213 3303 
L 2656 3303 
Q 2606 3569 2497 3719 
Q 2294 4000 1881 4000 
Q 1409 4000 1131 3564 
Q 853 3128 822 2316 
Q 1016 2600 1309 2741 
Q 1578 2866 1909 2866 
Q 2472 2866 2890 2506 
Q 3309 2147 3309 1434 
Q 3309 825 2912 354 
Q 2516 -116 1781 -116 
Q 1153 -116 697 361 
Q 241 838 241 1966 
Q 241 2800 444 3381 
Q 834 4494 1872 4494 
z
M 1831 384 
Q 2275 384 2495 682 
Q 2716 981 2716 1388 
Q 2716 1731 2519 2042 
Q 2322 2353 1803 2353 
Q 1441 2353 1167 2112 
Q 894 1872 894 1388 
Q 894 963 1142 673 
Q 1391 384 1831 384 
z
" transform="scale(0.015625)"/>
       </defs>
       <use xlink:href="#Helvetica-2212"/>
       <use xlink:href="#Helvetica-36" x="58.398438"/>
       <use xlink:href="#Helvetica-30" x="114.013672"/>
      </g>
     </g>
    </g>
    <g id="xtick_4">
     <g id="line2d_4">
      <g>
       <use xlink:href="#me1620756f0" x="158.97" y="237.69875" style="stroke: #000000; stroke-width: 0.8"/>
      </g>
     </g>
     <g id="text_4">
      <!-- −50 -->
      <g transform="translate(152.185 246.9375) scale(0.08 -0.08)">
       <defs>
        <path id="Helvetica-35" d="M 791 1141 
Q 847 659 1238 475 
Q 1438 381 1700 381 
Q 2200 381 2440 700 
Q 2681 1019 2681 1406 
Q 2681 1875 2395 2131 
Q 2109 2388 1709 2388 
Q 1419 2388 1211 2275 
Q 1003 2163 856 1963 
L 369 1991 
L 709 4400 
L 3034 4400 
L 3034 3856 
L 1131 3856 
L 941 2613 
Q 1097 2731 1238 2791 
Q 1488 2894 1816 2894 
Q 2431 2894 2859 2497 
Q 3288 2100 3288 1491 
Q 3288 856 2895 371 
Q 2503 -113 1644 -113 
Q 1097 -113 676 195 
Q 256 503 206 1141 
L 791 1141 
z
" transform="scale(0.015625)"/>
       </defs>
       <use xlink:href="#Helvetica-2212"/>
       <use xlink:href="#Helvetica-35" x="58.398438"/>
       <use xlink:href="#Helvetica-30" x="114.013672"/>
      </g>
     </g>
    </g>
    <g id="xtick_5">
     <g id="line2d_5">
      <g>
       <use xlink:href="#me1620756f0" x="200.82" y="237.69875" style="stroke: #000000; stroke-width: 0.8"/>
      </g>
     </g>
     <g id="text_5">
      <!-- −40 -->
      <g transform="translate(194.035 246.9375) scale(0.08 -0.08)">
       <defs>
        <path id="Helvetica-34" d="M 2116 1584 
L 2116 3613 
L 681 1584 
L 2116 1584 
z
M 2125 0 
L 2125 1094 
L 163 1094 
L 163 1644 
L 2213 4488 
L 2688 4488 
L 2688 1584 
L 3347 1584 
L 3347 1094 
L 2688 1094 
L 2688 0 
L 2125 0 
z
" transform="scale(0.015625)"/>
       </defs>
       <use xlink:href="#Helvetica-2212"/>
       <use xlink:href="#Helvetica-34" x="58.398438"/>
       <use xlink:href="#Helvetica-30" x="114.013672"/>
      </g>
     </g>
    </g>
    <g id="xtick_6">
     <g id="line2d_6">
      <g>
       <use xlink:href="#me1620756f0" x="242.67" y="237.69875" style="stroke: #000000; stroke-width: 0.8"/>
      </g>
     </g>
     <g id="text_6">
      <!-- −30 -->
      <g transform="translate(235.885 246.9375) scale(0.08 -0.08)">
       <defs>
        <path id="Helvetica-33" d="M 1663 -122 
Q 869 -122 511 314 
Q 153 750 153 1375 
L 741 1375 
Q 778 941 903 744 
Q 1122 391 1694 391 
Q 2138 391 2406 628 
Q 2675 866 2675 1241 
Q 2675 1703 2392 1887 
Q 2109 2072 1606 2072 
Q 1550 2072 1492 2070 
Q 1434 2069 1375 2066 
L 1375 2563 
Q 1463 2553 1522 2550 
Q 1581 2547 1650 2547 
Q 1966 2547 2169 2647 
Q 2525 2822 2525 3272 
Q 2525 3606 2287 3787 
Q 2050 3969 1734 3969 
Q 1172 3969 956 3594 
Q 838 3388 822 3006 
L 266 3006 
Q 266 3506 466 3856 
Q 809 4481 1675 4481 
Q 2359 4481 2734 4176 
Q 3109 3872 3109 3294 
Q 3109 2881 2888 2625 
Q 2750 2466 2531 2375 
Q 2884 2278 3082 2001 
Q 3281 1725 3281 1325 
Q 3281 684 2859 281 
Q 2438 -122 1663 -122 
z
" transform="scale(0.015625)"/>
       </defs>
       <use xlink:href="#Helvetica-2212"/>
       <use xlink:href="#Helvetica-33" x="58.398438"/>
       <use xlink:href="#Helvetica-30" x="114.013672"/>
      </g>
     </g>
    </g>
    <g id="xtick_7">
     <g id="line2d_7">
      <g>
       <use xlink:href="#me1620756f0" x="284.52" y="237.69875" style="stroke: #000000; stroke-width: 0.8"/>
      </g>
     </g>
     <g id="text_7">
      <!-- −20 -->
      <g transform="translate(277.735 246.9375) scale(0.08 -0.08)">
       <defs>
        <path id="Helvetica-32" d="M 200 0 
Q 231 578 439 1006 
Q 647 1434 1250 1784 
L 1850 2131 
Q 2253 2366 2416 2531 
Q 2672 2791 2672 3125 
Q 2672 3516 2437 3745 
Q 2203 3975 1813 3975 
Q 1234 3975 1013 3538 
Q 894 3303 881 2888 
L 309 2888 
Q 319 3472 525 3841 
Q 891 4491 1816 4491 
Q 2584 4491 2939 4075 
Q 3294 3659 3294 3150 
Q 3294 2613 2916 2231 
Q 2697 2009 2131 1694 
L 1703 1456 
Q 1397 1288 1222 1134 
Q 909 863 828 531 
L 3272 531 
L 3272 0 
L 200 0 
z
" transform="scale(0.015625)"/>
       </defs>
       <use xlink:href="#Helvetica-2212"/>
       <use xlink:href="#Helvetica-32" x="58.398438"/>
       <use xlink:href="#Helvetica-30" x="114.013672"/>
      </g>
     </g>
    </g>
    <g id="xtick_8">
     <g id="line2d_8">
      <g>
       <use xlink:href="#me1620756f0" x="326.37" y="237.69875" style="stroke: #000000; stroke-width: 0.8"/>
      </g>
     </g>
     <g id="text_8">
      <!-- −10 -->
      <g transform="translate(319.585 246.9375) scale(0.08 -0.08)">
       <defs>
        <path id="Helvetica-31" d="M 613 3169 
L 613 3600 
Q 1222 3659 1462 3798 
Q 1703 3938 1822 4456 
L 2266 4456 
L 2266 0 
L 1666 0 
L 1666 3169 
L 613 3169 
z
" transform="scale(0.015625)"/>
       </defs>
       <use xlink:href="#Helvetica-2212"/>
       <use xlink:href="#Helvetica-31" x="58.398438"/>
       <use xlink:href="#Helvetica-30" x="114.013672"/>
      </g>
     </g>
    </g>
    <g id="xtick_9">
     <g id="line2d_9">
      <g>
       <use xlink:href="#me1620756f0" x="368.22" y="237.69875" style="stroke: #000000; stroke-width: 0.8"/>
      </g>
     </g>
     <g id="text_9">
      <!-- 0 -->
      <g transform="translate(365.995625 246.9375) scale(0.08 -0.08)">
       <use xlink:href="#Helvetica-30"/>
      </g>
     </g>
    </g>
    <g id="xtick_10">
     <g id="line2d_10">
      <defs>
       <path id="m422e738f20" d="M 0 0 
L 0 -4 
" style="stroke: #000000; stroke-width: 0.6"/>
      </defs>
      <g>
       <use xlink:href="#m422e738f20" x="54.345" y="237.69875" style="stroke: #000000; stroke-width: 0.6"/>
      </g>
     </g>
    </g>
    <g id="xtick_11">
     <g id="line2d_11">
      <g>
       <use xlink:href="#m422e738f20" x="96.195" y="237.69875" style="stroke: #000000; stroke-width: 0.6"/>
      </g>
     </g>
    </g>
    <g id="xtick_12">
     <g id="line2d_12">
      <g>
       <use xlink:href="#m422e738f20" x="138.045" y="237.69875" style="stroke: #000000; stroke-width: 0.6"/>
      </g>
     </g>
    </g>
    <g id="xtick_13">
     <g id="line2d_13">
      <g>
       <use xlink:href="#m422e738f20" x="179.895" y="237.69875" style="stroke: #000000; stroke-width: 0.6"/>
      </g>
     </g>
    </g>
    <g id="xtick_14">
     <g id="line2d_14">
      <g>
       <use xlink:href="#m422e738f20" x="221.745" y="237.69875" style="stroke: #000000; stroke-width: 0.6"/>
      </g>
     </g>
    </g>
    <g id="xtick_15">
     <g id="line2d_15">
      <g>
       <use xlink:href="#m422e738f20" x="263.595" y="237.69875" style="stroke: #000000; stroke-width: 0.6"/>
      </g>
     </g>
    </g>
    <g id="xtick_16">
     <g id="line2d_16">
      <g>
       <use xlink:href="#m422e738f20" x="305.445" y="237.69875" style="stroke: #000000; stroke-width: 0.6"/>
      </g>
     </g>
    </g>
    <g id="xtick_17">
     <g id="line2d_17">
      <g>
       <use xlink:href="#m422e738f20" x="347.295" y="237.69875" style="stroke: #000000; stroke-width: 0.6"/>
      </g>
     </g>
    </g>
    <g id="text_10">
     <!-- V$_D$ (V) -->
     <g transform="translate(189.38 258.445) scale(0.08 -0.08)">
      <defs>
       <path id="Helvetica-56" d="M 850 4591 
L 2169 681 
L 3472 4591 
L 4169 4591 
L 2494 0 
L 1834 0 
L 163 4591 
L 850 4591 
z
" transform="scale(0.015625)"/>
       <path id="DejaVuSans-Oblique-44" d="M 1081 4666 
L 2438 4666 
Q 3519 4666 4070 4208 
Q 4622 3750 4622 2847 
Q 4622 2250 4412 1698 
Q 4203 1147 3834 769 
Q 3463 381 2891 190 
Q 2319 0 1538 0 
L 172 0 
L 1081 4666 
z
M 1613 4147 
L 909 519 
L 1734 519 
Q 2794 519 3375 1128 
Q 3956 1738 3956 2847 
Q 3956 3519 3581 3833 
Q 3206 4147 2406 4147 
L 1613 4147 
z
" transform="scale(0.015625)"/>
       <path id="Helvetica-20" transform="scale(0.015625)"/>
       <path id="Helvetica-28" d="M 1894 4666 
Q 1403 3713 1256 3263 
Q 1034 2578 1034 1681 
Q 1034 775 1288 25 
Q 1444 -438 1903 -1306 
L 1525 -1306 
Q 1069 -594 959 -397 
Q 850 -200 722 138 
Q 547 600 478 1125 
Q 444 1397 444 1644 
Q 444 2569 734 3291 
Q 919 3750 1503 4666 
L 1894 4666 
z
" transform="scale(0.015625)"/>
       <path id="Helvetica-29" d="M 222 -1306 
Q 719 -338 863 106 
Q 1081 778 1081 1681 
Q 1081 2584 828 3334 
Q 672 3797 213 4666 
L 591 4666 
Q 1072 3897 1173 3717 
Q 1275 3538 1394 3222 
Q 1544 2831 1608 2450 
Q 1672 2069 1672 1716 
Q 1672 791 1378 66 
Q 1194 -400 613 -1306 
L 222 -1306 
z
" transform="scale(0.015625)"/>
      </defs>
      <use xlink:href="#Helvetica-56" transform="translate(0 0.09375)"/>
      <use xlink:href="#DejaVuSans-Oblique-44" transform="translate(67.65625 -16.3125) scale(0.7)"/>
      <use xlink:href="#Helvetica-20" transform="translate(124.291992 0.09375)"/>
      <use xlink:href="#Helvetica-28" transform="translate(152.075195 0.09375)"/>
      <use xlink:href="#Helvetica-56" transform="translate(185.375977 0.09375)"/>
      <use xlink:href="#Helvetica-29" transform="translate(252.075195 0.09375)"/>
     </g>
    </g>
   </g>
   <g id="matplotlib.axis_2">
    <g id="ytick_1">
     <g id="line2d_18">
      <defs>
       <path id="m7a12c1d50a" d="M 0 0 
L 6 0 
" style="stroke: #000000; stroke-width: 0.8"/>
      </defs>
      <g>
       <use xlink:href="#m7a12c1d50a" x="33.42" y="237.69875" style="stroke: #000000; stroke-width: 0.8"/>
      </g>
     </g>
     <g id="text_11">
      <!-- $\mathdefault{0.0}$ -->
      <g transform="translate(18.72 240.568125) scale(0.08 -0.08)">
       <defs>
        <path id="Helvetica-2e" d="M 547 681 
L 1200 681 
L 1200 0 
L 547 0 
L 547 681 
z
" transform="scale(0.015625)"/>
       </defs>
       <use xlink:href="#Helvetica-30" transform="translate(0 0.078125)"/>
       <use xlink:href="#Helvetica-2e" transform="translate(55.615234 0.078125)"/>
       <use xlink:href="#Helvetica-30" transform="translate(83.398438 0.078125)"/>
      </g>
     </g>
    </g>
    <g id="ytick_2">
     <g id="line2d_19">
      <g>
       <use xlink:href="#m7a12c1d50a" x="33.42" y="208.703639" style="stroke: #000000; stroke-width: 0.8"/>
      </g>
     </g>
     <g id="text_12">
      <!-- $\mathdefault{0.5}$ -->
      <g transform="translate(18.72 211.573014) scale(0.08 -0.08)">
       <use xlink:href="#Helvetica-30" transform="translate(0 0.078125)"/>
       <use xlink:href="#Helvetica-2e" transform="translate(55.615234 0.078125)"/>
       <use xlink:href="#Helvetica-35" transform="translate(83.398438 0.078125)"/>
      </g>
     </g>
    </g>
    <g id="ytick_3">
     <g id="line2d_20">
      <g>
       <use xlink:href="#m7a12c1d50a" x="33.42" y="179.708527" style="stroke: #000000; stroke-width: 0.8"/>
      </g>
     </g>
     <g id="text_13">
      <!-- $\mathdefault{1.0}$ -->
      <g transform="translate(18.72 182.577902) scale(0.08 -0.08)">
       <use xlink:href="#Helvetica-31" transform="translate(0 0.078125)"/>
       <use xlink:href="#Helvetica-2e" transform="translate(55.615234 0.078125)"/>
       <use xlink:href="#Helvetica-30" transform="translate(83.398438 0.078125)"/>
      </g>
     </g>
    </g>
    <g id="ytick_4">
     <g id="line2d_21">
      <g>
       <use xlink:href="#m7a12c1d50a" x="33.42" y="150.713416" style="stroke: #000000; stroke-width: 0.8"/>
      </g>
     </g>
     <g id="text_14">
      <!-- $\mathdefault{1.5}$ -->
      <g transform="translate(18.72 153.582791) scale(0.08 -0.08)">
       <use xlink:href="#Helvetica-31" transform="translate(0 0.375)"/>
       <use xlink:href="#Helvetica-2e" transform="translate(55.615234 0.375)"/>
       <use xlink:href="#Helvetica-35" transform="translate(83.398438 0.375)"/>
      </g>
     </g>
    </g>
    <g id="ytick_5">
     <g id="line2d_22">
      <g>
       <use xlink:href="#m7a12c1d50a" x="33.42" y="121.718304" style="stroke: #000000; stroke-width: 0.8"/>
      </g>
     </g>
     <g id="text_15">
      <!-- $\mathdefault{2.0}$ -->
      <g transform="translate(18.72 124.587679) scale(0.08 -0.08)">
       <use xlink:href="#Helvetica-32" transform="translate(0 0.828125)"/>
       <use xlink:href="#Helvetica-2e" transform="translate(55.615234 0.828125)"/>
       <use xlink:href="#Helvetica-30" transform="translate(83.398438 0.828125)"/>
      </g>
     </g>
    </g>
    <g id="ytick_6">
     <g id="line2d_23">
      <g>
       <use xlink:href="#m7a12c1d50a" x="33.42" y="92.723193" style="stroke: #000000; stroke-width: 0.8"/>
      </g>
     </g>
     <g id="text_16">
      <!-- $\mathdefault{2.5}$ -->
      <g transform="translate(18.72 95.592568) scale(0.08 -0.08)">
       <use xlink:href="#Helvetica-32" transform="translate(0 0.828125)"/>
       <use xlink:href="#Helvetica-2e" transform="translate(55.615234 0.828125)"/>
       <use xlink:href="#Helvetica-35" transform="translate(83.398438 0.828125)"/>
      </g>
     </g>
    </g>
    <g id="ytick_7">
     <g id="line2d_24">
      <g>
       <use xlink:href="#m7a12c1d50a" x="33.42" y="63.728082" style="stroke: #000000; stroke-width: 0.8"/>
      </g>
     </g>
     <g id="text_17">
      <!-- $\mathdefault{3.0}$ -->
      <g transform="translate(18.72 66.597457) scale(0.08 -0.08)">
       <use xlink:href="#Helvetica-33" transform="translate(0 0.984375)"/>
       <use xlink:href="#Helvetica-2e" transform="translate(55.615234 0.984375)"/>
       <use xlink:href="#Helvetica-30" transform="translate(83.398438 0.984375)"/>
      </g>
     </g>
    </g>
    <g id="ytick_8">
     <g id="line2d_25">
      <g>
       <use xlink:href="#m7a12c1d50a" x="33.42" y="34.73297" style="stroke: #000000; stroke-width: 0.8"/>
      </g>
     </g>
     <g id="text_18">
      <!-- $\mathdefault{3.5}$ -->
      <g transform="translate(18.72 37.602345) scale(0.08 -0.08)">
       <use xlink:href="#Helvetica-33" transform="translate(0 0.984375)"/>
       <use xlink:href="#Helvetica-2e" transform="translate(55.615234 0.984375)"/>
       <use xlink:href="#Helvetica-35" transform="translate(83.398438 0.984375)"/>
      </g>
     </g>
    </g>
    <g id="text_19">
     <!-- -I$_D$ (A) -->
     <g transform="translate(13.04 138.01875) rotate(-90) scale(0.08 -0.08)">
      <defs>
       <path id="Helvetica-2d" d="M 266 2072 
L 1834 2072 
L 1834 1494 
L 266 1494 
L 266 2072 
z
" transform="scale(0.015625)"/>
       <path id="Helvetica-49" d="M 628 4591 
L 1256 4591 
L 1256 0 
L 628 0 
L 628 4591 
z
" transform="scale(0.015625)"/>
       <path id="Helvetica-41" d="M 2844 1881 
L 2147 3909 
L 1406 1881 
L 2844 1881 
z
M 1822 4591 
L 2525 4591 
L 4191 0 
L 3509 0 
L 3044 1375 
L 1228 1375 
L 731 0 
L 94 0 
L 1822 4591 
z
" transform="scale(0.015625)"/>
      </defs>
      <use xlink:href="#Helvetica-2d" transform="translate(0 0.09375)"/>
      <use xlink:href="#Helvetica-49" transform="translate(33.300781 0.09375)"/>
      <use xlink:href="#DejaVuSans-Oblique-44" transform="translate(62.041016 -16.3125) scale(0.7)"/>
      <use xlink:href="#Helvetica-20" transform="translate(118.676758 0.09375)"/>
      <use xlink:href="#Helvetica-28" transform="translate(146.459961 0.09375)"/>
      <use xlink:href="#Helvetica-41" transform="translate(179.760742 0.09375)"/>
      <use xlink:href="#Helvetica-29" transform="translate(246.459961 0.09375)"/>
     </g>
    </g>
    <g id="text_20">
     <!-- $\times\mathdefault{10^{−7}}\mathdefault{}$ -->
     <g transform="translate(33.42 12.93875) scale(0.08 -0.08)">
      <defs>
       <path id="DejaVuSans-d7" d="M 4488 3438 
L 3059 2003 
L 4488 575 
L 4116 197 
L 2681 1631 
L 1247 197 
L 878 575 
L 2303 2003 
L 878 3438 
L 1247 3816 
L 2681 2381 
L 4116 3816 
L 4488 3438 
z
" transform="scale(0.015625)"/>
      </defs>
      <use xlink:href="#DejaVuSans-d7" transform="translate(0 0.267188)"/>
      <use xlink:href="#Helvetica-31" transform="translate(83.789062 0.267188)"/>
      <use xlink:href="#Helvetica-30" transform="translate(139.404297 0.267188)"/>
      <use xlink:href="#Helvetica-2212" transform="translate(195.934727 36.875) scale(0.7)"/>
      <use xlink:href="#Helvetica-37" transform="translate(236.813633 36.875) scale(0.7)"/>
     </g>
    </g>
   </g>
   <g id="line2d_26">
    <path d="M 368.211773 237.694109 
L 364.026365 237.689916 
L 359.83536 237.668635 
L 355.64782 237.254197 
L 351.458398 237.278508 
L 347.270732 237.317179 
L 343.081958 237.352431 
L 338.897914 237.386123 
L 334.708283 237.415614 
L 330.52068 237.43844 
L 326.330923 237.458508 
L 322.143301 237.470728 
L 317.954274 237.47973 
L 313.766336 237.488281 
L 309.583384 237.497149 
L 305.401177 237.507383 
L 301.218133 237.515528 
L 297.036901 237.52543 
L 292.854551 237.534469 
L 288.672456 237.539763 
L 284.494728 237.54153 
L 280.31261 237.545273 
L 276.129007 237.544911 
L 271.94862 237.54646 
L 267.765895 237.546326 
L 263.584048 237.546872 
L 259.402433 237.546986 
L 255.216419 237.545234 
L 251.027021 237.546133 
L 246.83898 237.545113 
L 242.650827 237.544085 
L 238.462745 237.543874 
L 234.273754 237.544004 
L 230.085977 237.543252 
L 225.901551 237.543231 
L 221.713949 237.542553 
L 217.524687 237.543015 
L 213.337547 237.541221 
L 209.14846 237.542558 
L 204.959773 237.542503 
L 200.770398 237.541603 
L 196.58832 237.541575 
L 192.405603 237.540884 
L 188.223859 237.541282 
L 184.042068 237.54085 
L 179.859958 237.540382 
L 175.677512 237.539516 
L 171.496982 237.540555 
L 167.318608 237.537815 
L 163.136721 237.537844 
L 158.95493 237.537616 
L 154.772612 237.53557 
L 150.591794 237.534834 
L 146.409907 237.533273 
L 142.226153 237.531655 
L 138.038407 237.529564 
L 133.849016 237.528334 
L 129.661318 237.525849 
L 125.473141 237.523273 
L 121.285539 237.519184 
L 117.09642 237.517478 
L 112.913113 237.513977 
L 108.724106 237.509257 
L 104.535625 237.505893 
L 100.347496 237.500436 
L 96.159814 237.494537 
L 91.97044 237.4881 
L 87.783269 237.48227 
L 83.5968 237.472409 
L 79.415504 237.464035 
L 75.232771 237.451575 
L 71.0653 237.442303 
L 66.882311 237.430572 
L 62.702228 237.41527 
L 58.519879 237.400827 
L 54.342861 237.379476 
L 50.161149 237.355295 
L 45.979151 237.328797 
L 41.79712 237.293249 
L 37.61592 237.251293 
L 33.433091 237.198209 
" clip-path="url(#pa99ac1d2a4)" style="fill: none; stroke: #e0f3db; stroke-width: 1.5; stroke-linecap: square"/>
   </g>
   <g id="line2d_27">
    <path d="M 368.212425 224.071149 
L 364.025011 233.802326 
L 359.836426 234.129765 
L 355.648553 234.667291 
L 351.459508 235.077803 
L 347.26975 236.423818 
L 343.08127 236.439361 
L 338.89712 236.566287 
L 334.707696 236.671691 
L 330.519675 236.768194 
L 326.330252 236.852818 
L 322.142506 236.922268 
L 317.953396 236.980982 
L 313.765921 237.03037 
L 309.583152 237.072968 
L 305.400339 237.108284 
L 301.217718 237.14233 
L 297.036087 237.17003 
L 292.854886 237.195419 
L 288.671882 237.21861 
L 284.49464 237.239394 
L 280.311939 237.257605 
L 276.129278 237.273719 
L 271.948157 237.291386 
L 267.766167 237.304346 
L 263.58317 237.316714 
L 259.402225 237.329022 
L 255.215852 237.339955 
L 251.02758 237.349031 
L 246.838684 237.35794 
L 242.65125 237.36657 
L 238.462163 237.374448 
L 234.274026 237.380301 
L 230.085593 237.386507 
L 225.901823 237.393966 
L 221.713279 237.396798 
L 217.524655 237.401986 
L 213.336717 237.406456 
L 209.148636 237.409499 
L 204.95923 237.411516 
L 200.771915 237.414646 
L 196.587681 237.416291 
L 192.40581 237.416565 
L 188.223492 237.418114 
L 184.041446 237.41768 
L 179.859495 237.417412 
L 175.677704 237.415255 
L 171.495961 237.413143 
L 167.318831 237.410766 
L 163.136721 237.405717 
L 158.954993 237.401503 
L 154.772675 237.395106 
L 150.59189 237.389391 
L 146.410179 237.379523 
L 142.226312 237.372715 
L 138.038391 237.362504 
L 133.847196 237.348364 
L 129.660345 237.33437 
L 125.473173 237.321003 
L 121.285316 237.306917 
L 117.096388 237.288183 
L 112.912953 237.269187 
L 108.723754 237.244319 
L 104.535051 237.214674 
L 100.347177 237.179372 
L 96.15892 237.140232 
L 91.970121 237.101917 
L 87.782311 237.064232 
L 83.5968 237.024792 
L 79.415057 236.977861 
L 75.232196 236.933124 
L 71.064821 236.896319 
L 66.88279 236.847965 
L 62.700728 236.823851 
L 58.519016 236.821199 
L 54.341616 236.831701 
L 50.160958 236.84571 
L 45.977969 236.869672 
L 41.797152 236.883193 
L 37.615505 236.901582 
L 33.432963 236.913802 
" clip-path="url(#pa99ac1d2a4)" style="fill: none; stroke: #ccebc5; stroke-width: 1.5; stroke-linecap: square"/>
   </g>
   <g id="line2d_28">
    <path d="M 368.212676 225.694985 
L 364.025096 233.329376 
L 359.835924 233.449656 
L 355.647925 234.189051 
L 351.459256 234.650343 
L 347.270963 235.005939 
L 343.082336 235.291913 
L 338.89695 236.403239 
L 334.707696 236.387876 
L 330.519176 236.490657 
L 326.330296 236.578161 
L 322.142379 236.655208 
L 317.95304 236.724848 
L 313.765167 236.787627 
L 309.582901 236.848939 
L 305.400132 236.897703 
L 301.217534 236.940184 
L 297.036438 236.976549 
L 292.854631 237.007933 
L 288.670173 237.036332 
L 284.494457 237.060505 
L 280.31154 237.083571 
L 276.129023 237.1032 
L 271.947615 237.122408 
L 267.765855 237.138782 
L 263.583003 237.155125 
L 259.402026 237.170576 
L 255.215437 237.181847 
L 251.027013 237.19444 
L 246.838118 237.206163 
L 242.650683 237.21614 
L 238.461851 237.224128 
L 234.27377 237.23526 
L 230.085386 237.24206 
L 225.90128 237.249081 
L 221.713326 237.257722 
L 217.524383 237.263302 
L 213.336813 237.268753 
L 209.147981 237.274652 
L 204.959102 237.2802 
L 200.77126 237.283085 
L 196.587553 237.28781 
L 192.405188 237.290016 
L 188.223524 237.293743 
L 184.041478 237.294917 
L 179.859623 237.296667 
L 175.677049 237.29832 
L 171.496312 237.299366 
L 167.317921 237.297891 
L 163.136369 237.297407 
L 158.954738 237.297088 
L 154.772675 237.29238 
L 150.59114 237.289629 
L 146.409891 237.28544 
L 142.225722 237.27942 
L 138.037848 237.272628 
L 133.848266 237.264516 
L 129.659339 237.256403 
L 125.47303 237.2428 
L 121.284597 237.231523 
L 117.095989 237.216551 
L 112.912171 237.202124 
L 108.723643 237.186501 
L 104.534636 237.16558 
L 100.347145 237.140139 
L 96.158345 237.110311 
L 91.970216 237.075199 
L 87.782087 237.039793 
L 83.592905 237.005842 
L 79.414674 236.978828 
L 75.232228 236.951711 
L 71.06447 236.911123 
L 66.880906 236.874565 
L 62.7006 236.839984 
L 58.519144 236.808268 
L 54.341328 236.790213 
L 50.160287 236.77951 
L 45.978353 236.781395 
L 41.796354 236.780688 
L 37.615249 236.793445 
L 33.432548 236.807423 
" clip-path="url(#pa99ac1d2a4)" style="fill: none; stroke: #a8ddb5; stroke-width: 1.5; stroke-linecap: square"/>
   </g>
   <g id="line2d_29">
    <path d="M 368.212718 227.203471 
L 364.024551 232.712853 
L 359.83584 231.83838 
L 355.648009 232.576653 
L 351.458879 233.355012 
L 347.26996 233.726985 
L 343.081707 233.976482 
L 338.897349 234.194347 
L 334.708761 234.377741 
L 330.520429 234.490179 
L 326.331007 234.65309 
L 322.143009 234.725057 
L 317.953332 234.860258 
L 313.76571 234.965699 
L 309.58399 235.061989 
L 305.40093 235.139781 
L 301.218029 235.20086 
L 297.035895 235.292719 
L 292.85329 235.827727 
L 288.670022 235.774363 
L 284.492844 235.813894 
L 280.310199 235.869546 
L 276.12773 235.906943 
L 271.946194 235.928228 
L 267.764179 235.956215 
L 263.581765 235.996862 
L 259.40086 236.009544 
L 255.214344 236.048359 
L 251.025863 236.060202 
L 246.837511 236.105458 
L 242.649262 236.117473 
L 238.46087 236.135813 
L 234.272509 236.176744 
L 230.083981 236.16879 
L 225.898726 236.179582 
L 221.712177 236.199728 
L 217.52333 236.227946 
L 213.335887 236.243701 
L 209.1468 236.253499 
L 204.958463 236.274544 
L 200.770558 236.28607 
L 196.585574 236.296586 
L 192.404246 236.29967 
L 188.222359 236.306648 
L 184.04052 236.303577 
L 179.85793 236.322482 
L 175.676618 236.333991 
L 171.494955 236.32528 
L 167.317298 236.33698 
L 163.135332 236.353906 
L 158.953716 236.332597 
L 154.771271 236.328542 
L 150.590932 236.356728 
L 146.408566 236.352525 
L 142.225594 236.351803 
L 138.036906 236.360679 
L 133.847931 236.360149 
L 129.660153 236.366898 
L 125.471673 236.346915 
L 121.284118 236.355487 
L 117.095431 236.342448 
L 112.912011 236.332457 
L 108.722781 236.319487 
L 104.534348 236.322961 
L 100.345804 236.308949 
L 96.158186 236.304585 
L 91.96597 236.27647 
L 87.781832 236.248726 
L 83.595491 236.217617 
L 79.413301 236.181512 
L 75.231589 236.155909 
L 71.064278 236.132106 
L 66.88212 236.095634 
L 62.700121 236.08403 
L 58.518537 236.041284 
L 54.341041 236.002765 
L 50.160255 235.973489 
L 45.977203 235.962128 
L 41.79613 235.984677 
L 37.614579 236.009409 
L 33.431973 236.004304 
" clip-path="url(#pa99ac1d2a4)" style="fill: none; stroke: #7bccc4; stroke-width: 1.5; stroke-linecap: square"/>
   </g>
   <g id="line2d_30">
    <path d="M 368.206273 213.287329 
L 364.016976 219.104189 
L 359.834543 222.516785 
L 355.642652 223.049003 
L 351.456828 222.065885 
L 347.2682 221.786619 
L 343.080745 222.144738 
L 338.896302 222.181938 
L 334.707636 222.533653 
L 330.518669 222.655659 
L 326.329626 222.739585 
L 322.141253 222.942499 
L 317.95233 222.932617 
L 313.764832 222.927607 
L 309.582649 223.008375 
L 305.399884 223.265079 
L 301.216361 223.270681 
L 297.034259 223.356471 
L 292.85325 223.383484 
L 288.670692 223.391472 
L 284.493491 223.592361 
L 280.311021 223.72601 
L 276.127666 223.98346 
L 271.946529 224.051266 
L 267.764219 224.075916 
L 263.58171 224.345734 
L 259.400741 224.412658 
L 255.215078 224.603023 
L 251.026247 224.537307 
L 246.8372 224.778163 
L 242.649158 224.979821 
L 238.460862 225.004999 
L 234.273275 224.999698 
L 230.084492 225.114609 
L 225.900418 225.300663 
L 221.712097 225.312694 
L 217.523218 225.402729 
L 213.335456 225.370309 
L 209.147423 225.33528 
L 204.958288 225.402061 
L 200.770542 225.603918 
L 196.586436 225.691268 
L 192.403751 225.597714 
L 188.222614 225.484224 
L 184.040727 225.565359 
L 179.858425 225.787371 
L 175.676858 225.840967 
L 171.495146 225.811713 
L 167.317027 225.907642 
L 163.135635 225.928978 
L 158.954115 225.922669 
L 154.772484 226.037673 
L 150.591188 226.197081 
L 146.408758 226.154893 
L 142.225019 226.21866 
L 138.037241 226.249624 
L 133.848474 226.367737 
L 129.660648 226.256519 
L 125.472439 226.283063 
L 121.283751 226.364316 
L 117.095143 226.475889 
L 112.911788 226.454568 
L 108.723547 226.466399 
L 104.534875 226.478529 
L 100.347017 226.409975 
L 96.157962 226.499136 
L 91.969801 226.648027 
L 87.781481 226.583987 
L 83.596385 226.6029 
L 79.414674 226.656121 
L 75.232004 226.642799 
L 71.064757 226.800675 
L 66.882599 226.850312 
L 62.700377 226.939453 
L 58.518889 226.741362 
L 54.341999 226.870977 
L 50.160702 226.789033 
L 45.978033 226.729906 
L 41.796035 226.678356 
L 37.615728 226.790897 
L 33.432804 226.580671 
" clip-path="url(#pa99ac1d2a4)" style="fill: none; stroke: #4eb3d3; stroke-width: 1.5; stroke-linecap: square"/>
   </g>
   <g id="line2d_31">
    <path d="M 368.213513 237.932007 
L 364.024523 237.480186 
L 359.836887 233.630675 
L 355.646543 224.958374 
L 351.456871 217.505414 
L 347.267948 211.118133 
L 343.083339 209.811579 
L 338.897685 206.155931 
L 334.708346 204.476502 
L 330.520429 203.513921 
L 326.331302 202.521176 
L 322.143301 202.028873 
L 317.954086 201.622687 
L 313.765291 201.17233 
L 309.583068 201.138612 
L 305.400132 200.744029 
L 301.218205 200.290301 
L 297.036853 200.352837 
L 292.854639 200.311246 
L 288.671195 200.494758 
L 284.494122 200.425922 
L 280.311939 200.287726 
L 276.128927 200.187344 
L 271.948581 200.444085 
L 267.766606 200.505533 
L 263.58325 200.702256 
L 259.401738 201.06767 
L 255.215669 201.167847 
L 251.02758 201.165209 
L 246.839083 201.237239 
L 242.651585 201.390491 
L 238.461867 201.621484 
L 234.273499 201.744335 
L 230.083534 201.941907 
L 225.901855 201.899112 
L 221.713566 201.858043 
L 217.524463 202.202777 
L 213.336717 202.434239 
L 209.147215 202.502985 
L 204.958831 202.639545 
L 200.771628 202.758173 
L 196.587729 202.907181 
L 192.405587 203.062456 
L 188.223317 203.002787 
L 184.041222 203.381496 
L 179.858888 203.445001 
L 175.677736 203.46858 
L 171.496695 203.557013 
L 167.318224 203.642249 
L 163.136226 203.676959 
L 158.954211 203.698227 
L 154.772117 203.810235 
L 150.590629 203.980421 
L 146.410003 203.997176 
L 142.226488 204.136338 
L 138.038439 204.153356 
L 133.848362 204.238567 
L 129.660855 204.181915 
L 125.472934 204.313846 
L 121.285523 204.619035 
L 117.096692 204.686405 
L 112.912745 204.579872 
L 108.72302 204.603042 
L 104.534524 204.374624 
L 100.3474 204.427292 
L 96.159463 204.668685 
L 91.967949 204.664232 
L 87.782311 204.893262 
L 83.596321 204.867865 
L 79.414833 204.988461 
L 75.232707 205.175076 
L 71.065619 205.08196 
L 66.884004 204.804684 
L 62.701686 204.969947 
L 58.519463 205.229383 
L 54.342094 205.279764 
L 50.161565 205.197281 
L 45.979151 205.409729 
L 41.797695 205.629477 
L 37.616303 205.537501 
L 33.433442 205.665768 
" clip-path="url(#pa99ac1d2a4)" style="fill: none; stroke: #2b8cbe; stroke-width: 1.5; stroke-linecap: square"/>
   </g>
   <g id="line2d_32">
    <path d="M 365.466389 268.325 
L 364.026727 240.954555 
L 359.836469 233.03605 
L 355.64646 221.131481 
L 351.459589 212.206106 
L 347.269918 199.31876 
L 343.081625 188.487828 
L 338.897601 178.802892 
L 334.708219 170.506759 
L 330.520138 164.067958 
L 326.330715 159.658867 
L 322.142047 156.036412 
L 317.953084 153.310131 
L 313.764875 151.211798 
L 309.582274 149.524201 
L 305.400259 147.892625 
L 301.217614 146.616595 
L 297.036023 145.344792 
L 292.853425 144.24281 
L 288.67082 143.368722 
L 284.494704 143.139575 
L 280.311812 142.671318 
L 276.129086 142.388161 
L 271.947702 141.961059 
L 267.765273 141.582522 
L 263.58242 141.413599 
L 259.401068 141.208467 
L 255.215286 141.134447 
L 251.02746 141.575088 
L 246.838285 141.813283 
L 242.650204 142.001951 
L 238.460981 141.997731 
L 234.273116 142.273035 
L 230.085083 142.156278 
L 225.901136 142.506789 
L 221.712975 142.827706 
L 217.523633 143.181867 
L 213.335759 143.538616 
L 209.147423 143.783173 
L 204.959294 144.454758 
L 200.771133 144.560249 
L 196.587362 144.671815 
L 192.404629 144.90228 
L 188.221066 144.923805 
L 184.040807 144.96904 
L 179.858537 145.825525 
L 175.677129 146.054342 
L 171.495897 146.389558 
L 167.317618 146.545624 
L 163.135475 146.919036 
L 158.953956 147.147564 
L 154.771606 147.532398 
L 150.591555 147.424929 
L 146.409716 147.987148 
L 142.225769 148.224379 
L 138.037321 148.461033 
L 133.848601 148.82744 
L 129.66044 148.866922 
L 125.472679 149.198124 
L 121.284933 149.297567 
L 117.095973 149.303254 
L 112.91166 149.714829 
L 108.723323 149.734335 
L 104.534683 150.359622 
L 100.347081 150.597232 
L 96.159144 151.041706 
L 91.970504 151.230019 
L 87.782758 151.53307 
L 83.596289 151.745817 
L 79.414674 151.964069 
L 75.232962 151.887437 
L 71.065459 152.261055 
L 66.883748 152.651484 
L 62.701047 152.685165 
L 58.519112 152.942174 
L 54.341807 153.181391 
L 50.161213 153.367479 
L 45.979183 153.672351 
L 41.797471 153.845789 
L 37.615632 154.056798 
L 33.432804 154.288532 
" clip-path="url(#pa99ac1d2a4)" style="fill: none; stroke: #0868ac; stroke-width: 1.5; stroke-linecap: square"/>
   </g>
   <g id="line2d_33">
    <path d="M 364.422754 268.325 
L 364.027565 261.162238 
L 359.83718 233.099484 
L 355.646209 218.625928 
L 351.459759 208.34498 
L 347.271129 193.926739 
L 343.082587 181.128995 
L 338.897391 169.380005 
L 334.70847 158.013298 
L 330.519926 147.452873 
L 326.330843 137.775182 
L 322.142802 129.614748 
L 317.953627 122.374526 
L 313.764668 116.427963 
L 309.582693 111.005974 
L 305.399381 106.37451 
L 301.217032 102.470471 
L 297.035687 98.743291 
L 292.85388 95.354301 
L 288.670692 92.70592 
L 284.493028 90.205135 
L 280.310766 88.105171 
L 276.12737 86.225997 
L 271.946657 84.895272 
L 267.764722 83.561547 
L 263.582588 82.093199 
L 259.401243 81.188809 
L 255.214663 80.644744 
L 251.025991 80.436909 
L 246.837487 80.22576 
L 242.649573 79.69231 
L 238.46154 79.463625 
L 234.273084 79.902057 
L 230.084396 79.795733 
L 225.899332 79.940262 
L 221.711586 80.102855 
L 217.52392 80.392259 
L 213.335584 80.702711 
L 209.147215 81.087957 
L 204.957745 81.30194 
L 200.769824 81.669485 
L 196.586133 82.218411 
L 192.403926 82.613266 
L 188.222582 82.856488 
L 184.041031 83.247882 
L 179.858345 83.846139 
L 175.676028 84.275622 
L 171.494715 84.779982 
L 167.317267 85.080758 
L 163.134885 85.721555 
L 158.9537 86.37224 
L 154.771478 86.836862 
L 150.590517 86.992269 
L 146.408247 87.35065 
L 142.22438 87.796318 
L 138.03681 88.182174 
L 133.848138 88.795874 
L 129.659387 89.201047 
L 125.471481 89.758181 
L 121.282921 90.105305 
L 117.09476 90.553346 
L 112.911404 90.884581 
L 108.72286 91.121326 
L 104.53438 91.625093 
L 100.346826 92.045264 
L 96.157643 92.660546 
L 91.969322 93.118328 
L 87.781385 92.976057 
L 83.596481 93.753719 
L 79.414386 94.005825 
L 75.23143 94.445263 
L 71.063863 94.636501 
L 66.882088 95.06038 
L 62.700313 95.55673 
L 58.519048 95.930785 
L 54.342318 96.396808 
L 50.160096 96.82461 
L 45.97781 97.269388 
L 41.796035 97.615605 
L 37.615249 98.129937 
L 33.432676 98.58083 
" clip-path="url(#pa99ac1d2a4)" style="fill: none; stroke: #084081; stroke-width: 1.5; stroke-linecap: square"/>
   </g>
   <g id="line2d_34">
    <path d="M 364.277307 268.325 
L 364.028318 264.493612 
L 359.83626 231.885203 
L 355.64558 216.675539 
L 351.459088 206.404504 
L 347.269918 191.448559 
L 343.081833 178.49085 
L 338.897014 166.038194 
L 334.708598 153.643467 
L 330.519387 142.113986 
L 326.33038 130.809242 
L 322.141541 120.190019 
L 317.952494 110.276143 
L 313.764668 101.464982 
L 309.582063 93.597817 
L 305.399509 86.246484 
L 301.217071 79.555511 
L 297.035145 73.470574 
L 292.852835 67.998068 
L 288.669774 62.920368 
L 284.492493 58.382414 
L 280.310558 54.211642 
L 276.127418 50.292992 
L 271.946864 46.871318 
L 267.763924 43.991764 
L 263.581031 41.187878 
L 259.40019 38.952236 
L 255.213537 37.110921 
L 251.025488 35.383429 
L 246.837319 33.931365 
L 242.649246 33.006372 
L 238.460534 32.119799 
L 234.27203 31.657155 
L 230.083071 31.48248 
L 225.899699 31.583382 
L 221.711634 31.287715 
L 217.523298 31.432953 
L 213.335089 31.482975 
L 209.146241 31.745893 
L 204.957234 31.935945 
L 200.769408 32.360005 
L 196.586436 32.893472 
L 192.403623 33.295941 
L 188.221704 33.597179 
L 184.039434 34.199178 
L 179.856829 34.877421 
L 175.67574 35.408465 
L 171.495354 35.854034 
L 167.316931 36.258316 
L 163.134661 37.036538 
L 158.952567 37.565291 
L 154.770855 38.329174 
L 150.590086 38.735747 
L 146.40788 39.490268 
L 142.22438 40.009742 
L 138.036379 40.571574 
L 133.846845 40.976664 
L 129.658477 41.674009 
L 125.47121 42.323838 
L 121.283192 43.153829 
L 117.09476 43.372262 
L 112.911277 44.166768 
L 108.72219 44.843 
L 104.533263 45.412299 
L 100.345293 45.706614 
L 96.157643 46.512212 
L 91.969514 47.055634 
L 87.781193 47.775428 
L 83.594757 48.424053 
L 79.413237 48.540613 
L 75.230791 48.964558 
L 71.063927 49.647844 
L 66.882407 50.354172 
L 62.700313 50.874536 
L 58.51825 51.1378 
L 54.340658 51.692479 
L 50.159425 52.067869 
L 45.977299 52.605901 
L 41.796545 53.33654 
L 37.615281 53.895323 
L 33.432133 54.367378 
" clip-path="url(#pa99ac1d2a4)" style="fill: none; stroke: #081d58; stroke-width: 1.5; stroke-linecap: square"/>
   </g>
   <g id="patch_3">
    <path d="M 33.42 237.69875 
L 33.42 15.93875 
" style="fill: none; stroke: #000000; stroke-width: 0.5; stroke-linejoin: miter; stroke-linecap: square"/>
   </g>
   <g id="patch_4">
    <path d="M 33.42 237.69875 
L 368.22 237.69875 
" style="fill: none; stroke: #000000; stroke-width: 0.5; stroke-linejoin: miter; stroke-linecap: square"/>
   </g>
   <g id="text_21">
    <!-- $V_G$=-40 -->
    <g transform="translate(234.489158 220.979821) scale(0.08 -0.08)">
     <defs>
      <path id="DejaVuSans-Oblique-56" d="M 1319 0 
L 500 4666 
L 1119 4666 
L 1797 653 
L 4063 4666 
L 4750 4666 
L 2053 0 
L 1319 0 
z
" transform="scale(0.015625)"/>
      <path id="DejaVuSans-Oblique-47" d="M 3494 697 
L 3738 1919 
L 2700 1919 
L 2797 2438 
L 4453 2438 
L 4050 384 
Q 3634 156 3143 32 
Q 2653 -91 2156 -91 
Q 1278 -91 783 396 
Q 288 884 288 1753 
Q 288 2475 589 3126 
Q 891 3778 1422 4213 
Q 1756 4484 2153 4617 
Q 2550 4750 3034 4750 
Q 3472 4750 3873 4639 
Q 4275 4528 4641 4306 
L 4513 3634 
Q 4231 3928 3853 4083 
Q 3475 4238 3047 4238 
Q 2550 4238 2172 4048 
Q 1794 3859 1497 3463 
Q 1244 3125 1098 2667 
Q 953 2209 953 1734 
Q 953 1081 1287 751 
Q 1622 422 2284 422 
Q 2616 422 2925 492 
Q 3234 563 3494 697 
z
" transform="scale(0.015625)"/>
      <path id="Helvetica-3d" d="M 3547 2569 
L 3547 2044 
L 288 2044 
L 288 2569 
L 3547 2569 
z
M 3547 1228 
L 3547 694 
L 288 694 
L 288 1228 
L 3547 1228 
z
" transform="scale(0.015625)"/>
     </defs>
     <use xlink:href="#DejaVuSans-Oblique-56" transform="translate(0 0.09375)"/>
     <use xlink:href="#DejaVuSans-Oblique-47" transform="translate(68.408203 -16.3125) scale(0.7)"/>
     <use xlink:href="#Helvetica-3d" transform="translate(125.385742 0.09375)"/>
     <use xlink:href="#Helvetica-2d" transform="translate(183.78418 0.09375)"/>
     <use xlink:href="#Helvetica-34" transform="translate(217.084961 0.09375)"/>
     <use xlink:href="#Helvetica-30" transform="translate(272.700195 0.09375)"/>
    </g>
   </g>
   <g id="text_22">
    <!-- $V_G$=-50 -->
    <g transform="translate(234.491585 197.390491) scale(0.08 -0.08)">
     <use xlink:href="#DejaVuSans-Oblique-56" transform="translate(0 0.09375)"/>
     <use xlink:href="#DejaVuSans-Oblique-47" transform="translate(68.408203 -16.3125) scale(0.7)"/>
     <use xlink:href="#Helvetica-3d" transform="translate(125.385742 0.09375)"/>
     <use xlink:href="#Helvetica-2d" transform="translate(183.78418 0.09375)"/>
     <use xlink:href="#Helvetica-35" transform="translate(217.084961 0.09375)"/>
     <use xlink:href="#Helvetica-30" transform="translate(272.700195 0.09375)"/>
    </g>
   </g>
   <g id="text_23">
    <!-- $V_G$=-60 -->
    <g transform="translate(234.490204 138.001951) scale(0.08 -0.08)">
     <use xlink:href="#DejaVuSans-Oblique-56" transform="translate(0 0.09375)"/>
     <use xlink:href="#DejaVuSans-Oblique-47" transform="translate(68.408203 -16.3125) scale(0.7)"/>
     <use xlink:href="#Helvetica-3d" transform="translate(125.385742 0.09375)"/>
     <use xlink:href="#Helvetica-2d" transform="translate(183.78418 0.09375)"/>
     <use xlink:href="#Helvetica-36" transform="translate(217.084961 0.09375)"/>
     <use xlink:href="#Helvetica-30" transform="translate(272.700195 0.09375)"/>
    </g>
   </g>
   <g id="text_24">
    <!-- $V_G$=-70 -->
    <g transform="translate(234.489573 75.69231) scale(0.08 -0.08)">
     <use xlink:href="#DejaVuSans-Oblique-56" transform="translate(0 0.09375)"/>
     <use xlink:href="#DejaVuSans-Oblique-47" transform="translate(68.408203 -16.3125) scale(0.7)"/>
     <use xlink:href="#Helvetica-3d" transform="translate(125.385742 0.09375)"/>
     <use xlink:href="#Helvetica-2d" transform="translate(183.78418 0.09375)"/>
     <use xlink:href="#Helvetica-37" transform="translate(217.084961 0.09375)"/>
     <use xlink:href="#Helvetica-30" transform="translate(272.700195 0.09375)"/>
    </g>
   </g>
   <g id="text_25">
    <!-- $V_G$=-80 -->
    <g transform="translate(234.489246 29.006372) scale(0.08 -0.08)">
     <use xlink:href="#DejaVuSans-Oblique-56" transform="translate(0 0.09375)"/>
     <use xlink:href="#DejaVuSans-Oblique-47" transform="translate(68.408203 -16.3125) scale(0.7)"/>
     <use xlink:href="#Helvetica-3d" transform="translate(125.385742 0.09375)"/>
     <use xlink:href="#Helvetica-2d" transform="translate(183.78418 0.09375)"/>
     <use xlink:href="#Helvetica-38" transform="translate(217.084961 0.09375)"/>
     <use xlink:href="#Helvetica-30" transform="translate(272.700195 0.09375)"/>
    </g>
   </g>
  </g>
 </g>
 <defs>
  <clipPath id="pa99ac1d2a4">
   <rect x="33.42" y="15.93875" width="334.8" height="221.76"/>
  </clipPath>
 </defs>
</svg>
