<?xml version="1.0" encoding="utf-8" standalone="no"?>
<!DOCTYPE svg PUBLIC "-//W3C//DTD SVG 1.1//EN"
  "http://www.w3.org/Graphics/SVG/1.1/DTD/svg11.dtd">
<svg xmlns:xlink="http://www.w3.org/1999/xlink" width="432pt" height="432pt" viewBox="0 0 432 432" xmlns="http://www.w3.org/2000/svg" version="1.1">
 <metadata>
  <rdf:RDF xmlns:dc="http://purl.org/dc/elements/1.1/" xmlns:cc="http://creativecommons.org/ns#" xmlns:rdf="http://www.w3.org/1999/02/22-rdf-syntax-ns#">
   <cc:Work>
    <dc:type rdf:resource="http://purl.org/dc/dcmitype/StillImage"/>
    <dc:date>2024-10-03T21:19:07.649384</dc:date>
    <dc:format>image/svg+xml</dc:format>
    <dc:creator>
     <cc:Agent>
      <dc:title>Matplotlib v3.7.1, https://matplotlib.org/</dc:title>
     </cc:Agent>
    </dc:creator>
   </cc:Work>
  </rdf:RDF>
 </metadata>
 <defs>
  <style type="text/css">*{stroke-linejoin: round; stroke-linecap: butt}</style>
 </defs>
 <g id="figure_1">
  <g id="patch_1">
   <path d="M 0 432 
L 432 432 
L 432 0 
L 0 0 
z
" style="fill: #ffffff"/>
  </g>
  <g id="axes_1">
   <g id="patch_2">
    <path d="M 54 384.48 
L 388.8 384.48 
L 388.8 51.84 
L 54 51.84 
z
" style="fill: #ffffff"/>
   </g>
   <g id="matplotlib.axis_1">
    <g id="xtick_1">
     <g id="line2d_1">
      <defs>
       <path id="m56bc7c1e6a" d="M 0 0 
L 0 -3.5 
" style="stroke: #000000; stroke-width: 0.8"/>
      </defs>
      <g>
       <use xlink:href="#m56bc7c1e6a" x="87.48" y="384.48" style="stroke: #000000; stroke-width: 0.8"/>
      </g>
     </g>
     <g id="text_1">
      <!-- 9600 -->
      <g transform="translate(74.13375 396.588125) scale(0.12 -0.12)">
       <defs>
        <path id="Helvetica-39" d="M 850 1081 
Q 875 616 1209 438 
Q 1381 344 1597 344 
Q 2000 344 2284 680 
Q 2569 1016 2688 2044 
Q 2500 1747 2223 1626 
Q 1947 1506 1628 1506 
Q 981 1506 604 1909 
Q 228 2313 228 2947 
Q 228 3556 600 4018 
Q 972 4481 1697 4481 
Q 2675 4481 3047 3600 
Q 3253 3116 3253 2388 
Q 3253 1566 3006 931 
Q 2597 -125 1619 -125 
Q 963 -125 622 219 
Q 281 563 281 1081 
L 850 1081 
z
M 1703 2000 
Q 2038 2000 2314 2220 
Q 2591 2441 2591 2991 
Q 2591 3484 2342 3726 
Q 2094 3969 1709 3969 
Q 1297 3969 1055 3692 
Q 813 3416 813 2953 
Q 813 2516 1025 2258 
Q 1238 2000 1703 2000 
z
" transform="scale(0.015625)"/>
        <path id="Helvetica-36" d="M 1872 4494 
Q 2622 4494 2917 4105 
Q 3213 3716 3213 3303 
L 2656 3303 
Q 2606 3569 2497 3719 
Q 2294 4000 1881 4000 
Q 1409 4000 1131 3564 
Q 853 3128 822 2316 
Q 1016 2600 1309 2741 
Q 1578 2866 1909 2866 
Q 2472 2866 2890 2506 
Q 3309 2147 3309 1434 
Q 3309 825 2912 354 
Q 2516 -116 1781 -116 
Q 1153 -116 697 361 
Q 241 838 241 1966 
Q 241 2800 444 3381 
Q 834 4494 1872 4494 
z
M 1831 384 
Q 2275 384 2495 682 
Q 2716 981 2716 1388 
Q 2716 1731 2519 2042 
Q 2322 2353 1803 2353 
Q 1441 2353 1167 2112 
Q 894 1872 894 1388 
Q 894 963 1142 673 
Q 1391 384 1831 384 
z
" transform="scale(0.015625)"/>
        <path id="Helvetica-30" d="M 1731 4475 
Q 2600 4475 2988 3759 
Q 3288 3206 3288 2244 
Q 3288 1331 3016 734 
Q 2622 -122 1728 -122 
Q 922 -122 528 578 
Q 200 1163 200 2147 
Q 200 2909 397 3456 
Q 766 4475 1731 4475 
z
M 1725 391 
Q 2163 391 2422 778 
Q 2681 1166 2681 2222 
Q 2681 2984 2493 3476 
Q 2306 3969 1766 3969 
Q 1269 3969 1039 3501 
Q 809 3034 809 2125 
Q 809 1441 956 1025 
Q 1181 391 1725 391 
z
" transform="scale(0.015625)"/>
       </defs>
       <use xlink:href="#Helvetica-39"/>
       <use xlink:href="#Helvetica-36" x="55.615234"/>
       <use xlink:href="#Helvetica-30" x="111.230469"/>
       <use xlink:href="#Helvetica-30" x="166.845703"/>
      </g>
     </g>
    </g>
    <g id="xtick_2">
     <g id="line2d_2">
      <g>
       <use xlink:href="#m56bc7c1e6a" x="154.44" y="384.48" style="stroke: #000000; stroke-width: 0.8"/>
      </g>
     </g>
     <g id="text_2">
      <!-- 9800 -->
      <g transform="translate(141.09375 396.588125) scale(0.12 -0.12)">
       <defs>
        <path id="Helvetica-38" d="M 1741 2600 
Q 2113 2600 2322 2808 
Q 2531 3016 2531 3303 
Q 2531 3553 2331 3762 
Q 2131 3972 1722 3972 
Q 1316 3972 1134 3762 
Q 953 3553 953 3272 
Q 953 2956 1187 2778 
Q 1422 2600 1741 2600 
z
M 1775 384 
Q 2166 384 2423 595 
Q 2681 806 2681 1225 
Q 2681 1659 2415 1884 
Q 2150 2109 1734 2109 
Q 1331 2109 1076 1879 
Q 822 1650 822 1244 
Q 822 894 1055 639 
Q 1288 384 1775 384 
z
M 975 2384 
Q 741 2484 609 2619 
Q 363 2869 363 3269 
Q 363 3769 725 4128 
Q 1088 4488 1753 4488 
Q 2397 4488 2762 4148 
Q 3128 3809 3128 3356 
Q 3128 2938 2916 2678 
Q 2797 2531 2547 2391 
Q 2825 2263 2984 2097 
Q 3281 1784 3281 1284 
Q 3281 694 2884 283 
Q 2488 -128 1763 -128 
Q 1109 -128 657 226 
Q 206 581 206 1256 
Q 206 1653 400 1942 
Q 594 2231 975 2384 
z
" transform="scale(0.015625)"/>
       </defs>
       <use xlink:href="#Helvetica-39"/>
       <use xlink:href="#Helvetica-38" x="55.615234"/>
       <use xlink:href="#Helvetica-30" x="111.230469"/>
       <use xlink:href="#Helvetica-30" x="166.845703"/>
      </g>
     </g>
    </g>
    <g id="xtick_3">
     <g id="line2d_3">
      <g>
       <use xlink:href="#m56bc7c1e6a" x="221.4" y="384.48" style="stroke: #000000; stroke-width: 0.8"/>
      </g>
     </g>
     <g id="text_3">
      <!-- 10000 -->
      <g transform="translate(204.717188 396.588125) scale(0.12 -0.12)">
       <defs>
        <path id="Helvetica-31" d="M 613 3169 
L 613 3600 
Q 1222 3659 1462 3798 
Q 1703 3938 1822 4456 
L 2266 4456 
L 2266 0 
L 1666 0 
L 1666 3169 
L 613 3169 
z
" transform="scale(0.015625)"/>
       </defs>
       <use xlink:href="#Helvetica-31"/>
       <use xlink:href="#Helvetica-30" x="55.615234"/>
       <use xlink:href="#Helvetica-30" x="111.230469"/>
       <use xlink:href="#Helvetica-30" x="166.845703"/>
       <use xlink:href="#Helvetica-30" x="222.460938"/>
      </g>
     </g>
    </g>
    <g id="xtick_4">
     <g id="line2d_4">
      <g>
       <use xlink:href="#m56bc7c1e6a" x="288.36" y="384.48" style="stroke: #000000; stroke-width: 0.8"/>
      </g>
     </g>
     <g id="text_4">
      <!-- 10200 -->
      <g transform="translate(271.677188 396.588125) scale(0.12 -0.12)">
       <defs>
        <path id="Helvetica-32" d="M 200 0 
Q 231 578 439 1006 
Q 647 1434 1250 1784 
L 1850 2131 
Q 2253 2366 2416 2531 
Q 2672 2791 2672 3125 
Q 2672 3516 2437 3745 
Q 2203 3975 1813 3975 
Q 1234 3975 1013 3538 
Q 894 3303 881 2888 
L 309 2888 
Q 319 3472 525 3841 
Q 891 4491 1816 4491 
Q 2584 4491 2939 4075 
Q 3294 3659 3294 3150 
Q 3294 2613 2916 2231 
Q 2697 2009 2131 1694 
L 1703 1456 
Q 1397 1288 1222 1134 
Q 909 863 828 531 
L 3272 531 
L 3272 0 
L 200 0 
z
" transform="scale(0.015625)"/>
       </defs>
       <use xlink:href="#Helvetica-31"/>
       <use xlink:href="#Helvetica-30" x="55.615234"/>
       <use xlink:href="#Helvetica-32" x="111.230469"/>
       <use xlink:href="#Helvetica-30" x="166.845703"/>
       <use xlink:href="#Helvetica-30" x="222.460938"/>
      </g>
     </g>
    </g>
    <g id="xtick_5">
     <g id="line2d_5">
      <g>
       <use xlink:href="#m56bc7c1e6a" x="355.32" y="384.48" style="stroke: #000000; stroke-width: 0.8"/>
      </g>
     </g>
     <g id="text_5">
      <!-- 10400 -->
      <g transform="translate(338.637188 396.588125) scale(0.12 -0.12)">
       <defs>
        <path id="Helvetica-34" d="M 2116 1584 
L 2116 3613 
L 681 1584 
L 2116 1584 
z
M 2125 0 
L 2125 1094 
L 163 1094 
L 163 1644 
L 2213 4488 
L 2688 4488 
L 2688 1584 
L 3347 1584 
L 3347 1094 
L 2688 1094 
L 2688 0 
L 2125 0 
z
" transform="scale(0.015625)"/>
       </defs>
       <use xlink:href="#Helvetica-31"/>
       <use xlink:href="#Helvetica-30" x="55.615234"/>
       <use xlink:href="#Helvetica-34" x="111.230469"/>
       <use xlink:href="#Helvetica-30" x="166.845703"/>
       <use xlink:href="#Helvetica-30" x="222.460938"/>
      </g>
     </g>
    </g>
    <g id="text_6">
     <!-- m/z -->
     <g transform="translate(211.735313 411.6975) scale(0.12 -0.12)">
      <defs>
       <path id="Helvetica-6d" d="M 413 3347 
L 969 3347 
L 969 2872 
Q 1169 3119 1331 3231 
Q 1609 3422 1963 3422 
Q 2363 3422 2606 3225 
Q 2744 3113 2856 2894 
Q 3044 3163 3297 3292 
Q 3550 3422 3866 3422 
Q 4541 3422 4784 2934 
Q 4916 2672 4916 2228 
L 4916 0 
L 4331 0 
L 4331 2325 
Q 4331 2659 4164 2784 
Q 3997 2909 3756 2909 
Q 3425 2909 3186 2687 
Q 2947 2466 2947 1947 
L 2947 0 
L 2375 0 
L 2375 2184 
Q 2375 2525 2294 2681 
Q 2166 2916 1816 2916 
Q 1497 2916 1236 2669 
Q 975 2422 975 1775 
L 975 0 
L 413 0 
L 413 3347 
z
" transform="scale(0.015625)"/>
       <path id="Helvetica-2f" d="M 1456 4591 
L 1931 4591 
L 475 0 
L 0 0 
L 1456 4591 
z
" transform="scale(0.015625)"/>
       <path id="Helvetica-7a" d="M 163 444 
L 2147 2844 
L 309 2844 
L 309 3347 
L 2903 3347 
L 2903 2888 
L 931 503 
L 2963 503 
L 2963 0 
L 163 0 
L 163 444 
z
M 1609 3428 
L 1609 3428 
z
" transform="scale(0.015625)"/>
      </defs>
      <use xlink:href="#Helvetica-6d"/>
      <use xlink:href="#Helvetica-2f" x="83.300781"/>
      <use xlink:href="#Helvetica-7a" x="111.083984"/>
     </g>
    </g>
   </g>
   <g id="matplotlib.axis_2">
    <g id="ytick_1">
     <g id="line2d_6">
      <defs>
       <path id="m315d1465ce" d="M 0 0 
L 3.5 0 
" style="stroke: #000000; stroke-width: 0.8"/>
      </defs>
      <g>
       <use xlink:href="#m315d1465ce" x="54" y="354.24" style="stroke: #000000; stroke-width: 0.8"/>
      </g>
     </g>
     <g id="text_7">
      <!-- 0.0 -->
      <g transform="translate(33.82 358.544062) scale(0.12 -0.12)">
       <defs>
        <path id="Helvetica-2e" d="M 547 681 
L 1200 681 
L 1200 0 
L 547 0 
L 547 681 
z
" transform="scale(0.015625)"/>
       </defs>
       <use xlink:href="#Helvetica-30"/>
       <use xlink:href="#Helvetica-2e" x="55.615234"/>
       <use xlink:href="#Helvetica-30" x="83.398438"/>
      </g>
     </g>
    </g>
    <g id="ytick_2">
     <g id="line2d_7">
      <g>
       <use xlink:href="#m315d1465ce" x="54" y="293.76" style="stroke: #000000; stroke-width: 0.8"/>
      </g>
     </g>
     <g id="text_8">
      <!-- 0.2 -->
      <g transform="translate(33.82 298.064062) scale(0.12 -0.12)">
       <use xlink:href="#Helvetica-30"/>
       <use xlink:href="#Helvetica-2e" x="55.615234"/>
       <use xlink:href="#Helvetica-32" x="83.398438"/>
      </g>
     </g>
    </g>
    <g id="ytick_3">
     <g id="line2d_8">
      <g>
       <use xlink:href="#m315d1465ce" x="54" y="233.28" style="stroke: #000000; stroke-width: 0.8"/>
      </g>
     </g>
     <g id="text_9">
      <!-- 0.4 -->
      <g transform="translate(33.82 237.584062) scale(0.12 -0.12)">
       <use xlink:href="#Helvetica-30"/>
       <use xlink:href="#Helvetica-2e" x="55.615234"/>
       <use xlink:href="#Helvetica-34" x="83.398438"/>
      </g>
     </g>
    </g>
    <g id="ytick_4">
     <g id="line2d_9">
      <g>
       <use xlink:href="#m315d1465ce" x="54" y="172.8" style="stroke: #000000; stroke-width: 0.8"/>
      </g>
     </g>
     <g id="text_10">
      <!-- 0.6 -->
      <g transform="translate(33.82 177.104062) scale(0.12 -0.12)">
       <use xlink:href="#Helvetica-30"/>
       <use xlink:href="#Helvetica-2e" x="55.615234"/>
       <use xlink:href="#Helvetica-36" x="83.398438"/>
      </g>
     </g>
    </g>
    <g id="ytick_5">
     <g id="line2d_10">
      <g>
       <use xlink:href="#m315d1465ce" x="54" y="112.32" style="stroke: #000000; stroke-width: 0.8"/>
      </g>
     </g>
     <g id="text_11">
      <!-- 0.8 -->
      <g transform="translate(33.82 116.624062) scale(0.12 -0.12)">
       <use xlink:href="#Helvetica-30"/>
       <use xlink:href="#Helvetica-2e" x="55.615234"/>
       <use xlink:href="#Helvetica-38" x="83.398438"/>
      </g>
     </g>
    </g>
    <g id="ytick_6">
     <g id="line2d_11">
      <g>
       <use xlink:href="#m315d1465ce" x="54" y="51.84" style="stroke: #000000; stroke-width: 0.8"/>
      </g>
     </g>
     <g id="text_12">
      <!-- 1.0 -->
      <g transform="translate(33.82 56.144062) scale(0.12 -0.12)">
       <use xlink:href="#Helvetica-31"/>
       <use xlink:href="#Helvetica-2e" x="55.615234"/>
       <use xlink:href="#Helvetica-30" x="83.398438"/>
      </g>
     </g>
    </g>
    <g id="text_13">
     <!-- Normalized Intensity -->
     <g transform="translate(27.2475 272.511562) rotate(-90) scale(0.12 -0.12)">
      <defs>
       <path id="Helvetica-4e" d="M 488 4591 
L 1222 4591 
L 3541 872 
L 3541 4591 
L 4131 4591 
L 4131 0 
L 3434 0 
L 1081 3716 
L 1081 0 
L 488 0 
L 488 4591 
z
M 2269 4591 
L 2269 4591 
z
" transform="scale(0.015625)"/>
       <path id="Helvetica-6f" d="M 1741 363 
Q 2300 363 2508 786 
Q 2716 1209 2716 1728 
Q 2716 2197 2566 2491 
Q 2328 2953 1747 2953 
Q 1231 2953 997 2559 
Q 763 2166 763 1609 
Q 763 1075 997 719 
Q 1231 363 1741 363 
z
M 1763 3444 
Q 2409 3444 2856 3012 
Q 3303 2581 3303 1744 
Q 3303 934 2909 406 
Q 2516 -122 1688 -122 
Q 997 -122 590 345 
Q 184 813 184 1600 
Q 184 2444 612 2944 
Q 1041 3444 1763 3444 
z
M 1744 3428 
L 1744 3428 
z
" transform="scale(0.015625)"/>
       <path id="Helvetica-72" d="M 428 3347 
L 963 3347 
L 963 2769 
Q 1028 2938 1284 3180 
Q 1541 3422 1875 3422 
Q 1891 3422 1928 3419 
Q 1966 3416 2056 3406 
L 2056 2813 
Q 2006 2822 1964 2825 
Q 1922 2828 1872 2828 
Q 1447 2828 1219 2554 
Q 991 2281 991 1925 
L 991 0 
L 428 0 
L 428 3347 
z
" transform="scale(0.015625)"/>
       <path id="Helvetica-61" d="M 844 891 
Q 844 647 1022 506 
Q 1200 366 1444 366 
Q 1741 366 2019 503 
Q 2488 731 2488 1250 
L 2488 1703 
Q 2384 1638 2221 1594 
Q 2059 1550 1903 1531 
L 1563 1488 
Q 1256 1447 1103 1359 
Q 844 1213 844 891 
z
M 2206 2028 
Q 2400 2053 2466 2191 
Q 2503 2266 2503 2406 
Q 2503 2694 2298 2823 
Q 2094 2953 1713 2953 
Q 1272 2953 1088 2716 
Q 984 2584 953 2325 
L 428 2325 
Q 444 2944 830 3186 
Q 1216 3428 1725 3428 
Q 2316 3428 2684 3203 
Q 3050 2978 3050 2503 
L 3050 575 
Q 3050 488 3086 434 
Q 3122 381 3238 381 
Q 3275 381 3322 386 
Q 3369 391 3422 400 
L 3422 -16 
Q 3291 -53 3222 -62 
Q 3153 -72 3034 -72 
Q 2744 -72 2613 134 
Q 2544 244 2516 444 
Q 2344 219 2022 53 
Q 1700 -113 1313 -113 
Q 847 -113 551 170 
Q 256 453 256 878 
Q 256 1344 547 1600 
Q 838 1856 1309 1916 
L 2206 2028 
z
M 1741 3428 
L 1741 3428 
z
" transform="scale(0.015625)"/>
       <path id="Helvetica-6c" d="M 428 4591 
L 991 4591 
L 991 0 
L 428 0 
L 428 4591 
z
" transform="scale(0.015625)"/>
       <path id="Helvetica-69" d="M 413 3331 
L 984 3331 
L 984 0 
L 413 0 
L 413 3331 
z
M 413 4591 
L 984 4591 
L 984 3953 
L 413 3953 
L 413 4591 
z
" transform="scale(0.015625)"/>
       <path id="Helvetica-65" d="M 1806 3422 
Q 2163 3422 2497 3255 
Q 2831 3088 3006 2822 
Q 3175 2569 3231 2231 
Q 3281 2000 3281 1494 
L 828 1494 
Q 844 984 1069 676 
Q 1294 369 1766 369 
Q 2206 369 2469 659 
Q 2619 828 2681 1050 
L 3234 1050 
Q 3213 866 3089 639 
Q 2966 413 2813 269 
Q 2556 19 2178 -69 
Q 1975 -119 1719 -119 
Q 1094 -119 659 336 
Q 225 791 225 1609 
Q 225 2416 662 2919 
Q 1100 3422 1806 3422 
z
M 2703 1941 
Q 2669 2306 2544 2525 
Q 2313 2931 1772 2931 
Q 1384 2931 1121 2651 
Q 859 2372 844 1941 
L 2703 1941 
z
M 1753 3428 
L 1753 3428 
z
" transform="scale(0.015625)"/>
       <path id="Helvetica-64" d="M 769 1634 
Q 769 1097 997 734 
Q 1225 372 1728 372 
Q 2119 372 2370 708 
Q 2622 1044 2622 1672 
Q 2622 2306 2362 2611 
Q 2103 2916 1722 2916 
Q 1297 2916 1033 2591 
Q 769 2266 769 1634 
z
M 1616 3406 
Q 2000 3406 2259 3244 
Q 2409 3150 2600 2916 
L 2600 4606 
L 3141 4606 
L 3141 0 
L 2634 0 
L 2634 466 
Q 2438 156 2169 18 
Q 1900 -119 1553 -119 
Q 994 -119 584 351 
Q 175 822 175 1603 
Q 175 2334 548 2870 
Q 922 3406 1616 3406 
z
" transform="scale(0.015625)"/>
       <path id="Helvetica-20" transform="scale(0.015625)"/>
       <path id="Helvetica-49" d="M 628 4591 
L 1256 4591 
L 1256 0 
L 628 0 
L 628 4591 
z
" transform="scale(0.015625)"/>
       <path id="Helvetica-6e" d="M 413 3347 
L 947 3347 
L 947 2872 
Q 1184 3166 1450 3294 
Q 1716 3422 2041 3422 
Q 2753 3422 3003 2925 
Q 3141 2653 3141 2147 
L 3141 0 
L 2569 0 
L 2569 2109 
Q 2569 2416 2478 2603 
Q 2328 2916 1934 2916 
Q 1734 2916 1606 2875 
Q 1375 2806 1200 2600 
Q 1059 2434 1017 2257 
Q 975 2081 975 1753 
L 975 0 
L 413 0 
L 413 3347 
z
M 1734 3428 
L 1734 3428 
z
" transform="scale(0.015625)"/>
       <path id="Helvetica-74" d="M 525 4281 
L 1094 4281 
L 1094 3347 
L 1628 3347 
L 1628 2888 
L 1094 2888 
L 1094 703 
Q 1094 528 1213 469 
Q 1278 434 1431 434 
Q 1472 434 1519 436 
Q 1566 438 1628 444 
L 1628 0 
Q 1531 -28 1426 -40 
Q 1322 -53 1200 -53 
Q 806 -53 665 148 
Q 525 350 525 672 
L 525 2888 
L 72 2888 
L 72 3347 
L 525 3347 
L 525 4281 
z
" transform="scale(0.015625)"/>
       <path id="Helvetica-73" d="M 747 1050 
Q 772 769 888 619 
Q 1100 347 1625 347 
Q 1938 347 2175 483 
Q 2413 619 2413 903 
Q 2413 1119 2222 1231 
Q 2100 1300 1741 1391 
L 1294 1503 
Q 866 1609 663 1741 
Q 300 1969 300 2372 
Q 300 2847 642 3140 
Q 984 3434 1563 3434 
Q 2319 3434 2653 2991 
Q 2863 2709 2856 2384 
L 2325 2384 
Q 2309 2575 2191 2731 
Q 1997 2953 1519 2953 
Q 1200 2953 1036 2831 
Q 872 2709 872 2509 
Q 872 2291 1088 2159 
Q 1213 2081 1456 2022 
L 1828 1931 
Q 2434 1784 2641 1647 
Q 2969 1431 2969 969 
Q 2969 522 2630 197 
Q 2291 -128 1597 -128 
Q 850 -128 539 211 
Q 228 550 206 1050 
L 747 1050 
z
M 1578 3428 
L 1578 3428 
z
" transform="scale(0.015625)"/>
       <path id="Helvetica-79" d="M 2503 3347 
L 3125 3347 
Q 3006 3025 2597 1878 
Q 2291 1016 2084 472 
Q 1597 -809 1397 -1090 
Q 1197 -1372 709 -1372 
Q 591 -1372 527 -1362 
Q 463 -1353 369 -1328 
L 369 -816 
Q 516 -856 581 -865 
Q 647 -875 697 -875 
Q 853 -875 926 -823 
Q 1000 -772 1050 -697 
Q 1066 -672 1162 -440 
Q 1259 -209 1303 -97 
L 66 3347 
L 703 3347 
L 1600 622 
L 2503 3347 
z
M 1597 3428 
L 1597 3428 
z
" transform="scale(0.015625)"/>
      </defs>
      <use xlink:href="#Helvetica-4e"/>
      <use xlink:href="#Helvetica-6f" x="72.216797"/>
      <use xlink:href="#Helvetica-72" x="127.832031"/>
      <use xlink:href="#Helvetica-6d" x="161.132812"/>
      <use xlink:href="#Helvetica-61" x="244.433594"/>
      <use xlink:href="#Helvetica-6c" x="300.048828"/>
      <use xlink:href="#Helvetica-69" x="322.265625"/>
      <use xlink:href="#Helvetica-7a" x="344.482422"/>
      <use xlink:href="#Helvetica-65" x="394.482422"/>
      <use xlink:href="#Helvetica-64" x="450.097656"/>
      <use xlink:href="#Helvetica-20" x="505.712891"/>
      <use xlink:href="#Helvetica-49" x="533.496094"/>
      <use xlink:href="#Helvetica-6e" x="561.279297"/>
      <use xlink:href="#Helvetica-74" x="616.894531"/>
      <use xlink:href="#Helvetica-65" x="644.677734"/>
      <use xlink:href="#Helvetica-6e" x="700.292969"/>
      <use xlink:href="#Helvetica-73" x="755.908203"/>
      <use xlink:href="#Helvetica-69" x="805.908203"/>
      <use xlink:href="#Helvetica-74" x="828.125"/>
      <use xlink:href="#Helvetica-79" x="855.908203"/>
     </g>
    </g>
   </g>
   <g id="line2d_12">
    <path d="M 54.007265 353.79854 
L 56.611507 353.688175 
L 56.748608 353.660584 
L 57.688759 353.550219 
L 57.82586 353.522628 
L 59.510708 353.632993 
L 59.980968 354.46073 
L 60.39247 355.950657 
L 60.843212 357.385401 
L 60.921622 357.412993 
L 60.941208 357.385401 
L 61.058789 357.054307 
L 61.215576 356.005839 
L 61.431187 352.888029 
L 61.705589 344.969343 
L 62.038816 327.697226 
L 62.450452 293.263358 
L 63.136592 212.669343 
L 63.803212 143.746423 
L 64.136539 127.798686 
L 64.293393 126.032847 
L 64.313012 126.088029 
L 64.411041 127.246861 
L 64.587514 132.985839 
L 64.88167 151.692701 
L 65.352331 197.770073 
L 66.391852 300.21635 
L 66.882267 327.007445 
L 67.274619 338.402628 
L 67.666971 344.00365 
L 68.078976 346.597226 
L 68.412537 347.535328 
L 70.39462 350.156496 
L 70.49275 350.266861 
L 70.630152 350.404818 
L 70.983467 350.294453 
L 71.690196 349.13562 
L 72.436231 346.707591 
L 73.005625 344.776204 
L 73.496542 343.727737 
L 73.77148 343.507007 
L 74.046418 343.617372 
L 74.478477 344.389927 
L 75.12665 346.514453 
L 75.892739 349.273577 
L 76.776812 351.425693 
L 77.346608 352.060292 
L 77.543103 352.170657 
L 77.73963 352.281022 
L 77.995083 352.391387 
L 78.171957 352.474161 
L 78.525674 352.584526 
L 78.702548 352.667299 
L 79.056332 352.777664 
L 79.23324 352.860438 
L 79.508412 352.970803 
L 79.704973 353.081168 
L 80.039137 353.191533 
L 80.196393 353.246715 
L 81.238357 353.13635 
L 81.415299 353.053577 
L 81.710258 352.943212 
L 81.887199 352.860438 
L 82.162506 352.750073 
L 82.339481 352.667299 
L 82.791796 352.556934 
L 82.929465 352.529343 
L 84.42428 352.639708 
L 84.561984 352.667299 
L 85.014466 352.777664 
L 85.191508 352.860438 
L 85.54566 352.970803 
L 85.722735 353.053577 
L 86.0572 353.163942 
L 86.253962 353.274307 
L 86.529469 353.384672 
L 86.706545 353.467445 
L 87.100136 353.57781 
L 87.257559 353.632993 
L 88.989647 353.743358 
L 89.12745 353.770949 
L 89.993678 353.881314 
L 90.131516 353.908905 
L 91.490167 353.79854 
L 91.647724 353.743358 
L 92.238579 353.632993 
L 92.396136 353.57781 
L 93.105209 353.467445 
L 93.243113 353.439854 
L 94.366032 353.550219 
L 94.760092 354.267591 
L 95.154152 355.702336 
L 95.784714 357.882044 
L 95.922685 357.523358 
L 96.060623 356.502482 
L 96.297125 352.612117 
L 96.573034 343.479416 
L 96.908102 323.917226 
L 97.322015 285.455036 
L 98.051377 191.617226 
L 98.682241 122.032117 
L 99.017409 105.311825 
L 99.175133 103.65635 
L 99.194853 103.739124 
L 99.293451 105.035912 
L 99.470895 111.243942 
L 99.746938 129.785255 
L 100.220211 179.145985 
L 101.30493 295.636204 
L 101.778304 324.055182 
L 102.192552 337.574891 
L 102.547607 343.231095 
L 102.902729 345.686715 
L 103.277571 346.790365 
L 104.481177 348.638978 
L 104.717982 348.997664 
L 105.369268 349.742628 
L 106.020588 349.632263 
L 106.435104 348.887299 
L 107.027298 346.90073 
L 108.132908 342.706861 
L 108.784496 341.961898 
L 109.317698 342.872409 
L 109.850934 344.665839 
L 111.312571 350.322044 
L 111.845974 351.508467 
L 112.517717 352.281022 
L 112.893128 352.391387 
L 113.031467 352.418978 
L 113.74285 352.529343 
L 113.900943 352.584526 
L 114.217161 352.694891 
L 114.395007 352.777664 
L 114.889139 352.888029 
L 115.027511 352.91562 
L 115.857715 352.805255 
L 116.035628 352.722482 
L 116.411273 352.612117 
L 116.589186 352.529343 
L 117.043945 352.418978 
L 117.202138 352.363796 
L 117.81509 352.253431 
L 117.953529 352.225839 
L 119.239028 352.336204 
L 119.417041 352.418978 
L 119.654414 352.529343 
L 119.872 352.667299 
L 120.12916 352.777664 
L 120.32696 352.888029 
L 120.64348 352.998394 
L 120.801774 353.053577 
L 121.2568 353.163942 
L 121.415094 353.219124 
L 122.463821 353.329489 
L 122.602328 353.35708 
L 123.215815 353.467445 
L 123.374176 353.522628 
L 126.898046 353.412263 
L 127.036687 353.384672 
L 127.670396 353.274307 
L 127.809037 353.246715 
L 129.056904 353.35708 
L 129.631387 354.322774 
L 129.948376 355.509197 
L 130.622027 358.075182 
L 130.661634 358.047591 
L 130.839981 357.302628 
L 131.018296 355.316058 
L 131.275925 349.190803 
L 131.57316 335.919416 
L 131.929889 309.211095 
L 132.40554 255.021898 
L 133.713737 95.572117 
L 133.991286 85.915182 
L 134.05078 85.584088 
L 134.090421 85.694453 
L 134.189522 87.239562 
L 134.36797 94.109781 
L 134.665373 116.127591 
L 135.161044 172.910365 
L 136.172341 288.738394 
L 136.668146 320.992555 
L 137.084638 335.395182 
L 137.461488 341.741168 
L 137.818553 344.527883 
L 138.334312 346.23854 
L 138.651736 346.845547 
L 138.949306 347.369781 
L 140.219169 348.970073 
L 140.29855 348.997664 
L 140.477133 349.439124 
L 140.794657 349.328759 
L 141.370212 348.363066 
L 141.965653 346.404088 
L 143.156704 341.906715 
L 143.454509 341.382482 
L 143.653045 341.272117 
L 143.851582 341.382482 
L 144.169273 341.989489 
L 144.56638 343.396642 
L 145.360726 347.176642 
L 145.817494 349.108029 
L 146.314036 350.708321 
L 146.770904 351.674015 
L 147.50589 352.529343 
L 147.66482 352.639708 
L 147.883344 352.777664 
L 148.240977 352.888029 
L 148.380053 352.91562 
L 151.420673 352.805255 
L 151.579703 352.750073 
L 151.87791 352.639708 
L 152.07668 352.529343 
L 152.315259 352.418978 
L 152.514063 352.308613 
L 152.871931 352.198248 
L 153.030994 352.143066 
L 154.005363 352.253431 
L 154.2042 352.363796 
L 154.462733 352.474161 
L 154.681491 352.612117 
L 154.900283 352.722482 
L 155.099154 352.832847 
L 155.337833 352.943212 
L 155.536738 353.053577 
L 155.815224 353.163942 
L 155.994242 353.246715 
L 156.312536 353.35708 
L 156.471667 353.412263 
L 156.809882 353.522628 
L 156.988933 353.605401 
L 157.386843 353.715766 
L 157.54604 353.770949 
L 157.983758 353.881314 
L 158.142955 353.936496 
L 162.163736 353.826131 
L 162.323033 353.770949 
L 162.721278 353.660584 
L 162.900496 353.57781 
L 163.278854 353.467445 
L 163.458072 353.384672 
L 164.115318 353.495036 
L 164.433981 354.102044 
L 164.752677 355.288467 
L 165.390136 358.213139 
L 165.489739 358.295912 
L 165.52958 358.24073 
L 165.629183 357.937226 
L 165.808469 356.392117 
L 166.007708 352.750073 
L 166.306551 341.989489 
L 166.645268 320.275182 
L 167.063701 277.619124 
L 167.781077 175.559124 
L 168.438758 93.751095 
L 168.777576 73.41635 
L 168.956961 70.712409 
L 168.976882 70.767591 
L 169.076552 72.147153 
L 169.255938 78.879416 
L 169.534994 99.296934 
L 169.993502 151.913431 
L 171.169755 290.64219 
L 171.648318 320.854599 
L 172.047132 334.291533 
L 172.445979 340.747883 
L 172.844826 343.56219 
L 173.50301 345.824672 
L 173.662575 346.210949 
L 174.260997 347.56292 
L 175.258467 348.776934 
L 175.577698 348.666569 
L 176.176287 347.673285 
L 176.735035 345.824672 
L 177.992343 341.051387 
L 178.471408 340.554745 
L 178.631108 340.665109 
L 178.970461 341.299708 
L 179.36971 342.706861 
L 181.206624 349.880584 
L 182.944202 352.115474 
L 183.084015 352.225839 
L 183.383661 352.474161 
L 183.60339 352.584526 
L 183.803165 352.694891 
L 185.441509 352.584526 
L 185.601376 352.529343 
L 186.180915 352.418978 
L 186.340782 352.363796 
L 186.940342 352.253431 
L 187.100242 352.198248 
L 187.520014 352.087883 
L 187.679915 352.032701 
L 188.219646 351.922336 
L 188.359592 351.894745 
L 189.159296 352.005109 
L 189.339217 352.087883 
L 189.579168 352.198248 
L 189.779111 352.308613 
L 189.999075 352.418978 
L 190.219038 352.556934 
L 190.47901 352.667299 
L 190.678986 352.777664 
L 190.958946 352.888029 
L 191.158956 352.998394 
L 191.45897 353.108759 
L 191.638958 353.191533 
L 191.978981 353.301898 
L 192.159003 353.384672 
L 192.599098 353.495036 
L 192.759132 353.550219 
L 197.261724 353.439854 
L 197.401871 353.412263 
L 198.883428 353.522628 
L 199.343979 354.322774 
L 199.644361 355.454015 
L 200.36532 358.24073 
L 200.405362 358.185547 
L 200.5055 357.882044 
L 200.68579 356.309343 
L 200.886067 352.639708 
L 201.166496 342.651679 
L 201.486966 322.372117 
L 201.907643 279.52292 
L 202.528697 189.327153 
L 203.310086 83.431971 
L 203.650712 61.607299 
L 203.831069 58.599854 
L 203.85109 58.627445 
L 203.951295 59.979416 
L 204.131652 67.015182 
L 204.412215 88.508759 
L 204.893188 146.174453 
L 205.995584 282.971825 
L 206.476658 316.633139 
L 206.897669 332.553285 
L 207.278571 339.671825 
L 207.639486 342.844818 
L 208.020421 344.362336 
L 208.642044 345.769489 
L 208.902753 346.293723 
L 209.444225 347.480146 
L 209.825294 348.169927 
L 210.045928 348.473431 
L 210.166255 348.583796 
L 210.346779 348.666569 
L 210.5875 348.556204 
L 211.068909 347.728467 
L 211.510276 346.210949 
L 212.974959 340.609927 
L 213.296032 340.334015 
L 213.53682 340.44438 
L 213.978354 341.216934 
L 214.500174 342.955182 
L 216.387107 350.294453 
L 216.828808 351.204964 
L 217.290631 351.674015 
L 217.591817 351.78438 
L 217.752454 351.839562 
L 218.374982 351.949927 
L 218.515564 351.977518 
L 218.997609 352.087883 
L 219.178368 352.170657 
L 219.459566 352.281022 
L 219.640325 352.363796 
L 221.086728 352.253431 
L 221.267553 352.170657 
L 221.528731 352.060292 
L 221.729678 351.949927 
L 221.970801 351.839562 
L 222.171714 351.729197 
L 222.453046 351.618832 
L 222.613817 351.56365 
L 223.13634 351.453285 
L 223.277023 351.425693 
L 223.819667 351.536058 
L 224.02068 351.646423 
L 224.241782 351.756788 
L 224.503094 351.949927 
L 224.663898 352.060292 
L 224.945331 352.281022 
L 225.106136 352.391387 
L 225.36748 352.584526 
L 225.588649 352.694891 
L 225.789697 352.805255 
L 226.131494 352.91562 
L 226.292332 352.970803 
L 227.177108 353.081168 
L 227.317858 353.108759 
L 227.840748 353.219124 
L 228.001653 353.274307 
L 228.484368 353.384672 
L 228.645273 353.439854 
L 229.087778 353.550219 
L 229.248716 353.605401 
L 230.536257 353.495036 
L 230.697195 353.439854 
L 231.119746 353.329489 
L 231.30084 353.246715 
L 231.80391 353.13635 
L 231.94476 353.108759 
L 233.494516 353.219124 
L 234.219191 354.377956 
L 234.501025 355.454015 
L 235.245922 358.24073 
L 235.266077 358.213139 
L 235.366751 357.937226 
L 235.547945 356.474891 
L 235.78957 351.894745 
L 236.071472 341.244526 
L 236.413805 318.398978 
L 236.856846 270.721314 
L 237.581888 162.149781 
L 238.246567 75.651241 
L 238.589034 55.150949 
L 238.750173 52.888467 
L 238.770328 52.94365 
L 238.850914 53.964526 
L 239.012054 59.565547 
L 239.294089 79.927883 
L 239.717176 129.040292 
L 241.047068 293.070219 
L 241.510566 321.627153 
L 241.913631 334.760584 
L 242.276421 340.416788 
L 242.598933 342.817226 
L 243.082686 344.334745 
L 243.566505 345.35562 
L 243.808398 345.852263 
L 244.332595 346.983504 
L 245.401243 348.280292 
L 245.683546 348.169927 
L 246.127223 347.397372 
L 246.530557 345.990219 
L 247.014611 343.56219 
L 247.821445 339.727007 
L 248.245068 338.871679 
L 248.50735 338.982044 
L 248.729255 339.451095 
L 249.072258 340.692701 
L 249.556479 343.148321 
L 250.525056 347.838832 
L 251.756182 350.90146 
L 252.4223 351.646423 
L 252.583774 351.756788 
L 252.846224 351.949927 
L 253.048075 352.060292 
L 253.290336 352.225839 
L 253.532631 352.336204 
L 253.734515 352.446569 
L 254.037375 352.556934 
L 254.219105 352.639708 
L 255.491278 352.529343 
L 255.713418 352.391387 
L 255.935591 352.281022 
L 256.177953 352.115474 
L 256.400126 352.005109 
L 256.622333 351.867153 
L 256.905105 351.756788 
L 257.086901 351.674015 
L 257.410117 351.56365 
L 257.571725 351.508467 
L 258.642516 351.618832 
L 258.824346 351.701606 
L 259.046619 351.811971 
L 259.289082 351.977518 
L 259.511355 352.087883 
L 259.733663 352.225839 
L 259.955936 352.336204 
L 260.158055 352.446569 
L 260.501627 352.556934 
L 260.683524 352.639708 
L 261.10795 352.750073 
L 261.28988 352.832847 
L 261.633485 352.943212 
L 261.815415 353.025985 
L 262.098422 353.13635 
L 262.300574 353.246715 
L 262.583614 353.35708 
L 262.765578 353.439854 
L 263.169949 353.550219 
L 263.331691 353.605401 
L 266.304548 353.495036 
L 266.46639 353.439854 
L 266.972106 353.329489 
L 267.113726 353.301898 
L 268.469298 353.412263 
L 269.116834 354.46073 
L 269.37992 355.481606 
L 269.98708 358.185547 
L 270.128734 358.323504 
L 270.250199 357.992409 
L 270.43233 356.474891 
L 270.634751 352.805255 
L 270.897903 343.893285 
L 271.221755 324.689781 
L 271.626629 285.565401 
L 272.213734 202.957226 
L 273.124893 77.41708 
L 273.4691 55.785547 
L 273.651366 52.916058 
L 273.712098 53.302336 
L 273.853853 56.834015 
L 274.076628 69.388029 
L 274.441159 105.449781 
L 275.352585 227.982482 
L 275.980536 292.518394 
L 276.446477 320.330365 
L 276.871907 333.712117 
L 277.236605 339.285547 
L 277.682358 342.513723 
L 278.148433 344.445109 
L 278.938761 346.293723 
L 280.073767 347.673285 
L 280.357543 347.56292 
L 280.823786 346.762774 
L 281.43195 344.803796 
L 282.830979 339.56146 
L 283.2163 339.202774 
L 283.459633 339.313139 
L 283.763832 339.892555 
L 284.189765 341.354891 
L 284.899675 344.721022 
L 285.589363 347.866423 
L 286.197962 349.935766 
L 286.360273 350.322044 
L 286.705184 350.956642 
L 287.415362 351.756788 
L 287.618284 351.867153 
L 287.841495 352.005109 
L 288.145895 352.115474 
L 288.308273 352.170657 
L 288.876529 352.281022 
L 289.018619 352.308613 
L 290.723721 352.198248 
L 290.906455 352.115474 
L 291.190701 352.005109 
L 291.393723 351.894745 
L 291.596779 351.78438 
L 291.860736 351.591241 
L 292.04347 351.480876 
L 292.266848 351.34292 
L 292.571449 351.232555 
L 292.733894 351.177372 
L 293.830599 351.287737 
L 294.054044 351.425693 
L 294.257167 351.536058 
L 294.561835 351.78438 
L 294.704058 351.894745 
L 295.049371 352.198248 
L 295.191594 352.308613 
L 295.516651 352.584526 
L 295.658841 352.694891 
L 295.943287 352.91562 
L 296.146477 353.025985 
L 296.349667 353.13635 
L 296.735725 353.246715 
L 296.89827 353.301898 
L 298.320836 353.412263 
L 298.483448 353.467445 
L 298.849317 353.57781 
L 299.032252 353.660584 
L 300.536576 353.550219 
L 300.7399 353.439854 
L 300.963546 353.329489 
L 301.166904 353.219124 
L 301.532907 353.108759 
L 301.695586 353.053577 
L 303.24119 353.163942 
L 303.932753 354.267591 
L 304.217534 355.316058 
L 304.848197 358.185547 
L 305.010943 358.323504 
L 305.031299 358.295912 
L 305.194045 357.606131 
L 305.356825 355.840292 
L 305.580605 350.929051 
L 305.865487 339.175182 
L 306.211402 314.425839 
L 306.659063 264.127007 
L 307.513808 134.613723 
L 308.063348 69.829489 
L 308.368652 53.578248 
L 308.511143 51.84 
L 308.531499 51.895182 
L 308.633278 53.357518 
L 308.816481 60.641606 
L 309.101463 82.493869 
L 309.590036 140.821752 
L 310.730198 280.350657 
L 311.218905 313.708467 
L 311.646545 329.876934 
L 312.033507 337.602482 
L 312.420469 341.465255 
L 312.82782 343.534599 
L 313.968517 346.321314 
L 314.763065 347.231825 
L 315.231684 347.12146 
L 315.822573 346.155766 
L 316.454307 344.141606 
L 317.697553 339.533869 
L 318.023682 338.954453 
L 318.227508 338.844088 
L 318.451757 338.954453 
L 318.75753 339.533869 
L 319.165249 340.941022 
L 319.776895 343.865693 
L 320.63328 347.921606 
L 321.938498 351.149781 
L 322.387197 351.591241 
L 322.550379 351.701606 
L 322.774762 351.839562 
L 323.039923 351.949927 
L 323.223528 352.032701 
L 323.488723 352.143066 
L 323.672327 352.225839 
L 324.651617 352.336204 
L 324.794443 352.363796 
L 325.467826 352.253431 
L 325.651464 352.170657 
L 325.916759 352.060292 
L 326.141243 351.922336 
L 326.345337 351.811971 
L 326.590243 351.646423 
L 326.81476 351.536058 
L 327.018854 351.425693 
L 327.325028 351.315328 
L 327.48831 351.260146 
L 328.366089 351.370511 
L 328.57025 351.480876 
L 328.774411 351.591241 
L 329.039807 351.78438 
L 329.223579 351.894745 
L 329.509398 352.115474 
L 329.693169 352.225839 
L 329.938209 352.391387 
L 330.121981 352.501752 
L 330.387444 352.694891 
L 330.591672 352.805255 
L 330.816289 352.943212 
L 331.061363 353.053577 
L 331.245168 353.13635 
L 331.878342 353.246715 
L 332.021301 353.274307 
L 333.53299 353.384672 
L 333.696406 353.439854 
L 334.084607 353.550219 
L 334.24809 353.605401 
L 335.698912 353.495036 
L 335.882851 353.412263 
L 336.291609 353.301898 
L 336.455125 353.246715 
L 337.088767 353.13635 
L 337.231861 353.108759 
L 338.335763 353.219124 
L 338.744655 353.936496 
L 339.092244 355.178102 
L 339.685242 357.826861 
L 339.869281 357.992409 
L 339.889738 357.964818 
L 339.971529 357.744088 
L 340.176025 356.088613 
L 340.380521 352.474161 
L 340.687298 341.79635 
L 341.034988 319.861314 
L 341.464503 276.405109 
L 342.159983 177.68365 
L 342.875953 86.687737 
L 343.223776 65.470073 
L 343.407916 62.600584 
L 343.428373 62.655766 
L 343.530654 64.007737 
L 343.714794 70.877956 
L 344.001249 91.957664 
L 344.492367 148.298978 
L 345.597441 278.805547 
L 346.08866 312.190949 
L 346.518476 328.469781 
L 346.948359 336.719562 
L 347.337297 340.527153 
L 347.828616 343.093139 
L 348.360948 344.803796 
L 349.32333 347.093869 
L 349.835273 347.618102 
L 350.244867 347.507737 
L 350.634005 346.817956 
L 351.084613 345.300438 
L 352.764371 338.926861 
L 353.010248 338.761314 
L 353.215146 338.871679 
L 353.542949 339.478686 
L 354.014247 341.051387 
L 354.690509 344.086423 
L 356.289179 350.128905 
L 356.535157 350.625547 
L 356.842637 351.149781 
L 357.478188 351.839562 
L 357.703709 351.949927 
L 357.867728 352.005109 
L 359.446611 351.894745 
L 359.610696 351.839562 
L 360.02086 351.729197 
L 360.184945 351.674015 
L 361.005373 351.56365 
L 361.148968 351.536058 
L 361.682305 351.425693 
L 361.846424 351.370511 
L 362.318291 351.260146 
L 362.461887 351.232555 
L 363.467291 351.34292 
L 363.651967 351.425693 
L 363.918735 351.536058 
L 364.123934 351.646423 
L 364.34969 351.756788 
L 364.575446 351.894745 
L 364.842248 352.005109 
L 365.04748 352.115474 
L 365.293792 352.225839 
L 365.499025 352.336204 
L 365.745337 352.446569 
L 365.971126 352.584526 
L 366.217472 352.694891 
L 366.422738 352.805255 
L 366.648561 352.91562 
L 366.874383 353.053577 
L 367.161809 353.163942 
L 367.346585 353.246715 
L 367.675091 353.35708 
L 367.839344 353.412263 
L 369.892907 353.301898 
L 370.077783 353.219124 
L 370.468026 353.108759 
L 370.632346 353.053577 
L 373.077156 353.163942 
L 373.755293 354.24 
L 374.104657 355.481606 
L 374.700668 357.495766 
L 374.823975 357.385401 
L 374.967872 356.723212 
L 375.193962 354.01927 
L 375.461166 347.12146 
L 375.769517 332.525693 
L 376.139538 303.527299 
L 376.653489 242.854161 
L 377.907684 84.97708 
L 378.216135 71.512555 
L 378.318952 70.574453 
L 378.360066 70.684818 
L 378.483473 72.781752 
L 378.66855 80.562482 
L 378.977035 104.428905 
L 379.511744 166.619562 
L 380.519626 282.226861 
L 381.013322 314.646569 
L 381.445348 330.180438 
L 381.83626 337.354161 
L 382.227173 340.830657 
L 382.597529 342.596496 
L 383.173719 344.472701 
L 384.367348 347.369781 
L 384.676068 347.618102 
L 385.046591 347.507737 
L 385.520031 346.707591 
L 386.096423 344.858978 
L 387.55826 339.423504 
L 387.784786 339.12 
L 388.134853 339.230365 
L 388.423149 339.78219 
L 388.79384 341.078978 
L 388.79384 341.078978 
" clip-path="url(#p22ed83338d)" style="fill: none; stroke: #8286ff; stroke-width: 1.5; stroke-linecap: square"/>
   </g>
   <g id="line2d_13">
    <defs>
     <path id="m69040f3e27" d="M -3 3 
L 3 -3 
M -3 -3 
L 3 3 
" style="stroke: #ff0000"/>
    </defs>
    <g clip-path="url(#p22ed83338d)">
     <use xlink:href="#m69040f3e27" x="64.293393" y="126.032847" style="fill: #ff0000; stroke: #ff0000"/>
     <use xlink:href="#m69040f3e27" x="99.155413" y="103.65635" style="fill: #ff0000; stroke: #ff0000"/>
     <use xlink:href="#m69040f3e27" x="134.05078" y="85.584088" style="fill: #ff0000; stroke: #ff0000"/>
     <use xlink:href="#m69040f3e27" x="168.956961" y="70.712409" style="fill: #ff0000; stroke: #ff0000"/>
     <use xlink:href="#m69040f3e27" x="203.831069" y="58.599854" style="fill: #ff0000; stroke: #ff0000"/>
     <use xlink:href="#m69040f3e27" x="238.750173" y="52.888467" style="fill: #ff0000; stroke: #ff0000"/>
     <use xlink:href="#m69040f3e27" x="273.651366" y="52.916058" style="fill: #ff0000; stroke: #ff0000"/>
     <use xlink:href="#m69040f3e27" x="308.511143" y="51.84" style="fill: #ff0000; stroke: #ff0000"/>
     <use xlink:href="#m69040f3e27" x="343.407916" y="62.600584" style="fill: #ff0000; stroke: #ff0000"/>
     <use xlink:href="#m69040f3e27" x="378.318952" y="70.574453" style="fill: #ff0000; stroke: #ff0000"/>
    </g>
   </g>
   <g id="patch_3">
    <path d="M 54 384.48 
L 54 51.84 
" style="fill: none; stroke: #000000; stroke-width: 0.5; stroke-linejoin: miter; stroke-linecap: square"/>
   </g>
   <g id="patch_4">
    <path d="M 54 384.48 
L 388.8 384.48 
" style="fill: none; stroke: #000000; stroke-width: 0.5; stroke-linejoin: miter; stroke-linecap: square"/>
   </g>
   <g id="text_14">
    <!-- 9530.74 -->
    <g transform="translate(64.293393 119.984847) scale(0.08 -0.08)">
     <defs>
      <path id="Helvetica-35" d="M 791 1141 
Q 847 659 1238 475 
Q 1438 381 1700 381 
Q 2200 381 2440 700 
Q 2681 1019 2681 1406 
Q 2681 1875 2395 2131 
Q 2109 2388 1709 2388 
Q 1419 2388 1211 2275 
Q 1003 2163 856 1963 
L 369 1991 
L 709 4400 
L 3034 4400 
L 3034 3856 
L 1131 3856 
L 941 2613 
Q 1097 2731 1238 2791 
Q 1488 2894 1816 2894 
Q 2431 2894 2859 2497 
Q 3288 2100 3288 1491 
Q 3288 856 2895 371 
Q 2503 -113 1644 -113 
Q 1097 -113 676 195 
Q 256 503 206 1141 
L 791 1141 
z
" transform="scale(0.015625)"/>
      <path id="Helvetica-33" d="M 1663 -122 
Q 869 -122 511 314 
Q 153 750 153 1375 
L 741 1375 
Q 778 941 903 744 
Q 1122 391 1694 391 
Q 2138 391 2406 628 
Q 2675 866 2675 1241 
Q 2675 1703 2392 1887 
Q 2109 2072 1606 2072 
Q 1550 2072 1492 2070 
Q 1434 2069 1375 2066 
L 1375 2563 
Q 1463 2553 1522 2550 
Q 1581 2547 1650 2547 
Q 1966 2547 2169 2647 
Q 2525 2822 2525 3272 
Q 2525 3606 2287 3787 
Q 2050 3969 1734 3969 
Q 1172 3969 956 3594 
Q 838 3388 822 3006 
L 266 3006 
Q 266 3506 466 3856 
Q 809 4481 1675 4481 
Q 2359 4481 2734 4176 
Q 3109 3872 3109 3294 
Q 3109 2881 2888 2625 
Q 2750 2466 2531 2375 
Q 2884 2278 3082 2001 
Q 3281 1725 3281 1325 
Q 3281 684 2859 281 
Q 2438 -122 1663 -122 
z
" transform="scale(0.015625)"/>
      <path id="Helvetica-37" d="M 3347 4400 
L 3347 3909 
Q 3131 3700 2773 3181 
Q 2416 2663 2141 2063 
Q 1869 1478 1728 997 
Q 1638 688 1494 0 
L 872 0 
Q 1084 1281 1809 2550 
Q 2238 3294 2709 3834 
L 234 3834 
L 234 4400 
L 3347 4400 
z
" transform="scale(0.015625)"/>
     </defs>
     <use xlink:href="#Helvetica-39"/>
     <use xlink:href="#Helvetica-35" x="55.615234"/>
     <use xlink:href="#Helvetica-33" x="111.230469"/>
     <use xlink:href="#Helvetica-30" x="166.845703"/>
     <use xlink:href="#Helvetica-2e" x="222.460938"/>
     <use xlink:href="#Helvetica-37" x="250.244141"/>
     <use xlink:href="#Helvetica-34" x="305.859375"/>
    </g>
   </g>
   <g id="text_15">
    <!-- 9634.87 -->
    <g transform="translate(99.155413 97.60835) scale(0.08 -0.08)">
     <use xlink:href="#Helvetica-39"/>
     <use xlink:href="#Helvetica-36" x="55.615234"/>
     <use xlink:href="#Helvetica-33" x="111.230469"/>
     <use xlink:href="#Helvetica-34" x="166.845703"/>
     <use xlink:href="#Helvetica-2e" x="222.460938"/>
     <use xlink:href="#Helvetica-38" x="250.244141"/>
     <use xlink:href="#Helvetica-37" x="305.859375"/>
    </g>
   </g>
   <g id="text_16">
    <!-- 9739.10 -->
    <g transform="translate(134.05078 79.536088) scale(0.08 -0.08)">
     <use xlink:href="#Helvetica-39"/>
     <use xlink:href="#Helvetica-37" x="55.615234"/>
     <use xlink:href="#Helvetica-33" x="111.230469"/>
     <use xlink:href="#Helvetica-39" x="166.845703"/>
     <use xlink:href="#Helvetica-2e" x="222.460938"/>
     <use xlink:href="#Helvetica-31" x="250.244141"/>
     <use xlink:href="#Helvetica-30" x="305.859375"/>
    </g>
   </g>
   <g id="text_17">
    <!-- 9843.36 -->
    <g transform="translate(168.956961 64.664409) scale(0.08 -0.08)">
     <use xlink:href="#Helvetica-39"/>
     <use xlink:href="#Helvetica-38" x="55.615234"/>
     <use xlink:href="#Helvetica-34" x="111.230469"/>
     <use xlink:href="#Helvetica-33" x="166.845703"/>
     <use xlink:href="#Helvetica-2e" x="222.460938"/>
     <use xlink:href="#Helvetica-33" x="250.244141"/>
     <use xlink:href="#Helvetica-36" x="305.859375"/>
    </g>
   </g>
   <g id="text_18">
    <!-- 9947.52 -->
    <g transform="translate(203.831069 52.551854) scale(0.08 -0.08)">
     <use xlink:href="#Helvetica-39"/>
     <use xlink:href="#Helvetica-39" x="55.615234"/>
     <use xlink:href="#Helvetica-34" x="111.230469"/>
     <use xlink:href="#Helvetica-37" x="166.845703"/>
     <use xlink:href="#Helvetica-2e" x="222.460938"/>
     <use xlink:href="#Helvetica-35" x="250.244141"/>
     <use xlink:href="#Helvetica-32" x="305.859375"/>
    </g>
   </g>
   <g id="text_19">
    <!-- 10051.82 -->
    <g transform="translate(238.750173 46.840467) scale(0.08 -0.08)">
     <use xlink:href="#Helvetica-31"/>
     <use xlink:href="#Helvetica-30" x="55.615234"/>
     <use xlink:href="#Helvetica-30" x="111.230469"/>
     <use xlink:href="#Helvetica-35" x="166.845703"/>
     <use xlink:href="#Helvetica-31" x="222.460938"/>
     <use xlink:href="#Helvetica-2e" x="278.076172"/>
     <use xlink:href="#Helvetica-38" x="305.859375"/>
     <use xlink:href="#Helvetica-32" x="361.474609"/>
    </g>
   </g>
   <g id="text_20">
    <!-- 10156.07 -->
    <g transform="translate(273.651366 46.868058) scale(0.08 -0.08)">
     <use xlink:href="#Helvetica-31"/>
     <use xlink:href="#Helvetica-30" x="55.615234"/>
     <use xlink:href="#Helvetica-31" x="111.230469"/>
     <use xlink:href="#Helvetica-35" x="166.845703"/>
     <use xlink:href="#Helvetica-36" x="222.460938"/>
     <use xlink:href="#Helvetica-2e" x="278.076172"/>
     <use xlink:href="#Helvetica-30" x="305.859375"/>
     <use xlink:href="#Helvetica-37" x="361.474609"/>
    </g>
   </g>
   <g id="text_21">
    <!-- 10260.19 -->
    <g transform="translate(308.511143 45.792) scale(0.08 -0.08)">
     <use xlink:href="#Helvetica-31"/>
     <use xlink:href="#Helvetica-30" x="55.615234"/>
     <use xlink:href="#Helvetica-32" x="111.230469"/>
     <use xlink:href="#Helvetica-36" x="166.845703"/>
     <use xlink:href="#Helvetica-30" x="222.460938"/>
     <use xlink:href="#Helvetica-2e" x="278.076172"/>
     <use xlink:href="#Helvetica-31" x="305.859375"/>
     <use xlink:href="#Helvetica-39" x="361.474609"/>
    </g>
   </g>
   <g id="text_22">
    <!-- 10364.42 -->
    <g transform="translate(343.407916 56.552584) scale(0.08 -0.08)">
     <use xlink:href="#Helvetica-31"/>
     <use xlink:href="#Helvetica-30" x="55.615234"/>
     <use xlink:href="#Helvetica-33" x="111.230469"/>
     <use xlink:href="#Helvetica-36" x="166.845703"/>
     <use xlink:href="#Helvetica-34" x="222.460938"/>
     <use xlink:href="#Helvetica-2e" x="278.076172"/>
     <use xlink:href="#Helvetica-34" x="305.859375"/>
     <use xlink:href="#Helvetica-32" x="361.474609"/>
    </g>
   </g>
   <g id="text_23">
    <!-- 10468.69 -->
    <g transform="translate(378.318952 64.526453) scale(0.08 -0.08)">
     <use xlink:href="#Helvetica-31"/>
     <use xlink:href="#Helvetica-30" x="55.615234"/>
     <use xlink:href="#Helvetica-34" x="111.230469"/>
     <use xlink:href="#Helvetica-36" x="166.845703"/>
     <use xlink:href="#Helvetica-38" x="222.460938"/>
     <use xlink:href="#Helvetica-2e" x="278.076172"/>
     <use xlink:href="#Helvetica-36" x="305.859375"/>
     <use xlink:href="#Helvetica-39" x="361.474609"/>
    </g>
   </g>
   <g id="text_24">
    <!-- PS-F1-10K_MALDI -->
    <g transform="translate(152.93375 31.84) scale(0.16 -0.16)">
     <defs>
      <path id="Helvetica-50" d="M 547 4591 
L 2613 4591 
Q 3225 4591 3600 4245 
Q 3975 3900 3975 3275 
Q 3975 2738 3640 2339 
Q 3306 1941 2613 1941 
L 1169 1941 
L 1169 0 
L 547 0 
L 547 4591 
z
M 3347 3272 
Q 3347 3778 2972 3959 
Q 2766 4056 2406 4056 
L 1169 4056 
L 1169 2466 
L 2406 2466 
Q 2825 2466 3086 2644 
Q 3347 2822 3347 3272 
z
" transform="scale(0.015625)"/>
      <path id="Helvetica-53" d="M 894 1481 
Q 916 1091 1078 847 
Q 1388 391 2169 391 
Q 2519 391 2806 491 
Q 3363 684 3363 1184 
Q 3363 1559 3128 1719 
Q 2891 1875 2384 1991 
L 1763 2131 
Q 1153 2269 900 2434 
Q 463 2722 463 3294 
Q 463 3913 891 4309 
Q 1319 4706 2103 4706 
Q 2825 4706 3329 4357 
Q 3834 4009 3834 3244 
L 3250 3244 
Q 3203 3613 3050 3809 
Q 2766 4169 2084 4169 
Q 1534 4169 1293 3937 
Q 1053 3706 1053 3400 
Q 1053 3063 1334 2906 
Q 1519 2806 2169 2656 
L 2813 2509 
Q 3278 2403 3531 2219 
Q 3969 1897 3969 1284 
Q 3969 522 3414 194 
Q 2859 -134 2125 -134 
Q 1269 -134 784 303 
Q 300 738 309 1481 
L 894 1481 
z
M 2150 4716 
L 2150 4716 
z
" transform="scale(0.015625)"/>
      <path id="Helvetica-2d" d="M 266 2072 
L 1834 2072 
L 1834 1494 
L 266 1494 
L 266 2072 
z
" transform="scale(0.015625)"/>
      <path id="Helvetica-46" d="M 547 4591 
L 3731 4591 
L 3731 4028 
L 1169 4028 
L 1169 2634 
L 3422 2634 
L 3422 2088 
L 1169 2088 
L 1169 0 
L 547 0 
L 547 4591 
z
" transform="scale(0.015625)"/>
      <path id="Helvetica-4b" d="M 488 4591 
L 1094 4591 
L 1094 2353 
L 3331 4591 
L 4191 4591 
L 2281 2741 
L 4244 0 
L 3434 0 
L 1828 2303 
L 1094 1600 
L 1094 0 
L 488 0 
L 488 4591 
z
" transform="scale(0.015625)"/>
      <path id="Helvetica-5f" d="M 0 -800 
L 0 -484 
L 3559 -484 
L 3559 -800 
L 0 -800 
z
" transform="scale(0.015625)"/>
      <path id="Helvetica-4d" d="M 472 4591 
L 1363 4591 
L 2681 709 
L 3991 4591 
L 4872 4591 
L 4872 0 
L 4281 0 
L 4281 2709 
Q 4281 2850 4287 3175 
Q 4294 3500 4294 3872 
L 2984 0 
L 2369 0 
L 1050 3872 
L 1050 3731 
Q 1050 3563 1058 3217 
Q 1066 2872 1066 2709 
L 1066 0 
L 472 0 
L 472 4591 
z
" transform="scale(0.015625)"/>
      <path id="Helvetica-41" d="M 2844 1881 
L 2147 3909 
L 1406 1881 
L 2844 1881 
z
M 1822 4591 
L 2525 4591 
L 4191 0 
L 3509 0 
L 3044 1375 
L 1228 1375 
L 731 0 
L 94 0 
L 1822 4591 
z
" transform="scale(0.015625)"/>
      <path id="Helvetica-4c" d="M 488 4591 
L 1109 4591 
L 1109 547 
L 3434 547 
L 3434 0 
L 488 0 
L 488 4591 
z
" transform="scale(0.015625)"/>
      <path id="Helvetica-44" d="M 2250 531 
Q 2566 531 2769 597 
Q 3131 719 3363 1066 
Q 3547 1344 3628 1778 
Q 3675 2038 3675 2259 
Q 3675 3113 3336 3584 
Q 2997 4056 2244 4056 
L 1141 4056 
L 1141 531 
L 2250 531 
z
M 516 4591 
L 2375 4591 
Q 3322 4591 3844 3919 
Q 4309 3313 4309 2366 
Q 4309 1634 4034 1044 
Q 3550 0 2369 0 
L 516 0 
L 516 4591 
z
" transform="scale(0.015625)"/>
     </defs>
     <use xlink:href="#Helvetica-50"/>
     <use xlink:href="#Helvetica-53" x="66.699219"/>
     <use xlink:href="#Helvetica-2d" x="133.398438"/>
     <use xlink:href="#Helvetica-46" x="166.699219"/>
     <use xlink:href="#Helvetica-31" x="227.783203"/>
     <use xlink:href="#Helvetica-2d" x="283.398438"/>
     <use xlink:href="#Helvetica-31" x="316.699219"/>
     <use xlink:href="#Helvetica-30" x="372.314453"/>
     <use xlink:href="#Helvetica-4b" x="427.929688"/>
     <use xlink:href="#Helvetica-5f" x="494.628906"/>
     <use xlink:href="#Helvetica-4d" x="550.244141"/>
     <use xlink:href="#Helvetica-41" x="633.544922"/>
     <use xlink:href="#Helvetica-4c" x="700.244141"/>
     <use xlink:href="#Helvetica-44" x="755.859375"/>
     <use xlink:href="#Helvetica-49" x="828.076172"/>
    </g>
   </g>
   <g id="legend_1">
    <g id="patch_5">
     <path d="M 59.6 69.64625 
L 124.76875 69.64625 
Q 126.36875 69.64625 126.36875 68.04625 
L 126.36875 57.44 
Q 126.36875 55.84 124.76875 55.84 
L 59.6 55.84 
Q 58 55.84 58 57.44 
L 58 68.04625 
Q 58 69.64625 59.6 69.64625 
z
" style="fill: #ffffff; opacity: 0.8; stroke: #cccccc; stroke-linejoin: miter"/>
    </g>
    <g id="line2d_14">
     <path d="M 61.2 61.97875 
L 69.2 61.97875 
L 77.2 61.97875 
" style="fill: none; stroke: #8286ff; stroke-width: 1.5; stroke-linecap: square"/>
    </g>
    <g id="text_25">
     <!-- PS-F1-10K -->
     <g transform="translate(83.6 64.77875) scale(0.08 -0.08)">
      <use xlink:href="#Helvetica-50"/>
      <use xlink:href="#Helvetica-53" x="66.699219"/>
      <use xlink:href="#Helvetica-2d" x="133.398438"/>
      <use xlink:href="#Helvetica-46" x="166.699219"/>
      <use xlink:href="#Helvetica-31" x="227.783203"/>
      <use xlink:href="#Helvetica-2d" x="283.398438"/>
      <use xlink:href="#Helvetica-31" x="316.699219"/>
      <use xlink:href="#Helvetica-30" x="372.314453"/>
      <use xlink:href="#Helvetica-4b" x="427.929688"/>
     </g>
    </g>
   </g>
  </g>
 </g>
 <defs>
  <clipPath id="p22ed83338d">
   <rect x="54" y="51.84" width="334.8" height="332.64"/>
  </clipPath>
 </defs>
</svg>
