<?xml version="1.0" encoding="utf-8" standalone="no"?>
<!DOCTYPE svg PUBLIC "-//W3C//DTD SVG 1.1//EN"
  "http://www.w3.org/Graphics/SVG/1.1/DTD/svg11.dtd">
<svg xmlns:xlink="http://www.w3.org/1999/xlink" width="432pt" height="432pt" viewBox="0 0 432 432" xmlns="http://www.w3.org/2000/svg" version="1.1">
 <metadata>
  <rdf:RDF xmlns:dc="http://purl.org/dc/elements/1.1/" xmlns:cc="http://creativecommons.org/ns#" xmlns:rdf="http://www.w3.org/1999/02/22-rdf-syntax-ns#">
   <cc:Work>
    <dc:type rdf:resource="http://purl.org/dc/dcmitype/StillImage"/>
    <dc:date>2024-10-09T10:52:24.988146</dc:date>
    <dc:format>image/svg+xml</dc:format>
    <dc:creator>
     <cc:Agent>
      <dc:title>Matplotlib v3.7.1, https://matplotlib.org/</dc:title>
     </cc:Agent>
    </dc:creator>
   </cc:Work>
  </rdf:RDF>
 </metadata>
 <defs>
  <style type="text/css">*{stroke-linejoin: round; stroke-linecap: butt}</style>
 </defs>
 <g id="figure_1">
  <g id="patch_1">
   <path d="M 0 432 
L 432 432 
L 432 0 
L 0 0 
z
" style="fill: #ffffff"/>
  </g>
  <g id="axes_1">
   <g id="patch_2">
    <path d="M 54 384.48 
L 388.8 384.48 
L 388.8 51.84 
L 54 51.84 
z
" style="fill: #ffffff"/>
   </g>
   <g id="matplotlib.axis_1">
    <g id="xtick_1">
     <g id="line2d_1">
      <defs>
       <path id="m0884305bf9" d="M 0 0 
L 0 -3.5 
" style="stroke: #000000; stroke-width: 0.8"/>
      </defs>
      <g>
       <use xlink:href="#m0884305bf9" x="54" y="384.48" style="stroke: #000000; stroke-width: 0.8"/>
      </g>
     </g>
     <g id="text_1">
      <!-- 19500 -->
      <g transform="translate(37.317188 396.588125) scale(0.12 -0.12)">
       <defs>
        <path id="Helvetica-31" d="M 613 3169 
L 613 3600 
Q 1222 3659 1462 3798 
Q 1703 3938 1822 4456 
L 2266 4456 
L 2266 0 
L 1666 0 
L 1666 3169 
L 613 3169 
z
" transform="scale(0.015625)"/>
        <path id="Helvetica-39" d="M 850 1081 
Q 875 616 1209 438 
Q 1381 344 1597 344 
Q 2000 344 2284 680 
Q 2569 1016 2688 2044 
Q 2500 1747 2223 1626 
Q 1947 1506 1628 1506 
Q 981 1506 604 1909 
Q 228 2313 228 2947 
Q 228 3556 600 4018 
Q 972 4481 1697 4481 
Q 2675 4481 3047 3600 
Q 3253 3116 3253 2388 
Q 3253 1566 3006 931 
Q 2597 -125 1619 -125 
Q 963 -125 622 219 
Q 281 563 281 1081 
L 850 1081 
z
M 1703 2000 
Q 2038 2000 2314 2220 
Q 2591 2441 2591 2991 
Q 2591 3484 2342 3726 
Q 2094 3969 1709 3969 
Q 1297 3969 1055 3692 
Q 813 3416 813 2953 
Q 813 2516 1025 2258 
Q 1238 2000 1703 2000 
z
" transform="scale(0.015625)"/>
        <path id="Helvetica-35" d="M 791 1141 
Q 847 659 1238 475 
Q 1438 381 1700 381 
Q 2200 381 2440 700 
Q 2681 1019 2681 1406 
Q 2681 1875 2395 2131 
Q 2109 2388 1709 2388 
Q 1419 2388 1211 2275 
Q 1003 2163 856 1963 
L 369 1991 
L 709 4400 
L 3034 4400 
L 3034 3856 
L 1131 3856 
L 941 2613 
Q 1097 2731 1238 2791 
Q 1488 2894 1816 2894 
Q 2431 2894 2859 2497 
Q 3288 2100 3288 1491 
Q 3288 856 2895 371 
Q 2503 -113 1644 -113 
Q 1097 -113 676 195 
Q 256 503 206 1141 
L 791 1141 
z
" transform="scale(0.015625)"/>
        <path id="Helvetica-30" d="M 1731 4475 
Q 2600 4475 2988 3759 
Q 3288 3206 3288 2244 
Q 3288 1331 3016 734 
Q 2622 -122 1728 -122 
Q 922 -122 528 578 
Q 200 1163 200 2147 
Q 200 2909 397 3456 
Q 766 4475 1731 4475 
z
M 1725 391 
Q 2163 391 2422 778 
Q 2681 1166 2681 2222 
Q 2681 2984 2493 3476 
Q 2306 3969 1766 3969 
Q 1269 3969 1039 3501 
Q 809 3034 809 2125 
Q 809 1441 956 1025 
Q 1181 391 1725 391 
z
" transform="scale(0.015625)"/>
       </defs>
       <use xlink:href="#Helvetica-31"/>
       <use xlink:href="#Helvetica-39" x="55.615234"/>
       <use xlink:href="#Helvetica-35" x="111.230469"/>
       <use xlink:href="#Helvetica-30" x="166.845703"/>
       <use xlink:href="#Helvetica-30" x="222.460938"/>
      </g>
     </g>
    </g>
    <g id="xtick_2">
     <g id="line2d_2">
      <g>
       <use xlink:href="#m0884305bf9" x="120.96" y="384.48" style="stroke: #000000; stroke-width: 0.8"/>
      </g>
     </g>
     <g id="text_2">
      <!-- 19600 -->
      <g transform="translate(104.277188 396.588125) scale(0.12 -0.12)">
       <defs>
        <path id="Helvetica-36" d="M 1872 4494 
Q 2622 4494 2917 4105 
Q 3213 3716 3213 3303 
L 2656 3303 
Q 2606 3569 2497 3719 
Q 2294 4000 1881 4000 
Q 1409 4000 1131 3564 
Q 853 3128 822 2316 
Q 1016 2600 1309 2741 
Q 1578 2866 1909 2866 
Q 2472 2866 2890 2506 
Q 3309 2147 3309 1434 
Q 3309 825 2912 354 
Q 2516 -116 1781 -116 
Q 1153 -116 697 361 
Q 241 838 241 1966 
Q 241 2800 444 3381 
Q 834 4494 1872 4494 
z
M 1831 384 
Q 2275 384 2495 682 
Q 2716 981 2716 1388 
Q 2716 1731 2519 2042 
Q 2322 2353 1803 2353 
Q 1441 2353 1167 2112 
Q 894 1872 894 1388 
Q 894 963 1142 673 
Q 1391 384 1831 384 
z
" transform="scale(0.015625)"/>
       </defs>
       <use xlink:href="#Helvetica-31"/>
       <use xlink:href="#Helvetica-39" x="55.615234"/>
       <use xlink:href="#Helvetica-36" x="111.230469"/>
       <use xlink:href="#Helvetica-30" x="166.845703"/>
       <use xlink:href="#Helvetica-30" x="222.460938"/>
      </g>
     </g>
    </g>
    <g id="xtick_3">
     <g id="line2d_3">
      <g>
       <use xlink:href="#m0884305bf9" x="187.92" y="384.48" style="stroke: #000000; stroke-width: 0.8"/>
      </g>
     </g>
     <g id="text_3">
      <!-- 19700 -->
      <g transform="translate(171.237188 396.588125) scale(0.12 -0.12)">
       <defs>
        <path id="Helvetica-37" d="M 3347 4400 
L 3347 3909 
Q 3131 3700 2773 3181 
Q 2416 2663 2141 2063 
Q 1869 1478 1728 997 
Q 1638 688 1494 0 
L 872 0 
Q 1084 1281 1809 2550 
Q 2238 3294 2709 3834 
L 234 3834 
L 234 4400 
L 3347 4400 
z
" transform="scale(0.015625)"/>
       </defs>
       <use xlink:href="#Helvetica-31"/>
       <use xlink:href="#Helvetica-39" x="55.615234"/>
       <use xlink:href="#Helvetica-37" x="111.230469"/>
       <use xlink:href="#Helvetica-30" x="166.845703"/>
       <use xlink:href="#Helvetica-30" x="222.460938"/>
      </g>
     </g>
    </g>
    <g id="xtick_4">
     <g id="line2d_4">
      <g>
       <use xlink:href="#m0884305bf9" x="254.88" y="384.48" style="stroke: #000000; stroke-width: 0.8"/>
      </g>
     </g>
     <g id="text_4">
      <!-- 19800 -->
      <g transform="translate(238.197188 396.588125) scale(0.12 -0.12)">
       <defs>
        <path id="Helvetica-38" d="M 1741 2600 
Q 2113 2600 2322 2808 
Q 2531 3016 2531 3303 
Q 2531 3553 2331 3762 
Q 2131 3972 1722 3972 
Q 1316 3972 1134 3762 
Q 953 3553 953 3272 
Q 953 2956 1187 2778 
Q 1422 2600 1741 2600 
z
M 1775 384 
Q 2166 384 2423 595 
Q 2681 806 2681 1225 
Q 2681 1659 2415 1884 
Q 2150 2109 1734 2109 
Q 1331 2109 1076 1879 
Q 822 1650 822 1244 
Q 822 894 1055 639 
Q 1288 384 1775 384 
z
M 975 2384 
Q 741 2484 609 2619 
Q 363 2869 363 3269 
Q 363 3769 725 4128 
Q 1088 4488 1753 4488 
Q 2397 4488 2762 4148 
Q 3128 3809 3128 3356 
Q 3128 2938 2916 2678 
Q 2797 2531 2547 2391 
Q 2825 2263 2984 2097 
Q 3281 1784 3281 1284 
Q 3281 694 2884 283 
Q 2488 -128 1763 -128 
Q 1109 -128 657 226 
Q 206 581 206 1256 
Q 206 1653 400 1942 
Q 594 2231 975 2384 
z
" transform="scale(0.015625)"/>
       </defs>
       <use xlink:href="#Helvetica-31"/>
       <use xlink:href="#Helvetica-39" x="55.615234"/>
       <use xlink:href="#Helvetica-38" x="111.230469"/>
       <use xlink:href="#Helvetica-30" x="166.845703"/>
       <use xlink:href="#Helvetica-30" x="222.460938"/>
      </g>
     </g>
    </g>
    <g id="xtick_5">
     <g id="line2d_5">
      <g>
       <use xlink:href="#m0884305bf9" x="321.84" y="384.48" style="stroke: #000000; stroke-width: 0.8"/>
      </g>
     </g>
     <g id="text_5">
      <!-- 19900 -->
      <g transform="translate(305.157188 396.588125) scale(0.12 -0.12)">
       <use xlink:href="#Helvetica-31"/>
       <use xlink:href="#Helvetica-39" x="55.615234"/>
       <use xlink:href="#Helvetica-39" x="111.230469"/>
       <use xlink:href="#Helvetica-30" x="166.845703"/>
       <use xlink:href="#Helvetica-30" x="222.460938"/>
      </g>
     </g>
    </g>
    <g id="xtick_6">
     <g id="line2d_6">
      <g>
       <use xlink:href="#m0884305bf9" x="388.8" y="384.48" style="stroke: #000000; stroke-width: 0.8"/>
      </g>
     </g>
     <g id="text_6">
      <!-- 20000 -->
      <g transform="translate(372.117188 396.588125) scale(0.12 -0.12)">
       <defs>
        <path id="Helvetica-32" d="M 200 0 
Q 231 578 439 1006 
Q 647 1434 1250 1784 
L 1850 2131 
Q 2253 2366 2416 2531 
Q 2672 2791 2672 3125 
Q 2672 3516 2437 3745 
Q 2203 3975 1813 3975 
Q 1234 3975 1013 3538 
Q 894 3303 881 2888 
L 309 2888 
Q 319 3472 525 3841 
Q 891 4491 1816 4491 
Q 2584 4491 2939 4075 
Q 3294 3659 3294 3150 
Q 3294 2613 2916 2231 
Q 2697 2009 2131 1694 
L 1703 1456 
Q 1397 1288 1222 1134 
Q 909 863 828 531 
L 3272 531 
L 3272 0 
L 200 0 
z
" transform="scale(0.015625)"/>
       </defs>
       <use xlink:href="#Helvetica-32"/>
       <use xlink:href="#Helvetica-30" x="55.615234"/>
       <use xlink:href="#Helvetica-30" x="111.230469"/>
       <use xlink:href="#Helvetica-30" x="166.845703"/>
       <use xlink:href="#Helvetica-30" x="222.460938"/>
      </g>
     </g>
    </g>
    <g id="text_7">
     <!-- m/z -->
     <g transform="translate(211.735313 411.6975) scale(0.12 -0.12)">
      <defs>
       <path id="Helvetica-6d" d="M 413 3347 
L 969 3347 
L 969 2872 
Q 1169 3119 1331 3231 
Q 1609 3422 1963 3422 
Q 2363 3422 2606 3225 
Q 2744 3113 2856 2894 
Q 3044 3163 3297 3292 
Q 3550 3422 3866 3422 
Q 4541 3422 4784 2934 
Q 4916 2672 4916 2228 
L 4916 0 
L 4331 0 
L 4331 2325 
Q 4331 2659 4164 2784 
Q 3997 2909 3756 2909 
Q 3425 2909 3186 2687 
Q 2947 2466 2947 1947 
L 2947 0 
L 2375 0 
L 2375 2184 
Q 2375 2525 2294 2681 
Q 2166 2916 1816 2916 
Q 1497 2916 1236 2669 
Q 975 2422 975 1775 
L 975 0 
L 413 0 
L 413 3347 
z
" transform="scale(0.015625)"/>
       <path id="Helvetica-2f" d="M 1456 4591 
L 1931 4591 
L 475 0 
L 0 0 
L 1456 4591 
z
" transform="scale(0.015625)"/>
       <path id="Helvetica-7a" d="M 163 444 
L 2147 2844 
L 309 2844 
L 309 3347 
L 2903 3347 
L 2903 2888 
L 931 503 
L 2963 503 
L 2963 0 
L 163 0 
L 163 444 
z
M 1609 3428 
L 1609 3428 
z
" transform="scale(0.015625)"/>
      </defs>
      <use xlink:href="#Helvetica-6d"/>
      <use xlink:href="#Helvetica-2f" x="83.300781"/>
      <use xlink:href="#Helvetica-7a" x="111.083984"/>
     </g>
    </g>
   </g>
   <g id="matplotlib.axis_2">
    <g id="ytick_1">
     <g id="line2d_7">
      <defs>
       <path id="mb562e39715" d="M 0 0 
L 3.5 0 
" style="stroke: #000000; stroke-width: 0.8"/>
      </defs>
      <g>
       <use xlink:href="#mb562e39715" x="54" y="354.24" style="stroke: #000000; stroke-width: 0.8"/>
      </g>
     </g>
     <g id="text_8">
      <!-- 0.0 -->
      <g transform="translate(33.82 358.544062) scale(0.12 -0.12)">
       <defs>
        <path id="Helvetica-2e" d="M 547 681 
L 1200 681 
L 1200 0 
L 547 0 
L 547 681 
z
" transform="scale(0.015625)"/>
       </defs>
       <use xlink:href="#Helvetica-30"/>
       <use xlink:href="#Helvetica-2e" x="55.615234"/>
       <use xlink:href="#Helvetica-30" x="83.398438"/>
      </g>
     </g>
    </g>
    <g id="ytick_2">
     <g id="line2d_8">
      <g>
       <use xlink:href="#mb562e39715" x="54" y="293.76" style="stroke: #000000; stroke-width: 0.8"/>
      </g>
     </g>
     <g id="text_9">
      <!-- 0.2 -->
      <g transform="translate(33.82 298.064062) scale(0.12 -0.12)">
       <use xlink:href="#Helvetica-30"/>
       <use xlink:href="#Helvetica-2e" x="55.615234"/>
       <use xlink:href="#Helvetica-32" x="83.398438"/>
      </g>
     </g>
    </g>
    <g id="ytick_3">
     <g id="line2d_9">
      <g>
       <use xlink:href="#mb562e39715" x="54" y="233.28" style="stroke: #000000; stroke-width: 0.8"/>
      </g>
     </g>
     <g id="text_10">
      <!-- 0.4 -->
      <g transform="translate(33.82 237.584062) scale(0.12 -0.12)">
       <defs>
        <path id="Helvetica-34" d="M 2116 1584 
L 2116 3613 
L 681 1584 
L 2116 1584 
z
M 2125 0 
L 2125 1094 
L 163 1094 
L 163 1644 
L 2213 4488 
L 2688 4488 
L 2688 1584 
L 3347 1584 
L 3347 1094 
L 2688 1094 
L 2688 0 
L 2125 0 
z
" transform="scale(0.015625)"/>
       </defs>
       <use xlink:href="#Helvetica-30"/>
       <use xlink:href="#Helvetica-2e" x="55.615234"/>
       <use xlink:href="#Helvetica-34" x="83.398438"/>
      </g>
     </g>
    </g>
    <g id="ytick_4">
     <g id="line2d_10">
      <g>
       <use xlink:href="#mb562e39715" x="54" y="172.8" style="stroke: #000000; stroke-width: 0.8"/>
      </g>
     </g>
     <g id="text_11">
      <!-- 0.6 -->
      <g transform="translate(33.82 177.104062) scale(0.12 -0.12)">
       <use xlink:href="#Helvetica-30"/>
       <use xlink:href="#Helvetica-2e" x="55.615234"/>
       <use xlink:href="#Helvetica-36" x="83.398438"/>
      </g>
     </g>
    </g>
    <g id="ytick_5">
     <g id="line2d_11">
      <g>
       <use xlink:href="#mb562e39715" x="54" y="112.32" style="stroke: #000000; stroke-width: 0.8"/>
      </g>
     </g>
     <g id="text_12">
      <!-- 0.8 -->
      <g transform="translate(33.82 116.624062) scale(0.12 -0.12)">
       <use xlink:href="#Helvetica-30"/>
       <use xlink:href="#Helvetica-2e" x="55.615234"/>
       <use xlink:href="#Helvetica-38" x="83.398438"/>
      </g>
     </g>
    </g>
    <g id="ytick_6">
     <g id="line2d_12">
      <g>
       <use xlink:href="#mb562e39715" x="54" y="51.84" style="stroke: #000000; stroke-width: 0.8"/>
      </g>
     </g>
     <g id="text_13">
      <!-- 1.0 -->
      <g transform="translate(33.82 56.144062) scale(0.12 -0.12)">
       <use xlink:href="#Helvetica-31"/>
       <use xlink:href="#Helvetica-2e" x="55.615234"/>
       <use xlink:href="#Helvetica-30" x="83.398438"/>
      </g>
     </g>
    </g>
    <g id="text_14">
     <!-- Normalized Intensity -->
     <g transform="translate(27.2475 272.511562) rotate(-90) scale(0.12 -0.12)">
      <defs>
       <path id="Helvetica-4e" d="M 488 4591 
L 1222 4591 
L 3541 872 
L 3541 4591 
L 4131 4591 
L 4131 0 
L 3434 0 
L 1081 3716 
L 1081 0 
L 488 0 
L 488 4591 
z
M 2269 4591 
L 2269 4591 
z
" transform="scale(0.015625)"/>
       <path id="Helvetica-6f" d="M 1741 363 
Q 2300 363 2508 786 
Q 2716 1209 2716 1728 
Q 2716 2197 2566 2491 
Q 2328 2953 1747 2953 
Q 1231 2953 997 2559 
Q 763 2166 763 1609 
Q 763 1075 997 719 
Q 1231 363 1741 363 
z
M 1763 3444 
Q 2409 3444 2856 3012 
Q 3303 2581 3303 1744 
Q 3303 934 2909 406 
Q 2516 -122 1688 -122 
Q 997 -122 590 345 
Q 184 813 184 1600 
Q 184 2444 612 2944 
Q 1041 3444 1763 3444 
z
M 1744 3428 
L 1744 3428 
z
" transform="scale(0.015625)"/>
       <path id="Helvetica-72" d="M 428 3347 
L 963 3347 
L 963 2769 
Q 1028 2938 1284 3180 
Q 1541 3422 1875 3422 
Q 1891 3422 1928 3419 
Q 1966 3416 2056 3406 
L 2056 2813 
Q 2006 2822 1964 2825 
Q 1922 2828 1872 2828 
Q 1447 2828 1219 2554 
Q 991 2281 991 1925 
L 991 0 
L 428 0 
L 428 3347 
z
" transform="scale(0.015625)"/>
       <path id="Helvetica-61" d="M 844 891 
Q 844 647 1022 506 
Q 1200 366 1444 366 
Q 1741 366 2019 503 
Q 2488 731 2488 1250 
L 2488 1703 
Q 2384 1638 2221 1594 
Q 2059 1550 1903 1531 
L 1563 1488 
Q 1256 1447 1103 1359 
Q 844 1213 844 891 
z
M 2206 2028 
Q 2400 2053 2466 2191 
Q 2503 2266 2503 2406 
Q 2503 2694 2298 2823 
Q 2094 2953 1713 2953 
Q 1272 2953 1088 2716 
Q 984 2584 953 2325 
L 428 2325 
Q 444 2944 830 3186 
Q 1216 3428 1725 3428 
Q 2316 3428 2684 3203 
Q 3050 2978 3050 2503 
L 3050 575 
Q 3050 488 3086 434 
Q 3122 381 3238 381 
Q 3275 381 3322 386 
Q 3369 391 3422 400 
L 3422 -16 
Q 3291 -53 3222 -62 
Q 3153 -72 3034 -72 
Q 2744 -72 2613 134 
Q 2544 244 2516 444 
Q 2344 219 2022 53 
Q 1700 -113 1313 -113 
Q 847 -113 551 170 
Q 256 453 256 878 
Q 256 1344 547 1600 
Q 838 1856 1309 1916 
L 2206 2028 
z
M 1741 3428 
L 1741 3428 
z
" transform="scale(0.015625)"/>
       <path id="Helvetica-6c" d="M 428 4591 
L 991 4591 
L 991 0 
L 428 0 
L 428 4591 
z
" transform="scale(0.015625)"/>
       <path id="Helvetica-69" d="M 413 3331 
L 984 3331 
L 984 0 
L 413 0 
L 413 3331 
z
M 413 4591 
L 984 4591 
L 984 3953 
L 413 3953 
L 413 4591 
z
" transform="scale(0.015625)"/>
       <path id="Helvetica-65" d="M 1806 3422 
Q 2163 3422 2497 3255 
Q 2831 3088 3006 2822 
Q 3175 2569 3231 2231 
Q 3281 2000 3281 1494 
L 828 1494 
Q 844 984 1069 676 
Q 1294 369 1766 369 
Q 2206 369 2469 659 
Q 2619 828 2681 1050 
L 3234 1050 
Q 3213 866 3089 639 
Q 2966 413 2813 269 
Q 2556 19 2178 -69 
Q 1975 -119 1719 -119 
Q 1094 -119 659 336 
Q 225 791 225 1609 
Q 225 2416 662 2919 
Q 1100 3422 1806 3422 
z
M 2703 1941 
Q 2669 2306 2544 2525 
Q 2313 2931 1772 2931 
Q 1384 2931 1121 2651 
Q 859 2372 844 1941 
L 2703 1941 
z
M 1753 3428 
L 1753 3428 
z
" transform="scale(0.015625)"/>
       <path id="Helvetica-64" d="M 769 1634 
Q 769 1097 997 734 
Q 1225 372 1728 372 
Q 2119 372 2370 708 
Q 2622 1044 2622 1672 
Q 2622 2306 2362 2611 
Q 2103 2916 1722 2916 
Q 1297 2916 1033 2591 
Q 769 2266 769 1634 
z
M 1616 3406 
Q 2000 3406 2259 3244 
Q 2409 3150 2600 2916 
L 2600 4606 
L 3141 4606 
L 3141 0 
L 2634 0 
L 2634 466 
Q 2438 156 2169 18 
Q 1900 -119 1553 -119 
Q 994 -119 584 351 
Q 175 822 175 1603 
Q 175 2334 548 2870 
Q 922 3406 1616 3406 
z
" transform="scale(0.015625)"/>
       <path id="Helvetica-20" transform="scale(0.015625)"/>
       <path id="Helvetica-49" d="M 628 4591 
L 1256 4591 
L 1256 0 
L 628 0 
L 628 4591 
z
" transform="scale(0.015625)"/>
       <path id="Helvetica-6e" d="M 413 3347 
L 947 3347 
L 947 2872 
Q 1184 3166 1450 3294 
Q 1716 3422 2041 3422 
Q 2753 3422 3003 2925 
Q 3141 2653 3141 2147 
L 3141 0 
L 2569 0 
L 2569 2109 
Q 2569 2416 2478 2603 
Q 2328 2916 1934 2916 
Q 1734 2916 1606 2875 
Q 1375 2806 1200 2600 
Q 1059 2434 1017 2257 
Q 975 2081 975 1753 
L 975 0 
L 413 0 
L 413 3347 
z
M 1734 3428 
L 1734 3428 
z
" transform="scale(0.015625)"/>
       <path id="Helvetica-74" d="M 525 4281 
L 1094 4281 
L 1094 3347 
L 1628 3347 
L 1628 2888 
L 1094 2888 
L 1094 703 
Q 1094 528 1213 469 
Q 1278 434 1431 434 
Q 1472 434 1519 436 
Q 1566 438 1628 444 
L 1628 0 
Q 1531 -28 1426 -40 
Q 1322 -53 1200 -53 
Q 806 -53 665 148 
Q 525 350 525 672 
L 525 2888 
L 72 2888 
L 72 3347 
L 525 3347 
L 525 4281 
z
" transform="scale(0.015625)"/>
       <path id="Helvetica-73" d="M 747 1050 
Q 772 769 888 619 
Q 1100 347 1625 347 
Q 1938 347 2175 483 
Q 2413 619 2413 903 
Q 2413 1119 2222 1231 
Q 2100 1300 1741 1391 
L 1294 1503 
Q 866 1609 663 1741 
Q 300 1969 300 2372 
Q 300 2847 642 3140 
Q 984 3434 1563 3434 
Q 2319 3434 2653 2991 
Q 2863 2709 2856 2384 
L 2325 2384 
Q 2309 2575 2191 2731 
Q 1997 2953 1519 2953 
Q 1200 2953 1036 2831 
Q 872 2709 872 2509 
Q 872 2291 1088 2159 
Q 1213 2081 1456 2022 
L 1828 1931 
Q 2434 1784 2641 1647 
Q 2969 1431 2969 969 
Q 2969 522 2630 197 
Q 2291 -128 1597 -128 
Q 850 -128 539 211 
Q 228 550 206 1050 
L 747 1050 
z
M 1578 3428 
L 1578 3428 
z
" transform="scale(0.015625)"/>
       <path id="Helvetica-79" d="M 2503 3347 
L 3125 3347 
Q 3006 3025 2597 1878 
Q 2291 1016 2084 472 
Q 1597 -809 1397 -1090 
Q 1197 -1372 709 -1372 
Q 591 -1372 527 -1362 
Q 463 -1353 369 -1328 
L 369 -816 
Q 516 -856 581 -865 
Q 647 -875 697 -875 
Q 853 -875 926 -823 
Q 1000 -772 1050 -697 
Q 1066 -672 1162 -440 
Q 1259 -209 1303 -97 
L 66 3347 
L 703 3347 
L 1600 622 
L 2503 3347 
z
M 1597 3428 
L 1597 3428 
z
" transform="scale(0.015625)"/>
      </defs>
      <use xlink:href="#Helvetica-4e"/>
      <use xlink:href="#Helvetica-6f" x="72.216797"/>
      <use xlink:href="#Helvetica-72" x="127.832031"/>
      <use xlink:href="#Helvetica-6d" x="161.132812"/>
      <use xlink:href="#Helvetica-61" x="244.433594"/>
      <use xlink:href="#Helvetica-6c" x="300.048828"/>
      <use xlink:href="#Helvetica-69" x="322.265625"/>
      <use xlink:href="#Helvetica-7a" x="344.482422"/>
      <use xlink:href="#Helvetica-65" x="394.482422"/>
      <use xlink:href="#Helvetica-64" x="450.097656"/>
      <use xlink:href="#Helvetica-20" x="505.712891"/>
      <use xlink:href="#Helvetica-49" x="533.496094"/>
      <use xlink:href="#Helvetica-6e" x="561.279297"/>
      <use xlink:href="#Helvetica-74" x="616.894531"/>
      <use xlink:href="#Helvetica-65" x="644.677734"/>
      <use xlink:href="#Helvetica-6e" x="700.292969"/>
      <use xlink:href="#Helvetica-73" x="755.908203"/>
      <use xlink:href="#Helvetica-69" x="805.908203"/>
      <use xlink:href="#Helvetica-74" x="828.125"/>
      <use xlink:href="#Helvetica-79" x="855.908203"/>
     </g>
    </g>
   </g>
   <g id="line2d_13">
    <path d="M 54.009174 333.957073 
L 54.122001 333.957073 
L 54.291209 335.186341 
L 54.629692 335.186341 
L 54.686139 334.571707 
L 54.798967 335.186341 
L 54.911794 335.186341 
L 55.024622 335.800976 
L 55.081069 335.800976 
L 55.193897 335.186341 
L 55.250277 335.186341 
L 55.363105 334.571707 
L 55.475932 334.571707 
L 55.588827 335.186341 
L 55.758035 335.186341 
L 55.870862 335.800976 
L 55.983757 335.800976 
L 56.096585 336.41561 
L 56.152965 336.41561 
L 56.265792 337.030244 
L 56.32224 337.030244 
L 56.491515 338.259512 
L 56.547895 338.259512 
L 56.66079 338.874146 
L 56.886445 338.874146 
L 56.999272 339.48878 
L 57.281375 339.48878 
L 57.394202 340.103415 
L 57.45065 340.103415 
L 57.563477 340.718049 
L 57.732752 340.718049 
L 57.845647 341.332683 
L 58.297024 341.332683 
L 58.409852 340.718049 
L 58.466299 340.718049 
L 58.579127 341.332683 
L 58.748401 341.332683 
L 58.861229 341.947317 
L 58.917676 341.947317 
L 59.086951 343.176585 
L 59.143398 343.176585 
L 59.256226 343.79122 
L 59.481948 343.79122 
L 59.594776 344.405854 
L 59.651223 344.405854 
L 59.764051 345.020488 
L 59.876945 345.020488 
L 60.04622 346.249756 
L 60.159048 346.249756 
L 60.271942 345.635122 
L 60.554045 345.635122 
L 60.666939 345.020488 
L 60.892662 345.020488 
L 61.005489 344.405854 
L 61.061936 345.020488 
L 61.174764 344.405854 
L 61.287659 344.405854 
L 61.400486 345.020488 
L 61.513381 345.020488 
L 61.626208 345.635122 
L 61.682656 345.635122 
L 61.79555 346.249756 
L 62.021272 346.249756 
L 62.529164 351.166829 
L 62.585611 351.166829 
L 62.698439 351.781463 
L 62.811333 351.781463 
L 62.924161 352.396098 
L 63.093503 352.396098 
L 63.262778 353.625366 
L 63.657842 353.625366 
L 63.770736 354.24 
L 63.883564 354.24 
L 63.996458 354.854634 
L 64.109353 354.854634 
L 64.222181 355.469268 
L 65.125203 355.469268 
L 65.238098 356.083902 
L 65.576714 356.083902 
L 65.633162 355.469268 
L 65.746056 356.083902 
L 65.802504 355.469268 
L 65.858951 356.083902 
L 66.028226 354.854634 
L 66.423357 354.854634 
L 66.536251 354.24 
L 66.592632 354.24 
L 66.705526 353.625366 
L 66.761973 353.625366 
L 67.04421 351.166829 
L 67.157104 351.166829 
L 67.269999 350.552195 
L 67.326446 350.552195 
L 67.439274 349.937561 
L 67.834405 349.937561 
L 67.890852 350.552195 
L 68.003747 349.937561 
L 68.116641 349.937561 
L 68.173088 350.552195 
L 68.229536 349.937561 
L 68.34243 350.552195 
L 68.850456 350.552195 
L 68.96335 351.166829 
L 69.471376 351.166829 
L 69.58427 350.552195 
L 69.640718 350.552195 
L 69.753612 351.166829 
L 69.866507 351.166829 
L 69.979401 351.781463 
L 70.374532 351.781463 
L 70.543941 353.010732 
L 70.600388 353.010732 
L 70.713283 353.625366 
L 70.826178 353.010732 
L 70.939072 353.625366 
L 71.108414 353.625366 
L 71.221308 354.24 
L 71.33427 353.625366 
L 71.447165 354.24 
L 71.672954 354.24 
L 71.842296 355.469268 
L 72.124599 355.469268 
L 72.237493 354.854634 
L 72.293941 355.469268 
L 72.406835 354.854634 
L 72.745586 354.854634 
L 72.914995 353.625366 
L 73.084337 353.625366 
L 73.197231 353.010732 
L 73.253678 353.010732 
L 73.36664 352.396098 
L 73.818285 352.396098 
L 73.93118 351.781463 
L 73.987627 351.781463 
L 74.100588 351.166829 
L 74.157036 351.166829 
L 74.26993 351.781463 
L 74.382892 351.781463 
L 74.495786 351.166829 
L 74.552234 351.166829 
L 74.834537 348.708293 
L 74.947432 348.708293 
L 75.060393 348.093659 
L 75.11684 348.093659 
L 75.286249 346.86439 
L 75.342696 346.86439 
L 75.455591 346.249756 
L 75.512105 346.249756 
L 75.737894 344.405854 
L 75.794409 344.405854 
L 75.96375 343.176585 
L 76.020265 343.176585 
L 76.246054 341.332683 
L 76.302568 341.332683 
L 76.415463 340.718049 
L 76.641319 340.718049 
L 76.810728 339.48878 
L 76.867175 339.48878 
L 77.149545 337.030244 
L 77.205992 337.030244 
L 77.54481 333.957073 
L 77.601257 333.957073 
L 77.714152 333.342439 
L 77.770666 333.342439 
L 78.052969 330.883902 
L 78.109417 330.883902 
L 78.33534 327.810732 
L 80.255284 307.527805 
L 80.311798 307.527805 
L 81.158842 297.693659 
L 81.497727 292.161951 
L 82.457799 281.098537 
L 82.683722 278.025366 
L 82.909645 274.952195 
L 83.304977 268.19122 
L 83.700309 263.274146 
L 84.152155 255.283902 
L 84.208669 255.283902 
L 84.49104 250.981463 
L 84.604001 249.137561 
L 85.959606 221.479024 
L 86.072568 219.635122 
L 86.411519 214.103415 
L 87.032841 206.727805 
L 87.428307 196.279024 
L 87.823706 183.371707 
L 88.558056 165.547317 
L 89.235959 146.493659 
L 89.574911 137.274146 
L 89.913862 128.669268 
L 89.970376 128.054634 
L 90.196366 123.752195 
L 90.309328 121.908293 
L 91.269735 102.854634 
L 91.326249 102.24 
L 91.665201 94.249756 
L 91.891191 91.176585 
L 92.230209 88.103415 
L 92.343171 88.718049 
L 92.399685 88.718049 
L 92.569228 89.947317 
L 92.682189 89.947317 
L 92.851665 91.176585 
L 92.964694 91.176585 
L 93.077722 91.79122 
L 93.134169 91.79122 
L 93.247198 92.405854 
L 93.303712 92.405854 
L 94.094711 84.41561 
L 94.151225 84.41561 
L 94.320768 83.186341 
L 94.433729 83.186341 
L 94.546758 82.571707 
L 94.659786 82.571707 
L 94.772748 81.957073 
L 94.94229 81.957073 
L 95.055319 81.342439 
L 95.111766 81.342439 
L 95.224794 80.727805 
L 95.337823 80.727805 
L 95.507299 81.957073 
L 95.733356 81.957073 
L 95.846384 82.571707 
L 95.959413 82.571707 
L 96.128888 83.800976 
L 96.354945 83.800976 
L 97.089564 92.405854 
L 97.372068 96.708293 
L 97.485096 98.552195 
L 98.276229 116.99122 
L 99.180456 152.025366 
L 99.915142 172.922927 
L 100.536865 188.28878 
L 100.932465 198.122927 
L 101.045493 199.966829 
L 102.006302 219.020488 
L 102.175845 221.479024 
L 102.345455 223.937561 
L 102.401969 223.937561 
L 103.87154 240.532683 
L 104.097664 243.605854 
L 104.380235 247.293659 
L 104.775969 254.054634 
L 105.058607 257.742439 
L 105.341178 262.044878 
L 106.132578 270.035122 
L 106.302188 270.035122 
L 106.415284 270.649756 
L 106.754436 270.649756 
L 107.602417 279.254634 
L 107.658932 279.254634 
L 107.772027 279.869268 
L 107.828541 279.869268 
L 107.998151 281.098537 
L 108.11118 281.098537 
L 108.450399 284.171707 
L 108.506913 284.171707 
L 108.846132 287.244878 
L 108.959228 287.244878 
L 109.128838 289.08878 
L 109.185352 289.08878 
L 109.354962 290.318049 
L 109.468057 290.318049 
L 109.581085 289.703415 
L 109.807276 291.547317 
L 109.920305 291.547317 
L 109.976886 290.932683 
L 110.089914 291.547317 
L 110.655325 291.547317 
L 110.76842 290.932683 
L 110.881516 290.932683 
L 111.10764 292.776585 
L 111.220735 292.776585 
L 111.33383 293.39122 
L 111.390345 293.39122 
L 111.50344 292.776585 
L 111.559954 292.776585 
L 111.67305 292.161951 
L 111.729564 292.161951 
L 111.842659 292.776585 
L 112.125365 292.776585 
L 112.23846 293.39122 
L 112.521165 293.39122 
L 112.634261 294.005854 
L 112.860451 294.005854 
L 112.973547 293.39122 
L 113.030061 293.39122 
L 113.143157 292.776585 
L 113.538957 292.776585 
L 113.708634 294.005854 
L 113.934825 294.005854 
L 114.04792 294.620488 
L 114.104434 294.005854 
L 114.161016 294.620488 
L 114.274111 294.005854 
L 114.556816 294.005854 
L 114.669912 294.620488 
L 114.726493 294.620488 
L 114.896102 295.849756 
L 115.009198 295.849756 
L 115.122293 296.46439 
L 115.29197 296.46439 
L 115.405065 297.079024 
L 115.518161 297.079024 
L 115.68777 295.849756 
L 115.744352 295.849756 
L 115.857447 295.235122 
L 115.970543 295.235122 
L 116.083638 294.620488 
L 116.592601 294.620488 
L 116.649182 295.235122 
L 116.818792 294.005854 
L 116.931954 294.005854 
L 117.04505 293.39122 
L 117.101564 293.39122 
L 117.271241 292.161951 
L 117.440917 292.161951 
L 117.554013 291.547317 
L 117.667108 291.547317 
L 117.836785 292.776585 
L 118.063043 292.776585 
L 118.685101 298.922927 
L 118.741682 298.922927 
L 118.911359 300.152195 
L 118.96794 300.152195 
L 119.250712 302.610732 
L 119.307226 302.610732 
L 119.420389 303.225366 
L 119.476903 303.225366 
L 119.590065 303.84 
L 119.64658 303.84 
L 119.872837 305.683902 
L 119.929419 305.683902 
L 120.381867 311.21561 
L 120.551544 313.059512 
L 120.777802 314.903415 
L 120.834383 314.903415 
L 121.117155 317.361951 
L 121.173736 317.361951 
L 121.569671 321.049756 
L 121.626252 321.049756 
L 121.739347 321.66439 
L 121.85251 321.66439 
L 122.305026 325.966829 
L 122.36154 325.966829 
L 123.096894 333.342439 
L 123.153476 333.342439 
L 123.266638 333.957073 
L 123.379734 333.957073 
L 123.492896 334.571707 
L 123.549477 334.571707 
L 123.775735 336.41561 
L 123.832316 336.41561 
L 124.058574 338.259512 
L 124.115155 338.259512 
L 124.228251 338.874146 
L 124.284832 338.874146 
L 124.397994 339.48878 
L 124.454575 339.48878 
L 124.567671 340.103415 
L 124.624252 340.103415 
L 124.737414 340.718049 
L 124.793996 340.718049 
L 124.907091 341.332683 
L 124.963672 341.332683 
L 125.076835 341.947317 
L 125.529417 341.947317 
L 125.642513 341.332683 
L 125.755675 341.947317 
L 125.812256 341.947317 
L 125.982 343.176585 
L 126.095095 343.176585 
L 126.208258 343.79122 
L 126.32142 343.79122 
L 126.491097 345.020488 
L 126.604259 345.020488 
L 126.830584 346.86439 
L 127.396329 346.86439 
L 127.509492 346.249756 
L 127.735749 346.249756 
L 127.848912 345.635122 
L 128.24498 345.635122 
L 128.358143 345.020488 
L 128.471305 345.020488 
L 128.527886 345.635122 
L 128.584467 345.020488 
L 128.69763 345.635122 
L 128.923888 345.635122 
L 129.03705 346.249756 
L 129.319956 346.249756 
L 129.433118 346.86439 
L 129.4897 346.86439 
L 129.602862 347.479024 
L 129.772606 347.479024 
L 129.885768 348.093659 
L 130.055512 348.093659 
L 130.168674 348.708293 
L 130.225255 348.708293 
L 130.394999 349.937561 
L 130.621324 349.937561 
L 130.734486 350.552195 
L 130.791067 349.937561 
L 130.904297 350.552195 
L 131.243784 350.552195 
L 131.356946 351.166829 
L 131.583271 351.166829 
L 131.696433 351.781463 
L 132.14915 351.781463 
L 132.262312 352.396098 
L 132.318894 352.396098 
L 132.488637 353.625366 
L 132.545218 353.625366 
L 132.715029 354.854634 
L 133.167678 354.854634 
L 133.280908 355.469268 
L 133.676976 355.469268 
L 133.790206 354.854634 
L 133.846787 354.854634 
L 133.959949 355.469268 
L 134.073112 354.854634 
L 134.129693 354.854634 
L 134.299503 353.625366 
L 134.469247 353.625366 
L 134.582476 353.010732 
L 134.865382 353.010732 
L 134.978612 353.625366 
L 135.148355 353.625366 
L 135.261585 354.24 
L 135.65772 354.24 
L 135.770882 354.854634 
L 135.884112 354.854634 
L 135.997274 355.469268 
L 136.110504 355.469268 
L 136.223666 356.083902 
L 136.393476 356.083902 
L 136.506639 355.469268 
L 136.56322 355.469268 
L 136.676449 354.854634 
L 137.638598 354.854634 
L 137.75176 354.24 
L 137.864989 354.24 
L 137.978152 353.625366 
L 138.091381 354.24 
L 138.147962 354.24 
L 138.261192 353.625366 
L 138.600746 353.625366 
L 138.657394 354.24 
L 138.713975 353.625366 
L 138.827138 354.24 
L 139.279988 354.24 
L 139.393218 353.625366 
L 139.449799 353.625366 
L 139.619609 352.396098 
L 139.67619 352.396098 
L 139.78942 351.781463 
L 139.902582 351.781463 
L 140.015812 352.396098 
L 140.242203 352.396098 
L 140.355433 351.781463 
L 140.412014 351.781463 
L 140.525243 351.166829 
L 140.695054 351.166829 
L 140.864864 349.937561 
L 140.921513 349.937561 
L 141.034675 349.322927 
L 141.091323 349.322927 
L 141.204486 348.708293 
L 141.261134 348.708293 
L 141.317715 349.322927 
L 141.374363 348.708293 
L 141.487525 349.322927 
L 141.544174 349.322927 
L 141.713984 350.552195 
L 141.770565 349.937561 
L 141.883795 350.552195 
L 141.940376 350.552195 
L 142.053605 349.937561 
L 142.732914 349.937561 
L 142.902725 348.708293 
L 143.072603 348.708293 
L 143.185832 348.093659 
L 143.298994 348.708293 
L 143.412224 348.708293 
L 143.525453 349.322927 
L 143.80856 349.322927 
L 143.921722 348.708293 
L 144.034952 348.708293 
L 144.204829 347.479024 
L 144.37464 347.479024 
L 144.487869 346.86439 
L 145.393704 346.86439 
L 145.563582 345.635122 
L 145.620163 345.635122 
L 145.733392 345.020488 
L 145.846621 345.020488 
L 145.959851 344.405854 
L 146.242958 344.405854 
L 146.356187 343.79122 
L 146.469416 343.79122 
L 146.582646 343.176585 
L 146.752523 343.176585 
L 146.922334 341.947317 
L 146.978982 341.947317 
L 147.262089 339.48878 
L 147.31867 339.48878 
L 147.941532 333.342439 
L 147.998113 333.342439 
L 150.263102 308.142439 
L 150.602857 302.610732 
L 151.225719 296.46439 
L 151.282367 296.46439 
L 151.622122 293.39122 
L 151.735419 293.39122 
L 152.075174 290.318049 
L 152.131822 290.318049 
L 152.698103 284.786341 
L 152.754751 284.786341 
L 153.094506 280.483902 
L 154.736901 242.99122 
L 155.359896 225.781463 
L 156.379429 201.810732 
L 156.719251 193.820488 
L 157.115722 187.059512 
L 157.17237 187.059512 
L 157.398962 182.757073 
L 157.512192 181.527805 
L 157.795433 175.381463 
L 158.022025 172.308293 
L 158.475144 163.703415 
L 158.531792 163.703415 
L 159.268151 149.566829 
L 159.381447 147.722927 
L 159.721336 139.732683 
L 160.174521 128.054634 
L 160.51441 120.06439 
L 160.741003 116.99122 
L 162.610526 78.269268 
L 163.063711 73.966829 
L 163.12036 73.966829 
L 163.290371 72.737561 
L 163.403667 72.737561 
L 163.516964 72.122927 
L 163.573612 72.122927 
L 163.63026 71.508293 
L 163.743556 72.122927 
L 163.913568 72.122927 
L 164.026864 72.737561 
L 164.14016 72.122927 
L 164.196809 72.122927 
L 164.310172 72.737561 
L 164.36682 72.737561 
L 164.593413 75.810732 
L 164.763424 77.04 
L 164.87672 77.04 
L 165.273324 80.727805 
L 165.329973 80.727805 
L 165.443269 81.342439 
L 165.556632 81.342439 
L 165.669929 81.957073 
L 165.726577 81.957073 
L 165.896588 84.41561 
L 166.236544 90.561951 
L 166.293192 90.561951 
L 166.689863 95.479024 
L 167.709798 116.376585 
L 167.766446 116.376585 
L 168.163117 120.06439 
L 168.219765 120.06439 
L 168.616436 124.981463 
L 170.99653 178.454634 
L 171.336552 186.444878 
L 171.619927 190.132683 
L 172.18661 204.269268 
L 173.036734 228.854634 
L 173.943573 246.679024 
L 174.113652 249.137561 
L 174.340311 252.210732 
L 174.793764 257.742439 
L 175.077139 262.044878 
L 175.190502 263.88878 
L 175.473944 268.19122 
L 175.70067 270.035122 
L 175.814034 270.035122 
L 175.984045 271.26439 
L 176.097408 271.26439 
L 176.324135 273.108293 
L 176.38085 273.108293 
L 176.72094 276.181463 
L 176.777655 276.181463 
L 177.684628 285.400976 
L 177.741276 285.400976 
L 178.024718 287.859512 
L 178.081433 287.859512 
L 178.364808 290.318049 
L 178.421523 290.318049 
L 178.704965 292.776585 
L 179.498642 292.776585 
L 179.725368 290.932683 
L 179.838732 290.932683 
L 180.292319 286.630244 
L 180.348967 286.630244 
L 180.519045 285.400976 
L 180.802487 285.400976 
L 180.972632 284.171707 
L 181.426152 284.171707 
L 181.539516 283.557073 
L 181.993103 283.557073 
L 182.106466 282.942439 
L 182.219896 282.942439 
L 182.333259 282.327805 
L 182.503338 282.327805 
L 182.616768 281.713171 
L 183.070355 281.713171 
L 183.183718 282.327805 
L 183.410512 282.327805 
L 183.69402 284.786341 
L 183.807451 284.786341 
L 183.920814 285.400976 
L 183.977529 285.400976 
L 184.261038 287.859512 
L 184.77134 287.859512 
L 184.828055 288.474146 
L 184.941418 287.859512 
L 185.054849 287.859512 
L 185.168212 287.244878 
L 185.224927 287.244878 
L 185.338357 286.630244 
L 185.451787 286.630244 
L 185.508436 286.01561 
L 185.621866 286.630244 
L 186.07552 286.630244 
L 186.188883 287.244878 
L 186.529107 287.244878 
L 186.642537 287.859512 
L 186.755967 287.859512 
L 186.869398 287.244878 
L 187.549845 294.005854 
L 187.60656 294.005854 
L 187.833421 295.849756 
L 187.890136 295.849756 
L 188.060214 297.079024 
L 188.23036 297.079024 
L 188.34379 296.46439 
L 188.513935 297.693659 
L 188.570583 297.693659 
L 188.797444 299.537561 
L 188.854159 299.537561 
L 189.081019 301.381463 
L 189.19445 301.381463 
L 189.30788 301.996098 
L 189.534673 301.996098 
L 189.988394 306.298537 
L 190.04511 306.298537 
L 190.49883 310.600976 
L 190.555546 310.600976 
L 191.065982 315.518049 
L 191.122697 315.518049 
L 191.349557 317.361951 
L 191.406272 317.361951 
L 191.576418 318.59122 
L 191.633133 318.59122 
L 191.746563 319.205854 
L 191.803278 319.205854 
L 192.200284 322.893659 
L 192.256999 322.893659 
L 192.483927 324.737561 
L 192.540642 324.737561 
L 192.654072 325.352195 
L 192.710787 325.352195 
L 192.937648 327.196098 
L 192.994363 327.196098 
L 193.107793 327.810732 
L 193.164508 327.810732 
L 193.277938 328.425366 
L 193.561581 328.425366 
L 193.731726 329.654634 
L 193.788441 329.654634 
L 194.072084 332.113171 
L 194.128799 332.113171 
L 194.35566 333.957073 
L 194.46909 333.342439 
L 194.525872 333.342439 
L 194.639302 333.957073 
L 195.036375 333.957073 
L 195.149805 334.571707 
L 195.31995 334.571707 
L 195.433448 335.186341 
L 195.773805 335.186341 
L 195.943951 336.41561 
L 196.114163 336.41561 
L 196.397739 338.874146 
L 196.454521 338.874146 
L 196.738163 341.332683 
L 196.908309 341.332683 
L 197.021806 341.947317 
L 197.135236 341.947317 
L 197.418879 344.405854 
L 197.475594 344.405854 
L 197.645806 346.249756 
L 197.872734 348.093659 
L 197.986164 348.093659 
L 198.156376 349.322927 
L 198.213091 349.322927 
L 198.383304 350.552195 
L 198.440019 350.552195 
L 198.610231 351.781463 
L 198.723661 351.781463 
L 198.837158 352.396098 
L 199.120801 352.396098 
L 199.234298 353.010732 
L 199.291013 353.010732 
L 199.40451 353.625366 
L 199.574656 353.625366 
L 199.688153 354.24 
L 199.801583 354.24 
L 199.91508 353.625366 
L 199.971796 353.625366 
L 200.085293 353.010732 
L 200.255505 353.010732 
L 200.368935 353.625366 
L 200.822857 353.625366 
L 200.936354 354.24 
L 201.163282 354.24 
L 201.333494 353.010732 
L 201.446991 353.010732 
L 201.617204 351.781463 
L 201.673919 351.781463 
L 201.900846 349.937561 
L 201.957628 349.937561 
L 202.127841 348.708293 
L 202.354768 348.708293 
L 202.468265 349.322927 
L 202.751975 349.322927 
L 202.978969 347.479024 
L 203.035684 347.479024 
L 203.319394 345.020488 
L 203.376109 345.020488 
L 203.546388 343.79122 
L 203.659818 343.79122 
L 203.773316 343.176585 
L 203.886813 343.79122 
L 204.00031 343.79122 
L 204.113807 344.405854 
L 204.340802 344.405854 
L 204.454232 345.020488 
L 204.681226 345.020488 
L 204.738008 344.405854 
L 204.851506 345.020488 
L 205.475707 345.020488 
L 205.645919 346.249756 
L 205.702701 346.249756 
L 205.816198 346.86439 
L 205.872913 346.86439 
L 205.986411 347.479024 
L 206.043193 347.479024 
L 206.099908 348.093659 
L 206.15669 347.479024 
L 206.270187 348.093659 
L 206.326902 348.093659 
L 206.440399 348.708293 
L 206.667394 348.708293 
L 206.780891 349.322927 
L 206.95117 349.322927 
L 207.121383 350.552195 
L 207.461941 350.552195 
L 207.575438 349.937561 
L 207.688936 350.552195 
L 207.745651 350.552195 
L 207.859148 351.166829 
L 207.972645 351.166829 
L 208.086209 351.781463 
L 208.369919 351.781463 
L 208.483483 352.396098 
L 208.767192 352.396098 
L 208.880757 353.010732 
L 209.107751 353.010732 
L 209.27803 351.781463 
L 209.334745 351.781463 
L 209.44831 351.166829 
L 209.618522 351.166829 
L 209.732086 350.552195 
L 209.95908 350.552195 
L 210.015863 349.937561 
L 210.12936 350.552195 
L 210.242857 350.552195 
L 210.356354 351.166829 
L 210.413136 351.166829 
L 210.526633 351.781463 
L 210.640198 351.781463 
L 210.753695 352.396098 
L 210.923974 352.396098 
L 211.094253 353.625366 
L 211.207751 353.010732 
L 211.321315 353.625366 
L 211.37803 353.010732 
L 211.434812 353.625366 
L 211.548309 353.010732 
L 212.002432 353.010732 
L 212.115929 353.625366 
L 212.229426 353.010732 
L 212.34299 353.010732 
L 212.456488 352.396098 
L 212.51327 352.396098 
L 212.626767 351.781463 
L 212.740331 351.781463 
L 212.853828 351.166829 
L 213.307951 351.166829 
L 213.421448 350.552195 
L 213.47823 350.552195 
L 213.64851 349.322927 
L 213.705292 349.322927 
L 213.818856 348.708293 
L 213.875571 348.708293 
L 214.102632 346.86439 
L 214.159414 346.86439 
L 214.329694 345.635122 
L 214.50004 345.635122 
L 214.613537 345.020488 
L 214.670319 345.020488 
L 214.783883 344.405854 
L 214.89738 344.405854 
L 215.067727 343.176585 
L 215.181224 343.176585 
L 215.294788 342.561951 
L 215.35157 342.561951 
L 215.521849 341.332683 
L 215.578632 341.332683 
L 215.862475 338.874146 
L 215.975972 338.874146 
L 216.089536 338.259512 
L 216.146318 338.259512 
L 216.259883 337.644878 
L 216.316598 337.644878 
L 216.714005 333.957073 
L 216.770787 333.957073 
L 216.884352 333.342439 
L 216.941134 333.342439 
L 217.054631 333.957073 
L 217.452038 333.957073 
L 217.565603 333.342439 
L 217.735949 333.342439 
L 217.906228 332.113171 
L 217.96301 332.113171 
L 218.133356 330.883902 
L 218.190138 330.883902 
L 218.360418 329.654634 
L 218.473982 329.654634 
L 219.1553 322.893659 
L 219.212082 322.893659 
L 220.461221 308.757073 
L 220.858695 301.996098 
L 220.97226 300.766829 
L 221.199388 296.46439 
L 221.823991 289.08878 
L 222.61894 273.722927 
L 222.675722 273.108293 
L 223.073196 263.274146 
L 223.584302 254.054634 
L 223.754648 251.596098 
L 224.15219 244.835122 
L 224.265754 242.99122 
L 224.492882 239.303415 
L 224.549664 239.303415 
L 224.833642 235.000976 
L 225.117552 231.313171 
L 225.458312 225.781463 
L 225.742289 222.093659 
L 226.026199 217.79122 
L 226.139831 215.947317 
L 227.90041 179.683902 
L 228.127605 176.610732 
L 229.206732 151.410732 
L 230.229145 121.293659 
L 230.399558 118.835122 
L 231.194775 103.469268 
L 231.422037 100.396098 
L 232.728561 73.966829 
L 232.785343 73.352195 
L 233.069387 67.205854 
L 233.466996 63.518049 
L 233.580627 63.518049 
L 233.694258 62.903415 
L 233.864671 64.132683 
L 233.978302 64.132683 
L 234.716871 72.737561 
L 235.000915 77.04 
L 235.171328 78.269268 
L 235.398591 78.269268 
L 235.569004 79.498537 
L 235.682635 79.498537 
L 235.796266 80.113171 
L 236.08031 80.113171 
L 236.250791 81.342439 
L 236.364422 81.342439 
L 236.818946 86.874146 
L 237.10299 91.176585 
L 237.216622 92.405854 
L 237.273471 91.79122 
L 238.239369 102.24 
L 238.353 101.625366 
L 238.52348 102.854634 
L 238.580262 102.854634 
L 238.864373 106.542439 
L 239.205267 112.074146 
L 239.546227 116.376585 
L 240.171232 131.742439 
L 241.932815 185.830244 
L 242.671585 203.654634 
L 243.069394 214.103415 
L 243.126243 214.718049 
L 243.524053 224.552195 
L 244.319671 239.918049 
L 244.490152 242.376585 
L 244.717481 246.06439 
L 244.77433 246.06439 
L 245.740496 255.898537 
L 245.797345 255.898537 
L 246.536181 263.274146 
L 246.59303 263.274146 
L 246.763511 264.503415 
L 246.82036 264.503415 
L 247.104538 266.961951 
L 247.161387 266.961951 
L 247.672961 271.879024 
L 247.72981 271.879024 
L 247.90029 273.108293 
L 247.95714 273.108293 
L 248.298167 276.181463 
L 248.411865 276.181463 
L 248.69611 278.64 
L 248.752892 278.64 
L 248.809741 278.025366 
L 248.923439 278.64 
L 248.980288 278.64 
L 249.093986 279.254634 
L 249.150835 279.254634 
L 249.321316 280.483902 
L 249.378165 280.483902 
L 249.66241 282.942439 
L 249.719259 282.942439 
L 249.776108 283.557073 
L 249.832957 282.942439 
L 249.889806 283.557073 
L 249.946655 282.942439 
L 250.060286 283.557073 
L 250.117135 283.557073 
L 250.230833 284.171707 
L 250.287682 284.171707 
L 250.40138 284.786341 
L 250.913022 284.786341 
L 251.02672 284.171707 
L 251.140351 284.171707 
L 251.367747 282.327805 
L 251.424596 282.327805 
L 251.538294 281.713171 
L 251.595143 281.713171 
L 251.708841 281.098537 
L 251.76569 281.098537 
L 251.822539 281.713171 
L 251.936238 281.098537 
L 251.993087 281.098537 
L 252.277332 278.64 
L 252.334181 278.64 
L 252.504728 277.410732 
L 252.561577 277.410732 
L 252.675275 276.796098 
L 252.788973 277.410732 
L 252.902671 277.410732 
L 252.95952 278.025366 
L 253.073218 277.410732 
L 253.41438 277.410732 
L 253.641776 279.254634 
L 253.698625 279.254634 
L 253.869172 280.483902 
L 253.926021 280.483902 
L 254.039719 281.098537 
L 254.096568 281.098537 
L 254.153417 281.713171 
L 254.267115 281.098537 
L 254.38088 281.098537 
L 254.494578 280.483902 
L 254.721974 280.483902 
L 254.835672 279.869268 
L 254.949371 279.869268 
L 255.119985 281.098537 
L 255.347381 281.098537 
L 255.461079 280.483902 
L 256.313948 280.483902 
L 256.427646 281.098537 
L 256.598261 281.098537 
L 256.825657 282.942439 
L 256.882573 282.942439 
L 257.337432 287.244878 
L 258.190368 287.244878 
L 258.360916 288.474146 
L 258.417765 288.474146 
L 258.758993 291.547317 
L 258.815842 291.547317 
L 259.782543 301.381463 
L 259.839392 301.381463 
L 260.066856 304.454634 
L 260.408084 307.527805 
L 260.464933 307.527805 
L 260.578631 308.142439 
L 260.692396 308.142439 
L 260.86301 309.371707 
L 260.919859 309.371707 
L 261.090473 310.600976 
L 261.147322 310.600976 
L 261.659164 315.518049 
L 261.716013 315.518049 
L 261.829778 316.132683 
L 262.000392 316.132683 
L 262.114158 315.518049 
L 262.171007 315.518049 
L 262.284772 314.903415 
L 262.626 314.903415 
L 262.796614 316.132683 
L 262.853463 316.132683 
L 263.535919 322.893659 
L 263.592835 322.893659 
L 263.706533 323.508293 
L 263.820298 323.508293 
L 263.934063 324.122927 
L 264.389057 324.122927 
L 264.502822 324.737561 
L 264.559671 324.737561 
L 264.730285 325.966829 
L 264.787201 325.966829 
L 264.957815 327.196098 
L 265.014731 327.196098 
L 265.469724 331.498537 
L 265.526573 331.498537 
L 265.640338 332.113171 
L 265.697254 332.113171 
L 265.867868 333.342439 
L 265.924784 333.342439 
L 266.038482 333.957073 
L 266.322928 333.957073 
L 266.436693 334.571707 
L 266.493542 334.571707 
L 266.891687 338.259512 
L 266.948603 338.259512 
L 267.232982 340.718049 
L 267.289898 340.718049 
L 267.460512 341.947317 
L 267.574277 341.947317 
L 267.744958 343.176585 
L 267.858723 343.176585 
L 267.972488 343.79122 
L 268.029337 343.79122 
L 268.200018 345.020488 
L 268.313783 345.020488 
L 268.370699 345.635122 
L 268.484464 345.020488 
L 268.655078 345.020488 
L 268.768843 344.405854 
L 268.882608 344.405854 
L 269.053289 345.635122 
L 269.110205 345.635122 
L 269.22397 346.249756 
L 269.280819 346.249756 
L 269.4515 347.479024 
L 269.565265 347.479024 
L 269.67903 348.093659 
L 269.792796 348.093659 
L 269.906561 348.708293 
L 270.191007 348.708293 
L 270.304839 348.093659 
L 270.418604 348.093659 
L 270.532369 347.479024 
L 271.215026 347.479024 
L 271.328858 348.093659 
L 271.385707 348.093659 
L 271.442623 347.479024 
L 271.556388 348.093659 
L 271.613304 347.479024 
L 271.727069 348.093659 
L 271.954666 348.093659 
L 272.068431 348.708293 
L 272.12528 348.708293 
L 272.295961 349.937561 
L 272.637323 349.937561 
L 272.751155 350.552195 
L 273.035601 350.552195 
L 273.149433 351.166829 
L 273.263198 351.166829 
L 273.376963 351.781463 
L 273.433879 351.781463 
L 273.490795 352.396098 
L 273.60456 351.781463 
L 274.059755 351.781463 
L 274.17352 351.166829 
L 274.230436 351.166829 
L 274.401117 349.937561 
L 274.571798 349.937561 
L 274.742479 348.708293 
L 275.026992 348.708293 
L 275.140824 348.093659 
L 275.254589 348.093659 
L 275.368421 347.479024 
L 275.766699 347.479024 
L 275.93738 346.249756 
L 275.994296 346.249756 
L 276.164977 345.020488 
L 276.335725 345.020488 
L 276.44949 344.405854 
L 276.620238 344.405854 
L 276.734003 343.79122 
L 277.75829 343.79122 
L 277.872122 344.405854 
L 278.384232 344.405854 
L 278.498064 345.020488 
L 278.611896 345.020488 
L 278.725728 345.635122 
L 278.839493 345.635122 
L 278.953325 346.249756 
L 279.010241 346.249756 
L 279.124073 346.86439 
L 279.294754 346.86439 
L 279.408586 347.479024 
L 280.091511 347.479024 
L 280.205343 348.093659 
L 280.376024 348.093659 
L 280.43294 348.708293 
L 280.546772 348.093659 
L 280.660604 348.708293 
L 280.774436 348.708293 
L 280.831352 349.322927 
L 281.0021 348.093659 
L 281.229697 348.093659 
L 281.343529 347.479024 
L 281.400445 348.093659 
L 281.457361 347.479024 
L 281.514277 348.093659 
L 281.571193 347.479024 
L 281.685025 348.093659 
L 281.741941 347.479024 
L 281.855773 348.093659 
L 282.368017 348.093659 
L 282.481849 347.479024 
L 282.595681 347.479024 
L 282.709513 346.86439 
L 282.994093 346.86439 
L 283.107925 347.479024 
L 283.335589 347.479024 
L 283.449421 346.86439 
L 283.563253 347.479024 
L 283.620169 347.479024 
L 283.734001 348.093659 
L 284.246245 348.093659 
L 284.360077 347.479024 
L 284.473976 347.479024 
L 284.70164 345.635122 
L 284.758556 345.635122 
L 284.872388 345.020488 
L 284.98622 345.020488 
L 285.100052 344.405854 
L 285.156968 345.020488 
L 285.2708 344.405854 
L 285.327783 344.405854 
L 285.441615 343.79122 
L 286.067758 343.79122 
L 286.409254 340.718049 
L 286.466237 340.718049 
L 286.693901 338.874146 
L 286.750817 338.874146 
L 286.921632 337.644878 
L 287.035464 337.644878 
L 288.060153 327.196098 
L 288.117069 327.196098 
L 288.287817 325.966829 
L 288.344733 325.966829 
L 288.62938 323.508293 
L 288.743279 323.508293 
L 289.59722 313.674146 
L 289.824951 310.600976 
L 291.931512 287.244878 
L 292.500873 276.796098 
L 292.671688 274.337561 
L 293.411864 260.200976 
L 293.582679 257.742439 
L 293.924309 252.210732 
L 294.038208 250.366829 
L 294.436754 242.99122 
L 294.493737 242.99122 
L 294.664552 241.147317 
L 295.347879 233.157073 
L 296.543717 209.186341 
L 296.600633 208.571707 
L 296.999246 198.737561 
L 297.853455 178.454634 
L 299.391124 131.127805 
L 299.505023 129.898537 
L 299.846787 121.908293 
L 301.327608 91.79122 
L 301.555405 89.947317 
L 301.669304 89.947317 
L 303.378124 70.893659 
L 303.605922 67.205854 
L 303.662904 67.205854 
L 303.947685 64.747317 
L 304.004668 64.747317 
L 304.17555 63.518049 
L 304.346432 63.518049 
L 304.688263 60.444878 
L 304.745179 60.444878 
L 305.485757 53.069268 
L 305.542673 53.069268 
L 305.713621 51.84 
L 305.941486 51.84 
L 306.852946 61.059512 
L 306.909929 61.059512 
L 307.080811 62.28878 
L 307.137794 62.28878 
L 307.593523 66.59122 
L 307.650506 66.59122 
L 307.821455 69.049756 
L 308.334168 81.342439 
L 308.732982 94.249756 
L 309.815457 119.449756 
L 311.410846 168.005854 
L 312.037592 183.371707 
L 312.436472 193.205854 
L 313.405116 212.259512 
L 313.462099 212.259512 
L 313.690031 214.103415 
L 313.747014 214.103415 
L 314.601825 223.937561 
L 315.228637 235.61561 
L 315.399586 238.074146 
L 315.627585 241.147317 
L 315.741551 241.147317 
L 317.166259 255.898537 
L 317.223242 255.898537 
L 317.451241 258.971707 
L 317.736156 263.274146 
L 318.477068 270.649756 
L 318.534118 270.649756 
L 318.876083 273.722927 
L 318.933066 273.722927 
L 319.047031 274.337561 
L 319.388996 274.337561 
L 319.560012 276.181463 
L 319.616995 276.181463 
L 319.730961 276.796098 
L 319.95896 276.796098 
L 320.015943 277.410732 
L 320.129976 276.796098 
L 320.357974 276.796098 
L 320.414957 277.410732 
L 320.528923 276.796098 
L 321.041971 276.796098 
L 321.155937 277.410732 
L 321.21292 277.410732 
L 321.383935 278.64 
L 321.440918 278.64 
L 321.611934 279.869268 
L 322.238948 279.869268 
L 322.295931 279.254634 
L 322.352981 279.869268 
L 322.466946 279.254634 
L 322.523996 279.254634 
L 322.580979 278.64 
L 322.694945 279.254634 
L 322.808978 279.254634 
L 322.923011 278.64 
L 323.15101 278.64 
L 323.265043 279.254634 
L 323.322026 279.254634 
L 323.435992 279.869268 
L 323.835073 279.869268 
L 324.063072 281.713171 
L 324.120055 281.713171 
L 324.234088 282.327805 
L 324.690152 282.327805 
L 324.804185 282.942439 
L 324.861168 282.942439 
L 324.975201 283.557073 
L 325.146217 283.557073 
L 325.26025 284.171707 
L 325.317233 284.171707 
L 325.88733 289.703415 
L 326.115396 289.703415 
L 326.286412 290.932683 
L 326.628444 290.932683 
L 326.742476 290.318049 
L 326.913559 290.318049 
L 327.027592 289.703415 
L 327.141558 290.318049 
L 327.312641 290.318049 
L 327.426674 290.932683 
L 327.483657 290.932683 
L 327.711722 292.776585 
L 327.768705 292.776585 
L 327.996771 294.620488 
L 328.110804 294.620488 
L 328.224837 295.235122 
L 328.452903 295.235122 
L 328.566936 294.620488 
L 328.909034 294.620488 
L 329.023067 295.235122 
L 329.080117 295.235122 
L 329.19415 295.849756 
L 329.251133 295.849756 
L 329.365166 296.46439 
L 329.422216 296.46439 
L 329.593231 297.693659 
L 330.049363 297.693659 
L 330.220446 296.46439 
L 330.334479 296.46439 
L 330.448512 295.849756 
L 330.961693 295.849756 
L 331.132776 297.079024 
L 331.189826 297.079024 
L 331.417891 298.922927 
L 331.474874 298.922927 
L 331.645957 300.152195 
L 331.75999 300.152195 
L 331.87409 300.766829 
L 331.931073 300.766829 
L 332.444321 305.683902 
L 332.558354 305.683902 
L 332.672387 306.298537 
L 332.729437 306.298537 
L 333.014553 308.757073 
L 333.071603 308.757073 
L 334.554298 324.122927 
L 334.611281 324.122927 
L 334.839414 325.966829 
L 334.896463 325.966829 
L 335.124596 327.810732 
L 335.181579 327.810732 
L 335.409712 329.654634 
L 335.523812 329.654634 
L 335.751944 331.498537 
L 335.865977 331.498537 
L 335.98001 332.113171 
L 336.03706 332.113171 
L 336.265193 333.957073 
L 336.550375 333.957073 
L 336.664408 333.342439 
L 337.063691 333.342439 
L 337.177724 333.957073 
L 337.234774 333.957073 
L 337.405856 335.186341 
L 337.519956 335.186341 
L 337.748089 337.030244 
L 337.805139 337.030244 
L 337.919172 337.644878 
L 338.033272 337.644878 
L 338.147371 338.259512 
L 338.660687 338.259512 
L 338.88882 340.103415 
L 338.945869 340.103415 
L 339.059969 340.718049 
L 339.288102 340.718049 
L 339.402202 341.332683 
L 339.459252 341.332683 
L 339.630335 342.561951 
L 339.687384 342.561951 
L 339.801484 343.176585 
L 339.915517 343.176585 
L 340.086667 344.405854 
L 340.143717 344.405854 
L 340.257817 345.020488 
L 340.3148 345.020488 
L 340.4289 345.635122 
L 340.485949 345.635122 
L 340.600049 346.249756 
L 340.771132 346.249756 
L 340.885232 345.635122 
L 340.999332 345.635122 
L 341.170482 344.405854 
L 341.398614 344.405854 
L 341.455664 343.79122 
L 341.569764 344.405854 
L 341.683864 344.405854 
L 341.797964 345.020488 
L 341.969046 345.020488 
L 342.083146 344.405854 
L 342.425446 344.405854 
L 342.539546 345.020488 
L 342.596596 345.020488 
L 342.653646 344.405854 
L 342.767745 345.020488 
L 342.824795 344.405854 
L 342.938828 345.020488 
L 343.224078 345.020488 
L 343.338178 344.405854 
L 343.908677 344.405854 
L 344.022777 345.020488 
L 344.079827 345.020488 
L 344.193926 345.635122 
L 344.308026 345.635122 
L 344.422126 346.249756 
L 344.650326 346.249756 
L 344.707376 346.86439 
L 344.764426 346.249756 
L 344.821476 346.86439 
L 344.878525 346.249756 
L 344.992625 346.86439 
L 345.049675 346.86439 
L 345.163775 346.249756 
L 345.334925 346.249756 
L 345.449025 346.86439 
L 345.620241 346.86439 
L 345.734341 347.479024 
L 345.848441 347.479024 
L 345.962541 346.86439 
L 346.019591 346.86439 
L 346.190741 348.093659 
L 346.24779 348.093659 
L 346.36189 348.708293 
L 346.47599 348.708293 
L 346.590157 348.093659 
L 346.761307 348.093659 
L 346.818357 348.708293 
L 346.932456 348.093659 
L 347.445973 348.093659 
L 347.560073 347.479024 
L 348.073589 347.479024 
L 348.187689 348.093659 
L 348.644222 348.093659 
L 348.758322 348.708293 
L 348.986521 348.708293 
L 349.100688 349.322927 
L 349.214788 348.708293 
L 349.328888 348.708293 
L 349.443055 348.093659 
L 349.500105 348.093659 
L 349.614204 347.479024 
L 349.728371 348.093659 
L 349.899521 348.093659 
L 350.013621 347.479024 
L 350.070738 347.479024 
L 350.184838 346.86439 
L 350.241888 346.86439 
L 350.356054 347.479024 
L 350.413104 347.479024 
L 350.527204 348.093659 
L 350.584254 348.093659 
L 350.698421 348.708293 
L 350.869638 348.708293 
L 350.983737 348.093659 
L 351.497321 348.093659 
L 351.668537 346.86439 
L 351.896804 346.86439 
L 352.010904 346.249756 
L 352.18212 346.249756 
L 352.29622 345.635122 
L 352.695704 345.635122 
L 352.80987 345.020488 
L 352.981087 345.020488 
L 353.152304 343.79122 
L 353.266404 343.79122 
L 353.43762 342.561951 
L 353.551787 342.561951 
L 353.723004 341.332683 
L 353.951271 341.332683 
L 354.065437 340.718049 
L 354.179537 341.332683 
L 354.293704 340.718049 
L 354.407804 340.718049 
L 354.579021 339.48878 
L 354.693187 339.48878 
L 354.807354 338.874146 
L 355.035621 338.874146 
L 355.092738 339.48878 
L 355.149788 338.874146 
L 355.263954 339.48878 
L 355.321004 339.48878 
L 355.492221 340.718049 
L 355.663438 340.718049 
L 355.834655 339.48878 
L 355.891771 339.48878 
L 356.177155 337.030244 
L 356.234205 337.030244 
L 356.519588 334.571707 
L 356.633755 334.571707 
L 356.747922 333.957073 
L 356.804972 333.957073 
L 356.919139 333.342439 
L 356.976189 333.342439 
L 357.147405 332.113171 
L 357.204522 332.113171 
L 360.344009 298.922927 
L 360.401059 298.922927 
L 360.686509 296.46439 
L 360.743626 296.46439 
L 360.97196 293.39122 
L 361.599911 287.244878 
L 361.65696 287.244878 
L 361.999528 284.171707 
L 362.056578 284.171707 
L 362.627479 273.722927 
L 362.912929 270.035122 
L 363.084213 268.19122 
L 363.598064 262.044878 
L 364.054798 254.054634 
L 364.111848 253.44 
L 364.397365 247.293659 
L 365.253784 230.698537 
L 365.310834 230.083902 
L 365.539234 225.781463 
L 365.767635 222.708293 
L 367.366372 187.059512 
L 367.651889 178.454634 
L 368.222924 164.318049 
L 368.508442 158.171707 
L 368.908126 147.722927 
L 369.193643 140.961951 
L 369.307877 139.118049 
L 369.536278 136.044878 
L 369.936029 131.127805 
L 371.535034 98.552195 
L 371.59215 98.552195 
L 372.049019 93.020488 
L 372.791471 78.269268 
L 372.848588 78.269268 
L 373.476807 72.122927 
L 373.533924 72.122927 
L 373.876625 67.820488 
L 374.105092 64.747317 
L 374.276443 63.518049 
L 374.562027 63.518049 
L 374.676261 64.132683 
L 374.733378 64.132683 
L 374.904729 65.976585 
L 375.018962 65.976585 
L 375.24743 67.820488 
L 375.304547 67.820488 
L 375.475897 69.049756 
L 375.590131 69.049756 
L 375.647248 69.66439 
L 375.761482 69.049756 
L 375.818599 69.049756 
L 375.932832 69.66439 
L 375.989949 69.66439 
L 376.1613 71.508293 
L 376.389768 73.352195 
L 376.446884 73.352195 
L 376.561118 73.966829 
L 376.789653 72.122927 
L 376.84677 72.122927 
L 376.961003 71.508293 
L 377.01812 71.508293 
L 377.132354 70.893659 
L 377.189471 70.893659 
L 377.303705 70.279024 
L 377.760707 74.581463 
L 377.817823 74.581463 
L 378.103408 78.883902 
L 378.731827 85.030244 
L 378.788944 85.030244 
L 379.074529 88.718049 
L 379.645831 104.083902 
L 380.217067 118.220488 
L 380.78837 138.503415 
L 382.273811 183.986341 
L 382.502345 187.059512 
L 383.359366 204.269268 
L 383.4736 204.269268 
L 383.816435 208.571707 
L 384.102086 212.874146 
L 384.15927 212.874146 
L 384.387805 215.947317 
L 385.073475 223.937561 
L 385.30201 227.010732 
L 385.530544 230.083902 
L 385.930563 236.844878 
L 386.730534 246.06439 
L 387.18767 254.054634 
L 387.301971 254.669268 
L 387.416272 254.669268 
L 387.530505 255.283902 
L 387.759107 255.283902 
L 388.787746 265.732683 
L 388.787746 265.732683 
" clip-path="url(#p2259db7ce0)" style="fill: none; stroke: #8286ff; stroke-width: 1.5; stroke-linecap: square"/>
   </g>
   <g id="line2d_14">
    <defs>
     <path id="mb2155c0180" d="M -3 3 
L 3 -3 
M -3 -3 
L 3 3 
" style="stroke: #ff0000"/>
    </defs>
    <g clip-path="url(#p2259db7ce0)">
     <use xlink:href="#mb2155c0180" x="95.224794" y="80.727805" style="fill: #ff0000; stroke: #ff0000"/>
     <use xlink:href="#mb2155c0180" x="163.63026" y="71.508293" style="fill: #ff0000; stroke: #ff0000"/>
     <use xlink:href="#mb2155c0180" x="233.637476" y="62.903415" style="fill: #ff0000; stroke: #ff0000"/>
     <use xlink:href="#mb2155c0180" x="305.82752" y="51.84" style="fill: #ff0000; stroke: #ff0000"/>
     <use xlink:href="#mb2155c0180" x="374.390677" y="63.518049" style="fill: #ff0000; stroke: #ff0000"/>
    </g>
   </g>
   <g id="patch_3">
    <path d="M 54 384.48 
L 54 51.84 
" style="fill: none; stroke: #000000; stroke-width: 0.5; stroke-linejoin: miter; stroke-linecap: square"/>
   </g>
   <g id="patch_4">
    <path d="M 54 384.48 
L 388.8 384.48 
" style="fill: none; stroke: #000000; stroke-width: 0.5; stroke-linejoin: miter; stroke-linecap: square"/>
   </g>
   <g id="text_15">
    <!-- 19561.57 -->
    <g transform="translate(95.224794 74.679805) scale(0.08 -0.08)">
     <use xlink:href="#Helvetica-31"/>
     <use xlink:href="#Helvetica-39" x="55.615234"/>
     <use xlink:href="#Helvetica-35" x="111.230469"/>
     <use xlink:href="#Helvetica-36" x="166.845703"/>
     <use xlink:href="#Helvetica-31" x="222.460938"/>
     <use xlink:href="#Helvetica-2e" x="278.076172"/>
     <use xlink:href="#Helvetica-35" x="305.859375"/>
     <use xlink:href="#Helvetica-37" x="361.474609"/>
    </g>
   </g>
   <g id="text_16">
    <!-- 19663.72 -->
    <g transform="translate(163.63026 65.460293) scale(0.08 -0.08)">
     <defs>
      <path id="Helvetica-33" d="M 1663 -122 
Q 869 -122 511 314 
Q 153 750 153 1375 
L 741 1375 
Q 778 941 903 744 
Q 1122 391 1694 391 
Q 2138 391 2406 628 
Q 2675 866 2675 1241 
Q 2675 1703 2392 1887 
Q 2109 2072 1606 2072 
Q 1550 2072 1492 2070 
Q 1434 2069 1375 2066 
L 1375 2563 
Q 1463 2553 1522 2550 
Q 1581 2547 1650 2547 
Q 1966 2547 2169 2647 
Q 2525 2822 2525 3272 
Q 2525 3606 2287 3787 
Q 2050 3969 1734 3969 
Q 1172 3969 956 3594 
Q 838 3388 822 3006 
L 266 3006 
Q 266 3506 466 3856 
Q 809 4481 1675 4481 
Q 2359 4481 2734 4176 
Q 3109 3872 3109 3294 
Q 3109 2881 2888 2625 
Q 2750 2466 2531 2375 
Q 2884 2278 3082 2001 
Q 3281 1725 3281 1325 
Q 3281 684 2859 281 
Q 2438 -122 1663 -122 
z
" transform="scale(0.015625)"/>
     </defs>
     <use xlink:href="#Helvetica-31"/>
     <use xlink:href="#Helvetica-39" x="55.615234"/>
     <use xlink:href="#Helvetica-36" x="111.230469"/>
     <use xlink:href="#Helvetica-36" x="166.845703"/>
     <use xlink:href="#Helvetica-33" x="222.460938"/>
     <use xlink:href="#Helvetica-2e" x="278.076172"/>
     <use xlink:href="#Helvetica-37" x="305.859375"/>
     <use xlink:href="#Helvetica-32" x="361.474609"/>
    </g>
   </g>
   <g id="text_17">
    <!-- 19768.28 -->
    <g transform="translate(233.637476 56.855415) scale(0.08 -0.08)">
     <use xlink:href="#Helvetica-31"/>
     <use xlink:href="#Helvetica-39" x="55.615234"/>
     <use xlink:href="#Helvetica-37" x="111.230469"/>
     <use xlink:href="#Helvetica-36" x="166.845703"/>
     <use xlink:href="#Helvetica-38" x="222.460938"/>
     <use xlink:href="#Helvetica-2e" x="278.076172"/>
     <use xlink:href="#Helvetica-32" x="305.859375"/>
     <use xlink:href="#Helvetica-38" x="361.474609"/>
    </g>
   </g>
   <g id="text_18">
    <!-- 19876.09 -->
    <g transform="translate(305.82752 45.792) scale(0.08 -0.08)">
     <use xlink:href="#Helvetica-31"/>
     <use xlink:href="#Helvetica-39" x="55.615234"/>
     <use xlink:href="#Helvetica-38" x="111.230469"/>
     <use xlink:href="#Helvetica-37" x="166.845703"/>
     <use xlink:href="#Helvetica-36" x="222.460938"/>
     <use xlink:href="#Helvetica-2e" x="278.076172"/>
     <use xlink:href="#Helvetica-30" x="305.859375"/>
     <use xlink:href="#Helvetica-39" x="361.474609"/>
    </g>
   </g>
   <g id="text_19">
    <!-- 19978.48 -->
    <g transform="translate(374.390677 57.470049) scale(0.08 -0.08)">
     <use xlink:href="#Helvetica-31"/>
     <use xlink:href="#Helvetica-39" x="55.615234"/>
     <use xlink:href="#Helvetica-39" x="111.230469"/>
     <use xlink:href="#Helvetica-37" x="166.845703"/>
     <use xlink:href="#Helvetica-38" x="222.460938"/>
     <use xlink:href="#Helvetica-2e" x="278.076172"/>
     <use xlink:href="#Helvetica-34" x="305.859375"/>
     <use xlink:href="#Helvetica-38" x="361.474609"/>
    </g>
   </g>
   <g id="text_20">
    <!-- PS-F2-20K_MALDI -->
    <g transform="translate(152.93375 31.84) scale(0.16 -0.16)">
     <defs>
      <path id="Helvetica-50" d="M 547 4591 
L 2613 4591 
Q 3225 4591 3600 4245 
Q 3975 3900 3975 3275 
Q 3975 2738 3640 2339 
Q 3306 1941 2613 1941 
L 1169 1941 
L 1169 0 
L 547 0 
L 547 4591 
z
M 3347 3272 
Q 3347 3778 2972 3959 
Q 2766 4056 2406 4056 
L 1169 4056 
L 1169 2466 
L 2406 2466 
Q 2825 2466 3086 2644 
Q 3347 2822 3347 3272 
z
" transform="scale(0.015625)"/>
      <path id="Helvetica-53" d="M 894 1481 
Q 916 1091 1078 847 
Q 1388 391 2169 391 
Q 2519 391 2806 491 
Q 3363 684 3363 1184 
Q 3363 1559 3128 1719 
Q 2891 1875 2384 1991 
L 1763 2131 
Q 1153 2269 900 2434 
Q 463 2722 463 3294 
Q 463 3913 891 4309 
Q 1319 4706 2103 4706 
Q 2825 4706 3329 4357 
Q 3834 4009 3834 3244 
L 3250 3244 
Q 3203 3613 3050 3809 
Q 2766 4169 2084 4169 
Q 1534 4169 1293 3937 
Q 1053 3706 1053 3400 
Q 1053 3063 1334 2906 
Q 1519 2806 2169 2656 
L 2813 2509 
Q 3278 2403 3531 2219 
Q 3969 1897 3969 1284 
Q 3969 522 3414 194 
Q 2859 -134 2125 -134 
Q 1269 -134 784 303 
Q 300 738 309 1481 
L 894 1481 
z
M 2150 4716 
L 2150 4716 
z
" transform="scale(0.015625)"/>
      <path id="Helvetica-2d" d="M 266 2072 
L 1834 2072 
L 1834 1494 
L 266 1494 
L 266 2072 
z
" transform="scale(0.015625)"/>
      <path id="Helvetica-46" d="M 547 4591 
L 3731 4591 
L 3731 4028 
L 1169 4028 
L 1169 2634 
L 3422 2634 
L 3422 2088 
L 1169 2088 
L 1169 0 
L 547 0 
L 547 4591 
z
" transform="scale(0.015625)"/>
      <path id="Helvetica-4b" d="M 488 4591 
L 1094 4591 
L 1094 2353 
L 3331 4591 
L 4191 4591 
L 2281 2741 
L 4244 0 
L 3434 0 
L 1828 2303 
L 1094 1600 
L 1094 0 
L 488 0 
L 488 4591 
z
" transform="scale(0.015625)"/>
      <path id="Helvetica-5f" d="M 0 -800 
L 0 -484 
L 3559 -484 
L 3559 -800 
L 0 -800 
z
" transform="scale(0.015625)"/>
      <path id="Helvetica-4d" d="M 472 4591 
L 1363 4591 
L 2681 709 
L 3991 4591 
L 4872 4591 
L 4872 0 
L 4281 0 
L 4281 2709 
Q 4281 2850 4287 3175 
Q 4294 3500 4294 3872 
L 2984 0 
L 2369 0 
L 1050 3872 
L 1050 3731 
Q 1050 3563 1058 3217 
Q 1066 2872 1066 2709 
L 1066 0 
L 472 0 
L 472 4591 
z
" transform="scale(0.015625)"/>
      <path id="Helvetica-41" d="M 2844 1881 
L 2147 3909 
L 1406 1881 
L 2844 1881 
z
M 1822 4591 
L 2525 4591 
L 4191 0 
L 3509 0 
L 3044 1375 
L 1228 1375 
L 731 0 
L 94 0 
L 1822 4591 
z
" transform="scale(0.015625)"/>
      <path id="Helvetica-4c" d="M 488 4591 
L 1109 4591 
L 1109 547 
L 3434 547 
L 3434 0 
L 488 0 
L 488 4591 
z
" transform="scale(0.015625)"/>
      <path id="Helvetica-44" d="M 2250 531 
Q 2566 531 2769 597 
Q 3131 719 3363 1066 
Q 3547 1344 3628 1778 
Q 3675 2038 3675 2259 
Q 3675 3113 3336 3584 
Q 2997 4056 2244 4056 
L 1141 4056 
L 1141 531 
L 2250 531 
z
M 516 4591 
L 2375 4591 
Q 3322 4591 3844 3919 
Q 4309 3313 4309 2366 
Q 4309 1634 4034 1044 
Q 3550 0 2369 0 
L 516 0 
L 516 4591 
z
" transform="scale(0.015625)"/>
     </defs>
     <use xlink:href="#Helvetica-50"/>
     <use xlink:href="#Helvetica-53" x="66.699219"/>
     <use xlink:href="#Helvetica-2d" x="133.398438"/>
     <use xlink:href="#Helvetica-46" x="166.699219"/>
     <use xlink:href="#Helvetica-32" x="227.783203"/>
     <use xlink:href="#Helvetica-2d" x="283.398438"/>
     <use xlink:href="#Helvetica-32" x="316.699219"/>
     <use xlink:href="#Helvetica-30" x="372.314453"/>
     <use xlink:href="#Helvetica-4b" x="427.929688"/>
     <use xlink:href="#Helvetica-5f" x="494.628906"/>
     <use xlink:href="#Helvetica-4d" x="550.244141"/>
     <use xlink:href="#Helvetica-41" x="633.544922"/>
     <use xlink:href="#Helvetica-4c" x="700.244141"/>
     <use xlink:href="#Helvetica-44" x="755.859375"/>
     <use xlink:href="#Helvetica-49" x="828.076172"/>
    </g>
   </g>
   <g id="legend_1">
    <g id="patch_5">
     <path d="M 59.6 69.64625 
L 124.76875 69.64625 
Q 126.36875 69.64625 126.36875 68.04625 
L 126.36875 57.44 
Q 126.36875 55.84 124.76875 55.84 
L 59.6 55.84 
Q 58 55.84 58 57.44 
L 58 68.04625 
Q 58 69.64625 59.6 69.64625 
z
" style="fill: #ffffff; opacity: 0.8; stroke: #cccccc; stroke-linejoin: miter"/>
    </g>
    <g id="line2d_15">
     <path d="M 61.2 61.97875 
L 69.2 61.97875 
L 77.2 61.97875 
" style="fill: none; stroke: #8286ff; stroke-width: 1.5; stroke-linecap: square"/>
    </g>
    <g id="text_21">
     <!-- PS-F2-20K -->
     <g transform="translate(83.6 64.77875) scale(0.08 -0.08)">
      <use xlink:href="#Helvetica-50"/>
      <use xlink:href="#Helvetica-53" x="66.699219"/>
      <use xlink:href="#Helvetica-2d" x="133.398438"/>
      <use xlink:href="#Helvetica-46" x="166.699219"/>
      <use xlink:href="#Helvetica-32" x="227.783203"/>
      <use xlink:href="#Helvetica-2d" x="283.398438"/>
      <use xlink:href="#Helvetica-32" x="316.699219"/>
      <use xlink:href="#Helvetica-30" x="372.314453"/>
      <use xlink:href="#Helvetica-4b" x="427.929688"/>
     </g>
    </g>
   </g>
  </g>
 </g>
 <defs>
  <clipPath id="p2259db7ce0">
   <rect x="54" y="51.84" width="334.8" height="332.64"/>
  </clipPath>
 </defs>
</svg>
