<?xml version="1.0" encoding="utf-8" standalone="no"?>
<!DOCTYPE svg PUBLIC "-//W3C//DTD SVG 1.1//EN"
  "http://www.w3.org/Graphics/SVG/1.1/DTD/svg11.dtd">
<svg xmlns:xlink="http://www.w3.org/1999/xlink" width="432pt" height="432pt" viewBox="0 0 432 432" xmlns="http://www.w3.org/2000/svg" version="1.1">
 <metadata>
  <rdf:RDF xmlns:dc="http://purl.org/dc/elements/1.1/" xmlns:cc="http://creativecommons.org/ns#" xmlns:rdf="http://www.w3.org/1999/02/22-rdf-syntax-ns#">
   <cc:Work>
    <dc:type rdf:resource="http://purl.org/dc/dcmitype/StillImage"/>
    <dc:date>2024-07-16T23:55:18.253422</dc:date>
    <dc:format>image/svg+xml</dc:format>
    <dc:creator>
     <cc:Agent>
      <dc:title>Matplotlib v3.7.1, https://matplotlib.org/</dc:title>
     </cc:Agent>
    </dc:creator>
   </cc:Work>
  </rdf:RDF>
 </metadata>
 <defs>
  <style type="text/css">*{stroke-linejoin: round; stroke-linecap: butt}</style>
 </defs>
 <g id="figure_1">
  <g id="patch_1">
   <path d="M 0 432 
L 432 432 
L 432 0 
L 0 0 
z
" style="fill: #ffffff"/>
  </g>
  <g id="axes_1">
   <g id="patch_2">
    <path d="M 54 184.896 
L 388.8 184.896 
L 388.8 51.84 
L 54 51.84 
z
" style="fill: #ffffff"/>
   </g>
   <g id="matplotlib.axis_1">
    <g id="xtick_1">
     <g id="line2d_1">
      <defs>
       <path id="m44941b19b2" d="M 0 0 
L 0 -3.5 
" style="stroke: #000000; stroke-width: 0.8"/>
      </defs>
      <g>
       <use xlink:href="#m44941b19b2" x="54" y="184.896" style="stroke: #000000; stroke-width: 0.8"/>
      </g>
     </g>
     <g id="text_1">
      <!-- 200 -->
      <g transform="translate(43.990313 197.004125) scale(0.12 -0.12)">
       <defs>
        <path id="Helvetica-32" d="M 200 0 
Q 231 578 439 1006 
Q 647 1434 1250 1784 
L 1850 2131 
Q 2253 2366 2416 2531 
Q 2672 2791 2672 3125 
Q 2672 3516 2437 3745 
Q 2203 3975 1813 3975 
Q 1234 3975 1013 3538 
Q 894 3303 881 2888 
L 309 2888 
Q 319 3472 525 3841 
Q 891 4491 1816 4491 
Q 2584 4491 2939 4075 
Q 3294 3659 3294 3150 
Q 3294 2613 2916 2231 
Q 2697 2009 2131 1694 
L 1703 1456 
Q 1397 1288 1222 1134 
Q 909 863 828 531 
L 3272 531 
L 3272 0 
L 200 0 
z
" transform="scale(0.015625)"/>
        <path id="Helvetica-30" d="M 1731 4475 
Q 2600 4475 2988 3759 
Q 3288 3206 3288 2244 
Q 3288 1331 3016 734 
Q 2622 -122 1728 -122 
Q 922 -122 528 578 
Q 200 1163 200 2147 
Q 200 2909 397 3456 
Q 766 4475 1731 4475 
z
M 1725 391 
Q 2163 391 2422 778 
Q 2681 1166 2681 2222 
Q 2681 2984 2493 3476 
Q 2306 3969 1766 3969 
Q 1269 3969 1039 3501 
Q 809 3034 809 2125 
Q 809 1441 956 1025 
Q 1181 391 1725 391 
z
" transform="scale(0.015625)"/>
       </defs>
       <use xlink:href="#Helvetica-32"/>
       <use xlink:href="#Helvetica-30" x="55.615234"/>
       <use xlink:href="#Helvetica-30" x="111.230469"/>
      </g>
     </g>
    </g>
    <g id="xtick_2">
     <g id="line2d_2">
      <g>
       <use xlink:href="#m44941b19b2" x="95.85" y="184.896" style="stroke: #000000; stroke-width: 0.8"/>
      </g>
     </g>
     <g id="text_2">
      <!-- 225 -->
      <g transform="translate(85.840313 197.004125) scale(0.12 -0.12)">
       <defs>
        <path id="Helvetica-35" d="M 791 1141 
Q 847 659 1238 475 
Q 1438 381 1700 381 
Q 2200 381 2440 700 
Q 2681 1019 2681 1406 
Q 2681 1875 2395 2131 
Q 2109 2388 1709 2388 
Q 1419 2388 1211 2275 
Q 1003 2163 856 1963 
L 369 1991 
L 709 4400 
L 3034 4400 
L 3034 3856 
L 1131 3856 
L 941 2613 
Q 1097 2731 1238 2791 
Q 1488 2894 1816 2894 
Q 2431 2894 2859 2497 
Q 3288 2100 3288 1491 
Q 3288 856 2895 371 
Q 2503 -113 1644 -113 
Q 1097 -113 676 195 
Q 256 503 206 1141 
L 791 1141 
z
" transform="scale(0.015625)"/>
       </defs>
       <use xlink:href="#Helvetica-32"/>
       <use xlink:href="#Helvetica-32" x="55.615234"/>
       <use xlink:href="#Helvetica-35" x="111.230469"/>
      </g>
     </g>
    </g>
    <g id="xtick_3">
     <g id="line2d_3">
      <g>
       <use xlink:href="#m44941b19b2" x="137.7" y="184.896" style="stroke: #000000; stroke-width: 0.8"/>
      </g>
     </g>
     <g id="text_3">
      <!-- 250 -->
      <g transform="translate(127.690313 197.004125) scale(0.12 -0.12)">
       <use xlink:href="#Helvetica-32"/>
       <use xlink:href="#Helvetica-35" x="55.615234"/>
       <use xlink:href="#Helvetica-30" x="111.230469"/>
      </g>
     </g>
    </g>
    <g id="xtick_4">
     <g id="line2d_4">
      <g>
       <use xlink:href="#m44941b19b2" x="179.55" y="184.896" style="stroke: #000000; stroke-width: 0.8"/>
      </g>
     </g>
     <g id="text_4">
      <!-- 275 -->
      <g transform="translate(169.540312 197.004125) scale(0.12 -0.12)">
       <defs>
        <path id="Helvetica-37" d="M 3347 4400 
L 3347 3909 
Q 3131 3700 2773 3181 
Q 2416 2663 2141 2063 
Q 1869 1478 1728 997 
Q 1638 688 1494 0 
L 872 0 
Q 1084 1281 1809 2550 
Q 2238 3294 2709 3834 
L 234 3834 
L 234 4400 
L 3347 4400 
z
" transform="scale(0.015625)"/>
       </defs>
       <use xlink:href="#Helvetica-32"/>
       <use xlink:href="#Helvetica-37" x="55.615234"/>
       <use xlink:href="#Helvetica-35" x="111.230469"/>
      </g>
     </g>
    </g>
    <g id="xtick_5">
     <g id="line2d_5">
      <g>
       <use xlink:href="#m44941b19b2" x="221.4" y="184.896" style="stroke: #000000; stroke-width: 0.8"/>
      </g>
     </g>
     <g id="text_5">
      <!-- 300 -->
      <g transform="translate(211.390313 197.004125) scale(0.12 -0.12)">
       <defs>
        <path id="Helvetica-33" d="M 1663 -122 
Q 869 -122 511 314 
Q 153 750 153 1375 
L 741 1375 
Q 778 941 903 744 
Q 1122 391 1694 391 
Q 2138 391 2406 628 
Q 2675 866 2675 1241 
Q 2675 1703 2392 1887 
Q 2109 2072 1606 2072 
Q 1550 2072 1492 2070 
Q 1434 2069 1375 2066 
L 1375 2563 
Q 1463 2553 1522 2550 
Q 1581 2547 1650 2547 
Q 1966 2547 2169 2647 
Q 2525 2822 2525 3272 
Q 2525 3606 2287 3787 
Q 2050 3969 1734 3969 
Q 1172 3969 956 3594 
Q 838 3388 822 3006 
L 266 3006 
Q 266 3506 466 3856 
Q 809 4481 1675 4481 
Q 2359 4481 2734 4176 
Q 3109 3872 3109 3294 
Q 3109 2881 2888 2625 
Q 2750 2466 2531 2375 
Q 2884 2278 3082 2001 
Q 3281 1725 3281 1325 
Q 3281 684 2859 281 
Q 2438 -122 1663 -122 
z
" transform="scale(0.015625)"/>
       </defs>
       <use xlink:href="#Helvetica-33"/>
       <use xlink:href="#Helvetica-30" x="55.615234"/>
       <use xlink:href="#Helvetica-30" x="111.230469"/>
      </g>
     </g>
    </g>
    <g id="xtick_6">
     <g id="line2d_6">
      <g>
       <use xlink:href="#m44941b19b2" x="263.25" y="184.896" style="stroke: #000000; stroke-width: 0.8"/>
      </g>
     </g>
     <g id="text_6">
      <!-- 325 -->
      <g transform="translate(253.240313 197.004125) scale(0.12 -0.12)">
       <use xlink:href="#Helvetica-33"/>
       <use xlink:href="#Helvetica-32" x="55.615234"/>
       <use xlink:href="#Helvetica-35" x="111.230469"/>
      </g>
     </g>
    </g>
    <g id="xtick_7">
     <g id="line2d_7">
      <g>
       <use xlink:href="#m44941b19b2" x="305.1" y="184.896" style="stroke: #000000; stroke-width: 0.8"/>
      </g>
     </g>
     <g id="text_7">
      <!-- 350 -->
      <g transform="translate(295.090313 197.004125) scale(0.12 -0.12)">
       <use xlink:href="#Helvetica-33"/>
       <use xlink:href="#Helvetica-35" x="55.615234"/>
       <use xlink:href="#Helvetica-30" x="111.230469"/>
      </g>
     </g>
    </g>
    <g id="xtick_8">
     <g id="line2d_8">
      <g>
       <use xlink:href="#m44941b19b2" x="346.95" y="184.896" style="stroke: #000000; stroke-width: 0.8"/>
      </g>
     </g>
     <g id="text_8">
      <!-- 375 -->
      <g transform="translate(336.940313 197.004125) scale(0.12 -0.12)">
       <use xlink:href="#Helvetica-33"/>
       <use xlink:href="#Helvetica-37" x="55.615234"/>
       <use xlink:href="#Helvetica-35" x="111.230469"/>
      </g>
     </g>
    </g>
    <g id="xtick_9">
     <g id="line2d_9">
      <g>
       <use xlink:href="#m44941b19b2" x="388.8" y="184.896" style="stroke: #000000; stroke-width: 0.8"/>
      </g>
     </g>
     <g id="text_9">
      <!-- 400 -->
      <g transform="translate(378.790313 197.004125) scale(0.12 -0.12)">
       <defs>
        <path id="Helvetica-34" d="M 2116 1584 
L 2116 3613 
L 681 1584 
L 2116 1584 
z
M 2125 0 
L 2125 1094 
L 163 1094 
L 163 1644 
L 2213 4488 
L 2688 4488 
L 2688 1584 
L 3347 1584 
L 3347 1094 
L 2688 1094 
L 2688 0 
L 2125 0 
z
" transform="scale(0.015625)"/>
       </defs>
       <use xlink:href="#Helvetica-34"/>
       <use xlink:href="#Helvetica-30" x="55.615234"/>
       <use xlink:href="#Helvetica-30" x="111.230469"/>
      </g>
     </g>
    </g>
    <g id="text_10">
     <!-- Temp (oC) -->
     <g transform="translate(192.732188 212.347875) scale(0.12 -0.12)">
      <defs>
       <path id="Helvetica-54" d="M 3828 4591 
L 3828 4044 
L 2281 4044 
L 2281 0 
L 1650 0 
L 1650 4044 
L 103 4044 
L 103 4591 
L 3828 4591 
z
" transform="scale(0.015625)"/>
       <path id="Helvetica-65" d="M 1806 3422 
Q 2163 3422 2497 3255 
Q 2831 3088 3006 2822 
Q 3175 2569 3231 2231 
Q 3281 2000 3281 1494 
L 828 1494 
Q 844 984 1069 676 
Q 1294 369 1766 369 
Q 2206 369 2469 659 
Q 2619 828 2681 1050 
L 3234 1050 
Q 3213 866 3089 639 
Q 2966 413 2813 269 
Q 2556 19 2178 -69 
Q 1975 -119 1719 -119 
Q 1094 -119 659 336 
Q 225 791 225 1609 
Q 225 2416 662 2919 
Q 1100 3422 1806 3422 
z
M 2703 1941 
Q 2669 2306 2544 2525 
Q 2313 2931 1772 2931 
Q 1384 2931 1121 2651 
Q 859 2372 844 1941 
L 2703 1941 
z
M 1753 3428 
L 1753 3428 
z
" transform="scale(0.015625)"/>
       <path id="Helvetica-6d" d="M 413 3347 
L 969 3347 
L 969 2872 
Q 1169 3119 1331 3231 
Q 1609 3422 1963 3422 
Q 2363 3422 2606 3225 
Q 2744 3113 2856 2894 
Q 3044 3163 3297 3292 
Q 3550 3422 3866 3422 
Q 4541 3422 4784 2934 
Q 4916 2672 4916 2228 
L 4916 0 
L 4331 0 
L 4331 2325 
Q 4331 2659 4164 2784 
Q 3997 2909 3756 2909 
Q 3425 2909 3186 2687 
Q 2947 2466 2947 1947 
L 2947 0 
L 2375 0 
L 2375 2184 
Q 2375 2525 2294 2681 
Q 2166 2916 1816 2916 
Q 1497 2916 1236 2669 
Q 975 2422 975 1775 
L 975 0 
L 413 0 
L 413 3347 
z
" transform="scale(0.015625)"/>
       <path id="Helvetica-70" d="M 1825 378 
Q 2219 378 2480 708 
Q 2741 1038 2741 1694 
Q 2741 2094 2625 2381 
Q 2406 2934 1825 2934 
Q 1241 2934 1025 2350 
Q 909 2038 909 1556 
Q 909 1169 1025 897 
Q 1244 378 1825 378 
z
M 369 3331 
L 916 3331 
L 916 2888 
Q 1084 3116 1284 3241 
Q 1569 3428 1953 3428 
Q 2522 3428 2919 2992 
Q 3316 2556 3316 1747 
Q 3316 653 2744 184 
Q 2381 -113 1900 -113 
Q 1522 -113 1266 53 
Q 1116 147 931 375 
L 931 -1334 
L 369 -1334 
L 369 3331 
z
" transform="scale(0.015625)"/>
       <path id="Helvetica-20" transform="scale(0.015625)"/>
       <path id="Helvetica-28" d="M 1894 4666 
Q 1403 3713 1256 3263 
Q 1034 2578 1034 1681 
Q 1034 775 1288 25 
Q 1444 -438 1903 -1306 
L 1525 -1306 
Q 1069 -594 959 -397 
Q 850 -200 722 138 
Q 547 600 478 1125 
Q 444 1397 444 1644 
Q 444 2569 734 3291 
Q 919 3750 1503 4666 
L 1894 4666 
z
" transform="scale(0.015625)"/>
       <path id="Helvetica-6f" d="M 1741 363 
Q 2300 363 2508 786 
Q 2716 1209 2716 1728 
Q 2716 2197 2566 2491 
Q 2328 2953 1747 2953 
Q 1231 2953 997 2559 
Q 763 2166 763 1609 
Q 763 1075 997 719 
Q 1231 363 1741 363 
z
M 1763 3444 
Q 2409 3444 2856 3012 
Q 3303 2581 3303 1744 
Q 3303 934 2909 406 
Q 2516 -122 1688 -122 
Q 997 -122 590 345 
Q 184 813 184 1600 
Q 184 2444 612 2944 
Q 1041 3444 1763 3444 
z
M 1744 3428 
L 1744 3428 
z
" transform="scale(0.015625)"/>
       <path id="Helvetica-43" d="M 2422 4716 
Q 3294 4716 3775 4256 
Q 4256 3797 4309 3213 
L 3703 3213 
Q 3600 3656 3292 3915 
Q 2984 4175 2428 4175 
Q 1750 4175 1333 3698 
Q 916 3222 916 2238 
Q 916 1431 1292 929 
Q 1669 428 2416 428 
Q 3103 428 3463 956 
Q 3653 1234 3747 1688 
L 4353 1688 
Q 4272 963 3816 472 
Q 3269 -119 2341 -119 
Q 1541 -119 997 366 
Q 281 1006 281 2344 
Q 281 3359 819 4009 
Q 1400 4716 2422 4716 
z
M 2297 4716 
L 2297 4716 
z
" transform="scale(0.015625)"/>
       <path id="Helvetica-29" d="M 222 -1306 
Q 719 -338 863 106 
Q 1081 778 1081 1681 
Q 1081 2584 828 3334 
Q 672 3797 213 4666 
L 591 4666 
Q 1072 3897 1173 3717 
Q 1275 3538 1394 3222 
Q 1544 2831 1608 2450 
Q 1672 2069 1672 1716 
Q 1672 791 1378 66 
Q 1194 -400 613 -1306 
L 222 -1306 
z
" transform="scale(0.015625)"/>
      </defs>
      <use xlink:href="#Helvetica-54"/>
      <use xlink:href="#Helvetica-65" x="61.083984"/>
      <use xlink:href="#Helvetica-6d" x="116.699219"/>
      <use xlink:href="#Helvetica-70" x="200"/>
      <use xlink:href="#Helvetica-20" x="255.615234"/>
      <use xlink:href="#Helvetica-28" x="283.398438"/>
      <use xlink:href="#Helvetica-6f" x="316.699219"/>
      <use xlink:href="#Helvetica-43" x="372.314453"/>
      <use xlink:href="#Helvetica-29" x="444.53125"/>
     </g>
    </g>
   </g>
   <g id="matplotlib.axis_2">
    <g id="ytick_1">
     <g id="line2d_10">
      <defs>
       <path id="m38857b3f25" d="M 0 0 
L 3.5 0 
" style="stroke: #000000; stroke-width: 0.8"/>
      </defs>
      <g>
       <use xlink:href="#m38857b3f25" x="54" y="184.173617" style="stroke: #000000; stroke-width: 0.8"/>
      </g>
     </g>
     <g id="text_11">
      <!-- 0 -->
      <g transform="translate(43.826875 188.477679) scale(0.12 -0.12)">
       <use xlink:href="#Helvetica-30"/>
      </g>
     </g>
    </g>
    <g id="ytick_2">
     <g id="line2d_11">
      <g>
       <use xlink:href="#m38857b3f25" x="54" y="152.92682" style="stroke: #000000; stroke-width: 0.8"/>
      </g>
     </g>
     <g id="text_12">
      <!-- 25 -->
      <g transform="translate(37.15375 157.230882) scale(0.12 -0.12)">
       <use xlink:href="#Helvetica-32"/>
       <use xlink:href="#Helvetica-35" x="55.615234"/>
      </g>
     </g>
    </g>
    <g id="ytick_3">
     <g id="line2d_12">
      <g>
       <use xlink:href="#m38857b3f25" x="54" y="121.680023" style="stroke: #000000; stroke-width: 0.8"/>
      </g>
     </g>
     <g id="text_13">
      <!-- 50 -->
      <g transform="translate(37.15375 125.984085) scale(0.12 -0.12)">
       <use xlink:href="#Helvetica-35"/>
       <use xlink:href="#Helvetica-30" x="55.615234"/>
      </g>
     </g>
    </g>
    <g id="ytick_4">
     <g id="line2d_13">
      <g>
       <use xlink:href="#m38857b3f25" x="54" y="90.433226" style="stroke: #000000; stroke-width: 0.8"/>
      </g>
     </g>
     <g id="text_14">
      <!-- 75 -->
      <g transform="translate(37.15375 94.737289) scale(0.12 -0.12)">
       <use xlink:href="#Helvetica-37"/>
       <use xlink:href="#Helvetica-35" x="55.615234"/>
      </g>
     </g>
    </g>
    <g id="ytick_5">
     <g id="line2d_14">
      <g>
       <use xlink:href="#m38857b3f25" x="54" y="59.186429" style="stroke: #000000; stroke-width: 0.8"/>
      </g>
     </g>
     <g id="text_15">
      <!-- 100 -->
      <g transform="translate(30.480625 63.490492) scale(0.12 -0.12)">
       <defs>
        <path id="Helvetica-31" d="M 613 3169 
L 613 3600 
Q 1222 3659 1462 3798 
Q 1703 3938 1822 4456 
L 2266 4456 
L 2266 0 
L 1666 0 
L 1666 3169 
L 613 3169 
z
" transform="scale(0.015625)"/>
       </defs>
       <use xlink:href="#Helvetica-31"/>
       <use xlink:href="#Helvetica-30" x="55.615234"/>
       <use xlink:href="#Helvetica-30" x="111.230469"/>
      </g>
     </g>
    </g>
    <g id="text_16">
     <!-- Mass (%) -->
     <g transform="translate(23.979375 143.700187) rotate(-90) scale(0.12 -0.12)">
      <defs>
       <path id="Helvetica-4d" d="M 472 4591 
L 1363 4591 
L 2681 709 
L 3991 4591 
L 4872 4591 
L 4872 0 
L 4281 0 
L 4281 2709 
Q 4281 2850 4287 3175 
Q 4294 3500 4294 3872 
L 2984 0 
L 2369 0 
L 1050 3872 
L 1050 3731 
Q 1050 3563 1058 3217 
Q 1066 2872 1066 2709 
L 1066 0 
L 472 0 
L 472 4591 
z
" transform="scale(0.015625)"/>
       <path id="Helvetica-61" d="M 844 891 
Q 844 647 1022 506 
Q 1200 366 1444 366 
Q 1741 366 2019 503 
Q 2488 731 2488 1250 
L 2488 1703 
Q 2384 1638 2221 1594 
Q 2059 1550 1903 1531 
L 1563 1488 
Q 1256 1447 1103 1359 
Q 844 1213 844 891 
z
M 2206 2028 
Q 2400 2053 2466 2191 
Q 2503 2266 2503 2406 
Q 2503 2694 2298 2823 
Q 2094 2953 1713 2953 
Q 1272 2953 1088 2716 
Q 984 2584 953 2325 
L 428 2325 
Q 444 2944 830 3186 
Q 1216 3428 1725 3428 
Q 2316 3428 2684 3203 
Q 3050 2978 3050 2503 
L 3050 575 
Q 3050 488 3086 434 
Q 3122 381 3238 381 
Q 3275 381 3322 386 
Q 3369 391 3422 400 
L 3422 -16 
Q 3291 -53 3222 -62 
Q 3153 -72 3034 -72 
Q 2744 -72 2613 134 
Q 2544 244 2516 444 
Q 2344 219 2022 53 
Q 1700 -113 1313 -113 
Q 847 -113 551 170 
Q 256 453 256 878 
Q 256 1344 547 1600 
Q 838 1856 1309 1916 
L 2206 2028 
z
M 1741 3428 
L 1741 3428 
z
" transform="scale(0.015625)"/>
       <path id="Helvetica-73" d="M 747 1050 
Q 772 769 888 619 
Q 1100 347 1625 347 
Q 1938 347 2175 483 
Q 2413 619 2413 903 
Q 2413 1119 2222 1231 
Q 2100 1300 1741 1391 
L 1294 1503 
Q 866 1609 663 1741 
Q 300 1969 300 2372 
Q 300 2847 642 3140 
Q 984 3434 1563 3434 
Q 2319 3434 2653 2991 
Q 2863 2709 2856 2384 
L 2325 2384 
Q 2309 2575 2191 2731 
Q 1997 2953 1519 2953 
Q 1200 2953 1036 2831 
Q 872 2709 872 2509 
Q 872 2291 1088 2159 
Q 1213 2081 1456 2022 
L 1828 1931 
Q 2434 1784 2641 1647 
Q 2969 1431 2969 969 
Q 2969 522 2630 197 
Q 2291 -128 1597 -128 
Q 850 -128 539 211 
Q 228 550 206 1050 
L 747 1050 
z
M 1578 3428 
L 1578 3428 
z
" transform="scale(0.015625)"/>
       <path id="Helvetica-25" d="M 4363 2175 
Q 4813 2175 5131 1856 
Q 5450 1538 5450 1088 
Q 5450 638 5131 319 
Q 4813 0 4363 0 
Q 3909 0 3590 319 
Q 3272 638 3272 1088 
Q 3272 1538 3590 1856 
Q 3909 2175 4363 2175 
z
M 3909 4456 
L 4256 4456 
L 1753 -119 
L 1406 -119 
L 3909 4456 
z
M 1294 2606 
Q 1563 2606 1752 2795 
Q 1941 2984 1941 3250 
Q 1941 3516 1752 3705 
Q 1563 3894 1294 3894 
Q 1028 3894 839 3706 
Q 650 3519 650 3250 
Q 650 2984 839 2795 
Q 1028 2606 1294 2606 
z
M 1294 4341 
Q 1747 4341 2065 4020 
Q 2384 3700 2384 3250 
Q 2384 2800 2065 2481 
Q 1747 2163 1294 2163 
Q 844 2163 525 2481 
Q 206 2800 206 3250 
Q 206 3700 525 4020 
Q 844 4341 1294 4341 
z
M 4363 444 
Q 4628 444 4817 633 
Q 5006 822 5006 1088 
Q 5006 1353 4817 1542 
Q 4628 1731 4363 1731 
Q 4094 1731 3905 1542 
Q 3716 1353 3716 1088 
Q 3716 822 3905 633 
Q 4094 444 4363 444 
z
" transform="scale(0.015625)"/>
      </defs>
      <use xlink:href="#Helvetica-4d"/>
      <use xlink:href="#Helvetica-61" x="83.300781"/>
      <use xlink:href="#Helvetica-73" x="138.916016"/>
      <use xlink:href="#Helvetica-73" x="188.916016"/>
      <use xlink:href="#Helvetica-20" x="238.916016"/>
      <use xlink:href="#Helvetica-28" x="266.699219"/>
      <use xlink:href="#Helvetica-25" x="300"/>
      <use xlink:href="#Helvetica-29" x="388.916016"/>
     </g>
    </g>
   </g>
   <g id="line2d_15">
    <path d="M 52.030003 59.186429 
L 56.213513 59.163032 
L 60.383163 59.122136 
L 64.55919 59.057068 
L 68.746751 59.051756 
L 72.951957 58.990487 
L 77.126595 58.96259 
L 81.299893 58.914707 
L 85.476423 58.878386 
L 89.681461 58.863 
L 93.849989 58.858975 
L 98.046238 58.792095 
L 102.230016 58.749937 
L 106.398041 58.734526 
L 110.57807 58.657334 
L 114.757462 58.669532 
L 118.958164 58.615275 
L 123.163771 58.619513 
L 127.336366 58.567518 
L 131.521869 58.583141 
L 135.694682 58.584141 
L 139.877372 58.612338 
L 144.054872 58.584379 
L 148.236792 58.571492 
L 152.397988 58.561631 
L 156.612249 58.589416 
L 160.769628 58.643385 
L 164.971335 58.676894 
L 169.132832 58.693755 
L 173.325532 58.753124 
L 177.504523 58.811355 
L 181.708472 58.896097 
L 185.896452 58.998511 
L 190.078322 59.073116 
L 194.257982 59.212164 
L 198.430443 59.363199 
L 202.594518 59.547592 
L 206.799791 59.736948 
L 210.986431 59.973011 
L 215.15901 60.244521 
L 219.334502 60.527517 
L 223.533463 60.891317 
L 227.696215 61.235519 
L 231.889703 61.656789 
L 236.069446 62.140164 
L 240.236333 62.733566 
L 244.549629 63.308144 
L 248.628564 64.033832 
L 252.80116 64.825051 
L 257.005896 65.747094 
L 261.197676 66.785 
L 265.372615 68.003526 
L 269.566287 69.397345 
L 273.755271 70.997069 
L 277.921304 72.952543 
L 282.110372 75.264694 
L 286.309517 77.796822 
L 290.475836 80.687163 
L 294.654458 83.914544 
L 298.82789 87.624589 
L 303.011133 91.771002 
L 307.200987 96.334596 
L 311.379526 101.315748 
L 315.56712 106.63419 
L 319.734393 112.266475 
L 323.931362 118.14421 
L 328.124414 124.067841 
L 332.28427 129.990709 
L 336.502851 135.693336 
L 340.656513 141.154477 
L 344.851105 146.313885 
L 349.020119 151.136428 
L 353.227768 155.542552 
L 357.409135 159.535417 
L 361.591055 163.212228 
L 365.786735 166.580183 
L 369.937837 169.470161 
L 374.146323 172.036348 
L 378.325882 174.185928 
L 382.501809 175.907976 
L 386.711166 177.179096 
L 398.444366 177.679295 
L 418.145906 177.97209 
L 433 177.884718 
" clip-path="url(#p66312f6db1)" style="fill: none; stroke: #f5c92a; stroke-width: 1.5; stroke-linecap: square"/>
   </g>
   <g id="line2d_16">
    <path d="M 52.036716 59.186429 
L 56.204106 59.131785 
L 60.405126 59.068179 
L 64.584602 59.004011 
L 68.774875 58.916082 
L 72.945713 58.872224 
L 77.121506 58.823454 
L 81.320015 58.754936 
L 85.496561 58.710728 
L 89.68213 58.654159 
L 93.873039 58.552794 
L 98.041768 58.553669 
L 102.22481 58.463029 
L 106.437648 58.453904 
L 110.594977 58.377987 
L 114.774135 58.340991 
L 118.956624 58.293471 
L 123.127797 58.271361 
L 127.329704 58.200655 
L 131.523543 58.17617 
L 135.696272 58.141224 
L 139.891417 58.109927 
L 143.989419 58.05962 
L 148.144203 58.052771 
L 152.364692 58.020536 
L 156.563888 58.013637 
L 160.761443 57.961205 
L 164.922019 57.934508 
L 169.139879 57.905311 
L 173.322988 57.88925 
L 177.521212 57.921959 
L 181.701073 57.888375 
L 185.876381 57.888 
L 190.061598 57.936408 
L 194.248172 57.93302 
L 198.426175 57.939157 
L 202.659888 57.98069 
L 206.856372 58.006638 
L 211.047499 58.05707 
L 215.220981 58.163972 
L 219.394581 58.22859 
L 223.521377 58.370201 
L 227.654566 58.453829 
L 231.817503 58.464366 
L 236.019511 58.59784 
L 240.225486 58.730351 
L 244.422773 58.84309 
L 248.629602 59.001286 
L 252.804441 59.186504 
L 256.976986 59.439166 
L 261.194629 59.684841 
L 265.366555 59.999221 
L 269.559457 60.335612 
L 273.75286 60.759993 
L 277.941275 61.284502 
L 282.124183 61.833683 
L 286.274514 62.473767 
L 290.512982 63.37875 
L 294.718204 64.354825 
L 298.914771 65.49602 
L 303.091535 66.898464 
L 307.248328 68.511398 
L 311.421409 70.449737 
L 315.597018 72.855753 
L 319.757879 75.702261 
L 323.929654 79.242911 
L 328.116161 83.259574 
L 332.310786 87.971704 
L 336.464265 93.270073 
L 340.656296 99.234449 
L 344.867695 106.160926 
L 349.05169 113.394472 
L 353.209438 120.951148 
L 357.401418 128.708115 
L 361.594386 136.499316 
L 365.767216 144.011259 
L 369.959348 151.022315 
L 374.158309 157.358165 
L 378.331172 162.802595 
L 382.506915 167.345304 
L 386.711333 171.011428 
L 398.519763 173.560155 
L 418.204446 176.075334 
L 433 177.399566 
" clip-path="url(#p66312f6db1)" style="fill: none; stroke: #8286ff; stroke-width: 1.5; stroke-linecap: square"/>
   </g>
   <g id="line2d_17">
    <path d="M 54 59.811365 
L 388.8 59.811365 
" clip-path="url(#p66312f6db1)" style="fill: none; stroke-dasharray: 1.11,0.48; stroke-dashoffset: 0; stroke: #ff0000; stroke-width: 0.3"/>
   </g>
   <g id="patch_3">
    <path d="M 54 184.896 
L 54 51.84 
" style="fill: none; stroke: #000000; stroke-width: 0.5; stroke-linejoin: miter; stroke-linecap: square"/>
   </g>
   <g id="patch_4">
    <path d="M 54 184.896 
L 388.8 184.896 
" style="fill: none; stroke: #000000; stroke-width: 0.5; stroke-linejoin: miter; stroke-linecap: square"/>
   </g>
   <g id="text_17">
    <!-- Dynamic TGA -->
    <g transform="translate(191.52975 45.84) scale(0.096 -0.096)">
     <defs>
      <path id="Helvetica-44" d="M 2250 531 
Q 2566 531 2769 597 
Q 3131 719 3363 1066 
Q 3547 1344 3628 1778 
Q 3675 2038 3675 2259 
Q 3675 3113 3336 3584 
Q 2997 4056 2244 4056 
L 1141 4056 
L 1141 531 
L 2250 531 
z
M 516 4591 
L 2375 4591 
Q 3322 4591 3844 3919 
Q 4309 3313 4309 2366 
Q 4309 1634 4034 1044 
Q 3550 0 2369 0 
L 516 0 
L 516 4591 
z
" transform="scale(0.015625)"/>
      <path id="Helvetica-79" d="M 2503 3347 
L 3125 3347 
Q 3006 3025 2597 1878 
Q 2291 1016 2084 472 
Q 1597 -809 1397 -1090 
Q 1197 -1372 709 -1372 
Q 591 -1372 527 -1362 
Q 463 -1353 369 -1328 
L 369 -816 
Q 516 -856 581 -865 
Q 647 -875 697 -875 
Q 853 -875 926 -823 
Q 1000 -772 1050 -697 
Q 1066 -672 1162 -440 
Q 1259 -209 1303 -97 
L 66 3347 
L 703 3347 
L 1600 622 
L 2503 3347 
z
M 1597 3428 
L 1597 3428 
z
" transform="scale(0.015625)"/>
      <path id="Helvetica-6e" d="M 413 3347 
L 947 3347 
L 947 2872 
Q 1184 3166 1450 3294 
Q 1716 3422 2041 3422 
Q 2753 3422 3003 2925 
Q 3141 2653 3141 2147 
L 3141 0 
L 2569 0 
L 2569 2109 
Q 2569 2416 2478 2603 
Q 2328 2916 1934 2916 
Q 1734 2916 1606 2875 
Q 1375 2806 1200 2600 
Q 1059 2434 1017 2257 
Q 975 2081 975 1753 
L 975 0 
L 413 0 
L 413 3347 
z
M 1734 3428 
L 1734 3428 
z
" transform="scale(0.015625)"/>
      <path id="Helvetica-69" d="M 413 3331 
L 984 3331 
L 984 0 
L 413 0 
L 413 3331 
z
M 413 4591 
L 984 4591 
L 984 3953 
L 413 3953 
L 413 4591 
z
" transform="scale(0.015625)"/>
      <path id="Helvetica-63" d="M 1703 3444 
Q 2269 3444 2623 3169 
Q 2978 2894 3050 2222 
L 2503 2222 
Q 2453 2531 2275 2736 
Q 2097 2941 1703 2941 
Q 1166 2941 934 2416 
Q 784 2075 784 1575 
Q 784 1072 996 728 
Q 1209 384 1666 384 
Q 2016 384 2220 598 
Q 2425 813 2503 1184 
L 3050 1184 
Q 2956 519 2581 211 
Q 2206 -97 1622 -97 
Q 966 -97 575 383 
Q 184 863 184 1581 
Q 184 2463 612 2953 
Q 1041 3444 1703 3444 
z
M 1616 3428 
L 1616 3428 
z
" transform="scale(0.015625)"/>
      <path id="Helvetica-47" d="M 2472 4709 
Q 3119 4709 3591 4459 
Q 4275 4100 4428 3200 
L 3813 3200 
Q 3700 3703 3347 3933 
Q 2994 4163 2456 4163 
Q 1819 4163 1383 3684 
Q 947 3206 947 2259 
Q 947 1441 1306 927 
Q 1666 413 2478 413 
Q 3100 413 3508 773 
Q 3916 1134 3925 1941 
L 2488 1941 
L 2488 2456 
L 4503 2456 
L 4503 0 
L 4103 0 
L 3953 591 
Q 3638 244 3394 109 
Q 2984 -122 2353 -122 
Q 1538 -122 950 406 
Q 309 1069 309 2225 
Q 309 3378 934 4059 
Q 1528 4709 2472 4709 
z
M 2369 4716 
L 2369 4716 
z
" transform="scale(0.015625)"/>
      <path id="Helvetica-41" d="M 2844 1881 
L 2147 3909 
L 1406 1881 
L 2844 1881 
z
M 1822 4591 
L 2525 4591 
L 4191 0 
L 3509 0 
L 3044 1375 
L 1228 1375 
L 731 0 
L 94 0 
L 1822 4591 
z
" transform="scale(0.015625)"/>
     </defs>
     <use xlink:href="#Helvetica-44"/>
     <use xlink:href="#Helvetica-79" x="72.216797"/>
     <use xlink:href="#Helvetica-6e" x="122.216797"/>
     <use xlink:href="#Helvetica-61" x="177.832031"/>
     <use xlink:href="#Helvetica-6d" x="233.447266"/>
     <use xlink:href="#Helvetica-69" x="316.748047"/>
     <use xlink:href="#Helvetica-63" x="338.964844"/>
     <use xlink:href="#Helvetica-20" x="388.964844"/>
     <use xlink:href="#Helvetica-54" x="416.748047"/>
     <use xlink:href="#Helvetica-47" x="477.832031"/>
     <use xlink:href="#Helvetica-41" x="555.615234"/>
    </g>
   </g>
   <g id="legend_1">
    <g id="patch_5">
     <path d="M 59.6 180.896 
L 187.84 180.896 
Q 189.44 180.896 189.44 179.296 
L 189.44 144.8835 
Q 189.44 143.2835 187.84 143.2835 
L 59.6 143.2835 
Q 58 143.2835 58 144.8835 
L 58 179.296 
Q 58 180.896 59.6 180.896 
z
" style="fill: #ffffff; opacity: 0.8; stroke: #cccccc; stroke-linejoin: miter"/>
    </g>
    <g id="line2d_18">
     <path d="M 61.2 149.42225 
L 69.2 149.42225 
L 77.2 149.42225 
" style="fill: none; stroke: #f5c92a; stroke-width: 1.5; stroke-linecap: square"/>
    </g>
    <g id="text_18">
     <!-- PS-SCF3-1K_min -->
     <g transform="translate(83.6 152.22225) scale(0.08 -0.08)">
      <defs>
       <path id="Helvetica-50" d="M 547 4591 
L 2613 4591 
Q 3225 4591 3600 4245 
Q 3975 3900 3975 3275 
Q 3975 2738 3640 2339 
Q 3306 1941 2613 1941 
L 1169 1941 
L 1169 0 
L 547 0 
L 547 4591 
z
M 3347 3272 
Q 3347 3778 2972 3959 
Q 2766 4056 2406 4056 
L 1169 4056 
L 1169 2466 
L 2406 2466 
Q 2825 2466 3086 2644 
Q 3347 2822 3347 3272 
z
" transform="scale(0.015625)"/>
       <path id="Helvetica-53" d="M 894 1481 
Q 916 1091 1078 847 
Q 1388 391 2169 391 
Q 2519 391 2806 491 
Q 3363 684 3363 1184 
Q 3363 1559 3128 1719 
Q 2891 1875 2384 1991 
L 1763 2131 
Q 1153 2269 900 2434 
Q 463 2722 463 3294 
Q 463 3913 891 4309 
Q 1319 4706 2103 4706 
Q 2825 4706 3329 4357 
Q 3834 4009 3834 3244 
L 3250 3244 
Q 3203 3613 3050 3809 
Q 2766 4169 2084 4169 
Q 1534 4169 1293 3937 
Q 1053 3706 1053 3400 
Q 1053 3063 1334 2906 
Q 1519 2806 2169 2656 
L 2813 2509 
Q 3278 2403 3531 2219 
Q 3969 1897 3969 1284 
Q 3969 522 3414 194 
Q 2859 -134 2125 -134 
Q 1269 -134 784 303 
Q 300 738 309 1481 
L 894 1481 
z
M 2150 4716 
L 2150 4716 
z
" transform="scale(0.015625)"/>
       <path id="Helvetica-2d" d="M 266 2072 
L 1834 2072 
L 1834 1494 
L 266 1494 
L 266 2072 
z
" transform="scale(0.015625)"/>
       <path id="Helvetica-46" d="M 547 4591 
L 3731 4591 
L 3731 4028 
L 1169 4028 
L 1169 2634 
L 3422 2634 
L 3422 2088 
L 1169 2088 
L 1169 0 
L 547 0 
L 547 4591 
z
" transform="scale(0.015625)"/>
       <path id="Helvetica-4b" d="M 488 4591 
L 1094 4591 
L 1094 2353 
L 3331 4591 
L 4191 4591 
L 2281 2741 
L 4244 0 
L 3434 0 
L 1828 2303 
L 1094 1600 
L 1094 0 
L 488 0 
L 488 4591 
z
" transform="scale(0.015625)"/>
       <path id="Helvetica-5f" d="M 0 -800 
L 0 -484 
L 3559 -484 
L 3559 -800 
L 0 -800 
z
" transform="scale(0.015625)"/>
      </defs>
      <use xlink:href="#Helvetica-50"/>
      <use xlink:href="#Helvetica-53" x="66.699219"/>
      <use xlink:href="#Helvetica-2d" x="133.398438"/>
      <use xlink:href="#Helvetica-53" x="166.699219"/>
      <use xlink:href="#Helvetica-43" x="233.398438"/>
      <use xlink:href="#Helvetica-46" x="305.615234"/>
      <use xlink:href="#Helvetica-33" x="366.699219"/>
      <use xlink:href="#Helvetica-2d" x="422.314453"/>
      <use xlink:href="#Helvetica-31" x="455.615234"/>
      <use xlink:href="#Helvetica-4b" x="511.230469"/>
      <use xlink:href="#Helvetica-5f" x="577.929688"/>
      <use xlink:href="#Helvetica-6d" x="633.544922"/>
      <use xlink:href="#Helvetica-69" x="716.845703"/>
      <use xlink:href="#Helvetica-6e" x="739.0625"/>
     </g>
    </g>
    <g id="line2d_19">
     <path d="M 61.2 160.8285 
L 69.2 160.8285 
L 77.2 160.8285 
" style="fill: none; stroke: #8286ff; stroke-width: 1.5; stroke-linecap: square"/>
    </g>
    <g id="text_19">
     <!-- PS-6.1K-1K_min -->
     <g transform="translate(83.6 163.6285) scale(0.08 -0.08)">
      <defs>
       <path id="Helvetica-36" d="M 1872 4494 
Q 2622 4494 2917 4105 
Q 3213 3716 3213 3303 
L 2656 3303 
Q 2606 3569 2497 3719 
Q 2294 4000 1881 4000 
Q 1409 4000 1131 3564 
Q 853 3128 822 2316 
Q 1016 2600 1309 2741 
Q 1578 2866 1909 2866 
Q 2472 2866 2890 2506 
Q 3309 2147 3309 1434 
Q 3309 825 2912 354 
Q 2516 -116 1781 -116 
Q 1153 -116 697 361 
Q 241 838 241 1966 
Q 241 2800 444 3381 
Q 834 4494 1872 4494 
z
M 1831 384 
Q 2275 384 2495 682 
Q 2716 981 2716 1388 
Q 2716 1731 2519 2042 
Q 2322 2353 1803 2353 
Q 1441 2353 1167 2112 
Q 894 1872 894 1388 
Q 894 963 1142 673 
Q 1391 384 1831 384 
z
" transform="scale(0.015625)"/>
       <path id="Helvetica-2e" d="M 547 681 
L 1200 681 
L 1200 0 
L 547 0 
L 547 681 
z
" transform="scale(0.015625)"/>
      </defs>
      <use xlink:href="#Helvetica-50"/>
      <use xlink:href="#Helvetica-53" x="66.699219"/>
      <use xlink:href="#Helvetica-2d" x="133.398438"/>
      <use xlink:href="#Helvetica-36" x="166.699219"/>
      <use xlink:href="#Helvetica-2e" x="222.314453"/>
      <use xlink:href="#Helvetica-31" x="250.097656"/>
      <use xlink:href="#Helvetica-4b" x="305.712891"/>
      <use xlink:href="#Helvetica-2d" x="372.412109"/>
      <use xlink:href="#Helvetica-31" x="405.712891"/>
      <use xlink:href="#Helvetica-4b" x="461.328125"/>
      <use xlink:href="#Helvetica-5f" x="528.027344"/>
      <use xlink:href="#Helvetica-6d" x="583.642578"/>
      <use xlink:href="#Helvetica-69" x="666.943359"/>
      <use xlink:href="#Helvetica-6e" x="689.160156"/>
     </g>
    </g>
    <g id="line2d_20">
     <path d="M 61.2 172.336 
L 69.2 172.336 
L 77.2 172.336 
" style="fill: none; stroke-dasharray: 1.11,0.48; stroke-dashoffset: 0; stroke: #ff0000; stroke-width: 0.3"/>
    </g>
    <g id="text_20">
     <!-- $T_\mathregular{depolymerization}$ at 99.5% Mass -->
     <g transform="translate(83.6 175.136) scale(0.08 -0.08)">
      <defs>
       <path id="DejaVuSans-Oblique-54" d="M 378 4666 
L 4325 4666 
L 4225 4134 
L 2559 4134 
L 1759 0 
L 1125 0 
L 1925 4134 
L 275 4134 
L 378 4666 
z
" transform="scale(0.015625)"/>
       <path id="Helvetica-64" d="M 769 1634 
Q 769 1097 997 734 
Q 1225 372 1728 372 
Q 2119 372 2370 708 
Q 2622 1044 2622 1672 
Q 2622 2306 2362 2611 
Q 2103 2916 1722 2916 
Q 1297 2916 1033 2591 
Q 769 2266 769 1634 
z
M 1616 3406 
Q 2000 3406 2259 3244 
Q 2409 3150 2600 2916 
L 2600 4606 
L 3141 4606 
L 3141 0 
L 2634 0 
L 2634 466 
Q 2438 156 2169 18 
Q 1900 -119 1553 -119 
Q 994 -119 584 351 
Q 175 822 175 1603 
Q 175 2334 548 2870 
Q 922 3406 1616 3406 
z
" transform="scale(0.015625)"/>
       <path id="Helvetica-6c" d="M 428 4591 
L 991 4591 
L 991 0 
L 428 0 
L 428 4591 
z
" transform="scale(0.015625)"/>
       <path id="Helvetica-72" d="M 428 3347 
L 963 3347 
L 963 2769 
Q 1028 2938 1284 3180 
Q 1541 3422 1875 3422 
Q 1891 3422 1928 3419 
Q 1966 3416 2056 3406 
L 2056 2813 
Q 2006 2822 1964 2825 
Q 1922 2828 1872 2828 
Q 1447 2828 1219 2554 
Q 991 2281 991 1925 
L 991 0 
L 428 0 
L 428 3347 
z
" transform="scale(0.015625)"/>
       <path id="Helvetica-7a" d="M 163 444 
L 2147 2844 
L 309 2844 
L 309 3347 
L 2903 3347 
L 2903 2888 
L 931 503 
L 2963 503 
L 2963 0 
L 163 0 
L 163 444 
z
M 1609 3428 
L 1609 3428 
z
" transform="scale(0.015625)"/>
       <path id="Helvetica-74" d="M 525 4281 
L 1094 4281 
L 1094 3347 
L 1628 3347 
L 1628 2888 
L 1094 2888 
L 1094 703 
Q 1094 528 1213 469 
Q 1278 434 1431 434 
Q 1472 434 1519 436 
Q 1566 438 1628 444 
L 1628 0 
Q 1531 -28 1426 -40 
Q 1322 -53 1200 -53 
Q 806 -53 665 148 
Q 525 350 525 672 
L 525 2888 
L 72 2888 
L 72 3347 
L 525 3347 
L 525 4281 
z
" transform="scale(0.015625)"/>
       <path id="Helvetica-39" d="M 850 1081 
Q 875 616 1209 438 
Q 1381 344 1597 344 
Q 2000 344 2284 680 
Q 2569 1016 2688 2044 
Q 2500 1747 2223 1626 
Q 1947 1506 1628 1506 
Q 981 1506 604 1909 
Q 228 2313 228 2947 
Q 228 3556 600 4018 
Q 972 4481 1697 4481 
Q 2675 4481 3047 3600 
Q 3253 3116 3253 2388 
Q 3253 1566 3006 931 
Q 2597 -125 1619 -125 
Q 963 -125 622 219 
Q 281 563 281 1081 
L 850 1081 
z
M 1703 2000 
Q 2038 2000 2314 2220 
Q 2591 2441 2591 2991 
Q 2591 3484 2342 3726 
Q 2094 3969 1709 3969 
Q 1297 3969 1055 3692 
Q 813 3416 813 2953 
Q 813 2516 1025 2258 
Q 1238 2000 1703 2000 
z
" transform="scale(0.015625)"/>
      </defs>
      <use xlink:href="#DejaVuSans-Oblique-54" transform="translate(0 0.09375)"/>
      <use xlink:href="#Helvetica-64" transform="translate(61.083984 -16.3125) scale(0.7)"/>
      <use xlink:href="#Helvetica-65" transform="translate(100.014648 -16.3125) scale(0.7)"/>
      <use xlink:href="#Helvetica-70" transform="translate(138.945312 -16.3125) scale(0.7)"/>
      <use xlink:href="#Helvetica-6f" transform="translate(177.875977 -16.3125) scale(0.7)"/>
      <use xlink:href="#Helvetica-6c" transform="translate(216.806641 -16.3125) scale(0.7)"/>
      <use xlink:href="#Helvetica-79" transform="translate(232.358398 -16.3125) scale(0.7)"/>
      <use xlink:href="#Helvetica-6d" transform="translate(267.358398 -16.3125) scale(0.7)"/>
      <use xlink:href="#Helvetica-65" transform="translate(325.668945 -16.3125) scale(0.7)"/>
      <use xlink:href="#Helvetica-72" transform="translate(364.599609 -16.3125) scale(0.7)"/>
      <use xlink:href="#Helvetica-69" transform="translate(387.910156 -16.3125) scale(0.7)"/>
      <use xlink:href="#Helvetica-7a" transform="translate(403.461914 -16.3125) scale(0.7)"/>
      <use xlink:href="#Helvetica-61" transform="translate(438.461914 -16.3125) scale(0.7)"/>
      <use xlink:href="#Helvetica-74" transform="translate(477.392578 -16.3125) scale(0.7)"/>
      <use xlink:href="#Helvetica-69" transform="translate(496.84082 -16.3125) scale(0.7)"/>
      <use xlink:href="#Helvetica-6f" transform="translate(512.392578 -16.3125) scale(0.7)"/>
      <use xlink:href="#Helvetica-6e" transform="translate(551.323242 -16.3125) scale(0.7)"/>
      <use xlink:href="#Helvetica-20" transform="translate(592.988281 0.09375)"/>
      <use xlink:href="#Helvetica-61" transform="translate(620.771484 0.09375)"/>
      <use xlink:href="#Helvetica-74" transform="translate(676.386719 0.09375)"/>
      <use xlink:href="#Helvetica-20" transform="translate(704.169922 0.09375)"/>
      <use xlink:href="#Helvetica-39" transform="translate(731.953125 0.09375)"/>
      <use xlink:href="#Helvetica-39" transform="translate(787.568359 0.09375)"/>
      <use xlink:href="#Helvetica-2e" transform="translate(843.183594 0.09375)"/>
      <use xlink:href="#Helvetica-35" transform="translate(870.966797 0.09375)"/>
      <use xlink:href="#Helvetica-25" transform="translate(926.582031 0.09375)"/>
      <use xlink:href="#Helvetica-20" transform="translate(1015.498047 0.09375)"/>
      <use xlink:href="#Helvetica-4d" transform="translate(1043.28125 0.09375)"/>
      <use xlink:href="#Helvetica-61" transform="translate(1126.582031 0.09375)"/>
      <use xlink:href="#Helvetica-73" transform="translate(1182.197266 0.09375)"/>
      <use xlink:href="#Helvetica-73" transform="translate(1232.197266 0.09375)"/>
     </g>
    </g>
   </g>
  </g>
  <g id="axes_2">
   <g id="patch_6">
    <path d="M 54 384.48 
L 388.8 384.48 
L 388.8 251.424 
L 54 251.424 
z
" style="fill: #ffffff"/>
   </g>
   <g id="matplotlib.axis_3">
    <g id="xtick_10">
     <g id="line2d_21">
      <g>
       <use xlink:href="#m44941b19b2" x="54" y="384.48" style="stroke: #000000; stroke-width: 0.8"/>
      </g>
     </g>
     <g id="text_21">
      <!-- 200 -->
      <g transform="translate(43.990313 396.588125) scale(0.12 -0.12)">
       <use xlink:href="#Helvetica-32"/>
       <use xlink:href="#Helvetica-30" x="55.615234"/>
       <use xlink:href="#Helvetica-30" x="111.230469"/>
      </g>
     </g>
    </g>
    <g id="xtick_11">
     <g id="line2d_22">
      <g>
       <use xlink:href="#m44941b19b2" x="95.85" y="384.48" style="stroke: #000000; stroke-width: 0.8"/>
      </g>
     </g>
     <g id="text_22">
      <!-- 225 -->
      <g transform="translate(85.840313 396.588125) scale(0.12 -0.12)">
       <use xlink:href="#Helvetica-32"/>
       <use xlink:href="#Helvetica-32" x="55.615234"/>
       <use xlink:href="#Helvetica-35" x="111.230469"/>
      </g>
     </g>
    </g>
    <g id="xtick_12">
     <g id="line2d_23">
      <g>
       <use xlink:href="#m44941b19b2" x="137.7" y="384.48" style="stroke: #000000; stroke-width: 0.8"/>
      </g>
     </g>
     <g id="text_23">
      <!-- 250 -->
      <g transform="translate(127.690313 396.588125) scale(0.12 -0.12)">
       <use xlink:href="#Helvetica-32"/>
       <use xlink:href="#Helvetica-35" x="55.615234"/>
       <use xlink:href="#Helvetica-30" x="111.230469"/>
      </g>
     </g>
    </g>
    <g id="xtick_13">
     <g id="line2d_24">
      <g>
       <use xlink:href="#m44941b19b2" x="179.55" y="384.48" style="stroke: #000000; stroke-width: 0.8"/>
      </g>
     </g>
     <g id="text_24">
      <!-- 275 -->
      <g transform="translate(169.540312 396.588125) scale(0.12 -0.12)">
       <use xlink:href="#Helvetica-32"/>
       <use xlink:href="#Helvetica-37" x="55.615234"/>
       <use xlink:href="#Helvetica-35" x="111.230469"/>
      </g>
     </g>
    </g>
    <g id="xtick_14">
     <g id="line2d_25">
      <g>
       <use xlink:href="#m44941b19b2" x="221.4" y="384.48" style="stroke: #000000; stroke-width: 0.8"/>
      </g>
     </g>
     <g id="text_25">
      <!-- 300 -->
      <g transform="translate(211.390313 396.588125) scale(0.12 -0.12)">
       <use xlink:href="#Helvetica-33"/>
       <use xlink:href="#Helvetica-30" x="55.615234"/>
       <use xlink:href="#Helvetica-30" x="111.230469"/>
      </g>
     </g>
    </g>
    <g id="xtick_15">
     <g id="line2d_26">
      <g>
       <use xlink:href="#m44941b19b2" x="263.25" y="384.48" style="stroke: #000000; stroke-width: 0.8"/>
      </g>
     </g>
     <g id="text_26">
      <!-- 325 -->
      <g transform="translate(253.240313 396.588125) scale(0.12 -0.12)">
       <use xlink:href="#Helvetica-33"/>
       <use xlink:href="#Helvetica-32" x="55.615234"/>
       <use xlink:href="#Helvetica-35" x="111.230469"/>
      </g>
     </g>
    </g>
    <g id="xtick_16">
     <g id="line2d_27">
      <g>
       <use xlink:href="#m44941b19b2" x="305.1" y="384.48" style="stroke: #000000; stroke-width: 0.8"/>
      </g>
     </g>
     <g id="text_27">
      <!-- 350 -->
      <g transform="translate(295.090313 396.588125) scale(0.12 -0.12)">
       <use xlink:href="#Helvetica-33"/>
       <use xlink:href="#Helvetica-35" x="55.615234"/>
       <use xlink:href="#Helvetica-30" x="111.230469"/>
      </g>
     </g>
    </g>
    <g id="xtick_17">
     <g id="line2d_28">
      <g>
       <use xlink:href="#m44941b19b2" x="346.95" y="384.48" style="stroke: #000000; stroke-width: 0.8"/>
      </g>
     </g>
     <g id="text_28">
      <!-- 375 -->
      <g transform="translate(336.940313 396.588125) scale(0.12 -0.12)">
       <use xlink:href="#Helvetica-33"/>
       <use xlink:href="#Helvetica-37" x="55.615234"/>
       <use xlink:href="#Helvetica-35" x="111.230469"/>
      </g>
     </g>
    </g>
    <g id="xtick_18">
     <g id="line2d_29">
      <g>
       <use xlink:href="#m44941b19b2" x="388.8" y="384.48" style="stroke: #000000; stroke-width: 0.8"/>
      </g>
     </g>
     <g id="text_29">
      <!-- 400 -->
      <g transform="translate(378.790313 396.588125) scale(0.12 -0.12)">
       <use xlink:href="#Helvetica-34"/>
       <use xlink:href="#Helvetica-30" x="55.615234"/>
       <use xlink:href="#Helvetica-30" x="111.230469"/>
      </g>
     </g>
    </g>
    <g id="text_30">
     <!-- Temp (oC) -->
     <g transform="translate(192.732188 411.931875) scale(0.12 -0.12)">
      <use xlink:href="#Helvetica-54"/>
      <use xlink:href="#Helvetica-65" x="61.083984"/>
      <use xlink:href="#Helvetica-6d" x="116.699219"/>
      <use xlink:href="#Helvetica-70" x="200"/>
      <use xlink:href="#Helvetica-20" x="255.615234"/>
      <use xlink:href="#Helvetica-28" x="283.398438"/>
      <use xlink:href="#Helvetica-6f" x="316.699219"/>
      <use xlink:href="#Helvetica-43" x="372.314453"/>
      <use xlink:href="#Helvetica-29" x="444.53125"/>
     </g>
    </g>
   </g>
   <g id="matplotlib.axis_4">
    <g id="ytick_6">
     <g id="line2d_30">
      <g>
       <use xlink:href="#m38857b3f25" x="54" y="378.447333" style="stroke: #000000; stroke-width: 0.8"/>
      </g>
     </g>
     <g id="text_31">
      <!-- 0.0 -->
      <g transform="translate(33.82 382.751395) scale(0.12 -0.12)">
       <use xlink:href="#Helvetica-30"/>
       <use xlink:href="#Helvetica-2e" x="55.615234"/>
       <use xlink:href="#Helvetica-30" x="83.398438"/>
      </g>
     </g>
    </g>
    <g id="ytick_7">
     <g id="line2d_31">
      <g>
       <use xlink:href="#m38857b3f25" x="54" y="344.282949" style="stroke: #000000; stroke-width: 0.8"/>
      </g>
     </g>
     <g id="text_32">
      <!-- 0.5 -->
      <g transform="translate(33.82 348.587011) scale(0.12 -0.12)">
       <use xlink:href="#Helvetica-30"/>
       <use xlink:href="#Helvetica-2e" x="55.615234"/>
       <use xlink:href="#Helvetica-35" x="83.398438"/>
      </g>
     </g>
    </g>
    <g id="ytick_8">
     <g id="line2d_32">
      <g>
       <use xlink:href="#m38857b3f25" x="54" y="310.118564" style="stroke: #000000; stroke-width: 0.8"/>
      </g>
     </g>
     <g id="text_33">
      <!-- 1.0 -->
      <g transform="translate(33.82 314.422627) scale(0.12 -0.12)">
       <use xlink:href="#Helvetica-31"/>
       <use xlink:href="#Helvetica-2e" x="55.615234"/>
       <use xlink:href="#Helvetica-30" x="83.398438"/>
      </g>
     </g>
    </g>
    <g id="ytick_9">
     <g id="line2d_33">
      <g>
       <use xlink:href="#m38857b3f25" x="54" y="275.95418" style="stroke: #000000; stroke-width: 0.8"/>
      </g>
     </g>
     <g id="text_34">
      <!-- 1.5 -->
      <g transform="translate(33.82 280.258243) scale(0.12 -0.12)">
       <use xlink:href="#Helvetica-31"/>
       <use xlink:href="#Helvetica-2e" x="55.615234"/>
       <use xlink:href="#Helvetica-35" x="83.398438"/>
      </g>
     </g>
    </g>
    <g id="text_35">
     <!-- Ion Current (A) -->
     <g transform="translate(27.31875 357.628875) rotate(-90) scale(0.12 -0.12)">
      <defs>
       <path id="Helvetica-49" d="M 628 4591 
L 1256 4591 
L 1256 0 
L 628 0 
L 628 4591 
z
" transform="scale(0.015625)"/>
       <path id="Helvetica-75" d="M 975 3347 
L 975 1125 
Q 975 869 1056 706 
Q 1206 406 1616 406 
Q 2203 406 2416 931 
Q 2531 1213 2531 1703 
L 2531 3347 
L 3094 3347 
L 3094 0 
L 2563 0 
L 2569 494 
Q 2459 303 2297 172 
Q 1975 -91 1516 -91 
Q 800 -91 541 388 
Q 400 644 400 1072 
L 400 3347 
L 975 3347 
z
M 1747 3428 
L 1747 3428 
z
" transform="scale(0.015625)"/>
      </defs>
      <use xlink:href="#Helvetica-49"/>
      <use xlink:href="#Helvetica-6f" x="27.783203"/>
      <use xlink:href="#Helvetica-6e" x="83.398438"/>
      <use xlink:href="#Helvetica-20" x="139.013672"/>
      <use xlink:href="#Helvetica-43" x="166.796875"/>
      <use xlink:href="#Helvetica-75" x="239.013672"/>
      <use xlink:href="#Helvetica-72" x="294.628906"/>
      <use xlink:href="#Helvetica-72" x="327.929688"/>
      <use xlink:href="#Helvetica-65" x="361.230469"/>
      <use xlink:href="#Helvetica-6e" x="416.845703"/>
      <use xlink:href="#Helvetica-74" x="472.460938"/>
      <use xlink:href="#Helvetica-20" x="500.244141"/>
      <use xlink:href="#Helvetica-28" x="528.027344"/>
      <use xlink:href="#Helvetica-41" x="561.328125"/>
      <use xlink:href="#Helvetica-29" x="628.027344"/>
     </g>
    </g>
    <g id="text_36">
     <!-- 1e−10 -->
     <g transform="translate(54 248.424) scale(0.08 -0.08)">
      <defs>
       <path id="Helvetica-2212" d="M 3547 1894 
L 3547 1369 
L 288 1369 
L 288 1894 
L 3547 1894 
z
" transform="scale(0.015625)"/>
      </defs>
      <use xlink:href="#Helvetica-31"/>
      <use xlink:href="#Helvetica-65" x="55.615234"/>
      <use xlink:href="#Helvetica-2212" x="111.230469"/>
      <use xlink:href="#Helvetica-31" x="169.628906"/>
      <use xlink:href="#Helvetica-30" x="225.244141"/>
     </g>
    </g>
   </g>
   <g id="line2d_34">
    <path d="M 54.006696 378.316661 
L 56.37708 378.302651 
L 59.723423 378.309519 
L 61.17309 378.287468 
L 63.844794 378.29358 
L 64.737036 378.310288 
L 66.201786 378.306978 
L 74.352492 378.302077 
L 75.802176 378.305414 
L 77.573268 378.27983 
L 79.342703 378.31554 
L 82.386018 378.284314 
L 85.603446 378.278397 
L 90.0747 378.286842 
L 94.857318 378.284144 
L 97.535718 378.265508 
L 101.439486 378.305505 
L 103.784777 378.295079 
L 108.033372 378.290765 
L 111.923765 378.246949 
L 112.822703 378.283063 
L 115.383923 378.265872 
L 127.992474 378.227817 
L 131.007348 378.207994 
L 135.461845 378.224585 
L 136.581768 378.168713 
L 138.128544 378.22405 
L 139.938155 378.19126 
L 140.164128 378.236849 
L 140.840441 378.183779 
L 141.717583 378.188784 
L 141.938568 378.148578 
L 142.601455 378.18344 
L 145.832292 378.184183 
L 146.175462 378.112165 
L 146.72286 378.183167 
L 155.106269 378.127726 
L 158.094359 378.090596 
L 158.317001 378.053596 
L 158.98491 378.100448 
L 197.123635 377.44725 
L 197.368073 377.367372 
L 198.58338 377.387013 
L 202.503905 377.227492 
L 203.049595 377.251473 
L 205.508701 377.126672 
L 206.064469 377.11579 
L 207.843965 377.101545 
L 208.416439 377.029031 
L 208.764648 377.104177 
L 208.977263 376.995355 
L 209.641841 377.032341 
L 209.862792 376.946013 
L 210.185857 377.046443 
L 213.199091 376.813287 
L 213.76656 376.844253 
L 214.670537 376.742689 
L 214.879787 376.782166 
L 215.777017 376.692631 
L 216.43659 376.727481 
L 216.654227 376.619166 
L 218.231101 376.613471 
L 220.340358 376.507762 
L 220.547934 376.390793 
L 221.456916 376.492071 
L 222.360893 376.319557 
L 223.254792 376.316977 
L 225.370745 376.189791 
L 225.695501 376.046287 
L 226.256274 376.151944 
L 227.138489 376.051123 
L 229.262761 375.899253 
L 231.278274 375.74565 
L 231.618096 375.739798 
L 231.944543 375.587824 
L 233.725679 375.591916 
L 234.84222 375.416483 
L 236.633417 375.353757 
L 238.188529 375.089688 
L 238.526677 375.266216 
L 238.740983 375.037114 
L 239.408892 375.05463 
L 239.947903 374.994498 
L 240.294421 374.971729 
L 240.635934 374.836619 
L 240.855245 374.894954 
L 241.405957 374.798174 
L 242.073917 374.779106 
L 242.987904 374.641377 
L 243.547037 374.703061 
L 243.870102 374.534952 
L 244.091053 374.583316 
L 244.772405 374.468772 
L 245.10384 374.265853 
L 245.316421 374.410855 
L 245.657934 374.297796 
L 245.996065 374.448584 
L 246.220398 374.279719 
L 246.561911 374.308248 
L 246.886667 374.166896 
L 247.110983 374.216941 
L 247.780566 374.006698 
L 248.006573 374.050683 
L 249.241951 373.835904 
L 250.114155 373.754359 
L 251.016391 373.608874 
L 251.918677 373.519614 
L 252.258499 373.402124 
L 252.802566 373.42411 
L 253.135709 373.213359 
L 253.693117 373.255624 
L 254.05137 373.089796 
L 254.384513 373.087919 
L 254.595403 372.935046 
L 256.731427 372.684922 
L 257.973535 372.542357 
L 258.189481 372.323878 
L 258.879203 372.34129 
L 259.739655 372.098464 
L 260.076096 372.127136 
L 260.646947 371.947285 
L 261.30816 371.850843 
L 261.524089 371.914703 
L 263.97819 371.193995 
L 264.518892 371.188782 
L 264.878785 370.928128 
L 265.210237 371.01936 
L 265.764365 370.757402 
L 266.44734 370.76392 
L 267.006439 370.466772 
L 267.662647 370.50848 
L 267.881958 370.181356 
L 268.231841 370.079703 
L 268.573303 370.121404 
L 269.107309 369.703054 
L 269.800345 369.674384 
L 270.113417 369.73564 
L 270.349434 369.60792 
L 270.68256 369.570128 
L 271.578167 368.987563 
L 271.909602 369.145259 
L 272.46537 368.849416 
L 272.81691 368.702147 
L 273.141666 368.715178 
L 273.474792 368.408914 
L 273.697434 368.471469 
L 274.032251 368.432372 
L 275.270994 367.913674 
L 276.151518 367.65041 
L 277.033733 367.224244 
L 277.358489 367.238579 
L 277.922627 366.795467 
L 278.240653 366.917974 
L 278.573779 366.60649 
L 278.801477 366.843687 
L 279.132929 366.60649 
L 279.454303 366.184232 
L 280.038529 366.120372 
L 280.373346 365.95747 
L 280.600993 365.668138 
L 280.919053 365.691602 
L 281.275649 365.390546 
L 281.494909 365.443979 
L 282.50937 364.903122 
L 282.721951 364.741518 
L 283.073525 364.690688 
L 283.389911 364.379212 
L 283.733047 364.291887 
L 283.962385 363.920459 
L 284.285501 363.883965 
L 284.625323 363.728879 
L 284.851279 363.425219 
L 285.169339 363.625921 
L 285.512543 363.460402 
L 285.745195 363.004259 
L 286.076647 362.98471 
L 287.302049 362.379994 
L 287.861148 361.699692 
L 288.182573 361.449465 
L 288.532422 361.594124 
L 288.867239 361.174476 
L 289.093195 361.282648 
L 290.310227 360.09797 
L 290.633292 360.137075 
L 291.197447 359.580578 
L 291.868721 359.439821 
L 292.427803 358.613555 
L 292.760946 358.569244 
L 292.983571 358.221266 
L 293.325084 358.165229 
L 293.982983 357.591787 
L 294.207299 357.494043 
L 294.532055 357.195596 
L 294.875208 357.239908 
L 295.101215 356.858011 
L 295.446042 356.586931 
L 295.770798 356.134697 
L 295.995114 356.253295 
L 297.77625 354.487365 
L 298.437463 354.015582 
L 298.651769 353.683252 
L 298.994922 353.644147 
L 299.55069 352.754021 
L 299.885507 352.772265 
L 300.226969 352.200128 
L 300.447971 352.148 
L 300.786102 351.759626 
L 301.117554 351.60193 
L 301.3335 351.270898 
L 301.676653 351.178367 
L 302.018166 350.757414 
L 302.326165 350.598413 
L 302.562233 350.044526 
L 303.11631 349.558408 
L 305.007947 347.690826 
L 305.223893 347.624355 
L 305.910233 346.627357 
L 306.244999 346.538734 
L 306.459305 346.308056 
L 306.797453 345.675974 
L 307.145595 345.644693 
L 307.470367 345.449205 
L 307.691352 344.664633 
L 308.371013 344.174607 
L 308.593655 343.461719 
L 308.911715 343.560768 
L 310.160519 342.329183 
L 310.384835 342.197548 
L 311.057749 340.962054 
L 311.603507 340.774383 
L 311.944969 339.572767 
L 312.279786 339.713524 
L 312.616243 339.570163 
L 312.840559 338.786897 
L 313.168697 338.334663 
L 313.716078 338.180875 
L 314.050845 337.301177 
L 314.390683 337.323329 
L 314.611685 336.761619 
L 315.274572 336.047426 
L 315.513971 335.387978 
L 315.848737 335.583467 
L 316.180189 335.092135 
L 316.39113 334.563004 
L 316.739322 334.246314 
L 317.398845 332.860941 
L 317.619846 332.694116 
L 317.957994 332.253621 
L 318.302821 332.274468 
L 319.198428 330.593253 
L 319.407678 330.657113 
L 320.095709 329.923371 
L 320.628024 329.262618 
L 320.972851 328.392035 
L 321.307685 328.53409 
L 321.537006 327.464103 
L 321.850061 327.576189 
L 322.19991 327.456286 
L 322.410834 326.665203 
L 323.421947 325.377574 
L 323.654633 324.677717 
L 323.992781 324.671205 
L 324.538488 323.825384 
L 324.86994 323.871 
L 325.233215 322.733244 
L 326.095291 321.711483 
L 326.336364 321.651531 
L 326.666142 320.790076 
L 326.997577 320.443404 
L 327.355847 320.238786 
L 327.680603 319.140135 
L 327.904885 319.574125 
L 328.244707 319.241794 
L 329.146993 317.606188 
L 329.463379 317.581426 
L 330.131322 316.828142 
L 330.364025 315.681264 
L 330.698791 316.487988 
L 331.351685 314.97359 
L 331.57431 315.03484 
L 331.920828 314.862809 
L 332.233883 314.202015 
L 333.1395 313.180254 
L 333.462565 312.294029 
L 333.790703 312.459549 
L 334.148922 312.248413 
L 334.359846 311.671062 
L 335.026115 311.306153 
L 335.370959 310.848705 
L 335.707416 310.195769 
L 335.920031 310.223135 
L 336.259853 309.774802 
L 336.589614 309.120554 
L 336.820643 308.320356 
L 337.147073 308.742628 
L 337.491917 308.24089 
L 337.818347 308.362037 
L 338.049359 307.91503 
L 338.374115 307.758625 
L 338.717268 307.31688 
L 339.050411 307.632217 
L 339.273036 306.782481 
L 339.616189 306.703014 
L 339.940945 305.995333 
L 340.267392 306.082657 
L 340.595513 305.704731 
L 340.826525 305.07392 
L 341.169678 304.974911 
L 341.487738 304.718132 
L 341.829251 305.028345 
L 342.041815 304.303718 
L 342.381654 304.178608 
L 342.70641 303.50352 
L 343.051237 303.562146 
L 343.290636 303.059041 
L 343.632149 303.650768 
L 344.298367 302.686308 
L 344.63988 302.675922 
L 344.95794 302.464786 
L 345.200653 301.871829 
L 345.525409 301.844429 
L 346.529809 301.474292 
L 346.760821 301.862673 
L 347.093964 301.290556 
L 347.423725 301.612453 
L 347.634666 301.053318 
L 348.302609 300.526845 
L 348.627365 300.999885 
L 348.953761 300.225789 
L 349.179768 300.431663 
L 349.517916 300.146254 
L 349.857738 300.320902 
L 350.078689 299.893438 
L 350.954208 299.759172 
L 351.29403 300.10717 
L 351.642239 298.969428 
L 351.961939 299.30827 
L 352.333584 299.174004 
L 352.552845 300.146254 
L 352.885987 299.243084 
L 353.776572 299.43338 
L 354.113029 299.95466 
L 354.447846 299.750084 
L 354.775933 298.794779 
L 355.351823 299.518108 
L 355.676579 298.716611 
L 356.004666 299.623676 
L 356.239043 299.93382 
L 356.592257 299.346056 
L 357.574845 299.898631 
L 357.799177 299.184458 
L 358.138999 299.849092 
L 358.462115 299.90519 
L 358.689762 300.275327 
L 359.367732 299.469868 
L 359.694179 299.751382 
L 360.027305 299.705738 
L 360.254952 300.189301 
L 360.584713 299.953362 
L 360.926226 299.906488 
L 361.266048 300.611573 
L 362.494781 300.63501 
L 362.806095 300.937365 
L 363.055554 301.358338 
L 363.392011 300.997289 
L 363.713453 301.084613 
L 364.059971 301.526427 
L 364.383036 301.35704 
L 364.607352 301.772752 
L 364.950505 301.495132 
L 365.283648 301.764963 
L 365.84109 301.748017 
L 366.197635 302.185868 
L 366.512364 301.942207 
L 366.842142 302.928738 
L 367.066458 302.909196 
L 367.417981 303.34322 
L 367.734367 302.82317 
L 367.962048 303.429178 
L 368.275103 303.42009 
L 368.635013 303.825417 
L 368.966465 303.584284 
L 369.309601 304.014346 
L 369.515537 304.477 
L 369.851994 304.139456 
L 371.740249 305.66428 
L 371.969621 306.109989 
L 372.294377 306.262499 
L 372.619133 306.606602 
L 372.958921 306.800724 
L 373.191607 306.589657 
L 373.518054 306.757746 
L 373.861207 307.696105 
L 374.20272 307.413292 
L 375.419701 308.44287 
L 375.746148 308.169213 
L 375.987221 309.248261 
L 376.653439 309.270468 
L 376.861049 310.035477 
L 377.197506 309.825639 
L 378.093096 310.916474 
L 378.451315 311.186256 
L 379.099153 311.282695 
L 379.43397 311.734923 
L 379.768787 311.518587 
L 380.00313 311.591569 
L 380.344643 311.944753 
L 380.881963 313.322309 
L 381.221785 313.611634 
L 381.561607 313.336644 
L 381.888054 313.752384 
L 382.224511 313.884013 
L 382.455523 314.254143 
L 382.778655 314.994444 
L 383.128488 314.574789 
L 383.339429 315.967979 
L 383.674195 315.587428 
L 384.015708 315.649983 
L 384.357221 316.07615 
L 384.678595 316.269035 
L 385.23438 317.740427 
L 385.585903 317.275163 
L 385.800209 317.71697 
L 386.473123 318.152258 
L 387.01719 319.677083 
L 387.372078 319.314776 
L 387.688464 319.40991 
L 388.361429 320.698844 
L 388.890379 320.100646 
L 388.890379 320.100646 
" clip-path="url(#pa9a8898968)" style="fill: none; stroke: #f5c92a; stroke-width: 1.5; stroke-linecap: square"/>
   </g>
   <g id="line2d_35">
    <path d="M 53.9163 378.409779 
L 56.263265 378.427022 
L 57.162203 378.423477 
L 60.515208 378.399927 
L 69.446015 378.408711 
L 72.700271 378.404827 
L 75.145968 378.41103 
L 78.361705 378.384366 
L 79.250616 378.400044 
L 92.066777 378.410783 
L 94.202801 378.387037 
L 95.642441 378.38477 
L 97.744968 378.40269 
L 98.662303 378.374031 
L 99.229806 378.391716 
L 101.332333 378.360672 
L 102.785399 378.396264 
L 107.276724 378.371177 
L 110.269836 378.399614 
L 111.80322 378.37635 
L 115.968149 378.377224 
L 117.715788 378.351927 
L 195.145001 377.991951 
L 196.34022 377.960803 
L 197.587333 377.930111 
L 197.796583 378.002104 
L 200.516833 377.941137 
L 204.435684 377.914003 
L 205.026589 377.910836 
L 207.383615 377.812674 
L 208.595591 377.869561 
L 209.830969 377.798025 
L 210.71988 377.797373 
L 211.839786 377.756698 
L 212.50269 377.77772 
L 213.609221 377.660543 
L 214.270434 377.739847 
L 214.829567 377.670356 
L 215.480719 377.738999 
L 216.054935 377.664961 
L 216.609012 377.713586 
L 217.281977 377.669496 
L 217.846115 377.696383 
L 239.485879 377.130725 
L 239.827392 376.988656 
L 242.842249 376.989763 
L 243.419779 376.91489 
L 248.23422 376.774411 
L 248.908859 376.688695 
L 252.149689 376.481019 
L 252.355608 376.592814 
L 253.036909 376.429735 
L 254.161871 376.380198 
L 254.481571 376.47015 
L 255.402305 376.309418 
L 258.942798 376.085868 
L 259.296012 375.983197 
L 259.520328 376.071493 
L 259.853471 375.928094 
L 260.191602 375.954733 
L 260.512993 376.106277 
L 260.742365 375.901859 
L 261.641286 375.909666 
L 262.525141 375.790652 
L 263.422422 375.743538 
L 263.752183 375.67844 
L 264.088691 375.817447 
L 264.657834 375.615896 
L 264.987595 375.561654 
L 265.196845 375.650524 
L 267.307793 375.42313 
L 267.655951 375.452701 
L 268.216775 375.258853 
L 269.114005 375.192099 
L 269.437121 375.250772 
L 270.332677 375.111687 
L 271.792422 374.960586 
L 272.128879 374.873332 
L 272.458691 374.923482 
L 272.66625 374.813656 
L 274.802274 374.553993 
L 275.711256 374.549653 
L 276.037703 374.356235 
L 276.380839 374.402618 
L 276.593471 374.287552 
L 276.938298 374.355478 
L 277.484005 374.190393 
L 279.029107 374.017215 
L 279.278567 373.84478 
L 279.599958 373.941847 
L 281.053007 373.634302 
L 282.28338 373.375212 
L 282.624893 373.412055 
L 282.947958 373.222872 
L 283.180661 373.266206 
L 283.505417 373.093146 
L 283.724677 373.181259 
L 284.74416 372.880582 
L 284.960089 373.063535 
L 285.27984 372.807586 
L 285.594535 372.912773 
L 286.160364 372.698241 
L 286.495147 372.641185 
L 286.699392 372.444977 
L 287.382367 372.406688 
L 287.953201 372.260069 
L 290.465892 371.655353 
L 291.018329 371.564125 
L 291.359791 371.587582 
L 291.594185 371.380362 
L 292.272155 371.234398 
L 292.610286 371.30999 
L 293.155993 371.041513 
L 293.849029 371.062366 
L 294.391422 370.612736 
L 294.719543 370.625773 
L 294.967261 370.376844 
L 296.179237 370.13574 
L 296.865577 369.837293 
L 297.423036 369.623561 
L 298.097641 369.478895 
L 298.30356 369.439797 
L 298.979839 369.121802 
L 301.084091 368.253822 
L 301.750309 368.19648 
L 301.979647 367.976229 
L 302.301072 368.01793 
L 302.640911 367.623045 
L 302.974037 367.645197 
L 303.188292 367.388452 
L 303.523109 367.371513 
L 303.876323 366.944041 
L 304.423721 366.968804 
L 305.404685 366.430551 
L 305.965458 366.129494 
L 306.636732 365.793255 
L 306.850987 365.515656 
L 307.189135 365.711151 
L 307.743263 365.288886 
L 308.412846 364.974799 
L 308.642184 364.647682 
L 309.296701 364.480864 
L 309.867535 364.024722 
L 310.160519 363.754946 
L 310.522103 363.75755 
L 311.422715 363.406968 
L 311.633655 363.027723 
L 311.958345 362.687569 
L 312.318305 362.678447 
L 312.877404 362.161048 
L 313.197155 362.067212 
L 313.41141 361.75182 
L 313.747867 361.504197 
L 314.086049 361.534173 
L 314.419141 361.315227 
L 314.668584 360.969859 
L 314.986661 360.955524 
L 316.212012 359.864689 
L 316.543464 359.918122 
L 317.097541 359.198716 
L 317.412287 359.15571 
L 317.641608 358.578366 
L 317.993148 358.475408 
L 318.319578 358.569244 
L 318.528828 357.924125 
L 318.880351 358.092247 
L 319.208489 357.740361 
L 319.442815 357.196901 
L 319.759201 357.3155 
L 320.10741 356.672943 
L 320.437171 356.4944 
L 321.327756 355.54301 
L 321.647507 355.819305 
L 321.881833 354.987819 
L 322.211595 354.857495 
L 322.551433 354.436535 
L 322.765739 353.946509 
L 323.0955 353.91393 
L 323.783531 353.272719 
L 323.996095 352.797028 
L 325.208071 351.555016 
L 325.551275 351.574564 
L 325.887732 351.002427 
L 326.090286 350.421168 
L 326.440135 350.12663 
L 326.774952 350.082319 
L 327.009329 349.494548 
L 328.001994 348.229072 
L 329.237423 346.772022 
L 330.10956 345.384039 
L 330.476166 345.056916 
L 330.68709 344.519974 
L 331.020233 344.476968 
L 331.354999 343.728891 
L 331.688142 343.665031 
L 331.920828 342.890887 
L 332.253971 342.68888 
L 332.583732 341.90301 
L 332.918549 341.71143 
L 333.154566 341.098896 
L 333.820835 340.386009 
L 334.018333 339.426803 
L 334.356481 338.694366 
L 334.694629 338.77647 
L 335.032811 338.131358 
L 335.250397 337.958021 
L 336.465738 335.829785 
L 337.716233 333.980446 
L 338.385816 332.210608 
L 338.722273 332.120681 
L 339.252965 330.739223 
L 339.579345 330.180116 
L 339.812047 330.164476 
L 340.170317 329.028032 
L 340.473311 328.644871 
L 340.838226 328.385516 
L 342.289584 324.997024 
L 342.629423 324.342783 
L 342.939096 324.142081 
L 346.859621 315.990138 
L 347.090633 315.27725 
L 347.407019 314.814596 
L 347.760233 313.885318 
L 348.101695 313.509981 
L 348.31431 312.472573 
L 348.654149 311.605904 
L 348.997285 311.4065 
L 349.543043 309.843883 
L 349.882865 309.228719 
L 350.443655 307.447183 
L 351.004428 305.960144 
L 351.330858 305.79595 
L 351.665641 304.762477 
L 352.320209 303.85145 
L 352.527768 302.054267 
L 352.889352 301.693217 
L 353.43675 300.4825 
L 354.456233 298.285183 
L 354.782629 296.673034 
L 355.018697 296.437164 
L 355.684915 295.354153 
L 355.924297 295.123475 
L 356.247379 293.483994 
L 356.587201 293.381023 
L 357.804233 290.575102 
L 358.130629 290.491672 
L 358.356636 288.940746 
L 358.698149 287.873382 
L 359.03628 287.670104 
L 359.35434 287.303862 
L 359.598744 285.829874 
L 359.920135 285.603091 
L 360.583073 283.657361 
L 360.812411 283.63775 
L 362.029392 281.020827 
L 362.372579 280.46955 
L 362.692279 278.889994 
L 363.032101 278.509403 
L 363.258108 278.637109 
L 363.594565 277.962021 
L 364.157029 275.962858 
L 364.833359 275.345098 
L 365.511329 273.602646 
L 366.400189 272.818026 
L 366.62787 271.695931 
L 367.503405 270.721085 
L 368.177994 268.738799 
L 369.078589 267.723502 
L 369.403345 267.186574 
L 369.736488 266.162189 
L 370.072945 266.656138 
L 370.300643 265.467559 
L 370.983601 264.466679 
L 371.305043 264.572247 
L 371.530999 264.426297 
L 372.203964 262.726824 
L 372.426589 262.674689 
L 372.768102 263.258558 
L 373.091184 263.121696 
L 373.442707 261.969605 
L 373.665383 261.980059 
L 373.998475 261.359702 
L 374.902452 261.405277 
L 375.228899 261.078187 
L 375.556969 260.087694 
L 375.870024 260.108534 
L 376.112737 259.522068 
L 376.430797 259.602901 
L 377.107127 258.656684 
L 377.318017 259.27055 
L 378.002683 259.092007 
L 378.558451 258.760954 
L 378.878202 258.402569 
L 379.226411 258.21487 
L 379.785493 258.316544 
L 380.132011 257.659699 
L 380.463463 257.472 
L 380.806667 258.092357 
L 381.347352 257.710536 
L 381.687191 257.994647 
L 382.346713 257.727481 
L 382.552649 258.545923 
L 382.910851 258.035029 
L 383.262391 258.677524 
L 383.595517 258.101513 
L 383.804767 258.723168 
L 384.141275 258.630651 
L 384.472727 259.194978 
L 384.819245 259.471231 
L 385.04187 258.991632 
L 385.363261 259.363067 
L 385.681321 259.523366 
L 386.02116 260.317073 
L 386.257177 259.813969 
L 386.613756 259.54817 
L 387.259903 260.655916 
L 387.613117 260.594625 
L 388.142101 261.393593 
L 388.550591 260.955674 
L 389.196738 261.828847 
L 389.196738 261.828847 
" clip-path="url(#pa9a8898968)" style="fill: none; stroke: #8286ff; stroke-width: 1.5; stroke-linecap: square"/>
   </g>
   <g id="patch_7">
    <path d="M 54 384.48 
L 54 251.424 
" style="fill: none; stroke: #000000; stroke-width: 0.5; stroke-linejoin: miter; stroke-linecap: square"/>
   </g>
   <g id="patch_8">
    <path d="M 54 384.48 
L 388.8 384.48 
" style="fill: none; stroke: #000000; stroke-width: 0.5; stroke-linejoin: miter; stroke-linecap: square"/>
   </g>
   <g id="text_37">
    <!-- 104 m/z for Dynamic TGA -->
    <g transform="translate(166.18875 245.424) scale(0.096 -0.096)">
     <defs>
      <path id="Helvetica-2f" d="M 1456 4591 
L 1931 4591 
L 475 0 
L 0 0 
L 1456 4591 
z
" transform="scale(0.015625)"/>
      <path id="Helvetica-66" d="M 553 3856 
Q 566 4206 675 4369 
Q 872 4656 1434 4656 
Q 1488 4656 1544 4653 
Q 1600 4650 1672 4644 
L 1672 4131 
Q 1584 4138 1545 4139 
Q 1506 4141 1472 4141 
Q 1216 4141 1166 4008 
Q 1116 3875 1116 3331 
L 1672 3331 
L 1672 2888 
L 1109 2888 
L 1109 0 
L 553 0 
L 553 2888 
L 88 2888 
L 88 3331 
L 553 3331 
L 553 3856 
z
" transform="scale(0.015625)"/>
     </defs>
     <use xlink:href="#Helvetica-31"/>
     <use xlink:href="#Helvetica-30" x="55.615234"/>
     <use xlink:href="#Helvetica-34" x="111.230469"/>
     <use xlink:href="#Helvetica-20" x="166.845703"/>
     <use xlink:href="#Helvetica-6d" x="194.628906"/>
     <use xlink:href="#Helvetica-2f" x="277.929688"/>
     <use xlink:href="#Helvetica-7a" x="305.712891"/>
     <use xlink:href="#Helvetica-20" x="355.712891"/>
     <use xlink:href="#Helvetica-66" x="383.496094"/>
     <use xlink:href="#Helvetica-6f" x="411.279297"/>
     <use xlink:href="#Helvetica-72" x="466.894531"/>
     <use xlink:href="#Helvetica-20" x="500.195312"/>
     <use xlink:href="#Helvetica-44" x="527.978516"/>
     <use xlink:href="#Helvetica-79" x="600.195312"/>
     <use xlink:href="#Helvetica-6e" x="650.195312"/>
     <use xlink:href="#Helvetica-61" x="705.810547"/>
     <use xlink:href="#Helvetica-6d" x="761.425781"/>
     <use xlink:href="#Helvetica-69" x="844.726562"/>
     <use xlink:href="#Helvetica-63" x="866.943359"/>
     <use xlink:href="#Helvetica-20" x="916.943359"/>
     <use xlink:href="#Helvetica-54" x="944.726562"/>
     <use xlink:href="#Helvetica-47" x="1005.810547"/>
     <use xlink:href="#Helvetica-41" x="1083.59375"/>
    </g>
   </g>
   <g id="legend_2">
    <g id="patch_9">
     <path d="M 59.6 280.6365 
L 148.7725 280.6365 
Q 150.3725 280.6365 150.3725 279.0365 
L 150.3725 257.024 
Q 150.3725 255.424 148.7725 255.424 
L 59.6 255.424 
Q 58 255.424 58 257.024 
L 58 279.0365 
Q 58 280.6365 59.6 280.6365 
z
" style="fill: #ffffff; opacity: 0.8; stroke: #cccccc; stroke-linejoin: miter"/>
    </g>
    <g id="line2d_36">
     <path d="M 61.2 261.56275 
L 69.2 261.56275 
L 77.2 261.56275 
" style="fill: none; stroke: #f5c92a; stroke-width: 1.5; stroke-linecap: square"/>
    </g>
    <g id="text_38">
     <!-- PS-SCF3-1K_min -->
     <g transform="translate(83.6 264.36275) scale(0.08 -0.08)">
      <use xlink:href="#Helvetica-50"/>
      <use xlink:href="#Helvetica-53" x="66.699219"/>
      <use xlink:href="#Helvetica-2d" x="133.398438"/>
      <use xlink:href="#Helvetica-53" x="166.699219"/>
      <use xlink:href="#Helvetica-43" x="233.398438"/>
      <use xlink:href="#Helvetica-46" x="305.615234"/>
      <use xlink:href="#Helvetica-33" x="366.699219"/>
      <use xlink:href="#Helvetica-2d" x="422.314453"/>
      <use xlink:href="#Helvetica-31" x="455.615234"/>
      <use xlink:href="#Helvetica-4b" x="511.230469"/>
      <use xlink:href="#Helvetica-5f" x="577.929688"/>
      <use xlink:href="#Helvetica-6d" x="633.544922"/>
      <use xlink:href="#Helvetica-69" x="716.845703"/>
      <use xlink:href="#Helvetica-6e" x="739.0625"/>
     </g>
    </g>
    <g id="line2d_37">
     <path d="M 61.2 272.969 
L 69.2 272.969 
L 77.2 272.969 
" style="fill: none; stroke: #8286ff; stroke-width: 1.5; stroke-linecap: square"/>
    </g>
    <g id="text_39">
     <!-- PS-6.1K-1K_min -->
     <g transform="translate(83.6 275.769) scale(0.08 -0.08)">
      <use xlink:href="#Helvetica-50"/>
      <use xlink:href="#Helvetica-53" x="66.699219"/>
      <use xlink:href="#Helvetica-2d" x="133.398438"/>
      <use xlink:href="#Helvetica-36" x="166.699219"/>
      <use xlink:href="#Helvetica-2e" x="222.314453"/>
      <use xlink:href="#Helvetica-31" x="250.097656"/>
      <use xlink:href="#Helvetica-4b" x="305.712891"/>
      <use xlink:href="#Helvetica-2d" x="372.412109"/>
      <use xlink:href="#Helvetica-31" x="405.712891"/>
      <use xlink:href="#Helvetica-4b" x="461.328125"/>
      <use xlink:href="#Helvetica-5f" x="528.027344"/>
      <use xlink:href="#Helvetica-6d" x="583.642578"/>
      <use xlink:href="#Helvetica-69" x="666.943359"/>
      <use xlink:href="#Helvetica-6e" x="689.160156"/>
     </g>
    </g>
   </g>
  </g>
 </g>
 <defs>
  <clipPath id="p66312f6db1">
   <rect x="54" y="51.84" width="334.8" height="133.056"/>
  </clipPath>
  <clipPath id="pa9a8898968">
   <rect x="54" y="251.424" width="334.8" height="133.056"/>
  </clipPath>
 </defs>
</svg>
