<?xml version="1.0" encoding="utf-8" standalone="no"?>
<!DOCTYPE svg PUBLIC "-//W3C//DTD SVG 1.1//EN"
  "http://www.w3.org/Graphics/SVG/1.1/DTD/svg11.dtd">
<svg xmlns:xlink="http://www.w3.org/1999/xlink" width="432pt" height="432pt" viewBox="0 0 432 432" xmlns="http://www.w3.org/2000/svg" version="1.1">
 <metadata>
  <rdf:RDF xmlns:dc="http://purl.org/dc/elements/1.1/" xmlns:cc="http://creativecommons.org/ns#" xmlns:rdf="http://www.w3.org/1999/02/22-rdf-syntax-ns#">
   <cc:Work>
    <dc:type rdf:resource="http://purl.org/dc/dcmitype/StillImage"/>
    <dc:date>2024-07-17T00:00:53.933076</dc:date>
    <dc:format>image/svg+xml</dc:format>
    <dc:creator>
     <cc:Agent>
      <dc:title>Matplotlib v3.7.1, https://matplotlib.org/</dc:title>
     </cc:Agent>
    </dc:creator>
   </cc:Work>
  </rdf:RDF>
 </metadata>
 <defs>
  <style type="text/css">*{stroke-linejoin: round; stroke-linecap: butt}</style>
 </defs>
 <g id="figure_1">
  <g id="patch_1">
   <path d="M 0 432 
L 432 432 
L 432 0 
L 0 0 
z
" style="fill: #ffffff"/>
  </g>
  <g id="axes_1">
   <g id="patch_2">
    <path d="M 54 184.896 
L 388.8 184.896 
L 388.8 51.84 
L 54 51.84 
z
" style="fill: #ffffff"/>
   </g>
   <g id="matplotlib.axis_1">
    <g id="xtick_1">
     <g id="line2d_1">
      <defs>
       <path id="mdc2fe08108" d="M 0 0 
L 0 -3.5 
" style="stroke: #000000; stroke-width: 0.8"/>
      </defs>
      <g>
       <use xlink:href="#mdc2fe08108" x="54" y="184.896" style="stroke: #000000; stroke-width: 0.8"/>
      </g>
     </g>
     <g id="text_1">
      <!-- 0 -->
      <g transform="translate(50.663438 197.004125) scale(0.12 -0.12)">
       <defs>
        <path id="Helvetica-30" d="M 1731 4475 
Q 2600 4475 2988 3759 
Q 3288 3206 3288 2244 
Q 3288 1331 3016 734 
Q 2622 -122 1728 -122 
Q 922 -122 528 578 
Q 200 1163 200 2147 
Q 200 2909 397 3456 
Q 766 4475 1731 4475 
z
M 1725 391 
Q 2163 391 2422 778 
Q 2681 1166 2681 2222 
Q 2681 2984 2493 3476 
Q 2306 3969 1766 3969 
Q 1269 3969 1039 3501 
Q 809 3034 809 2125 
Q 809 1441 956 1025 
Q 1181 391 1725 391 
z
" transform="scale(0.015625)"/>
       </defs>
       <use xlink:href="#Helvetica-30"/>
      </g>
     </g>
    </g>
    <g id="xtick_2">
     <g id="line2d_2">
      <g>
       <use xlink:href="#mdc2fe08108" x="109.8" y="184.896" style="stroke: #000000; stroke-width: 0.8"/>
      </g>
     </g>
     <g id="text_2">
      <!-- 50 -->
      <g transform="translate(103.126875 197.004125) scale(0.12 -0.12)">
       <defs>
        <path id="Helvetica-35" d="M 791 1141 
Q 847 659 1238 475 
Q 1438 381 1700 381 
Q 2200 381 2440 700 
Q 2681 1019 2681 1406 
Q 2681 1875 2395 2131 
Q 2109 2388 1709 2388 
Q 1419 2388 1211 2275 
Q 1003 2163 856 1963 
L 369 1991 
L 709 4400 
L 3034 4400 
L 3034 3856 
L 1131 3856 
L 941 2613 
Q 1097 2731 1238 2791 
Q 1488 2894 1816 2894 
Q 2431 2894 2859 2497 
Q 3288 2100 3288 1491 
Q 3288 856 2895 371 
Q 2503 -113 1644 -113 
Q 1097 -113 676 195 
Q 256 503 206 1141 
L 791 1141 
z
" transform="scale(0.015625)"/>
       </defs>
       <use xlink:href="#Helvetica-35"/>
       <use xlink:href="#Helvetica-30" x="55.615234"/>
      </g>
     </g>
    </g>
    <g id="xtick_3">
     <g id="line2d_3">
      <g>
       <use xlink:href="#mdc2fe08108" x="165.6" y="184.896" style="stroke: #000000; stroke-width: 0.8"/>
      </g>
     </g>
     <g id="text_3">
      <!-- 100 -->
      <g transform="translate(155.590313 197.004125) scale(0.12 -0.12)">
       <defs>
        <path id="Helvetica-31" d="M 613 3169 
L 613 3600 
Q 1222 3659 1462 3798 
Q 1703 3938 1822 4456 
L 2266 4456 
L 2266 0 
L 1666 0 
L 1666 3169 
L 613 3169 
z
" transform="scale(0.015625)"/>
       </defs>
       <use xlink:href="#Helvetica-31"/>
       <use xlink:href="#Helvetica-30" x="55.615234"/>
       <use xlink:href="#Helvetica-30" x="111.230469"/>
      </g>
     </g>
    </g>
    <g id="xtick_4">
     <g id="line2d_4">
      <g>
       <use xlink:href="#mdc2fe08108" x="221.4" y="184.896" style="stroke: #000000; stroke-width: 0.8"/>
      </g>
     </g>
     <g id="text_4">
      <!-- 150 -->
      <g transform="translate(211.390312 197.004125) scale(0.12 -0.12)">
       <use xlink:href="#Helvetica-31"/>
       <use xlink:href="#Helvetica-35" x="55.615234"/>
       <use xlink:href="#Helvetica-30" x="111.230469"/>
      </g>
     </g>
    </g>
    <g id="xtick_5">
     <g id="line2d_5">
      <g>
       <use xlink:href="#mdc2fe08108" x="277.2" y="184.896" style="stroke: #000000; stroke-width: 0.8"/>
      </g>
     </g>
     <g id="text_5">
      <!-- 200 -->
      <g transform="translate(267.190313 197.004125) scale(0.12 -0.12)">
       <defs>
        <path id="Helvetica-32" d="M 200 0 
Q 231 578 439 1006 
Q 647 1434 1250 1784 
L 1850 2131 
Q 2253 2366 2416 2531 
Q 2672 2791 2672 3125 
Q 2672 3516 2437 3745 
Q 2203 3975 1813 3975 
Q 1234 3975 1013 3538 
Q 894 3303 881 2888 
L 309 2888 
Q 319 3472 525 3841 
Q 891 4491 1816 4491 
Q 2584 4491 2939 4075 
Q 3294 3659 3294 3150 
Q 3294 2613 2916 2231 
Q 2697 2009 2131 1694 
L 1703 1456 
Q 1397 1288 1222 1134 
Q 909 863 828 531 
L 3272 531 
L 3272 0 
L 200 0 
z
" transform="scale(0.015625)"/>
       </defs>
       <use xlink:href="#Helvetica-32"/>
       <use xlink:href="#Helvetica-30" x="55.615234"/>
       <use xlink:href="#Helvetica-30" x="111.230469"/>
      </g>
     </g>
    </g>
    <g id="xtick_6">
     <g id="line2d_6">
      <g>
       <use xlink:href="#mdc2fe08108" x="333" y="184.896" style="stroke: #000000; stroke-width: 0.8"/>
      </g>
     </g>
     <g id="text_6">
      <!-- 250 -->
      <g transform="translate(322.990313 197.004125) scale(0.12 -0.12)">
       <use xlink:href="#Helvetica-32"/>
       <use xlink:href="#Helvetica-35" x="55.615234"/>
       <use xlink:href="#Helvetica-30" x="111.230469"/>
      </g>
     </g>
    </g>
    <g id="xtick_7">
     <g id="line2d_7">
      <g>
       <use xlink:href="#mdc2fe08108" x="388.8" y="184.896" style="stroke: #000000; stroke-width: 0.8"/>
      </g>
     </g>
     <g id="text_7">
      <!-- 300 -->
      <g transform="translate(378.790313 197.004125) scale(0.12 -0.12)">
       <defs>
        <path id="Helvetica-33" d="M 1663 -122 
Q 869 -122 511 314 
Q 153 750 153 1375 
L 741 1375 
Q 778 941 903 744 
Q 1122 391 1694 391 
Q 2138 391 2406 628 
Q 2675 866 2675 1241 
Q 2675 1703 2392 1887 
Q 2109 2072 1606 2072 
Q 1550 2072 1492 2070 
Q 1434 2069 1375 2066 
L 1375 2563 
Q 1463 2553 1522 2550 
Q 1581 2547 1650 2547 
Q 1966 2547 2169 2647 
Q 2525 2822 2525 3272 
Q 2525 3606 2287 3787 
Q 2050 3969 1734 3969 
Q 1172 3969 956 3594 
Q 838 3388 822 3006 
L 266 3006 
Q 266 3506 466 3856 
Q 809 4481 1675 4481 
Q 2359 4481 2734 4176 
Q 3109 3872 3109 3294 
Q 3109 2881 2888 2625 
Q 2750 2466 2531 2375 
Q 2884 2278 3082 2001 
Q 3281 1725 3281 1325 
Q 3281 684 2859 281 
Q 2438 -122 1663 -122 
z
" transform="scale(0.015625)"/>
       </defs>
       <use xlink:href="#Helvetica-33"/>
       <use xlink:href="#Helvetica-30" x="55.615234"/>
       <use xlink:href="#Helvetica-30" x="111.230469"/>
      </g>
     </g>
    </g>
    <g id="text_8">
     <!-- Time (min) -->
     <g transform="translate(192.737813 212.201625) scale(0.12 -0.12)">
      <defs>
       <path id="Helvetica-54" d="M 3828 4591 
L 3828 4044 
L 2281 4044 
L 2281 0 
L 1650 0 
L 1650 4044 
L 103 4044 
L 103 4591 
L 3828 4591 
z
" transform="scale(0.015625)"/>
       <path id="Helvetica-69" d="M 413 3331 
L 984 3331 
L 984 0 
L 413 0 
L 413 3331 
z
M 413 4591 
L 984 4591 
L 984 3953 
L 413 3953 
L 413 4591 
z
" transform="scale(0.015625)"/>
       <path id="Helvetica-6d" d="M 413 3347 
L 969 3347 
L 969 2872 
Q 1169 3119 1331 3231 
Q 1609 3422 1963 3422 
Q 2363 3422 2606 3225 
Q 2744 3113 2856 2894 
Q 3044 3163 3297 3292 
Q 3550 3422 3866 3422 
Q 4541 3422 4784 2934 
Q 4916 2672 4916 2228 
L 4916 0 
L 4331 0 
L 4331 2325 
Q 4331 2659 4164 2784 
Q 3997 2909 3756 2909 
Q 3425 2909 3186 2687 
Q 2947 2466 2947 1947 
L 2947 0 
L 2375 0 
L 2375 2184 
Q 2375 2525 2294 2681 
Q 2166 2916 1816 2916 
Q 1497 2916 1236 2669 
Q 975 2422 975 1775 
L 975 0 
L 413 0 
L 413 3347 
z
" transform="scale(0.015625)"/>
       <path id="Helvetica-65" d="M 1806 3422 
Q 2163 3422 2497 3255 
Q 2831 3088 3006 2822 
Q 3175 2569 3231 2231 
Q 3281 2000 3281 1494 
L 828 1494 
Q 844 984 1069 676 
Q 1294 369 1766 369 
Q 2206 369 2469 659 
Q 2619 828 2681 1050 
L 3234 1050 
Q 3213 866 3089 639 
Q 2966 413 2813 269 
Q 2556 19 2178 -69 
Q 1975 -119 1719 -119 
Q 1094 -119 659 336 
Q 225 791 225 1609 
Q 225 2416 662 2919 
Q 1100 3422 1806 3422 
z
M 2703 1941 
Q 2669 2306 2544 2525 
Q 2313 2931 1772 2931 
Q 1384 2931 1121 2651 
Q 859 2372 844 1941 
L 2703 1941 
z
M 1753 3428 
L 1753 3428 
z
" transform="scale(0.015625)"/>
       <path id="Helvetica-20" transform="scale(0.015625)"/>
       <path id="Helvetica-28" d="M 1894 4666 
Q 1403 3713 1256 3263 
Q 1034 2578 1034 1681 
Q 1034 775 1288 25 
Q 1444 -438 1903 -1306 
L 1525 -1306 
Q 1069 -594 959 -397 
Q 850 -200 722 138 
Q 547 600 478 1125 
Q 444 1397 444 1644 
Q 444 2569 734 3291 
Q 919 3750 1503 4666 
L 1894 4666 
z
" transform="scale(0.015625)"/>
       <path id="Helvetica-6e" d="M 413 3347 
L 947 3347 
L 947 2872 
Q 1184 3166 1450 3294 
Q 1716 3422 2041 3422 
Q 2753 3422 3003 2925 
Q 3141 2653 3141 2147 
L 3141 0 
L 2569 0 
L 2569 2109 
Q 2569 2416 2478 2603 
Q 2328 2916 1934 2916 
Q 1734 2916 1606 2875 
Q 1375 2806 1200 2600 
Q 1059 2434 1017 2257 
Q 975 2081 975 1753 
L 975 0 
L 413 0 
L 413 3347 
z
M 1734 3428 
L 1734 3428 
z
" transform="scale(0.015625)"/>
       <path id="Helvetica-29" d="M 222 -1306 
Q 719 -338 863 106 
Q 1081 778 1081 1681 
Q 1081 2584 828 3334 
Q 672 3797 213 4666 
L 591 4666 
Q 1072 3897 1173 3717 
Q 1275 3538 1394 3222 
Q 1544 2831 1608 2450 
Q 1672 2069 1672 1716 
Q 1672 791 1378 66 
Q 1194 -400 613 -1306 
L 222 -1306 
z
" transform="scale(0.015625)"/>
      </defs>
      <use xlink:href="#Helvetica-54"/>
      <use xlink:href="#Helvetica-69" x="61.083984"/>
      <use xlink:href="#Helvetica-6d" x="83.300781"/>
      <use xlink:href="#Helvetica-65" x="166.601562"/>
      <use xlink:href="#Helvetica-20" x="222.216797"/>
      <use xlink:href="#Helvetica-28" x="250"/>
      <use xlink:href="#Helvetica-6d" x="283.300781"/>
      <use xlink:href="#Helvetica-69" x="366.601562"/>
      <use xlink:href="#Helvetica-6e" x="388.818359"/>
      <use xlink:href="#Helvetica-29" x="444.433594"/>
     </g>
    </g>
   </g>
   <g id="matplotlib.axis_2">
    <g id="ytick_1">
     <g id="line2d_8">
      <defs>
       <path id="mb7dc4b3aba" d="M 0 0 
L 3.5 0 
" style="stroke: #000000; stroke-width: 0.8"/>
      </defs>
      <g>
       <use xlink:href="#mb7dc4b3aba" x="54" y="184.896" style="stroke: #000000; stroke-width: 0.8"/>
      </g>
     </g>
     <g id="text_9">
      <!-- 0 -->
      <g transform="translate(43.826875 189.200062) scale(0.12 -0.12)">
       <use xlink:href="#Helvetica-30"/>
      </g>
     </g>
    </g>
    <g id="ytick_2">
     <g id="line2d_9">
      <g>
       <use xlink:href="#mb7dc4b3aba" x="54" y="158.2848" style="stroke: #000000; stroke-width: 0.8"/>
      </g>
     </g>
     <g id="text_10">
      <!-- 20 -->
      <g transform="translate(37.15375 162.588862) scale(0.12 -0.12)">
       <use xlink:href="#Helvetica-32"/>
       <use xlink:href="#Helvetica-30" x="55.615234"/>
      </g>
     </g>
    </g>
    <g id="ytick_3">
     <g id="line2d_10">
      <g>
       <use xlink:href="#mb7dc4b3aba" x="54" y="131.6736" style="stroke: #000000; stroke-width: 0.8"/>
      </g>
     </g>
     <g id="text_11">
      <!-- 40 -->
      <g transform="translate(37.15375 135.977662) scale(0.12 -0.12)">
       <defs>
        <path id="Helvetica-34" d="M 2116 1584 
L 2116 3613 
L 681 1584 
L 2116 1584 
z
M 2125 0 
L 2125 1094 
L 163 1094 
L 163 1644 
L 2213 4488 
L 2688 4488 
L 2688 1584 
L 3347 1584 
L 3347 1094 
L 2688 1094 
L 2688 0 
L 2125 0 
z
" transform="scale(0.015625)"/>
       </defs>
       <use xlink:href="#Helvetica-34"/>
       <use xlink:href="#Helvetica-30" x="55.615234"/>
      </g>
     </g>
    </g>
    <g id="ytick_4">
     <g id="line2d_11">
      <g>
       <use xlink:href="#mb7dc4b3aba" x="54" y="105.0624" style="stroke: #000000; stroke-width: 0.8"/>
      </g>
     </g>
     <g id="text_12">
      <!-- 60 -->
      <g transform="translate(37.15375 109.366462) scale(0.12 -0.12)">
       <defs>
        <path id="Helvetica-36" d="M 1872 4494 
Q 2622 4494 2917 4105 
Q 3213 3716 3213 3303 
L 2656 3303 
Q 2606 3569 2497 3719 
Q 2294 4000 1881 4000 
Q 1409 4000 1131 3564 
Q 853 3128 822 2316 
Q 1016 2600 1309 2741 
Q 1578 2866 1909 2866 
Q 2472 2866 2890 2506 
Q 3309 2147 3309 1434 
Q 3309 825 2912 354 
Q 2516 -116 1781 -116 
Q 1153 -116 697 361 
Q 241 838 241 1966 
Q 241 2800 444 3381 
Q 834 4494 1872 4494 
z
M 1831 384 
Q 2275 384 2495 682 
Q 2716 981 2716 1388 
Q 2716 1731 2519 2042 
Q 2322 2353 1803 2353 
Q 1441 2353 1167 2112 
Q 894 1872 894 1388 
Q 894 963 1142 673 
Q 1391 384 1831 384 
z
" transform="scale(0.015625)"/>
       </defs>
       <use xlink:href="#Helvetica-36"/>
       <use xlink:href="#Helvetica-30" x="55.615234"/>
      </g>
     </g>
    </g>
    <g id="ytick_5">
     <g id="line2d_12">
      <g>
       <use xlink:href="#mb7dc4b3aba" x="54" y="78.4512" style="stroke: #000000; stroke-width: 0.8"/>
      </g>
     </g>
     <g id="text_13">
      <!-- 80 -->
      <g transform="translate(37.15375 82.755262) scale(0.12 -0.12)">
       <defs>
        <path id="Helvetica-38" d="M 1741 2600 
Q 2113 2600 2322 2808 
Q 2531 3016 2531 3303 
Q 2531 3553 2331 3762 
Q 2131 3972 1722 3972 
Q 1316 3972 1134 3762 
Q 953 3553 953 3272 
Q 953 2956 1187 2778 
Q 1422 2600 1741 2600 
z
M 1775 384 
Q 2166 384 2423 595 
Q 2681 806 2681 1225 
Q 2681 1659 2415 1884 
Q 2150 2109 1734 2109 
Q 1331 2109 1076 1879 
Q 822 1650 822 1244 
Q 822 894 1055 639 
Q 1288 384 1775 384 
z
M 975 2384 
Q 741 2484 609 2619 
Q 363 2869 363 3269 
Q 363 3769 725 4128 
Q 1088 4488 1753 4488 
Q 2397 4488 2762 4148 
Q 3128 3809 3128 3356 
Q 3128 2938 2916 2678 
Q 2797 2531 2547 2391 
Q 2825 2263 2984 2097 
Q 3281 1784 3281 1284 
Q 3281 694 2884 283 
Q 2488 -128 1763 -128 
Q 1109 -128 657 226 
Q 206 581 206 1256 
Q 206 1653 400 1942 
Q 594 2231 975 2384 
z
" transform="scale(0.015625)"/>
       </defs>
       <use xlink:href="#Helvetica-38"/>
       <use xlink:href="#Helvetica-30" x="55.615234"/>
      </g>
     </g>
    </g>
    <g id="ytick_6">
     <g id="line2d_13">
      <g>
       <use xlink:href="#mb7dc4b3aba" x="54" y="51.84" style="stroke: #000000; stroke-width: 0.8"/>
      </g>
     </g>
     <g id="text_14">
      <!-- 100 -->
      <g transform="translate(30.480625 56.144062) scale(0.12 -0.12)">
       <use xlink:href="#Helvetica-31"/>
       <use xlink:href="#Helvetica-30" x="55.615234"/>
       <use xlink:href="#Helvetica-30" x="111.230469"/>
      </g>
     </g>
    </g>
    <g id="text_15">
     <!-- Mass (%) -->
     <g transform="translate(23.979375 143.700187) rotate(-90) scale(0.12 -0.12)">
      <defs>
       <path id="Helvetica-4d" d="M 472 4591 
L 1363 4591 
L 2681 709 
L 3991 4591 
L 4872 4591 
L 4872 0 
L 4281 0 
L 4281 2709 
Q 4281 2850 4287 3175 
Q 4294 3500 4294 3872 
L 2984 0 
L 2369 0 
L 1050 3872 
L 1050 3731 
Q 1050 3563 1058 3217 
Q 1066 2872 1066 2709 
L 1066 0 
L 472 0 
L 472 4591 
z
" transform="scale(0.015625)"/>
       <path id="Helvetica-61" d="M 844 891 
Q 844 647 1022 506 
Q 1200 366 1444 366 
Q 1741 366 2019 503 
Q 2488 731 2488 1250 
L 2488 1703 
Q 2384 1638 2221 1594 
Q 2059 1550 1903 1531 
L 1563 1488 
Q 1256 1447 1103 1359 
Q 844 1213 844 891 
z
M 2206 2028 
Q 2400 2053 2466 2191 
Q 2503 2266 2503 2406 
Q 2503 2694 2298 2823 
Q 2094 2953 1713 2953 
Q 1272 2953 1088 2716 
Q 984 2584 953 2325 
L 428 2325 
Q 444 2944 830 3186 
Q 1216 3428 1725 3428 
Q 2316 3428 2684 3203 
Q 3050 2978 3050 2503 
L 3050 575 
Q 3050 488 3086 434 
Q 3122 381 3238 381 
Q 3275 381 3322 386 
Q 3369 391 3422 400 
L 3422 -16 
Q 3291 -53 3222 -62 
Q 3153 -72 3034 -72 
Q 2744 -72 2613 134 
Q 2544 244 2516 444 
Q 2344 219 2022 53 
Q 1700 -113 1313 -113 
Q 847 -113 551 170 
Q 256 453 256 878 
Q 256 1344 547 1600 
Q 838 1856 1309 1916 
L 2206 2028 
z
M 1741 3428 
L 1741 3428 
z
" transform="scale(0.015625)"/>
       <path id="Helvetica-73" d="M 747 1050 
Q 772 769 888 619 
Q 1100 347 1625 347 
Q 1938 347 2175 483 
Q 2413 619 2413 903 
Q 2413 1119 2222 1231 
Q 2100 1300 1741 1391 
L 1294 1503 
Q 866 1609 663 1741 
Q 300 1969 300 2372 
Q 300 2847 642 3140 
Q 984 3434 1563 3434 
Q 2319 3434 2653 2991 
Q 2863 2709 2856 2384 
L 2325 2384 
Q 2309 2575 2191 2731 
Q 1997 2953 1519 2953 
Q 1200 2953 1036 2831 
Q 872 2709 872 2509 
Q 872 2291 1088 2159 
Q 1213 2081 1456 2022 
L 1828 1931 
Q 2434 1784 2641 1647 
Q 2969 1431 2969 969 
Q 2969 522 2630 197 
Q 2291 -128 1597 -128 
Q 850 -128 539 211 
Q 228 550 206 1050 
L 747 1050 
z
M 1578 3428 
L 1578 3428 
z
" transform="scale(0.015625)"/>
       <path id="Helvetica-25" d="M 4363 2175 
Q 4813 2175 5131 1856 
Q 5450 1538 5450 1088 
Q 5450 638 5131 319 
Q 4813 0 4363 0 
Q 3909 0 3590 319 
Q 3272 638 3272 1088 
Q 3272 1538 3590 1856 
Q 3909 2175 4363 2175 
z
M 3909 4456 
L 4256 4456 
L 1753 -119 
L 1406 -119 
L 3909 4456 
z
M 1294 2606 
Q 1563 2606 1752 2795 
Q 1941 2984 1941 3250 
Q 1941 3516 1752 3705 
Q 1563 3894 1294 3894 
Q 1028 3894 839 3706 
Q 650 3519 650 3250 
Q 650 2984 839 2795 
Q 1028 2606 1294 2606 
z
M 1294 4341 
Q 1747 4341 2065 4020 
Q 2384 3700 2384 3250 
Q 2384 2800 2065 2481 
Q 1747 2163 1294 2163 
Q 844 2163 525 2481 
Q 206 2800 206 3250 
Q 206 3700 525 4020 
Q 844 4341 1294 4341 
z
M 4363 444 
Q 4628 444 4817 633 
Q 5006 822 5006 1088 
Q 5006 1353 4817 1542 
Q 4628 1731 4363 1731 
Q 4094 1731 3905 1542 
Q 3716 1353 3716 1088 
Q 3716 822 3905 633 
Q 4094 444 4363 444 
z
" transform="scale(0.015625)"/>
      </defs>
      <use xlink:href="#Helvetica-4d"/>
      <use xlink:href="#Helvetica-61" x="83.300781"/>
      <use xlink:href="#Helvetica-73" x="138.916016"/>
      <use xlink:href="#Helvetica-73" x="188.916016"/>
      <use xlink:href="#Helvetica-20" x="238.916016"/>
      <use xlink:href="#Helvetica-28" x="266.699219"/>
      <use xlink:href="#Helvetica-25" x="300"/>
      <use xlink:href="#Helvetica-29" x="388.916016"/>
     </g>
    </g>
   </g>
   <g id="line2d_14">
    <path d="M 81.9 51.84 
L 84.69 51.588205 
L 87.48 51.57917 
L 90.27 51.507094 
L 93.06 51.543139 
L 95.85 52.040915 
L 98.64 53.854109 
L 101.43 59.073736 
L 104.22 68.959664 
L 107.01 78.447435 
L 109.8 86.80391 
L 112.59 94.151302 
L 115.38 100.746117 
L 118.17 106.748699 
L 120.96 112.248768 
L 123.75 117.250024 
L 126.54 121.912505 
L 129.33 126.150778 
L 132.12 130.023386 
L 134.91 133.527616 
L 137.7 136.791466 
L 140.49 139.765906 
L 143.28 142.557727 
L 146.07 145.054896 
L 148.86 147.439153 
L 151.65 149.580237 
L 154.44 151.606693 
L 157.23 153.478338 
L 160.02 155.235383 
L 162.81 156.846265 
L 165.6 158.328509 
L 168.39 159.742309 
L 171.18 161.083087 
L 173.97 162.317927 
L 176.76 163.464976 
L 179.55 164.575435 
L 182.34 165.631926 
L 185.13 166.577449 
L 187.92 167.562409 
L 190.71 168.464915 
L 193.5 169.313612 
L 196.29 170.120145 
L 199.08 170.848413 
L 201.87 171.604451 
L 204.66 172.330165 
L 207.45 172.983776 
L 210.24 173.643494 
L 213.03 174.21018 
L 215.82 174.830926 
L 218.61 175.358652 
L 221.4 175.907295 
L 224.19 176.387042 
L 226.98 176.89992 
L 229.77 177.346536 
L 232.56 177.772474 
L 235.35 178.170724 
L 238.14 178.590955 
L 240.93 178.995685 
L 243.72 179.286718 
L 246.51 179.667591 
L 249.3 179.973194 
L 252.09 180.291264 
L 254.88 180.59712 
L 257.67 180.893982 
L 260.46 181.187663 
L 263.25 181.430716 
L 266.04 181.730305 
L 268.83 181.919471 
L 271.62 182.162258 
L 274.41 182.396037 
L 277.2 182.576009 
L 279.99 182.783696 
L 282.78 182.962976 
L 285.57 183.124665 
L 288.36 183.2776 
L 291.15 183.457665 
L 293.94 183.610506 
L 296.73 183.763441 
L 299.52 183.90444 
L 302.31 184.030351 
L 305.1 184.21313 
L 307.89 184.315277 
L 310.68 184.429253 
L 313.47 184.528113 
L 316.26 184.653998 
L 319.05 184.734856 
L 321.84 184.806254 
L 324.63 184.896798 
L 327.42 185.00786 
L 330.21 185.061921 
L 333 185.118909 
L 335.79 185.217783 
L 338.58 185.253828 
L 341.37 185.2957 
L 344.16 185.36779 
L 346.95 185.397914 
L 349.74 185.445002 
L 352.53 185.448635 
L 355.32 185.4815 
L 358.11 185.586468 
L 360.9 185.568678 
L 363.69 185.607663 
L 366.48 185.589648 
L 369.27 185.462113 
L 372.06 184.368766 
L 374.85 183.7318 
L 377.64 183.244629 
L 380.43 182.799596 
L 383.22 182.354032 
L 386.01 181.90562 
L 388.8 181.490605 
L 391.59 181.088017 
L 394.38 180.725719 
L 397.17 180.416271 
L 399.96 180.141097 
L 402.75 179.930057 
L 405.54 179.676147 
L 408.33 179.511729 
L 411.12 179.334605 
L 413.91 179.172011 
L 416.7 179.0108 
" clip-path="url(#pe03a09f853)" style="fill: none; stroke: #f5c92a; stroke-width: 1.5; stroke-linecap: square"/>
   </g>
   <g id="line2d_15">
    <path d="M 81.9 51.84 
L 84.69 51.667546 
L 87.48 51.504952 
L 90.27 51.348478 
L 93.06 51.43869 
L 95.85 52.464871 
L 98.64 55.51176 
L 101.43 62.687284 
L 104.22 73.378081 
L 107.01 82.388726 
L 109.8 89.773294 
L 112.59 95.944219 
L 115.38 101.279525 
L 118.17 105.965278 
L 120.96 110.144048 
L 123.75 113.913644 
L 126.54 117.309566 
L 129.33 120.528191 
L 132.12 123.408414 
L 134.91 126.087643 
L 137.7 128.524843 
L 140.49 130.901649 
L 143.28 133.056837 
L 146.07 135.143235 
L 148.86 137.041558 
L 151.65 138.964417 
L 154.44 140.625594 
L 157.23 142.314341 
L 160.02 143.895046 
L 162.81 145.391115 
L 165.6 146.81665 
L 168.39 148.175112 
L 171.18 149.491648 
L 173.97 150.725875 
L 176.76 151.950789 
L 179.55 153.083787 
L 182.34 154.185065 
L 185.13 155.253771 
L 187.92 156.26819 
L 190.71 157.23113 
L 193.5 158.173791 
L 196.29 159.083136 
L 199.08 159.956236 
L 201.87 160.77799 
L 204.66 161.596364 
L 207.45 162.331552 
L 210.24 163.102212 
L 213.03 163.788515 
L 215.82 164.480939 
L 218.61 165.137171 
L 221.4 165.841835 
L 224.19 166.41371 
L 226.98 166.946479 
L 229.77 167.560653 
L 232.56 168.108391 
L 235.35 168.584386 
L 238.14 169.080951 
L 240.93 169.544784 
L 243.72 170.059444 
L 246.51 170.465797 
L 249.3 170.941606 
L 252.09 171.314961 
L 254.88 171.706145 
L 257.67 172.151777 
L 260.46 172.489047 
L 263.25 172.814329 
L 266.04 173.147514 
L 268.83 173.46142 
L 271.62 173.786609 
L 274.41 174.093689 
L 277.2 174.373652 
L 279.99 174.665577 
L 282.78 174.89124 
L 285.57 175.198333 
L 288.36 175.424262 
L 291.15 175.658973 
L 293.94 175.860686 
L 296.73 176.140662 
L 299.52 176.339421 
L 302.31 176.556303 
L 305.1 176.788086 
L 307.89 177.031832 
L 310.68 177.194439 
L 313.47 177.341812 
L 316.26 177.543578 
L 319.05 177.7091 
L 321.84 177.859733 
L 324.63 178.052384 
L 327.42 178.236002 
L 330.21 178.392023 
L 333 178.54557 
L 335.79 178.738687 
L 338.58 178.844068 
L 341.37 179.006595 
L 344.16 179.176189 
L 346.95 179.27783 
L 349.74 179.434304 
L 352.53 179.50642 
L 355.32 179.636017 
L 358.11 179.753372 
L 360.9 179.893347 
L 363.69 180.000324 
L 366.48 180.114752 
L 369.27 180.073904 
L 372.06 179.097007 
L 374.85 179.065353 
L 377.64 180.431239 
L 380.43 182.878844 
L 383.22 183.877656 
L 386.01 183.394237 
L 388.8 183.016544 
L 391.59 182.562131 
L 394.38 182.182775 
L 397.17 181.854034 
L 399.96 181.586817 
L 402.75 181.336925 
L 405.54 181.135199 
L 408.33 180.945621 
L 411.12 180.770891 
L 413.91 180.599662 
L 416.7 180.535954 
" clip-path="url(#pe03a09f853)" style="fill: none; stroke: #8286ff; stroke-width: 1.5; stroke-linecap: square"/>
   </g>
   <g id="patch_3">
    <path d="M 54 184.896 
L 54 51.84 
" style="fill: none; stroke: #000000; stroke-width: 0.5; stroke-linejoin: miter; stroke-linecap: square"/>
   </g>
   <g id="patch_4">
    <path d="M 54 184.896 
L 388.8 184.896 
" style="fill: none; stroke: #000000; stroke-width: 0.5; stroke-linejoin: miter; stroke-linecap: square"/>
   </g>
   <g id="text_16">
    <!-- Isothermal TGA at 350°C -->
    <g transform="translate(167.72925 45.84) scale(0.096 -0.096)">
     <defs>
      <path id="Helvetica-49" d="M 628 4591 
L 1256 4591 
L 1256 0 
L 628 0 
L 628 4591 
z
" transform="scale(0.015625)"/>
      <path id="Helvetica-6f" d="M 1741 363 
Q 2300 363 2508 786 
Q 2716 1209 2716 1728 
Q 2716 2197 2566 2491 
Q 2328 2953 1747 2953 
Q 1231 2953 997 2559 
Q 763 2166 763 1609 
Q 763 1075 997 719 
Q 1231 363 1741 363 
z
M 1763 3444 
Q 2409 3444 2856 3012 
Q 3303 2581 3303 1744 
Q 3303 934 2909 406 
Q 2516 -122 1688 -122 
Q 997 -122 590 345 
Q 184 813 184 1600 
Q 184 2444 612 2944 
Q 1041 3444 1763 3444 
z
M 1744 3428 
L 1744 3428 
z
" transform="scale(0.015625)"/>
      <path id="Helvetica-74" d="M 525 4281 
L 1094 4281 
L 1094 3347 
L 1628 3347 
L 1628 2888 
L 1094 2888 
L 1094 703 
Q 1094 528 1213 469 
Q 1278 434 1431 434 
Q 1472 434 1519 436 
Q 1566 438 1628 444 
L 1628 0 
Q 1531 -28 1426 -40 
Q 1322 -53 1200 -53 
Q 806 -53 665 148 
Q 525 350 525 672 
L 525 2888 
L 72 2888 
L 72 3347 
L 525 3347 
L 525 4281 
z
" transform="scale(0.015625)"/>
      <path id="Helvetica-68" d="M 413 4606 
L 975 4606 
L 975 2894 
Q 1175 3147 1334 3250 
Q 1606 3428 2013 3428 
Q 2741 3428 3000 2919 
Q 3141 2641 3141 2147 
L 3141 0 
L 2563 0 
L 2563 2109 
Q 2563 2478 2469 2650 
Q 2316 2925 1894 2925 
Q 1544 2925 1259 2684 
Q 975 2444 975 1775 
L 975 0 
L 413 0 
L 413 4606 
z
" transform="scale(0.015625)"/>
      <path id="Helvetica-72" d="M 428 3347 
L 963 3347 
L 963 2769 
Q 1028 2938 1284 3180 
Q 1541 3422 1875 3422 
Q 1891 3422 1928 3419 
Q 1966 3416 2056 3406 
L 2056 2813 
Q 2006 2822 1964 2825 
Q 1922 2828 1872 2828 
Q 1447 2828 1219 2554 
Q 991 2281 991 1925 
L 991 0 
L 428 0 
L 428 3347 
z
" transform="scale(0.015625)"/>
      <path id="Helvetica-6c" d="M 428 4591 
L 991 4591 
L 991 0 
L 428 0 
L 428 4591 
z
" transform="scale(0.015625)"/>
      <path id="Helvetica-47" d="M 2472 4709 
Q 3119 4709 3591 4459 
Q 4275 4100 4428 3200 
L 3813 3200 
Q 3700 3703 3347 3933 
Q 2994 4163 2456 4163 
Q 1819 4163 1383 3684 
Q 947 3206 947 2259 
Q 947 1441 1306 927 
Q 1666 413 2478 413 
Q 3100 413 3508 773 
Q 3916 1134 3925 1941 
L 2488 1941 
L 2488 2456 
L 4503 2456 
L 4503 0 
L 4103 0 
L 3953 591 
Q 3638 244 3394 109 
Q 2984 -122 2353 -122 
Q 1538 -122 950 406 
Q 309 1069 309 2225 
Q 309 3378 934 4059 
Q 1528 4709 2472 4709 
z
M 2369 4716 
L 2369 4716 
z
" transform="scale(0.015625)"/>
      <path id="Helvetica-41" d="M 2844 1881 
L 2147 3909 
L 1406 1881 
L 2844 1881 
z
M 1822 4591 
L 2525 4591 
L 4191 0 
L 3509 0 
L 3044 1375 
L 1228 1375 
L 731 0 
L 94 0 
L 1822 4591 
z
" transform="scale(0.015625)"/>
      <path id="Helvetica-b0" d="M 1294 4472 
Q 1691 4472 1962 4198 
Q 2234 3925 2234 3531 
Q 2234 3125 1951 2854 
Q 1669 2584 1294 2584 
Q 878 2584 612 2865 
Q 347 3147 347 3522 
Q 347 3922 626 4197 
Q 906 4472 1294 4472 
z
M 688 3525 
Q 688 3281 866 3103 
Q 1044 2925 1294 2925 
Q 1534 2925 1714 3101 
Q 1894 3278 1894 3531 
Q 1894 3775 1717 3953 
Q 1541 4131 1294 4131 
Q 1047 4131 867 3954 
Q 688 3778 688 3525 
z
" transform="scale(0.015625)"/>
      <path id="Helvetica-43" d="M 2422 4716 
Q 3294 4716 3775 4256 
Q 4256 3797 4309 3213 
L 3703 3213 
Q 3600 3656 3292 3915 
Q 2984 4175 2428 4175 
Q 1750 4175 1333 3698 
Q 916 3222 916 2238 
Q 916 1431 1292 929 
Q 1669 428 2416 428 
Q 3103 428 3463 956 
Q 3653 1234 3747 1688 
L 4353 1688 
Q 4272 963 3816 472 
Q 3269 -119 2341 -119 
Q 1541 -119 997 366 
Q 281 1006 281 2344 
Q 281 3359 819 4009 
Q 1400 4716 2422 4716 
z
M 2297 4716 
L 2297 4716 
z
" transform="scale(0.015625)"/>
     </defs>
     <use xlink:href="#Helvetica-49"/>
     <use xlink:href="#Helvetica-73" x="27.783203"/>
     <use xlink:href="#Helvetica-6f" x="77.783203"/>
     <use xlink:href="#Helvetica-74" x="133.398438"/>
     <use xlink:href="#Helvetica-68" x="161.181641"/>
     <use xlink:href="#Helvetica-65" x="216.796875"/>
     <use xlink:href="#Helvetica-72" x="272.412109"/>
     <use xlink:href="#Helvetica-6d" x="305.712891"/>
     <use xlink:href="#Helvetica-61" x="389.013672"/>
     <use xlink:href="#Helvetica-6c" x="444.628906"/>
     <use xlink:href="#Helvetica-20" x="466.845703"/>
     <use xlink:href="#Helvetica-54" x="494.628906"/>
     <use xlink:href="#Helvetica-47" x="555.712891"/>
     <use xlink:href="#Helvetica-41" x="633.496094"/>
     <use xlink:href="#Helvetica-20" x="700.195312"/>
     <use xlink:href="#Helvetica-61" x="727.978516"/>
     <use xlink:href="#Helvetica-74" x="783.59375"/>
     <use xlink:href="#Helvetica-20" x="811.376953"/>
     <use xlink:href="#Helvetica-33" x="839.160156"/>
     <use xlink:href="#Helvetica-35" x="894.775391"/>
     <use xlink:href="#Helvetica-30" x="950.390625"/>
     <use xlink:href="#Helvetica-b0" x="1006.005859"/>
     <use xlink:href="#Helvetica-43" x="1045.996094"/>
    </g>
   </g>
   <g id="legend_1">
    <g id="patch_5">
     <path d="M 323.815 81.0525 
L 383.2 81.0525 
Q 384.8 81.0525 384.8 79.4525 
L 384.8 57.44 
Q 384.8 55.84 383.2 55.84 
L 323.815 55.84 
Q 322.215 55.84 322.215 57.44 
L 322.215 79.4525 
Q 322.215 81.0525 323.815 81.0525 
z
" style="fill: #ffffff; opacity: 0.8; stroke: #cccccc; stroke-linejoin: miter"/>
    </g>
    <g id="line2d_16">
     <path d="M 325.415 61.97875 
L 333.415 61.97875 
L 341.415 61.97875 
" style="fill: none; stroke: #f5c92a; stroke-width: 1.5; stroke-linecap: square"/>
    </g>
    <g id="text_17">
     <!-- PS-SCF3 -->
     <g transform="translate(347.815 64.77875) scale(0.08 -0.08)">
      <defs>
       <path id="Helvetica-50" d="M 547 4591 
L 2613 4591 
Q 3225 4591 3600 4245 
Q 3975 3900 3975 3275 
Q 3975 2738 3640 2339 
Q 3306 1941 2613 1941 
L 1169 1941 
L 1169 0 
L 547 0 
L 547 4591 
z
M 3347 3272 
Q 3347 3778 2972 3959 
Q 2766 4056 2406 4056 
L 1169 4056 
L 1169 2466 
L 2406 2466 
Q 2825 2466 3086 2644 
Q 3347 2822 3347 3272 
z
" transform="scale(0.015625)"/>
       <path id="Helvetica-53" d="M 894 1481 
Q 916 1091 1078 847 
Q 1388 391 2169 391 
Q 2519 391 2806 491 
Q 3363 684 3363 1184 
Q 3363 1559 3128 1719 
Q 2891 1875 2384 1991 
L 1763 2131 
Q 1153 2269 900 2434 
Q 463 2722 463 3294 
Q 463 3913 891 4309 
Q 1319 4706 2103 4706 
Q 2825 4706 3329 4357 
Q 3834 4009 3834 3244 
L 3250 3244 
Q 3203 3613 3050 3809 
Q 2766 4169 2084 4169 
Q 1534 4169 1293 3937 
Q 1053 3706 1053 3400 
Q 1053 3063 1334 2906 
Q 1519 2806 2169 2656 
L 2813 2509 
Q 3278 2403 3531 2219 
Q 3969 1897 3969 1284 
Q 3969 522 3414 194 
Q 2859 -134 2125 -134 
Q 1269 -134 784 303 
Q 300 738 309 1481 
L 894 1481 
z
M 2150 4716 
L 2150 4716 
z
" transform="scale(0.015625)"/>
       <path id="Helvetica-2d" d="M 266 2072 
L 1834 2072 
L 1834 1494 
L 266 1494 
L 266 2072 
z
" transform="scale(0.015625)"/>
       <path id="Helvetica-46" d="M 547 4591 
L 3731 4591 
L 3731 4028 
L 1169 4028 
L 1169 2634 
L 3422 2634 
L 3422 2088 
L 1169 2088 
L 1169 0 
L 547 0 
L 547 4591 
z
" transform="scale(0.015625)"/>
      </defs>
      <use xlink:href="#Helvetica-50"/>
      <use xlink:href="#Helvetica-53" x="66.699219"/>
      <use xlink:href="#Helvetica-2d" x="133.398438"/>
      <use xlink:href="#Helvetica-53" x="166.699219"/>
      <use xlink:href="#Helvetica-43" x="233.398438"/>
      <use xlink:href="#Helvetica-46" x="305.615234"/>
      <use xlink:href="#Helvetica-33" x="366.699219"/>
     </g>
    </g>
    <g id="line2d_17">
     <path d="M 325.415 73.385 
L 333.415 73.385 
L 341.415 73.385 
" style="fill: none; stroke: #8286ff; stroke-width: 1.5; stroke-linecap: square"/>
    </g>
    <g id="text_18">
     <!-- PS-6.1K -->
     <g transform="translate(347.815 76.185) scale(0.08 -0.08)">
      <defs>
       <path id="Helvetica-2e" d="M 547 681 
L 1200 681 
L 1200 0 
L 547 0 
L 547 681 
z
" transform="scale(0.015625)"/>
       <path id="Helvetica-4b" d="M 488 4591 
L 1094 4591 
L 1094 2353 
L 3331 4591 
L 4191 4591 
L 2281 2741 
L 4244 0 
L 3434 0 
L 1828 2303 
L 1094 1600 
L 1094 0 
L 488 0 
L 488 4591 
z
" transform="scale(0.015625)"/>
      </defs>
      <use xlink:href="#Helvetica-50"/>
      <use xlink:href="#Helvetica-53" x="66.699219"/>
      <use xlink:href="#Helvetica-2d" x="133.398438"/>
      <use xlink:href="#Helvetica-36" x="166.699219"/>
      <use xlink:href="#Helvetica-2e" x="222.314453"/>
      <use xlink:href="#Helvetica-31" x="250.097656"/>
      <use xlink:href="#Helvetica-4b" x="305.712891"/>
     </g>
    </g>
   </g>
  </g>
  <g id="axes_2">
   <g id="patch_6">
    <path d="M 54 384.48 
L 388.8 384.48 
L 388.8 251.424 
L 54 251.424 
z
" style="fill: #ffffff"/>
   </g>
   <g id="matplotlib.axis_3">
    <g id="xtick_8">
     <g id="line2d_18">
      <g>
       <use xlink:href="#mdc2fe08108" x="54" y="384.48" style="stroke: #000000; stroke-width: 0.8"/>
      </g>
     </g>
     <g id="text_19">
      <!-- 0 -->
      <g transform="translate(50.663438 396.588125) scale(0.12 -0.12)">
       <use xlink:href="#Helvetica-30"/>
      </g>
     </g>
    </g>
    <g id="xtick_9">
     <g id="line2d_19">
      <g>
       <use xlink:href="#mdc2fe08108" x="109.8" y="384.48" style="stroke: #000000; stroke-width: 0.8"/>
      </g>
     </g>
     <g id="text_20">
      <!-- 50 -->
      <g transform="translate(103.126875 396.588125) scale(0.12 -0.12)">
       <use xlink:href="#Helvetica-35"/>
       <use xlink:href="#Helvetica-30" x="55.615234"/>
      </g>
     </g>
    </g>
    <g id="xtick_10">
     <g id="line2d_20">
      <g>
       <use xlink:href="#mdc2fe08108" x="165.6" y="384.48" style="stroke: #000000; stroke-width: 0.8"/>
      </g>
     </g>
     <g id="text_21">
      <!-- 100 -->
      <g transform="translate(155.590313 396.588125) scale(0.12 -0.12)">
       <use xlink:href="#Helvetica-31"/>
       <use xlink:href="#Helvetica-30" x="55.615234"/>
       <use xlink:href="#Helvetica-30" x="111.230469"/>
      </g>
     </g>
    </g>
    <g id="xtick_11">
     <g id="line2d_21">
      <g>
       <use xlink:href="#mdc2fe08108" x="221.4" y="384.48" style="stroke: #000000; stroke-width: 0.8"/>
      </g>
     </g>
     <g id="text_22">
      <!-- 150 -->
      <g transform="translate(211.390312 396.588125) scale(0.12 -0.12)">
       <use xlink:href="#Helvetica-31"/>
       <use xlink:href="#Helvetica-35" x="55.615234"/>
       <use xlink:href="#Helvetica-30" x="111.230469"/>
      </g>
     </g>
    </g>
    <g id="xtick_12">
     <g id="line2d_22">
      <g>
       <use xlink:href="#mdc2fe08108" x="277.2" y="384.48" style="stroke: #000000; stroke-width: 0.8"/>
      </g>
     </g>
     <g id="text_23">
      <!-- 200 -->
      <g transform="translate(267.190313 396.588125) scale(0.12 -0.12)">
       <use xlink:href="#Helvetica-32"/>
       <use xlink:href="#Helvetica-30" x="55.615234"/>
       <use xlink:href="#Helvetica-30" x="111.230469"/>
      </g>
     </g>
    </g>
    <g id="xtick_13">
     <g id="line2d_23">
      <g>
       <use xlink:href="#mdc2fe08108" x="333" y="384.48" style="stroke: #000000; stroke-width: 0.8"/>
      </g>
     </g>
     <g id="text_24">
      <!-- 250 -->
      <g transform="translate(322.990313 396.588125) scale(0.12 -0.12)">
       <use xlink:href="#Helvetica-32"/>
       <use xlink:href="#Helvetica-35" x="55.615234"/>
       <use xlink:href="#Helvetica-30" x="111.230469"/>
      </g>
     </g>
    </g>
    <g id="xtick_14">
     <g id="line2d_24">
      <g>
       <use xlink:href="#mdc2fe08108" x="388.8" y="384.48" style="stroke: #000000; stroke-width: 0.8"/>
      </g>
     </g>
     <g id="text_25">
      <!-- 300 -->
      <g transform="translate(378.790313 396.588125) scale(0.12 -0.12)">
       <use xlink:href="#Helvetica-33"/>
       <use xlink:href="#Helvetica-30" x="55.615234"/>
       <use xlink:href="#Helvetica-30" x="111.230469"/>
      </g>
     </g>
    </g>
    <g id="text_26">
     <!-- Time (min) -->
     <g transform="translate(192.737813 411.785625) scale(0.12 -0.12)">
      <use xlink:href="#Helvetica-54"/>
      <use xlink:href="#Helvetica-69" x="61.083984"/>
      <use xlink:href="#Helvetica-6d" x="83.300781"/>
      <use xlink:href="#Helvetica-65" x="166.601562"/>
      <use xlink:href="#Helvetica-20" x="222.216797"/>
      <use xlink:href="#Helvetica-28" x="250"/>
      <use xlink:href="#Helvetica-6d" x="283.300781"/>
      <use xlink:href="#Helvetica-69" x="366.601562"/>
      <use xlink:href="#Helvetica-6e" x="388.818359"/>
      <use xlink:href="#Helvetica-29" x="444.433594"/>
     </g>
    </g>
   </g>
   <g id="matplotlib.axis_4">
    <g id="ytick_7">
     <g id="line2d_25">
      <g>
       <use xlink:href="#mb7dc4b3aba" x="54" y="378.432011" style="stroke: #000000; stroke-width: 0.8"/>
      </g>
     </g>
     <g id="text_27">
      <!-- 0.00 -->
      <g transform="translate(27.146875 382.736074) scale(0.12 -0.12)">
       <use xlink:href="#Helvetica-30"/>
       <use xlink:href="#Helvetica-2e" x="55.615234"/>
       <use xlink:href="#Helvetica-30" x="83.398438"/>
       <use xlink:href="#Helvetica-30" x="139.013672"/>
      </g>
     </g>
    </g>
    <g id="ytick_8">
     <g id="line2d_26">
      <g>
       <use xlink:href="#mb7dc4b3aba" x="54" y="349.74577" style="stroke: #000000; stroke-width: 0.8"/>
      </g>
     </g>
     <g id="text_28">
      <!-- 0.25 -->
      <g transform="translate(27.146875 354.049833) scale(0.12 -0.12)">
       <use xlink:href="#Helvetica-30"/>
       <use xlink:href="#Helvetica-2e" x="55.615234"/>
       <use xlink:href="#Helvetica-32" x="83.398438"/>
       <use xlink:href="#Helvetica-35" x="139.013672"/>
      </g>
     </g>
    </g>
    <g id="ytick_9">
     <g id="line2d_27">
      <g>
       <use xlink:href="#mb7dc4b3aba" x="54" y="321.059529" style="stroke: #000000; stroke-width: 0.8"/>
      </g>
     </g>
     <g id="text_29">
      <!-- 0.50 -->
      <g transform="translate(27.146875 325.363591) scale(0.12 -0.12)">
       <use xlink:href="#Helvetica-30"/>
       <use xlink:href="#Helvetica-2e" x="55.615234"/>
       <use xlink:href="#Helvetica-35" x="83.398438"/>
       <use xlink:href="#Helvetica-30" x="139.013672"/>
      </g>
     </g>
    </g>
    <g id="ytick_10">
     <g id="line2d_28">
      <g>
       <use xlink:href="#mb7dc4b3aba" x="54" y="292.373288" style="stroke: #000000; stroke-width: 0.8"/>
      </g>
     </g>
     <g id="text_30">
      <!-- 0.75 -->
      <g transform="translate(27.146875 296.67735) scale(0.12 -0.12)">
       <defs>
        <path id="Helvetica-37" d="M 3347 4400 
L 3347 3909 
Q 3131 3700 2773 3181 
Q 2416 2663 2141 2063 
Q 1869 1478 1728 997 
Q 1638 688 1494 0 
L 872 0 
Q 1084 1281 1809 2550 
Q 2238 3294 2709 3834 
L 234 3834 
L 234 4400 
L 3347 4400 
z
" transform="scale(0.015625)"/>
       </defs>
       <use xlink:href="#Helvetica-30"/>
       <use xlink:href="#Helvetica-2e" x="55.615234"/>
       <use xlink:href="#Helvetica-37" x="83.398438"/>
       <use xlink:href="#Helvetica-35" x="139.013672"/>
      </g>
     </g>
    </g>
    <g id="ytick_11">
     <g id="line2d_29">
      <g>
       <use xlink:href="#mb7dc4b3aba" x="54" y="263.687046" style="stroke: #000000; stroke-width: 0.8"/>
      </g>
     </g>
     <g id="text_31">
      <!-- 1.00 -->
      <g transform="translate(27.146875 267.991109) scale(0.12 -0.12)">
       <use xlink:href="#Helvetica-31"/>
       <use xlink:href="#Helvetica-2e" x="55.615234"/>
       <use xlink:href="#Helvetica-30" x="83.398438"/>
       <use xlink:href="#Helvetica-30" x="139.013672"/>
      </g>
     </g>
    </g>
    <g id="text_32">
     <!-- Ion Current (A) -->
     <g transform="translate(20.645625 357.628875) rotate(-90) scale(0.12 -0.12)">
      <defs>
       <path id="Helvetica-75" d="M 975 3347 
L 975 1125 
Q 975 869 1056 706 
Q 1206 406 1616 406 
Q 2203 406 2416 931 
Q 2531 1213 2531 1703 
L 2531 3347 
L 3094 3347 
L 3094 0 
L 2563 0 
L 2569 494 
Q 2459 303 2297 172 
Q 1975 -91 1516 -91 
Q 800 -91 541 388 
Q 400 644 400 1072 
L 400 3347 
L 975 3347 
z
M 1747 3428 
L 1747 3428 
z
" transform="scale(0.015625)"/>
      </defs>
      <use xlink:href="#Helvetica-49"/>
      <use xlink:href="#Helvetica-6f" x="27.783203"/>
      <use xlink:href="#Helvetica-6e" x="83.398438"/>
      <use xlink:href="#Helvetica-20" x="139.013672"/>
      <use xlink:href="#Helvetica-43" x="166.796875"/>
      <use xlink:href="#Helvetica-75" x="239.013672"/>
      <use xlink:href="#Helvetica-72" x="294.628906"/>
      <use xlink:href="#Helvetica-72" x="327.929688"/>
      <use xlink:href="#Helvetica-65" x="361.230469"/>
      <use xlink:href="#Helvetica-6e" x="416.845703"/>
      <use xlink:href="#Helvetica-74" x="472.460938"/>
      <use xlink:href="#Helvetica-20" x="500.244141"/>
      <use xlink:href="#Helvetica-28" x="528.027344"/>
      <use xlink:href="#Helvetica-41" x="561.328125"/>
      <use xlink:href="#Helvetica-29" x="628.027344"/>
     </g>
    </g>
    <g id="text_33">
     <!-- 1e−10 -->
     <g transform="translate(54 248.424) scale(0.08 -0.08)">
      <defs>
       <path id="Helvetica-2212" d="M 3547 1894 
L 3547 1369 
L 288 1369 
L 288 1894 
L 3547 1894 
z
" transform="scale(0.015625)"/>
      </defs>
      <use xlink:href="#Helvetica-31"/>
      <use xlink:href="#Helvetica-65" x="55.615234"/>
      <use xlink:href="#Helvetica-2212" x="111.230469"/>
      <use xlink:href="#Helvetica-31" x="169.628906"/>
      <use xlink:href="#Helvetica-30" x="225.244141"/>
     </g>
    </g>
   </g>
   <g id="line2d_30">
    <path d="M 81.910814 378.36155 
L 84.295048 378.329443 
L 84.893079 378.36967 
L 85.687648 378.310731 
L 87.686627 378.356976 
L 88.480025 378.321433 
L 89.882212 378.314123 
L 93.885416 378.213974 
L 96.875213 377.710598 
L 98.685432 376.522522 
L 98.886714 376.205528 
L 99.089235 376.135952 
L 100.087575 374.7989 
L 101.683176 370.866006 
L 102.882865 366.087289 
L 104.485474 355.877535 
L 105.284976 349.173893 
L 105.689169 345.9698 
L 107.706931 327.463044 
L 107.915065 326.033895 
L 108.324726 321.678612 
L 108.526722 320.503337 
L 108.928092 316.550752 
L 110.141451 306.430728 
L 110.340378 306.216246 
L 110.744594 302.338073 
L 110.942393 301.396981 
L 111.341419 297.507872 
L 111.541663 296.623671 
L 112.339157 291.136888 
L 112.737647 289.701176 
L 113.343546 285.669795 
L 113.758385 283.702263 
L 114.370868 281.46772 
L 114.570208 279.305385 
L 114.774414 279.856907 
L 114.975986 277.928767 
L 115.18441 277.484486 
L 115.386183 276.30921 
L 115.592877 275.779582 
L 115.792362 274.409516 
L 115.996177 274.140324 
L 116.203017 274.376687 
L 116.409689 272.958485 
L 116.616684 272.518588 
L 116.822486 271.732883 
L 117.025542 270.054164 
L 117.226054 270.347441 
L 118.048389 267.565747 
L 118.255251 267.274662 
L 118.459635 267.567928 
L 118.662614 266.661855 
L 119.07771 265.674808 
L 119.283578 265.718583 
L 119.490474 265.453752 
L 119.697134 264.182182 
L 119.905235 263.853908 
L 120.113358 264.05306 
L 120.732269 261.927891 
L 120.939533 263.094503 
L 121.146405 261.43334 
L 121.354484 261.601901 
L 121.559928 262.22554 
L 121.766924 259.743721 
L 121.967235 261.015325 
L 122.380992 260.85996 
L 122.58051 259.441712 
L 122.787383 259.592716 
L 122.995439 259.910101 
L 123.203316 259.892545 
L 123.410714 259.174701 
L 123.618881 259.907921 
L 123.818422 258.378026 
L 124.025306 259.100346 
L 124.441965 258.170108 
L 124.648916 258.52685 
L 124.847954 257.472 
L 125.055129 258.846415 
L 125.255618 258.555307 
L 125.46104 258.645038 
L 125.666451 258.157027 
L 125.865769 258.752324 
L 126.278209 257.758748 
L 126.684154 259.135343 
L 126.892823 258.848595 
L 127.099707 259.00396 
L 127.298757 258.673495 
L 127.502974 259.973555 
L 127.707559 258.929605 
L 127.915202 258.942686 
L 128.123292 259.474529 
L 128.330589 258.222662 
L 128.744435 259.437352 
L 128.952881 259.135343 
L 129.161774 259.351982 
L 129.369964 259.378258 
L 129.575587 260.061105 
L 129.985215 260.076366 
L 130.193092 260.369655 
L 130.400255 260.989048 
L 130.601615 260.890597 
L 130.804002 261.304252 
L 131.009201 261.26914 
L 131.216107 261.411424 
L 131.420714 260.732937 
L 131.628603 262.127088 
L 131.831838 261.809819 
L 132.038934 261.82726 
L 132.245695 261.6587 
L 132.659307 262.801215 
L 132.86599 262.385379 
L 133.073332 262.678668 
L 133.273899 263.624051 
L 133.480571 263.486243 
L 133.684989 264.14279 
L 133.884452 264.19314 
L 134.083557 263.635067 
L 134.489045 265.051066 
L 134.696576 264.418557 
L 134.899487 265.843334 
L 135.105166 264.68994 
L 135.313222 266.114706 
L 135.715384 266.987961 
L 136.120425 266.182566 
L 136.327108 267.701433 
L 136.526905 267.751772 
L 136.732997 268.434608 
L 136.939044 267.843694 
L 137.144645 268.741011 
L 137.350313 268.736639 
L 137.557275 268.859199 
L 137.764549 268.393024 
L 138.363362 270.275209 
L 138.570636 270.001645 
L 138.779027 270.881521 
L 139.19323 271.150713 
L 139.397045 270.870586 
L 139.604175 271.809475 
L 139.811282 271.665034 
L 140.223522 272.463866 
L 140.428029 273.210178 
L 140.636151 272.910338 
L 140.841317 273.328366 
L 141.254795 274.569287 
L 141.456289 273.807667 
L 141.662369 275.357183 
L 141.869956 274.726866 
L 142.485687 276.212917 
L 142.69102 275.969978 
L 143.094755 277.307216 
L 143.300546 277.484486 
L 143.707852 278.690398 
L 143.908219 278.618178 
L 144.116431 278.666325 
L 144.324721 279.618363 
L 144.531427 279.09967 
L 144.730722 279.712466 
L 145.146164 280.323081 
L 145.350749 279.931319 
L 145.551819 281.073777 
L 145.757219 280.598848 
L 145.961547 281.953573 
L 146.161679 282.214021 
L 146.368552 282.098025 
L 146.576697 282.402237 
L 146.7776 283.435251 
L 147.189102 283.144166 
L 147.397248 284.956322 
L 147.59911 283.649733 
L 147.803405 284.816253 
L 148.003503 284.455139 
L 148.414761 286.105332 
L 148.825973 286.081259 
L 149.029978 286.875707 
L 149.443155 287.298106 
L 149.649648 286.429246 
L 150.059812 288.026909 
L 150.464529 288.887026 
L 150.670029 289.245959 
L 150.87717 289.309413 
L 151.078519 289.707739 
L 151.287456 289.162781 
L 151.486194 290.193615 
L 151.689317 290.335865 
L 151.892585 290.721052 
L 152.099346 291.56585 
L 152.302157 291.165333 
L 152.508182 291.56585 
L 152.71607 292.688595 
L 152.924706 292.246506 
L 153.131691 293.367059 
L 153.336231 293.693153 
L 153.539388 293.356113 
L 153.744844 293.616561 
L 153.949462 294.365054 
L 154.36053 293.77632 
L 154.766129 295.619113 
L 154.972901 295.581913 
L 155.174797 295.697908 
L 155.381513 295.945218 
L 155.587728 296.553642 
L 155.790873 296.676201 
L 155.996586 297.356856 
L 156.201193 296.588662 
L 156.408099 298.54963 
L 156.613923 297.444395 
L 156.822147 298.643733 
L 157.030292 298.418316 
L 157.231529 299.184319 
L 157.438525 298.722528 
L 157.638813 299.718331 
L 157.844302 299.792743 
L 158.047782 300.983337 
L 158.459218 301.160618 
L 158.662297 300.641925 
L 159.07746 301.718703 
L 159.281777 301.723075 
L 159.491652 302.079828 
L 159.902329 302.274608 
L 160.308218 303.85258 
L 160.507692 303.495838 
L 160.712556 303.607451 
L 160.915958 304.883403 
L 161.117039 304.526661 
L 161.724165 305.898908 
L 161.925492 305.163542 
L 162.12953 306.472323 
L 162.3356 305.581558 
L 162.537942 307.277718 
L 162.74487 306.34538 
L 162.95085 307.338991 
L 163.154174 307.271154 
L 163.768465 308.328231 
L 163.976544 309.306535 
L 164.178004 308.866626 
L 164.3825 309.372192 
L 164.587118 309.306535 
L 164.999648 309.641395 
L 165.206588 310.278264 
L 165.411329 310.433663 
L 165.614318 310.963292 
L 165.820365 311.131817 
L 166.020966 310.884496 
L 166.634688 312.193277 
L 166.842878 311.928457 
L 167.046347 311.902192 
L 167.663305 313.609299 
L 167.869297 313.351042 
L 168.073346 313.828152 
L 168.280688 313.972604 
L 168.486132 314.460661 
L 168.693083 314.289943 
L 169.106059 315.316394 
L 169.310633 315.163187 
L 169.512093 315.655626 
L 169.719569 315.773802 
L 169.91882 316.233413 
L 171.146866 317.154804 
L 171.353917 317.951455 
L 171.971244 318.404491 
L 172.3747 319.001968 
L 172.574353 319.177057 
L 172.781427 319.102645 
L 173.190273 319.912423 
L 173.392269 319.441877 
L 173.597836 320.678426 
L 174.005299 320.919173 
L 174.213321 320.671863 
L 174.41553 321.54949 
L 174.614713 321.840563 
L 174.824532 321.58451 
L 175.0328 322.254208 
L 175.239963 322.389905 
L 175.448376 322.08131 
L 175.65266 322.993957 
L 176.06183 322.919545 
L 176.684804 323.908784 
L 176.891744 323.420728 
L 177.097757 324.57193 
L 177.305679 324.053225 
L 177.514081 324.709807 
L 177.717126 324.405595 
L 177.926454 325.298529 
L 178.134979 324.637587 
L 178.543781 325.506447 
L 178.960663 325.955111 
L 179.164511 325.865381 
L 179.371585 326.935596 
L 179.578012 326.670776 
L 179.988298 326.891832 
L 180.191622 326.679531 
L 180.393339 327.546211 
L 180.599431 327.425843 
L 180.804685 327.66877 
L 181.010331 327.587795 
L 181.421844 328.502622 
L 181.629912 328.143699 
L 181.83453 328.231238 
L 182.038825 328.914086 
L 182.452247 329.27738 
L 182.66037 329.192032 
L 182.8625 329.242371 
L 183.067833 329.695407 
L 183.271224 329.566273 
L 183.475552 329.91426 
L 183.676276 329.940525 
L 183.881776 330.599288 
L 184.489483 330.625553 
L 184.903184 331.676077 
L 185.110771 331.413449 
L 185.320155 331.509743 
L 185.524696 331.334654 
L 185.725152 332.065648 
L 185.927148 332.166314 
L 186.126889 332.579958 
L 186.737531 332.549321 
L 186.944627 333.052696 
L 187.355282 332.886361 
L 187.558595 334.028808 
L 187.969896 333.683013 
L 188.177952 333.634866 
L 188.382549 333.812135 
L 188.585694 334.378975 
L 188.792745 334.573766 
L 189.001125 334.438069 
L 189.203567 334.967709 
L 189.408978 335.033366 
L 189.60824 334.61535 
L 190.019977 335.595834 
L 190.226002 335.571761 
L 190.639859 335.692128 
L 190.846543 336.099209 
L 191.053203 335.952576 
L 191.46234 336.775481 
L 191.665129 336.186759 
L 191.871254 336.856457 
L 192.076877 336.722962 
L 192.484473 337.14535 
L 192.689293 337.200072 
L 192.896222 337.90479 
L 193.101967 337.626843 
L 193.307724 337.826006 
L 193.513425 338.386283 
L 193.716125 337.784422 
L 193.917607 338.289989 
L 194.331453 338.320625 
L 194.531965 338.52198 
L 194.735959 339.150094 
L 194.944372 338.679548 
L 195.144794 338.793363 
L 195.555851 339.622832 
L 195.76163 339.679734 
L 195.969965 339.579056 
L 196.176637 339.808868 
L 196.382427 339.465252 
L 196.582336 340.104324 
L 196.786609 340.163418 
L 196.991908 340.091186 
L 197.191761 340.27285 
L 197.390175 340.73245 
L 197.596055 340.677728 
L 197.993529 341.327747 
L 198.200525 340.986323 
L 198.40588 341.386829 
L 198.613144 341.01696 
L 199.226096 342.021518 
L 199.424866 341.916469 
L 199.826068 342.35857 
L 200.034359 341.912097 
L 200.847353 342.901405 
L 201.051224 343.034911 
L 201.249214 342.770091 
L 201.656922 343.428853 
L 201.855503 343.306294 
L 202.676053 343.838114 
L 202.880047 344.207995 
L 203.077836 344.002268 
L 203.485365 344.514398 
L 203.891232 344.175166 
L 204.099645 344.57348 
L 204.306741 344.547227 
L 204.513413 345.308846 
L 204.72013 344.604129 
L 204.925307 344.903957 
L 205.131131 344.877704 
L 205.328942 345.157842 
L 205.536183 345.954482 
L 205.73915 345.38545 
L 205.946235 345.790339 
L 206.154324 345.639323 
L 206.565425 345.66778 
L 206.771963 346.333106 
L 206.976805 345.775021 
L 207.379313 346.372498 
L 207.585683 346.267449 
L 207.793438 346.646073 
L 208.00059 346.755505 
L 208.198479 346.663583 
L 208.402562 347.070663 
L 208.602259 347.188851 
L 208.806107 347.153831 
L 209.011987 347.25888 
L 209.216059 346.886819 
L 209.421358 347.103492 
L 209.621781 347.508381 
L 209.823498 347.359557 
L 210.031855 347.904515 
L 210.427432 347.66814 
L 211.249165 348.453845 
L 211.65703 348.103678 
L 212.055933 348.926583 
L 212.461777 348.786514 
L 212.669923 348.915636 
L 212.87809 348.849979 
L 213.077307 348.580787 
L 213.282517 349.316154 
L 213.485741 349.110427 
L 213.683876 349.578782 
L 213.881564 349.530635 
L 214.079977 349.707904 
L 214.278346 349.734169 
L 214.480275 349.924577 
L 214.890205 349.692586 
L 215.09566 350.119357 
L 215.300692 350.220034 
L 215.504763 350.143442 
L 215.708244 350.594286 
L 215.91534 350.377613 
L 216.12344 350.37105 
L 216.322758 350.515502 
L 216.527432 350.279128 
L 216.731437 351.084534 
L 216.937127 351.016685 
L 217.144212 350.712474 
L 217.554978 351.498178 
L 217.755836 351.428138 
L 217.955176 351.574771 
L 218.152808 351.156755 
L 218.343946 351.386554 
L 218.553519 351.283685 
L 218.753417 351.940268 
L 218.9601 351.756423 
L 219.364561 351.911811 
L 219.57303 352.251043 
L 219.77997 351.990606 
L 219.987802 352.029998 
L 220.593177 352.675634 
L 220.79332 352.583712 
L 220.995785 352.695324 
L 221.19383 352.533373 
L 221.399118 352.806948 
L 221.604976 352.520246 
L 222.011713 353.130861 
L 222.219669 353.148371 
L 222.424555 353.400053 
L 222.62173 353.130861 
L 222.826761 353.37598 
L 223.033623 353.043311 
L 223.231367 353.811506 
L 223.433218 353.557632 
L 223.64162 353.835579 
L 223.839431 353.76555 
L 224.042297 354.036934 
L 224.240945 353.903428 
L 224.639391 353.896864 
L 224.839054 354.131047 
L 225.04297 354.074134 
L 225.249463 354.24266 
L 225.456381 354.673814 
L 225.664537 354.553435 
L 225.867236 354.739471 
L 226.065572 354.308317 
L 226.271351 354.334582 
L 226.667185 354.953952 
L 226.866045 354.802937 
L 227.269223 355.052438 
L 227.468217 355.326013 
L 227.673717 354.932059 
L 227.879083 354.842328 
L 228.077084 355.067756 
L 228.276881 354.993344 
L 228.47477 355.689318 
L 228.682648 355.437625 
L 228.880927 355.468274 
L 229.082667 355.895045 
L 229.487317 355.678372 
L 229.692773 355.684935 
L 229.901297 356.092016 
L 230.508468 356.113898 
L 230.716547 356.595391 
L 230.917594 356.002285 
L 231.526763 356.693876 
L 231.732854 356.57788 
L 232.145004 356.731088 
L 232.343496 356.77266 
L 232.541765 357.0725 
L 232.73962 356.569125 
L 232.939998 357.03748 
L 233.545752 357.350458 
L 233.744556 357.606512 
L 233.944934 357.387659 
L 234.143626 357.523356 
L 234.343134 357.376712 
L 234.539003 357.418296 
L 234.747539 357.586821 
L 234.949122 357.492708 
L 235.761837 357.978572 
L 235.968364 358.098951 
L 236.574933 357.969817 
L 237.189414 358.615453 
L 237.393407 358.532286 
L 237.592435 358.276221 
L 237.796529 358.532286 
L 237.996806 358.475384 
L 238.401769 358.624208 
L 238.608519 358.967823 
L 238.806553 358.696428 
L 239.012712 358.71613 
L 239.210512 359.127582 
L 239.415019 358.873709 
L 239.61245 358.950313 
L 239.817895 359.324554 
L 240.018451 359.166974 
L 240.216608 359.320182 
L 240.414352 359.274215 
L 241.026434 359.738198 
L 241.229624 359.409912 
L 241.636015 359.707561 
L 242.051982 359.77759 
L 242.255797 359.762271 
L 242.453719 360.029283 
L 242.660581 359.946116 
L 242.858258 360.237201 
L 243.055991 360.206552 
L 243.254025 360.521711 
L 243.452584 360.237201 
L 244.057121 360.456054 
L 244.253593 360.250328 
L 244.467117 360.280976 
L 244.867371 360.64427 
L 245.070226 360.580804 
L 245.268327 361.01633 
L 245.474051 360.885016 
L 245.672844 361.079807 
L 245.878567 360.812796 
L 246.083766 360.843433 
L 246.283262 361.158591 
L 246.487658 361.141081 
L 246.687656 361.362126 
L 247.910547 361.178293 
L 248.109128 361.305224 
L 248.314918 361.622574 
L 248.512729 361.20893 
L 248.712571 361.808599 
L 248.920672 361.554725 
L 249.929759 362.119385 
L 250.129121 361.856757 
L 250.332233 362.123757 
L 250.540322 362.200361 
L 250.740633 361.907084 
L 251.145373 362.182851 
L 251.344579 362.473936 
L 251.545526 362.443287 
L 251.752321 362.252891 
L 251.951504 362.633695 
L 252.151324 362.476116 
L 252.358867 362.751882 
L 252.557883 362.506764 
L 253.161829 362.607442 
L 253.363445 362.397332 
L 253.760206 362.900707 
L 253.96661 362.909462 
L 254.159544 363.038584 
L 254.36096 362.802221 
L 254.571404 362.865687 
L 254.76696 363.327478 
L 254.965095 363.09987 
L 255.165216 363.150208 
L 255.365572 363.071413 
L 255.562479 363.428155 
L 256.166938 363.644828 
L 256.367103 363.274959 
L 256.774845 363.467547 
L 256.975536 363.732367 
L 257.578399 363.727995 
L 257.780752 363.944668 
L 257.980404 363.642636 
L 258.578469 364.24888 
L 258.776358 363.975305 
L 259.185037 364.132884 
L 259.389198 364.174468 
L 259.786985 364.391141 
L 259.995164 364.218231 
L 260.395439 364.529018 
L 260.595962 364.137256 
L 260.998582 364.336419 
L 261.198725 364.07379 
L 261.398656 364.60343 
L 261.59919 364.62312 
L 261.80468 364.986426 
L 262.012177 364.63845 
L 262.217421 365.010499 
L 262.618244 364.725989 
L 263.01968 365.041148 
L 263.227892 365.091486 
L 263.427745 364.758818 
L 263.630344 365.222801 
L 264.033544 365.157144 
L 264.439567 365.349731 
L 264.645513 365.18778 
L 264.84694 365.456972 
L 265.852021 365.428527 
L 266.050066 365.625498 
L 266.250835 365.612371 
L 266.454683 365.419772 
L 266.659134 365.710857 
L 267.067568 365.467919 
L 267.274687 365.903445 
L 267.475901 365.977857 
L 268.076521 365.87718 
L 268.278875 366.102608 
L 268.477299 365.94722 
L 268.68963 366.137628 
L 268.887195 365.881563 
L 269.087294 366.393693 
L 269.907141 366.179211 
L 270.112641 366.518443 
L 270.320273 366.363056 
L 270.523563 366.551272 
L 270.729019 366.220795 
L 270.92933 366.365236 
L 271.134919 366.363056 
L 271.333032 366.632247 
L 271.937625 366.695713 
L 272.144252 366.509688 
L 272.344596 366.894876 
L 272.548858 366.630056 
L 272.74889 366.844537 
L 272.949424 366.623492 
L 273.149221 366.925524 
L 273.348606 367.004307 
L 273.749417 366.798582 
L 274.364891 367.24724 
L 274.571809 367.024005 
L 274.772276 367.255994 
L 274.976203 367.017439 
L 275.378309 367.280069 
L 275.579713 367.304145 
L 275.784957 367.194713 
L 275.985323 367.393876 
L 276.185054 367.306333 
L 276.386682 367.514248 
L 276.59515 367.317275 
L 276.797102 367.551453 
L 276.998584 367.472665 
L 277.199353 367.593037 
L 277.400545 367.334784 
L 277.599774 367.698089 
L 277.80399 367.689335 
L 278.008029 367.838158 
L 278.215158 367.776879 
L 278.422444 367.58866 
L 278.619931 367.873176 
L 279.234959 367.763746 
L 279.433953 368.002302 
L 279.633326 367.925702 
L 279.832778 367.984795 
L 280.037374 367.840347 
L 280.430608 368.070149 
L 280.837981 368.183037 
L 281.233782 368.142371 
L 281.438981 368.256179 
L 281.840774 368.213568 
L 282.04344 368.455429 
L 283.038622 368.486354 
L 283.436074 368.32442 
L 283.639208 368.542119 
L 283.839977 368.528265 
L 284.038089 368.392638 
L 284.239382 368.770913 
L 284.840225 368.686894 
L 285.037233 368.816021 
L 285.244307 368.78225 
L 285.444071 368.625022 
L 285.644515 368.842481 
L 285.842226 368.695167 
L 286.042291 368.717862 
L 286.23383 368.919848 
L 286.444107 368.796235 
L 286.642922 369.052016 
L 287.252281 369.052936 
L 287.4494 369.09268 
L 287.650626 368.858589 
L 288.058356 369.383435 
L 288.25687 369.086245 
L 288.656387 369.370039 
L 288.856408 369.054839 
L 289.056909 369.431628 
L 289.455566 369.212374 
L 289.653065 369.256496 
L 289.853409 369.555326 
L 290.251642 369.48098 
L 290.652811 369.63394 
L 291.057026 369.401513 
L 291.259346 369.68708 
L 291.659677 369.631226 
L 291.857756 369.778934 
L 292.052822 369.616738 
L 292.449537 369.748731 
L 292.650618 369.812683 
L 292.846566 370.036509 
L 293.045001 369.738073 
L 293.242243 369.949863 
L 294.041935 369.91071 
L 294.245025 370.074853 
L 294.637667 369.966255 
L 295.837178 370.270666 
L 296.039129 370.080237 
L 296.635575 370.444768 
L 296.831556 370.172135 
L 297.223663 370.478757 
L 297.422511 370.382788 
L 297.822352 370.527934 
L 298.220362 370.395788 
L 298.61681 370.611517 
L 298.81182 370.440698 
L 299.206929 370.665641 
L 299.803006 370.593023 
L 300.005181 370.998241 
L 300.397935 370.543605 
L 300.596438 370.891175 
L 300.793256 370.791594 
L 301.194993 370.952631 
L 301.395259 370.792361 
L 301.595671 370.914352 
L 301.988581 370.896822 
L 302.192574 371.030982 
L 302.787748 370.909691 
L 302.993282 371.147219 
L 303.192656 371.029319 
L 303.392386 371.20979 
L 303.592016 371.134086 
L 303.795987 371.238241 
L 303.985652 371.114302 
L 304.977865 371.33594 
L 305.767926 371.303724 
L 306.16164 371.495116 
L 306.759135 371.39908 
L 306.954178 371.288338 
L 307.159042 371.601766 
L 307.554419 371.591611 
L 307.752353 371.745643 
L 307.947117 371.504833 
L 308.14581 371.625796 
L 308.342661 371.596863 
L 308.537403 371.836732 
L 308.734522 371.407747 
L 308.931619 371.812614 
L 309.32733 371.669349 
L 309.730887 372.019392 
L 309.9318 371.829378 
L 310.130203 371.990175 
L 310.328929 371.782849 
L 310.524318 371.843911 
L 310.720701 371.758906 
L 310.921447 371.933031 
L 311.117695 371.733168 
L 311.315953 371.963211 
L 312.316089 372.062924 
L 312.516724 372.210763 
L 312.716053 371.888406 
L 312.915527 372.190387 
L 313.119721 372.00324 
L 313.320333 372.102602 
L 313.517051 372.050755 
L 313.714103 372.193494 
L 313.912103 372.150357 
L 314.114178 372.362497 
L 314.518806 372.134818 
L 314.718469 372.330653 
L 314.920633 372.341247 
L 315.122305 372.225907 
L 315.322125 372.393072 
L 315.524511 372.404759 
L 315.725548 372.17498 
L 316.128368 372.53115 
L 316.326279 372.291915 
L 316.523744 372.527823 
L 317.11345 372.416621 
L 317.315736 372.551153 
L 317.710566 372.512634 
L 317.904459 372.650231 
L 318.108643 372.638785 
L 318.306286 372.449647 
L 318.506218 372.661612 
L 318.70404 372.53533 
L 319.103133 372.775067 
L 319.302484 372.548899 
L 319.699211 372.92201 
L 320.102366 372.671657 
L 321.087704 372.886664 
L 321.289388 372.772747 
L 321.487165 372.982611 
L 321.893814 373.030389 
L 322.291601 372.987667 
L 322.889107 372.892267 
L 323.086539 373.191732 
L 323.482161 373.000448 
L 323.67928 373.101409 
L 323.877526 373.035466 
L 324.076185 373.179235 
L 324.271887 373.091954 
L 324.67089 373.25253 
L 324.869427 373.168489 
L 325.066858 373.244608 
L 325.261321 373.03505 
L 325.856428 373.264831 
L 326.060176 373.167657 
L 327.054064 373.367497 
L 327.254006 373.222022 
L 327.64888 373.524397 
L 327.847461 373.564842 
L 328.236365 373.45747 
L 329.430865 373.609818 
L 329.619714 373.538601 
L 329.822982 373.70826 
L 330.026362 373.520151 
L 331.406687 373.851067 
L 331.605 373.685477 
L 331.805824 373.74772 
L 332.004405 373.586816 
L 332.794053 373.826182 
L 333.195557 373.680815 
L 333.590554 373.79587 
L 333.79034 373.887922 
L 333.986176 373.807338 
L 334.585635 374.059113 
L 334.780768 373.911318 
L 334.979494 373.919 
L 335.179381 374.043881 
L 335.38064 373.815327 
L 335.780291 373.996629 
L 336.9669 374.236936 
L 337.167881 373.981944 
L 337.365915 374.227678 
L 337.562241 374.212883 
L 337.7633 374.009673 
L 338.970622 374.294277 
L 339.972612 374.290819 
L 340.363022 374.307802 
L 340.962504 374.41362 
L 341.163373 374.3976 
L 341.359677 374.536904 
L 341.759071 374.401518 
L 342.556196 374.425592 
L 342.75567 374.339186 
L 343.15608 374.517885 
L 343.546892 374.373022 
L 343.949623 374.545921 
L 345.534666 374.671218 
L 345.733973 374.837156 
L 346.329638 374.691265 
L 346.527996 374.641584 
L 346.726722 374.806538 
L 347.121719 374.686865 
L 348.117671 374.810587 
L 348.316966 374.696496 
L 348.516719 374.895176 
L 348.719128 374.721731 
L 349.718751 374.926822 
L 349.916964 374.81017 
L 350.313356 374.870269 
L 350.709625 374.92297 
L 352.094883 375.062996 
L 352.291053 375.015898 
L 352.489132 375.143339 
L 352.686731 374.959805 
L 353.681388 375.192539 
L 353.880048 375.056212 
L 354.082044 375.060962 
L 354.27808 375.184901 
L 354.876702 375.14647 
L 355.472914 375.377606 
L 355.673895 375.17166 
L 356.472951 375.34828 
L 356.667391 375.18849 
L 356.871017 375.222283 
L 357.072031 375.368502 
L 357.867103 375.249881 
L 358.261553 375.322651 
L 358.454319 375.539364 
L 358.6554 375.285882 
L 359.84394 375.399952 
L 360.242174 375.380561 
L 361.828891 375.594998 
L 362.220239 375.38229 
L 362.619566 375.623012 
L 362.819453 375.488349 
L 363.018045 375.621306 
L 363.420709 375.553087 
L 363.615552 375.665624 
L 364.403983 375.53164 
L 364.800554 375.627696 
L 365.196879 375.699306 
L 365.593483 375.682016 
L 365.793158 375.601018 
L 365.991616 375.704428 
L 366.588341 375.634043 
L 367.178594 375.807094 
L 367.376739 375.710994 
L 367.57945 375.836837 
L 367.982627 375.687948 
L 368.377178 375.804162 
L 368.97012 375.678625 
L 369.368018 375.845395 
L 370.372005 375.740846 
L 370.574403 375.940533 
L 370.775651 375.881791 
L 370.971353 375.957867 
L 371.369854 375.864479 
L 371.765543 375.948346 
L 372.163676 375.893238 
L 372.754911 375.942263 
L 372.950535 375.816747 
L 373.343902 375.963711 
L 373.937525 375.888007 
L 374.139733 376.025604 
L 374.541817 375.965373 
L 374.746904 376.131531 
L 374.943722 375.936966 
L 375.536463 376.016784 
L 375.734988 375.958414 
L 375.933614 376.116933 
L 376.33774 375.745552 
L 376.536231 375.985728 
L 377.733007 375.803746 
L 378.125627 375.802061 
L 378.524475 375.807335 
L 379.910859 375.690202 
L 380.107844 375.512139 
L 380.703721 375.673154 
L 381.095013 375.395969 
L 381.292266 375.612157 
L 381.492153 375.416344 
L 381.692854 375.490363 
L 382.085274 375.365482 
L 382.882834 375.186892 
L 383.082096 375.225894 
L 383.279059 375.078776 
L 383.672929 375.076127 
L 383.875237 374.989526 
L 384.0696 375.069846 
L 384.468514 374.904915 
L 384.664082 375.029205 
L 385.250651 374.79577 
L 386.042799 374.739217 
L 386.243534 374.378078 
L 386.634826 374.596347 
L 386.831543 374.551042 
L 387.028183 374.291585 
L 387.221876 374.361401 
L 388.420359 374.051935 
L 388.618237 374.145059 
L 388.812912 374.045193 
L 388.812912 374.045193 
" clip-path="url(#pd53293f973)" style="fill: none; stroke: #f5c92a; stroke-width: 1.5; stroke-linecap: square"/>
   </g>
   <g id="line2d_31">
    <path d="M 81.87508 378.399894 
L 82.668411 378.410815 
L 88.64843 378.432 
L 89.449997 378.402542 
L 90.050338 378.401317 
L 93.844727 378.255557 
L 95.838327 377.777043 
L 96.232911 377.578407 
L 96.435442 377.514676 
L 98.221165 375.801776 
L 98.619187 375.20659 
L 99.619078 373.258659 
L 100.219486 371.334692 
L 100.625922 369.981838 
L 101.4299 366.579717 
L 103.045053 355.807494 
L 103.856664 348.259066 
L 105.068182 335.195328 
L 106.697386 317.89017 
L 107.103923 312.854231 
L 107.718515 306.225001 
L 107.921716 304.85933 
L 108.743594 296.05465 
L 108.946338 294.726168 
L 109.149104 294.189964 
L 109.353488 291.937911 
L 109.556355 290.961798 
L 110.771489 281.826642 
L 110.979601 280.981855 
L 111.179599 278.918018 
L 111.38799 278.158567 
L 112.629417 271.100386 
L 112.835062 270.817987 
L 113.039569 269.12839 
L 113.240338 268.61408 
L 113.444421 267.528547 
L 113.846382 266.701259 
L 114.05206 266.931059 
L 114.255083 265.296184 
L 114.462894 265.151731 
L 115.069719 263.374596 
L 115.275565 263.273964 
L 115.481054 261.700352 
L 115.684601 263.208216 
L 116.093961 261.400523 
L 116.300019 260.732937 
L 116.502663 261.238503 
L 116.708732 259.857548 
L 117.110391 259.231614 
L 117.317677 259.220713 
L 117.519372 259.095871 
L 117.72456 259.380438 
L 118.741972 257.760928 
L 118.947428 258.677855 
L 119.3519 257.885656 
L 119.559029 258.787322 
L 119.760836 259.148424 
L 119.960153 257.813366 
L 120.363621 259.465809 
L 120.563061 258.421859 
L 120.765135 258.879232 
L 121.37706 259.194437 
L 121.581389 259.502986 
L 121.786889 259.17252 
L 122.194497 260.065466 
L 122.398546 259.678087 
L 122.605754 260.041369 
L 122.813151 261.271321 
L 123.013083 260.30184 
L 123.213137 261.166329 
L 123.415312 261.326054 
L 123.617229 261.282336 
L 123.82254 260.61693 
L 124.028174 260.875221 
L 124.228552 262.122728 
L 124.432947 261.453077 
L 124.836203 263.304601 
L 125.037072 263.470867 
L 125.445617 262.501387 
L 125.652378 263.033229 
L 125.854017 264.118717 
L 126.058379 264.186566 
L 126.258645 265.709828 
L 126.461289 264.86503 
L 126.667849 266.235084 
L 126.87182 265.757963 
L 127.282129 266.86321 
L 127.490006 266.775671 
L 127.895538 267.600768 
L 128.099777 268.681918 
L 128.301506 268.736639 
L 128.503077 267.519781 
L 128.711669 269.664593 
L 128.915942 268.690684 
L 129.120504 269.725879 
L 129.322333 269.642712 
L 129.525121 269.16123 
L 129.727006 271.128831 
L 129.932372 270.870586 
L 130.139368 271.645344 
L 130.34094 271.566549 
L 130.749407 272.960677 
L 130.954561 272.396029 
L 131.157606 273.157648 
L 131.365684 273.38964 
L 131.571653 274.536458 
L 131.770815 273.790157 
L 131.977911 274.181908 
L 132.18244 273.879887 
L 132.382918 276.508373 
L 132.586455 275.674533 
L 132.998102 276.085986 
L 133.203948 276.871679 
L 133.406848 276.401133 
L 133.607025 277.871865 
L 133.815226 278.443088 
L 134.019789 278.254872 
L 134.224095 279.211283 
L 134.426895 279.08434 
L 134.633701 277.992232 
L 134.840752 280.134865 
L 135.041342 279.180646 
L 135.451305 281.349532 
L 135.657117 281.704083 
L 135.856602 281.555258 
L 136.063353 281.837588 
L 136.267804 283.120093 
L 136.471262 282.713024 
L 136.881012 282.787436 
L 137.284 284.422311 
L 137.489266 284.542678 
L 137.692478 283.934254 
L 137.892276 284.969449 
L 138.096995 285.249599 
L 138.300732 285.855831 
L 138.5065 285.853639 
L 138.710761 286.256337 
L 138.915614 287.160229 
L 139.122733 287.506024 
L 139.332574 287.405347 
L 139.536947 287.733632 
L 139.746454 287.768652 
L 139.954789 288.002835 
L 140.365242 289.241576 
L 140.778575 289.326924 
L 140.983205 290.373076 
L 141.189777 289.834681 
L 141.394328 291.52865 
L 141.603902 290.552537 
L 141.811311 291.073422 
L 142.01594 292.084543 
L 142.223728 291.946666 
L 142.639673 292.509134 
L 143.258484 293.879189 
L 143.667922 293.338603 
L 143.868835 294.621119 
L 144.070786 294.796208 
L 144.277927 295.170449 
L 144.483863 294.743678 
L 144.899573 295.49217 
L 145.309971 296.938829 
L 145.727377 296.601789 
L 145.930188 297.17082 
L 146.136246 297.120482 
L 146.545639 298.569321 
L 146.750403 297.652313 
L 146.951383 298.508047 
L 147.158725 298.807887 
L 147.363321 299.516988 
L 147.563844 299.676759 
L 147.764713 299.648302 
L 147.967847 300.539056 
L 148.172131 300.118848 
L 148.3807 300.869533 
L 148.589091 300.519365 
L 148.797459 301.688066 
L 149.007234 301.843453 
L 149.211573 301.526103 
L 149.626078 302.147665 
L 149.834536 303.042802 
L 150.037759 302.729824 
L 150.246161 302.644477 
L 150.446997 303.489275 
L 150.654048 303.508965 
L 151.063642 304.436931 
L 151.266866 304.244331 
L 151.473918 304.550735 
L 151.682498 304.428176 
L 152.506162 305.747892 
L 152.712175 305.642843 
L 152.915365 306.402271 
L 153.11754 306.380401 
L 153.319558 307.201114 
L 153.523931 307.023844 
L 153.729588 307.148584 
L 153.934497 307.835803 
L 154.14282 307.494391 
L 154.347383 307.967117 
L 154.551723 308.104994 
L 154.753629 307.792028 
L 155.16011 308.814107 
L 155.364762 309.293397 
L 155.57322 309.035152 
L 155.78209 309.107372 
L 155.983774 309.510069 
L 156.189888 310.332974 
L 156.391761 309.499134 
L 156.601179 310.103175 
L 156.802036 310.044081 
L 157.004256 311.149328 
L 157.212267 310.792585 
L 157.420624 311.792771 
L 157.622631 310.985185 
L 157.824605 311.770878 
L 158.029011 311.199666 
L 158.439219 312.142939 
L 158.646137 312.407759 
L 158.851883 313.014002 
L 159.061211 312.346485 
L 159.269724 313.355414 
L 159.474633 313.267875 
L 159.679263 312.784202 
L 160.090576 314.224286 
L 160.298152 314.270253 
L 160.505103 314.815211 
L 160.712322 314.546008 
L 160.915512 314.642302 
L 161.125309 314.616048 
L 161.334023 315.145677 
L 161.538151 315.294512 
L 161.746731 315.22228 
L 161.953738 315.920446 
L 162.360587 315.730038 
L 162.566109 316.826518 
L 162.770962 316.062695 
L 163.177577 316.706139 
L 163.585397 316.719278 
L 163.788542 317.655987 
L 163.991643 317.218269 
L 164.196362 317.568448 
L 164.402052 317.575011 
L 164.80716 318.130916 
L 165.011489 318.796242 
L 165.219734 318.634291 
L 165.42471 318.198765 
L 165.633391 319.271171 
L 165.841536 319.242714 
L 166.043677 319.398102 
L 166.252302 318.853155 
L 166.45807 319.253661 
L 166.662633 319.997782 
L 166.872552 319.967134 
L 167.080798 320.426745 
L 167.285417 320.582132 
L 167.492747 319.949624 
L 167.698872 320.048121 
L 168.109438 320.971703 
L 168.313509 320.277921 
L 168.516755 321.295605 
L 168.726608 321.435674 
L 168.931014 321.293425 
L 169.133914 321.728951 
L 169.343365 321.63922 
L 169.547058 322.138212 
L 169.748172 321.567 
L 170.155668 322.853888 
L 170.361559 322.60877 
L 170.56495 322.899843 
L 170.769256 322.711627 
L 170.971263 323.654911 
L 171.172021 322.891088 
L 171.377554 323.092442 
L 171.581202 323.77747 
L 171.787082 323.492948 
L 172.20249 323.626454 
L 172.409642 324.261143 
L 173.019056 324.919917 
L 173.223597 324.258951 
L 173.429354 324.716371 
L 173.631026 324.747008 
L 173.839484 325.044656 
L 174.046758 325.550222 
L 174.25237 325.580859 
L 174.45344 325.337933 
L 174.654677 325.97043 
L 174.863179 326.001067 
L 175.068691 326.511016 
L 175.273365 325.574296 
L 175.680404 326.548217 
L 176.082722 326.937787 
L 176.286169 327.443354 
L 176.696622 327.034081 
L 176.899723 327.357995 
L 177.10413 327.15664 
L 177.311739 327.43679 
L 177.513021 327.946728 
L 177.721791 327.524329 
L 178.133405 327.946728 
L 178.542687 328.310034 
L 178.750453 328.25094 
L 179.567722 329.498436 
L 179.777619 329.244551 
L 179.98322 329.809211 
L 180.186812 329.395567 
L 180.395281 329.785138 
L 180.598672 329.752309 
L 180.800166 330.187835 
L 181.001101 329.712917 
L 181.411834 330.209717 
L 181.819475 330.454847 
L 182.023714 330.686838 
L 182.227172 330.489867 
L 182.433923 330.693401 
L 182.642213 331.23836 
L 182.8524 330.660573 
L 183.059619 331.581963 
L 183.266983 331.741734 
L 183.47178 331.490053 
L 183.676042 331.623547 
L 183.886028 331.198968 
L 184.290935 332.212281 
L 184.491603 332.089721 
L 185.098105 332.203525 
L 185.512487 332.783504 
L 185.715543 332.90168 
L 185.925262 332.614978 
L 186.128787 332.65219 
L 186.338282 332.9367 
L 186.538883 333.871229 
L 186.744852 333.496977 
L 186.945765 333.57358 
L 187.148643 332.956402 
L 187.556463 334.03318 
L 187.971012 333.853719 
L 188.179515 333.849347 
L 188.3841 334.54531 
L 188.592234 333.895302 
L 188.796696 334.527811 
L 189.00117 334.26298 
L 189.208567 334.192951 
L 189.409425 334.9699 
L 189.615148 335.138415 
L 189.822088 335.074949 
L 190.027276 335.425128 
L 190.234059 334.89986 
L 190.854567 336.099209 
L 191.06298 335.790625 
L 191.271828 335.943821 
L 191.67457 336.029169 
L 191.884411 336.307127 
L 192.089209 336.070752 
L 192.296093 336.453759 
L 192.499149 336.252405 
L 193.103273 337.040301 
L 193.311664 337.040301 
L 193.510981 336.900232 
L 193.711828 337.182562 
L 193.915353 337.007473 
L 194.122259 337.72752 
L 194.321343 337.510847 
L 194.522044 337.699063 
L 194.720882 337.256974 
L 194.920623 337.309493 
L 195.326033 337.685937 
L 195.532984 338.351262 
L 195.931898 337.898226 
L 196.548042 338.78898 
L 196.74727 338.659857 
L 196.952502 338.839319 
L 197.157991 338.73427 
L 197.365132 338.839319 
L 197.565521 339.331758 
L 197.764716 339.458689 
L 197.965328 338.994706 
L 198.375302 339.824186 
L 198.783713 339.104139 
L 198.988198 339.598758 
L 199.188542 339.780411 
L 199.394009 339.537484 
L 199.594376 339.826366 
L 199.802175 340.469822 
L 200.009103 340.275031 
L 200.214816 340.795915 
L 200.423095 340.11526 
L 200.834307 340.66241 
L 201.038602 341.021343 
L 201.241346 340.699621 
L 201.448264 340.920666 
L 201.652592 340.955686 
L 201.851798 341.343065 
L 202.05154 340.929421 
L 202.25098 341.391212 
L 202.456815 341.159221 
L 202.656546 341.566302 
L 202.86353 341.058544 
L 203.067903 341.631959 
L 203.466449 341.800473 
L 203.665789 341.732636 
L 203.872439 342.214117 
L 204.072951 342.041219 
L 204.273373 341.399967 
L 204.479855 341.673542 
L 204.686773 342.741634 
L 204.895677 342.472374 
L 205.103521 342.726316 
L 205.302615 342.568668 
L 205.502145 342.614703 
L 205.701686 342.426407 
L 205.909898 342.995519 
L 206.117072 342.737262 
L 206.322572 343.185927 
L 206.530583 343.177172 
L 206.72999 342.971445 
L 206.930848 343.054601 
L 207.345933 343.774649 
L 207.748374 343.542657 
L 207.948651 343.864379 
L 208.149018 343.477 
L 208.355723 343.691482 
L 208.552139 343.691482 
L 208.764402 344.319607 
L 208.972525 344.446549 
L 209.175303 344.157656 
L 209.38049 344.354627 
L 209.587877 344.214558 
L 209.794526 344.720124 
L 209.999201 344.29115 
L 210.20344 344.3415 
L 210.403237 344.612884 
L 210.610054 344.597554 
L 210.811604 344.833928 
L 211.016022 344.884267 
L 211.223877 345.050601 
L 211.432 344.936786 
L 211.640122 345.035271 
L 211.84704 345.306666 
L 212.046826 345.195042 
L 212.459668 345.742192 
L 212.870713 345.700609 
L 213.07041 346.011384 
L 213.270465 346.061722 
L 213.476088 345.961045 
L 213.891284 346.105498 
L 214.09684 345.947918 
L 214.304115 346.361562 
L 214.506892 346.344052 
L 214.711455 346.127379 
L 215.123862 346.639509 
L 215.323257 346.453485 
L 215.735619 346.972178 
L 216.145794 347.026888 
L 216.352767 347.398949 
L 216.556917 347.099109 
L 216.759226 347.188851 
L 216.967694 347.129757 
L 217.372434 347.676896 
L 217.579419 347.372684 
L 217.779406 347.82572 
L 217.978824 347.779764 
L 218.184079 347.873867 
L 218.386108 347.532455 
L 218.589945 347.705352 
L 218.998669 348.361923 
L 219.202775 348.042393 
L 219.611621 348.506375 
L 219.816764 348.189025 
L 220.425029 348.526077 
L 220.633074 348.771195 
L 220.840114 348.635498 
L 221.048248 349.160766 
L 221.456626 348.670518 
L 221.663555 348.876244 
L 221.863162 348.771195 
L 222.063328 349.401501 
L 222.26259 349.000995 
L 222.677485 349.661949 
L 223.289846 349.359929 
L 223.489855 349.55908 
L 223.68915 349.456223 
L 224.705101 350.412633 
L 224.913268 350.047136 
L 225.118545 350.270373 
L 225.320731 349.996798 
L 225.521053 350.084348 
L 225.722793 350.613988 
L 225.929476 350.364487 
L 226.339807 350.554894 
L 226.542003 350.957592 
L 226.745651 350.802204 
L 226.946029 351.027632 
L 227.347242 351.053886 
L 227.747083 351.040759 
L 227.947561 351.294632 
L 228.155606 351.104224 
L 228.356195 351.522252 
L 228.555692 351.263995 
L 228.762375 351.660129 
L 228.968031 351.454403 
L 229.169001 351.74986 
L 229.37411 351.535379 
L 229.578729 351.984043 
L 229.983904 351.811145 
L 230.18937 351.83959 
L 230.397449 351.71266 
L 230.596867 352.257606 
L 230.798338 351.747668 
L 231.001406 352.491789 
L 231.207151 352.26199 
L 231.402351 352.507108 
L 231.613398 352.415186 
L 231.816554 352.137239 
L 232.01624 352.327647 
L 232.216261 352.706271 
L 232.617507 352.574956 
L 233.225114 352.876977 
L 233.430904 352.607785 
L 233.631405 352.964527 
L 233.836994 353.056449 
L 234.044849 352.796001 
L 234.245551 353.634236 
L 234.447234 353.095841 
L 234.651295 353.11116 
L 234.851483 353.682383 
L 235.05137 353.205274 
L 235.458866 353.815889 
L 235.664065 353.752412 
L 236.267363 353.246857 
L 236.466815 353.728338 
L 237.292699 354.148546 
L 237.498624 354.028178 
L 238.315056 354.312689 
L 238.520478 354.726333 
L 238.719751 354.54468 
L 238.928164 354.592838 
L 239.128676 354.417749 
L 239.32912 354.86203 
L 239.535022 354.424313 
L 239.743313 355.002099 
L 239.946771 355.010854 
L 240.152382 354.781055 
L 240.351399 355.262536 
L 240.554834 354.997728 
L 240.755424 355.336948 
L 240.959596 355.41136 
L 241.164181 355.113723 
L 241.368744 355.437625 
L 241.574289 355.310694 
L 241.773774 355.496719 
L 241.977991 355.315066 
L 242.180902 355.879726 
L 242.379305 355.525176 
L 242.785406 355.818441 
L 242.994979 355.69369 
L 243.194052 355.969457 
L 243.400489 355.88629 
L 243.599729 356.021976 
L 243.799761 355.971637 
L 244.002493 356.210203 
L 244.20267 355.969457 
L 244.606126 356.260542 
L 245.006804 356.365591 
L 245.406923 356.582264 
L 245.60633 356.133599 
L 245.811663 356.628219 
L 246.212407 356.873337 
L 246.411212 357.230079 
L 246.810349 356.604146 
L 247.009332 356.490342 
L 247.207143 356.667611 
L 247.406382 357.127211 
L 247.608055 356.993716 
L 247.806915 357.192879 
L 248.007527 357.01997 
L 248.608225 357.411732 
L 248.810043 357.149104 
L 249.015241 357.326373 
L 249.215552 357.076883 
L 249.414178 357.289173 
L 249.619578 357.755336 
L 249.826127 357.475198 
L 250.026516 357.851641 
L 250.229349 357.628405 
L 250.431959 357.689679 
L 250.634602 357.906352 
L 250.833339 357.759719 
L 251.032635 357.90198 
L 251.231439 358.190873 
L 251.632128 357.982956 
L 251.836512 358.118641 
L 252.040204 358.418482 
L 252.239399 358.45131 
L 252.845007 358.144907 
L 253.043153 358.206192 
L 253.240931 358.766469 
L 253.446632 358.381281 
L 253.646809 358.538849 
L 253.849965 358.554179 
L 254.05002 358.783979 
L 254.453945 358.670175 
L 254.656856 358.94593 
L 254.855939 358.913101 
L 255.053203 359.140721 
L 255.460499 358.926239 
L 255.65937 359.184484 
L 255.86237 359.000652 
L 256.063451 359.302672 
L 256.262534 359.237015 
L 257.079971 359.563108 
L 257.480481 359.477761 
L 257.679363 359.762271 
L 258.082474 359.552173 
L 258.281601 359.985508 
L 258.479089 359.633149 
L 258.683295 359.928606 
L 258.886228 359.841067 
L 259.084005 359.976753 
L 259.289338 359.862949 
L 259.686266 359.913287 
L 259.888731 360.261274 
L 260.0871 360.351005 
L 260.292544 359.996454 
L 260.494071 360.379461 
L 260.697105 360.136523 
L 260.897081 360.254711 
L 261.096299 360.138715 
L 261.298908 360.738384 
L 261.696003 360.512956 
L 262.098857 360.631143 
L 262.303152 360.434172 
L 262.50334 360.723065 
L 262.70133 360.71431 
L 262.904163 360.366323 
L 263.10405 361.086371 
L 263.302776 360.646462 
L 263.507249 361.125763 
L 264.307031 360.974747 
L 264.509964 361.348999 
L 264.710308 361.309607 
L 264.90918 361.517525 
L 265.107147 361.029469 
L 265.510358 361.092934 
L 265.709575 361.399338 
L 265.914841 361.451868 
L 266.1161 361.686039 
L 266.314346 361.52846 
L 266.520762 361.758271 
L 266.720559 361.54379 
L 267.317842 362.062483 
L 267.517796 361.777962 
L 267.717605 362.086557 
L 267.925772 361.762643 
L 268.127523 362.034027 
L 268.329028 362.055908 
L 268.527363 361.841427 
L 269.140839 362.215679 
L 269.339979 362.171904 
L 269.543068 362.410459 
L 269.742765 362.320728 
L 270.143878 362.60525 
L 270.351253 362.373259 
L 270.551408 362.467372 
L 270.75664 362.316357 
L 271.363074 362.830678 
L 271.974743 362.819731 
L 272.590931 362.981682 
L 272.792604 362.90727 
L 273.402274 362.940099 
L 273.606391 362.760638 
L 273.809458 362.876633 
L 274.009735 363.331861 
L 274.414866 363.036404 
L 274.621817 363.375636 
L 274.822451 363.325298 
L 275.032315 363.445665 
L 275.22834 363.281522 
L 275.637254 363.432538 
L 275.841951 363.520077 
L 276.045944 363.395326 
L 276.250172 363.854926 
L 276.660615 363.48944 
L 276.862298 363.723612 
L 277.068145 363.609808 
L 277.469001 363.999378 
L 278.290153 363.981868 
L 278.493288 364.071599 
L 278.69246 363.992815 
L 278.892358 364.119746 
L 279.096787 364.01908 
L 279.297946 364.220423 
L 279.498357 364.244496 
L 279.699985 364.027835 
L 279.908019 364.511508 
L 280.11247 364.183223 
L 280.3122 364.364875 
L 280.512969 364.299218 
L 280.911135 364.723798 
L 281.118142 364.443659 
L 281.322504 364.522455 
L 281.52739 364.450223 
L 281.729085 364.522455 
L 282.130678 364.922961 
L 282.331122 364.539953 
L 282.534279 364.62094 
L 282.738574 364.87043 
L 282.946931 364.76319 
L 283.14886 364.88794 
L 283.349171 365.189972 
L 283.551 364.852932 
L 283.953798 365.174654 
L 284.155894 364.966736 
L 284.363983 365.321286 
L 284.572006 365.082731 
L 285.382713 365.279703 
L 285.582533 365.244682 
L 285.781806 365.071785 
L 285.983578 365.406633 
L 286.985311 365.524821 
L 287.188211 365.314723 
L 287.388834 365.31034 
L 287.796364 365.741494 
L 288.202421 365.767759 
L 288.410577 365.754621 
L 288.610933 365.905636 
L 288.819011 365.590478 
L 289.024768 365.809342 
L 289.229085 365.599233 
L 289.430378 365.899073 
L 289.844124 365.962538 
L 290.052682 365.837788 
L 290.252502 366.008505 
L 290.665221 365.975677 
L 290.868277 366.071971 
L 291.071501 365.883755 
L 291.271488 365.942848 
L 291.471107 366.310525 
L 291.672801 366.120118 
L 291.877152 366.400256 
L 292.284838 366.183583 
L 292.484089 366.343354 
L 292.689444 366.658513 
L 292.89365 366.465913 
L 293.095355 366.590664 
L 293.299405 366.489987 
L 293.503823 366.192338 
L 293.709736 366.485615 
L 293.911676 366.470296 
L 294.310769 366.77888 
L 294.519115 366.827027 
L 294.929289 366.54908 
L 295.129288 366.853292 
L 295.734015 366.862047 
L 295.937227 367.054644 
L 296.148687 366.820464 
L 296.344132 366.818272 
L 296.545681 367.126868 
L 296.749005 367.190337 
L 296.956805 366.949598 
L 297.365685 366.973666 
L 297.572346 366.923332 
L 297.780792 367.258183 
L 297.986571 367.087473 
L 298.186436 367.192525 
L 298.591756 367.142188 
L 298.79229 367.485796 
L 298.996618 367.098416 
L 299.394707 367.468287 
L 299.79967 367.380744 
L 300.002715 367.520814 
L 301.01852 367.663071 
L 301.628146 367.656506 
L 301.831147 367.542699 
L 302.032551 367.687146 
L 302.232405 367.6193 
L 302.434278 367.840347 
L 302.635113 367.632431 
L 303.043826 367.693712 
L 303.244404 367.897251 
L 303.44611 367.693712 
L 303.654233 367.982605 
L 303.854856 367.811896 
L 305.061085 368.054829 
L 305.265246 368.021999 
L 305.465903 368.173013 
L 306.076478 368.114491 
L 306.480726 368.217638 
L 306.679899 368.168024 
L 306.879786 368.494889 
L 307.086603 368.536779 
L 307.288476 368.333415 
L 307.486008 368.301549 
L 307.684935 368.475871 
L 307.882969 368.309976 
L 308.082064 368.547831 
L 308.483466 368.209738 
L 308.682661 368.571336 
L 308.882392 368.669472 
L 309.086687 368.612416 
L 309.285424 368.742944 
L 309.492141 368.479941 
L 309.692295 368.488192 
L 309.891289 368.304656 
L 310.090105 368.651898 
L 310.288418 368.664526 
L 310.493862 368.45985 
L 310.69405 368.724078 
L 311.098333 368.644522 
L 311.29842 368.561749 
L 311.701285 368.84329 
L 311.905245 368.691928 
L 312.515095 368.863973 
L 312.721532 369.235573 
L 312.925861 368.885093 
L 313.123906 369.127872 
L 313.52715 368.974826 
L 313.932604 369.144308 
L 314.333326 369.187228 
L 314.531707 369.320577 
L 314.729752 369.051644 
L 314.929806 369.225855 
L 315.128543 368.895423 
L 315.327437 369.369033 
L 315.52613 369.068299 
L 315.726195 369.354631 
L 315.9251 368.92626 
L 316.128178 369.268052 
L 316.32619 369.024724 
L 316.527315 369.289127 
L 316.932981 369.34069 
L 317.130424 369.096051 
L 317.327755 369.417949 
L 317.736658 369.37074 
L 317.938989 369.619999 
L 318.531317 369.367808 
L 318.72857 369.520375 
L 318.931135 369.48087 
L 319.13043 369.730238 
L 319.32958 369.460889 
L 319.524133 369.799748 
L 319.7222 369.82507 
L 319.920569 369.624661 
L 320.31878 369.862822 
L 320.513946 369.60759 
L 320.912794 369.713167 
L 321.112323 369.600936 
L 321.308427 369.788235 
L 321.708669 369.618072 
L 321.907384 369.775169 
L 322.50537 369.770027 
L 322.908626 370.253091 
L 323.109707 369.988601 
L 323.307953 369.917844 
L 323.5064 370.023596 
L 323.700785 369.816797 
L 323.903138 370.179007 
L 324.104308 369.893266 
L 324.501671 370.261845 
L 324.703634 370.092843 
L 325.499052 370.223086 
L 327.102241 370.145916 
L 327.300834 370.419096 
L 327.696511 370.281105 
L 327.895974 370.512374 
L 328.094778 370.37318 
L 328.296953 370.485323 
L 328.499083 370.384495 
L 328.695164 370.647585 
L 328.89485 370.684506 
L 329.097203 370.468274 
L 330.28254 370.650889 
L 330.486031 370.466457 
L 330.685583 370.781461 
L 330.883796 370.549295 
L 331.28203 370.89332 
L 331.48089 370.741717 
L 331.872438 370.783694 
L 332.073664 370.627581 
L 332.274823 370.753141 
L 332.474643 370.653603 
L 333.07244 370.779666 
L 333.270931 370.999729 
L 333.465785 371.04013 
L 333.661297 370.859812 
L 333.861418 370.844777 
L 334.263301 371.021483 
L 334.464493 370.945628 
L 334.661891 370.990558 
L 334.857303 370.912054 
L 335.057558 371.001393 
L 335.257289 370.917614 
L 335.653937 371.065168 
L 336.255785 371.02214 
L 336.459723 371.034221 
L 336.852566 371.278686 
L 337.0481 371.189655 
L 337.243735 371.338631 
L 337.443856 371.03514 
L 337.843261 371.171992 
L 338.04422 371.179915 
L 338.44781 371.350998 
L 338.646067 371.349268 
L 338.847271 371.148027 
L 339.24421 371.372292 
L 339.63972 371.12032 
L 340.030688 371.406084 
L 340.228734 371.19959 
L 340.424157 371.515557 
L 340.626588 371.311296 
L 341.030412 371.472332 
L 342.628502 371.514726 
L 342.831927 371.7029 
L 343.026568 371.633828 
L 343.229245 371.747197 
L 343.42892 371.432019 
L 344.423778 371.627328 
L 344.623731 371.410636 
L 345.416962 371.957499 
L 345.618143 371.669917 
L 345.820519 371.953604 
L 346.41836 371.655035 
L 346.619441 371.953165 
L 347.019783 371.763568 
L 347.219938 371.930667 
L 347.41959 371.949248 
L 347.617904 371.719949 
L 347.813126 372.010529 
L 348.011372 371.87291 
L 348.409884 372.05419 
L 348.609258 371.983608 
L 349.008752 372.096519 
L 349.210949 371.984375 
L 351.006024 372.260532 
L 351.206826 372.062924 
L 351.406367 372.207459 
L 351.799902 372.01333 
L 352.596246 372.305003 
L 352.994167 372.051324 
L 353.192391 372.45398 
L 353.393806 372.190847 
L 353.590925 372.332339 
L 353.793368 372.159659 
L 353.99465 372.443628 
L 354.390126 372.191788 
L 354.590995 372.400142 
L 354.786519 372.34361 
L 354.98732 372.403073 
L 355.384337 372.335818 
L 355.57928 372.337657 
L 355.774737 372.451223 
L 355.973094 372.304916 
L 356.174945 372.411084 
L 356.376026 372.3797 
L 356.971524 372.599652 
L 357.565894 372.39478 
L 357.769252 372.587681 
L 357.968938 372.446408 
L 358.164863 372.543318 
L 358.565998 372.537104 
L 358.964298 372.552029 
L 360.749362 372.711227 
L 360.94772 372.862108 
L 361.147161 372.692121 
L 361.341936 372.744712 
L 361.931541 372.563016 
L 362.331036 372.886511 
L 362.529728 372.723943 
L 362.728075 372.711468 
L 362.927895 372.894761 
L 363.529385 372.742195 
L 363.72627 372.93188 
L 364.121814 372.898854 
L 364.916205 372.877363 
L 365.11473 373.120274 
L 365.31724 372.805992 
L 365.519537 372.961667 
L 365.718843 372.77544 
L 366.117903 373.191009 
L 366.518413 372.917304 
L 367.711249 373.14041 
L 368.111871 372.998435 
L 368.511566 373.239136 
L 368.711118 373.104888 
L 369.113336 373.183415 
L 370.112725 373.202959 
L 370.513682 373.274921 
L 370.914884 373.153585 
L 371.516508 373.275336 
L 371.91723 373.186172 
L 372.114182 373.307115 
L 372.920023 373.135222 
L 373.120144 373.345524 
L 373.522362 373.040194 
L 373.914714 373.244848 
L 375.109582 372.943589 
L 375.507648 372.694593 
L 375.706418 372.695491 
L 375.904453 372.459889 
L 376.305141 372.371864 
L 376.506568 371.949948 
L 376.908786 371.824651 
L 377.108739 371.403917 
L 377.312432 371.453861 
L 377.711692 370.796322 
L 377.909838 370.244621 
L 378.105528 370.141473 
L 378.305694 369.786287 
L 378.508025 369.058932 
L 378.703927 368.883911 
L 379.513853 366.728541 
L 380.739623 362.200361 
L 381.144218 360.44949 
L 382.956635 351.649183 
L 383.156857 351.228975 
L 383.567522 349.106044 
L 383.976894 347.628749 
L 385.381536 342.960499 
L 386.38473 341.82893 
L 386.58339 341.960244 
L 386.788901 341.305853 
L 386.987315 341.807036 
L 387.187815 341.56411 
L 387.394777 341.791718 
L 387.600523 341.815792 
L 387.800577 341.627575 
L 388.000698 342.05873 
L 388.209167 342.209745 
L 388.412525 341.896779 
L 388.611563 342.170353 
L 388.816003 342.691296 
L 388.816003 342.691296 
" clip-path="url(#pd53293f973)" style="fill: none; stroke: #8286ff; stroke-width: 1.5; stroke-linecap: square"/>
   </g>
   <g id="patch_7">
    <path d="M 54 384.48 
L 54 251.424 
" style="fill: none; stroke: #000000; stroke-width: 0.5; stroke-linejoin: miter; stroke-linecap: square"/>
   </g>
   <g id="patch_8">
    <path d="M 54 384.48 
L 388.8 384.48 
" style="fill: none; stroke: #000000; stroke-width: 0.5; stroke-linejoin: miter; stroke-linecap: square"/>
   </g>
   <g id="text_34">
    <!-- 104 m/z for Isothermal TGA at 350°C -->
    <g transform="translate(142.38825 245.424) scale(0.096 -0.096)">
     <defs>
      <path id="Helvetica-2f" d="M 1456 4591 
L 1931 4591 
L 475 0 
L 0 0 
L 1456 4591 
z
" transform="scale(0.015625)"/>
      <path id="Helvetica-7a" d="M 163 444 
L 2147 2844 
L 309 2844 
L 309 3347 
L 2903 3347 
L 2903 2888 
L 931 503 
L 2963 503 
L 2963 0 
L 163 0 
L 163 444 
z
M 1609 3428 
L 1609 3428 
z
" transform="scale(0.015625)"/>
      <path id="Helvetica-66" d="M 553 3856 
Q 566 4206 675 4369 
Q 872 4656 1434 4656 
Q 1488 4656 1544 4653 
Q 1600 4650 1672 4644 
L 1672 4131 
Q 1584 4138 1545 4139 
Q 1506 4141 1472 4141 
Q 1216 4141 1166 4008 
Q 1116 3875 1116 3331 
L 1672 3331 
L 1672 2888 
L 1109 2888 
L 1109 0 
L 553 0 
L 553 2888 
L 88 2888 
L 88 3331 
L 553 3331 
L 553 3856 
z
" transform="scale(0.015625)"/>
     </defs>
     <use xlink:href="#Helvetica-31"/>
     <use xlink:href="#Helvetica-30" x="55.615234"/>
     <use xlink:href="#Helvetica-34" x="111.230469"/>
     <use xlink:href="#Helvetica-20" x="166.845703"/>
     <use xlink:href="#Helvetica-6d" x="194.628906"/>
     <use xlink:href="#Helvetica-2f" x="277.929688"/>
     <use xlink:href="#Helvetica-7a" x="305.712891"/>
     <use xlink:href="#Helvetica-20" x="355.712891"/>
     <use xlink:href="#Helvetica-66" x="383.496094"/>
     <use xlink:href="#Helvetica-6f" x="411.279297"/>
     <use xlink:href="#Helvetica-72" x="466.894531"/>
     <use xlink:href="#Helvetica-20" x="500.195312"/>
     <use xlink:href="#Helvetica-49" x="527.978516"/>
     <use xlink:href="#Helvetica-73" x="555.761719"/>
     <use xlink:href="#Helvetica-6f" x="605.761719"/>
     <use xlink:href="#Helvetica-74" x="661.376953"/>
     <use xlink:href="#Helvetica-68" x="689.160156"/>
     <use xlink:href="#Helvetica-65" x="744.775391"/>
     <use xlink:href="#Helvetica-72" x="800.390625"/>
     <use xlink:href="#Helvetica-6d" x="833.691406"/>
     <use xlink:href="#Helvetica-61" x="916.992188"/>
     <use xlink:href="#Helvetica-6c" x="972.607422"/>
     <use xlink:href="#Helvetica-20" x="994.824219"/>
     <use xlink:href="#Helvetica-54" x="1022.607422"/>
     <use xlink:href="#Helvetica-47" x="1083.691406"/>
     <use xlink:href="#Helvetica-41" x="1161.474609"/>
     <use xlink:href="#Helvetica-20" x="1228.173828"/>
     <use xlink:href="#Helvetica-61" x="1255.957031"/>
     <use xlink:href="#Helvetica-74" x="1311.572266"/>
     <use xlink:href="#Helvetica-20" x="1339.355469"/>
     <use xlink:href="#Helvetica-33" x="1367.138672"/>
     <use xlink:href="#Helvetica-35" x="1422.753906"/>
     <use xlink:href="#Helvetica-30" x="1478.369141"/>
     <use xlink:href="#Helvetica-b0" x="1533.984375"/>
     <use xlink:href="#Helvetica-43" x="1573.974609"/>
    </g>
   </g>
   <g id="legend_2">
    <g id="patch_9">
     <path d="M 323.815 280.6365 
L 383.2 280.6365 
Q 384.8 280.6365 384.8 279.0365 
L 384.8 257.024 
Q 384.8 255.424 383.2 255.424 
L 323.815 255.424 
Q 322.215 255.424 322.215 257.024 
L 322.215 279.0365 
Q 322.215 280.6365 323.815 280.6365 
z
" style="fill: #ffffff; opacity: 0.8; stroke: #cccccc; stroke-linejoin: miter"/>
    </g>
    <g id="line2d_32">
     <path d="M 325.415 261.56275 
L 333.415 261.56275 
L 341.415 261.56275 
" style="fill: none; stroke: #f5c92a; stroke-width: 1.5; stroke-linecap: square"/>
    </g>
    <g id="text_35">
     <!-- PS-SCF3 -->
     <g transform="translate(347.815 264.36275) scale(0.08 -0.08)">
      <use xlink:href="#Helvetica-50"/>
      <use xlink:href="#Helvetica-53" x="66.699219"/>
      <use xlink:href="#Helvetica-2d" x="133.398438"/>
      <use xlink:href="#Helvetica-53" x="166.699219"/>
      <use xlink:href="#Helvetica-43" x="233.398438"/>
      <use xlink:href="#Helvetica-46" x="305.615234"/>
      <use xlink:href="#Helvetica-33" x="366.699219"/>
     </g>
    </g>
    <g id="line2d_33">
     <path d="M 325.415 272.969 
L 333.415 272.969 
L 341.415 272.969 
" style="fill: none; stroke: #8286ff; stroke-width: 1.5; stroke-linecap: square"/>
    </g>
    <g id="text_36">
     <!-- PS-6.1K -->
     <g transform="translate(347.815 275.769) scale(0.08 -0.08)">
      <use xlink:href="#Helvetica-50"/>
      <use xlink:href="#Helvetica-53" x="66.699219"/>
      <use xlink:href="#Helvetica-2d" x="133.398438"/>
      <use xlink:href="#Helvetica-36" x="166.699219"/>
      <use xlink:href="#Helvetica-2e" x="222.314453"/>
      <use xlink:href="#Helvetica-31" x="250.097656"/>
      <use xlink:href="#Helvetica-4b" x="305.712891"/>
     </g>
    </g>
   </g>
  </g>
 </g>
 <defs>
  <clipPath id="pe03a09f853">
   <rect x="54" y="51.84" width="334.8" height="133.056"/>
  </clipPath>
  <clipPath id="pd53293f973">
   <rect x="54" y="251.424" width="334.8" height="133.056"/>
  </clipPath>
 </defs>
</svg>
