<?xml version="1.0" encoding="utf-8" standalone="no"?>
<!DOCTYPE svg PUBLIC "-//W3C//DTD SVG 1.1//EN"
  "http://www.w3.org/Graphics/SVG/1.1/DTD/svg11.dtd">
<svg xmlns:xlink="http://www.w3.org/1999/xlink" width="273.60625pt" height="263.038125pt" viewBox="0 0 273.60625 263.038125" xmlns="http://www.w3.org/2000/svg" version="1.1">
 <metadata>
  <rdf:RDF xmlns:dc="http://purl.org/dc/elements/1.1/" xmlns:cc="http://creativecommons.org/ns#" xmlns:rdf="http://www.w3.org/1999/02/22-rdf-syntax-ns#">
   <cc:Work>
    <dc:type rdf:resource="http://purl.org/dc/dcmitype/StillImage"/>
    <dc:date>2024-05-16T19:05:43.888177</dc:date>
    <dc:format>image/svg+xml</dc:format>
    <dc:creator>
     <cc:Agent>
      <dc:title>Matplotlib v3.7.1, https://matplotlib.org/</dc:title>
     </cc:Agent>
    </dc:creator>
   </cc:Work>
  </rdf:RDF>
 </metadata>
 <defs>
  <style type="text/css">*{stroke-linejoin: round; stroke-linecap: butt}</style>
 </defs>
 <g id="figure_1">
  <g id="patch_1">
   <path d="M 0 263.038125 
L 273.60625 263.038125 
L 273.60625 0 
L 0 0 
z
" style="fill: #ffffff"/>
  </g>
  <g id="axes_1">
   <g id="patch_2">
    <path d="M 52.278125 228.96 
L 219.678125 228.96 
L 219.678125 7.2 
L 52.278125 7.2 
z
" style="fill: #ffffff"/>
   </g>
   <g id="matplotlib.axis_1">
    <g id="xtick_1">
     <g id="line2d_1">
      <defs>
       <path id="m28fcbeb12d" d="M 0 0 
L 0 -3.5 
" style="stroke: #000000; stroke-width: 0.8"/>
      </defs>
      <g>
       <use xlink:href="#m28fcbeb12d" x="52.278125" y="228.96" style="stroke: #000000; stroke-width: 0.8"/>
      </g>
     </g>
     <g id="text_1">
      <!-- −80 -->
      <g transform="translate(41.725781 240.058437) scale(0.1 -0.1)">
       <defs>
        <path id="DejaVuSans-2212" d="M 678 2272 
L 4684 2272 
L 4684 1741 
L 678 1741 
L 678 2272 
z
" transform="scale(0.015625)"/>
        <path id="DejaVuSans-38" d="M 2034 2216 
Q 1584 2216 1326 1975 
Q 1069 1734 1069 1313 
Q 1069 891 1326 650 
Q 1584 409 2034 409 
Q 2484 409 2743 651 
Q 3003 894 3003 1313 
Q 3003 1734 2745 1975 
Q 2488 2216 2034 2216 
z
M 1403 2484 
Q 997 2584 770 2862 
Q 544 3141 544 3541 
Q 544 4100 942 4425 
Q 1341 4750 2034 4750 
Q 2731 4750 3128 4425 
Q 3525 4100 3525 3541 
Q 3525 3141 3298 2862 
Q 3072 2584 2669 2484 
Q 3125 2378 3379 2068 
Q 3634 1759 3634 1313 
Q 3634 634 3220 271 
Q 2806 -91 2034 -91 
Q 1263 -91 848 271 
Q 434 634 434 1313 
Q 434 1759 690 2068 
Q 947 2378 1403 2484 
z
M 1172 3481 
Q 1172 3119 1398 2916 
Q 1625 2713 2034 2713 
Q 2441 2713 2670 2916 
Q 2900 3119 2900 3481 
Q 2900 3844 2670 4047 
Q 2441 4250 2034 4250 
Q 1625 4250 1398 4047 
Q 1172 3844 1172 3481 
z
" transform="scale(0.015625)"/>
        <path id="DejaVuSans-30" d="M 2034 4250 
Q 1547 4250 1301 3770 
Q 1056 3291 1056 2328 
Q 1056 1369 1301 889 
Q 1547 409 2034 409 
Q 2525 409 2770 889 
Q 3016 1369 3016 2328 
Q 3016 3291 2770 3770 
Q 2525 4250 2034 4250 
z
M 2034 4750 
Q 2819 4750 3233 4129 
Q 3647 3509 3647 2328 
Q 3647 1150 3233 529 
Q 2819 -91 2034 -91 
Q 1250 -91 836 529 
Q 422 1150 422 2328 
Q 422 3509 836 4129 
Q 1250 4750 2034 4750 
z
" transform="scale(0.015625)"/>
       </defs>
       <use xlink:href="#DejaVuSans-2212"/>
       <use xlink:href="#DejaVuSans-38" x="83.789062"/>
       <use xlink:href="#DejaVuSans-30" x="147.412109"/>
      </g>
     </g>
    </g>
    <g id="xtick_2">
     <g id="line2d_2">
      <g>
       <use xlink:href="#m28fcbeb12d" x="85.758125" y="228.96" style="stroke: #000000; stroke-width: 0.8"/>
      </g>
     </g>
     <g id="text_2">
      <!-- −60 -->
      <g transform="translate(75.205781 240.058437) scale(0.1 -0.1)">
       <defs>
        <path id="DejaVuSans-36" d="M 2113 2584 
Q 1688 2584 1439 2293 
Q 1191 2003 1191 1497 
Q 1191 994 1439 701 
Q 1688 409 2113 409 
Q 2538 409 2786 701 
Q 3034 994 3034 1497 
Q 3034 2003 2786 2293 
Q 2538 2584 2113 2584 
z
M 3366 4563 
L 3366 3988 
Q 3128 4100 2886 4159 
Q 2644 4219 2406 4219 
Q 1781 4219 1451 3797 
Q 1122 3375 1075 2522 
Q 1259 2794 1537 2939 
Q 1816 3084 2150 3084 
Q 2853 3084 3261 2657 
Q 3669 2231 3669 1497 
Q 3669 778 3244 343 
Q 2819 -91 2113 -91 
Q 1303 -91 875 529 
Q 447 1150 447 2328 
Q 447 3434 972 4092 
Q 1497 4750 2381 4750 
Q 2619 4750 2861 4703 
Q 3103 4656 3366 4563 
z
" transform="scale(0.015625)"/>
       </defs>
       <use xlink:href="#DejaVuSans-2212"/>
       <use xlink:href="#DejaVuSans-36" x="83.789062"/>
       <use xlink:href="#DejaVuSans-30" x="147.412109"/>
      </g>
     </g>
    </g>
    <g id="xtick_3">
     <g id="line2d_3">
      <g>
       <use xlink:href="#m28fcbeb12d" x="119.238125" y="228.96" style="stroke: #000000; stroke-width: 0.8"/>
      </g>
     </g>
     <g id="text_3">
      <!-- −40 -->
      <g transform="translate(108.685781 240.058437) scale(0.1 -0.1)">
       <defs>
        <path id="DejaVuSans-34" d="M 2419 4116 
L 825 1625 
L 2419 1625 
L 2419 4116 
z
M 2253 4666 
L 3047 4666 
L 3047 1625 
L 3713 1625 
L 3713 1100 
L 3047 1100 
L 3047 0 
L 2419 0 
L 2419 1100 
L 313 1100 
L 313 1709 
L 2253 4666 
z
" transform="scale(0.015625)"/>
       </defs>
       <use xlink:href="#DejaVuSans-2212"/>
       <use xlink:href="#DejaVuSans-34" x="83.789062"/>
       <use xlink:href="#DejaVuSans-30" x="147.412109"/>
      </g>
     </g>
    </g>
    <g id="xtick_4">
     <g id="line2d_4">
      <g>
       <use xlink:href="#m28fcbeb12d" x="152.718125" y="228.96" style="stroke: #000000; stroke-width: 0.8"/>
      </g>
     </g>
     <g id="text_4">
      <!-- −20 -->
      <g transform="translate(142.165781 240.058437) scale(0.1 -0.1)">
       <defs>
        <path id="DejaVuSans-32" d="M 1228 531 
L 3431 531 
L 3431 0 
L 469 0 
L 469 531 
Q 828 903 1448 1529 
Q 2069 2156 2228 2338 
Q 2531 2678 2651 2914 
Q 2772 3150 2772 3378 
Q 2772 3750 2511 3984 
Q 2250 4219 1831 4219 
Q 1534 4219 1204 4116 
Q 875 4013 500 3803 
L 500 4441 
Q 881 4594 1212 4672 
Q 1544 4750 1819 4750 
Q 2544 4750 2975 4387 
Q 3406 4025 3406 3419 
Q 3406 3131 3298 2873 
Q 3191 2616 2906 2266 
Q 2828 2175 2409 1742 
Q 1991 1309 1228 531 
z
" transform="scale(0.015625)"/>
       </defs>
       <use xlink:href="#DejaVuSans-2212"/>
       <use xlink:href="#DejaVuSans-32" x="83.789062"/>
       <use xlink:href="#DejaVuSans-30" x="147.412109"/>
      </g>
     </g>
    </g>
    <g id="xtick_5">
     <g id="line2d_5">
      <g>
       <use xlink:href="#m28fcbeb12d" x="186.198125" y="228.96" style="stroke: #000000; stroke-width: 0.8"/>
      </g>
     </g>
     <g id="text_5">
      <!-- 0 -->
      <g transform="translate(183.016875 240.058437) scale(0.1 -0.1)">
       <use xlink:href="#DejaVuSans-30"/>
      </g>
     </g>
    </g>
    <g id="xtick_6">
     <g id="line2d_6">
      <g>
       <use xlink:href="#m28fcbeb12d" x="219.678125" y="228.96" style="stroke: #000000; stroke-width: 0.8"/>
      </g>
     </g>
     <g id="text_6">
      <!-- 20 -->
      <g transform="translate(213.315625 240.058437) scale(0.1 -0.1)">
       <use xlink:href="#DejaVuSans-32"/>
       <use xlink:href="#DejaVuSans-30" x="63.623047"/>
      </g>
     </g>
    </g>
    <g id="xtick_7">
     <g id="line2d_7">
      <defs>
       <path id="m207bae6e1b" d="M 0 0 
L 0 -4 
" style="stroke: #000000; stroke-width: 0.6"/>
      </defs>
      <g>
       <use xlink:href="#m207bae6e1b" x="69.018125" y="228.96" style="stroke: #000000; stroke-width: 0.6"/>
      </g>
     </g>
    </g>
    <g id="xtick_8">
     <g id="line2d_8">
      <g>
       <use xlink:href="#m207bae6e1b" x="102.498125" y="228.96" style="stroke: #000000; stroke-width: 0.6"/>
      </g>
     </g>
    </g>
    <g id="xtick_9">
     <g id="line2d_9">
      <g>
       <use xlink:href="#m207bae6e1b" x="135.978125" y="228.96" style="stroke: #000000; stroke-width: 0.6"/>
      </g>
     </g>
    </g>
    <g id="xtick_10">
     <g id="line2d_10">
      <g>
       <use xlink:href="#m207bae6e1b" x="169.458125" y="228.96" style="stroke: #000000; stroke-width: 0.6"/>
      </g>
     </g>
    </g>
    <g id="xtick_11">
     <g id="line2d_11">
      <g>
       <use xlink:href="#m207bae6e1b" x="202.938125" y="228.96" style="stroke: #000000; stroke-width: 0.6"/>
      </g>
     </g>
    </g>
    <g id="text_7">
     <!-- Gate Voltage, $\mathregular{V_{G}}$ (V) -->
     <g transform="translate(84.828125 253.738125) scale(0.1 -0.1)">
      <defs>
       <path id="DejaVuSans-47" d="M 3809 666 
L 3809 1919 
L 2778 1919 
L 2778 2438 
L 4434 2438 
L 4434 434 
Q 4069 175 3628 42 
Q 3188 -91 2688 -91 
Q 1594 -91 976 548 
Q 359 1188 359 2328 
Q 359 3472 976 4111 
Q 1594 4750 2688 4750 
Q 3144 4750 3555 4637 
Q 3966 4525 4313 4306 
L 4313 3634 
Q 3963 3931 3569 4081 
Q 3175 4231 2741 4231 
Q 1884 4231 1454 3753 
Q 1025 3275 1025 2328 
Q 1025 1384 1454 906 
Q 1884 428 2741 428 
Q 3075 428 3337 486 
Q 3600 544 3809 666 
z
" transform="scale(0.015625)"/>
       <path id="DejaVuSans-61" d="M 2194 1759 
Q 1497 1759 1228 1600 
Q 959 1441 959 1056 
Q 959 750 1161 570 
Q 1363 391 1709 391 
Q 2188 391 2477 730 
Q 2766 1069 2766 1631 
L 2766 1759 
L 2194 1759 
z
M 3341 1997 
L 3341 0 
L 2766 0 
L 2766 531 
Q 2569 213 2275 61 
Q 1981 -91 1556 -91 
Q 1019 -91 701 211 
Q 384 513 384 1019 
Q 384 1609 779 1909 
Q 1175 2209 1959 2209 
L 2766 2209 
L 2766 2266 
Q 2766 2663 2505 2880 
Q 2244 3097 1772 3097 
Q 1472 3097 1187 3025 
Q 903 2953 641 2809 
L 641 3341 
Q 956 3463 1253 3523 
Q 1550 3584 1831 3584 
Q 2591 3584 2966 3190 
Q 3341 2797 3341 1997 
z
" transform="scale(0.015625)"/>
       <path id="DejaVuSans-74" d="M 1172 4494 
L 1172 3500 
L 2356 3500 
L 2356 3053 
L 1172 3053 
L 1172 1153 
Q 1172 725 1289 603 
Q 1406 481 1766 481 
L 2356 481 
L 2356 0 
L 1766 0 
Q 1100 0 847 248 
Q 594 497 594 1153 
L 594 3053 
L 172 3053 
L 172 3500 
L 594 3500 
L 594 4494 
L 1172 4494 
z
" transform="scale(0.015625)"/>
       <path id="DejaVuSans-65" d="M 3597 1894 
L 3597 1613 
L 953 1613 
Q 991 1019 1311 708 
Q 1631 397 2203 397 
Q 2534 397 2845 478 
Q 3156 559 3463 722 
L 3463 178 
Q 3153 47 2828 -22 
Q 2503 -91 2169 -91 
Q 1331 -91 842 396 
Q 353 884 353 1716 
Q 353 2575 817 3079 
Q 1281 3584 2069 3584 
Q 2775 3584 3186 3129 
Q 3597 2675 3597 1894 
z
M 3022 2063 
Q 3016 2534 2758 2815 
Q 2500 3097 2075 3097 
Q 1594 3097 1305 2825 
Q 1016 2553 972 2059 
L 3022 2063 
z
" transform="scale(0.015625)"/>
       <path id="DejaVuSans-20" transform="scale(0.015625)"/>
       <path id="DejaVuSans-56" d="M 1831 0 
L 50 4666 
L 709 4666 
L 2188 738 
L 3669 4666 
L 4325 4666 
L 2547 0 
L 1831 0 
z
" transform="scale(0.015625)"/>
       <path id="DejaVuSans-6f" d="M 1959 3097 
Q 1497 3097 1228 2736 
Q 959 2375 959 1747 
Q 959 1119 1226 758 
Q 1494 397 1959 397 
Q 2419 397 2687 759 
Q 2956 1122 2956 1747 
Q 2956 2369 2687 2733 
Q 2419 3097 1959 3097 
z
M 1959 3584 
Q 2709 3584 3137 3096 
Q 3566 2609 3566 1747 
Q 3566 888 3137 398 
Q 2709 -91 1959 -91 
Q 1206 -91 779 398 
Q 353 888 353 1747 
Q 353 2609 779 3096 
Q 1206 3584 1959 3584 
z
" transform="scale(0.015625)"/>
       <path id="DejaVuSans-6c" d="M 603 4863 
L 1178 4863 
L 1178 0 
L 603 0 
L 603 4863 
z
" transform="scale(0.015625)"/>
       <path id="DejaVuSans-67" d="M 2906 1791 
Q 2906 2416 2648 2759 
Q 2391 3103 1925 3103 
Q 1463 3103 1205 2759 
Q 947 2416 947 1791 
Q 947 1169 1205 825 
Q 1463 481 1925 481 
Q 2391 481 2648 825 
Q 2906 1169 2906 1791 
z
M 3481 434 
Q 3481 -459 3084 -895 
Q 2688 -1331 1869 -1331 
Q 1566 -1331 1297 -1286 
Q 1028 -1241 775 -1147 
L 775 -588 
Q 1028 -725 1275 -790 
Q 1522 -856 1778 -856 
Q 2344 -856 2625 -561 
Q 2906 -266 2906 331 
L 2906 616 
Q 2728 306 2450 153 
Q 2172 0 1784 0 
Q 1141 0 747 490 
Q 353 981 353 1791 
Q 353 2603 747 3093 
Q 1141 3584 1784 3584 
Q 2172 3584 2450 3431 
Q 2728 3278 2906 2969 
L 2906 3500 
L 3481 3500 
L 3481 434 
z
" transform="scale(0.015625)"/>
       <path id="DejaVuSans-2c" d="M 750 794 
L 1409 794 
L 1409 256 
L 897 -744 
L 494 -744 
L 750 256 
L 750 794 
z
" transform="scale(0.015625)"/>
       <path id="DejaVuSans-28" d="M 1984 4856 
Q 1566 4138 1362 3434 
Q 1159 2731 1159 2009 
Q 1159 1288 1364 580 
Q 1569 -128 1984 -844 
L 1484 -844 
Q 1016 -109 783 600 
Q 550 1309 550 2009 
Q 550 2706 781 3412 
Q 1013 4119 1484 4856 
L 1984 4856 
z
" transform="scale(0.015625)"/>
       <path id="DejaVuSans-29" d="M 513 4856 
L 1013 4856 
Q 1481 4119 1714 3412 
Q 1947 2706 1947 2009 
Q 1947 1309 1714 600 
Q 1481 -109 1013 -844 
L 513 -844 
Q 928 -128 1133 580 
Q 1338 1288 1338 2009 
Q 1338 2731 1133 3434 
Q 928 4138 513 4856 
z
" transform="scale(0.015625)"/>
      </defs>
      <use xlink:href="#DejaVuSans-47" transform="translate(0 0.015625)"/>
      <use xlink:href="#DejaVuSans-61" transform="translate(77.490234 0.015625)"/>
      <use xlink:href="#DejaVuSans-74" transform="translate(138.769531 0.015625)"/>
      <use xlink:href="#DejaVuSans-65" transform="translate(177.978516 0.015625)"/>
      <use xlink:href="#DejaVuSans-20" transform="translate(239.501953 0.015625)"/>
      <use xlink:href="#DejaVuSans-56" transform="translate(271.289062 0.015625)"/>
      <use xlink:href="#DejaVuSans-6f" transform="translate(339.697266 0.015625)"/>
      <use xlink:href="#DejaVuSans-6c" transform="translate(400.878906 0.015625)"/>
      <use xlink:href="#DejaVuSans-74" transform="translate(428.662109 0.015625)"/>
      <use xlink:href="#DejaVuSans-61" transform="translate(467.871094 0.015625)"/>
      <use xlink:href="#DejaVuSans-67" transform="translate(529.150391 0.015625)"/>
      <use xlink:href="#DejaVuSans-65" transform="translate(592.626953 0.015625)"/>
      <use xlink:href="#DejaVuSans-2c" transform="translate(654.150391 0.015625)"/>
      <use xlink:href="#DejaVuSans-20" transform="translate(685.9375 0.015625)"/>
      <use xlink:href="#DejaVuSans-56" transform="translate(717.724609 0.015625)"/>
      <use xlink:href="#DejaVuSans-47" transform="translate(787.089844 -16.390625) scale(0.7)"/>
      <use xlink:href="#DejaVuSans-20" transform="translate(844.067383 0.015625)"/>
      <use xlink:href="#DejaVuSans-28" transform="translate(875.854492 0.015625)"/>
      <use xlink:href="#DejaVuSans-56" transform="translate(914.868164 0.015625)"/>
      <use xlink:href="#DejaVuSans-29" transform="translate(983.276367 0.015625)"/>
     </g>
    </g>
   </g>
   <g id="matplotlib.axis_2">
    <g id="ytick_1">
     <g id="line2d_12">
      <defs>
       <path id="m9731d744c8" d="M 0 0 
L 3.5 0 
" style="stroke: #000000; stroke-width: 0.8"/>
      </defs>
      <g>
       <use xlink:href="#m9731d744c8" x="52.278125" y="195.414682" style="stroke: #000000; stroke-width: 0.8"/>
      </g>
     </g>
     <g id="text_8">
      <!-- $\mathdefault{10^{-10}}$ -->
      <g transform="translate(20.878125 199.2139) scale(0.1 -0.1)">
       <defs>
        <path id="DejaVuSans-31" d="M 794 531 
L 1825 531 
L 1825 4091 
L 703 3866 
L 703 4441 
L 1819 4666 
L 2450 4666 
L 2450 531 
L 3481 531 
L 3481 0 
L 794 0 
L 794 531 
z
" transform="scale(0.015625)"/>
       </defs>
       <use xlink:href="#DejaVuSans-31" transform="translate(0 0.765625)"/>
       <use xlink:href="#DejaVuSans-30" transform="translate(63.623047 0.765625)"/>
       <use xlink:href="#DejaVuSans-2212" transform="translate(128.203125 39.046875) scale(0.7)"/>
       <use xlink:href="#DejaVuSans-31" transform="translate(186.855469 39.046875) scale(0.7)"/>
       <use xlink:href="#DejaVuSans-30" transform="translate(231.391602 39.046875) scale(0.7)"/>
      </g>
     </g>
    </g>
    <g id="ytick_2">
     <g id="line2d_13">
      <g>
       <use xlink:href="#m9731d744c8" x="52.278125" y="161.334419" style="stroke: #000000; stroke-width: 0.8"/>
      </g>
     </g>
     <g id="text_9">
      <!-- $\mathdefault{10^{-9}}$ -->
      <g transform="translate(25.278125 165.133638) scale(0.1 -0.1)">
       <defs>
        <path id="DejaVuSans-39" d="M 703 97 
L 703 672 
Q 941 559 1184 500 
Q 1428 441 1663 441 
Q 2288 441 2617 861 
Q 2947 1281 2994 2138 
Q 2813 1869 2534 1725 
Q 2256 1581 1919 1581 
Q 1219 1581 811 2004 
Q 403 2428 403 3163 
Q 403 3881 828 4315 
Q 1253 4750 1959 4750 
Q 2769 4750 3195 4129 
Q 3622 3509 3622 2328 
Q 3622 1225 3098 567 
Q 2575 -91 1691 -91 
Q 1453 -91 1209 -44 
Q 966 3 703 97 
z
M 1959 2075 
Q 2384 2075 2632 2365 
Q 2881 2656 2881 3163 
Q 2881 3666 2632 3958 
Q 2384 4250 1959 4250 
Q 1534 4250 1286 3958 
Q 1038 3666 1038 3163 
Q 1038 2656 1286 2365 
Q 1534 2075 1959 2075 
z
" transform="scale(0.015625)"/>
       </defs>
       <use xlink:href="#DejaVuSans-31" transform="translate(0 0.765625)"/>
       <use xlink:href="#DejaVuSans-30" transform="translate(63.623047 0.765625)"/>
       <use xlink:href="#DejaVuSans-2212" transform="translate(128.203125 39.046875) scale(0.7)"/>
       <use xlink:href="#DejaVuSans-39" transform="translate(186.855469 39.046875) scale(0.7)"/>
      </g>
     </g>
    </g>
    <g id="ytick_3">
     <g id="line2d_14">
      <g>
       <use xlink:href="#m9731d744c8" x="52.278125" y="127.254156" style="stroke: #000000; stroke-width: 0.8"/>
      </g>
     </g>
     <g id="text_10">
      <!-- $\mathdefault{10^{-8}}$ -->
      <g transform="translate(25.278125 131.053375) scale(0.1 -0.1)">
       <use xlink:href="#DejaVuSans-31" transform="translate(0 0.765625)"/>
       <use xlink:href="#DejaVuSans-30" transform="translate(63.623047 0.765625)"/>
       <use xlink:href="#DejaVuSans-2212" transform="translate(128.203125 39.046875) scale(0.7)"/>
       <use xlink:href="#DejaVuSans-38" transform="translate(186.855469 39.046875) scale(0.7)"/>
      </g>
     </g>
    </g>
    <g id="ytick_4">
     <g id="line2d_15">
      <g>
       <use xlink:href="#m9731d744c8" x="52.278125" y="93.173893" style="stroke: #000000; stroke-width: 0.8"/>
      </g>
     </g>
     <g id="text_11">
      <!-- $\mathdefault{10^{-7}}$ -->
      <g transform="translate(25.278125 96.973112) scale(0.1 -0.1)">
       <defs>
        <path id="DejaVuSans-37" d="M 525 4666 
L 3525 4666 
L 3525 4397 
L 1831 0 
L 1172 0 
L 2766 4134 
L 525 4134 
L 525 4666 
z
" transform="scale(0.015625)"/>
       </defs>
       <use xlink:href="#DejaVuSans-31" transform="translate(0 0.684375)"/>
       <use xlink:href="#DejaVuSans-30" transform="translate(63.623047 0.684375)"/>
       <use xlink:href="#DejaVuSans-2212" transform="translate(128.203125 38.965625) scale(0.7)"/>
       <use xlink:href="#DejaVuSans-37" transform="translate(186.855469 38.965625) scale(0.7)"/>
      </g>
     </g>
    </g>
    <g id="ytick_5">
     <g id="line2d_16">
      <g>
       <use xlink:href="#m9731d744c8" x="52.278125" y="59.093631" style="stroke: #000000; stroke-width: 0.8"/>
      </g>
     </g>
     <g id="text_12">
      <!-- $\mathdefault{10^{-6}}$ -->
      <g transform="translate(25.278125 62.892849) scale(0.1 -0.1)">
       <use xlink:href="#DejaVuSans-31" transform="translate(0 0.765625)"/>
       <use xlink:href="#DejaVuSans-30" transform="translate(63.623047 0.765625)"/>
       <use xlink:href="#DejaVuSans-2212" transform="translate(128.203125 39.046875) scale(0.7)"/>
       <use xlink:href="#DejaVuSans-36" transform="translate(186.855469 39.046875) scale(0.7)"/>
      </g>
     </g>
    </g>
    <g id="ytick_6">
     <g id="line2d_17">
      <g>
       <use xlink:href="#m9731d744c8" x="52.278125" y="25.013368" style="stroke: #000000; stroke-width: 0.8"/>
      </g>
     </g>
     <g id="text_13">
      <!-- $\mathdefault{10^{-5}}$ -->
      <g transform="translate(25.278125 28.812587) scale(0.1 -0.1)">
       <defs>
        <path id="DejaVuSans-35" d="M 691 4666 
L 3169 4666 
L 3169 4134 
L 1269 4134 
L 1269 2991 
Q 1406 3038 1543 3061 
Q 1681 3084 1819 3084 
Q 2600 3084 3056 2656 
Q 3513 2228 3513 1497 
Q 3513 744 3044 326 
Q 2575 -91 1722 -91 
Q 1428 -91 1123 -41 
Q 819 9 494 109 
L 494 744 
Q 775 591 1075 516 
Q 1375 441 1709 441 
Q 2250 441 2565 725 
Q 2881 1009 2881 1497 
Q 2881 1984 2565 2268 
Q 2250 2553 1709 2553 
Q 1456 2553 1204 2497 
Q 953 2441 691 2322 
L 691 4666 
z
" transform="scale(0.015625)"/>
       </defs>
       <use xlink:href="#DejaVuSans-31" transform="translate(0 0.684375)"/>
       <use xlink:href="#DejaVuSans-30" transform="translate(63.623047 0.684375)"/>
       <use xlink:href="#DejaVuSans-2212" transform="translate(128.203125 38.965625) scale(0.7)"/>
       <use xlink:href="#DejaVuSans-35" transform="translate(186.855469 38.965625) scale(0.7)"/>
      </g>
     </g>
    </g>
    <g id="ytick_7">
     <g id="line2d_18">
      <defs>
       <path id="m21eb9d28d8" d="M 0 0 
L 4 0 
" style="stroke: #000000; stroke-width: 0.6"/>
      </defs>
      <g>
       <use xlink:href="#m21eb9d28d8" x="52.278125" y="219.235763" style="stroke: #000000; stroke-width: 0.6"/>
      </g>
     </g>
    </g>
    <g id="ytick_8">
     <g id="line2d_19">
      <g>
       <use xlink:href="#m21eb9d28d8" x="52.278125" y="213.234527" style="stroke: #000000; stroke-width: 0.6"/>
      </g>
     </g>
    </g>
    <g id="ytick_9">
     <g id="line2d_20">
      <g>
       <use xlink:href="#m21eb9d28d8" x="52.278125" y="208.976582" style="stroke: #000000; stroke-width: 0.6"/>
      </g>
     </g>
    </g>
    <g id="ytick_10">
     <g id="line2d_21">
      <g>
       <use xlink:href="#m21eb9d28d8" x="52.278125" y="205.673863" style="stroke: #000000; stroke-width: 0.6"/>
      </g>
     </g>
    </g>
    <g id="ytick_11">
     <g id="line2d_22">
      <g>
       <use xlink:href="#m21eb9d28d8" x="52.278125" y="202.975345" style="stroke: #000000; stroke-width: 0.6"/>
      </g>
     </g>
    </g>
    <g id="ytick_12">
     <g id="line2d_23">
      <g>
       <use xlink:href="#m21eb9d28d8" x="52.278125" y="200.693781" style="stroke: #000000; stroke-width: 0.6"/>
      </g>
     </g>
    </g>
    <g id="ytick_13">
     <g id="line2d_24">
      <g>
       <use xlink:href="#m21eb9d28d8" x="52.278125" y="198.7174" style="stroke: #000000; stroke-width: 0.6"/>
      </g>
     </g>
    </g>
    <g id="ytick_14">
     <g id="line2d_25">
      <g>
       <use xlink:href="#m21eb9d28d8" x="52.278125" y="196.974109" style="stroke: #000000; stroke-width: 0.6"/>
      </g>
     </g>
    </g>
    <g id="ytick_15">
     <g id="line2d_26">
      <g>
       <use xlink:href="#m21eb9d28d8" x="52.278125" y="185.1555" style="stroke: #000000; stroke-width: 0.6"/>
      </g>
     </g>
    </g>
    <g id="ytick_16">
     <g id="line2d_27">
      <g>
       <use xlink:href="#m21eb9d28d8" x="52.278125" y="179.154264" style="stroke: #000000; stroke-width: 0.6"/>
      </g>
     </g>
    </g>
    <g id="ytick_17">
     <g id="line2d_28">
      <g>
       <use xlink:href="#m21eb9d28d8" x="52.278125" y="174.896319" style="stroke: #000000; stroke-width: 0.6"/>
      </g>
     </g>
    </g>
    <g id="ytick_18">
     <g id="line2d_29">
      <g>
       <use xlink:href="#m21eb9d28d8" x="52.278125" y="171.5936" style="stroke: #000000; stroke-width: 0.6"/>
      </g>
     </g>
    </g>
    <g id="ytick_19">
     <g id="line2d_30">
      <g>
       <use xlink:href="#m21eb9d28d8" x="52.278125" y="168.895083" style="stroke: #000000; stroke-width: 0.6"/>
      </g>
     </g>
    </g>
    <g id="ytick_20">
     <g id="line2d_31">
      <g>
       <use xlink:href="#m21eb9d28d8" x="52.278125" y="166.613518" style="stroke: #000000; stroke-width: 0.6"/>
      </g>
     </g>
    </g>
    <g id="ytick_21">
     <g id="line2d_32">
      <g>
       <use xlink:href="#m21eb9d28d8" x="52.278125" y="164.637138" style="stroke: #000000; stroke-width: 0.6"/>
      </g>
     </g>
    </g>
    <g id="ytick_22">
     <g id="line2d_33">
      <g>
       <use xlink:href="#m21eb9d28d8" x="52.278125" y="162.893846" style="stroke: #000000; stroke-width: 0.6"/>
      </g>
     </g>
    </g>
    <g id="ytick_23">
     <g id="line2d_34">
      <g>
       <use xlink:href="#m21eb9d28d8" x="52.278125" y="151.075238" style="stroke: #000000; stroke-width: 0.6"/>
      </g>
     </g>
    </g>
    <g id="ytick_24">
     <g id="line2d_35">
      <g>
       <use xlink:href="#m21eb9d28d8" x="52.278125" y="145.074001" style="stroke: #000000; stroke-width: 0.6"/>
      </g>
     </g>
    </g>
    <g id="ytick_25">
     <g id="line2d_36">
      <g>
       <use xlink:href="#m21eb9d28d8" x="52.278125" y="140.816056" style="stroke: #000000; stroke-width: 0.6"/>
      </g>
     </g>
    </g>
    <g id="ytick_26">
     <g id="line2d_37">
      <g>
       <use xlink:href="#m21eb9d28d8" x="52.278125" y="137.513338" style="stroke: #000000; stroke-width: 0.6"/>
      </g>
     </g>
    </g>
    <g id="ytick_27">
     <g id="line2d_38">
      <g>
       <use xlink:href="#m21eb9d28d8" x="52.278125" y="134.81482" style="stroke: #000000; stroke-width: 0.6"/>
      </g>
     </g>
    </g>
    <g id="ytick_28">
     <g id="line2d_39">
      <g>
       <use xlink:href="#m21eb9d28d8" x="52.278125" y="132.533256" style="stroke: #000000; stroke-width: 0.6"/>
      </g>
     </g>
    </g>
    <g id="ytick_29">
     <g id="line2d_40">
      <g>
       <use xlink:href="#m21eb9d28d8" x="52.278125" y="130.556875" style="stroke: #000000; stroke-width: 0.6"/>
      </g>
     </g>
    </g>
    <g id="ytick_30">
     <g id="line2d_41">
      <g>
       <use xlink:href="#m21eb9d28d8" x="52.278125" y="128.813583" style="stroke: #000000; stroke-width: 0.6"/>
      </g>
     </g>
    </g>
    <g id="ytick_31">
     <g id="line2d_42">
      <g>
       <use xlink:href="#m21eb9d28d8" x="52.278125" y="116.994975" style="stroke: #000000; stroke-width: 0.6"/>
      </g>
     </g>
    </g>
    <g id="ytick_32">
     <g id="line2d_43">
      <g>
       <use xlink:href="#m21eb9d28d8" x="52.278125" y="110.993738" style="stroke: #000000; stroke-width: 0.6"/>
      </g>
     </g>
    </g>
    <g id="ytick_33">
     <g id="line2d_44">
      <g>
       <use xlink:href="#m21eb9d28d8" x="52.278125" y="106.735793" style="stroke: #000000; stroke-width: 0.6"/>
      </g>
     </g>
    </g>
    <g id="ytick_34">
     <g id="line2d_45">
      <g>
       <use xlink:href="#m21eb9d28d8" x="52.278125" y="103.433075" style="stroke: #000000; stroke-width: 0.6"/>
      </g>
     </g>
    </g>
    <g id="ytick_35">
     <g id="line2d_46">
      <g>
       <use xlink:href="#m21eb9d28d8" x="52.278125" y="100.734557" style="stroke: #000000; stroke-width: 0.6"/>
      </g>
     </g>
    </g>
    <g id="ytick_36">
     <g id="line2d_47">
      <g>
       <use xlink:href="#m21eb9d28d8" x="52.278125" y="98.452993" style="stroke: #000000; stroke-width: 0.6"/>
      </g>
     </g>
    </g>
    <g id="ytick_37">
     <g id="line2d_48">
      <g>
       <use xlink:href="#m21eb9d28d8" x="52.278125" y="96.476612" style="stroke: #000000; stroke-width: 0.6"/>
      </g>
     </g>
    </g>
    <g id="ytick_38">
     <g id="line2d_49">
      <g>
       <use xlink:href="#m21eb9d28d8" x="52.278125" y="94.733321" style="stroke: #000000; stroke-width: 0.6"/>
      </g>
     </g>
    </g>
    <g id="ytick_39">
     <g id="line2d_50">
      <g>
       <use xlink:href="#m21eb9d28d8" x="52.278125" y="82.914712" style="stroke: #000000; stroke-width: 0.6"/>
      </g>
     </g>
    </g>
    <g id="ytick_40">
     <g id="line2d_51">
      <g>
       <use xlink:href="#m21eb9d28d8" x="52.278125" y="76.913476" style="stroke: #000000; stroke-width: 0.6"/>
      </g>
     </g>
    </g>
    <g id="ytick_41">
     <g id="line2d_52">
      <g>
       <use xlink:href="#m21eb9d28d8" x="52.278125" y="72.655531" style="stroke: #000000; stroke-width: 0.6"/>
      </g>
     </g>
    </g>
    <g id="ytick_42">
     <g id="line2d_53">
      <g>
       <use xlink:href="#m21eb9d28d8" x="52.278125" y="69.352812" style="stroke: #000000; stroke-width: 0.6"/>
      </g>
     </g>
    </g>
    <g id="ytick_43">
     <g id="line2d_54">
      <g>
       <use xlink:href="#m21eb9d28d8" x="52.278125" y="66.654294" style="stroke: #000000; stroke-width: 0.6"/>
      </g>
     </g>
    </g>
    <g id="ytick_44">
     <g id="line2d_55">
      <g>
       <use xlink:href="#m21eb9d28d8" x="52.278125" y="64.37273" style="stroke: #000000; stroke-width: 0.6"/>
      </g>
     </g>
    </g>
    <g id="ytick_45">
     <g id="line2d_56">
      <g>
       <use xlink:href="#m21eb9d28d8" x="52.278125" y="62.396349" style="stroke: #000000; stroke-width: 0.6"/>
      </g>
     </g>
    </g>
    <g id="ytick_46">
     <g id="line2d_57">
      <g>
       <use xlink:href="#m21eb9d28d8" x="52.278125" y="60.653058" style="stroke: #000000; stroke-width: 0.6"/>
      </g>
     </g>
    </g>
    <g id="ytick_47">
     <g id="line2d_58">
      <g>
       <use xlink:href="#m21eb9d28d8" x="52.278125" y="48.834449" style="stroke: #000000; stroke-width: 0.6"/>
      </g>
     </g>
    </g>
    <g id="ytick_48">
     <g id="line2d_59">
      <g>
       <use xlink:href="#m21eb9d28d8" x="52.278125" y="42.833213" style="stroke: #000000; stroke-width: 0.6"/>
      </g>
     </g>
    </g>
    <g id="ytick_49">
     <g id="line2d_60">
      <g>
       <use xlink:href="#m21eb9d28d8" x="52.278125" y="38.575268" style="stroke: #000000; stroke-width: 0.6"/>
      </g>
     </g>
    </g>
    <g id="ytick_50">
     <g id="line2d_61">
      <g>
       <use xlink:href="#m21eb9d28d8" x="52.278125" y="35.272549" style="stroke: #000000; stroke-width: 0.6"/>
      </g>
     </g>
    </g>
    <g id="ytick_51">
     <g id="line2d_62">
      <g>
       <use xlink:href="#m21eb9d28d8" x="52.278125" y="32.574032" style="stroke: #000000; stroke-width: 0.6"/>
      </g>
     </g>
    </g>
    <g id="ytick_52">
     <g id="line2d_63">
      <g>
       <use xlink:href="#m21eb9d28d8" x="52.278125" y="30.292467" style="stroke: #000000; stroke-width: 0.6"/>
      </g>
     </g>
    </g>
    <g id="ytick_53">
     <g id="line2d_64">
      <g>
       <use xlink:href="#m21eb9d28d8" x="52.278125" y="28.316087" style="stroke: #000000; stroke-width: 0.6"/>
      </g>
     </g>
    </g>
    <g id="ytick_54">
     <g id="line2d_65">
      <g>
       <use xlink:href="#m21eb9d28d8" x="52.278125" y="26.572795" style="stroke: #000000; stroke-width: 0.6"/>
      </g>
     </g>
    </g>
    <g id="ytick_55">
     <g id="line2d_66">
      <g>
       <use xlink:href="#m21eb9d28d8" x="52.278125" y="14.754187" style="stroke: #000000; stroke-width: 0.6"/>
      </g>
     </g>
    </g>
    <g id="ytick_56">
     <g id="line2d_67">
      <g>
       <use xlink:href="#m21eb9d28d8" x="52.278125" y="8.75295" style="stroke: #000000; stroke-width: 0.6"/>
      </g>
     </g>
    </g>
    <g id="text_14">
     <!-- -$\mathregular{I_{D}}$ (A) -->
     <g transform="translate(14.798437 133.18) rotate(-90) scale(0.1 -0.1)">
      <defs>
       <path id="DejaVuSans-2d" d="M 313 2009 
L 1997 2009 
L 1997 1497 
L 313 1497 
L 313 2009 
z
" transform="scale(0.015625)"/>
       <path id="DejaVuSans-49" d="M 628 4666 
L 1259 4666 
L 1259 0 
L 628 0 
L 628 4666 
z
" transform="scale(0.015625)"/>
       <path id="DejaVuSans-44" d="M 1259 4147 
L 1259 519 
L 2022 519 
Q 2988 519 3436 956 
Q 3884 1394 3884 2338 
Q 3884 3275 3436 3711 
Q 2988 4147 2022 4147 
L 1259 4147 
z
M 628 4666 
L 1925 4666 
Q 3281 4666 3915 4102 
Q 4550 3538 4550 2338 
Q 4550 1131 3912 565 
Q 3275 0 1925 0 
L 628 0 
L 628 4666 
z
" transform="scale(0.015625)"/>
       <path id="DejaVuSans-41" d="M 2188 4044 
L 1331 1722 
L 3047 1722 
L 2188 4044 
z
M 1831 4666 
L 2547 4666 
L 4325 0 
L 3669 0 
L 3244 1197 
L 1141 1197 
L 716 0 
L 50 0 
L 1831 4666 
z
" transform="scale(0.015625)"/>
      </defs>
      <use xlink:href="#DejaVuSans-2d" transform="translate(0 0.125)"/>
      <use xlink:href="#DejaVuSans-49" transform="translate(36.083984 0.125)"/>
      <use xlink:href="#DejaVuSans-44" transform="translate(66.533203 -16.28125) scale(0.7)"/>
      <use xlink:href="#DejaVuSans-20" transform="translate(123.168945 0.125)"/>
      <use xlink:href="#DejaVuSans-28" transform="translate(154.956055 0.125)"/>
      <use xlink:href="#DejaVuSans-41" transform="translate(193.969727 0.125)"/>
      <use xlink:href="#DejaVuSans-29" transform="translate(262.37793 0.125)"/>
     </g>
    </g>
   </g>
   <g id="line2d_68">
    <path d="M 219.678125 192.195314 
L 216.330125 218.88 
L 212.982125 211.762723 
L 209.634125 203.782279 
L 206.286125 200.777333 
L 202.938125 199.009734 
L 199.590125 198.905257 
L 196.242125 197.031948 
L 192.894125 197.10049 
L 189.546125 196.110545 
L 186.198125 195.469534 
L 182.850125 196.623991 
L 179.502125 198.505618 
L 176.154125 199.207403 
L 172.806125 200.02557 
L 169.458125 200.224957 
L 166.110125 201.147093 
L 162.762125 201.19563 
L 159.414125 201.839188 
L 156.066125 164.950463 
L 152.718125 137.322073 
L 149.370125 120.990611 
L 146.022125 109.844728 
L 142.674125 101.535995 
L 139.326125 93.781531 
L 135.978125 87.471296 
L 132.630125 81.68314 
L 129.282125 76.3208 
L 125.934125 71.293986 
L 122.586125 67.745836 
L 119.238125 62.89124 
L 115.890125 58.489486 
L 112.542125 54.433899 
L 109.194125 50.699342 
L 105.846125 47.226527 
L 102.498125 43.995394 
L 99.150125 40.985943 
L 95.802125 38.190643 
L 92.454125 35.592943 
L 89.106125 33.793823 
L 85.758125 31.374987 
L 82.410125 29.233577 
L 79.062125 27.311122 
L 75.714125 25.589889 
L 72.366125 24.035219 
L 69.018125 22.637444 
L 65.670125 21.363228 
L 62.322125 20.205612 
L 58.974125 19.147019 
L 55.626125 18.173845 
L 52.278125 17.28 
" clip-path="url(#pe4f0d67b95)" style="fill: none; stroke: #8286ff; stroke-width: 1.5; stroke-linecap: square"/>
   </g>
   <g id="line2d_69">
    <path d="M 52.278125 17.684028 
L 55.626125 19.395385 
L 58.974125 21.153686 
L 62.322125 23.039131 
L 65.670125 25.110625 
L 69.018125 27.413649 
L 72.366125 29.958647 
L 75.714125 32.759277 
L 79.062125 35.799508 
L 82.410125 39.035423 
L 85.758125 42.64237 
L 89.106125 46.492715 
L 92.454125 50.640335 
L 95.802125 55.12968 
L 99.150125 59.980288 
L 102.498125 65.261808 
L 105.846125 71.042831 
L 109.194125 77.18237 
L 112.542125 84.281401 
L 115.890125 92.148357 
L 119.238125 100.938664 
L 122.586125 110.804868 
L 125.934125 121.644941 
L 129.282125 132.714665 
L 132.630125 143.066711 
L 135.978125 151.890769 
L 139.326125 158.457138 
L 142.674125 162.542921 
L 146.022125 164.324371 
L 149.370125 165.995625 
L 152.718125 167.201139 
L 156.066125 168.216436 
L 159.414125 169.454357 
L 162.762125 170.382178 
L 166.110125 171.210339 
L 169.458125 171.560041 
L 172.806125 172.783635 
L 176.154125 173.285966 
L 179.502125 173.790678 
L 182.850125 174.214353 
L 186.198125 174.549025 
L 189.546125 175.006231 
L 192.894125 175.168677 
L 196.242125 175.252679 
L 199.590125 175.50564 
L 202.938125 175.329075 
L 206.286125 175.078334 
L 209.634125 174.689168 
L 212.982125 174.145615 
L 216.330125 173.453881 
L 219.678125 171.828304 
" clip-path="url(#pe4f0d67b95)" style="fill: none; stroke: #f5c92a; stroke-width: 1.5; stroke-linecap: square"/>
   </g>
   <g id="patch_3">
    <path d="M 52.278125 228.96 
L 52.278125 7.2 
" style="fill: none; stroke: #000000; stroke-width: 0.8; stroke-linejoin: miter; stroke-linecap: square"/>
   </g>
   <g id="patch_4">
    <path d="M 219.678125 228.96 
L 219.678125 7.2 
" style="fill: none; stroke: #000000; stroke-width: 0.8; stroke-linejoin: miter; stroke-linecap: square"/>
   </g>
   <g id="patch_5">
    <path d="M 52.278125 228.96 
L 219.678125 228.96 
" style="fill: none; stroke: #000000; stroke-width: 0.8; stroke-linejoin: miter; stroke-linecap: square"/>
   </g>
   <g id="legend_1">
    <g id="line2d_70">
     <path d="M 140.578125 20.298437 
L 150.578125 20.298437 
L 160.578125 20.298437 
" style="fill: none; stroke: #8286ff; stroke-width: 1.5; stroke-linecap: square"/>
    </g>
    <g id="text_15">
     <!-- $\mathregular{I_{D}}$, up -->
     <g transform="translate(168.578125 23.798437) scale(0.1 -0.1)">
      <defs>
       <path id="DejaVuSans-75" d="M 544 1381 
L 544 3500 
L 1119 3500 
L 1119 1403 
Q 1119 906 1312 657 
Q 1506 409 1894 409 
Q 2359 409 2629 706 
Q 2900 1003 2900 1516 
L 2900 3500 
L 3475 3500 
L 3475 0 
L 2900 0 
L 2900 538 
Q 2691 219 2414 64 
Q 2138 -91 1772 -91 
Q 1169 -91 856 284 
Q 544 659 544 1381 
z
M 1991 3584 
L 1991 3584 
z
" transform="scale(0.015625)"/>
       <path id="DejaVuSans-70" d="M 1159 525 
L 1159 -1331 
L 581 -1331 
L 581 3500 
L 1159 3500 
L 1159 2969 
Q 1341 3281 1617 3432 
Q 1894 3584 2278 3584 
Q 2916 3584 3314 3078 
Q 3713 2572 3713 1747 
Q 3713 922 3314 415 
Q 2916 -91 2278 -91 
Q 1894 -91 1617 61 
Q 1341 213 1159 525 
z
M 3116 1747 
Q 3116 2381 2855 2742 
Q 2594 3103 2138 3103 
Q 1681 3103 1420 2742 
Q 1159 2381 1159 1747 
Q 1159 1113 1420 752 
Q 1681 391 2138 391 
Q 2594 391 2855 752 
Q 3116 1113 3116 1747 
z
" transform="scale(0.015625)"/>
      </defs>
      <use xlink:href="#DejaVuSans-49" transform="translate(0 0.09375)"/>
      <use xlink:href="#DejaVuSans-44" transform="translate(30.449219 -16.3125) scale(0.7)"/>
      <use xlink:href="#DejaVuSans-2c" transform="translate(87.084961 0.09375)"/>
      <use xlink:href="#DejaVuSans-20" transform="translate(118.87207 0.09375)"/>
      <use xlink:href="#DejaVuSans-75" transform="translate(150.65918 0.09375)"/>
      <use xlink:href="#DejaVuSans-70" transform="translate(214.038086 0.09375)"/>
     </g>
    </g>
    <g id="line2d_71">
     <path d="M 140.578125 34.996875 
L 150.578125 34.996875 
L 160.578125 34.996875 
" style="fill: none; stroke: #f5c92a; stroke-width: 1.5; stroke-linecap: square"/>
    </g>
    <g id="text_16">
     <!-- $\mathregular{I_{D}}$, down -->
     <g transform="translate(168.578125 38.496875) scale(0.1 -0.1)">
      <defs>
       <path id="DejaVuSans-64" d="M 2906 2969 
L 2906 4863 
L 3481 4863 
L 3481 0 
L 2906 0 
L 2906 525 
Q 2725 213 2448 61 
Q 2172 -91 1784 -91 
Q 1150 -91 751 415 
Q 353 922 353 1747 
Q 353 2572 751 3078 
Q 1150 3584 1784 3584 
Q 2172 3584 2448 3432 
Q 2725 3281 2906 2969 
z
M 947 1747 
Q 947 1113 1208 752 
Q 1469 391 1925 391 
Q 2381 391 2643 752 
Q 2906 1113 2906 1747 
Q 2906 2381 2643 2742 
Q 2381 3103 1925 3103 
Q 1469 3103 1208 2742 
Q 947 2381 947 1747 
z
" transform="scale(0.015625)"/>
       <path id="DejaVuSans-77" d="M 269 3500 
L 844 3500 
L 1563 769 
L 2278 3500 
L 2956 3500 
L 3675 769 
L 4391 3500 
L 4966 3500 
L 4050 0 
L 3372 0 
L 2619 2869 
L 1863 0 
L 1184 0 
L 269 3500 
z
" transform="scale(0.015625)"/>
       <path id="DejaVuSans-6e" d="M 3513 2113 
L 3513 0 
L 2938 0 
L 2938 2094 
Q 2938 2591 2744 2837 
Q 2550 3084 2163 3084 
Q 1697 3084 1428 2787 
Q 1159 2491 1159 1978 
L 1159 0 
L 581 0 
L 581 3500 
L 1159 3500 
L 1159 2956 
Q 1366 3272 1645 3428 
Q 1925 3584 2291 3584 
Q 2894 3584 3203 3211 
Q 3513 2838 3513 2113 
z
" transform="scale(0.015625)"/>
      </defs>
      <use xlink:href="#DejaVuSans-49" transform="translate(0 0.015625)"/>
      <use xlink:href="#DejaVuSans-44" transform="translate(30.449219 -16.390625) scale(0.7)"/>
      <use xlink:href="#DejaVuSans-2c" transform="translate(87.084961 0.015625)"/>
      <use xlink:href="#DejaVuSans-20" transform="translate(118.87207 0.015625)"/>
      <use xlink:href="#DejaVuSans-64" transform="translate(150.65918 0.015625)"/>
      <use xlink:href="#DejaVuSans-6f" transform="translate(214.135742 0.015625)"/>
      <use xlink:href="#DejaVuSans-77" transform="translate(275.317383 0.015625)"/>
      <use xlink:href="#DejaVuSans-6e" transform="translate(357.104492 0.015625)"/>
     </g>
    </g>
   </g>
  </g>
  <g id="axes_2">
   <g id="matplotlib.axis_3">
    <g id="ytick_57">
     <g id="line2d_72">
      <defs>
       <path id="ma35851e6a0" d="M 0 0 
L -3.5 0 
" style="stroke: #000000; stroke-width: 0.8"/>
      </defs>
      <g>
       <use xlink:href="#ma35851e6a0" x="219.678125" y="219.102457" style="stroke: #000000; stroke-width: 0.8"/>
      </g>
     </g>
     <g id="text_17">
      <!-- 0.000 -->
      <g transform="translate(223.178125 222.901676) scale(0.1 -0.1)">
       <defs>
        <path id="DejaVuSans-2e" d="M 684 794 
L 1344 794 
L 1344 0 
L 684 0 
L 684 794 
z
" transform="scale(0.015625)"/>
       </defs>
       <use xlink:href="#DejaVuSans-30"/>
       <use xlink:href="#DejaVuSans-2e" x="63.623047"/>
       <use xlink:href="#DejaVuSans-30" x="95.410156"/>
       <use xlink:href="#DejaVuSans-30" x="159.033203"/>
       <use xlink:href="#DejaVuSans-30" x="222.65625"/>
      </g>
     </g>
    </g>
    <g id="ytick_58">
     <g id="line2d_73">
      <g>
       <use xlink:href="#ma35851e6a0" x="219.678125" y="169.953837" style="stroke: #000000; stroke-width: 0.8"/>
      </g>
     </g>
     <g id="text_18">
      <!-- 0.001 -->
      <g transform="translate(223.178125 173.753056) scale(0.1 -0.1)">
       <use xlink:href="#DejaVuSans-30"/>
       <use xlink:href="#DejaVuSans-2e" x="63.623047"/>
       <use xlink:href="#DejaVuSans-30" x="95.410156"/>
       <use xlink:href="#DejaVuSans-30" x="159.033203"/>
       <use xlink:href="#DejaVuSans-31" x="222.65625"/>
      </g>
     </g>
    </g>
    <g id="ytick_59">
     <g id="line2d_74">
      <g>
       <use xlink:href="#ma35851e6a0" x="219.678125" y="120.805217" style="stroke: #000000; stroke-width: 0.8"/>
      </g>
     </g>
     <g id="text_19">
      <!-- 0.002 -->
      <g transform="translate(223.178125 124.604436) scale(0.1 -0.1)">
       <use xlink:href="#DejaVuSans-30"/>
       <use xlink:href="#DejaVuSans-2e" x="63.623047"/>
       <use xlink:href="#DejaVuSans-30" x="95.410156"/>
       <use xlink:href="#DejaVuSans-30" x="159.033203"/>
       <use xlink:href="#DejaVuSans-32" x="222.65625"/>
      </g>
     </g>
    </g>
    <g id="ytick_60">
     <g id="line2d_75">
      <g>
       <use xlink:href="#ma35851e6a0" x="219.678125" y="71.656597" style="stroke: #000000; stroke-width: 0.8"/>
      </g>
     </g>
     <g id="text_20">
      <!-- 0.003 -->
      <g transform="translate(223.178125 75.455816) scale(0.1 -0.1)">
       <defs>
        <path id="DejaVuSans-33" d="M 2597 2516 
Q 3050 2419 3304 2112 
Q 3559 1806 3559 1356 
Q 3559 666 3084 287 
Q 2609 -91 1734 -91 
Q 1441 -91 1130 -33 
Q 819 25 488 141 
L 488 750 
Q 750 597 1062 519 
Q 1375 441 1716 441 
Q 2309 441 2620 675 
Q 2931 909 2931 1356 
Q 2931 1769 2642 2001 
Q 2353 2234 1838 2234 
L 1294 2234 
L 1294 2753 
L 1863 2753 
Q 2328 2753 2575 2939 
Q 2822 3125 2822 3475 
Q 2822 3834 2567 4026 
Q 2313 4219 1838 4219 
Q 1578 4219 1281 4162 
Q 984 4106 628 3988 
L 628 4550 
Q 988 4650 1302 4700 
Q 1616 4750 1894 4750 
Q 2613 4750 3031 4423 
Q 3450 4097 3450 3541 
Q 3450 3153 3228 2886 
Q 3006 2619 2597 2516 
z
" transform="scale(0.015625)"/>
       </defs>
       <use xlink:href="#DejaVuSans-30"/>
       <use xlink:href="#DejaVuSans-2e" x="63.623047"/>
       <use xlink:href="#DejaVuSans-30" x="95.410156"/>
       <use xlink:href="#DejaVuSans-30" x="159.033203"/>
       <use xlink:href="#DejaVuSans-33" x="222.65625"/>
      </g>
     </g>
    </g>
    <g id="ytick_61">
     <g id="line2d_76">
      <g>
       <use xlink:href="#ma35851e6a0" x="219.678125" y="22.507977" style="stroke: #000000; stroke-width: 0.8"/>
      </g>
     </g>
     <g id="text_21">
      <!-- 0.004 -->
      <g transform="translate(223.178125 26.307196) scale(0.1 -0.1)">
       <use xlink:href="#DejaVuSans-30"/>
       <use xlink:href="#DejaVuSans-2e" x="63.623047"/>
       <use xlink:href="#DejaVuSans-30" x="95.410156"/>
       <use xlink:href="#DejaVuSans-30" x="159.033203"/>
       <use xlink:href="#DejaVuSans-34" x="222.65625"/>
      </g>
     </g>
    </g>
    <g id="text_22">
     <!-- √|$\mathregular{I_{D}}$| (√A) -->
     <g transform="translate(264.00625 141.13) rotate(-90) scale(0.1 -0.1)">
      <defs>
       <path id="DejaVuSans-221a" d="M 3488 5191 
L 4078 5191 
L 4078 4891 
L 3719 4891 
L 1863 -128 
L 1656 -128 
L 659 2631 
L 269 2491 
L 191 2741 
L 1075 3047 
L 1875 831 
L 3488 5191 
z
" transform="scale(0.015625)"/>
       <path id="DejaVuSans-7c" d="M 1344 4891 
L 1344 -1509 
L 813 -1509 
L 813 4891 
L 1344 4891 
z
" transform="scale(0.015625)"/>
      </defs>
      <use xlink:href="#DejaVuSans-221a" transform="translate(0 0.890625)"/>
      <use xlink:href="#DejaVuSans-7c" transform="translate(63.720703 0.890625)"/>
      <use xlink:href="#DejaVuSans-49" transform="translate(97.412109 0.890625)"/>
      <use xlink:href="#DejaVuSans-44" transform="translate(127.861328 -15.515625) scale(0.7)"/>
      <use xlink:href="#DejaVuSans-7c" transform="translate(184.49707 0.890625)"/>
      <use xlink:href="#DejaVuSans-20" transform="translate(218.188477 0.890625)"/>
      <use xlink:href="#DejaVuSans-28" transform="translate(249.975586 0.890625)"/>
      <use xlink:href="#DejaVuSans-221a" transform="translate(288.989258 0.890625)"/>
      <use xlink:href="#DejaVuSans-41" transform="translate(352.709961 0.890625)"/>
      <use xlink:href="#DejaVuSans-29" transform="translate(421.118164 0.890625)"/>
     </g>
    </g>
   </g>
   <g id="line2d_77">
    <path d="M 219.678125 218.554504 
L 216.330125 218.88 
L 212.982125 218.819536 
L 209.634125 218.731991 
L 206.286125 218.692409 
L 202.938125 218.667178 
L 199.590125 218.665639 
L 196.242125 218.637102 
L 192.894125 218.638179 
L 189.546125 218.62239 
L 186.198125 218.611881 
L 182.850125 218.630645 
L 179.502125 218.659702 
L 176.154125 218.670075 
L 172.806125 218.681862 
L 169.458125 218.684686 
L 166.110125 218.697499 
L 162.762125 218.698163 
L 159.414125 218.706857 
L 156.066125 217.726961 
L 152.718125 215.604597 
L 149.370125 213.029428 
L 146.022125 210.25274 
L 142.674125 207.385122 
L 139.326125 203.876082 
L 135.978125 200.25835 
L 132.630125 196.188767 
L 129.282125 191.638238 
L 125.934125 186.555013 
L 122.586125 182.410348 
L 119.238125 175.871419 
L 115.890125 168.940452 
L 112.542125 161.57497 
L 109.194125 153.839609 
L 105.846125 145.715892 
L 102.498125 137.251964 
L 99.150125 128.492963 
L 95.802125 119.519675 
L 92.454125 110.385885 
L 89.106125 103.573435 
L 85.758125 93.736843 
L 82.410125 84.331725 
L 79.062125 75.288709 
L 75.714125 66.678567 
L 72.366125 58.459387 
L 69.018125 50.691981 
L 65.670125 43.284417 
L 62.322125 36.272605 
L 58.974125 29.616084 
L 55.626125 23.283079 
L 52.278125 17.28 
" clip-path="url(#pe4f0d67b95)" style="fill: none; stroke-dasharray: 1.5,2.475; stroke-dashoffset: 0; stroke: #8286ff; stroke-width: 1.5"/>
   </g>
   <g id="line2d_78">
    <path d="M 52.278125 20.015923 
L 55.626125 31.199269 
L 58.974125 42.035438 
L 62.322125 52.96183 
L 65.670125 64.190675 
L 69.018125 75.785954 
L 72.366125 87.592718 
L 75.714125 99.464449 
L 79.062125 111.141884 
L 82.410125 122.32142 
L 85.758125 133.423955 
L 89.106125 143.873942 
L 92.454125 153.709386 
L 95.802125 162.91137 
L 99.150125 171.404151 
L 102.498125 179.198454 
L 105.846125 186.27769 
L 109.194125 192.426074 
L 112.542125 198.114252 
L 115.890125 203.012413 
L 119.238125 207.146277 
L 122.586125 210.535178 
L 125.934125 213.162196 
L 129.282125 215.015511 
L 132.630125 216.221602 
L 135.978125 216.964192 
L 139.326125 217.389586 
L 142.674125 217.610415 
L 146.022125 217.697558 
L 149.370125 217.774678 
L 152.718125 217.827665 
L 156.066125 217.870647 
L 159.414125 217.921098 
L 162.762125 217.957552 
L 166.110125 217.989139 
L 169.458125 218.002214 
L 172.806125 218.046765 
L 176.154125 218.064529 
L 179.502125 218.082076 
L 182.850125 218.096576 
L 186.198125 218.107884 
L 189.546125 218.123127 
L 192.894125 218.128487 
L 196.242125 218.131247 
L 199.590125 218.139511 
L 202.938125 218.13375 
L 206.286125 218.12551 
L 209.634125 218.112582 
L 212.982125 218.094237 
L 216.330125 218.0704 
L 219.678125 218.012139 
" clip-path="url(#pe4f0d67b95)" style="fill: none; stroke-dasharray: 1.5,2.475; stroke-dashoffset: 0; stroke: #f5c92a; stroke-width: 1.5"/>
   </g>
   <g id="line2d_79">
    <path d="M 69.018125 50.691981 
L 102.498125 137.251964 
" clip-path="url(#pe4f0d67b95)" style="fill: none; stroke-dasharray: 5.55,2.4; stroke-dashoffset: 0; stroke: #ff0000; stroke-width: 1.5"/>
   </g>
   <g id="patch_6">
    <path d="M 52.278125 228.96 
L 52.278125 7.2 
" style="fill: none; stroke: #000000; stroke-width: 0.8; stroke-linejoin: miter; stroke-linecap: square"/>
   </g>
   <g id="patch_7">
    <path d="M 219.678125 228.96 
L 219.678125 7.2 
" style="fill: none; stroke: #000000; stroke-width: 0.8; stroke-linejoin: miter; stroke-linecap: square"/>
   </g>
   <g id="patch_8">
    <path d="M 52.278125 228.96 
L 219.678125 228.96 
" style="fill: none; stroke: #000000; stroke-width: 0.8; stroke-linejoin: miter; stroke-linecap: square"/>
   </g>
  </g>
 </g>
 <defs>
  <clipPath id="pe4f0d67b95">
   <rect x="52.278125" y="7.2" width="167.4" height="221.76"/>
  </clipPath>
 </defs>
</svg>
