<?xml version="1.0" encoding="utf-8" standalone="no"?>
<!DOCTYPE svg PUBLIC "-//W3C//DTD SVG 1.1//EN"
  "http://www.w3.org/Graphics/SVG/1.1/DTD/svg11.dtd">
<svg xmlns:xlink="http://www.w3.org/1999/xlink" width="504pt" height="360pt" viewBox="0 0 504 360" xmlns="http://www.w3.org/2000/svg" version="1.1">
 <metadata>
  <rdf:RDF xmlns:dc="http://purl.org/dc/elements/1.1/" xmlns:cc="http://creativecommons.org/ns#" xmlns:rdf="http://www.w3.org/1999/02/22-rdf-syntax-ns#">
   <cc:Work>
    <dc:type rdf:resource="http://purl.org/dc/dcmitype/StillImage"/>
    <dc:date>2025-02-24T23:48:56.840604</dc:date>
    <dc:format>image/svg+xml</dc:format>
    <dc:creator>
     <cc:Agent>
      <dc:title>Matplotlib v3.7.1, https://matplotlib.org/</dc:title>
     </cc:Agent>
    </dc:creator>
   </cc:Work>
  </rdf:RDF>
 </metadata>
 <defs>
  <style type="text/css">*{stroke-linejoin: round; stroke-linecap: butt}</style>
 </defs>
 <g id="figure_1">
  <g id="patch_1">
   <path d="M 0 360 
L 504 360 
L 504 0 
L 0 0 
z
" style="fill: #ffffff"/>
  </g>
  <g id="axes_1">
   <g id="patch_2">
    <path d="M 52.93 312.92 
L 466.035 312.92 
L 466.035 33.96 
L 52.93 33.96 
z
" style="fill: #ffffff"/>
   </g>
   <g id="matplotlib.axis_1">
    <g id="xtick_1">
     <g id="line2d_1">
      <defs>
       <path id="maeaa4931ec" d="M 0 0 
L 0 -3.5 
" style="stroke: #000000; stroke-width: 0.8"/>
      </defs>
      <g>
       <use xlink:href="#maeaa4931ec" x="52.93" y="312.92" style="stroke: #000000; stroke-width: 0.8"/>
      </g>
     </g>
     <g id="text_1">
      <!-- 6.50 -->
      <g transform="translate(39.570625 325.538125) scale(0.12 -0.12)">
       <defs>
        <path id="DejaVuSans-36" d="M 2113 2584 
Q 1688 2584 1439 2293 
Q 1191 2003 1191 1497 
Q 1191 994 1439 701 
Q 1688 409 2113 409 
Q 2538 409 2786 701 
Q 3034 994 3034 1497 
Q 3034 2003 2786 2293 
Q 2538 2584 2113 2584 
z
M 3366 4563 
L 3366 3988 
Q 3128 4100 2886 4159 
Q 2644 4219 2406 4219 
Q 1781 4219 1451 3797 
Q 1122 3375 1075 2522 
Q 1259 2794 1537 2939 
Q 1816 3084 2150 3084 
Q 2853 3084 3261 2657 
Q 3669 2231 3669 1497 
Q 3669 778 3244 343 
Q 2819 -91 2113 -91 
Q 1303 -91 875 529 
Q 447 1150 447 2328 
Q 447 3434 972 4092 
Q 1497 4750 2381 4750 
Q 2619 4750 2861 4703 
Q 3103 4656 3366 4563 
z
" transform="scale(0.015625)"/>
        <path id="DejaVuSans-2e" d="M 684 794 
L 1344 794 
L 1344 0 
L 684 0 
L 684 794 
z
" transform="scale(0.015625)"/>
        <path id="DejaVuSans-35" d="M 691 4666 
L 3169 4666 
L 3169 4134 
L 1269 4134 
L 1269 2991 
Q 1406 3038 1543 3061 
Q 1681 3084 1819 3084 
Q 2600 3084 3056 2656 
Q 3513 2228 3513 1497 
Q 3513 744 3044 326 
Q 2575 -91 1722 -91 
Q 1428 -91 1123 -41 
Q 819 9 494 109 
L 494 744 
Q 775 591 1075 516 
Q 1375 441 1709 441 
Q 2250 441 2565 725 
Q 2881 1009 2881 1497 
Q 2881 1984 2565 2268 
Q 2250 2553 1709 2553 
Q 1456 2553 1204 2497 
Q 953 2441 691 2322 
L 691 4666 
z
" transform="scale(0.015625)"/>
        <path id="DejaVuSans-30" d="M 2034 4250 
Q 1547 4250 1301 3770 
Q 1056 3291 1056 2328 
Q 1056 1369 1301 889 
Q 1547 409 2034 409 
Q 2525 409 2770 889 
Q 3016 1369 3016 2328 
Q 3016 3291 2770 3770 
Q 2525 4250 2034 4250 
z
M 2034 4750 
Q 2819 4750 3233 4129 
Q 3647 3509 3647 2328 
Q 3647 1150 3233 529 
Q 2819 -91 2034 -91 
Q 1250 -91 836 529 
Q 422 1150 422 2328 
Q 422 3509 836 4129 
Q 1250 4750 2034 4750 
z
" transform="scale(0.015625)"/>
       </defs>
       <use xlink:href="#DejaVuSans-36"/>
       <use xlink:href="#DejaVuSans-2e" x="63.623047"/>
       <use xlink:href="#DejaVuSans-35" x="95.410156"/>
       <use xlink:href="#DejaVuSans-30" x="159.033203"/>
      </g>
     </g>
    </g>
    <g id="xtick_2">
     <g id="line2d_2">
      <g>
       <use xlink:href="#maeaa4931ec" x="104.568125" y="312.92" style="stroke: #000000; stroke-width: 0.8"/>
      </g>
     </g>
     <g id="text_2">
      <!-- 6.75 -->
      <g transform="translate(91.20875 325.538125) scale(0.12 -0.12)">
       <defs>
        <path id="DejaVuSans-37" d="M 525 4666 
L 3525 4666 
L 3525 4397 
L 1831 0 
L 1172 0 
L 2766 4134 
L 525 4134 
L 525 4666 
z
" transform="scale(0.015625)"/>
       </defs>
       <use xlink:href="#DejaVuSans-36"/>
       <use xlink:href="#DejaVuSans-2e" x="63.623047"/>
       <use xlink:href="#DejaVuSans-37" x="95.410156"/>
       <use xlink:href="#DejaVuSans-35" x="159.033203"/>
      </g>
     </g>
    </g>
    <g id="xtick_3">
     <g id="line2d_3">
      <g>
       <use xlink:href="#maeaa4931ec" x="156.20625" y="312.92" style="stroke: #000000; stroke-width: 0.8"/>
      </g>
     </g>
     <g id="text_3">
      <!-- 7.00 -->
      <g transform="translate(142.846875 325.538125) scale(0.12 -0.12)">
       <use xlink:href="#DejaVuSans-37"/>
       <use xlink:href="#DejaVuSans-2e" x="63.623047"/>
       <use xlink:href="#DejaVuSans-30" x="95.410156"/>
       <use xlink:href="#DejaVuSans-30" x="159.033203"/>
      </g>
     </g>
    </g>
    <g id="xtick_4">
     <g id="line2d_4">
      <g>
       <use xlink:href="#maeaa4931ec" x="207.844375" y="312.92" style="stroke: #000000; stroke-width: 0.8"/>
      </g>
     </g>
     <g id="text_4">
      <!-- 7.25 -->
      <g transform="translate(194.485 325.538125) scale(0.12 -0.12)">
       <defs>
        <path id="DejaVuSans-32" d="M 1228 531 
L 3431 531 
L 3431 0 
L 469 0 
L 469 531 
Q 828 903 1448 1529 
Q 2069 2156 2228 2338 
Q 2531 2678 2651 2914 
Q 2772 3150 2772 3378 
Q 2772 3750 2511 3984 
Q 2250 4219 1831 4219 
Q 1534 4219 1204 4116 
Q 875 4013 500 3803 
L 500 4441 
Q 881 4594 1212 4672 
Q 1544 4750 1819 4750 
Q 2544 4750 2975 4387 
Q 3406 4025 3406 3419 
Q 3406 3131 3298 2873 
Q 3191 2616 2906 2266 
Q 2828 2175 2409 1742 
Q 1991 1309 1228 531 
z
" transform="scale(0.015625)"/>
       </defs>
       <use xlink:href="#DejaVuSans-37"/>
       <use xlink:href="#DejaVuSans-2e" x="63.623047"/>
       <use xlink:href="#DejaVuSans-32" x="95.410156"/>
       <use xlink:href="#DejaVuSans-35" x="159.033203"/>
      </g>
     </g>
    </g>
    <g id="xtick_5">
     <g id="line2d_5">
      <g>
       <use xlink:href="#maeaa4931ec" x="259.4825" y="312.92" style="stroke: #000000; stroke-width: 0.8"/>
      </g>
     </g>
     <g id="text_5">
      <!-- 7.50 -->
      <g transform="translate(246.123125 325.538125) scale(0.12 -0.12)">
       <use xlink:href="#DejaVuSans-37"/>
       <use xlink:href="#DejaVuSans-2e" x="63.623047"/>
       <use xlink:href="#DejaVuSans-35" x="95.410156"/>
       <use xlink:href="#DejaVuSans-30" x="159.033203"/>
      </g>
     </g>
    </g>
    <g id="xtick_6">
     <g id="line2d_6">
      <g>
       <use xlink:href="#maeaa4931ec" x="311.120625" y="312.92" style="stroke: #000000; stroke-width: 0.8"/>
      </g>
     </g>
     <g id="text_6">
      <!-- 7.75 -->
      <g transform="translate(297.76125 325.538125) scale(0.12 -0.12)">
       <use xlink:href="#DejaVuSans-37"/>
       <use xlink:href="#DejaVuSans-2e" x="63.623047"/>
       <use xlink:href="#DejaVuSans-37" x="95.410156"/>
       <use xlink:href="#DejaVuSans-35" x="159.033203"/>
      </g>
     </g>
    </g>
    <g id="xtick_7">
     <g id="line2d_7">
      <g>
       <use xlink:href="#maeaa4931ec" x="362.75875" y="312.92" style="stroke: #000000; stroke-width: 0.8"/>
      </g>
     </g>
     <g id="text_7">
      <!-- 8.00 -->
      <g transform="translate(349.399375 325.538125) scale(0.12 -0.12)">
       <defs>
        <path id="DejaVuSans-38" d="M 2034 2216 
Q 1584 2216 1326 1975 
Q 1069 1734 1069 1313 
Q 1069 891 1326 650 
Q 1584 409 2034 409 
Q 2484 409 2743 651 
Q 3003 894 3003 1313 
Q 3003 1734 2745 1975 
Q 2488 2216 2034 2216 
z
M 1403 2484 
Q 997 2584 770 2862 
Q 544 3141 544 3541 
Q 544 4100 942 4425 
Q 1341 4750 2034 4750 
Q 2731 4750 3128 4425 
Q 3525 4100 3525 3541 
Q 3525 3141 3298 2862 
Q 3072 2584 2669 2484 
Q 3125 2378 3379 2068 
Q 3634 1759 3634 1313 
Q 3634 634 3220 271 
Q 2806 -91 2034 -91 
Q 1263 -91 848 271 
Q 434 634 434 1313 
Q 434 1759 690 2068 
Q 947 2378 1403 2484 
z
M 1172 3481 
Q 1172 3119 1398 2916 
Q 1625 2713 2034 2713 
Q 2441 2713 2670 2916 
Q 2900 3119 2900 3481 
Q 2900 3844 2670 4047 
Q 2441 4250 2034 4250 
Q 1625 4250 1398 4047 
Q 1172 3844 1172 3481 
z
" transform="scale(0.015625)"/>
       </defs>
       <use xlink:href="#DejaVuSans-38"/>
       <use xlink:href="#DejaVuSans-2e" x="63.623047"/>
       <use xlink:href="#DejaVuSans-30" x="95.410156"/>
       <use xlink:href="#DejaVuSans-30" x="159.033203"/>
      </g>
     </g>
    </g>
    <g id="xtick_8">
     <g id="line2d_8">
      <g>
       <use xlink:href="#maeaa4931ec" x="414.396875" y="312.92" style="stroke: #000000; stroke-width: 0.8"/>
      </g>
     </g>
     <g id="text_8">
      <!-- 8.25 -->
      <g transform="translate(401.0375 325.538125) scale(0.12 -0.12)">
       <use xlink:href="#DejaVuSans-38"/>
       <use xlink:href="#DejaVuSans-2e" x="63.623047"/>
       <use xlink:href="#DejaVuSans-32" x="95.410156"/>
       <use xlink:href="#DejaVuSans-35" x="159.033203"/>
      </g>
     </g>
    </g>
    <g id="xtick_9">
     <g id="line2d_9">
      <g>
       <use xlink:href="#maeaa4931ec" x="466.035" y="312.92" style="stroke: #000000; stroke-width: 0.8"/>
      </g>
     </g>
     <g id="text_9">
      <!-- 8.50 -->
      <g transform="translate(452.675625 325.538125) scale(0.12 -0.12)">
       <use xlink:href="#DejaVuSans-38"/>
       <use xlink:href="#DejaVuSans-2e" x="63.623047"/>
       <use xlink:href="#DejaVuSans-35" x="95.410156"/>
       <use xlink:href="#DejaVuSans-30" x="159.033203"/>
      </g>
     </g>
    </g>
    <g id="text_10">
     <!-- Retention Time (min) -->
     <g transform="translate(196.0625 341.151875) scale(0.12 -0.12)">
      <defs>
       <path id="DejaVuSans-52" d="M 2841 2188 
Q 3044 2119 3236 1894 
Q 3428 1669 3622 1275 
L 4263 0 
L 3584 0 
L 2988 1197 
Q 2756 1666 2539 1819 
Q 2322 1972 1947 1972 
L 1259 1972 
L 1259 0 
L 628 0 
L 628 4666 
L 2053 4666 
Q 2853 4666 3247 4331 
Q 3641 3997 3641 3322 
Q 3641 2881 3436 2590 
Q 3231 2300 2841 2188 
z
M 1259 4147 
L 1259 2491 
L 2053 2491 
Q 2509 2491 2742 2702 
Q 2975 2913 2975 3322 
Q 2975 3731 2742 3939 
Q 2509 4147 2053 4147 
L 1259 4147 
z
" transform="scale(0.015625)"/>
       <path id="DejaVuSans-65" d="M 3597 1894 
L 3597 1613 
L 953 1613 
Q 991 1019 1311 708 
Q 1631 397 2203 397 
Q 2534 397 2845 478 
Q 3156 559 3463 722 
L 3463 178 
Q 3153 47 2828 -22 
Q 2503 -91 2169 -91 
Q 1331 -91 842 396 
Q 353 884 353 1716 
Q 353 2575 817 3079 
Q 1281 3584 2069 3584 
Q 2775 3584 3186 3129 
Q 3597 2675 3597 1894 
z
M 3022 2063 
Q 3016 2534 2758 2815 
Q 2500 3097 2075 3097 
Q 1594 3097 1305 2825 
Q 1016 2553 972 2059 
L 3022 2063 
z
" transform="scale(0.015625)"/>
       <path id="DejaVuSans-74" d="M 1172 4494 
L 1172 3500 
L 2356 3500 
L 2356 3053 
L 1172 3053 
L 1172 1153 
Q 1172 725 1289 603 
Q 1406 481 1766 481 
L 2356 481 
L 2356 0 
L 1766 0 
Q 1100 0 847 248 
Q 594 497 594 1153 
L 594 3053 
L 172 3053 
L 172 3500 
L 594 3500 
L 594 4494 
L 1172 4494 
z
" transform="scale(0.015625)"/>
       <path id="DejaVuSans-6e" d="M 3513 2113 
L 3513 0 
L 2938 0 
L 2938 2094 
Q 2938 2591 2744 2837 
Q 2550 3084 2163 3084 
Q 1697 3084 1428 2787 
Q 1159 2491 1159 1978 
L 1159 0 
L 581 0 
L 581 3500 
L 1159 3500 
L 1159 2956 
Q 1366 3272 1645 3428 
Q 1925 3584 2291 3584 
Q 2894 3584 3203 3211 
Q 3513 2838 3513 2113 
z
" transform="scale(0.015625)"/>
       <path id="DejaVuSans-69" d="M 603 3500 
L 1178 3500 
L 1178 0 
L 603 0 
L 603 3500 
z
M 603 4863 
L 1178 4863 
L 1178 4134 
L 603 4134 
L 603 4863 
z
" transform="scale(0.015625)"/>
       <path id="DejaVuSans-6f" d="M 1959 3097 
Q 1497 3097 1228 2736 
Q 959 2375 959 1747 
Q 959 1119 1226 758 
Q 1494 397 1959 397 
Q 2419 397 2687 759 
Q 2956 1122 2956 1747 
Q 2956 2369 2687 2733 
Q 2419 3097 1959 3097 
z
M 1959 3584 
Q 2709 3584 3137 3096 
Q 3566 2609 3566 1747 
Q 3566 888 3137 398 
Q 2709 -91 1959 -91 
Q 1206 -91 779 398 
Q 353 888 353 1747 
Q 353 2609 779 3096 
Q 1206 3584 1959 3584 
z
" transform="scale(0.015625)"/>
       <path id="DejaVuSans-20" transform="scale(0.015625)"/>
       <path id="DejaVuSans-54" d="M -19 4666 
L 3928 4666 
L 3928 4134 
L 2272 4134 
L 2272 0 
L 1638 0 
L 1638 4134 
L -19 4134 
L -19 4666 
z
" transform="scale(0.015625)"/>
       <path id="DejaVuSans-6d" d="M 3328 2828 
Q 3544 3216 3844 3400 
Q 4144 3584 4550 3584 
Q 5097 3584 5394 3201 
Q 5691 2819 5691 2113 
L 5691 0 
L 5113 0 
L 5113 2094 
Q 5113 2597 4934 2840 
Q 4756 3084 4391 3084 
Q 3944 3084 3684 2787 
Q 3425 2491 3425 1978 
L 3425 0 
L 2847 0 
L 2847 2094 
Q 2847 2600 2669 2842 
Q 2491 3084 2119 3084 
Q 1678 3084 1418 2786 
Q 1159 2488 1159 1978 
L 1159 0 
L 581 0 
L 581 3500 
L 1159 3500 
L 1159 2956 
Q 1356 3278 1631 3431 
Q 1906 3584 2284 3584 
Q 2666 3584 2933 3390 
Q 3200 3197 3328 2828 
z
" transform="scale(0.015625)"/>
       <path id="DejaVuSans-28" d="M 1984 4856 
Q 1566 4138 1362 3434 
Q 1159 2731 1159 2009 
Q 1159 1288 1364 580 
Q 1569 -128 1984 -844 
L 1484 -844 
Q 1016 -109 783 600 
Q 550 1309 550 2009 
Q 550 2706 781 3412 
Q 1013 4119 1484 4856 
L 1984 4856 
z
" transform="scale(0.015625)"/>
       <path id="DejaVuSans-29" d="M 513 4856 
L 1013 4856 
Q 1481 4119 1714 3412 
Q 1947 2706 1947 2009 
Q 1947 1309 1714 600 
Q 1481 -109 1013 -844 
L 513 -844 
Q 928 -128 1133 580 
Q 1338 1288 1338 2009 
Q 1338 2731 1133 3434 
Q 928 4138 513 4856 
z
" transform="scale(0.015625)"/>
      </defs>
      <use xlink:href="#DejaVuSans-52"/>
      <use xlink:href="#DejaVuSans-65" x="64.982422"/>
      <use xlink:href="#DejaVuSans-74" x="126.505859"/>
      <use xlink:href="#DejaVuSans-65" x="165.714844"/>
      <use xlink:href="#DejaVuSans-6e" x="227.238281"/>
      <use xlink:href="#DejaVuSans-74" x="290.617188"/>
      <use xlink:href="#DejaVuSans-69" x="329.826172"/>
      <use xlink:href="#DejaVuSans-6f" x="357.609375"/>
      <use xlink:href="#DejaVuSans-6e" x="418.791016"/>
      <use xlink:href="#DejaVuSans-20" x="482.169922"/>
      <use xlink:href="#DejaVuSans-54" x="513.957031"/>
      <use xlink:href="#DejaVuSans-69" x="571.916016"/>
      <use xlink:href="#DejaVuSans-6d" x="599.699219"/>
      <use xlink:href="#DejaVuSans-65" x="697.111328"/>
      <use xlink:href="#DejaVuSans-20" x="758.634766"/>
      <use xlink:href="#DejaVuSans-28" x="790.421875"/>
      <use xlink:href="#DejaVuSans-6d" x="829.435547"/>
      <use xlink:href="#DejaVuSans-69" x="926.847656"/>
      <use xlink:href="#DejaVuSans-6e" x="954.630859"/>
      <use xlink:href="#DejaVuSans-29" x="1018.009766"/>
     </g>
    </g>
   </g>
   <g id="matplotlib.axis_2">
    <g id="ytick_1">
     <g id="line2d_10">
      <defs>
       <path id="mff3181e486" d="M 0 0 
L 3.5 0 
" style="stroke: #000000; stroke-width: 0.8"/>
      </defs>
      <g>
       <use xlink:href="#mff3181e486" x="52.93" y="289.673333" style="stroke: #000000; stroke-width: 0.8"/>
      </g>
     </g>
     <g id="text_11">
      <!-- 0.0 -->
      <g transform="translate(30.34625 294.232396) scale(0.12 -0.12)">
       <use xlink:href="#DejaVuSans-30"/>
       <use xlink:href="#DejaVuSans-2e" x="63.623047"/>
       <use xlink:href="#DejaVuSans-30" x="95.410156"/>
      </g>
     </g>
    </g>
    <g id="ytick_2">
     <g id="line2d_11">
      <g>
       <use xlink:href="#mff3181e486" x="52.93" y="243.18" style="stroke: #000000; stroke-width: 0.8"/>
      </g>
     </g>
     <g id="text_12">
      <!-- 0.2 -->
      <g transform="translate(30.34625 247.739062) scale(0.12 -0.12)">
       <use xlink:href="#DejaVuSans-30"/>
       <use xlink:href="#DejaVuSans-2e" x="63.623047"/>
       <use xlink:href="#DejaVuSans-32" x="95.410156"/>
      </g>
     </g>
    </g>
    <g id="ytick_3">
     <g id="line2d_12">
      <g>
       <use xlink:href="#mff3181e486" x="52.93" y="196.686667" style="stroke: #000000; stroke-width: 0.8"/>
      </g>
     </g>
     <g id="text_13">
      <!-- 0.4 -->
      <g transform="translate(30.34625 201.245729) scale(0.12 -0.12)">
       <defs>
        <path id="DejaVuSans-34" d="M 2419 4116 
L 825 1625 
L 2419 1625 
L 2419 4116 
z
M 2253 4666 
L 3047 4666 
L 3047 1625 
L 3713 1625 
L 3713 1100 
L 3047 1100 
L 3047 0 
L 2419 0 
L 2419 1100 
L 313 1100 
L 313 1709 
L 2253 4666 
z
" transform="scale(0.015625)"/>
       </defs>
       <use xlink:href="#DejaVuSans-30"/>
       <use xlink:href="#DejaVuSans-2e" x="63.623047"/>
       <use xlink:href="#DejaVuSans-34" x="95.410156"/>
      </g>
     </g>
    </g>
    <g id="ytick_4">
     <g id="line2d_13">
      <g>
       <use xlink:href="#mff3181e486" x="52.93" y="150.193333" style="stroke: #000000; stroke-width: 0.8"/>
      </g>
     </g>
     <g id="text_14">
      <!-- 0.6 -->
      <g transform="translate(30.34625 154.752396) scale(0.12 -0.12)">
       <use xlink:href="#DejaVuSans-30"/>
       <use xlink:href="#DejaVuSans-2e" x="63.623047"/>
       <use xlink:href="#DejaVuSans-36" x="95.410156"/>
      </g>
     </g>
    </g>
    <g id="ytick_5">
     <g id="line2d_14">
      <g>
       <use xlink:href="#mff3181e486" x="52.93" y="103.7" style="stroke: #000000; stroke-width: 0.8"/>
      </g>
     </g>
     <g id="text_15">
      <!-- 0.8 -->
      <g transform="translate(30.34625 108.259063) scale(0.12 -0.12)">
       <use xlink:href="#DejaVuSans-30"/>
       <use xlink:href="#DejaVuSans-2e" x="63.623047"/>
       <use xlink:href="#DejaVuSans-38" x="95.410156"/>
      </g>
     </g>
    </g>
    <g id="ytick_6">
     <g id="line2d_15">
      <g>
       <use xlink:href="#mff3181e486" x="52.93" y="57.206667" style="stroke: #000000; stroke-width: 0.8"/>
      </g>
     </g>
     <g id="text_16">
      <!-- 1.0 -->
      <g transform="translate(30.34625 61.765729) scale(0.12 -0.12)">
       <defs>
        <path id="DejaVuSans-31" d="M 794 531 
L 1825 531 
L 1825 4091 
L 703 3866 
L 703 4441 
L 1819 4666 
L 2450 4666 
L 2450 531 
L 3481 531 
L 3481 0 
L 794 0 
L 794 531 
z
" transform="scale(0.015625)"/>
       </defs>
       <use xlink:href="#DejaVuSans-31"/>
       <use xlink:href="#DejaVuSans-2e" x="63.623047"/>
       <use xlink:href="#DejaVuSans-30" x="95.410156"/>
      </g>
     </g>
    </g>
    <g id="text_17">
     <!-- Normalized Intensity -->
     <g transform="translate(23.850625 235.488438) rotate(-90) scale(0.12 -0.12)">
      <defs>
       <path id="DejaVuSans-4e" d="M 628 4666 
L 1478 4666 
L 3547 763 
L 3547 4666 
L 4159 4666 
L 4159 0 
L 3309 0 
L 1241 3903 
L 1241 0 
L 628 0 
L 628 4666 
z
" transform="scale(0.015625)"/>
       <path id="DejaVuSans-72" d="M 2631 2963 
Q 2534 3019 2420 3045 
Q 2306 3072 2169 3072 
Q 1681 3072 1420 2755 
Q 1159 2438 1159 1844 
L 1159 0 
L 581 0 
L 581 3500 
L 1159 3500 
L 1159 2956 
Q 1341 3275 1631 3429 
Q 1922 3584 2338 3584 
Q 2397 3584 2469 3576 
Q 2541 3569 2628 3553 
L 2631 2963 
z
" transform="scale(0.015625)"/>
       <path id="DejaVuSans-61" d="M 2194 1759 
Q 1497 1759 1228 1600 
Q 959 1441 959 1056 
Q 959 750 1161 570 
Q 1363 391 1709 391 
Q 2188 391 2477 730 
Q 2766 1069 2766 1631 
L 2766 1759 
L 2194 1759 
z
M 3341 1997 
L 3341 0 
L 2766 0 
L 2766 531 
Q 2569 213 2275 61 
Q 1981 -91 1556 -91 
Q 1019 -91 701 211 
Q 384 513 384 1019 
Q 384 1609 779 1909 
Q 1175 2209 1959 2209 
L 2766 2209 
L 2766 2266 
Q 2766 2663 2505 2880 
Q 2244 3097 1772 3097 
Q 1472 3097 1187 3025 
Q 903 2953 641 2809 
L 641 3341 
Q 956 3463 1253 3523 
Q 1550 3584 1831 3584 
Q 2591 3584 2966 3190 
Q 3341 2797 3341 1997 
z
" transform="scale(0.015625)"/>
       <path id="DejaVuSans-6c" d="M 603 4863 
L 1178 4863 
L 1178 0 
L 603 0 
L 603 4863 
z
" transform="scale(0.015625)"/>
       <path id="DejaVuSans-7a" d="M 353 3500 
L 3084 3500 
L 3084 2975 
L 922 459 
L 3084 459 
L 3084 0 
L 275 0 
L 275 525 
L 2438 3041 
L 353 3041 
L 353 3500 
z
" transform="scale(0.015625)"/>
       <path id="DejaVuSans-64" d="M 2906 2969 
L 2906 4863 
L 3481 4863 
L 3481 0 
L 2906 0 
L 2906 525 
Q 2725 213 2448 61 
Q 2172 -91 1784 -91 
Q 1150 -91 751 415 
Q 353 922 353 1747 
Q 353 2572 751 3078 
Q 1150 3584 1784 3584 
Q 2172 3584 2448 3432 
Q 2725 3281 2906 2969 
z
M 947 1747 
Q 947 1113 1208 752 
Q 1469 391 1925 391 
Q 2381 391 2643 752 
Q 2906 1113 2906 1747 
Q 2906 2381 2643 2742 
Q 2381 3103 1925 3103 
Q 1469 3103 1208 2742 
Q 947 2381 947 1747 
z
" transform="scale(0.015625)"/>
       <path id="DejaVuSans-49" d="M 628 4666 
L 1259 4666 
L 1259 0 
L 628 0 
L 628 4666 
z
" transform="scale(0.015625)"/>
       <path id="DejaVuSans-73" d="M 2834 3397 
L 2834 2853 
Q 2591 2978 2328 3040 
Q 2066 3103 1784 3103 
Q 1356 3103 1142 2972 
Q 928 2841 928 2578 
Q 928 2378 1081 2264 
Q 1234 2150 1697 2047 
L 1894 2003 
Q 2506 1872 2764 1633 
Q 3022 1394 3022 966 
Q 3022 478 2636 193 
Q 2250 -91 1575 -91 
Q 1294 -91 989 -36 
Q 684 19 347 128 
L 347 722 
Q 666 556 975 473 
Q 1284 391 1588 391 
Q 1994 391 2212 530 
Q 2431 669 2431 922 
Q 2431 1156 2273 1281 
Q 2116 1406 1581 1522 
L 1381 1569 
Q 847 1681 609 1914 
Q 372 2147 372 2553 
Q 372 3047 722 3315 
Q 1072 3584 1716 3584 
Q 2034 3584 2315 3537 
Q 2597 3491 2834 3397 
z
" transform="scale(0.015625)"/>
       <path id="DejaVuSans-79" d="M 2059 -325 
Q 1816 -950 1584 -1140 
Q 1353 -1331 966 -1331 
L 506 -1331 
L 506 -850 
L 844 -850 
Q 1081 -850 1212 -737 
Q 1344 -625 1503 -206 
L 1606 56 
L 191 3500 
L 800 3500 
L 1894 763 
L 2988 3500 
L 3597 3500 
L 2059 -325 
z
" transform="scale(0.015625)"/>
      </defs>
      <use xlink:href="#DejaVuSans-4e"/>
      <use xlink:href="#DejaVuSans-6f" x="74.804688"/>
      <use xlink:href="#DejaVuSans-72" x="135.986328"/>
      <use xlink:href="#DejaVuSans-6d" x="175.349609"/>
      <use xlink:href="#DejaVuSans-61" x="272.761719"/>
      <use xlink:href="#DejaVuSans-6c" x="334.041016"/>
      <use xlink:href="#DejaVuSans-69" x="361.824219"/>
      <use xlink:href="#DejaVuSans-7a" x="389.607422"/>
      <use xlink:href="#DejaVuSans-65" x="442.097656"/>
      <use xlink:href="#DejaVuSans-64" x="503.621094"/>
      <use xlink:href="#DejaVuSans-20" x="567.097656"/>
      <use xlink:href="#DejaVuSans-49" x="598.884766"/>
      <use xlink:href="#DejaVuSans-6e" x="628.376953"/>
      <use xlink:href="#DejaVuSans-74" x="691.755859"/>
      <use xlink:href="#DejaVuSans-65" x="730.964844"/>
      <use xlink:href="#DejaVuSans-6e" x="792.488281"/>
      <use xlink:href="#DejaVuSans-73" x="855.867188"/>
      <use xlink:href="#DejaVuSans-69" x="907.966797"/>
      <use xlink:href="#DejaVuSans-74" x="935.75"/>
      <use xlink:href="#DejaVuSans-79" x="974.958984"/>
     </g>
    </g>
   </g>
   <g id="line2d_16">
    <path d="M 52.585057 289.344218 
L 54.650582 289.348665 
L 60.159338 289.326428 
L 61.1921 289.366455 
L 62.224863 289.35756 
L 65.668093 289.2864 
L 69.4542 289.281953 
L 71.174782 289.313085 
L 73.930193 289.317533 
L 75.305832 289.224135 
L 78.749063 289.290848 
L 80.469645 289.259715 
L 82.53517 289.255268 
L 89.42163 289.237478 
L 92.862795 289.224135 
L 93.895557 289.264163 
L 95.273263 289.264163 
L 96.650968 289.255268 
L 99.05937 289.237478 
L 102.847543 289.201898 
L 105.600888 289.264163 
L 110.07688 289.19745 
L 111.45252 289.16187 
L 112.830225 289.201898 
L 115.58357 289.19745 
L 119.71462 289.170765 
L 121.092325 289.193003 
L 125.223375 289.188555 
L 127.97672 289.210793 
L 129.699368 289.193003 
L 130.73213 289.193003 
L 132.10777 289.184108 
L 133.485475 289.188555 
L 136.928705 289.148528 
L 137.961468 289.188555 
L 139.68205 289.170765 
L 151.730257 289.121843 
L 153.107963 289.12629 
L 156.551193 289.130738 
L 158.271775 289.117395 
L 161.02512 289.104053 
L 162.747768 289.09071 
L 166.533875 289.077368 
L 167.566638 289.059578 
L 168.5994 289.015103 
L 171.697688 289.104053 
L 173.763213 289.081815 
L 174.795975 289.07292 
L 185.81142 289.015103 
L 186.844182 289.050683 
L 188.56683 289.03734 
L 190.287413 288.975075 
L 202.33562 288.872782 
L 218.85982 288.361319 
L 220.582468 288.272369 
L 227.811805 287.534083 
L 232.630675 286.520052 
L 236.073905 285.27475 
L 238.82725 283.940499 
L 240.892775 282.641827 
L 243.303243 280.69382 
L 245.368768 278.585702 
L 247.77717 275.548056 
L 249.842695 272.368089 
L 251.565343 269.17478 
L 252.940982 266.315034 
L 255.35145 260.462117 
L 257.416975 254.506907 
L 259.4825 247.644406 
L 261.203082 241.079888 
L 262.92573 233.946089 
L 265.334132 222.751718 
L 268.089543 208.292877 
L 270.842888 192.321885 
L 273.941175 172.997473 
L 277.727282 148.144812 
L 281.858332 121.419752 
L 284.2688 106.863066 
L 286.679268 93.600604 
L 288.39985 85.070289 
L 290.465375 76.215305 
L 292.185957 70.0733 
L 293.563663 65.9727 
L 295.284245 61.965498 
L 296.317007 60.1776 
L 297.34977 58.794426 
L 298.382532 57.838212 
L 299.415295 57.331197 
L 300.10518 57.206667 
L 300.793 57.295617 
L 301.825763 57.775947 
L 302.858525 58.594288 
L 304.23623 60.311026 
L 305.268993 61.912128 
L 306.989575 65.318917 
L 308.36728 68.556701 
L 310.087863 73.142079 
L 312.841207 81.596787 
L 317.3172 96.900654 
L 325.234357 124.368448 
L 328.332645 134.210777 
L 331.775875 144.08424 
L 335.219105 153.019278 
L 337.627507 158.627583 
L 340.037975 163.742214 
L 341.758557 167.126766 
L 343.824082 170.889356 
L 347.955132 177.778542 
L 353.118945 185.370434 
L 363.791513 199.086541 
L 367.57762 203.698604 
L 376.872482 214.212507 
L 379.28295 216.694215 
L 381.693418 219.131448 
L 385.134582 222.329205 
L 393.053805 228.840353 
L 395.11933 230.32582 
L 399.25038 233.136643 
L 404.06925 236.040864 
L 405.789832 237.001525 
L 407.167538 237.748706 
L 408.2003 238.282407 
L 409.578005 239.047378 
L 411.298588 239.954669 
L 412.676293 240.604005 
L 423.691738 245.772006 
L 425.41232 246.523635 
L 426.790025 247.106258 
L 429.888312 248.404929 
L 434.364305 250.384069 
L 435.739945 250.975588 
L 441.2487 253.14597 
L 442.969282 253.875361 
L 448.82298 256.108009 
L 449.855743 256.503837 
L 450.888505 256.948588 
L 452.95403 257.758034 
L 457.08508 259.296871 
L 459.150605 260.092974 
L 463.281655 261.640706 
L 464.314418 261.947584 
L 466.035 262.605815 
L 466.379943 262.725897 
L 466.379943 262.725897 
" clip-path="url(#p9b015b5eed)" style="fill: none; stroke: #8286ff; stroke-width: 0.8; stroke-linecap: square"/>
   </g>
   <g id="line2d_17">
    <path d="M 52.585057 289.242724 
L 98.716493 289.144151 
L 99.749255 289.133775 
L 101.124895 289.164903 
L 104.568125 289.170091 
L 105.600888 289.237536 
L 106.63365 289.164903 
L 108.011355 289.216784 
L 109.386995 289.180467 
L 110.419757 289.237536 
L 112.142405 289.22716 
L 113.175168 289.170091 
L 114.550807 289.20122 
L 117.994038 289.196032 
L 121.437268 289.180467 
L 122.812907 289.221972 
L 152.420143 289.118211 
L 153.452905 289.087082 
L 154.485668 289.180467 
L 156.20625 289.206408 
L 164.46835 289.102647 
L 165.846055 289.128587 
L 205.77885 289.045578 
L 206.811613 289.030014 
L 208.189318 289.045578 
L 225.401338 288.69279 
L 229.532388 288.490455 
L 231.25297 288.329625 
L 236.416782 287.546228 
L 239.860013 286.669446 
L 242.613357 285.554012 
L 245.368768 284.028722 
L 247.77717 282.181772 
L 249.499818 280.573473 
L 251.2204 278.591634 
L 252.253163 277.258302 
L 254.66363 273.40876 
L 257.072032 268.56311 
L 259.137557 263.608512 
L 260.515263 259.660397 
L 262.235845 254.223308 
L 264.30137 246.757687 
L 266.366895 238.124753 
L 268.43242 228.324504 
L 270.155068 219.411414 
L 272.220593 207.774592 
L 274.973938 190.91858 
L 277.727282 172.921194 
L 287.367088 109.066531 
L 289.777555 95.36486 
L 291.498138 86.622976 
L 293.21872 78.908329 
L 294.941368 72.215729 
L 296.317007 67.837005 
L 297.694713 64.143105 
L 299.072418 61.268919 
L 300.10518 59.567235 
L 301.48082 58.093825 
L 302.513582 57.393437 
L 303.546345 57.227419 
L 304.23623 57.237795 
L 304.92405 57.476446 
L 305.956813 58.18721 
L 306.989575 59.105497 
L 308.022338 60.527026 
L 309.74292 63.276699 
L 311.465568 66.851273 
L 312.841207 70.140504 
L 314.563855 74.560733 
L 318.349963 85.637245 
L 320.070545 90.965384 
L 326.26712 109.995194 
L 331.088055 123.639796 
L 334.186343 131.510086 
L 336.251868 136.428368 
L 339.005213 142.441332 
L 341.758557 148.096319 
L 344.513968 153.408894 
L 347.612255 159.136514 
L 351.743305 166.607323 
L 355.18447 172.801868 
L 356.562175 175.302514 
L 360.005405 181.803155 
L 363.44657 188.386806 
L 367.57762 196.666952 
L 373.431318 208.428288 
L 376.529605 214.493132 
L 380.660655 222.197403 
L 383.758943 227.701937 
L 387.200107 233.289479 
L 391.6761 239.904258 
L 396.49497 246.010606 
L 403.036488 252.936669 
L 404.414193 254.166239 
L 408.88812 257.880892 
L 409.920882 258.596844 
L 411.298588 259.603328 
L 412.676293 260.594248 
L 414.051932 261.502159 
L 416.807343 263.234971 
L 420.938393 265.621479 
L 425.757263 268.122125 
L 429.200493 269.683732 
L 431.608895 270.783601 
L 434.707182 272.111745 
L 436.084888 272.614987 
L 437.11765 273.004091 
L 438.495355 273.522897 
L 439.870995 274.05208 
L 440.903757 274.42562 
L 442.281463 274.90811 
L 443.659168 275.338719 
L 452.609088 278.072827 
L 456.740138 278.985926 
L 457.427957 279.183073 
L 458.805663 279.463228 
L 460.871188 279.971658 
L 462.59177 280.386703 
L 463.624532 280.568285 
L 465.34718 280.905509 
L 466.379943 281.128596 
L 466.379943 281.128596 
" clip-path="url(#p9b015b5eed)" style="fill: none; stroke: #2166ac; stroke-width: 0.8; stroke-linecap: square"/>
   </g>
   <g id="line2d_18">
    <path d="M 52.585057 289.966215 
L 53.962763 289.982486 
L 57.405993 289.966215 
L 58.438755 290.009605 
L 60.159338 290.009605 
L 61.537043 289.966215 
L 85.633457 289.85774 
L 87.011163 289.939096 
L 90.10945 289.977062 
L 91.830032 290.025876 
L 94.92832 290.004181 
L 95.961082 289.928249 
L 99.749255 289.966215 
L 100.782018 289.939096 
L 139.337107 289.836045 
L 140.36987 289.803503 
L 142.092518 289.830622 
L 143.12528 289.803503 
L 144.158043 289.803503 
L 145.533682 289.776384 
L 146.566445 289.792655 
L 147.94415 289.749266 
L 151.38738 289.749266 
L 152.76302 289.684181 
L 154.140725 289.700452 
L 157.583955 289.646215 
L 158.959595 289.613672 
L 159.992357 289.564859 
L 161.02512 289.635367 
L 162.747768 289.58113 
L 163.78053 289.543164 
L 164.813293 289.456384 
L 165.846055 289.516045 
L 169.977105 289.353333 
L 170.664925 289.369604 
L 172.04263 289.244858 
L 173.075393 289.26113 
L 174.795975 289.17435 
L 175.828738 289.168926 
L 177.206443 289.071299 
L 178.239205 289.065875 
L 179.271968 288.924858 
L 180.647607 288.914011 
L 190.632355 287.86723 
L 191.665118 287.688247 
L 193.040757 287.509263 
L 201.992743 285.78994 
L 203.025505 285.507906 
L 227.12192 278.918069 
L 233.318495 276.575016 
L 235.041143 275.723489 
L 238.13943 274.009589 
L 240.547832 272.344503 
L 242.613357 270.603484 
L 244.336005 268.965517 
L 246.40153 266.600769 
L 248.122113 264.273987 
L 249.842695 261.524153 
L 251.90822 257.852285 
L 253.973745 253.453637 
L 255.696393 249.217701 
L 257.072032 245.448206 
L 259.137557 239.118708 
L 261.203082 231.894294 
L 263.61355 222.2292 
L 265.679075 212.970886 
L 268.089543 200.995281 
L 270.497945 187.84815 
L 272.908413 173.77356 
L 276.351643 152.577607 
L 282.203275 116.25486 
L 285.301563 98.790436 
L 287.367088 88.268392 
L 289.432613 79.075163 
L 291.498138 71.297528 
L 292.875843 67.104981 
L 294.251482 63.492774 
L 295.629188 60.808026 
L 296.66195 59.208025 
L 297.694713 58.182939 
L 298.727475 57.423616 
L 299.415295 57.233785 
L 300.448057 57.233785 
L 301.137943 57.412769 
L 301.825763 57.857515 
L 303.203468 59.137516 
L 303.891288 60.010737 
L 305.268993 62.277858 
L 306.301755 64.268368 
L 308.022338 68.233118 
L 309.400043 71.904986 
L 311.808445 79.183637 
L 314.906732 89.570088 
L 318.00502 100.574844 
L 322.825955 117.914522 
L 327.299882 132.965384 
L 330.39817 142.4298 
L 333.8414 151.89964 
L 335.906925 156.99795 
L 338.66027 163.338295 
L 341.070738 168.338978 
L 342.79132 171.576947 
L 345.54673 176.425766 
L 347.955132 180.379668 
L 350.3656 184.062383 
L 354.49665 189.947135 
L 357.249995 193.656969 
L 361.038168 198.695618 
L 363.791513 202.264435 
L 370.675907 211.186477 
L 372.398555 213.431903 
L 379.28295 222.31598 
L 383.069057 227.012933 
L 386.167345 230.739039 
L 395.462207 240.95193 
L 398.560495 244.005492 
L 402.003725 247.162106 
L 403.38143 248.377022 
L 404.75707 249.537701 
L 405.789832 250.389227 
L 413.364112 255.856351 
L 417.15022 258.231947 
L 418.182982 258.844829 
L 421.626213 260.699746 
L 424.7245 262.337714 
L 427.822788 263.737037 
L 429.200493 264.3228 
L 430.233255 264.800089 
L 431.266018 265.174326 
L 432.29878 265.67331 
L 433.67442 266.118056 
L 435.052125 266.703819 
L 436.084888 267.050938 
L 439.870995 268.504499 
L 443.314225 269.578399 
L 445.034807 270.175009 
L 452.609088 272.588571 
L 453.986793 273.017046 
L 458.117843 274.280776 
L 459.150605 274.611624 
L 460.871188 275.029251 
L 461.90395 275.316709 
L 465.690057 276.379761 
L 466.379943 276.602134 
L 466.379943 276.602134 
" clip-path="url(#p9b015b5eed)" style="fill: none; stroke: #a50026; stroke-width: 0.8; stroke-linecap: square"/>
   </g>
   <g id="line2d_19">
    <path d="M 52.585057 290.170395 
L 53.962763 290.102614 
L 54.650582 290.215582 
L 55.340468 290.249473 
L 56.37323 290.102614 
L 57.74887 290.192989 
L 58.781632 290.08002 
L 60.159338 290.215582 
L 61.1921 290.04613 
L 62.569805 290.249473 
L 63.945445 290.012239 
L 64.978207 290.136504 
L 66.355913 290.04613 
L 67.733618 290.192989 
L 69.109257 290.04613 
L 69.799143 290.192989 
L 72.552488 290.102614 
L 73.58525 290.023536 
L 74.618013 290.113911 
L 75.995718 290.034833 
L 77.02848 290.102614 
L 77.7163 289.955755 
L 79.436882 290.091317 
L 80.126768 290.000942 
L 81.502407 290.170395 
L 82.192293 290.125208 
L 82.880112 289.967052 
L 84.600695 290.113911 
L 85.633457 289.887974 
L 86.323343 290.04613 
L 87.698982 289.967052 
L 88.388868 289.944458 
L 89.076688 290.159098 
L 90.79727 289.955755 
L 91.830032 290.113911 
L 93.55268 290.04613 
L 94.585443 290.136504 
L 100.782018 290.012239 
L 102.5026 290.023536 
L 105.600888 290.102614 
L 106.288707 290.147801 
L 107.32147 290.000942 
L 108.699175 290.000942 
L 109.731938 289.808896 
L 111.109643 289.989645 
L 112.485282 289.842786 
L 113.862988 289.921864 
L 115.240693 289.808896 
L 115.928513 289.955755 
L 117.649095 289.820192 
L 118.33898 290.000942 
L 119.0268 289.933161 
L 120.059563 289.808896 
L 121.437268 289.933161 
L 122.47003 289.786302 
L 126.256138 289.955755 
L 127.97672 289.831489 
L 132.452713 289.786302 
L 133.140532 289.831489 
L 134.173295 289.797599 
L 135.551 289.910567 
L 136.928705 289.605552 
L 138.304345 289.68463 
L 139.337107 289.628146 
L 140.026993 289.842786 
L 140.714813 289.808896 
L 142.092518 289.65074 
L 143.12528 289.752411 
L 143.8131 289.628146 
L 144.158043 289.515177 
L 144.845863 289.628146 
L 145.533682 289.707224 
L 146.911388 289.549068 
L 147.94415 289.68463 
L 149.664732 289.549068 
L 150.354618 289.729818 
L 151.042438 289.65074 
L 151.730257 289.605552 
L 153.795782 289.515177 
L 161.715005 289.0746 
L 162.402825 289.119787 
L 163.435588 288.927741 
L 165.15617 288.882554 
L 166.188932 288.746991 
L 166.878818 288.769585 
L 167.221695 288.826069 
L 168.944343 288.441976 
L 169.977105 288.532351 
L 171.697688 288.238633 
L 172.385507 288.295117 
L 174.108155 288.001399 
L 174.795975 287.956211 
L 176.516557 287.685087 
L 177.54932 287.594712 
L 179.271968 287.346181 
L 179.614845 287.402666 
L 180.647607 287.154135 
L 181.68037 286.88301 
L 182.370255 286.837823 
L 183.403018 286.521511 
L 184.090838 286.374652 
L 185.1236 286.216496 
L 186.156363 285.87759 
L 187.534068 285.651653 
L 192.007995 284.216953 
L 193.3857 283.765079 
L 194.418463 283.539141 
L 195.796168 282.872627 
L 196.483988 282.691877 
L 197.51675 282.104441 
L 198.549513 281.709051 
L 199.237332 281.494411 
L 201.302857 280.511585 
L 201.6478 280.42121 
L 203.368382 279.348009 
L 204.401145 278.952619 
L 206.123793 277.845527 
L 207.156555 277.393653 
L 208.189318 276.64806 
L 209.22208 276.184889 
L 210.942663 275.168172 
L 211.975425 274.671111 
L 213.35313 273.869034 
L 214.04095 273.428457 
L 215.073713 272.750646 
L 216.106475 272.174506 
L 220.237525 269.711792 
L 221.61523 268.921012 
L 222.30305 268.378763 
L 224.368575 267.249078 
L 225.056395 266.752016 
L 226.089157 266.277548 
L 227.12192 265.543253 
L 229.532388 263.950396 
L 230.220207 263.430741 
L 231.25297 262.888492 
L 232.630675 261.74751 
L 233.663438 261.092292 
L 235.728963 259.262202 
L 238.482307 256.776894 
L 241.237718 253.794524 
L 243.991063 250.190828 
L 246.056588 247.34402 
L 247.434293 244.994275 
L 248.809932 242.576748 
L 249.842695 240.622392 
L 250.53258 239.30066 
L 252.940982 233.957248 
L 255.35145 227.766572 
L 256.729155 223.699705 
L 260.17032 212.210804 
L 261.892968 205.613441 
L 264.30137 195.581834 
L 267.05678 182.70342 
L 269.810125 168.661431 
L 272.220593 155.59097 
L 275.661757 136.171678 
L 278.760045 118.718038 
L 281.515455 103.851378 
L 284.2688 90.396824 
L 286.679268 80.207062 
L 288.39985 73.756558 
L 289.777555 69.395972 
L 291.153195 65.566339 
L 292.875843 61.759299 
L 293.563663 60.573129 
L 294.941368 58.923789 
L 295.629188 58.166899 
L 296.317007 57.715025 
L 298.382532 57.217964 
L 299.072418 57.522979 
L 299.760238 57.929665 
L 300.793 58.528399 
L 301.48082 59.273991 
L 303.203468 61.510768 
L 304.23623 63.453827 
L 306.989575 69.395972 
L 308.36728 72.875404 
L 311.120625 80.760608 
L 314.218913 90.385528 
L 318.349963 103.975643 
L 319.727668 108.358823 
L 324.546538 123.259373 
L 329.365407 136.578365 
L 334.874163 149.309919 
L 337.627507 154.755003 
L 339.350155 158.008497 
L 341.41568 161.567006 
L 342.448443 163.193753 
L 344.169025 165.893701 
L 345.201788 167.452667 
L 346.579493 169.407023 
L 347.612255 170.762646 
L 348.645018 172.276424 
L 354.841593 180.2633 
L 359.660463 186.26193 
L 360.693225 187.561068 
L 361.725988 188.781128 
L 366.20198 194.192321 
L 367.234743 195.536647 
L 367.922563 196.575957 
L 369.300268 198.044549 
L 376.184663 206.94647 
L 381.693418 213.792363 
L 382.72618 215.068908 
L 384.10182 216.60528 
L 385.134582 217.881825 
L 385.824468 218.61612 
L 391.331157 224.976249 
L 393.396682 227.280807 
L 394.429445 228.410493 
L 395.462207 229.528881 
L 396.49497 230.46652 
L 400.62602 234.770622 
L 402.691545 236.804055 
L 404.06925 238.069303 
L 405.102013 239.029536 
L 408.2003 241.729484 
L 408.88812 242.418592 
L 409.578005 243.085106 
L 411.298588 244.542401 
L 412.33135 245.423555 
L 413.364112 246.135257 
L 415.084695 247.615145 
L 416.117457 248.394628 
L 417.495163 249.603391 
L 420.248507 251.433482 
L 422.314032 253.048932 
L 423.346795 253.715446 
L 424.379557 254.381961 
L 426.102205 255.56813 
L 426.790025 256.031301 
L 427.477845 256.347613 
L 428.510607 257.138393 
L 429.200493 257.646752 
L 430.233255 258.15511 
L 431.608895 259.115343 
L 432.641657 259.499436 
L 434.364305 260.674308 
L 435.397068 261.103589 
L 437.11765 262.165493 
L 438.150413 262.730336 
L 439.870995 263.701865 
L 440.903757 264.244114 
L 444.346988 265.938643 
L 445.034807 266.175877 
L 446.412513 267.000547 
L 447.445275 267.305562 
L 448.82298 268.20931 
L 449.855743 268.457841 
L 454.674613 270.61554 
L 455.362432 270.875368 
L 456.395195 271.451507 
L 459.838425 272.558599 
L 461.90395 273.326785 
L 466.035 274.874454 
L 466.379943 274.919642 
L 466.379943 274.919642 
" clip-path="url(#p9b015b5eed)" style="fill: none; stroke: #d73027; stroke-width: 0.8; stroke-linecap: square"/>
   </g>
   <g id="line2d_20">
    <path d="M 52.585057 289.445502 
L 56.028288 289.462072 
L 59.471518 289.437217 
L 60.847157 289.457929 
L 69.4542 289.457929 
L 75.305832 289.412363 
L 78.749063 289.404078 
L 80.469645 289.399936 
L 83.912875 289.387509 
L 87.698982 289.395793 
L 89.076688 289.350227 
L 99.749255 289.325373 
L 103.535363 289.32123 
L 105.255945 289.358512 
L 111.109643 289.259095 
L 113.862988 289.230098 
L 145.190805 289.143108 
L 146.566445 289.138965 
L 147.94415 289.080972 
L 151.042438 289.018836 
L 152.420143 288.998124 
L 153.452905 288.989839 
L 155.51843 288.998124 
L 159.304538 288.861425 
L 161.370063 288.799289 
L 168.944343 288.525892 
L 173.075393 288.22764 
L 174.451032 288.136507 
L 177.54932 287.867252 
L 179.271968 287.697414 
L 186.156363 286.781947 
L 194.418463 284.785316 
L 197.171807 283.89056 
L 201.6478 282.221177 
L 208.532195 279.143383 
L 222.99087 271.732651 
L 231.25297 266.649941 
L 233.318495 265.216675 
L 237.106668 262.192732 
L 239.172193 260.258237 
L 240.892775 258.481152 
L 243.303243 255.622905 
L 246.40153 251.352103 
L 248.122113 248.568418 
L 250.187638 244.836127 
L 252.598105 239.745132 
L 255.006507 233.891938 
L 257.416975 227.094279 
L 259.827443 219.269309 
L 262.580788 208.992044 
L 264.991255 198.851479 
L 267.7446 185.935513 
L 270.497945 171.780974 
L 273.941175 152.808837 
L 282.891095 102.466397 
L 285.646505 88.999494 
L 288.054907 78.684948 
L 289.777555 72.454797 
L 291.153195 68.241988 
L 292.5309 64.617399 
L 293.908605 61.79229 
L 294.941368 60.05663 
L 295.97413 58.772489 
L 297.006893 57.828025 
L 297.694713 57.45521 
L 298.727475 57.227379 
L 299.415295 57.243948 
L 300.10518 57.442783 
L 300.793 57.828025 
L 301.825763 58.65236 
L 302.858525 59.857795 
L 304.23623 61.920704 
L 305.268993 63.801348 
L 306.989575 67.438365 
L 308.710157 71.729879 
L 310.432805 76.497767 
L 313.18615 84.902672 
L 316.62938 96.041553 
L 322.825955 116.376535 
L 326.26712 126.82778 
L 329.71035 136.392554 
L 331.430932 140.79177 
L 333.496457 145.737781 
L 336.939688 153.202364 
L 339.693032 158.566756 
L 342.448443 163.405065 
L 345.201788 167.866417 
L 350.3656 175.306146 
L 362.07093 190.446574 
L 371.70867 202.844741 
L 377.562368 210.330035 
L 384.791705 219.439146 
L 398.905438 235.470188 
L 404.75707 241.368948 
L 408.88812 245.312501 
L 410.610768 246.899036 
L 411.986407 248.079616 
L 418.872868 253.899671 
L 422.658975 256.820055 
L 425.757263 259.102511 
L 431.266018 262.772666 
L 432.641657 263.634283 
L 434.364305 264.68645 
L 436.084888 265.705477 
L 441.2487 268.501589 
L 445.724693 270.742621 
L 447.445275 271.542101 
L 450.543563 272.896662 
L 451.921268 273.484881 
L 452.95403 273.91569 
L 454.674613 274.561902 
L 456.395195 275.212257 
L 459.838425 276.508825 
L 466.379943 278.604873 
L 466.379943 278.604873 
" clip-path="url(#p9b015b5eed)" style="fill: none; stroke: #f46d43; stroke-width: 0.8; stroke-linecap: square"/>
   </g>
   <g id="patch_3">
    <path d="M 52.93 312.92 
L 52.93 33.96 
" style="fill: none; stroke: #000000; stroke-width: 0.5; stroke-linejoin: miter; stroke-linecap: square"/>
   </g>
   <g id="patch_4">
    <path d="M 52.93 312.92 
L 466.035 312.92 
" style="fill: none; stroke: #000000; stroke-width: 0.5; stroke-linejoin: miter; stroke-linecap: square"/>
   </g>
   <g id="patch_5">
    <path d="M 282.427075 132.234599 
L 322.945033 132.234599 
L 322.945033 53.633908 
L 282.427075 53.633908 
L 282.427075 132.234599 
z
" clip-path="url(#p9b015b5eed)" style="fill: none; opacity: 0.8; stroke: #000000; stroke-width: 0.4; stroke-linejoin: miter"/>
   </g>
   <g id="patch_6">
    <path d="M 85.9784 117.648 
Q 184.202737 124.941299 282.427075 132.234599 
" style="fill: none; stroke-dasharray: 0.5,0.825; stroke-dashoffset: 0; stroke: #000000; stroke-width: 0.5; stroke-linecap: round"/>
   </g>
   <g id="patch_7">
    <path d="M 85.9784 33.96 
Q 184.202737 43.796954 282.427075 53.633908 
" style="fill: none; stroke-dasharray: 0.5,0.825; stroke-dashoffset: 0; stroke: #000000; stroke-width: 0.5; stroke-linecap: round"/>
   </g>
   <g id="patch_8">
    <path d="M 251.2204 117.648 
Q 287.082716 124.941299 322.945033 132.234599 
" style="fill: none; stroke-dasharray: 0.5,0.825; stroke-dashoffset: 0; stroke: #000000; stroke-width: 0.5; stroke-linecap: round"/>
   </g>
   <g id="patch_9">
    <path d="M 251.2204 33.96 
Q 287.082716 43.796954 322.945033 53.633908 
" style="fill: none; stroke-dasharray: 0.5,0.825; stroke-dashoffset: 0; stroke: #000000; stroke-width: 0.5; stroke-linecap: round"/>
   </g>
   <g id="legend_1">
    <g id="text_18">
     <!-- Experiment Conditions -->
     <g transform="translate(334.619875 48.758438) scale(0.1 -0.1)">
      <defs>
       <path id="DejaVuSans-45" d="M 628 4666 
L 3578 4666 
L 3578 4134 
L 1259 4134 
L 1259 2753 
L 3481 2753 
L 3481 2222 
L 1259 2222 
L 1259 531 
L 3634 531 
L 3634 0 
L 628 0 
L 628 4666 
z
" transform="scale(0.015625)"/>
       <path id="DejaVuSans-78" d="M 3513 3500 
L 2247 1797 
L 3578 0 
L 2900 0 
L 1881 1375 
L 863 0 
L 184 0 
L 1544 1831 
L 300 3500 
L 978 3500 
L 1906 2253 
L 2834 3500 
L 3513 3500 
z
" transform="scale(0.015625)"/>
       <path id="DejaVuSans-70" d="M 1159 525 
L 1159 -1331 
L 581 -1331 
L 581 3500 
L 1159 3500 
L 1159 2969 
Q 1341 3281 1617 3432 
Q 1894 3584 2278 3584 
Q 2916 3584 3314 3078 
Q 3713 2572 3713 1747 
Q 3713 922 3314 415 
Q 2916 -91 2278 -91 
Q 1894 -91 1617 61 
Q 1341 213 1159 525 
z
M 3116 1747 
Q 3116 2381 2855 2742 
Q 2594 3103 2138 3103 
Q 1681 3103 1420 2742 
Q 1159 2381 1159 1747 
Q 1159 1113 1420 752 
Q 1681 391 2138 391 
Q 2594 391 2855 752 
Q 3116 1113 3116 1747 
z
" transform="scale(0.015625)"/>
       <path id="DejaVuSans-43" d="M 4122 4306 
L 4122 3641 
Q 3803 3938 3442 4084 
Q 3081 4231 2675 4231 
Q 1875 4231 1450 3742 
Q 1025 3253 1025 2328 
Q 1025 1406 1450 917 
Q 1875 428 2675 428 
Q 3081 428 3442 575 
Q 3803 722 4122 1019 
L 4122 359 
Q 3791 134 3420 21 
Q 3050 -91 2638 -91 
Q 1578 -91 968 557 
Q 359 1206 359 2328 
Q 359 3453 968 4101 
Q 1578 4750 2638 4750 
Q 3056 4750 3426 4639 
Q 3797 4528 4122 4306 
z
" transform="scale(0.015625)"/>
      </defs>
      <use xlink:href="#DejaVuSans-45"/>
      <use xlink:href="#DejaVuSans-78" x="63.183594"/>
      <use xlink:href="#DejaVuSans-70" x="122.363281"/>
      <use xlink:href="#DejaVuSans-65" x="185.839844"/>
      <use xlink:href="#DejaVuSans-72" x="247.363281"/>
      <use xlink:href="#DejaVuSans-69" x="288.476562"/>
      <use xlink:href="#DejaVuSans-6d" x="316.259766"/>
      <use xlink:href="#DejaVuSans-65" x="413.671875"/>
      <use xlink:href="#DejaVuSans-6e" x="475.195312"/>
      <use xlink:href="#DejaVuSans-74" x="538.574219"/>
      <use xlink:href="#DejaVuSans-20" x="577.783203"/>
      <use xlink:href="#DejaVuSans-43" x="609.570312"/>
      <use xlink:href="#DejaVuSans-6f" x="679.394531"/>
      <use xlink:href="#DejaVuSans-6e" x="740.576172"/>
      <use xlink:href="#DejaVuSans-64" x="803.955078"/>
      <use xlink:href="#DejaVuSans-69" x="867.431641"/>
      <use xlink:href="#DejaVuSans-74" x="895.214844"/>
      <use xlink:href="#DejaVuSans-69" x="934.423828"/>
      <use xlink:href="#DejaVuSans-6f" x="962.207031"/>
      <use xlink:href="#DejaVuSans-6e" x="1023.388672"/>
      <use xlink:href="#DejaVuSans-73" x="1086.767578"/>
     </g>
    </g>
    <g id="line2d_21">
     <path d="M 344.803625 58.116875 
L 352.803625 58.116875 
L 360.803625 58.116875 
" style="fill: none; stroke: #8286ff; stroke-width: 0.8; stroke-linecap: square"/>
    </g>
    <g id="text_19">
     <!-- PS-6.4K -->
     <g transform="translate(367.203625 60.916875) scale(0.08 -0.08)">
      <defs>
       <path id="DejaVuSans-50" d="M 1259 4147 
L 1259 2394 
L 2053 2394 
Q 2494 2394 2734 2622 
Q 2975 2850 2975 3272 
Q 2975 3691 2734 3919 
Q 2494 4147 2053 4147 
L 1259 4147 
z
M 628 4666 
L 2053 4666 
Q 2838 4666 3239 4311 
Q 3641 3956 3641 3272 
Q 3641 2581 3239 2228 
Q 2838 1875 2053 1875 
L 1259 1875 
L 1259 0 
L 628 0 
L 628 4666 
z
" transform="scale(0.015625)"/>
       <path id="DejaVuSans-53" d="M 3425 4513 
L 3425 3897 
Q 3066 4069 2747 4153 
Q 2428 4238 2131 4238 
Q 1616 4238 1336 4038 
Q 1056 3838 1056 3469 
Q 1056 3159 1242 3001 
Q 1428 2844 1947 2747 
L 2328 2669 
Q 3034 2534 3370 2195 
Q 3706 1856 3706 1288 
Q 3706 609 3251 259 
Q 2797 -91 1919 -91 
Q 1588 -91 1214 -16 
Q 841 59 441 206 
L 441 856 
Q 825 641 1194 531 
Q 1563 422 1919 422 
Q 2459 422 2753 634 
Q 3047 847 3047 1241 
Q 3047 1584 2836 1778 
Q 2625 1972 2144 2069 
L 1759 2144 
Q 1053 2284 737 2584 
Q 422 2884 422 3419 
Q 422 4038 858 4394 
Q 1294 4750 2059 4750 
Q 2388 4750 2728 4690 
Q 3069 4631 3425 4513 
z
" transform="scale(0.015625)"/>
       <path id="DejaVuSans-2d" d="M 313 2009 
L 1997 2009 
L 1997 1497 
L 313 1497 
L 313 2009 
z
" transform="scale(0.015625)"/>
       <path id="DejaVuSans-4b" d="M 628 4666 
L 1259 4666 
L 1259 2694 
L 3353 4666 
L 4166 4666 
L 1850 2491 
L 4331 0 
L 3500 0 
L 1259 2247 
L 1259 0 
L 628 0 
L 628 4666 
z
" transform="scale(0.015625)"/>
      </defs>
      <use xlink:href="#DejaVuSans-50"/>
      <use xlink:href="#DejaVuSans-53" x="60.302734"/>
      <use xlink:href="#DejaVuSans-2d" x="123.779297"/>
      <use xlink:href="#DejaVuSans-36" x="159.863281"/>
      <use xlink:href="#DejaVuSans-2e" x="223.486328"/>
      <use xlink:href="#DejaVuSans-34" x="255.273438"/>
      <use xlink:href="#DejaVuSans-4b" x="318.896484"/>
     </g>
    </g>
    <g id="line2d_22">
     <path d="M 344.803625 69.859375 
L 352.803625 69.859375 
L 360.803625 69.859375 
" style="fill: none; stroke: #2166ac; stroke-width: 0.8; stroke-linecap: square"/>
    </g>
    <g id="text_20">
     <!-- Water + O${_2}$ -->
     <g transform="translate(367.203625 72.659375) scale(0.08 -0.08)">
      <defs>
       <path id="DejaVuSans-57" d="M 213 4666 
L 850 4666 
L 1831 722 
L 2809 4666 
L 3519 4666 
L 4500 722 
L 5478 4666 
L 6119 4666 
L 4947 0 
L 4153 0 
L 3169 4050 
L 2175 0 
L 1381 0 
L 213 4666 
z
" transform="scale(0.015625)"/>
       <path id="DejaVuSans-2b" d="M 2944 4013 
L 2944 2272 
L 4684 2272 
L 4684 1741 
L 2944 1741 
L 2944 0 
L 2419 0 
L 2419 1741 
L 678 1741 
L 678 2272 
L 2419 2272 
L 2419 4013 
L 2944 4013 
z
" transform="scale(0.015625)"/>
       <path id="DejaVuSans-4f" d="M 2522 4238 
Q 1834 4238 1429 3725 
Q 1025 3213 1025 2328 
Q 1025 1447 1429 934 
Q 1834 422 2522 422 
Q 3209 422 3611 934 
Q 4013 1447 4013 2328 
Q 4013 3213 3611 3725 
Q 3209 4238 2522 4238 
z
M 2522 4750 
Q 3503 4750 4090 4092 
Q 4678 3434 4678 2328 
Q 4678 1225 4090 567 
Q 3503 -91 2522 -91 
Q 1538 -91 948 565 
Q 359 1222 359 2328 
Q 359 3434 948 4092 
Q 1538 4750 2522 4750 
z
" transform="scale(0.015625)"/>
      </defs>
      <use xlink:href="#DejaVuSans-57" transform="translate(0 0.78125)"/>
      <use xlink:href="#DejaVuSans-61" transform="translate(98.876953 0.78125)"/>
      <use xlink:href="#DejaVuSans-74" transform="translate(160.15625 0.78125)"/>
      <use xlink:href="#DejaVuSans-65" transform="translate(199.365234 0.78125)"/>
      <use xlink:href="#DejaVuSans-72" transform="translate(260.888672 0.78125)"/>
      <use xlink:href="#DejaVuSans-20" transform="translate(302.001953 0.78125)"/>
      <use xlink:href="#DejaVuSans-2b" transform="translate(333.789062 0.78125)"/>
      <use xlink:href="#DejaVuSans-20" transform="translate(417.578125 0.78125)"/>
      <use xlink:href="#DejaVuSans-4f" transform="translate(449.365234 0.78125)"/>
      <use xlink:href="#DejaVuSans-32" transform="translate(529.033203 -15.625) scale(0.7)"/>
     </g>
    </g>
    <g id="line2d_23">
     <path d="M 344.803625 81.601875 
L 352.803625 81.601875 
L 360.803625 81.601875 
" style="fill: none; stroke: #a50026; stroke-width: 0.8; stroke-linecap: square"/>
    </g>
    <g id="text_21">
     <!-- Water + no O${_2}$ -->
     <g transform="translate(367.203625 84.401875) scale(0.08 -0.08)">
      <use xlink:href="#DejaVuSans-57" transform="translate(0 0.78125)"/>
      <use xlink:href="#DejaVuSans-61" transform="translate(98.876953 0.78125)"/>
      <use xlink:href="#DejaVuSans-74" transform="translate(160.15625 0.78125)"/>
      <use xlink:href="#DejaVuSans-65" transform="translate(199.365234 0.78125)"/>
      <use xlink:href="#DejaVuSans-72" transform="translate(260.888672 0.78125)"/>
      <use xlink:href="#DejaVuSans-20" transform="translate(302.001953 0.78125)"/>
      <use xlink:href="#DejaVuSans-2b" transform="translate(333.789062 0.78125)"/>
      <use xlink:href="#DejaVuSans-20" transform="translate(417.578125 0.78125)"/>
      <use xlink:href="#DejaVuSans-6e" transform="translate(449.365234 0.78125)"/>
      <use xlink:href="#DejaVuSans-6f" transform="translate(512.744141 0.78125)"/>
      <use xlink:href="#DejaVuSans-20" transform="translate(573.925781 0.78125)"/>
      <use xlink:href="#DejaVuSans-4f" transform="translate(605.712891 0.78125)"/>
      <use xlink:href="#DejaVuSans-32" transform="translate(685.380859 -15.625) scale(0.7)"/>
     </g>
    </g>
    <g id="line2d_24">
     <path d="M 344.803625 93.344375 
L 352.803625 93.344375 
L 360.803625 93.344375 
" style="fill: none; stroke: #d73027; stroke-width: 0.8; stroke-linecap: square"/>
    </g>
    <g id="text_22">
     <!-- no Water + O${_2}$ -->
     <g transform="translate(367.203625 96.144375) scale(0.08 -0.08)">
      <use xlink:href="#DejaVuSans-6e" transform="translate(0 0.78125)"/>
      <use xlink:href="#DejaVuSans-6f" transform="translate(63.378906 0.78125)"/>
      <use xlink:href="#DejaVuSans-20" transform="translate(124.560547 0.78125)"/>
      <use xlink:href="#DejaVuSans-57" transform="translate(156.347656 0.78125)"/>
      <use xlink:href="#DejaVuSans-61" transform="translate(255.224609 0.78125)"/>
      <use xlink:href="#DejaVuSans-74" transform="translate(316.503906 0.78125)"/>
      <use xlink:href="#DejaVuSans-65" transform="translate(355.712891 0.78125)"/>
      <use xlink:href="#DejaVuSans-72" transform="translate(417.236328 0.78125)"/>
      <use xlink:href="#DejaVuSans-20" transform="translate(458.349609 0.78125)"/>
      <use xlink:href="#DejaVuSans-2b" transform="translate(490.136719 0.78125)"/>
      <use xlink:href="#DejaVuSans-20" transform="translate(573.925781 0.78125)"/>
      <use xlink:href="#DejaVuSans-4f" transform="translate(605.712891 0.78125)"/>
      <use xlink:href="#DejaVuSans-32" transform="translate(685.380859 -15.625) scale(0.7)"/>
     </g>
    </g>
    <g id="line2d_25">
     <path d="M 344.803625 105.086875 
L 352.803625 105.086875 
L 360.803625 105.086875 
" style="fill: none; stroke: #f46d43; stroke-width: 0.8; stroke-linecap: square"/>
    </g>
    <g id="text_23">
     <!-- no Water + no O${_2}$ -->
     <g transform="translate(367.203625 107.886875) scale(0.08 -0.08)">
      <use xlink:href="#DejaVuSans-6e" transform="translate(0 0.78125)"/>
      <use xlink:href="#DejaVuSans-6f" transform="translate(63.378906 0.78125)"/>
      <use xlink:href="#DejaVuSans-20" transform="translate(124.560547 0.78125)"/>
      <use xlink:href="#DejaVuSans-57" transform="translate(156.347656 0.78125)"/>
      <use xlink:href="#DejaVuSans-61" transform="translate(255.224609 0.78125)"/>
      <use xlink:href="#DejaVuSans-74" transform="translate(316.503906 0.78125)"/>
      <use xlink:href="#DejaVuSans-65" transform="translate(355.712891 0.78125)"/>
      <use xlink:href="#DejaVuSans-72" transform="translate(417.236328 0.78125)"/>
      <use xlink:href="#DejaVuSans-20" transform="translate(458.349609 0.78125)"/>
      <use xlink:href="#DejaVuSans-2b" transform="translate(490.136719 0.78125)"/>
      <use xlink:href="#DejaVuSans-20" transform="translate(573.925781 0.78125)"/>
      <use xlink:href="#DejaVuSans-6e" transform="translate(605.712891 0.78125)"/>
      <use xlink:href="#DejaVuSans-6f" transform="translate(669.091797 0.78125)"/>
      <use xlink:href="#DejaVuSans-20" transform="translate(730.273438 0.78125)"/>
      <use xlink:href="#DejaVuSans-4f" transform="translate(762.060547 0.78125)"/>
      <use xlink:href="#DejaVuSans-32" transform="translate(841.728516 -15.625) scale(0.7)"/>
     </g>
    </g>
   </g>
   <g id="axes_2">
    <g id="patch_10">
     <path d="M 85.9784 117.648 
L 251.2204 117.648 
L 251.2204 33.96 
L 85.9784 33.96 
z
" style="fill: #ffffff"/>
    </g>
    <g id="matplotlib.axis_3">
     <g id="xtick_10">
      <g id="line2d_26">
       <g>
        <use xlink:href="#maeaa4931ec" x="118.760527" y="117.648" style="stroke: #000000; stroke-width: 0.8"/>
       </g>
      </g>
      <g id="text_24">
       <!-- 7.65 -->
       <g transform="translate(109.854277 127.22675) scale(0.08 -0.08)">
        <use xlink:href="#DejaVuSans-37"/>
        <use xlink:href="#DejaVuSans-2e" x="63.623047"/>
        <use xlink:href="#DejaVuSans-36" x="95.410156"/>
        <use xlink:href="#DejaVuSans-35" x="159.033203"/>
       </g>
      </g>
     </g>
     <g id="xtick_11">
      <g id="line2d_27">
       <g>
        <use xlink:href="#maeaa4931ec" x="160.879071" y="117.648" style="stroke: #000000; stroke-width: 0.8"/>
       </g>
      </g>
      <g id="text_25">
       <!-- 7.70 -->
       <g transform="translate(151.972821 127.22675) scale(0.08 -0.08)">
        <use xlink:href="#DejaVuSans-37"/>
        <use xlink:href="#DejaVuSans-2e" x="63.623047"/>
        <use xlink:href="#DejaVuSans-37" x="95.410156"/>
        <use xlink:href="#DejaVuSans-30" x="159.033203"/>
       </g>
      </g>
     </g>
     <g id="xtick_12">
      <g id="line2d_28">
       <g>
        <use xlink:href="#maeaa4931ec" x="202.997615" y="117.648" style="stroke: #000000; stroke-width: 0.8"/>
       </g>
      </g>
      <g id="text_26">
       <!-- 7.75 -->
       <g transform="translate(194.091365 127.22675) scale(0.08 -0.08)">
        <use xlink:href="#DejaVuSans-37"/>
        <use xlink:href="#DejaVuSans-2e" x="63.623047"/>
        <use xlink:href="#DejaVuSans-37" x="95.410156"/>
        <use xlink:href="#DejaVuSans-35" x="159.033203"/>
       </g>
      </g>
     </g>
     <g id="xtick_13">
      <g id="line2d_29">
       <g>
        <use xlink:href="#maeaa4931ec" x="245.116159" y="117.648" style="stroke: #000000; stroke-width: 0.8"/>
       </g>
      </g>
      <g id="text_27">
       <!-- 7.80 -->
       <g transform="translate(236.209909 127.22675) scale(0.08 -0.08)">
        <use xlink:href="#DejaVuSans-37"/>
        <use xlink:href="#DejaVuSans-2e" x="63.623047"/>
        <use xlink:href="#DejaVuSans-38" x="95.410156"/>
        <use xlink:href="#DejaVuSans-30" x="159.033203"/>
       </g>
      </g>
     </g>
    </g>
    <g id="matplotlib.axis_4">
     <g id="ytick_7">
      <g id="line2d_30">
       <g>
        <use xlink:href="#mff3181e486" x="85.9784" y="112.017815" style="stroke: #000000; stroke-width: 0.8"/>
       </g>
      </g>
      <g id="text_28">
       <!-- 0.7 -->
       <g transform="translate(69.7559 115.05719) scale(0.08 -0.08)">
        <use xlink:href="#DejaVuSans-30"/>
        <use xlink:href="#DejaVuSans-2e" x="63.623047"/>
        <use xlink:href="#DejaVuSans-37" x="95.410156"/>
       </g>
      </g>
     </g>
     <g id="ytick_8">
      <g id="line2d_31">
       <g>
        <use xlink:href="#mff3181e486" x="85.9784" y="87.266543" style="stroke: #000000; stroke-width: 0.8"/>
       </g>
      </g>
      <g id="text_29">
       <!-- 0.8 -->
       <g transform="translate(69.7559 90.305918) scale(0.08 -0.08)">
        <use xlink:href="#DejaVuSans-30"/>
        <use xlink:href="#DejaVuSans-2e" x="63.623047"/>
        <use xlink:href="#DejaVuSans-38" x="95.410156"/>
       </g>
      </g>
     </g>
     <g id="ytick_9">
      <g id="line2d_32">
       <g>
        <use xlink:href="#mff3181e486" x="85.9784" y="62.515272" style="stroke: #000000; stroke-width: 0.8"/>
       </g>
      </g>
      <g id="text_30">
       <!-- 0.9 -->
       <g transform="translate(69.7559 65.554647) scale(0.08 -0.08)">
        <defs>
         <path id="DejaVuSans-39" d="M 703 97 
L 703 672 
Q 941 559 1184 500 
Q 1428 441 1663 441 
Q 2288 441 2617 861 
Q 2947 1281 2994 2138 
Q 2813 1869 2534 1725 
Q 2256 1581 1919 1581 
Q 1219 1581 811 2004 
Q 403 2428 403 3163 
Q 403 3881 828 4315 
Q 1253 4750 1959 4750 
Q 2769 4750 3195 4129 
Q 3622 3509 3622 2328 
Q 3622 1225 3098 567 
Q 2575 -91 1691 -91 
Q 1453 -91 1209 -44 
Q 966 3 703 97 
z
M 1959 2075 
Q 2384 2075 2632 2365 
Q 2881 2656 2881 3163 
Q 2881 3666 2632 3958 
Q 2384 4250 1959 4250 
Q 1534 4250 1286 3958 
Q 1038 3666 1038 3163 
Q 1038 2656 1286 2365 
Q 1534 2075 1959 2075 
z
" transform="scale(0.015625)"/>
        </defs>
        <use xlink:href="#DejaVuSans-30"/>
        <use xlink:href="#DejaVuSans-2e" x="63.623047"/>
        <use xlink:href="#DejaVuSans-39" x="95.410156"/>
       </g>
      </g>
     </g>
     <g id="ytick_10">
      <g id="line2d_33">
       <g>
        <use xlink:href="#mff3181e486" x="85.9784" y="37.764" style="stroke: #000000; stroke-width: 0.8"/>
       </g>
      </g>
      <g id="text_31">
       <!-- 1.0 -->
       <g transform="translate(69.7559 40.803375) scale(0.08 -0.08)">
        <use xlink:href="#DejaVuSans-31"/>
        <use xlink:href="#DejaVuSans-2e" x="63.623047"/>
        <use xlink:href="#DejaVuSans-30" x="95.410156"/>
       </g>
      </g>
     </g>
    </g>
    <g id="line2d_34">
     <path d="M 93.4894 90.634334 
L 94.896159 88.517626 
L 96.294495 86.415125 
L 97.701254 84.345771 
L 99.108014 82.333242 
L 100.506349 80.372801 
L 101.913109 78.431302 
L 103.319868 76.51348 
L 104.718204 74.609864 
L 106.124963 72.739395 
L 107.531723 70.925751 
L 108.930058 69.154725 
L 110.336818 67.431052 
L 111.743577 65.773675 
L 113.141913 64.149446 
L 114.548672 62.553628 
L 115.955432 60.995693 
L 117.353767 59.470906 
L 118.760527 58.002944 
L 120.167286 56.606011 
L 121.565622 55.270639 
L 122.972381 53.973149 
L 124.37914 52.699337 
L 125.777476 51.463407 
L 127.184235 50.289037 
L 128.590995 49.152549 
L 129.98933 48.087092 
L 131.39609 47.097402 
L 132.802849 46.178741 
L 134.201185 45.269551 
L 135.607944 44.393509 
L 137.014704 43.579026 
L 138.413039 42.830839 
L 139.819799 42.148947 
L 141.226558 41.519143 
L 142.624894 40.927223 
L 144.031653 40.382656 
L 145.438413 39.899649 
L 146.836748 39.454525 
L 148.243508 39.056754 
L 149.650267 38.720543 
L 151.048603 38.436422 
L 152.455362 38.22333 
L 153.862121 38.062328 
L 155.260457 37.89659 
L 156.667216 37.797148 
L 158.073976 37.764 
L 159.472311 37.782941 
L 160.879071 37.858707 
L 162.28583 37.996033 
L 163.684166 38.166506 
L 165.090925 38.370127 
L 166.497685 38.621101 
L 167.89602 38.895752 
L 169.30278 39.241433 
L 170.709539 39.658145 
L 172.107875 40.10327 
L 173.514634 40.572071 
L 174.921393 41.069284 
L 176.319729 41.599644 
L 177.726489 42.163153 
L 179.133248 42.774015 
L 180.531584 43.455907 
L 181.938343 44.175682 
L 183.345102 44.904928 
L 184.743438 45.643645 
L 186.150197 46.401303 
L 187.556957 47.206315 
L 188.955292 48.04921 
L 190.362052 48.925252 
L 191.768811 49.848648 
L 193.167147 50.781514 
L 194.573906 51.738058 
L 195.980666 52.713543 
L 197.379001 53.722175 
L 198.785761 54.730808 
L 200.19252 55.815206 
L 201.590856 56.932752 
L 202.997615 58.069239 
L 204.404374 59.177314 
L 205.80271 60.271183 
L 207.20947 61.402935 
L 208.616229 62.548893 
L 210.014565 63.732734 
L 211.421324 64.959193 
L 212.828083 66.180917 
L 214.226419 67.383699 
L 215.633178 68.581746 
L 217.039938 69.81294 
L 218.438273 71.086753 
L 219.845033 72.365301 
L 221.251792 73.643849 
L 222.650128 74.936604 
L 224.056887 76.224623 
L 225.463647 77.479494 
L 226.861982 78.743836 
L 228.268742 80.027119 
L 229.675501 81.319874 
L 231.073837 82.650511 
L 232.480596 83.962207 
L 233.887355 85.24549 
L 235.285691 86.514568 
L 236.692451 87.802586 
L 238.09921 89.090605 
L 239.497546 90.388095 
L 240.904305 91.704526 
L 242.311064 93.006751 
L 243.7094 94.271093 
" clip-path="url(#p8e3ecb02ce)" style="fill: none; stroke: #8286ff; stroke-width: 0.8; stroke-linecap: square"/>
    </g>
    <g id="line2d_35">
     <path d="M 93.4894 113.844 
L 94.896159 111.430077 
L 96.294495 109.032726 
L 97.701254 106.674041 
L 99.108014 104.3485 
L 100.506349 102.017435 
L 101.913109 99.719513 
L 103.319868 97.44921 
L 104.718204 95.201003 
L 106.124963 92.980415 
L 107.531723 90.809541 
L 108.930058 88.677335 
L 110.336818 86.556176 
L 111.743577 84.46816 
L 113.141913 82.40224 
L 114.548672 80.380511 
L 115.955432 78.391924 
L 117.353767 76.442005 
L 118.760527 74.558372 
L 120.167286 72.707882 
L 121.565622 70.879487 
L 122.972381 69.084235 
L 124.37914 67.333174 
L 125.777476 65.653924 
L 127.184235 64.002292 
L 128.590995 62.422471 
L 129.98933 60.870269 
L 131.39609 59.378829 
L 132.802849 57.903961 
L 134.201185 56.484331 
L 135.607944 55.086797 
L 137.014704 53.744501 
L 138.413039 52.496111 
L 139.819799 51.31953 
L 141.226558 50.181617 
L 142.624894 49.082371 
L 144.031653 48.027315 
L 145.438413 47.01645 
L 146.836748 46.049777 
L 148.243508 45.149389 
L 149.650267 44.320811 
L 151.048603 43.519853 
L 152.455362 42.790704 
L 153.862121 42.089175 
L 155.260457 41.420789 
L 156.667216 40.81869 
L 158.073976 40.277352 
L 159.472311 39.846492 
L 160.879071 39.454298 
L 162.28583 39.062105 
L 163.684166 38.708579 
L 165.090925 38.410291 
L 166.497685 38.15067 
L 167.89602 37.962859 
L 169.30278 37.868953 
L 170.709539 37.808191 
L 172.107875 37.786095 
L 173.514634 37.764 
L 174.921393 37.797143 
L 176.319729 37.885525 
L 177.726489 38.05124 
L 179.133248 38.26667 
L 180.531584 38.531815 
L 181.938343 38.808008 
L 183.345102 39.089724 
L 184.743438 39.404584 
L 186.150197 39.785729 
L 187.556957 40.244209 
L 188.955292 40.768975 
L 190.362052 41.299265 
L 191.768811 41.846126 
L 193.167147 42.387463 
L 194.573906 42.967468 
L 195.980666 43.569567 
L 197.379001 44.226906 
L 198.785761 44.95053 
L 200.19252 45.718345 
L 201.590856 46.486161 
L 202.997615 47.2595 
L 204.404374 48.032839 
L 205.80271 48.839321 
L 207.20947 49.71209 
L 208.616229 50.618001 
L 210.014565 51.534961 
L 211.421324 52.440872 
L 212.828083 53.352308 
L 214.226419 54.269267 
L 215.633178 55.230417 
L 217.039938 56.241282 
L 218.438273 57.279766 
L 219.845033 58.323773 
L 221.251792 59.340162 
L 222.650128 60.373122 
L 224.056887 61.400558 
L 225.463647 62.461138 
L 226.861982 63.58248 
L 228.268742 64.725917 
L 229.675501 65.841735 
L 231.073837 66.946505 
L 232.480596 68.034704 
L 233.887355 69.111854 
L 235.285691 70.23872 
L 236.692451 71.376633 
L 238.09921 72.54769 
L 239.497546 73.707699 
L 240.904305 74.85666 
L 242.311064 75.989049 
L 243.7094 77.104867 
" clip-path="url(#p8e3ecb02ce)" style="fill: none; stroke: #2166ac; stroke-width: 0.8; stroke-linecap: square"/>
    </g>
    <g id="line2d_36">
     <path d="M 93.4894 87.975686 
L 94.896159 85.948739 
L 96.294495 83.973765 
L 97.701254 82.039215 
L 99.108014 80.09889 
L 100.506349 78.170115 
L 101.913109 76.247114 
L 103.319868 74.381861 
L 104.718204 72.574356 
L 106.124963 70.836148 
L 107.531723 69.132589 
L 108.930058 67.434804 
L 110.336818 65.777443 
L 111.743577 64.137406 
L 113.141913 62.555118 
L 114.548672 61.047901 
L 115.955432 59.604207 
L 117.353767 58.189386 
L 118.760527 56.774566 
L 120.167286 55.382845 
L 121.565622 54.037322 
L 122.972381 52.766871 
L 124.37914 51.565717 
L 125.777476 50.428086 
L 127.184235 49.353977 
L 128.590995 48.302968 
L 129.98933 47.275058 
L 131.39609 46.264472 
L 132.802849 45.317408 
L 134.201185 44.456967 
L 135.607944 43.671597 
L 137.014704 42.94975 
L 138.413039 42.274101 
L 139.819799 41.598452 
L 141.226558 40.951677 
L 142.624894 40.379974 
L 144.031653 39.894893 
L 145.438413 39.484884 
L 146.836748 39.126847 
L 148.243508 38.80346 
L 149.650267 38.491622 
L 151.048603 38.220207 
L 152.455362 37.994991 
L 153.862121 37.850622 
L 155.260457 37.792874 
L 156.667216 37.764 
L 158.073976 37.77555 
L 159.472311 37.792874 
L 160.879071 37.856396 
L 162.28583 37.983442 
L 163.684166 38.185559 
L 165.090925 38.456973 
L 166.497685 38.768811 
L 167.89602 39.109523 
L 169.30278 39.450235 
L 170.709539 39.819821 
L 172.107875 40.247154 
L 173.514634 40.74956 
L 174.921393 41.309713 
L 176.319729 41.904515 
L 177.726489 42.533966 
L 179.133248 43.163416 
L 180.531584 43.821741 
L 181.938343 44.537813 
L 183.345102 45.28276 
L 184.743438 46.079679 
L 186.150197 46.911247 
L 187.556957 47.760139 
L 188.955292 48.620581 
L 190.362052 49.504122 
L 191.768811 50.416536 
L 193.167147 51.346275 
L 194.573906 52.345312 
L 195.980666 53.413646 
L 197.379001 54.476205 
L 198.785761 55.515664 
L 200.19252 56.566674 
L 201.590856 57.658107 
L 202.997615 58.807287 
L 204.404374 59.968017 
L 205.80271 61.163396 
L 207.20947 62.353 
L 208.616229 63.531055 
L 210.014565 64.714884 
L 211.421324 65.898713 
L 212.828083 67.122966 
L 214.226419 68.370318 
L 215.633178 69.658093 
L 217.039938 70.968968 
L 218.438273 72.222094 
L 219.845033 73.48677 
L 221.251792 74.774546 
L 222.650128 76.07387 
L 224.056887 77.384745 
L 225.463647 78.695619 
L 226.861982 80.023818 
L 228.268742 81.323143 
L 229.675501 82.622468 
L 231.073837 83.939117 
L 232.480596 85.290415 
L 233.887355 86.653262 
L 235.285691 88.044983 
L 236.692451 89.407831 
L 238.09921 90.701381 
L 239.497546 91.989156 
L 240.904305 93.288481 
L 242.311064 94.60513 
L 243.7094 95.910229 
" clip-path="url(#p8e3ecb02ce)" style="fill: none; stroke: #a50026; stroke-width: 0.8; stroke-linecap: square"/>
    </g>
    <g id="line2d_37">
     <path d="M 93.4894 73.10234 
L 94.896159 71.490585 
L 96.294495 69.902885 
L 97.701254 68.303158 
L 99.108014 66.70343 
L 100.506349 65.139787 
L 101.913109 63.672368 
L 103.319868 62.253061 
L 104.718204 60.821726 
L 106.124963 59.378362 
L 107.531723 58.019196 
L 108.930058 56.696113 
L 110.336818 55.385058 
L 111.743577 54.122115 
L 113.141913 52.931341 
L 114.548672 51.83679 
L 115.955432 50.74224 
L 117.353767 49.659718 
L 118.760527 48.553139 
L 120.167286 47.566841 
L 121.565622 46.664739 
L 122.972381 45.822777 
L 124.37914 45.040956 
L 125.777476 44.235078 
L 127.184235 43.381088 
L 128.590995 42.611294 
L 129.98933 41.925697 
L 131.39609 41.348352 
L 132.802849 40.867231 
L 134.201185 40.434222 
L 135.607944 40.037297 
L 137.014704 39.59226 
L 138.413039 39.147223 
L 139.819799 38.786382 
L 141.226558 38.545822 
L 142.624894 38.305261 
L 144.031653 38.209037 
L 145.438413 38.076729 
L 146.836748 37.920364 
L 148.243508 37.82414 
L 149.650267 37.764 
L 151.048603 37.776028 
L 152.455362 37.896308 
L 153.862121 38.100785 
L 155.260457 38.365401 
L 156.667216 38.533794 
L 158.073976 38.714214 
L 159.472311 38.91869 
L 160.879071 39.171279 
L 162.28583 39.508064 
L 163.684166 39.965129 
L 165.090925 40.422194 
L 166.497685 40.855203 
L 167.89602 41.324296 
L 169.30278 41.841501 
L 170.709539 42.346678 
L 172.107875 42.972135 
L 173.514634 43.681789 
L 174.921393 44.415498 
L 176.319729 45.173264 
L 177.726489 45.894945 
L 179.133248 46.580543 
L 180.531584 47.290196 
L 181.938343 48.12013 
L 183.345102 48.97412 
L 184.743438 49.852166 
L 186.150197 50.74224 
L 187.556957 51.608258 
L 188.955292 52.498332 
L 190.362052 53.412462 
L 191.768811 54.446872 
L 193.167147 55.457226 
L 194.573906 56.455552 
L 195.980666 57.489962 
L 197.379001 58.500317 
L 198.785761 59.522699 
L 200.19252 60.557109 
L 201.590856 61.663687 
L 202.997615 62.842434 
L 204.404374 63.949012 
L 205.80271 65.079647 
L 207.20947 66.186225 
L 208.616229 67.292803 
L 210.014565 68.435466 
L 211.421324 69.554072 
L 212.828083 70.720791 
L 214.226419 71.923593 
L 215.633178 73.090312 
L 217.039938 74.269058 
L 218.438273 75.483889 
L 219.845033 76.710748 
L 221.251792 77.925578 
L 222.650128 79.152437 
L 224.056887 80.35524 
L 225.463647 81.546014 
L 226.861982 82.700705 
L 228.268742 83.879451 
L 229.675501 85.070226 
L 231.073837 86.297084 
L 232.480596 87.560027 
L 233.887355 88.82297 
L 235.285691 90.025772 
L 236.692451 91.144379 
L 238.09921 92.226901 
L 239.497546 93.381592 
L 240.904305 94.60845 
L 242.311064 95.823281 
L 243.7094 97.002027 
" clip-path="url(#p8e3ecb02ce)" style="fill: none; stroke: #d73027; stroke-width: 0.8; stroke-linecap: square"/>
    </g>
    <g id="line2d_38">
     <path d="M 93.4894 78.569924 
L 94.896159 76.774851 
L 96.294495 75.019473 
L 97.701254 73.294969 
L 99.108014 71.614569 
L 100.506349 69.973864 
L 101.913109 68.350801 
L 103.319868 66.736559 
L 104.718204 65.139959 
L 106.124963 63.583053 
L 107.531723 62.083484 
L 108.930058 60.63243 
L 110.336818 59.243123 
L 111.743577 57.893511 
L 113.141913 56.561541 
L 114.548672 55.251623 
L 115.955432 53.999042 
L 117.353767 52.799386 
L 118.760527 51.665889 
L 120.167286 50.585317 
L 121.565622 49.513566 
L 122.972381 48.468278 
L 124.37914 47.484737 
L 125.777476 46.53648 
L 127.184235 45.65438 
L 128.590995 44.842849 
L 129.98933 44.088654 
L 131.39609 43.356511 
L 132.802849 42.646421 
L 134.201185 41.980436 
L 135.607944 41.362966 
L 137.014704 40.798422 
L 138.413039 40.286805 
L 139.819799 39.836934 
L 141.226558 39.431168 
L 142.624894 39.051865 
L 144.031653 38.716667 
L 145.438413 38.425575 
L 146.836748 38.196229 
L 148.243508 38.02863 
L 149.650267 37.909546 
L 151.048603 37.834568 
L 152.455362 37.786052 
L 153.862121 37.764 
L 155.260457 37.803694 
L 156.667216 37.887494 
L 158.073976 38.015398 
L 159.472311 38.191818 
L 160.879071 38.425575 
L 162.28583 38.681384 
L 163.684166 38.976887 
L 165.090925 39.303264 
L 166.497685 39.682566 
L 167.89602 40.105974 
L 169.30278 40.586718 
L 170.709539 41.089515 
L 172.107875 41.623185 
L 173.514634 42.19214 
L 174.921393 42.783146 
L 176.319729 43.405026 
L 177.726489 44.062191 
L 179.133248 44.785512 
L 180.531584 45.522065 
L 181.938343 46.285081 
L 183.345102 47.052508 
L 184.743438 47.846398 
L 186.150197 48.657929 
L 187.556957 49.526797 
L 188.955292 50.422128 
L 190.362052 51.352743 
L 191.768811 52.287769 
L 193.167147 53.227205 
L 194.573906 54.188693 
L 195.980666 55.163413 
L 197.379001 56.191059 
L 198.785761 57.236347 
L 200.19252 58.303687 
L 201.590856 59.375438 
L 202.997615 60.438368 
L 204.404374 61.523351 
L 205.80271 62.630386 
L 207.20947 63.750652 
L 208.616229 64.906202 
L 210.014565 66.079395 
L 211.421324 67.252587 
L 212.828083 68.403727 
L 214.226419 69.541635 
L 215.633178 70.683954 
L 217.039938 71.852736 
L 218.438273 73.056802 
L 219.845033 74.269689 
L 221.251792 75.482576 
L 222.650128 76.704284 
L 224.056887 77.903939 
L 225.463647 79.112415 
L 226.861982 80.329713 
L 228.268742 81.573473 
L 229.675501 82.826054 
L 231.073837 84.060994 
L 232.480596 85.287112 
L 233.887355 86.477946 
L 235.285691 87.655549 
L 236.692451 88.855204 
L 238.09921 90.05927 
L 239.497546 91.280978 
L 240.904305 92.507097 
L 242.311064 93.715573 
L 243.7094 94.888765 
" clip-path="url(#p8e3ecb02ce)" style="fill: none; stroke: #f46d43; stroke-width: 0.8; stroke-linecap: square"/>
    </g>
    <g id="patch_11">
     <path d="M 85.9784 117.648 
L 85.9784 33.96 
" style="fill: none; stroke: #000000; stroke-width: 0.5; stroke-linejoin: miter; stroke-linecap: square"/>
    </g>
    <g id="patch_12">
     <path d="M 251.2204 117.648 
L 251.2204 33.96 
" style="fill: none; stroke: #000000; stroke-width: 0.5; stroke-linejoin: miter; stroke-linecap: square"/>
    </g>
    <g id="patch_13">
     <path d="M 85.9784 117.648 
L 251.2204 117.648 
" style="fill: none; stroke: #000000; stroke-width: 0.5; stroke-linejoin: miter; stroke-linecap: square"/>
    </g>
    <g id="patch_14">
     <path d="M 85.9784 33.96 
L 251.2204 33.96 
" style="fill: none; stroke: #000000; stroke-width: 0.5; stroke-linejoin: miter; stroke-linecap: square"/>
    </g>
   </g>
   <g id="legend_2">
    <g id="text_32">
     <!-- Experiment Conditions -->
     <g transform="translate(334.619875 48.758438) scale(0.1 -0.1)">
      <use xlink:href="#DejaVuSans-45"/>
      <use xlink:href="#DejaVuSans-78" x="63.183594"/>
      <use xlink:href="#DejaVuSans-70" x="122.363281"/>
      <use xlink:href="#DejaVuSans-65" x="185.839844"/>
      <use xlink:href="#DejaVuSans-72" x="247.363281"/>
      <use xlink:href="#DejaVuSans-69" x="288.476562"/>
      <use xlink:href="#DejaVuSans-6d" x="316.259766"/>
      <use xlink:href="#DejaVuSans-65" x="413.671875"/>
      <use xlink:href="#DejaVuSans-6e" x="475.195312"/>
      <use xlink:href="#DejaVuSans-74" x="538.574219"/>
      <use xlink:href="#DejaVuSans-20" x="577.783203"/>
      <use xlink:href="#DejaVuSans-43" x="609.570312"/>
      <use xlink:href="#DejaVuSans-6f" x="679.394531"/>
      <use xlink:href="#DejaVuSans-6e" x="740.576172"/>
      <use xlink:href="#DejaVuSans-64" x="803.955078"/>
      <use xlink:href="#DejaVuSans-69" x="867.431641"/>
      <use xlink:href="#DejaVuSans-74" x="895.214844"/>
      <use xlink:href="#DejaVuSans-69" x="934.423828"/>
      <use xlink:href="#DejaVuSans-6f" x="962.207031"/>
      <use xlink:href="#DejaVuSans-6e" x="1023.388672"/>
      <use xlink:href="#DejaVuSans-73" x="1086.767578"/>
     </g>
    </g>
    <g id="line2d_39">
     <path d="M 344.803625 58.116875 
L 352.803625 58.116875 
L 360.803625 58.116875 
" style="fill: none; stroke: #8286ff; stroke-width: 0.8; stroke-linecap: square"/>
    </g>
    <g id="text_33">
     <!-- PS-6.4K -->
     <g transform="translate(367.203625 60.916875) scale(0.08 -0.08)">
      <use xlink:href="#DejaVuSans-50"/>
      <use xlink:href="#DejaVuSans-53" x="60.302734"/>
      <use xlink:href="#DejaVuSans-2d" x="123.779297"/>
      <use xlink:href="#DejaVuSans-36" x="159.863281"/>
      <use xlink:href="#DejaVuSans-2e" x="223.486328"/>
      <use xlink:href="#DejaVuSans-34" x="255.273438"/>
      <use xlink:href="#DejaVuSans-4b" x="318.896484"/>
     </g>
    </g>
    <g id="line2d_40">
     <path d="M 344.803625 69.859375 
L 352.803625 69.859375 
L 360.803625 69.859375 
" style="fill: none; stroke: #2166ac; stroke-width: 0.8; stroke-linecap: square"/>
    </g>
    <g id="text_34">
     <!-- Water + O${_2}$ -->
     <g transform="translate(367.203625 72.659375) scale(0.08 -0.08)">
      <use xlink:href="#DejaVuSans-57" transform="translate(0 0.78125)"/>
      <use xlink:href="#DejaVuSans-61" transform="translate(98.876953 0.78125)"/>
      <use xlink:href="#DejaVuSans-74" transform="translate(160.15625 0.78125)"/>
      <use xlink:href="#DejaVuSans-65" transform="translate(199.365234 0.78125)"/>
      <use xlink:href="#DejaVuSans-72" transform="translate(260.888672 0.78125)"/>
      <use xlink:href="#DejaVuSans-20" transform="translate(302.001953 0.78125)"/>
      <use xlink:href="#DejaVuSans-2b" transform="translate(333.789062 0.78125)"/>
      <use xlink:href="#DejaVuSans-20" transform="translate(417.578125 0.78125)"/>
      <use xlink:href="#DejaVuSans-4f" transform="translate(449.365234 0.78125)"/>
      <use xlink:href="#DejaVuSans-32" transform="translate(529.033203 -15.625) scale(0.7)"/>
     </g>
    </g>
    <g id="line2d_41">
     <path d="M 344.803625 81.601875 
L 352.803625 81.601875 
L 360.803625 81.601875 
" style="fill: none; stroke: #a50026; stroke-width: 0.8; stroke-linecap: square"/>
    </g>
    <g id="text_35">
     <!-- Water + no O${_2}$ -->
     <g transform="translate(367.203625 84.401875) scale(0.08 -0.08)">
      <use xlink:href="#DejaVuSans-57" transform="translate(0 0.78125)"/>
      <use xlink:href="#DejaVuSans-61" transform="translate(98.876953 0.78125)"/>
      <use xlink:href="#DejaVuSans-74" transform="translate(160.15625 0.78125)"/>
      <use xlink:href="#DejaVuSans-65" transform="translate(199.365234 0.78125)"/>
      <use xlink:href="#DejaVuSans-72" transform="translate(260.888672 0.78125)"/>
      <use xlink:href="#DejaVuSans-20" transform="translate(302.001953 0.78125)"/>
      <use xlink:href="#DejaVuSans-2b" transform="translate(333.789062 0.78125)"/>
      <use xlink:href="#DejaVuSans-20" transform="translate(417.578125 0.78125)"/>
      <use xlink:href="#DejaVuSans-6e" transform="translate(449.365234 0.78125)"/>
      <use xlink:href="#DejaVuSans-6f" transform="translate(512.744141 0.78125)"/>
      <use xlink:href="#DejaVuSans-20" transform="translate(573.925781 0.78125)"/>
      <use xlink:href="#DejaVuSans-4f" transform="translate(605.712891 0.78125)"/>
      <use xlink:href="#DejaVuSans-32" transform="translate(685.380859 -15.625) scale(0.7)"/>
     </g>
    </g>
    <g id="line2d_42">
     <path d="M 344.803625 93.344375 
L 352.803625 93.344375 
L 360.803625 93.344375 
" style="fill: none; stroke: #d73027; stroke-width: 0.8; stroke-linecap: square"/>
    </g>
    <g id="text_36">
     <!-- no Water + O${_2}$ -->
     <g transform="translate(367.203625 96.144375) scale(0.08 -0.08)">
      <use xlink:href="#DejaVuSans-6e" transform="translate(0 0.78125)"/>
      <use xlink:href="#DejaVuSans-6f" transform="translate(63.378906 0.78125)"/>
      <use xlink:href="#DejaVuSans-20" transform="translate(124.560547 0.78125)"/>
      <use xlink:href="#DejaVuSans-57" transform="translate(156.347656 0.78125)"/>
      <use xlink:href="#DejaVuSans-61" transform="translate(255.224609 0.78125)"/>
      <use xlink:href="#DejaVuSans-74" transform="translate(316.503906 0.78125)"/>
      <use xlink:href="#DejaVuSans-65" transform="translate(355.712891 0.78125)"/>
      <use xlink:href="#DejaVuSans-72" transform="translate(417.236328 0.78125)"/>
      <use xlink:href="#DejaVuSans-20" transform="translate(458.349609 0.78125)"/>
      <use xlink:href="#DejaVuSans-2b" transform="translate(490.136719 0.78125)"/>
      <use xlink:href="#DejaVuSans-20" transform="translate(573.925781 0.78125)"/>
      <use xlink:href="#DejaVuSans-4f" transform="translate(605.712891 0.78125)"/>
      <use xlink:href="#DejaVuSans-32" transform="translate(685.380859 -15.625) scale(0.7)"/>
     </g>
    </g>
    <g id="line2d_43">
     <path d="M 344.803625 105.086875 
L 352.803625 105.086875 
L 360.803625 105.086875 
" style="fill: none; stroke: #f46d43; stroke-width: 0.8; stroke-linecap: square"/>
    </g>
    <g id="text_37">
     <!-- no Water + no O${_2}$ -->
     <g transform="translate(367.203625 107.886875) scale(0.08 -0.08)">
      <use xlink:href="#DejaVuSans-6e" transform="translate(0 0.78125)"/>
      <use xlink:href="#DejaVuSans-6f" transform="translate(63.378906 0.78125)"/>
      <use xlink:href="#DejaVuSans-20" transform="translate(124.560547 0.78125)"/>
      <use xlink:href="#DejaVuSans-57" transform="translate(156.347656 0.78125)"/>
      <use xlink:href="#DejaVuSans-61" transform="translate(255.224609 0.78125)"/>
      <use xlink:href="#DejaVuSans-74" transform="translate(316.503906 0.78125)"/>
      <use xlink:href="#DejaVuSans-65" transform="translate(355.712891 0.78125)"/>
      <use xlink:href="#DejaVuSans-72" transform="translate(417.236328 0.78125)"/>
      <use xlink:href="#DejaVuSans-20" transform="translate(458.349609 0.78125)"/>
      <use xlink:href="#DejaVuSans-2b" transform="translate(490.136719 0.78125)"/>
      <use xlink:href="#DejaVuSans-20" transform="translate(573.925781 0.78125)"/>
      <use xlink:href="#DejaVuSans-6e" transform="translate(605.712891 0.78125)"/>
      <use xlink:href="#DejaVuSans-6f" transform="translate(669.091797 0.78125)"/>
      <use xlink:href="#DejaVuSans-20" transform="translate(730.273438 0.78125)"/>
      <use xlink:href="#DejaVuSans-4f" transform="translate(762.060547 0.78125)"/>
      <use xlink:href="#DejaVuSans-32" transform="translate(841.728516 -15.625) scale(0.7)"/>
     </g>
    </g>
   </g>
  </g>
 </g>
 <defs>
  <clipPath id="p9b015b5eed">
   <rect x="52.93" y="33.96" width="413.105" height="278.96"/>
  </clipPath>
  <clipPath id="p8e3ecb02ce">
   <rect x="85.9784" y="33.96" width="165.242" height="83.688"/>
  </clipPath>
 </defs>
</svg>
