<?xml version="1.0" encoding="utf-8" standalone="no"?>
<!DOCTYPE svg PUBLIC "-//W3C//DTD SVG 1.1//EN"
  "http://www.w3.org/Graphics/SVG/1.1/DTD/svg11.dtd">
<svg xmlns:xlink="http://www.w3.org/1999/xlink" width="432pt" height="432pt" viewBox="0 0 432 432" xmlns="http://www.w3.org/2000/svg" version="1.1">
 <metadata>
  <rdf:RDF xmlns:dc="http://purl.org/dc/elements/1.1/" xmlns:cc="http://creativecommons.org/ns#" xmlns:rdf="http://www.w3.org/1999/02/22-rdf-syntax-ns#">
   <cc:Work>
    <dc:type rdf:resource="http://purl.org/dc/dcmitype/StillImage"/>
    <dc:date>2024-10-21T11:46:16.081275</dc:date>
    <dc:format>image/svg+xml</dc:format>
    <dc:creator>
     <cc:Agent>
      <dc:title>Matplotlib v3.7.1, https://matplotlib.org/</dc:title>
     </cc:Agent>
    </dc:creator>
   </cc:Work>
  </rdf:RDF>
 </metadata>
 <defs>
  <style type="text/css">*{stroke-linejoin: round; stroke-linecap: butt}</style>
 </defs>
 <g id="figure_1">
  <g id="patch_1">
   <path d="M 0 432 
L 432 432 
L 432 0 
L 0 0 
z
" style="fill: #ffffff"/>
  </g>
  <g id="axes_1">
   <g id="patch_2">
    <path d="M 54 384.48 
L 388.8 384.48 
L 388.8 51.84 
L 54 51.84 
z
" style="fill: #ffffff"/>
   </g>
   <g id="matplotlib.axis_1">
    <g id="xtick_1">
     <g id="line2d_1">
      <defs>
       <path id="ma64d7b4e20" d="M 0 0 
L 0 -3.5 
" style="stroke: #000000; stroke-width: 0.8"/>
      </defs>
      <g>
       <use xlink:href="#ma64d7b4e20" x="54" y="384.48" style="stroke: #000000; stroke-width: 0.8"/>
      </g>
     </g>
     <g id="text_1">
      <!-- 9500 -->
      <g transform="translate(40.65375 396.588125) scale(0.12 -0.12)">
       <defs>
        <path id="Helvetica-39" d="M 850 1081 
Q 875 616 1209 438 
Q 1381 344 1597 344 
Q 2000 344 2284 680 
Q 2569 1016 2688 2044 
Q 2500 1747 2223 1626 
Q 1947 1506 1628 1506 
Q 981 1506 604 1909 
Q 228 2313 228 2947 
Q 228 3556 600 4018 
Q 972 4481 1697 4481 
Q 2675 4481 3047 3600 
Q 3253 3116 3253 2388 
Q 3253 1566 3006 931 
Q 2597 -125 1619 -125 
Q 963 -125 622 219 
Q 281 563 281 1081 
L 850 1081 
z
M 1703 2000 
Q 2038 2000 2314 2220 
Q 2591 2441 2591 2991 
Q 2591 3484 2342 3726 
Q 2094 3969 1709 3969 
Q 1297 3969 1055 3692 
Q 813 3416 813 2953 
Q 813 2516 1025 2258 
Q 1238 2000 1703 2000 
z
" transform="scale(0.015625)"/>
        <path id="Helvetica-35" d="M 791 1141 
Q 847 659 1238 475 
Q 1438 381 1700 381 
Q 2200 381 2440 700 
Q 2681 1019 2681 1406 
Q 2681 1875 2395 2131 
Q 2109 2388 1709 2388 
Q 1419 2388 1211 2275 
Q 1003 2163 856 1963 
L 369 1991 
L 709 4400 
L 3034 4400 
L 3034 3856 
L 1131 3856 
L 941 2613 
Q 1097 2731 1238 2791 
Q 1488 2894 1816 2894 
Q 2431 2894 2859 2497 
Q 3288 2100 3288 1491 
Q 3288 856 2895 371 
Q 2503 -113 1644 -113 
Q 1097 -113 676 195 
Q 256 503 206 1141 
L 791 1141 
z
" transform="scale(0.015625)"/>
        <path id="Helvetica-30" d="M 1731 4475 
Q 2600 4475 2988 3759 
Q 3288 3206 3288 2244 
Q 3288 1331 3016 734 
Q 2622 -122 1728 -122 
Q 922 -122 528 578 
Q 200 1163 200 2147 
Q 200 2909 397 3456 
Q 766 4475 1731 4475 
z
M 1725 391 
Q 2163 391 2422 778 
Q 2681 1166 2681 2222 
Q 2681 2984 2493 3476 
Q 2306 3969 1766 3969 
Q 1269 3969 1039 3501 
Q 809 3034 809 2125 
Q 809 1441 956 1025 
Q 1181 391 1725 391 
z
" transform="scale(0.015625)"/>
       </defs>
       <use xlink:href="#Helvetica-39"/>
       <use xlink:href="#Helvetica-35" x="55.615234"/>
       <use xlink:href="#Helvetica-30" x="111.230469"/>
       <use xlink:href="#Helvetica-30" x="166.845703"/>
      </g>
     </g>
    </g>
    <g id="xtick_2">
     <g id="line2d_2">
      <g>
       <use xlink:href="#ma64d7b4e20" x="120.96" y="384.48" style="stroke: #000000; stroke-width: 0.8"/>
      </g>
     </g>
     <g id="text_2">
      <!-- 9600 -->
      <g transform="translate(107.61375 396.588125) scale(0.12 -0.12)">
       <defs>
        <path id="Helvetica-36" d="M 1872 4494 
Q 2622 4494 2917 4105 
Q 3213 3716 3213 3303 
L 2656 3303 
Q 2606 3569 2497 3719 
Q 2294 4000 1881 4000 
Q 1409 4000 1131 3564 
Q 853 3128 822 2316 
Q 1016 2600 1309 2741 
Q 1578 2866 1909 2866 
Q 2472 2866 2890 2506 
Q 3309 2147 3309 1434 
Q 3309 825 2912 354 
Q 2516 -116 1781 -116 
Q 1153 -116 697 361 
Q 241 838 241 1966 
Q 241 2800 444 3381 
Q 834 4494 1872 4494 
z
M 1831 384 
Q 2275 384 2495 682 
Q 2716 981 2716 1388 
Q 2716 1731 2519 2042 
Q 2322 2353 1803 2353 
Q 1441 2353 1167 2112 
Q 894 1872 894 1388 
Q 894 963 1142 673 
Q 1391 384 1831 384 
z
" transform="scale(0.015625)"/>
       </defs>
       <use xlink:href="#Helvetica-39"/>
       <use xlink:href="#Helvetica-36" x="55.615234"/>
       <use xlink:href="#Helvetica-30" x="111.230469"/>
       <use xlink:href="#Helvetica-30" x="166.845703"/>
      </g>
     </g>
    </g>
    <g id="xtick_3">
     <g id="line2d_3">
      <g>
       <use xlink:href="#ma64d7b4e20" x="187.92" y="384.48" style="stroke: #000000; stroke-width: 0.8"/>
      </g>
     </g>
     <g id="text_3">
      <!-- 9700 -->
      <g transform="translate(174.57375 396.588125) scale(0.12 -0.12)">
       <defs>
        <path id="Helvetica-37" d="M 3347 4400 
L 3347 3909 
Q 3131 3700 2773 3181 
Q 2416 2663 2141 2063 
Q 1869 1478 1728 997 
Q 1638 688 1494 0 
L 872 0 
Q 1084 1281 1809 2550 
Q 2238 3294 2709 3834 
L 234 3834 
L 234 4400 
L 3347 4400 
z
" transform="scale(0.015625)"/>
       </defs>
       <use xlink:href="#Helvetica-39"/>
       <use xlink:href="#Helvetica-37" x="55.615234"/>
       <use xlink:href="#Helvetica-30" x="111.230469"/>
       <use xlink:href="#Helvetica-30" x="166.845703"/>
      </g>
     </g>
    </g>
    <g id="xtick_4">
     <g id="line2d_4">
      <g>
       <use xlink:href="#ma64d7b4e20" x="254.88" y="384.48" style="stroke: #000000; stroke-width: 0.8"/>
      </g>
     </g>
     <g id="text_4">
      <!-- 9800 -->
      <g transform="translate(241.53375 396.588125) scale(0.12 -0.12)">
       <defs>
        <path id="Helvetica-38" d="M 1741 2600 
Q 2113 2600 2322 2808 
Q 2531 3016 2531 3303 
Q 2531 3553 2331 3762 
Q 2131 3972 1722 3972 
Q 1316 3972 1134 3762 
Q 953 3553 953 3272 
Q 953 2956 1187 2778 
Q 1422 2600 1741 2600 
z
M 1775 384 
Q 2166 384 2423 595 
Q 2681 806 2681 1225 
Q 2681 1659 2415 1884 
Q 2150 2109 1734 2109 
Q 1331 2109 1076 1879 
Q 822 1650 822 1244 
Q 822 894 1055 639 
Q 1288 384 1775 384 
z
M 975 2384 
Q 741 2484 609 2619 
Q 363 2869 363 3269 
Q 363 3769 725 4128 
Q 1088 4488 1753 4488 
Q 2397 4488 2762 4148 
Q 3128 3809 3128 3356 
Q 3128 2938 2916 2678 
Q 2797 2531 2547 2391 
Q 2825 2263 2984 2097 
Q 3281 1784 3281 1284 
Q 3281 694 2884 283 
Q 2488 -128 1763 -128 
Q 1109 -128 657 226 
Q 206 581 206 1256 
Q 206 1653 400 1942 
Q 594 2231 975 2384 
z
" transform="scale(0.015625)"/>
       </defs>
       <use xlink:href="#Helvetica-39"/>
       <use xlink:href="#Helvetica-38" x="55.615234"/>
       <use xlink:href="#Helvetica-30" x="111.230469"/>
       <use xlink:href="#Helvetica-30" x="166.845703"/>
      </g>
     </g>
    </g>
    <g id="xtick_5">
     <g id="line2d_5">
      <g>
       <use xlink:href="#ma64d7b4e20" x="321.84" y="384.48" style="stroke: #000000; stroke-width: 0.8"/>
      </g>
     </g>
     <g id="text_5">
      <!-- 9900 -->
      <g transform="translate(308.49375 396.588125) scale(0.12 -0.12)">
       <use xlink:href="#Helvetica-39"/>
       <use xlink:href="#Helvetica-39" x="55.615234"/>
       <use xlink:href="#Helvetica-30" x="111.230469"/>
       <use xlink:href="#Helvetica-30" x="166.845703"/>
      </g>
     </g>
    </g>
    <g id="xtick_6">
     <g id="line2d_6">
      <g>
       <use xlink:href="#ma64d7b4e20" x="388.8" y="384.48" style="stroke: #000000; stroke-width: 0.8"/>
      </g>
     </g>
     <g id="text_6">
      <!-- 10000 -->
      <g transform="translate(372.117188 396.588125) scale(0.12 -0.12)">
       <defs>
        <path id="Helvetica-31" d="M 613 3169 
L 613 3600 
Q 1222 3659 1462 3798 
Q 1703 3938 1822 4456 
L 2266 4456 
L 2266 0 
L 1666 0 
L 1666 3169 
L 613 3169 
z
" transform="scale(0.015625)"/>
       </defs>
       <use xlink:href="#Helvetica-31"/>
       <use xlink:href="#Helvetica-30" x="55.615234"/>
       <use xlink:href="#Helvetica-30" x="111.230469"/>
       <use xlink:href="#Helvetica-30" x="166.845703"/>
       <use xlink:href="#Helvetica-30" x="222.460938"/>
      </g>
     </g>
    </g>
    <g id="text_7">
     <!-- m/z -->
     <g transform="translate(211.735313 411.6975) scale(0.12 -0.12)">
      <defs>
       <path id="Helvetica-6d" d="M 413 3347 
L 969 3347 
L 969 2872 
Q 1169 3119 1331 3231 
Q 1609 3422 1963 3422 
Q 2363 3422 2606 3225 
Q 2744 3113 2856 2894 
Q 3044 3163 3297 3292 
Q 3550 3422 3866 3422 
Q 4541 3422 4784 2934 
Q 4916 2672 4916 2228 
L 4916 0 
L 4331 0 
L 4331 2325 
Q 4331 2659 4164 2784 
Q 3997 2909 3756 2909 
Q 3425 2909 3186 2687 
Q 2947 2466 2947 1947 
L 2947 0 
L 2375 0 
L 2375 2184 
Q 2375 2525 2294 2681 
Q 2166 2916 1816 2916 
Q 1497 2916 1236 2669 
Q 975 2422 975 1775 
L 975 0 
L 413 0 
L 413 3347 
z
" transform="scale(0.015625)"/>
       <path id="Helvetica-2f" d="M 1456 4591 
L 1931 4591 
L 475 0 
L 0 0 
L 1456 4591 
z
" transform="scale(0.015625)"/>
       <path id="Helvetica-7a" d="M 163 444 
L 2147 2844 
L 309 2844 
L 309 3347 
L 2903 3347 
L 2903 2888 
L 931 503 
L 2963 503 
L 2963 0 
L 163 0 
L 163 444 
z
M 1609 3428 
L 1609 3428 
z
" transform="scale(0.015625)"/>
      </defs>
      <use xlink:href="#Helvetica-6d"/>
      <use xlink:href="#Helvetica-2f" x="83.300781"/>
      <use xlink:href="#Helvetica-7a" x="111.083984"/>
     </g>
    </g>
   </g>
   <g id="matplotlib.axis_2">
    <g id="ytick_1">
     <g id="line2d_7">
      <defs>
       <path id="m7172caf8b6" d="M 0 0 
L 3.5 0 
" style="stroke: #000000; stroke-width: 0.8"/>
      </defs>
      <g>
       <use xlink:href="#m7172caf8b6" x="54" y="354.24" style="stroke: #000000; stroke-width: 0.8"/>
      </g>
     </g>
     <g id="text_8">
      <!-- 0.0 -->
      <g transform="translate(33.82 358.544062) scale(0.12 -0.12)">
       <defs>
        <path id="Helvetica-2e" d="M 547 681 
L 1200 681 
L 1200 0 
L 547 0 
L 547 681 
z
" transform="scale(0.015625)"/>
       </defs>
       <use xlink:href="#Helvetica-30"/>
       <use xlink:href="#Helvetica-2e" x="55.615234"/>
       <use xlink:href="#Helvetica-30" x="83.398438"/>
      </g>
     </g>
    </g>
    <g id="ytick_2">
     <g id="line2d_8">
      <g>
       <use xlink:href="#m7172caf8b6" x="54" y="293.76" style="stroke: #000000; stroke-width: 0.8"/>
      </g>
     </g>
     <g id="text_9">
      <!-- 0.2 -->
      <g transform="translate(33.82 298.064062) scale(0.12 -0.12)">
       <defs>
        <path id="Helvetica-32" d="M 200 0 
Q 231 578 439 1006 
Q 647 1434 1250 1784 
L 1850 2131 
Q 2253 2366 2416 2531 
Q 2672 2791 2672 3125 
Q 2672 3516 2437 3745 
Q 2203 3975 1813 3975 
Q 1234 3975 1013 3538 
Q 894 3303 881 2888 
L 309 2888 
Q 319 3472 525 3841 
Q 891 4491 1816 4491 
Q 2584 4491 2939 4075 
Q 3294 3659 3294 3150 
Q 3294 2613 2916 2231 
Q 2697 2009 2131 1694 
L 1703 1456 
Q 1397 1288 1222 1134 
Q 909 863 828 531 
L 3272 531 
L 3272 0 
L 200 0 
z
" transform="scale(0.015625)"/>
       </defs>
       <use xlink:href="#Helvetica-30"/>
       <use xlink:href="#Helvetica-2e" x="55.615234"/>
       <use xlink:href="#Helvetica-32" x="83.398438"/>
      </g>
     </g>
    </g>
    <g id="ytick_3">
     <g id="line2d_9">
      <g>
       <use xlink:href="#m7172caf8b6" x="54" y="233.28" style="stroke: #000000; stroke-width: 0.8"/>
      </g>
     </g>
     <g id="text_10">
      <!-- 0.4 -->
      <g transform="translate(33.82 237.584062) scale(0.12 -0.12)">
       <defs>
        <path id="Helvetica-34" d="M 2116 1584 
L 2116 3613 
L 681 1584 
L 2116 1584 
z
M 2125 0 
L 2125 1094 
L 163 1094 
L 163 1644 
L 2213 4488 
L 2688 4488 
L 2688 1584 
L 3347 1584 
L 3347 1094 
L 2688 1094 
L 2688 0 
L 2125 0 
z
" transform="scale(0.015625)"/>
       </defs>
       <use xlink:href="#Helvetica-30"/>
       <use xlink:href="#Helvetica-2e" x="55.615234"/>
       <use xlink:href="#Helvetica-34" x="83.398438"/>
      </g>
     </g>
    </g>
    <g id="ytick_4">
     <g id="line2d_10">
      <g>
       <use xlink:href="#m7172caf8b6" x="54" y="172.8" style="stroke: #000000; stroke-width: 0.8"/>
      </g>
     </g>
     <g id="text_11">
      <!-- 0.6 -->
      <g transform="translate(33.82 177.104062) scale(0.12 -0.12)">
       <use xlink:href="#Helvetica-30"/>
       <use xlink:href="#Helvetica-2e" x="55.615234"/>
       <use xlink:href="#Helvetica-36" x="83.398438"/>
      </g>
     </g>
    </g>
    <g id="ytick_5">
     <g id="line2d_11">
      <g>
       <use xlink:href="#m7172caf8b6" x="54" y="112.32" style="stroke: #000000; stroke-width: 0.8"/>
      </g>
     </g>
     <g id="text_12">
      <!-- 0.8 -->
      <g transform="translate(33.82 116.624062) scale(0.12 -0.12)">
       <use xlink:href="#Helvetica-30"/>
       <use xlink:href="#Helvetica-2e" x="55.615234"/>
       <use xlink:href="#Helvetica-38" x="83.398438"/>
      </g>
     </g>
    </g>
    <g id="ytick_6">
     <g id="line2d_12">
      <g>
       <use xlink:href="#m7172caf8b6" x="54" y="51.84" style="stroke: #000000; stroke-width: 0.8"/>
      </g>
     </g>
     <g id="text_13">
      <!-- 1.0 -->
      <g transform="translate(33.82 56.144062) scale(0.12 -0.12)">
       <use xlink:href="#Helvetica-31"/>
       <use xlink:href="#Helvetica-2e" x="55.615234"/>
       <use xlink:href="#Helvetica-30" x="83.398438"/>
      </g>
     </g>
    </g>
    <g id="text_14">
     <!-- Normalized Intensity -->
     <g transform="translate(27.2475 272.511562) rotate(-90) scale(0.12 -0.12)">
      <defs>
       <path id="Helvetica-4e" d="M 488 4591 
L 1222 4591 
L 3541 872 
L 3541 4591 
L 4131 4591 
L 4131 0 
L 3434 0 
L 1081 3716 
L 1081 0 
L 488 0 
L 488 4591 
z
M 2269 4591 
L 2269 4591 
z
" transform="scale(0.015625)"/>
       <path id="Helvetica-6f" d="M 1741 363 
Q 2300 363 2508 786 
Q 2716 1209 2716 1728 
Q 2716 2197 2566 2491 
Q 2328 2953 1747 2953 
Q 1231 2953 997 2559 
Q 763 2166 763 1609 
Q 763 1075 997 719 
Q 1231 363 1741 363 
z
M 1763 3444 
Q 2409 3444 2856 3012 
Q 3303 2581 3303 1744 
Q 3303 934 2909 406 
Q 2516 -122 1688 -122 
Q 997 -122 590 345 
Q 184 813 184 1600 
Q 184 2444 612 2944 
Q 1041 3444 1763 3444 
z
M 1744 3428 
L 1744 3428 
z
" transform="scale(0.015625)"/>
       <path id="Helvetica-72" d="M 428 3347 
L 963 3347 
L 963 2769 
Q 1028 2938 1284 3180 
Q 1541 3422 1875 3422 
Q 1891 3422 1928 3419 
Q 1966 3416 2056 3406 
L 2056 2813 
Q 2006 2822 1964 2825 
Q 1922 2828 1872 2828 
Q 1447 2828 1219 2554 
Q 991 2281 991 1925 
L 991 0 
L 428 0 
L 428 3347 
z
" transform="scale(0.015625)"/>
       <path id="Helvetica-61" d="M 844 891 
Q 844 647 1022 506 
Q 1200 366 1444 366 
Q 1741 366 2019 503 
Q 2488 731 2488 1250 
L 2488 1703 
Q 2384 1638 2221 1594 
Q 2059 1550 1903 1531 
L 1563 1488 
Q 1256 1447 1103 1359 
Q 844 1213 844 891 
z
M 2206 2028 
Q 2400 2053 2466 2191 
Q 2503 2266 2503 2406 
Q 2503 2694 2298 2823 
Q 2094 2953 1713 2953 
Q 1272 2953 1088 2716 
Q 984 2584 953 2325 
L 428 2325 
Q 444 2944 830 3186 
Q 1216 3428 1725 3428 
Q 2316 3428 2684 3203 
Q 3050 2978 3050 2503 
L 3050 575 
Q 3050 488 3086 434 
Q 3122 381 3238 381 
Q 3275 381 3322 386 
Q 3369 391 3422 400 
L 3422 -16 
Q 3291 -53 3222 -62 
Q 3153 -72 3034 -72 
Q 2744 -72 2613 134 
Q 2544 244 2516 444 
Q 2344 219 2022 53 
Q 1700 -113 1313 -113 
Q 847 -113 551 170 
Q 256 453 256 878 
Q 256 1344 547 1600 
Q 838 1856 1309 1916 
L 2206 2028 
z
M 1741 3428 
L 1741 3428 
z
" transform="scale(0.015625)"/>
       <path id="Helvetica-6c" d="M 428 4591 
L 991 4591 
L 991 0 
L 428 0 
L 428 4591 
z
" transform="scale(0.015625)"/>
       <path id="Helvetica-69" d="M 413 3331 
L 984 3331 
L 984 0 
L 413 0 
L 413 3331 
z
M 413 4591 
L 984 4591 
L 984 3953 
L 413 3953 
L 413 4591 
z
" transform="scale(0.015625)"/>
       <path id="Helvetica-65" d="M 1806 3422 
Q 2163 3422 2497 3255 
Q 2831 3088 3006 2822 
Q 3175 2569 3231 2231 
Q 3281 2000 3281 1494 
L 828 1494 
Q 844 984 1069 676 
Q 1294 369 1766 369 
Q 2206 369 2469 659 
Q 2619 828 2681 1050 
L 3234 1050 
Q 3213 866 3089 639 
Q 2966 413 2813 269 
Q 2556 19 2178 -69 
Q 1975 -119 1719 -119 
Q 1094 -119 659 336 
Q 225 791 225 1609 
Q 225 2416 662 2919 
Q 1100 3422 1806 3422 
z
M 2703 1941 
Q 2669 2306 2544 2525 
Q 2313 2931 1772 2931 
Q 1384 2931 1121 2651 
Q 859 2372 844 1941 
L 2703 1941 
z
M 1753 3428 
L 1753 3428 
z
" transform="scale(0.015625)"/>
       <path id="Helvetica-64" d="M 769 1634 
Q 769 1097 997 734 
Q 1225 372 1728 372 
Q 2119 372 2370 708 
Q 2622 1044 2622 1672 
Q 2622 2306 2362 2611 
Q 2103 2916 1722 2916 
Q 1297 2916 1033 2591 
Q 769 2266 769 1634 
z
M 1616 3406 
Q 2000 3406 2259 3244 
Q 2409 3150 2600 2916 
L 2600 4606 
L 3141 4606 
L 3141 0 
L 2634 0 
L 2634 466 
Q 2438 156 2169 18 
Q 1900 -119 1553 -119 
Q 994 -119 584 351 
Q 175 822 175 1603 
Q 175 2334 548 2870 
Q 922 3406 1616 3406 
z
" transform="scale(0.015625)"/>
       <path id="Helvetica-20" transform="scale(0.015625)"/>
       <path id="Helvetica-49" d="M 628 4591 
L 1256 4591 
L 1256 0 
L 628 0 
L 628 4591 
z
" transform="scale(0.015625)"/>
       <path id="Helvetica-6e" d="M 413 3347 
L 947 3347 
L 947 2872 
Q 1184 3166 1450 3294 
Q 1716 3422 2041 3422 
Q 2753 3422 3003 2925 
Q 3141 2653 3141 2147 
L 3141 0 
L 2569 0 
L 2569 2109 
Q 2569 2416 2478 2603 
Q 2328 2916 1934 2916 
Q 1734 2916 1606 2875 
Q 1375 2806 1200 2600 
Q 1059 2434 1017 2257 
Q 975 2081 975 1753 
L 975 0 
L 413 0 
L 413 3347 
z
M 1734 3428 
L 1734 3428 
z
" transform="scale(0.015625)"/>
       <path id="Helvetica-74" d="M 525 4281 
L 1094 4281 
L 1094 3347 
L 1628 3347 
L 1628 2888 
L 1094 2888 
L 1094 703 
Q 1094 528 1213 469 
Q 1278 434 1431 434 
Q 1472 434 1519 436 
Q 1566 438 1628 444 
L 1628 0 
Q 1531 -28 1426 -40 
Q 1322 -53 1200 -53 
Q 806 -53 665 148 
Q 525 350 525 672 
L 525 2888 
L 72 2888 
L 72 3347 
L 525 3347 
L 525 4281 
z
" transform="scale(0.015625)"/>
       <path id="Helvetica-73" d="M 747 1050 
Q 772 769 888 619 
Q 1100 347 1625 347 
Q 1938 347 2175 483 
Q 2413 619 2413 903 
Q 2413 1119 2222 1231 
Q 2100 1300 1741 1391 
L 1294 1503 
Q 866 1609 663 1741 
Q 300 1969 300 2372 
Q 300 2847 642 3140 
Q 984 3434 1563 3434 
Q 2319 3434 2653 2991 
Q 2863 2709 2856 2384 
L 2325 2384 
Q 2309 2575 2191 2731 
Q 1997 2953 1519 2953 
Q 1200 2953 1036 2831 
Q 872 2709 872 2509 
Q 872 2291 1088 2159 
Q 1213 2081 1456 2022 
L 1828 1931 
Q 2434 1784 2641 1647 
Q 2969 1431 2969 969 
Q 2969 522 2630 197 
Q 2291 -128 1597 -128 
Q 850 -128 539 211 
Q 228 550 206 1050 
L 747 1050 
z
M 1578 3428 
L 1578 3428 
z
" transform="scale(0.015625)"/>
       <path id="Helvetica-79" d="M 2503 3347 
L 3125 3347 
Q 3006 3025 2597 1878 
Q 2291 1016 2084 472 
Q 1597 -809 1397 -1090 
Q 1197 -1372 709 -1372 
Q 591 -1372 527 -1362 
Q 463 -1353 369 -1328 
L 369 -816 
Q 516 -856 581 -865 
Q 647 -875 697 -875 
Q 853 -875 926 -823 
Q 1000 -772 1050 -697 
Q 1066 -672 1162 -440 
Q 1259 -209 1303 -97 
L 66 3347 
L 703 3347 
L 1600 622 
L 2503 3347 
z
M 1597 3428 
L 1597 3428 
z
" transform="scale(0.015625)"/>
      </defs>
      <use xlink:href="#Helvetica-4e"/>
      <use xlink:href="#Helvetica-6f" x="72.216797"/>
      <use xlink:href="#Helvetica-72" x="127.832031"/>
      <use xlink:href="#Helvetica-6d" x="161.132812"/>
      <use xlink:href="#Helvetica-61" x="244.433594"/>
      <use xlink:href="#Helvetica-6c" x="300.048828"/>
      <use xlink:href="#Helvetica-69" x="322.265625"/>
      <use xlink:href="#Helvetica-7a" x="344.482422"/>
      <use xlink:href="#Helvetica-65" x="394.482422"/>
      <use xlink:href="#Helvetica-64" x="450.097656"/>
      <use xlink:href="#Helvetica-20" x="505.712891"/>
      <use xlink:href="#Helvetica-49" x="533.496094"/>
      <use xlink:href="#Helvetica-6e" x="561.279297"/>
      <use xlink:href="#Helvetica-74" x="616.894531"/>
      <use xlink:href="#Helvetica-65" x="644.677734"/>
      <use xlink:href="#Helvetica-6e" x="700.292969"/>
      <use xlink:href="#Helvetica-73" x="755.908203"/>
      <use xlink:href="#Helvetica-69" x="805.908203"/>
      <use xlink:href="#Helvetica-74" x="828.125"/>
      <use xlink:href="#Helvetica-79" x="855.908203"/>
     </g>
    </g>
   </g>
   <g id="line2d_13">
    <path d="M 54.015267 354.200912 
L 54.720088 354.331206 
L 57.461497 354.226971 
L 58.205691 354.083647 
L 58.989056 353.979411 
L 59.537525 353.901235 
L 59.772555 353.888205 
L 60.47771 353.757911 
L 61.927327 353.666705 
L 62.201596 353.601558 
L 63.729757 353.705793 
L 65.689207 354.47453 
L 66.120363 354.878442 
L 66.708271 355.803531 
L 66.943435 356.142297 
L 67.100255 356.155326 
L 67.884223 354.69603 
L 68.040976 353.927294 
L 68.433027 349.940289 
L 68.825011 343.477692 
L 69.217062 333.549268 
L 69.726694 314.35692 
L 70.314804 282.604204 
L 71.059734 228.935989 
L 73.02039 82.60248 
L 73.530156 61.507836 
L 73.922341 53.364443 
L 74.157638 51.892118 
L 74.196877 51.84 
L 74.236116 51.905147 
L 74.393003 52.921443 
L 74.589062 55.996388 
L 74.942075 66.41993 
L 75.491214 91.566727 
L 76.314889 143.137204 
L 77.766314 233.965348 
L 78.550951 269.665981 
L 79.335655 295.399102 
L 80.041882 309.913885 
L 80.748176 319.047514 
L 81.768446 326.630642 
L 82.39633 330.057381 
L 83.769947 335.09977 
L 84.594225 337.458096 
L 85.183004 338.891334 
L 86.16437 340.637277 
L 86.596195 341.210572 
L 86.83176 341.419043 
L 87.381368 341.901131 
L 87.852498 342.344132 
L 88.166608 342.526544 
L 88.5985 342.630779 
L 88.912609 342.630779 
L 89.855004 342.526544 
L 90.090636 342.344132 
L 90.60114 342.109602 
L 90.797466 342.070514 
L 92.093477 342.174749 
L 93.900259 343.490722 
L 94.960838 345.080312 
L 96.100096 346.761108 
L 98.182485 349.353964 
L 98.496862 349.6797 
L 99.479299 350.800231 
L 100.77618 351.529879 
L 101.208474 351.777438 
L 101.601529 351.920762 
L 101.837362 351.933791 
L 103.213122 352.285586 
L 106.987323 352.389821 
L 107.183984 352.402851 
L 107.45919 352.402851 
L 107.891752 352.441939 
L 108.245702 352.533145 
L 108.599586 352.63738 
L 109.70081 352.741616 
L 110.3301 352.845851 
L 110.684051 352.832822 
L 111.077374 352.937057 
L 111.313408 352.976145 
L 111.824781 353.080381 
L 112.257477 353.119469 
L 114.38185 353.223705 
L 114.932663 353.301881 
L 115.601593 353.406117 
L 115.99505 353.432175 
L 116.309829 353.432175 
L 117.608451 353.536411 
L 118.238143 353.640646 
L 119.261426 353.744882 
L 119.851812 353.836088 
L 120.599755 353.940323 
L 121.426376 354.109706 
L 121.741289 354.109706 
L 122.607417 354.292118 
L 126.899419 354.187882 
L 127.49014 354.096676 
L 130.759529 354.00547 
L 131.074643 353.927294 
L 132.414178 353.823058 
L 132.729425 353.810029 
L 133.044606 353.810029 
L 133.438599 353.705793 
L 134.502526 353.471264 
L 134.896653 353.614587 
L 135.172461 353.705793 
L 135.684772 354.174853 
L 136.709528 355.347501 
L 137.221906 355.555972 
L 137.379529 355.282354 
L 137.773723 353.692764 
L 138.089038 351.099908 
L 138.522671 344.754576 
L 138.877425 336.897831 
L 139.311058 322.34396 
L 139.902381 294.08313 
L 140.651463 245.053391 
L 143.01716 79.657829 
L 143.490366 64.387339 
L 143.805882 60.152775 
L 143.924133 59.866128 
L 143.963572 59.918246 
L 144.12133 60.843335 
L 144.279088 62.836837 
L 144.594603 70.315729 
L 144.988998 84.908689 
L 145.620029 117.912231 
L 147.986663 256.102347 
L 148.696774 282.669351 
L 149.24906 297.627134 
L 149.840852 308.793354 
L 150.432712 316.41557 
L 151.064011 322.34396 
L 151.576991 325.900994 
L 153.234385 333.067179 
L 154.220974 335.620947 
L 154.813034 337.041155 
L 156.273499 340.181247 
L 158.444744 342.200808 
L 158.602635 342.239897 
L 158.83954 342.265955 
L 159.273842 342.318073 
L 159.47124 342.305044 
L 159.629199 342.278985 
L 159.984556 342.16172 
L 160.616323 342.057485 
L 161.129639 341.979308 
L 161.406117 341.979308 
L 161.722034 341.966279 
L 162.156403 342.122632 
L 162.867318 342.461397 
L 164.091681 343.399516 
L 164.605131 344.050987 
L 164.881675 344.363693 
L 165.790189 345.653607 
L 166.896368 347.295315 
L 167.212419 347.712256 
L 167.449458 347.998904 
L 170.175801 350.565701 
L 170.847611 350.891437 
L 171.5985 351.256261 
L 171.875112 351.26929 
L 173.851369 351.803497 
L 175.314043 351.907732 
L 176.381453 352.155291 
L 177.251263 352.259527 
L 177.607089 352.363762 
L 178.951512 352.689498 
L 179.228324 352.689498 
L 180.137909 352.897969 
L 180.572948 352.858881 
L 181.561679 352.754645 
L 181.838559 352.767675 
L 182.155012 352.767675 
L 182.708771 352.689498 
L 184.607556 352.793733 
L 185.596622 353.015234 
L 186.150515 353.119469 
L 187.733316 353.536411 
L 188.405996 353.627617 
L 188.722583 353.705793 
L 189.474543 353.849117 
L 191.413906 353.757911 
L 191.73056 353.679735 
L 194.976847 353.78397 
L 195.531142 353.862147 
L 197.709083 353.770941 
L 198.105085 353.640646 
L 198.976368 353.445205 
L 199.293223 353.445205 
L 203.333723 353.54944 
L 205.631857 354.383324 
L 205.948846 354.617853 
L 206.741452 355.282354 
L 207.018867 355.178119 
L 207.256642 354.722089 
L 207.534057 353.340969 
L 207.811472 351.308379 
L 208.207809 346.383255 
L 208.604145 337.809891 
L 209.040121 323.881432 
L 209.595086 298.6304 
L 210.387892 249.63975 
L 211.458248 169.300296 
L 212.44939 103.162918 
L 213.004421 78.771828 
L 213.440599 68.70008 
L 213.678508 67.019284 
L 213.757788 67.11049 
L 213.837069 67.410167 
L 214.074978 70.159376 
L 214.431875 78.446092 
L 214.907692 96.96091 
L 215.700834 140.739789 
L 217.644214 251.672341 
L 218.358141 279.333817 
L 219.072136 298.943107 
L 219.667142 310.005091 
L 220.301923 317.796689 
L 221.135039 324.441698 
L 222.32532 330.474323 
L 223.753778 334.800093 
L 224.071235 335.633976 
L 224.626802 336.936919 
L 225.261784 338.305009 
L 225.817418 339.42554 
L 226.333345 340.3376 
L 227.444747 341.640543 
L 227.643216 341.809925 
L 227.921034 341.953249 
L 228.11957 341.979308 
L 228.397387 342.057485 
L 228.794393 342.031426 
L 229.350161 342.122632 
L 229.786874 342.083543 
L 230.064758 342.083543 
L 230.382349 342.070514 
L 230.6603 342.057485 
L 231.057306 342.031426 
L 231.29555 342.005367 
L 232.60589 342.096573 
L 233.360395 342.708956 
L 235.624179 345.862078 
L 236.776025 347.894668 
L 237.451316 348.793699 
L 237.729401 349.093376 
L 238.166382 349.484259 
L 238.444467 349.666671 
L 239.477459 350.539642 
L 240.152885 350.852349 
L 240.510451 351.06082 
L 241.146236 351.347467 
L 241.424388 351.438673 
L 241.70254 351.490791 
L 242.417807 351.595026 
L 243.411359 351.829556 
L 243.848541 351.777438 
L 244.126693 351.764409 
L 244.643423 351.699261 
L 245.756365 351.790467 
L 246.31287 352.024997 
L 246.789893 352.077115 
L 247.62475 352.18135 
L 250.209071 352.924028 
L 251.083904 352.741616 
L 251.481579 352.767675 
L 253.907607 352.663439 
L 254.305349 352.63738 
L 255.737356 352.741616 
L 257.010399 353.054322 
L 257.44805 353.015234 
L 257.845926 353.041293 
L 258.124413 353.054322 
L 259.119171 353.158557 
L 259.636437 353.223705 
L 259.954764 353.32794 
L 261.148661 353.601558 
L 262.342625 353.705793 
L 262.78041 353.744882 
L 266.840864 353.640646 
L 267.199167 353.627617 
L 268.791944 353.523381 
L 269.389228 353.432175 
L 270.862749 353.32794 
L 271.380484 353.262793 
L 274.168765 353.367028 
L 274.88584 353.692764 
L 276.599079 355.790502 
L 276.957649 355.308413 
L 277.316287 353.823058 
L 277.714766 349.953318 
L 278.113245 343.76434 
L 278.551565 333.458062 
L 279.109476 314.057243 
L 279.747136 282.304527 
L 280.544228 229.105371 
L 282.138612 120.856881 
L 282.736565 94.654701 
L 283.135178 85.078071 
L 283.414267 82.341892 
L 283.49395 82.15948 
L 283.533858 82.211597 
L 283.61354 82.407039 
L 283.81288 84.087835 
L 284.131811 90.055313 
L 284.490649 101.104268 
L 285.00892 123.697297 
L 285.926004 175.997422 
L 287.281743 248.532249 
L 288.119212 280.1677 
L 288.757274 297.418663 
L 289.395402 309.705414 
L 290.193097 319.581721 
L 290.791385 324.246256 
L 291.389739 327.80329 
L 292.147659 331.008529 
L 292.546607 332.168149 
L 292.985396 333.523209 
L 293.344502 334.174681 
L 293.623726 334.839181 
L 294.780794 337.210537 
L 295.538916 338.630745 
L 296.017746 339.581893 
L 296.416828 340.129129 
L 297.454373 341.301778 
L 297.73373 341.432072 
L 298.691593 341.92719 
L 298.931042 341.901131 
L 299.210466 341.796896 
L 299.609615 341.523278 
L 299.849131 341.419043 
L 300.807127 341.210572 
L 301.326067 341.314807 
L 301.924891 341.614484 
L 302.403923 342.057485 
L 302.92293 342.565632 
L 303.202421 342.761074 
L 303.841286 343.52981 
L 304.280477 344.285517 
L 304.759642 344.989106 
L 305.398575 345.992372 
L 305.957624 346.852314 
L 306.636531 347.581962 
L 306.836206 347.751345 
L 307.555088 348.598258 
L 308.393829 349.523347 
L 309.272612 350.239966 
L 310.11142 350.669937 
L 310.510904 350.761143 
L 311.110129 351.021731 
L 312.308713 351.125967 
L 313.267647 351.334438 
L 313.906981 351.438673 
L 314.306531 351.464732 
L 314.985907 351.568967 
L 316.704369 352.038027 
L 316.944153 352.064085 
L 318.942708 352.168321 
L 319.422409 352.350733 
L 320.54178 352.611321 
L 325.460125 352.715557 
L 327.259943 353.197646 
L 327.659962 353.288852 
L 327.939989 353.353999 
L 331.980757 353.458234 
L 332.741021 353.601558 
L 333.821488 353.705793 
L 334.782029 353.914264 
L 336.74322 353.810029 
L 337.383693 353.705793 
L 337.623878 353.692764 
L 338.024232 353.56247 
L 339.505521 353.458234 
L 339.825791 353.445205 
L 340.106085 353.445205 
L 340.426355 353.432175 
L 340.826776 353.458234 
L 342.148164 353.353999 
L 342.428526 353.367028 
L 343.790158 353.458234 
L 345.111881 354.435441 
L 346.033117 355.477796 
L 346.513823 355.412649 
L 346.834293 354.683001 
L 347.234915 352.715557 
L 347.595427 349.366994 
L 347.996049 342.930456 
L 348.356629 334.135592 
L 348.797359 319.412338 
L 349.438368 289.131947 
L 350.159594 244.050125 
L 352.123129 118.746114 
L 352.644144 99.566796 
L 353.004858 92.843611 
L 353.245311 91.306138 
L 353.28542 91.280079 
L 353.325462 91.345226 
L 353.405614 91.592786 
L 353.606025 93.442964 
L 353.886587 98.758971 
L 354.327519 112.609253 
L 354.968795 141.938496 
L 357.414174 264.623593 
L 358.376389 294.382807 
L 359.098084 308.363383 
L 359.859955 317.926983 
L 360.541675 324.233227 
L 361.383831 329.236527 
L 362.386423 332.989003 
L 363.068276 334.839181 
L 365.75585 339.868541 
L 367.48094 341.406013 
L 367.96245 341.666602 
L 368.24328 341.731749 
L 368.403783 341.783867 
L 368.885292 341.966279 
L 369.206299 341.862043 
L 369.447087 341.835984 
L 369.76816 341.835984 
L 369.968772 341.796896 
L 371.333283 341.901131 
L 371.654356 341.992337 
L 372.055715 342.083543 
L 372.457073 342.331103 
L 373.099286 342.865309 
L 374.504241 344.936988 
L 374.86549 345.432107 
L 375.90933 346.95655 
L 376.270646 347.438638 
L 377.194091 348.454934 
L 378.559338 349.640612 
L 379.884544 350.630848 
L 380.527092 351.125967 
L 382.214015 351.581997 
L 382.49518 351.581997 
L 382.776345 351.568967 
L 384.42336 351.673203 
L 385.347408 351.868644 
L 385.708992 351.972879 
L 387.396585 352.41588 
L 388.762837 352.467998 
L 388.762837 352.467998 
" clip-path="url(#pe0d71fa6f2)" style="fill: none; stroke: #8286ff; stroke-width: 1.5; stroke-linecap: square"/>
   </g>
   <g id="line2d_14">
    <defs>
     <path id="mdf23348d0f" d="M -3 3 
L 3 -3 
M -3 -3 
L 3 3 
" style="stroke: #ff0000"/>
    </defs>
    <g clip-path="url(#pe0d71fa6f2)">
     <use xlink:href="#mdf23348d0f" x="74.196877" y="51.84" style="fill: #ff0000; stroke: #ff0000"/>
     <use xlink:href="#mdf23348d0f" x="143.924133" y="59.866128" style="fill: #ff0000; stroke: #ff0000"/>
     <use xlink:href="#mdf23348d0f" x="213.678508" y="67.019284" style="fill: #ff0000; stroke: #ff0000"/>
     <use xlink:href="#mdf23348d0f" x="283.49395" y="82.15948" style="fill: #ff0000; stroke: #ff0000"/>
     <use xlink:href="#mdf23348d0f" x="353.28542" y="91.280079" style="fill: #ff0000; stroke: #ff0000"/>
    </g>
   </g>
   <g id="patch_3">
    <path d="M 54 384.48 
L 54 51.84 
" style="fill: none; stroke: #000000; stroke-width: 0.5; stroke-linejoin: miter; stroke-linecap: square"/>
   </g>
   <g id="patch_4">
    <path d="M 54 384.48 
L 388.8 384.48 
" style="fill: none; stroke: #000000; stroke-width: 0.5; stroke-linejoin: miter; stroke-linecap: square"/>
   </g>
   <g id="text_15">
    <!-- 9530.16 -->
    <g transform="translate(74.196877 45.792) scale(0.08 -0.08)">
     <defs>
      <path id="Helvetica-33" d="M 1663 -122 
Q 869 -122 511 314 
Q 153 750 153 1375 
L 741 1375 
Q 778 941 903 744 
Q 1122 391 1694 391 
Q 2138 391 2406 628 
Q 2675 866 2675 1241 
Q 2675 1703 2392 1887 
Q 2109 2072 1606 2072 
Q 1550 2072 1492 2070 
Q 1434 2069 1375 2066 
L 1375 2563 
Q 1463 2553 1522 2550 
Q 1581 2547 1650 2547 
Q 1966 2547 2169 2647 
Q 2525 2822 2525 3272 
Q 2525 3606 2287 3787 
Q 2050 3969 1734 3969 
Q 1172 3969 956 3594 
Q 838 3388 822 3006 
L 266 3006 
Q 266 3506 466 3856 
Q 809 4481 1675 4481 
Q 2359 4481 2734 4176 
Q 3109 3872 3109 3294 
Q 3109 2881 2888 2625 
Q 2750 2466 2531 2375 
Q 2884 2278 3082 2001 
Q 3281 1725 3281 1325 
Q 3281 684 2859 281 
Q 2438 -122 1663 -122 
z
" transform="scale(0.015625)"/>
     </defs>
     <use xlink:href="#Helvetica-39"/>
     <use xlink:href="#Helvetica-35" x="55.615234"/>
     <use xlink:href="#Helvetica-33" x="111.230469"/>
     <use xlink:href="#Helvetica-30" x="166.845703"/>
     <use xlink:href="#Helvetica-2e" x="222.460938"/>
     <use xlink:href="#Helvetica-31" x="250.244141"/>
     <use xlink:href="#Helvetica-36" x="305.859375"/>
    </g>
   </g>
   <g id="text_16">
    <!-- 9634.30 -->
    <g transform="translate(143.924133 53.818128) scale(0.08 -0.08)">
     <use xlink:href="#Helvetica-39"/>
     <use xlink:href="#Helvetica-36" x="55.615234"/>
     <use xlink:href="#Helvetica-33" x="111.230469"/>
     <use xlink:href="#Helvetica-34" x="166.845703"/>
     <use xlink:href="#Helvetica-2e" x="222.460938"/>
     <use xlink:href="#Helvetica-33" x="250.244141"/>
     <use xlink:href="#Helvetica-30" x="305.859375"/>
    </g>
   </g>
   <g id="text_17">
    <!-- 9738.47 -->
    <g transform="translate(213.678508 60.971284) scale(0.08 -0.08)">
     <use xlink:href="#Helvetica-39"/>
     <use xlink:href="#Helvetica-37" x="55.615234"/>
     <use xlink:href="#Helvetica-33" x="111.230469"/>
     <use xlink:href="#Helvetica-38" x="166.845703"/>
     <use xlink:href="#Helvetica-2e" x="222.460938"/>
     <use xlink:href="#Helvetica-34" x="250.244141"/>
     <use xlink:href="#Helvetica-37" x="305.859375"/>
    </g>
   </g>
   <g id="text_18">
    <!-- 9842.73 -->
    <g transform="translate(283.49395 76.11148) scale(0.08 -0.08)">
     <use xlink:href="#Helvetica-39"/>
     <use xlink:href="#Helvetica-38" x="55.615234"/>
     <use xlink:href="#Helvetica-34" x="111.230469"/>
     <use xlink:href="#Helvetica-32" x="166.845703"/>
     <use xlink:href="#Helvetica-2e" x="222.460938"/>
     <use xlink:href="#Helvetica-37" x="250.244141"/>
     <use xlink:href="#Helvetica-33" x="305.859375"/>
    </g>
   </g>
   <g id="text_19">
    <!-- 9946.96 -->
    <g transform="translate(353.28542 85.232079) scale(0.08 -0.08)">
     <use xlink:href="#Helvetica-39"/>
     <use xlink:href="#Helvetica-39" x="55.615234"/>
     <use xlink:href="#Helvetica-34" x="111.230469"/>
     <use xlink:href="#Helvetica-36" x="166.845703"/>
     <use xlink:href="#Helvetica-2e" x="222.460938"/>
     <use xlink:href="#Helvetica-39" x="250.244141"/>
     <use xlink:href="#Helvetica-36" x="305.859375"/>
    </g>
   </g>
   <g id="text_20">
    <!-- PS-F1-10K_MALDI -->
    <g transform="translate(152.93375 31.84) scale(0.16 -0.16)">
     <defs>
      <path id="Helvetica-50" d="M 547 4591 
L 2613 4591 
Q 3225 4591 3600 4245 
Q 3975 3900 3975 3275 
Q 3975 2738 3640 2339 
Q 3306 1941 2613 1941 
L 1169 1941 
L 1169 0 
L 547 0 
L 547 4591 
z
M 3347 3272 
Q 3347 3778 2972 3959 
Q 2766 4056 2406 4056 
L 1169 4056 
L 1169 2466 
L 2406 2466 
Q 2825 2466 3086 2644 
Q 3347 2822 3347 3272 
z
" transform="scale(0.015625)"/>
      <path id="Helvetica-53" d="M 894 1481 
Q 916 1091 1078 847 
Q 1388 391 2169 391 
Q 2519 391 2806 491 
Q 3363 684 3363 1184 
Q 3363 1559 3128 1719 
Q 2891 1875 2384 1991 
L 1763 2131 
Q 1153 2269 900 2434 
Q 463 2722 463 3294 
Q 463 3913 891 4309 
Q 1319 4706 2103 4706 
Q 2825 4706 3329 4357 
Q 3834 4009 3834 3244 
L 3250 3244 
Q 3203 3613 3050 3809 
Q 2766 4169 2084 4169 
Q 1534 4169 1293 3937 
Q 1053 3706 1053 3400 
Q 1053 3063 1334 2906 
Q 1519 2806 2169 2656 
L 2813 2509 
Q 3278 2403 3531 2219 
Q 3969 1897 3969 1284 
Q 3969 522 3414 194 
Q 2859 -134 2125 -134 
Q 1269 -134 784 303 
Q 300 738 309 1481 
L 894 1481 
z
M 2150 4716 
L 2150 4716 
z
" transform="scale(0.015625)"/>
      <path id="Helvetica-2d" d="M 266 2072 
L 1834 2072 
L 1834 1494 
L 266 1494 
L 266 2072 
z
" transform="scale(0.015625)"/>
      <path id="Helvetica-46" d="M 547 4591 
L 3731 4591 
L 3731 4028 
L 1169 4028 
L 1169 2634 
L 3422 2634 
L 3422 2088 
L 1169 2088 
L 1169 0 
L 547 0 
L 547 4591 
z
" transform="scale(0.015625)"/>
      <path id="Helvetica-4b" d="M 488 4591 
L 1094 4591 
L 1094 2353 
L 3331 4591 
L 4191 4591 
L 2281 2741 
L 4244 0 
L 3434 0 
L 1828 2303 
L 1094 1600 
L 1094 0 
L 488 0 
L 488 4591 
z
" transform="scale(0.015625)"/>
      <path id="Helvetica-5f" d="M 0 -800 
L 0 -484 
L 3559 -484 
L 3559 -800 
L 0 -800 
z
" transform="scale(0.015625)"/>
      <path id="Helvetica-4d" d="M 472 4591 
L 1363 4591 
L 2681 709 
L 3991 4591 
L 4872 4591 
L 4872 0 
L 4281 0 
L 4281 2709 
Q 4281 2850 4287 3175 
Q 4294 3500 4294 3872 
L 2984 0 
L 2369 0 
L 1050 3872 
L 1050 3731 
Q 1050 3563 1058 3217 
Q 1066 2872 1066 2709 
L 1066 0 
L 472 0 
L 472 4591 
z
" transform="scale(0.015625)"/>
      <path id="Helvetica-41" d="M 2844 1881 
L 2147 3909 
L 1406 1881 
L 2844 1881 
z
M 1822 4591 
L 2525 4591 
L 4191 0 
L 3509 0 
L 3044 1375 
L 1228 1375 
L 731 0 
L 94 0 
L 1822 4591 
z
" transform="scale(0.015625)"/>
      <path id="Helvetica-4c" d="M 488 4591 
L 1109 4591 
L 1109 547 
L 3434 547 
L 3434 0 
L 488 0 
L 488 4591 
z
" transform="scale(0.015625)"/>
      <path id="Helvetica-44" d="M 2250 531 
Q 2566 531 2769 597 
Q 3131 719 3363 1066 
Q 3547 1344 3628 1778 
Q 3675 2038 3675 2259 
Q 3675 3113 3336 3584 
Q 2997 4056 2244 4056 
L 1141 4056 
L 1141 531 
L 2250 531 
z
M 516 4591 
L 2375 4591 
Q 3322 4591 3844 3919 
Q 4309 3313 4309 2366 
Q 4309 1634 4034 1044 
Q 3550 0 2369 0 
L 516 0 
L 516 4591 
z
" transform="scale(0.015625)"/>
     </defs>
     <use xlink:href="#Helvetica-50"/>
     <use xlink:href="#Helvetica-53" x="66.699219"/>
     <use xlink:href="#Helvetica-2d" x="133.398438"/>
     <use xlink:href="#Helvetica-46" x="166.699219"/>
     <use xlink:href="#Helvetica-31" x="227.783203"/>
     <use xlink:href="#Helvetica-2d" x="283.398438"/>
     <use xlink:href="#Helvetica-31" x="316.699219"/>
     <use xlink:href="#Helvetica-30" x="372.314453"/>
     <use xlink:href="#Helvetica-4b" x="427.929688"/>
     <use xlink:href="#Helvetica-5f" x="494.628906"/>
     <use xlink:href="#Helvetica-4d" x="550.244141"/>
     <use xlink:href="#Helvetica-41" x="633.544922"/>
     <use xlink:href="#Helvetica-4c" x="700.244141"/>
     <use xlink:href="#Helvetica-44" x="755.859375"/>
     <use xlink:href="#Helvetica-49" x="828.076172"/>
    </g>
   </g>
   <g id="legend_1">
    <g id="patch_5">
     <path d="M 300.339063 74.097812 
L 381.8 74.097812 
Q 383.8 74.097812 383.8 72.097812 
L 383.8 58.84 
Q 383.8 56.84 381.8 56.84 
L 300.339063 56.84 
Q 298.339063 56.84 298.339063 58.84 
L 298.339063 72.097812 
Q 298.339063 74.097812 300.339063 74.097812 
z
" style="fill: #ffffff; opacity: 0.8; stroke: #cccccc; stroke-linejoin: miter"/>
    </g>
    <g id="line2d_15">
     <path d="M 302.339063 64.513437 
L 312.339063 64.513437 
L 322.339063 64.513437 
" style="fill: none; stroke: #8286ff; stroke-width: 1.5; stroke-linecap: square"/>
    </g>
    <g id="text_21">
     <!-- PS-F1-10K -->
     <g transform="translate(330.339063 68.013437) scale(0.1 -0.1)">
      <use xlink:href="#Helvetica-50"/>
      <use xlink:href="#Helvetica-53" x="66.699219"/>
      <use xlink:href="#Helvetica-2d" x="133.398438"/>
      <use xlink:href="#Helvetica-46" x="166.699219"/>
      <use xlink:href="#Helvetica-31" x="227.783203"/>
      <use xlink:href="#Helvetica-2d" x="283.398438"/>
      <use xlink:href="#Helvetica-31" x="316.699219"/>
      <use xlink:href="#Helvetica-30" x="372.314453"/>
      <use xlink:href="#Helvetica-4b" x="427.929688"/>
     </g>
    </g>
   </g>
  </g>
 </g>
 <defs>
  <clipPath id="pe0d71fa6f2">
   <rect x="54" y="51.84" width="334.8" height="332.64"/>
  </clipPath>
 </defs>
</svg>
