<?xml version="1.0" encoding="utf-8" standalone="no"?>
<!DOCTYPE svg PUBLIC "-//W3C//DTD SVG 1.1//EN"
  "http://www.w3.org/Graphics/SVG/1.1/DTD/svg11.dtd">
<svg xmlns:xlink="http://www.w3.org/1999/xlink" width="432pt" height="432pt" viewBox="0 0 432 432" xmlns="http://www.w3.org/2000/svg" version="1.1">
 <metadata>
  <rdf:RDF xmlns:dc="http://purl.org/dc/elements/1.1/" xmlns:cc="http://creativecommons.org/ns#" xmlns:rdf="http://www.w3.org/1999/02/22-rdf-syntax-ns#">
   <cc:Work>
    <dc:type rdf:resource="http://purl.org/dc/dcmitype/StillImage"/>
    <dc:date>2024-10-21T11:35:04.788398</dc:date>
    <dc:format>image/svg+xml</dc:format>
    <dc:creator>
     <cc:Agent>
      <dc:title>Matplotlib v3.7.1, https://matplotlib.org/</dc:title>
     </cc:Agent>
    </dc:creator>
   </cc:Work>
  </rdf:RDF>
 </metadata>
 <defs>
  <style type="text/css">*{stroke-linejoin: round; stroke-linecap: butt}</style>
 </defs>
 <g id="figure_1">
  <g id="patch_1">
   <path d="M 0 432 
L 432 432 
L 432 0 
L 0 0 
z
" style="fill: #ffffff"/>
  </g>
  <g id="axes_1">
   <g id="patch_2">
    <path d="M 54 384.48 
L 388.8 384.48 
L 388.8 51.84 
L 54 51.84 
z
" style="fill: #ffffff"/>
   </g>
   <g id="matplotlib.axis_1">
    <g id="xtick_1">
     <g id="line2d_1">
      <defs>
       <path id="m7165525368" d="M 0 0 
L 0 -3.5 
" style="stroke: #000000; stroke-width: 0.8"/>
      </defs>
      <g>
       <use xlink:href="#m7165525368" x="87.48" y="384.48" style="stroke: #000000; stroke-width: 0.8"/>
      </g>
     </g>
     <g id="text_1">
      <!-- 6000 -->
      <g transform="translate(74.13375 396.588125) scale(0.12 -0.12)">
       <defs>
        <path id="Helvetica-36" d="M 1872 4494 
Q 2622 4494 2917 4105 
Q 3213 3716 3213 3303 
L 2656 3303 
Q 2606 3569 2497 3719 
Q 2294 4000 1881 4000 
Q 1409 4000 1131 3564 
Q 853 3128 822 2316 
Q 1016 2600 1309 2741 
Q 1578 2866 1909 2866 
Q 2472 2866 2890 2506 
Q 3309 2147 3309 1434 
Q 3309 825 2912 354 
Q 2516 -116 1781 -116 
Q 1153 -116 697 361 
Q 241 838 241 1966 
Q 241 2800 444 3381 
Q 834 4494 1872 4494 
z
M 1831 384 
Q 2275 384 2495 682 
Q 2716 981 2716 1388 
Q 2716 1731 2519 2042 
Q 2322 2353 1803 2353 
Q 1441 2353 1167 2112 
Q 894 1872 894 1388 
Q 894 963 1142 673 
Q 1391 384 1831 384 
z
" transform="scale(0.015625)"/>
        <path id="Helvetica-30" d="M 1731 4475 
Q 2600 4475 2988 3759 
Q 3288 3206 3288 2244 
Q 3288 1331 3016 734 
Q 2622 -122 1728 -122 
Q 922 -122 528 578 
Q 200 1163 200 2147 
Q 200 2909 397 3456 
Q 766 4475 1731 4475 
z
M 1725 391 
Q 2163 391 2422 778 
Q 2681 1166 2681 2222 
Q 2681 2984 2493 3476 
Q 2306 3969 1766 3969 
Q 1269 3969 1039 3501 
Q 809 3034 809 2125 
Q 809 1441 956 1025 
Q 1181 391 1725 391 
z
" transform="scale(0.015625)"/>
       </defs>
       <use xlink:href="#Helvetica-36"/>
       <use xlink:href="#Helvetica-30" x="55.615234"/>
       <use xlink:href="#Helvetica-30" x="111.230469"/>
       <use xlink:href="#Helvetica-30" x="166.845703"/>
      </g>
     </g>
    </g>
    <g id="xtick_2">
     <g id="line2d_2">
      <g>
       <use xlink:href="#m7165525368" x="154.44" y="384.48" style="stroke: #000000; stroke-width: 0.8"/>
      </g>
     </g>
     <g id="text_2">
      <!-- 8000 -->
      <g transform="translate(141.09375 396.588125) scale(0.12 -0.12)">
       <defs>
        <path id="Helvetica-38" d="M 1741 2600 
Q 2113 2600 2322 2808 
Q 2531 3016 2531 3303 
Q 2531 3553 2331 3762 
Q 2131 3972 1722 3972 
Q 1316 3972 1134 3762 
Q 953 3553 953 3272 
Q 953 2956 1187 2778 
Q 1422 2600 1741 2600 
z
M 1775 384 
Q 2166 384 2423 595 
Q 2681 806 2681 1225 
Q 2681 1659 2415 1884 
Q 2150 2109 1734 2109 
Q 1331 2109 1076 1879 
Q 822 1650 822 1244 
Q 822 894 1055 639 
Q 1288 384 1775 384 
z
M 975 2384 
Q 741 2484 609 2619 
Q 363 2869 363 3269 
Q 363 3769 725 4128 
Q 1088 4488 1753 4488 
Q 2397 4488 2762 4148 
Q 3128 3809 3128 3356 
Q 3128 2938 2916 2678 
Q 2797 2531 2547 2391 
Q 2825 2263 2984 2097 
Q 3281 1784 3281 1284 
Q 3281 694 2884 283 
Q 2488 -128 1763 -128 
Q 1109 -128 657 226 
Q 206 581 206 1256 
Q 206 1653 400 1942 
Q 594 2231 975 2384 
z
" transform="scale(0.015625)"/>
       </defs>
       <use xlink:href="#Helvetica-38"/>
       <use xlink:href="#Helvetica-30" x="55.615234"/>
       <use xlink:href="#Helvetica-30" x="111.230469"/>
       <use xlink:href="#Helvetica-30" x="166.845703"/>
      </g>
     </g>
    </g>
    <g id="xtick_3">
     <g id="line2d_3">
      <g>
       <use xlink:href="#m7165525368" x="221.4" y="384.48" style="stroke: #000000; stroke-width: 0.8"/>
      </g>
     </g>
     <g id="text_3">
      <!-- 10000 -->
      <g transform="translate(204.717187 396.588125) scale(0.12 -0.12)">
       <defs>
        <path id="Helvetica-31" d="M 613 3169 
L 613 3600 
Q 1222 3659 1462 3798 
Q 1703 3938 1822 4456 
L 2266 4456 
L 2266 0 
L 1666 0 
L 1666 3169 
L 613 3169 
z
" transform="scale(0.015625)"/>
       </defs>
       <use xlink:href="#Helvetica-31"/>
       <use xlink:href="#Helvetica-30" x="55.615234"/>
       <use xlink:href="#Helvetica-30" x="111.230469"/>
       <use xlink:href="#Helvetica-30" x="166.845703"/>
       <use xlink:href="#Helvetica-30" x="222.460938"/>
      </g>
     </g>
    </g>
    <g id="xtick_4">
     <g id="line2d_4">
      <g>
       <use xlink:href="#m7165525368" x="288.36" y="384.48" style="stroke: #000000; stroke-width: 0.8"/>
      </g>
     </g>
     <g id="text_4">
      <!-- 12000 -->
      <g transform="translate(271.677188 396.588125) scale(0.12 -0.12)">
       <defs>
        <path id="Helvetica-32" d="M 200 0 
Q 231 578 439 1006 
Q 647 1434 1250 1784 
L 1850 2131 
Q 2253 2366 2416 2531 
Q 2672 2791 2672 3125 
Q 2672 3516 2437 3745 
Q 2203 3975 1813 3975 
Q 1234 3975 1013 3538 
Q 894 3303 881 2888 
L 309 2888 
Q 319 3472 525 3841 
Q 891 4491 1816 4491 
Q 2584 4491 2939 4075 
Q 3294 3659 3294 3150 
Q 3294 2613 2916 2231 
Q 2697 2009 2131 1694 
L 1703 1456 
Q 1397 1288 1222 1134 
Q 909 863 828 531 
L 3272 531 
L 3272 0 
L 200 0 
z
" transform="scale(0.015625)"/>
       </defs>
       <use xlink:href="#Helvetica-31"/>
       <use xlink:href="#Helvetica-32" x="55.615234"/>
       <use xlink:href="#Helvetica-30" x="111.230469"/>
       <use xlink:href="#Helvetica-30" x="166.845703"/>
       <use xlink:href="#Helvetica-30" x="222.460938"/>
      </g>
     </g>
    </g>
    <g id="xtick_5">
     <g id="line2d_5">
      <g>
       <use xlink:href="#m7165525368" x="355.32" y="384.48" style="stroke: #000000; stroke-width: 0.8"/>
      </g>
     </g>
     <g id="text_5">
      <!-- 14000 -->
      <g transform="translate(338.637188 396.588125) scale(0.12 -0.12)">
       <defs>
        <path id="Helvetica-34" d="M 2116 1584 
L 2116 3613 
L 681 1584 
L 2116 1584 
z
M 2125 0 
L 2125 1094 
L 163 1094 
L 163 1644 
L 2213 4488 
L 2688 4488 
L 2688 1584 
L 3347 1584 
L 3347 1094 
L 2688 1094 
L 2688 0 
L 2125 0 
z
" transform="scale(0.015625)"/>
       </defs>
       <use xlink:href="#Helvetica-31"/>
       <use xlink:href="#Helvetica-34" x="55.615234"/>
       <use xlink:href="#Helvetica-30" x="111.230469"/>
       <use xlink:href="#Helvetica-30" x="166.845703"/>
       <use xlink:href="#Helvetica-30" x="222.460938"/>
      </g>
     </g>
    </g>
    <g id="text_6">
     <!-- m/z -->
     <g transform="translate(211.735313 411.6975) scale(0.12 -0.12)">
      <defs>
       <path id="Helvetica-6d" d="M 413 3347 
L 969 3347 
L 969 2872 
Q 1169 3119 1331 3231 
Q 1609 3422 1963 3422 
Q 2363 3422 2606 3225 
Q 2744 3113 2856 2894 
Q 3044 3163 3297 3292 
Q 3550 3422 3866 3422 
Q 4541 3422 4784 2934 
Q 4916 2672 4916 2228 
L 4916 0 
L 4331 0 
L 4331 2325 
Q 4331 2659 4164 2784 
Q 3997 2909 3756 2909 
Q 3425 2909 3186 2687 
Q 2947 2466 2947 1947 
L 2947 0 
L 2375 0 
L 2375 2184 
Q 2375 2525 2294 2681 
Q 2166 2916 1816 2916 
Q 1497 2916 1236 2669 
Q 975 2422 975 1775 
L 975 0 
L 413 0 
L 413 3347 
z
" transform="scale(0.015625)"/>
       <path id="Helvetica-2f" d="M 1456 4591 
L 1931 4591 
L 475 0 
L 0 0 
L 1456 4591 
z
" transform="scale(0.015625)"/>
       <path id="Helvetica-7a" d="M 163 444 
L 2147 2844 
L 309 2844 
L 309 3347 
L 2903 3347 
L 2903 2888 
L 931 503 
L 2963 503 
L 2963 0 
L 163 0 
L 163 444 
z
M 1609 3428 
L 1609 3428 
z
" transform="scale(0.015625)"/>
      </defs>
      <use xlink:href="#Helvetica-6d"/>
      <use xlink:href="#Helvetica-2f" x="83.300781"/>
      <use xlink:href="#Helvetica-7a" x="111.083984"/>
     </g>
    </g>
   </g>
   <g id="matplotlib.axis_2">
    <g id="ytick_1">
     <g id="line2d_6">
      <defs>
       <path id="mc6083439d5" d="M 0 0 
L 3.5 0 
" style="stroke: #000000; stroke-width: 0.8"/>
      </defs>
      <g>
       <use xlink:href="#mc6083439d5" x="54" y="354.24" style="stroke: #000000; stroke-width: 0.8"/>
      </g>
     </g>
     <g id="text_7">
      <!-- 0.0 -->
      <g transform="translate(33.82 358.544062) scale(0.12 -0.12)">
       <defs>
        <path id="Helvetica-2e" d="M 547 681 
L 1200 681 
L 1200 0 
L 547 0 
L 547 681 
z
" transform="scale(0.015625)"/>
       </defs>
       <use xlink:href="#Helvetica-30"/>
       <use xlink:href="#Helvetica-2e" x="55.615234"/>
       <use xlink:href="#Helvetica-30" x="83.398438"/>
      </g>
     </g>
    </g>
    <g id="ytick_2">
     <g id="line2d_7">
      <g>
       <use xlink:href="#mc6083439d5" x="54" y="293.76" style="stroke: #000000; stroke-width: 0.8"/>
      </g>
     </g>
     <g id="text_8">
      <!-- 0.2 -->
      <g transform="translate(33.82 298.064062) scale(0.12 -0.12)">
       <use xlink:href="#Helvetica-30"/>
       <use xlink:href="#Helvetica-2e" x="55.615234"/>
       <use xlink:href="#Helvetica-32" x="83.398438"/>
      </g>
     </g>
    </g>
    <g id="ytick_3">
     <g id="line2d_8">
      <g>
       <use xlink:href="#mc6083439d5" x="54" y="233.28" style="stroke: #000000; stroke-width: 0.8"/>
      </g>
     </g>
     <g id="text_9">
      <!-- 0.4 -->
      <g transform="translate(33.82 237.584062) scale(0.12 -0.12)">
       <use xlink:href="#Helvetica-30"/>
       <use xlink:href="#Helvetica-2e" x="55.615234"/>
       <use xlink:href="#Helvetica-34" x="83.398438"/>
      </g>
     </g>
    </g>
    <g id="ytick_4">
     <g id="line2d_9">
      <g>
       <use xlink:href="#mc6083439d5" x="54" y="172.8" style="stroke: #000000; stroke-width: 0.8"/>
      </g>
     </g>
     <g id="text_10">
      <!-- 0.6 -->
      <g transform="translate(33.82 177.104062) scale(0.12 -0.12)">
       <use xlink:href="#Helvetica-30"/>
       <use xlink:href="#Helvetica-2e" x="55.615234"/>
       <use xlink:href="#Helvetica-36" x="83.398438"/>
      </g>
     </g>
    </g>
    <g id="ytick_5">
     <g id="line2d_10">
      <g>
       <use xlink:href="#mc6083439d5" x="54" y="112.32" style="stroke: #000000; stroke-width: 0.8"/>
      </g>
     </g>
     <g id="text_11">
      <!-- 0.8 -->
      <g transform="translate(33.82 116.624062) scale(0.12 -0.12)">
       <use xlink:href="#Helvetica-30"/>
       <use xlink:href="#Helvetica-2e" x="55.615234"/>
       <use xlink:href="#Helvetica-38" x="83.398438"/>
      </g>
     </g>
    </g>
    <g id="ytick_6">
     <g id="line2d_11">
      <g>
       <use xlink:href="#mc6083439d5" x="54" y="51.84" style="stroke: #000000; stroke-width: 0.8"/>
      </g>
     </g>
     <g id="text_12">
      <!-- 1.0 -->
      <g transform="translate(33.82 56.144062) scale(0.12 -0.12)">
       <use xlink:href="#Helvetica-31"/>
       <use xlink:href="#Helvetica-2e" x="55.615234"/>
       <use xlink:href="#Helvetica-30" x="83.398438"/>
      </g>
     </g>
    </g>
    <g id="text_13">
     <!-- Normalized Intensity -->
     <g transform="translate(27.2475 272.511562) rotate(-90) scale(0.12 -0.12)">
      <defs>
       <path id="Helvetica-4e" d="M 488 4591 
L 1222 4591 
L 3541 872 
L 3541 4591 
L 4131 4591 
L 4131 0 
L 3434 0 
L 1081 3716 
L 1081 0 
L 488 0 
L 488 4591 
z
M 2269 4591 
L 2269 4591 
z
" transform="scale(0.015625)"/>
       <path id="Helvetica-6f" d="M 1741 363 
Q 2300 363 2508 786 
Q 2716 1209 2716 1728 
Q 2716 2197 2566 2491 
Q 2328 2953 1747 2953 
Q 1231 2953 997 2559 
Q 763 2166 763 1609 
Q 763 1075 997 719 
Q 1231 363 1741 363 
z
M 1763 3444 
Q 2409 3444 2856 3012 
Q 3303 2581 3303 1744 
Q 3303 934 2909 406 
Q 2516 -122 1688 -122 
Q 997 -122 590 345 
Q 184 813 184 1600 
Q 184 2444 612 2944 
Q 1041 3444 1763 3444 
z
M 1744 3428 
L 1744 3428 
z
" transform="scale(0.015625)"/>
       <path id="Helvetica-72" d="M 428 3347 
L 963 3347 
L 963 2769 
Q 1028 2938 1284 3180 
Q 1541 3422 1875 3422 
Q 1891 3422 1928 3419 
Q 1966 3416 2056 3406 
L 2056 2813 
Q 2006 2822 1964 2825 
Q 1922 2828 1872 2828 
Q 1447 2828 1219 2554 
Q 991 2281 991 1925 
L 991 0 
L 428 0 
L 428 3347 
z
" transform="scale(0.015625)"/>
       <path id="Helvetica-61" d="M 844 891 
Q 844 647 1022 506 
Q 1200 366 1444 366 
Q 1741 366 2019 503 
Q 2488 731 2488 1250 
L 2488 1703 
Q 2384 1638 2221 1594 
Q 2059 1550 1903 1531 
L 1563 1488 
Q 1256 1447 1103 1359 
Q 844 1213 844 891 
z
M 2206 2028 
Q 2400 2053 2466 2191 
Q 2503 2266 2503 2406 
Q 2503 2694 2298 2823 
Q 2094 2953 1713 2953 
Q 1272 2953 1088 2716 
Q 984 2584 953 2325 
L 428 2325 
Q 444 2944 830 3186 
Q 1216 3428 1725 3428 
Q 2316 3428 2684 3203 
Q 3050 2978 3050 2503 
L 3050 575 
Q 3050 488 3086 434 
Q 3122 381 3238 381 
Q 3275 381 3322 386 
Q 3369 391 3422 400 
L 3422 -16 
Q 3291 -53 3222 -62 
Q 3153 -72 3034 -72 
Q 2744 -72 2613 134 
Q 2544 244 2516 444 
Q 2344 219 2022 53 
Q 1700 -113 1313 -113 
Q 847 -113 551 170 
Q 256 453 256 878 
Q 256 1344 547 1600 
Q 838 1856 1309 1916 
L 2206 2028 
z
M 1741 3428 
L 1741 3428 
z
" transform="scale(0.015625)"/>
       <path id="Helvetica-6c" d="M 428 4591 
L 991 4591 
L 991 0 
L 428 0 
L 428 4591 
z
" transform="scale(0.015625)"/>
       <path id="Helvetica-69" d="M 413 3331 
L 984 3331 
L 984 0 
L 413 0 
L 413 3331 
z
M 413 4591 
L 984 4591 
L 984 3953 
L 413 3953 
L 413 4591 
z
" transform="scale(0.015625)"/>
       <path id="Helvetica-65" d="M 1806 3422 
Q 2163 3422 2497 3255 
Q 2831 3088 3006 2822 
Q 3175 2569 3231 2231 
Q 3281 2000 3281 1494 
L 828 1494 
Q 844 984 1069 676 
Q 1294 369 1766 369 
Q 2206 369 2469 659 
Q 2619 828 2681 1050 
L 3234 1050 
Q 3213 866 3089 639 
Q 2966 413 2813 269 
Q 2556 19 2178 -69 
Q 1975 -119 1719 -119 
Q 1094 -119 659 336 
Q 225 791 225 1609 
Q 225 2416 662 2919 
Q 1100 3422 1806 3422 
z
M 2703 1941 
Q 2669 2306 2544 2525 
Q 2313 2931 1772 2931 
Q 1384 2931 1121 2651 
Q 859 2372 844 1941 
L 2703 1941 
z
M 1753 3428 
L 1753 3428 
z
" transform="scale(0.015625)"/>
       <path id="Helvetica-64" d="M 769 1634 
Q 769 1097 997 734 
Q 1225 372 1728 372 
Q 2119 372 2370 708 
Q 2622 1044 2622 1672 
Q 2622 2306 2362 2611 
Q 2103 2916 1722 2916 
Q 1297 2916 1033 2591 
Q 769 2266 769 1634 
z
M 1616 3406 
Q 2000 3406 2259 3244 
Q 2409 3150 2600 2916 
L 2600 4606 
L 3141 4606 
L 3141 0 
L 2634 0 
L 2634 466 
Q 2438 156 2169 18 
Q 1900 -119 1553 -119 
Q 994 -119 584 351 
Q 175 822 175 1603 
Q 175 2334 548 2870 
Q 922 3406 1616 3406 
z
" transform="scale(0.015625)"/>
       <path id="Helvetica-20" transform="scale(0.015625)"/>
       <path id="Helvetica-49" d="M 628 4591 
L 1256 4591 
L 1256 0 
L 628 0 
L 628 4591 
z
" transform="scale(0.015625)"/>
       <path id="Helvetica-6e" d="M 413 3347 
L 947 3347 
L 947 2872 
Q 1184 3166 1450 3294 
Q 1716 3422 2041 3422 
Q 2753 3422 3003 2925 
Q 3141 2653 3141 2147 
L 3141 0 
L 2569 0 
L 2569 2109 
Q 2569 2416 2478 2603 
Q 2328 2916 1934 2916 
Q 1734 2916 1606 2875 
Q 1375 2806 1200 2600 
Q 1059 2434 1017 2257 
Q 975 2081 975 1753 
L 975 0 
L 413 0 
L 413 3347 
z
M 1734 3428 
L 1734 3428 
z
" transform="scale(0.015625)"/>
       <path id="Helvetica-74" d="M 525 4281 
L 1094 4281 
L 1094 3347 
L 1628 3347 
L 1628 2888 
L 1094 2888 
L 1094 703 
Q 1094 528 1213 469 
Q 1278 434 1431 434 
Q 1472 434 1519 436 
Q 1566 438 1628 444 
L 1628 0 
Q 1531 -28 1426 -40 
Q 1322 -53 1200 -53 
Q 806 -53 665 148 
Q 525 350 525 672 
L 525 2888 
L 72 2888 
L 72 3347 
L 525 3347 
L 525 4281 
z
" transform="scale(0.015625)"/>
       <path id="Helvetica-73" d="M 747 1050 
Q 772 769 888 619 
Q 1100 347 1625 347 
Q 1938 347 2175 483 
Q 2413 619 2413 903 
Q 2413 1119 2222 1231 
Q 2100 1300 1741 1391 
L 1294 1503 
Q 866 1609 663 1741 
Q 300 1969 300 2372 
Q 300 2847 642 3140 
Q 984 3434 1563 3434 
Q 2319 3434 2653 2991 
Q 2863 2709 2856 2384 
L 2325 2384 
Q 2309 2575 2191 2731 
Q 1997 2953 1519 2953 
Q 1200 2953 1036 2831 
Q 872 2709 872 2509 
Q 872 2291 1088 2159 
Q 1213 2081 1456 2022 
L 1828 1931 
Q 2434 1784 2641 1647 
Q 2969 1431 2969 969 
Q 2969 522 2630 197 
Q 2291 -128 1597 -128 
Q 850 -128 539 211 
Q 228 550 206 1050 
L 747 1050 
z
M 1578 3428 
L 1578 3428 
z
" transform="scale(0.015625)"/>
       <path id="Helvetica-79" d="M 2503 3347 
L 3125 3347 
Q 3006 3025 2597 1878 
Q 2291 1016 2084 472 
Q 1597 -809 1397 -1090 
Q 1197 -1372 709 -1372 
Q 591 -1372 527 -1362 
Q 463 -1353 369 -1328 
L 369 -816 
Q 516 -856 581 -865 
Q 647 -875 697 -875 
Q 853 -875 926 -823 
Q 1000 -772 1050 -697 
Q 1066 -672 1162 -440 
Q 1259 -209 1303 -97 
L 66 3347 
L 703 3347 
L 1600 622 
L 2503 3347 
z
M 1597 3428 
L 1597 3428 
z
" transform="scale(0.015625)"/>
      </defs>
      <use xlink:href="#Helvetica-4e"/>
      <use xlink:href="#Helvetica-6f" x="72.216797"/>
      <use xlink:href="#Helvetica-72" x="127.832031"/>
      <use xlink:href="#Helvetica-6d" x="161.132812"/>
      <use xlink:href="#Helvetica-61" x="244.433594"/>
      <use xlink:href="#Helvetica-6c" x="300.048828"/>
      <use xlink:href="#Helvetica-69" x="322.265625"/>
      <use xlink:href="#Helvetica-7a" x="344.482422"/>
      <use xlink:href="#Helvetica-65" x="394.482422"/>
      <use xlink:href="#Helvetica-64" x="450.097656"/>
      <use xlink:href="#Helvetica-20" x="505.712891"/>
      <use xlink:href="#Helvetica-49" x="533.496094"/>
      <use xlink:href="#Helvetica-6e" x="561.279297"/>
      <use xlink:href="#Helvetica-74" x="616.894531"/>
      <use xlink:href="#Helvetica-65" x="644.677734"/>
      <use xlink:href="#Helvetica-6e" x="700.292969"/>
      <use xlink:href="#Helvetica-73" x="755.908203"/>
      <use xlink:href="#Helvetica-69" x="805.908203"/>
      <use xlink:href="#Helvetica-74" x="828.125"/>
      <use xlink:href="#Helvetica-79" x="855.908203"/>
     </g>
    </g>
   </g>
   <g id="line2d_12">
    <path d="M 54.000881 353.249763 
L 54.067402 353.158557 
L 54.101377 353.32794 
L 54.213234 353.510352 
L 54.125446 353.288852 
L 54.228812 353.484293 
L 54.264221 353.380058 
L 54.309549 353.314911 
L 54.339296 353.484293 
L 54.364798 353.471264 
L 54.441317 353.575499 
L 54.625594 354.318177 
L 54.62843 354.292118 
L 54.811394 353.080381 
L 54.863888 353.145528 
L 54.885174 353.249763 
L 55.054081 353.823058 
L 55.05692 353.810029 
L 55.075378 353.914264 
L 55.220232 354.226971 
L 55.24722 354.122735 
L 55.316835 354.0185 
L 55.349519 354.187882 
L 55.350938 354.187882 
L 55.419154 354.292118 
L 55.434789 354.318177 
L 55.520082 354.200912 
L 55.595439 354.096676 
L 55.669397 352.41588 
L 55.815928 349.145494 
L 55.858622 349.497288 
L 55.935482 351.217173 
L 56.130557 353.705793 
L 56.136255 353.679735 
L 56.170438 353.78397 
L 56.181835 353.810029 
L 56.228847 353.32794 
L 56.312919 352.624351 
L 56.359948 352.924028 
L 56.438348 353.367028 
L 56.483972 353.158557 
L 56.612321 352.363762 
L 56.672233 352.454968 
L 56.720739 352.559204 
L 56.760694 352.741616 
L 56.844896 352.676469 
L 56.867733 352.780704 
L 56.999085 353.536411 
L 57.054779 353.471264 
L 57.116201 353.575499 
L 57.237643 353.836088 
L 57.153344 353.536411 
L 57.240502 353.823058 
L 57.383432 353.249763 
L 57.409168 353.301881 
L 57.463499 353.197646 
L 57.467791 353.184616 
L 57.546449 353.445205 
L 57.547879 353.445205 
L 57.589361 353.54944 
L 57.663753 354.148794 
L 57.756767 354.057588 
L 57.822609 353.953353 
L 57.884169 353.810029 
L 57.924261 354.031529 
L 57.925691 354.031529 
L 57.990133 354.135765 
L 58.041696 354.318177 
L 58.11189 354.226971 
L 58.316828 353.314911 
L 58.319693 353.32794 
L 58.471686 353.692764 
L 58.513281 353.796999 
L 58.64527 354.292118 
L 58.676841 354.279088 
L 58.719897 354.174853 
L 58.788795 353.914264 
L 58.836173 354.109706 
L 58.910836 354.435441 
L 58.968285 354.305147 
L 59.150744 351.660173 
L 59.29448 347.647109 
L 59.363496 348.806728 
L 59.573503 353.353999 
L 59.599403 353.32794 
L 59.665603 353.223705 
L 59.721735 353.406117 
L 59.7822 353.171587 
L 59.858511 353.275822 
L 59.898835 353.484293 
L 59.98382 353.406117 
L 60.018395 353.301881 
L 60.162496 353.002204 
L 60.174027 352.897969 
L 60.194205 352.87191 
L 60.246102 353.223705 
L 60.247542 353.223705 
L 60.370106 353.744882 
L 60.397509 353.575499 
L 60.479729 353.679735 
L 60.573517 353.979411 
L 60.609591 353.849117 
L 60.706302 353.953353 
L 60.766937 353.992441 
L 60.804479 353.836088 
L 60.866577 353.484293 
L 60.946019 353.56247 
L 61.005255 353.666705 
L 61.135315 353.836088 
L 61.15555 353.940323 
L 61.276992 354.226971 
L 61.294345 354.187882 
L 61.385457 354.083647 
L 61.434639 354.057588 
L 61.4737 354.200912 
L 61.485274 354.187882 
L 61.52 354.292118 
L 61.527235 354.305147 
L 61.602488 354.031529 
L 61.84428 352.598292 
L 61.864556 352.663439 
L 62.022471 353.979411 
L 62.047105 353.966382 
L 62.065948 354.070617 
L 62.144218 354.292118 
L 62.184809 354.148794 
L 62.237004 353.914264 
L 62.305159 354.057588 
L 62.422651 354.748148 
L 62.463275 354.47453 
L 62.649042 351.803497 
L 62.786983 348.910964 
L 62.826195 349.366994 
L 63.036865 353.406117 
L 63.15751 353.32794 
L 63.339283 353.432175 
L 63.394562 353.666705 
L 63.457122 353.497323 
L 63.598294 352.441939 
L 63.6507 352.754645 
L 63.848755 353.849117 
L 63.869147 353.731852 
L 63.998825 353.56247 
L 64.147503 353.458234 
L 64.350211 352.63738 
L 64.424617 352.741616 
L 64.634788 353.627617 
L 64.653768 353.731852 
L 64.837777 354.396353 
L 64.910824 354.187882 
L 64.963428 354.266059 
L 65.027733 354.161823 
L 65.178306 353.627617 
L 65.19439 353.666705 
L 65.505988 353.770941 
L 65.66848 354.226971 
L 65.702161 354.122735 
L 65.836904 353.914264 
L 65.889645 354.0185 
L 65.942396 354.24 
L 66.001013 354.0185 
L 66.105086 352.129233 
L 66.245852 349.067317 
L 66.292788 349.380023 
L 66.39988 351.308379 
L 66.571586 353.028263 
L 66.574522 353.015234 
L 66.63031 352.910998 
L 66.725755 352.546174 
L 66.768345 352.676469 
L 66.916721 353.184616 
L 66.927006 353.09341 
L 66.957865 353.002204 
L 67.043108 353.041293 
L 67.173951 353.393087 
L 67.194538 353.497323 
L 67.323965 354.148794 
L 67.362216 354.0185 
L 67.484345 353.914264 
L 67.609463 353.810029 
L 67.619768 353.78397 
L 67.703695 353.914264 
L 67.708115 353.914264 
L 67.759661 353.810029 
L 67.883399 353.510352 
L 67.902553 353.523381 
L 67.94823 353.627617 
L 68.076458 354.096676 
L 68.104468 354.031529 
L 68.380256 354.135765 
L 68.411242 354.279088 
L 68.49683 354.187882 
L 68.527822 354.292118 
L 68.547013 354.331206 
L 68.616394 354.096676 
L 68.647396 353.992441 
L 68.821663 353.367028 
L 68.826096 353.380058 
L 69.000446 353.979411 
L 69.001926 353.966382 
L 69.040351 354.031529 
L 69.140875 353.718823 
L 69.180796 353.614587 
L 69.325734 353.301881 
L 69.46925 354.122735 
L 69.507725 353.940323 
L 69.60542 352.129233 
L 69.756451 349.145494 
L 69.790514 349.484259 
L 70.049806 353.393087 
L 70.082416 353.510352 
L 70.163953 353.419146 
L 70.301867 353.523381 
L 70.350818 353.614587 
L 70.417578 353.56247 
L 70.444288 353.458234 
L 70.588245 353.171587 
L 70.623871 353.275822 
L 70.803545 354.0185 
L 70.8184 354.00547 
L 70.963991 353.901235 
L 70.998168 353.810029 
L 71.065047 353.992441 
L 71.127481 354.096676 
L 71.178026 354.24 
L 71.230067 354.044559 
L 71.233043 354.044559 
L 71.417481 353.367028 
L 71.420454 353.380058 
L 71.462117 353.484293 
L 71.539496 353.770941 
L 71.596057 353.679735 
L 71.655601 353.575499 
L 71.682398 353.471264 
L 71.756848 353.653676 
L 71.758338 353.653676 
L 71.811953 353.757911 
L 71.962408 354.331206 
L 71.97731 354.253029 
L 72.127833 353.875176 
L 72.130816 353.888205 
L 72.224741 353.78397 
L 72.296318 353.627617 
L 72.344044 353.705793 
L 72.384317 353.810029 
L 72.518595 354.357265 
L 72.545456 354.253029 
L 72.617096 354.148794 
L 72.691733 353.875176 
L 72.742499 354.0185 
L 72.797748 354.122735 
L 72.847034 354.279088 
L 72.923214 354.253029 
L 72.954585 354.148794 
L 73.080105 352.103174 
L 73.2251 349.327906 
L 73.260984 349.601524 
L 73.581106 353.262793 
L 73.643965 353.158557 
L 73.66492 353.132499 
L 73.732288 353.340969 
L 73.733785 353.340969 
L 73.885028 353.914264 
L 73.901503 353.836088 
L 73.937454 353.731852 
L 74.091777 353.09341 
L 74.109762 353.197646 
L 74.1892 353.301881 
L 74.348126 353.744882 
L 74.349626 353.731852 
L 74.39912 353.627617 
L 74.409619 353.614587 
L 74.475618 353.901235 
L 74.478618 353.901235 
L 74.565639 354.122735 
L 74.59865 353.979411 
L 74.616659 353.875176 
L 74.666186 353.679735 
L 74.742742 353.744882 
L 74.822317 353.836088 
L 74.846342 353.705793 
L 74.847842 353.705793 
L 74.895899 353.627617 
L 74.937953 353.888205 
L 74.954476 353.979411 
L 75.079169 354.357265 
L 75.086682 354.344235 
L 75.208415 354.578765 
L 75.220438 354.539677 
L 75.331688 354.435441 
L 75.345221 354.448471 
L 75.479071 354.122735 
L 75.634033 354.0185 
L 75.730355 353.32794 
L 75.775513 353.484293 
L 75.798095 353.588529 
L 75.905 354.24 
L 75.960721 354.044559 
L 76.066166 353.966382 
L 75.989339 354.122735 
L 76.076712 354.00547 
L 76.108351 353.966382 
L 76.221372 354.292118 
L 76.28468 354.187882 
L 76.328398 354.200912 
L 76.412834 354.044559 
L 76.43093 353.940323 
L 76.544046 352.011968 
L 76.706996 348.754611 
L 76.767368 349.106405 
L 77.018006 353.588529 
L 77.120726 353.288852 
L 77.144898 353.184616 
L 77.17965 353.158557 
L 77.228006 353.393087 
L 77.232539 353.393087 
L 77.370085 353.692764 
L 77.374621 353.666705 
L 77.460805 353.32794 
L 77.500121 353.393087 
L 77.651384 353.744882 
L 77.674076 353.849117 
L 77.781514 353.979411 
L 77.795137 353.940323 
L 77.895038 353.888205 
L 77.852652 353.979411 
L 77.908664 353.914264 
L 78.034341 354.044559 
L 78.155515 353.940323 
L 78.314616 353.458234 
L 78.320679 353.471264 
L 78.355538 353.575499 
L 78.516239 354.266059 
L 78.537469 354.187882 
L 78.711899 354.083647 
L 78.736172 354.031529 
L 78.789282 354.253029 
L 78.801422 354.253029 
L 78.854538 354.487559 
L 78.92284 354.344235 
L 78.972936 354.24 
L 79.162758 353.56247 
L 79.329877 353.666705 
L 79.490989 354.305147 
L 79.510752 354.266059 
L 79.585255 354.148794 
L 79.633918 354.161823 
L 79.674982 354.057588 
L 79.699318 354.031529 
L 79.754082 354.187882 
L 79.776902 354.135765 
L 79.821025 354.24 
L 79.881891 354.383324 
L 79.921461 354.148794 
L 80.041715 352.168321 
L 80.201605 349.054288 
L 80.244252 349.757877 
L 80.497194 353.406117 
L 80.52768 353.536411 
L 80.602381 353.393087 
L 80.608481 353.406117 
L 80.703022 353.510352 
L 80.841827 353.744882 
L 80.953215 353.640646 
L 80.994418 353.458234 
L 81.079896 353.510352 
L 81.098216 353.614587 
L 81.140964 353.692764 
L 81.202041 353.54944 
L 81.203568 353.56247 
L 81.276876 353.666705 
L 81.392971 353.953353 
L 81.420472 353.940323 
L 81.460199 353.836088 
L 81.593165 353.653676 
L 81.652783 353.54944 
L 81.781225 353.32794 
L 81.788872 353.340969 
L 81.843933 353.445205 
L 81.996923 354.148794 
L 82.032118 354.096676 
L 82.091806 353.979411 
L 82.12701 354.122735 
L 82.139257 354.122735 
L 82.292361 354.47453 
L 82.329115 354.370294 
L 82.447059 354.109706 
L 82.470039 354.122735 
L 82.531328 354.0185 
L 82.627874 353.914264 
L 82.643201 354.0185 
L 82.684589 353.914264 
L 82.824107 353.406117 
L 82.848645 353.458234 
L 82.877782 353.56247 
L 83.072609 354.344235 
L 83.078746 354.331206 
L 83.20152 354.174853 
L 83.115574 354.357265 
L 83.206127 354.187882 
L 83.375011 354.083647 
L 83.536284 351.764409 
L 83.67611 348.858846 
L 83.736052 349.4582 
L 83.966676 352.963116 
L 84.031275 352.598292 
L 84.077428 352.702527 
L 84.249766 353.367028 
L 84.262076 353.32794 
L 84.386766 353.432175 
L 84.397543 353.445205 
L 84.456056 353.158557 
L 84.469914 353.197646 
L 84.526897 353.301881 
L 84.656293 353.901235 
L 84.693269 353.78397 
L 84.747202 353.627617 
L 84.798061 353.836088 
L 84.83197 353.940323 
L 84.919835 354.305147 
L 84.959924 354.083647 
L 84.986135 353.979411 
L 85.023144 353.862147 
L 85.081747 354.00547 
L 85.101798 353.940323 
L 85.163502 354.044559 
L 85.183557 354.070617 
L 85.259158 353.914264 
L 85.316255 353.940323 
L 85.376448 353.862147 
L 85.442822 353.966382 
L 85.472158 353.940323 
L 85.558623 354.00547 
L 85.62194 354.109706 
L 85.734704 354.266059 
L 85.743972 354.213941 
L 85.753242 354.174853 
L 85.793415 354.253029 
L 85.855226 354.213941 
L 86.008246 354.109706 
L 86.153596 353.823058 
L 86.203086 353.927294 
L 86.281978 354.122735 
L 86.323751 354.00547 
L 86.404214 353.901235 
L 86.506365 353.666705 
L 86.531133 353.770941 
L 86.651899 353.875176 
L 86.66893 353.927294 
L 86.752563 353.78397 
L 86.888887 353.679735 
L 87.029912 351.555938 
L 87.147728 349.562435 
L 87.194242 349.744847 
L 87.288843 351.464732 
L 87.448626 353.627617 
L 87.479659 353.510352 
L 87.54018 353.406117 
L 87.628655 353.288852 
L 87.661254 353.32794 
L 87.821188 353.888205 
L 87.835163 353.862147 
L 87.880207 353.757911 
L 88.001384 353.314911 
L 88.035567 353.393087 
L 88.176997 353.653676 
L 88.204979 353.757911 
L 88.338692 354.279088 
L 88.372905 354.24 
L 88.511345 354.135765 
L 88.673174 353.705793 
L 88.751001 353.744882 
L 88.688738 353.666705 
L 88.782138 353.705793 
L 88.830399 353.614587 
L 88.895799 353.679735 
L 89.020398 353.914264 
L 89.031302 353.888205 
L 89.307124 353.992441 
L 89.442765 354.200912 
L 89.472395 354.305147 
L 89.522303 354.383324 
L 89.575336 354.24 
L 89.597175 354.135765 
L 89.704826 353.927294 
L 89.728232 353.966382 
L 89.753202 354.070617 
L 89.792219 354.200912 
L 89.845285 354.031529 
L 89.860897 354.044559 
L 89.873385 354.031529 
L 89.92178 354.122735 
L 89.970182 354.057588 
L 90.046697 354.161823 
L 90.073247 354.213941 
L 90.112295 354.044559 
L 90.152909 354.122735 
L 90.263835 354.0185 
L 90.320092 354.070617 
L 90.543631 350.774172 
L 90.643716 349.393053 
L 90.690638 349.836053 
L 91.006733 353.705793 
L 91.028652 353.640646 
L 91.135122 353.614587 
L 91.070921 353.679735 
L 91.141383 353.627617 
L 91.258847 353.731852 
L 91.288611 353.796999 
L 91.360677 353.679735 
L 91.363811 353.679735 
L 91.533062 353.197646 
L 91.69925 353.653676 
L 91.741589 353.757911 
L 91.838835 353.862147 
L 91.857661 353.796999 
L 91.868642 353.757911 
L 91.937671 353.992441 
L 91.943949 353.992441 
L 91.98004 354.044559 
L 92.042812 353.888205 
L 92.135417 353.78397 
L 92.243749 353.731852 
L 92.187224 353.823058 
L 92.25003 353.744882 
L 92.283007 353.692764 
L 92.391375 353.992441 
L 92.422793 354.096676 
L 92.473067 354.226971 
L 92.542199 354.161823 
L 92.705655 354.266059 
L 92.727665 354.318177 
L 92.771685 354.187882 
L 92.80942 354.200912 
L 92.933658 354.305147 
L 92.976127 354.396353 
L 93.045347 354.318177 
L 93.079962 354.331206 
L 93.190118 354.044559 
L 93.344387 354.148794 
L 93.413667 354.344235 
L 93.471936 354.279088 
L 93.517612 354.174853 
L 93.620008 353.914264 
L 93.649946 354.00547 
L 93.735038 354.109706 
L 93.772861 354.187882 
L 93.824875 353.940323 
L 93.962039 351.894703 
L 94.126061 348.806728 
L 94.160767 348.950052 
L 94.416417 353.56247 
L 94.54588 353.484293 
L 94.599572 353.588529 
L 94.75121 353.927294 
L 95.040427 353.823058 
L 95.106834 353.731852 
L 95.151112 353.823058 
L 95.261823 353.927294 
L 95.388388 354.057588 
L 95.646385 353.953353 
L 95.73664 353.731852 
L 95.765148 353.810029 
L 95.834837 353.914264 
L 95.864935 353.966382 
L 95.918798 353.836088 
L 95.945733 353.914264 
L 96.009117 354.0185 
L 96.123227 354.174853 
L 96.134326 354.135765 
L 96.343619 354.031529 
L 96.437199 353.888205 
L 96.468928 353.914264 
L 96.81174 354.0185 
L 96.934012 354.109706 
L 97.007075 354.213941 
L 97.119876 354.344235 
L 97.130998 354.318177 
L 97.332846 354.213941 
L 97.436192 352.467998 
L 97.623867 349.054288 
L 97.646138 349.22367 
L 98.034506 353.757911 
L 98.160324 353.653676 
L 98.179441 353.601558 
L 98.252722 353.810029 
L 98.286182 353.914264 
L 98.356296 354.135765 
L 98.40889 354.00547 
L 98.439172 353.901235 
L 98.541196 353.770941 
L 98.563517 353.796999 
L 98.679927 353.901235 
L 98.686305 353.888205 
L 98.738942 353.78397 
L 98.842633 353.718823 
L 98.774036 353.796999 
L 98.855399 353.744882 
L 99.067656 353.640646 
L 99.107567 353.614587 
L 99.150676 353.78397 
L 99.165046 353.757911 
L 99.211352 353.862147 
L 99.340719 354.00547 
L 99.454145 354.109706 
L 99.5724 354.200912 
L 99.487702 354.083647 
L 99.575597 354.187882 
L 99.661912 354.083647 
L 99.671504 354.057588 
L 99.748244 354.213941 
L 99.767431 354.135765 
L 99.821799 354.24 
L 99.864982 354.331206 
L 99.919363 354.226971 
L 99.930559 354.226971 
L 100.026546 354.122735 
L 100.082548 353.992441 
L 100.141761 354.083647 
L 100.19778 354.187882 
L 100.308237 354.213941 
L 100.242599 354.174853 
L 100.309837 354.200912 
L 100.409112 354.305147 
L 100.490793 354.409383 
L 100.52283 354.331206 
L 100.667019 354.226971 
L 100.766381 354.070617 
L 100.79523 354.083647 
L 100.816068 353.979411 
L 100.92829 352.18135 
L 101.098281 348.53311 
L 101.154427 349.353964 
L 101.374264 352.897969 
L 101.3855 352.884939 
L 101.436868 353.10644 
L 101.460947 353.09341 
L 101.582975 353.432175 
L 101.605456 353.367028 
L 101.653637 353.471264 
L 101.793393 353.836088 
L 101.807853 353.823058 
L 101.838383 353.718823 
L 101.974985 353.510352 
L 102.11163 353.849117 
L 102.122883 353.810029 
L 102.188812 353.914264 
L 102.319093 354.070617 
L 102.373789 354.174853 
L 102.417229 354.096676 
L 102.488033 354.200912 
L 102.636111 354.096676 
L 102.721439 353.810029 
L 102.768136 353.914264 
L 102.884094 354.122735 
L 102.896981 354.057588 
L 103.154787 354.161823 
L 103.188635 354.109706 
L 103.270852 354.200912 
L 103.34502 354.305147 
L 103.409526 354.370294 
L 103.445005 354.24 
L 103.446619 354.24 
L 103.591801 353.966382 
L 103.691846 354.00547 
L 103.633752 353.927294 
L 103.70637 353.992441 
L 104.177872 354.096676 
L 104.244119 354.24 
L 104.289367 354.109706 
L 104.408971 352.246497 
L 104.577118 348.285551 
L 104.641808 349.262758 
L 104.928176 353.666705 
L 104.934647 353.653676 
L 105.094906 353.757911 
L 105.232549 353.966382 
L 105.713831 354.070617 
L 105.744636 354.187882 
L 105.83545 354.148794 
L 105.965215 354.044559 
L 106.017133 354.109706 
L 106.086905 353.966382 
L 106.172922 353.862147 
L 106.194021 353.823058 
L 106.216747 353.888205 
L 106.280058 353.888205 
L 106.382349 353.78397 
L 106.460304 353.614587 
L 106.502532 353.692764 
L 106.660123 354.070617 
L 106.710497 354.174853 
L 106.840523 354.344235 
L 106.93807 354.174853 
L 106.967339 354.213941 
L 107.170643 354.109706 
L 107.248738 353.966382 
L 107.291043 354.031529 
L 107.325216 354.135765 
L 107.406596 354.331206 
L 107.45543 354.292118 
L 107.523806 354.187882 
L 107.597077 354.083647 
L 107.644304 354.109706 
L 107.735514 354.00547 
L 107.893546 351.855615 
L 108.048378 347.894668 
L 108.124997 348.950052 
L 108.521356 353.823058 
L 108.539308 353.796999 
L 108.820085 353.692764 
L 108.967076 353.406117 
L 109.03569 353.510352 
L 109.181117 353.849117 
L 109.187655 353.836088 
L 109.207268 353.810029 
L 109.284091 353.901235 
L 109.288993 353.901235 
L 109.398532 354.031529 
L 109.411613 353.992441 
L 109.496649 353.888205 
L 109.508096 353.875176 
L 109.589881 354.00547 
L 109.593152 354.00547 
L 109.699494 354.109706 
L 109.710948 354.096676 
L 109.825499 354.226971 
L 109.907341 354.122735 
L 109.926984 354.083647 
L 109.95809 354.174853 
L 110.015395 354.148794 
L 110.320056 354.253029 
L 110.400348 354.292118 
L 110.421654 354.226971 
L 110.426573 354.226971 
L 110.534753 354.122735 
L 110.547867 354.148794 
L 111.08262 354.044559 
L 111.218873 353.849117 
L 111.236933 353.744882 
L 111.475072 348.194345 
L 111.544075 347.334403 
L 111.598299 347.894668 
L 111.741285 351.920762 
L 111.90898 353.275822 
L 111.946802 353.380058 
L 112.109639 353.78397 
L 112.170516 353.888205 
L 112.188615 353.914264 
L 112.272539 353.836088 
L 112.27583 353.836088 
L 112.405863 353.731852 
L 112.428911 353.640646 
L 112.516173 353.731852 
L 112.672629 354.083647 
L 112.776413 354.187882 
L 112.855506 354.24 
L 112.886817 354.187882 
L 112.990652 354.0185 
L 113.01538 354.044559 
L 113.612519 354.148794 
L 113.662043 354.174853 
L 113.695061 354.135765 
L 113.723127 354.148794 
L 113.774315 354.044559 
L 113.845323 354.057588 
L 114.174096 354.161823 
L 114.306332 354.357265 
L 114.307986 354.344235 
L 114.4353 354.24 
L 114.504761 354.187882 
L 114.534535 354.253029 
L 114.546113 354.24 
L 114.708243 354.135765 
L 114.910161 349.2367 
L 115.019429 346.135696 
L 115.077387 347.021697 
L 115.385516 353.249763 
L 115.541316 353.601558 
L 115.579446 353.705793 
L 115.720387 354.096676 
L 115.736973 354.070617 
L 115.839807 353.966382 
L 115.984149 353.692764 
L 116.04223 353.653676 
L 116.108617 353.796999 
L 116.140156 353.901235 
L 116.208217 354.083647 
L 116.253043 353.914264 
L 116.355998 353.849117 
L 116.296216 353.927294 
L 116.369283 353.875176 
L 116.726487 353.979411 
L 116.829546 354.148794 
L 116.857809 354.135765 
L 117.255331 354.24 
L 117.331883 354.396353 
L 117.381812 354.357265 
L 117.478361 354.253029 
L 117.495011 354.213941 
L 117.578262 354.344235 
L 117.841435 354.24 
L 117.986414 353.953353 
L 117.988077 353.966382 
L 118.219806 353.862147 
L 118.361564 349.940289 
L 118.510044 344.910929 
L 118.561774 345.718754 
L 118.905664 353.028263 
L 119.076037 353.484293 
L 119.10945 353.588529 
L 119.189655 353.770941 
L 119.234776 353.692764 
L 119.607606 353.796999 
L 119.714661 354.109706 
L 119.751466 354.070617 
L 119.831781 353.992441 
L 119.863577 354.057588 
L 120.020909 353.953353 
L 120.119692 353.901235 
L 120.134762 353.927294 
L 120.446316 354.031529 
L 120.573681 354.187882 
L 120.575355 354.174853 
L 120.857022 354.070617 
L 120.94927 353.966382 
L 120.974433 354.0185 
L 121.019728 354.122735 
L 121.046569 354.161823 
L 121.127112 354.096676 
L 121.169063 353.992441 
L 121.242913 353.875176 
L 121.281518 353.979411 
L 121.654322 353.875176 
L 121.792099 351.95985 
L 121.987076 343.360427 
L 122.084593 346.239931 
L 122.336888 352.845851 
L 122.540507 353.56247 
L 122.567442 353.666705 
L 122.671816 353.78397 
L 122.683601 353.718823 
L 122.823366 353.458234 
L 122.826734 353.471264 
L 122.964859 353.575499 
L 123.136732 354.044559 
L 123.312037 353.940323 
L 123.325526 353.901235 
L 123.411519 354.00547 
L 123.414891 354.00547 
L 123.536323 353.901235 
L 123.622353 353.757911 
L 123.66116 353.796999 
L 123.733714 353.901235 
L 123.858605 354.00547 
L 124.018984 353.901235 
L 124.078083 353.862147 
L 124.120304 353.940323 
L 124.127057 353.927294 
L 124.192929 354.031529 
L 124.302737 354.279088 
L 124.334838 354.266059 
L 124.50214 354.161823 
L 124.588351 354.096676 
L 124.613709 354.161823 
L 124.892745 354.057588 
L 124.941807 354.031529 
L 124.957033 354.083647 
L 125.001023 354.083647 
L 125.087324 354.135765 
L 125.111018 354.083647 
L 125.265053 352.077115 
L 125.483496 341.314807 
L 125.569885 344.559135 
L 125.812199 352.63738 
L 125.829147 352.741616 
L 126.037677 353.484293 
L 126.346403 353.380058 
L 126.426159 353.340969 
L 126.370157 353.419146 
L 126.45671 353.393087 
L 126.502537 353.497323 
L 126.667215 353.914264 
L 126.728346 354.0185 
L 126.803074 354.161823 
L 126.85403 354.135765 
L 127.117394 354.031529 
L 127.217683 353.940323 
L 127.236382 353.953353 
L 127.297587 353.901235 
L 127.348597 353.966382 
L 127.57991 354.070617 
L 127.671789 354.279088 
L 127.705822 354.200912 
L 127.806231 354.083647 
L 127.826658 354.122735 
L 127.86751 354.226971 
L 127.957739 354.279088 
L 127.978171 354.226971 
L 128.09056 354.122735 
L 128.213198 354.031529 
L 128.33246 354.135765 
L 128.349498 354.187882 
L 128.427888 354.057588 
L 128.434705 354.070617 
L 128.56766 353.966382 
L 128.744991 351.777438 
L 128.953096 338.226833 
L 129.041821 341.718719 
L 129.337131 353.028263 
L 129.388359 353.132499 
L 129.538661 353.432175 
L 129.586494 353.536411 
L 129.714642 353.666705 
L 129.794964 353.56247 
L 129.837694 353.510352 
L 129.907781 353.54944 
L 129.955651 353.653676 
L 130.030884 353.718823 
L 130.071923 353.692764 
L 130.210464 353.796999 
L 130.278894 353.953353 
L 130.338779 353.927294 
L 130.689676 354.031529 
L 130.777012 354.174853 
L 130.81298 354.122735 
L 130.939738 354.226971 
L 130.960299 354.279088 
L 131.023693 354.057588 
L 131.027121 354.057588 
L 131.16765 353.836088 
L 131.215644 353.940323 
L 131.272215 353.979411 
L 131.292788 353.914264 
L 131.325364 353.927294 
L 131.400812 354.031529 
L 131.51915 354.161823 
L 131.52601 354.135765 
L 132.112995 354.031529 
L 132.205741 352.533145 
L 132.344894 341.197542 
L 132.453152 334.956446 
L 132.496117 336.741478 
L 132.839983 352.65041 
L 133.041255 353.32794 
L 133.042976 353.314911 
L 133.118691 353.588529 
L 133.259825 353.484293 
L 133.375174 353.353999 
L 133.385506 353.367028 
L 133.485384 353.588529 
L 133.524997 353.575499 
L 133.60251 353.679735 
L 133.743786 353.901235 
L 133.986804 353.796999 
L 133.990252 353.78397 
L 134.073011 353.901235 
L 134.085081 353.901235 
L 134.145435 354.00547 
L 134.274795 354.148794 
L 134.423165 353.862147 
L 134.481835 353.966382 
L 134.587117 354.24 
L 134.625093 354.213941 
L 134.801201 354.318177 
L 134.835739 354.370294 
L 134.889277 354.187882 
L 134.89446 354.187882 
L 135.022286 354.0185 
L 135.025741 354.031529 
L 135.074117 354.135765 
L 135.094851 354.187882 
L 135.186439 354.148794 
L 135.578898 354.044559 
L 135.693061 352.363762 
L 135.800331 342.61775 
L 135.931858 330.005263 
L 135.982054 332.168149 
L 136.338767 352.507086 
L 136.579609 353.484293 
L 136.668006 353.380058 
L 136.681873 353.393087 
L 136.785892 353.32794 
L 136.876057 353.223705 
L 136.900337 353.210675 
L 136.957568 353.406117 
L 136.962774 353.406117 
L 137.137981 353.888205 
L 137.236888 353.992441 
L 137.33408 354.070617 
L 137.354912 354.044559 
L 137.472959 353.953353 
L 137.365324 354.057588 
L 137.476431 353.966382 
L 137.629243 354.070617 
L 137.76473 354.253029 
L 138.103608 354.148794 
L 138.140118 354.109706 
L 138.213141 354.161823 
L 138.634112 354.057588 
L 138.761172 353.940323 
L 138.832545 354.044559 
L 138.940498 354.200912 
L 138.963137 354.187882 
L 139.092018 354.083647 
L 139.191316 350.969614 
L 139.328969 332.441767 
L 139.41437 324.767433 
L 139.468407 327.607849 
L 139.813679 352.18135 
L 139.841592 352.285586 
L 140.014325 353.210675 
L 140.057953 353.314911 
L 140.17839 353.510352 
L 140.192358 353.484293 
L 140.274411 353.380058 
L 140.386171 353.054322 
L 140.419353 353.132499 
L 140.440311 353.236734 
L 140.655186 354.00547 
L 141.109697 353.901235 
L 141.142926 353.862147 
L 141.198898 353.992441 
L 141.209394 353.992441 
L 141.335355 354.096676 
L 141.361604 354.031529 
L 141.443851 354.109706 
L 141.485855 354.148794 
L 141.554117 354.096676 
L 141.816754 354.200912 
L 141.916592 354.318177 
L 141.939365 354.279088 
L 141.997175 354.174853 
L 142.086536 353.992441 
L 142.123334 354.057588 
L 142.265303 354.292118 
L 142.349448 354.187882 
L 142.400294 354.070617 
L 142.461666 354.174853 
L 142.586188 354.070617 
L 142.640567 352.897969 
L 142.723021 344.311576 
L 142.896749 315.26898 
L 142.966956 321.457959 
L 143.261942 351.529879 
L 143.449909 352.676469 
L 143.481537 352.780704 
L 143.622127 353.184616 
L 143.644977 353.171587 
L 143.702984 353.067351 
L 143.811985 352.884939 
L 143.831326 352.937057 
L 143.864736 353.041293 
L 144.088111 353.875176 
L 144.110981 353.979411 
L 144.18136 354.148794 
L 144.234148 354.070617 
L 144.292222 353.979411 
L 144.334464 354.096676 
L 144.343266 354.083647 
L 144.410152 354.187882 
L 144.418954 354.200912 
L 144.48057 354.122735 
L 144.517546 354.161823 
L 145.485094 354.266059 
L 145.504499 354.279088 
L 145.583894 354.200912 
L 145.587423 354.200912 
L 145.968676 354.096676 
L 145.995162 354.148794 
L 146.125848 352.116203 
L 146.207104 342.487456 
L 146.389091 307.698882 
L 146.44741 313.66636 
L 146.753256 350.995672 
L 147.124757 353.184616 
L 147.145997 353.080381 
L 147.243343 352.963116 
L 147.269893 352.989175 
L 147.326545 352.884939 
L 147.360182 352.845851 
L 147.415072 353.041293 
L 147.416843 353.041293 
L 147.441632 353.145528 
L 147.647085 353.836088 
L 147.680743 353.940323 
L 147.806544 354.096676 
L 147.811861 354.083647 
L 147.820719 354.070617 
L 147.845531 354.135765 
L 147.918193 354.109706 
L 147.930601 354.122735 
L 147.985552 354.083647 
L 148.028098 354.096676 
L 148.180579 354.200912 
L 148.258611 354.292118 
L 148.301181 354.266059 
L 148.404068 354.161823 
L 148.537141 354.00547 
L 148.627651 354.109706 
L 148.755458 354.226971 
L 149.551398 354.135765 
L 149.620745 351.555938 
L 149.716782 333.418974 
L 149.869762 294.474013 
L 149.926695 301.079933 
L 150.24885 350.552672 
L 150.441169 352.337703 
L 150.469667 352.441939 
L 150.613963 352.689498 
L 150.637124 352.663439 
L 150.697706 352.741616 
L 150.722652 352.702527 
L 150.915149 352.806763 
L 151.159432 353.78397 
L 151.253966 353.888205 
L 151.394907 354.109706 
L 151.523396 354.00547 
L 151.653697 353.862147 
L 151.701902 353.966382 
L 151.805462 354.200912 
L 151.835818 354.135765 
L 152.064453 354.24 
L 152.134135 354.305147 
L 152.173448 354.226971 
L 152.223487 354.174853 
L 152.284253 354.226971 
L 152.520233 354.122735 
L 152.532752 354.083647 
L 152.62217 354.174853 
L 152.623958 354.174853 
L 152.793892 354.070617 
L 152.915565 353.940323 
L 152.920932 353.953353 
L 153.019367 354.083647 
L 152.935248 353.927294 
L 153.035474 353.979411 
L 153.105286 351.425644 
L 153.194798 331.295177 
L 153.359547 281.613967 
L 153.420444 291.907215 
L 153.72862 349.731818 
L 154.072848 352.559204 
L 154.185847 352.246497 
L 154.241457 352.18135 
L 154.282721 352.350733 
L 154.318605 352.454968 
L 154.61115 353.770941 
L 154.677577 353.875176 
L 154.805069 353.992441 
L 154.849969 354.096676 
L 154.939779 354.24 
L 154.972118 354.174853 
L 155.09968 354.057588 
L 155.238059 353.953353 
L 155.295581 353.927294 
L 155.344117 353.992441 
L 155.345915 353.979411 
L 155.478965 354.292118 
L 155.495149 354.253029 
L 155.961097 354.148794 
L 156.087099 354.044559 
L 156.186123 354.161823 
L 156.21133 354.135765 
L 156.317582 354.031529 
L 156.420248 353.849117 
L 156.440065 353.953353 
L 156.474292 354.057588 
L 156.479699 354.070617 
L 156.533749 353.705793 
L 156.596812 349.940289 
L 156.692327 321.861871 
L 156.84374 266.135006 
L 156.90684 277.731197 
L 157.217049 348.715522 
L 157.426362 351.568967 
L 157.570762 352.220439 
L 157.579788 352.18135 
L 157.745902 351.595026 
L 157.765766 351.647144 
L 157.814526 351.751379 
L 158.202975 353.744882 
L 158.231895 353.640646 
L 158.244547 353.627617 
L 158.329506 353.679735 
L 158.338545 353.679735 
L 158.503083 354.057588 
L 158.673101 353.953353 
L 158.738226 353.901235 
L 158.788888 353.927294 
L 158.949943 354.292118 
L 159.076652 354.174853 
L 159.159933 354.070617 
L 159.185281 354.044559 
L 159.254093 354.135765 
L 159.261334 354.135765 
L 159.413477 354.24 
L 159.455143 354.279088 
L 159.493187 354.213941 
L 159.522174 354.226971 
L 159.576532 354.122735 
L 159.68345 353.966382 
L 159.707013 353.979411 
L 159.931801 354.083647 
L 159.955375 354.226971 
L 160.011588 353.875176 
L 160.042419 352.87191 
L 160.122222 340.650306 
L 160.28912 254.825463 
L 160.330853 247.685336 
L 160.385291 259.190321 
L 160.712039 347.647109 
L 160.953598 351.386555 
L 161.037167 351.608055 
L 161.073506 351.451702 
L 161.118935 351.347467 
L 161.220708 351.204143 
L 161.240699 351.256261 
L 161.675276 353.823058 
L 161.702562 353.770941 
L 161.797166 353.744882 
L 161.724394 353.796999 
L 161.813541 353.770941 
L 161.957301 353.875176 
L 161.991883 353.914264 
L 162.026464 353.836088 
L 162.068331 353.875176 
L 162.290461 353.979411 
L 162.436169 354.226971 
L 162.625646 354.122735 
L 162.632934 354.109706 
L 162.70583 354.253029 
L 162.720411 354.24 
L 162.773266 354.279088 
L 162.796963 354.226971 
L 162.827949 354.226971 
L 162.930043 354.122735 
L 162.951922 354.135765 
L 163.114219 354.187882 
L 163.16164 354.279088 
L 163.221837 354.096676 
L 163.345898 353.744882 
L 163.369618 353.836088 
L 163.473637 354.226971 
L 163.501014 353.979411 
L 163.574024 347.594992 
L 163.668953 304.128819 
L 163.816854 228.193311 
L 163.873469 242.434476 
L 164.200488 346.50052 
L 164.43994 351.099908 
L 164.553304 351.373526 
L 164.582562 351.321408 
L 164.608167 351.230202 
L 164.732542 350.735084 
L 164.749004 350.774172 
L 165.288913 353.823058 
L 165.342019 353.927294 
L 165.492203 354.226971 
L 165.494035 354.213941 
L 165.822022 354.109706 
L 165.882506 354.044559 
L 165.930169 354.122735 
L 166.047509 354.213941 
L 165.961335 354.083647 
L 166.05301 354.200912 
L 166.141032 354.096676 
L 166.166708 354.083647 
L 166.229068 354.200912 
L 166.238238 354.200912 
L 166.432703 354.096676 
L 166.485917 354.057588 
L 166.537302 354.148794 
L 166.539136 354.135765 
L 166.555655 354.174853 
L 166.643755 354.109706 
L 166.647427 354.109706 
L 166.695156 354.00547 
L 166.827346 353.666705 
L 166.853055 353.679735 
L 166.882434 353.78397 
L 166.983446 354.409383 
L 166.999975 353.953353 
L 167.064267 345.340901 
L 167.157961 291.829039 
L 167.301288 205.274547 
L 167.356427 221.170449 
L 167.691036 345.314842 
L 167.948564 350.526613 
L 168.014804 350.722054 
L 168.047929 350.487525 
L 168.160194 349.953318 
L 168.182285 349.992406 
L 168.791888 353.523381 
L 168.850857 353.627617 
L 168.904304 353.823058 
L 168.976189 353.731852 
L 169.11261 353.836088 
L 169.214028 353.901235 
L 169.166084 353.823058 
L 169.230624 353.888205 
L 169.267509 353.849117 
L 169.341285 353.888205 
L 169.453811 353.992441 
L 169.597732 354.226971 
L 169.870915 354.122735 
L 169.941076 354.0185 
L 169.987242 354.083647 
L 170.099898 354.161823 
L 170.038951 354.044559 
L 170.105439 354.148794 
L 170.234749 353.992441 
L 170.236597 354.00547 
L 170.351152 354.109706 
L 170.460187 354.604824 
L 170.478668 354.226971 
L 170.532272 348.598258 
L 170.619156 304.819379 
L 170.789265 186.264611 
L 170.852144 208.505845 
L 171.166648 343.217104 
L 171.388758 349.471229 
L 171.492439 350.187848 
L 171.562804 349.91423 
L 171.707266 349.432141 
L 171.725791 349.549406 
L 171.899941 351.555938 
L 172.144586 353.445205 
L 172.189077 353.54944 
L 172.248404 353.614587 
L 172.304031 353.575499 
L 172.35039 353.54944 
L 172.396754 353.705793 
L 172.474652 353.810029 
L 172.584098 353.979411 
L 172.604504 353.940323 
L 172.78635 353.836088 
L 172.858734 353.770941 
L 172.886576 353.901235 
L 173.057371 354.318177 
L 173.178073 354.213941 
L 173.235649 354.148794 
L 173.296944 354.161823 
L 173.36382 354.266059 
L 173.373107 354.292118 
L 173.460433 354.161823 
L 173.529184 354.057588 
L 173.571928 353.979411 
L 173.601662 354.083647 
L 173.642551 354.031529 
L 173.76338 354.148794 
L 173.692738 354.00547 
L 173.768958 354.135765 
L 173.809857 354.00547 
L 173.873074 354.161823 
L 173.936298 354.656942 
L 173.969775 354.070617 
L 174.03115 344.402782 
L 174.126016 279.190493 
L 174.278577 159.554283 
L 174.330679 179.476279 
L 174.675058 342.83925 
L 174.898547 348.402816 
L 175.008461 349.562435 
L 175.066221 349.2367 
L 175.189217 348.480993 
L 175.217172 348.676434 
L 175.646014 353.301881 
L 175.657207 353.288852 
L 175.759806 353.158557 
L 175.782194 353.197646 
L 175.86802 353.301881 
L 176.073313 353.953353 
L 176.166652 353.849117 
L 176.224529 353.823058 
L 176.248802 353.875176 
L 176.280547 353.836088 
L 176.433685 353.940323 
L 176.514007 354.187882 
L 176.573789 354.135765 
L 176.78494 354.24 
L 176.8055 354.266059 
L 176.885873 354.213941 
L 176.89522 354.226971 
L 177.007388 354.122735 
L 177.171942 353.718823 
L 177.175685 353.731852 
L 177.362738 353.836088 
L 177.433833 354.565736 
L 177.458156 353.810029 
L 177.525521 339.386452 
L 177.63407 243.320477 
L 177.761361 140.374965 
L 177.815656 160.023343 
L 178.182747 341.70569 
L 178.422605 348.07708 
L 178.424479 348.064051 
L 178.482584 348.337669 
L 178.49758 348.31161 
L 178.506954 348.32464 
L 178.57069 348.051022 
L 178.602563 347.946786 
L 178.649438 347.86861 
L 178.700063 348.024963 
L 178.859478 349.888171 
L 179.099617 352.611321 
L 179.170926 352.715557 
L 179.328593 353.419146 
L 179.371769 353.353999 
L 179.426218 353.32794 
L 179.441237 353.393087 
L 179.484423 353.340969 
L 179.621513 353.536411 
L 179.687255 353.523381 
L 179.655321 353.575499 
L 179.730457 353.536411 
L 179.846941 353.666705 
L 179.856335 353.640646 
L 179.90143 353.744882 
L 180.021703 353.940323 
L 180.025463 353.927294 
L 180.106287 354.031529 
L 180.256686 354.357265 
L 180.262327 354.344235 
L 180.331899 354.24 
L 180.474835 354.0185 
L 180.527502 353.914264 
L 180.741988 353.145528 
L 180.745755 353.158557 
L 180.918907 354.4615 
L 180.943377 353.78397 
L 180.996088 343.594957 
L 181.082698 281.157937 
L 181.254068 119.632115 
L 181.310573 145.000412 
L 181.657268 339.673099 
L 181.968337 347.998904 
L 181.998513 347.894668 
L 182.164493 347.204109 
L 182.198449 347.269256 
L 182.740132 353.223705 
L 182.74202 353.210675 
L 182.806225 353.406117 
L 182.825111 353.406117 
L 182.930877 353.497323 
L 183.029108 353.653676 
L 183.048 353.601558 
L 183.10657 353.705793 
L 183.119798 353.718823 
L 183.201051 353.627617 
L 183.204831 353.627617 
L 183.231287 353.601558 
L 183.284205 353.705793 
L 183.314448 353.640646 
L 183.507272 353.744882 
L 183.700161 354.305147 
L 183.828788 354.200912 
L 184.00664 353.666705 
L 184.016101 353.679735 
L 184.152372 353.575499 
L 184.275417 353.432175 
L 184.281096 353.445205 
L 184.396595 354.800265 
L 184.424999 353.966382 
L 184.489388 339.920658 
L 184.591669 243.620154 
L 184.73565 99.449531 
L 184.790598 123.006737 
L 185.146942 337.927156 
L 185.412445 346.422343 
L 185.522477 347.073814 
L 185.56042 346.94352 
L 185.5756 346.852314 
L 185.626834 346.305078 
L 185.706537 346.578696 
L 186.306552 353.301881 
L 186.33505 353.406117 
L 186.462354 353.679735 
L 186.464253 353.666705 
L 186.513663 353.56247 
L 186.641004 353.406117 
L 186.646705 353.419146 
L 186.720843 353.367028 
L 186.798792 353.705793 
L 186.852032 353.614587 
L 186.905278 353.744882 
L 187.044116 353.979411 
L 187.049821 353.966382 
L 187.08216 354.070617 
L 187.10118 354.083647 
L 187.167765 353.914264 
L 187.169666 353.914264 
L 187.182985 353.888205 
L 187.259091 354.057588 
L 187.363757 354.331206 
L 187.398013 354.253029 
L 187.582659 353.757911 
L 187.609312 353.653676 
L 187.733081 353.458234 
L 187.740698 353.510352 
L 187.794021 353.614587 
L 187.9064 355.086913 
L 187.927352 353.953353 
L 187.984506 335.738212 
L 188.095013 213.118263 
L 188.224598 82.654598 
L 188.27606 105.781833 
L 188.663115 338.096538 
L 188.901577 346.005401 
L 188.975996 346.630814 
L 189.035155 346.187813 
L 189.121045 345.731783 
L 189.157314 346.005401 
L 189.254674 347.41258 
L 189.627082 352.767675 
L 189.795218 353.158557 
L 189.827704 353.262793 
L 190.001632 353.692764 
L 190.208117 353.796999 
L 190.34199 354.00547 
L 190.345813 353.992441 
L 190.382156 353.940323 
L 190.431891 354.161823 
L 190.433806 354.148794 
L 190.571552 354.409383 
L 190.579206 354.383324 
L 190.726558 354.122735 
L 190.810774 354.200912 
L 190.845231 354.174853 
L 190.940951 353.940323 
L 190.97733 354.031529 
L 190.994562 354.083647 
L 191.0769 353.953353 
L 191.153505 353.849117 
L 191.186064 353.731852 
L 191.253108 353.914264 
L 191.255023 353.914264 
L 191.368052 355.894737 
L 191.402539 354.422412 
L 191.469603 336.46786 
L 191.576923 215.059648 
L 191.714935 69.703346 
L 191.76478 93.390847 
L 192.146421 336.780566 
L 192.372837 344.637311 
L 192.466882 345.614519 
L 192.516787 345.314842 
L 192.551342 345.210606 
L 192.612774 345.080312 
L 192.658853 345.249695 
L 192.835524 349.145494 
L 193.104465 352.363762 
L 193.262045 352.976145 
L 193.302409 352.950087 
L 193.352384 353.054322 
L 193.40621 353.223705 
L 193.481189 353.171587 
L 193.675406 353.275822 
L 193.821593 353.575499 
L 193.827362 353.56247 
L 193.835059 353.54944 
L 193.902394 353.810029 
L 194.052481 354.200912 
L 194.065954 354.161823 
L 194.223785 354.266059 
L 194.335444 354.292118 
L 194.298864 354.24 
L 194.337369 354.279088 
L 194.487567 353.914264 
L 194.497196 353.953353 
L 194.578087 353.849117 
L 194.614684 353.757911 
L 194.664767 353.914264 
L 194.680181 353.914264 
L 194.766878 354.0185 
L 194.867073 355.542943 
L 194.892126 354.318177 
L 194.951868 337.627479 
L 195.052097 229.339901 
L 195.200544 59.566451 
L 195.252602 83.618775 
L 195.62873 333.549268 
L 195.898913 344.363693 
L 195.954895 344.507017 
L 195.987712 344.103105 
L 196.051425 343.581928 
L 196.109352 343.959781 
L 196.621271 352.103174 
L 196.640599 352.207409 
L 196.911228 353.406117 
L 196.924764 353.367028 
L 196.944099 353.262793 
L 197.025315 353.288852 
L 197.069796 353.171587 
L 197.135554 353.275822 
L 197.299984 353.640646 
L 197.30192 353.627617 
L 197.338681 353.757911 
L 197.402534 353.705793 
L 197.437366 353.810029 
L 197.468329 353.953353 
L 197.549615 353.823058 
L 197.565099 353.757911 
L 197.63672 353.953353 
L 197.652207 353.940323 
L 197.781922 354.305147 
L 197.812901 354.266059 
L 197.886487 354.161823 
L 198.149918 353.145528 
L 198.213855 353.236734 
L 198.351441 356.038061 
L 198.388265 354.083647 
L 198.440598 336.793596 
L 198.549153 211.450496 
L 198.686813 56.63483 
L 198.739172 80.061742 
L 199.125204 333.757739 
L 199.387225 343.842516 
L 199.400814 343.803428 
L 199.431877 343.907663 
L 199.46294 344.129164 
L 199.517305 343.621016 
L 199.521188 343.634045 
L 199.52313 343.621016 
L 199.600804 343.829487 
L 199.791148 347.86861 
L 200.010696 352.298615 
L 200.078714 352.402851 
L 200.197277 352.65041 
L 200.218657 352.598292 
L 200.298363 352.702527 
L 200.44225 353.09341 
L 200.45975 353.041293 
L 200.473363 353.015234 
L 200.535595 353.132499 
L 200.556993 353.132499 
L 200.710662 353.419146 
L 200.741792 353.523381 
L 200.868266 353.640646 
L 200.870211 353.627617 
L 200.920806 353.78397 
L 200.953891 353.78397 
L 201.086248 354.083647 
L 201.152438 354.187882 
L 201.166067 354.213941 
L 201.240051 354.148794 
L 201.259523 354.161823 
L 201.30431 354.253029 
L 201.329627 354.318177 
L 201.40558 354.148794 
L 201.61401 353.497323 
L 201.641286 353.601558 
L 201.838105 355.569002 
L 201.859542 355.099942 
L 201.902423 347.985874 
L 201.990144 279.815906 
L 202.179269 55.188563 
L 202.241676 91.25402 
L 202.58111 329.549233 
L 202.852401 342.487456 
L 203.002737 343.451633 
L 203.008596 343.438604 
L 203.104281 342.930456 
L 203.137484 343.178015 
L 203.194125 344.298546 
L 203.528215 351.751379 
L 203.735403 352.389821 
L 203.762773 352.494057 
L 203.917236 353.09341 
L 203.983727 353.028263 
L 204.036532 353.041293 
L 204.073695 353.145528 
L 204.151941 353.210675 
L 204.101082 353.132499 
L 204.193021 353.197646 
L 204.212587 353.132499 
L 204.261498 353.275822 
L 204.296719 353.249763 
L 204.51003 354.122735 
L 204.531561 354.070617 
L 204.649015 354.174853 
L 204.715583 354.344235 
L 204.776286 354.279088 
L 204.850699 354.174853 
L 205.034815 353.692764 
L 205.079873 353.588529 
L 205.095548 353.575499 
L 205.160205 353.78397 
L 205.285614 355.347501 
L 205.309134 356.181385 
L 205.36009 354.135765 
L 205.414971 336.91086 
L 205.520831 216.310473 
L 205.669844 51.84 
L 205.71691 74.367881 
L 206.115138 333.002032 
L 206.403669 342.669868 
L 206.40563 342.630779 
L 206.45275 342.526544 
L 206.547 342.005367 
L 206.582348 342.370191 
L 207.181586 352.324674 
L 207.191416 352.311645 
L 207.218937 352.259527 
L 207.317231 352.41588 
L 207.325095 352.376792 
L 207.386049 352.63738 
L 207.397847 352.624351 
L 207.443072 352.715557 
L 207.586641 353.145528 
L 207.696797 353.249763 
L 207.854196 353.54944 
L 207.875844 353.653676 
L 207.897489 353.640646 
L 208.082496 354.279088 
L 208.30694 354.174853 
L 208.358141 354.044559 
L 208.419191 354.161823 
L 208.427069 354.174853 
L 208.501914 353.966382 
L 208.679217 353.458234 
L 208.685126 353.471264 
L 208.811242 355.673237 
L 208.844742 354.148794 
L 208.899927 338.98254 
L 209.004398 227.294281 
L 209.156207 59.866128 
L 209.20945 84.908689 
L 209.594095 330.891265 
L 209.805253 340.832718 
L 209.935537 342.318073 
L 210.000689 342.005367 
L 210.040176 341.94022 
L 210.093493 342.331103 
L 210.682215 351.868644 
L 210.684194 351.855615 
L 210.945143 352.845851 
L 211.073683 352.741616 
L 211.14686 352.598292 
L 211.182466 352.741616 
L 211.423834 353.888205 
L 211.45945 353.836088 
L 211.532674 353.731852 
L 211.588093 353.614587 
L 211.653413 353.666705 
L 211.70686 353.770941 
L 211.786054 353.927294 
L 211.827633 353.849117 
L 212.0019 353.432175 
L 212.025667 353.406117 
L 212.184138 353.901235 
L 212.20593 354.00547 
L 212.303015 355.295384 
L 212.328775 354.226971 
L 212.390207 337.809891 
L 212.493269 229.848049 
L 212.645907 67.019284 
L 212.697457 89.89896 
L 213.090154 331.516677 
L 213.328267 341.536307 
L 213.421552 342.148691 
L 213.459267 342.057485 
L 213.47515 342.096573 
L 213.548602 341.92719 
L 213.552573 341.953249 
L 213.560514 341.94022 
L 213.606177 342.318073 
L 213.659789 343.399516 
L 214.082879 351.608055 
L 214.130568 351.829556 
L 214.208071 351.712291 
L 214.210056 351.699261 
L 214.271669 351.998938 
L 214.454551 352.937057 
L 214.464491 352.950087 
L 214.514195 352.741616 
L 214.538056 352.754645 
L 214.661346 352.65041 
L 214.701124 352.572233 
L 214.754826 352.767675 
L 214.933864 353.210675 
L 214.95575 353.301881 
L 215.097032 353.757911 
L 215.09902 353.744882 
L 215.302043 353.640646 
L 215.449372 353.406117 
L 215.50911 353.301881 
L 215.626612 353.171587 
L 215.636572 353.197646 
L 215.742141 354.617853 
L 215.789954 355.790502 
L 215.82183 354.292118 
L 215.885586 334.604652 
L 216.00515 203.085603 
L 216.134697 82.15948 
L 216.184532 101.104268 
L 216.611265 333.575327 
L 216.896575 341.94022 
L 216.902561 341.92719 
L 217.002352 341.210572 
L 217.044269 341.510249 
L 217.193988 344.8979 
L 217.519504 351.021731 
L 217.539478 351.008702 
L 217.815203 352.077115 
L 217.907135 352.168321 
L 218.035066 352.663439 
L 218.051059 352.598292 
L 218.231004 352.702527 
L 218.437007 353.445205 
L 218.451008 353.406117 
L 218.57104 353.510352 
L 218.731118 353.966382 
L 218.745126 353.927294 
L 218.927268 353.471264 
L 219.063404 353.367028 
L 219.071416 353.340969 
L 219.15151 353.484293 
L 219.153512 353.484293 
L 219.277679 355.555972 
L 219.307724 354.253029 
L 219.371822 337.37992 
L 219.480002 227.502752 
L 219.624271 91.280079 
L 219.67437 111.149957 
L 220.089348 333.562297 
L 220.402259 341.992337 
L 220.414299 341.901131 
L 220.476498 341.70569 
L 220.524655 341.888102 
L 220.629013 343.256192 
L 220.978323 351.008702 
L 221.118902 351.595026 
L 221.138987 351.568967 
L 221.201256 351.72532 
L 221.205274 351.72532 
L 221.347912 352.481027 
L 221.372021 352.467998 
L 221.388095 352.428909 
L 221.462444 352.559204 
L 221.470482 352.546174 
L 221.54082 352.441939 
L 221.554889 352.41588 
L 221.619207 352.559204 
L 221.635287 352.546174 
L 221.87855 353.458234 
L 221.884583 353.445205 
L 221.918769 353.54944 
L 222.065582 353.836088 
L 222.071615 353.823058 
L 222.180241 353.718823 
L 222.254677 353.653676 
L 222.296929 353.679735 
L 222.461942 353.575499 
L 222.610888 353.288852 
L 222.614916 353.301881 
L 222.637059 353.406117 
L 222.723628 354.669971 
L 222.76591 355.451737 
L 222.798128 353.979411 
L 222.864579 336.037889 
L 222.993474 204.154016 
L 223.114337 109.195543 
L 223.164704 126.550742 
L 223.593975 335.09977 
L 223.878293 342.669868 
L 223.924683 342.278985 
L 223.989229 341.614484 
L 224.051767 342.044455 
L 224.673417 351.933791 
L 224.814779 352.376792 
L 224.816798 352.363762 
L 224.893554 352.272556 
L 224.913753 352.389821 
L 224.935973 352.311645 
L 225.13599 352.41588 
L 225.356281 353.132499 
L 225.364367 353.119469 
L 225.43512 353.32794 
L 225.598888 353.692764 
L 225.60091 353.679735 
L 225.679775 353.78397 
L 225.793035 353.927294 
L 225.809216 353.901235 
L 225.835514 353.796999 
L 226.019614 353.210675 
L 225.857765 353.836088 
L 226.033776 353.236734 
L 226.098526 353.340969 
L 226.215907 354.774207 
L 226.242219 355.099942 
L 226.288773 353.575499 
L 226.341404 342.357161 
L 226.444653 261.600765 
L 226.608668 127.540978 
L 226.657271 144.36197 
L 227.062449 334.708887 
L 227.342164 343.07378 
L 227.386766 342.956515 
L 227.411096 342.85228 
L 227.453676 342.669868 
L 227.526679 342.813191 
L 227.717328 346.669902 
L 227.948614 351.334438 
L 228.10285 352.090144 
L 228.112998 352.038027 
L 228.307871 352.142262 
L 228.468281 352.676469 
L 228.492651 352.624351 
L 228.519053 352.546174 
L 228.547484 352.65041 
L 228.600292 352.65041 
L 228.815626 353.419146 
L 228.64701 352.611321 
L 228.827819 353.393087 
L 228.842042 353.353999 
L 228.91316 353.471264 
L 228.927385 353.471264 
L 229.059484 353.875176 
L 229.092007 353.810029 
L 229.2709 353.914264 
L 229.34003 354.122735 
L 229.388834 353.966382 
L 229.565772 353.54944 
L 229.612557 353.653676 
L 229.706134 354.956619 
L 229.754964 355.569002 
L 229.779378 354.409383 
L 229.850596 334.891299 
L 229.980844 215.567795 
L 230.092791 144.049264 
L 230.141648 158.420723 
L 230.575405 336.611184 
L 230.809708 342.969545 
L 230.970713 343.660104 
L 230.972752 343.647075 
L 231.017595 343.725251 
L 231.539626 352.155291 
L 231.562064 352.051056 
L 231.617149 352.155291 
L 231.670194 352.129233 
L 231.772221 352.428909 
L 231.792627 352.533145 
L 231.968153 353.249763 
L 232.002855 353.158557 
L 232.137595 353.262793 
L 232.292788 353.54944 
L 232.302996 353.536411 
L 232.354057 353.679735 
L 232.382652 353.679735 
L 232.531769 353.953353 
L 232.535853 353.940323 
L 232.601233 354.031529 
L 232.703397 354.122735 
L 232.7177 354.109706 
L 232.877111 354.00547 
L 233.085628 353.367028 
L 233.087674 353.380058 
L 233.110162 353.484293 
L 233.224674 354.774207 
L 233.261485 354.122735 
L 233.322841 343.699193 
L 233.433298 265.848359 
L 233.584691 162.36864 
L 233.6338 175.841069 
L 234.045215 337.184478 
L 234.284808 343.75131 
L 234.409759 344.090075 
L 234.411808 344.064017 
L 234.448683 344.168252 
L 234.610545 345.888136 
L 234.950789 351.790467 
L 234.952838 351.777438 
L 235.129177 352.220439 
L 235.131226 352.207409 
L 235.161987 352.311645 
L 235.346583 352.780704 
L 235.543542 352.884939 
L 235.74466 353.458234 
L 235.767239 353.56247 
L 235.966368 354.383324 
L 235.997166 354.318177 
L 236.046449 354.213941 
L 236.103947 354.161823 
L 236.155289 354.226971 
L 236.181986 354.24 
L 236.23539 354.057588 
L 236.239498 354.057588 
L 236.395618 353.953353 
L 236.469582 353.849117 
L 236.518898 353.875176 
L 236.705914 355.438707 
L 236.749077 354.748148 
L 236.81897 342.200808 
L 236.934101 264.297857 
L 237.073926 181.170105 
L 237.121227 192.075736 
L 237.559427 340.090041 
L 237.785835 345.288783 
L 237.888773 344.884871 
L 237.919658 344.989106 
L 237.934071 344.8979 
L 237.960838 344.767606 
L 238.010262 345.340901 
L 238.364547 351.230202 
L 238.562364 352.884939 
L 238.626257 353.054322 
L 238.688091 352.976145 
L 238.76024 353.067351 
L 238.836518 353.288852 
L 238.886001 353.262793 
L 238.9458 353.367028 
L 238.960233 353.419146 
L 239.026222 353.171587 
L 239.112845 353.275822 
L 239.405788 354.435441 
L 239.513095 354.357265 
L 239.525476 354.383324 
L 239.665828 354.591795 
L 239.66789 354.578765 
L 239.769043 354.591795 
L 239.882601 354.109706 
L 240.097375 354.213941 
L 240.204785 354.91753 
L 240.225446 354.396353 
L 240.291555 347.816492 
L 240.398996 293.236217 
L 240.566393 199.033451 
L 240.620131 211.294143 
L 241.029518 339.803394 
L 241.358442 345.80996 
L 241.374998 345.731783 
L 241.426728 345.640577 
L 241.466051 345.562401 
L 241.515718 345.888136 
L 241.782755 350.643878 
L 241.981545 352.298615 
L 242.002256 352.402851 
L 242.09132 352.559204 
L 242.122392 352.520115 
L 242.163821 352.611321 
L 242.356505 353.640646 
L 242.470481 353.849117 
L 242.489132 353.770941 
L 242.59277 353.575499 
L 242.621787 353.640646 
L 242.673614 353.744882 
L 242.781423 353.927294 
L 242.806302 353.875176 
L 242.841553 353.979411 
L 242.870583 353.927294 
L 242.992939 354.226971 
L 243.322788 354.122735 
L 243.451448 353.744882 
L 243.486729 353.78397 
L 243.690157 355.282354 
L 243.721297 354.643912 
L 243.789814 346.761108 
L 243.899869 293.444688 
L 244.059793 216.049884 
L 244.109648 225.756808 
L 244.51484 340.676365 
L 244.755986 346.383255 
L 244.772622 346.474461 
L 244.862034 346.839285 
L 244.911946 346.826255 
L 244.978498 346.787167 
L 245.005536 346.94352 
L 245.020096 347.047756 
L 245.151151 348.54614 
L 245.438299 352.989175 
L 245.517392 353.314911 
L 245.594409 353.262793 
L 245.760962 353.367028 
L 245.879655 353.627617 
L 245.898397 353.536411 
L 246.015032 353.471264 
L 246.054608 353.575499 
L 246.223354 354.0185 
L 246.233773 354.00547 
L 246.437991 354.109706 
L 246.565135 354.305147 
L 246.577643 354.292118 
L 246.696474 354.213941 
L 246.698559 354.226971 
L 246.800727 354.122735 
L 246.938367 353.888205 
L 246.944621 353.914264 
L 247.18034 354.943589 
L 247.199115 354.839354 
L 247.255452 351.751379 
L 247.341004 327.503613 
L 247.551804 232.284552 
L 247.622781 249.561574 
L 247.940172 339.8946 
L 248.142789 345.640577 
L 248.314123 347.17805 
L 248.378904 346.878373 
L 248.441602 347.060785 
L 249.073071 353.56247 
L 249.209057 353.666705 
L 249.288569 353.757911 
L 249.324145 353.705793 
L 249.395296 353.614587 
L 249.349255 353.744882 
L 249.432968 353.705793 
L 249.502037 353.640646 
L 249.554367 353.770941 
L 249.749069 353.875176 
L 249.920788 354.292118 
L 249.922881 354.279088 
L 250.069503 353.849117 
L 250.09464 353.888205 
L 250.268535 354.279088 
L 250.381694 354.174853 
L 250.463432 353.927294 
L 250.526314 353.966382 
L 250.553564 354.070617 
L 250.668866 354.669971 
L 250.702409 354.305147 
L 250.756925 350.213907 
L 250.853384 319.933515 
L 251.037952 246.330275 
L 251.09459 255.502993 
L 251.486983 343.060751 
L 251.757796 348.09011 
L 251.770394 348.129198 
L 251.925795 347.725286 
L 252.112737 349.562435 
L 252.400598 352.858881 
L 252.461549 352.963116 
L 252.589767 353.497323 
L 252.650734 353.445205 
L 252.709602 353.54944 
L 252.772678 353.601558 
L 252.810528 353.497323 
L 252.81263 353.497323 
L 252.82104 353.471264 
L 252.905159 353.588529 
L 252.909364 353.588529 
L 253.043974 353.744882 
L 253.046079 353.731852 
L 253.100772 353.914264 
L 253.128119 353.914264 
L 253.239624 353.823058 
L 253.330104 353.757911 
L 253.349043 353.823058 
L 253.53004 354.253029 
L 253.788987 354.148794 
L 253.892169 354.057588 
L 253.90902 354.096676 
L 254.08173 354.200912 
L 254.155459 354.617853 
L 254.18917 354.200912 
L 254.250268 350.018465 
L 254.355626 320.650134 
L 254.530553 263.385797 
L 254.585356 270.473806 
L 255.023944 345.458165 
L 255.218017 348.051022 
L 255.39737 348.897934 
L 255.713987 351.542908 
L 255.920917 353.340969 
L 255.973715 353.288852 
L 256.030741 353.353999 
L 256.119456 353.458234 
L 256.26945 353.692764 
L 256.337066 353.640646 
L 256.379328 353.705793 
L 256.41314 353.810029 
L 256.55474 353.992441 
L 256.620267 354.096676 
L 256.668887 354.122735 
L 256.702711 354.070617 
L 256.730195 354.083647 
L 256.835912 353.927294 
L 256.857058 353.979411 
L 256.873975 353.953353 
L 257.019894 354.292118 
L 257.112962 354.187882 
L 257.136231 354.096676 
L 257.201808 354.226971 
L 257.222964 354.161823 
L 257.335098 354.630883 
L 257.534023 354.735118 
L 257.601757 354.982677 
L 257.646208 354.761177 
L 257.720299 352.559204 
L 257.804987 338.135627 
L 258.023099 274.747458 
L 258.09723 285.991855 
L 258.440447 344.728517 
L 258.713865 349.158523 
L 258.728703 349.132464 
L 258.798667 349.2367 
L 258.82835 349.419112 
L 258.874994 349.210641 
L 258.928007 349.340935 
L 258.985264 349.44517 
L 259.343748 352.494057 
L 259.3586 352.585263 
L 259.534728 353.406117 
L 259.545341 353.380058 
L 259.566564 353.458234 
L 259.640849 353.445205 
L 259.679057 353.419146 
L 259.827661 353.901235 
L 259.925332 353.796999 
L 260.008152 353.614587 
L 260.061244 353.653676 
L 260.110092 353.757911 
L 260.292775 354.187882 
L 260.583884 354.292118 
L 260.734795 354.539677 
L 260.892117 354.435441 
L 260.964411 354.409383 
L 260.921885 354.448471 
L 261.000563 354.448471 
L 261.085625 354.539677 
L 261.121784 354.787236 
L 261.177082 354.305147 
L 261.232388 351.321408 
L 261.345135 326.982436 
L 261.515354 286.708473 
L 261.564302 291.242714 
L 262.002826 347.581962 
L 263.038433 353.836088 
L 263.104539 353.653676 
L 263.181316 353.640646 
L 263.198381 353.679735 
L 263.215442 353.653676 
L 263.356225 353.836088 
L 263.721107 353.940323 
L 263.883334 354.266059 
L 263.95165 354.292118 
L 263.996487 354.253029 
L 264.049864 354.292118 
L 264.10752 354.266059 
L 264.128873 354.253029 
L 264.197213 354.383324 
L 264.199349 354.383324 
L 264.455678 354.487559 
L 264.620202 354.813295 
L 264.688585 353.718823 
L 264.752703 348.54614 
L 264.885227 317.431865 
L 265.007084 297.431693 
L 265.05412 300.649962 
L 265.503268 348.051022 
L 265.691562 349.953318 
L 265.693702 349.940289 
L 265.755764 350.213907 
L 265.764325 350.187848 
L 265.830675 350.292083 
L 266.500911 353.888205 
L 265.86064 350.279054 
L 266.524478 353.836088 
L 267.004521 353.940323 
L 267.154595 354.174853 
L 267.218923 354.279088 
L 267.2661 354.370294 
L 267.336873 354.318177 
L 267.873236 354.422412 
L 267.914015 354.448471 
L 267.959089 354.396353 
L 267.984845 354.422412 
L 268.049244 354.526647 
L 268.115796 354.735118 
L 268.148 354.448471 
L 268.240328 349.666671 
L 268.399241 318.669661 
L 268.50019 307.490411 
L 268.549596 310.513239 
L 268.97505 348.741581 
L 269.106171 350.200877 
L 269.243767 350.709025 
L 269.316874 350.81326 
L 269.863258 353.445205 
L 269.897688 353.54944 
L 270.063411 353.888205 
L 270.168886 353.770941 
L 270.188261 353.810029 
L 270.403575 353.914264 
L 270.457414 354.00547 
L 270.528485 353.992441 
L 270.66203 354.096676 
L 270.789137 354.187882 
L 270.97014 354.292118 
L 271.146874 354.683001 
L 271.271905 354.578765 
L 271.429301 354.305147 
L 271.511247 354.409383 
L 271.61477 354.709059 
L 271.647122 354.552706 
L 271.705364 352.507086 
L 271.819702 337.640508 
L 271.994474 315.03445 
L 272.044108 317.77063 
L 272.44562 349.471229 
L 272.644294 351.073849 
L 272.735011 351.334438 
L 272.793337 351.295349 
L 272.903513 351.191114 
L 272.918639 351.178084 
L 272.981297 351.373526 
L 272.98346 351.373526 
L 273.22334 352.924028 
L 273.461136 353.705793 
L 273.463298 353.692764 
L 273.590874 353.796999 
L 273.629798 353.862147 
L 273.696841 353.770941 
L 273.699004 353.770941 
L 273.9932 353.875176 
L 274.053785 353.836088 
L 274.12952 354.0185 
L 274.190116 354.122735 
L 274.252881 354.187882 
L 274.203099 354.109706 
L 274.296167 354.096676 
L 274.358939 354.031529 
L 274.406564 354.109706 
L 274.486665 354.213941 
L 274.638232 354.448471 
L 274.928457 354.344235 
L 274.995614 354.305147 
L 275.019445 354.383324 
L 275.030276 354.383324 
L 275.090945 354.487559 
L 275.123444 354.279088 
L 275.207955 351.946821 
L 275.364001 332.702355 
L 275.48322 322.78696 
L 275.528746 324.506845 
L 275.968972 350.213907 
L 276.175075 351.360496 
L 276.366041 351.881673 
L 276.37038 351.868644 
L 276.446346 351.972879 
L 276.82846 353.601558 
L 276.882751 353.705793 
L 276.921846 353.679735 
L 277.006554 353.78397 
L 277.273774 353.888205 
L 277.408505 354.148794 
L 277.423718 354.122735 
L 277.504137 354.226971 
L 277.610647 354.318177 
L 277.625863 354.292118 
L 277.714997 354.187882 
L 277.843282 354.070617 
L 277.97594 354.266059 
L 277.984638 354.253029 
L 278.215212 354.148794 
L 278.291362 353.992441 
L 278.339228 354.057588 
L 278.487203 354.279088 
L 278.552496 354.383324 
L 278.58297 354.47453 
L 278.6265 354.174853 
L 278.702691 351.933791 
L 278.833316 339.008598 
L 278.972673 328.03782 
L 279.020587 329.379851 
L 279.155621 341.080277 
L 279.358222 349.940289 
L 279.558694 351.542908 
L 279.71998 352.155291 
L 279.985959 352.259527 
L 280.411282 354.135765 
L 280.5051 354.031529 
L 280.612025 353.914264 
L 280.631668 353.927294 
L 280.795361 354.24 
L 281.042059 354.135765 
L 281.103197 354.096676 
L 281.146871 354.161823 
L 281.149058 354.148794 
L 281.245148 354.226971 
L 281.264808 354.187882 
L 281.378389 354.00547 
L 281.400235 354.044559 
L 281.463589 354.148794 
L 281.596866 354.279088 
L 281.697383 354.174853 
L 281.824145 354.057588 
L 281.826331 354.070617 
L 281.939996 354.174853 
L 282.038373 354.409383 
L 282.079912 354.344235 
L 282.178306 353.09341 
L 282.254845 348.650375 
L 282.467004 332.975973 
L 282.521694 334.656769 
L 282.946214 351.555938 
L 283.119151 352.298615 
L 283.259282 352.481027 
L 283.303077 352.467998 
L 283.351255 352.546174 
L 283.360013 352.546174 
L 283.445431 352.65041 
L 283.607524 352.950087 
L 283.642578 353.054322 
L 283.890176 353.875176 
L 283.953731 353.940323 
L 284.001949 353.875176 
L 284.076472 353.979411 
L 284.221159 354.174853 
L 284.677314 354.070617 
L 284.705832 353.966382 
L 284.782618 354.096676 
L 284.931822 354.318177 
L 285.03716 354.213941 
L 285.151294 354.109706 
L 285.164465 354.122735 
L 285.182025 354.148794 
L 285.269833 354.096676 
L 285.272029 354.096676 
L 285.340087 354.200912 
L 285.463046 354.266059 
L 285.513554 354.370294 
L 285.575047 354.383324 
L 285.599202 354.24 
L 285.601399 354.24 
L 285.715616 351.595026 
L 285.952882 337.497185 
L 286.051765 340.767571 
L 286.337493 351.191114 
L 286.552961 352.428909 
L 286.731094 352.819792 
L 286.85647 352.924028 
L 287.003869 353.132499 
L 287.043473 353.236734 
L 287.217314 353.601558 
L 287.252528 353.705793 
L 287.406603 353.953353 
L 287.463841 354.057588 
L 287.510073 354.031529 
L 287.587134 354.122735 
L 288.338305 354.226971 
L 288.395609 354.200912 
L 288.452917 354.24 
L 289.101224 354.148794 
L 289.220359 351.490791 
L 289.456473 341.054219 
L 289.522687 342.448367 
L 289.913455 352.376792 
L 290.132106 353.002204 
L 290.205002 353.10644 
L 290.220467 353.145528 
L 290.311044 353.067351 
L 290.463508 353.171587 
L 290.675678 353.770941 
L 290.832632 353.875176 
L 290.971925 354.044559 
L 291.06038 354.148794 
L 291.062589 354.161823 
L 291.133363 354.0185 
L 291.148844 354.0185 
L 291.217408 354.122735 
L 291.347923 354.24 
L 292.565594 354.135765 
L 292.66752 352.897969 
L 292.782755 348.950052 
L 292.944557 343.855546 
L 292.991111 344.285517 
L 293.110825 348.337669 
L 293.330354 352.168321 
L 293.521103 352.976145 
L 293.576562 352.963116 
L 293.778467 353.067351 
L 293.907177 353.406117 
L 293.944906 353.393087 
L 294.029252 353.497323 
L 294.177984 353.718823 
L 294.23571 353.823058 
L 294.382259 354.031529 
L 294.451103 354.135765 
L 294.553268 354.200912 
L 294.571039 354.187882 
L 295.248785 354.292118 
L 295.37106 354.357265 
L 295.626794 354.253029 
L 295.709088 354.24 
L 295.651258 354.266059 
L 295.738004 354.253029 
L 296.093987 354.148794 
L 296.24978 351.06082 
L 296.445678 346.331137 
L 296.485753 346.656873 
L 296.597084 349.262758 
L 296.855429 352.728586 
L 296.886616 352.832822 
L 297.062614 353.210675 
L 297.113858 353.314911 
L 297.209678 353.432175 
L 297.240878 353.406117 
L 297.448159 353.510352 
L 297.628737 353.914264 
L 297.85842 354.0185 
L 297.994476 354.161823 
L 298.418406 354.266059 
L 298.507684 354.396353 
L 298.550093 354.383324 
L 298.692963 354.279088 
L 298.809064 354.253029 
L 298.907315 354.357265 
L 299.032379 354.448471 
L 299.150765 354.409383 
L 299.228951 354.305147 
L 299.307143 354.266059 
L 299.342893 354.292118 
L 299.584237 354.187882 
L 299.684818 352.950087 
L 299.937441 348.07708 
L 299.986633 348.441904 
L 300.521238 353.380058 
L 300.686834 353.484293 
L 300.756214 353.575499 
L 300.809933 353.54944 
L 300.971112 353.653676 
L 301.109931 353.810029 
L 301.201739 353.914264 
L 301.362996 354.200912 
L 302.371561 354.305147 
L 302.481456 354.383324 
L 302.494915 354.370294 
L 302.676617 354.266059 
L 302.73046 354.253029 
L 302.741679 354.279088 
L 302.786552 354.279088 
L 303.07605 354.174853 
L 303.210737 352.767675 
L 303.435261 349.197611 
L 303.466698 349.353964 
L 303.938415 353.536411 
L 304.068749 353.640646 
L 304.172129 353.705793 
L 304.190111 353.692764 
L 304.378931 353.796999 
L 304.502586 353.862147 
L 304.716219 353.966382 
L 304.85567 354.122735 
L 305.442979 354.226971 
L 305.564545 354.279088 
L 306.576023 354.174853 
L 306.742847 352.585263 
L 306.911954 350.656907 
L 306.957059 350.774172 
L 307.110424 352.311645 
L 307.322473 353.484293 
L 307.367597 353.588529 
L 307.487188 353.679735 
L 307.491701 353.666705 
L 307.70385 353.770941 
L 307.807688 353.901235 
L 307.834777 353.888205 
L 308.042497 353.992441 
L 308.171221 354.096676 
L 308.41517 354.200912 
L 308.550727 354.344235 
L 308.810608 354.24 
L 308.887458 354.226971 
L 308.919107 354.253029 
L 310.045592 354.148794 
L 310.285563 352.142262 
L 310.405576 351.360496 
L 310.437278 351.425644 
L 310.96963 353.849117 
L 311.273337 353.953353 
L 311.39576 354.0185 
L 311.740447 354.122735 
L 311.862933 354.187882 
L 312.63457 354.292118 
L 312.745834 354.292118 
L 313.563744 354.187882 
L 313.900228 352.090144 
L 313.986643 352.402851 
L 314.327845 353.744882 
L 314.330121 353.731852 
L 314.455263 353.836088 
L 314.587251 353.966382 
L 314.67829 353.940323 
L 314.698776 353.966382 
L 315.104025 354.070617 
L 315.192844 354.135765 
L 315.220174 354.096676 
L 315.384172 354.200912 
L 315.516304 354.318177 
L 315.737336 354.213941 
L 315.753286 354.200912 
L 315.796589 354.24 
L 315.844452 354.24 
L 317.041894 354.135765 
L 317.427718 352.572233 
L 317.477958 352.676469 
L 317.774878 353.796999 
L 317.784019 353.78397 
L 317.957653 353.888205 
L 318.083333 353.966382 
L 318.18389 354.070617 
L 318.186177 354.083647 
L 318.273031 354.00547 
L 318.284461 354.00547 
L 318.547369 354.109706 
L 318.666273 354.148794 
L 319.011656 354.253029 
L 319.050547 354.266059 
L 319.107747 354.226971 
L 319.119188 354.226971 
L 320.577918 354.122735 
L 320.878217 353.054322 
L 321.015793 353.158557 
L 321.265781 353.940323 
L 321.747612 354.044559 
L 321.848604 354.083647 
L 321.864671 354.070617 
L 322.335357 354.174853 
L 322.459387 354.24 
L 324.034269 354.135765 
L 324.264421 353.471264 
L 324.296649 353.367028 
L 324.409449 353.288852 
L 324.418656 353.301881 
L 324.595946 353.666705 
L 324.646608 353.770941 
L 324.78479 353.927294 
L 325.121124 354.031529 
L 325.192553 354.057588 
L 325.231728 354.031529 
L 325.927938 354.135765 
L 326.052484 354.213941 
L 327.583106 354.109706 
L 327.779533 353.627617 
L 327.994501 353.731852 
L 328.149403 353.979411 
L 328.454664 354.083647 
L 328.577261 354.148794 
L 330.508699 354.253029 
L 330.555068 354.266059 
L 330.601438 354.226971 
L 330.615352 354.226971 
L 330.745211 354.122735 
L 331.16274 354.0185 
L 331.315885 353.78397 
L 331.404071 353.679735 
L 331.420319 353.666705 
L 331.501551 353.731852 
L 331.506195 353.731852 
L 331.566543 353.836088 
L 331.715117 354.044559 
L 332.29107 354.148794 
L 332.293393 354.161823 
L 332.393294 354.109706 
L 332.395618 354.109706 
L 332.716309 354.213941 
L 332.832532 354.24 
L 334.549755 354.135765 
L 334.682526 354.0185 
L 334.754743 353.914264 
L 334.887544 353.796999 
L 335.057653 353.901235 
L 335.199822 354.070617 
L 335.768731 354.174853 
L 335.780392 354.187882 
L 335.873691 354.148794 
L 335.876025 354.148794 
L 336.975374 354.253029 
L 336.989389 354.266059 
L 337.071137 354.226971 
L 337.082815 354.226971 
L 338.143906 354.122735 
L 338.2702 354.044559 
L 338.784914 354.148794 
L 338.906617 354.200912 
L 341.696295 354.096676 
L 341.82309 354.0185 
L 342.17305 354.122735 
L 342.295215 354.174853 
L 345.248677 354.070617 
L 345.345327 354.0185 
L 345.366543 354.031529 
L 345.515081 354.135765 
L 345.628267 354.148794 
L 351.227381 354.253029 
L 351.331789 354.279088 
L 351.34128 354.266059 
L 352.131854 354.161823 
L 352.257745 354.083647 
L 352.69493 354.187882 
L 352.792374 354.200912 
L 352.806636 354.187882 
L 388.799488 354.200912 
L 388.799488 354.200912 
" clip-path="url(#pa8dbb20809)" style="fill: none; stroke: #8286ff; stroke-linecap: square"/>
   </g>
   <g id="patch_3">
    <path d="M 54 384.48 
L 54 51.84 
" style="fill: none; stroke: #000000; stroke-width: 0.5; stroke-linejoin: miter; stroke-linecap: square"/>
   </g>
   <g id="patch_4">
    <path d="M 54 384.48 
L 388.8 384.48 
" style="fill: none; stroke: #000000; stroke-width: 0.5; stroke-linejoin: miter; stroke-linecap: square"/>
   </g>
   <g id="text_14">
    <!-- PS-F1-10K_MALDI -->
    <g transform="translate(152.93375 31.84) scale(0.16 -0.16)">
     <defs>
      <path id="Helvetica-50" d="M 547 4591 
L 2613 4591 
Q 3225 4591 3600 4245 
Q 3975 3900 3975 3275 
Q 3975 2738 3640 2339 
Q 3306 1941 2613 1941 
L 1169 1941 
L 1169 0 
L 547 0 
L 547 4591 
z
M 3347 3272 
Q 3347 3778 2972 3959 
Q 2766 4056 2406 4056 
L 1169 4056 
L 1169 2466 
L 2406 2466 
Q 2825 2466 3086 2644 
Q 3347 2822 3347 3272 
z
" transform="scale(0.015625)"/>
      <path id="Helvetica-53" d="M 894 1481 
Q 916 1091 1078 847 
Q 1388 391 2169 391 
Q 2519 391 2806 491 
Q 3363 684 3363 1184 
Q 3363 1559 3128 1719 
Q 2891 1875 2384 1991 
L 1763 2131 
Q 1153 2269 900 2434 
Q 463 2722 463 3294 
Q 463 3913 891 4309 
Q 1319 4706 2103 4706 
Q 2825 4706 3329 4357 
Q 3834 4009 3834 3244 
L 3250 3244 
Q 3203 3613 3050 3809 
Q 2766 4169 2084 4169 
Q 1534 4169 1293 3937 
Q 1053 3706 1053 3400 
Q 1053 3063 1334 2906 
Q 1519 2806 2169 2656 
L 2813 2509 
Q 3278 2403 3531 2219 
Q 3969 1897 3969 1284 
Q 3969 522 3414 194 
Q 2859 -134 2125 -134 
Q 1269 -134 784 303 
Q 300 738 309 1481 
L 894 1481 
z
M 2150 4716 
L 2150 4716 
z
" transform="scale(0.015625)"/>
      <path id="Helvetica-2d" d="M 266 2072 
L 1834 2072 
L 1834 1494 
L 266 1494 
L 266 2072 
z
" transform="scale(0.015625)"/>
      <path id="Helvetica-46" d="M 547 4591 
L 3731 4591 
L 3731 4028 
L 1169 4028 
L 1169 2634 
L 3422 2634 
L 3422 2088 
L 1169 2088 
L 1169 0 
L 547 0 
L 547 4591 
z
" transform="scale(0.015625)"/>
      <path id="Helvetica-4b" d="M 488 4591 
L 1094 4591 
L 1094 2353 
L 3331 4591 
L 4191 4591 
L 2281 2741 
L 4244 0 
L 3434 0 
L 1828 2303 
L 1094 1600 
L 1094 0 
L 488 0 
L 488 4591 
z
" transform="scale(0.015625)"/>
      <path id="Helvetica-5f" d="M 0 -800 
L 0 -484 
L 3559 -484 
L 3559 -800 
L 0 -800 
z
" transform="scale(0.015625)"/>
      <path id="Helvetica-4d" d="M 472 4591 
L 1363 4591 
L 2681 709 
L 3991 4591 
L 4872 4591 
L 4872 0 
L 4281 0 
L 4281 2709 
Q 4281 2850 4287 3175 
Q 4294 3500 4294 3872 
L 2984 0 
L 2369 0 
L 1050 3872 
L 1050 3731 
Q 1050 3563 1058 3217 
Q 1066 2872 1066 2709 
L 1066 0 
L 472 0 
L 472 4591 
z
" transform="scale(0.015625)"/>
      <path id="Helvetica-41" d="M 2844 1881 
L 2147 3909 
L 1406 1881 
L 2844 1881 
z
M 1822 4591 
L 2525 4591 
L 4191 0 
L 3509 0 
L 3044 1375 
L 1228 1375 
L 731 0 
L 94 0 
L 1822 4591 
z
" transform="scale(0.015625)"/>
      <path id="Helvetica-4c" d="M 488 4591 
L 1109 4591 
L 1109 547 
L 3434 547 
L 3434 0 
L 488 0 
L 488 4591 
z
" transform="scale(0.015625)"/>
      <path id="Helvetica-44" d="M 2250 531 
Q 2566 531 2769 597 
Q 3131 719 3363 1066 
Q 3547 1344 3628 1778 
Q 3675 2038 3675 2259 
Q 3675 3113 3336 3584 
Q 2997 4056 2244 4056 
L 1141 4056 
L 1141 531 
L 2250 531 
z
M 516 4591 
L 2375 4591 
Q 3322 4591 3844 3919 
Q 4309 3313 4309 2366 
Q 4309 1634 4034 1044 
Q 3550 0 2369 0 
L 516 0 
L 516 4591 
z
" transform="scale(0.015625)"/>
     </defs>
     <use xlink:href="#Helvetica-50"/>
     <use xlink:href="#Helvetica-53" x="66.699219"/>
     <use xlink:href="#Helvetica-2d" x="133.398438"/>
     <use xlink:href="#Helvetica-46" x="166.699219"/>
     <use xlink:href="#Helvetica-31" x="227.783203"/>
     <use xlink:href="#Helvetica-2d" x="283.398438"/>
     <use xlink:href="#Helvetica-31" x="316.699219"/>
     <use xlink:href="#Helvetica-30" x="372.314453"/>
     <use xlink:href="#Helvetica-4b" x="427.929688"/>
     <use xlink:href="#Helvetica-5f" x="494.628906"/>
     <use xlink:href="#Helvetica-4d" x="550.244141"/>
     <use xlink:href="#Helvetica-41" x="633.544922"/>
     <use xlink:href="#Helvetica-4c" x="700.244141"/>
     <use xlink:href="#Helvetica-44" x="755.859375"/>
     <use xlink:href="#Helvetica-49" x="828.076172"/>
    </g>
   </g>
   <g id="legend_1">
    <g id="patch_5">
     <path d="M 300.339063 74.097812 
L 381.8 74.097812 
Q 383.8 74.097812 383.8 72.097812 
L 383.8 58.84 
Q 383.8 56.84 381.8 56.84 
L 300.339063 56.84 
Q 298.339063 56.84 298.339063 58.84 
L 298.339063 72.097812 
Q 298.339063 74.097812 300.339063 74.097812 
z
" style="fill: #ffffff; opacity: 0.8; stroke: #cccccc; stroke-linejoin: miter"/>
    </g>
    <g id="line2d_13">
     <path d="M 302.339063 64.513437 
L 312.339063 64.513437 
L 322.339063 64.513437 
" style="fill: none; stroke: #8286ff; stroke-linecap: square"/>
    </g>
    <g id="text_15">
     <!-- PS-F1-10K -->
     <g transform="translate(330.339063 68.013437) scale(0.1 -0.1)">
      <use xlink:href="#Helvetica-50"/>
      <use xlink:href="#Helvetica-53" x="66.699219"/>
      <use xlink:href="#Helvetica-2d" x="133.398438"/>
      <use xlink:href="#Helvetica-46" x="166.699219"/>
      <use xlink:href="#Helvetica-31" x="227.783203"/>
      <use xlink:href="#Helvetica-2d" x="283.398438"/>
      <use xlink:href="#Helvetica-31" x="316.699219"/>
      <use xlink:href="#Helvetica-30" x="372.314453"/>
      <use xlink:href="#Helvetica-4b" x="427.929688"/>
     </g>
    </g>
   </g>
  </g>
 </g>
 <defs>
  <clipPath id="pa8dbb20809">
   <rect x="54" y="51.84" width="334.8" height="332.64"/>
  </clipPath>
 </defs>
</svg>
