<?xml version="1.0" encoding="utf-8" standalone="no"?>
<!DOCTYPE svg PUBLIC "-//W3C//DTD SVG 1.1//EN"
  "http://www.w3.org/Graphics/SVG/1.1/DTD/svg11.dtd">
<svg xmlns:xlink="http://www.w3.org/1999/xlink" width="432pt" height="432pt" viewBox="0 0 432 432" xmlns="http://www.w3.org/2000/svg" version="1.1">
 <metadata>
  <rdf:RDF xmlns:dc="http://purl.org/dc/elements/1.1/" xmlns:cc="http://creativecommons.org/ns#" xmlns:rdf="http://www.w3.org/1999/02/22-rdf-syntax-ns#">
   <cc:Work>
    <dc:type rdf:resource="http://purl.org/dc/dcmitype/StillImage"/>
    <dc:date>2024-10-21T11:49:26.241961</dc:date>
    <dc:format>image/svg+xml</dc:format>
    <dc:creator>
     <cc:Agent>
      <dc:title>Matplotlib v3.7.1, https://matplotlib.org/</dc:title>
     </cc:Agent>
    </dc:creator>
   </cc:Work>
  </rdf:RDF>
 </metadata>
 <defs>
  <style type="text/css">*{stroke-linejoin: round; stroke-linecap: butt}</style>
 </defs>
 <g id="figure_1">
  <g id="patch_1">
   <path d="M 0 432 
L 432 432 
L 432 0 
L 0 0 
z
" style="fill: #ffffff"/>
  </g>
  <g id="axes_1">
   <g id="patch_2">
    <path d="M 54 384.48 
L 388.8 384.48 
L 388.8 51.84 
L 54 51.84 
z
" style="fill: #ffffff"/>
   </g>
   <g id="matplotlib.axis_1">
    <g id="xtick_1">
     <g id="line2d_1">
      <defs>
       <path id="m51a1a2fc97" d="M 0 0 
L 0 -3.5 
" style="stroke: #000000; stroke-width: 0.8"/>
      </defs>
      <g>
       <use xlink:href="#m51a1a2fc97" x="54" y="384.48" style="stroke: #000000; stroke-width: 0.8"/>
      </g>
     </g>
     <g id="text_1">
      <!-- 9500 -->
      <g transform="translate(40.65375 396.588125) scale(0.12 -0.12)">
       <defs>
        <path id="Helvetica-39" d="M 850 1081 
Q 875 616 1209 438 
Q 1381 344 1597 344 
Q 2000 344 2284 680 
Q 2569 1016 2688 2044 
Q 2500 1747 2223 1626 
Q 1947 1506 1628 1506 
Q 981 1506 604 1909 
Q 228 2313 228 2947 
Q 228 3556 600 4018 
Q 972 4481 1697 4481 
Q 2675 4481 3047 3600 
Q 3253 3116 3253 2388 
Q 3253 1566 3006 931 
Q 2597 -125 1619 -125 
Q 963 -125 622 219 
Q 281 563 281 1081 
L 850 1081 
z
M 1703 2000 
Q 2038 2000 2314 2220 
Q 2591 2441 2591 2991 
Q 2591 3484 2342 3726 
Q 2094 3969 1709 3969 
Q 1297 3969 1055 3692 
Q 813 3416 813 2953 
Q 813 2516 1025 2258 
Q 1238 2000 1703 2000 
z
" transform="scale(0.015625)"/>
        <path id="Helvetica-35" d="M 791 1141 
Q 847 659 1238 475 
Q 1438 381 1700 381 
Q 2200 381 2440 700 
Q 2681 1019 2681 1406 
Q 2681 1875 2395 2131 
Q 2109 2388 1709 2388 
Q 1419 2388 1211 2275 
Q 1003 2163 856 1963 
L 369 1991 
L 709 4400 
L 3034 4400 
L 3034 3856 
L 1131 3856 
L 941 2613 
Q 1097 2731 1238 2791 
Q 1488 2894 1816 2894 
Q 2431 2894 2859 2497 
Q 3288 2100 3288 1491 
Q 3288 856 2895 371 
Q 2503 -113 1644 -113 
Q 1097 -113 676 195 
Q 256 503 206 1141 
L 791 1141 
z
" transform="scale(0.015625)"/>
        <path id="Helvetica-30" d="M 1731 4475 
Q 2600 4475 2988 3759 
Q 3288 3206 3288 2244 
Q 3288 1331 3016 734 
Q 2622 -122 1728 -122 
Q 922 -122 528 578 
Q 200 1163 200 2147 
Q 200 2909 397 3456 
Q 766 4475 1731 4475 
z
M 1725 391 
Q 2163 391 2422 778 
Q 2681 1166 2681 2222 
Q 2681 2984 2493 3476 
Q 2306 3969 1766 3969 
Q 1269 3969 1039 3501 
Q 809 3034 809 2125 
Q 809 1441 956 1025 
Q 1181 391 1725 391 
z
" transform="scale(0.015625)"/>
       </defs>
       <use xlink:href="#Helvetica-39"/>
       <use xlink:href="#Helvetica-35" x="55.615234"/>
       <use xlink:href="#Helvetica-30" x="111.230469"/>
       <use xlink:href="#Helvetica-30" x="166.845703"/>
      </g>
     </g>
    </g>
    <g id="xtick_2">
     <g id="line2d_2">
      <g>
       <use xlink:href="#m51a1a2fc97" x="109.8" y="384.48" style="stroke: #000000; stroke-width: 0.8"/>
      </g>
     </g>
     <g id="text_2">
      <!-- 9550 -->
      <g transform="translate(96.45375 396.588125) scale(0.12 -0.12)">
       <use xlink:href="#Helvetica-39"/>
       <use xlink:href="#Helvetica-35" x="55.615234"/>
       <use xlink:href="#Helvetica-35" x="111.230469"/>
       <use xlink:href="#Helvetica-30" x="166.845703"/>
      </g>
     </g>
    </g>
    <g id="xtick_3">
     <g id="line2d_3">
      <g>
       <use xlink:href="#m51a1a2fc97" x="165.6" y="384.48" style="stroke: #000000; stroke-width: 0.8"/>
      </g>
     </g>
     <g id="text_3">
      <!-- 9600 -->
      <g transform="translate(152.25375 396.588125) scale(0.12 -0.12)">
       <defs>
        <path id="Helvetica-36" d="M 1872 4494 
Q 2622 4494 2917 4105 
Q 3213 3716 3213 3303 
L 2656 3303 
Q 2606 3569 2497 3719 
Q 2294 4000 1881 4000 
Q 1409 4000 1131 3564 
Q 853 3128 822 2316 
Q 1016 2600 1309 2741 
Q 1578 2866 1909 2866 
Q 2472 2866 2890 2506 
Q 3309 2147 3309 1434 
Q 3309 825 2912 354 
Q 2516 -116 1781 -116 
Q 1153 -116 697 361 
Q 241 838 241 1966 
Q 241 2800 444 3381 
Q 834 4494 1872 4494 
z
M 1831 384 
Q 2275 384 2495 682 
Q 2716 981 2716 1388 
Q 2716 1731 2519 2042 
Q 2322 2353 1803 2353 
Q 1441 2353 1167 2112 
Q 894 1872 894 1388 
Q 894 963 1142 673 
Q 1391 384 1831 384 
z
" transform="scale(0.015625)"/>
       </defs>
       <use xlink:href="#Helvetica-39"/>
       <use xlink:href="#Helvetica-36" x="55.615234"/>
       <use xlink:href="#Helvetica-30" x="111.230469"/>
       <use xlink:href="#Helvetica-30" x="166.845703"/>
      </g>
     </g>
    </g>
    <g id="xtick_4">
     <g id="line2d_4">
      <g>
       <use xlink:href="#m51a1a2fc97" x="221.4" y="384.48" style="stroke: #000000; stroke-width: 0.8"/>
      </g>
     </g>
     <g id="text_4">
      <!-- 9650 -->
      <g transform="translate(208.05375 396.588125) scale(0.12 -0.12)">
       <use xlink:href="#Helvetica-39"/>
       <use xlink:href="#Helvetica-36" x="55.615234"/>
       <use xlink:href="#Helvetica-35" x="111.230469"/>
       <use xlink:href="#Helvetica-30" x="166.845703"/>
      </g>
     </g>
    </g>
    <g id="xtick_5">
     <g id="line2d_5">
      <g>
       <use xlink:href="#m51a1a2fc97" x="277.2" y="384.48" style="stroke: #000000; stroke-width: 0.8"/>
      </g>
     </g>
     <g id="text_5">
      <!-- 9700 -->
      <g transform="translate(263.85375 396.588125) scale(0.12 -0.12)">
       <defs>
        <path id="Helvetica-37" d="M 3347 4400 
L 3347 3909 
Q 3131 3700 2773 3181 
Q 2416 2663 2141 2063 
Q 1869 1478 1728 997 
Q 1638 688 1494 0 
L 872 0 
Q 1084 1281 1809 2550 
Q 2238 3294 2709 3834 
L 234 3834 
L 234 4400 
L 3347 4400 
z
" transform="scale(0.015625)"/>
       </defs>
       <use xlink:href="#Helvetica-39"/>
       <use xlink:href="#Helvetica-37" x="55.615234"/>
       <use xlink:href="#Helvetica-30" x="111.230469"/>
       <use xlink:href="#Helvetica-30" x="166.845703"/>
      </g>
     </g>
    </g>
    <g id="xtick_6">
     <g id="line2d_6">
      <g>
       <use xlink:href="#m51a1a2fc97" x="333" y="384.48" style="stroke: #000000; stroke-width: 0.8"/>
      </g>
     </g>
     <g id="text_6">
      <!-- 9750 -->
      <g transform="translate(319.65375 396.588125) scale(0.12 -0.12)">
       <use xlink:href="#Helvetica-39"/>
       <use xlink:href="#Helvetica-37" x="55.615234"/>
       <use xlink:href="#Helvetica-35" x="111.230469"/>
       <use xlink:href="#Helvetica-30" x="166.845703"/>
      </g>
     </g>
    </g>
    <g id="xtick_7">
     <g id="line2d_7">
      <g>
       <use xlink:href="#m51a1a2fc97" x="388.8" y="384.48" style="stroke: #000000; stroke-width: 0.8"/>
      </g>
     </g>
     <g id="text_7">
      <!-- 9800 -->
      <g transform="translate(375.45375 396.588125) scale(0.12 -0.12)">
       <defs>
        <path id="Helvetica-38" d="M 1741 2600 
Q 2113 2600 2322 2808 
Q 2531 3016 2531 3303 
Q 2531 3553 2331 3762 
Q 2131 3972 1722 3972 
Q 1316 3972 1134 3762 
Q 953 3553 953 3272 
Q 953 2956 1187 2778 
Q 1422 2600 1741 2600 
z
M 1775 384 
Q 2166 384 2423 595 
Q 2681 806 2681 1225 
Q 2681 1659 2415 1884 
Q 2150 2109 1734 2109 
Q 1331 2109 1076 1879 
Q 822 1650 822 1244 
Q 822 894 1055 639 
Q 1288 384 1775 384 
z
M 975 2384 
Q 741 2484 609 2619 
Q 363 2869 363 3269 
Q 363 3769 725 4128 
Q 1088 4488 1753 4488 
Q 2397 4488 2762 4148 
Q 3128 3809 3128 3356 
Q 3128 2938 2916 2678 
Q 2797 2531 2547 2391 
Q 2825 2263 2984 2097 
Q 3281 1784 3281 1284 
Q 3281 694 2884 283 
Q 2488 -128 1763 -128 
Q 1109 -128 657 226 
Q 206 581 206 1256 
Q 206 1653 400 1942 
Q 594 2231 975 2384 
z
" transform="scale(0.015625)"/>
       </defs>
       <use xlink:href="#Helvetica-39"/>
       <use xlink:href="#Helvetica-38" x="55.615234"/>
       <use xlink:href="#Helvetica-30" x="111.230469"/>
       <use xlink:href="#Helvetica-30" x="166.845703"/>
      </g>
     </g>
    </g>
    <g id="text_8">
     <!-- m/z -->
     <g transform="translate(211.735313 411.6975) scale(0.12 -0.12)">
      <defs>
       <path id="Helvetica-6d" d="M 413 3347 
L 969 3347 
L 969 2872 
Q 1169 3119 1331 3231 
Q 1609 3422 1963 3422 
Q 2363 3422 2606 3225 
Q 2744 3113 2856 2894 
Q 3044 3163 3297 3292 
Q 3550 3422 3866 3422 
Q 4541 3422 4784 2934 
Q 4916 2672 4916 2228 
L 4916 0 
L 4331 0 
L 4331 2325 
Q 4331 2659 4164 2784 
Q 3997 2909 3756 2909 
Q 3425 2909 3186 2687 
Q 2947 2466 2947 1947 
L 2947 0 
L 2375 0 
L 2375 2184 
Q 2375 2525 2294 2681 
Q 2166 2916 1816 2916 
Q 1497 2916 1236 2669 
Q 975 2422 975 1775 
L 975 0 
L 413 0 
L 413 3347 
z
" transform="scale(0.015625)"/>
       <path id="Helvetica-2f" d="M 1456 4591 
L 1931 4591 
L 475 0 
L 0 0 
L 1456 4591 
z
" transform="scale(0.015625)"/>
       <path id="Helvetica-7a" d="M 163 444 
L 2147 2844 
L 309 2844 
L 309 3347 
L 2903 3347 
L 2903 2888 
L 931 503 
L 2963 503 
L 2963 0 
L 163 0 
L 163 444 
z
M 1609 3428 
L 1609 3428 
z
" transform="scale(0.015625)"/>
      </defs>
      <use xlink:href="#Helvetica-6d"/>
      <use xlink:href="#Helvetica-2f" x="83.300781"/>
      <use xlink:href="#Helvetica-7a" x="111.083984"/>
     </g>
    </g>
   </g>
   <g id="matplotlib.axis_2">
    <g id="ytick_1">
     <g id="line2d_8">
      <defs>
       <path id="mcf53c5a374" d="M 0 0 
L 3.5 0 
" style="stroke: #000000; stroke-width: 0.8"/>
      </defs>
      <g>
       <use xlink:href="#mcf53c5a374" x="54" y="354.24" style="stroke: #000000; stroke-width: 0.8"/>
      </g>
     </g>
     <g id="text_9">
      <!-- 0.0 -->
      <g transform="translate(33.82 358.544062) scale(0.12 -0.12)">
       <defs>
        <path id="Helvetica-2e" d="M 547 681 
L 1200 681 
L 1200 0 
L 547 0 
L 547 681 
z
" transform="scale(0.015625)"/>
       </defs>
       <use xlink:href="#Helvetica-30"/>
       <use xlink:href="#Helvetica-2e" x="55.615234"/>
       <use xlink:href="#Helvetica-30" x="83.398438"/>
      </g>
     </g>
    </g>
    <g id="ytick_2">
     <g id="line2d_9">
      <g>
       <use xlink:href="#mcf53c5a374" x="54" y="293.76" style="stroke: #000000; stroke-width: 0.8"/>
      </g>
     </g>
     <g id="text_10">
      <!-- 0.2 -->
      <g transform="translate(33.82 298.064062) scale(0.12 -0.12)">
       <defs>
        <path id="Helvetica-32" d="M 200 0 
Q 231 578 439 1006 
Q 647 1434 1250 1784 
L 1850 2131 
Q 2253 2366 2416 2531 
Q 2672 2791 2672 3125 
Q 2672 3516 2437 3745 
Q 2203 3975 1813 3975 
Q 1234 3975 1013 3538 
Q 894 3303 881 2888 
L 309 2888 
Q 319 3472 525 3841 
Q 891 4491 1816 4491 
Q 2584 4491 2939 4075 
Q 3294 3659 3294 3150 
Q 3294 2613 2916 2231 
Q 2697 2009 2131 1694 
L 1703 1456 
Q 1397 1288 1222 1134 
Q 909 863 828 531 
L 3272 531 
L 3272 0 
L 200 0 
z
" transform="scale(0.015625)"/>
       </defs>
       <use xlink:href="#Helvetica-30"/>
       <use xlink:href="#Helvetica-2e" x="55.615234"/>
       <use xlink:href="#Helvetica-32" x="83.398438"/>
      </g>
     </g>
    </g>
    <g id="ytick_3">
     <g id="line2d_10">
      <g>
       <use xlink:href="#mcf53c5a374" x="54" y="233.28" style="stroke: #000000; stroke-width: 0.8"/>
      </g>
     </g>
     <g id="text_11">
      <!-- 0.4 -->
      <g transform="translate(33.82 237.584062) scale(0.12 -0.12)">
       <defs>
        <path id="Helvetica-34" d="M 2116 1584 
L 2116 3613 
L 681 1584 
L 2116 1584 
z
M 2125 0 
L 2125 1094 
L 163 1094 
L 163 1644 
L 2213 4488 
L 2688 4488 
L 2688 1584 
L 3347 1584 
L 3347 1094 
L 2688 1094 
L 2688 0 
L 2125 0 
z
" transform="scale(0.015625)"/>
       </defs>
       <use xlink:href="#Helvetica-30"/>
       <use xlink:href="#Helvetica-2e" x="55.615234"/>
       <use xlink:href="#Helvetica-34" x="83.398438"/>
      </g>
     </g>
    </g>
    <g id="ytick_4">
     <g id="line2d_11">
      <g>
       <use xlink:href="#mcf53c5a374" x="54" y="172.8" style="stroke: #000000; stroke-width: 0.8"/>
      </g>
     </g>
     <g id="text_12">
      <!-- 0.6 -->
      <g transform="translate(33.82 177.104062) scale(0.12 -0.12)">
       <use xlink:href="#Helvetica-30"/>
       <use xlink:href="#Helvetica-2e" x="55.615234"/>
       <use xlink:href="#Helvetica-36" x="83.398438"/>
      </g>
     </g>
    </g>
    <g id="ytick_5">
     <g id="line2d_12">
      <g>
       <use xlink:href="#mcf53c5a374" x="54" y="112.32" style="stroke: #000000; stroke-width: 0.8"/>
      </g>
     </g>
     <g id="text_13">
      <!-- 0.8 -->
      <g transform="translate(33.82 116.624062) scale(0.12 -0.12)">
       <use xlink:href="#Helvetica-30"/>
       <use xlink:href="#Helvetica-2e" x="55.615234"/>
       <use xlink:href="#Helvetica-38" x="83.398438"/>
      </g>
     </g>
    </g>
    <g id="ytick_6">
     <g id="line2d_13">
      <g>
       <use xlink:href="#mcf53c5a374" x="54" y="51.84" style="stroke: #000000; stroke-width: 0.8"/>
      </g>
     </g>
     <g id="text_14">
      <!-- 1.0 -->
      <g transform="translate(33.82 56.144062) scale(0.12 -0.12)">
       <defs>
        <path id="Helvetica-31" d="M 613 3169 
L 613 3600 
Q 1222 3659 1462 3798 
Q 1703 3938 1822 4456 
L 2266 4456 
L 2266 0 
L 1666 0 
L 1666 3169 
L 613 3169 
z
" transform="scale(0.015625)"/>
       </defs>
       <use xlink:href="#Helvetica-31"/>
       <use xlink:href="#Helvetica-2e" x="55.615234"/>
       <use xlink:href="#Helvetica-30" x="83.398438"/>
      </g>
     </g>
    </g>
    <g id="text_15">
     <!-- Normalized Intensity -->
     <g transform="translate(27.2475 272.511562) rotate(-90) scale(0.12 -0.12)">
      <defs>
       <path id="Helvetica-4e" d="M 488 4591 
L 1222 4591 
L 3541 872 
L 3541 4591 
L 4131 4591 
L 4131 0 
L 3434 0 
L 1081 3716 
L 1081 0 
L 488 0 
L 488 4591 
z
M 2269 4591 
L 2269 4591 
z
" transform="scale(0.015625)"/>
       <path id="Helvetica-6f" d="M 1741 363 
Q 2300 363 2508 786 
Q 2716 1209 2716 1728 
Q 2716 2197 2566 2491 
Q 2328 2953 1747 2953 
Q 1231 2953 997 2559 
Q 763 2166 763 1609 
Q 763 1075 997 719 
Q 1231 363 1741 363 
z
M 1763 3444 
Q 2409 3444 2856 3012 
Q 3303 2581 3303 1744 
Q 3303 934 2909 406 
Q 2516 -122 1688 -122 
Q 997 -122 590 345 
Q 184 813 184 1600 
Q 184 2444 612 2944 
Q 1041 3444 1763 3444 
z
M 1744 3428 
L 1744 3428 
z
" transform="scale(0.015625)"/>
       <path id="Helvetica-72" d="M 428 3347 
L 963 3347 
L 963 2769 
Q 1028 2938 1284 3180 
Q 1541 3422 1875 3422 
Q 1891 3422 1928 3419 
Q 1966 3416 2056 3406 
L 2056 2813 
Q 2006 2822 1964 2825 
Q 1922 2828 1872 2828 
Q 1447 2828 1219 2554 
Q 991 2281 991 1925 
L 991 0 
L 428 0 
L 428 3347 
z
" transform="scale(0.015625)"/>
       <path id="Helvetica-61" d="M 844 891 
Q 844 647 1022 506 
Q 1200 366 1444 366 
Q 1741 366 2019 503 
Q 2488 731 2488 1250 
L 2488 1703 
Q 2384 1638 2221 1594 
Q 2059 1550 1903 1531 
L 1563 1488 
Q 1256 1447 1103 1359 
Q 844 1213 844 891 
z
M 2206 2028 
Q 2400 2053 2466 2191 
Q 2503 2266 2503 2406 
Q 2503 2694 2298 2823 
Q 2094 2953 1713 2953 
Q 1272 2953 1088 2716 
Q 984 2584 953 2325 
L 428 2325 
Q 444 2944 830 3186 
Q 1216 3428 1725 3428 
Q 2316 3428 2684 3203 
Q 3050 2978 3050 2503 
L 3050 575 
Q 3050 488 3086 434 
Q 3122 381 3238 381 
Q 3275 381 3322 386 
Q 3369 391 3422 400 
L 3422 -16 
Q 3291 -53 3222 -62 
Q 3153 -72 3034 -72 
Q 2744 -72 2613 134 
Q 2544 244 2516 444 
Q 2344 219 2022 53 
Q 1700 -113 1313 -113 
Q 847 -113 551 170 
Q 256 453 256 878 
Q 256 1344 547 1600 
Q 838 1856 1309 1916 
L 2206 2028 
z
M 1741 3428 
L 1741 3428 
z
" transform="scale(0.015625)"/>
       <path id="Helvetica-6c" d="M 428 4591 
L 991 4591 
L 991 0 
L 428 0 
L 428 4591 
z
" transform="scale(0.015625)"/>
       <path id="Helvetica-69" d="M 413 3331 
L 984 3331 
L 984 0 
L 413 0 
L 413 3331 
z
M 413 4591 
L 984 4591 
L 984 3953 
L 413 3953 
L 413 4591 
z
" transform="scale(0.015625)"/>
       <path id="Helvetica-65" d="M 1806 3422 
Q 2163 3422 2497 3255 
Q 2831 3088 3006 2822 
Q 3175 2569 3231 2231 
Q 3281 2000 3281 1494 
L 828 1494 
Q 844 984 1069 676 
Q 1294 369 1766 369 
Q 2206 369 2469 659 
Q 2619 828 2681 1050 
L 3234 1050 
Q 3213 866 3089 639 
Q 2966 413 2813 269 
Q 2556 19 2178 -69 
Q 1975 -119 1719 -119 
Q 1094 -119 659 336 
Q 225 791 225 1609 
Q 225 2416 662 2919 
Q 1100 3422 1806 3422 
z
M 2703 1941 
Q 2669 2306 2544 2525 
Q 2313 2931 1772 2931 
Q 1384 2931 1121 2651 
Q 859 2372 844 1941 
L 2703 1941 
z
M 1753 3428 
L 1753 3428 
z
" transform="scale(0.015625)"/>
       <path id="Helvetica-64" d="M 769 1634 
Q 769 1097 997 734 
Q 1225 372 1728 372 
Q 2119 372 2370 708 
Q 2622 1044 2622 1672 
Q 2622 2306 2362 2611 
Q 2103 2916 1722 2916 
Q 1297 2916 1033 2591 
Q 769 2266 769 1634 
z
M 1616 3406 
Q 2000 3406 2259 3244 
Q 2409 3150 2600 2916 
L 2600 4606 
L 3141 4606 
L 3141 0 
L 2634 0 
L 2634 466 
Q 2438 156 2169 18 
Q 1900 -119 1553 -119 
Q 994 -119 584 351 
Q 175 822 175 1603 
Q 175 2334 548 2870 
Q 922 3406 1616 3406 
z
" transform="scale(0.015625)"/>
       <path id="Helvetica-20" transform="scale(0.015625)"/>
       <path id="Helvetica-49" d="M 628 4591 
L 1256 4591 
L 1256 0 
L 628 0 
L 628 4591 
z
" transform="scale(0.015625)"/>
       <path id="Helvetica-6e" d="M 413 3347 
L 947 3347 
L 947 2872 
Q 1184 3166 1450 3294 
Q 1716 3422 2041 3422 
Q 2753 3422 3003 2925 
Q 3141 2653 3141 2147 
L 3141 0 
L 2569 0 
L 2569 2109 
Q 2569 2416 2478 2603 
Q 2328 2916 1934 2916 
Q 1734 2916 1606 2875 
Q 1375 2806 1200 2600 
Q 1059 2434 1017 2257 
Q 975 2081 975 1753 
L 975 0 
L 413 0 
L 413 3347 
z
M 1734 3428 
L 1734 3428 
z
" transform="scale(0.015625)"/>
       <path id="Helvetica-74" d="M 525 4281 
L 1094 4281 
L 1094 3347 
L 1628 3347 
L 1628 2888 
L 1094 2888 
L 1094 703 
Q 1094 528 1213 469 
Q 1278 434 1431 434 
Q 1472 434 1519 436 
Q 1566 438 1628 444 
L 1628 0 
Q 1531 -28 1426 -40 
Q 1322 -53 1200 -53 
Q 806 -53 665 148 
Q 525 350 525 672 
L 525 2888 
L 72 2888 
L 72 3347 
L 525 3347 
L 525 4281 
z
" transform="scale(0.015625)"/>
       <path id="Helvetica-73" d="M 747 1050 
Q 772 769 888 619 
Q 1100 347 1625 347 
Q 1938 347 2175 483 
Q 2413 619 2413 903 
Q 2413 1119 2222 1231 
Q 2100 1300 1741 1391 
L 1294 1503 
Q 866 1609 663 1741 
Q 300 1969 300 2372 
Q 300 2847 642 3140 
Q 984 3434 1563 3434 
Q 2319 3434 2653 2991 
Q 2863 2709 2856 2384 
L 2325 2384 
Q 2309 2575 2191 2731 
Q 1997 2953 1519 2953 
Q 1200 2953 1036 2831 
Q 872 2709 872 2509 
Q 872 2291 1088 2159 
Q 1213 2081 1456 2022 
L 1828 1931 
Q 2434 1784 2641 1647 
Q 2969 1431 2969 969 
Q 2969 522 2630 197 
Q 2291 -128 1597 -128 
Q 850 -128 539 211 
Q 228 550 206 1050 
L 747 1050 
z
M 1578 3428 
L 1578 3428 
z
" transform="scale(0.015625)"/>
       <path id="Helvetica-79" d="M 2503 3347 
L 3125 3347 
Q 3006 3025 2597 1878 
Q 2291 1016 2084 472 
Q 1597 -809 1397 -1090 
Q 1197 -1372 709 -1372 
Q 591 -1372 527 -1362 
Q 463 -1353 369 -1328 
L 369 -816 
Q 516 -856 581 -865 
Q 647 -875 697 -875 
Q 853 -875 926 -823 
Q 1000 -772 1050 -697 
Q 1066 -672 1162 -440 
Q 1259 -209 1303 -97 
L 66 3347 
L 703 3347 
L 1600 622 
L 2503 3347 
z
M 1597 3428 
L 1597 3428 
z
" transform="scale(0.015625)"/>
      </defs>
      <use xlink:href="#Helvetica-4e"/>
      <use xlink:href="#Helvetica-6f" x="72.216797"/>
      <use xlink:href="#Helvetica-72" x="127.832031"/>
      <use xlink:href="#Helvetica-6d" x="161.132812"/>
      <use xlink:href="#Helvetica-61" x="244.433594"/>
      <use xlink:href="#Helvetica-6c" x="300.048828"/>
      <use xlink:href="#Helvetica-69" x="322.265625"/>
      <use xlink:href="#Helvetica-7a" x="344.482422"/>
      <use xlink:href="#Helvetica-65" x="394.482422"/>
      <use xlink:href="#Helvetica-64" x="450.097656"/>
      <use xlink:href="#Helvetica-20" x="505.712891"/>
      <use xlink:href="#Helvetica-49" x="533.496094"/>
      <use xlink:href="#Helvetica-6e" x="561.279297"/>
      <use xlink:href="#Helvetica-74" x="616.894531"/>
      <use xlink:href="#Helvetica-65" x="644.677734"/>
      <use xlink:href="#Helvetica-6e" x="700.292969"/>
      <use xlink:href="#Helvetica-73" x="755.908203"/>
      <use xlink:href="#Helvetica-69" x="805.908203"/>
      <use xlink:href="#Helvetica-74" x="828.125"/>
      <use xlink:href="#Helvetica-79" x="855.908203"/>
     </g>
    </g>
   </g>
   <g id="line2d_14">
    <path d="M 54.025445 354.200912 
L 55.200146 354.331206 
L 59.769162 354.226971 
L 61.009484 354.083647 
L 62.315093 353.979411 
L 63.229208 353.901235 
L 63.620924 353.888205 
L 64.796184 353.757911 
L 67.212212 353.666705 
L 67.669326 353.601558 
L 70.216261 353.705793 
L 73.416726 354.422412 
L 74.069921 354.813295 
L 74.723227 355.178119 
L 75.637789 356.181385 
L 76.225698 355.868679 
L 77.205658 354.565736 
L 77.597708 353.015234 
L 78.251015 348.337669 
L 78.773749 342.682897 
L 79.427056 332.311472 
L 80.145871 316.154981 
L 80.995259 289.74433 
L 81.844758 255.763581 
L 83.021022 199.997629 
L 84.981722 108.557101 
L 85.896731 76.752267 
L 86.55026 61.507836 
L 87.073218 54.34165 
L 87.399983 52.361177 
L 87.596064 51.892118 
L 87.726859 51.905147 
L 87.92294 52.51753 
L 88.249817 55.201592 
L 88.641979 61.051806 
L 89.230334 74.367881 
L 90.014771 98.1075 
L 91.256879 145.795207 
L 93.152851 218.773035 
L 94.19899 251.450841 
L 95.049047 272.66275 
L 96.160694 294.356748 
L 96.879956 304.220025 
L 97.59933 311.751035 
L 98.580294 319.047514 
L 99.953755 325.418905 
L 102.308404 332.559031 
L 103.485784 334.87827 
L 103.943678 335.673065 
L 104.79407 337.14539 
L 106.102469 339.021628 
L 106.560475 339.490687 
L 108.588694 341.366925 
L 109.0467 341.536307 
L 109.76652 341.992337 
L 111.664166 342.630779 
L 112.187682 342.630779 
L 113.75834 342.526544 
L 114.151061 342.344132 
L 115.001899 342.109602 
L 115.32911 342.070514 
L 117.489128 342.174749 
L 120.500431 343.490722 
L 122.006138 344.819723 
L 122.529989 345.288783 
L 123.053728 345.718754 
L 123.643087 346.305078 
L 124.166826 346.761108 
L 127.048115 348.937023 
L 127.441058 349.210641 
L 129.012833 350.266024 
L 129.929738 350.865378 
L 130.650228 351.178084 
L 132.091319 351.568967 
L 133.270373 351.920762 
L 134.253011 352.024997 
L 136.08738 352.285586 
L 136.742472 352.259527 
L 137.528694 352.311645 
L 143.426419 352.41588 
L 145.06493 352.63738 
L 146.834683 352.741616 
L 147.8835 352.845851 
L 148.473418 352.832822 
L 149.128956 352.937057 
L 149.522346 352.976145 
L 150.374635 353.080381 
L 151.095794 353.119469 
L 154.636416 353.223705 
L 155.554438 353.301881 
L 156.669322 353.406117 
L 157.325083 353.432175 
L 157.849715 353.432175 
L 160.014085 353.536411 
L 161.063572 353.640646 
L 162.769043 353.744882 
L 163.75302 353.836088 
L 164.999592 353.940323 
L 166.377294 354.109706 
L 166.902149 354.109706 
L 168.345695 354.292118 
L 175.499032 354.187882 
L 176.483567 354.096676 
L 181.932548 354.00547 
L 182.392117 353.927294 
L 184.690296 353.823058 
L 185.215709 353.810029 
L 185.74101 353.810029 
L 186.397664 353.705793 
L 188.105256 353.471264 
L 188.696401 353.575499 
L 189.550253 353.823058 
L 190.404104 354.370294 
L 191.126603 354.891471 
L 191.520774 355.191148 
L 191.78348 355.360531 
L 191.914834 355.37356 
L 192.374737 355.673237 
L 192.768797 355.516884 
L 193.425786 354.344235 
L 193.819957 352.897969 
L 194.214128 350.630848 
L 194.739653 346.135696 
L 195.33091 338.98254 
L 195.922278 328.25932 
L 196.645 310.435062 
L 197.367721 287.216621 
L 198.353372 247.919866 
L 199.996124 171.502269 
L 201.441902 108.934955 
L 202.23058 83.162745 
L 202.82206 69.560022 
L 203.282075 62.836837 
L 203.610737 60.439423 
L 203.807934 59.931275 
L 203.939287 59.918246 
L 204.136484 60.478511 
L 204.465146 62.836837 
L 204.925273 69.143081 
L 205.516865 81.573155 
L 206.305654 104.374655 
L 207.488837 147.77568 
L 209.592497 224.701424 
L 210.644438 256.102347 
L 211.499183 276.011313 
L 212.551236 294.851866 
L 213.340248 304.884526 
L 214.063528 311.698917 
L 215.247269 319.60778 
L 216.759784 326.317935 
L 217.549019 328.767468 
L 218.206678 330.278881 
L 218.667139 331.425471 
L 219.324798 332.923855 
L 219.78526 333.692592 
L 220.048301 334.018327 
L 222.548029 337.783832 
L 223.468952 338.852245 
L 224.389987 340.1161 
L 224.718984 340.298512 
L 225.047869 340.441835 
L 225.903172 341.158454 
L 226.758586 341.601455 
L 227.284891 341.979308 
L 229.456404 342.318073 
L 229.785401 342.305044 
L 230.048665 342.278985 
L 230.640926 342.16172 
L 231.693872 342.057485 
L 232.549398 341.979308 
L 233.010194 341.979308 
L 233.536723 341.966279 
L 234.194828 342.122632 
L 234.853045 342.226867 
L 235.44553 342.461397 
L 237.420292 343.334369 
L 238.210308 343.959781 
L 241.238797 346.50052 
L 242.423989 347.529844 
L 243.477493 348.233434 
L 244.070089 348.585228 
L 247.560491 350.539642 
L 248.811862 350.917496 
L 249.141193 351.021731 
L 249.668168 351.230202 
L 250.392676 351.26929 
L 250.919651 351.360496 
L 251.841913 351.608055 
L 253.159351 351.790467 
L 253.488794 351.764409 
L 254.542856 351.868644 
L 256.651204 351.972879 
L 258.100888 352.168321 
L 258.627974 352.168321 
L 259.418772 352.259527 
L 259.94597 352.350733 
L 262.186675 352.689498 
L 263.175228 352.780704 
L 263.636694 352.858881 
L 266.602799 352.754645 
L 267.064265 352.767675 
L 267.591686 352.767675 
L 268.514618 352.689498 
L 271.67926 352.793733 
L 273.327703 353.015234 
L 274.250858 353.119469 
L 276.888859 353.536411 
L 278.009993 353.627617 
L 278.471682 353.692764 
L 279.790906 353.849117 
L 283.023176 353.757911 
L 283.484977 353.679735 
L 288.961412 353.78397 
L 289.885237 353.862147 
L 293.515139 353.770941 
L 294.109074 353.653676 
L 295.62728 353.445205 
L 296.155372 353.445205 
L 302.889539 353.54944 
L 306.719762 354.383324 
L 307.049987 354.513618 
L 308.436952 355.217207 
L 308.965378 355.230237 
L 309.361669 354.865413 
L 309.824028 353.601558 
L 310.418521 350.917496 
L 310.946947 347.073814 
L 311.54144 339.855511 
L 312.202112 328.207202 
L 312.92874 310.552327 
L 313.919748 278.408728 
L 315.108958 229.848049 
L 317.95007 107.475659 
L 318.7431 84.491747 
L 319.337816 73.143115 
L 319.800398 68.231021 
L 320.130846 67.019284 
L 320.26298 67.11049 
L 320.395115 67.410167 
L 320.725562 69.507905 
L 321.122077 74.185469 
L 321.650838 83.775129 
L 322.179487 96.96091 
L 323.104874 126.785271 
L 326.938669 256.962289 
L 327.797989 276.740961 
L 328.921913 296.180868 
L 329.715277 306.16141 
L 330.376396 312.285241 
L 331.368185 318.956308 
L 333.087383 326.239759 
L 333.947038 328.767468 
L 335.137363 331.803325 
L 335.666347 332.715385 
L 336.460046 334.044386 
L 337.716662 336.063948 
L 338.642608 337.327802 
L 339.304061 338.200774 
L 339.634732 338.500451 
L 341.486845 340.533041 
L 342.016052 340.858777 
L 343.273003 341.744778 
L 345.257809 342.044455 
L 345.588592 342.057485 
L 346.051732 342.148691 
L 346.514872 342.083543 
L 347.044302 342.096573 
L 347.375084 342.070514 
L 347.904403 342.070514 
L 349.823477 341.979308 
L 350.154371 341.94022 
L 351.014695 342.018396 
L 351.345589 342.044455 
L 353.463534 342.995603 
L 354.721043 344.116134 
L 356.243602 345.458165 
L 357.03797 346.213872 
L 358.560529 347.85558 
L 359.090183 348.285551 
L 360.480496 349.249729 
L 361.341266 349.653641 
L 361.738562 349.836053 
L 362.466864 350.239966 
L 363.195277 350.552672 
L 364.718282 351.034761 
L 367.69856 351.516849 
L 368.162147 351.621085 
L 368.758314 351.73835 
L 369.685598 351.829556 
L 370.414235 351.777438 
L 370.877821 351.764409 
L 371.739038 351.699261 
L 373.593942 351.790467 
L 374.455159 352.024997 
L 376.376576 352.129233 
L 380.948828 352.937057 
L 382.473173 352.741616 
L 383.135965 352.767675 
L 387.179345 352.663439 
L 387.842249 352.63738 
L 388.770426 352.585263 
L 388.770426 352.585263 
" clip-path="url(#pa9e0eb11b7)" style="fill: none; stroke: #8286ff; stroke-width: 1.5; stroke-linecap: square"/>
   </g>
   <g id="line2d_15">
    <defs>
     <path id="me4b6710f35" d="M -3 3 
L 3 -3 
M -3 -3 
L 3 3 
" style="stroke: #ff0000"/>
    </defs>
    <g clip-path="url(#pa9e0eb11b7)">
     <use xlink:href="#me4b6710f35" x="68.061154" y="353.575499" style="fill: #ff0000; stroke: #ff0000"/>
     <use xlink:href="#me4b6710f35" x="68.387584" y="353.575499" style="fill: #ff0000; stroke: #ff0000"/>
     <use xlink:href="#me4b6710f35" x="87.661462" y="51.84" style="fill: #ff0000; stroke: #ff0000"/>
     <use xlink:href="#me4b6710f35" x="116.507272" y="342.005367" style="fill: #ff0000; stroke: #ff0000"/>
     <use xlink:href="#me4b6710f35" x="116.703576" y="342.005367" style="fill: #ff0000; stroke: #ff0000"/>
     <use xlink:href="#me4b6710f35" x="116.899992" y="342.005367" style="fill: #ff0000; stroke: #ff0000"/>
     <use xlink:href="#me4b6710f35" x="187.90817" y="353.458234" style="fill: #ff0000; stroke: #ff0000"/>
     <use xlink:href="#me4b6710f35" x="203.873555" y="59.866128" style="fill: #ff0000; stroke: #ff0000"/>
     <use xlink:href="#me4b6710f35" x="233.273459" y="341.94022" style="fill: #ff0000; stroke: #ff0000"/>
     <use xlink:href="#me4b6710f35" x="299.522232" y="353.406117" style="fill: #ff0000; stroke: #ff0000"/>
     <use xlink:href="#me4b6710f35" x="320.130846" y="67.019284" style="fill: #ff0000; stroke: #ff0000"/>
    </g>
   </g>
   <g id="patch_3">
    <path d="M 54 384.48 
L 54 51.84 
" style="fill: none; stroke: #000000; stroke-width: 0.5; stroke-linejoin: miter; stroke-linecap: square"/>
   </g>
   <g id="patch_4">
    <path d="M 54 384.48 
L 388.8 384.48 
" style="fill: none; stroke: #000000; stroke-width: 0.5; stroke-linejoin: miter; stroke-linecap: square"/>
   </g>
   <g id="text_16">
    <!-- 9512.60 -->
    <g transform="translate(68.061154 347.527499) scale(0.08 -0.08)">
     <use xlink:href="#Helvetica-39"/>
     <use xlink:href="#Helvetica-35" x="55.615234"/>
     <use xlink:href="#Helvetica-31" x="111.230469"/>
     <use xlink:href="#Helvetica-32" x="166.845703"/>
     <use xlink:href="#Helvetica-2e" x="222.460938"/>
     <use xlink:href="#Helvetica-36" x="250.244141"/>
     <use xlink:href="#Helvetica-30" x="305.859375"/>
    </g>
   </g>
   <g id="text_17">
    <!-- 9512.89 -->
    <g transform="translate(68.387584 347.527499) scale(0.08 -0.08)">
     <use xlink:href="#Helvetica-39"/>
     <use xlink:href="#Helvetica-35" x="55.615234"/>
     <use xlink:href="#Helvetica-31" x="111.230469"/>
     <use xlink:href="#Helvetica-32" x="166.845703"/>
     <use xlink:href="#Helvetica-2e" x="222.460938"/>
     <use xlink:href="#Helvetica-38" x="250.244141"/>
     <use xlink:href="#Helvetica-39" x="305.859375"/>
    </g>
   </g>
   <g id="text_18">
    <!-- 9530.16 -->
    <g transform="translate(87.661462 45.792) scale(0.08 -0.08)">
     <defs>
      <path id="Helvetica-33" d="M 1663 -122 
Q 869 -122 511 314 
Q 153 750 153 1375 
L 741 1375 
Q 778 941 903 744 
Q 1122 391 1694 391 
Q 2138 391 2406 628 
Q 2675 866 2675 1241 
Q 2675 1703 2392 1887 
Q 2109 2072 1606 2072 
Q 1550 2072 1492 2070 
Q 1434 2069 1375 2066 
L 1375 2563 
Q 1463 2553 1522 2550 
Q 1581 2547 1650 2547 
Q 1966 2547 2169 2647 
Q 2525 2822 2525 3272 
Q 2525 3606 2287 3787 
Q 2050 3969 1734 3969 
Q 1172 3969 956 3594 
Q 838 3388 822 3006 
L 266 3006 
Q 266 3506 466 3856 
Q 809 4481 1675 4481 
Q 2359 4481 2734 4176 
Q 3109 3872 3109 3294 
Q 3109 2881 2888 2625 
Q 2750 2466 2531 2375 
Q 2884 2278 3082 2001 
Q 3281 1725 3281 1325 
Q 3281 684 2859 281 
Q 2438 -122 1663 -122 
z
" transform="scale(0.015625)"/>
     </defs>
     <use xlink:href="#Helvetica-39"/>
     <use xlink:href="#Helvetica-35" x="55.615234"/>
     <use xlink:href="#Helvetica-33" x="111.230469"/>
     <use xlink:href="#Helvetica-30" x="166.845703"/>
     <use xlink:href="#Helvetica-2e" x="222.460938"/>
     <use xlink:href="#Helvetica-31" x="250.244141"/>
     <use xlink:href="#Helvetica-36" x="305.859375"/>
    </g>
   </g>
   <g id="text_19">
    <!-- 9556.01 -->
    <g transform="translate(116.507272 335.957367) scale(0.08 -0.08)">
     <use xlink:href="#Helvetica-39"/>
     <use xlink:href="#Helvetica-35" x="55.615234"/>
     <use xlink:href="#Helvetica-35" x="111.230469"/>
     <use xlink:href="#Helvetica-36" x="166.845703"/>
     <use xlink:href="#Helvetica-2e" x="222.460938"/>
     <use xlink:href="#Helvetica-30" x="250.244141"/>
     <use xlink:href="#Helvetica-31" x="305.859375"/>
    </g>
   </g>
   <g id="text_20">
    <!-- 9556.19 -->
    <g transform="translate(116.703576 335.957367) scale(0.08 -0.08)">
     <use xlink:href="#Helvetica-39"/>
     <use xlink:href="#Helvetica-35" x="55.615234"/>
     <use xlink:href="#Helvetica-35" x="111.230469"/>
     <use xlink:href="#Helvetica-36" x="166.845703"/>
     <use xlink:href="#Helvetica-2e" x="222.460938"/>
     <use xlink:href="#Helvetica-31" x="250.244141"/>
     <use xlink:href="#Helvetica-39" x="305.859375"/>
    </g>
   </g>
   <g id="text_21">
    <!-- 9556.36 -->
    <g transform="translate(116.899992 335.957367) scale(0.08 -0.08)">
     <use xlink:href="#Helvetica-39"/>
     <use xlink:href="#Helvetica-35" x="55.615234"/>
     <use xlink:href="#Helvetica-35" x="111.230469"/>
     <use xlink:href="#Helvetica-36" x="166.845703"/>
     <use xlink:href="#Helvetica-2e" x="222.460938"/>
     <use xlink:href="#Helvetica-33" x="250.244141"/>
     <use xlink:href="#Helvetica-36" x="305.859375"/>
    </g>
   </g>
   <g id="text_22">
    <!-- 9619.99 -->
    <g transform="translate(187.90817 347.410234) scale(0.08 -0.08)">
     <use xlink:href="#Helvetica-39"/>
     <use xlink:href="#Helvetica-36" x="55.615234"/>
     <use xlink:href="#Helvetica-31" x="111.230469"/>
     <use xlink:href="#Helvetica-39" x="166.845703"/>
     <use xlink:href="#Helvetica-2e" x="222.460938"/>
     <use xlink:href="#Helvetica-39" x="250.244141"/>
     <use xlink:href="#Helvetica-39" x="305.859375"/>
    </g>
   </g>
   <g id="text_23">
    <!-- 9634.30 -->
    <g transform="translate(203.873555 53.818128) scale(0.08 -0.08)">
     <use xlink:href="#Helvetica-39"/>
     <use xlink:href="#Helvetica-36" x="55.615234"/>
     <use xlink:href="#Helvetica-33" x="111.230469"/>
     <use xlink:href="#Helvetica-34" x="166.845703"/>
     <use xlink:href="#Helvetica-2e" x="222.460938"/>
     <use xlink:href="#Helvetica-33" x="250.244141"/>
     <use xlink:href="#Helvetica-30" x="305.859375"/>
    </g>
   </g>
   <g id="text_24">
    <!-- 9660.64 -->
    <g transform="translate(233.273459 335.89222) scale(0.08 -0.08)">
     <use xlink:href="#Helvetica-39"/>
     <use xlink:href="#Helvetica-36" x="55.615234"/>
     <use xlink:href="#Helvetica-36" x="111.230469"/>
     <use xlink:href="#Helvetica-30" x="166.845703"/>
     <use xlink:href="#Helvetica-2e" x="222.460938"/>
     <use xlink:href="#Helvetica-36" x="250.244141"/>
     <use xlink:href="#Helvetica-34" x="305.859375"/>
    </g>
   </g>
   <g id="text_25">
    <!-- 9720.00 -->
    <g transform="translate(299.522232 347.358117) scale(0.08 -0.08)">
     <use xlink:href="#Helvetica-39"/>
     <use xlink:href="#Helvetica-37" x="55.615234"/>
     <use xlink:href="#Helvetica-32" x="111.230469"/>
     <use xlink:href="#Helvetica-30" x="166.845703"/>
     <use xlink:href="#Helvetica-2e" x="222.460938"/>
     <use xlink:href="#Helvetica-30" x="250.244141"/>
     <use xlink:href="#Helvetica-30" x="305.859375"/>
    </g>
   </g>
   <g id="text_26">
    <!-- 9738.47 -->
    <g transform="translate(320.130846 60.971284) scale(0.08 -0.08)">
     <use xlink:href="#Helvetica-39"/>
     <use xlink:href="#Helvetica-37" x="55.615234"/>
     <use xlink:href="#Helvetica-33" x="111.230469"/>
     <use xlink:href="#Helvetica-38" x="166.845703"/>
     <use xlink:href="#Helvetica-2e" x="222.460938"/>
     <use xlink:href="#Helvetica-34" x="250.244141"/>
     <use xlink:href="#Helvetica-37" x="305.859375"/>
    </g>
   </g>
   <g id="text_27">
    <!-- PS-F1-10K_MALDI -->
    <g transform="translate(152.93375 31.84) scale(0.16 -0.16)">
     <defs>
      <path id="Helvetica-50" d="M 547 4591 
L 2613 4591 
Q 3225 4591 3600 4245 
Q 3975 3900 3975 3275 
Q 3975 2738 3640 2339 
Q 3306 1941 2613 1941 
L 1169 1941 
L 1169 0 
L 547 0 
L 547 4591 
z
M 3347 3272 
Q 3347 3778 2972 3959 
Q 2766 4056 2406 4056 
L 1169 4056 
L 1169 2466 
L 2406 2466 
Q 2825 2466 3086 2644 
Q 3347 2822 3347 3272 
z
" transform="scale(0.015625)"/>
      <path id="Helvetica-53" d="M 894 1481 
Q 916 1091 1078 847 
Q 1388 391 2169 391 
Q 2519 391 2806 491 
Q 3363 684 3363 1184 
Q 3363 1559 3128 1719 
Q 2891 1875 2384 1991 
L 1763 2131 
Q 1153 2269 900 2434 
Q 463 2722 463 3294 
Q 463 3913 891 4309 
Q 1319 4706 2103 4706 
Q 2825 4706 3329 4357 
Q 3834 4009 3834 3244 
L 3250 3244 
Q 3203 3613 3050 3809 
Q 2766 4169 2084 4169 
Q 1534 4169 1293 3937 
Q 1053 3706 1053 3400 
Q 1053 3063 1334 2906 
Q 1519 2806 2169 2656 
L 2813 2509 
Q 3278 2403 3531 2219 
Q 3969 1897 3969 1284 
Q 3969 522 3414 194 
Q 2859 -134 2125 -134 
Q 1269 -134 784 303 
Q 300 738 309 1481 
L 894 1481 
z
M 2150 4716 
L 2150 4716 
z
" transform="scale(0.015625)"/>
      <path id="Helvetica-2d" d="M 266 2072 
L 1834 2072 
L 1834 1494 
L 266 1494 
L 266 2072 
z
" transform="scale(0.015625)"/>
      <path id="Helvetica-46" d="M 547 4591 
L 3731 4591 
L 3731 4028 
L 1169 4028 
L 1169 2634 
L 3422 2634 
L 3422 2088 
L 1169 2088 
L 1169 0 
L 547 0 
L 547 4591 
z
" transform="scale(0.015625)"/>
      <path id="Helvetica-4b" d="M 488 4591 
L 1094 4591 
L 1094 2353 
L 3331 4591 
L 4191 4591 
L 2281 2741 
L 4244 0 
L 3434 0 
L 1828 2303 
L 1094 1600 
L 1094 0 
L 488 0 
L 488 4591 
z
" transform="scale(0.015625)"/>
      <path id="Helvetica-5f" d="M 0 -800 
L 0 -484 
L 3559 -484 
L 3559 -800 
L 0 -800 
z
" transform="scale(0.015625)"/>
      <path id="Helvetica-4d" d="M 472 4591 
L 1363 4591 
L 2681 709 
L 3991 4591 
L 4872 4591 
L 4872 0 
L 4281 0 
L 4281 2709 
Q 4281 2850 4287 3175 
Q 4294 3500 4294 3872 
L 2984 0 
L 2369 0 
L 1050 3872 
L 1050 3731 
Q 1050 3563 1058 3217 
Q 1066 2872 1066 2709 
L 1066 0 
L 472 0 
L 472 4591 
z
" transform="scale(0.015625)"/>
      <path id="Helvetica-41" d="M 2844 1881 
L 2147 3909 
L 1406 1881 
L 2844 1881 
z
M 1822 4591 
L 2525 4591 
L 4191 0 
L 3509 0 
L 3044 1375 
L 1228 1375 
L 731 0 
L 94 0 
L 1822 4591 
z
" transform="scale(0.015625)"/>
      <path id="Helvetica-4c" d="M 488 4591 
L 1109 4591 
L 1109 547 
L 3434 547 
L 3434 0 
L 488 0 
L 488 4591 
z
" transform="scale(0.015625)"/>
      <path id="Helvetica-44" d="M 2250 531 
Q 2566 531 2769 597 
Q 3131 719 3363 1066 
Q 3547 1344 3628 1778 
Q 3675 2038 3675 2259 
Q 3675 3113 3336 3584 
Q 2997 4056 2244 4056 
L 1141 4056 
L 1141 531 
L 2250 531 
z
M 516 4591 
L 2375 4591 
Q 3322 4591 3844 3919 
Q 4309 3313 4309 2366 
Q 4309 1634 4034 1044 
Q 3550 0 2369 0 
L 516 0 
L 516 4591 
z
" transform="scale(0.015625)"/>
     </defs>
     <use xlink:href="#Helvetica-50"/>
     <use xlink:href="#Helvetica-53" x="66.699219"/>
     <use xlink:href="#Helvetica-2d" x="133.398438"/>
     <use xlink:href="#Helvetica-46" x="166.699219"/>
     <use xlink:href="#Helvetica-31" x="227.783203"/>
     <use xlink:href="#Helvetica-2d" x="283.398438"/>
     <use xlink:href="#Helvetica-31" x="316.699219"/>
     <use xlink:href="#Helvetica-30" x="372.314453"/>
     <use xlink:href="#Helvetica-4b" x="427.929688"/>
     <use xlink:href="#Helvetica-5f" x="494.628906"/>
     <use xlink:href="#Helvetica-4d" x="550.244141"/>
     <use xlink:href="#Helvetica-41" x="633.544922"/>
     <use xlink:href="#Helvetica-4c" x="700.244141"/>
     <use xlink:href="#Helvetica-44" x="755.859375"/>
     <use xlink:href="#Helvetica-49" x="828.076172"/>
    </g>
   </g>
   <g id="legend_1">
    <g id="patch_5">
     <path d="M 61 379.48 
L 142.460938 379.48 
Q 144.460938 379.48 144.460938 377.48 
L 144.460938 364.222188 
Q 144.460938 362.222188 142.460938 362.222188 
L 61 362.222188 
Q 59 362.222188 59 364.222188 
L 59 377.48 
Q 59 379.48 61 379.48 
z
" style="fill: #ffffff; opacity: 0.8; stroke: #cccccc; stroke-linejoin: miter"/>
    </g>
    <g id="line2d_16">
     <path d="M 63 369.895625 
L 73 369.895625 
L 83 369.895625 
" style="fill: none; stroke: #8286ff; stroke-width: 1.5; stroke-linecap: square"/>
    </g>
    <g id="text_28">
     <!-- PS-F1-10K -->
     <g transform="translate(91 373.395625) scale(0.1 -0.1)">
      <use xlink:href="#Helvetica-50"/>
      <use xlink:href="#Helvetica-53" x="66.699219"/>
      <use xlink:href="#Helvetica-2d" x="133.398438"/>
      <use xlink:href="#Helvetica-46" x="166.699219"/>
      <use xlink:href="#Helvetica-31" x="227.783203"/>
      <use xlink:href="#Helvetica-2d" x="283.398438"/>
      <use xlink:href="#Helvetica-31" x="316.699219"/>
      <use xlink:href="#Helvetica-30" x="372.314453"/>
      <use xlink:href="#Helvetica-4b" x="427.929688"/>
     </g>
    </g>
   </g>
  </g>
 </g>
 <defs>
  <clipPath id="pa9e0eb11b7">
   <rect x="54" y="51.84" width="334.8" height="332.64"/>
  </clipPath>
 </defs>
</svg>
