<?xml version="1.0" encoding="utf-8" standalone="no"?>
<!DOCTYPE svg PUBLIC "-//W3C//DTD SVG 1.1//EN"
  "http://www.w3.org/Graphics/SVG/1.1/DTD/svg11.dtd">
<svg xmlns:xlink="http://www.w3.org/1999/xlink" width="432pt" height="432pt" viewBox="0 0 432 432" xmlns="http://www.w3.org/2000/svg" version="1.1">
 <metadata>
  <rdf:RDF xmlns:dc="http://purl.org/dc/elements/1.1/" xmlns:cc="http://creativecommons.org/ns#" xmlns:rdf="http://www.w3.org/1999/02/22-rdf-syntax-ns#">
   <cc:Work>
    <dc:type rdf:resource="http://purl.org/dc/dcmitype/StillImage"/>
    <dc:date>2024-10-21T11:41:20.205885</dc:date>
    <dc:format>image/svg+xml</dc:format>
    <dc:creator>
     <cc:Agent>
      <dc:title>Matplotlib v3.7.1, https://matplotlib.org/</dc:title>
     </cc:Agent>
    </dc:creator>
   </cc:Work>
  </rdf:RDF>
 </metadata>
 <defs>
  <style type="text/css">*{stroke-linejoin: round; stroke-linecap: butt}</style>
 </defs>
 <g id="figure_1">
  <g id="patch_1">
   <path d="M 0 432 
L 432 432 
L 432 0 
L 0 0 
z
" style="fill: #ffffff"/>
  </g>
  <g id="axes_1">
   <g id="patch_2">
    <path d="M 54 384.48 
L 388.8 384.48 
L 388.8 51.84 
L 54 51.84 
z
" style="fill: #ffffff"/>
   </g>
   <g id="matplotlib.axis_1">
    <g id="xtick_1">
     <g id="line2d_1">
      <defs>
       <path id="m2e9017cb17" d="M 0 0 
L 0 -3.5 
" style="stroke: #000000; stroke-width: 0.8"/>
      </defs>
      <g>
       <use xlink:href="#m2e9017cb17" x="54" y="384.48" style="stroke: #000000; stroke-width: 0.8"/>
      </g>
     </g>
     <g id="text_1">
      <!-- 10000 -->
      <g transform="translate(37.317188 396.588125) scale(0.12 -0.12)">
       <defs>
        <path id="Helvetica-31" d="M 613 3169 
L 613 3600 
Q 1222 3659 1462 3798 
Q 1703 3938 1822 4456 
L 2266 4456 
L 2266 0 
L 1666 0 
L 1666 3169 
L 613 3169 
z
" transform="scale(0.015625)"/>
        <path id="Helvetica-30" d="M 1731 4475 
Q 2600 4475 2988 3759 
Q 3288 3206 3288 2244 
Q 3288 1331 3016 734 
Q 2622 -122 1728 -122 
Q 922 -122 528 578 
Q 200 1163 200 2147 
Q 200 2909 397 3456 
Q 766 4475 1731 4475 
z
M 1725 391 
Q 2163 391 2422 778 
Q 2681 1166 2681 2222 
Q 2681 2984 2493 3476 
Q 2306 3969 1766 3969 
Q 1269 3969 1039 3501 
Q 809 3034 809 2125 
Q 809 1441 956 1025 
Q 1181 391 1725 391 
z
" transform="scale(0.015625)"/>
       </defs>
       <use xlink:href="#Helvetica-31"/>
       <use xlink:href="#Helvetica-30" x="55.615234"/>
       <use xlink:href="#Helvetica-30" x="111.230469"/>
       <use xlink:href="#Helvetica-30" x="166.845703"/>
       <use xlink:href="#Helvetica-30" x="222.460938"/>
      </g>
     </g>
    </g>
    <g id="xtick_2">
     <g id="line2d_2">
      <g>
       <use xlink:href="#m2e9017cb17" x="120.96" y="384.48" style="stroke: #000000; stroke-width: 0.8"/>
      </g>
     </g>
     <g id="text_2">
      <!-- 10200 -->
      <g transform="translate(104.277188 396.588125) scale(0.12 -0.12)">
       <defs>
        <path id="Helvetica-32" d="M 200 0 
Q 231 578 439 1006 
Q 647 1434 1250 1784 
L 1850 2131 
Q 2253 2366 2416 2531 
Q 2672 2791 2672 3125 
Q 2672 3516 2437 3745 
Q 2203 3975 1813 3975 
Q 1234 3975 1013 3538 
Q 894 3303 881 2888 
L 309 2888 
Q 319 3472 525 3841 
Q 891 4491 1816 4491 
Q 2584 4491 2939 4075 
Q 3294 3659 3294 3150 
Q 3294 2613 2916 2231 
Q 2697 2009 2131 1694 
L 1703 1456 
Q 1397 1288 1222 1134 
Q 909 863 828 531 
L 3272 531 
L 3272 0 
L 200 0 
z
" transform="scale(0.015625)"/>
       </defs>
       <use xlink:href="#Helvetica-31"/>
       <use xlink:href="#Helvetica-30" x="55.615234"/>
       <use xlink:href="#Helvetica-32" x="111.230469"/>
       <use xlink:href="#Helvetica-30" x="166.845703"/>
       <use xlink:href="#Helvetica-30" x="222.460938"/>
      </g>
     </g>
    </g>
    <g id="xtick_3">
     <g id="line2d_3">
      <g>
       <use xlink:href="#m2e9017cb17" x="187.92" y="384.48" style="stroke: #000000; stroke-width: 0.8"/>
      </g>
     </g>
     <g id="text_3">
      <!-- 10400 -->
      <g transform="translate(171.237188 396.588125) scale(0.12 -0.12)">
       <defs>
        <path id="Helvetica-34" d="M 2116 1584 
L 2116 3613 
L 681 1584 
L 2116 1584 
z
M 2125 0 
L 2125 1094 
L 163 1094 
L 163 1644 
L 2213 4488 
L 2688 4488 
L 2688 1584 
L 3347 1584 
L 3347 1094 
L 2688 1094 
L 2688 0 
L 2125 0 
z
" transform="scale(0.015625)"/>
       </defs>
       <use xlink:href="#Helvetica-31"/>
       <use xlink:href="#Helvetica-30" x="55.615234"/>
       <use xlink:href="#Helvetica-34" x="111.230469"/>
       <use xlink:href="#Helvetica-30" x="166.845703"/>
       <use xlink:href="#Helvetica-30" x="222.460938"/>
      </g>
     </g>
    </g>
    <g id="xtick_4">
     <g id="line2d_4">
      <g>
       <use xlink:href="#m2e9017cb17" x="254.88" y="384.48" style="stroke: #000000; stroke-width: 0.8"/>
      </g>
     </g>
     <g id="text_4">
      <!-- 10600 -->
      <g transform="translate(238.197188 396.588125) scale(0.12 -0.12)">
       <defs>
        <path id="Helvetica-36" d="M 1872 4494 
Q 2622 4494 2917 4105 
Q 3213 3716 3213 3303 
L 2656 3303 
Q 2606 3569 2497 3719 
Q 2294 4000 1881 4000 
Q 1409 4000 1131 3564 
Q 853 3128 822 2316 
Q 1016 2600 1309 2741 
Q 1578 2866 1909 2866 
Q 2472 2866 2890 2506 
Q 3309 2147 3309 1434 
Q 3309 825 2912 354 
Q 2516 -116 1781 -116 
Q 1153 -116 697 361 
Q 241 838 241 1966 
Q 241 2800 444 3381 
Q 834 4494 1872 4494 
z
M 1831 384 
Q 2275 384 2495 682 
Q 2716 981 2716 1388 
Q 2716 1731 2519 2042 
Q 2322 2353 1803 2353 
Q 1441 2353 1167 2112 
Q 894 1872 894 1388 
Q 894 963 1142 673 
Q 1391 384 1831 384 
z
" transform="scale(0.015625)"/>
       </defs>
       <use xlink:href="#Helvetica-31"/>
       <use xlink:href="#Helvetica-30" x="55.615234"/>
       <use xlink:href="#Helvetica-36" x="111.230469"/>
       <use xlink:href="#Helvetica-30" x="166.845703"/>
       <use xlink:href="#Helvetica-30" x="222.460938"/>
      </g>
     </g>
    </g>
    <g id="xtick_5">
     <g id="line2d_5">
      <g>
       <use xlink:href="#m2e9017cb17" x="321.84" y="384.48" style="stroke: #000000; stroke-width: 0.8"/>
      </g>
     </g>
     <g id="text_5">
      <!-- 10800 -->
      <g transform="translate(305.157188 396.588125) scale(0.12 -0.12)">
       <defs>
        <path id="Helvetica-38" d="M 1741 2600 
Q 2113 2600 2322 2808 
Q 2531 3016 2531 3303 
Q 2531 3553 2331 3762 
Q 2131 3972 1722 3972 
Q 1316 3972 1134 3762 
Q 953 3553 953 3272 
Q 953 2956 1187 2778 
Q 1422 2600 1741 2600 
z
M 1775 384 
Q 2166 384 2423 595 
Q 2681 806 2681 1225 
Q 2681 1659 2415 1884 
Q 2150 2109 1734 2109 
Q 1331 2109 1076 1879 
Q 822 1650 822 1244 
Q 822 894 1055 639 
Q 1288 384 1775 384 
z
M 975 2384 
Q 741 2484 609 2619 
Q 363 2869 363 3269 
Q 363 3769 725 4128 
Q 1088 4488 1753 4488 
Q 2397 4488 2762 4148 
Q 3128 3809 3128 3356 
Q 3128 2938 2916 2678 
Q 2797 2531 2547 2391 
Q 2825 2263 2984 2097 
Q 3281 1784 3281 1284 
Q 3281 694 2884 283 
Q 2488 -128 1763 -128 
Q 1109 -128 657 226 
Q 206 581 206 1256 
Q 206 1653 400 1942 
Q 594 2231 975 2384 
z
" transform="scale(0.015625)"/>
       </defs>
       <use xlink:href="#Helvetica-31"/>
       <use xlink:href="#Helvetica-30" x="55.615234"/>
       <use xlink:href="#Helvetica-38" x="111.230469"/>
       <use xlink:href="#Helvetica-30" x="166.845703"/>
       <use xlink:href="#Helvetica-30" x="222.460938"/>
      </g>
     </g>
    </g>
    <g id="xtick_6">
     <g id="line2d_6">
      <g>
       <use xlink:href="#m2e9017cb17" x="388.8" y="384.48" style="stroke: #000000; stroke-width: 0.8"/>
      </g>
     </g>
     <g id="text_6">
      <!-- 11000 -->
      <g transform="translate(372.117188 396.588125) scale(0.12 -0.12)">
       <use xlink:href="#Helvetica-31"/>
       <use xlink:href="#Helvetica-31" x="55.615234"/>
       <use xlink:href="#Helvetica-30" x="111.230469"/>
       <use xlink:href="#Helvetica-30" x="166.845703"/>
       <use xlink:href="#Helvetica-30" x="222.460938"/>
      </g>
     </g>
    </g>
    <g id="text_7">
     <!-- m/z -->
     <g transform="translate(211.735313 411.6975) scale(0.12 -0.12)">
      <defs>
       <path id="Helvetica-6d" d="M 413 3347 
L 969 3347 
L 969 2872 
Q 1169 3119 1331 3231 
Q 1609 3422 1963 3422 
Q 2363 3422 2606 3225 
Q 2744 3113 2856 2894 
Q 3044 3163 3297 3292 
Q 3550 3422 3866 3422 
Q 4541 3422 4784 2934 
Q 4916 2672 4916 2228 
L 4916 0 
L 4331 0 
L 4331 2325 
Q 4331 2659 4164 2784 
Q 3997 2909 3756 2909 
Q 3425 2909 3186 2687 
Q 2947 2466 2947 1947 
L 2947 0 
L 2375 0 
L 2375 2184 
Q 2375 2525 2294 2681 
Q 2166 2916 1816 2916 
Q 1497 2916 1236 2669 
Q 975 2422 975 1775 
L 975 0 
L 413 0 
L 413 3347 
z
" transform="scale(0.015625)"/>
       <path id="Helvetica-2f" d="M 1456 4591 
L 1931 4591 
L 475 0 
L 0 0 
L 1456 4591 
z
" transform="scale(0.015625)"/>
       <path id="Helvetica-7a" d="M 163 444 
L 2147 2844 
L 309 2844 
L 309 3347 
L 2903 3347 
L 2903 2888 
L 931 503 
L 2963 503 
L 2963 0 
L 163 0 
L 163 444 
z
M 1609 3428 
L 1609 3428 
z
" transform="scale(0.015625)"/>
      </defs>
      <use xlink:href="#Helvetica-6d"/>
      <use xlink:href="#Helvetica-2f" x="83.300781"/>
      <use xlink:href="#Helvetica-7a" x="111.083984"/>
     </g>
    </g>
   </g>
   <g id="matplotlib.axis_2">
    <g id="ytick_1">
     <g id="line2d_7">
      <defs>
       <path id="m41fb39a697" d="M 0 0 
L 3.5 0 
" style="stroke: #000000; stroke-width: 0.8"/>
      </defs>
      <g>
       <use xlink:href="#m41fb39a697" x="54" y="354.24" style="stroke: #000000; stroke-width: 0.8"/>
      </g>
     </g>
     <g id="text_8">
      <!-- 0.0 -->
      <g transform="translate(33.82 358.544062) scale(0.12 -0.12)">
       <defs>
        <path id="Helvetica-2e" d="M 547 681 
L 1200 681 
L 1200 0 
L 547 0 
L 547 681 
z
" transform="scale(0.015625)"/>
       </defs>
       <use xlink:href="#Helvetica-30"/>
       <use xlink:href="#Helvetica-2e" x="55.615234"/>
       <use xlink:href="#Helvetica-30" x="83.398438"/>
      </g>
     </g>
    </g>
    <g id="ytick_2">
     <g id="line2d_8">
      <g>
       <use xlink:href="#m41fb39a697" x="54" y="293.76" style="stroke: #000000; stroke-width: 0.8"/>
      </g>
     </g>
     <g id="text_9">
      <!-- 0.2 -->
      <g transform="translate(33.82 298.064062) scale(0.12 -0.12)">
       <use xlink:href="#Helvetica-30"/>
       <use xlink:href="#Helvetica-2e" x="55.615234"/>
       <use xlink:href="#Helvetica-32" x="83.398438"/>
      </g>
     </g>
    </g>
    <g id="ytick_3">
     <g id="line2d_9">
      <g>
       <use xlink:href="#m41fb39a697" x="54" y="233.28" style="stroke: #000000; stroke-width: 0.8"/>
      </g>
     </g>
     <g id="text_10">
      <!-- 0.4 -->
      <g transform="translate(33.82 237.584062) scale(0.12 -0.12)">
       <use xlink:href="#Helvetica-30"/>
       <use xlink:href="#Helvetica-2e" x="55.615234"/>
       <use xlink:href="#Helvetica-34" x="83.398438"/>
      </g>
     </g>
    </g>
    <g id="ytick_4">
     <g id="line2d_10">
      <g>
       <use xlink:href="#m41fb39a697" x="54" y="172.8" style="stroke: #000000; stroke-width: 0.8"/>
      </g>
     </g>
     <g id="text_11">
      <!-- 0.6 -->
      <g transform="translate(33.82 177.104062) scale(0.12 -0.12)">
       <use xlink:href="#Helvetica-30"/>
       <use xlink:href="#Helvetica-2e" x="55.615234"/>
       <use xlink:href="#Helvetica-36" x="83.398438"/>
      </g>
     </g>
    </g>
    <g id="ytick_5">
     <g id="line2d_11">
      <g>
       <use xlink:href="#m41fb39a697" x="54" y="112.32" style="stroke: #000000; stroke-width: 0.8"/>
      </g>
     </g>
     <g id="text_12">
      <!-- 0.8 -->
      <g transform="translate(33.82 116.624062) scale(0.12 -0.12)">
       <use xlink:href="#Helvetica-30"/>
       <use xlink:href="#Helvetica-2e" x="55.615234"/>
       <use xlink:href="#Helvetica-38" x="83.398438"/>
      </g>
     </g>
    </g>
    <g id="ytick_6">
     <g id="line2d_12">
      <g>
       <use xlink:href="#m41fb39a697" x="54" y="51.84" style="stroke: #000000; stroke-width: 0.8"/>
      </g>
     </g>
     <g id="text_13">
      <!-- 1.0 -->
      <g transform="translate(33.82 56.144062) scale(0.12 -0.12)">
       <use xlink:href="#Helvetica-31"/>
       <use xlink:href="#Helvetica-2e" x="55.615234"/>
       <use xlink:href="#Helvetica-30" x="83.398438"/>
      </g>
     </g>
    </g>
    <g id="text_14">
     <!-- Normalized Intensity -->
     <g transform="translate(27.2475 272.511562) rotate(-90) scale(0.12 -0.12)">
      <defs>
       <path id="Helvetica-4e" d="M 488 4591 
L 1222 4591 
L 3541 872 
L 3541 4591 
L 4131 4591 
L 4131 0 
L 3434 0 
L 1081 3716 
L 1081 0 
L 488 0 
L 488 4591 
z
M 2269 4591 
L 2269 4591 
z
" transform="scale(0.015625)"/>
       <path id="Helvetica-6f" d="M 1741 363 
Q 2300 363 2508 786 
Q 2716 1209 2716 1728 
Q 2716 2197 2566 2491 
Q 2328 2953 1747 2953 
Q 1231 2953 997 2559 
Q 763 2166 763 1609 
Q 763 1075 997 719 
Q 1231 363 1741 363 
z
M 1763 3444 
Q 2409 3444 2856 3012 
Q 3303 2581 3303 1744 
Q 3303 934 2909 406 
Q 2516 -122 1688 -122 
Q 997 -122 590 345 
Q 184 813 184 1600 
Q 184 2444 612 2944 
Q 1041 3444 1763 3444 
z
M 1744 3428 
L 1744 3428 
z
" transform="scale(0.015625)"/>
       <path id="Helvetica-72" d="M 428 3347 
L 963 3347 
L 963 2769 
Q 1028 2938 1284 3180 
Q 1541 3422 1875 3422 
Q 1891 3422 1928 3419 
Q 1966 3416 2056 3406 
L 2056 2813 
Q 2006 2822 1964 2825 
Q 1922 2828 1872 2828 
Q 1447 2828 1219 2554 
Q 991 2281 991 1925 
L 991 0 
L 428 0 
L 428 3347 
z
" transform="scale(0.015625)"/>
       <path id="Helvetica-61" d="M 844 891 
Q 844 647 1022 506 
Q 1200 366 1444 366 
Q 1741 366 2019 503 
Q 2488 731 2488 1250 
L 2488 1703 
Q 2384 1638 2221 1594 
Q 2059 1550 1903 1531 
L 1563 1488 
Q 1256 1447 1103 1359 
Q 844 1213 844 891 
z
M 2206 2028 
Q 2400 2053 2466 2191 
Q 2503 2266 2503 2406 
Q 2503 2694 2298 2823 
Q 2094 2953 1713 2953 
Q 1272 2953 1088 2716 
Q 984 2584 953 2325 
L 428 2325 
Q 444 2944 830 3186 
Q 1216 3428 1725 3428 
Q 2316 3428 2684 3203 
Q 3050 2978 3050 2503 
L 3050 575 
Q 3050 488 3086 434 
Q 3122 381 3238 381 
Q 3275 381 3322 386 
Q 3369 391 3422 400 
L 3422 -16 
Q 3291 -53 3222 -62 
Q 3153 -72 3034 -72 
Q 2744 -72 2613 134 
Q 2544 244 2516 444 
Q 2344 219 2022 53 
Q 1700 -113 1313 -113 
Q 847 -113 551 170 
Q 256 453 256 878 
Q 256 1344 547 1600 
Q 838 1856 1309 1916 
L 2206 2028 
z
M 1741 3428 
L 1741 3428 
z
" transform="scale(0.015625)"/>
       <path id="Helvetica-6c" d="M 428 4591 
L 991 4591 
L 991 0 
L 428 0 
L 428 4591 
z
" transform="scale(0.015625)"/>
       <path id="Helvetica-69" d="M 413 3331 
L 984 3331 
L 984 0 
L 413 0 
L 413 3331 
z
M 413 4591 
L 984 4591 
L 984 3953 
L 413 3953 
L 413 4591 
z
" transform="scale(0.015625)"/>
       <path id="Helvetica-65" d="M 1806 3422 
Q 2163 3422 2497 3255 
Q 2831 3088 3006 2822 
Q 3175 2569 3231 2231 
Q 3281 2000 3281 1494 
L 828 1494 
Q 844 984 1069 676 
Q 1294 369 1766 369 
Q 2206 369 2469 659 
Q 2619 828 2681 1050 
L 3234 1050 
Q 3213 866 3089 639 
Q 2966 413 2813 269 
Q 2556 19 2178 -69 
Q 1975 -119 1719 -119 
Q 1094 -119 659 336 
Q 225 791 225 1609 
Q 225 2416 662 2919 
Q 1100 3422 1806 3422 
z
M 2703 1941 
Q 2669 2306 2544 2525 
Q 2313 2931 1772 2931 
Q 1384 2931 1121 2651 
Q 859 2372 844 1941 
L 2703 1941 
z
M 1753 3428 
L 1753 3428 
z
" transform="scale(0.015625)"/>
       <path id="Helvetica-64" d="M 769 1634 
Q 769 1097 997 734 
Q 1225 372 1728 372 
Q 2119 372 2370 708 
Q 2622 1044 2622 1672 
Q 2622 2306 2362 2611 
Q 2103 2916 1722 2916 
Q 1297 2916 1033 2591 
Q 769 2266 769 1634 
z
M 1616 3406 
Q 2000 3406 2259 3244 
Q 2409 3150 2600 2916 
L 2600 4606 
L 3141 4606 
L 3141 0 
L 2634 0 
L 2634 466 
Q 2438 156 2169 18 
Q 1900 -119 1553 -119 
Q 994 -119 584 351 
Q 175 822 175 1603 
Q 175 2334 548 2870 
Q 922 3406 1616 3406 
z
" transform="scale(0.015625)"/>
       <path id="Helvetica-20" transform="scale(0.015625)"/>
       <path id="Helvetica-49" d="M 628 4591 
L 1256 4591 
L 1256 0 
L 628 0 
L 628 4591 
z
" transform="scale(0.015625)"/>
       <path id="Helvetica-6e" d="M 413 3347 
L 947 3347 
L 947 2872 
Q 1184 3166 1450 3294 
Q 1716 3422 2041 3422 
Q 2753 3422 3003 2925 
Q 3141 2653 3141 2147 
L 3141 0 
L 2569 0 
L 2569 2109 
Q 2569 2416 2478 2603 
Q 2328 2916 1934 2916 
Q 1734 2916 1606 2875 
Q 1375 2806 1200 2600 
Q 1059 2434 1017 2257 
Q 975 2081 975 1753 
L 975 0 
L 413 0 
L 413 3347 
z
M 1734 3428 
L 1734 3428 
z
" transform="scale(0.015625)"/>
       <path id="Helvetica-74" d="M 525 4281 
L 1094 4281 
L 1094 3347 
L 1628 3347 
L 1628 2888 
L 1094 2888 
L 1094 703 
Q 1094 528 1213 469 
Q 1278 434 1431 434 
Q 1472 434 1519 436 
Q 1566 438 1628 444 
L 1628 0 
Q 1531 -28 1426 -40 
Q 1322 -53 1200 -53 
Q 806 -53 665 148 
Q 525 350 525 672 
L 525 2888 
L 72 2888 
L 72 3347 
L 525 3347 
L 525 4281 
z
" transform="scale(0.015625)"/>
       <path id="Helvetica-73" d="M 747 1050 
Q 772 769 888 619 
Q 1100 347 1625 347 
Q 1938 347 2175 483 
Q 2413 619 2413 903 
Q 2413 1119 2222 1231 
Q 2100 1300 1741 1391 
L 1294 1503 
Q 866 1609 663 1741 
Q 300 1969 300 2372 
Q 300 2847 642 3140 
Q 984 3434 1563 3434 
Q 2319 3434 2653 2991 
Q 2863 2709 2856 2384 
L 2325 2384 
Q 2309 2575 2191 2731 
Q 1997 2953 1519 2953 
Q 1200 2953 1036 2831 
Q 872 2709 872 2509 
Q 872 2291 1088 2159 
Q 1213 2081 1456 2022 
L 1828 1931 
Q 2434 1784 2641 1647 
Q 2969 1431 2969 969 
Q 2969 522 2630 197 
Q 2291 -128 1597 -128 
Q 850 -128 539 211 
Q 228 550 206 1050 
L 747 1050 
z
M 1578 3428 
L 1578 3428 
z
" transform="scale(0.015625)"/>
       <path id="Helvetica-79" d="M 2503 3347 
L 3125 3347 
Q 3006 3025 2597 1878 
Q 2291 1016 2084 472 
Q 1597 -809 1397 -1090 
Q 1197 -1372 709 -1372 
Q 591 -1372 527 -1362 
Q 463 -1353 369 -1328 
L 369 -816 
Q 516 -856 581 -865 
Q 647 -875 697 -875 
Q 853 -875 926 -823 
Q 1000 -772 1050 -697 
Q 1066 -672 1162 -440 
Q 1259 -209 1303 -97 
L 66 3347 
L 703 3347 
L 1600 622 
L 2503 3347 
z
M 1597 3428 
L 1597 3428 
z
" transform="scale(0.015625)"/>
      </defs>
      <use xlink:href="#Helvetica-4e"/>
      <use xlink:href="#Helvetica-6f" x="72.216797"/>
      <use xlink:href="#Helvetica-72" x="127.832031"/>
      <use xlink:href="#Helvetica-6d" x="161.132812"/>
      <use xlink:href="#Helvetica-61" x="244.433594"/>
      <use xlink:href="#Helvetica-6c" x="300.048828"/>
      <use xlink:href="#Helvetica-69" x="322.265625"/>
      <use xlink:href="#Helvetica-7a" x="344.482422"/>
      <use xlink:href="#Helvetica-65" x="394.482422"/>
      <use xlink:href="#Helvetica-64" x="450.097656"/>
      <use xlink:href="#Helvetica-20" x="505.712891"/>
      <use xlink:href="#Helvetica-49" x="533.496094"/>
      <use xlink:href="#Helvetica-6e" x="561.279297"/>
      <use xlink:href="#Helvetica-74" x="616.894531"/>
      <use xlink:href="#Helvetica-65" x="644.677734"/>
      <use xlink:href="#Helvetica-6e" x="700.292969"/>
      <use xlink:href="#Helvetica-73" x="755.908203"/>
      <use xlink:href="#Helvetica-69" x="805.908203"/>
      <use xlink:href="#Helvetica-74" x="828.125"/>
      <use xlink:href="#Helvetica-79" x="855.908203"/>
     </g>
    </g>
   </g>
   <g id="line2d_13">
    <path d="M 54.001507 352.05324 
L 54.242663 352.117556 
L 55.408202 352.021082 
L 55.589095 352.005002 
L 56.091563 352.101477 
L 56.312664 352.149714 
L 56.754902 352.246189 
L 56.955916 352.374822 
L 57.136842 352.471297 
L 57.579146 352.696405 
L 57.679653 352.792879 
L 57.961119 353.034066 
L 58.302917 353.178778 
L 58.423578 353.210936 
L 59.046909 353.307411 
L 59.469226 353.51644 
L 59.770881 353.612914 
L 59.992083 353.661152 
L 61.923109 353.564677 
L 62.12429 353.532519 
L 62.285229 353.548598 
L 62.48641 353.51644 
L 63.110142 353.612914 
L 63.311357 353.661152 
L 63.512572 353.612914 
L 63.733942 353.677231 
L 64.015676 353.580756 
L 64.458415 353.484281 
L 64.74015 353.387807 
L 65.142713 353.291332 
L 65.343961 353.243095 
L 65.505 353.243095 
L 65.746558 353.178778 
L 66.088758 353.082303 
L 66.20952 353.114462 
L 66.370592 353.210936 
L 66.773223 353.661152 
L 67.659103 355.735358 
L 67.719501 355.7032 
L 67.92085 354.545503 
L 68.142354 351.570866 
L 68.424255 343.386594 
L 68.665914 330.410745 
L 69.00828 300.358871 
L 69.511786 235.093725 
L 70.760624 65.941388 
L 71.062781 52.547481 
L 71.143367 51.84 
L 71.203798 52.065108 
L 71.344816 55.297011 
L 71.546299 65.71628 
L 71.888799 96.684664 
L 72.755195 201.874264 
L 73.379898 263.682399 
L 73.883739 294.570388 
L 74.367424 311.260514 
L 74.911641 321.293884 
L 75.637354 328.658121 
L 77.149445 336.472573 
L 78.177883 339.431131 
L 78.25857 339.527606 
L 78.621594 339.913505 
L 78.924119 339.81703 
L 79.186301 339.591922 
L 79.287176 339.382894 
L 79.85195 338.675412 
L 80.073856 338.771887 
L 80.618542 339.334656 
L 81.122918 340.347641 
L 81.344857 341.135518 
L 83.080259 347.615403 
L 84.109602 349.818242 
L 84.432583 349.914717 
L 84.836285 350.107666 
L 84.977604 350.107666 
L 86.229355 350.992018 
L 86.330297 351.024176 
L 87.461151 351.795974 
L 87.723667 351.892449 
L 87.90543 351.908528 
L 90.167808 351.812053 
L 90.36986 351.779895 
L 90.794152 351.876369 
L 91.036614 351.940686 
L 91.420529 352.037161 
L 91.561982 352.133635 
L 91.582204 352.117556 
L 91.885298 352.214031 
L 92.208648 352.342664 
L 92.612852 352.439139 
L 92.875603 352.519534 
L 93.198987 352.616009 
L 93.7043 352.889354 
L 94.209681 352.985829 
L 94.634207 353.194857 
L 94.998135 353.291332 
L 95.321619 353.436044 
L 95.503582 353.419965 
L 95.665358 353.51644 
L 95.867544 353.548598 
L 96.737086 353.645073 
L 97.040448 353.773706 
L 97.182002 353.789785 
L 97.343811 353.789785 
L 98.355141 353.69331 
L 98.496728 353.69331 
L 98.719236 353.741547 
L 99.305906 353.403886 
L 99.54867 353.307411 
L 100.094963 352.985829 
L 100.256838 352.985829 
L 100.924564 353.082303 
L 101.77452 353.87018 
L 102.422191 355.301222 
L 102.442413 355.236905 
L 102.725788 354.625899 
L 103.009162 351.892449 
L 103.211582 347.229504 
L 103.535501 333.256749 
L 103.899898 305.11829 
L 104.42627 242.763465 
L 105.600648 92.809596 
L 105.944923 75.894363 
L 106.086677 74.4794 
L 106.106933 74.591954 
L 106.228432 76.617923 
L 106.430952 85.734784 
L 106.755005 111.059397 
L 107.504421 194.124128 
L 108.213394 263.602004 
L 108.719846 294.731179 
L 109.14531 310.295766 
L 109.570807 319.525181 
L 110.158415 326.744706 
L 110.543435 329.622868 
L 111.232486 333.78736 
L 112.914823 340.009979 
L 113.279721 340.395878 
L 113.482476 340.444115 
L 113.624398 340.379799 
L 113.786575 340.411957 
L 113.98933 340.267245 
L 114.151541 340.17077 
L 114.334007 340.009979 
L 114.475962 339.977821 
L 115.165382 340.058217 
L 115.429004 340.283324 
L 115.530414 340.379799 
L 115.956314 341.231992 
L 118.633944 349.368027 
L 119.06001 350.107666 
L 119.344088 350.461407 
L 119.567299 350.734752 
L 120.724033 351.522629 
L 121.393834 351.426154 
L 121.556212 351.426154 
L 121.860679 351.538708 
L 122.246369 351.442233 
L 122.429069 351.426154 
L 122.896014 351.522629 
L 123.403571 351.812053 
L 123.505083 351.844211 
L 123.80965 351.956765 
L 123.992418 352.05324 
L 124.195474 352.181873 
L 124.418819 352.262268 
L 124.560975 352.310506 
L 124.764065 352.278347 
L 124.885898 352.262268 
L 125.190533 352.149714 
L 125.495167 352.262268 
L 126.652906 352.358743 
L 127.424888 352.841117 
L 127.526466 352.889354 
L 128.115647 353.227015 
L 129.334821 353.32349 
L 129.70059 353.484281 
L 130.147716 353.580756 
L 130.391617 353.773706 
L 130.574519 353.789785 
L 131.021677 353.69331 
L 131.184323 353.69331 
L 131.367258 353.789785 
L 131.590871 353.838022 
L 131.875451 353.741547 
L 132.078741 353.69331 
L 132.343033 353.773706 
L 132.831004 353.87018 
L 133.156295 353.998813 
L 133.888335 353.902338 
L 134.295051 353.709389 
L 134.742444 353.612914 
L 134.966157 353.564677 
L 135.250905 353.468202 
L 135.454296 353.436044 
L 136.18657 353.532519 
L 136.552741 353.950576 
L 136.979979 354.818848 
L 137.244438 355.558488 
L 137.264793 355.542409 
L 137.610675 355.815754 
L 137.631031 355.719279 
L 137.732743 355.124352 
L 138.017591 350.509644 
L 138.282117 341.907315 
L 138.648421 320.473849 
L 139.096116 276.835119 
L 140.683637 99.562827 
L 140.907551 94.915961 
L 140.927907 94.851645 
L 140.968619 95.044594 
L 141.050042 96.073658 
L 141.233278 102.215881 
L 141.579361 124.549778 
L 142.047612 170.873721 
L 142.984215 261.913696 
L 143.534024 295.117078 
L 144.083866 313.366878 
L 144.613386 323.126904 
L 145.102227 328.272222 
L 145.611458 331.761391 
L 145.937386 333.465778 
L 146.365193 335.732933 
L 146.956048 338.000089 
L 147.424668 339.382894 
L 147.689562 339.865267 
L 147.771052 339.945663 
L 148.300873 340.620986 
L 148.382397 340.637065 
L 148.402752 340.669223 
L 148.912251 340.974726 
L 149.116044 340.830014 
L 149.381005 340.926489 
L 149.645965 341.183755 
L 149.809046 341.167676 
L 149.972094 341.167676 
L 150.175954 341.264151 
L 150.400169 341.521416 
L 150.58364 341.617891 
L 150.909802 342.325372 
L 151.541804 344.367421 
L 153.315809 349.609214 
L 154.600704 351.442233 
L 154.702684 351.522629 
L 154.845476 351.603024 
L 154.865866 351.586945 
L 155.04947 351.603024 
L 156.232687 351.699499 
L 156.395902 351.699499 
L 157.191654 351.795974 
L 157.538541 351.940686 
L 157.640588 351.972844 
L 158.334427 352.390901 
L 158.497709 352.487376 
L 158.885474 352.664246 
L 159.048756 352.744642 
L 159.191616 352.808958 
L 159.354931 352.808958 
L 159.742763 352.985829 
L 160.008126 352.905433 
L 161.008441 353.001908 
L 161.151367 352.985829 
L 161.682226 353.082303 
L 161.906844 353.130541 
L 162.29481 353.227015 
L 162.601118 353.339569 
L 163.1525 353.436044 
L 163.438453 353.532519 
L 164.194164 353.628993 
L 164.520995 353.757626 
L 164.663988 353.773706 
L 164.827404 353.773706 
L 165.297263 353.87018 
L 165.460679 353.87018 
L 165.991872 353.966655 
L 166.277925 354.06313 
L 168.750691 353.966655 
L 169.016388 353.886259 
L 169.425213 353.789785 
L 169.690977 353.69331 
L 169.834071 353.677231 
L 170.242928 353.484281 
L 170.406478 353.387807 
L 170.631363 353.227015 
L 171.101623 353.307411 
L 172.205861 354.867086 
L 172.369444 354.802769 
L 172.696644 353.500361 
L 172.880717 351.361838 
L 173.146615 344.335262 
L 173.412513 332.002578 
L 173.821572 301.371855 
L 174.414804 235.238437 
L 175.335404 135.869478 
L 175.662771 119.983308 
L 175.846911 117.458887 
L 175.867367 117.507124 
L 175.90828 117.716152 
L 176.051507 120.49784 
L 176.256137 129.148406 
L 176.644907 157.608448 
L 178.282179 291.7887 
L 178.773431 310.022421 
L 179.203315 319.91108 
L 179.592252 325.538772 
L 180.288334 332.050815 
L 181.353065 338.032248 
L 181.74217 339.559764 
L 181.946934 339.849188 
L 182.008369 339.945663 
L 182.110785 340.122533 
L 182.397507 340.669223 
L 182.70472 341.135518 
L 182.786646 341.199834 
L 182.991476 341.4571 
L 183.093858 341.489258 
L 183.360158 341.569654 
L 183.503519 341.585733 
L 183.728873 341.63397 
L 183.872235 341.63397 
L 184.097588 341.714366 
L 184.240983 341.682208 
L 184.630222 341.859078 
L 185.080963 341.955553 
L 185.30635 342.261056 
L 185.941533 343.450911 
L 186.535803 345.123139 
L 188.175419 349.914717 
L 188.503389 350.41317 
L 188.995378 350.927701 
L 189.241355 351.120651 
L 189.507889 351.217126 
L 189.589882 351.217126 
L 189.610405 351.249284 
L 189.876939 351.329679 
L 190.081938 351.281442 
L 190.327982 351.345758 
L 190.512524 351.442233 
L 190.799615 351.538708 
L 191.045693 351.635183 
L 191.353274 351.747736 
L 191.455823 351.779895 
L 191.783927 351.908528 
L 191.989025 352.005002 
L 192.604321 352.358743 
L 193.794066 352.455218 
L 193.999198 352.487376 
L 195.066072 352.390901 
L 195.189178 352.40698 
L 196.071543 352.96975 
L 197.118195 353.066224 
L 198.555056 354.06313 
L 198.883528 354.159604 
L 199.109351 354.352554 
L 199.253047 354.368633 
L 200.176995 354.272158 
L 200.423407 354.207842 
L 202.189578 354.111367 
L 202.353898 354.014892 
L 202.559297 354.047051 
L 202.867414 353.966655 
L 203.01121 353.902338 
L 203.196087 353.918418 
L 204.100014 353.821943 
L 204.305447 353.789785 
L 204.469834 353.805864 
L 204.695824 353.757626 
L 204.921847 353.805864 
L 205.538314 353.902338 
L 205.723258 353.918418 
L 205.908201 354.014892 
L 206.421985 354.545503 
L 206.833053 355.365538 
L 207.059143 355.719279 
L 207.285234 355.445934 
L 207.30579 355.478092 
L 207.367461 355.397697 
L 207.572994 354.159604 
L 207.778562 351.3136 
L 208.066356 344.158392 
L 208.395263 329.108336 
L 208.765318 301.998941 
L 209.361563 240.882208 
L 210.184033 159.93992 
L 210.554187 143.089003 
L 210.739265 140.661056 
L 210.759822 140.693214 
L 210.800969 140.837926 
L 210.944899 143.201557 
L 211.13001 149.970866 
L 211.479642 171.066671 
L 212.343493 244.274902 
L 213.001776 288.363848 
L 213.474916 307.546237 
L 214.153857 324.139888 
L 214.668277 330.475061 
L 214.997486 333.079879 
L 215.717741 337.356925 
L 216.067607 338.675412 
L 216.232262 339.334656 
L 216.602718 340.556669 
L 217.117305 341.82692 
L 217.405501 342.470085 
L 217.673107 342.984616 
L 218.04363 343.161487 
L 218.249499 343.016775 
L 218.537728 342.936379 
L 218.8054 342.711271 
L 219.13481 342.807746 
L 219.258351 342.775588 
L 219.361302 342.679113 
L 219.670189 342.566559 
L 219.79373 342.646955 
L 220.370323 343.724256 
L 220.761603 344.608607 
L 220.864588 344.817636 
L 221.503051 346.489864 
L 221.66784 346.74713 
L 221.976793 347.422453 
L 222.306371 348.129935 
L 222.409389 348.322884 
L 223.047986 349.560976 
L 223.253988 349.834321 
L 223.727864 350.686515 
L 223.892686 350.943781 
L 224.655093 351.940686 
L 224.737521 352.021082 
L 224.96418 352.197952 
L 225.108446 352.294427 
L 225.767901 352.680325 
L 227.581781 352.7768 
L 227.994087 352.96975 
L 228.138419 352.985829 
L 228.385803 353.050145 
L 229.437376 353.130541 
L 229.602332 353.227015 
L 229.952901 353.082303 
L 230.159138 353.001908 
L 230.324094 352.921512 
L 231.06658 353.017987 
L 231.582239 353.291332 
L 231.726605 353.387807 
L 231.891628 353.468202 
L 232.056651 353.564677 
L 233.377001 354.481187 
L 233.603929 354.432949 
L 233.789642 354.449029 
L 235.584974 354.545503 
L 235.750097 354.545503 
L 236.513776 354.641978 
L 236.699556 354.658057 
L 237.690431 354.674136 
L 237.731711 354.272158 
L 237.814307 354.304316 
L 238.392406 354.207842 
L 238.722753 354.079209 
L 240.829147 354.175684 
L 241.428171 354.529424 
L 241.510766 354.529424 
L 241.531424 354.561582 
L 241.985881 355.076114 
L 242.151138 354.818848 
L 242.295772 354.272158 
L 242.729606 350.573961 
L 243.039497 342.244977 
L 243.45274 321.937049 
L 243.845327 291.901254 
L 245.291897 170.471743 
L 245.560574 163.429089 
L 245.663927 162.705529 
L 245.725932 162.86632 
L 245.870599 165.181713 
L 246.118619 173.655409 
L 246.55272 199.880453 
L 248.144561 303.944514 
L 248.516758 315.634034 
L 249.012998 325.651326 
L 249.426577 330.989593 
L 250.150414 335.765092 
L 251.287998 340.54059 
L 251.515528 341.328467 
L 251.846511 342.19674 
L 252.467163 342.984616 
L 252.549926 343.081091 
L 252.860252 343.531306 
L 253.398209 343.820731 
L 253.770674 343.740335 
L 253.936199 343.627781 
L 253.956889 343.64386 
L 254.122448 343.627781 
L 254.267283 343.627781 
L 254.432841 343.547386 
L 254.577709 343.547386 
L 254.722577 343.547386 
L 254.908826 343.64386 
L 255.219286 344.01368 
L 255.509056 344.431737 
L 255.73672 344.73724 
L 256.130009 345.605513 
L 256.419812 346.554181 
L 257.289254 348.901732 
L 258.987092 351.345758 
L 259.794764 351.844211 
L 259.981147 351.940686 
L 260.312532 352.069319 
L 261.555343 352.165794 
L 263.399287 353.484281 
L 263.544323 353.500361 
L 263.917323 353.596835 
L 264.207428 353.69331 
L 264.373221 353.69331 
L 265.05715 353.596835 
L 265.347321 353.484281 
L 265.513114 353.500361 
L 265.782595 353.419965 
L 265.969145 353.436044 
L 266.487382 353.532519 
L 266.798311 353.645073 
L 267.523956 353.741547 
L 267.814228 353.854101 
L 268.063018 353.789785 
L 268.353323 353.886259 
L 268.53994 353.902338 
L 269.265753 353.998813 
L 269.680537 354.191763 
L 269.825706 354.191763 
L 270.053839 354.24 
L 270.219766 354.159604 
L 270.489414 354.24 
L 270.655341 354.24 
L 270.862783 354.272158 
L 273.124122 354.175684 
L 273.559865 353.966655 
L 273.725892 353.886259 
L 273.954159 353.725468 
L 274.182425 353.677231 
L 275.303168 353.773706 
L 275.531468 353.821943 
L 275.656014 353.838022 
L 276.112681 354.320396 
L 276.90157 355.52633 
L 276.963843 355.462013 
L 277.379062 353.838022 
L 277.545156 352.197952 
L 277.835863 346.650656 
L 278.147328 335.668617 
L 278.666435 305.327319 
L 279.455592 239.885302 
L 280.057897 197.516822 
L 280.431769 184.95903 
L 280.59793 183.704859 
L 280.618721 183.753096 
L 280.743333 184.814318 
L 280.951077 189.879241 
L 281.241884 203.112356 
L 281.948245 248.455473 
L 282.883208 302.19189 
L 283.465023 320.136188 
L 283.901401 327.629057 
L 284.400186 332.436714 
L 284.919763 336.295703 
L 285.605701 339.415052 
L 286.68667 343.193645 
L 286.977711 343.820731 
L 287.247995 344.3835 
L 287.268786 344.367421 
L 288.225243 344.978427 
L 288.537176 345.058823 
L 288.682747 345.090981 
L 288.849109 345.026665 
L 289.077878 345.074902 
L 290.013778 345.171377 
L 290.36736 345.525117 
L 290.908196 346.071807 
L 291.46989 347.133029 
L 293.592187 351.795974 
L 293.75865 352.05324 
L 294.237314 352.59993 
L 294.382985 352.696405 
L 295.049003 353.082303 
L 295.548558 352.985829 
L 295.715087 352.96975 
L 295.964882 353.034066 
L 297.567971 353.130541 
L 297.921955 353.275253 
L 298.067727 353.275253 
L 298.484185 353.468202 
L 298.983974 353.371728 
L 299.129779 353.339569 
L 300.587766 353.436044 
L 300.796046 353.564677 
L 301.108514 353.677231 
L 301.525173 353.773706 
L 301.921041 353.950576 
L 304.213182 354.047051 
L 304.442419 354.095288 
L 305.192773 354.191763 
L 305.422078 354.24 
L 307.882155 354.143525 
L 308.194958 354.030971 
L 309.070828 353.934497 
L 309.383666 353.805864 
L 309.696503 353.918418 
L 310.217954 354.014892 
L 310.676864 354.24 
L 310.82287 354.336475 
L 311.46957 354.96356 
L 311.678217 355.092193 
L 311.928581 355.011798 
L 312.22066 354.368633 
L 312.387592 353.082303 
L 312.637989 349.834321 
L 312.930102 342.486164 
L 313.326572 325.860354 
L 313.910898 287.96187 
L 314.996219 214.271265 
L 315.330182 204.752426 
L 315.518039 203.739442 
L 315.643287 204.736347 
L 315.852035 209.43145 
L 316.248673 226.185892 
L 316.895874 264.679305 
L 317.584893 300.889482 
L 318.086055 317.402737 
L 318.545468 327.532583 
L 318.942239 332.677901 
L 319.714991 338.321672 
L 320.111863 339.865267 
L 320.487843 341.103359 
L 321.386112 343.531306 
L 321.741301 344.270946 
L 322.012891 344.801557 
L 322.117382 344.881952 
L 322.577029 345.412563 
L 323.120342 345.509038 
L 323.266616 345.492959 
L 323.830855 345.187456 
L 324.248819 345.28393 
L 324.813158 345.8467 
L 326.882691 349.207236 
L 327.154515 349.689609 
L 327.321781 349.946875 
L 328.471852 351.522629 
L 330.709823 353.371728 
L 330.898081 353.468202 
L 332.341672 353.564677 
L 332.571813 353.612914 
L 333.86923 353.51644 
L 334.057589 353.500361 
L 334.392456 353.596835 
L 334.580814 353.612914 
L 334.999448 353.51644 
L 335.145956 353.51644 
L 335.48089 353.645073 
L 337.344119 353.741547 
L 337.63727 353.838022 
L 337.867613 353.934497 
L 338.328297 354.175684 
L 338.474873 354.175684 
L 338.726174 354.24 
L 339.752436 354.143525 
L 340.255138 353.886259 
L 340.54839 353.789785 
L 340.736916 353.773706 
L 341.114001 353.854101 
L 341.302527 353.950576 
L 341.805363 354.207842 
L 343.984609 354.111367 
L 344.319945 353.982734 
L 344.508571 353.886259 
L 344.697198 353.87018 
L 344.927775 353.918418 
L 345.095442 353.918418 
L 345.472762 354.014892 
L 346.562871 354.722374 
L 346.835398 354.625899 
L 347.003133 354.400791 
L 347.275693 352.95367 
L 347.569246 349.271552 
L 347.904749 341.119439 
L 348.324153 323.73791 
L 349.037177 279.070116 
L 349.834168 232.826569 
L 350.19073 222.648486 
L 350.379524 221.072732 
L 350.400482 221.104891 
L 350.421474 221.088812 
L 350.442433 221.169207 
L 350.589276 222.744961 
L 350.799062 227.50438 
L 351.197641 243.326234 
L 352.792193 316.341515 
L 353.358775 328.368697 
L 353.925391 334.655632 
L 355.24765 342.100265 
L 355.478561 342.904221 
L 355.751457 343.659939 
L 357.011075 346.280836 
L 357.703943 346.698893 
L 357.976939 346.618497 
L 358.417904 346.522023 
L 358.942938 346.232599 
L 359.089948 346.216519 
L 359.257951 346.20044 
L 359.53098 346.280836 
L 359.677991 346.248678 
L 360.203091 346.763209 
L 360.665216 347.567165 
L 360.833286 347.808352 
L 361.736609 349.625293 
L 361.84167 349.802163 
L 362.261877 350.734752 
L 363.24947 352.069319 
L 363.333505 352.149714 
L 363.543659 352.278347 
L 364.132103 352.59993 
L 364.67853 352.696405 
L 365.014837 352.841117 
L 365.182974 352.825037 
L 365.960748 353.291332 
L 366.128918 353.275253 
L 366.276062 353.275253 
L 366.444266 353.259174 
L 366.59141 353.243095 
L 366.990894 353.339569 
L 367.243165 353.403886 
L 367.453453 353.371728 
L 367.726784 353.452123 
L 368.021174 353.355648 
L 369.156748 353.452123 
L 369.430146 353.532519 
L 369.661493 353.484281 
L 370.040085 353.564677 
L 370.208355 353.628993 
L 370.397685 353.612914 
L 370.77631 353.709389 
L 371.112884 353.838022 
L 372.080657 353.741547 
L 372.227936 353.757626 
L 372.375214 353.741547 
L 372.627687 353.677231 
L 373.574602 353.773706 
L 374.142791 354.079209 
L 374.58476 354.175684 
L 374.837333 354.24 
L 377.826696 354.143525 
L 378.121487 354.047051 
L 380.69091 354.143525 
L 381.554593 354.706294 
L 381.975972 353.886259 
L 382.16557 352.728563 
L 382.397352 350.461407 
L 382.692311 345.621592 
L 383.092664 333.932072 
L 383.661624 307.144259 
L 384.841827 248.905688 
L 385.157979 242.84386 
L 385.305525 242.1203 
L 385.326584 242.152458 
L 385.431979 242.602673 
L 385.621677 245.062779 
L 385.958954 254.195719 
L 386.485963 276.481378 
L 387.455778 314.540654 
L 387.940736 325.828196 
L 388.636584 335.266639 
L 388.784197 336.536889 
L 388.784197 336.536889 
" clip-path="url(#peb7c82e630)" style="fill: none; stroke: #8286ff; stroke-width: 1.5; stroke-linecap: square"/>
   </g>
   <g id="line2d_14">
    <defs>
     <path id="m40a3360ce2" d="M -3 3 
L 3 -3 
M -3 -3 
L 3 3 
" style="stroke: #ff0000"/>
    </defs>
    <g clip-path="url(#peb7c82e630)">
     <use xlink:href="#m40a3360ce2" x="71.143367" y="51.84" style="fill: #ff0000; stroke: #ff0000"/>
     <use xlink:href="#m40a3360ce2" x="106.086677" y="74.4794" style="fill: #ff0000; stroke: #ff0000"/>
     <use xlink:href="#m40a3360ce2" x="140.927907" y="94.851645" style="fill: #ff0000; stroke: #ff0000"/>
     <use xlink:href="#m40a3360ce2" x="175.846911" y="117.458887" style="fill: #ff0000; stroke: #ff0000"/>
     <use xlink:href="#m40a3360ce2" x="210.739265" y="140.661056" style="fill: #ff0000; stroke: #ff0000"/>
     <use xlink:href="#m40a3360ce2" x="245.663927" y="162.705529" style="fill: #ff0000; stroke: #ff0000"/>
     <use xlink:href="#m40a3360ce2" x="280.59793" y="183.704859" style="fill: #ff0000; stroke: #ff0000"/>
     <use xlink:href="#m40a3360ce2" x="315.476289" y="203.739442" style="fill: #ff0000; stroke: #ff0000"/>
     <use xlink:href="#m40a3360ce2" x="315.518039" y="203.739442" style="fill: #ff0000; stroke: #ff0000"/>
     <use xlink:href="#m40a3360ce2" x="350.379524" y="221.072732" style="fill: #ff0000; stroke: #ff0000"/>
     <use xlink:href="#m40a3360ce2" x="385.305525" y="242.1203" style="fill: #ff0000; stroke: #ff0000"/>
    </g>
   </g>
   <g id="patch_3">
    <path d="M 54 384.48 
L 54 51.84 
" style="fill: none; stroke: #000000; stroke-width: 0.5; stroke-linejoin: miter; stroke-linecap: square"/>
   </g>
   <g id="patch_4">
    <path d="M 54 384.48 
L 388.8 384.48 
" style="fill: none; stroke: #000000; stroke-width: 0.5; stroke-linejoin: miter; stroke-linecap: square"/>
   </g>
   <g id="text_15">
    <!-- 10051.20 -->
    <g transform="translate(71.143367 45.792) scale(0.08 -0.08)">
     <defs>
      <path id="Helvetica-35" d="M 791 1141 
Q 847 659 1238 475 
Q 1438 381 1700 381 
Q 2200 381 2440 700 
Q 2681 1019 2681 1406 
Q 2681 1875 2395 2131 
Q 2109 2388 1709 2388 
Q 1419 2388 1211 2275 
Q 1003 2163 856 1963 
L 369 1991 
L 709 4400 
L 3034 4400 
L 3034 3856 
L 1131 3856 
L 941 2613 
Q 1097 2731 1238 2791 
Q 1488 2894 1816 2894 
Q 2431 2894 2859 2497 
Q 3288 2100 3288 1491 
Q 3288 856 2895 371 
Q 2503 -113 1644 -113 
Q 1097 -113 676 195 
Q 256 503 206 1141 
L 791 1141 
z
" transform="scale(0.015625)"/>
     </defs>
     <use xlink:href="#Helvetica-31"/>
     <use xlink:href="#Helvetica-30" x="55.615234"/>
     <use xlink:href="#Helvetica-30" x="111.230469"/>
     <use xlink:href="#Helvetica-35" x="166.845703"/>
     <use xlink:href="#Helvetica-31" x="222.460938"/>
     <use xlink:href="#Helvetica-2e" x="278.076172"/>
     <use xlink:href="#Helvetica-32" x="305.859375"/>
     <use xlink:href="#Helvetica-30" x="361.474609"/>
    </g>
   </g>
   <g id="text_16">
    <!-- 10155.58 -->
    <g transform="translate(106.086677 68.4314) scale(0.08 -0.08)">
     <use xlink:href="#Helvetica-31"/>
     <use xlink:href="#Helvetica-30" x="55.615234"/>
     <use xlink:href="#Helvetica-31" x="111.230469"/>
     <use xlink:href="#Helvetica-35" x="166.845703"/>
     <use xlink:href="#Helvetica-35" x="222.460938"/>
     <use xlink:href="#Helvetica-2e" x="278.076172"/>
     <use xlink:href="#Helvetica-35" x="305.859375"/>
     <use xlink:href="#Helvetica-38" x="361.474609"/>
    </g>
   </g>
   <g id="text_17">
    <!-- 10259.64 -->
    <g transform="translate(140.927907 88.803645) scale(0.08 -0.08)">
     <defs>
      <path id="Helvetica-39" d="M 850 1081 
Q 875 616 1209 438 
Q 1381 344 1597 344 
Q 2000 344 2284 680 
Q 2569 1016 2688 2044 
Q 2500 1747 2223 1626 
Q 1947 1506 1628 1506 
Q 981 1506 604 1909 
Q 228 2313 228 2947 
Q 228 3556 600 4018 
Q 972 4481 1697 4481 
Q 2675 4481 3047 3600 
Q 3253 3116 3253 2388 
Q 3253 1566 3006 931 
Q 2597 -125 1619 -125 
Q 963 -125 622 219 
Q 281 563 281 1081 
L 850 1081 
z
M 1703 2000 
Q 2038 2000 2314 2220 
Q 2591 2441 2591 2991 
Q 2591 3484 2342 3726 
Q 2094 3969 1709 3969 
Q 1297 3969 1055 3692 
Q 813 3416 813 2953 
Q 813 2516 1025 2258 
Q 1238 2000 1703 2000 
z
" transform="scale(0.015625)"/>
     </defs>
     <use xlink:href="#Helvetica-31"/>
     <use xlink:href="#Helvetica-30" x="55.615234"/>
     <use xlink:href="#Helvetica-32" x="111.230469"/>
     <use xlink:href="#Helvetica-35" x="166.845703"/>
     <use xlink:href="#Helvetica-39" x="222.460938"/>
     <use xlink:href="#Helvetica-2e" x="278.076172"/>
     <use xlink:href="#Helvetica-36" x="305.859375"/>
     <use xlink:href="#Helvetica-34" x="361.474609"/>
    </g>
   </g>
   <g id="text_18">
    <!-- 10363.94 -->
    <g transform="translate(175.846911 111.410887) scale(0.08 -0.08)">
     <defs>
      <path id="Helvetica-33" d="M 1663 -122 
Q 869 -122 511 314 
Q 153 750 153 1375 
L 741 1375 
Q 778 941 903 744 
Q 1122 391 1694 391 
Q 2138 391 2406 628 
Q 2675 866 2675 1241 
Q 2675 1703 2392 1887 
Q 2109 2072 1606 2072 
Q 1550 2072 1492 2070 
Q 1434 2069 1375 2066 
L 1375 2563 
Q 1463 2553 1522 2550 
Q 1581 2547 1650 2547 
Q 1966 2547 2169 2647 
Q 2525 2822 2525 3272 
Q 2525 3606 2287 3787 
Q 2050 3969 1734 3969 
Q 1172 3969 956 3594 
Q 838 3388 822 3006 
L 266 3006 
Q 266 3506 466 3856 
Q 809 4481 1675 4481 
Q 2359 4481 2734 4176 
Q 3109 3872 3109 3294 
Q 3109 2881 2888 2625 
Q 2750 2466 2531 2375 
Q 2884 2278 3082 2001 
Q 3281 1725 3281 1325 
Q 3281 684 2859 281 
Q 2438 -122 1663 -122 
z
" transform="scale(0.015625)"/>
     </defs>
     <use xlink:href="#Helvetica-31"/>
     <use xlink:href="#Helvetica-30" x="55.615234"/>
     <use xlink:href="#Helvetica-33" x="111.230469"/>
     <use xlink:href="#Helvetica-36" x="166.845703"/>
     <use xlink:href="#Helvetica-33" x="222.460938"/>
     <use xlink:href="#Helvetica-2e" x="278.076172"/>
     <use xlink:href="#Helvetica-39" x="305.859375"/>
     <use xlink:href="#Helvetica-34" x="361.474609"/>
    </g>
   </g>
   <g id="text_19">
    <!-- 10468.16 -->
    <g transform="translate(210.739265 134.613056) scale(0.08 -0.08)">
     <use xlink:href="#Helvetica-31"/>
     <use xlink:href="#Helvetica-30" x="55.615234"/>
     <use xlink:href="#Helvetica-34" x="111.230469"/>
     <use xlink:href="#Helvetica-36" x="166.845703"/>
     <use xlink:href="#Helvetica-38" x="222.460938"/>
     <use xlink:href="#Helvetica-2e" x="278.076172"/>
     <use xlink:href="#Helvetica-31" x="305.859375"/>
     <use xlink:href="#Helvetica-36" x="361.474609"/>
    </g>
   </g>
   <g id="text_20">
    <!-- 10572.47 -->
    <g transform="translate(245.663927 156.657529) scale(0.08 -0.08)">
     <defs>
      <path id="Helvetica-37" d="M 3347 4400 
L 3347 3909 
Q 3131 3700 2773 3181 
Q 2416 2663 2141 2063 
Q 1869 1478 1728 997 
Q 1638 688 1494 0 
L 872 0 
Q 1084 1281 1809 2550 
Q 2238 3294 2709 3834 
L 234 3834 
L 234 4400 
L 3347 4400 
z
" transform="scale(0.015625)"/>
     </defs>
     <use xlink:href="#Helvetica-31"/>
     <use xlink:href="#Helvetica-30" x="55.615234"/>
     <use xlink:href="#Helvetica-35" x="111.230469"/>
     <use xlink:href="#Helvetica-37" x="166.845703"/>
     <use xlink:href="#Helvetica-32" x="222.460938"/>
     <use xlink:href="#Helvetica-2e" x="278.076172"/>
     <use xlink:href="#Helvetica-34" x="305.859375"/>
     <use xlink:href="#Helvetica-37" x="361.474609"/>
    </g>
   </g>
   <g id="text_21">
    <!-- 10676.82 -->
    <g transform="translate(280.59793 177.656859) scale(0.08 -0.08)">
     <use xlink:href="#Helvetica-31"/>
     <use xlink:href="#Helvetica-30" x="55.615234"/>
     <use xlink:href="#Helvetica-36" x="111.230469"/>
     <use xlink:href="#Helvetica-37" x="166.845703"/>
     <use xlink:href="#Helvetica-36" x="222.460938"/>
     <use xlink:href="#Helvetica-2e" x="278.076172"/>
     <use xlink:href="#Helvetica-38" x="305.859375"/>
     <use xlink:href="#Helvetica-32" x="361.474609"/>
    </g>
   </g>
   <g id="text_22">
    <!-- 10780.99 -->
    <g transform="translate(315.476289 197.691442) scale(0.08 -0.08)">
     <use xlink:href="#Helvetica-31"/>
     <use xlink:href="#Helvetica-30" x="55.615234"/>
     <use xlink:href="#Helvetica-37" x="111.230469"/>
     <use xlink:href="#Helvetica-38" x="166.845703"/>
     <use xlink:href="#Helvetica-30" x="222.460938"/>
     <use xlink:href="#Helvetica-2e" x="278.076172"/>
     <use xlink:href="#Helvetica-39" x="305.859375"/>
     <use xlink:href="#Helvetica-39" x="361.474609"/>
    </g>
   </g>
   <g id="text_23">
    <!-- 10781.12 -->
    <g transform="translate(315.518039 197.691442) scale(0.08 -0.08)">
     <use xlink:href="#Helvetica-31"/>
     <use xlink:href="#Helvetica-30" x="55.615234"/>
     <use xlink:href="#Helvetica-37" x="111.230469"/>
     <use xlink:href="#Helvetica-38" x="166.845703"/>
     <use xlink:href="#Helvetica-31" x="222.460938"/>
     <use xlink:href="#Helvetica-2e" x="278.076172"/>
     <use xlink:href="#Helvetica-31" x="305.859375"/>
     <use xlink:href="#Helvetica-32" x="361.474609"/>
    </g>
   </g>
   <g id="text_24">
    <!-- 10885.24 -->
    <g transform="translate(350.379524 215.024732) scale(0.08 -0.08)">
     <use xlink:href="#Helvetica-31"/>
     <use xlink:href="#Helvetica-30" x="55.615234"/>
     <use xlink:href="#Helvetica-38" x="111.230469"/>
     <use xlink:href="#Helvetica-38" x="166.845703"/>
     <use xlink:href="#Helvetica-35" x="222.460938"/>
     <use xlink:href="#Helvetica-2e" x="278.076172"/>
     <use xlink:href="#Helvetica-32" x="305.859375"/>
     <use xlink:href="#Helvetica-34" x="361.474609"/>
    </g>
   </g>
   <g id="text_25">
    <!-- 10989.56 -->
    <g transform="translate(385.305525 236.0723) scale(0.08 -0.08)">
     <use xlink:href="#Helvetica-31"/>
     <use xlink:href="#Helvetica-30" x="55.615234"/>
     <use xlink:href="#Helvetica-39" x="111.230469"/>
     <use xlink:href="#Helvetica-38" x="166.845703"/>
     <use xlink:href="#Helvetica-39" x="222.460938"/>
     <use xlink:href="#Helvetica-2e" x="278.076172"/>
     <use xlink:href="#Helvetica-35" x="305.859375"/>
     <use xlink:href="#Helvetica-36" x="361.474609"/>
    </g>
   </g>
   <g id="text_26">
    <!-- PS-F1-10K_MALDI -->
    <g transform="translate(152.93375 31.84) scale(0.16 -0.16)">
     <defs>
      <path id="Helvetica-50" d="M 547 4591 
L 2613 4591 
Q 3225 4591 3600 4245 
Q 3975 3900 3975 3275 
Q 3975 2738 3640 2339 
Q 3306 1941 2613 1941 
L 1169 1941 
L 1169 0 
L 547 0 
L 547 4591 
z
M 3347 3272 
Q 3347 3778 2972 3959 
Q 2766 4056 2406 4056 
L 1169 4056 
L 1169 2466 
L 2406 2466 
Q 2825 2466 3086 2644 
Q 3347 2822 3347 3272 
z
" transform="scale(0.015625)"/>
      <path id="Helvetica-53" d="M 894 1481 
Q 916 1091 1078 847 
Q 1388 391 2169 391 
Q 2519 391 2806 491 
Q 3363 684 3363 1184 
Q 3363 1559 3128 1719 
Q 2891 1875 2384 1991 
L 1763 2131 
Q 1153 2269 900 2434 
Q 463 2722 463 3294 
Q 463 3913 891 4309 
Q 1319 4706 2103 4706 
Q 2825 4706 3329 4357 
Q 3834 4009 3834 3244 
L 3250 3244 
Q 3203 3613 3050 3809 
Q 2766 4169 2084 4169 
Q 1534 4169 1293 3937 
Q 1053 3706 1053 3400 
Q 1053 3063 1334 2906 
Q 1519 2806 2169 2656 
L 2813 2509 
Q 3278 2403 3531 2219 
Q 3969 1897 3969 1284 
Q 3969 522 3414 194 
Q 2859 -134 2125 -134 
Q 1269 -134 784 303 
Q 300 738 309 1481 
L 894 1481 
z
M 2150 4716 
L 2150 4716 
z
" transform="scale(0.015625)"/>
      <path id="Helvetica-2d" d="M 266 2072 
L 1834 2072 
L 1834 1494 
L 266 1494 
L 266 2072 
z
" transform="scale(0.015625)"/>
      <path id="Helvetica-46" d="M 547 4591 
L 3731 4591 
L 3731 4028 
L 1169 4028 
L 1169 2634 
L 3422 2634 
L 3422 2088 
L 1169 2088 
L 1169 0 
L 547 0 
L 547 4591 
z
" transform="scale(0.015625)"/>
      <path id="Helvetica-4b" d="M 488 4591 
L 1094 4591 
L 1094 2353 
L 3331 4591 
L 4191 4591 
L 2281 2741 
L 4244 0 
L 3434 0 
L 1828 2303 
L 1094 1600 
L 1094 0 
L 488 0 
L 488 4591 
z
" transform="scale(0.015625)"/>
      <path id="Helvetica-5f" d="M 0 -800 
L 0 -484 
L 3559 -484 
L 3559 -800 
L 0 -800 
z
" transform="scale(0.015625)"/>
      <path id="Helvetica-4d" d="M 472 4591 
L 1363 4591 
L 2681 709 
L 3991 4591 
L 4872 4591 
L 4872 0 
L 4281 0 
L 4281 2709 
Q 4281 2850 4287 3175 
Q 4294 3500 4294 3872 
L 2984 0 
L 2369 0 
L 1050 3872 
L 1050 3731 
Q 1050 3563 1058 3217 
Q 1066 2872 1066 2709 
L 1066 0 
L 472 0 
L 472 4591 
z
" transform="scale(0.015625)"/>
      <path id="Helvetica-41" d="M 2844 1881 
L 2147 3909 
L 1406 1881 
L 2844 1881 
z
M 1822 4591 
L 2525 4591 
L 4191 0 
L 3509 0 
L 3044 1375 
L 1228 1375 
L 731 0 
L 94 0 
L 1822 4591 
z
" transform="scale(0.015625)"/>
      <path id="Helvetica-4c" d="M 488 4591 
L 1109 4591 
L 1109 547 
L 3434 547 
L 3434 0 
L 488 0 
L 488 4591 
z
" transform="scale(0.015625)"/>
      <path id="Helvetica-44" d="M 2250 531 
Q 2566 531 2769 597 
Q 3131 719 3363 1066 
Q 3547 1344 3628 1778 
Q 3675 2038 3675 2259 
Q 3675 3113 3336 3584 
Q 2997 4056 2244 4056 
L 1141 4056 
L 1141 531 
L 2250 531 
z
M 516 4591 
L 2375 4591 
Q 3322 4591 3844 3919 
Q 4309 3313 4309 2366 
Q 4309 1634 4034 1044 
Q 3550 0 2369 0 
L 516 0 
L 516 4591 
z
" transform="scale(0.015625)"/>
     </defs>
     <use xlink:href="#Helvetica-50"/>
     <use xlink:href="#Helvetica-53" x="66.699219"/>
     <use xlink:href="#Helvetica-2d" x="133.398438"/>
     <use xlink:href="#Helvetica-46" x="166.699219"/>
     <use xlink:href="#Helvetica-31" x="227.783203"/>
     <use xlink:href="#Helvetica-2d" x="283.398438"/>
     <use xlink:href="#Helvetica-31" x="316.699219"/>
     <use xlink:href="#Helvetica-30" x="372.314453"/>
     <use xlink:href="#Helvetica-4b" x="427.929688"/>
     <use xlink:href="#Helvetica-5f" x="494.628906"/>
     <use xlink:href="#Helvetica-4d" x="550.244141"/>
     <use xlink:href="#Helvetica-41" x="633.544922"/>
     <use xlink:href="#Helvetica-4c" x="700.244141"/>
     <use xlink:href="#Helvetica-44" x="755.859375"/>
     <use xlink:href="#Helvetica-49" x="828.076172"/>
    </g>
   </g>
   <g id="legend_1">
    <g id="patch_5">
     <path d="M 300.339063 74.097812 
L 381.8 74.097812 
Q 383.8 74.097812 383.8 72.097812 
L 383.8 58.84 
Q 383.8 56.84 381.8 56.84 
L 300.339063 56.84 
Q 298.339063 56.84 298.339063 58.84 
L 298.339063 72.097812 
Q 298.339063 74.097812 300.339063 74.097812 
z
" style="fill: #ffffff; opacity: 0.8; stroke: #cccccc; stroke-linejoin: miter"/>
    </g>
    <g id="line2d_15">
     <path d="M 302.339063 64.513437 
L 312.339063 64.513437 
L 322.339063 64.513437 
" style="fill: none; stroke: #8286ff; stroke-width: 1.5; stroke-linecap: square"/>
    </g>
    <g id="text_27">
     <!-- PS-F1-10K -->
     <g transform="translate(330.339063 68.013437) scale(0.1 -0.1)">
      <use xlink:href="#Helvetica-50"/>
      <use xlink:href="#Helvetica-53" x="66.699219"/>
      <use xlink:href="#Helvetica-2d" x="133.398438"/>
      <use xlink:href="#Helvetica-46" x="166.699219"/>
      <use xlink:href="#Helvetica-31" x="227.783203"/>
      <use xlink:href="#Helvetica-2d" x="283.398438"/>
      <use xlink:href="#Helvetica-31" x="316.699219"/>
      <use xlink:href="#Helvetica-30" x="372.314453"/>
      <use xlink:href="#Helvetica-4b" x="427.929688"/>
     </g>
    </g>
   </g>
  </g>
 </g>
 <defs>
  <clipPath id="peb7c82e630">
   <rect x="54" y="51.84" width="334.8" height="332.64"/>
  </clipPath>
 </defs>
</svg>
