<?xml version="1.0" encoding="utf-8" standalone="no"?>
<!DOCTYPE svg PUBLIC "-//W3C//DTD SVG 1.1//EN"
  "http://www.w3.org/Graphics/SVG/1.1/DTD/svg11.dtd">
<svg xmlns:xlink="http://www.w3.org/1999/xlink" width="432pt" height="432pt" viewBox="0 0 432 432" xmlns="http://www.w3.org/2000/svg" version="1.1">
 <metadata>
  <rdf:RDF xmlns:dc="http://purl.org/dc/elements/1.1/" xmlns:cc="http://creativecommons.org/ns#" xmlns:rdf="http://www.w3.org/1999/02/22-rdf-syntax-ns#">
   <cc:Work>
    <dc:type rdf:resource="http://purl.org/dc/dcmitype/StillImage"/>
    <dc:date>2024-10-03T21:18:39.972674</dc:date>
    <dc:format>image/svg+xml</dc:format>
    <dc:creator>
     <cc:Agent>
      <dc:title>Matplotlib v3.7.1, https://matplotlib.org/</dc:title>
     </cc:Agent>
    </dc:creator>
   </cc:Work>
  </rdf:RDF>
 </metadata>
 <defs>
  <style type="text/css">*{stroke-linejoin: round; stroke-linecap: butt}</style>
 </defs>
 <g id="figure_1">
  <g id="patch_1">
   <path d="M 0 432 
L 432 432 
L 432 0 
L 0 0 
z
" style="fill: #ffffff"/>
  </g>
  <g id="axes_1">
   <g id="patch_2">
    <path d="M 54 384.48 
L 388.8 384.48 
L 388.8 51.84 
L 54 51.84 
z
" style="fill: #ffffff"/>
   </g>
   <g id="matplotlib.axis_1">
    <g id="xtick_1">
     <g id="line2d_1">
      <defs>
       <path id="m0236ec1f42" d="M 0 0 
L 0 -3.5 
" style="stroke: #000000; stroke-width: 0.8"/>
      </defs>
      <g>
       <use xlink:href="#m0236ec1f42" x="87.48" y="384.48" style="stroke: #000000; stroke-width: 0.8"/>
      </g>
     </g>
     <g id="text_1">
      <!-- 6000 -->
      <g transform="translate(74.13375 396.588125) scale(0.12 -0.12)">
       <defs>
        <path id="Helvetica-36" d="M 1872 4494 
Q 2622 4494 2917 4105 
Q 3213 3716 3213 3303 
L 2656 3303 
Q 2606 3569 2497 3719 
Q 2294 4000 1881 4000 
Q 1409 4000 1131 3564 
Q 853 3128 822 2316 
Q 1016 2600 1309 2741 
Q 1578 2866 1909 2866 
Q 2472 2866 2890 2506 
Q 3309 2147 3309 1434 
Q 3309 825 2912 354 
Q 2516 -116 1781 -116 
Q 1153 -116 697 361 
Q 241 838 241 1966 
Q 241 2800 444 3381 
Q 834 4494 1872 4494 
z
M 1831 384 
Q 2275 384 2495 682 
Q 2716 981 2716 1388 
Q 2716 1731 2519 2042 
Q 2322 2353 1803 2353 
Q 1441 2353 1167 2112 
Q 894 1872 894 1388 
Q 894 963 1142 673 
Q 1391 384 1831 384 
z
" transform="scale(0.015625)"/>
        <path id="Helvetica-30" d="M 1731 4475 
Q 2600 4475 2988 3759 
Q 3288 3206 3288 2244 
Q 3288 1331 3016 734 
Q 2622 -122 1728 -122 
Q 922 -122 528 578 
Q 200 1163 200 2147 
Q 200 2909 397 3456 
Q 766 4475 1731 4475 
z
M 1725 391 
Q 2163 391 2422 778 
Q 2681 1166 2681 2222 
Q 2681 2984 2493 3476 
Q 2306 3969 1766 3969 
Q 1269 3969 1039 3501 
Q 809 3034 809 2125 
Q 809 1441 956 1025 
Q 1181 391 1725 391 
z
" transform="scale(0.015625)"/>
       </defs>
       <use xlink:href="#Helvetica-36"/>
       <use xlink:href="#Helvetica-30" x="55.615234"/>
       <use xlink:href="#Helvetica-30" x="111.230469"/>
       <use xlink:href="#Helvetica-30" x="166.845703"/>
      </g>
     </g>
    </g>
    <g id="xtick_2">
     <g id="line2d_2">
      <g>
       <use xlink:href="#m0236ec1f42" x="154.44" y="384.48" style="stroke: #000000; stroke-width: 0.8"/>
      </g>
     </g>
     <g id="text_2">
      <!-- 8000 -->
      <g transform="translate(141.09375 396.588125) scale(0.12 -0.12)">
       <defs>
        <path id="Helvetica-38" d="M 1741 2600 
Q 2113 2600 2322 2808 
Q 2531 3016 2531 3303 
Q 2531 3553 2331 3762 
Q 2131 3972 1722 3972 
Q 1316 3972 1134 3762 
Q 953 3553 953 3272 
Q 953 2956 1187 2778 
Q 1422 2600 1741 2600 
z
M 1775 384 
Q 2166 384 2423 595 
Q 2681 806 2681 1225 
Q 2681 1659 2415 1884 
Q 2150 2109 1734 2109 
Q 1331 2109 1076 1879 
Q 822 1650 822 1244 
Q 822 894 1055 639 
Q 1288 384 1775 384 
z
M 975 2384 
Q 741 2484 609 2619 
Q 363 2869 363 3269 
Q 363 3769 725 4128 
Q 1088 4488 1753 4488 
Q 2397 4488 2762 4148 
Q 3128 3809 3128 3356 
Q 3128 2938 2916 2678 
Q 2797 2531 2547 2391 
Q 2825 2263 2984 2097 
Q 3281 1784 3281 1284 
Q 3281 694 2884 283 
Q 2488 -128 1763 -128 
Q 1109 -128 657 226 
Q 206 581 206 1256 
Q 206 1653 400 1942 
Q 594 2231 975 2384 
z
" transform="scale(0.015625)"/>
       </defs>
       <use xlink:href="#Helvetica-38"/>
       <use xlink:href="#Helvetica-30" x="55.615234"/>
       <use xlink:href="#Helvetica-30" x="111.230469"/>
       <use xlink:href="#Helvetica-30" x="166.845703"/>
      </g>
     </g>
    </g>
    <g id="xtick_3">
     <g id="line2d_3">
      <g>
       <use xlink:href="#m0236ec1f42" x="221.4" y="384.48" style="stroke: #000000; stroke-width: 0.8"/>
      </g>
     </g>
     <g id="text_3">
      <!-- 10000 -->
      <g transform="translate(204.717187 396.588125) scale(0.12 -0.12)">
       <defs>
        <path id="Helvetica-31" d="M 613 3169 
L 613 3600 
Q 1222 3659 1462 3798 
Q 1703 3938 1822 4456 
L 2266 4456 
L 2266 0 
L 1666 0 
L 1666 3169 
L 613 3169 
z
" transform="scale(0.015625)"/>
       </defs>
       <use xlink:href="#Helvetica-31"/>
       <use xlink:href="#Helvetica-30" x="55.615234"/>
       <use xlink:href="#Helvetica-30" x="111.230469"/>
       <use xlink:href="#Helvetica-30" x="166.845703"/>
       <use xlink:href="#Helvetica-30" x="222.460938"/>
      </g>
     </g>
    </g>
    <g id="xtick_4">
     <g id="line2d_4">
      <g>
       <use xlink:href="#m0236ec1f42" x="288.36" y="384.48" style="stroke: #000000; stroke-width: 0.8"/>
      </g>
     </g>
     <g id="text_4">
      <!-- 12000 -->
      <g transform="translate(271.677188 396.588125) scale(0.12 -0.12)">
       <defs>
        <path id="Helvetica-32" d="M 200 0 
Q 231 578 439 1006 
Q 647 1434 1250 1784 
L 1850 2131 
Q 2253 2366 2416 2531 
Q 2672 2791 2672 3125 
Q 2672 3516 2437 3745 
Q 2203 3975 1813 3975 
Q 1234 3975 1013 3538 
Q 894 3303 881 2888 
L 309 2888 
Q 319 3472 525 3841 
Q 891 4491 1816 4491 
Q 2584 4491 2939 4075 
Q 3294 3659 3294 3150 
Q 3294 2613 2916 2231 
Q 2697 2009 2131 1694 
L 1703 1456 
Q 1397 1288 1222 1134 
Q 909 863 828 531 
L 3272 531 
L 3272 0 
L 200 0 
z
" transform="scale(0.015625)"/>
       </defs>
       <use xlink:href="#Helvetica-31"/>
       <use xlink:href="#Helvetica-32" x="55.615234"/>
       <use xlink:href="#Helvetica-30" x="111.230469"/>
       <use xlink:href="#Helvetica-30" x="166.845703"/>
       <use xlink:href="#Helvetica-30" x="222.460938"/>
      </g>
     </g>
    </g>
    <g id="xtick_5">
     <g id="line2d_5">
      <g>
       <use xlink:href="#m0236ec1f42" x="355.32" y="384.48" style="stroke: #000000; stroke-width: 0.8"/>
      </g>
     </g>
     <g id="text_5">
      <!-- 14000 -->
      <g transform="translate(338.637188 396.588125) scale(0.12 -0.12)">
       <defs>
        <path id="Helvetica-34" d="M 2116 1584 
L 2116 3613 
L 681 1584 
L 2116 1584 
z
M 2125 0 
L 2125 1094 
L 163 1094 
L 163 1644 
L 2213 4488 
L 2688 4488 
L 2688 1584 
L 3347 1584 
L 3347 1094 
L 2688 1094 
L 2688 0 
L 2125 0 
z
" transform="scale(0.015625)"/>
       </defs>
       <use xlink:href="#Helvetica-31"/>
       <use xlink:href="#Helvetica-34" x="55.615234"/>
       <use xlink:href="#Helvetica-30" x="111.230469"/>
       <use xlink:href="#Helvetica-30" x="166.845703"/>
       <use xlink:href="#Helvetica-30" x="222.460938"/>
      </g>
     </g>
    </g>
    <g id="text_6">
     <!-- m/z -->
     <g transform="translate(211.735313 411.6975) scale(0.12 -0.12)">
      <defs>
       <path id="Helvetica-6d" d="M 413 3347 
L 969 3347 
L 969 2872 
Q 1169 3119 1331 3231 
Q 1609 3422 1963 3422 
Q 2363 3422 2606 3225 
Q 2744 3113 2856 2894 
Q 3044 3163 3297 3292 
Q 3550 3422 3866 3422 
Q 4541 3422 4784 2934 
Q 4916 2672 4916 2228 
L 4916 0 
L 4331 0 
L 4331 2325 
Q 4331 2659 4164 2784 
Q 3997 2909 3756 2909 
Q 3425 2909 3186 2687 
Q 2947 2466 2947 1947 
L 2947 0 
L 2375 0 
L 2375 2184 
Q 2375 2525 2294 2681 
Q 2166 2916 1816 2916 
Q 1497 2916 1236 2669 
Q 975 2422 975 1775 
L 975 0 
L 413 0 
L 413 3347 
z
" transform="scale(0.015625)"/>
       <path id="Helvetica-2f" d="M 1456 4591 
L 1931 4591 
L 475 0 
L 0 0 
L 1456 4591 
z
" transform="scale(0.015625)"/>
       <path id="Helvetica-7a" d="M 163 444 
L 2147 2844 
L 309 2844 
L 309 3347 
L 2903 3347 
L 2903 2888 
L 931 503 
L 2963 503 
L 2963 0 
L 163 0 
L 163 444 
z
M 1609 3428 
L 1609 3428 
z
" transform="scale(0.015625)"/>
      </defs>
      <use xlink:href="#Helvetica-6d"/>
      <use xlink:href="#Helvetica-2f" x="83.300781"/>
      <use xlink:href="#Helvetica-7a" x="111.083984"/>
     </g>
    </g>
   </g>
   <g id="matplotlib.axis_2">
    <g id="ytick_1">
     <g id="line2d_6">
      <defs>
       <path id="mc6776277e5" d="M 0 0 
L 3.5 0 
" style="stroke: #000000; stroke-width: 0.8"/>
      </defs>
      <g>
       <use xlink:href="#mc6776277e5" x="54" y="354.24" style="stroke: #000000; stroke-width: 0.8"/>
      </g>
     </g>
     <g id="text_7">
      <!-- 0.0 -->
      <g transform="translate(33.82 358.544062) scale(0.12 -0.12)">
       <defs>
        <path id="Helvetica-2e" d="M 547 681 
L 1200 681 
L 1200 0 
L 547 0 
L 547 681 
z
" transform="scale(0.015625)"/>
       </defs>
       <use xlink:href="#Helvetica-30"/>
       <use xlink:href="#Helvetica-2e" x="55.615234"/>
       <use xlink:href="#Helvetica-30" x="83.398438"/>
      </g>
     </g>
    </g>
    <g id="ytick_2">
     <g id="line2d_7">
      <g>
       <use xlink:href="#mc6776277e5" x="54" y="293.76" style="stroke: #000000; stroke-width: 0.8"/>
      </g>
     </g>
     <g id="text_8">
      <!-- 0.2 -->
      <g transform="translate(33.82 298.064062) scale(0.12 -0.12)">
       <use xlink:href="#Helvetica-30"/>
       <use xlink:href="#Helvetica-2e" x="55.615234"/>
       <use xlink:href="#Helvetica-32" x="83.398438"/>
      </g>
     </g>
    </g>
    <g id="ytick_3">
     <g id="line2d_8">
      <g>
       <use xlink:href="#mc6776277e5" x="54" y="233.28" style="stroke: #000000; stroke-width: 0.8"/>
      </g>
     </g>
     <g id="text_9">
      <!-- 0.4 -->
      <g transform="translate(33.82 237.584062) scale(0.12 -0.12)">
       <use xlink:href="#Helvetica-30"/>
       <use xlink:href="#Helvetica-2e" x="55.615234"/>
       <use xlink:href="#Helvetica-34" x="83.398438"/>
      </g>
     </g>
    </g>
    <g id="ytick_4">
     <g id="line2d_9">
      <g>
       <use xlink:href="#mc6776277e5" x="54" y="172.8" style="stroke: #000000; stroke-width: 0.8"/>
      </g>
     </g>
     <g id="text_10">
      <!-- 0.6 -->
      <g transform="translate(33.82 177.104062) scale(0.12 -0.12)">
       <use xlink:href="#Helvetica-30"/>
       <use xlink:href="#Helvetica-2e" x="55.615234"/>
       <use xlink:href="#Helvetica-36" x="83.398438"/>
      </g>
     </g>
    </g>
    <g id="ytick_5">
     <g id="line2d_10">
      <g>
       <use xlink:href="#mc6776277e5" x="54" y="112.32" style="stroke: #000000; stroke-width: 0.8"/>
      </g>
     </g>
     <g id="text_11">
      <!-- 0.8 -->
      <g transform="translate(33.82 116.624062) scale(0.12 -0.12)">
       <use xlink:href="#Helvetica-30"/>
       <use xlink:href="#Helvetica-2e" x="55.615234"/>
       <use xlink:href="#Helvetica-38" x="83.398438"/>
      </g>
     </g>
    </g>
    <g id="ytick_6">
     <g id="line2d_11">
      <g>
       <use xlink:href="#mc6776277e5" x="54" y="51.84" style="stroke: #000000; stroke-width: 0.8"/>
      </g>
     </g>
     <g id="text_12">
      <!-- 1.0 -->
      <g transform="translate(33.82 56.144062) scale(0.12 -0.12)">
       <use xlink:href="#Helvetica-31"/>
       <use xlink:href="#Helvetica-2e" x="55.615234"/>
       <use xlink:href="#Helvetica-30" x="83.398438"/>
      </g>
     </g>
    </g>
    <g id="text_13">
     <!-- Normalized Intensity -->
     <g transform="translate(27.2475 272.511562) rotate(-90) scale(0.12 -0.12)">
      <defs>
       <path id="Helvetica-4e" d="M 488 4591 
L 1222 4591 
L 3541 872 
L 3541 4591 
L 4131 4591 
L 4131 0 
L 3434 0 
L 1081 3716 
L 1081 0 
L 488 0 
L 488 4591 
z
M 2269 4591 
L 2269 4591 
z
" transform="scale(0.015625)"/>
       <path id="Helvetica-6f" d="M 1741 363 
Q 2300 363 2508 786 
Q 2716 1209 2716 1728 
Q 2716 2197 2566 2491 
Q 2328 2953 1747 2953 
Q 1231 2953 997 2559 
Q 763 2166 763 1609 
Q 763 1075 997 719 
Q 1231 363 1741 363 
z
M 1763 3444 
Q 2409 3444 2856 3012 
Q 3303 2581 3303 1744 
Q 3303 934 2909 406 
Q 2516 -122 1688 -122 
Q 997 -122 590 345 
Q 184 813 184 1600 
Q 184 2444 612 2944 
Q 1041 3444 1763 3444 
z
M 1744 3428 
L 1744 3428 
z
" transform="scale(0.015625)"/>
       <path id="Helvetica-72" d="M 428 3347 
L 963 3347 
L 963 2769 
Q 1028 2938 1284 3180 
Q 1541 3422 1875 3422 
Q 1891 3422 1928 3419 
Q 1966 3416 2056 3406 
L 2056 2813 
Q 2006 2822 1964 2825 
Q 1922 2828 1872 2828 
Q 1447 2828 1219 2554 
Q 991 2281 991 1925 
L 991 0 
L 428 0 
L 428 3347 
z
" transform="scale(0.015625)"/>
       <path id="Helvetica-61" d="M 844 891 
Q 844 647 1022 506 
Q 1200 366 1444 366 
Q 1741 366 2019 503 
Q 2488 731 2488 1250 
L 2488 1703 
Q 2384 1638 2221 1594 
Q 2059 1550 1903 1531 
L 1563 1488 
Q 1256 1447 1103 1359 
Q 844 1213 844 891 
z
M 2206 2028 
Q 2400 2053 2466 2191 
Q 2503 2266 2503 2406 
Q 2503 2694 2298 2823 
Q 2094 2953 1713 2953 
Q 1272 2953 1088 2716 
Q 984 2584 953 2325 
L 428 2325 
Q 444 2944 830 3186 
Q 1216 3428 1725 3428 
Q 2316 3428 2684 3203 
Q 3050 2978 3050 2503 
L 3050 575 
Q 3050 488 3086 434 
Q 3122 381 3238 381 
Q 3275 381 3322 386 
Q 3369 391 3422 400 
L 3422 -16 
Q 3291 -53 3222 -62 
Q 3153 -72 3034 -72 
Q 2744 -72 2613 134 
Q 2544 244 2516 444 
Q 2344 219 2022 53 
Q 1700 -113 1313 -113 
Q 847 -113 551 170 
Q 256 453 256 878 
Q 256 1344 547 1600 
Q 838 1856 1309 1916 
L 2206 2028 
z
M 1741 3428 
L 1741 3428 
z
" transform="scale(0.015625)"/>
       <path id="Helvetica-6c" d="M 428 4591 
L 991 4591 
L 991 0 
L 428 0 
L 428 4591 
z
" transform="scale(0.015625)"/>
       <path id="Helvetica-69" d="M 413 3331 
L 984 3331 
L 984 0 
L 413 0 
L 413 3331 
z
M 413 4591 
L 984 4591 
L 984 3953 
L 413 3953 
L 413 4591 
z
" transform="scale(0.015625)"/>
       <path id="Helvetica-65" d="M 1806 3422 
Q 2163 3422 2497 3255 
Q 2831 3088 3006 2822 
Q 3175 2569 3231 2231 
Q 3281 2000 3281 1494 
L 828 1494 
Q 844 984 1069 676 
Q 1294 369 1766 369 
Q 2206 369 2469 659 
Q 2619 828 2681 1050 
L 3234 1050 
Q 3213 866 3089 639 
Q 2966 413 2813 269 
Q 2556 19 2178 -69 
Q 1975 -119 1719 -119 
Q 1094 -119 659 336 
Q 225 791 225 1609 
Q 225 2416 662 2919 
Q 1100 3422 1806 3422 
z
M 2703 1941 
Q 2669 2306 2544 2525 
Q 2313 2931 1772 2931 
Q 1384 2931 1121 2651 
Q 859 2372 844 1941 
L 2703 1941 
z
M 1753 3428 
L 1753 3428 
z
" transform="scale(0.015625)"/>
       <path id="Helvetica-64" d="M 769 1634 
Q 769 1097 997 734 
Q 1225 372 1728 372 
Q 2119 372 2370 708 
Q 2622 1044 2622 1672 
Q 2622 2306 2362 2611 
Q 2103 2916 1722 2916 
Q 1297 2916 1033 2591 
Q 769 2266 769 1634 
z
M 1616 3406 
Q 2000 3406 2259 3244 
Q 2409 3150 2600 2916 
L 2600 4606 
L 3141 4606 
L 3141 0 
L 2634 0 
L 2634 466 
Q 2438 156 2169 18 
Q 1900 -119 1553 -119 
Q 994 -119 584 351 
Q 175 822 175 1603 
Q 175 2334 548 2870 
Q 922 3406 1616 3406 
z
" transform="scale(0.015625)"/>
       <path id="Helvetica-20" transform="scale(0.015625)"/>
       <path id="Helvetica-49" d="M 628 4591 
L 1256 4591 
L 1256 0 
L 628 0 
L 628 4591 
z
" transform="scale(0.015625)"/>
       <path id="Helvetica-6e" d="M 413 3347 
L 947 3347 
L 947 2872 
Q 1184 3166 1450 3294 
Q 1716 3422 2041 3422 
Q 2753 3422 3003 2925 
Q 3141 2653 3141 2147 
L 3141 0 
L 2569 0 
L 2569 2109 
Q 2569 2416 2478 2603 
Q 2328 2916 1934 2916 
Q 1734 2916 1606 2875 
Q 1375 2806 1200 2600 
Q 1059 2434 1017 2257 
Q 975 2081 975 1753 
L 975 0 
L 413 0 
L 413 3347 
z
M 1734 3428 
L 1734 3428 
z
" transform="scale(0.015625)"/>
       <path id="Helvetica-74" d="M 525 4281 
L 1094 4281 
L 1094 3347 
L 1628 3347 
L 1628 2888 
L 1094 2888 
L 1094 703 
Q 1094 528 1213 469 
Q 1278 434 1431 434 
Q 1472 434 1519 436 
Q 1566 438 1628 444 
L 1628 0 
Q 1531 -28 1426 -40 
Q 1322 -53 1200 -53 
Q 806 -53 665 148 
Q 525 350 525 672 
L 525 2888 
L 72 2888 
L 72 3347 
L 525 3347 
L 525 4281 
z
" transform="scale(0.015625)"/>
       <path id="Helvetica-73" d="M 747 1050 
Q 772 769 888 619 
Q 1100 347 1625 347 
Q 1938 347 2175 483 
Q 2413 619 2413 903 
Q 2413 1119 2222 1231 
Q 2100 1300 1741 1391 
L 1294 1503 
Q 866 1609 663 1741 
Q 300 1969 300 2372 
Q 300 2847 642 3140 
Q 984 3434 1563 3434 
Q 2319 3434 2653 2991 
Q 2863 2709 2856 2384 
L 2325 2384 
Q 2309 2575 2191 2731 
Q 1997 2953 1519 2953 
Q 1200 2953 1036 2831 
Q 872 2709 872 2509 
Q 872 2291 1088 2159 
Q 1213 2081 1456 2022 
L 1828 1931 
Q 2434 1784 2641 1647 
Q 2969 1431 2969 969 
Q 2969 522 2630 197 
Q 2291 -128 1597 -128 
Q 850 -128 539 211 
Q 228 550 206 1050 
L 747 1050 
z
M 1578 3428 
L 1578 3428 
z
" transform="scale(0.015625)"/>
       <path id="Helvetica-79" d="M 2503 3347 
L 3125 3347 
Q 3006 3025 2597 1878 
Q 2291 1016 2084 472 
Q 1597 -809 1397 -1090 
Q 1197 -1372 709 -1372 
Q 591 -1372 527 -1362 
Q 463 -1353 369 -1328 
L 369 -816 
Q 516 -856 581 -865 
Q 647 -875 697 -875 
Q 853 -875 926 -823 
Q 1000 -772 1050 -697 
Q 1066 -672 1162 -440 
Q 1259 -209 1303 -97 
L 66 3347 
L 703 3347 
L 1600 622 
L 2503 3347 
z
M 1597 3428 
L 1597 3428 
z
" transform="scale(0.015625)"/>
      </defs>
      <use xlink:href="#Helvetica-4e"/>
      <use xlink:href="#Helvetica-6f" x="72.216797"/>
      <use xlink:href="#Helvetica-72" x="127.832031"/>
      <use xlink:href="#Helvetica-6d" x="161.132812"/>
      <use xlink:href="#Helvetica-61" x="244.433594"/>
      <use xlink:href="#Helvetica-6c" x="300.048828"/>
      <use xlink:href="#Helvetica-69" x="322.265625"/>
      <use xlink:href="#Helvetica-7a" x="344.482422"/>
      <use xlink:href="#Helvetica-65" x="394.482422"/>
      <use xlink:href="#Helvetica-64" x="450.097656"/>
      <use xlink:href="#Helvetica-20" x="505.712891"/>
      <use xlink:href="#Helvetica-49" x="533.496094"/>
      <use xlink:href="#Helvetica-6e" x="561.279297"/>
      <use xlink:href="#Helvetica-74" x="616.894531"/>
      <use xlink:href="#Helvetica-65" x="644.677734"/>
      <use xlink:href="#Helvetica-6e" x="700.292969"/>
      <use xlink:href="#Helvetica-73" x="755.908203"/>
      <use xlink:href="#Helvetica-69" x="805.908203"/>
      <use xlink:href="#Helvetica-74" x="828.125"/>
      <use xlink:href="#Helvetica-79" x="855.908203"/>
     </g>
    </g>
   </g>
   <g id="line2d_12">
    <path d="M 54.000666 353.743358 
L 54.201677 353.853723 
L 54.329142 354.184818 
L 54.441069 354.074453 
L 54.521849 353.908905 
L 54.557285 353.964088 
L 54.733105 353.853723 
L 54.813956 353.660584 
L 54.849421 353.743358 
L 54.891988 353.853723 
L 54.940236 353.964088 
L 55.004102 353.881314 
L 55.056625 353.991679 
L 55.182999 354.350365 
L 55.184419 354.322774 
L 55.231287 354.212409 
L 55.352043 354.01927 
L 55.522593 354.129635 
L 55.644876 354.350365 
L 55.676166 354.24 
L 55.795656 353.79854 
L 55.808462 353.826131 
L 56.026226 353.936496 
L 56.152965 354.24 
L 56.234161 354.129635 
L 56.363829 353.770949 
L 56.757413 353.881314 
L 56.878718 354.102044 
L 57.195743 353.991679 
L 57.315776 353.79854 
L 57.575995 353.908905 
L 57.689011 353.964088 
L 57.734798 354.074453 
L 57.859317 354.350365 
L 57.919447 354.24 
L 58.039737 354.046861 
L 58.074114 353.936496 
L 58.167232 353.715766 
L 58.191592 353.79854 
L 58.314845 354.046861 
L 58.369321 353.936496 
L 58.419504 353.853723 
L 58.478298 353.936496 
L 58.607394 354.295182 
L 58.693484 354.184818 
L 58.837016 353.550219 
L 58.882961 353.660584 
L 59.017956 354.129635 
L 59.128577 354.01927 
L 59.249296 353.826131 
L 59.382995 353.715766 
L 59.434765 353.660584 
L 59.485105 353.853723 
L 59.486542 353.853723 
L 59.513871 353.964088 
L 59.604508 354.295182 
L 59.637603 354.212409 
L 59.687974 354.102044 
L 59.807447 353.936496 
L 59.908242 354.046861 
L 59.991782 354.129635 
L 60.020595 354.102044 
L 60.143068 353.881314 
L 60.259816 353.991679 
L 60.376607 354.102044 
L 60.507862 354.212409 
L 60.548259 354.24 
L 60.605979 354.046861 
L 60.610308 354.046861 
L 60.6435 353.936496 
L 60.707008 353.881314 
L 60.743096 353.991679 
L 60.751758 353.991679 
L 60.857163 354.129635 
L 60.868717 354.102044 
L 60.925043 353.991679 
L 61.042059 353.881314 
L 61.114309 353.991679 
L 61.232835 354.157226 
L 61.286329 354.046861 
L 61.364418 353.908905 
L 61.397684 354.01927 
L 61.428057 354.129635 
L 61.522092 354.377956 
L 61.54814 354.322774 
L 61.595892 354.212409 
L 61.731958 353.715766 
L 61.753673 353.605401 
L 61.823178 353.495036 
L 61.863729 353.605401 
L 61.994103 353.991679 
L 62.057859 354.102044 
L 62.150616 354.157226 
L 62.168008 354.102044 
L 62.228895 353.991679 
L 62.279644 353.964088 
L 62.3275 354.074453 
L 62.334752 354.074453 
L 62.42323 354.184818 
L 62.537849 354.267591 
L 62.608964 354.157226 
L 62.741066 353.743358 
L 62.771559 353.632993 
L 62.855791 353.439854 
L 62.886295 353.550219 
L 63.043209 354.433139 
L 63.096981 354.322774 
L 63.23218 353.853723 
L 63.336886 353.964088 
L 63.451806 354.129635 
L 63.454715 354.102044 
L 63.526014 353.991679 
L 63.661377 353.522628 
L 63.729807 353.632993 
L 63.871076 354.212409 
L 63.910408 354.102044 
L 64.034261 353.715766 
L 64.04009 353.743358 
L 64.069237 353.853723 
L 64.156697 354.184818 
L 64.19169 354.074453 
L 64.324392 353.522628 
L 64.330227 353.550219 
L 64.496542 353.660584 
L 64.641039 354.295182 
L 64.854243 354.184818 
L 64.94336 354.074453 
L 64.968199 354.129635 
L 65.042728 354.24 
L 65.112889 354.322774 
L 65.150899 354.184818 
L 65.18014 354.074453 
L 65.327841 353.384672 
L 65.381965 353.495036 
L 65.497554 353.964088 
L 65.516581 353.936496 
L 65.579513 353.826131 
L 65.63514 353.743358 
L 65.689311 353.826131 
L 65.805001 353.936496 
L 65.884104 354.046861 
L 66.00865 354.322774 
L 66.074606 354.212409 
L 66.210949 353.715766 
L 66.272539 353.605401 
L 66.381085 353.274307 
L 66.397222 353.329489 
L 66.426567 353.439854 
L 66.560109 354.157226 
L 66.57332 354.129635 
L 66.599743 354.01927 
L 66.727476 353.605401 
L 66.730412 353.632993 
L 66.76419 353.743358 
L 66.883168 354.074453 
L 66.890513 354.046861 
L 66.936059 353.936496 
L 67.059507 353.688175 
L 67.216813 353.79854 
L 67.34477 354.129635 
L 67.678843 354.01927 
L 67.787817 353.908905 
L 67.79371 353.936496 
L 67.963125 353.826131 
L 68.053026 353.743358 
L 68.075133 353.79854 
L 68.106088 353.908905 
L 68.234363 354.24 
L 68.520561 354.129635 
L 68.640124 353.964088 
L 68.712471 353.853723 
L 68.781879 353.826131 
L 68.817327 353.881314 
L 68.821757 353.881314 
L 69.290293 353.991679 
L 69.395316 354.129635 
L 69.407151 354.102044 
L 69.44562 353.991679 
L 69.524047 353.826131 
L 69.559569 353.936496 
L 69.606933 354.046861 
L 69.646901 354.074453 
L 69.701685 353.826131 
L 69.706124 353.826131 
L 69.784611 353.605401 
L 69.821637 353.743358 
L 69.8483 353.853723 
L 69.95941 354.212409 
L 69.977192 354.184818 
L 70.039431 354.074453 
L 70.163946 353.826131 
L 70.324098 353.936496 
L 70.444258 354.102044 
L 70.512513 353.991679 
L 70.641642 353.632993 
L 70.698056 353.743358 
L 70.825766 354.074453 
L 71.276075 353.964088 
L 71.402499 353.605401 
L 71.403985 353.632993 
L 71.444151 353.743358 
L 71.561706 354.184818 
L 71.576588 354.157226 
L 72.029311 354.046861 
L 72.155996 353.743358 
L 72.388612 353.853723 
L 72.524374 354.322774 
L 72.579585 354.212409 
L 72.709444 353.853723 
L 72.766179 353.964088 
L 72.836364 354.129635 
L 72.88117 354.074453 
L 73.014122 353.660584 
L 73.08286 353.770949 
L 73.175523 353.908905 
L 73.199441 353.881314 
L 73.329517 353.991679 
L 73.437206 354.157226 
L 73.447675 354.129635 
L 73.60328 354.01927 
L 73.702063 353.881314 
L 73.720028 353.908905 
L 73.778414 354.01927 
L 73.889226 354.102044 
L 73.892219 354.074453 
L 73.938652 353.964088 
L 74.06899 353.605401 
L 74.110947 353.715766 
L 74.241345 354.074453 
L 74.379286 353.964088 
L 74.446778 353.908905 
L 74.482776 353.991679 
L 74.488776 353.991679 
L 74.85498 353.881314 
L 74.925559 353.826131 
L 74.963107 353.908905 
L 74.96461 353.908905 
L 75.02169 354.01927 
L 75.111835 354.102044 
L 75.134374 354.046861 
L 75.304218 354.157226 
L 75.419995 354.24 
L 75.474139 354.350365 
L 75.573421 354.433139 
L 75.585453 354.405547 
L 75.7254 353.853723 
L 75.766038 353.743358 
L 75.815715 353.688175 
L 75.862386 353.826131 
L 75.869916 353.826131 
L 75.994904 354.102044 
L 76.273645 353.991679 
L 76.308313 353.964088 
L 76.383693 353.991679 
L 76.570696 353.881314 
L 76.694411 353.605401 
L 76.824203 353.964088 
L 77.099027 353.853723 
L 77.21536 353.743358 
L 77.392195 353.853723 
L 77.505592 353.908905 
L 78.071581 354.01927 
L 78.148826 354.129635 
L 78.182152 354.01927 
L 78.210938 353.908905 
L 78.321549 353.743358 
L 78.329129 353.770949 
L 78.517096 353.881314 
L 78.635381 354.01927 
L 78.733983 354.129635 
L 78.850818 354.24 
L 78.996533 354.129635 
L 79.128635 353.743358 
L 79.39602 353.853723 
L 79.523699 354.295182 
L 79.529779 354.267591 
L 79.593639 354.157226 
L 79.703132 354.046861 
L 79.709215 354.074453 
L 79.797445 354.184818 
L 79.913085 354.267591 
L 79.999838 354.157226 
L 80.132288 353.770949 
L 80.322669 353.881314 
L 80.447613 354.129635 
L 80.55735 354.01927 
L 80.671695 353.770949 
L 80.679318 353.79854 
L 80.744892 353.908905 
L 80.812003 353.936496 
L 80.831836 353.881314 
L 80.851666 353.881314 
L 80.931001 353.826131 
L 80.952364 353.908905 
L 80.959994 353.908905 
L 81.079039 354.074453 
L 81.765018 353.964088 
L 81.872073 353.770949 
L 81.88431 353.79854 
L 81.960802 353.908905 
L 82.043427 354.046861 
L 82.077091 354.01927 
L 82.461412 354.129635 
L 82.525757 354.184818 
L 82.557934 354.102044 
L 82.570191 354.102044 
L 82.660611 353.991679 
L 82.777111 353.881314 
L 82.887515 353.991679 
L 83.013289 354.267591 
L 83.114553 354.157226 
L 83.228124 353.826131 
L 83.241938 353.853723 
L 83.311017 353.964088 
L 83.438465 354.267591 
L 83.56749 354.157226 
L 83.715 353.495036 
L 83.814908 353.605401 
L 83.954824 354.129635 
L 84.074789 354.01927 
L 84.197872 353.79854 
L 84.297903 353.908905 
L 84.388725 354.01927 
L 84.411816 353.991679 
L 84.518065 353.79854 
L 84.531925 353.826131 
L 84.573507 353.936496 
L 84.693664 354.184818 
L 84.696747 354.157226 
L 84.796906 354.046861 
L 84.853929 354.01927 
L 84.907882 354.046861 
L 85.276484 353.936496 
L 85.369073 353.826131 
L 85.390681 353.881314 
L 85.477123 353.991679 
L 85.59138 354.046861 
L 86.076565 354.157226 
L 86.190993 354.24 
L 86.486501 354.129635 
L 86.604146 353.991679 
L 86.774483 354.102044 
L 86.889115 354.184818 
L 86.991383 354.074453 
L 87.133981 353.495036 
L 87.20375 353.605401 
L 87.335567 353.991679 
L 88.413456 354.102044 
L 88.52856 354.184818 
L 88.657703 353.853723 
L 88.844491 353.964088 
L 88.888088 353.991679 
L 88.934803 353.908905 
L 88.951935 353.908905 
L 89.101467 354.01927 
L 89.219889 354.157226 
L 89.628392 354.046861 
L 89.697039 353.936496 
L 89.740727 354.01927 
L 89.985787 354.129635 
L 90.093536 354.267591 
L 90.102904 354.24 
L 90.154449 354.129635 
L 90.235682 354.102044 
L 90.265365 354.129635 
L 90.523252 354.01927 
L 90.660858 353.550219 
L 90.71091 353.660584 
L 90.84858 354.129635 
L 91.232114 354.24 
L 91.324532 354.267591 
L 91.343331 354.24 
L 91.438903 354.129635 
L 91.559582 353.964088 
L 91.997135 354.074453 
L 92.039504 354.102044 
L 92.091294 354.01927 
L 92.103852 354.01927 
L 92.229436 353.743358 
L 92.342495 353.853723 
L 92.465011 354.074453 
L 93.163109 353.964088 
L 93.279573 353.853723 
L 93.375604 353.964088 
L 93.490557 354.046861 
L 93.652801 354.157226 
L 93.761528 354.295182 
L 93.769409 354.267591 
L 93.848214 354.157226 
L 93.969606 353.964088 
L 94.337149 354.074453 
L 94.452371 354.157226 
L 94.534467 354.046861 
L 94.654479 353.881314 
L 94.859849 353.991679 
L 94.981539 354.184818 
L 95.226609 354.074453 
L 95.326259 353.991679 
L 95.340498 354.01927 
L 96.28603 354.129635 
L 96.406555 354.295182 
L 96.533461 354.184818 
L 96.631838 354.074453 
L 96.649295 354.102044 
L 96.755637 353.991679 
L 96.839779 353.908905 
L 96.868358 353.964088 
L 96.933466 354.074453 
L 97.04147 354.212409 
L 97.051001 354.184818 
L 97.294116 354.295182 
L 97.35134 354.322774 
L 97.400626 354.212409 
L 97.438783 354.102044 
L 97.562823 353.853723 
L 97.877857 353.964088 
L 97.990882 354.046861 
L 98.072088 353.991679 
L 98.100753 354.046861 
L 98.189944 354.157226 
L 98.212245 354.184818 
L 98.285529 354.074453 
L 98.295088 354.074453 
L 98.818009 354.184818 
L 98.929691 354.212409 
L 99.054173 354.102044 
L 99.178692 353.853723 
L 99.335191 353.964088 
L 99.456596 354.157226 
L 99.797041 354.267591 
L 99.883396 354.295182 
L 99.907384 354.267591 
L 100.603695 354.157226 
L 100.72066 354.046861 
L 100.834452 354.157226 
L 100.880936 354.184818 
L 100.930637 354.046861 
L 100.938652 354.046861 
L 101.078163 353.550219 
L 101.185631 353.660584 
L 101.31399 353.964088 
L 101.541921 353.853723 
L 101.591696 353.826131 
L 101.641478 353.936496 
L 101.647902 353.936496 
L 101.763549 354.212409 
L 101.773188 354.184818 
L 101.826203 354.074453 
L 101.919398 353.936496 
L 101.941897 353.991679 
L 101.982076 354.102044 
L 102.080129 354.212409 
L 102.097813 354.184818 
L 102.752639 354.074453 
L 102.839593 354.01927 
L 102.863752 354.074453 
L 103.210163 354.184818 
L 103.316559 354.24 
L 103.323007 354.212409 
L 103.426206 354.102044 
L 103.519752 354.046861 
L 103.539107 354.074453 
L 103.974866 354.184818 
L 104.087911 354.24 
L 104.29147 354.129635 
L 104.404599 354.074453 
L 104.52746 353.964088 
L 104.650355 353.743358 
L 104.72152 353.853723 
L 104.838001 353.964088 
L 104.973929 354.074453 
L 105.046769 354.129635 
L 105.084002 354.074453 
L 105.29127 354.184818 
L 105.403043 354.212409 
L 105.707724 354.102044 
L 105.730423 354.074453 
L 105.813119 354.157226 
L 105.814739 354.157226 
L 106.06454 354.046861 
L 106.179758 353.964088 
L 106.327476 354.074453 
L 106.449259 354.267591 
L 106.5727 354.157226 
L 106.634434 354.102044 
L 106.675055 354.184818 
L 106.681553 354.184818 
L 106.909094 354.074453 
L 106.982257 354.01927 
L 107.019658 354.074453 
L 107.092838 354.184818 
L 107.196941 354.212409 
L 107.20345 354.184818 
L 107.89376 354.074453 
L 108.024132 353.743358 
L 108.07466 353.632993 
L 108.143129 353.57781 
L 108.182258 353.688175 
L 108.218128 353.79854 
L 108.345335 354.074453 
L 108.839825 353.964088 
L 108.91331 353.908905 
L 108.94761 353.991679 
L 108.949244 353.991679 
L 109.022746 354.102044 
L 109.137114 354.157226 
L 109.418252 354.046861 
L 109.537625 353.908905 
L 109.763381 354.01927 
L 109.8583 354.102044 
L 109.877939 354.074453 
L 110.370875 354.184818 
L 110.442981 354.24 
L 110.482313 354.212409 
L 110.557714 354.102044 
L 110.634768 354.01927 
L 110.670839 354.046861 
L 110.977566 354.157226 
L 111.095721 354.295182 
L 111.182715 354.184818 
L 111.299282 354.074453 
L 111.374823 353.964088 
L 111.516082 353.439854 
L 111.599873 353.550219 
L 111.741205 354.074453 
L 112.79932 354.184818 
L 112.88665 354.267591 
L 112.911368 354.212409 
L 113.010254 354.102044 
L 113.082785 354.074453 
L 113.109164 354.129635 
L 113.119058 354.129635 
L 113.602392 354.01927 
L 113.661815 353.991679 
L 113.699782 354.074453 
L 113.709688 354.074453 
L 113.76252 354.184818 
L 113.879763 354.295182 
L 114.051553 354.184818 
L 114.139126 354.129635 
L 114.163912 354.157226 
L 114.880039 354.046861 
L 115.019098 353.57781 
L 115.196291 353.688175 
L 115.332133 354.102044 
L 116.573149 353.991679 
L 116.686134 353.936496 
L 116.784194 354.046861 
L 116.905545 354.24 
L 118.252569 354.129635 
L 118.399336 353.522628 
L 118.432695 353.412263 
L 118.559494 353.13635 
L 118.701349 353.660584 
L 118.724718 353.770949 
L 118.849926 354.01927 
L 119.180642 354.129635 
L 119.259179 354.157226 
L 119.290932 354.129635 
L 120.070406 354.01927 
L 120.162493 353.964088 
L 120.182588 353.991679 
L 120.413727 354.102044 
L 120.507558 354.157226 
L 120.525989 354.129635 
L 121.386452 354.01927 
L 121.414993 353.991679 
L 121.488874 354.074453 
L 121.493912 354.074453 
L 121.579564 354.184818 
L 121.678668 354.267591 
L 121.693788 354.24 
L 121.74755 354.129635 
L 121.908873 353.301898 
L 121.939129 353.191533 
L 122.001325 353.053577 
L 122.051763 353.163942 
L 122.087071 353.274307 
L 122.235056 353.881314 
L 122.433569 353.991679 
L 122.549684 354.074453 
L 123.336343 354.184818 
L 123.40547 354.212409 
L 123.434135 354.157226 
L 123.44594 354.157226 
L 123.508337 354.046861 
L 123.628095 353.881314 
L 123.710764 353.991679 
L 123.832263 354.184818 
L 124.717447 354.074453 
L 124.781702 354.046861 
L 124.820599 354.129635 
L 124.823984 354.129635 
L 125.287615 354.01927 
L 125.458631 353.025985 
L 125.567029 353.13635 
L 125.717813 353.79854 
L 125.782208 353.908905 
L 125.827965 353.936496 
L 125.866949 353.881314 
L 125.89068 353.881314 
L 126.053436 353.991679 
L 126.170449 354.102044 
L 127.592201 354.212409 
L 127.675562 354.24 
L 127.702788 354.212409 
L 128.69924 354.102044 
L 128.873192 353.081168 
L 128.886839 352.970803 
L 129.013085 352.391387 
L 129.028439 352.446569 
L 129.212753 353.632993 
L 129.243481 353.743358 
L 129.371525 354.01927 
L 129.52181 354.129635 
L 129.562807 354.157226 
L 129.620888 354.074453 
L 129.629428 354.074453 
L 129.84132 353.964088 
L 129.960977 353.826131 
L 130.039625 353.936496 
L 130.164462 354.157226 
L 130.316706 354.046861 
L 130.391989 353.991679 
L 130.427926 354.046861 
L 130.782285 354.157226 
L 130.897038 354.212409 
L 132.207485 354.102044 
L 132.417074 352.501752 
L 132.434256 352.391387 
L 132.499558 352.198248 
L 132.540806 352.418978 
L 132.542527 352.418978 
L 132.74194 353.853723 
L 132.851999 353.964088 
L 132.968961 354.074453 
L 133.326906 353.964088 
L 133.443986 353.853723 
L 133.523199 353.964088 
L 133.642047 354.102044 
L 133.736802 353.991679 
L 133.779877 353.936496 
L 133.845361 354.01927 
L 134.171181 354.129635 
L 134.28501 354.184818 
L 135.661684 354.074453 
L 135.928135 351.591241 
L 135.945444 351.480876 
L 135.976597 351.398102 
L 136.035448 351.78438 
L 136.283053 353.964088 
L 136.544642 354.074453 
L 136.660754 354.184818 
L 136.794232 353.826131 
L 136.969369 353.936496 
L 137.094256 354.157226 
L 139.150735 354.046861 
L 139.453927 350.984234 
L 139.487045 351.094599 
L 139.773001 353.881314 
L 139.998044 353.991679 
L 140.114966 354.102044 
L 140.249371 353.991679 
L 140.371594 353.79854 
L 140.572447 353.908905 
L 140.691251 354.046861 
L 141.369669 354.157226 
L 141.48166 354.184818 
L 142.653815 354.074453 
L 142.925779 350.23927 
L 142.980191 350.68073 
L 143.283942 353.715766 
L 143.382306 353.826131 
L 143.501773 353.964088 
L 143.749578 353.853723 
L 143.867374 353.743358 
L 143.934197 353.853723 
L 144.05731 354.046861 
L 144.928757 354.157226 
L 145.04506 354.24 
L 145.905838 354.129635 
L 146.008239 354.102044 
L 146.017068 354.129635 
L 146.135386 354.01927 
L 146.416284 348.832117 
L 146.50288 349.990949 
L 146.863563 353.908905 
L 147.173173 353.79854 
L 147.295298 353.605401 
L 147.390893 353.715766 
L 147.50953 353.853723 
L 147.585683 353.964088 
L 147.706137 354.129635 
L 148.048159 354.01927 
L 148.094254 353.991679 
L 148.154535 354.074453 
L 148.583802 354.184818 
L 148.69739 354.24 
L 149.180402 354.129635 
L 149.29234 354.074453 
L 149.409637 354.184818 
L 149.599853 354.074453 
L 149.79014 349.411533 
L 149.893312 347.756058 
L 149.93779 348.252701 
L 150.405935 353.79854 
L 150.502106 353.908905 
L 150.601859 354.01927 
L 150.617893 353.991679 
L 150.69094 353.881314 
L 150.828154 353.467445 
L 150.960059 353.57781 
L 151.090212 353.881314 
L 151.186507 353.991679 
L 151.306014 354.129635 
L 152.488273 354.24 
L 152.568736 354.267591 
L 152.599136 354.24 
L 153.032079 354.129635 
L 153.254055 349.025255 
L 153.386569 345.190073 
L 153.429554 345.935036 
L 153.787893 353.550219 
L 153.916959 353.826131 
L 154.166211 353.715766 
L 154.304336 353.301898 
L 154.399429 353.412263 
L 154.539412 353.853723 
L 154.639933 353.964088 
L 154.756634 354.046861 
L 155.707362 354.157226 
L 155.822496 354.24 
L 156.024049 354.129635 
L 156.124851 354.102044 
L 156.133854 354.129635 
L 156.485019 354.24 
L 156.530059 354.267591 
L 156.578702 353.991679 
L 156.695832 350.542774 
L 156.874274 342.624088 
L 156.939178 344.362336 
L 157.247579 353.412263 
L 157.283661 353.522628 
L 157.415378 353.853723 
L 157.60309 353.743358 
L 157.754751 353.108759 
L 157.890198 353.219124 
L 158.034711 353.743358 
L 158.085302 353.853723 
L 158.211797 354.102044 
L 159.897006 354.212409 
L 160.014862 354.377956 
L 160.016673 354.350365 
L 160.049316 354.24 
L 160.158133 350.90146 
L 160.355876 338.761314 
L 160.426646 341.244526 
L 160.735234 353.35708 
L 160.796975 353.467445 
L 160.93137 353.826131 
L 161.014933 353.715766 
L 161.151203 353.329489 
L 161.19845 353.219124 
L 161.309316 353.053577 
L 161.318406 353.081168 
L 161.378392 353.191533 
L 161.5293 353.79854 
L 161.569308 353.908905 
L 161.685705 354.074453 
L 161.689344 354.046861 
L 162.457482 354.157226 
L 162.574073 354.24 
L 163.252244 354.129635 
L 163.365353 354.102044 
L 163.436515 354.212409 
L 163.478485 354.295182 
L 163.535063 354.046861 
L 163.628151 351.011825 
L 163.845419 333.656934 
L 163.918469 337.298978 
L 164.205289 353.246715 
L 164.267421 353.35708 
L 164.399021 353.688175 
L 164.567225 353.57781 
L 164.72816 352.805255 
L 164.901951 352.91562 
L 165.064814 353.715766 
L 165.095931 353.826131 
L 165.216743 353.991679 
L 165.918354 354.102044 
L 166.033849 354.184818 
L 166.898069 354.295182 
L 166.9752 354.433139 
L 167.004585 354.267591 
L 167.098262 351.232555 
L 167.333443 327.586861 
L 167.427177 334.760584 
L 167.669853 352.750073 
L 167.68824 352.860438 
L 167.844572 353.550219 
L 167.901598 353.660584 
L 167.942069 353.688175 
L 167.997267 353.522628 
L 168.002785 353.522628 
L 168.175769 352.584526 
L 168.208898 352.474161 
L 168.284372 352.308613 
L 168.323031 352.418978 
L 168.350645 352.529343 
L 168.534789 353.632993 
L 168.584517 353.743358 
L 168.704251 353.881314 
L 168.816643 353.991679 
L 168.934583 354.129635 
L 169.058081 353.936496 
L 169.437962 354.046861 
L 169.552343 354.102044 
L 169.978721 354.212409 
L 170.091368 354.24 
L 170.420205 354.350365 
L 170.486733 354.571095 
L 170.520002 354.184818 
L 170.573604 351.78438 
L 170.693767 334.595036 
L 170.813953 320.633869 
L 170.862037 323.33781 
L 171.219085 352.860438 
L 171.293112 352.970803 
L 171.439346 353.495036 
L 171.528215 353.384672 
L 171.733779 351.977518 
L 171.828253 352.087883 
L 172.052459 353.770949 
L 172.213718 353.881314 
L 172.330523 353.964088 
L 172.996585 354.074453 
L 173.111696 354.157226 
L 173.864195 354.267591 
L 173.949727 354.543504 
L 173.97948 354.377956 
L 174.048292 351.811971 
L 174.150593 336.084964 
L 174.30129 310.756204 
L 174.353392 315.005255 
L 174.720098 352.970803 
L 174.809483 353.081168 
L 174.939864 353.384672 
L 175.010654 353.274307 
L 175.206305 352.005109 
L 175.333047 352.115474 
L 175.538132 353.522628 
L 175.560506 353.632993 
L 175.692923 353.964088 
L 176.211696 353.853723 
L 176.323723 353.826131 
L 176.443243 353.964088 
L 176.523562 354.074453 
L 176.646859 354.267591 
L 176.837464 354.157226 
L 176.942136 354.129635 
L 176.947744 354.157226 
L 177.173978 354.046861 
L 177.265619 353.964088 
L 177.288064 353.991679 
L 177.454557 354.819416 
L 177.52753 352.225839 
L 177.624843 333.905255 
L 177.785818 297.291679 
L 177.838238 303.058248 
L 178.186577 352.143066 
L 178.368323 353.191533 
L 178.495768 353.081168 
L 178.743239 351.067007 
L 178.778869 351.177372 
L 179.063984 353.743358 
L 179.122149 353.853723 
L 179.236621 353.908905 
L 179.392416 354.01927 
L 179.448736 354.074453 
L 179.505063 354.046861 
L 179.587685 353.936496 
L 179.715398 353.688175 
L 179.841259 353.79854 
L 179.984062 354.267591 
L 180.495432 354.157226 
L 180.613941 354.046861 
L 180.824677 354.157226 
L 180.939487 354.929781 
L 180.967721 354.626277 
L 181.009135 352.501752 
L 181.093857 335.505547 
L 181.27275 282.944234 
L 181.334906 292.463212 
L 181.647663 351.646423 
L 181.664627 351.756788 
L 181.866317 353.108759 
L 181.977561 352.998394 
L 182.234068 350.211679 
L 182.266139 350.377226 
L 182.592612 353.522628 
L 182.636029 353.632993 
L 182.75497 353.770949 
L 183.083606 353.660584 
L 183.210198 353.412263 
L 183.319808 353.522628 
L 183.463464 354.01927 
L 183.582576 354.129635 
L 183.696036 354.184818 
L 184.078187 354.074453 
L 184.201206 353.881314 
L 184.307217 353.991679 
L 184.428391 355.12292 
L 184.45869 354.626277 
L 184.511713 349.963358 
L 184.613991 316.026131 
L 184.75986 263.657956 
L 184.812912 272.431971 
L 185.169243 351.453285 
L 185.182514 351.56365 
L 185.375939 352.777664 
L 185.438529 352.667299 
L 185.713631 349.383942 
L 185.755381 349.659854 
L 186.142667 353.688175 
L 186.340203 353.79854 
L 186.450399 353.936496 
L 186.457999 353.908905 
L 186.515005 353.79854 
L 186.661343 353.274307 
L 186.763993 353.384672 
L 186.916096 353.991679 
L 187.113892 354.102044 
L 187.231839 354.212409 
L 187.593439 354.102044 
L 187.71529 353.936496 
L 187.79146 354.046861 
L 187.915256 355.536788 
L 187.947638 354.764234 
L 188.004788 347.56292 
L 188.122912 295.001606 
L 188.248683 247.599854 
L 188.298237 256.760146 
L 188.679554 351.315328 
L 188.698628 351.425693 
L 188.881753 352.474161 
L 188.927544 352.363796 
L 189.217631 349.080438 
L 189.251992 349.273577 
L 189.265354 349.383942 
L 189.675946 353.715766 
L 189.744724 353.826131 
L 189.849817 353.964088 
L 189.863196 353.936496 
L 189.903325 353.826131 
L 190.040941 353.439854 
L 190.344956 353.550219 
L 190.476935 353.853723 
L 190.532414 353.964088 
L 190.652952 354.102044 
L 191.112368 353.991679 
L 191.234939 353.826131 
L 191.269416 353.936496 
L 191.403514 355.840292 
L 191.438001 354.764234 
L 191.50698 341.906715 
L 191.641131 261.423066 
L 191.73889 223.319562 
L 191.788731 234.935474 
L 192.158849 350.542774 
L 192.385251 352.198248 
L 192.415959 352.087883 
L 192.682774 347.811241 
L 192.757656 348.694161 
L 193.009255 352.750073 
L 193.170642 353.495036 
L 193.543528 353.384672 
L 193.662747 353.246715 
L 193.755062 353.35708 
L 193.895484 353.79854 
L 193.958975 353.908905 
L 194.080199 354.074453 
L 194.54608 353.964088 
L 194.667422 353.79854 
L 194.757965 353.908905 
L 194.887057 356.171387 
L 194.925596 354.819416 
L 194.993048 339.616642 
L 195.13954 233.390365 
L 195.224365 197.797664 
L 195.276426 212.448613 
L 195.646749 350.266861 
L 195.660255 350.377226 
L 195.866736 351.756788 
L 195.897618 351.646423 
L 196.17369 347.066277 
L 196.258663 348.031971 
L 196.755205 353.550219 
L 196.967856 353.439854 
L 197.105151 353.053577 
L 197.22507 353.163942 
L 197.364356 353.57781 
L 197.401121 353.688175 
L 197.530772 353.964088 
L 197.683679 354.074453 
L 197.797902 354.129635 
L 197.904399 354.01927 
L 198.024472 353.881314 
L 198.162004 353.770949 
L 198.208501 353.743358 
L 198.253066 354.046861 
L 198.262752 354.157226 
L 198.375144 356.281752 
L 198.410027 354.764234 
L 198.472049 340.140876 
L 198.596112 243.433577 
L 198.710504 174.041606 
L 198.760921 189.216788 
L 199.152758 349.13562 
L 199.374007 351.287737 
L 199.403121 351.12219 
L 199.570089 347.176642 
L 199.669123 345.383212 
L 199.721563 345.962628 
L 200.079029 352.970803 
L 200.115954 353.081168 
L 200.253952 353.467445 
L 200.407538 353.35708 
L 200.561161 352.750073 
L 200.65841 352.860438 
L 200.806258 353.384672 
L 200.852956 353.495036 
L 200.977495 353.688175 
L 201.166298 353.79854 
L 201.290904 353.991679 
L 201.423321 353.881314 
L 201.547977 353.688175 
L 201.727212 353.79854 
L 201.865568 356.805985 
L 201.900652 354.90219 
L 201.966922 335.229635 
L 202.111181 201.550073 
L 202.200874 151.361606 
L 202.253528 169.46146 
L 202.633921 348.887299 
L 202.80566 350.653139 
L 202.873979 350.542774 
L 203.051644 346.45927 
L 203.157093 344.445109 
L 203.209827 345.052117 
L 203.299677 347.894015 
L 203.514589 352.308613 
L 203.532176 352.418978 
L 203.682662 352.970803 
L 203.893797 352.860438 
L 204.013079 352.722482 
L 204.19889 352.832847 
L 204.324102 353.053577 
L 204.369106 353.163942 
L 204.510006 353.605401 
L 204.588299 353.715766 
L 204.705757 353.826131 
L 204.891775 353.715766 
L 205.013204 353.550219 
L 205.107233 353.439854 
L 205.167965 353.412263 
L 205.205192 353.605401 
L 205.21695 353.715766 
L 205.316884 356.668029 
L 205.352162 357.412993 
L 205.389399 355.12292 
L 205.456041 332.608467 
L 205.605027 175.862628 
L 205.689339 126.032847 
L 205.742285 147.140146 
L 206.116953 347.838832 
L 206.338717 350.404818 
L 206.381903 350.046131 
L 206.499696 346.845547 
L 206.646968 343.507007 
L 206.680354 343.810511 
L 206.778557 346.735182 
L 207.018241 352.198248 
L 207.171529 352.805255 
L 207.199046 352.91562 
L 207.334684 353.274307 
L 207.486084 352.694891 
L 207.525413 352.584526 
L 207.588345 352.529343 
L 207.635552 352.584526 
L 207.729969 352.694891 
L 207.879494 353.246715 
L 207.907041 353.35708 
L 208.040864 353.688175 
L 208.206212 353.79854 
L 208.324342 353.908905 
L 208.409017 353.79854 
L 208.540975 353.495036 
L 208.702512 353.605401 
L 208.789209 356.336934 
L 208.838471 357.882044 
L 208.873947 355.536788 
L 208.940954 330.732263 
L 209.088795 161.432409 
L 209.177513 103.65635 
L 209.228778 124.98438 
L 209.617353 347.287007 
L 209.838372 349.825401 
L 209.877848 349.411533 
L 209.970628 346.569635 
L 210.132527 341.934307 
L 210.175971 342.486131 
L 210.648119 352.584526 
L 210.681716 352.694891 
L 210.808214 352.91562 
L 210.845771 352.805255 
L 210.990097 352.336204 
L 211.207637 352.446569 
L 211.367872 353.13635 
L 211.435143 353.246715 
L 211.559813 353.439854 
L 211.629083 353.550219 
L 211.743893 353.605401 
L 211.890401 353.495036 
L 212.017136 353.274307 
L 212.169651 353.384672 
L 212.272669 356.364526 
L 212.322203 358.075182 
L 212.36183 355.316058 
L 212.433169 325.572701 
L 212.60164 119.576496 
L 212.665078 85.584088 
L 212.720588 110.802482 
L 213.103348 346.45927 
L 213.319622 349.439124 
L 213.37916 348.749343 
L 213.466489 346.01781 
L 213.629275 341.272117 
L 213.674942 341.934307 
L 214.117876 352.943212 
L 214.177487 352.860438 
L 214.419959 352.750073 
L 214.57702 352.115474 
L 214.65457 352.225839 
L 214.831576 353.13635 
L 214.861413 353.246715 
L 215.010623 353.770949 
L 215.058376 353.881314 
L 215.175787 353.991679 
L 215.257391 353.881314 
L 215.35692 353.853723 
L 215.366874 353.881314 
L 215.498276 353.770949 
L 215.631697 353.329489 
L 215.637674 353.35708 
L 215.667548 353.467445 
L 215.751204 356.116204 
L 215.808974 358.295912 
L 215.846826 355.536788 
L 215.912571 329.214745 
L 216.050067 158.066277 
L 216.155696 70.712409 
L 216.205528 92.343942 
L 216.620275 346.072993 
L 216.797819 348.776934 
L 216.865656 347.949197 
L 217.109136 340.554745 
L 217.182996 342.155036 
L 217.678276 352.777664 
L 217.770182 352.667299 
L 217.902073 352.363796 
L 217.954034 352.253431 
L 218.08996 351.894745 
L 218.17593 352.005109 
L 218.347896 352.860438 
L 218.373897 352.970803 
L 218.523911 353.522628 
L 219.008192 353.412263 
L 219.106295 353.301898 
L 219.122312 353.35708 
L 219.142336 353.467445 
L 219.242458 356.309343 
L 219.296532 358.24073 
L 219.334585 355.454015 
L 219.402687 326.952263 
L 219.544923 140.049197 
L 219.643107 58.599854 
L 219.695208 82.935328 
L 220.098137 345.217664 
L 220.298689 348.666569 
L 220.326772 348.473431 
L 220.425069 345.603942 
L 220.595623 340.334015 
L 220.647798 340.996204 
L 220.724066 343.534599 
L 221.035245 351.839562 
L 221.097498 351.949927 
L 221.240103 352.391387 
L 221.360638 352.281022 
L 221.525403 351.536058 
L 221.666086 351.646423 
L 221.869128 352.91562 
L 221.939503 353.025985 
L 222.070219 353.301898 
L 222.116482 353.412263 
L 222.241198 353.632993 
L 222.375999 353.301898 
L 222.41423 353.191533 
L 222.530954 353.108759 
L 222.609452 353.219124 
L 222.730234 356.392117 
L 222.784592 358.24073 
L 222.820834 355.647153 
L 222.891313 326.345255 
L 223.032287 140.545839 
L 223.135017 52.888467 
L 223.185381 76.285839 
L 223.596489 344.941752 
L 223.812224 348.280292 
L 223.876753 347.287007 
L 224.040129 339.809781 
L 224.092579 338.844088 
L 224.147047 339.892555 
L 224.284255 346.652409 
L 224.482045 351.453285 
L 224.677873 352.612117 
L 224.815188 352.501752 
L 224.994952 351.56365 
L 225.138394 351.674015 
L 225.316226 352.584526 
L 225.354624 352.694891 
L 225.514317 353.35708 
L 225.546665 353.467445 
L 225.672028 353.660584 
L 225.866182 353.550219 
L 225.997671 353.274307 
L 226.098838 353.384672 
L 226.218231 356.474891 
L 226.272873 358.323504 
L 226.309306 355.619562 
L 226.380153 326.179708 
L 226.521867 140.187153 
L 226.625137 52.916058 
L 226.675765 75.899562 
L 227.095105 345.024526 
L 227.277511 347.673285 
L 227.29778 347.535328 
L 227.409278 344.555474 
L 227.587713 339.202774 
L 227.634358 339.837372 
L 227.820965 347.949197 
L 228.027915 351.922336 
L 228.052268 352.032701 
L 228.184186 352.336204 
L 228.324253 352.225839 
L 228.504962 351.260146 
L 228.551666 351.149781 
L 228.594316 351.12219 
L 228.645092 351.315328 
L 228.647124 351.315328 
L 228.88887 353.108759 
L 228.923411 353.219124 
L 229.041274 353.329489 
L 229.10428 353.439854 
L 229.236406 353.770949 
L 229.390923 353.163942 
L 229.443791 353.053577 
L 229.541409 353.025985 
L 229.553609 353.053577 
L 229.584119 353.163942 
L 229.700064 356.226569 
L 229.761094 358.323504 
L 229.797715 355.536788 
L 229.86893 324.551825 
L 230.01952 122.887445 
L 230.111114 51.84 
L 230.162004 75.044234 
L 230.577407 344.610657 
L 230.752605 347.259416 
L 230.781129 347.12146 
L 230.793356 347.011095 
L 230.909505 343.976058 
L 231.090907 338.844088 
L 231.131675 339.451095 
L 231.304978 347.149051 
L 231.529317 351.78438 
L 231.678236 352.308613 
L 231.821065 352.198248 
L 231.998626 351.287737 
L 232.102732 351.398102 
L 232.317125 352.805255 
L 232.337544 352.91562 
L 232.474387 353.274307 
L 232.613299 353.384672 
L 232.74202 353.632993 
L 232.819673 353.522628 
L 232.958655 353.13635 
L 233.095622 353.246715 
L 233.185583 355.950657 
L 233.242837 358.02 
L 233.281694 355.536788 
L 233.351228 328.938832 
L 233.488272 159.473431 
L 233.600792 62.600584 
L 233.649897 83.128467 
L 234.083811 344.445109 
L 234.266056 347.645693 
L 234.298823 347.314599 
L 234.382797 344.693431 
L 234.567172 338.761314 
L 234.595854 339.064818 
L 234.821278 348.114745 
L 235.02627 351.949927 
L 235.079576 352.060292 
L 235.130838 352.087883 
L 235.180053 351.949927 
L 235.182106 351.949927 
L 235.223119 351.839562 
L 235.354384 351.56365 
L 235.415923 351.453285 
L 235.545173 351.204964 
L 235.59852 351.315328 
L 235.770905 352.143066 
L 235.795536 352.253431 
L 235.974129 353.163942 
L 236.004923 353.274307 
L 236.134284 353.522628 
L 236.21643 353.412263 
L 236.36021 352.970803 
L 236.547169 353.081168 
L 236.697183 356.585255 
L 236.73623 357.495766 
L 236.771174 355.260876 
L 236.839007 331.256496 
L 236.968521 181.049781 
L 237.091895 70.574453 
L 237.141248 90.164234 
L 237.579428 344.527883 
L 237.739958 347.645693 
L 237.789361 347.176642 
L 237.877878 344.527883 
L 238.059069 339.092409 
L 238.104374 339.837372 
L 238.258847 346.928321 
L 238.452499 351.370511 
L 238.615292 352.060292 
L 238.751325 351.949927 
L 238.899755 351.453285 
L 238.93068 351.34292 
L 239.037907 351.094599 
L 239.056465 351.149781 
L 239.091525 351.260146 
L 239.299851 352.556934 
L 239.351424 352.667299 
L 239.499984 353.163942 
L 239.570148 353.274307 
L 239.586657 353.301898 
L 239.66715 353.163942 
L 239.671278 353.163942 
L 239.751781 353.053577 
L 239.784809 353.025985 
L 239.838484 353.108759 
L 239.857065 353.108759 
L 240.001602 352.998394 
L 240.065619 352.888029 
L 240.096598 353.191533 
L 240.162691 355.481606 
L 240.226725 357.826861 
L 240.265973 355.260876 
L 240.334149 329.656204 
L 240.480851 161.266861 
L 240.582115 88.922628 
L 240.631716 107.574307 
L 241.072101 345.134891 
L 241.243783 347.728467 
L 241.272744 347.535328 
L 241.37619 344.721022 
L 241.547946 339.285547 
L 241.601758 340.058102 
L 242.162886 352.060292 
L 242.289253 351.949927 
L 242.490244 350.735912 
L 242.55242 350.846277 
L 242.803242 352.722482 
L 242.836417 352.832847 
L 242.975349 353.219124 
L 243.211802 353.329489 
L 243.317608 353.412263 
L 243.325908 353.384672 
L 243.384006 353.274307 
L 243.510594 353.053577 
L 243.552102 353.163942 
L 243.670417 356.198978 
L 243.711936 357.109489 
L 243.749303 355.12292 
L 243.81782 334.153577 
L 243.954867 196.859562 
L 244.073249 110.471387 
L 244.1231 127.357226 
L 244.569837 346.045401 
L 244.740294 348.335474 
L 244.761085 348.197518 
L 244.77356 348.087153 
L 244.879601 345.217664 
L 245.045977 340.692701 
L 245.089655 341.272117 
L 245.601527 351.922336 
L 245.674386 352.032701 
L 245.780565 352.115474 
L 245.788891 352.087883 
L 245.836781 351.977518 
L 245.9888 351.425693 
L 246.049201 351.536058 
L 246.2346 352.529343 
L 246.270019 352.639708 
L 246.409627 353.025985 
L 246.461725 353.13635 
L 246.586783 353.329489 
L 246.670165 353.439854 
L 246.763979 353.522628 
L 246.784831 353.495036 
L 246.84947 353.384672 
L 246.980849 353.108759 
L 247.039248 353.219124 
L 247.201958 356.530073 
L 247.239509 354.653869 
L 247.312536 333.243066 
L 247.458609 197.687299 
L 247.565055 133.868759 
L 247.615151 149.540584 
L 248.055741 345.79708 
L 248.245841 348.501022 
L 248.308522 347.700876 
L 248.532132 342.01708 
L 248.596929 342.927591 
L 249.065317 352.363796 
L 249.169909 352.474161 
L 249.190831 352.501752 
L 249.272425 352.363796 
L 249.324734 352.253431 
L 249.481688 351.646423 
L 249.594713 351.756788 
L 249.818725 353.246715 
L 249.850136 353.35708 
L 249.971598 353.495036 
L 250.164302 353.605401 
L 250.269057 353.660584 
L 250.277437 353.632993 
L 250.35706 353.522628 
L 250.499567 353.108759 
L 250.539392 353.219124 
L 250.688224 356.502482 
L 250.730151 354.433139 
L 250.805631 333.022336 
L 250.979687 187.25781 
L 251.055195 157.928321 
L 251.107634 173.075912 
L 251.539881 347.12146 
L 251.716214 349.328759 
L 251.770799 348.721752 
L 252.022797 343.424234 
L 252.066907 343.865693 
L 252.195045 346.983504 
L 252.436683 352.170657 
L 252.453493 352.281022 
L 252.588009 352.584526 
L 252.697318 352.474161 
L 252.823468 352.281022 
L 252.928612 352.170657 
L 253.052695 351.977518 
L 253.12842 352.087883 
L 253.319869 353.163942 
L 253.347222 353.274307 
L 253.488216 353.688175 
L 253.559776 353.79854 
L 253.673444 353.853723 
L 253.738707 353.743358 
L 253.871355 353.439854 
L 254.020876 353.550219 
L 254.178855 356.198978 
L 254.216775 354.736642 
L 254.284193 340.803066 
L 254.416941 251.379854 
L 254.545498 185.02292 
L 254.591868 195.25927 
L 255.068389 348.418248 
L 255.209721 349.659854 
L 255.251913 349.383942 
L 255.429152 345.631533 
L 255.522009 344.610657 
L 255.56633 344.941752 
L 255.6972 348.087153 
L 255.986467 352.750073 
L 256.009699 352.860438 
L 256.144874 353.191533 
L 256.233596 353.081168 
L 256.387832 352.501752 
L 256.704854 352.612117 
L 256.886674 353.550219 
L 256.94588 353.660584 
L 257.066425 353.79854 
L 257.34989 353.688175 
L 257.481081 353.412263 
L 257.521287 353.522628 
L 257.665211 355.895474 
L 257.705431 354.488321 
L 257.771055 343.037956 
L 257.898088 272.349197 
L 258.037847 208.337518 
L 258.084441 216.945985 
L 258.571726 349.301168 
L 258.694658 350.073723 
L 258.726454 349.880584 
L 258.739173 349.770219 
L 259.0042 346.045401 
L 259.080545 346.735182 
L 259.245986 350.322044 
L 259.458146 352.998394 
L 259.489975 353.108759 
L 259.593957 353.246715 
L 259.608816 353.219124 
L 259.702205 353.108759 
L 259.833818 352.832847 
L 259.893262 352.722482 
L 260.016415 352.556934 
L 260.171447 353.13635 
L 260.192687 353.246715 
L 260.352005 353.881314 
L 260.57086 353.991679 
L 260.694127 354.157226 
L 260.783401 354.046861 
L 260.919461 353.715766 
L 261.010888 353.826131 
L 261.151243 355.647153 
L 261.189524 354.819416 
L 261.257588 345.879854 
L 261.376714 292.242482 
L 261.529905 228.948175 
L 261.57672 236.673723 
L 262.049287 349.245985 
L 262.211136 350.653139 
L 262.251603 350.432409 
L 262.522158 346.845547 
L 262.586082 347.480146 
L 262.901523 352.777664 
L 263.052897 353.301898 
L 263.095543 353.412263 
L 263.182973 353.495036 
L 263.210698 353.467445 
L 263.281083 353.35708 
L 263.421866 352.970803 
L 263.543476 353.081168 
L 263.682177 353.439854 
L 263.761139 353.550219 
L 263.904149 353.964088 
L 263.940441 354.074453 
L 264.066403 354.267591 
L 264.412379 354.157226 
L 264.485014 354.046861 
L 264.523469 354.157226 
L 264.649531 355.205693 
L 264.675173 354.764234 
L 264.745692 347.894015 
L 264.861108 307.610803 
L 265.02143 254.387299 
L 265.068466 260.374599 
L 265.545399 350.156496 
L 265.708011 351.094599 
L 265.72513 351.039416 
L 265.748669 350.929051 
L 266.003368 348.749343 
L 266.022636 348.832117 
L 266.044043 348.942482 
L 266.515174 353.57781 
L 266.626575 353.688175 
L 266.740136 353.715766 
L 266.827994 353.605401 
L 266.956591 353.384672 
L 267.115222 353.495036 
L 267.267453 354.046861 
L 267.314629 354.157226 
L 267.428294 354.24 
L 267.539829 354.212409 
L 267.664258 354.322774 
L 267.758661 354.377956 
L 267.77583 354.350365 
L 268.001167 354.46073 
L 268.134257 355.56438 
L 268.162166 355.12292 
L 268.220136 350.791095 
L 268.34038 318.592117 
L 268.507893 272.707883 
L 268.555147 277.508759 
L 269.047199 351.149781 
L 269.167577 351.729197 
L 269.193373 351.618832 
L 269.21702 351.508467 
L 269.511614 349.13562 
L 269.967702 353.57781 
L 270.032268 353.688175 
L 270.148494 353.770949 
L 270.238906 353.660584 
L 270.361624 353.495036 
L 270.613585 353.605401 
L 270.749289 353.936496 
L 270.839775 354.046861 
L 270.964746 354.24 
L 271.501494 354.350365 
L 271.626575 355.095328 
L 271.648143 354.874599 
L 271.723634 350.128905 
L 271.848752 320.247591 
L 271.999784 286.86219 
L 272.049414 291.166423 
L 272.496239 351.232555 
L 272.688434 352.336204 
L 272.690593 352.308613 
L 272.733789 352.198248 
L 272.980055 350.349635 
L 272.986536 350.377226 
L 273.014626 350.487591 
L 273.384192 353.79854 
L 273.795032 353.688175 
L 273.92698 353.412263 
L 274.020004 353.522628 
L 274.162813 353.936496 
L 274.245046 354.046861 
L 274.368413 354.212409 
L 275.011544 354.322774 
L 275.109035 354.68146 
L 275.132869 354.46073 
L 275.189206 352.391387 
L 275.308391 334.953723 
L 275.494791 302.671971 
L 275.548985 306.893431 
L 275.978339 351.536058 
L 276.167073 352.529343 
L 276.216975 352.418978 
L 276.44266 350.956642 
L 276.538165 351.067007 
L 276.837771 353.467445 
L 276.866001 353.57781 
L 276.998478 353.853723 
L 277.35259 353.743358 
L 277.476456 353.57781 
L 277.589477 353.688175 
L 277.713383 353.853723 
L 277.772084 353.964088 
L 277.909064 354.295182 
L 278.085222 354.184818 
L 278.213558 353.964088 
L 278.398488 354.074453 
L 278.544287 354.515912 
L 278.618284 354.405547 
L 278.690112 352.115474 
L 278.80984 337.492117 
L 278.986203 314.839708 
L 279.029757 316.826277 
L 279.543859 352.639708 
L 279.589619 352.750073 
L 279.676795 352.832847 
L 279.70077 352.750073 
L 279.731283 352.639708 
L 279.925297 351.591241 
L 280.00379 351.701606 
L 280.237129 353.246715 
L 280.263301 353.35708 
L 280.415996 353.881314 
L 280.503265 353.991679 
L 280.605818 354.046861 
L 280.616729 354.01927 
L 280.754214 353.908905 
L 280.874264 353.79854 
L 281.265092 353.908905 
L 281.396143 354.157226 
L 281.498813 354.267591 
L 281.573092 354.295182 
L 281.608052 354.24 
L 281.747898 354.129635 
L 281.80472 354.102044 
L 281.854987 354.129635 
L 281.973017 354.24 
L 282.032042 354.350365 
L 282.09544 354.433139 
L 282.128237 354.212409 
L 282.198204 352.032701 
L 282.349091 335.56073 
L 282.480323 325.186423 
L 282.521885 326.731533 
L 282.694715 344.610657 
L 282.891658 352.225839 
L 283.06019 352.970803 
L 283.230951 352.860438 
L 283.406128 352.032701 
L 283.517824 352.143066 
L 283.723736 353.35708 
L 283.747839 353.467445 
L 283.88807 353.853723 
L 284.679534 353.964088 
L 284.800185 354.102044 
L 285.476187 354.212409 
L 285.570607 354.350365 
L 285.59257 354.295182 
L 285.706774 351.536058 
L 285.869322 337.823212 
L 285.972581 333.105109 
L 286.023116 334.567445 
L 286.506668 353.301898 
L 286.744155 353.191533 
L 286.889321 352.750073 
L 287.045515 352.860438 
L 287.225945 353.743358 
L 287.254554 353.853723 
L 287.382207 354.074453 
L 287.597942 354.184818 
L 287.675003 354.267591 
L 287.712437 354.24 
L 287.798319 354.129635 
L 287.923856 353.936496 
L 288.097878 354.046861 
L 288.219056 354.184818 
L 288.979594 354.295182 
L 289.07223 354.405547 
L 289.092084 354.322774 
L 289.109731 354.212409 
L 289.213412 351.536058 
L 289.458335 338.926861 
L 289.53337 341.023796 
L 289.886578 353.13635 
L 290.034529 353.605401 
L 290.171466 353.495036 
L 290.312845 353.108759 
L 290.405635 352.998394 
L 290.43657 352.970803 
L 290.496228 353.053577 
L 290.50949 353.053577 
L 290.661978 353.57781 
L 290.69513 353.688175 
L 290.83439 354.046861 
L 291.183753 354.157226 
L 291.298764 354.212409 
L 291.418221 354.102044 
L 291.792185 354.212409 
L 291.90507 354.24 
L 292.604886 354.129635 
L 292.728969 351.204964 
L 292.952806 343.010365 
L 293.023741 344.251971 
L 293.504915 353.495036 
L 293.842132 353.384672 
L 293.966407 353.219124 
L 294.066284 353.329489 
L 294.212793 353.770949 
L 294.257194 353.881314 
L 294.385971 354.102044 
L 295.11685 354.212409 
L 295.234653 354.295182 
L 296.095353 354.184818 
L 296.255585 350.818686 
L 296.447014 345.79708 
L 296.489312 346.210949 
L 296.582822 348.749343 
L 296.809964 353.13635 
L 296.850053 353.246715 
L 296.99707 353.688175 
L 297.030486 353.79854 
L 297.130742 353.964088 
L 297.153023 353.936496 
L 297.204271 353.826131 
L 297.349122 353.412263 
L 297.518521 353.522628 
L 297.647821 353.743358 
L 297.741464 353.853723 
L 297.864112 354.01927 
L 297.980083 354.129635 
L 298.087152 354.184818 
L 298.091612 354.157226 
L 298.263394 354.046861 
L 298.332567 354.01927 
L 298.372733 354.046861 
L 298.70306 354.157226 
L 298.816919 354.212409 
L 299.594274 354.102044 
L 299.822263 349.935766 
L 299.947458 348.363066 
L 299.985468 348.638978 
L 300.157652 352.115474 
L 300.323161 353.495036 
L 300.419352 353.605401 
L 300.551354 353.881314 
L 300.817657 353.770949 
L 300.929574 353.743358 
L 301.090763 353.853723 
L 301.218392 354.074453 
L 301.608123 354.184818 
L 301.72015 354.212409 
L 303.103819 354.102044 
L 303.445047 350.073723 
L 303.507922 350.46 
L 303.903237 353.964088 
L 304.710182 354.074453 
L 304.827128 354.157226 
L 305.713782 354.267591 
L 305.830872 354.350365 
L 306.161969 354.24 
L 306.265606 354.212409 
L 306.272366 354.24 
L 306.574339 354.129635 
L 306.896714 351.536058 
L 306.971127 351.646423 
L 307.244029 353.632993 
L 307.293656 353.743358 
L 307.419997 353.936496 
L 307.548613 354.046861 
L 307.661448 354.074453 
L 307.783332 353.936496 
L 308.216831 354.046861 
L 308.336535 354.157226 
L 309.466669 354.267591 
L 309.520957 354.295182 
L 309.577505 354.267591 
L 310.05721 354.157226 
L 310.242829 353.246715 
L 310.258679 353.13635 
L 310.439812 352.281022 
L 310.489634 352.391387 
L 310.700267 353.605401 
L 310.729712 353.715766 
L 310.867904 354.046861 
L 311.783709 354.157226 
L 311.89939 354.212409 
L 313.075244 354.322774 
L 313.184288 354.350365 
L 313.186558 354.322774 
L 313.427413 354.24 
L 313.538775 354.157226 
L 313.609237 354.046861 
L 313.79337 353.13635 
L 313.816106 353.025985 
L 313.925244 352.750073 
L 313.945711 352.777664 
L 314.116271 353.495036 
L 314.152664 353.605401 
L 314.289145 353.908905 
L 314.40517 354.01927 
L 314.516662 354.046861 
L 315.101661 354.157226 
L 315.213243 354.184818 
L 317.12154 354.074453 
L 317.283613 353.439854 
L 317.317856 353.329489 
L 317.425166 353.13635 
L 317.44115 353.163942 
L 317.502803 353.274307 
L 317.651244 353.743358 
L 317.699207 353.853723 
L 317.824841 354.046861 
L 318.663625 354.157226 
L 318.777963 354.212409 
L 320.616366 354.102044 
L 320.751595 353.79854 
L 320.802026 353.688175 
L 320.923532 353.550219 
L 321.015247 353.660584 
L 321.15054 353.964088 
L 321.464783 354.074453 
L 321.584086 354.184818 
L 324.162357 354.074453 
L 324.302752 353.715766 
L 324.387918 353.605401 
L 324.406336 353.57781 
L 324.489212 353.715766 
L 324.542164 353.826131 
L 324.675716 354.102044 
L 326.016951 354.212409 
L 326.129966 354.24 
L 327.653675 354.129635 
L 327.778458 353.964088 
L 328.159859 354.074453 
L 328.280092 354.184818 
L 331.14284 354.074453 
L 331.263485 353.964088 
L 331.648733 354.074453 
L 331.769448 354.184818 
L 334.790392 354.074453 
L 334.902219 354.046861 
L 335.1096 354.157226 
L 335.221471 354.184818 
L 338.350156 354.074453 
L 338.462435 354.046861 
L 338.670654 354.157226 
L 338.785313 354.212409 
L 388.79841 354.24 
L 388.79841 354.24 
" clip-path="url(#paecfe5e239)" style="fill: none; stroke: #8286ff; stroke-linecap: square"/>
   </g>
   <g id="patch_3">
    <path d="M 54 384.48 
L 54 51.84 
" style="fill: none; stroke: #000000; stroke-width: 0.5; stroke-linejoin: miter; stroke-linecap: square"/>
   </g>
   <g id="patch_4">
    <path d="M 54 384.48 
L 388.8 384.48 
" style="fill: none; stroke: #000000; stroke-width: 0.5; stroke-linejoin: miter; stroke-linecap: square"/>
   </g>
   <g id="text_14">
    <!-- PS-F1-10K_MALDI -->
    <g transform="translate(152.93375 31.84) scale(0.16 -0.16)">
     <defs>
      <path id="Helvetica-50" d="M 547 4591 
L 2613 4591 
Q 3225 4591 3600 4245 
Q 3975 3900 3975 3275 
Q 3975 2738 3640 2339 
Q 3306 1941 2613 1941 
L 1169 1941 
L 1169 0 
L 547 0 
L 547 4591 
z
M 3347 3272 
Q 3347 3778 2972 3959 
Q 2766 4056 2406 4056 
L 1169 4056 
L 1169 2466 
L 2406 2466 
Q 2825 2466 3086 2644 
Q 3347 2822 3347 3272 
z
" transform="scale(0.015625)"/>
      <path id="Helvetica-53" d="M 894 1481 
Q 916 1091 1078 847 
Q 1388 391 2169 391 
Q 2519 391 2806 491 
Q 3363 684 3363 1184 
Q 3363 1559 3128 1719 
Q 2891 1875 2384 1991 
L 1763 2131 
Q 1153 2269 900 2434 
Q 463 2722 463 3294 
Q 463 3913 891 4309 
Q 1319 4706 2103 4706 
Q 2825 4706 3329 4357 
Q 3834 4009 3834 3244 
L 3250 3244 
Q 3203 3613 3050 3809 
Q 2766 4169 2084 4169 
Q 1534 4169 1293 3937 
Q 1053 3706 1053 3400 
Q 1053 3063 1334 2906 
Q 1519 2806 2169 2656 
L 2813 2509 
Q 3278 2403 3531 2219 
Q 3969 1897 3969 1284 
Q 3969 522 3414 194 
Q 2859 -134 2125 -134 
Q 1269 -134 784 303 
Q 300 738 309 1481 
L 894 1481 
z
M 2150 4716 
L 2150 4716 
z
" transform="scale(0.015625)"/>
      <path id="Helvetica-2d" d="M 266 2072 
L 1834 2072 
L 1834 1494 
L 266 1494 
L 266 2072 
z
" transform="scale(0.015625)"/>
      <path id="Helvetica-46" d="M 547 4591 
L 3731 4591 
L 3731 4028 
L 1169 4028 
L 1169 2634 
L 3422 2634 
L 3422 2088 
L 1169 2088 
L 1169 0 
L 547 0 
L 547 4591 
z
" transform="scale(0.015625)"/>
      <path id="Helvetica-4b" d="M 488 4591 
L 1094 4591 
L 1094 2353 
L 3331 4591 
L 4191 4591 
L 2281 2741 
L 4244 0 
L 3434 0 
L 1828 2303 
L 1094 1600 
L 1094 0 
L 488 0 
L 488 4591 
z
" transform="scale(0.015625)"/>
      <path id="Helvetica-5f" d="M 0 -800 
L 0 -484 
L 3559 -484 
L 3559 -800 
L 0 -800 
z
" transform="scale(0.015625)"/>
      <path id="Helvetica-4d" d="M 472 4591 
L 1363 4591 
L 2681 709 
L 3991 4591 
L 4872 4591 
L 4872 0 
L 4281 0 
L 4281 2709 
Q 4281 2850 4287 3175 
Q 4294 3500 4294 3872 
L 2984 0 
L 2369 0 
L 1050 3872 
L 1050 3731 
Q 1050 3563 1058 3217 
Q 1066 2872 1066 2709 
L 1066 0 
L 472 0 
L 472 4591 
z
" transform="scale(0.015625)"/>
      <path id="Helvetica-41" d="M 2844 1881 
L 2147 3909 
L 1406 1881 
L 2844 1881 
z
M 1822 4591 
L 2525 4591 
L 4191 0 
L 3509 0 
L 3044 1375 
L 1228 1375 
L 731 0 
L 94 0 
L 1822 4591 
z
" transform="scale(0.015625)"/>
      <path id="Helvetica-4c" d="M 488 4591 
L 1109 4591 
L 1109 547 
L 3434 547 
L 3434 0 
L 488 0 
L 488 4591 
z
" transform="scale(0.015625)"/>
      <path id="Helvetica-44" d="M 2250 531 
Q 2566 531 2769 597 
Q 3131 719 3363 1066 
Q 3547 1344 3628 1778 
Q 3675 2038 3675 2259 
Q 3675 3113 3336 3584 
Q 2997 4056 2244 4056 
L 1141 4056 
L 1141 531 
L 2250 531 
z
M 516 4591 
L 2375 4591 
Q 3322 4591 3844 3919 
Q 4309 3313 4309 2366 
Q 4309 1634 4034 1044 
Q 3550 0 2369 0 
L 516 0 
L 516 4591 
z
" transform="scale(0.015625)"/>
     </defs>
     <use xlink:href="#Helvetica-50"/>
     <use xlink:href="#Helvetica-53" x="66.699219"/>
     <use xlink:href="#Helvetica-2d" x="133.398438"/>
     <use xlink:href="#Helvetica-46" x="166.699219"/>
     <use xlink:href="#Helvetica-31" x="227.783203"/>
     <use xlink:href="#Helvetica-2d" x="283.398438"/>
     <use xlink:href="#Helvetica-31" x="316.699219"/>
     <use xlink:href="#Helvetica-30" x="372.314453"/>
     <use xlink:href="#Helvetica-4b" x="427.929688"/>
     <use xlink:href="#Helvetica-5f" x="494.628906"/>
     <use xlink:href="#Helvetica-4d" x="550.244141"/>
     <use xlink:href="#Helvetica-41" x="633.544922"/>
     <use xlink:href="#Helvetica-4c" x="700.244141"/>
     <use xlink:href="#Helvetica-44" x="755.859375"/>
     <use xlink:href="#Helvetica-49" x="828.076172"/>
    </g>
   </g>
   <g id="legend_1">
    <g id="patch_5">
     <path d="M 318.03125 69.64625 
L 383.2 69.64625 
Q 384.8 69.64625 384.8 68.04625 
L 384.8 57.44 
Q 384.8 55.84 383.2 55.84 
L 318.03125 55.84 
Q 316.43125 55.84 316.43125 57.44 
L 316.43125 68.04625 
Q 316.43125 69.64625 318.03125 69.64625 
z
" style="fill: #ffffff; opacity: 0.8; stroke: #cccccc; stroke-linejoin: miter"/>
    </g>
    <g id="line2d_13">
     <path d="M 319.63125 61.97875 
L 327.63125 61.97875 
L 335.63125 61.97875 
" style="fill: none; stroke: #8286ff; stroke-linecap: square"/>
    </g>
    <g id="text_15">
     <!-- PS-F1-10K -->
     <g transform="translate(342.03125 64.77875) scale(0.08 -0.08)">
      <use xlink:href="#Helvetica-50"/>
      <use xlink:href="#Helvetica-53" x="66.699219"/>
      <use xlink:href="#Helvetica-2d" x="133.398438"/>
      <use xlink:href="#Helvetica-46" x="166.699219"/>
      <use xlink:href="#Helvetica-31" x="227.783203"/>
      <use xlink:href="#Helvetica-2d" x="283.398438"/>
      <use xlink:href="#Helvetica-31" x="316.699219"/>
      <use xlink:href="#Helvetica-30" x="372.314453"/>
      <use xlink:href="#Helvetica-4b" x="427.929688"/>
     </g>
    </g>
   </g>
  </g>
 </g>
 <defs>
  <clipPath id="paecfe5e239">
   <rect x="54" y="51.84" width="334.8" height="332.64"/>
  </clipPath>
 </defs>
</svg>
