<?xml version="1.0" encoding="utf-8" standalone="no"?>
<!DOCTYPE svg PUBLIC "-//W3C//DTD SVG 1.1//EN"
  "http://www.w3.org/Graphics/SVG/1.1/DTD/svg11.dtd">
<svg xmlns:xlink="http://www.w3.org/1999/xlink" width="504pt" height="360pt" viewBox="0 0 504 360" xmlns="http://www.w3.org/2000/svg" version="1.1">
 <metadata>
  <rdf:RDF xmlns:dc="http://purl.org/dc/elements/1.1/" xmlns:cc="http://creativecommons.org/ns#" xmlns:rdf="http://www.w3.org/1999/02/22-rdf-syntax-ns#">
   <cc:Work>
    <dc:type rdf:resource="http://purl.org/dc/dcmitype/StillImage"/>
    <dc:date>2025-02-24T23:51:59.924773</dc:date>
    <dc:format>image/svg+xml</dc:format>
    <dc:creator>
     <cc:Agent>
      <dc:title>Matplotlib v3.7.1, https://matplotlib.org/</dc:title>
     </cc:Agent>
    </dc:creator>
   </cc:Work>
  </rdf:RDF>
 </metadata>
 <defs>
  <style type="text/css">*{stroke-linejoin: round; stroke-linecap: butt}</style>
 </defs>
 <g id="figure_1">
  <g id="patch_1">
   <path d="M 0 360 
L 504 360 
L 504 0 
L 0 0 
z
" style="fill: #ffffff"/>
  </g>
  <g id="axes_1">
   <g id="patch_2">
    <path d="M 52.93 312.92 
L 466.035 312.92 
L 466.035 33.96 
L 52.93 33.96 
z
" style="fill: #ffffff"/>
   </g>
   <g id="matplotlib.axis_1">
    <g id="xtick_1">
     <g id="line2d_1">
      <defs>
       <path id="m977bb9432b" d="M 0 0 
L 0 -3.5 
" style="stroke: #000000; stroke-width: 0.8"/>
      </defs>
      <g>
       <use xlink:href="#m977bb9432b" x="64.733" y="312.92" style="stroke: #000000; stroke-width: 0.8"/>
      </g>
     </g>
     <g id="text_1">
      <!-- 6.8 -->
      <g transform="translate(55.191125 325.538125) scale(0.12 -0.12)">
       <defs>
        <path id="DejaVuSans-36" d="M 2113 2584 
Q 1688 2584 1439 2293 
Q 1191 2003 1191 1497 
Q 1191 994 1439 701 
Q 1688 409 2113 409 
Q 2538 409 2786 701 
Q 3034 994 3034 1497 
Q 3034 2003 2786 2293 
Q 2538 2584 2113 2584 
z
M 3366 4563 
L 3366 3988 
Q 3128 4100 2886 4159 
Q 2644 4219 2406 4219 
Q 1781 4219 1451 3797 
Q 1122 3375 1075 2522 
Q 1259 2794 1537 2939 
Q 1816 3084 2150 3084 
Q 2853 3084 3261 2657 
Q 3669 2231 3669 1497 
Q 3669 778 3244 343 
Q 2819 -91 2113 -91 
Q 1303 -91 875 529 
Q 447 1150 447 2328 
Q 447 3434 972 4092 
Q 1497 4750 2381 4750 
Q 2619 4750 2861 4703 
Q 3103 4656 3366 4563 
z
" transform="scale(0.015625)"/>
        <path id="DejaVuSans-2e" d="M 684 794 
L 1344 794 
L 1344 0 
L 684 0 
L 684 794 
z
" transform="scale(0.015625)"/>
        <path id="DejaVuSans-38" d="M 2034 2216 
Q 1584 2216 1326 1975 
Q 1069 1734 1069 1313 
Q 1069 891 1326 650 
Q 1584 409 2034 409 
Q 2484 409 2743 651 
Q 3003 894 3003 1313 
Q 3003 1734 2745 1975 
Q 2488 2216 2034 2216 
z
M 1403 2484 
Q 997 2584 770 2862 
Q 544 3141 544 3541 
Q 544 4100 942 4425 
Q 1341 4750 2034 4750 
Q 2731 4750 3128 4425 
Q 3525 4100 3525 3541 
Q 3525 3141 3298 2862 
Q 3072 2584 2669 2484 
Q 3125 2378 3379 2068 
Q 3634 1759 3634 1313 
Q 3634 634 3220 271 
Q 2806 -91 2034 -91 
Q 1263 -91 848 271 
Q 434 634 434 1313 
Q 434 1759 690 2068 
Q 947 2378 1403 2484 
z
M 1172 3481 
Q 1172 3119 1398 2916 
Q 1625 2713 2034 2713 
Q 2441 2713 2670 2916 
Q 2900 3119 2900 3481 
Q 2900 3844 2670 4047 
Q 2441 4250 2034 4250 
Q 1625 4250 1398 4047 
Q 1172 3844 1172 3481 
z
" transform="scale(0.015625)"/>
       </defs>
       <use xlink:href="#DejaVuSans-36"/>
       <use xlink:href="#DejaVuSans-2e" x="63.623047"/>
       <use xlink:href="#DejaVuSans-38" x="95.410156"/>
      </g>
     </g>
    </g>
    <g id="xtick_2">
     <g id="line2d_2">
      <g>
       <use xlink:href="#m977bb9432b" x="111.945" y="312.92" style="stroke: #000000; stroke-width: 0.8"/>
      </g>
     </g>
     <g id="text_2">
      <!-- 7.0 -->
      <g transform="translate(102.403125 325.538125) scale(0.12 -0.12)">
       <defs>
        <path id="DejaVuSans-37" d="M 525 4666 
L 3525 4666 
L 3525 4397 
L 1831 0 
L 1172 0 
L 2766 4134 
L 525 4134 
L 525 4666 
z
" transform="scale(0.015625)"/>
        <path id="DejaVuSans-30" d="M 2034 4250 
Q 1547 4250 1301 3770 
Q 1056 3291 1056 2328 
Q 1056 1369 1301 889 
Q 1547 409 2034 409 
Q 2525 409 2770 889 
Q 3016 1369 3016 2328 
Q 3016 3291 2770 3770 
Q 2525 4250 2034 4250 
z
M 2034 4750 
Q 2819 4750 3233 4129 
Q 3647 3509 3647 2328 
Q 3647 1150 3233 529 
Q 2819 -91 2034 -91 
Q 1250 -91 836 529 
Q 422 1150 422 2328 
Q 422 3509 836 4129 
Q 1250 4750 2034 4750 
z
" transform="scale(0.015625)"/>
       </defs>
       <use xlink:href="#DejaVuSans-37"/>
       <use xlink:href="#DejaVuSans-2e" x="63.623047"/>
       <use xlink:href="#DejaVuSans-30" x="95.410156"/>
      </g>
     </g>
    </g>
    <g id="xtick_3">
     <g id="line2d_3">
      <g>
       <use xlink:href="#m977bb9432b" x="159.157" y="312.92" style="stroke: #000000; stroke-width: 0.8"/>
      </g>
     </g>
     <g id="text_3">
      <!-- 7.2 -->
      <g transform="translate(149.615125 325.538125) scale(0.12 -0.12)">
       <defs>
        <path id="DejaVuSans-32" d="M 1228 531 
L 3431 531 
L 3431 0 
L 469 0 
L 469 531 
Q 828 903 1448 1529 
Q 2069 2156 2228 2338 
Q 2531 2678 2651 2914 
Q 2772 3150 2772 3378 
Q 2772 3750 2511 3984 
Q 2250 4219 1831 4219 
Q 1534 4219 1204 4116 
Q 875 4013 500 3803 
L 500 4441 
Q 881 4594 1212 4672 
Q 1544 4750 1819 4750 
Q 2544 4750 2975 4387 
Q 3406 4025 3406 3419 
Q 3406 3131 3298 2873 
Q 3191 2616 2906 2266 
Q 2828 2175 2409 1742 
Q 1991 1309 1228 531 
z
" transform="scale(0.015625)"/>
       </defs>
       <use xlink:href="#DejaVuSans-37"/>
       <use xlink:href="#DejaVuSans-2e" x="63.623047"/>
       <use xlink:href="#DejaVuSans-32" x="95.410156"/>
      </g>
     </g>
    </g>
    <g id="xtick_4">
     <g id="line2d_4">
      <g>
       <use xlink:href="#m977bb9432b" x="206.369" y="312.92" style="stroke: #000000; stroke-width: 0.8"/>
      </g>
     </g>
     <g id="text_4">
      <!-- 7.4 -->
      <g transform="translate(196.827125 325.538125) scale(0.12 -0.12)">
       <defs>
        <path id="DejaVuSans-34" d="M 2419 4116 
L 825 1625 
L 2419 1625 
L 2419 4116 
z
M 2253 4666 
L 3047 4666 
L 3047 1625 
L 3713 1625 
L 3713 1100 
L 3047 1100 
L 3047 0 
L 2419 0 
L 2419 1100 
L 313 1100 
L 313 1709 
L 2253 4666 
z
" transform="scale(0.015625)"/>
       </defs>
       <use xlink:href="#DejaVuSans-37"/>
       <use xlink:href="#DejaVuSans-2e" x="63.623047"/>
       <use xlink:href="#DejaVuSans-34" x="95.410156"/>
      </g>
     </g>
    </g>
    <g id="xtick_5">
     <g id="line2d_5">
      <g>
       <use xlink:href="#m977bb9432b" x="253.581" y="312.92" style="stroke: #000000; stroke-width: 0.8"/>
      </g>
     </g>
     <g id="text_5">
      <!-- 7.6 -->
      <g transform="translate(244.039125 325.538125) scale(0.12 -0.12)">
       <use xlink:href="#DejaVuSans-37"/>
       <use xlink:href="#DejaVuSans-2e" x="63.623047"/>
       <use xlink:href="#DejaVuSans-36" x="95.410156"/>
      </g>
     </g>
    </g>
    <g id="xtick_6">
     <g id="line2d_6">
      <g>
       <use xlink:href="#m977bb9432b" x="300.793" y="312.92" style="stroke: #000000; stroke-width: 0.8"/>
      </g>
     </g>
     <g id="text_6">
      <!-- 7.8 -->
      <g transform="translate(291.251125 325.538125) scale(0.12 -0.12)">
       <use xlink:href="#DejaVuSans-37"/>
       <use xlink:href="#DejaVuSans-2e" x="63.623047"/>
       <use xlink:href="#DejaVuSans-38" x="95.410156"/>
      </g>
     </g>
    </g>
    <g id="xtick_7">
     <g id="line2d_7">
      <g>
       <use xlink:href="#m977bb9432b" x="348.005" y="312.92" style="stroke: #000000; stroke-width: 0.8"/>
      </g>
     </g>
     <g id="text_7">
      <!-- 8.0 -->
      <g transform="translate(338.463125 325.538125) scale(0.12 -0.12)">
       <use xlink:href="#DejaVuSans-38"/>
       <use xlink:href="#DejaVuSans-2e" x="63.623047"/>
       <use xlink:href="#DejaVuSans-30" x="95.410156"/>
      </g>
     </g>
    </g>
    <g id="xtick_8">
     <g id="line2d_8">
      <g>
       <use xlink:href="#m977bb9432b" x="395.217" y="312.92" style="stroke: #000000; stroke-width: 0.8"/>
      </g>
     </g>
     <g id="text_8">
      <!-- 8.2 -->
      <g transform="translate(385.675125 325.538125) scale(0.12 -0.12)">
       <use xlink:href="#DejaVuSans-38"/>
       <use xlink:href="#DejaVuSans-2e" x="63.623047"/>
       <use xlink:href="#DejaVuSans-32" x="95.410156"/>
      </g>
     </g>
    </g>
    <g id="xtick_9">
     <g id="line2d_9">
      <g>
       <use xlink:href="#m977bb9432b" x="442.429" y="312.92" style="stroke: #000000; stroke-width: 0.8"/>
      </g>
     </g>
     <g id="text_9">
      <!-- 8.4 -->
      <g transform="translate(432.887125 325.538125) scale(0.12 -0.12)">
       <use xlink:href="#DejaVuSans-38"/>
       <use xlink:href="#DejaVuSans-2e" x="63.623047"/>
       <use xlink:href="#DejaVuSans-34" x="95.410156"/>
      </g>
     </g>
    </g>
    <g id="text_10">
     <!-- Retention Time (min) -->
     <g transform="translate(196.0625 341.151875) scale(0.12 -0.12)">
      <defs>
       <path id="DejaVuSans-52" d="M 2841 2188 
Q 3044 2119 3236 1894 
Q 3428 1669 3622 1275 
L 4263 0 
L 3584 0 
L 2988 1197 
Q 2756 1666 2539 1819 
Q 2322 1972 1947 1972 
L 1259 1972 
L 1259 0 
L 628 0 
L 628 4666 
L 2053 4666 
Q 2853 4666 3247 4331 
Q 3641 3997 3641 3322 
Q 3641 2881 3436 2590 
Q 3231 2300 2841 2188 
z
M 1259 4147 
L 1259 2491 
L 2053 2491 
Q 2509 2491 2742 2702 
Q 2975 2913 2975 3322 
Q 2975 3731 2742 3939 
Q 2509 4147 2053 4147 
L 1259 4147 
z
" transform="scale(0.015625)"/>
       <path id="DejaVuSans-65" d="M 3597 1894 
L 3597 1613 
L 953 1613 
Q 991 1019 1311 708 
Q 1631 397 2203 397 
Q 2534 397 2845 478 
Q 3156 559 3463 722 
L 3463 178 
Q 3153 47 2828 -22 
Q 2503 -91 2169 -91 
Q 1331 -91 842 396 
Q 353 884 353 1716 
Q 353 2575 817 3079 
Q 1281 3584 2069 3584 
Q 2775 3584 3186 3129 
Q 3597 2675 3597 1894 
z
M 3022 2063 
Q 3016 2534 2758 2815 
Q 2500 3097 2075 3097 
Q 1594 3097 1305 2825 
Q 1016 2553 972 2059 
L 3022 2063 
z
" transform="scale(0.015625)"/>
       <path id="DejaVuSans-74" d="M 1172 4494 
L 1172 3500 
L 2356 3500 
L 2356 3053 
L 1172 3053 
L 1172 1153 
Q 1172 725 1289 603 
Q 1406 481 1766 481 
L 2356 481 
L 2356 0 
L 1766 0 
Q 1100 0 847 248 
Q 594 497 594 1153 
L 594 3053 
L 172 3053 
L 172 3500 
L 594 3500 
L 594 4494 
L 1172 4494 
z
" transform="scale(0.015625)"/>
       <path id="DejaVuSans-6e" d="M 3513 2113 
L 3513 0 
L 2938 0 
L 2938 2094 
Q 2938 2591 2744 2837 
Q 2550 3084 2163 3084 
Q 1697 3084 1428 2787 
Q 1159 2491 1159 1978 
L 1159 0 
L 581 0 
L 581 3500 
L 1159 3500 
L 1159 2956 
Q 1366 3272 1645 3428 
Q 1925 3584 2291 3584 
Q 2894 3584 3203 3211 
Q 3513 2838 3513 2113 
z
" transform="scale(0.015625)"/>
       <path id="DejaVuSans-69" d="M 603 3500 
L 1178 3500 
L 1178 0 
L 603 0 
L 603 3500 
z
M 603 4863 
L 1178 4863 
L 1178 4134 
L 603 4134 
L 603 4863 
z
" transform="scale(0.015625)"/>
       <path id="DejaVuSans-6f" d="M 1959 3097 
Q 1497 3097 1228 2736 
Q 959 2375 959 1747 
Q 959 1119 1226 758 
Q 1494 397 1959 397 
Q 2419 397 2687 759 
Q 2956 1122 2956 1747 
Q 2956 2369 2687 2733 
Q 2419 3097 1959 3097 
z
M 1959 3584 
Q 2709 3584 3137 3096 
Q 3566 2609 3566 1747 
Q 3566 888 3137 398 
Q 2709 -91 1959 -91 
Q 1206 -91 779 398 
Q 353 888 353 1747 
Q 353 2609 779 3096 
Q 1206 3584 1959 3584 
z
" transform="scale(0.015625)"/>
       <path id="DejaVuSans-20" transform="scale(0.015625)"/>
       <path id="DejaVuSans-54" d="M -19 4666 
L 3928 4666 
L 3928 4134 
L 2272 4134 
L 2272 0 
L 1638 0 
L 1638 4134 
L -19 4134 
L -19 4666 
z
" transform="scale(0.015625)"/>
       <path id="DejaVuSans-6d" d="M 3328 2828 
Q 3544 3216 3844 3400 
Q 4144 3584 4550 3584 
Q 5097 3584 5394 3201 
Q 5691 2819 5691 2113 
L 5691 0 
L 5113 0 
L 5113 2094 
Q 5113 2597 4934 2840 
Q 4756 3084 4391 3084 
Q 3944 3084 3684 2787 
Q 3425 2491 3425 1978 
L 3425 0 
L 2847 0 
L 2847 2094 
Q 2847 2600 2669 2842 
Q 2491 3084 2119 3084 
Q 1678 3084 1418 2786 
Q 1159 2488 1159 1978 
L 1159 0 
L 581 0 
L 581 3500 
L 1159 3500 
L 1159 2956 
Q 1356 3278 1631 3431 
Q 1906 3584 2284 3584 
Q 2666 3584 2933 3390 
Q 3200 3197 3328 2828 
z
" transform="scale(0.015625)"/>
       <path id="DejaVuSans-28" d="M 1984 4856 
Q 1566 4138 1362 3434 
Q 1159 2731 1159 2009 
Q 1159 1288 1364 580 
Q 1569 -128 1984 -844 
L 1484 -844 
Q 1016 -109 783 600 
Q 550 1309 550 2009 
Q 550 2706 781 3412 
Q 1013 4119 1484 4856 
L 1984 4856 
z
" transform="scale(0.015625)"/>
       <path id="DejaVuSans-29" d="M 513 4856 
L 1013 4856 
Q 1481 4119 1714 3412 
Q 1947 2706 1947 2009 
Q 1947 1309 1714 600 
Q 1481 -109 1013 -844 
L 513 -844 
Q 928 -128 1133 580 
Q 1338 1288 1338 2009 
Q 1338 2731 1133 3434 
Q 928 4138 513 4856 
z
" transform="scale(0.015625)"/>
      </defs>
      <use xlink:href="#DejaVuSans-52"/>
      <use xlink:href="#DejaVuSans-65" x="64.982422"/>
      <use xlink:href="#DejaVuSans-74" x="126.505859"/>
      <use xlink:href="#DejaVuSans-65" x="165.714844"/>
      <use xlink:href="#DejaVuSans-6e" x="227.238281"/>
      <use xlink:href="#DejaVuSans-74" x="290.617188"/>
      <use xlink:href="#DejaVuSans-69" x="329.826172"/>
      <use xlink:href="#DejaVuSans-6f" x="357.609375"/>
      <use xlink:href="#DejaVuSans-6e" x="418.791016"/>
      <use xlink:href="#DejaVuSans-20" x="482.169922"/>
      <use xlink:href="#DejaVuSans-54" x="513.957031"/>
      <use xlink:href="#DejaVuSans-69" x="571.916016"/>
      <use xlink:href="#DejaVuSans-6d" x="599.699219"/>
      <use xlink:href="#DejaVuSans-65" x="697.111328"/>
      <use xlink:href="#DejaVuSans-20" x="758.634766"/>
      <use xlink:href="#DejaVuSans-28" x="790.421875"/>
      <use xlink:href="#DejaVuSans-6d" x="829.435547"/>
      <use xlink:href="#DejaVuSans-69" x="926.847656"/>
      <use xlink:href="#DejaVuSans-6e" x="954.630859"/>
      <use xlink:href="#DejaVuSans-29" x="1018.009766"/>
     </g>
    </g>
   </g>
   <g id="matplotlib.axis_2">
    <g id="ytick_1">
     <g id="line2d_10">
      <defs>
       <path id="mfe2ac924ff" d="M 0 0 
L 3.5 0 
" style="stroke: #000000; stroke-width: 0.8"/>
      </defs>
      <g>
       <use xlink:href="#mfe2ac924ff" x="52.93" y="289.673333" style="stroke: #000000; stroke-width: 0.8"/>
      </g>
     </g>
     <g id="text_11">
      <!-- 0.0 -->
      <g transform="translate(30.34625 294.232396) scale(0.12 -0.12)">
       <use xlink:href="#DejaVuSans-30"/>
       <use xlink:href="#DejaVuSans-2e" x="63.623047"/>
       <use xlink:href="#DejaVuSans-30" x="95.410156"/>
      </g>
     </g>
    </g>
    <g id="ytick_2">
     <g id="line2d_11">
      <g>
       <use xlink:href="#mfe2ac924ff" x="52.93" y="243.18" style="stroke: #000000; stroke-width: 0.8"/>
      </g>
     </g>
     <g id="text_12">
      <!-- 0.2 -->
      <g transform="translate(30.34625 247.739062) scale(0.12 -0.12)">
       <use xlink:href="#DejaVuSans-30"/>
       <use xlink:href="#DejaVuSans-2e" x="63.623047"/>
       <use xlink:href="#DejaVuSans-32" x="95.410156"/>
      </g>
     </g>
    </g>
    <g id="ytick_3">
     <g id="line2d_12">
      <g>
       <use xlink:href="#mfe2ac924ff" x="52.93" y="196.686667" style="stroke: #000000; stroke-width: 0.8"/>
      </g>
     </g>
     <g id="text_13">
      <!-- 0.4 -->
      <g transform="translate(30.34625 201.245729) scale(0.12 -0.12)">
       <use xlink:href="#DejaVuSans-30"/>
       <use xlink:href="#DejaVuSans-2e" x="63.623047"/>
       <use xlink:href="#DejaVuSans-34" x="95.410156"/>
      </g>
     </g>
    </g>
    <g id="ytick_4">
     <g id="line2d_13">
      <g>
       <use xlink:href="#mfe2ac924ff" x="52.93" y="150.193333" style="stroke: #000000; stroke-width: 0.8"/>
      </g>
     </g>
     <g id="text_14">
      <!-- 0.6 -->
      <g transform="translate(30.34625 154.752396) scale(0.12 -0.12)">
       <use xlink:href="#DejaVuSans-30"/>
       <use xlink:href="#DejaVuSans-2e" x="63.623047"/>
       <use xlink:href="#DejaVuSans-36" x="95.410156"/>
      </g>
     </g>
    </g>
    <g id="ytick_5">
     <g id="line2d_14">
      <g>
       <use xlink:href="#mfe2ac924ff" x="52.93" y="103.7" style="stroke: #000000; stroke-width: 0.8"/>
      </g>
     </g>
     <g id="text_15">
      <!-- 0.8 -->
      <g transform="translate(30.34625 108.259063) scale(0.12 -0.12)">
       <use xlink:href="#DejaVuSans-30"/>
       <use xlink:href="#DejaVuSans-2e" x="63.623047"/>
       <use xlink:href="#DejaVuSans-38" x="95.410156"/>
      </g>
     </g>
    </g>
    <g id="ytick_6">
     <g id="line2d_15">
      <g>
       <use xlink:href="#mfe2ac924ff" x="52.93" y="57.206667" style="stroke: #000000; stroke-width: 0.8"/>
      </g>
     </g>
     <g id="text_16">
      <!-- 1.0 -->
      <g transform="translate(30.34625 61.765729) scale(0.12 -0.12)">
       <defs>
        <path id="DejaVuSans-31" d="M 794 531 
L 1825 531 
L 1825 4091 
L 703 3866 
L 703 4441 
L 1819 4666 
L 2450 4666 
L 2450 531 
L 3481 531 
L 3481 0 
L 794 0 
L 794 531 
z
" transform="scale(0.015625)"/>
       </defs>
       <use xlink:href="#DejaVuSans-31"/>
       <use xlink:href="#DejaVuSans-2e" x="63.623047"/>
       <use xlink:href="#DejaVuSans-30" x="95.410156"/>
      </g>
     </g>
    </g>
    <g id="text_17">
     <!-- Normalized Intensity -->
     <g transform="translate(23.850625 235.488438) rotate(-90) scale(0.12 -0.12)">
      <defs>
       <path id="DejaVuSans-4e" d="M 628 4666 
L 1478 4666 
L 3547 763 
L 3547 4666 
L 4159 4666 
L 4159 0 
L 3309 0 
L 1241 3903 
L 1241 0 
L 628 0 
L 628 4666 
z
" transform="scale(0.015625)"/>
       <path id="DejaVuSans-72" d="M 2631 2963 
Q 2534 3019 2420 3045 
Q 2306 3072 2169 3072 
Q 1681 3072 1420 2755 
Q 1159 2438 1159 1844 
L 1159 0 
L 581 0 
L 581 3500 
L 1159 3500 
L 1159 2956 
Q 1341 3275 1631 3429 
Q 1922 3584 2338 3584 
Q 2397 3584 2469 3576 
Q 2541 3569 2628 3553 
L 2631 2963 
z
" transform="scale(0.015625)"/>
       <path id="DejaVuSans-61" d="M 2194 1759 
Q 1497 1759 1228 1600 
Q 959 1441 959 1056 
Q 959 750 1161 570 
Q 1363 391 1709 391 
Q 2188 391 2477 730 
Q 2766 1069 2766 1631 
L 2766 1759 
L 2194 1759 
z
M 3341 1997 
L 3341 0 
L 2766 0 
L 2766 531 
Q 2569 213 2275 61 
Q 1981 -91 1556 -91 
Q 1019 -91 701 211 
Q 384 513 384 1019 
Q 384 1609 779 1909 
Q 1175 2209 1959 2209 
L 2766 2209 
L 2766 2266 
Q 2766 2663 2505 2880 
Q 2244 3097 1772 3097 
Q 1472 3097 1187 3025 
Q 903 2953 641 2809 
L 641 3341 
Q 956 3463 1253 3523 
Q 1550 3584 1831 3584 
Q 2591 3584 2966 3190 
Q 3341 2797 3341 1997 
z
" transform="scale(0.015625)"/>
       <path id="DejaVuSans-6c" d="M 603 4863 
L 1178 4863 
L 1178 0 
L 603 0 
L 603 4863 
z
" transform="scale(0.015625)"/>
       <path id="DejaVuSans-7a" d="M 353 3500 
L 3084 3500 
L 3084 2975 
L 922 459 
L 3084 459 
L 3084 0 
L 275 0 
L 275 525 
L 2438 3041 
L 353 3041 
L 353 3500 
z
" transform="scale(0.015625)"/>
       <path id="DejaVuSans-64" d="M 2906 2969 
L 2906 4863 
L 3481 4863 
L 3481 0 
L 2906 0 
L 2906 525 
Q 2725 213 2448 61 
Q 2172 -91 1784 -91 
Q 1150 -91 751 415 
Q 353 922 353 1747 
Q 353 2572 751 3078 
Q 1150 3584 1784 3584 
Q 2172 3584 2448 3432 
Q 2725 3281 2906 2969 
z
M 947 1747 
Q 947 1113 1208 752 
Q 1469 391 1925 391 
Q 2381 391 2643 752 
Q 2906 1113 2906 1747 
Q 2906 2381 2643 2742 
Q 2381 3103 1925 3103 
Q 1469 3103 1208 2742 
Q 947 2381 947 1747 
z
" transform="scale(0.015625)"/>
       <path id="DejaVuSans-49" d="M 628 4666 
L 1259 4666 
L 1259 0 
L 628 0 
L 628 4666 
z
" transform="scale(0.015625)"/>
       <path id="DejaVuSans-73" d="M 2834 3397 
L 2834 2853 
Q 2591 2978 2328 3040 
Q 2066 3103 1784 3103 
Q 1356 3103 1142 2972 
Q 928 2841 928 2578 
Q 928 2378 1081 2264 
Q 1234 2150 1697 2047 
L 1894 2003 
Q 2506 1872 2764 1633 
Q 3022 1394 3022 966 
Q 3022 478 2636 193 
Q 2250 -91 1575 -91 
Q 1294 -91 989 -36 
Q 684 19 347 128 
L 347 722 
Q 666 556 975 473 
Q 1284 391 1588 391 
Q 1994 391 2212 530 
Q 2431 669 2431 922 
Q 2431 1156 2273 1281 
Q 2116 1406 1581 1522 
L 1381 1569 
Q 847 1681 609 1914 
Q 372 2147 372 2553 
Q 372 3047 722 3315 
Q 1072 3584 1716 3584 
Q 2034 3584 2315 3537 
Q 2597 3491 2834 3397 
z
" transform="scale(0.015625)"/>
       <path id="DejaVuSans-79" d="M 2059 -325 
Q 1816 -950 1584 -1140 
Q 1353 -1331 966 -1331 
L 506 -1331 
L 506 -850 
L 844 -850 
Q 1081 -850 1212 -737 
Q 1344 -625 1503 -206 
L 1606 56 
L 191 3500 
L 800 3500 
L 1894 763 
L 2988 3500 
L 3597 3500 
L 2059 -325 
z
" transform="scale(0.015625)"/>
      </defs>
      <use xlink:href="#DejaVuSans-4e"/>
      <use xlink:href="#DejaVuSans-6f" x="74.804688"/>
      <use xlink:href="#DejaVuSans-72" x="135.986328"/>
      <use xlink:href="#DejaVuSans-6d" x="175.349609"/>
      <use xlink:href="#DejaVuSans-61" x="272.761719"/>
      <use xlink:href="#DejaVuSans-6c" x="334.041016"/>
      <use xlink:href="#DejaVuSans-69" x="361.824219"/>
      <use xlink:href="#DejaVuSans-7a" x="389.607422"/>
      <use xlink:href="#DejaVuSans-65" x="442.097656"/>
      <use xlink:href="#DejaVuSans-64" x="503.621094"/>
      <use xlink:href="#DejaVuSans-20" x="567.097656"/>
      <use xlink:href="#DejaVuSans-49" x="598.884766"/>
      <use xlink:href="#DejaVuSans-6e" x="628.376953"/>
      <use xlink:href="#DejaVuSans-74" x="691.755859"/>
      <use xlink:href="#DejaVuSans-65" x="730.964844"/>
      <use xlink:href="#DejaVuSans-6e" x="792.488281"/>
      <use xlink:href="#DejaVuSans-73" x="855.867188"/>
      <use xlink:href="#DejaVuSans-69" x="907.966797"/>
      <use xlink:href="#DejaVuSans-74" x="935.75"/>
      <use xlink:href="#DejaVuSans-79" x="974.958984"/>
     </g>
    </g>
   </g>
   <g id="line2d_16">
    <path d="M 52.53578 289.096406 
L 55.2906 289.140113 
L 56.07668 289.043958 
L 57.25698 288.974028 
L 58.04542 288.92158 
L 60.0118 289.218785 
L 60.79788 289.043958 
L 63.15848 289.043958 
L 65.51908 289.0527 
L 66.69938 288.956545 
L 70.24028 289.026476 
L 72.20902 289.000252 
L 73.78118 289.157595 
L 75.74992 288.99151 
L 76.536 289.043958 
L 78.11052 289.087665 
L 78.8966 289.183819 
L 80.0769 288.939062 
L 81.2572 288.965286 
L 82.04328 289.0527 
L 84.01202 289.000252 
L 86.76448 288.912838 
L 87.94478 289.026476 
L 91.09382 288.92158 
L 92.27412 288.99151 
L 93.0602 288.99151 
L 94.2405 288.772977 
L 96.20688 288.886615 
L 100.92808 288.877873 
L 102.10838 288.912838 
L 103.28868 288.772977 
L 107.2238 288.904097 
L 108.4041 288.65934 
L 109.19018 288.738012 
L 109.97862 288.825425 
L 111.945 288.842908 
L 114.3056 288.676823 
L 115.88012 288.912838 
L 118.24072 288.720529 
L 120.2071 288.799201 
L 120.99318 288.860391 
L 122.17348 288.615634 
L 124.14222 288.676823 
L 126.89468 288.694305 
L 127.68312 288.58941 
L 132.40432 288.606892 
L 133.97648 288.641858 
L 135.15678 288.668082 
L 136.33708 288.45829 
L 139.48612 288.711788 
L 140.2722 288.711788 
L 142.23858 288.598151 
L 144.20732 288.703047 
L 145.38762 288.58941 
L 148.14008 288.58941 
L 148.92852 288.676823 
L 150.50068 288.440807 
L 152.86128 288.536962 
L 154.04158 288.65934 
L 155.6161 288.484514 
L 158.76278 288.580668 
L 159.94308 288.52822 
L 163.48398 288.571927 
L 164.66428 288.388359 
L 168.20518 288.52822 
L 169.38548 288.353394 
L 173.3206 288.344653 
L 176.07542 288.370877 
L 176.8615 288.440807 
L 178.0418 288.309687 
L 180.00818 288.274722 
L 181.18848 288.309687 
L 181.97692 288.440807 
L 183.9433 288.108637 
L 186.69812 288.248498 
L 188.27028 288.056189 
L 189.8448 288.056189 
L 191.41932 288.108637 
L 192.2054 287.951293 
L 195.35208 287.855139 
L 196.14052 287.942552 
L 197.71268 287.575417 
L 201.6478 287.313177 
L 204.0084 287.077161 
L 205.58292 286.981007 
L 206.369 286.718767 
L 207.5493 286.465269 
L 208.33538 286.246736 
L 210.30412 286.01072 
L 214.6311 284.454765 
L 215.41718 284.131336 
L 220.5326 281.185512 
L 222.10712 279.865572 
L 224.46772 277.959964 
L 229.18892 272.120763 
L 231.54952 268.134721 
L 233.12168 265.311274 
L 235.48228 260.267533 
L 239.02318 251.325162 
L 242.9583 238.868781 
L 243.74438 236.15023 
L 247.28528 222.076705 
L 249.64588 211.552156 
L 253.581 192.303769 
L 257.51612 171.51691 
L 264.98978 129.864519 
L 270.1052 103.500698 
L 273.25188 89.505844 
L 275.22062 81.839707 
L 276.79278 76.481277 
L 278.3673 71.437536 
L 279.5476 68.386815 
L 281.9082 63.246919 
L 283.0885 61.192709 
L 284.2688 59.628012 
L 285.05488 58.885 
L 286.23518 57.967162 
L 287.02362 57.442682 
L 287.8097 57.259115 
L 288.99 57.206667 
L 289.77608 57.381493 
L 292.13668 58.762622 
L 292.92512 59.523116 
L 294.8915 62.12803 
L 297.2521 65.869315 
L 298.4324 68.229471 
L 301.9733 76.236521 
L 306.30028 87.635202 
L 311.80992 103.553146 
L 315.74268 115.047982 
L 319.28358 125.083017 
L 321.25232 130.301585 
L 323.61292 136.525405 
L 325.18508 140.301656 
L 327.54568 145.992255 
L 329.1202 149.60242 
L 333.05532 158.265068 
L 335.41592 162.854261 
L 338.95682 169.567595 
L 340.52898 172.3823 
L 342.49772 175.948759 
L 345.25018 180.502987 
L 347.61078 184.287978 
L 348.39922 185.415609 
L 350.3656 188.518777 
L 353.12042 192.496078 
L 358.6277 199.943683 
L 362.1686 204.253153 
L 367.28402 210.022425 
L 368.85618 211.770689 
L 370.82492 213.789934 
L 374.36582 217.094153 
L 375.1519 217.889613 
L 375.93798 218.440316 
L 379.08702 221.045229 
L 379.8731 221.814465 
L 382.2337 223.37042 
L 383.414 224.375672 
L 384.98852 225.503302 
L 386.9549 226.578485 
L 390.10158 228.580247 
L 390.89002 228.973607 
L 391.6761 229.533051 
L 393.25062 230.52082 
L 394.0367 231.071523 
L 396.3973 232.076775 
L 398.7579 233.440421 
L 401.90458 234.917704 
L 403.08488 235.608269 
L 403.87332 235.870508 
L 404.6594 236.141489 
L 408.2003 237.881012 
L 409.77482 238.326819 
L 412.9215 239.85655 
L 414.49602 240.337323 
L 415.2821 240.58208 
L 418.03692 241.805864 
L 420.78938 242.819858 
L 423.14998 243.702731 
L 424.7245 244.253434 
L 426.69088 245.066377 
L 427.47932 245.41603 
L 429.4457 246.027922 
L 431.8063 247.015691 
L 434.95298 248.108356 
L 436.5275 248.921299 
L 437.31358 249.008712 
L 438.49388 249.419554 
L 439.67418 249.882844 
L 442.429 250.870613 
L 451.47718 253.973782 
L 452.65748 254.340918 
L 454.62622 255.101412 
L 455.80652 255.625892 
L 457.7729 256.106664 
L 461.3138 257.347932 
L 462.4941 257.653878 
L 465.24892 258.685354 
L 466.035 258.825215 
L 466.42922 259.000041 
L 466.42922 259.000041 
" clip-path="url(#pdf6e55942b)" style="fill: none; stroke: #8286ff; stroke-width: 0.8; stroke-linecap: square"/>
   </g>
   <g id="line2d_17">
    <path d="M 52.53578 289.354809 
L 54.89638 289.841964 
L 56.4709 289.448493 
L 58.43728 289.898174 
L 59.22572 289.916911 
L 60.79788 289.57965 
L 61.58632 289.336072 
L 62.3724 289.673333 
L 63.94692 289.935648 
L 66.30752 289.523439 
L 67.48782 289.673333 
L 68.66812 289.954384 
L 70.6345 289.523439 
L 71.42058 289.767017 
L 72.60088 289.673333 
L 73.78118 289.973121 
L 74.96148 289.69207 
L 76.14178 289.654597 
L 76.536 289.767017 
L 76.93022 290.010595 
L 77.7163 290.141752 
L 78.50238 289.973121 
L 78.8966 289.860701 
L 80.0769 290.029331 
L 80.86298 289.973121 
L 81.2572 289.916911 
L 82.04328 290.085541 
L 82.83172 290.291646 
L 84.01202 289.767017 
L 84.40388 289.69207 
L 85.58418 289.841964 
L 86.37262 289.80449 
L 87.94478 289.935648 
L 89.5193 289.504703 
L 91.48568 289.767017 
L 92.27412 289.860701 
L 93.0602 289.767017 
L 94.63472 289.823227 
L 95.4208 289.860701 
L 96.99532 290.291646 
L 98.17562 289.785754 
L 98.56748 289.729544 
L 99.35592 289.823227 
L 100.53622 289.74828 
L 101.3223 289.973121 
L 101.71652 290.104278 
L 102.89682 289.823227 
L 103.6829 289.673333 
L 104.46898 289.729544 
L 104.8632 289.898174 
L 106.43772 289.935648 
L 108.4041 289.598386 
L 109.19018 289.729544 
L 110.37048 289.973121 
L 110.7647 290.085541 
L 111.15892 290.066805 
L 111.945 289.767017 
L 112.73108 289.767017 
L 113.91138 289.916911 
L 115.09168 289.860701 
L 115.88012 290.066805 
L 117.8465 289.542176 
L 119.42102 290.048068 
L 121.78162 289.785754 
L 122.5677 289.598386 
L 124.14222 289.898174 
L 124.9283 290.085541 
L 125.32252 289.991858 
L 126.1086 289.63586 
L 128.07498 289.467229 
L 129.25528 289.654597 
L 130.04372 289.80449 
L 131.61588 289.242388 
L 132.40432 289.336072 
L 133.1904 289.429756 
L 135.15678 289.354809 
L 136.33708 289.186178 
L 136.7313 289.017548 
L 137.51738 289.055021 
L 138.69768 289.186178 
L 139.87798 289.017548 
L 140.2722 288.848917 
L 141.84672 288.71776 
L 142.6328 288.624076 
L 144.20732 288.792707 
L 145.38762 288.118184 
L 146.1737 288.080711 
L 146.95978 288.099448 
L 148.14008 287.91208 
L 148.92852 287.893344 
L 150.8949 287.162611 
L 151.68098 286.99398 
L 152.46942 287.068927 
L 153.2555 287.012717 
L 154.4358 286.637982 
L 155.22188 286.506825 
L 156.40218 286.057144 
L 157.19062 286.01967 
L 157.9767 286.113354 
L 158.76278 285.682409 
L 159.55122 285.307674 
L 161.12338 284.98915 
L 161.91182 284.633152 
L 163.09212 284.352101 
L 164.27242 283.696315 
L 165.0585 283.490211 
L 166.2388 283.26537 
L 167.4191 282.740742 
L 168.99362 281.991272 
L 169.7797 281.616537 
L 170.56578 281.31675 
L 172.53452 280.773384 
L 173.71482 279.967705 
L 175.28698 279.386866 
L 176.07542 278.880974 
L 177.25572 278.543713 
L 178.82788 277.344562 
L 179.61632 277.082248 
L 180.4024 276.876144 
L 182.763 275.545835 
L 184.72938 274.402895 
L 186.3039 273.953213 
L 187.08998 273.259954 
L 188.27028 272.660378 
L 188.6645 272.641642 
L 190.63088 271.761015 
L 191.0251 271.704805 
L 191.81118 271.142703 
L 192.59962 270.599337 
L 193.3857 270.224603 
L 194.17178 270.130919 
L 196.14052 269.175346 
L 197.71268 268.032405 
L 198.50112 267.732617 
L 200.07328 267.320409 
L 200.4675 267.133042 
L 201.6478 266.177468 
L 202.43388 265.858944 
L 203.22232 265.559156 
L 204.40262 265.090737 
L 205.1887 264.79095 
L 206.369 263.779166 
L 207.5493 263.217064 
L 208.7296 262.617489 
L 209.51568 262.224017 
L 209.9099 262.130333 
L 211.87628 260.593921 
L 212.66472 260.181713 
L 213.84502 259.600874 
L 214.6311 259.001299 
L 215.41718 258.195619 
L 216.9917 257.146362 
L 218.172 256.097105 
L 219.3523 255.328899 
L 220.5326 253.642593 
L 224.0735 250.307454 
L 224.85958 249.23946 
L 226.4341 246.784948 
L 227.6144 245.229799 
L 228.7947 243.543493 
L 229.975 241.463715 
L 230.76108 240.11467 
L 232.72982 236.535954 
L 233.12168 235.936378 
L 233.91012 234.006495 
L 235.09042 231.177248 
L 236.27072 228.497895 
L 239.4174 220.085101 
L 243.35252 207.587699 
L 247.6795 191.549054 
L 249.25402 184.785093 
L 250.82618 178.021132 
L 253.581 165.317626 
L 264.98978 110.512677 
L 268.13882 96.366442 
L 270.1052 88.721854 
L 273.25188 77.292446 
L 274.04032 74.80046 
L 277.58122 65.825565 
L 278.76152 63.483473 
L 279.94182 61.684746 
L 280.7279 60.80412 
L 281.9082 58.930446 
L 282.69428 58.237187 
L 283.48272 57.787505 
L 284.66302 57.375297 
L 285.84332 57.206667 
L 287.41548 57.525191 
L 287.8097 57.712559 
L 290.95638 60.598016 
L 292.92512 63.258632 
L 293.7112 64.738834 
L 294.8915 67.155873 
L 295.67758 68.392497 
L 296.46602 70.003856 
L 299.21848 76.842765 
L 300.793 80.721269 
L 301.57908 82.669889 
L 302.75938 86.192395 
L 303.54782 88.665644 
L 307.8748 101.181783 
L 309.0551 104.835446 
L 310.62962 109.107422 
L 314.17052 119.749887 
L 315.35082 122.729028 
L 318.10328 130.823297 
L 319.28358 133.989805 
L 320.8581 138.018203 
L 323.2187 144.369956 
L 324.00478 145.925105 
L 328.72598 157.167146 
L 329.51442 158.703558 
L 333.05532 166.235726 
L 337.3823 174.423679 
L 338.16838 175.435462 
L 341.31742 181.18764 
L 342.1035 182.555421 
L 343.67802 184.616462 
L 346.8247 189.993905 
L 347.61078 190.986952 
L 348.79108 192.485891 
L 349.57952 193.572621 
L 351.15168 196.083344 
L 352.7262 197.863334 
L 355.0868 201.123525 
L 355.87288 202.491307 
L 358.23348 204.795925 
L 359.02192 205.901393 
L 359.808 206.782019 
L 361.38252 208.749376 
L 362.95468 210.210842 
L 363.74312 211.166415 
L 364.92342 212.721564 
L 365.7095 213.43356 
L 366.49558 214.108083 
L 368.0701 215.607021 
L 368.46432 215.906809 
L 370.4307 218.342585 
L 371.21678 218.754793 
L 372.39708 219.80405 
L 373.57738 220.89078 
L 374.36582 221.621513 
L 375.1519 222.464666 
L 377.5125 224.057289 
L 378.29858 225.087809 
L 379.47888 226.005909 
L 380.65918 226.661695 
L 383.01978 228.591578 
L 384.20008 229.921887 
L 384.98852 230.259148 
L 385.7746 230.708829 
L 387.74098 232.245242 
L 388.52942 232.919764 
L 388.92128 233.331972 
L 390.10158 233.950285 
L 391.28188 234.624807 
L 394.43092 237.041846 
L 395.217 237.491527 
L 396.3973 238.203523 
L 397.18338 238.971729 
L 398.36368 240.05846 
L 399.54398 240.564352 
L 400.72428 241.295084 
L 402.69302 242.75655 
L 403.4791 243.431072 
L 404.26518 243.655913 
L 405.44548 244.59275 
L 406.23392 245.417166 
L 408.59452 247.234629 
L 410.95512 248.771042 
L 412.13542 249.839035 
L 412.52728 250.176297 
L 414.1018 251.038187 
L 416.06818 252.368495 
L 417.6427 253.88617 
L 418.823 254.204695 
L 419.21722 254.410799 
L 420.39752 255.422582 
L 421.1836 255.984684 
L 421.96968 256.659207 
L 424.33028 257.839621 
L 426.29902 259.357297 
L 426.69088 259.582138 
L 427.47932 259.788242 
L 431.41208 262.729909 
L 432.20052 262.823593 
L 432.9866 263.104644 
L 434.95298 264.584846 
L 435.3472 264.753476 
L 436.5275 265.521682 
L 437.31358 265.746523 
L 438.10202 266.065048 
L 438.8881 266.552203 
L 439.67418 267.189252 
L 440.85448 267.71388 
L 441.2487 267.751354 
L 442.03478 268.126088 
L 442.82322 268.613244 
L 444.00352 269.100399 
L 445.57568 270.262076 
L 446.36412 270.262076 
L 447.54442 270.805442 
L 450.6911 272.491748 
L 452.65748 272.922693 
L 453.83778 273.765846 
L 455.01808 274.271737 
L 457.37868 274.683946 
L 458.16712 275.00247 
L 459.73928 276.014254 
L 460.1335 275.92057 
L 460.91958 276.070464 
L 461.70802 276.276568 
L 464.06862 277.400772 
L 464.46048 277.606876 
L 465.64078 277.64435 
L 466.42922 277.869191 
L 466.42922 277.869191 
" clip-path="url(#pdf6e55942b)" style="fill: none; stroke: #f5c92a; stroke-width: 0.8; stroke-linecap: square"/>
   </g>
   <g id="line2d_18">
    <path d="M 52.53578 288.750565 
L 53.32422 288.833377 
L 54.1103 288.821547 
L 55.68482 288.857038 
L 57.25698 288.537618 
L 59.61758 288.738735 
L 60.40602 288.525788 
L 63.94692 288.632261 
L 64.33878 288.679583 
L 65.9133 288.360163 
L 69.84842 288.513958 
L 71.42058 288.324672 
L 72.20902 288.419315 
L 72.9951 288.549449 
L 73.78118 288.549449 
L 74.56962 288.324672 
L 76.536 288.25369 
L 77.32208 288.25369 
L 78.50238 288.395654 
L 79.29082 288.111725 
L 80.47112 288.111725 
L 81.2572 288.206368 
L 85.9784 287.851457 
L 87.55292 287.910609 
L 88.73322 287.685832 
L 89.91352 287.579359 
L 90.6996 287.496546 
L 91.48568 287.62668 
L 92.27412 287.721323 
L 93.84628 287.224448 
L 97.7814 287.046992 
L 98.56748 286.834046 
L 99.74778 286.751233 
L 101.71652 286.715742 
L 103.6829 286.230697 
L 105.25742 286.029581 
L 106.0435 286.065072 
L 106.82958 285.804804 
L 107.61802 285.473554 
L 108.79832 285.402572 
L 109.5844 285.236947 
L 110.37048 285.059491 
L 111.55078 284.964848 
L 113.51952 284.255026 
L 115.09168 284.101232 
L 116.27198 283.687169 
L 117.06042 283.320427 
L 120.99318 282.196543 
L 122.17348 281.616855 
L 123.748 280.989846 
L 124.53408 280.753238 
L 125.32252 280.717747 
L 126.1086 280.256363 
L 126.89468 279.747657 
L 128.4692 279.250782 
L 129.6495 278.777567 
L 130.43558 278.375335 
L 133.1904 276.884709 
L 134.3707 276.458816 
L 135.15678 275.93828 
L 136.33708 275.311271 
L 139.87798 273.406582 
L 141.05828 272.578456 
L 143.41888 271.288947 
L 144.59918 270.555464 
L 146.56792 269.100329 
L 147.74822 268.508811 
L 148.5343 268.094748 
L 152.86128 264.947871 
L 153.64972 264.486487 
L 156.01032 262.357021 
L 157.19062 261.505235 
L 159.55122 259.553225 
L 160.3373 258.713269 
L 162.30368 257.352777 
L 163.09212 256.619294 
L 163.8782 255.696526 
L 168.20518 251.674202 
L 169.38548 250.396522 
L 171.35422 248.657459 
L 172.53452 247.71103 
L 174.89512 245.13201 
L 177.25572 242.967053 
L 178.43602 241.724865 
L 180.00818 240.26973 
L 180.79662 239.548078 
L 181.97692 238.577988 
L 183.15722 237.3358 
L 185.90968 235.06437 
L 186.69812 234.567494 
L 189.05872 232.497181 
L 190.23902 231.657225 
L 194.17178 228.794277 
L 196.14052 227.788696 
L 197.32082 226.925079 
L 198.89298 226.096953 
L 200.07328 225.493605 
L 200.86172 225.233337 
L 202.8281 223.943827 
L 207.15508 221.932665 
L 207.94352 221.376638 
L 210.69598 220.217262 
L 211.87628 219.448288 
L 215.41718 217.56726 
L 216.59748 216.644492 
L 218.56622 215.520607 
L 219.74652 214.822616 
L 222.49898 212.243596 
L 223.28742 211.569265 
L 224.0735 210.823953 
L 228.40048 205.654083 
L 229.18892 204.636672 
L 231.1553 201.454304 
L 232.3356 199.596936 
L 235.09042 194.273272 
L 236.66258 191.019922 
L 237.84288 188.559206 
L 239.81162 183.649605 
L 242.9583 175.096251 
L 248.07372 158.391776 
L 252.79492 140.658059 
L 256.33582 126.520774 
L 258.3022 118.416974 
L 264.2037 95.205798 
L 267.7446 82.973201 
L 269.71098 76.880563 
L 272.4658 69.64038 
L 274.04032 66.150422 
L 275.22062 63.914483 
L 277.97308 59.691043 
L 279.15338 58.685462 
L 279.94182 58.070283 
L 281.51398 57.419613 
L 283.0885 57.218497 
L 283.87458 57.455104 
L 285.05488 58.093944 
L 287.02362 59.489927 
L 288.99 61.761357 
L 291.74482 66.06761 
L 292.92512 68.457344 
L 296.46602 76.395518 
L 297.64632 79.329449 
L 303.1536 94.886378 
L 304.72812 99.642185 
L 305.90842 103.04933 
L 309.84118 114.808712 
L 312.20178 121.942422 
L 313.7763 126.532604 
L 315.35082 130.898008 
L 322.0384 148.77369 
L 323.61292 152.630388 
L 330.3005 167.347362 
L 335.41592 177.556967 
L 338.5626 182.951613 
L 339.7429 185.010097 
L 340.9232 187.139562 
L 346.8247 196.379077 
L 347.61078 197.290015 
L 350.3656 201.253187 
L 351.94012 203.453635 
L 353.51228 205.452967 
L 356.2671 209.203193 
L 359.41378 212.929757 
L 360.59408 214.420383 
L 361.77438 215.461455 
L 364.13498 218.075966 
L 365.7095 219.945164 
L 366.8898 220.867932 
L 368.0701 222.09829 
L 369.2504 223.269496 
L 370.82492 224.760122 
L 372.00522 225.694721 
L 373.18552 226.723963 
L 374.36582 228.025303 
L 375.1519 228.498517 
L 375.93798 229.054545 
L 377.11828 230.012804 
L 378.29858 230.911912 
L 379.47888 232.012136 
L 381.0534 232.686466 
L 382.2337 233.668387 
L 384.5943 235.454772 
L 388.1352 237.67888 
L 388.92128 238.175756 
L 389.70972 238.471515 
L 392.07032 239.914819 
L 393.64248 241.109686 
L 394.82278 241.55924 
L 396.00308 242.316383 
L 397.18338 242.943393 
L 397.97182 243.381116 
L 398.7579 243.8425 
L 400.33242 244.398528 
L 405.05362 247.013038 
L 406.23392 247.557235 
L 407.80608 248.527325 
L 408.59452 248.752102 
L 414.1018 251.650541 
L 415.2821 252.301211 
L 416.85662 253.24764 
L 420.0033 254.738266 
L 421.96968 255.956794 
L 422.75812 256.193401 
L 425.51058 257.814161 
L 427.47932 258.961707 
L 429.4457 259.896305 
L 430.23178 260.405011 
L 431.02022 260.819074 
L 431.8063 261.256797 
L 433.77268 262.226887 
L 434.56112 262.759254 
L 435.3472 263.386263 
L 436.13328 263.776665 
L 436.92172 263.94229 
L 438.10202 264.746755 
L 440.85448 266.343854 
L 443.21508 267.361265 
L 445.18382 268.544302 
L 448.3305 270.011267 
L 449.90502 271.052339 
L 451.08532 271.324438 
L 452.65748 272.140733 
L 453.83778 272.755912 
L 454.62622 273.276448 
L 456.98682 273.974439 
L 459.34742 275.110154 
L 462.4941 276.2577 
L 463.6744 276.849218 
L 466.42922 277.665513 
L 466.42922 277.665513 
" clip-path="url(#pdf6e55942b)" style="fill: none; stroke: #e0f3db; stroke-width: 0.8; stroke-linecap: square"/>
   </g>
   <g id="line2d_19">
    <path d="M 52.53578 289.789398 
L 53.32422 289.799949 
L 55.68482 289.673333 
L 56.86512 289.852706 
L 58.04542 289.715539 
L 58.8315 289.56782 
L 61.58632 289.694436 
L 61.97818 289.799949 
L 62.3724 289.768295 
L 63.5527 289.430653 
L 64.33878 289.48341 
L 65.51908 289.662782 
L 68.2739 289.599474 
L 69.05998 289.472858 
L 71.8148 289.536166 
L 72.60088 289.367345 
L 75.3557 289.314588 
L 76.536 289.441204 
L 77.7163 289.177421 
L 81.65142 289.177421 
L 82.83172 288.987498 
L 84.01202 289.103562 
L 84.40388 289.187973 
L 89.5193 288.839779 
L 90.6996 288.85033 
L 91.48568 288.60765 
L 93.0602 288.533791 
L 95.4208 288.52324 
L 96.99532 288.122289 
L 100.142 288.111738 
L 102.5026 287.774096 
L 104.8632 287.689685 
L 105.64928 287.468108 
L 106.43772 287.394248 
L 107.2238 287.383697 
L 108.00988 287.288735 
L 109.19018 287.341492 
L 109.97862 287.130465 
L 111.15892 286.792823 
L 111.945 286.771721 
L 112.73108 286.792823 
L 115.09168 286.318014 
L 117.45228 286.012026 
L 118.24072 286.001474 
L 118.63258 285.895961 
L 119.42102 285.526665 
L 120.2071 285.305087 
L 123.748 284.840829 
L 125.32252 284.29216 
L 128.07498 283.849005 
L 129.6495 283.24758 
L 130.43558 282.962694 
L 132.79618 282.561744 
L 133.58462 282.171345 
L 134.76492 281.897011 
L 138.30582 280.831328 
L 139.0919 280.462032 
L 142.23858 279.617926 
L 144.59918 278.467832 
L 147.354 277.370495 
L 148.14008 276.948442 
L 149.32038 276.441979 
L 150.50068 275.903862 
L 151.68098 275.471258 
L 153.64972 274.300061 
L 154.83002 273.719739 
L 157.19062 272.421926 
L 159.55122 270.891985 
L 160.73152 270.258906 
L 161.91182 269.319838 
L 163.09212 268.581246 
L 165.0585 267.283434 
L 165.45272 267.072407 
L 166.63302 265.89066 
L 167.81332 264.909387 
L 170.56578 262.830777 
L 174.10668 259.844754 
L 175.28698 258.705211 
L 178.43602 255.97242 
L 180.00818 254.716813 
L 180.79662 253.872707 
L 182.36878 252.6171 
L 185.51782 249.947616 
L 187.4842 248.37547 
L 188.6645 247.49971 
L 189.8448 246.497335 
L 192.2054 244.714162 
L 192.99148 244.249904 
L 193.77992 243.796197 
L 194.96022 242.793822 
L 197.32082 241.26388 
L 199.2872 240.008273 
L 200.86172 238.879282 
L 203.22232 237.592021 
L 204.0084 236.969493 
L 205.97478 235.851054 
L 208.33538 234.416074 
L 209.12382 233.772444 
L 211.87628 232.094784 
L 212.66472 231.630526 
L 214.23688 230.364368 
L 215.02532 229.847353 
L 216.20562 229.034901 
L 217.38592 228.021975 
L 218.95808 226.449828 
L 220.5326 225.035951 
L 221.7129 224.044127 
L 226.82832 218.029875 
L 231.54952 210.654503 
L 235.48228 202.79377 
L 236.66258 200.008222 
L 240.5977 190.079431 
L 241.778 186.449777 
L 246.4992 171.182018 
L 250.43432 156.441825 
L 256.33582 132.215996 
L 263.0234 104.223345 
L 267.7446 86.296654 
L 270.89128 76.135733 
L 273.25188 69.984314 
L 276.40092 63.263124 
L 278.76152 60.013318 
L 279.5476 59.095353 
L 281.12212 57.808092 
L 281.9082 57.481001 
L 284.2688 57.206667 
L 284.66302 57.248872 
L 286.23518 57.95581 
L 287.02362 58.462274 
L 289.77608 61.268925 
L 290.95638 63.083752 
L 292.5309 65.816543 
L 294.10542 68.718156 
L 295.28572 71.144959 
L 296.85788 74.890678 
L 299.21848 80.704455 
L 301.57908 87.109106 
L 302.75938 90.306155 
L 303.93968 93.513756 
L 307.48058 103.906806 
L 313.7763 121.939011 
L 318.4975 134.885479 
L 320.46388 140.023972 
L 326.36538 153.951713 
L 331.08658 163.964915 
L 332.6611 167.088106 
L 335.80778 173.03905 
L 337.77652 176.426023 
L 338.95682 178.599595 
L 342.1035 183.769742 
L 343.2838 185.690082 
L 344.4641 187.631524 
L 345.6444 189.172017 
L 350.3656 195.967067 
L 351.15168 197.001096 
L 353.12042 199.860504 
L 357.4474 205.241676 
L 358.23348 206.349565 
L 359.41378 207.457453 
L 364.13498 212.859729 
L 364.92342 213.577219 
L 368.0701 216.858679 
L 370.82492 219.443752 
L 372.00522 220.731013 
L 372.7913 221.216374 
L 373.9716 222.060479 
L 374.75768 222.841277 
L 378.29858 225.637377 
L 379.08702 226.217699 
L 381.0534 227.832051 
L 384.20008 229.815699 
L 384.98852 230.353816 
L 386.56068 231.567218 
L 387.74098 232.179195 
L 391.6761 234.637652 
L 392.8564 235.186321 
L 396.00308 237.053904 
L 397.5776 237.834702 
L 399.15212 238.710461 
L 399.9382 239.25913 
L 400.72428 239.575669 
L 401.51272 239.807798 
L 402.2988 240.250954 
L 403.4791 240.926238 
L 404.26518 241.295534 
L 405.05362 241.854754 
L 407.02 242.582795 
L 409.77482 244.165493 
L 412.9215 245.431652 
L 414.49602 246.360168 
L 416.06818 246.972144 
L 418.42878 248.206649 
L 419.21722 248.765868 
L 420.0033 248.955792 
L 420.78938 249.17737 
L 423.5442 250.612349 
L 424.33028 250.992197 
L 426.29902 251.751892 
L 428.65962 253.039153 
L 429.83992 253.419 
L 431.02022 254.094285 
L 431.8063 254.37917 
L 433.77268 255.4132 
L 434.56112 255.582021 
L 436.13328 256.394472 
L 438.49388 257.586771 
L 440.85448 258.325364 
L 443.21508 259.422701 
L 444.00352 259.65483 
L 447.93628 261.459106 
L 448.72472 261.532965 
L 449.90502 262.123839 
L 453.44592 263.643229 
L 454.62622 264.033627 
L 455.80652 264.698361 
L 457.7729 265.394748 
L 460.52772 266.365469 
L 461.3138 266.819176 
L 462.09988 266.977446 
L 463.28018 267.304536 
L 464.06862 267.642179 
L 465.24892 268.011475 
L 466.42922 268.644554 
L 466.42922 268.644554 
" clip-path="url(#pdf6e55942b)" style="fill: none; stroke: #7bccc4; stroke-width: 0.8; stroke-linecap: square"/>
   </g>
   <g id="patch_3">
    <path d="M 52.93 312.92 
L 52.93 33.96 
" style="fill: none; stroke: #000000; stroke-width: 0.5; stroke-linejoin: miter; stroke-linecap: square"/>
   </g>
   <g id="patch_4">
    <path d="M 52.93 312.92 
L 466.035 312.92 
" style="fill: none; stroke: #000000; stroke-width: 0.5; stroke-linejoin: miter; stroke-linecap: square"/>
   </g>
   <g id="patch_5">
    <path d="M 263.397201 131.322134 
L 307.106779 131.322134 
L 307.106779 53.677359 
L 263.397201 53.677359 
L 263.397201 131.322134 
z
" clip-path="url(#pdf6e55942b)" style="fill: none; opacity: 0.8; stroke: #000000; stroke-width: 0.4; stroke-linejoin: miter"/>
   </g>
   <g id="patch_6">
    <path d="M 85.9784 117.648 
Q 174.687801 124.485067 263.397201 131.322134 
" style="fill: none; stroke-dasharray: 0.5,0.825; stroke-dashoffset: 0; stroke: #000000; stroke-width: 0.5; stroke-linecap: round"/>
   </g>
   <g id="patch_7">
    <path d="M 85.9784 33.96 
Q 174.687801 43.818679 263.397201 53.677359 
" style="fill: none; stroke-dasharray: 0.5,0.825; stroke-dashoffset: 0; stroke: #000000; stroke-width: 0.5; stroke-linecap: round"/>
   </g>
   <g id="patch_8">
    <path d="M 251.2204 117.648 
Q 279.163589 124.485067 307.106779 131.322134 
" style="fill: none; stroke-dasharray: 0.5,0.825; stroke-dashoffset: 0; stroke: #000000; stroke-width: 0.5; stroke-linecap: round"/>
   </g>
   <g id="patch_9">
    <path d="M 251.2204 33.96 
Q 279.163589 43.818679 307.106779 53.677359 
" style="fill: none; stroke-dasharray: 0.5,0.825; stroke-dashoffset: 0; stroke: #000000; stroke-width: 0.5; stroke-linecap: round"/>
   </g>
   <g id="legend_1">
    <g id="text_18">
     <!-- Experiment Conditions -->
     <g transform="translate(334.619875 48.758438) scale(0.1 -0.1)">
      <defs>
       <path id="DejaVuSans-45" d="M 628 4666 
L 3578 4666 
L 3578 4134 
L 1259 4134 
L 1259 2753 
L 3481 2753 
L 3481 2222 
L 1259 2222 
L 1259 531 
L 3634 531 
L 3634 0 
L 628 0 
L 628 4666 
z
" transform="scale(0.015625)"/>
       <path id="DejaVuSans-78" d="M 3513 3500 
L 2247 1797 
L 3578 0 
L 2900 0 
L 1881 1375 
L 863 0 
L 184 0 
L 1544 1831 
L 300 3500 
L 978 3500 
L 1906 2253 
L 2834 3500 
L 3513 3500 
z
" transform="scale(0.015625)"/>
       <path id="DejaVuSans-70" d="M 1159 525 
L 1159 -1331 
L 581 -1331 
L 581 3500 
L 1159 3500 
L 1159 2969 
Q 1341 3281 1617 3432 
Q 1894 3584 2278 3584 
Q 2916 3584 3314 3078 
Q 3713 2572 3713 1747 
Q 3713 922 3314 415 
Q 2916 -91 2278 -91 
Q 1894 -91 1617 61 
Q 1341 213 1159 525 
z
M 3116 1747 
Q 3116 2381 2855 2742 
Q 2594 3103 2138 3103 
Q 1681 3103 1420 2742 
Q 1159 2381 1159 1747 
Q 1159 1113 1420 752 
Q 1681 391 2138 391 
Q 2594 391 2855 752 
Q 3116 1113 3116 1747 
z
" transform="scale(0.015625)"/>
       <path id="DejaVuSans-43" d="M 4122 4306 
L 4122 3641 
Q 3803 3938 3442 4084 
Q 3081 4231 2675 4231 
Q 1875 4231 1450 3742 
Q 1025 3253 1025 2328 
Q 1025 1406 1450 917 
Q 1875 428 2675 428 
Q 3081 428 3442 575 
Q 3803 722 4122 1019 
L 4122 359 
Q 3791 134 3420 21 
Q 3050 -91 2638 -91 
Q 1578 -91 968 557 
Q 359 1206 359 2328 
Q 359 3453 968 4101 
Q 1578 4750 2638 4750 
Q 3056 4750 3426 4639 
Q 3797 4528 4122 4306 
z
" transform="scale(0.015625)"/>
      </defs>
      <use xlink:href="#DejaVuSans-45"/>
      <use xlink:href="#DejaVuSans-78" x="63.183594"/>
      <use xlink:href="#DejaVuSans-70" x="122.363281"/>
      <use xlink:href="#DejaVuSans-65" x="185.839844"/>
      <use xlink:href="#DejaVuSans-72" x="247.363281"/>
      <use xlink:href="#DejaVuSans-69" x="288.476562"/>
      <use xlink:href="#DejaVuSans-6d" x="316.259766"/>
      <use xlink:href="#DejaVuSans-65" x="413.671875"/>
      <use xlink:href="#DejaVuSans-6e" x="475.195312"/>
      <use xlink:href="#DejaVuSans-74" x="538.574219"/>
      <use xlink:href="#DejaVuSans-20" x="577.783203"/>
      <use xlink:href="#DejaVuSans-43" x="609.570312"/>
      <use xlink:href="#DejaVuSans-6f" x="679.394531"/>
      <use xlink:href="#DejaVuSans-6e" x="740.576172"/>
      <use xlink:href="#DejaVuSans-64" x="803.955078"/>
      <use xlink:href="#DejaVuSans-69" x="867.431641"/>
      <use xlink:href="#DejaVuSans-74" x="895.214844"/>
      <use xlink:href="#DejaVuSans-69" x="934.423828"/>
      <use xlink:href="#DejaVuSans-6f" x="962.207031"/>
      <use xlink:href="#DejaVuSans-6e" x="1023.388672"/>
      <use xlink:href="#DejaVuSans-73" x="1086.767578"/>
     </g>
    </g>
    <g id="line2d_20">
     <path d="M 340.963625 58.116875 
L 348.963625 58.116875 
L 356.963625 58.116875 
" style="fill: none; stroke: #8286ff; stroke-width: 0.8; stroke-linecap: square"/>
    </g>
    <g id="text_19">
     <!-- PS-6.4K -->
     <g transform="translate(363.363625 60.916875) scale(0.08 -0.08)">
      <defs>
       <path id="DejaVuSans-50" d="M 1259 4147 
L 1259 2394 
L 2053 2394 
Q 2494 2394 2734 2622 
Q 2975 2850 2975 3272 
Q 2975 3691 2734 3919 
Q 2494 4147 2053 4147 
L 1259 4147 
z
M 628 4666 
L 2053 4666 
Q 2838 4666 3239 4311 
Q 3641 3956 3641 3272 
Q 3641 2581 3239 2228 
Q 2838 1875 2053 1875 
L 1259 1875 
L 1259 0 
L 628 0 
L 628 4666 
z
" transform="scale(0.015625)"/>
       <path id="DejaVuSans-53" d="M 3425 4513 
L 3425 3897 
Q 3066 4069 2747 4153 
Q 2428 4238 2131 4238 
Q 1616 4238 1336 4038 
Q 1056 3838 1056 3469 
Q 1056 3159 1242 3001 
Q 1428 2844 1947 2747 
L 2328 2669 
Q 3034 2534 3370 2195 
Q 3706 1856 3706 1288 
Q 3706 609 3251 259 
Q 2797 -91 1919 -91 
Q 1588 -91 1214 -16 
Q 841 59 441 206 
L 441 856 
Q 825 641 1194 531 
Q 1563 422 1919 422 
Q 2459 422 2753 634 
Q 3047 847 3047 1241 
Q 3047 1584 2836 1778 
Q 2625 1972 2144 2069 
L 1759 2144 
Q 1053 2284 737 2584 
Q 422 2884 422 3419 
Q 422 4038 858 4394 
Q 1294 4750 2059 4750 
Q 2388 4750 2728 4690 
Q 3069 4631 3425 4513 
z
" transform="scale(0.015625)"/>
       <path id="DejaVuSans-2d" d="M 313 2009 
L 1997 2009 
L 1997 1497 
L 313 1497 
L 313 2009 
z
" transform="scale(0.015625)"/>
       <path id="DejaVuSans-4b" d="M 628 4666 
L 1259 4666 
L 1259 2694 
L 3353 4666 
L 4166 4666 
L 1850 2491 
L 4331 0 
L 3500 0 
L 1259 2247 
L 1259 0 
L 628 0 
L 628 4666 
z
" transform="scale(0.015625)"/>
      </defs>
      <use xlink:href="#DejaVuSans-50"/>
      <use xlink:href="#DejaVuSans-53" x="60.302734"/>
      <use xlink:href="#DejaVuSans-2d" x="123.779297"/>
      <use xlink:href="#DejaVuSans-36" x="159.863281"/>
      <use xlink:href="#DejaVuSans-2e" x="223.486328"/>
      <use xlink:href="#DejaVuSans-34" x="255.273438"/>
      <use xlink:href="#DejaVuSans-4b" x="318.896484"/>
     </g>
    </g>
    <g id="line2d_21">
     <path d="M 340.963625 69.859375 
L 348.963625 69.859375 
L 356.963625 69.859375 
" style="fill: none; stroke: #f5c92a; stroke-width: 0.8; stroke-linecap: square"/>
    </g>
    <g id="text_20">
     <!-- PS-SCF$_{3}$-FLASH -->
     <g transform="translate(363.363625 72.659375) scale(0.08 -0.08)">
      <defs>
       <path id="DejaVuSans-46" d="M 628 4666 
L 3309 4666 
L 3309 4134 
L 1259 4134 
L 1259 2759 
L 3109 2759 
L 3109 2228 
L 1259 2228 
L 1259 0 
L 628 0 
L 628 4666 
z
" transform="scale(0.015625)"/>
       <path id="DejaVuSans-33" d="M 2597 2516 
Q 3050 2419 3304 2112 
Q 3559 1806 3559 1356 
Q 3559 666 3084 287 
Q 2609 -91 1734 -91 
Q 1441 -91 1130 -33 
Q 819 25 488 141 
L 488 750 
Q 750 597 1062 519 
Q 1375 441 1716 441 
Q 2309 441 2620 675 
Q 2931 909 2931 1356 
Q 2931 1769 2642 2001 
Q 2353 2234 1838 2234 
L 1294 2234 
L 1294 2753 
L 1863 2753 
Q 2328 2753 2575 2939 
Q 2822 3125 2822 3475 
Q 2822 3834 2567 4026 
Q 2313 4219 1838 4219 
Q 1578 4219 1281 4162 
Q 984 4106 628 3988 
L 628 4550 
Q 988 4650 1302 4700 
Q 1616 4750 1894 4750 
Q 2613 4750 3031 4423 
Q 3450 4097 3450 3541 
Q 3450 3153 3228 2886 
Q 3006 2619 2597 2516 
z
" transform="scale(0.015625)"/>
       <path id="DejaVuSans-4c" d="M 628 4666 
L 1259 4666 
L 1259 531 
L 3531 531 
L 3531 0 
L 628 0 
L 628 4666 
z
" transform="scale(0.015625)"/>
       <path id="DejaVuSans-41" d="M 2188 4044 
L 1331 1722 
L 3047 1722 
L 2188 4044 
z
M 1831 4666 
L 2547 4666 
L 4325 0 
L 3669 0 
L 3244 1197 
L 1141 1197 
L 716 0 
L 50 0 
L 1831 4666 
z
" transform="scale(0.015625)"/>
       <path id="DejaVuSans-48" d="M 628 4666 
L 1259 4666 
L 1259 2753 
L 3553 2753 
L 3553 4666 
L 4184 4666 
L 4184 0 
L 3553 0 
L 3553 2222 
L 1259 2222 
L 1259 0 
L 628 0 
L 628 4666 
z
" transform="scale(0.015625)"/>
      </defs>
      <use xlink:href="#DejaVuSans-50" transform="translate(0 0.78125)"/>
      <use xlink:href="#DejaVuSans-53" transform="translate(60.302734 0.78125)"/>
      <use xlink:href="#DejaVuSans-2d" transform="translate(123.779297 0.78125)"/>
      <use xlink:href="#DejaVuSans-53" transform="translate(159.863281 0.78125)"/>
      <use xlink:href="#DejaVuSans-43" transform="translate(223.339844 0.78125)"/>
      <use xlink:href="#DejaVuSans-46" transform="translate(293.164062 0.78125)"/>
      <use xlink:href="#DejaVuSans-33" transform="translate(351.640625 -15.625) scale(0.7)"/>
      <use xlink:href="#DejaVuSans-2d" transform="translate(398.911133 0.78125)"/>
      <use xlink:href="#DejaVuSans-46" transform="translate(434.995117 0.78125)"/>
      <use xlink:href="#DejaVuSans-4c" transform="translate(492.514648 0.78125)"/>
      <use xlink:href="#DejaVuSans-41" transform="translate(548.227539 0.78125)"/>
      <use xlink:href="#DejaVuSans-53" transform="translate(616.635742 0.78125)"/>
      <use xlink:href="#DejaVuSans-48" transform="translate(680.112305 0.78125)"/>
     </g>
    </g>
    <g id="line2d_22">
     <path d="M 340.963625 81.601875 
L 348.963625 81.601875 
L 356.963625 81.601875 
" style="fill: none; stroke: #e0f3db; stroke-width: 0.8; stroke-linecap: square"/>
    </g>
    <g id="text_21">
     <!-- PS-SCF$_{3}$-rGPC -->
     <g transform="translate(363.363625 84.401875) scale(0.08 -0.08)">
      <defs>
       <path id="DejaVuSans-47" d="M 3809 666 
L 3809 1919 
L 2778 1919 
L 2778 2438 
L 4434 2438 
L 4434 434 
Q 4069 175 3628 42 
Q 3188 -91 2688 -91 
Q 1594 -91 976 548 
Q 359 1188 359 2328 
Q 359 3472 976 4111 
Q 1594 4750 2688 4750 
Q 3144 4750 3555 4637 
Q 3966 4525 4313 4306 
L 4313 3634 
Q 3963 3931 3569 4081 
Q 3175 4231 2741 4231 
Q 1884 4231 1454 3753 
Q 1025 3275 1025 2328 
Q 1025 1384 1454 906 
Q 1884 428 2741 428 
Q 3075 428 3337 486 
Q 3600 544 3809 666 
z
" transform="scale(0.015625)"/>
      </defs>
      <use xlink:href="#DejaVuSans-50" transform="translate(0 0.78125)"/>
      <use xlink:href="#DejaVuSans-53" transform="translate(60.302734 0.78125)"/>
      <use xlink:href="#DejaVuSans-2d" transform="translate(123.779297 0.78125)"/>
      <use xlink:href="#DejaVuSans-53" transform="translate(159.863281 0.78125)"/>
      <use xlink:href="#DejaVuSans-43" transform="translate(223.339844 0.78125)"/>
      <use xlink:href="#DejaVuSans-46" transform="translate(293.164062 0.78125)"/>
      <use xlink:href="#DejaVuSans-33" transform="translate(351.640625 -15.625) scale(0.7)"/>
      <use xlink:href="#DejaVuSans-2d" transform="translate(398.911133 0.78125)"/>
      <use xlink:href="#DejaVuSans-72" transform="translate(434.995117 0.78125)"/>
      <use xlink:href="#DejaVuSans-47" transform="translate(476.108398 0.78125)"/>
      <use xlink:href="#DejaVuSans-50" transform="translate(553.598633 0.78125)"/>
      <use xlink:href="#DejaVuSans-43" transform="translate(613.901367 0.78125)"/>
     </g>
    </g>
    <g id="line2d_23">
     <path d="M 340.963625 93.345625 
L 348.963625 93.345625 
L 356.963625 93.345625 
" style="fill: none; stroke: #7bccc4; stroke-width: 0.8; stroke-linecap: square"/>
    </g>
    <g id="text_22">
     <!-- PS-SCF$_{3}$-Toyopearls -->
     <g transform="translate(363.363625 96.145625) scale(0.08 -0.08)">
      <use xlink:href="#DejaVuSans-50" transform="translate(0 0.015625)"/>
      <use xlink:href="#DejaVuSans-53" transform="translate(60.302734 0.015625)"/>
      <use xlink:href="#DejaVuSans-2d" transform="translate(123.779297 0.015625)"/>
      <use xlink:href="#DejaVuSans-53" transform="translate(159.863281 0.015625)"/>
      <use xlink:href="#DejaVuSans-43" transform="translate(223.339844 0.015625)"/>
      <use xlink:href="#DejaVuSans-46" transform="translate(293.164062 0.015625)"/>
      <use xlink:href="#DejaVuSans-33" transform="translate(351.640625 -16.390625) scale(0.7)"/>
      <use xlink:href="#DejaVuSans-2d" transform="translate(398.911133 0.015625)"/>
      <use xlink:href="#DejaVuSans-54" transform="translate(434.995117 0.015625)"/>
      <use xlink:href="#DejaVuSans-6f" transform="translate(496.079102 0.015625)"/>
      <use xlink:href="#DejaVuSans-79" transform="translate(557.260742 0.015625)"/>
      <use xlink:href="#DejaVuSans-6f" transform="translate(616.44043 0.015625)"/>
      <use xlink:href="#DejaVuSans-70" transform="translate(677.62207 0.015625)"/>
      <use xlink:href="#DejaVuSans-65" transform="translate(741.098633 0.015625)"/>
      <use xlink:href="#DejaVuSans-61" transform="translate(802.62207 0.015625)"/>
      <use xlink:href="#DejaVuSans-72" transform="translate(863.901367 0.015625)"/>
      <use xlink:href="#DejaVuSans-6c" transform="translate(905.014648 0.015625)"/>
      <use xlink:href="#DejaVuSans-73" transform="translate(932.797852 0.015625)"/>
     </g>
    </g>
   </g>
   <g id="axes_2">
    <g id="patch_10">
     <path d="M 85.9784 117.648 
L 251.2204 117.648 
L 251.2204 33.96 
L 85.9784 33.96 
z
" style="fill: #ffffff"/>
    </g>
    <g id="matplotlib.axis_3">
     <g id="xtick_10">
      <g id="line2d_24">
       <g>
        <use xlink:href="#m977bb9432b" x="93.4894" y="117.648" style="stroke: #000000; stroke-width: 0.8"/>
       </g>
      </g>
      <g id="text_23">
       <!-- 7.65 -->
       <g transform="translate(84.58315 127.22675) scale(0.08 -0.08)">
        <defs>
         <path id="DejaVuSans-35" d="M 691 4666 
L 3169 4666 
L 3169 4134 
L 1269 4134 
L 1269 2991 
Q 1406 3038 1543 3061 
Q 1681 3084 1819 3084 
Q 2600 3084 3056 2656 
Q 3513 2228 3513 1497 
Q 3513 744 3044 326 
Q 2575 -91 1722 -91 
Q 1428 -91 1123 -41 
Q 819 9 494 109 
L 494 744 
Q 775 591 1075 516 
Q 1375 441 1709 441 
Q 2250 441 2565 725 
Q 2881 1009 2881 1497 
Q 2881 1984 2565 2268 
Q 2250 2553 1709 2553 
Q 1456 2553 1204 2497 
Q 953 2441 691 2322 
L 691 4666 
z
" transform="scale(0.015625)"/>
        </defs>
        <use xlink:href="#DejaVuSans-37"/>
        <use xlink:href="#DejaVuSans-2e" x="63.623047"/>
        <use xlink:href="#DejaVuSans-36" x="95.410156"/>
        <use xlink:href="#DejaVuSans-35" x="159.033203"/>
       </g>
      </g>
     </g>
     <g id="xtick_11">
      <g id="line2d_25">
       <g>
        <use xlink:href="#m977bb9432b" x="138.110086" y="117.648" style="stroke: #000000; stroke-width: 0.8"/>
       </g>
      </g>
      <g id="text_24">
       <!-- 7.70 -->
       <g transform="translate(129.203836 127.22675) scale(0.08 -0.08)">
        <use xlink:href="#DejaVuSans-37"/>
        <use xlink:href="#DejaVuSans-2e" x="63.623047"/>
        <use xlink:href="#DejaVuSans-37" x="95.410156"/>
        <use xlink:href="#DejaVuSans-30" x="159.033203"/>
       </g>
      </g>
     </g>
     <g id="xtick_12">
      <g id="line2d_26">
       <g>
        <use xlink:href="#m977bb9432b" x="182.730771" y="117.648" style="stroke: #000000; stroke-width: 0.8"/>
       </g>
      </g>
      <g id="text_25">
       <!-- 7.75 -->
       <g transform="translate(173.824521 127.22675) scale(0.08 -0.08)">
        <use xlink:href="#DejaVuSans-37"/>
        <use xlink:href="#DejaVuSans-2e" x="63.623047"/>
        <use xlink:href="#DejaVuSans-37" x="95.410156"/>
        <use xlink:href="#DejaVuSans-35" x="159.033203"/>
       </g>
      </g>
     </g>
     <g id="xtick_13">
      <g id="line2d_27">
       <g>
        <use xlink:href="#m977bb9432b" x="227.351457" y="117.648" style="stroke: #000000; stroke-width: 0.8"/>
       </g>
      </g>
      <g id="text_26">
       <!-- 7.80 -->
       <g transform="translate(218.445207 127.22675) scale(0.08 -0.08)">
        <use xlink:href="#DejaVuSans-37"/>
        <use xlink:href="#DejaVuSans-2e" x="63.623047"/>
        <use xlink:href="#DejaVuSans-38" x="95.410156"/>
        <use xlink:href="#DejaVuSans-30" x="159.033203"/>
       </g>
      </g>
     </g>
    </g>
    <g id="matplotlib.axis_4">
     <g id="ytick_7">
      <g id="line2d_28">
       <g>
        <use xlink:href="#mfe2ac924ff" x="85.9784" y="112.931982" style="stroke: #000000; stroke-width: 0.8"/>
       </g>
      </g>
      <g id="text_27">
       <!-- 0.7 -->
       <g transform="translate(69.7559 115.971357) scale(0.08 -0.08)">
        <use xlink:href="#DejaVuSans-30"/>
        <use xlink:href="#DejaVuSans-2e" x="63.623047"/>
        <use xlink:href="#DejaVuSans-37" x="95.410156"/>
       </g>
      </g>
     </g>
     <g id="ytick_8">
      <g id="line2d_29">
       <g>
        <use xlink:href="#mfe2ac924ff" x="85.9784" y="87.875988" style="stroke: #000000; stroke-width: 0.8"/>
       </g>
      </g>
      <g id="text_28">
       <!-- 0.8 -->
       <g transform="translate(69.7559 90.915363) scale(0.08 -0.08)">
        <use xlink:href="#DejaVuSans-30"/>
        <use xlink:href="#DejaVuSans-2e" x="63.623047"/>
        <use xlink:href="#DejaVuSans-38" x="95.410156"/>
       </g>
      </g>
     </g>
     <g id="ytick_9">
      <g id="line2d_30">
       <g>
        <use xlink:href="#mfe2ac924ff" x="85.9784" y="62.819994" style="stroke: #000000; stroke-width: 0.8"/>
       </g>
      </g>
      <g id="text_29">
       <!-- 0.9 -->
       <g transform="translate(69.7559 65.859369) scale(0.08 -0.08)">
        <defs>
         <path id="DejaVuSans-39" d="M 703 97 
L 703 672 
Q 941 559 1184 500 
Q 1428 441 1663 441 
Q 2288 441 2617 861 
Q 2947 1281 2994 2138 
Q 2813 1869 2534 1725 
Q 2256 1581 1919 1581 
Q 1219 1581 811 2004 
Q 403 2428 403 3163 
Q 403 3881 828 4315 
Q 1253 4750 1959 4750 
Q 2769 4750 3195 4129 
Q 3622 3509 3622 2328 
Q 3622 1225 3098 567 
Q 2575 -91 1691 -91 
Q 1453 -91 1209 -44 
Q 966 3 703 97 
z
M 1959 2075 
Q 2384 2075 2632 2365 
Q 2881 2656 2881 3163 
Q 2881 3666 2632 3958 
Q 2384 4250 1959 4250 
Q 1534 4250 1286 3958 
Q 1038 3666 1038 3163 
Q 1038 2656 1286 2365 
Q 1534 2075 1959 2075 
z
" transform="scale(0.015625)"/>
        </defs>
        <use xlink:href="#DejaVuSans-30"/>
        <use xlink:href="#DejaVuSans-2e" x="63.623047"/>
        <use xlink:href="#DejaVuSans-39" x="95.410156"/>
       </g>
      </g>
     </g>
     <g id="ytick_10">
      <g id="line2d_31">
       <g>
        <use xlink:href="#mfe2ac924ff" x="85.9784" y="37.764" style="stroke: #000000; stroke-width: 0.8"/>
       </g>
      </g>
      <g id="text_30">
       <!-- 1.0 -->
       <g transform="translate(69.7559 40.803375) scale(0.08 -0.08)">
        <use xlink:href="#DejaVuSans-31"/>
        <use xlink:href="#DejaVuSans-2e" x="63.623047"/>
        <use xlink:href="#DejaVuSans-30" x="95.410156"/>
       </g>
      </g>
     </g>
    </g>
    <g id="line2d_32">
     <path d="M 93.4894 113.844 
L 94.979731 111.59222 
L 96.461138 109.331019 
L 97.951469 107.098083 
L 99.441799 104.865147 
L 100.923206 102.622789 
L 102.413537 100.371009 
L 103.903868 98.166338 
L 105.385275 96.027619 
L 106.875606 93.888899 
L 108.365937 91.778445 
L 109.847343 89.677412 
L 111.337674 87.661174 
L 112.828005 85.72031 
L 114.309412 83.826554 
L 115.799743 81.961063 
L 117.290074 80.104993 
L 118.77148 78.164129 
L 120.261811 76.232686 
L 121.752142 74.39546 
L 123.233549 72.577077 
L 124.72388 70.834068 
L 126.214211 69.194697 
L 127.695618 67.536483 
L 129.185948 65.878269 
L 130.676279 64.314271 
L 132.157686 62.78796 
L 133.648017 61.31818 
L 135.138348 59.933194 
L 136.619755 58.538786 
L 138.110086 57.106692 
L 139.600416 55.702863 
L 141.081823 54.374407 
L 142.572154 53.102482 
L 144.062485 51.934194 
L 145.543892 50.831859 
L 147.034223 49.814318 
L 148.524554 48.843886 
L 150.00596 47.864032 
L 151.496291 46.8936 
L 152.986622 46.007963 
L 154.468029 45.122326 
L 155.95836 44.274375 
L 157.448691 43.492376 
L 158.930097 42.757486 
L 160.420428 42.060282 
L 161.910759 41.438452 
L 163.392166 40.882573 
L 164.882497 40.373803 
L 166.372828 39.930985 
L 167.854235 39.572961 
L 169.344565 39.290311 
L 170.834896 38.960552 
L 172.316303 38.583685 
L 173.806634 38.253927 
L 175.296965 38.018385 
L 176.778372 37.858217 
L 178.268703 37.82053 
L 179.759033 37.782843 
L 181.24044 37.764 
L 182.730771 37.764 
L 184.221102 37.82053 
L 185.702509 37.952433 
L 187.19284 38.187975 
L 188.683171 38.508312 
L 190.164577 38.743854 
L 191.654908 38.922866 
L 193.145239 39.167829 
L 194.626646 39.441058 
L 196.116977 39.808503 
L 197.607308 40.260743 
L 199.088714 40.788357 
L 200.579045 41.344235 
L 202.069376 41.900114 
L 203.550783 42.465414 
L 205.041114 43.068401 
L 206.531445 43.709075 
L 208.012852 44.330905 
L 209.503182 44.971579 
L 210.993513 45.678204 
L 212.47492 46.38483 
L 213.965251 47.100877 
L 215.455582 47.882876 
L 216.936989 48.749669 
L 218.42732 49.644728 
L 219.91765 50.586895 
L 221.399057 51.547906 
L 222.889388 52.480651 
L 224.379719 53.479349 
L 225.861126 54.402672 
L 227.351457 55.278888 
L 228.841788 56.230477 
L 230.323194 57.238596 
L 231.813525 58.27498 
L 233.303856 59.367893 
L 234.785263 60.441964 
L 236.275594 61.506613 
L 237.765925 62.599527 
L 239.247331 63.777236 
L 240.737662 64.992632 
L 242.227993 66.198606 
L 243.7094 67.319785 
" clip-path="url(#pa3158c64cd)" style="fill: none; stroke: #8286ff; stroke-width: 0.8; stroke-linecap: square"/>
    </g>
    <g id="line2d_33">
     <path d="M 93.4894 93.259987 
L 94.979731 91.402043 
L 96.461138 89.665269 
L 97.951469 87.86791 
L 99.441799 85.82821 
L 100.923206 83.828901 
L 102.413537 81.869981 
L 103.903868 79.971647 
L 105.385275 78.255068 
L 106.875606 76.578879 
L 108.365937 74.922885 
L 109.847343 73.388062 
L 111.337674 71.732068 
L 112.828005 70.136659 
L 114.309412 68.581641 
L 115.799743 67.107402 
L 117.290074 65.511994 
L 118.77148 63.916585 
L 120.261811 62.422152 
L 121.752142 60.907523 
L 123.233549 59.41309 
L 124.72388 57.999436 
L 126.214211 56.727149 
L 127.695618 55.636616 
L 129.185948 54.586474 
L 130.676279 53.495941 
L 132.157686 52.425604 
L 133.648017 51.294681 
L 135.138348 50.042588 
L 136.619755 48.891471 
L 138.110086 47.901913 
L 139.600416 47.053721 
L 141.081823 46.144944 
L 142.572154 45.256362 
L 144.062485 44.529341 
L 145.543892 43.822514 
L 147.034223 43.156077 
L 148.524554 42.590616 
L 150.00596 42.16652 
L 151.496291 41.641449 
L 152.986622 40.914427 
L 154.468029 40.227796 
L 155.95836 39.621944 
L 157.448691 39.197848 
L 158.930097 38.874728 
L 160.420428 38.591997 
L 161.910759 38.390046 
L 163.392166 38.228486 
L 164.882497 38.087121 
L 166.372828 37.945755 
L 167.854235 37.88517 
L 169.344565 37.84478 
L 170.834896 37.764 
L 172.316303 37.824585 
L 173.806634 37.905365 
L 175.296965 37.986146 
L 176.778372 38.107316 
L 178.268703 38.309266 
L 179.759033 38.692972 
L 181.24044 39.096873 
L 182.730771 39.480579 
L 184.221102 39.92487 
L 185.702509 40.348966 
L 187.19284 40.672087 
L 188.683171 41.015402 
L 190.164577 41.419303 
L 191.654908 41.96457 
L 193.145239 42.550226 
L 194.626646 43.095492 
L 196.116977 43.660954 
L 197.607308 44.287 
L 199.088714 44.993827 
L 200.579045 45.882409 
L 202.069376 46.851771 
L 203.550783 47.740353 
L 205.041114 48.48757 
L 206.531445 49.113616 
L 208.012852 49.820443 
L 209.503182 50.60805 
L 210.993513 51.557217 
L 212.47492 52.566969 
L 213.965251 53.697892 
L 215.455582 54.768229 
L 216.936989 55.737591 
L 218.42732 56.727149 
L 219.91765 57.757096 
L 221.399057 58.928409 
L 222.889388 60.059331 
L 224.379719 61.069084 
L 225.861126 62.099031 
L 227.351457 63.108783 
L 228.841788 64.078145 
L 230.323194 65.209068 
L 231.813525 66.420771 
L 233.303856 67.672864 
L 234.785263 69.005737 
L 236.275594 70.439585 
L 237.765925 71.671483 
L 239.247331 72.862991 
L 240.737662 74.034303 
L 242.227993 75.145031 
L 243.7094 76.356734 
" clip-path="url(#pa3158c64cd)" style="fill: none; stroke: #f5c92a; stroke-width: 0.8; stroke-linecap: square"/>
    </g>
    <g id="line2d_34">
     <path d="M 93.4894 74.232266 
L 94.979731 72.71488 
L 96.461138 71.222997 
L 97.951469 69.782118 
L 99.441799 68.341239 
L 100.923206 66.874857 
L 102.413537 65.535987 
L 103.903868 64.158864 
L 105.385275 62.819994 
L 106.875606 61.481124 
L 108.365937 60.180508 
L 109.847343 58.969149 
L 111.337674 57.808795 
L 112.828005 56.699446 
L 114.309412 55.666603 
L 115.799743 54.582756 
L 117.290074 53.384149 
L 118.77148 52.236546 
L 120.261811 51.16545 
L 121.752142 50.15811 
L 123.233549 49.227277 
L 124.72388 48.309194 
L 126.214211 47.403863 
L 127.695618 46.524035 
L 129.185948 45.733464 
L 130.676279 44.993898 
L 132.157686 44.330838 
L 133.648017 43.706032 
L 135.138348 42.991968 
L 136.619755 42.214149 
L 138.110086 41.474582 
L 139.600416 40.900781 
L 141.081823 40.44174 
L 142.572154 40.033703 
L 144.062485 39.714925 
L 145.543892 39.357893 
L 147.034223 39.000861 
L 148.524554 38.694833 
L 150.00596 38.490815 
L 151.496291 38.376055 
L 152.986622 38.172037 
L 154.468029 37.993521 
L 155.95836 37.917014 
L 157.448691 37.815005 
L 158.930097 37.764 
L 160.420428 37.776751 
L 161.910759 37.853258 
L 163.392166 38.031774 
L 164.882497 38.223041 
L 166.372828 38.452562 
L 167.854235 38.720336 
L 169.344565 39.000861 
L 170.834896 39.243132 
L 172.316303 39.510906 
L 173.806634 39.829685 
L 175.296965 40.22497 
L 176.778372 40.684012 
L 178.268703 41.143053 
L 179.759033 41.614845 
L 181.24044 42.124891 
L 182.730771 42.67319 
L 184.221102 43.310747 
L 185.702509 44.024811 
L 187.19284 44.751626 
L 188.683171 45.350929 
L 190.164577 45.937482 
L 191.654908 46.58779 
L 193.145239 47.314605 
L 194.626646 48.092425 
L 196.116977 48.946752 
L 197.607308 49.890336 
L 199.088714 50.808418 
L 200.579045 51.713749 
L 202.069376 52.657334 
L 203.550783 53.639172 
L 205.041114 54.595507 
L 206.531445 55.500839 
L 208.012852 56.444423 
L 209.503182 57.464514 
L 210.993513 58.446352 
L 212.47492 59.440941 
L 213.965251 60.486535 
L 215.455582 61.608636 
L 216.936989 62.781741 
L 218.42732 63.993099 
L 219.91765 65.204458 
L 221.399057 66.403065 
L 222.889388 67.537917 
L 224.379719 68.58351 
L 225.861126 69.743864 
L 227.351457 70.942472 
L 228.841788 72.192083 
L 230.323194 73.390691 
L 231.813525 74.563796 
L 233.303856 75.775154 
L 234.785263 77.037517 
L 236.275594 78.376387 
L 237.765925 79.74076 
L 239.247331 81.117883 
L 240.737662 82.367495 
L 242.227993 83.502346 
L 243.7094 84.649949 
" clip-path="url(#pa3158c64cd)" style="fill: none; stroke: #e0f3db; stroke-width: 0.8; stroke-linecap: square"/>
    </g>
    <g id="line2d_35">
     <path d="M 93.4894 78.409481 
L 94.979731 76.817324 
L 96.461138 75.225168 
L 97.951469 73.655756 
L 99.441799 72.086345 
L 100.923206 70.596541 
L 102.413537 69.11811 
L 103.903868 67.719287 
L 105.385275 66.354581 
L 106.875606 65.023994 
L 108.365937 63.613798 
L 109.847343 62.146739 
L 111.337674 60.725171 
L 112.828005 59.394583 
L 114.309412 58.166348 
L 115.799743 57.006348 
L 117.290074 55.869094 
L 118.77148 54.709094 
L 120.261811 53.583212 
L 121.752142 52.50282 
L 123.233549 51.536154 
L 124.72388 50.603605 
L 126.214211 49.625566 
L 127.695618 48.624782 
L 129.185948 47.623998 
L 130.676279 46.645959 
L 132.157686 45.781645 
L 133.648017 44.985567 
L 135.138348 44.291842 
L 136.619755 43.677724 
L 138.110086 43.097724 
L 139.600416 42.472234 
L 141.081823 41.880862 
L 142.572154 41.346352 
L 144.062485 40.789097 
L 145.543892 40.231843 
L 147.034223 39.799686 
L 148.524554 39.435764 
L 150.00596 39.06047 
L 151.496291 38.719294 
L 152.986622 38.412235 
L 154.468029 38.184784 
L 155.95836 38.059686 
L 157.448691 37.991451 
L 158.930097 37.945961 
L 160.420428 37.911843 
L 161.910759 37.843608 
L 163.392166 37.775373 
L 164.882497 37.764 
L 166.372828 37.80949 
L 167.854235 37.980078 
L 169.344565 38.196157 
L 170.834896 38.366745 
L 172.316303 38.571451 
L 173.806634 38.810274 
L 175.296965 39.117333 
L 176.778372 39.538117 
L 178.268703 40.004392 
L 179.759033 40.391058 
L 181.24044 40.743607 
L 182.730771 41.187136 
L 184.221102 41.619293 
L 185.702509 42.14243 
L 187.19284 42.733803 
L 188.683171 43.427528 
L 190.164577 44.098508 
L 191.654908 44.780861 
L 193.145239 45.474586 
L 194.626646 46.24792 
L 196.116977 47.043998 
L 197.607308 47.771841 
L 199.088714 48.511056 
L 200.579045 49.318507 
L 202.069376 50.171448 
L 203.550783 50.990271 
L 205.041114 51.87733 
L 206.531445 52.787134 
L 208.012852 53.731055 
L 209.503182 54.754584 
L 210.993513 55.800858 
L 212.47492 56.824388 
L 213.965251 57.825172 
L 215.455582 58.780466 
L 216.936989 59.769877 
L 218.42732 60.827524 
L 219.91765 61.964779 
L 221.399057 63.090661 
L 222.889388 64.20517 
L 224.379719 65.353797 
L 225.861126 66.468307 
L 227.351457 67.594189 
L 228.841788 68.742816 
L 230.323194 69.993796 
L 231.813525 71.244776 
L 233.303856 72.359286 
L 234.785263 73.439678 
L 236.275594 74.542815 
L 237.765925 75.680069 
L 239.247331 76.896932 
L 240.737662 78.18203 
L 242.227993 79.43301 
L 243.7094 80.672617 
" clip-path="url(#pa3158c64cd)" style="fill: none; stroke: #7bccc4; stroke-width: 0.8; stroke-linecap: square"/>
    </g>
    <g id="patch_11">
     <path d="M 85.9784 117.648 
L 85.9784 33.96 
" style="fill: none; stroke: #000000; stroke-width: 0.5; stroke-linejoin: miter; stroke-linecap: square"/>
    </g>
    <g id="patch_12">
     <path d="M 251.2204 117.648 
L 251.2204 33.96 
" style="fill: none; stroke: #000000; stroke-width: 0.5; stroke-linejoin: miter; stroke-linecap: square"/>
    </g>
    <g id="patch_13">
     <path d="M 85.9784 117.648 
L 251.2204 117.648 
" style="fill: none; stroke: #000000; stroke-width: 0.5; stroke-linejoin: miter; stroke-linecap: square"/>
    </g>
    <g id="patch_14">
     <path d="M 85.9784 33.96 
L 251.2204 33.96 
" style="fill: none; stroke: #000000; stroke-width: 0.5; stroke-linejoin: miter; stroke-linecap: square"/>
    </g>
   </g>
   <g id="legend_2">
    <g id="text_31">
     <!-- GPC Data -->
     <g transform="translate(359.347188 124.818375) scale(0.1 -0.1)">
      <defs>
       <path id="DejaVuSans-44" d="M 1259 4147 
L 1259 519 
L 2022 519 
Q 2988 519 3436 956 
Q 3884 1394 3884 2338 
Q 3884 3275 3436 3711 
Q 2988 4147 2022 4147 
L 1259 4147 
z
M 628 4666 
L 1925 4666 
Q 3281 4666 3915 4102 
Q 4550 3538 4550 2338 
Q 4550 1131 3912 565 
Q 3275 0 1925 0 
L 628 0 
L 628 4666 
z
" transform="scale(0.015625)"/>
      </defs>
      <use xlink:href="#DejaVuSans-47"/>
      <use xlink:href="#DejaVuSans-50" x="77.490234"/>
      <use xlink:href="#DejaVuSans-43" x="137.792969"/>
      <use xlink:href="#DejaVuSans-20" x="207.617188"/>
      <use xlink:href="#DejaVuSans-44" x="239.404297"/>
      <use xlink:href="#DejaVuSans-61" x="316.40625"/>
      <use xlink:href="#DejaVuSans-74" x="377.685547"/>
      <use xlink:href="#DejaVuSans-61" x="416.894531"/>
     </g>
    </g>
    <g id="line2d_36">
     <path d="M 307.675 134.176813 
L 315.675 134.176813 
L 323.675 134.176813 
" style="fill: none; stroke: #8286ff; stroke-width: 0.8; stroke-linecap: square"/>
    </g>
    <g id="text_32">
     <!-- Mn=5010, Mw=6352, Mp=8118 -->
     <g transform="translate(330.075 136.976813) scale(0.08 -0.08)">
      <defs>
       <path id="DejaVuSans-4d" d="M 628 4666 
L 1569 4666 
L 2759 1491 
L 3956 4666 
L 4897 4666 
L 4897 0 
L 4281 0 
L 4281 4097 
L 3078 897 
L 2444 897 
L 1241 4097 
L 1241 0 
L 628 0 
L 628 4666 
z
" transform="scale(0.015625)"/>
       <path id="DejaVuSans-3d" d="M 678 2906 
L 4684 2906 
L 4684 2381 
L 678 2381 
L 678 2906 
z
M 678 1631 
L 4684 1631 
L 4684 1100 
L 678 1100 
L 678 1631 
z
" transform="scale(0.015625)"/>
       <path id="DejaVuSans-2c" d="M 750 794 
L 1409 794 
L 1409 256 
L 897 -744 
L 494 -744 
L 750 256 
L 750 794 
z
" transform="scale(0.015625)"/>
       <path id="DejaVuSans-77" d="M 269 3500 
L 844 3500 
L 1563 769 
L 2278 3500 
L 2956 3500 
L 3675 769 
L 4391 3500 
L 4966 3500 
L 4050 0 
L 3372 0 
L 2619 2869 
L 1863 0 
L 1184 0 
L 269 3500 
z
" transform="scale(0.015625)"/>
      </defs>
      <use xlink:href="#DejaVuSans-4d"/>
      <use xlink:href="#DejaVuSans-6e" x="86.279297"/>
      <use xlink:href="#DejaVuSans-3d" x="149.658203"/>
      <use xlink:href="#DejaVuSans-35" x="233.447266"/>
      <use xlink:href="#DejaVuSans-30" x="297.070312"/>
      <use xlink:href="#DejaVuSans-31" x="360.693359"/>
      <use xlink:href="#DejaVuSans-30" x="424.316406"/>
      <use xlink:href="#DejaVuSans-2c" x="487.939453"/>
      <use xlink:href="#DejaVuSans-20" x="519.726562"/>
      <use xlink:href="#DejaVuSans-4d" x="551.513672"/>
      <use xlink:href="#DejaVuSans-77" x="637.792969"/>
      <use xlink:href="#DejaVuSans-3d" x="719.580078"/>
      <use xlink:href="#DejaVuSans-36" x="803.369141"/>
      <use xlink:href="#DejaVuSans-33" x="866.992188"/>
      <use xlink:href="#DejaVuSans-35" x="930.615234"/>
      <use xlink:href="#DejaVuSans-32" x="994.238281"/>
      <use xlink:href="#DejaVuSans-2c" x="1057.861328"/>
      <use xlink:href="#DejaVuSans-20" x="1089.648438"/>
      <use xlink:href="#DejaVuSans-4d" x="1121.435547"/>
      <use xlink:href="#DejaVuSans-70" x="1207.714844"/>
      <use xlink:href="#DejaVuSans-3d" x="1271.191406"/>
      <use xlink:href="#DejaVuSans-38" x="1354.980469"/>
      <use xlink:href="#DejaVuSans-31" x="1418.603516"/>
      <use xlink:href="#DejaVuSans-31" x="1482.226562"/>
      <use xlink:href="#DejaVuSans-38" x="1545.849609"/>
     </g>
    </g>
    <g id="line2d_37">
     <path d="M 307.675 145.919313 
L 315.675 145.919313 
L 323.675 145.919313 
" style="fill: none; stroke: #f5c92a; stroke-width: 0.8; stroke-linecap: square"/>
    </g>
    <g id="text_33">
     <!-- Mn=6335, Mw=7613, Mz=8291 -->
     <g transform="translate(330.075 148.719313) scale(0.08 -0.08)">
      <use xlink:href="#DejaVuSans-4d"/>
      <use xlink:href="#DejaVuSans-6e" x="86.279297"/>
      <use xlink:href="#DejaVuSans-3d" x="149.658203"/>
      <use xlink:href="#DejaVuSans-36" x="233.447266"/>
      <use xlink:href="#DejaVuSans-33" x="297.070312"/>
      <use xlink:href="#DejaVuSans-33" x="360.693359"/>
      <use xlink:href="#DejaVuSans-35" x="424.316406"/>
      <use xlink:href="#DejaVuSans-2c" x="487.939453"/>
      <use xlink:href="#DejaVuSans-20" x="519.726562"/>
      <use xlink:href="#DejaVuSans-4d" x="551.513672"/>
      <use xlink:href="#DejaVuSans-77" x="637.792969"/>
      <use xlink:href="#DejaVuSans-3d" x="719.580078"/>
      <use xlink:href="#DejaVuSans-37" x="803.369141"/>
      <use xlink:href="#DejaVuSans-36" x="866.992188"/>
      <use xlink:href="#DejaVuSans-31" x="930.615234"/>
      <use xlink:href="#DejaVuSans-33" x="994.238281"/>
      <use xlink:href="#DejaVuSans-2c" x="1057.861328"/>
      <use xlink:href="#DejaVuSans-20" x="1089.648438"/>
      <use xlink:href="#DejaVuSans-4d" x="1121.435547"/>
      <use xlink:href="#DejaVuSans-7a" x="1207.714844"/>
      <use xlink:href="#DejaVuSans-3d" x="1260.205078"/>
      <use xlink:href="#DejaVuSans-38" x="1343.994141"/>
      <use xlink:href="#DejaVuSans-32" x="1407.617188"/>
      <use xlink:href="#DejaVuSans-39" x="1471.240234"/>
      <use xlink:href="#DejaVuSans-31" x="1534.863281"/>
     </g>
    </g>
    <g id="line2d_38">
     <path d="M 307.675 157.661813 
L 315.675 157.661813 
L 323.675 157.661813 
" style="fill: none; stroke: #e0f3db; stroke-width: 0.8; stroke-linecap: square"/>
    </g>
    <g id="text_34">
     <!-- Mn=6977, Mw=8975, Mp=8493 -->
     <g transform="translate(330.075 160.461813) scale(0.08 -0.08)">
      <use xlink:href="#DejaVuSans-4d"/>
      <use xlink:href="#DejaVuSans-6e" x="86.279297"/>
      <use xlink:href="#DejaVuSans-3d" x="149.658203"/>
      <use xlink:href="#DejaVuSans-36" x="233.447266"/>
      <use xlink:href="#DejaVuSans-39" x="297.070312"/>
      <use xlink:href="#DejaVuSans-37" x="360.693359"/>
      <use xlink:href="#DejaVuSans-37" x="424.316406"/>
      <use xlink:href="#DejaVuSans-2c" x="487.939453"/>
      <use xlink:href="#DejaVuSans-20" x="519.726562"/>
      <use xlink:href="#DejaVuSans-4d" x="551.513672"/>
      <use xlink:href="#DejaVuSans-77" x="637.792969"/>
      <use xlink:href="#DejaVuSans-3d" x="719.580078"/>
      <use xlink:href="#DejaVuSans-38" x="803.369141"/>
      <use xlink:href="#DejaVuSans-39" x="866.992188"/>
      <use xlink:href="#DejaVuSans-37" x="930.615234"/>
      <use xlink:href="#DejaVuSans-35" x="994.238281"/>
      <use xlink:href="#DejaVuSans-2c" x="1057.861328"/>
      <use xlink:href="#DejaVuSans-20" x="1089.648438"/>
      <use xlink:href="#DejaVuSans-4d" x="1121.435547"/>
      <use xlink:href="#DejaVuSans-70" x="1207.714844"/>
      <use xlink:href="#DejaVuSans-3d" x="1271.191406"/>
      <use xlink:href="#DejaVuSans-38" x="1354.980469"/>
      <use xlink:href="#DejaVuSans-34" x="1418.603516"/>
      <use xlink:href="#DejaVuSans-39" x="1482.226562"/>
      <use xlink:href="#DejaVuSans-33" x="1545.849609"/>
     </g>
    </g>
    <g id="line2d_39">
     <path d="M 307.675 169.404313 
L 315.675 169.404313 
L 323.675 169.404313 
" style="fill: none; stroke: #7bccc4; stroke-width: 0.8; stroke-linecap: square"/>
    </g>
    <g id="text_35">
     <!-- Mn=6395, Mw=8320, Mp=8392 -->
     <g transform="translate(330.075 172.204313) scale(0.08 -0.08)">
      <use xlink:href="#DejaVuSans-4d"/>
      <use xlink:href="#DejaVuSans-6e" x="86.279297"/>
      <use xlink:href="#DejaVuSans-3d" x="149.658203"/>
      <use xlink:href="#DejaVuSans-36" x="233.447266"/>
      <use xlink:href="#DejaVuSans-33" x="297.070312"/>
      <use xlink:href="#DejaVuSans-39" x="360.693359"/>
      <use xlink:href="#DejaVuSans-35" x="424.316406"/>
      <use xlink:href="#DejaVuSans-2c" x="487.939453"/>
      <use xlink:href="#DejaVuSans-20" x="519.726562"/>
      <use xlink:href="#DejaVuSans-4d" x="551.513672"/>
      <use xlink:href="#DejaVuSans-77" x="637.792969"/>
      <use xlink:href="#DejaVuSans-3d" x="719.580078"/>
      <use xlink:href="#DejaVuSans-38" x="803.369141"/>
      <use xlink:href="#DejaVuSans-33" x="866.992188"/>
      <use xlink:href="#DejaVuSans-32" x="930.615234"/>
      <use xlink:href="#DejaVuSans-30" x="994.238281"/>
      <use xlink:href="#DejaVuSans-2c" x="1057.861328"/>
      <use xlink:href="#DejaVuSans-20" x="1089.648438"/>
      <use xlink:href="#DejaVuSans-4d" x="1121.435547"/>
      <use xlink:href="#DejaVuSans-70" x="1207.714844"/>
      <use xlink:href="#DejaVuSans-3d" x="1271.191406"/>
      <use xlink:href="#DejaVuSans-38" x="1354.980469"/>
      <use xlink:href="#DejaVuSans-33" x="1418.603516"/>
      <use xlink:href="#DejaVuSans-39" x="1482.226562"/>
      <use xlink:href="#DejaVuSans-32" x="1545.849609"/>
     </g>
    </g>
   </g>
  </g>
 </g>
 <defs>
  <clipPath id="pdf6e55942b">
   <rect x="52.93" y="33.96" width="413.105" height="278.96"/>
  </clipPath>
  <clipPath id="pa3158c64cd">
   <rect x="85.9784" y="33.96" width="165.242" height="83.688"/>
  </clipPath>
 </defs>
</svg>
