<?xml version="1.0" encoding="utf-8" standalone="no"?>
<!DOCTYPE svg PUBLIC "-//W3C//DTD SVG 1.1//EN"
  "http://www.w3.org/Graphics/SVG/1.1/DTD/svg11.dtd">
<svg xmlns:xlink="http://www.w3.org/1999/xlink" width="410.995781pt" height="309.333094pt" viewBox="0 0 410.995781 309.333094" xmlns="http://www.w3.org/2000/svg" version="1.1">
 <metadata>
  <rdf:RDF xmlns:dc="http://purl.org/dc/elements/1.1/" xmlns:cc="http://creativecommons.org/ns#" xmlns:rdf="http://www.w3.org/1999/02/22-rdf-syntax-ns#">
   <cc:Work>
    <dc:type rdf:resource="http://purl.org/dc/dcmitype/StillImage"/>
    <dc:date>2024-01-21T21:46:15.067254</dc:date>
    <dc:format>image/svg+xml</dc:format>
    <dc:creator>
     <cc:Agent>
      <dc:title>Matplotlib v3.7.1, https://matplotlib.org/</dc:title>
     </cc:Agent>
    </dc:creator>
   </cc:Work>
  </rdf:RDF>
 </metadata>
 <defs>
  <style type="text/css">*{stroke-linejoin: round; stroke-linecap: butt}</style>
 </defs>
 <g id="figure_1">
  <g id="patch_1">
   <path d="M 0 309.333094 
L 410.995781 309.333094 
L 410.995781 0 
L 0 0 
z
" style="fill: #ffffff"/>
  </g>
  <g id="axes_1">
   <g id="patch_2">
    <path d="M 40.964375 273.312 
L 398.084375 273.312 
L 398.084375 7.2 
L 40.964375 7.2 
z
" style="fill: #ffffff"/>
   </g>
   <g id="matplotlib.axis_1">
    <g id="xtick_1">
     <g id="line2d_1">
      <defs>
       <path id="mf373c77837" d="M 0 0 
L 0 -6 
" style="stroke: #262626; stroke-width: 1.25"/>
      </defs>
      <g>
       <use xlink:href="#mf373c77837" x="40.964375" y="273.312" style="fill: #262626; stroke: #262626; stroke-width: 1.25"/>
      </g>
     </g>
     <g id="text_1">
      <!-- 5 -->
      <g style="fill: #262626" transform="translate(37.905859 284.685594) scale(0.11 -0.11)">
       <defs>
        <path id="ArialMT-35" d="M 266 1200 
L 856 1250 
Q 922 819 1161 601 
Q 1400 384 1738 384 
Q 2144 384 2425 690 
Q 2706 997 2706 1503 
Q 2706 1984 2436 2262 
Q 2166 2541 1728 2541 
Q 1456 2541 1237 2417 
Q 1019 2294 894 2097 
L 366 2166 
L 809 4519 
L 3088 4519 
L 3088 3981 
L 1259 3981 
L 1013 2750 
Q 1425 3038 1878 3038 
Q 2478 3038 2890 2622 
Q 3303 2206 3303 1553 
Q 3303 931 2941 478 
Q 2500 -78 1738 -78 
Q 1113 -78 717 272 
Q 322 622 266 1200 
z
" transform="scale(0.015625)"/>
       </defs>
       <use xlink:href="#ArialMT-35"/>
      </g>
     </g>
    </g>
    <g id="xtick_2">
     <g id="line2d_2">
      <g>
       <use xlink:href="#mf373c77837" x="100.484375" y="273.312" style="fill: #262626; stroke: #262626; stroke-width: 1.25"/>
      </g>
     </g>
     <g id="text_2">
      <!-- 6 -->
      <g style="fill: #262626" transform="translate(97.425859 284.685594) scale(0.11 -0.11)">
       <defs>
        <path id="ArialMT-36" d="M 3184 3459 
L 2625 3416 
Q 2550 3747 2413 3897 
Q 2184 4138 1850 4138 
Q 1581 4138 1378 3988 
Q 1113 3794 959 3422 
Q 806 3050 800 2363 
Q 1003 2672 1297 2822 
Q 1591 2972 1913 2972 
Q 2475 2972 2870 2558 
Q 3266 2144 3266 1488 
Q 3266 1056 3080 686 
Q 2894 316 2569 119 
Q 2244 -78 1831 -78 
Q 1128 -78 684 439 
Q 241 956 241 2144 
Q 241 3472 731 4075 
Q 1159 4600 1884 4600 
Q 2425 4600 2770 4297 
Q 3116 3994 3184 3459 
z
M 888 1484 
Q 888 1194 1011 928 
Q 1134 663 1356 523 
Q 1578 384 1822 384 
Q 2178 384 2434 671 
Q 2691 959 2691 1453 
Q 2691 1928 2437 2201 
Q 2184 2475 1800 2475 
Q 1419 2475 1153 2201 
Q 888 1928 888 1484 
z
" transform="scale(0.015625)"/>
       </defs>
       <use xlink:href="#ArialMT-36"/>
      </g>
     </g>
    </g>
    <g id="xtick_3">
     <g id="line2d_3">
      <g>
       <use xlink:href="#mf373c77837" x="160.004375" y="273.312" style="fill: #262626; stroke: #262626; stroke-width: 1.25"/>
      </g>
     </g>
     <g id="text_3">
      <!-- 7 -->
      <g style="fill: #262626" transform="translate(156.945859 284.685594) scale(0.11 -0.11)">
       <defs>
        <path id="ArialMT-37" d="M 303 3981 
L 303 4522 
L 3269 4522 
L 3269 4084 
Q 2831 3619 2401 2847 
Q 1972 2075 1738 1259 
Q 1569 684 1522 0 
L 944 0 
Q 953 541 1156 1306 
Q 1359 2072 1739 2783 
Q 2119 3494 2547 3981 
L 303 3981 
z
" transform="scale(0.015625)"/>
       </defs>
       <use xlink:href="#ArialMT-37"/>
      </g>
     </g>
    </g>
    <g id="xtick_4">
     <g id="line2d_4">
      <g>
       <use xlink:href="#mf373c77837" x="219.524375" y="273.312" style="fill: #262626; stroke: #262626; stroke-width: 1.25"/>
      </g>
     </g>
     <g id="text_4">
      <!-- 8 -->
      <g style="fill: #262626" transform="translate(216.465859 284.685594) scale(0.11 -0.11)">
       <defs>
        <path id="ArialMT-38" d="M 1131 2484 
Q 781 2613 612 2850 
Q 444 3088 444 3419 
Q 444 3919 803 4259 
Q 1163 4600 1759 4600 
Q 2359 4600 2725 4251 
Q 3091 3903 3091 3403 
Q 3091 3084 2923 2848 
Q 2756 2613 2416 2484 
Q 2838 2347 3058 2040 
Q 3278 1734 3278 1309 
Q 3278 722 2862 322 
Q 2447 -78 1769 -78 
Q 1091 -78 675 323 
Q 259 725 259 1325 
Q 259 1772 486 2073 
Q 713 2375 1131 2484 
z
M 1019 3438 
Q 1019 3113 1228 2906 
Q 1438 2700 1772 2700 
Q 2097 2700 2305 2904 
Q 2513 3109 2513 3406 
Q 2513 3716 2298 3927 
Q 2084 4138 1766 4138 
Q 1444 4138 1231 3931 
Q 1019 3725 1019 3438 
z
M 838 1322 
Q 838 1081 952 856 
Q 1066 631 1291 507 
Q 1516 384 1775 384 
Q 2178 384 2440 643 
Q 2703 903 2703 1303 
Q 2703 1709 2433 1975 
Q 2163 2241 1756 2241 
Q 1359 2241 1098 1978 
Q 838 1716 838 1322 
z
" transform="scale(0.015625)"/>
       </defs>
       <use xlink:href="#ArialMT-38"/>
      </g>
     </g>
    </g>
    <g id="xtick_5">
     <g id="line2d_5">
      <g>
       <use xlink:href="#mf373c77837" x="279.044375" y="273.312" style="fill: #262626; stroke: #262626; stroke-width: 1.25"/>
      </g>
     </g>
     <g id="text_5">
      <!-- 9 -->
      <g style="fill: #262626" transform="translate(275.985859 284.685594) scale(0.11 -0.11)">
       <defs>
        <path id="ArialMT-39" d="M 350 1059 
L 891 1109 
Q 959 728 1153 556 
Q 1347 384 1650 384 
Q 1909 384 2104 503 
Q 2300 622 2425 820 
Q 2550 1019 2634 1356 
Q 2719 1694 2719 2044 
Q 2719 2081 2716 2156 
Q 2547 1888 2255 1720 
Q 1963 1553 1622 1553 
Q 1053 1553 659 1965 
Q 266 2378 266 3053 
Q 266 3750 677 4175 
Q 1088 4600 1706 4600 
Q 2153 4600 2523 4359 
Q 2894 4119 3086 3673 
Q 3278 3228 3278 2384 
Q 3278 1506 3087 986 
Q 2897 466 2520 194 
Q 2144 -78 1638 -78 
Q 1100 -78 759 220 
Q 419 519 350 1059 
z
M 2653 3081 
Q 2653 3566 2395 3850 
Q 2138 4134 1775 4134 
Q 1400 4134 1122 3828 
Q 844 3522 844 3034 
Q 844 2597 1108 2323 
Q 1372 2050 1759 2050 
Q 2150 2050 2401 2323 
Q 2653 2597 2653 3081 
z
" transform="scale(0.015625)"/>
       </defs>
       <use xlink:href="#ArialMT-39"/>
      </g>
     </g>
    </g>
    <g id="xtick_6">
     <g id="line2d_6">
      <g>
       <use xlink:href="#mf373c77837" x="338.564375" y="273.312" style="fill: #262626; stroke: #262626; stroke-width: 1.25"/>
      </g>
     </g>
     <g id="text_6">
      <!-- 10 -->
      <g style="fill: #262626" transform="translate(332.447344 284.685594) scale(0.11 -0.11)">
       <defs>
        <path id="ArialMT-31" d="M 2384 0 
L 1822 0 
L 1822 3584 
Q 1619 3391 1289 3197 
Q 959 3003 697 2906 
L 697 3450 
Q 1169 3672 1522 3987 
Q 1875 4303 2022 4600 
L 2384 4600 
L 2384 0 
z
" transform="scale(0.015625)"/>
        <path id="ArialMT-30" d="M 266 2259 
Q 266 3072 433 3567 
Q 600 4063 929 4331 
Q 1259 4600 1759 4600 
Q 2128 4600 2406 4451 
Q 2684 4303 2865 4023 
Q 3047 3744 3150 3342 
Q 3253 2941 3253 2259 
Q 3253 1453 3087 958 
Q 2922 463 2592 192 
Q 2263 -78 1759 -78 
Q 1097 -78 719 397 
Q 266 969 266 2259 
z
M 844 2259 
Q 844 1131 1108 757 
Q 1372 384 1759 384 
Q 2147 384 2411 759 
Q 2675 1134 2675 2259 
Q 2675 3391 2411 3762 
Q 2147 4134 1753 4134 
Q 1366 4134 1134 3806 
Q 844 3388 844 2259 
z
" transform="scale(0.015625)"/>
       </defs>
       <use xlink:href="#ArialMT-31"/>
       <use xlink:href="#ArialMT-30" x="55.615234"/>
      </g>
     </g>
    </g>
    <g id="xtick_7">
     <g id="line2d_7">
      <g>
       <use xlink:href="#mf373c77837" x="398.084375" y="273.312" style="fill: #262626; stroke: #262626; stroke-width: 1.25"/>
      </g>
     </g>
     <g id="text_7">
      <!-- 11 -->
      <g style="fill: #262626" transform="translate(392.372969 284.685594) scale(0.11 -0.11)">
       <use xlink:href="#ArialMT-31"/>
       <use xlink:href="#ArialMT-31" x="48.240234"/>
      </g>
     </g>
    </g>
    <g id="xtick_8">
     <g id="line2d_8">
      <defs>
       <path id="m28581bc117" d="M 0 0 
L 0 -4 
" style="stroke: #262626"/>
      </defs>
      <g>
       <use xlink:href="#m28581bc117" x="70.724375" y="273.312" style="fill: #262626; stroke: #262626"/>
      </g>
     </g>
    </g>
    <g id="xtick_9">
     <g id="line2d_9">
      <g>
       <use xlink:href="#m28581bc117" x="130.244375" y="273.312" style="fill: #262626; stroke: #262626"/>
      </g>
     </g>
    </g>
    <g id="xtick_10">
     <g id="line2d_10">
      <g>
       <use xlink:href="#m28581bc117" x="189.764375" y="273.312" style="fill: #262626; stroke: #262626"/>
      </g>
     </g>
    </g>
    <g id="xtick_11">
     <g id="line2d_11">
      <g>
       <use xlink:href="#m28581bc117" x="249.284375" y="273.312" style="fill: #262626; stroke: #262626"/>
      </g>
     </g>
    </g>
    <g id="xtick_12">
     <g id="line2d_12">
      <g>
       <use xlink:href="#m28581bc117" x="308.804375" y="273.312" style="fill: #262626; stroke: #262626"/>
      </g>
     </g>
    </g>
    <g id="xtick_13">
     <g id="line2d_13">
      <g>
       <use xlink:href="#m28581bc117" x="368.324375" y="273.312" style="fill: #262626; stroke: #262626"/>
      </g>
     </g>
    </g>
    <g id="text_8">
     <!-- Time (min) -->
     <g style="fill: #262626" transform="translate(191.087188 299.607469) scale(0.12 -0.12)">
      <defs>
       <path id="ArialMT-54" d="M 1659 0 
L 1659 4041 
L 150 4041 
L 150 4581 
L 3781 4581 
L 3781 4041 
L 2266 4041 
L 2266 0 
L 1659 0 
z
" transform="scale(0.015625)"/>
       <path id="ArialMT-69" d="M 425 3934 
L 425 4581 
L 988 4581 
L 988 3934 
L 425 3934 
z
M 425 0 
L 425 3319 
L 988 3319 
L 988 0 
L 425 0 
z
" transform="scale(0.015625)"/>
       <path id="ArialMT-6d" d="M 422 0 
L 422 3319 
L 925 3319 
L 925 2853 
Q 1081 3097 1340 3245 
Q 1600 3394 1931 3394 
Q 2300 3394 2536 3241 
Q 2772 3088 2869 2813 
Q 3263 3394 3894 3394 
Q 4388 3394 4653 3120 
Q 4919 2847 4919 2278 
L 4919 0 
L 4359 0 
L 4359 2091 
Q 4359 2428 4304 2576 
Q 4250 2725 4106 2815 
Q 3963 2906 3769 2906 
Q 3419 2906 3187 2673 
Q 2956 2441 2956 1928 
L 2956 0 
L 2394 0 
L 2394 2156 
Q 2394 2531 2256 2718 
Q 2119 2906 1806 2906 
Q 1569 2906 1367 2781 
Q 1166 2656 1075 2415 
Q 984 2175 984 1722 
L 984 0 
L 422 0 
z
" transform="scale(0.015625)"/>
       <path id="ArialMT-65" d="M 2694 1069 
L 3275 997 
Q 3138 488 2766 206 
Q 2394 -75 1816 -75 
Q 1088 -75 661 373 
Q 234 822 234 1631 
Q 234 2469 665 2931 
Q 1097 3394 1784 3394 
Q 2450 3394 2872 2941 
Q 3294 2488 3294 1666 
Q 3294 1616 3291 1516 
L 816 1516 
Q 847 969 1125 678 
Q 1403 388 1819 388 
Q 2128 388 2347 550 
Q 2566 713 2694 1069 
z
M 847 1978 
L 2700 1978 
Q 2663 2397 2488 2606 
Q 2219 2931 1791 2931 
Q 1403 2931 1139 2672 
Q 875 2413 847 1978 
z
" transform="scale(0.015625)"/>
       <path id="ArialMT-20" transform="scale(0.015625)"/>
       <path id="ArialMT-28" d="M 1497 -1347 
Q 1031 -759 709 28 
Q 388 816 388 1659 
Q 388 2403 628 3084 
Q 909 3875 1497 4659 
L 1900 4659 
Q 1522 4009 1400 3731 
Q 1209 3300 1100 2831 
Q 966 2247 966 1656 
Q 966 153 1900 -1347 
L 1497 -1347 
z
" transform="scale(0.015625)"/>
       <path id="ArialMT-6e" d="M 422 0 
L 422 3319 
L 928 3319 
L 928 2847 
Q 1294 3394 1984 3394 
Q 2284 3394 2536 3286 
Q 2788 3178 2913 3003 
Q 3038 2828 3088 2588 
Q 3119 2431 3119 2041 
L 3119 0 
L 2556 0 
L 2556 2019 
Q 2556 2363 2490 2533 
Q 2425 2703 2258 2804 
Q 2091 2906 1866 2906 
Q 1506 2906 1245 2678 
Q 984 2450 984 1813 
L 984 0 
L 422 0 
z
" transform="scale(0.015625)"/>
       <path id="ArialMT-29" d="M 791 -1347 
L 388 -1347 
Q 1322 153 1322 1656 
Q 1322 2244 1188 2822 
Q 1081 3291 891 3722 
Q 769 4003 388 4659 
L 791 4659 
Q 1378 3875 1659 3084 
Q 1900 2403 1900 1659 
Q 1900 816 1576 28 
Q 1253 -759 791 -1347 
z
" transform="scale(0.015625)"/>
      </defs>
      <use xlink:href="#ArialMT-54"/>
      <use xlink:href="#ArialMT-69" x="57.333984"/>
      <use xlink:href="#ArialMT-6d" x="79.550781"/>
      <use xlink:href="#ArialMT-65" x="162.851562"/>
      <use xlink:href="#ArialMT-20" x="218.466797"/>
      <use xlink:href="#ArialMT-28" x="246.25"/>
      <use xlink:href="#ArialMT-6d" x="279.550781"/>
      <use xlink:href="#ArialMT-69" x="362.851562"/>
      <use xlink:href="#ArialMT-6e" x="385.068359"/>
      <use xlink:href="#ArialMT-29" x="440.683594"/>
     </g>
    </g>
   </g>
   <g id="matplotlib.axis_2">
    <g id="ytick_1">
     <g id="line2d_14">
      <defs>
       <path id="m8c8f6226a7" d="M 0 0 
L 6 0 
" style="stroke: #262626; stroke-width: 1.25"/>
      </defs>
      <g>
       <use xlink:href="#m8c8f6226a7" x="40.964375" y="251.136" style="fill: #262626; stroke: #262626; stroke-width: 1.25"/>
      </g>
     </g>
     <g id="text_9">
      <!-- 0.0 -->
      <g style="fill: #262626" transform="translate(22.174375 255.072797) scale(0.11 -0.11)">
       <defs>
        <path id="ArialMT-2e" d="M 581 0 
L 581 641 
L 1222 641 
L 1222 0 
L 581 0 
z
" transform="scale(0.015625)"/>
       </defs>
       <use xlink:href="#ArialMT-30"/>
       <use xlink:href="#ArialMT-2e" x="55.615234"/>
       <use xlink:href="#ArialMT-30" x="83.398438"/>
      </g>
     </g>
    </g>
    <g id="ytick_2">
     <g id="line2d_15">
      <g>
       <use xlink:href="#m8c8f6226a7" x="40.964375" y="206.784" style="fill: #262626; stroke: #262626; stroke-width: 1.25"/>
      </g>
     </g>
     <g id="text_10">
      <!-- 0.2 -->
      <g style="fill: #262626" transform="translate(22.174375 210.720797) scale(0.11 -0.11)">
       <defs>
        <path id="ArialMT-32" d="M 3222 541 
L 3222 0 
L 194 0 
Q 188 203 259 391 
Q 375 700 629 1000 
Q 884 1300 1366 1694 
Q 2113 2306 2375 2664 
Q 2638 3022 2638 3341 
Q 2638 3675 2398 3904 
Q 2159 4134 1775 4134 
Q 1369 4134 1125 3890 
Q 881 3647 878 3216 
L 300 3275 
Q 359 3922 746 4261 
Q 1134 4600 1788 4600 
Q 2447 4600 2831 4234 
Q 3216 3869 3216 3328 
Q 3216 3053 3103 2787 
Q 2991 2522 2730 2228 
Q 2469 1934 1863 1422 
Q 1356 997 1212 845 
Q 1069 694 975 541 
L 3222 541 
z
" transform="scale(0.015625)"/>
       </defs>
       <use xlink:href="#ArialMT-30"/>
       <use xlink:href="#ArialMT-2e" x="55.615234"/>
       <use xlink:href="#ArialMT-32" x="83.398438"/>
      </g>
     </g>
    </g>
    <g id="ytick_3">
     <g id="line2d_16">
      <g>
       <use xlink:href="#m8c8f6226a7" x="40.964375" y="162.432" style="fill: #262626; stroke: #262626; stroke-width: 1.25"/>
      </g>
     </g>
     <g id="text_11">
      <!-- 0.4 -->
      <g style="fill: #262626" transform="translate(22.174375 166.368797) scale(0.11 -0.11)">
       <defs>
        <path id="ArialMT-34" d="M 2069 0 
L 2069 1097 
L 81 1097 
L 81 1613 
L 2172 4581 
L 2631 4581 
L 2631 1613 
L 3250 1613 
L 3250 1097 
L 2631 1097 
L 2631 0 
L 2069 0 
z
M 2069 1613 
L 2069 3678 
L 634 1613 
L 2069 1613 
z
" transform="scale(0.015625)"/>
       </defs>
       <use xlink:href="#ArialMT-30"/>
       <use xlink:href="#ArialMT-2e" x="55.615234"/>
       <use xlink:href="#ArialMT-34" x="83.398438"/>
      </g>
     </g>
    </g>
    <g id="ytick_4">
     <g id="line2d_17">
      <g>
       <use xlink:href="#m8c8f6226a7" x="40.964375" y="118.08" style="fill: #262626; stroke: #262626; stroke-width: 1.25"/>
      </g>
     </g>
     <g id="text_12">
      <!-- 0.6 -->
      <g style="fill: #262626" transform="translate(22.174375 122.016797) scale(0.11 -0.11)">
       <use xlink:href="#ArialMT-30"/>
       <use xlink:href="#ArialMT-2e" x="55.615234"/>
       <use xlink:href="#ArialMT-36" x="83.398438"/>
      </g>
     </g>
    </g>
    <g id="ytick_5">
     <g id="line2d_18">
      <g>
       <use xlink:href="#m8c8f6226a7" x="40.964375" y="73.728" style="fill: #262626; stroke: #262626; stroke-width: 1.25"/>
      </g>
     </g>
     <g id="text_13">
      <!-- 0.8 -->
      <g style="fill: #262626" transform="translate(22.174375 77.664797) scale(0.11 -0.11)">
       <use xlink:href="#ArialMT-30"/>
       <use xlink:href="#ArialMT-2e" x="55.615234"/>
       <use xlink:href="#ArialMT-38" x="83.398438"/>
      </g>
     </g>
    </g>
    <g id="ytick_6">
     <g id="line2d_19">
      <g>
       <use xlink:href="#m8c8f6226a7" x="40.964375" y="29.376" style="fill: #262626; stroke: #262626; stroke-width: 1.25"/>
      </g>
     </g>
     <g id="text_14">
      <!-- 1.0 -->
      <g style="fill: #262626" transform="translate(22.174375 33.312797) scale(0.11 -0.11)">
       <use xlink:href="#ArialMT-31"/>
       <use xlink:href="#ArialMT-2e" x="55.615234"/>
       <use xlink:href="#ArialMT-30" x="83.398438"/>
      </g>
     </g>
    </g>
    <g id="ytick_7">
     <g id="line2d_20">
      <defs>
       <path id="mcd20fb61ae" d="M 0 0 
L 4 0 
" style="stroke: #262626"/>
      </defs>
      <g>
       <use xlink:href="#mcd20fb61ae" x="40.964375" y="228.96" style="fill: #262626; stroke: #262626"/>
      </g>
     </g>
    </g>
    <g id="ytick_8">
     <g id="line2d_21">
      <g>
       <use xlink:href="#mcd20fb61ae" x="40.964375" y="184.608" style="fill: #262626; stroke: #262626"/>
      </g>
     </g>
    </g>
    <g id="ytick_9">
     <g id="line2d_22">
      <g>
       <use xlink:href="#mcd20fb61ae" x="40.964375" y="140.256" style="fill: #262626; stroke: #262626"/>
      </g>
     </g>
    </g>
    <g id="ytick_10">
     <g id="line2d_23">
      <g>
       <use xlink:href="#mcd20fb61ae" x="40.964375" y="95.904" style="fill: #262626; stroke: #262626"/>
      </g>
     </g>
    </g>
    <g id="ytick_11">
     <g id="line2d_24">
      <g>
       <use xlink:href="#mcd20fb61ae" x="40.964375" y="51.552" style="fill: #262626; stroke: #262626"/>
      </g>
     </g>
    </g>
    <g id="text_15">
     <!-- Refractive Index -->
     <g style="fill: #262626" transform="translate(15.789375 183.606937) rotate(-90) scale(0.12 -0.12)">
      <defs>
       <path id="ArialMT-52" d="M 503 0 
L 503 4581 
L 2534 4581 
Q 3147 4581 3465 4457 
Q 3784 4334 3975 4021 
Q 4166 3709 4166 3331 
Q 4166 2844 3850 2509 
Q 3534 2175 2875 2084 
Q 3116 1969 3241 1856 
Q 3506 1613 3744 1247 
L 4541 0 
L 3778 0 
L 3172 953 
Q 2906 1366 2734 1584 
Q 2563 1803 2427 1890 
Q 2291 1978 2150 2013 
Q 2047 2034 1813 2034 
L 1109 2034 
L 1109 0 
L 503 0 
z
M 1109 2559 
L 2413 2559 
Q 2828 2559 3062 2645 
Q 3297 2731 3419 2920 
Q 3541 3109 3541 3331 
Q 3541 3656 3305 3865 
Q 3069 4075 2559 4075 
L 1109 4075 
L 1109 2559 
z
" transform="scale(0.015625)"/>
       <path id="ArialMT-66" d="M 556 0 
L 556 2881 
L 59 2881 
L 59 3319 
L 556 3319 
L 556 3672 
Q 556 4006 616 4169 
Q 697 4388 901 4523 
Q 1106 4659 1475 4659 
Q 1713 4659 2000 4603 
L 1916 4113 
Q 1741 4144 1584 4144 
Q 1328 4144 1222 4034 
Q 1116 3925 1116 3625 
L 1116 3319 
L 1763 3319 
L 1763 2881 
L 1116 2881 
L 1116 0 
L 556 0 
z
" transform="scale(0.015625)"/>
       <path id="ArialMT-72" d="M 416 0 
L 416 3319 
L 922 3319 
L 922 2816 
Q 1116 3169 1280 3281 
Q 1444 3394 1641 3394 
Q 1925 3394 2219 3213 
L 2025 2691 
Q 1819 2813 1613 2813 
Q 1428 2813 1281 2702 
Q 1134 2591 1072 2394 
Q 978 2094 978 1738 
L 978 0 
L 416 0 
z
" transform="scale(0.015625)"/>
       <path id="ArialMT-61" d="M 2588 409 
Q 2275 144 1986 34 
Q 1697 -75 1366 -75 
Q 819 -75 525 192 
Q 231 459 231 875 
Q 231 1119 342 1320 
Q 453 1522 633 1644 
Q 813 1766 1038 1828 
Q 1203 1872 1538 1913 
Q 2219 1994 2541 2106 
Q 2544 2222 2544 2253 
Q 2544 2597 2384 2738 
Q 2169 2928 1744 2928 
Q 1347 2928 1158 2789 
Q 969 2650 878 2297 
L 328 2372 
Q 403 2725 575 2942 
Q 747 3159 1072 3276 
Q 1397 3394 1825 3394 
Q 2250 3394 2515 3294 
Q 2781 3194 2906 3042 
Q 3031 2891 3081 2659 
Q 3109 2516 3109 2141 
L 3109 1391 
Q 3109 606 3145 398 
Q 3181 191 3288 0 
L 2700 0 
Q 2613 175 2588 409 
z
M 2541 1666 
Q 2234 1541 1622 1453 
Q 1275 1403 1131 1340 
Q 988 1278 909 1158 
Q 831 1038 831 891 
Q 831 666 1001 516 
Q 1172 366 1500 366 
Q 1825 366 2078 508 
Q 2331 650 2450 897 
Q 2541 1088 2541 1459 
L 2541 1666 
z
" transform="scale(0.015625)"/>
       <path id="ArialMT-63" d="M 2588 1216 
L 3141 1144 
Q 3050 572 2676 248 
Q 2303 -75 1759 -75 
Q 1078 -75 664 370 
Q 250 816 250 1647 
Q 250 2184 428 2587 
Q 606 2991 970 3192 
Q 1334 3394 1763 3394 
Q 2303 3394 2647 3120 
Q 2991 2847 3088 2344 
L 2541 2259 
Q 2463 2594 2264 2762 
Q 2066 2931 1784 2931 
Q 1359 2931 1093 2626 
Q 828 2322 828 1663 
Q 828 994 1084 691 
Q 1341 388 1753 388 
Q 2084 388 2306 591 
Q 2528 794 2588 1216 
z
" transform="scale(0.015625)"/>
       <path id="ArialMT-74" d="M 1650 503 
L 1731 6 
Q 1494 -44 1306 -44 
Q 1000 -44 831 53 
Q 663 150 594 308 
Q 525 466 525 972 
L 525 2881 
L 113 2881 
L 113 3319 
L 525 3319 
L 525 4141 
L 1084 4478 
L 1084 3319 
L 1650 3319 
L 1650 2881 
L 1084 2881 
L 1084 941 
Q 1084 700 1114 631 
Q 1144 563 1211 522 
Q 1278 481 1403 481 
Q 1497 481 1650 503 
z
" transform="scale(0.015625)"/>
       <path id="ArialMT-76" d="M 1344 0 
L 81 3319 
L 675 3319 
L 1388 1331 
Q 1503 1009 1600 663 
Q 1675 925 1809 1294 
L 2547 3319 
L 3125 3319 
L 1869 0 
L 1344 0 
z
" transform="scale(0.015625)"/>
       <path id="ArialMT-49" d="M 597 0 
L 597 4581 
L 1203 4581 
L 1203 0 
L 597 0 
z
" transform="scale(0.015625)"/>
       <path id="ArialMT-64" d="M 2575 0 
L 2575 419 
Q 2259 -75 1647 -75 
Q 1250 -75 917 144 
Q 584 363 401 755 
Q 219 1147 219 1656 
Q 219 2153 384 2558 
Q 550 2963 881 3178 
Q 1213 3394 1622 3394 
Q 1922 3394 2156 3267 
Q 2391 3141 2538 2938 
L 2538 4581 
L 3097 4581 
L 3097 0 
L 2575 0 
z
M 797 1656 
Q 797 1019 1065 703 
Q 1334 388 1700 388 
Q 2069 388 2326 689 
Q 2584 991 2584 1609 
Q 2584 2291 2321 2609 
Q 2059 2928 1675 2928 
Q 1300 2928 1048 2622 
Q 797 2316 797 1656 
z
" transform="scale(0.015625)"/>
       <path id="ArialMT-78" d="M 47 0 
L 1259 1725 
L 138 3319 
L 841 3319 
L 1350 2541 
Q 1494 2319 1581 2169 
Q 1719 2375 1834 2534 
L 2394 3319 
L 3066 3319 
L 1919 1756 
L 3153 0 
L 2463 0 
L 1781 1031 
L 1600 1309 
L 728 0 
L 47 0 
z
" transform="scale(0.015625)"/>
      </defs>
      <use xlink:href="#ArialMT-52"/>
      <use xlink:href="#ArialMT-65" x="72.216797"/>
      <use xlink:href="#ArialMT-66" x="127.832031"/>
      <use xlink:href="#ArialMT-72" x="155.615234"/>
      <use xlink:href="#ArialMT-61" x="188.916016"/>
      <use xlink:href="#ArialMT-63" x="244.53125"/>
      <use xlink:href="#ArialMT-74" x="294.53125"/>
      <use xlink:href="#ArialMT-69" x="322.314453"/>
      <use xlink:href="#ArialMT-76" x="344.53125"/>
      <use xlink:href="#ArialMT-65" x="394.53125"/>
      <use xlink:href="#ArialMT-20" x="450.146484"/>
      <use xlink:href="#ArialMT-49" x="477.929688"/>
      <use xlink:href="#ArialMT-6e" x="505.712891"/>
      <use xlink:href="#ArialMT-64" x="561.328125"/>
      <use xlink:href="#ArialMT-65" x="616.943359"/>
      <use xlink:href="#ArialMT-78" x="672.558594"/>
     </g>
    </g>
   </g>
   <g id="PolyCollection_1"/>
   <g id="PolyCollection_2"/>
   <g id="line2d_25">
    <path d="M 40.864977 251.306344 
L 41.559575 250.975119 
L 42.352977 250.994046 
L 42.749975 250.681748 
L 43.047575 250.823702 
L 43.840977 250.50194 
L 44.039773 250.36945 
L 44.634973 250.397841 
L 44.932573 250.274814 
L 45.130775 250.255887 
L 45.328977 250.151788 
L 45.924177 250.23696 
L 46.519377 249.981444 
L 47.412177 249.886808 
L 47.709777 249.744854 
L 48.701975 249.782708 
L 48.999575 249.593437 
L 49.792977 249.725927 
L 50.090577 249.669146 
L 50.388177 249.555583 
L 50.884573 249.782708 
L 51.677975 249.602901 
L 52.173777 249.801636 
L 52.670173 249.650218 
L 53.364177 249.820563 
L 53.661777 249.896271 
L 54.158173 249.688073 
L 54.455773 249.858417 
L 54.753373 249.820563 
L 54.951575 249.858417 
L 55.348573 249.555583 
L 56.042577 249.782708 
L 56.737175 249.669146 
L 57.232977 249.867881 
L 57.828177 249.688073 
L 58.125777 249.697536 
L 58.522775 249.792172 
L 59.117975 249.631291 
L 59.415575 249.820563 
L 60.208977 249.801636 
L 60.407773 249.763781 
L 60.705373 249.915199 
L 61.101777 249.858417 
L 61.300573 249.848954 
L 61.796375 249.716463 
L 62.093975 249.915199 
L 62.788573 249.773245 
L 62.986775 249.716463 
L 63.482577 249.934126 
L 64.375377 249.848954 
L 64.871773 249.97198 
L 65.466973 249.792172 
L 65.764573 249.915199 
L 66.062173 249.877344 
L 66.359773 249.943589 
L 66.756177 249.801636 
L 67.053777 249.934126 
L 68.145373 249.725927 
L 68.442973 249.896271 
L 70.922577 249.763781 
L 71.319575 249.830026 
L 71.716573 249.678609 
L 72.014173 249.820563 
L 72.708177 249.820563 
L 73.005777 249.631291 
L 73.502173 249.858417 
L 73.799773 249.820563 
L 73.997975 249.820563 
L 74.295575 249.631291 
L 74.791377 249.962516 
L 75.585373 249.716463 
L 76.478173 249.867881 
L 76.775773 249.820563 
L 77.569175 249.924662 
L 77.966173 249.650218 
L 78.164375 249.763781 
L 78.759575 249.915199 
L 79.156573 249.792172 
L 79.354775 249.650218 
L 79.751773 249.858417 
L 80.247575 249.811099 
L 80.445777 249.773245 
L 80.644573 249.659682 
L 81.140375 249.896271 
L 81.537373 249.763781 
L 82.528977 249.848954 
L 83.223575 249.735391 
L 83.918173 249.820563 
L 84.413975 249.602901 
L 84.711575 249.848954 
L 85.703773 249.583973 
L 86.001373 249.867881 
L 86.199575 249.848954 
L 86.497175 249.763781 
L 86.794775 249.669146 
L 86.992977 249.536655 
L 87.489373 249.782708 
L 87.786973 249.697536 
L 88.084573 249.735391 
L 88.382173 249.754318 
L 88.877975 249.782708 
L 89.076177 249.583973 
L 89.968977 249.763781 
L 90.266577 249.792172 
L 90.663575 249.555583 
L 90.961175 249.773245 
L 92.052177 249.697536 
L 92.449175 249.867881 
L 93.441373 249.669146 
L 93.837777 249.886808 
L 94.432977 249.621828 
L 94.829975 249.697536 
L 95.226973 249.801636 
L 95.722775 249.631291 
L 96.119773 249.735391 
L 96.317975 249.725927 
L 96.615575 249.716463 
L 97.012573 249.612364 
L 97.408977 249.811099 
L 98.401175 249.640755 
L 98.698775 249.858417 
L 98.896977 249.754318 
L 99.095773 249.659682 
L 101.377175 249.763781 
L 101.575377 249.754318 
L 101.972375 249.546119 
L 102.468177 249.725927 
L 103.162775 249.621828 
L 103.360977 249.678609 
L 103.658577 249.801636 
L 104.055575 249.744854 
L 104.452573 249.650218 
L 104.650775 249.659682 
L 105.146577 249.886808 
L 105.543575 249.725927 
L 106.138775 249.735391 
L 106.436375 249.811099 
L 107.130973 249.725927 
L 107.626775 249.867881 
L 107.924375 249.820563 
L 108.321373 249.602901 
L 108.817175 249.725927 
L 109.412375 249.725927 
L 109.610577 249.650218 
L 110.106973 249.924662 
L 110.800977 249.763781 
L 111.098577 249.744854 
L 111.396177 249.915199 
L 111.793175 249.763781 
L 112.090775 249.763781 
L 112.388375 249.792172 
L 112.785373 249.924662 
L 113.281175 249.678609 
L 113.578775 249.725927 
L 114.173975 249.782708 
L 114.769175 249.735391 
L 114.967377 249.886808 
L 115.959575 249.621828 
L 116.356573 249.877344 
L 117.447575 249.744854 
L 117.745175 249.867881 
L 118.538577 249.669146 
L 118.935575 249.811099 
L 119.133777 249.801636 
L 119.630173 249.555583 
L 120.026577 249.744854 
L 120.820573 249.593437 
L 121.018775 249.555583 
L 121.216977 249.735391 
L 122.308573 249.508265 
L 122.606173 249.707 
L 123.597777 249.498801 
L 124.094173 249.707 
L 124.986973 249.546119 
L 125.383377 249.621828 
L 126.077975 249.271675 
L 126.276177 249.356848 
L 126.573777 249.328457 
L 126.772573 249.404165 
L 127.268375 249.120258 
L 127.665373 249.413629 
L 128.359377 249.186503 
L 128.558173 249.054013 
L 129.053975 249.243285 
L 130.046173 249.006695 
L 130.343773 249.120258 
L 130.541975 249.035086 
L 130.839575 248.80796 
L 131.930577 248.599761 
L 132.426973 248.438881 
L 132.625175 248.514589 
L 133.617373 248.079265 
L 133.914973 248.211755 
L 134.212573 248.04141 
L 134.906577 247.64394 
L 135.303575 247.691258 
L 136.493975 247.00988 
L 136.791575 246.886854 
L 137.188573 246.460993 
L 137.684375 246.21494 
L 138.279575 245.874251 
L 138.676573 245.382145 
L 138.874775 245.457854 
L 139.965777 244.312761 
L 140.263377 244.274907 
L 141.950173 242.372728 
L 142.545373 241.549396 
L 143.041175 240.981582 
L 143.735773 239.817562 
L 143.933975 239.590436 
L 146.017175 235.672515 
L 146.414173 234.83972 
L 146.711773 234.300297 
L 149.488977 227.089051 
L 150.282973 224.562276 
L 151.969175 218.552904 
L 153.655377 211.53093 
L 157.325975 193.209445 
L 161.690577 165.992198 
L 164.765975 144.150262 
L 168.436573 116.800524 
L 170.222173 103.277073 
L 172.007773 90.586416 
L 173.991575 77.034574 
L 177.364573 57.132671 
L 179.447773 47.072889 
L 181.233373 40.164478 
L 181.729175 38.593524 
L 182.126173 37.344332 
L 182.919575 35.016292 
L 183.415377 34.013153 
L 183.812375 33.095186 
L 184.506973 31.997411 
L 184.804573 31.505305 
L 185.200977 30.805 
L 185.597975 30.464311 
L 186.688977 29.546344 
L 186.986577 29.536881 
L 187.284177 29.489563 
L 187.482973 29.489563 
L 187.879377 29.394927 
L 188.176977 29.716689 
L 188.772177 29.915424 
L 189.268573 30.265576 
L 189.863773 31.032126 
L 190.458973 31.855457 
L 191.549975 33.7671 
L 193.137373 37.959464 
L 195.021777 43.855273 
L 197.898973 55.476545 
L 198.692375 59.290367 
L 199.882775 65.09154 
L 206.132375 99.576814 
L 211.687377 131.76244 
L 213.076573 139.437401 
L 214.266973 146.005123 
L 219.226775 171.140384 
L 223.690775 190.625889 
L 224.682973 194.581664 
L 225.278173 196.90024 
L 226.864977 202.682486 
L 229.146973 210.395301 
L 229.543377 211.53093 
L 229.940375 212.912612 
L 230.932573 215.713831 
L 231.328977 216.991414 
L 232.221777 219.291063 
L 234.007377 223.93768 
L 234.602577 225.281508 
L 234.999575 226.303574 
L 235.991773 228.395024 
L 236.586973 229.596899 
L 237.876177 232.123674 
L 238.372573 232.928078 
L 239.066577 234.139416 
L 239.364177 234.461177 
L 240.455773 236.287648 
L 240.753373 236.476919 
L 241.844375 238.104654 
L 242.241373 238.539979 
L 242.637777 239.145648 
L 243.034775 239.524191 
L 245.117975 241.738668 
L 245.415575 241.946867 
L 245.713175 242.107748 
L 246.804177 242.921615 
L 247.201175 243.148741 
L 247.598173 243.612456 
L 247.895773 243.801728 
L 248.093975 243.905827 
L 248.391575 243.915291 
L 248.986775 244.54935 
L 249.780177 244.937357 
L 250.276573 245.344291 
L 250.574173 245.353754 
L 251.069975 245.647125 
L 251.665175 245.987814 
L 252.160977 245.978351 
L 252.756177 246.498847 
L 253.053777 246.621874 
L 253.550173 246.669192 
L 253.748375 246.867927 
L 255.831575 247.407351 
L 256.029777 247.37896 
L 256.526173 247.691258 
L 257.121373 247.77643 
L 257.716573 248.060337 
L 257.914775 248.126583 
L 258.410577 248.003556 
L 258.906973 248.30639 
L 259.204573 248.363172 
L 259.502173 248.401026 
L 259.799773 248.325318 
L 260.097373 248.599761 
L 261.188375 248.590298 
L 261.485975 248.845814 
L 261.981777 248.732251 
L 262.576977 248.864742 
L 262.874577 248.997232 
L 263.469777 248.836351 
L 264.362577 249.054013 
L 264.759575 248.902596 
L 265.354775 249.167576 
L 265.652375 249.167576 
L 266.148177 248.968841 
L 266.445777 249.20543 
L 267.140375 249.233821 
L 267.338577 249.148649 
L 267.834973 249.423093 
L 268.330775 249.214894 
L 268.826577 249.30953 
L 269.223575 249.498801 
L 269.918173 249.252748 
L 270.711575 249.328457 
L 271.009175 249.139185 
L 271.207377 249.243285 
L 271.406173 249.385238 
L 272.397777 249.224357 
L 272.894173 249.44202 
L 273.687575 249.271675 
L 274.183377 249.47041 
L 274.778577 249.375775 
L 274.977373 249.347384 
L 275.572573 249.47041 
L 276.663575 249.33792 
L 277.060573 249.385238 
L 277.456977 249.20543 
L 277.754577 249.328457 
L 278.349777 249.375775 
L 278.746775 249.252748 
L 279.143773 249.44202 
L 279.540177 249.224357 
L 279.837777 249.120258 
L 280.036573 249.101331 
L 280.532375 249.290602 
L 281.325777 249.167576 
L 282.913175 249.271675 
L 283.408977 249.252748 
L 283.706577 249.091867 
L 284.301777 249.262212 
L 285.293975 249.318993 
L 285.492177 249.394702 
L 286.186775 249.148649 
L 287.079575 249.252748 
L 287.575377 249.224357 
L 287.872977 249.347384 
L 288.369373 249.347384 
L 288.765777 249.158112 
L 289.063377 249.281139 
L 289.559773 249.243285 
L 289.757975 249.195967 
L 290.055575 249.044549 
L 290.452573 249.243285 
L 291.444177 249.016159 
L 291.841175 249.20543 
L 292.634577 249.006695 
L 293.031575 249.063477 
L 293.329175 249.016159 
L 293.824977 248.80796 
L 294.122577 248.836351 
L 294.817175 248.656543 
L 295.114775 248.505126 
L 295.312977 248.599761 
L 296.503377 247.984629 
L 296.702173 248.003556 
L 297.297373 247.681794 
L 298.388375 247.170761 
L 298.884177 246.87739 
L 299.281175 246.792218 
L 299.578775 246.574556 
L 300.173975 246.006741 
L 300.669777 245.751225 
L 301.562577 245.249655 
L 301.761373 245.164483 
L 302.752977 244.218125 
L 303.050577 244.15188 
L 304.142173 243.536748 
L 304.439773 243.546211 
L 305.133777 243.177132 
L 305.530775 243.196059 
L 305.828375 243.233913 
L 306.423575 243.167668 
L 306.820573 243.451575 
L 307.514577 243.546211 
L 307.713373 243.593529 
L 308.109777 244.01939 
L 308.407377 244.123489 
L 308.804375 244.322225 
L 309.002577 244.454715 
L 309.597777 244.927893 
L 309.994775 245.136092 
L 311.085777 245.732298 
L 311.383377 245.864788 
L 312.276177 246.489384 
L 312.673175 246.536702 
L 313.070173 246.820609 
L 313.863575 246.886854 
L 313.962973 246.867927 
L 314.458775 247.24647 
L 315.549777 247.331642 
L 315.847377 247.426278 
L 316.244375 247.331642 
L 316.641373 247.388424 
L 316.839575 247.435741 
L 317.137175 247.568231 
L 317.632977 247.369496 
L 318.129373 247.407351 
L 318.625175 247.530377 
L 319.022173 247.274861 
L 319.418577 247.520914 
L 319.716177 247.492523 
L 320.013777 247.501986 
L 320.311377 247.303251 
L 320.708375 247.558768 
L 321.204177 247.397887 
L 321.402973 247.416814 
L 321.700573 247.416814 
L 322.295773 247.568231 
L 322.593373 247.501986 
L 323.188573 247.596622 
L 323.486173 247.662867 
L 323.882577 247.492523 
L 324.775377 247.653404 
L 324.974173 247.596622 
L 325.271773 247.397887 
L 325.469975 247.492523 
L 325.767575 247.539841 
L 326.263377 247.407351 
L 326.660375 247.142371 
L 327.057373 247.180225 
L 327.453777 246.830072 
L 327.751377 246.621874 
L 328.048977 246.394748 
L 328.445975 246.281185 
L 329.536977 245.088774 
L 329.933975 244.710231 
L 330.429777 244.028854 
L 330.628573 243.915291 
L 331.322577 243.054105 
L 331.719575 242.514681 
L 332.017175 242.334873 
L 333.902173 240.489476 
L 334.100375 240.385377 
L 334.397975 240.167714 
L 334.893777 240.054151 
L 335.488977 239.571509 
L 336.282973 239.315992 
L 336.679377 239.022621 
L 337.671575 238.83335 
L 338.068573 238.606224 
L 338.366173 238.748178 
L 339.357777 238.502125 
L 339.655377 238.691396 
L 340.449373 238.577833 
L 340.746973 238.644078 
L 341.342173 238.871204 
L 341.837975 238.994231 
L 342.532573 239.476873 
L 342.928977 239.46741 
L 343.821777 240.281277 
L 344.318173 240.404304 
L 344.813975 240.89641 
L 345.706775 241.379052 
L 346.103773 241.795449 
L 346.996573 242.259165 
L 347.392977 242.694489 
L 348.285777 243.139277 
L 349.079773 243.479966 
L 349.277975 243.527284 
L 350.170775 244.303297 
L 350.666577 244.341152 
L 351.063575 244.748086 
L 351.758173 244.880576 
L 351.956375 244.880576 
L 352.353373 245.278046 
L 352.948573 245.344291 
L 353.940177 245.826933 
L 354.337175 245.741761 
L 354.634775 245.987814 
L 355.031773 246.016205 
L 355.329373 246.025668 
L 355.626973 245.997278 
L 356.122775 246.271721 
L 356.320977 246.319039 
L 356.618577 246.460993 
L 356.916177 246.375821 
L 357.610775 246.725973 
L 358.404177 246.905781 
L 358.701777 247.189688 
L 359.594577 247.293788 
L 359.793373 247.407351 
L 360.189777 247.64394 
L 360.686173 247.615549 
L 360.983773 247.757503 
L 361.578973 247.918384 
L 361.975377 247.795357 
L 362.272977 248.164437 
L 362.967575 248.315854 
L 363.265175 248.183364 
L 363.662173 248.486198 
L 363.959773 248.438881 
L 364.455575 248.580834 
L 364.852573 248.845814 
L 365.150173 249.006695 
L 365.645975 248.864742 
L 366.141777 248.968841 
L 366.736977 249.025622 
L 367.034577 249.044549 
L 367.332177 249.224357 
L 367.629777 249.271675 
L 367.927377 249.385238 
L 368.324375 249.233821 
L 368.721373 249.57451 
L 369.514775 249.57451 
L 369.812375 249.924662 
L 370.010577 250.095007 
L 370.407575 250.180179 
L 370.705175 250.293742 
L 370.903377 250.359987 
L 371.895575 251.069755 
L 372.391377 251.580788 
L 373.681175 253.473504 
L 374.276375 254.580742 
L 374.673373 255.432464 
L 375.664977 258.725789 
L 375.962577 259.870882 
L 377.152977 266.618412 
L 377.847575 272.637247 
L 378.542173 279.99991 
L 379.434973 292.264706 
L 380.128977 304.586283 
L 380.420609 310.333094 
M 397.475999 310.333094 
L 398.183773 303.592607 
L 398.183773 303.592607 
" clip-path="url(#pf8affab932)" style="fill: none; stroke: #1f77b4; stroke-linecap: round"/>
   </g>
   <g id="line2d_26"/>
   <g id="line2d_27">
    <path d="M 40.864977 250.608988 
L 41.460177 250.855674 
L 42.055377 250.642627 
L 42.254173 250.54171 
L 42.650577 250.911739 
L 43.047575 250.665053 
L 43.245777 250.732331 
L 43.543377 250.676266 
L 43.840977 250.855674 
L 44.039773 250.866887 
L 44.535575 250.586562 
L 44.833175 250.65384 
L 45.130775 250.777183 
L 45.428375 250.866887 
L 45.924177 250.485645 
L 46.221777 250.799609 
L 46.718173 250.799609 
L 46.916375 250.76597 
L 47.213975 250.597775 
L 48.206173 250.721118 
L 48.801373 250.743544 
L 48.999575 250.743544 
L 49.396573 250.620201 
L 49.694173 250.642627 
L 49.892375 250.676266 
L 50.586973 250.732331 
L 50.785175 250.631414 
L 51.975575 250.665053 
L 52.173777 250.496858 
L 52.273175 250.496858 
L 52.570775 250.76597 
L 53.661777 250.597775 
L 53.959377 250.844461 
L 54.356375 250.709905 
L 54.653975 250.698692 
L 54.951575 250.564136 
L 55.348573 250.855674 
L 55.744977 250.709905 
L 56.241373 250.687479 
L 56.836573 250.76597 
L 57.232977 250.530497 
L 57.431773 250.65384 
L 58.225175 250.76597 
L 58.622173 250.620201 
L 58.919773 250.799609 
L 59.217373 250.676266 
L 59.514973 250.76597 
L 59.812573 250.519284 
L 60.010775 250.687479 
L 60.208977 250.844461 
L 61.201175 250.665053 
L 61.498775 250.911739 
L 61.696977 250.922953 
L 61.994577 250.732331 
L 62.292177 250.721118 
L 62.589777 250.754757 
L 62.986775 250.855674 
L 63.184977 250.810822 
L 63.581975 250.597775 
L 64.276573 250.866887 
L 64.474775 250.833248 
L 64.871773 250.620201 
L 65.169373 250.911739 
L 65.962775 250.676266 
L 66.160977 250.496858 
L 66.657373 250.8781 
L 66.954973 250.777183 
L 67.351377 250.76597 
L 67.550173 250.76597 
L 67.946577 251.035083 
L 68.641175 250.810822 
L 69.335773 250.967805 
L 69.831575 250.676266 
L 70.426775 250.911739 
L 70.823773 250.866887 
L 71.220177 250.575349 
L 71.617175 251.001444 
L 72.311773 250.732331 
L 72.509975 250.665053 
L 72.906973 250.956592 
L 73.402775 250.732331 
L 73.600977 250.676266 
L 73.799773 250.65384 
L 74.394973 250.698692 
L 74.990173 250.54171 
L 75.386577 250.608988 
L 75.882973 250.665053 
L 76.279377 250.508071 
L 76.478173 250.687479 
L 77.172177 250.698692 
L 77.370973 250.552923 
L 77.469777 250.474432 
L 77.866775 250.822035 
L 78.064977 250.754757 
L 78.362577 250.65384 
L 78.660177 250.608988 
L 78.957777 250.552923 
L 79.354775 250.65384 
L 79.652375 250.54171 
L 80.346973 250.519284 
L 80.644573 250.743544 
L 80.942173 250.552923 
L 81.140375 250.463218 
L 81.537373 250.65384 
L 82.330775 250.485645 
L 82.528977 250.407153 
L 82.925975 250.665053 
L 83.620573 250.575349 
L 83.818775 250.418366 
L 84.215773 250.777183 
L 84.909777 250.508071 
L 85.108573 250.485645 
L 85.604375 250.698692 
L 86.397777 250.440792 
L 86.695377 250.519284 
L 86.894173 250.608988 
L 87.191773 250.474432 
L 87.489373 250.306236 
L 88.382173 250.54171 
L 88.977373 250.440792 
L 89.175575 250.608988 
L 90.167773 250.317449 
L 90.564177 250.597775 
L 91.159377 250.508071 
L 91.556375 250.530497 
L 92.052177 250.743544 
L 92.449175 250.485645 
L 92.647377 250.440792 
L 93.242577 250.743544 
L 93.937175 250.474432 
L 94.135377 250.687479 
L 94.829975 250.676266 
L 95.127575 250.452005 
L 95.623377 250.620201 
L 96.020375 250.552923 
L 96.615575 250.474432 
L 96.913175 250.631414 
L 97.310173 250.474432 
L 98.004177 250.620201 
L 98.301777 250.709905 
L 98.698775 250.440792 
L 99.591575 250.631414 
L 99.789777 250.620201 
L 100.087377 250.407153 
L 100.286173 250.530497 
L 100.484375 250.721118 
L 101.277777 250.530497 
L 101.476573 250.39594 
L 101.872977 250.597775 
L 102.666973 250.429579 
L 102.865175 250.452005 
L 103.262173 250.642627 
L 103.757975 250.452005 
L 104.154973 250.496858 
L 104.650775 250.687479 
L 105.146577 250.407153 
L 105.543575 250.530497 
L 105.741777 250.54171 
L 106.039377 250.552923 
L 106.535773 250.39594 
L 106.833373 250.631414 
L 107.229777 250.485645 
L 107.428573 250.496858 
L 107.824977 250.227745 
L 108.122577 250.586562 
L 108.420177 250.54171 
L 109.114775 250.384727 
L 109.511773 250.709905 
L 109.809373 250.552923 
L 110.007575 250.452005 
L 110.602775 250.608988 
L 111.098577 250.709905 
L 111.396177 250.485645 
L 111.594973 250.530497 
L 111.892573 250.575349 
L 112.785373 250.182893 
L 113.181777 250.463218 
L 114.074577 250.205319 
L 114.273373 250.384727 
L 114.570973 250.54171 
L 114.868573 250.452005 
L 115.166173 250.485645 
L 115.463773 250.351088 
L 115.860177 250.54171 
L 116.157777 250.407153 
L 116.455377 250.317449 
L 116.654173 250.306236 
L 117.050577 250.429579 
L 117.546973 250.384727 
L 117.844573 250.28381 
L 118.142173 250.373514 
L 119.332573 250.306236 
L 119.530775 250.418366 
L 120.225373 250.216532 
L 120.423575 250.093189 
L 121.018775 250.429579 
L 121.316375 250.306236 
L 122.109777 250.407153 
L 122.308573 250.429579 
L 122.704977 250.238958 
L 123.796573 250.295023 
L 124.094173 250.037124 
L 125.085777 250.194106 
L 125.383377 249.936206 
L 125.582173 250.05955 
L 125.780375 250.182893 
L 126.772573 249.768011 
L 126.970775 249.936206 
L 127.168977 250.070763 
L 128.260573 249.812863 
L 128.656977 249.924993 
L 129.153373 249.655881 
L 129.847377 249.779224 
L 130.046173 249.68952 
L 130.343773 249.454046 
L 130.541975 249.454046 
L 130.839575 249.577389 
L 131.137175 249.476472 
L 131.534173 249.330703 
L 131.732375 249.20736 
L 132.327575 249.420407 
L 132.625175 249.285851 
L 132.823377 249.240999 
L 133.022173 249.06159 
L 133.617373 249.151295 
L 134.013777 248.814904 
L 134.708375 248.713987 
L 134.906577 248.770052 
L 135.204177 248.57943 
L 135.501777 248.411235 
L 135.799377 248.456087 
L 136.196375 248.265466 
L 136.394577 248.164548 
L 136.791575 247.72724 
L 137.089175 247.783305 
L 137.882577 247.233867 
L 138.081373 246.998394 
L 138.577175 246.998394 
L 139.469975 246.235908 
L 139.866973 246.123778 
L 140.560977 245.350079 
L 141.156177 245.103392 
L 141.354973 244.879132 
L 141.850775 244.161498 
L 142.148375 244.060581 
L 142.644177 243.61206 
L 143.239377 242.726231 
L 143.438173 242.591675 
L 143.933975 241.862828 
L 144.529175 240.920934 
L 144.826775 240.696674 
L 145.521373 239.272619 
L 145.818973 238.790459 
L 146.414173 237.725222 
L 147.009373 236.536641 
L 147.405777 235.875073 
L 147.703377 235.157439 
L 148.199773 233.912793 
L 148.497373 233.340929 
L 149.985373 229.371518 
L 150.976977 226.400066 
L 151.274577 225.480598 
L 152.366173 221.836365 
L 152.762577 220.345033 
L 155.540375 208.997451 
L 156.036177 206.967894 
L 156.730775 203.58156 
L 158.416977 195.014809 
L 159.111575 191.157528 
L 163.178577 166.208547 
L 164.964177 154.502149 
L 165.559377 150.286051 
L 166.650973 142.739685 
L 171.015575 111.825375 
L 175.479575 81.830532 
L 178.455575 64.237295 
L 178.951377 61.781643 
L 181.034577 51.499299 
L 181.729175 48.763321 
L 183.514775 41.945801 
L 184.407575 39.288314 
L 184.804573 38.010029 
L 185.102173 37.3821 
L 186.193175 34.590057 
L 186.391377 34.332157 
L 187.482973 32.15683 
L 187.780573 31.910144 
L 188.573975 30.755202 
L 188.871575 30.575794 
L 189.268573 30.329107 
L 189.764375 29.712391 
L 190.161373 29.734817 
L 191.152977 29.48813 
L 191.450577 29.723604 
L 191.946973 29.97029 
L 192.343377 29.914225 
L 192.839773 30.676711 
L 193.236177 30.889758 
L 193.831377 31.472836 
L 194.228375 32.111978 
L 194.625373 32.627777 
L 196.212177 35.722572 
L 196.906775 37.393313 
L 197.402577 38.469763 
L 197.898973 40.039587 
L 198.692375 42.147636 
L 199.585175 45.175153 
L 200.874973 49.593084 
L 202.461777 55.569627 
L 203.156375 58.608357 
L 205.338973 68.18428 
L 209.405975 87.60524 
L 211.092177 95.958944 
L 211.489175 97.977288 
L 212.084375 100.94874 
L 219.722577 138.366605 
L 220.516573 142.156608 
L 222.400977 150.656081 
L 222.797975 152.382887 
L 223.293777 154.703983 
L 225.476375 164.268694 
L 226.269777 167.453193 
L 227.162577 171.411391 
L 230.932573 186.71717 
L 231.428375 188.455189 
L 232.519377 192.637647 
L 232.816977 193.792589 
L 233.511575 196.595845 
L 238.570775 213.348105 
L 239.661777 216.487752 
L 240.158173 217.609055 
L 240.356375 218.169706 
L 240.753373 219.302221 
L 241.844375 222.15033 
L 242.241373 223.069798 
L 242.737175 223.96684 
L 243.530577 225.682433 
L 243.729373 225.929119 
L 246.407773 230.885276 
L 246.605975 231.165602 
L 247.101777 232.230839 
L 247.399377 232.544804 
L 247.796375 233.060603 
L 248.093975 233.632468 
L 248.391575 234.204332 
L 249.086173 234.854687 
L 249.780177 235.852647 
L 250.474775 236.536641 
L 251.069975 237.31034 
L 251.466973 237.5346 
L 251.665175 237.770074 
L 252.062173 238.341938 
L 252.359773 238.510134 
L 252.657373 238.801672 
L 252.855575 238.824098 
L 253.847773 239.911762 
L 254.442973 240.315431 
L 254.740573 240.674247 
L 255.533975 241.111555 
L 256.129175 241.616142 
L 256.624977 241.750698 
L 257.021975 242.210432 
L 257.716573 242.479545 
L 257.914775 242.479545 
L 258.311773 243.051409 
L 258.708177 243.141113 
L 259.005777 243.286882 
L 259.204573 243.298095 
L 259.997975 243.802681 
L 260.493777 243.926025 
L 261.188375 244.284842 
L 261.386577 244.217563 
L 261.684177 244.374546 
L 261.882973 244.57638 
L 262.180573 244.610019 
L 262.478173 244.789428 
L 262.874577 244.72215 
L 263.469777 245.237949 
L 264.362577 245.294014 
L 264.561373 245.5407 
L 265.652375 245.776174 
L 266.148177 246.078926 
L 266.545175 245.944369 
L 266.842775 245.955582 
L 267.338577 246.258334 
L 267.933777 246.067713 
L 268.330775 246.471382 
L 268.925975 246.471382 
L 269.223575 246.359251 
L 269.719377 246.695642 
L 270.116375 246.751707 
L 270.314577 246.729281 
L 270.513373 246.583512 
L 270.909777 246.964755 
L 271.306775 246.774133 
L 271.802577 246.796559 
L 272.298973 247.121737 
L 273.290577 247.009607 
L 273.687575 247.13295 
L 274.382173 247.088098 
L 274.580375 247.233867 
L 275.274973 247.200228 
L 275.572573 247.02082 
L 275.968977 247.312358 
L 277.060573 247.121737 
L 277.258775 247.24508 
L 277.853975 247.13295 
L 278.846173 247.278719 
L 279.242577 247.177802 
L 279.937175 247.345997 
L 280.135377 247.39085 
L 280.532375 247.200228 
L 280.929373 247.413276 
L 281.722775 247.312358 
L 281.920977 247.256293 
L 282.218577 247.559045 
L 282.516177 247.50298 
L 283.310173 247.514193 
L 283.607773 247.749666 
L 284.599377 247.61511 
L 284.996375 247.738453 
L 285.293975 247.626323 
L 285.492177 247.570258 
L 286.087377 247.805732 
L 286.980177 247.693601 
L 287.277777 247.884223 
L 288.071773 247.704814 
L 288.269975 247.693601 
L 288.567575 247.996353 
L 289.262173 247.839371 
L 289.559773 247.783305 
L 290.154973 247.951501 
L 290.452573 247.884223 
L 291.444177 248.063631 
L 291.741777 247.917862 
L 292.039377 248.074844 
L 292.336977 248.153335 
L 292.932177 248.186974 
L 293.130973 247.98514 
L 293.329175 248.130909 
L 293.527377 248.231826 
L 294.321373 248.130909 
L 294.519575 248.074844 
L 295.015377 248.400022 
L 295.709975 248.164548 
L 296.007575 248.231826 
L 296.305175 248.400022 
L 296.900375 248.108483 
L 297.197975 248.153335 
L 297.594973 248.265466 
L 297.892573 248.164548 
L 298.190173 247.996353 
L 299.281175 248.164548 
L 299.578775 248.007566 
L 299.876375 248.198187 
L 300.173975 248.164548 
L 300.471575 248.09727 
L 300.868573 247.98514 
L 301.166173 248.243039 
L 301.860177 248.186974 
L 302.058973 248.086057 
L 302.752977 248.332744 
L 303.348177 248.332744 
L 303.745175 248.523365 
L 304.142173 248.500939 
L 304.538577 248.332744 
L 305.034973 248.523365 
L 305.332573 248.557004 
L 305.630173 248.456087 
L 305.828375 248.411235 
L 306.225373 248.702774 
L 306.522973 248.613069 
L 306.919377 248.680347 
L 307.118173 248.57943 
L 307.613975 248.83733 
L 308.109777 248.702774 
L 308.804375 248.747626 
L 309.002577 248.826117 
L 309.399575 248.489726 
L 310.292375 248.994312 
L 310.490577 248.870969 
L 310.887575 248.657921 
L 311.185175 248.781265 
L 311.879773 248.523365 
L 312.177373 248.366383 
L 312.474973 248.680347 
L 312.673175 248.601856 
L 312.970775 248.500939 
L 313.168977 248.557004 
L 313.466577 248.35517 
L 313.962973 248.601856 
L 314.756375 248.231826 
L 315.351575 248.388809 
L 315.748573 248.108483 
L 315.946775 248.09727 
L 316.144977 248.220613 
L 316.442577 248.142122 
L 316.641373 248.086057 
L 317.137175 247.738453 
L 317.632977 247.973927 
L 318.029975 247.72724 
L 318.228177 247.603897 
L 318.525777 247.345997 
L 318.922775 247.547832 
L 319.220375 247.345997 
L 319.517975 247.301145 
L 319.815575 247.189015 
L 320.311377 247.458128 
L 320.807773 247.24508 
L 321.005975 247.177802 
L 321.402973 247.39085 
L 321.700573 247.35721 
L 322.196375 247.099311 
L 322.692177 247.323571 
L 322.890973 247.368424 
L 323.089175 247.368424 
L 323.486173 247.144163 
L 323.882577 247.469341 
L 324.676573 247.121737 
L 324.874775 247.144163 
L 325.271773 247.345997 
L 325.866973 247.155376 
L 326.164573 246.975968 
L 326.660375 247.043246 
L 328.148375 246.078926 
L 328.445975 245.68647 
L 328.644177 245.675257 
L 328.941777 245.495848 
L 329.834577 244.239989 
L 330.132177 244.239989 
L 331.124375 242.838361 
L 331.719575 242.333775 
L 332.215377 241.571289 
L 332.512977 241.246112 
L 333.108177 240.696674 
L 333.505175 240.236939 
L 334.397975 239.855697 
L 334.893777 239.429602 
L 335.092573 239.620223 
L 335.290775 239.474454 
L 335.488977 239.395963 
L 335.687773 239.38475 
L 336.183575 239.025933 
L 336.481175 239.182915 
L 337.373975 238.75682 
L 337.572177 238.846524 
L 337.869777 239.070785 
L 338.762577 238.768033 
L 338.961373 238.835311 
L 339.357777 238.958655 
L 339.854173 238.891376 
L 340.746973 239.250193 
L 341.143377 239.01472 
L 341.440977 239.429602 
L 342.433175 239.665075 
L 342.928977 240.34907 
L 343.524177 240.506052 
L 343.722973 240.584543 
L 345.706775 242.087089 
L 346.103773 242.064663 
L 346.897175 242.737444 
L 347.194775 242.75987 
L 347.392977 242.726231 
L 347.690577 243.040196 
L 347.889373 243.174752 
L 348.186973 243.24203 
L 348.583377 243.376587 
L 348.782173 243.399013 
L 349.079773 243.813895 
L 349.476177 243.926025 
L 350.170775 244.228776 
L 350.567773 244.654871 
L 351.162973 244.520315 
L 352.055773 245.125818 
L 352.452177 245.036114 
L 352.849175 245.495848 
L 353.047377 245.529487 
L 353.444375 245.708896 
L 353.741975 245.596766 
L 354.138973 246.157417 
L 354.535377 246.202269 
L 354.832977 246.247121 
L 355.031773 246.224695 
L 355.626973 246.639577 
L 356.519773 246.841411 
L 356.916177 247.110524 
L 357.412573 247.054459 
L 357.710173 247.278719 
L 358.205975 247.581471 
L 358.999377 247.749666 
L 359.495773 247.951501 
L 359.793373 247.906649 
L 360.090973 247.783305 
L 360.487377 248.164548 
L 361.082577 248.108483 
L 361.380177 247.996353 
L 361.876573 248.433661 
L 362.272977 248.2094 
L 362.570577 248.231826 
L 362.868177 248.35517 
L 363.165777 248.545791 
L 363.463377 248.444874 
L 363.760977 248.321531 
L 364.653777 248.657921 
L 364.852573 248.534578 
L 365.150173 248.433661 
L 365.447773 248.669134 
L 366.538775 248.758839 
L 366.935773 248.983099 
L 367.530973 248.848543 
L 367.629777 248.770052 
L 367.927377 249.084016 
L 368.324375 249.297064 
L 368.721373 249.252212 
L 369.415377 249.577389 
L 369.614173 249.622242 
L 369.911773 249.54375 
L 370.109975 249.622242 
L 370.605777 250.115615 
L 370.804573 250.306236 
L 371.102173 250.496858 
L 371.399773 250.54171 
L 371.597975 250.911739 
L 372.093777 251.539669 
L 372.490775 252.033042 
L 372.688977 252.223663 
L 373.581777 254.0626 
L 374.078173 255.25118 
L 375.566173 261.21651 
L 376.557777 267.507017 
L 377.549975 277.139006 
L 378.145175 284.909632 
L 378.938577 297.827037 
L 379.537525 310.333094 
L 379.537525 310.333094 
" clip-path="url(#pf8affab932)" style="fill: none; stroke: #fe9829; stroke-linecap: round"/>
   </g>
   <g id="line2d_28"/>
   <g id="patch_3">
    <path d="M 40.964375 273.312 
L 40.964375 7.2 
" style="fill: none; stroke: #262626; stroke-width: 1.25; stroke-linejoin: miter; stroke-linecap: square"/>
   </g>
   <g id="patch_4">
    <path d="M 40.964375 273.312 
L 398.084375 273.312 
" style="fill: none; stroke: #262626; stroke-width: 1.25; stroke-linejoin: miter; stroke-linecap: square"/>
   </g>
   <g id="legend_1">
    <g id="line2d_29">
     <path d="M 227.563375 97.15985 
L 235.563375 97.15985 
L 243.563375 97.15985 
" style="fill: none; stroke: #1f77b4; stroke-width: 1.5; stroke-linecap: round"/>
    </g>
    <g id="text_16">
     <!-- SCF3-PS -->
     <g style="fill: #262626" transform="translate(249.963375 99.95985) scale(0.08 -0.08)">
      <defs>
       <path id="ArialMT-53" d="M 288 1472 
L 859 1522 
Q 900 1178 1048 958 
Q 1197 738 1509 602 
Q 1822 466 2213 466 
Q 2559 466 2825 569 
Q 3091 672 3220 851 
Q 3350 1031 3350 1244 
Q 3350 1459 3225 1620 
Q 3100 1781 2813 1891 
Q 2628 1963 1997 2114 
Q 1366 2266 1113 2400 
Q 784 2572 623 2826 
Q 463 3081 463 3397 
Q 463 3744 659 4045 
Q 856 4347 1234 4503 
Q 1613 4659 2075 4659 
Q 2584 4659 2973 4495 
Q 3363 4331 3572 4012 
Q 3781 3694 3797 3291 
L 3216 3247 
Q 3169 3681 2898 3903 
Q 2628 4125 2100 4125 
Q 1550 4125 1298 3923 
Q 1047 3722 1047 3438 
Q 1047 3191 1225 3031 
Q 1400 2872 2139 2705 
Q 2878 2538 3153 2413 
Q 3553 2228 3743 1945 
Q 3934 1663 3934 1294 
Q 3934 928 3725 604 
Q 3516 281 3123 101 
Q 2731 -78 2241 -78 
Q 1619 -78 1198 103 
Q 778 284 539 648 
Q 300 1013 288 1472 
z
" transform="scale(0.015625)"/>
       <path id="ArialMT-43" d="M 3763 1606 
L 4369 1453 
Q 4178 706 3683 314 
Q 3188 -78 2472 -78 
Q 1731 -78 1267 223 
Q 803 525 561 1097 
Q 319 1669 319 2325 
Q 319 3041 592 3573 
Q 866 4106 1370 4382 
Q 1875 4659 2481 4659 
Q 3169 4659 3637 4309 
Q 4106 3959 4291 3325 
L 3694 3184 
Q 3534 3684 3231 3912 
Q 2928 4141 2469 4141 
Q 1941 4141 1586 3887 
Q 1231 3634 1087 3207 
Q 944 2781 944 2328 
Q 944 1744 1114 1308 
Q 1284 872 1643 656 
Q 2003 441 2422 441 
Q 2931 441 3284 734 
Q 3638 1028 3763 1606 
z
" transform="scale(0.015625)"/>
       <path id="ArialMT-46" d="M 525 0 
L 525 4581 
L 3616 4581 
L 3616 4041 
L 1131 4041 
L 1131 2622 
L 3281 2622 
L 3281 2081 
L 1131 2081 
L 1131 0 
L 525 0 
z
" transform="scale(0.015625)"/>
       <path id="ArialMT-33" d="M 269 1209 
L 831 1284 
Q 928 806 1161 595 
Q 1394 384 1728 384 
Q 2125 384 2398 659 
Q 2672 934 2672 1341 
Q 2672 1728 2419 1979 
Q 2166 2231 1775 2231 
Q 1616 2231 1378 2169 
L 1441 2663 
Q 1497 2656 1531 2656 
Q 1891 2656 2178 2843 
Q 2466 3031 2466 3422 
Q 2466 3731 2256 3934 
Q 2047 4138 1716 4138 
Q 1388 4138 1169 3931 
Q 950 3725 888 3313 
L 325 3413 
Q 428 3978 793 4289 
Q 1159 4600 1703 4600 
Q 2078 4600 2393 4439 
Q 2709 4278 2876 4000 
Q 3044 3722 3044 3409 
Q 3044 3113 2884 2869 
Q 2725 2625 2413 2481 
Q 2819 2388 3044 2092 
Q 3269 1797 3269 1353 
Q 3269 753 2831 336 
Q 2394 -81 1725 -81 
Q 1122 -81 723 278 
Q 325 638 269 1209 
z
" transform="scale(0.015625)"/>
       <path id="ArialMT-2d" d="M 203 1375 
L 203 1941 
L 1931 1941 
L 1931 1375 
L 203 1375 
z
" transform="scale(0.015625)"/>
       <path id="ArialMT-50" d="M 494 0 
L 494 4581 
L 2222 4581 
Q 2678 4581 2919 4538 
Q 3256 4481 3484 4323 
Q 3713 4166 3852 3881 
Q 3991 3597 3991 3256 
Q 3991 2672 3619 2267 
Q 3247 1863 2275 1863 
L 1100 1863 
L 1100 0 
L 494 0 
z
M 1100 2403 
L 2284 2403 
Q 2872 2403 3119 2622 
Q 3366 2841 3366 3238 
Q 3366 3525 3220 3729 
Q 3075 3934 2838 4000 
Q 2684 4041 2272 4041 
L 1100 4041 
L 1100 2403 
z
" transform="scale(0.015625)"/>
      </defs>
      <use xlink:href="#ArialMT-53"/>
      <use xlink:href="#ArialMT-43" x="66.699219"/>
      <use xlink:href="#ArialMT-46" x="138.916016"/>
      <use xlink:href="#ArialMT-33" x="200"/>
      <use xlink:href="#ArialMT-2d" x="255.615234"/>
      <use xlink:href="#ArialMT-50" x="288.916016"/>
      <use xlink:href="#ArialMT-53" x="355.615234"/>
     </g>
    </g>
    <g id="line2d_30">
     <path d="M 227.563375 108.4761 
L 235.563375 108.4761 
L 243.563375 108.4761 
" style="fill: none; stroke: #fe9829; stroke-width: 1.5; stroke-linecap: round"/>
    </g>
    <g id="text_17">
     <!-- PS -->
     <g style="fill: #262626" transform="translate(249.963375 111.2761) scale(0.08 -0.08)">
      <use xlink:href="#ArialMT-50"/>
      <use xlink:href="#ArialMT-53" x="66.699219"/>
     </g>
    </g>
   </g>
  </g>
 </g>
 <defs>
  <clipPath id="pf8affab932">
   <rect x="40.964375" y="7.2" width="357.12" height="266.112"/>
  </clipPath>
 </defs>
</svg>
