<?xml version="1.0" encoding="utf-8" standalone="no"?>
<!DOCTYPE svg PUBLIC "-//W3C//DTD SVG 1.1//EN"
  "http://www.w3.org/Graphics/SVG/1.1/DTD/svg11.dtd">
<svg xmlns:xlink="http://www.w3.org/1999/xlink" width="433.100469pt" height="312.983016pt" viewBox="0 0 433.100469 312.983016" xmlns="http://www.w3.org/2000/svg" version="1.1">
 <metadata>
  <rdf:RDF xmlns:dc="http://purl.org/dc/elements/1.1/" xmlns:cc="http://creativecommons.org/ns#" xmlns:rdf="http://www.w3.org/1999/02/22-rdf-syntax-ns#">
   <cc:Work>
    <dc:type rdf:resource="http://purl.org/dc/dcmitype/StillImage"/>
    <dc:date>2024-01-18T20:27:56.522720</dc:date>
    <dc:format>image/svg+xml</dc:format>
    <dc:creator>
     <cc:Agent>
      <dc:title>Matplotlib v3.7.1, https://matplotlib.org/</dc:title>
     </cc:Agent>
    </dc:creator>
   </cc:Work>
  </rdf:RDF>
 </metadata>
 <defs>
  <style type="text/css">*{stroke-linejoin: round; stroke-linecap: butt}</style>
 </defs>
 <g id="figure_1">
  <g id="patch_1">
   <path d="M 0 312.983016 
L 433.100469 312.983016 
L 433.100469 0 
L 0 0 
z
" style="fill: #ffffff"/>
  </g>
  <g id="axes_1">
   <g id="patch_2">
    <path d="M 56.546406 277.248797 
L 413.666406 277.248797 
L 413.666406 11.136797 
L 56.546406 11.136797 
z
" style="fill: #ffffff"/>
   </g>
   <g id="matplotlib.axis_1">
    <g id="xtick_1">
     <g id="line2d_1">
      <defs>
       <path id="mfc77d8bac8" d="M 0 0 
L 0 -6 
" style="stroke: #262626; stroke-width: 1.25"/>
      </defs>
      <g>
       <use xlink:href="#mfc77d8bac8" x="94.809263" y="277.248797" style="fill: #262626; stroke: #262626; stroke-width: 1.25"/>
      </g>
     </g>
     <g id="text_1">
      <!-- 1000 -->
      <g style="fill: #262626" transform="translate(82.575201 288.622391) scale(0.11 -0.11)">
       <defs>
        <path id="ArialMT-31" d="M 2384 0 
L 1822 0 
L 1822 3584 
Q 1619 3391 1289 3197 
Q 959 3003 697 2906 
L 697 3450 
Q 1169 3672 1522 3987 
Q 1875 4303 2022 4600 
L 2384 4600 
L 2384 0 
z
" transform="scale(0.015625)"/>
        <path id="ArialMT-30" d="M 266 2259 
Q 266 3072 433 3567 
Q 600 4063 929 4331 
Q 1259 4600 1759 4600 
Q 2128 4600 2406 4451 
Q 2684 4303 2865 4023 
Q 3047 3744 3150 3342 
Q 3253 2941 3253 2259 
Q 3253 1453 3087 958 
Q 2922 463 2592 192 
Q 2263 -78 1759 -78 
Q 1097 -78 719 397 
Q 266 969 266 2259 
z
M 844 2259 
Q 844 1131 1108 757 
Q 1372 384 1759 384 
Q 2147 384 2411 759 
Q 2675 1134 2675 2259 
Q 2675 3391 2411 3762 
Q 2147 4134 1753 4134 
Q 1366 4134 1134 3806 
Q 844 3388 844 2259 
z
" transform="scale(0.015625)"/>
       </defs>
       <use xlink:href="#ArialMT-31"/>
       <use xlink:href="#ArialMT-30" x="55.615234"/>
       <use xlink:href="#ArialMT-30" x="111.230469"/>
       <use xlink:href="#ArialMT-30" x="166.845703"/>
      </g>
     </g>
    </g>
    <g id="xtick_2">
     <g id="line2d_2">
      <g>
       <use xlink:href="#mfc77d8bac8" x="158.580692" y="277.248797" style="fill: #262626; stroke: #262626; stroke-width: 1.25"/>
      </g>
     </g>
     <g id="text_2">
      <!-- 2000 -->
      <g style="fill: #262626" transform="translate(146.346629 288.622391) scale(0.11 -0.11)">
       <defs>
        <path id="ArialMT-32" d="M 3222 541 
L 3222 0 
L 194 0 
Q 188 203 259 391 
Q 375 700 629 1000 
Q 884 1300 1366 1694 
Q 2113 2306 2375 2664 
Q 2638 3022 2638 3341 
Q 2638 3675 2398 3904 
Q 2159 4134 1775 4134 
Q 1369 4134 1125 3890 
Q 881 3647 878 3216 
L 300 3275 
Q 359 3922 746 4261 
Q 1134 4600 1788 4600 
Q 2447 4600 2831 4234 
Q 3216 3869 3216 3328 
Q 3216 3053 3103 2787 
Q 2991 2522 2730 2228 
Q 2469 1934 1863 1422 
Q 1356 997 1212 845 
Q 1069 694 975 541 
L 3222 541 
z
" transform="scale(0.015625)"/>
       </defs>
       <use xlink:href="#ArialMT-32"/>
       <use xlink:href="#ArialMT-30" x="55.615234"/>
       <use xlink:href="#ArialMT-30" x="111.230469"/>
       <use xlink:href="#ArialMT-30" x="166.845703"/>
      </g>
     </g>
    </g>
    <g id="xtick_3">
     <g id="line2d_3">
      <g>
       <use xlink:href="#mfc77d8bac8" x="222.352121" y="277.248797" style="fill: #262626; stroke: #262626; stroke-width: 1.25"/>
      </g>
     </g>
     <g id="text_3">
      <!-- 3000 -->
      <g style="fill: #262626" transform="translate(210.118058 288.622391) scale(0.11 -0.11)">
       <defs>
        <path id="ArialMT-33" d="M 269 1209 
L 831 1284 
Q 928 806 1161 595 
Q 1394 384 1728 384 
Q 2125 384 2398 659 
Q 2672 934 2672 1341 
Q 2672 1728 2419 1979 
Q 2166 2231 1775 2231 
Q 1616 2231 1378 2169 
L 1441 2663 
Q 1497 2656 1531 2656 
Q 1891 2656 2178 2843 
Q 2466 3031 2466 3422 
Q 2466 3731 2256 3934 
Q 2047 4138 1716 4138 
Q 1388 4138 1169 3931 
Q 950 3725 888 3313 
L 325 3413 
Q 428 3978 793 4289 
Q 1159 4600 1703 4600 
Q 2078 4600 2393 4439 
Q 2709 4278 2876 4000 
Q 3044 3722 3044 3409 
Q 3044 3113 2884 2869 
Q 2725 2625 2413 2481 
Q 2819 2388 3044 2092 
Q 3269 1797 3269 1353 
Q 3269 753 2831 336 
Q 2394 -81 1725 -81 
Q 1122 -81 723 278 
Q 325 638 269 1209 
z
" transform="scale(0.015625)"/>
       </defs>
       <use xlink:href="#ArialMT-33"/>
       <use xlink:href="#ArialMT-30" x="55.615234"/>
       <use xlink:href="#ArialMT-30" x="111.230469"/>
       <use xlink:href="#ArialMT-30" x="166.845703"/>
      </g>
     </g>
    </g>
    <g id="xtick_4">
     <g id="line2d_4">
      <g>
       <use xlink:href="#mfc77d8bac8" x="286.123549" y="277.248797" style="fill: #262626; stroke: #262626; stroke-width: 1.25"/>
      </g>
     </g>
     <g id="text_4">
      <!-- 4000 -->
      <g style="fill: #262626" transform="translate(273.889487 288.622391) scale(0.11 -0.11)">
       <defs>
        <path id="ArialMT-34" d="M 2069 0 
L 2069 1097 
L 81 1097 
L 81 1613 
L 2172 4581 
L 2631 4581 
L 2631 1613 
L 3250 1613 
L 3250 1097 
L 2631 1097 
L 2631 0 
L 2069 0 
z
M 2069 1613 
L 2069 3678 
L 634 1613 
L 2069 1613 
z
" transform="scale(0.015625)"/>
       </defs>
       <use xlink:href="#ArialMT-34"/>
       <use xlink:href="#ArialMT-30" x="55.615234"/>
       <use xlink:href="#ArialMT-30" x="111.230469"/>
       <use xlink:href="#ArialMT-30" x="166.845703"/>
      </g>
     </g>
    </g>
    <g id="xtick_5">
     <g id="line2d_5">
      <g>
       <use xlink:href="#mfc77d8bac8" x="349.894978" y="277.248797" style="fill: #262626; stroke: #262626; stroke-width: 1.25"/>
      </g>
     </g>
     <g id="text_5">
      <!-- 5000 -->
      <g style="fill: #262626" transform="translate(337.660915 288.622391) scale(0.11 -0.11)">
       <defs>
        <path id="ArialMT-35" d="M 266 1200 
L 856 1250 
Q 922 819 1161 601 
Q 1400 384 1738 384 
Q 2144 384 2425 690 
Q 2706 997 2706 1503 
Q 2706 1984 2436 2262 
Q 2166 2541 1728 2541 
Q 1456 2541 1237 2417 
Q 1019 2294 894 2097 
L 366 2166 
L 809 4519 
L 3088 4519 
L 3088 3981 
L 1259 3981 
L 1013 2750 
Q 1425 3038 1878 3038 
Q 2478 3038 2890 2622 
Q 3303 2206 3303 1553 
Q 3303 931 2941 478 
Q 2500 -78 1738 -78 
Q 1113 -78 717 272 
Q 322 622 266 1200 
z
" transform="scale(0.015625)"/>
       </defs>
       <use xlink:href="#ArialMT-35"/>
       <use xlink:href="#ArialMT-30" x="55.615234"/>
       <use xlink:href="#ArialMT-30" x="111.230469"/>
       <use xlink:href="#ArialMT-30" x="166.845703"/>
      </g>
     </g>
    </g>
    <g id="xtick_6">
     <g id="line2d_6">
      <g>
       <use xlink:href="#mfc77d8bac8" x="413.666406" y="277.248797" style="fill: #262626; stroke: #262626; stroke-width: 1.25"/>
      </g>
     </g>
     <g id="text_6">
      <!-- 6000 -->
      <g style="fill: #262626" transform="translate(401.432344 288.622391) scale(0.11 -0.11)">
       <defs>
        <path id="ArialMT-36" d="M 3184 3459 
L 2625 3416 
Q 2550 3747 2413 3897 
Q 2184 4138 1850 4138 
Q 1581 4138 1378 3988 
Q 1113 3794 959 3422 
Q 806 3050 800 2363 
Q 1003 2672 1297 2822 
Q 1591 2972 1913 2972 
Q 2475 2972 2870 2558 
Q 3266 2144 3266 1488 
Q 3266 1056 3080 686 
Q 2894 316 2569 119 
Q 2244 -78 1831 -78 
Q 1128 -78 684 439 
Q 241 956 241 2144 
Q 241 3472 731 4075 
Q 1159 4600 1884 4600 
Q 2425 4600 2770 4297 
Q 3116 3994 3184 3459 
z
M 888 1484 
Q 888 1194 1011 928 
Q 1134 663 1356 523 
Q 1578 384 1822 384 
Q 2178 384 2434 671 
Q 2691 959 2691 1453 
Q 2691 1928 2437 2201 
Q 2184 2475 1800 2475 
Q 1419 2475 1153 2201 
Q 888 1928 888 1484 
z
" transform="scale(0.015625)"/>
       </defs>
       <use xlink:href="#ArialMT-36"/>
       <use xlink:href="#ArialMT-30" x="55.615234"/>
       <use xlink:href="#ArialMT-30" x="111.230469"/>
       <use xlink:href="#ArialMT-30" x="166.845703"/>
      </g>
     </g>
    </g>
    <g id="xtick_7">
     <g id="line2d_7">
      <defs>
       <path id="m1a56dc8bd0" d="M 0 0 
L 0 -4 
" style="stroke: #262626"/>
      </defs>
      <g>
       <use xlink:href="#m1a56dc8bd0" x="62.923549" y="277.248797" style="fill: #262626; stroke: #262626"/>
      </g>
     </g>
    </g>
    <g id="xtick_8">
     <g id="line2d_8">
      <g>
       <use xlink:href="#m1a56dc8bd0" x="126.694978" y="277.248797" style="fill: #262626; stroke: #262626"/>
      </g>
     </g>
    </g>
    <g id="xtick_9">
     <g id="line2d_9">
      <g>
       <use xlink:href="#m1a56dc8bd0" x="190.466406" y="277.248797" style="fill: #262626; stroke: #262626"/>
      </g>
     </g>
    </g>
    <g id="xtick_10">
     <g id="line2d_10">
      <g>
       <use xlink:href="#m1a56dc8bd0" x="254.237835" y="277.248797" style="fill: #262626; stroke: #262626"/>
      </g>
     </g>
    </g>
    <g id="xtick_11">
     <g id="line2d_11">
      <g>
       <use xlink:href="#m1a56dc8bd0" x="318.009263" y="277.248797" style="fill: #262626; stroke: #262626"/>
      </g>
     </g>
    </g>
    <g id="xtick_12">
     <g id="line2d_12">
      <g>
       <use xlink:href="#m1a56dc8bd0" x="381.780692" y="277.248797" style="fill: #262626; stroke: #262626"/>
      </g>
     </g>
    </g>
    <g id="text_7">
     <!-- m/z -->
     <g style="fill: #262626" transform="translate(225.441719 303.398016) scale(0.12 -0.12)">
      <defs>
       <path id="ArialMT-6d" d="M 422 0 
L 422 3319 
L 925 3319 
L 925 2853 
Q 1081 3097 1340 3245 
Q 1600 3394 1931 3394 
Q 2300 3394 2536 3241 
Q 2772 3088 2869 2813 
Q 3263 3394 3894 3394 
Q 4388 3394 4653 3120 
Q 4919 2847 4919 2278 
L 4919 0 
L 4359 0 
L 4359 2091 
Q 4359 2428 4304 2576 
Q 4250 2725 4106 2815 
Q 3963 2906 3769 2906 
Q 3419 2906 3187 2673 
Q 2956 2441 2956 1928 
L 2956 0 
L 2394 0 
L 2394 2156 
Q 2394 2531 2256 2718 
Q 2119 2906 1806 2906 
Q 1569 2906 1367 2781 
Q 1166 2656 1075 2415 
Q 984 2175 984 1722 
L 984 0 
L 422 0 
z
" transform="scale(0.015625)"/>
       <path id="ArialMT-2f" d="M 0 -78 
L 1328 4659 
L 1778 4659 
L 453 -78 
L 0 -78 
z
" transform="scale(0.015625)"/>
       <path id="ArialMT-7a" d="M 125 0 
L 125 456 
L 2238 2881 
Q 1878 2863 1603 2863 
L 250 2863 
L 250 3319 
L 2963 3319 
L 2963 2947 
L 1166 841 
L 819 456 
Q 1197 484 1528 484 
L 3063 484 
L 3063 0 
L 125 0 
z
" transform="scale(0.015625)"/>
      </defs>
      <use xlink:href="#ArialMT-6d"/>
      <use xlink:href="#ArialMT-2f" x="83.300781"/>
      <use xlink:href="#ArialMT-7a" x="111.083984"/>
     </g>
    </g>
   </g>
   <g id="matplotlib.axis_2">
    <g id="ytick_1">
     <g id="line2d_13">
      <defs>
       <path id="mb5857be730" d="M 0 0 
L 6 0 
" style="stroke: #262626; stroke-width: 1.25"/>
      </defs>
      <g>
       <use xlink:href="#mb5857be730" x="56.546406" y="277.248797" style="fill: #262626; stroke: #262626; stroke-width: 1.25"/>
      </g>
     </g>
     <g id="text_8">
      <!-- 0 -->
      <g style="fill: #262626" transform="translate(46.929375 281.185594) scale(0.11 -0.11)">
       <use xlink:href="#ArialMT-30"/>
      </g>
     </g>
    </g>
    <g id="ytick_2">
     <g id="line2d_14">
      <g>
       <use xlink:href="#mb5857be730" x="56.546406" y="224.026397" style="fill: #262626; stroke: #262626; stroke-width: 1.25"/>
      </g>
     </g>
     <g id="text_9">
      <!-- 2000 -->
      <g style="fill: #262626" transform="translate(28.578281 227.963194) scale(0.11 -0.11)">
       <use xlink:href="#ArialMT-32"/>
       <use xlink:href="#ArialMT-30" x="55.615234"/>
       <use xlink:href="#ArialMT-30" x="111.230469"/>
       <use xlink:href="#ArialMT-30" x="166.845703"/>
      </g>
     </g>
    </g>
    <g id="ytick_3">
     <g id="line2d_15">
      <g>
       <use xlink:href="#mb5857be730" x="56.546406" y="170.803997" style="fill: #262626; stroke: #262626; stroke-width: 1.25"/>
      </g>
     </g>
     <g id="text_10">
      <!-- 4000 -->
      <g style="fill: #262626" transform="translate(28.578281 174.740794) scale(0.11 -0.11)">
       <use xlink:href="#ArialMT-34"/>
       <use xlink:href="#ArialMT-30" x="55.615234"/>
       <use xlink:href="#ArialMT-30" x="111.230469"/>
       <use xlink:href="#ArialMT-30" x="166.845703"/>
      </g>
     </g>
    </g>
    <g id="ytick_4">
     <g id="line2d_16">
      <g>
       <use xlink:href="#mb5857be730" x="56.546406" y="117.581597" style="fill: #262626; stroke: #262626; stroke-width: 1.25"/>
      </g>
     </g>
     <g id="text_11">
      <!-- 6000 -->
      <g style="fill: #262626" transform="translate(28.578281 121.518394) scale(0.11 -0.11)">
       <use xlink:href="#ArialMT-36"/>
       <use xlink:href="#ArialMT-30" x="55.615234"/>
       <use xlink:href="#ArialMT-30" x="111.230469"/>
       <use xlink:href="#ArialMT-30" x="166.845703"/>
      </g>
     </g>
    </g>
    <g id="ytick_5">
     <g id="line2d_17">
      <g>
       <use xlink:href="#mb5857be730" x="56.546406" y="64.359197" style="fill: #262626; stroke: #262626; stroke-width: 1.25"/>
      </g>
     </g>
     <g id="text_12">
      <!-- 8000 -->
      <g style="fill: #262626" transform="translate(28.578281 68.295994) scale(0.11 -0.11)">
       <defs>
        <path id="ArialMT-38" d="M 1131 2484 
Q 781 2613 612 2850 
Q 444 3088 444 3419 
Q 444 3919 803 4259 
Q 1163 4600 1759 4600 
Q 2359 4600 2725 4251 
Q 3091 3903 3091 3403 
Q 3091 3084 2923 2848 
Q 2756 2613 2416 2484 
Q 2838 2347 3058 2040 
Q 3278 1734 3278 1309 
Q 3278 722 2862 322 
Q 2447 -78 1769 -78 
Q 1091 -78 675 323 
Q 259 725 259 1325 
Q 259 1772 486 2073 
Q 713 2375 1131 2484 
z
M 1019 3438 
Q 1019 3113 1228 2906 
Q 1438 2700 1772 2700 
Q 2097 2700 2305 2904 
Q 2513 3109 2513 3406 
Q 2513 3716 2298 3927 
Q 2084 4138 1766 4138 
Q 1444 4138 1231 3931 
Q 1019 3725 1019 3438 
z
M 838 1322 
Q 838 1081 952 856 
Q 1066 631 1291 507 
Q 1516 384 1775 384 
Q 2178 384 2440 643 
Q 2703 903 2703 1303 
Q 2703 1709 2433 1975 
Q 2163 2241 1756 2241 
Q 1359 2241 1098 1978 
Q 838 1716 838 1322 
z
" transform="scale(0.015625)"/>
       </defs>
       <use xlink:href="#ArialMT-38"/>
       <use xlink:href="#ArialMT-30" x="55.615234"/>
       <use xlink:href="#ArialMT-30" x="111.230469"/>
       <use xlink:href="#ArialMT-30" x="166.845703"/>
      </g>
     </g>
    </g>
    <g id="ytick_6">
     <g id="line2d_18">
      <g>
       <use xlink:href="#mb5857be730" x="56.546406" y="11.136797" style="fill: #262626; stroke: #262626; stroke-width: 1.25"/>
      </g>
     </g>
     <g id="text_13">
      <!-- 10000 -->
      <g style="fill: #262626" transform="translate(22.46125 15.073594) scale(0.11 -0.11)">
       <use xlink:href="#ArialMT-31"/>
       <use xlink:href="#ArialMT-30" x="55.615234"/>
       <use xlink:href="#ArialMT-30" x="111.230469"/>
       <use xlink:href="#ArialMT-30" x="166.845703"/>
       <use xlink:href="#ArialMT-30" x="222.460938"/>
      </g>
     </g>
    </g>
    <g id="ytick_7">
     <g id="line2d_19">
      <defs>
       <path id="mb8009a783f" d="M 0 0 
L 4 0 
" style="stroke: #262626"/>
      </defs>
      <g>
       <use xlink:href="#mb8009a783f" x="56.546406" y="250.637597" style="fill: #262626; stroke: #262626"/>
      </g>
     </g>
    </g>
    <g id="ytick_8">
     <g id="line2d_20">
      <g>
       <use xlink:href="#mb8009a783f" x="56.546406" y="197.415197" style="fill: #262626; stroke: #262626"/>
      </g>
     </g>
    </g>
    <g id="ytick_9">
     <g id="line2d_21">
      <g>
       <use xlink:href="#mb8009a783f" x="56.546406" y="144.192797" style="fill: #262626; stroke: #262626"/>
      </g>
     </g>
    </g>
    <g id="ytick_10">
     <g id="line2d_22">
      <g>
       <use xlink:href="#mb8009a783f" x="56.546406" y="90.970397" style="fill: #262626; stroke: #262626"/>
      </g>
     </g>
    </g>
    <g id="ytick_11">
     <g id="line2d_23">
      <g>
       <use xlink:href="#mb8009a783f" x="56.546406" y="37.747997" style="fill: #262626; stroke: #262626"/>
      </g>
     </g>
    </g>
    <g id="text_14">
     <!-- Intensity (a.u.) -->
     <g style="fill: #262626" transform="translate(15.935625 182.205609) rotate(-90) scale(0.12 -0.12)">
      <defs>
       <path id="ArialMT-49" d="M 597 0 
L 597 4581 
L 1203 4581 
L 1203 0 
L 597 0 
z
" transform="scale(0.015625)"/>
       <path id="ArialMT-6e" d="M 422 0 
L 422 3319 
L 928 3319 
L 928 2847 
Q 1294 3394 1984 3394 
Q 2284 3394 2536 3286 
Q 2788 3178 2913 3003 
Q 3038 2828 3088 2588 
Q 3119 2431 3119 2041 
L 3119 0 
L 2556 0 
L 2556 2019 
Q 2556 2363 2490 2533 
Q 2425 2703 2258 2804 
Q 2091 2906 1866 2906 
Q 1506 2906 1245 2678 
Q 984 2450 984 1813 
L 984 0 
L 422 0 
z
" transform="scale(0.015625)"/>
       <path id="ArialMT-74" d="M 1650 503 
L 1731 6 
Q 1494 -44 1306 -44 
Q 1000 -44 831 53 
Q 663 150 594 308 
Q 525 466 525 972 
L 525 2881 
L 113 2881 
L 113 3319 
L 525 3319 
L 525 4141 
L 1084 4478 
L 1084 3319 
L 1650 3319 
L 1650 2881 
L 1084 2881 
L 1084 941 
Q 1084 700 1114 631 
Q 1144 563 1211 522 
Q 1278 481 1403 481 
Q 1497 481 1650 503 
z
" transform="scale(0.015625)"/>
       <path id="ArialMT-65" d="M 2694 1069 
L 3275 997 
Q 3138 488 2766 206 
Q 2394 -75 1816 -75 
Q 1088 -75 661 373 
Q 234 822 234 1631 
Q 234 2469 665 2931 
Q 1097 3394 1784 3394 
Q 2450 3394 2872 2941 
Q 3294 2488 3294 1666 
Q 3294 1616 3291 1516 
L 816 1516 
Q 847 969 1125 678 
Q 1403 388 1819 388 
Q 2128 388 2347 550 
Q 2566 713 2694 1069 
z
M 847 1978 
L 2700 1978 
Q 2663 2397 2488 2606 
Q 2219 2931 1791 2931 
Q 1403 2931 1139 2672 
Q 875 2413 847 1978 
z
" transform="scale(0.015625)"/>
       <path id="ArialMT-73" d="M 197 991 
L 753 1078 
Q 800 744 1014 566 
Q 1228 388 1613 388 
Q 2000 388 2187 545 
Q 2375 703 2375 916 
Q 2375 1106 2209 1216 
Q 2094 1291 1634 1406 
Q 1016 1563 777 1677 
Q 538 1791 414 1992 
Q 291 2194 291 2438 
Q 291 2659 392 2848 
Q 494 3038 669 3163 
Q 800 3259 1026 3326 
Q 1253 3394 1513 3394 
Q 1903 3394 2198 3281 
Q 2494 3169 2634 2976 
Q 2775 2784 2828 2463 
L 2278 2388 
Q 2241 2644 2061 2787 
Q 1881 2931 1553 2931 
Q 1166 2931 1000 2803 
Q 834 2675 834 2503 
Q 834 2394 903 2306 
Q 972 2216 1119 2156 
Q 1203 2125 1616 2013 
Q 2213 1853 2448 1751 
Q 2684 1650 2818 1456 
Q 2953 1263 2953 975 
Q 2953 694 2789 445 
Q 2625 197 2315 61 
Q 2006 -75 1616 -75 
Q 969 -75 630 194 
Q 291 463 197 991 
z
" transform="scale(0.015625)"/>
       <path id="ArialMT-69" d="M 425 3934 
L 425 4581 
L 988 4581 
L 988 3934 
L 425 3934 
z
M 425 0 
L 425 3319 
L 988 3319 
L 988 0 
L 425 0 
z
" transform="scale(0.015625)"/>
       <path id="ArialMT-79" d="M 397 -1278 
L 334 -750 
Q 519 -800 656 -800 
Q 844 -800 956 -737 
Q 1069 -675 1141 -563 
Q 1194 -478 1313 -144 
Q 1328 -97 1363 -6 
L 103 3319 
L 709 3319 
L 1400 1397 
Q 1534 1031 1641 628 
Q 1738 1016 1872 1384 
L 2581 3319 
L 3144 3319 
L 1881 -56 
Q 1678 -603 1566 -809 
Q 1416 -1088 1222 -1217 
Q 1028 -1347 759 -1347 
Q 597 -1347 397 -1278 
z
" transform="scale(0.015625)"/>
       <path id="ArialMT-20" transform="scale(0.015625)"/>
       <path id="ArialMT-28" d="M 1497 -1347 
Q 1031 -759 709 28 
Q 388 816 388 1659 
Q 388 2403 628 3084 
Q 909 3875 1497 4659 
L 1900 4659 
Q 1522 4009 1400 3731 
Q 1209 3300 1100 2831 
Q 966 2247 966 1656 
Q 966 153 1900 -1347 
L 1497 -1347 
z
" transform="scale(0.015625)"/>
       <path id="ArialMT-61" d="M 2588 409 
Q 2275 144 1986 34 
Q 1697 -75 1366 -75 
Q 819 -75 525 192 
Q 231 459 231 875 
Q 231 1119 342 1320 
Q 453 1522 633 1644 
Q 813 1766 1038 1828 
Q 1203 1872 1538 1913 
Q 2219 1994 2541 2106 
Q 2544 2222 2544 2253 
Q 2544 2597 2384 2738 
Q 2169 2928 1744 2928 
Q 1347 2928 1158 2789 
Q 969 2650 878 2297 
L 328 2372 
Q 403 2725 575 2942 
Q 747 3159 1072 3276 
Q 1397 3394 1825 3394 
Q 2250 3394 2515 3294 
Q 2781 3194 2906 3042 
Q 3031 2891 3081 2659 
Q 3109 2516 3109 2141 
L 3109 1391 
Q 3109 606 3145 398 
Q 3181 191 3288 0 
L 2700 0 
Q 2613 175 2588 409 
z
M 2541 1666 
Q 2234 1541 1622 1453 
Q 1275 1403 1131 1340 
Q 988 1278 909 1158 
Q 831 1038 831 891 
Q 831 666 1001 516 
Q 1172 366 1500 366 
Q 1825 366 2078 508 
Q 2331 650 2450 897 
Q 2541 1088 2541 1459 
L 2541 1666 
z
" transform="scale(0.015625)"/>
       <path id="ArialMT-2e" d="M 581 0 
L 581 641 
L 1222 641 
L 1222 0 
L 581 0 
z
" transform="scale(0.015625)"/>
       <path id="ArialMT-75" d="M 2597 0 
L 2597 488 
Q 2209 -75 1544 -75 
Q 1250 -75 995 37 
Q 741 150 617 320 
Q 494 491 444 738 
Q 409 903 409 1263 
L 409 3319 
L 972 3319 
L 972 1478 
Q 972 1038 1006 884 
Q 1059 663 1231 536 
Q 1403 409 1656 409 
Q 1909 409 2131 539 
Q 2353 669 2445 892 
Q 2538 1116 2538 1541 
L 2538 3319 
L 3100 3319 
L 3100 0 
L 2597 0 
z
" transform="scale(0.015625)"/>
       <path id="ArialMT-29" d="M 791 -1347 
L 388 -1347 
Q 1322 153 1322 1656 
Q 1322 2244 1188 2822 
Q 1081 3291 891 3722 
Q 769 4003 388 4659 
L 791 4659 
Q 1378 3875 1659 3084 
Q 1900 2403 1900 1659 
Q 1900 816 1576 28 
Q 1253 -759 791 -1347 
z
" transform="scale(0.015625)"/>
      </defs>
      <use xlink:href="#ArialMT-49"/>
      <use xlink:href="#ArialMT-6e" x="27.783203"/>
      <use xlink:href="#ArialMT-74" x="83.398438"/>
      <use xlink:href="#ArialMT-65" x="111.181641"/>
      <use xlink:href="#ArialMT-6e" x="166.796875"/>
      <use xlink:href="#ArialMT-73" x="222.412109"/>
      <use xlink:href="#ArialMT-69" x="272.412109"/>
      <use xlink:href="#ArialMT-74" x="294.628906"/>
      <use xlink:href="#ArialMT-79" x="322.412109"/>
      <use xlink:href="#ArialMT-20" x="372.412109"/>
      <use xlink:href="#ArialMT-28" x="400.195312"/>
      <use xlink:href="#ArialMT-61" x="433.496094"/>
      <use xlink:href="#ArialMT-2e" x="489.111328"/>
      <use xlink:href="#ArialMT-75" x="516.894531"/>
      <use xlink:href="#ArialMT-2e" x="572.509766"/>
      <use xlink:href="#ArialMT-29" x="600.292969"/>
     </g>
    </g>
   </g>
   <g id="PolyCollection_1"/>
   <g id="line2d_24">
    <path d="M 98.000942 -1 
L 98.023101 0.306038 
L 98.038496 -1 
M 98.107984 -1 
L 98.137545 0.78504 
L 98.161448 -1 
M 98.206881 -1 
L 98.21513 -0.75841 
L 98.234047 -1 
M 98.339332 -1 
L 98.496272 7.916842 
L 98.513554 5.841168 
L 98.616061 4.617053 
L 98.570356 6.77256 
L 98.630887 4.962998 
L 98.738432 0.093149 
L 98.800277 2.434934 
L 98.863385 4.750109 
L 98.915385 2.647824 
L 98.949894 -1 
M 98.969845 -1 
L 99.243909 18.002486 
L 99.293568 12.653635 
L 99.319651 10.684406 
L 99.354425 13.451971 
L 99.412827 11.935133 
L 99.42898 12.414134 
L 99.488658 10.577962 
L 99.494875 10.338461 
L 99.568264 13.106026 
L 99.578218 13.904362 
L 99.647914 9.992515 
L 99.649158 9.992515 
L 99.650401 9.939293 
L 99.705194 12.227856 
L 99.77994 13.664861 
L 99.811099 12.041578 
L 99.814836 12.148022 
L 100.075591 19.41288 
L 99.837271 11.935133 
L 100.086827 19.093546 
L 100.091827 19.013712 
L 100.150541 20.690218 
L 100.171784 20.663606 
L 100.278046 25.666512 
L 100.304313 22.978781 
L 100.739056 2.009155 
L 100.323081 23.377949 
L 100.820645 5.548445 
L 100.857059 7.810397 
L 100.934949 6.213725 
L 100.987029 -1 
M 101.129835 -1 
L 101.514185 22.180445 
L 101.515448 22.153834 
L 101.530587 21.488554 
L 101.589914 22.845725 
L 101.592439 22.845725 
L 101.605066 23.377949 
L 101.66063 21.115997 
L 101.933342 -1 
M 102.274343 -1 
L 102.409128 18.348432 
L 102.428176 17.975875 
L 102.498044 20.690218 
L 102.553959 18.907267 
L 102.555234 18.933878 
L 102.581929 17.230762 
L 102.77149 8.289398 
L 102.807144 9.912682 
L 102.917973 20.344272 
L 102.954928 12.653635 
L 102.981031 -1 
M 103.318547 -1 
L 103.336575 2.621213 
L 103.355499 -1 
M 103.755024 -1 
L 103.925702 33.862762 
L 103.957791 36.231158 
L 104.023272 32.957981 
L 104.163314 28.380854 
L 104.164596 28.434077 
L 104.294485 29.897693 
L 104.213451 26.810794 
L 104.304778 29.711414 
L 104.57265 0.172982 
L 104.661617 9.007901 
L 104.912061 41.36712 
L 104.914643 41.287286 
L 105.166802 35.512656 
L 104.962453 41.36712 
L 105.221174 37.215773 
L 105.272969 39.051946 
L 105.322194 36.577104 
L 105.481642 28.806634 
L 105.517966 29.631581 
L 105.525746 30.083971 
L 105.577649 28.593744 
L 105.626977 29.631581 
L 105.764659 19.519325 
L 105.819247 22.925558 
L 106.302316 49.749648 
L 106.332314 47.647363 
L 106.33623 47.540918 
L 106.38189 46.183747 
L 106.4106 48.286032 
L 106.415823 48.206198 
L 106.45237 46.449859 
L 106.496762 49.297258 
L 106.6078 55.817002 
L 106.656165 55.311389 
L 106.678389 56.189558 
L 106.707156 54.140496 
L 106.817041 49.270646 
L 106.866776 52.064822 
L 106.902125 54.22033 
L 106.954506 51.984989 
L 106.983331 52.330934 
L 106.988567 52.251101 
L 107.002979 52.171267 
L 107.03181 53.900995 
L 107.063262 53.714717 
L 107.088171 53.315549 
L 107.161604 57.919286 
L 107.275761 63.906806 
L 107.300702 61.485187 
L 107.446497 57.227395 
L 107.451751 57.360451 
L 107.457006 57.466896 
L 107.493809 54.566275 
L 107.591117 42.112234 
L 107.696379 28.327632 
L 107.74114 33.091037 
L 107.930853 57.227395 
L 107.983592 54.67272 
L 108.046905 49.589981 
L 108.102322 53.688106 
L 108.318915 65.024477 
L 108.324202 64.918032 
L 108.410128 60.952963 
L 108.522576 60.633629 
L 108.469652 63.481027 
L 108.523896 60.66024 
L 108.529189 60.686851 
L 108.586111 59.941738 
L 108.611263 60.20785 
L 108.705306 58.770845 
L 108.745061 59.702237 
L 108.825924 61.219075 
L 108.876316 60.926352 
L 108.881622 60.846518 
L 108.89356 60.420739 
L 108.95061 62.44319 
L 109.006359 64.944643 
L 109.090014 64.758365 
L 109.131191 67.76543 
L 109.353218 74.790787 
L 109.355883 74.657731 
L 109.686194 59.622403 
L 109.76888 62.416579 
L 109.828921 64.252752 
L 109.872968 61.724688 
L 110.026555 52.118045 
L 110.067981 53.182493 
L 110.28599 67.153373 
L 110.29134 66.86065 
L 110.368988 64.545475 
L 110.306065 67.046928 
L 110.406492 66.43487 
L 110.438639 68.616989 
L 110.532447 67.658986 
L 110.611556 67.738819 
L 110.568644 67.020317 
L 110.620943 67.31304 
L 110.877329 54.246941 
L 110.906887 56.721782 
L 111.131433 72.582058 
L 111.16777 74.41823 
L 111.20815 71.916778 
L 111.263351 68.750045 
L 111.346866 69.175824 
L 111.383254 68.696822 
L 111.420994 70.532995 
L 111.632766 80.671862 
L 111.674613 79.101802 
L 111.988151 68.750045 
L 112.020624 69.814493 
L 112.196614 79.474358 
L 112.271124 78.090576 
L 112.397207 75.642346 
L 112.410764 76.360848 
L 112.52202 82.508035 
L 112.572246 81.390365 
L 112.765149 71.038608 
L 112.808653 73.806173 
L 112.950118 81.683088 
L 112.982781 81.230698 
L 113.16527 75.668957 
L 113.174803 76.387459 
L 113.293406 78.782467 
L 113.30704 78.569578 
L 113.357509 77.718019 
L 113.403896 78.676022 
L 113.421637 78.489744 
L 113.457126 80.512195 
L 113.534953 78.729245 
L 113.540418 78.542966 
L 113.603252 81.842755 
L 113.660646 83.49265 
L 113.712588 81.683088 
L 113.728996 81.762922 
L 113.838415 86.925494 
L 113.880836 83.359594 
L 114.004055 82.348368 
L 113.908207 84.211152 
L 114.008162 82.374979 
L 114.010898 82.40159 
L 114.058848 81.204086 
L 114.062955 81.097642 
L 114.18905 76.573738 
L 114.359154 45.81119 
L 114.460754 57.759619 
L 114.636636 85.967491 
L 114.713646 85.48849 
L 115.057865 92.833181 
L 115.12128 91.316342 
L 115.52853 66.328426 
L 115.545117 67.020317 
L 115.741514 84.82321 
L 115.906287 92.80657 
L 115.922906 91.742122 
L 115.927064 91.662288 
L 115.965862 94.030685 
L 116.004667 92.80657 
L 116.078144 93.312182 
L 116.050417 92.726736 
L 116.122523 92.966237 
L 116.200216 88.81489 
L 116.257119 91.156675 
L 116.266838 91.26312 
L 116.482149 96.478915 
L 116.329321 89.586614 
L 116.503002 96.053136 
L 116.820253 71.570832 
L 116.930316 63.135082 
L 116.977704 64.465642 
L 117.360097 93.578294 
L 117.386645 92.886403 
L 117.541826 88.655222 
L 117.404813 93.125904 
L 117.611771 90.677674 
L 117.779757 94.323408 
L 117.825979 92.726736 
L 117.932484 85.887658 
L 117.982952 88.282666 
L 118.162533 100.12465 
L 118.201835 98.607811 
L 118.328243 71.677277 
L 118.420992 63.747139 
L 118.458955 66.142147 
L 119.022286 109.066013 
L 119.02793 109.145846 
L 119.056143 107.921731 
L 119.108352 108.241066 
L 119.126699 107.389507 
L 119.180344 109.278902 
L 119.224117 107.974954 
L 119.470019 99.166646 
L 119.516693 101.082653 
L 119.566212 102.57288 
L 119.629894 101.295542 
L 119.743171 100.417373 
L 119.693602 102.12049 
L 119.755919 100.710096 
L 119.961429 106.857283 
L 119.784253 100.151261 
L 120.025258 106.724227 
L 120.035187 106.697616 
L 120.074917 107.868509 
L 120.110399 109.598237 
L 120.194157 108.799901 
L 120.211196 108.879734 
L 120.302115 110.236906 
L 120.343324 109.704682 
L 120.627789 103.211549 
L 120.361799 109.944182 
L 120.683315 105.367056 
L 120.70325 106.218614 
L 120.765918 103.876829 
L 120.834313 97.224029 
L 121.008263 76.254403 
L 121.079604 82.108867 
L 121.168106 96.904694 
L 121.328089 111.940022 
L 121.349523 111.407798 
L 121.356671 111.514243 
L 121.396694 113.031082 
L 121.453891 111.00863 
L 121.488213 108.746678 
L 121.551161 111.141686 
L 121.564037 111.061853 
L 121.614123 109.039402 
L 121.681408 110.715907 
L 121.794564 112.738358 
L 121.813192 112.285968 
L 121.857615 110.55624 
L 121.913524 112.658525 
L 121.920691 112.76497 
L 121.953668 111.381187 
L 122.038299 106.591171 
L 122.107178 108.932957 
L 122.308224 116.251037 
L 122.141628 107.948342 
L 122.362831 114.33503 
L 122.456276 113.110915 
L 122.490789 113.989085 
L 122.631794 116.54376 
L 122.669221 115.266422 
L 122.777231 113.190749 
L 122.811808 113.456861 
L 123.055466 116.384093 
L 122.820455 113.403638 
L 123.064126 116.117981 
L 123.412171 99.299702 
L 123.443974 101.162486 
L 123.662417 107.974954 
L 123.671102 107.629008 
L 123.71888 106.697616 
L 123.763769 108.241066 
L 123.931851 112.818192 
L 123.956499 112.76497 
L 124.027553 115.266422 
L 124.098632 113.350416 
L 124.259757 108.853123 
L 124.274278 109.651459 
L 124.508243 118.672656 
L 124.646442 119.949994 
L 124.556237 117.900931 
L 124.650804 119.923382 
L 124.674093 119.364547 
L 124.730862 121.014442 
L 124.773085 122.557891 
L 124.81969 120.242717 
L 124.885247 118.486378 
L 124.924594 120.428995 
L 124.988728 123.622339 
L 125.074763 125.245622 
L 125.109773 124.07473 
L 125.286375 116.676816 
L 125.376931 118.353322 
L 125.385693 118.486378 
L 125.4193 117.155818 
L 125.435371 116.197814 
L 125.489449 118.646045 
L 125.780572 130.088861 
L 125.862576 128.226077 
L 125.907987 129.051024 
L 126.004703 123.64895 
L 126.133738 120.828163 
L 126.142539 121.067664 
L 126.149872 121.253942 
L 126.208561 120.029827 
L 126.234975 120.08305 
L 126.243782 120.189494 
L 126.339197 121.227331 
L 126.265796 119.843549 
L 126.359757 120.375773 
L 126.386196 119.976605 
L 126.452302 121.333776 
L 126.722833 128.06641 
L 126.744904 127.959965 
L 126.756677 127.826909 
L 126.790526 129.077635 
L 126.934828 132.191146 
L 126.956925 131.100086 
L 127.077759 129.742915 
L 127.082179 129.822749 
L 127.191298 131.17992 
L 127.210474 130.807363 
L 127.256205 129.955805 
L 127.293096 131.765366 
L 127.294576 131.738755 
L 127.307853 131.791978 
L 127.324089 132.217757 
L 127.383142 129.902582 
L 127.476178 122.637725 
L 127.665349 91.768733 
L 127.725977 97.596586 
L 127.980552 127.161629 
L 127.99684 126.602794 
L 128.10203 125.219011 
L 128.128712 126.230237 
L 128.290335 129.982416 
L 128.339292 128.039798 
L 128.435765 127.773686 
L 128.371937 129.237302 
L 128.453577 127.880131 
L 128.465457 128.013187 
L 128.496642 126.682627 
L 128.544164 124.52712 
L 128.612502 126.230237 
L 128.938182 131.791978 
L 128.6883 126.097181 
L 128.970929 130.674307 
L 129.073671 129.63647 
L 128.99624 131.020253 
L 129.096017 130.168694 
L 129.137729 128.917968 
L 129.182427 130.567862 
L 129.356867 136.182826 
L 129.367307 135.83688 
L 129.498618 134.71921 
L 129.529962 134.612765 
L 129.697241 131.605699 
L 129.812323 127.614019 
L 129.982828 117.235651 
L 130.069634 119.65727 
L 130.241868 133.974096 
L 130.318292 131.978256 
L 130.52375 126.203626 
L 130.532749 126.416515 
L 130.621302 129.875971 
L 130.732417 131.233142 
L 130.65283 129.556637 
L 130.742933 130.754141 
L 130.878167 128.013187 
L 130.900716 128.279299 
L 131.273881 137.779498 
L 130.945822 127.906742 
L 131.276897 137.726275 
L 131.331122 136.794883 
L 131.407973 137.353718 
L 131.415505 137.433552 
L 131.472791 138.524611 
L 131.525561 137.460163 
L 131.833437 130.51464 
L 131.847027 130.594474 
L 131.862134 130.96703 
L 131.942206 129.796138 
L 132.060113 133.761206 
L 132.197757 141.318787 
L 132.226505 140.626896 
L 132.232557 140.680118 
L 132.293102 142.516291 
L 132.361235 141.61151 
L 132.461203 137.965776 
L 132.61428 134.852266 
L 132.615798 134.878877 
L 132.626409 134.745821 
L 132.679486 135.62399 
L 132.682522 135.62399 
L 132.697693 135.677213 
L 132.732582 134.586154 
L 132.904083 131.206531 
L 132.931415 131.446032 
L 133.001283 134.612765 
L 133.185181 143.900074 
L 133.017991 134.586154 
L 133.276425 143.288016 
L 133.442301 140.28095 
L 133.443825 140.307562 
L 133.550419 141.265565 
L 133.478842 139.988227 
L 133.570226 140.626896 
L 133.611359 139.189891 
L 133.681463 140.600285 
L 133.833934 142.888848 
L 133.711946 140.28095 
L 133.835465 142.862237 
L 133.84614 142.94207 
L 133.966681 144.831466 
L 133.981948 144.246019 
L 134.10715 136.076381 
L 134.334859 101.295542 
L 134.418973 107.868509 
L 134.741988 143.767018 
L 134.778765 142.675958 
L 134.878389 141.451843 
L 134.79715 142.888848 
L 134.899854 142.250179 
L 134.958129 144.379075 
L 135.030222 144.03313 
L 135.03329 143.953296 
L 135.176023 141.292176 
L 135.191379 141.451843 
L 135.192916 141.478454 
L 135.238984 140.440618 
L 135.306569 137.779498 
L 135.351126 140.147894 
L 135.561744 145.523357 
L 135.564825 145.496746 
L 135.644826 146.720861 
L 135.572515 145.470134 
L 135.684836 145.683024 
L 135.715618 144.964522 
L 135.754104 147.066806 
L 135.875768 150.47304 
L 135.937396 148.317533 
L 135.98055 148.131254 
L 136.034501 148.557034 
L 136.042205 148.663478 
L 136.079211 147.412752 
L 136.302921 143.500906 
L 136.310638 143.394461 
L 136.656713 132.404035 
L 136.712385 133.202371 
L 136.987865 147.519197 
L 137.076163 144.139574 
L 137.144341 141.984067 
L 137.200141 143.234794 
L 137.214094 143.314627 
L 137.276118 144.618576 
L 137.228047 143.15496 
L 137.361431 144.591965 
L 137.376947 144.69841 
L 137.383152 144.751632 
L 137.418839 143.554128 
L 137.581845 140.04145 
L 137.448326 144.379075 
L 137.647083 141.531677 
L 137.659512 141.61151 
L 137.802494 148.078032 
L 137.86469 146.507971 
L 137.986022 144.166186 
L 137.900459 146.720861 
L 138.015586 145.736246 
L 138.232007 151.723766 
L 138.042045 145.443523 
L 138.238244 151.510877 
L 138.302124 151.750378 
L 138.581239 143.500906 
L 138.812295 148.02481 
L 138.818545 147.865142 
L 138.881034 147.199862 
L 138.904477 148.290922 
L 139.065493 151.59071 
L 139.07488 151.404432 
L 139.137447 150.872208 
L 139.192207 151.271376 
L 139.248549 151.830211 
L 139.282986 150.978653 
L 139.292379 150.712541 
L 139.356572 152.176157 
L 139.370665 152.495491 
L 139.431752 150.978653 
L 139.649614 144.03313 
L 139.666864 144.618576 
L 139.963465 154.305053 
L 139.965034 154.25183 
L 140.032568 154.092163 
L 140.046712 154.704221 
L 140.213296 161.33041 
L 140.246317 160.798186 
L 140.493329 152.415658 
L 140.51065 152.947882 
L 140.52482 153.293827 
L 140.586231 151.776989 
L 140.718564 147.732086 
L 141.003979 110.822352 
L 141.068681 119.258102 
L 141.376685 155.422723 
L 141.42885 152.92127 
L 141.59808 144.671798 
L 141.715196 146.960362 
L 141.960703 153.852662 
L 141.962291 153.826051 
L 141.9718 153.746218 
L 142.000325 152.122934 
L 142.051055 154.597776 
L 142.058982 154.517942 
L 142.078011 154.624387 
L 142.231872 156.646838 
L 142.241393 156.46056 
L 142.281066 156.300893 
L 142.336623 157.12584 
L 142.403309 160.186128 
L 142.484311 159.680515 
L 142.533562 158.00401 
L 142.617791 158.429789 
L 142.6941 159.254736 
L 142.748166 159.095069 
L 142.75453 159.148291 
L 142.83089 162.075523 
L 142.897723 160.851408 
L 143.241757 145.1508 
L 143.244945 145.070966 
L 143.260882 144.591965 
L 143.326254 146.055581 
L 143.607078 162.714192 
L 143.634219 162.527914 
L 143.867469 156.833117 
L 144.097767 150.872208 
L 144.107364 150.978653 
L 144.595943 166.040592 
L 144.652075 165.401923 
L 144.769204 166.679261 
L 144.656889 165.375312 
L 144.788462 165.934147 
L 144.878355 163.352861 
L 144.92332 163.56575 
L 144.940985 163.645584 
L 145.038976 159.813571 
L 145.172379 157.817731 
L 145.178807 157.870954 
L 145.188456 157.764509 
L 145.267252 156.859728 
L 145.296204 157.737898 
L 145.550506 165.588202 
L 145.563387 165.481757 
L 145.614927 165.56159 
L 145.661653 166.359926 
L 145.732554 165.960758 
L 145.739001 165.907536 
L 145.900228 163.379472 
L 146.055116 160.558685 
L 146.095471 161.942467 
L 146.145512 163.32625 
L 146.206879 162.102134 
L 146.23918 161.543299 
L 146.303799 162.740803 
L 146.41693 164.151197 
L 146.426629 163.831862 
L 146.4913 163.086749 
L 146.525258 164.390698 
L 146.581868 165.242256 
L 146.636877 164.44392 
L 146.695133 162.740803 
L 146.745314 164.44392 
L 146.904009 166.865539 
L 146.921834 166.971984 
L 146.989884 167.98321 
L 147.038503 167.158262 
L 147.046609 167.264707 
L 147.096867 168.142877 
L 147.17308 167.530819 
L 147.190917 167.637264 
L 147.320711 168.22271 
L 147.255805 167.31793 
L 147.327203 168.089654 
L 147.384011 162.687581 
L 147.634135 117.42193 
L 147.70077 125.485123 
L 148.027732 166.359926 
L 148.037502 166.120426 
L 148.205234 162.368246 
L 148.216636 162.102134 
L 148.28181 163.139971 
L 148.296478 162.980304 
L 148.306254 163.086749 
L 148.394278 165.135811 
L 148.487231 164.23103 
L 148.588372 163.139971 
L 148.627541 163.698806 
L 148.834894 166.838928 
L 148.890438 166.519594 
L 148.913313 167.158262 
L 148.929658 167.051818 
L 149.035895 170.245162 
L 149.117656 169.579882 
L 149.12256 169.473437 
L 149.30744 167.371152 
L 149.327081 167.929987 
L 149.364732 168.329155 
L 149.405667 167.850154 
L 149.440053 168.063043 
L 149.582575 165.694646 
L 149.458068 168.408989 
L 149.643209 166.492982 
L 149.674355 166.971984 
L 149.718619 165.375312 
L 149.961409 152.415658 
L 149.981102 152.309213 
L 150.017216 153.293827 
L 150.31455 172.107946 
L 150.39839 170.910442 
L 150.701139 164.470531 
L 150.706081 164.497142 
L 150.707726 164.523754 
L 150.737367 163.273027 
L 150.855957 162.421469 
L 150.862544 162.554525 
L 150.943285 165.641424 
L 151.139491 172.586947 
L 151.185681 172.001501 
L 151.291286 170.085494 
L 151.352366 171.043498 
L 151.50925 173.332061 
L 151.519167 173.225616 
L 151.565427 173.864285 
L 151.657978 169.207325 
L 151.74891 162.740803 
L 151.869661 159.99985 
L 151.881242 160.345795 
L 151.985502 167.238096 
L 152.159368 175.673846 
L 152.197472 175.407734 
L 152.204098 175.30129 
L 152.233917 174.343286 
L 152.288607 175.727069 
L 152.328388 174.87551 
L 152.719906 169.76616 
L 152.739829 170.005661 
L 152.778028 170.484662 
L 152.834497 169.76616 
L 152.836155 169.76616 
L 152.846123 169.659715 
L 152.895967 168.355766 
L 152.939172 169.819382 
L 153.132016 176.498794 
L 153.138668 176.445571 
L 153.208536 177.53663 
L 153.296725 179.426026 
L 153.336672 178.62769 
L 153.384947 177.909187 
L 153.441563 178.707523 
L 153.468207 178.281744 
L 153.491522 178.388189 
L 153.626475 180.091306 
L 153.639809 179.638915 
L 153.648144 179.505859 
L 153.716488 180.703363 
L 153.718152 180.676752 
L 153.786515 181.208976 
L 153.955006 175.168234 
L 154.093556 147.465974 
L 154.255573 117.741264 
L 154.302356 120.721718 
L 154.360854 131.472643 
L 154.638489 176.951184 
L 154.653552 177.137462 
L 154.685348 175.96657 
L 154.956651 170.404829 
L 154.965024 170.591107 
L 154.981783 170.484662 
L 154.988486 170.43144 
L 155.018656 171.09672 
L 155.055529 171.070109 
L 155.077319 170.963664 
L 155.092408 170.803997 
L 155.120913 171.895056 
L 155.130977 171.868445 
L 155.136002 171.97489 
L 155.273544 175.913347 
L 155.328917 175.700458 
L 155.458162 178.281744 
L 155.4632 178.388189 
L 155.614364 180.889642 
L 155.649649 180.836419 
L 155.651326 180.809808 
L 155.691655 181.821034 
L 155.705104 182.273424 
L 155.79756 181.581533 
L 155.81437 181.475088 
L 155.873231 180.729974 
L 155.935466 181.315421 
L 155.970795 181.395254 
L 156.053252 183.311261 
L 156.107113 182.19359 
L 156.113847 182.087146 
L 156.58566 168.036432 
L 156.639643 168.941213 
L 156.747633 172.400669 
L 156.855668 175.727069 
L 156.924905 175.54079 
L 157.300136 170.617718 
L 157.315358 171.123331 
L 157.533667 174.502954 
L 157.774194 179.984861 
L 157.821646 182.007312 
L 157.911494 181.661366 
L 157.935236 181.7412 
L 157.974238 182.752426 
L 158.060751 182.19359 
L 158.298389 176.738294 
L 158.349336 175.061789 
L 158.435975 175.780291 
L 158.468263 176.445571 
L 158.54644 175.75368 
L 158.580443 175.673846 
L 158.592343 175.514179 
L 158.646753 176.977795 
L 158.874723 180.650141 
L 158.890041 180.729974 
L 159.073945 183.018538 
L 159.092681 182.912093 
L 159.425083 178.468022 
L 159.445547 179.133302 
L 159.551338 179.612304 
L 159.517207 178.893802 
L 159.55987 179.372803 
L 159.641798 178.015632 
L 159.681068 179.026858 
L 159.706679 179.133302 
L 159.802323 179.692138 
L 159.742544 178.361578 
L 159.817698 179.213136 
L 159.83991 178.893802 
L 159.901424 180.490474 
L 160.115128 185.466768 
L 160.24343 184.162819 
L 160.373517 181.395254 
L 160.397483 181.448477 
L 160.620172 176.365738 
L 160.731587 155.609002 
L 160.923673 122.052278 
L 160.957989 124.899677 
L 161.062682 148.237699 
L 161.27735 184.056374 
L 161.291099 184.40232 
L 161.330618 183.391094 
L 161.347804 183.444317 
L 161.354679 183.364483 
L 161.548946 180.517085 
L 161.554105 180.570307 
L 161.607431 181.155754 
L 161.638398 179.851805 
L 161.782955 176.63185 
L 161.789842 176.738294 
L 162.092993 184.109597 
L 162.129189 183.816874 
L 162.198145 182.779037 
L 162.239533 183.763651 
L 162.522493 189.112502 
L 162.569104 187.143274 
L 162.676176 185.466768 
L 162.598458 187.409386 
L 162.707271 186.211882 
L 162.791934 187.648886 
L 162.82477 186.61105 
L 162.956152 185.440157 
L 162.966527 185.599824 
L 162.994198 185.865936 
L 163.025331 184.029763 
L 163.229502 172.320835 
L 163.255469 172.932893 
L 163.281437 172.853059 
L 163.355897 176.152848 
L 163.607124 190.416451 
L 163.645266 190.017283 
L 163.941892 179.851805 
L 163.966195 180.330806 
L 164.011333 179.612304 
L 164.059946 180.570307 
L 164.40398 191.347843 
L 164.410937 191.454288 
L 164.544851 192.864682 
L 164.574428 192.252624 
L 164.586609 192.17279 
L 164.87733 186.637661 
L 164.891264 186.744106 
L 164.899975 186.877162 
L 164.952236 185.307101 
L 165.164882 175.96657 
L 165.225917 177.802742 
L 165.562732 191.880067 
L 165.56448 191.853456 
L 165.625605 191.188176 
L 165.686749 191.480899 
L 165.711205 191.374454 
L 165.796837 191.241398 
L 165.756636 191.800234 
L 165.819559 191.401066 
L 165.826548 191.321232 
L 165.854519 191.081731 
L 165.931452 191.454288 
L 165.9332 191.454288 
L 165.94369 191.347843 
L 166.036388 188.287555 
L 166.165876 185.014378 
L 166.195632 185.28049 
L 166.214884 185.174045 
L 166.300676 185.094211 
L 166.25515 185.73288 
L 166.311179 185.333712 
L 166.666903 196.510416 
L 166.703724 197.122474 
L 166.733537 196.16447 
L 166.758096 196.244304 
L 166.979198 192.997738 
L 167.026599 193.849296 
L 167.033627 193.742851 
L 167.052937 193.50335 
L 167.096843 194.248464 
L 167.110892 194.248464 
L 167.175888 194.993578 
L 167.196964 193.875907 
L 167.307678 177.376963 
L 167.548581 119.843549 
L 167.620713 128.226077 
L 167.960544 193.902518 
L 168.031025 191.826845 
L 168.288444 183.896707 
L 168.311377 184.136208 
L 168.31667 184.082986 
L 168.387245 184.668432 
L 168.413717 184.561987 
L 168.415483 184.535376 
L 168.496677 184.987766 
L 168.516096 184.934544 
L 168.650303 188.899613 
L 168.832293 194.328298 
L 168.841132 194.221853 
L 168.849971 194.142019 
L 168.885326 194.887133 
L 168.941897 194.354909 
L 168.964887 194.514576 
L 169.040934 194.062186 
L 169.042707 194.062186 
L 169.099317 193.689629 
L 169.06393 194.328298 
L 169.143549 194.195242 
L 169.251508 195.525802 
L 169.157706 194.088797 
L 169.283374 194.727466 
L 169.428588 192.651792 
L 169.854039 179.372803 
L 169.937433 180.650141 
L 170.278368 195.445968 
L 170.321012 193.130794 
L 170.587704 181.448477 
L 170.601938 181.262198 
L 170.632178 182.433091 
L 170.774542 189.085891 
L 170.847528 188.686723 
L 171.202065 197.335363 
L 171.234155 196.936195 
L 171.2502 197.04264 
L 171.539206 190.735786 
L 171.782054 179.399414 
L 171.79813 179.718749 
L 171.805279 179.825194 
L 171.916069 186.371549 
L 172.159243 196.217693 
L 172.225437 197.974032 
L 172.295229 197.016029 
L 172.368617 196.616861 
L 172.327446 197.388586 
L 172.404425 197.016029 
L 172.434863 197.628086 
L 172.495745 196.803139 
L 172.501121 196.803139 
L 172.510075 196.723306 
L 172.610393 196.217693 
L 172.631897 196.403971 
L 172.633689 196.430582 
L 172.691032 195.632246 
L 172.890044 191.108342 
L 172.925915 191.880067 
L 173.126885 196.457194 
L 173.283093 199.224758 
L 173.293864 199.331203 
L 173.469937 202.231824 
L 173.527452 202.684214 
L 173.554415 201.885878 
L 173.55981 201.939101 
L 173.592167 201.832656 
L 173.624538 201.566544 
L 173.667692 202.338269 
L 173.673087 202.444714 
L 173.712657 202.843882 
L 173.782818 202.471325 
L 173.808008 202.524547 
L 173.861991 199.783594 
L 173.968189 180.596918 
L 174.198729 126.496349 
L 174.261799 131.871811 
L 174.409615 173.704618 
L 174.591791 200.502096 
L 174.618856 199.863427 
L 174.62427 199.943261 
L 174.651341 200.262595 
L 174.698264 198.878813 
L 174.86076 190.84223 
L 175.045027 186.451382 
L 175.057679 186.344938 
L 175.075752 186.211882 
L 175.117325 186.983606 
L 175.457354 201.24721 
L 175.466403 201.087542 
L 175.482691 200.874653 
L 175.546047 201.992323 
L 175.576824 201.646378 
L 175.625711 202.418102 
L 175.703588 203.163216 
L 175.736195 202.524547 
L 175.881154 199.836816 
L 175.9029 200.023094 
L 175.91559 199.91665 
L 176.017114 197.761142 
L 176.071518 199.198147 
L 176.138631 200.049706 
L 176.176728 198.958646 
L 176.523466 186.424771 
L 176.552526 187.223107 
L 176.934275 203.988163 
L 176.994309 201.859267 
L 177.238216 192.092957 
L 177.261888 192.013123 
L 177.318351 191.50751 
L 177.349319 192.678403 
L 177.72117 201.832656 
L 177.746704 201.060931 
L 177.845224 200.262595 
L 177.870771 200.874653 
L 177.98394 202.870493 
L 178.013154 202.258435 
L 178.109933 202.57777 
L 178.046015 202.045546 
L 178.130027 202.36488 
L 178.197612 199.783594 
L 178.437042 187.409386 
L 178.471785 187.861776 
L 178.491905 187.781942 
L 178.532138 188.580278 
L 178.572378 190.709174 
L 178.920149 204.57361 
L 178.945792 204.680054 
L 178.998913 205.345334 
L 179.053878 204.706666 
L 179.216999 203.189827 
L 179.231666 203.083382 
L 179.316017 200.262595 
L 179.402223 197.069251 
L 179.503135 198.000643 
L 179.72159 202.710826 
L 180.056014 206.56945 
L 180.087268 206.436394 
L 180.10198 206.223504 
L 180.158986 206.942006 
L 180.271198 207.128285 
L 180.228885 206.622672 
L 180.274877 207.101674 
L 180.42395 206.35656 
L 180.341123 207.607286 
L 180.429472 206.436394 
L 180.447877 206.915395 
L 180.492064 205.212278 
L 180.574928 191.374454 
L 180.836576 122.424835 
L 180.921379 132.989482 
L 181.305156 205.877558 
L 181.310698 205.771114 
L 181.794818 194.221853 
L 181.809613 194.487965 
L 182.257499 207.793565 
L 182.357531 207.075062 
L 182.376057 207.181507 
L 182.409416 206.250115 
L 182.719039 203.189827 
L 182.459451 206.276726 
L 182.726455 203.269661 
L 182.733878 203.376106 
L 182.743151 203.455939 
L 182.785826 202.604381 
L 183.067977 194.727466 
L 183.075406 194.860522 
L 183.082835 194.940355 
L 183.125556 193.157405 
L 183.151562 192.651792 
L 183.222157 193.529962 
L 183.235166 193.636406 
L 183.346677 199.969872 
L 183.534477 209.869238 
L 183.56424 209.23057 
L 183.70006 205.717891 
L 183.966306 198.58609 
L 184.025913 199.49087 
L 184.383824 209.975683 
L 184.495755 209.762794 
L 184.803784 203.855107 
L 185.106513 189.538282 
L 185.145777 190.549507 
L 185.684774 214.526198 
L 185.782191 213.115805 
L 185.971503 204.600221 
L 186.076515 201.220598 
L 186.138412 202.178602 
L 186.44058 210.34824 
L 186.496922 210.933686 
L 186.457486 210.241795 
L 186.577688 210.747408 
L 186.598357 210.667574 
L 186.641568 211.412688 
L 186.748685 212.636803 
L 186.776885 212.184413 
L 186.976209 209.523293 
L 186.97809 209.549904 
L 186.991252 209.656349 
L 187.058984 208.698346 
L 187.162485 202.657603 
L 187.264137 178.62769 
L 187.488261 123.169949 
L 187.541026 128.492189 
L 187.710671 179.905027 
L 187.918138 212.690026 
L 188.020039 209.709571 
L 188.305154 195.605635 
L 188.365616 196.430582 
L 188.978389 213.275472 
L 189.054124 212.716637 
L 189.357243 204.706666 
L 189.084422 212.876304 
L 189.434961 205.079222 
L 189.446338 204.999389 
L 189.639782 202.657603 
L 189.647371 202.551158 
L 189.833347 197.095862 
L 189.894102 198.719146 
L 190.167624 211.199798 
L 190.275959 210.188573 
L 190.346299 207.660509 
L 190.57645 202.338269 
L 190.624024 202.950326 
L 190.631632 203.056771 
L 190.688733 205.398557 
L 190.983899 213.142416 
L 191.004854 212.902915 
L 191.042964 213.754474 
L 191.126817 215.590646 
L 191.1821 215.404368 
L 191.212602 215.297923 
L 191.395684 211.199798 
L 191.718246 196.882973 
L 191.800364 198.905424 
L 192.106123 212.450525 
L 192.283981 215.643869 
L 192.318418 215.271312 
L 192.55765 209.89585 
L 192.689784 206.542838 
L 192.733844 206.14367 
L 192.793234 206.702506 
L 193.023239 211.386077 
L 193.20736 215.484202 
L 193.358957 216.734928 
L 193.222709 215.404368 
L 193.381985 216.415594 
L 193.489497 215.803536 
L 193.50486 216.016426 
L 193.587444 217.400208 
L 193.650833 216.522038 
L 193.660437 216.415594 
L 193.721919 214.100419 
L 193.837236 198.532867 
L 194.123774 123.915062 
L 194.198814 132.457258 
L 194.580065 215.67048 
L 194.655207 214.047197 
L 195.013845 196.962806 
L 195.141196 200.182762 
L 195.473318 218.491267 
L 195.482979 218.597712 
L 195.560264 219.928272 
L 195.618245 219.050102 
L 195.902487 209.47007 
L 195.94698 208.778179 
L 196.016638 209.310403 
L 196.134704 210.907075 
L 196.159868 210.321629 
L 196.458146 196.882973 
L 196.529851 199.517482 
L 196.68106 210.241795 
L 196.849805 216.255926 
L 196.861443 216.069648 
L 196.95652 213.275472 
L 197.142879 208.512067 
L 197.150647 208.671734 
L 197.195312 208.13951 
L 197.327402 210.481296 
L 197.410955 213.142416 
L 197.630622 217.160707 
L 197.650073 216.681706 
L 197.760939 215.697091 
L 197.786231 215.989814 
L 197.91077 216.388982 
L 197.832931 215.963203 
L 197.918557 216.282538 
L 197.941916 216.176093 
L 197.99447 213.940752 
L 198.411344 200.262595 
L 198.432784 200.502096 
L 198.567316 203.828496 
L 198.887296 219.076714 
L 198.899011 218.890435 
L 199.33265 211.46591 
L 199.424532 210.268406 
L 199.467546 210.747408 
L 200.04293 223.414339 
L 200.060556 223.307894 
L 200.089942 223.547395 
L 200.330992 218.145322 
L 200.429028 209.68296 
L 200.582022 170.351606 
L 200.768457 124.181174 
L 200.821458 128.492189 
L 200.968738 173.784451 
L 201.202556 220.99272 
L 201.224181 221.365277 
L 201.271359 220.487107 
L 201.540793 205.026 
L 201.649026 200.661763 
L 201.713977 200.688374 
L 201.788787 203.163216 
L 202.265606 223.307894 
L 202.269547 223.254672 
L 202.502288 218.677546 
L 202.701624 213.860918 
L 202.717421 213.967363 
L 202.727292 214.073808 
L 202.796402 213.195638 
L 203.102632 205.824336 
L 203.13821 206.968618 
L 203.510042 221.711222 
L 203.579311 220.380662 
L 203.886236 212.450525 
L 203.921897 212.157802 
L 203.963508 212.876304 
L 204.169643 216.78815 
L 204.179559 216.867984 
L 204.532668 223.361117 
L 204.542597 223.44095 
L 204.550537 223.547395 
L 204.637878 223.015171 
L 204.687518 220.912886 
L 205.005374 200.661763 
L 205.11272 203.881718 
L 205.492658 222.083779 
L 205.494647 222.057168 
L 205.528484 222.589392 
L 205.606126 222.137002 
L 205.914863 216.495427 
L 205.922834 216.601872 
L 205.938777 216.495427 
L 206.08628 215.430979 
L 206.088276 215.45759 
L 206.15208 215.537424 
L 206.49723 221.791056 
L 206.525174 221.684611 
L 206.708881 219.768605 
L 206.575088 221.977334 
L 206.736844 220.32744 
L 206.910666 222.216835 
L 206.916661 222.163613 
L 206.962627 222.589392 
L 207.054579 215.564035 
L 207.176555 188.074666 
L 207.410634 127.959965 
L 207.462672 132.137923 
L 207.608817 173.039338 
L 207.855204 221.737834 
L 207.979463 222.616003 
L 207.985476 222.562781 
L 208.075694 219.954883 
L 208.360535 205.505002 
L 208.396655 205.930781 
L 208.603434 218.54449 
L 208.816354 225.64968 
L 208.844484 225.463402 
L 208.900756 225.516624 
L 208.920856 225.011011 
L 208.965076 225.170678 
L 209.131959 220.77983 
L 209.373372 215.537424 
L 209.383435 215.430979 
L 209.669335 210.80063 
L 209.693505 210.907075 
L 209.913134 219.608938 
L 210.102643 225.64968 
L 210.112725 225.543235 
L 210.138948 225.43679 
L 210.528407 214.33992 
L 210.54456 214.446365 
L 210.677849 217.639709 
L 211.009262 226.368182 
L 211.162951 227.006851 
L 211.031499 226.341571 
L 211.164973 226.98024 
L 211.290399 223.946563 
L 211.638584 203.269661 
L 211.699346 204.334109 
L 211.863461 215.111645 
L 212.082402 224.159453 
L 212.088485 224.10623 
L 212.102681 224.053008 
L 212.137156 224.877955 
L 212.183805 225.596458 
L 212.260898 225.277123 
L 212.709543 219.103325 
L 212.780648 219.901661 
L 213.236052 227.272963 
L 213.341849 228.630134 
L 213.364233 228.204355 
L 213.378479 228.09791 
L 213.529114 226.820573 
L 213.535217 226.873795 
L 213.557613 226.76735 
L 213.645178 224.265898 
L 213.753136 207.421008 
L 214.042538 131.39281 
L 214.136339 143.15496 
L 214.509733 227.406019 
L 214.597528 225.729514 
L 214.650624 223.707062 
L 214.916213 209.576515 
L 214.997974 207.953232 
L 215.038858 209.044291 
L 215.155406 214.951978 
L 215.404995 227.672131 
L 215.421365 227.64552 
L 215.464347 228.284189 
L 215.468441 228.284189 
L 215.495053 228.390634 
L 215.515524 228.52369 
L 215.542135 228.044688 
L 215.589224 228.204355 
L 215.638367 228.230966 
L 215.845254 223.467562 
L 216.083006 218.171933 
L 216.089154 218.198544 
L 216.107609 218.384822 
L 216.150668 217.586486 
L 216.380417 214.898755 
L 216.4153 215.590646 
L 216.66985 225.064234 
L 216.788975 226.607683 
L 216.813623 226.368182 
L 216.856771 226.261738 
L 217.0849 221.897501 
L 217.12396 220.673386 
L 217.216493 221.045942 
L 217.558046 227.033462 
L 217.599217 227.139907 
L 217.844284 229.801027 
L 217.873128 229.295414 
L 218.017372 222.722448 
L 218.297775 206.063837 
L 218.400919 208.538678 
L 218.568077 219.289603 
L 218.900543 230.732419 
L 218.908801 230.75903 
L 218.948059 230.013917 
L 219.220899 223.733674 
L 219.299478 221.312054 
L 219.38842 219.795216 
L 219.438066 220.247606 
L 219.549806 223.095005 
L 219.845865 230.359862 
L 219.932862 230.120362 
L 219.947364 229.987306 
L 220.019885 230.492918 
L 220.030241 230.439696 
L 220.044749 230.333251 
L 220.1235 229.162358 
L 220.077904 230.386474 
L 220.204343 229.64136 
L 220.21264 229.801027 
L 220.249959 227.991466 
L 220.40757 207.554064 
L 220.702226 135.1716 
L 220.785276 145.549968 
L 221.18414 230.75903 
L 221.296397 228.177744 
L 221.629208 211.918301 
L 221.658345 212.051357 
L 221.666667 212.157802 
L 221.749927 214.579421 
L 222.089389 229.64136 
L 222.149812 229.455082 
L 222.178987 229.534915 
L 222.214419 229.85425 
L 222.264441 228.97608 
L 222.445839 225.383568 
L 223.017684 218.11871 
L 223.063637 218.890435 
L 223.473273 230.439696 
L 223.569479 229.002691 
L 223.797532 223.547395 
L 223.822651 223.574006 
L 223.904285 221.631389 
L 223.973375 223.068394 
L 224.119973 226.341571 
L 224.371411 231.770256 
L 224.394471 231.876701 
L 224.396562 231.903312 
L 224.44897 231.18481 
L 224.591556 227.964854 
L 224.86849 213.169027 
L 224.977635 210.108739 
L 225.028027 211.173187 
L 225.166622 220.620163 
L 225.418748 233.260483 
L 225.454479 233.899152 
L 225.509131 233.047594 
L 225.78252 226.873795 
L 225.986633 222.349891 
L 226.039257 223.148227 
L 226.159262 226.048848 
L 226.502652 234.910378 
L 226.633345 234.404765 
L 226.643893 234.29832 
L 226.903309 229.64136 
L 227.015145 215.88337 
L 227.342394 142.782403 
L 227.422663 151.750378 
L 227.864453 232.116202 
L 227.904635 231.238032 
L 227.965983 229.109136 
L 228.194527 216.309149 
L 228.291913 213.648029 
L 228.338498 214.153642 
L 228.452865 219.795216 
L 228.724085 233.978986 
L 228.787678 233.872541 
L 228.817364 233.766096 
L 229.366863 222.349891 
L 229.379604 222.403114 
L 229.462418 221.20561 
L 229.530379 221.897501 
L 229.553745 221.791056 
L 229.557992 221.737834 
L 229.613225 222.429725 
L 230.106407 232.036368 
L 230.117038 231.929923 
L 230.297887 229.295414 
L 230.451143 227.618909 
L 230.515023 227.964854 
L 230.713097 230.146973 
L 230.913403 234.032208 
L 231.113805 237.331997 
L 231.13513 236.826384 
L 231.29938 229.987306 
L 231.602453 211.146576 
L 231.621668 211.412688 
L 231.675057 213.355306 
L 232.087429 235.974826 
L 232.162252 236.400605 
L 232.196465 235.974826 
L 232.59225 228.789802 
L 232.594392 228.816413 
L 232.637202 228.896246 
L 232.956295 234.29832 
L 232.962723 234.245098 
L 232.975573 234.324931 
L 233.159873 236.906218 
L 233.185592 236.799773 
L 233.198454 236.719939 
L 233.316374 236.187715 
L 233.237042 236.74655 
L 233.324951 236.267549 
L 233.333529 236.347382 
L 233.415029 236.028048 
L 233.423606 235.948214 
L 233.554465 229.987306 
L 233.651027 217.320374 
L 233.966632 147.226474 
L 234.043955 153.905885 
L 234.213702 199.03848 
L 234.448024 234.697488 
L 234.499634 235.708714 
L 234.562002 234.803933 
L 234.947207 218.890435 
L 235.046263 220.912886 
L 235.526781 236.74655 
L 235.561281 235.921603 
L 235.992765 227.991466 
L 236.202197 225.915792 
L 236.236755 226.31496 
L 236.547896 231.504144 
L 236.725174 234.936989 
L 236.727336 234.910378 
L 236.742475 235.016822 
L 236.757614 235.17649 
L 236.824664 234.697488 
L 237.220678 229.667971 
L 237.272639 230.466307 
L 237.536901 236.560272 
L 237.545568 236.480438 
L 237.558564 236.586883 
L 237.66042 239.088336 
L 237.747124 238.50289 
L 237.838183 236.028048 
L 237.944445 230.705808 
L 238.209135 212.902915 
L 238.256887 213.328694 
L 238.443597 224.239286 
L 238.732513 239.567338 
L 238.75424 239.487504 
L 239.032501 233.313706 
L 239.236965 230.75903 
L 239.282657 231.610589 
L 239.596113 236.560272 
L 239.604824 236.666717 
L 239.766 238.449667 
L 239.829184 238.050499 
L 239.844432 237.944054 
L 239.855331 237.864221 
L 239.90763 238.529501 
L 239.922884 238.556112 
L 239.966471 237.970666 
L 239.968652 237.970666 
L 240.007885 238.183555 
L 240.230281 228.896246 
L 240.387337 199.517482 
L 240.618668 158.775734 
L 240.651415 159.920016 
L 240.716915 168.249322 
L 241.147282 237.598109 
L 241.199741 236.666717 
L 241.597789 220.699997 
L 241.694078 222.53617 
L 241.919561 234.803933 
L 242.046593 237.598109 
L 242.086023 237.518275 
L 242.596756 225.64968 
L 242.65598 226.288349 
L 242.669143 226.368182 
L 242.730568 225.596458 
L 242.737149 225.596458 
L 242.754705 225.702902 
L 242.991737 229.880861 
L 243.283829 238.263389 
L 243.327768 238.050499 
L 243.820217 232.861315 
L 243.369519 238.210166 
L 243.859813 232.914538 
L 244.23176 238.74239 
L 244.31324 239.647171 
L 244.359487 239.194781 
L 244.48946 236.29416 
L 244.899447 214.872144 
L 244.981055 217.692931 
L 245.195065 233.340317 
L 245.398145 240.07295 
L 245.424643 240.179395 
L 245.442307 240.28584 
L 245.486469 239.780227 
L 245.501927 239.780227 
L 245.524018 239.673782 
L 245.689689 236.347382 
L 245.873109 233.366928 
L 245.881954 233.42015 
L 245.912902 233.526595 
L 245.930586 233.499984 
L 246.072095 236.74655 
L 246.295505 242.201846 
L 246.419426 243.452573 
L 246.47476 243.026794 
L 246.494682 242.920349 
L 246.627518 241.82929 
L 246.660731 242.228458 
L 246.682878 242.361514 
L 246.727174 241.696234 
L 246.778115 239.806838 
L 246.913253 225.223901 
L 247.254621 163.56575 
L 247.330018 170.085494 
L 247.796034 240.206006 
L 247.882636 239.301226 
L 248.033678 233.047594 
L 248.244775 225.809347 
L 248.282565 226.368182 
L 248.46932 233.473373 
L 248.736261 241.030954 
L 248.780767 241.057565 
L 248.974415 236.852995 
L 249.257261 230.679197 
L 249.315191 230.359862 
L 249.344156 230.918698 
L 249.348613 230.918698 
L 249.393183 231.025142 
L 249.691914 235.894992 
L 249.979689 241.323677 
L 250.015395 241.030954 
L 250.379325 234.990211 
L 250.406129 234.724099 
L 250.466444 235.256323 
L 250.839691 241.030954 
L 250.994005 242.095402 
L 251.0119 241.988957 
L 251.13047 239.248003 
L 251.513245 220.646774 
L 251.602831 222.057168 
L 252.060009 245.102467 
L 252.172132 243.904963 
L 252.203533 243.798518 
L 252.320183 241.110787 
L 252.627657 235.016822 
L 252.674803 235.282934 
L 252.692768 235.389379 
L 252.793826 237.864221 
L 253.049945 243.026794 
L 253.070167 243.15985 
L 253.146585 242.893738 
L 253.148836 242.893738 
L 253.189299 243.000182 
L 253.312951 243.532406 
L 253.326445 243.372739 
L 253.528875 232.462147 
L 253.895733 174.103786 
L 253.994815 181.554922 
L 254.413901 242.361514 
L 254.517606 239.993117 
L 254.876263 228.576912 
L 254.939448 228.97608 
L 255.013933 231.131587 
L 255.361691 244.357354 
L 255.476914 243.638851 
L 255.544709 241.536566 
L 255.908716 229.534915 
L 256.173425 233.925763 
L 256.440557 239.434282 
L 256.48359 239.327837 
L 256.596836 239.966506 
L 256.61723 240.07295 
L 256.644415 240.312451 
L 256.694259 240.019728 
L 256.735041 240.179395 
L 256.941297 239.061725 
L 256.97984 238.95528 
L 257.054663 238.769002 
L 257.018384 239.035114 
L 257.097754 238.875446 
L 257.399476 242.095402 
L 257.453943 241.776067 
L 257.476639 241.882512 
L 257.617389 243.000182 
L 257.646902 242.601014 
L 257.86039 238.795613 
L 258.208097 225.170678 
L 258.246749 225.889181 
L 258.339977 230.652586 
L 258.63798 243.798518 
L 258.708531 245.049245 
L 258.767711 244.27752 
L 259.179904 238.822224 
L 259.273322 239.62056 
L 259.469343 241.643011 
L 259.483022 241.749456 
L 259.683698 243.851741 
L 259.743005 244.862966 
L 259.845671 244.49041 
L 260.110425 240.099562 
L 260.23372 226.607683 
L 260.544402 182.007312 
L 260.576396 183.045149 
L 260.697536 199.03848 
L 261.029122 242.94696 
L 261.086319 243.053405 
L 261.097759 243.186461 
L 261.159535 242.28168 
L 261.53268 231.344477 
L 261.567034 231.903312 
L 261.862583 241.350288 
L 262.009283 244.596854 
L 262.036794 244.357354 
L 262.300527 240.046339 
L 262.502446 235.788547 
L 262.640167 234.324931 
L 262.670012 234.457987 
L 262.688378 234.564432 
L 262.970866 239.114947 
L 263.230537 244.330742 
L 263.271912 244.596854 
L 263.317891 244.091242 
L 263.508759 240.605174 
L 263.630678 239.700394 
L 263.63988 239.806838 
L 263.803256 241.030954 
L 264.286822 245.581469 
L 264.296037 245.475024 
L 264.438904 242.547792 
L 264.579513 236.773162 
L 264.782428 228.284189 
L 264.830862 228.603523 
L 264.918522 230.892086 
L 265.297031 246.379805 
L 265.377855 247.524086 
L 265.426353 246.832195 
L 265.678168 242.654237 
L 265.786783 241.6164 
L 265.812209 242.095402 
L 266.108178 244.224298 
L 266.126678 244.330742 
L 266.364986 245.794358 
L 266.367301 245.767747 
L 266.432105 246.27336 
L 266.496916 247.231363 
L 266.557104 246.433027 
L 266.728464 243.292906 
L 266.89756 224.132842 
L 267.187261 189.93745 
L 267.194219 189.990672 
L 267.254495 193.849296 
L 267.467862 227.299574 
L 267.683639 245.448413 
L 267.741664 247.045085 
L 267.808982 246.193526 
L 268.052786 238.07711 
L 268.22701 234.910378 
L 268.250248 235.096656 
L 268.259539 235.203101 
L 268.540784 244.171075 
L 268.654718 246.193526 
L 268.701233 245.927414 
L 268.736122 245.82097 
L 268.959469 242.015568 
L 269.208528 237.252163 
L 269.322628 236.826384 
L 269.336601 237.012662 
L 269.567217 240.871286 
L 269.830587 246.113693 
L 269.965827 246.752362 
L 269.982152 246.592694 
L 270.355432 242.73407 
L 270.397445 243.080016 
L 270.878524 247.577309 
L 270.890207 247.470864 
L 271.12859 243.532406 
L 271.441951 230.918698 
L 271.500435 231.504144 
L 272.02713 248.375645 
L 272.088025 247.763587 
L 272.12551 247.657142 
L 272.392642 244.011408 
L 272.486405 244.783133 
L 272.894504 248.668368 
L 272.920313 248.455478 
L 272.939087 248.535312 
L 273.112768 249.972317 
L 273.143283 249.865872 
L 273.43917 240.658397 
L 273.819866 196.457194 
L 273.902157 200.848042 
L 274.095001 228.257578 
L 274.32558 247.364419 
L 274.370296 248.136144 
L 274.438551 247.497475 
L 274.857733 238.715779 
L 274.914279 239.194781 
L 275.392833 248.694979 
L 275.428213 248.375645 
L 275.919075 238.582723 
L 275.961578 238.848835 
L 276.129265 241.988957 
L 276.528634 248.535312 
L 276.597195 248.428867 
L 276.687048 248.162755 
L 276.639756 248.48209 
L 276.710701 248.375645 
L 276.750909 248.455478 
L 276.791117 248.082922 
L 276.793483 248.082922 
L 277.032441 246.645917 
L 277.046643 246.539472 
L 277.150782 246.27336 
L 277.164983 246.433027 
L 277.432549 249.972317 
L 277.541515 249.466704 
L 277.859065 239.83345 
L 278.112774 234.431376 
L 278.124635 234.537821 
L 278.219514 236.799773 
L 278.608724 251.089987 
L 278.639589 250.690819 
L 278.929341 246.672528 
L 279.06953 245.82097 
L 279.08854 246.113693 
L 279.240661 247.045085 
L 279.295338 247.15153 
L 279.499847 250.664208 
L 279.685403 252.872938 
L 279.704438 252.793104 
L 279.728231 252.686659 
L 279.951961 248.961091 
L 280.121019 236.480438 
L 280.452152 202.604381 
L 280.478368 203.216438 
L 280.57847 210.241795 
L 280.812129 240.977731 
L 281.000561 249.786038 
L 281.029194 249.679594 
L 281.380033 244.543632 
L 281.492264 242.787293 
L 281.554352 243.106627 
L 281.575849 243.213072 
L 282.01313 250.47793 
L 282.24029 246.72575 
L 282.522587 242.201846 
L 282.551303 242.228458 
L 282.922376 247.577309 
L 283.217045 251.702045 
L 283.233817 251.622211 
L 283.492697 248.322422 
L 283.607798 247.497475 
L 283.650971 247.790198 
L 283.674956 247.896643 
L 283.919666 250.877098 
L 284.159695 252.47377 
L 284.166895 252.393936 
L 284.467099 243.292906 
L 284.702581 234.936989 
L 284.721808 235.043434 
L 284.822771 237.305386 
L 285.178692 250.956931 
L 285.262896 251.968157 
L 285.337496 251.489155 
L 285.359153 251.38271 
L 285.484311 250.797264 
L 285.414506 251.409322 
L 285.510789 250.903709 
L 285.539677 251.036765 
L 285.604686 250.744042 
L 285.60709 250.744042 
L 285.751577 250.238429 
L 285.652846 250.797264 
L 285.758808 250.291651 
L 285.782889 250.398096 
L 285.814207 250.105373 
L 285.876837 250.371485 
L 285.903334 250.451318 
L 286.137081 253.618051 
L 286.151545 253.538218 
L 286.161187 253.484995 
L 286.228683 253.830941 
L 286.233504 253.830941 
L 286.301006 253.857552 
L 286.320297 253.564829 
L 286.600068 249.253814 
L 286.805176 235.336157 
L 287.097288 208.219344 
L 287.133516 208.751568 
L 287.20114 212.636803 
L 287.650594 251.80849 
L 287.749721 251.249654 
L 287.943197 247.896643 
L 288.160944 245.075856 
L 288.175465 245.208912 
L 288.189986 245.315357 
L 288.482894 249.759427 
L 288.630627 251.409322 
L 288.662111 251.276266 
L 288.696025 251.169821 
L 288.865625 248.082922 
L 289.054675 245.208912 
L 289.098314 245.341968 
L 289.141953 245.208912 
L 289.219544 245.475024 
L 289.221973 245.448413 
L 289.287447 245.900803 
L 289.811572 251.568989 
L 289.86984 251.063376 
L 289.884412 250.956931 
L 290.112701 249.360259 
L 290.132138 249.413482 
L 290.190438 249.227203 
L 290.268195 249.732816 
L 290.270624 249.706205 
L 290.319224 250.344874 
L 290.486931 251.568989 
L 290.53555 251.515766 
L 290.584176 251.622211 
L 290.698467 252.526992 
L 290.73738 252.127824 
L 291.073118 247.257974 
L 291.353074 238.343222 
L 291.382294 238.529501 
L 291.50163 241.004342 
L 291.991439 254.176886 
L 292.006068 254.017219 
L 292.213351 251.914934 
L 292.254815 251.80849 
L 292.413395 250.93032 
L 292.432916 251.063376 
L 292.762435 253.458384 
L 292.774641 253.564829 
L 292.965133 255.560669 
L 293.018873 255.028445 
L 293.075062 254.948611 
L 293.334102 246.93864 
L 293.544356 225.942403 
L 293.725339 212.79647 
L 293.776714 214.020586 
L 293.947991 229.242192 
L 294.261332 253.511606 
L 294.293167 253.990608 
L 294.378882 253.671274 
L 294.393581 253.777718 
L 294.440121 253.13905 
L 294.653271 249.786038 
L 294.913095 247.39103 
L 294.962135 247.60392 
L 295.202483 251.409322 
L 295.2908 252.580214 
L 295.342328 252.101213 
L 295.651594 247.790198 
L 295.767007 246.566083 
L 295.848048 246.832195 
L 296.020008 248.162755 
L 296.270674 252.074602 
L 296.437857 253.298717 
L 296.516545 253.724496 
L 296.550975 253.325328 
L 296.590328 253.351939 
L 296.691183 253.005994 
L 296.708401 252.899549 
L 296.84373 252.367325 
L 296.865878 252.393936 
L 296.905251 252.500381 
L 297.07017 253.511606 
L 297.1071 253.484995 
L 297.153883 253.37855 
L 297.188351 253.564829 
L 297.21298 253.538218 
L 297.370603 254.176886 
L 297.244993 253.431773 
L 297.377995 254.123664 
L 297.402623 254.017219 
L 297.523349 253.511606 
L 297.557843 253.538218 
L 297.580022 253.431773 
L 297.688459 251.089987 
L 297.996641 243.665462 
L 298.02377 243.745296 
L 298.036097 243.851741 
L 298.189033 246.672528 
L 298.502444 253.218883 
L 298.71972 254.602666 
L 298.734534 254.549443 
L 298.97661 253.059216 
L 298.981553 253.085827 
L 299.030976 253.005994 
L 299.077924 252.766493 
L 299.119937 253.032605 
L 299.144648 252.952771 
L 299.166892 253.059216 
L 299.461095 256.651728 
L 299.5996 256.518672 
L 299.958397 251.462544 
L 300.092081 241.084176 
L 300.366981 219.342826 
L 300.42148 219.901661 
L 300.562714 230.652586 
L 300.922156 255.401002 
L 300.927117 255.347779 
L 301.192521 251.329488 
L 301.328992 250.131984 
L 301.33644 250.211818 
L 301.599561 251.861712 
L 301.634323 251.968157 
L 301.788293 252.899549 
L 301.823067 252.819715 
L 301.840458 252.92616 
L 301.974607 253.431773 
L 301.989517 253.351939 
L 302.23556 250.451318 
L 302.409599 248.961091 
L 302.45436 249.253814 
L 302.630956 250.690819 
L 302.653346 250.797264 
L 303.108801 254.868778 
L 303.136191 254.788944 
L 303.171049 254.895389 
L 303.176029 254.922 
L 303.223348 254.309942 
L 303.420121 253.165661 
L 303.437562 253.192272 
L 303.455004 253.272106 
L 303.514802 253.059216 
L 303.587068 253.724496 
L 304.005899 257.077507 
L 304.008393 257.050896 
L 304.098183 256.944451 
L 304.260347 254.04383 
L 304.659722 244.357354 
L 304.762114 245.661302 
L 304.869518 247.976477 
L 305.211849 255.454224 
L 305.239347 255.560669 
L 305.25684 255.613891 
L 305.324342 255.321168 
L 305.326842 255.321168 
L 305.35434 255.214723 
L 305.47937 254.975222 
L 305.419355 255.321168 
L 305.48187 255.001834 
L 305.511881 255.267946 
L 305.574409 254.868778 
L 305.576909 254.868778 
L 305.799567 253.671274 
L 305.892156 253.777718 
L 306.112436 256.146115 
L 306.129966 256.25256 
L 306.325292 257.423453 
L 306.340323 257.317008 
L 306.367872 257.210563 
L 306.540737 254.203498 
L 306.78384 239.194781 
L 307.019533 226.10207 
L 307.044608 226.261738 
L 307.109821 228.09791 
L 307.250303 238.715779 
L 307.551457 257.050896 
L 307.601664 257.343619 
L 307.656897 257.024285 
L 308.114055 253.351939 
L 308.126618 253.431773 
L 308.279924 254.46961 
L 308.284956 254.442998 
L 308.408137 253.937386 
L 308.42825 254.070442 
L 308.581646 254.682499 
L 308.58919 254.629277 
L 308.835718 251.728656 
L 308.8483 251.622211 
L 309.089911 249.998928 
L 309.107537 250.05215 
L 309.127676 250.131984 
L 309.344225 252.367325 
L 309.616287 256.412227 
L 309.780096 257.529898 
L 309.812862 257.450064 
L 309.976729 256.305782 
L 309.991856 256.225949 
L 310.188565 254.389776 
L 310.216312 254.496221 
L 310.418148 255.454224 
L 310.435813 255.560669 
L 310.705885 257.58312 
L 310.733658 257.529898 
L 310.75386 257.423453 
L 310.988724 253.777718 
L 311.314673 246.433027 
L 311.39556 247.550698 
L 311.661047 255.480835 
L 311.865938 258.674179 
L 311.871002 258.647568 
L 311.901357 258.541123 
L 312.33925 254.975222 
L 312.346845 255.028445 
L 312.367099 255.13489 
L 312.866181 259.392682 
L 312.878852 259.36607 
L 312.937152 259.259626 
L 313.160263 255.746947 
L 313.36824 245.687914 
L 313.687971 229.375248 
L 313.698124 229.455082 
L 313.756506 231.211421 
L 313.918996 242.601014 
L 314.20855 257.662954 
L 314.24666 257.822621 
L 314.302562 257.503286 
L 314.498257 255.720336 
L 314.526215 255.613891 
L 314.691472 254.602666 
L 314.714359 254.788944 
L 314.727076 254.842166 
L 314.800827 254.576054 
L 314.803372 254.576054 
L 314.813543 254.522832 
L 314.854236 254.788944 
L 314.889846 254.788944 
L 315.070478 255.58728 
L 315.073023 255.560669 
L 315.090834 255.667114 
L 315.253713 256.225949 
L 315.279164 256.119504 
L 315.696777 252.207658 
L 315.742629 252.447158 
L 315.785936 252.553603 
L 316.293168 256.731562 
L 316.305916 256.70495 
L 316.384973 256.91784 
L 316.407931 257.024285 
L 316.479349 257.104118 
L 316.433433 256.91784 
L 316.504857 256.91784 
L 316.604353 256.70495 
L 316.545677 256.971062 
L 316.624767 256.811395 
L 316.680905 256.70495 
L 316.724282 256.571894 
L 316.775325 256.864618 
L 316.805954 256.971062 
L 316.851895 257.317008 
L 316.928478 257.104118 
L 316.946347 257.210563 
L 317.14296 258.807235 
L 317.186382 258.567734 
L 317.280885 258.46129 
L 317.439287 257.476675 
L 317.498059 257.37023 
L 317.633516 254.815555 
L 317.889175 250.26504 
L 317.899404 250.158595 
L 317.95567 249.679594 
L 318.022171 249.998928 
L 318.144956 252.420547 
L 318.459726 258.275011 
L 318.531398 258.168566 
L 318.551882 258.062122 
L 318.741366 257.237174 
L 318.79003 257.13073 
L 318.843821 256.811395 
L 318.918108 256.944451 
L 319.089775 257.716176 
L 319.097465 257.662954 
L 319.174348 257.769398 
L 319.476861 259.871683 
L 319.484552 259.845072 
L 319.553795 259.738627 
L 319.846244 255.560669 
L 320.023325 246.645917 
L 320.290336 233.712874 
L 320.318586 233.446762 
L 320.357111 234.165264 
L 320.470126 238.769002 
L 320.963545 258.727402 
L 321.012394 258.620957 
L 321.377626 255.986448 
L 321.41879 255.880003 
L 321.552608 255.507446 
L 321.480546 255.906614 
L 321.560324 255.534058 
L 321.820327 257.423453 
L 321.843501 257.343619 
L 321.866676 257.263786 
L 321.913025 257.423453 
L 321.946505 257.423453 
L 321.959387 257.343619 
L 322.245332 253.724496 
L 322.327794 253.165661 
L 322.38707 253.351939 
L 322.500481 253.644662 
L 322.510793 253.618051 
L 322.680961 256.518672 
L 322.918248 259.12657 
L 322.946626 259.233014 
L 323.057569 259.605571 
L 323.083377 259.499126 
L 323.114345 259.605571 
L 323.173697 259.738627 
L 323.214995 259.57896 
L 323.222737 259.57896 
L 323.331155 259.685405 
L 323.408605 260.004739 
L 323.447334 259.738627 
L 323.537717 259.632182 
L 323.620365 259.153181 
L 323.687522 259.233014 
L 323.713356 259.339459 
L 323.808943 259.419293 
L 323.757269 259.259626 
L 323.824446 259.36607 
L 323.850286 259.286237 
L 323.891629 259.525738 
L 323.922635 259.499126 
L 323.992414 259.605571 
L 324.028598 259.685405 
L 324.072542 259.286237 
L 324.196629 256.864618 
L 324.4604 252.127824 
L 324.548354 251.302877 
L 324.61562 251.675434 
L 324.644081 251.781878 
L 324.902878 255.58728 
L 325.239489 260.24424 
L 325.262798 260.350685 
L 325.348283 260.723242 
L 325.38455 260.45713 
L 325.578887 259.605571 
L 325.646275 259.499126 
L 325.703293 259.605571 
L 325.768104 259.392682 
L 325.783657 259.499126 
L 325.913298 259.818461 
L 325.822545 259.472515 
L 325.921072 259.765238 
L 325.952193 259.871683 
L 326.128559 260.536963 
L 326.172657 260.430518 
L 326.240114 260.563574 
L 326.302381 260.24424 
L 326.359469 260.137795 
L 326.494428 257.609731 
L 326.704715 247.790198 
L 326.956631 237.890832 
L 326.972223 238.103722 
L 327.104721 243.080016 
L 327.546606 260.057962 
L 327.559609 260.084573 
L 327.61942 259.79185 
L 327.627219 259.79185 
L 327.850917 258.620957 
L 327.889945 258.514512 
L 328.098127 257.503286 
L 328.163199 257.609731 
L 328.298567 258.408067 
L 328.311589 258.381456 
L 328.37668 258.487901 
L 328.478249 258.727402 
L 328.496475 258.620957 
L 328.5642 258.70079 
L 328.86904 255.933226 
L 328.999357 256.03967 
L 329.181858 256.838006 
L 329.02021 255.986448 
L 329.184467 256.811395 
L 329.218361 256.91784 
L 329.494842 258.620957 
L 329.536587 258.727402 
L 329.700983 259.286237 
L 329.75318 259.392682 
L 329.873255 259.552349 
L 329.875864 259.525738 
L 329.891526 259.419293 
L 329.917634 259.36607 
L 329.988133 259.525738 
L 330.035133 259.898294 
L 330.129145 259.845072 
L 330.142205 259.951517 
L 330.259742 260.403907 
L 330.285869 260.297462 
L 330.340732 260.191018 
L 330.398209 260.03135 
L 330.453084 260.164406 
L 330.48967 260.057962 
L 330.604663 259.951517 
L 330.607277 259.978128 
L 330.651713 259.871683 
L 331.221842 254.203498 
L 331.292488 254.46961 
L 331.462605 257.290397 
L 331.658957 259.924906 
L 331.753231 260.90952 
L 331.86323 260.882909 
L 332.127843 259.286237 
L 332.240534 259.978128 
L 332.287712 259.79185 
L 332.329654 259.632182 
L 332.382081 259.951517 
L 332.688891 261.947357 
L 332.704624 262.053802 
L 332.799063 262.665859 
L 332.864652 262.586026 
L 333.163829 258.487901 
L 333.58136 240.046339 
L 333.68907 241.643011 
L 333.767891 245.421802 
L 334.120107 260.084573 
L 334.222658 261.282077 
L 334.319961 261.015965 
L 334.496206 260.084573 
L 334.351521 261.12241 
L 334.51725 260.137795 
L 334.62776 260.03135 
L 334.83568 259.046736 
L 334.864639 258.940291 
L 334.893597 258.807235 
L 334.972578 258.940291 
L 335.054206 259.206403 
L 335.101607 259.12657 
L 335.307059 258.168566 
L 335.320228 258.275011 
L 335.33077 258.328234 
L 335.383457 257.79601 
L 335.407174 257.689565 
L 335.602187 256.598506 
L 335.617996 256.678339 
L 336.121644 261.255466 
L 336.166488 261.095798 
L 336.182316 260.989354 
L 336.19023 260.936131 
L 336.23772 261.015965 
L 336.287858 261.015965 
L 336.369664 260.90952 
L 336.425087 261.282077 
L 336.525387 261.175632 
L 336.601945 260.90952 
L 336.644187 261.095798 
L 336.665308 261.202243 
L 336.770932 261.5748 
L 336.80262 261.468355 
L 336.926758 261.5748 
L 337.090555 262.133635 
L 337.27289 261.415133 
L 337.30461 261.308688 
L 337.762043 255.58728 
L 337.910184 254.25672 
L 337.931356 254.416387 
L 337.952521 254.522832 
L 338.119239 257.317008 
L 338.383961 262.02719 
L 338.399852 262.133635 
L 338.503124 262.426358 
L 338.521662 262.266691 
L 338.696485 261.415133 
L 338.712383 261.468355 
L 338.722976 261.494966 
L 338.781269 261.12241 
L 338.786562 261.12241 
L 338.900509 260.776464 
L 338.92436 260.856298 
L 338.980013 261.042576 
L 339.040979 260.90952 
L 339.05423 261.015965 
L 339.271633 262.080413 
L 339.329971 262.186858 
L 339.566041 263.464195 
L 339.804852 259.951517 
L 339.977385 251.489155 
L 340.224328 242.228458 
L 340.240264 242.255069 
L 340.258853 242.361514 
L 340.327911 244.091242 
L 340.769012 261.628022 
L 340.787621 261.548189 
L 340.870032 261.441744 
L 341.058821 260.616797 
L 341.130628 260.936131 
L 341.183826 260.776464 
L 341.205107 260.882909 
L 341.327484 261.228854 
L 341.340787 261.149021 
L 341.444556 261.042576 
L 341.537706 260.616797 
L 341.577627 260.776464 
L 341.657482 261.12241 
L 341.702741 260.962742 
L 341.771958 261.202243 
L 341.830538 260.776464 
L 341.913091 260.670019 
L 342.315354 257.662954 
L 342.320686 257.689565 
L 342.821884 261.867523 
L 342.845888 261.840912 
L 342.877895 261.947357 
L 342.981932 262.293302 
L 343.019276 262.266691 
L 343.214066 262.160246 
L 343.323498 262.107024 
L 343.243426 262.266691 
L 343.326163 262.133635 
L 343.481 262.24008 
L 343.710654 263.437584 
L 343.748043 263.544029 
L 343.852227 263.756918 
L 343.870924 263.677085 
L 344.343975 257.875843 
L 344.520462 256.571894 
L 344.59267 256.678339 
L 344.817388 260.004739 
L 345.060918 262.665859 
L 345.095719 262.639248 
L 345.189412 262.852138 
L 345.325965 262.745693 
L 345.368813 262.586026 
L 345.446481 262.639248 
L 345.500055 262.532803 
L 345.604525 262.399747 
L 345.617924 262.426358 
L 345.668826 262.559414 
L 345.722413 262.373136 
L 345.778685 262.479581 
L 346.025276 263.836752 
L 346.052086 263.943197 
L 346.094985 264.182698 
L 346.162015 263.943197 
L 346.424849 260.297462 
L 346.859579 245.634691 
L 346.897159 245.900803 
L 346.975018 247.763587 
L 347.165675 256.731562 
L 347.453119 263.810141 
L 347.466555 263.703696 
L 347.649299 262.266691 
L 347.837475 261.494966 
L 347.885872 261.601411 
L 348.044529 262.107024 
L 348.055287 262.080413 
L 348.082186 262.24008 
L 348.14405 262.213469 
L 348.189781 262.319914 
L 348.240893 262.107024 
L 348.292013 261.814301 
L 348.372735 261.894134 
L 348.499219 262.000579 
L 348.515372 262.080413 
L 348.593428 261.681245 
L 348.886911 259.871683 
L 348.903071 259.765238 
L 349.032354 259.445904 
L 349.043132 259.472515 
L 349.414983 262.053802 
L 349.433846 262.160246 
L 349.555159 262.719082 
L 349.598294 262.69247 
L 349.630645 262.798915 
L 349.819415 263.57064 
L 350.051409 263.677085 
L 350.159342 264.102864 
L 350.191725 263.969808 
L 350.226812 264.076253 
L 350.269992 264.23592 
L 350.332073 264.049642 
L 350.361765 263.996419 
L 350.421156 264.262531 
L 350.475151 264.342365 
L 350.515652 264.102864 
L 350.53185 263.996419 
L 351.112648 257.875843 
L 351.19103 258.594346 
L 351.410002 261.840912 
L 351.639879 264.182698 
L 351.721028 264.076253 
L 351.934777 263.065027 
L 351.994314 262.958582 
L 352.059265 262.69247 
L 352.126939 262.719082 
L 352.140472 262.745693 
L 352.208152 262.479581 
L 352.210856 262.479581 
L 352.243348 262.399747 
L 352.311035 262.559414 
L 352.313745 262.559414 
L 352.560196 263.889974 
L 352.579155 263.996419 
L 352.785061 264.981034 
L 352.787771 264.954422 
L 352.804033 264.847978 
L 353.091336 260.962742 
L 353.506258 248.748202 
L 353.511685 248.801424 
L 353.658193 251.302877 
L 354.127793 264.02303 
L 354.198395 263.943197 
L 354.222838 263.863363 
L 354.380379 262.90536 
L 354.399396 262.798915 
L 354.456446 262.612637 
L 354.521652 262.69247 
L 354.785264 262.798915 
L 354.915753 263.091638 
L 354.92391 263.065027 
L 355.116971 262.186858 
L 355.122411 262.213469 
L 355.296494 262.133635 
L 355.465182 260.962742 
L 355.655687 261.761078 
L 355.682904 261.867523 
L 356.034145 264.209309 
L 356.104956 264.102864 
L 356.20847 264.02303 
L 356.219369 264.049642 
L 356.306551 264.422198 
L 356.355597 264.315754 
L 356.440075 263.943197 
L 356.494581 264.02303 
L 356.530012 264.049642 
L 356.573625 263.836752 
L 356.598158 263.969808 
L 356.628144 264.076253 
L 356.712654 264.422198 
L 356.767185 264.368976 
L 356.794453 264.475421 
L 356.952619 264.954422 
L 357.048085 264.847978 
L 357.249972 263.943197 
L 357.269072 263.996419 
L 357.323654 263.597251 
L 357.850559 259.153181 
L 357.883331 259.206403 
L 357.89972 259.312848 
L 358.148321 262.825526 
L 358.317755 264.528643 
L 358.353288 264.635088 
L 358.399759 264.821366 
L 358.451694 264.555254 
L 358.45443 264.555254 
L 358.48997 264.342365 
L 358.528245 264.581866 
L 358.561056 264.581866 
L 358.585659 264.68831 
L 358.604803 264.714922 
L 358.667694 264.44881 
L 358.67043 264.44881 
L 358.714184 264.342365 
L 358.757944 264.661699 
L 358.829055 264.768144 
L 358.974046 265.193923 
L 358.979517 265.167312 
L 359.042447 265.060867 
L 359.214853 264.395587 
L 359.217589 264.422198 
L 359.324336 264.528643 
L 359.461221 264.794755 
L 359.535151 264.9012 
L 359.557057 265.060867 
L 359.606352 264.528643 
L 359.724119 262.346525 
L 360.178969 251.489155 
L 360.203635 251.622211 
L 360.29958 253.618051 
L 360.475059 259.179792 
L 360.716422 264.23592 
L 360.730139 264.342365 
L 360.839877 264.68831 
L 360.867317 264.635088 
L 361.092354 263.490806 
L 361.155488 263.78353 
L 361.199414 263.490806 
L 361.325707 263.331139 
L 361.413577 263.437584 
L 361.56189 263.810141 
L 361.710229 263.703696 
L 361.833876 263.384362 
L 361.84487 263.437584 
L 361.853115 263.464195 
L 361.930062 263.224694 
L 361.932811 263.224694 
L 361.949302 263.11825 
L 362.09773 262.346525 
L 362.136222 262.373136 
L 362.169211 262.479581 
L 362.240699 262.772304 
L 362.295695 262.639248 
L 362.325942 262.745693 
L 362.614757 264.475421 
L 362.691793 264.368976 
L 362.716561 264.289142 
L 362.752331 264.422198 
L 362.799113 264.395587 
L 362.834889 264.502032 
L 362.889937 264.23592 
L 362.892685 264.23592 
L 362.922964 264.129475 
L 362.980773 264.182698 
L 363.079874 263.677085 
L 363.214795 263.916586 
L 363.234073 264.02303 
L 363.440641 264.954422 
L 363.462674 265.060867 
L 363.644519 266.072093 
L 363.669313 265.992259 
L 363.826407 265.885814 
L 364.482724 260.616797 
L 365.05409 266.497872 
L 365.159033 266.072093 
L 365.200465 265.965648 
L 365.396594 265.140701 
L 365.429749 265.034256 
L 365.451852 264.927811 
L 365.529226 265.11409 
L 365.531987 265.11409 
L 365.601077 265.087478 
L 365.653586 265.247146 
L 365.689522 265.167312 
L 365.753095 265.300368 
L 365.758624 265.300368 
L 365.855385 265.56648 
L 365.880268 265.406813 
L 365.954926 265.513258 
L 366.071072 265.752758 
L 366.084898 265.699536 
L 366.101491 265.593091 
L 366.508187 260.616797 
L 366.820986 253.37855 
L 366.859753 253.618051 
L 366.873598 253.724496 
L 366.998213 255.986448 
L 367.427625 265.193923 
L 367.513538 265.460035 
L 367.546801 265.273757 
L 367.643823 265.087478 
L 367.666002 265.193923 
L 367.807403 265.300368 
L 367.901689 265.406813 
L 367.918327 265.300368 
L 367.987665 265.193923 
L 368.137458 264.821366 
L 368.231789 265.060867 
L 368.265084 264.981034 
L 368.442694 264.342365 
L 368.498207 264.23592 
L 368.711975 263.251306 
L 368.786945 263.35775 
L 368.928587 263.650474 
L 368.948031 263.756918 
L 369.186944 264.981034 
L 369.211956 265.087478 
L 369.395375 265.805981 
L 369.478763 265.672925 
L 369.50656 265.805981 
L 369.631674 265.965648 
L 369.662258 265.805981 
L 369.745678 265.939037 
L 369.859708 266.151926 
L 369.873616 266.098704 
L 369.957061 265.992259 
L 369.959841 265.965648 
L 370.051653 266.151926 
L 370.182429 266.338205 
L 370.21582 266.23176 
L 370.385599 265.672925 
L 370.444051 265.77937 
L 370.466327 265.859203 
L 370.538714 265.619702 
L 370.560983 265.513258 
L 371.037266 262.02719 
L 371.132011 262.133635 
L 371.611483 266.418038 
L 371.664471 266.151926 
L 371.773246 265.726147 
L 371.809506 265.805981 
L 371.837406 265.752758 
L 371.929467 265.885814 
L 371.9769 265.77937 
L 371.99364 265.699536 
L 372.060606 265.885814 
L 372.077353 265.885814 
L 372.096886 265.992259 
L 372.188984 266.23176 
L 372.23085 266.205149 
L 372.322968 266.098704 
L 372.470937 265.726147 
L 372.526782 265.832592 
L 372.677588 266.205149 
L 372.739039 266.311594 
L 372.755804 266.338205 
L 372.808875 265.965648 
L 372.811674 265.965648 
L 372.845192 265.859203 
L 373.088296 262.506192 
L 373.423746 256.066282 
L 373.44891 255.933226 
L 373.504838 256.305782 
L 373.63349 258.541123 
L 374.016788 266.311594 
L 374.204315 266.418038 
L 374.249108 266.338205 
L 374.324702 266.524483 
L 374.489909 266.630928 
L 374.53752 266.790595 
L 374.604742 266.68415 
L 374.713989 266.577706 
L 374.893308 265.699536 
L 374.910118 265.726147 
L 374.915723 265.752758 
L 374.982983 265.380202 
L 375.221239 264.156086 
L 375.263297 264.262531 
L 375.336194 264.422198 
L 375.381063 264.342365 
L 375.425927 264.44881 
L 375.540919 264.741533 
L 375.563354 264.714922 
L 375.611042 264.821366 
L 375.756926 265.646314 
L 375.787791 265.460035 
L 375.827074 265.406813 
L 375.877581 265.646314 
L 376.023522 265.992259 
L 376.057206 266.098704 
L 376.093696 266.284982 
L 376.180725 266.23176 
L 376.343578 266.125315 
L 376.391318 265.939037 
L 376.441869 266.178538 
L 376.444675 266.178538 
L 376.537367 266.391427 
L 376.565458 266.311594 
L 376.596355 266.284982 
L 376.649732 266.551094 
L 376.663781 266.657539 
L 376.826749 267.163152 
L 376.936353 267.056707 
L 376.964457 267.030096 
L 377.000998 267.163152 
L 377.043164 267.083318 
L 377.062837 266.976874 
L 377.329944 265.433424 
L 377.332756 265.460035 
L 377.358067 265.35359 
L 377.701253 263.144861 
L 377.858845 263.597251 
L 377.878544 263.703696 
L 378.120626 266.205149 
L 378.219172 266.870429 
L 378.295207 266.817206 
L 378.402228 266.923651 
L 378.469832 267.189763 
L 378.520537 267.003485 
L 378.686764 267.10993 
L 378.853029 267.748598 
L 378.861485 267.721987 
L 378.920677 267.828432 
L 379.053169 268.041322 
L 379.199786 267.695376 
L 379.264641 267.588931 
L 379.428228 267.083318 
L 379.479009 266.976874 
L 379.716009 263.703696 
L 380.051906 255.214723 
L 380.085788 255.321168 
L 380.218502 257.609731 
L 380.662014 267.455875 
L 380.676145 267.402653 
L 380.693102 267.509098 
L 380.707228 267.56232 
L 380.758098 267.269597 
L 380.783536 267.322819 
L 380.857027 267.216374 
L 380.902253 267.402653 
L 380.984231 267.056707 
L 381.046434 266.950262 
L 381.182159 266.710762 
L 381.216098 266.604317 
L 381.264175 266.44465 
L 381.306602 266.657539 
L 381.320747 266.657539 
L 381.595162 266.763984 
L 381.699868 266.89704 
L 381.714019 266.843818 
L 381.75364 266.737373 
L 382.045222 264.528643 
L 382.096188 264.555254 
L 382.166987 264.475421 
L 382.220798 264.68831 
L 382.249119 264.794755 
L 382.611748 267.642154 
L 382.651421 267.535709 
L 382.6996 267.455875 
L 382.764787 267.509098 
L 382.821474 267.402653 
L 382.94621 267.216374 
L 382.881004 267.429264 
L 382.949048 267.242986 
L 382.98307 267.34943 
L 383.119178 267.881654 
L 383.139023 267.77521 
L 383.283676 267.455875 
L 383.289345 267.482486 
L 383.340407 267.322819 
L 383.385793 267.376042 
L 383.485092 267.269597 
L 383.550355 267.163152 
L 383.598599 267.242986 
L 383.629815 267.296208 
L 383.652517 267.189763 
L 383.706442 267.216374 
L 383.822819 267.322819 
L 383.825657 267.34943 
L 383.88527 267.189763 
L 383.922181 267.216374 
L 383.950572 267.10993 
L 384.34533 264.44881 
L 384.407832 264.555254 
L 384.890984 268.360656 
L 384.916569 268.307434 
L 385.044526 268.147766 
L 385.104242 268.041322 
L 385.303343 267.216374 
L 385.502501 267.322819 
L 385.707411 268.200989 
L 385.735872 268.094544 
L 385.789957 268.041322 
L 385.821269 268.174378 
L 385.838353 268.174378 
L 385.926613 268.067933 
L 386.00634 267.748598 
L 386.066138 267.801821 
L 386.094619 267.855043 
L 386.145885 267.56232 
L 386.151579 267.56232 
L 386.413654 264.076253 
L 386.729993 257.609731 
L 386.752791 257.636342 
L 386.795556 257.716176 
L 387.420146 268.01471 
L 387.451534 267.908266 
L 387.48863 267.801821 
L 387.625611 267.56232 
L 387.674135 267.455875 
L 387.731223 267.322819 
L 387.771189 267.482486 
L 387.782604 267.482486 
L 387.845412 267.588931 
L 387.933921 267.668765 
L 387.891092 267.509098 
L 387.951056 267.56232 
L 388.048148 267.429264 
L 388.073848 267.455875 
L 388.130968 267.34943 
L 388.250935 267.269597 
L 388.276647 267.163152 
L 388.4395 266.68415 
L 388.485218 266.577706 
L 388.670984 265.885814 
L 388.716721 265.77937 
L 388.765321 265.699536 
L 388.83107 265.752758 
L 388.908271 265.859203 
L 389.074128 266.364816 
L 389.094146 266.471261 
L 389.30868 267.429264 
L 389.360181 267.535709 
L 389.397373 267.668765 
L 389.451744 267.482486 
L 389.466048 267.482486 
L 389.66066 267.588931 
L 389.783751 267.855043 
L 389.795205 267.801821 
L 389.895409 267.908266 
L 390.072955 268.520323 
L 390.124507 268.626768 
L 390.19898 268.919491 
L 390.253409 268.786435 
L 390.282055 268.67999 
L 390.299248 268.653379 
L 390.333627 268.786435 
L 390.393795 268.67999 
L 390.43964 268.573546 
L 390.76351 266.577706 
L 390.783579 266.471261 
L 390.975684 265.060867 
L 391.035903 265.140701 
L 391.076054 265.247146 
L 391.529347 268.44049 
L 391.575269 268.546934 
L 391.624061 268.786435 
L 391.684337 268.546934 
L 391.741744 268.44049 
L 391.870939 268.254211 
L 391.93985 268.147766 
L 391.968567 268.01471 
L 392.040361 268.2276 
L 392.155251 268.334045 
L 392.273024 268.413878 
L 392.336228 268.520323 
L 392.454033 268.866269 
L 392.477023 268.839658 
L 392.617849 268.546934 
L 392.781697 268.44049 
L 393.04911 264.954422 
L 393.391428 259.898294 
L 393.417326 260.164406 
L 393.587117 262.745693 
L 393.877864 267.77521 
L 394.030482 268.44049 
L 394.05064 268.360656 
L 394.145685 268.307434 
L 394.160085 268.360656 
L 394.407843 268.467101 
L 394.53464 268.653379 
L 394.609571 268.733213 
L 394.652802 268.573546 
L 394.696039 268.467101 
L 394.831534 268.2276 
L 394.857483 268.121155 
L 394.981473 267.615542 
L 395.018958 267.642154 
L 395.053567 267.535709 
L 395.235277 266.870429 
L 395.388188 266.976874 
L 395.405496 267.056707 
L 395.466092 266.950262 
L 395.494948 266.950262 
L 395.532465 267.056707 
L 395.720074 267.77521 
L 395.737394 267.881654 
L 395.916394 268.520323 
L 395.985695 268.413878 
L 395.994355 268.387267 
L 396.069446 268.546934 
L 396.083884 268.520323 
L 396.274522 268.413878 
L 396.398755 268.280822 
L 396.566359 268.387267 
L 396.725329 268.866269 
L 396.754236 268.786435 
L 396.83807 268.839658 
L 396.852527 268.946102 
L 396.939269 269.10577 
L 396.971072 269.025936 
L 397.075179 268.919491 
L 397.532273 265.726147 
L 397.566997 265.619702 
L 397.613301 265.513258 
L 397.668298 265.672925 
L 398.157616 269.265437 
L 398.166308 269.238826 
L 398.383571 269.132381 
L 398.554529 268.573546 
L 398.621189 268.67999 
L 398.64437 268.706602 
L 398.690745 268.546934 
L 398.719735 268.573546 
L 398.771907 268.67999 
L 398.922662 269.052547 
L 398.989355 269.158992 
L 399.064752 269.398493 
L 399.116948 269.318659 
L 399.209761 269.212214 
L 399.375114 268.706602 
L 399.412829 268.600157 
L 399.676906 265.167312 
L 399.955587 261.920746 
L 399.961397 261.947357 
L 400.060121 262.053802 
L 400.277952 265.060867 
L 400.594647 268.839658 
L 400.742871 269.478326 
L 400.760313 269.34527 
L 400.815539 269.238826 
L 400.998703 268.573546 
L 401.045224 268.67999 
L 401.100476 268.89288 
L 401.141194 268.573546 
L 401.144102 268.573546 
L 401.216808 268.44049 
L 401.26044 268.520323 
L 401.344797 268.67999 
L 401.385528 268.653379 
L 401.533911 268.200989 
L 401.542641 268.2276 
L 401.603747 268.121155 
L 401.7318 267.855043 
L 401.740537 267.881654 
L 401.88026 268.147766 
L 401.918102 268.254211 
L 401.979246 268.121155 
L 402.046212 268.413878 
L 402.101541 268.520323 
L 402.121922 268.573546 
L 402.151046 268.493712 
L 402.206381 268.493712 
L 402.317063 268.147766 
L 402.343279 268.254211 
L 402.360759 268.360656 
L 402.500597 268.626768 
L 402.579271 268.733213 
L 402.646295 269.079158 
L 402.710411 268.919491 
L 402.739555 269.025936 
L 402.882383 269.318659 
L 402.984424 269.425104 
L 402.999002 269.451715 
L 403.063144 269.158992 
L 403.066064 269.158992 
L 403.191452 269.265437 
L 403.252704 269.451715 
L 403.299366 269.265437 
L 403.369374 269.292048 
L 403.416048 269.212214 
L 403.459808 269.318659 
L 403.512324 269.079158 
L 403.570681 268.972714 
L 403.623203 269.079158 
L 403.731181 268.972714 
L 404.005571 267.482486 
L 404.037686 267.376042 
L 404.27422 266.23176 
L 404.391056 266.338205 
L 404.879041 269.77105 
L 405.124619 269.664605 
L 405.335179 268.759824 
L 405.475585 268.866269 
L 405.613089 269.10577 
L 405.630645 269.025936 
L 405.677466 269.292048 
L 405.703804 269.292048 
L 405.791598 269.398493 
L 405.914524 269.55816 
L 405.917451 269.531549 
L 405.955503 269.425104 
L 406.64081 263.038416 
L 406.716991 263.490806 
L 406.939726 266.524483 
L 407.209441 269.425104 
L 407.394199 269.318659 
L 407.529127 269.025936 
L 407.534994 269.052547 
L 407.608331 268.946102 
L 407.649406 268.839658 
L 407.678747 268.999325 
L 407.711022 268.999325 
L 407.863614 269.371882 
L 407.878295 269.478326 
L 407.945797 269.637994 
L 407.992758 269.504938 
L 408.072019 269.398493 
L 408.268729 268.626768 
L 408.295156 268.520323 
L 408.447875 268.094544 
L 408.450809 268.121155 
L 408.491929 268.01471 
L 408.515429 267.934877 
L 408.585928 268.147766 
L 408.588868 268.147766 
L 408.694633 268.041322 
L 408.706379 268.01471 
L 408.753392 268.2276 
L 408.785717 268.2276 
L 408.838609 268.334045 
L 408.970859 268.520323 
L 408.994371 268.626768 
L 409.211908 269.584771 
L 409.253073 269.691216 
L 409.279538 269.637994 
L 409.397158 269.983939 
L 409.476566 269.877494 
L 409.570686 269.77105 
L 409.597164 269.797661 
L 409.617756 269.824272 
L 409.664826 269.637994 
L 409.691304 269.637994 
L 409.847244 269.744438 
L 410.017934 270.303274 
L 410.067969 270.409718 
L 410.200435 270.622608 
L 410.25049 270.516163 
L 410.415377 270.01055 
L 410.435994 269.904106 
L 410.730542 268.2276 
L 410.765897 268.121155 
L 410.860183 267.668765 
L 410.92206 267.695376 
L 411.022258 267.801821 
L 411.358314 269.850883 
L 411.41729 269.957328 
L 411.56179 270.276662 
L 411.635529 270.170218 
L 411.780073 269.850883 
L 412.086954 269.957328 
L 412.148933 270.090384 
L 412.20502 270.037162 
L 412.284722 270.143606 
L 412.358531 270.356496 
L 412.405766 270.250051 
L 412.432346 270.143606 
L 412.559321 269.983939 
L 412.677458 269.877494 
L 413.292074 263.78353 
L 413.386679 264.44881 
L 413.667592 268.01471 
L 413.667592 268.01471 
" clip-path="url(#pef570535aa)" style="fill: none; stroke: #1f77b4; stroke-width: 0.2; stroke-linecap: round"/>
   </g>
   <g id="patch_3">
    <path d="M 56.546406 277.248797 
L 56.546406 11.136797 
" style="fill: none; stroke: #262626; stroke-width: 1.25; stroke-linejoin: miter; stroke-linecap: square"/>
   </g>
   <g id="patch_4">
    <path d="M 56.546406 277.248797 
L 413.666406 277.248797 
" style="fill: none; stroke: #262626; stroke-width: 1.25; stroke-linejoin: miter; stroke-linecap: square"/>
   </g>
   <g id="legend_1"/>
  </g>
 </g>
 <defs>
  <clipPath id="pef570535aa">
   <rect x="56.546406" y="11.136797" width="357.12" height="266.112"/>
  </clipPath>
 </defs>
</svg>
