<?xml version="1.0" encoding="utf-8" standalone="no"?>
<!DOCTYPE svg PUBLIC "-//W3C//DTD SVG 1.1//EN"
  "http://www.w3.org/Graphics/SVG/1.1/DTD/svg11.dtd">
<svg xmlns:xlink="http://www.w3.org/1999/xlink" width="599.440625pt" height="488.27625pt" viewBox="0 0 599.440625 488.27625" xmlns="http://www.w3.org/2000/svg" version="1.1">
 <metadata>
  <rdf:RDF xmlns:dc="http://purl.org/dc/elements/1.1/" xmlns:cc="http://creativecommons.org/ns#" xmlns:rdf="http://www.w3.org/1999/02/22-rdf-syntax-ns#">
   <cc:Work>
    <dc:type rdf:resource="http://purl.org/dc/dcmitype/StillImage"/>
    <dc:date>2024-01-23T21:36:33.816906</dc:date>
    <dc:format>image/svg+xml</dc:format>
    <dc:creator>
     <cc:Agent>
      <dc:title>Matplotlib v3.7.1, https://matplotlib.org/</dc:title>
     </cc:Agent>
    </dc:creator>
   </cc:Work>
  </rdf:RDF>
 </metadata>
 <defs>
  <style type="text/css">*{stroke-linejoin: round; stroke-linecap: butt}</style>
 </defs>
 <g id="figure_1">
  <g id="patch_1">
   <path d="M 0 488.27625 
L 599.440625 488.27625 
L 599.440625 0 
L 0 0 
z
" style="fill: #ffffff"/>
  </g>
  <g id="axes_1">
   <g id="patch_2">
    <path d="M 34.240625 208.8 
L 592.240625 208.8 
L 592.240625 7.2 
L 34.240625 7.2 
z
" style="fill: #ffffff"/>
   </g>
   <g id="matplotlib.axis_1">
    <g id="xtick_1">
     <g id="line2d_1">
      <defs>
       <path id="m610ff9040e" d="M 0 0 
L 0 3.5 
" style="stroke: #000000; stroke-width: 0.8"/>
      </defs>
      <g>
       <use xlink:href="#m610ff9040e" x="53.16735" y="208.8" style="stroke: #000000; stroke-width: 0.8"/>
      </g>
     </g>
     <g id="text_1">
      <!-- 100 -->
      <g transform="translate(43.6236 223.398437) scale(0.1 -0.1)">
       <defs>
        <path id="DejaVuSans-31" d="M 794 531 
L 1825 531 
L 1825 4091 
L 703 3866 
L 703 4441 
L 1819 4666 
L 2450 4666 
L 2450 531 
L 3481 531 
L 3481 0 
L 794 0 
L 794 531 
z
" transform="scale(0.015625)"/>
        <path id="DejaVuSans-30" d="M 2034 4250 
Q 1547 4250 1301 3770 
Q 1056 3291 1056 2328 
Q 1056 1369 1301 889 
Q 1547 409 2034 409 
Q 2525 409 2770 889 
Q 3016 1369 3016 2328 
Q 3016 3291 2770 3770 
Q 2525 4250 2034 4250 
z
M 2034 4750 
Q 2819 4750 3233 4129 
Q 3647 3509 3647 2328 
Q 3647 1150 3233 529 
Q 2819 -91 2034 -91 
Q 1250 -91 836 529 
Q 422 1150 422 2328 
Q 422 3509 836 4129 
Q 1250 4750 2034 4750 
z
" transform="scale(0.015625)"/>
       </defs>
       <use xlink:href="#DejaVuSans-31"/>
       <use xlink:href="#DejaVuSans-30" x="63.623047"/>
       <use xlink:href="#DejaVuSans-30" x="127.246094"/>
      </g>
     </g>
    </g>
    <g id="xtick_2">
     <g id="line2d_2">
      <g>
       <use xlink:href="#m610ff9040e" x="126.726676" y="208.8" style="stroke: #000000; stroke-width: 0.8"/>
      </g>
     </g>
     <g id="text_2">
      <!-- 200 -->
      <g transform="translate(117.182926 223.398437) scale(0.1 -0.1)">
       <defs>
        <path id="DejaVuSans-32" d="M 1228 531 
L 3431 531 
L 3431 0 
L 469 0 
L 469 531 
Q 828 903 1448 1529 
Q 2069 2156 2228 2338 
Q 2531 2678 2651 2914 
Q 2772 3150 2772 3378 
Q 2772 3750 2511 3984 
Q 2250 4219 1831 4219 
Q 1534 4219 1204 4116 
Q 875 4013 500 3803 
L 500 4441 
Q 881 4594 1212 4672 
Q 1544 4750 1819 4750 
Q 2544 4750 2975 4387 
Q 3406 4025 3406 3419 
Q 3406 3131 3298 2873 
Q 3191 2616 2906 2266 
Q 2828 2175 2409 1742 
Q 1991 1309 1228 531 
z
" transform="scale(0.015625)"/>
       </defs>
       <use xlink:href="#DejaVuSans-32"/>
       <use xlink:href="#DejaVuSans-30" x="63.623047"/>
       <use xlink:href="#DejaVuSans-30" x="127.246094"/>
      </g>
     </g>
    </g>
    <g id="xtick_3">
     <g id="line2d_3">
      <g>
       <use xlink:href="#m610ff9040e" x="200.286002" y="208.8" style="stroke: #000000; stroke-width: 0.8"/>
      </g>
     </g>
     <g id="text_3">
      <!-- 300 -->
      <g transform="translate(190.742252 223.398437) scale(0.1 -0.1)">
       <defs>
        <path id="DejaVuSans-33" d="M 2597 2516 
Q 3050 2419 3304 2112 
Q 3559 1806 3559 1356 
Q 3559 666 3084 287 
Q 2609 -91 1734 -91 
Q 1441 -91 1130 -33 
Q 819 25 488 141 
L 488 750 
Q 750 597 1062 519 
Q 1375 441 1716 441 
Q 2309 441 2620 675 
Q 2931 909 2931 1356 
Q 2931 1769 2642 2001 
Q 2353 2234 1838 2234 
L 1294 2234 
L 1294 2753 
L 1863 2753 
Q 2328 2753 2575 2939 
Q 2822 3125 2822 3475 
Q 2822 3834 2567 4026 
Q 2313 4219 1838 4219 
Q 1578 4219 1281 4162 
Q 984 4106 628 3988 
L 628 4550 
Q 988 4650 1302 4700 
Q 1616 4750 1894 4750 
Q 2613 4750 3031 4423 
Q 3450 4097 3450 3541 
Q 3450 3153 3228 2886 
Q 3006 2619 2597 2516 
z
" transform="scale(0.015625)"/>
       </defs>
       <use xlink:href="#DejaVuSans-33"/>
       <use xlink:href="#DejaVuSans-30" x="63.623047"/>
       <use xlink:href="#DejaVuSans-30" x="127.246094"/>
      </g>
     </g>
    </g>
    <g id="xtick_4">
     <g id="line2d_4">
      <g>
       <use xlink:href="#m610ff9040e" x="273.845328" y="208.8" style="stroke: #000000; stroke-width: 0.8"/>
      </g>
     </g>
     <g id="text_4">
      <!-- 400 -->
      <g transform="translate(264.301578 223.398437) scale(0.1 -0.1)">
       <defs>
        <path id="DejaVuSans-34" d="M 2419 4116 
L 825 1625 
L 2419 1625 
L 2419 4116 
z
M 2253 4666 
L 3047 4666 
L 3047 1625 
L 3713 1625 
L 3713 1100 
L 3047 1100 
L 3047 0 
L 2419 0 
L 2419 1100 
L 313 1100 
L 313 1709 
L 2253 4666 
z
" transform="scale(0.015625)"/>
       </defs>
       <use xlink:href="#DejaVuSans-34"/>
       <use xlink:href="#DejaVuSans-30" x="63.623047"/>
       <use xlink:href="#DejaVuSans-30" x="127.246094"/>
      </g>
     </g>
    </g>
    <g id="xtick_5">
     <g id="line2d_5">
      <g>
       <use xlink:href="#m610ff9040e" x="347.404655" y="208.8" style="stroke: #000000; stroke-width: 0.8"/>
      </g>
     </g>
     <g id="text_5">
      <!-- 500 -->
      <g transform="translate(337.860905 223.398437) scale(0.1 -0.1)">
       <defs>
        <path id="DejaVuSans-35" d="M 691 4666 
L 3169 4666 
L 3169 4134 
L 1269 4134 
L 1269 2991 
Q 1406 3038 1543 3061 
Q 1681 3084 1819 3084 
Q 2600 3084 3056 2656 
Q 3513 2228 3513 1497 
Q 3513 744 3044 326 
Q 2575 -91 1722 -91 
Q 1428 -91 1123 -41 
Q 819 9 494 109 
L 494 744 
Q 775 591 1075 516 
Q 1375 441 1709 441 
Q 2250 441 2565 725 
Q 2881 1009 2881 1497 
Q 2881 1984 2565 2268 
Q 2250 2553 1709 2553 
Q 1456 2553 1204 2497 
Q 953 2441 691 2322 
L 691 4666 
z
" transform="scale(0.015625)"/>
       </defs>
       <use xlink:href="#DejaVuSans-35"/>
       <use xlink:href="#DejaVuSans-30" x="63.623047"/>
       <use xlink:href="#DejaVuSans-30" x="127.246094"/>
      </g>
     </g>
    </g>
    <g id="xtick_6">
     <g id="line2d_6">
      <g>
       <use xlink:href="#m610ff9040e" x="420.963981" y="208.8" style="stroke: #000000; stroke-width: 0.8"/>
      </g>
     </g>
     <g id="text_6">
      <!-- 600 -->
      <g transform="translate(411.420231 223.398437) scale(0.1 -0.1)">
       <defs>
        <path id="DejaVuSans-36" d="M 2113 2584 
Q 1688 2584 1439 2293 
Q 1191 2003 1191 1497 
Q 1191 994 1439 701 
Q 1688 409 2113 409 
Q 2538 409 2786 701 
Q 3034 994 3034 1497 
Q 3034 2003 2786 2293 
Q 2538 2584 2113 2584 
z
M 3366 4563 
L 3366 3988 
Q 3128 4100 2886 4159 
Q 2644 4219 2406 4219 
Q 1781 4219 1451 3797 
Q 1122 3375 1075 2522 
Q 1259 2794 1537 2939 
Q 1816 3084 2150 3084 
Q 2853 3084 3261 2657 
Q 3669 2231 3669 1497 
Q 3669 778 3244 343 
Q 2819 -91 2113 -91 
Q 1303 -91 875 529 
Q 447 1150 447 2328 
Q 447 3434 972 4092 
Q 1497 4750 2381 4750 
Q 2619 4750 2861 4703 
Q 3103 4656 3366 4563 
z
" transform="scale(0.015625)"/>
       </defs>
       <use xlink:href="#DejaVuSans-36"/>
       <use xlink:href="#DejaVuSans-30" x="63.623047"/>
       <use xlink:href="#DejaVuSans-30" x="127.246094"/>
      </g>
     </g>
    </g>
    <g id="xtick_7">
     <g id="line2d_7">
      <g>
       <use xlink:href="#m610ff9040e" x="494.523307" y="208.8" style="stroke: #000000; stroke-width: 0.8"/>
      </g>
     </g>
     <g id="text_7">
      <!-- 700 -->
      <g transform="translate(484.979557 223.398437) scale(0.1 -0.1)">
       <defs>
        <path id="DejaVuSans-37" d="M 525 4666 
L 3525 4666 
L 3525 4397 
L 1831 0 
L 1172 0 
L 2766 4134 
L 525 4134 
L 525 4666 
z
" transform="scale(0.015625)"/>
       </defs>
       <use xlink:href="#DejaVuSans-37"/>
       <use xlink:href="#DejaVuSans-30" x="63.623047"/>
       <use xlink:href="#DejaVuSans-30" x="127.246094"/>
      </g>
     </g>
    </g>
    <g id="xtick_8">
     <g id="line2d_8">
      <g>
       <use xlink:href="#m610ff9040e" x="568.082633" y="208.8" style="stroke: #000000; stroke-width: 0.8"/>
      </g>
     </g>
     <g id="text_8">
      <!-- 800 -->
      <g transform="translate(558.538883 223.398437) scale(0.1 -0.1)">
       <defs>
        <path id="DejaVuSans-38" d="M 2034 2216 
Q 1584 2216 1326 1975 
Q 1069 1734 1069 1313 
Q 1069 891 1326 650 
Q 1584 409 2034 409 
Q 2484 409 2743 651 
Q 3003 894 3003 1313 
Q 3003 1734 2745 1975 
Q 2488 2216 2034 2216 
z
M 1403 2484 
Q 997 2584 770 2862 
Q 544 3141 544 3541 
Q 544 4100 942 4425 
Q 1341 4750 2034 4750 
Q 2731 4750 3128 4425 
Q 3525 4100 3525 3541 
Q 3525 3141 3298 2862 
Q 3072 2584 2669 2484 
Q 3125 2378 3379 2068 
Q 3634 1759 3634 1313 
Q 3634 634 3220 271 
Q 2806 -91 2034 -91 
Q 1263 -91 848 271 
Q 434 634 434 1313 
Q 434 1759 690 2068 
Q 947 2378 1403 2484 
z
M 1172 3481 
Q 1172 3119 1398 2916 
Q 1625 2713 2034 2713 
Q 2441 2713 2670 2916 
Q 2900 3119 2900 3481 
Q 2900 3844 2670 4047 
Q 2441 4250 2034 4250 
Q 1625 4250 1398 4047 
Q 1172 3844 1172 3481 
z
" transform="scale(0.015625)"/>
       </defs>
       <use xlink:href="#DejaVuSans-38"/>
       <use xlink:href="#DejaVuSans-30" x="63.623047"/>
       <use xlink:href="#DejaVuSans-30" x="127.246094"/>
      </g>
     </g>
    </g>
    <g id="text_9">
     <!-- Temp (oC) -->
     <g transform="translate(287.874219 237.076562) scale(0.1 -0.1)">
      <defs>
       <path id="DejaVuSans-54" d="M -19 4666 
L 3928 4666 
L 3928 4134 
L 2272 4134 
L 2272 0 
L 1638 0 
L 1638 4134 
L -19 4134 
L -19 4666 
z
" transform="scale(0.015625)"/>
       <path id="DejaVuSans-65" d="M 3597 1894 
L 3597 1613 
L 953 1613 
Q 991 1019 1311 708 
Q 1631 397 2203 397 
Q 2534 397 2845 478 
Q 3156 559 3463 722 
L 3463 178 
Q 3153 47 2828 -22 
Q 2503 -91 2169 -91 
Q 1331 -91 842 396 
Q 353 884 353 1716 
Q 353 2575 817 3079 
Q 1281 3584 2069 3584 
Q 2775 3584 3186 3129 
Q 3597 2675 3597 1894 
z
M 3022 2063 
Q 3016 2534 2758 2815 
Q 2500 3097 2075 3097 
Q 1594 3097 1305 2825 
Q 1016 2553 972 2059 
L 3022 2063 
z
" transform="scale(0.015625)"/>
       <path id="DejaVuSans-6d" d="M 3328 2828 
Q 3544 3216 3844 3400 
Q 4144 3584 4550 3584 
Q 5097 3584 5394 3201 
Q 5691 2819 5691 2113 
L 5691 0 
L 5113 0 
L 5113 2094 
Q 5113 2597 4934 2840 
Q 4756 3084 4391 3084 
Q 3944 3084 3684 2787 
Q 3425 2491 3425 1978 
L 3425 0 
L 2847 0 
L 2847 2094 
Q 2847 2600 2669 2842 
Q 2491 3084 2119 3084 
Q 1678 3084 1418 2786 
Q 1159 2488 1159 1978 
L 1159 0 
L 581 0 
L 581 3500 
L 1159 3500 
L 1159 2956 
Q 1356 3278 1631 3431 
Q 1906 3584 2284 3584 
Q 2666 3584 2933 3390 
Q 3200 3197 3328 2828 
z
" transform="scale(0.015625)"/>
       <path id="DejaVuSans-70" d="M 1159 525 
L 1159 -1331 
L 581 -1331 
L 581 3500 
L 1159 3500 
L 1159 2969 
Q 1341 3281 1617 3432 
Q 1894 3584 2278 3584 
Q 2916 3584 3314 3078 
Q 3713 2572 3713 1747 
Q 3713 922 3314 415 
Q 2916 -91 2278 -91 
Q 1894 -91 1617 61 
Q 1341 213 1159 525 
z
M 3116 1747 
Q 3116 2381 2855 2742 
Q 2594 3103 2138 3103 
Q 1681 3103 1420 2742 
Q 1159 2381 1159 1747 
Q 1159 1113 1420 752 
Q 1681 391 2138 391 
Q 2594 391 2855 752 
Q 3116 1113 3116 1747 
z
" transform="scale(0.015625)"/>
       <path id="DejaVuSans-20" transform="scale(0.015625)"/>
       <path id="DejaVuSans-28" d="M 1984 4856 
Q 1566 4138 1362 3434 
Q 1159 2731 1159 2009 
Q 1159 1288 1364 580 
Q 1569 -128 1984 -844 
L 1484 -844 
Q 1016 -109 783 600 
Q 550 1309 550 2009 
Q 550 2706 781 3412 
Q 1013 4119 1484 4856 
L 1984 4856 
z
" transform="scale(0.015625)"/>
       <path id="DejaVuSans-6f" d="M 1959 3097 
Q 1497 3097 1228 2736 
Q 959 2375 959 1747 
Q 959 1119 1226 758 
Q 1494 397 1959 397 
Q 2419 397 2687 759 
Q 2956 1122 2956 1747 
Q 2956 2369 2687 2733 
Q 2419 3097 1959 3097 
z
M 1959 3584 
Q 2709 3584 3137 3096 
Q 3566 2609 3566 1747 
Q 3566 888 3137 398 
Q 2709 -91 1959 -91 
Q 1206 -91 779 398 
Q 353 888 353 1747 
Q 353 2609 779 3096 
Q 1206 3584 1959 3584 
z
" transform="scale(0.015625)"/>
       <path id="DejaVuSans-43" d="M 4122 4306 
L 4122 3641 
Q 3803 3938 3442 4084 
Q 3081 4231 2675 4231 
Q 1875 4231 1450 3742 
Q 1025 3253 1025 2328 
Q 1025 1406 1450 917 
Q 1875 428 2675 428 
Q 3081 428 3442 575 
Q 3803 722 4122 1019 
L 4122 359 
Q 3791 134 3420 21 
Q 3050 -91 2638 -91 
Q 1578 -91 968 557 
Q 359 1206 359 2328 
Q 359 3453 968 4101 
Q 1578 4750 2638 4750 
Q 3056 4750 3426 4639 
Q 3797 4528 4122 4306 
z
" transform="scale(0.015625)"/>
       <path id="DejaVuSans-29" d="M 513 4856 
L 1013 4856 
Q 1481 4119 1714 3412 
Q 1947 2706 1947 2009 
Q 1947 1309 1714 600 
Q 1481 -109 1013 -844 
L 513 -844 
Q 928 -128 1133 580 
Q 1338 1288 1338 2009 
Q 1338 2731 1133 3434 
Q 928 4138 513 4856 
z
" transform="scale(0.015625)"/>
      </defs>
      <use xlink:href="#DejaVuSans-54"/>
      <use xlink:href="#DejaVuSans-65" x="44.083984"/>
      <use xlink:href="#DejaVuSans-6d" x="105.607422"/>
      <use xlink:href="#DejaVuSans-70" x="203.019531"/>
      <use xlink:href="#DejaVuSans-20" x="266.496094"/>
      <use xlink:href="#DejaVuSans-28" x="298.283203"/>
      <use xlink:href="#DejaVuSans-6f" x="337.296875"/>
      <use xlink:href="#DejaVuSans-43" x="398.478516"/>
      <use xlink:href="#DejaVuSans-29" x="468.302734"/>
     </g>
    </g>
   </g>
   <g id="matplotlib.axis_2">
    <g id="ytick_1">
     <g id="line2d_9">
      <defs>
       <path id="m0aa2f7828a" d="M 0 0 
L -3.5 0 
" style="stroke: #000000; stroke-width: 0.8"/>
      </defs>
      <g>
       <use xlink:href="#m0aa2f7828a" x="34.240625" y="183.86078" style="stroke: #000000; stroke-width: 0.8"/>
      </g>
     </g>
     <g id="text_10">
      <!-- 1 -->
      <g transform="translate(20.878125 187.659998) scale(0.1 -0.1)">
       <use xlink:href="#DejaVuSans-31"/>
      </g>
     </g>
    </g>
    <g id="ytick_2">
     <g id="line2d_10">
      <g>
       <use xlink:href="#m0aa2f7828a" x="34.240625" y="155.770222" style="stroke: #000000; stroke-width: 0.8"/>
      </g>
     </g>
     <g id="text_11">
      <!-- 2 -->
      <g transform="translate(20.878125 159.569441) scale(0.1 -0.1)">
       <use xlink:href="#DejaVuSans-32"/>
      </g>
     </g>
    </g>
    <g id="ytick_3">
     <g id="line2d_11">
      <g>
       <use xlink:href="#m0aa2f7828a" x="34.240625" y="127.679665" style="stroke: #000000; stroke-width: 0.8"/>
      </g>
     </g>
     <g id="text_12">
      <!-- 3 -->
      <g transform="translate(20.878125 131.478883) scale(0.1 -0.1)">
       <use xlink:href="#DejaVuSans-33"/>
      </g>
     </g>
    </g>
    <g id="ytick_4">
     <g id="line2d_12">
      <g>
       <use xlink:href="#m0aa2f7828a" x="34.240625" y="99.589107" style="stroke: #000000; stroke-width: 0.8"/>
      </g>
     </g>
     <g id="text_13">
      <!-- 4 -->
      <g transform="translate(20.878125 103.388326) scale(0.1 -0.1)">
       <use xlink:href="#DejaVuSans-34"/>
      </g>
     </g>
    </g>
    <g id="ytick_5">
     <g id="line2d_13">
      <g>
       <use xlink:href="#m0aa2f7828a" x="34.240625" y="71.49855" style="stroke: #000000; stroke-width: 0.8"/>
      </g>
     </g>
     <g id="text_14">
      <!-- 5 -->
      <g transform="translate(20.878125 75.297768) scale(0.1 -0.1)">
       <use xlink:href="#DejaVuSans-35"/>
      </g>
     </g>
    </g>
    <g id="ytick_6">
     <g id="line2d_14">
      <g>
       <use xlink:href="#m0aa2f7828a" x="34.240625" y="43.407992" style="stroke: #000000; stroke-width: 0.8"/>
      </g>
     </g>
     <g id="text_15">
      <!-- 6 -->
      <g transform="translate(20.878125 47.207211) scale(0.1 -0.1)">
       <use xlink:href="#DejaVuSans-36"/>
      </g>
     </g>
    </g>
    <g id="ytick_7">
     <g id="line2d_15">
      <g>
       <use xlink:href="#m0aa2f7828a" x="34.240625" y="15.317435" style="stroke: #000000; stroke-width: 0.8"/>
      </g>
     </g>
     <g id="text_16">
      <!-- 7 -->
      <g transform="translate(20.878125 19.116654) scale(0.1 -0.1)">
       <use xlink:href="#DejaVuSans-37"/>
      </g>
     </g>
    </g>
    <g id="text_17">
     <!-- Mass (mg) -->
     <g transform="translate(14.798437 134.122656) rotate(-90) scale(0.1 -0.1)">
      <defs>
       <path id="DejaVuSans-4d" d="M 628 4666 
L 1569 4666 
L 2759 1491 
L 3956 4666 
L 4897 4666 
L 4897 0 
L 4281 0 
L 4281 4097 
L 3078 897 
L 2444 897 
L 1241 4097 
L 1241 0 
L 628 0 
L 628 4666 
z
" transform="scale(0.015625)"/>
       <path id="DejaVuSans-61" d="M 2194 1759 
Q 1497 1759 1228 1600 
Q 959 1441 959 1056 
Q 959 750 1161 570 
Q 1363 391 1709 391 
Q 2188 391 2477 730 
Q 2766 1069 2766 1631 
L 2766 1759 
L 2194 1759 
z
M 3341 1997 
L 3341 0 
L 2766 0 
L 2766 531 
Q 2569 213 2275 61 
Q 1981 -91 1556 -91 
Q 1019 -91 701 211 
Q 384 513 384 1019 
Q 384 1609 779 1909 
Q 1175 2209 1959 2209 
L 2766 2209 
L 2766 2266 
Q 2766 2663 2505 2880 
Q 2244 3097 1772 3097 
Q 1472 3097 1187 3025 
Q 903 2953 641 2809 
L 641 3341 
Q 956 3463 1253 3523 
Q 1550 3584 1831 3584 
Q 2591 3584 2966 3190 
Q 3341 2797 3341 1997 
z
" transform="scale(0.015625)"/>
       <path id="DejaVuSans-73" d="M 2834 3397 
L 2834 2853 
Q 2591 2978 2328 3040 
Q 2066 3103 1784 3103 
Q 1356 3103 1142 2972 
Q 928 2841 928 2578 
Q 928 2378 1081 2264 
Q 1234 2150 1697 2047 
L 1894 2003 
Q 2506 1872 2764 1633 
Q 3022 1394 3022 966 
Q 3022 478 2636 193 
Q 2250 -91 1575 -91 
Q 1294 -91 989 -36 
Q 684 19 347 128 
L 347 722 
Q 666 556 975 473 
Q 1284 391 1588 391 
Q 1994 391 2212 530 
Q 2431 669 2431 922 
Q 2431 1156 2273 1281 
Q 2116 1406 1581 1522 
L 1381 1569 
Q 847 1681 609 1914 
Q 372 2147 372 2553 
Q 372 3047 722 3315 
Q 1072 3584 1716 3584 
Q 2034 3584 2315 3537 
Q 2597 3491 2834 3397 
z
" transform="scale(0.015625)"/>
       <path id="DejaVuSans-67" d="M 2906 1791 
Q 2906 2416 2648 2759 
Q 2391 3103 1925 3103 
Q 1463 3103 1205 2759 
Q 947 2416 947 1791 
Q 947 1169 1205 825 
Q 1463 481 1925 481 
Q 2391 481 2648 825 
Q 2906 1169 2906 1791 
z
M 3481 434 
Q 3481 -459 3084 -895 
Q 2688 -1331 1869 -1331 
Q 1566 -1331 1297 -1286 
Q 1028 -1241 775 -1147 
L 775 -588 
Q 1028 -725 1275 -790 
Q 1522 -856 1778 -856 
Q 2344 -856 2625 -561 
Q 2906 -266 2906 331 
L 2906 616 
Q 2728 306 2450 153 
Q 2172 0 1784 0 
Q 1141 0 747 490 
Q 353 981 353 1791 
Q 353 2603 747 3093 
Q 1141 3584 1784 3584 
Q 2172 3584 2450 3431 
Q 2728 3278 2906 2969 
L 2906 3500 
L 3481 3500 
L 3481 434 
z
" transform="scale(0.015625)"/>
      </defs>
      <use xlink:href="#DejaVuSans-4d"/>
      <use xlink:href="#DejaVuSans-61" x="86.279297"/>
      <use xlink:href="#DejaVuSans-73" x="147.558594"/>
      <use xlink:href="#DejaVuSans-73" x="199.658203"/>
      <use xlink:href="#DejaVuSans-20" x="251.757812"/>
      <use xlink:href="#DejaVuSans-28" x="283.544922"/>
      <use xlink:href="#DejaVuSans-6d" x="322.558594"/>
      <use xlink:href="#DejaVuSans-67" x="419.970703"/>
      <use xlink:href="#DejaVuSans-29" x="483.447266"/>
     </g>
    </g>
   </g>
   <g id="line2d_16">
    <path d="M 59.607829 20.654641 
L 59.836422 20.616707 
L 59.939501 20.585257 
L 60.565454 20.555836 
L 60.754965 20.55905 
L 61.16547 20.536572 
L 62.994236 20.451292 
L 63.450958 20.432029 
L 75.674458 20.088957 
L 75.971645 20.079507 
L 77.21944 20.036083 
L 77.43694 19.999909 
L 79.713814 19.886202 
L 80.229833 19.818846 
L 80.445803 19.85722 
L 81.773954 19.758397 
L 82.142515 19.758339 
L 82.588263 19.755374 
L 84.365397 19.666555 
L 84.663357 19.627722 
L 84.803818 19.628736 
L 85.167738 19.610658 
L 85.61506 19.612093 
L 86.346629 19.513881 
L 86.571596 19.514072 
L 87.963949 19.447616 
L 88.192696 19.434015 
L 90.395224 19.339342 
L 90.618271 19.292092 
L 90.834925 19.297295 
L 91.427791 19.259552 
L 94.446556 19.15321 
L 94.751444 19.121168 
L 95.701596 19.088265 
L 95.922134 19.054138 
L 96.356377 19.050254 
L 97.028694 18.992712 
L 97.769562 18.973851 
L 97.978183 18.95407 
L 98.494025 18.935094 
L 99.534772 18.858881 
L 100.117399 18.821062 
L 102.772228 18.716346 
L 103.137333 18.674376 
L 103.348095 18.677991 
L 104.893635 18.584141 
L 105.336345 18.55405 
L 105.479594 18.569201 
L 106.954841 18.516231 
L 108.352373 18.439865 
L 108.648162 18.40128 
L 109.533868 18.369621 
L 111.599267 18.239386 
L 112.037011 18.201414 
L 113.13239 18.163154 
L 115.485067 18.081356 
L 115.785999 18.035445 
L 116.663914 17.972412 
L 118.939053 17.877395 
L 119.382623 17.838715 
L 119.604684 17.857902 
L 120.792108 17.751943 
L 120.937086 17.800857 
L 121.081888 17.782244 
L 121.674687 17.769427 
L 122.107856 17.747849 
L 125.048971 17.604664 
L 126.019175 17.537059 
L 126.231585 17.542875 
L 128.22374 17.480015 
L 129.109365 17.442061 
L 129.25068 17.441507 
L 131.170461 17.356112 
L 131.313902 17.355576 
L 132.482112 17.318197 
L 132.627664 17.317623 
L 136.53437 17.168029 
L 136.910405 17.142452 
L 137.199479 17.142912 
L 138.443632 17.072572 
L 138.73581 17.02974 
L 143.368804 16.866794 
L 143.51668 16.837564 
L 143.803694 16.866105 
L 146.370885 16.76841 
L 146.957256 16.75215 
L 154.462477 16.689596 
L 154.619056 16.670849 
L 156.011519 16.685311 
L 158.729573 16.736253 
L 158.948787 16.742604 
L 159.237 16.758329 
L 161.381909 16.845732 
L 161.745461 16.911251 
L 161.965742 16.872782 
L 163.143456 16.977249 
L 163.583584 17.0025 
L 164.245058 17.03481 
L 164.390662 17.11152 
L 164.535515 17.072974 
L 164.826067 17.11108 
L 165.123298 17.149167 
L 165.275647 17.149645 
L 165.93604 17.193357 
L 166.227983 17.235097 
L 167.107745 17.347771 
L 167.699397 17.406652 
L 168.507741 17.504998 
L 168.799734 17.571933 
L 169.60657 17.676763 
L 170.792317 17.876324 
L 171.524092 17.985765 
L 173.588829 18.385977 
L 174.173971 18.481682 
L 177.337074 19.224507 
L 177.845965 19.334732 
L 178.434925 19.491059 
L 178.800875 19.595641 
L 179.10099 19.681974 
L 180.574537 20.063266 
L 180.865023 20.139479 
L 182.557925 20.668911 
L 182.699306 20.650987 
L 183.062924 20.81973 
L 183.660145 20.93357 
L 184.179562 21.087756 
L 184.392855 21.162725 
L 184.763145 21.27647 
L 185.052182 21.358383 
L 185.944633 21.670331 
L 186.233456 21.71804 
L 186.517057 21.835324 
L 187.843729 22.254072 
L 188.136951 22.361543 
L 189.539823 22.857269 
L 189.752034 22.890134 
L 190.193839 23.057385 
L 191.081472 23.35619 
L 191.369597 23.503833 
L 191.671837 23.576143 
L 192.849242 24.063376 
L 192.992595 24.099473 
L 193.511953 24.340584 
L 194.249165 24.607806 
L 194.471976 24.730179 
L 194.686078 24.801551 
L 195.853479 25.335269 
L 196.226792 25.485647 
L 196.519875 25.619976 
L 197.250871 25.96586 
L 197.839404 26.285612 
L 198.283916 26.493112 
L 198.576049 26.625317 
L 199.679961 27.2042 
L 199.750255 27.185338 
L 200.047957 27.402938 
L 200.999667 27.937861 
L 207.109475 31.466692 
L 207.401462 31.644636 
L 208.423613 32.284715 
L 209.234627 32.749374 
L 209.457673 32.882727 
L 209.975354 33.213154 
L 210.639705 33.659143 
L 211.003839 33.871023 
L 213.060307 35.183242 
L 214.322747 35.984565 
L 215.860851 36.991436 
L 218.442783 38.717257 
L 219.615135 39.557758 
L 219.9032 39.728127 
L 220.275072 40.058247 
L 221.088859 40.605662 
L 221.678915 41.056395 
L 226.67569 45.470605 
L 226.892499 45.734135 
L 227.331685 46.210368 
L 227.701681 46.599772 
L 230.131316 49.460518 
L 230.349 49.785168 
L 230.649195 50.146106 
L 232.772184 53.223554 
L 236.082729 58.969054 
L 236.448686 59.750788 
L 239.315514 66.130992 
L 242.334058 74.199064 
L 242.992715 76.266274 
L 243.357312 77.405886 
L 246.961381 89.982744 
L 249.24859 99.148783 
L 254.615412 124.041304 
L 260.85637 154.37767 
L 261.006438 154.983544 
L 262.192862 160.18714 
L 264.771109 170.452293 
L 266.308609 175.784344 
L 269.537039 184.683007 
L 271.15828 188.077548 
L 271.822307 189.210675 
L 272.121363 189.737793 
L 273.497687 191.884505 
L 273.57922 191.928656 
L 273.767046 192.177763 
L 274.414185 192.423082 
L 280.373204 193.947621 
L 281.715588 194.309267 
L 287.931123 196.001191 
L 288.300979 196.00033 
L 289.412637 196.3342 
L 298.089754 198.034464 
L 301.107592 198.456866 
L 311.221072 199.337711 
L 313.824734 199.412891 
L 314.57565 199.471102 
L 316.059459 199.537712 
L 331.606046 199.456028 
L 333.084176 199.378974 
L 336.769381 199.284741 
L 338.607849 199.226472 
L 339.340633 199.223584 
L 341.921976 199.184808 
L 342.667338 199.108767 
L 348.187061 199.000838 
L 348.922389 198.940771 
L 350.390612 198.934037 
L 354.065378 198.848413 
L 354.803185 198.813118 
L 355.53616 198.81331 
L 357.016828 198.77505 
L 361.784113 198.670277 
L 363.259897 198.62251 
L 363.993614 198.622491 
L 369.148534 198.534762 
L 370.993461 198.486001 
L 377.235838 198.381228 
L 378.349923 198.34534 
L 379.454791 198.333461 
L 383.493471 198.240892 
L 385.712424 198.219142 
L 393.057662 198.126248 
L 396.746728 198.050744 
L 401.523788 197.974053 
L 402.9998 197.908342 
L 419.921792 197.697763 
L 421.767359 197.704229 
L 431.710079 197.618279 
L 432.811645 197.576997 
L 433.550651 197.577896 
L 434.290121 197.576997 
L 442.024413 197.473793 
L 444.977217 197.491316 
L 458.236903 197.367432 
L 469.649787 197.278632 
L 470.751243 197.240181 
L 484.373974 197.157675 
L 485.479379 197.164045 
L 488.055647 197.154595 
L 489.16095 197.107498 
L 526.739916 196.932021 
L 527.474752 196.93206 
L 543.296818 196.838076 
L 544.034596 196.836545 
L 561.347527 196.76039 
L 562.085886 196.760562 
L 566.876989 196.693513 
L 566.876989 196.693513 
" clip-path="url(#p63e710d7c3)" style="fill: none; stroke: #ffa500; stroke-width: 1.5; stroke-linecap: square"/>
   </g>
   <g id="line2d_17">
    <path d="M 59.604261 19.811924 
L 59.826477 19.773016 
L 60.763762 19.681615 
L 61.024361 19.649451 
L 61.441737 19.642323 
L 75.31201 19.128868 
L 75.536307 19.128081 
L 77.527006 19.070516 
L 77.740012 19.006591 
L 78.040347 19.007321 
L 80.829562 18.884102 
L 81.120107 18.854743 
L 83.172353 18.782345 
L 83.393237 18.742956 
L 84.9393 18.667004 
L 85.608439 18.62896 
L 86.940032 18.535638 
L 87.380403 18.512735 
L 87.738975 18.553372 
L 88.036258 18.514676 
L 89.294777 18.476382 
L 89.511681 18.422487 
L 92.092591 18.309355 
L 92.52573 18.263184 
L 92.749108 18.270024 
L 94.742397 18.176414 
L 95.117682 18.1748 
L 96.729572 18.080171 
L 97.097295 18.055193 
L 98.426571 18.039592 
L 98.791337 18.003104 
L 100.846681 17.908341 
L 101.366031 17.8854 
L 104.315157 17.783162 
L 104.978508 17.767868 
L 106.520591 17.675852 
L 108.874151 17.587103 
L 109.238902 17.560626 
L 109.461691 17.557033 
L 110.342741 17.545351 
L 110.642444 17.484943 
L 114.026585 17.387932 
L 114.461739 17.368756 
L 120.056838 17.199289 
L 120.274522 17.195792 
L 121.157073 17.177059 
L 121.451795 17.138746 
L 124.618907 17.035183 
L 124.843741 17.03061 
L 125.499633 17.014951 
L 125.792428 16.970931 
L 128.069979 16.967454 
L 128.295601 16.927642 
L 130.201037 16.863372 
L 130.645534 16.847347 
L 131.091502 16.835588 
L 131.760561 16.778888 
L 131.97926 16.808747 
L 132.77693 16.751162 
L 133.006597 16.792434 
L 133.292743 16.737809 
L 134.616855 16.736598 
L 134.832619 16.732198 
L 136.016895 16.684086 
L 141.682618 16.559657 
L 144.176478 16.557351 
L 169.838488 16.470581 
L 170.05078 16.479439 
L 170.865405 16.484723 
L 171.240771 16.492716 
L 178.500209 16.639337 
L 178.655345 16.640413 
L 179.891473 16.673327 
L 180.129401 16.677784 
L 182.269352 16.761346 
L 182.47968 16.792933 
L 182.630624 16.791819 
L 184.975268 16.867945 
L 185.275964 16.906007 
L 186.826264 17.024865 
L 187.043139 17.02035 
L 188.138194 17.055607 
L 188.436073 17.101471 
L 189.61403 17.124758 
L 189.9094 17.170891 
L 190.058843 17.172755 
L 190.346041 17.219598 
L 190.871512 17.245979 
L 191.090814 17.284733 
L 192.260768 17.351925 
L 192.404562 17.381629 
L 192.771358 17.395636 
L 193.946887 17.472031 
L 194.305872 17.50089 
L 195.639142 17.594943 
L 196.226381 17.653372 
L 196.964784 17.748904 
L 197.554538 17.805662 
L 198.511236 17.881788 
L 198.737343 17.925422 
L 199.320963 17.954935 
L 199.542759 17.967981 
L 200.931912 18.204255 
L 201.157768 18.212306 
L 202.120373 18.285434 
L 202.333504 18.365287 
L 202.554248 18.355642 
L 203.583056 18.507701 
L 204.45878 18.619776 
L 204.824083 18.699091 
L 205.624842 18.80325 
L 207.54299 19.145988 
L 208.951519 19.401457 
L 209.534123 19.515491 
L 216.611215 21.202667 
L 216.904025 21.317586 
L 217.263289 21.447223 
L 217.84924 21.685149 
L 218.147428 21.738717 
L 219.118984 22.079707 
L 220.20436 22.474611 
L 220.507358 22.599848 
L 221.09403 22.820424 
L 221.452941 22.998249 
L 225.498601 25.011812 
L 225.71869 25.196689 
L 226.005373 25.349555 
L 227.483357 26.347834 
L 227.701651 26.465693 
L 229.10075 27.552107 
L 229.915375 28.265232 
L 230.653683 28.965311 
L 230.871543 29.133452 
L 231.458525 29.730814 
L 232.492107 30.821378 
L 232.924584 31.370532 
L 234.469036 33.218355 
L 237.635125 37.979666 
L 237.919108 38.527167 
L 238.591396 39.72337 
L 239.611436 41.741141 
L 241.824093 46.676453 
L 242.839315 49.315046 
L 244.392593 53.626366 
L 244.898284 55.178392 
L 245.79576 58.001688 
L 246.449194 60.287475 
L 247.631116 64.459686 
L 248.291208 67.066614 
L 249.314646 71.220688 
L 249.975643 74.077378 
L 251.302477 79.946834 
L 251.877836 82.8222 
L 254.3869 95.250815 
L 259.619021 124.032588 
L 261.530055 134.54663 
L 262.183446 137.99924 
L 263.80615 146.422133 
L 267.998921 165.916252 
L 268.816401 169.103422 
L 269.319826 171.123768 
L 272.04631 180.352973 
L 273.783502 184.913767 
L 274.178868 185.286863 
L 276.158217 186.205578 
L 277.203194 186.652975 
L 284.261329 190.596502 
L 287.943201 192.451204 
L 289.443245 193.207599 
L 296.233426 196.197538 
L 297.728519 196.740813 
L 299.993719 197.471346 
L 305.634263 198.583161 
L 309.754454 198.888316 
L 320.161024 198.783543 
L 321.643185 198.780161 
L 331.621199 198.56752 
L 332.727465 198.519024 
L 335.670184 198.491107 
L 338.258442 198.414981 
L 343.03345 198.338586 
L 344.140702 198.30037 
L 349.657129 198.214656 
L 351.129427 198.186047 
L 354.8133 198.166641 
L 355.924274 198.128732 
L 361.808005 198.033584 
L 362.537765 198.033527 
L 366.957606 197.919165 
L 367.687602 197.918992 
L 375.046329 197.823806 
L 375.78221 197.824325 
L 381.295569 197.728428 
L 382.394612 197.690173 
L 391.221415 197.604556 
L 392.322002 197.566378 
L 398.58549 197.489964 
L 399.321665 197.489945 
L 406.305807 197.413819 
L 407.776037 197.375641 
L 416.254544 197.280417 
L 420.29198 197.195011 
L 421.394369 197.204003 
L 429.488484 197.118309 
L 430.231595 197.118309 
L 436.487338 197.031347 
L 437.594685 197.010845 
L 438.7004 197.004005 
L 453.803012 196.917811 
L 454.910852 196.879845 
L 469.627984 196.775071 
L 470.724629 196.740179 
L 471.845629 196.759047 
L 489.888018 196.654273 
L 493.566705 196.616076 
L 511.615479 196.511321 
L 514.191151 196.482635 
L 528.562974 196.398286 
L 530.029504 196.387968 
L 554.690695 196.275489 
L 555.801359 196.234871 
L 566.845424 196.139378 
L 566.845424 196.139378 
" clip-path="url(#p63e710d7c3)" style="fill: none; stroke: #0000ff; stroke-width: 1.5; stroke-linecap: square"/>
   </g>
   <g id="patch_3">
    <path d="M 34.240625 208.8 
L 34.240625 7.2 
" style="fill: none; stroke: #000000; stroke-width: 0.8; stroke-linejoin: miter; stroke-linecap: square"/>
   </g>
   <g id="patch_4">
    <path d="M 592.240625 208.8 
L 592.240625 7.2 
" style="fill: none; stroke: #000000; stroke-width: 0.8; stroke-linejoin: miter; stroke-linecap: square"/>
   </g>
   <g id="patch_5">
    <path d="M 34.240625 208.8 
L 592.240625 208.8 
" style="fill: none; stroke: #000000; stroke-width: 0.8; stroke-linejoin: miter; stroke-linecap: square"/>
   </g>
   <g id="patch_6">
    <path d="M 34.240625 7.2 
L 592.240625 7.2 
" style="fill: none; stroke: #000000; stroke-width: 0.8; stroke-linejoin: miter; stroke-linecap: square"/>
   </g>
   <g id="legend_1">
    <g id="patch_7">
     <path d="M 511.809375 44.55625 
L 585.240625 44.55625 
Q 587.240625 44.55625 587.240625 42.55625 
L 587.240625 14.2 
Q 587.240625 12.2 585.240625 12.2 
L 511.809375 12.2 
Q 509.809375 12.2 509.809375 14.2 
L 509.809375 42.55625 
Q 509.809375 44.55625 511.809375 44.55625 
z
" style="fill: #ffffff; opacity: 0.8; stroke: #cccccc; stroke-linejoin: miter"/>
    </g>
    <g id="line2d_18">
     <path d="M 513.809375 20.298437 
L 523.809375 20.298437 
L 533.809375 20.298437 
" style="fill: none; stroke: #ffa500; stroke-width: 1.5; stroke-linecap: square"/>
    </g>
    <g id="text_18">
     <!-- PS -->
     <g transform="translate(541.809375 23.798437) scale(0.1 -0.1)">
      <defs>
       <path id="DejaVuSans-50" d="M 1259 4147 
L 1259 2394 
L 2053 2394 
Q 2494 2394 2734 2622 
Q 2975 2850 2975 3272 
Q 2975 3691 2734 3919 
Q 2494 4147 2053 4147 
L 1259 4147 
z
M 628 4666 
L 2053 4666 
Q 2838 4666 3239 4311 
Q 3641 3956 3641 3272 
Q 3641 2581 3239 2228 
Q 2838 1875 2053 1875 
L 1259 1875 
L 1259 0 
L 628 0 
L 628 4666 
z
" transform="scale(0.015625)"/>
       <path id="DejaVuSans-53" d="M 3425 4513 
L 3425 3897 
Q 3066 4069 2747 4153 
Q 2428 4238 2131 4238 
Q 1616 4238 1336 4038 
Q 1056 3838 1056 3469 
Q 1056 3159 1242 3001 
Q 1428 2844 1947 2747 
L 2328 2669 
Q 3034 2534 3370 2195 
Q 3706 1856 3706 1288 
Q 3706 609 3251 259 
Q 2797 -91 1919 -91 
Q 1588 -91 1214 -16 
Q 841 59 441 206 
L 441 856 
Q 825 641 1194 531 
Q 1563 422 1919 422 
Q 2459 422 2753 634 
Q 3047 847 3047 1241 
Q 3047 1584 2836 1778 
Q 2625 1972 2144 2069 
L 1759 2144 
Q 1053 2284 737 2584 
Q 422 2884 422 3419 
Q 422 4038 858 4394 
Q 1294 4750 2059 4750 
Q 2388 4750 2728 4690 
Q 3069 4631 3425 4513 
z
" transform="scale(0.015625)"/>
      </defs>
      <use xlink:href="#DejaVuSans-50"/>
      <use xlink:href="#DejaVuSans-53" x="60.302734"/>
     </g>
    </g>
    <g id="line2d_19">
     <path d="M 513.809375 34.976562 
L 523.809375 34.976562 
L 533.809375 34.976562 
" style="fill: none; stroke: #0000ff; stroke-width: 1.5; stroke-linecap: square"/>
    </g>
    <g id="text_19">
     <!-- SCF3-PS -->
     <g transform="translate(541.809375 38.476562) scale(0.1 -0.1)">
      <defs>
       <path id="DejaVuSans-46" d="M 628 4666 
L 3309 4666 
L 3309 4134 
L 1259 4134 
L 1259 2759 
L 3109 2759 
L 3109 2228 
L 1259 2228 
L 1259 0 
L 628 0 
L 628 4666 
z
" transform="scale(0.015625)"/>
       <path id="DejaVuSans-2d" d="M 313 2009 
L 1997 2009 
L 1997 1497 
L 313 1497 
L 313 2009 
z
" transform="scale(0.015625)"/>
      </defs>
      <use xlink:href="#DejaVuSans-53"/>
      <use xlink:href="#DejaVuSans-43" x="63.476562"/>
      <use xlink:href="#DejaVuSans-46" x="133.300781"/>
      <use xlink:href="#DejaVuSans-33" x="190.820312"/>
      <use xlink:href="#DejaVuSans-2d" x="254.443359"/>
      <use xlink:href="#DejaVuSans-50" x="290.527344"/>
      <use xlink:href="#DejaVuSans-53" x="350.830078"/>
     </g>
    </g>
   </g>
  </g>
  <g id="axes_2">
   <g id="patch_8">
    <path d="M 34.240625 450.72 
L 592.240625 450.72 
L 592.240625 249.12 
L 34.240625 249.12 
z
" style="fill: #ffffff"/>
   </g>
   <g id="matplotlib.axis_3">
    <g id="xtick_9">
     <g id="line2d_20">
      <g>
       <use xlink:href="#m610ff9040e" x="53.223106" y="450.72" style="stroke: #000000; stroke-width: 0.8"/>
      </g>
     </g>
     <g id="text_20">
      <!-- 100 -->
      <g transform="translate(43.679356 465.318437) scale(0.1 -0.1)">
       <use xlink:href="#DejaVuSans-31"/>
       <use xlink:href="#DejaVuSans-30" x="63.623047"/>
       <use xlink:href="#DejaVuSans-30" x="127.246094"/>
      </g>
     </g>
    </g>
    <g id="xtick_10">
     <g id="line2d_21">
      <g>
       <use xlink:href="#m610ff9040e" x="126.951072" y="450.72" style="stroke: #000000; stroke-width: 0.8"/>
      </g>
     </g>
     <g id="text_21">
      <!-- 200 -->
      <g transform="translate(117.407322 465.318437) scale(0.1 -0.1)">
       <use xlink:href="#DejaVuSans-32"/>
       <use xlink:href="#DejaVuSans-30" x="63.623047"/>
       <use xlink:href="#DejaVuSans-30" x="127.246094"/>
      </g>
     </g>
    </g>
    <g id="xtick_11">
     <g id="line2d_22">
      <g>
       <use xlink:href="#m610ff9040e" x="200.679037" y="450.72" style="stroke: #000000; stroke-width: 0.8"/>
      </g>
     </g>
     <g id="text_22">
      <!-- 300 -->
      <g transform="translate(191.135287 465.318437) scale(0.1 -0.1)">
       <use xlink:href="#DejaVuSans-33"/>
       <use xlink:href="#DejaVuSans-30" x="63.623047"/>
       <use xlink:href="#DejaVuSans-30" x="127.246094"/>
      </g>
     </g>
    </g>
    <g id="xtick_12">
     <g id="line2d_23">
      <g>
       <use xlink:href="#m610ff9040e" x="274.407003" y="450.72" style="stroke: #000000; stroke-width: 0.8"/>
      </g>
     </g>
     <g id="text_23">
      <!-- 400 -->
      <g transform="translate(264.863253 465.318437) scale(0.1 -0.1)">
       <use xlink:href="#DejaVuSans-34"/>
       <use xlink:href="#DejaVuSans-30" x="63.623047"/>
       <use xlink:href="#DejaVuSans-30" x="127.246094"/>
      </g>
     </g>
    </g>
    <g id="xtick_13">
     <g id="line2d_24">
      <g>
       <use xlink:href="#m610ff9040e" x="348.134969" y="450.72" style="stroke: #000000; stroke-width: 0.8"/>
      </g>
     </g>
     <g id="text_24">
      <!-- 500 -->
      <g transform="translate(338.591219 465.318437) scale(0.1 -0.1)">
       <use xlink:href="#DejaVuSans-35"/>
       <use xlink:href="#DejaVuSans-30" x="63.623047"/>
       <use xlink:href="#DejaVuSans-30" x="127.246094"/>
      </g>
     </g>
    </g>
    <g id="xtick_14">
     <g id="line2d_25">
      <g>
       <use xlink:href="#m610ff9040e" x="421.862935" y="450.72" style="stroke: #000000; stroke-width: 0.8"/>
      </g>
     </g>
     <g id="text_25">
      <!-- 600 -->
      <g transform="translate(412.319185 465.318437) scale(0.1 -0.1)">
       <use xlink:href="#DejaVuSans-36"/>
       <use xlink:href="#DejaVuSans-30" x="63.623047"/>
       <use xlink:href="#DejaVuSans-30" x="127.246094"/>
      </g>
     </g>
    </g>
    <g id="xtick_15">
     <g id="line2d_26">
      <g>
       <use xlink:href="#m610ff9040e" x="495.5909" y="450.72" style="stroke: #000000; stroke-width: 0.8"/>
      </g>
     </g>
     <g id="text_26">
      <!-- 700 -->
      <g transform="translate(486.04715 465.318437) scale(0.1 -0.1)">
       <use xlink:href="#DejaVuSans-37"/>
       <use xlink:href="#DejaVuSans-30" x="63.623047"/>
       <use xlink:href="#DejaVuSans-30" x="127.246094"/>
      </g>
     </g>
    </g>
    <g id="xtick_16">
     <g id="line2d_27">
      <g>
       <use xlink:href="#m610ff9040e" x="569.318866" y="450.72" style="stroke: #000000; stroke-width: 0.8"/>
      </g>
     </g>
     <g id="text_27">
      <!-- 800 -->
      <g transform="translate(559.775116 465.318437) scale(0.1 -0.1)">
       <use xlink:href="#DejaVuSans-38"/>
       <use xlink:href="#DejaVuSans-30" x="63.623047"/>
       <use xlink:href="#DejaVuSans-30" x="127.246094"/>
      </g>
     </g>
    </g>
    <g id="text_28">
     <!-- Time (min) -->
     <g transform="translate(286.088281 478.996562) scale(0.1 -0.1)">
      <defs>
       <path id="DejaVuSans-69" d="M 603 3500 
L 1178 3500 
L 1178 0 
L 603 0 
L 603 3500 
z
M 603 4863 
L 1178 4863 
L 1178 4134 
L 603 4134 
L 603 4863 
z
" transform="scale(0.015625)"/>
       <path id="DejaVuSans-6e" d="M 3513 2113 
L 3513 0 
L 2938 0 
L 2938 2094 
Q 2938 2591 2744 2837 
Q 2550 3084 2163 3084 
Q 1697 3084 1428 2787 
Q 1159 2491 1159 1978 
L 1159 0 
L 581 0 
L 581 3500 
L 1159 3500 
L 1159 2956 
Q 1366 3272 1645 3428 
Q 1925 3584 2291 3584 
Q 2894 3584 3203 3211 
Q 3513 2838 3513 2113 
z
" transform="scale(0.015625)"/>
      </defs>
      <use xlink:href="#DejaVuSans-54"/>
      <use xlink:href="#DejaVuSans-69" x="57.958984"/>
      <use xlink:href="#DejaVuSans-6d" x="85.742188"/>
      <use xlink:href="#DejaVuSans-65" x="183.154297"/>
      <use xlink:href="#DejaVuSans-20" x="244.677734"/>
      <use xlink:href="#DejaVuSans-28" x="276.464844"/>
      <use xlink:href="#DejaVuSans-6d" x="315.478516"/>
      <use xlink:href="#DejaVuSans-69" x="412.890625"/>
      <use xlink:href="#DejaVuSans-6e" x="440.673828"/>
      <use xlink:href="#DejaVuSans-29" x="504.052734"/>
     </g>
    </g>
   </g>
   <g id="matplotlib.axis_4">
    <g id="ytick_8">
     <g id="line2d_28">
      <g>
       <use xlink:href="#m0aa2f7828a" x="34.240625" y="442.023815" style="stroke: #000000; stroke-width: 0.8"/>
      </g>
     </g>
     <g id="text_29">
      <!-- 0 -->
      <g transform="translate(20.878125 445.823034) scale(0.1 -0.1)">
       <use xlink:href="#DejaVuSans-30"/>
      </g>
     </g>
    </g>
    <g id="ytick_9">
     <g id="line2d_29">
      <g>
       <use xlink:href="#m0aa2f7828a" x="34.240625" y="403.574328" style="stroke: #000000; stroke-width: 0.8"/>
      </g>
     </g>
     <g id="text_30">
      <!-- 1 -->
      <g transform="translate(20.878125 407.373547) scale(0.1 -0.1)">
       <use xlink:href="#DejaVuSans-31"/>
      </g>
     </g>
    </g>
    <g id="ytick_10">
     <g id="line2d_30">
      <g>
       <use xlink:href="#m0aa2f7828a" x="34.240625" y="365.124841" style="stroke: #000000; stroke-width: 0.8"/>
      </g>
     </g>
     <g id="text_31">
      <!-- 2 -->
      <g transform="translate(20.878125 368.92406) scale(0.1 -0.1)">
       <use xlink:href="#DejaVuSans-32"/>
      </g>
     </g>
    </g>
    <g id="ytick_11">
     <g id="line2d_31">
      <g>
       <use xlink:href="#m0aa2f7828a" x="34.240625" y="326.675354" style="stroke: #000000; stroke-width: 0.8"/>
      </g>
     </g>
     <g id="text_32">
      <!-- 3 -->
      <g transform="translate(20.878125 330.474573) scale(0.1 -0.1)">
       <use xlink:href="#DejaVuSans-33"/>
      </g>
     </g>
    </g>
    <g id="ytick_12">
     <g id="line2d_32">
      <g>
       <use xlink:href="#m0aa2f7828a" x="34.240625" y="288.225867" style="stroke: #000000; stroke-width: 0.8"/>
      </g>
     </g>
     <g id="text_33">
      <!-- 4 -->
      <g transform="translate(20.878125 292.025086) scale(0.1 -0.1)">
       <use xlink:href="#DejaVuSans-34"/>
      </g>
     </g>
    </g>
    <g id="ytick_13">
     <g id="line2d_33">
      <g>
       <use xlink:href="#m0aa2f7828a" x="34.240625" y="249.77638" style="stroke: #000000; stroke-width: 0.8"/>
      </g>
     </g>
     <g id="text_34">
      <!-- 5 -->
      <g transform="translate(20.878125 253.575598) scale(0.1 -0.1)">
       <use xlink:href="#DejaVuSans-35"/>
      </g>
     </g>
    </g>
    <g id="text_35">
     <!-- Ion Count -->
     <g transform="translate(14.798437 374.060625) rotate(-90) scale(0.1 -0.1)">
      <defs>
       <path id="DejaVuSans-49" d="M 628 4666 
L 1259 4666 
L 1259 0 
L 628 0 
L 628 4666 
z
" transform="scale(0.015625)"/>
       <path id="DejaVuSans-75" d="M 544 1381 
L 544 3500 
L 1119 3500 
L 1119 1403 
Q 1119 906 1312 657 
Q 1506 409 1894 409 
Q 2359 409 2629 706 
Q 2900 1003 2900 1516 
L 2900 3500 
L 3475 3500 
L 3475 0 
L 2900 0 
L 2900 538 
Q 2691 219 2414 64 
Q 2138 -91 1772 -91 
Q 1169 -91 856 284 
Q 544 659 544 1381 
z
M 1991 3584 
L 1991 3584 
z
" transform="scale(0.015625)"/>
       <path id="DejaVuSans-74" d="M 1172 4494 
L 1172 3500 
L 2356 3500 
L 2356 3053 
L 1172 3053 
L 1172 1153 
Q 1172 725 1289 603 
Q 1406 481 1766 481 
L 2356 481 
L 2356 0 
L 1766 0 
Q 1100 0 847 248 
Q 594 497 594 1153 
L 594 3053 
L 172 3053 
L 172 3500 
L 594 3500 
L 594 4494 
L 1172 4494 
z
" transform="scale(0.015625)"/>
      </defs>
      <use xlink:href="#DejaVuSans-49"/>
      <use xlink:href="#DejaVuSans-6f" x="29.492188"/>
      <use xlink:href="#DejaVuSans-6e" x="90.673828"/>
      <use xlink:href="#DejaVuSans-20" x="154.052734"/>
      <use xlink:href="#DejaVuSans-43" x="185.839844"/>
      <use xlink:href="#DejaVuSans-6f" x="255.664062"/>
      <use xlink:href="#DejaVuSans-75" x="316.845703"/>
      <use xlink:href="#DejaVuSans-6e" x="380.224609"/>
      <use xlink:href="#DejaVuSans-74" x="443.603516"/>
     </g>
    </g>
    <g id="text_36">
     <!-- 1e−10 -->
     <g transform="translate(34.240625 246.12) scale(0.1 -0.1)">
      <defs>
       <path id="DejaVuSans-2212" d="M 678 2272 
L 4684 2272 
L 4684 1741 
L 678 1741 
L 678 2272 
z
" transform="scale(0.015625)"/>
      </defs>
      <use xlink:href="#DejaVuSans-31"/>
      <use xlink:href="#DejaVuSans-65" x="63.623047"/>
      <use xlink:href="#DejaVuSans-2212" x="125.146484"/>
      <use xlink:href="#DejaVuSans-31" x="208.935547"/>
      <use xlink:href="#DejaVuSans-30" x="272.558594"/>
     </g>
    </g>
   </g>
   <g id="line2d_34">
    <path d="M 59.604261 441.422311 
L 60.106349 441.397355 
L 60.421905 441.413959 
L 60.894501 441.426712 
L 62.122071 441.433532 
L 62.416246 441.410196 
L 65.297535 441.430357 
L 65.711886 441.407021 
L 66.685832 441.445325 
L 67.055947 441.45612 
L 70.453332 441.457147 
L 70.845564 441.416166 
L 71.788545 441.438277 
L 74.553344 441.449828 
L 75.095989 441.430232 
L 75.34297 441.411626 
L 75.829575 441.437859 
L 90.837647 441.474271 
L 91.080205 441.429704 
L 93.056107 441.469269 
L 93.885546 441.448618 
L 94.121483 441.463278 
L 148.482579 441.35727 
L 148.576214 441.29321 
L 148.975082 441.317448 
L 149.769147 441.313722 
L 151.237794 441.245974 
L 153.745289 441.201921 
L 155.470531 441.083269 
L 155.717512 441.073361 
L 156.644273 441.022033 
L 158.222781 441.020185 
L 158.314211 440.909417 
L 158.611335 440.922698 
L 159.346403 440.894757 
L 160.128656 440.787678 
L 160.813589 440.792137 
L 161.065001 440.716337 
L 161.453548 440.695428 
L 162.2417 440.608576 
L 162.632458 440.598793 
L 162.88387 440.516113 
L 163.179519 440.541231 
L 164.505886 440.367416 
L 164.598046 440.412583 
L 165.138472 440.260197 
L 165.783591 440.222517 
L 166.174349 440.177745 
L 166.821681 440.112417 
L 167.205804 440.020592 
L 168.536586 439.822678 
L 168.774727 439.737901 
L 172.069645 439.154838 
L 172.318838 439.067905 
L 172.862951 439.01475 
L 173.112881 439.035879 
L 173.50069 438.819323 
L 173.756541 438.798913 
L 177.187088 438.011204 
L 177.334559 437.888 
L 177.584482 437.959135 
L 178.364539 437.676789 
L 178.517156 437.692192 
L 178.60414 437.566051 
L 178.897585 437.524249 
L 180.866851 437.024094 
L 181.018008 437.144368 
L 181.410971 436.82902 
L 181.559894 436.786484 
L 181.655748 436.90089 
L 182.095911 436.736615 
L 182.193225 436.789417 
L 182.444644 436.543741 
L 182.585465 436.572339 
L 182.984326 436.394134 
L 183.516627 436.367 
L 183.916992 436.210057 
L 184.072558 436.220327 
L 184.163236 436.08172 
L 185.098851 435.981982 
L 185.491069 435.727504 
L 185.779345 435.723102 
L 186.027809 435.714304 
L 186.325684 435.772971 
L 186.571928 435.56983 
L 186.714961 435.490628 
L 186.807858 435.597699 
L 187.105719 435.486226 
L 187.896075 435.248616 
L 188.181417 435.193614 
L 188.968087 435.115877 
L 189.078672 434.945003 
L 189.218755 434.956004 
L 189.366963 434.773395 
L 189.704622 434.884864 
L 190.008396 434.614987 
L 190.245793 434.735992 
L 190.388825 434.784396 
L 190.78327 434.518917 
L 191.081123 434.419914 
L 191.171824 434.337044 
L 191.331076 434.513784 
L 191.477057 434.306972 
L 191.565531 434.374444 
L 191.872225 434.171303 
L 191.96956 434.272506 
L 192.12144 434.132431 
L 192.268158 434.278374 
L 192.361778 434.079632 
L 192.660377 434.114833 
L 193.439688 433.784817 
L 193.694795 433.740815 
L 193.833396 433.639612 
L 193.982319 433.690212 
L 194.666522 433.3844 
L 194.767522 433.468005 
L 195.160507 433.225261 
L 195.305751 433.27806 
L 195.408955 433.066853 
L 196.350469 432.804309 
L 196.494983 432.623166 
L 196.736818 432.687703 
L 196.876879 432.601165 
L 197.123138 432.606298 
L 197.420254 432.306353 
L 197.514641 432.458894 
L 197.809545 432.173614 
L 197.906136 432.269684 
L 198.06022 432.169212 
L 198.203997 432.241081 
L 198.500383 431.966806 
L 198.739247 432.081208 
L 198.894091 431.822332 
L 198.987711 432.037941 
L 199.383644 431.668322 
L 199.682243 431.61259 
L 199.782505 431.419712 
L 199.921099 431.451983 
L 200.072256 431.174035 
L 200.220442 431.432916 
L 200.616376 431.006095 
L 200.858204 430.977493 
L 201.001236 431.142503 
L 201.147217 430.664349 
L 201.394943 430.970895 
L 201.638231 430.723015 
L 201.786439 430.441403 
L 202.0843 430.604944 
L 202.428595 430.141459 
L 202.57754 430.370998 
L 202.72942 430.3644 
L 202.966816 430.145857 
L 203.119433 430.119454 
L 203.404753 429.959558 
L 203.510929 429.96616 
L 203.660604 429.686013 
L 203.799942 429.747617 
L 203.896533 429.598744 
L 204.296139 429.567208 
L 204.738507 429.127923 
L 204.833616 429.215926 
L 205.136623 429.021583 
L 205.221425 429.202726 
L 205.382144 428.901313 
L 205.621768 428.898379 
L 205.767749 428.577164 
L 206.016212 428.674703 
L 206.94517 428.235418 
L 207.097049 428.335156 
L 207.636753 427.789531 
L 207.748082 427.680991 
L 208.028971 427.788062 
L 208.126307 427.407446 
L 208.413094 427.544584 
L 208.918868 427.346577 
L 209.210108 427.211639 
L 209.60307 427.174969 
L 209.751256 426.714418 
L 209.852264 426.926359 
L 209.997522 426.968161 
L 210.24081 426.617613 
L 210.391222 426.78042 
L 210.68393 426.62861 
L 210.781243 426.302266 
L 210.92648 426.382202 
L 211.466183 426.220861 
L 211.621005 426.016986 
L 211.718318 426.084453 
L 211.865782 426.338931 
L 212.264643 425.678169 
L 212.409157 425.838777 
L 212.551452 425.606299 
L 213.78641 425.230817 
L 213.877825 425.084144 
L 214.027493 425.12961 
L 214.958677 424.635323 
L 215.115703 424.306776 
L 215.215243 424.627256 
L 215.354589 424.64339 
L 215.507206 424.440984 
L 215.759363 424.572989 
L 216.290204 424.278173 
L 216.44577 424.344176 
L 216.844624 424.077967 
L 216.986919 424.054497 
L 217.225797 423.84549 
L 217.46837 423.848424 
L 217.615096 423.520607 
L 217.913694 423.692949 
L 218.706255 423.175927 
L 218.804328 423.274196 
L 218.947368 423.118725 
L 219.105131 423.198658 
L 219.339586 423.021917 
L 219.489998 423.053453 
L 219.787852 422.793108 
L 219.882961 422.947848 
L 220.030424 422.668436 
L 220.176405 422.856911 
L 220.662265 422.451361 
L 220.814145 422.730039 
L 221.109049 422.319353 
L 221.20859 422.589968 
L 221.502034 422.22915 
L 221.65022 422.453561 
L 221.793252 422.094212 
L 221.887617 422.18075 
L 222.18696 421.846336 
L 222.430992 421.614589 
L 222.576251 421.957074 
L 222.822495 421.632926 
L 223.070221 421.716526 
L 223.220633 421.346177 
L 223.361453 421.370381 
L 223.515538 421.243505 
L 223.65857 421.357912 
L 223.761059 420.985363 
L 223.910727 421.071901 
L 224.058168 420.912759 
L 224.157708 421.023497 
L 224.302945 420.728686 
L 224.602288 420.65975 
L 224.849269 420.423605 
L 224.990097 420.57981 
L 225.091841 420.455141 
L 225.243714 420.44634 
L 225.39044 420.07819 
L 225.480395 420.301866 
L 225.633727 419.846447 
L 225.787833 419.927849 
L 225.882198 419.84058 
L 226.175643 419.488563 
L 226.320879 419.607368 
L 226.462452 419.539897 
L 226.856896 418.978873 
L 227.10314 419.085213 
L 227.245428 418.964204 
L 227.396585 419.43576 
L 227.541077 418.741997 
L 227.647997 418.870338 
L 227.787343 417.768087 
L 227.93996 418.120104 
L 228.179561 417.803288 
L 228.576955 417.688151 
L 228.872604 417.281866 
L 229.121812 416.944514 
L 229.374692 416.513296 
L 229.505935 416.664371 
L 229.901847 416.19355 
L 230.047843 416.164947 
L 230.738666 415.0275 
L 230.840411 415.125769 
L 231.27983 414.604348 
L 231.374939 414.111525 
L 231.524614 414.313201 
L 231.675741 413.643637 
L 231.832052 413.705976 
L 232.059864 413.059144 
L 232.306123 412.978477 
L 232.606926 412.690998 
L 232.850243 411.91436 
L 233.000633 411.876226 
L 233.684091 410.878846 
L 233.933299 410.36916 
L 234.478879 408.986032 
L 234.568097 409.052769 
L 234.714071 408.961097 
L 234.859315 408.211598 
L 235.014158 408.147795 
L 235.404172 407.260423 
L 235.550891 407.121082 
L 235.786828 406.579859 
L 236.08763 406.045234 
L 236.182739 405.749666 
L 236.331662 405.721063 
L 237.026917 403.734378 
L 237.264336 402.984128 
L 237.415471 403.030345 
L 238.357722 400.136483 
L 238.500009 400.197348 
L 238.991775 398.419675 
L 239.295541 397.817594 
L 239.584555 397.011616 
L 240.072627 395.230251 
L 240.616747 393.859604 
L 241.544982 390.25731 
L 241.688014 390.321866 
L 242.238747 388.258898 
L 242.379575 386.83396 
L 242.476888 387.202844 
L 242.626556 386.478302 
L 242.774019 386.544281 
L 242.878713 386.994563 
L 243.26504 381.734866 
L 243.411759 383.183258 
L 243.56069 382.848132 
L 243.701517 382.042884 
L 243.849703 381.981288 
L 244.097444 380.514517 
L 244.243425 379.982838 
L 244.330409 378.86738 
L 244.478617 378.898908 
L 244.733701 377.610389 
L 245.019766 376.513271 
L 245.169434 376.596899 
L 245.263798 375.258511 
L 245.419386 374.883744 
L 245.964966 372.241418 
L 246.06082 372.105038 
L 246.653578 368.577528 
L 246.753118 368.372938 
L 247.142394 366.589382 
L 247.285426 364.83224 
L 247.831751 363.374313 
L 248.223246 360.440848 
L 248.371454 360.024286 
L 248.914084 356.94998 
L 249.159606 355.731862 
L 249.69855 352.140603 
L 250.091513 349.839286 
L 250.488906 347.481525 
L 250.622354 347.3165 
L 250.880409 345.046019 
L 251.029332 344.94259 
L 251.172365 343.135579 
L 251.417886 342.743241 
L 251.558714 340.945766 
L 251.712791 340.537278 
L 251.80644 339.934429 
L 252.099863 336.879963 
L 252.497256 335.382433 
L 252.633653 334.116637 
L 252.781116 333.890785 
L 252.890241 332.615415 
L 253.032529 332.820043 
L 253.176306 332.131413 
L 253.426236 329.087213 
L 253.575904 329.142196 
L 253.724834 326.595225 
L 253.869348 326.889325 
L 254.114125 325.356575 
L 254.26526 324.65914 
L 254.3648 323.217361 
L 254.515935 322.822792 
L 254.757018 320.730525 
L 254.908175 320.251637 
L 255.204547 318.869224 
L 255.305569 318.632336 
L 255.596787 315.849939 
L 255.846718 312.659093 
L 255.981647 313.283897 
L 256.275092 311.816434 
L 256.381245 310.075442 
L 256.528716 309.729281 
L 256.672486 307.769703 
L 256.772748 308.52289 
L 256.919474 308.450259 
L 257.070602 306.433506 
L 257.162025 306.762057 
L 257.858017 302.559874 
L 258.001786 314.937648 
L 258.244359 292.429895 
L 258.494289 299.415206 
L 258.942555 296.211133 
L 259.078229 296.05053 
L 259.182923 293.440463 
L 259.464556 293.092149 
L 259.57809 292.556779 
L 259.714487 291.185362 
L 259.969593 290.501154 
L 260.112625 289.344632 
L 260.254176 289.25589 
L 260.900777 285.291287 
L 261.044554 285.648444 
L 261.191995 284.467007 
L 261.344612 284.443514 
L 261.44267 284.090778 
L 261.592338 282.559489 
L 261.730961 282.689333 
L 262.281695 280.496559 
L 262.382717 280.991557 
L 262.530902 279.363491 
L 262.674679 279.801315 
L 263.359597 276.861237 
L 263.459882 277.09301 
L 263.608805 276.256234 
L 263.762167 276.496774 
L 264.004717 275.445142 
L 264.14629 275.714288 
L 264.444888 274.354599 
L 264.691869 274.534274 
L 264.839332 273.630788 
L 264.990467 274.680958 
L 265.079678 273.16874 
L 265.23155 273.302967 
L 265.38343 273.77232 
L 265.477817 273.584571 
L 265.630434 272.571812 
L 265.777152 272.375989 
L 266.027083 273.581649 
L 266.170115 273.15263 
L 266.274809 272.336386 
L 266.56234 273.264825 
L 266.709059 273.355758 
L 266.946478 274.915616 
L 267.096145 274.167581 
L 267.242127 274.298155 
L 267.34828 271.570741 
L 267.492057 274.425769 
L 267.639521 272.381871 
L 267.788451 273.520784 
L 267.88356 276.889843 
L 268.178465 275.181109 
L 268.270625 274.759434 
L 268.572917 276.836321 
L 268.677603 274.479291 
L 268.967361 277.181713 
L 269.209912 277.930517 
L 269.358864 276.789374 
L 269.504838 279.378909 
L 269.602152 278.616917 
L 269.748878 279.755099 
L 269.898545 279.450041 
L 270.038629 280.613907 
L 270.139636 285.733494 
L 270.286355 277.120886 
L 270.433058 281.801188 
L 270.573142 282.3043 
L 270.679317 281.367055 
L 270.828985 282.757504 
L 270.969813 282.728167 
L 271.073025 282.588826 
L 271.369411 284.17952 
L 271.515392 286.582766 
L 271.618604 286.429507 
L 271.771221 285.503989 
L 271.913531 287.660813 
L 272.066148 286.818923 
L 272.304289 289.94452 
L 272.45027 289.145886 
L 272.70315 292.659439 
L 272.838802 290.610427 
L 272.992901 291.973 
L 273.090214 295.20641 
L 273.236933 294.694532 
L 273.370381 295.211562 
L 273.522998 298.106885 
L 273.669724 296.322598 
L 273.767782 296.820558 
L 273.915245 299.198851 
L 274.059022 298.953197 
L 274.212354 301.577182 
L 274.448291 302.003241 
L 274.906142 302.134546 
L 275.478271 302.540803 
L 276.075467 304.522374 
L 276.753034 304.428481 
L 277.415097 304.902986 
L 278.018206 306.919008 
L 278.672166 306.598531 
L 279.267158 308.07553 
L 279.813482 308.913037 
L 280.39002 308.50528 
L 280.999028 310.734735 
L 281.659631 312.023985 
L 282.298107 310.433329 
L 283.571382 314.455107 
L 284.205457 314.604714 
L 284.897755 315.402618 
L 285.581221 317.524953 
L 286.224851 316.618506 
L 286.964358 319.239569 
L 287.655174 319.495527 
L 288.295147 321.081799 
L 288.98965 320.255289 
L 289.630361 321.291541 
L 290.33666 321.939108 
L 291.087955 323.408032 
L 291.738229 324.059251 
L 292.45339 322.559529 
L 293.111788 324.894566 
L 294.518532 327.719488 
L 295.171003 327.753939 
L 295.935577 329.676106 
L 296.637467 327.216415 
L 297.29512 330.325133 
L 298.000697 330.383076 
L 298.660555 329.73478 
L 299.366131 331.589468 
L 300.06581 330.639727 
L 300.727157 333.309928 
L 301.471072 332.654288 
L 302.188438 334.320535 
L 302.835762 333.042973 
L 303.587057 334.74221 
L 304.235871 334.352794 
L 304.990093 335.251897 
L 305.691261 341.850713 
L 306.343739 333.249063 
L 307.044162 337.206322 
L 307.696662 338.394373 
L 308.402238 339.372682 
L 309.047358 338.565243 
L 309.702785 340.511594 
L 310.405412 340.328267 
L 311.146378 341.762702 
L 311.805521 341.885933 
L 312.447692 342.304686 
L 313.200447 341.488442 
L 315.133602 346.035324 
L 315.831798 346.593419 
L 316.631002 346.45773 
L 317.264332 348.286003 
L 317.964755 347.614983 
L 318.61208 347.715452 
L 319.30659 349.539341 
L 320.047556 349.730012 
L 320.688267 351.392568 
L 321.387923 351.334625 
L 322.027152 352.375991 
L 323.364599 353.915316 
L 324.010434 354.082533 
L 324.695381 355.482517 
L 325.389884 356.326637 
L 326.036493 356.791607 
L 326.776722 357.133346 
L 327.413717 359.105382 
L 328.107504 358.618419 
L 328.800547 361.450685 
L 329.495057 361.118481 
L 330.224979 361.021666 
L 330.876734 362.548533 
L 331.56904 362.214099 
L 332.256184 363.414646 
L 333.589916 366.232225 
L 334.227655 365.62207 
L 334.907427 367.528088 
L 335.556241 368.302537 
L 336.199893 369.470056 
L 336.985096 369.47517 
L 338.948472 372.134375 
L 339.637828 372.446777 
L 340.277772 373.670009 
L 341.023169 374.586721 
L 341.662398 374.873478 
L 342.352492 376.432604 
L 343.085341 376.258813 
L 343.825569 377.776875 
L 344.466995 377.80033 
L 345.110655 378.260878 
L 345.795581 379.896288 
L 346.485674 379.715883 
L 347.131539 381.10637 
L 347.820151 382.213023 
L 348.460117 382.394159 
L 349.195914 384.136651 
L 349.883804 383.378351 
L 350.520061 383.745043 
L 351.202052 385.981804 
L 351.886255 385.237422 
L 352.536529 386.366068 
L 354.645878 388.099025 
L 355.327877 389.13966 
L 355.972996 388.981248 
L 357.308932 390.951823 
L 357.944467 391.028068 
L 358.672929 391.812784 
L 359.308464 391.873649 
L 360.694506 393.707075 
L 361.327121 393.118913 
L 362.020164 394.564383 
L 362.652728 394.966987 
L 363.389285 395.777349 
L 364.085255 396.060452 
L 364.717863 396.893537 
L 365.413118 396.870083 
L 366.09878 397.80952 
L 366.738002 398.03541 
L 367.424431 398.762875 
L 368.061412 398.986574 
L 369.484354 400.623445 
L 370.125065 400.619024 
L 370.919852 401.410353 
L 371.456614 401.738173 
L 372.235159 401.436729 
L 372.878789 402.233902 
L 373.514324 402.750202 
L 374.202958 402.782461 
L 374.894519 403.514385 
L 375.534508 403.839983 
L 376.220178 404.736887 
L 376.871188 405.054433 
L 377.605497 405.56119 
L 378.290444 405.566323 
L 378.933359 406.318049 
L 379.620511 406.392118 
L 380.312788 407.000077 
L 380.942432 407.276556 
L 381.62589 407.711443 
L 382.223846 407.881582 
L 383.006085 407.739311 
L 383.704304 408.624484 
L 384.336145 409.150307 
L 385.620493 409.56026 
L 386.310565 410.211486 
L 386.994023 410.314158 
L 387.631048 410.842181 
L 388.267298 410.898652 
L 389.00314 411.165595 
L 389.687321 412.159307 
L 390.388466 411.456008 
L 391.024001 411.915095 
L 391.812175 412.206242 
L 392.495634 413.114146 
L 393.134811 412.796599 
L 393.819036 413.273288 
L 395.890025 414.188528 
L 396.47471 414.007385 
L 397.218603 414.687949 
L 397.911653 415.059767 
L 398.542057 415.083967 
L 399.233618 415.310576 
L 399.871357 415.710997 
L 400.568809 415.900938 
L 401.297986 415.95374 
L 401.932806 416.123879 
L 403.267282 416.910783 
L 404.651886 417.384538 
L 405.291107 417.113923 
L 406.026905 417.76002 
L 406.712568 417.823089 
L 408.04335 418.427384 
L 408.693645 418.386312 
L 409.376389 419.085947 
L 410.113668 419.094744 
L 410.703477 418.650326 
L 412.079986 419.668972 
L 412.715521 419.495165 
L 413.458691 420.092124 
L 414.099358 420.268865 
L 415.43163 420.289397 
L 416.067165 420.619413 
L 416.799313 420.765351 
L 418.134504 420.891493 
L 418.863688 421.314645 
L 419.606859 421.354248 
L 420.280017 421.631457 
L 420.97306 421.477451 
L 421.610033 421.999607 
L 422.901039 422.234283 
L 424.274576 422.471893 
L 424.91528 422.93025 
L 425.644464 422.787975 
L 426.334536 422.439627 
L 426.977451 423.206728 
L 427.614475 422.856177 
L 428.252215 423.387137 
L 428.941564 423.341667 
L 431.00594 423.591012 
L 431.642957 424.080901 
L 432.338211 423.919559 
L 433.026079 424.420448 
L 433.62548 424.308975 
L 435.145758 424.658793 
L 435.788673 424.580321 
L 437.80733 425.069475 
L 438.451727 424.89127 
L 439.089467 425.263084 
L 440.40846 425.409757 
L 441.050653 425.645902 
L 441.790144 425.582099 
L 443.124613 425.947316 
L 443.819868 425.839511 
L 444.457607 426.222329 
L 445.102727 426.042651 
L 445.737539 426.429138 
L 446.420998 426.251663 
L 447.7444 426.511274 
L 448.53699 426.748884 
L 449.231471 426.551607 
L 450.561538 427.018761 
L 451.200044 426.823687 
L 451.844397 427.30404 
L 452.574341 427.17277 
L 453.220183 427.31431 
L 454.536205 427.209439 
L 455.182807 427.447049 
L 456.516561 427.542385 
L 457.887171 427.690527 
L 458.534495 427.60252 
L 459.953028 428.05354 
L 460.599593 427.856998 
L 461.33764 428.067474 
L 462.708242 428.134211 
L 463.399803 428.403357 
L 464.039747 428.228082 
L 464.730593 428.390888 
L 465.359463 428.406291 
L 466.052506 428.556629 
L 467.382573 428.514096 
L 468.116926 429.018649 
L 468.820276 428.666636 
L 469.446949 428.800106 
L 470.784389 428.905711 
L 471.466365 429.07512 
L 472.206616 428.910844 
L 472.901104 429.245993 
L 473.577949 429.204191 
L 474.273196 429.391202 
L 475.002373 429.244528 
L 475.686554 429.43227 
L 476.331674 429.374334 
L 477.708898 429.808486 
L 479.089092 429.623679 
L 479.680391 429.600944 
L 483.778943 430.065187 
L 485.143662 430.071054 
L 485.841114 430.28373 
L 487.164517 430.051252 
L 487.956384 430.339466 
L 489.291576 430.282265 
L 489.968421 430.267596 
L 490.61354 430.470736 
L 494.063242 430.541141 
L 495.540773 430.628414 
L 496.179228 430.565341 
L 496.868584 430.736949 
L 499.522053 430.727417 
L 500.2601 430.687814 
L 500.950172 430.954758 
L 501.59016 430.781685 
L 502.27875 430.968692 
L 502.96442 431.325841 
L 503.703181 431.012693 
L 505.718189 431.438779 
L 506.367717 431.1139 
L 507.059278 431.237104 
L 507.792871 431.099966 
L 509.127348 431.385246 
L 511.145275 431.227572 
L 511.831712 431.534853 
L 512.572678 431.302376 
L 514.583954 431.440982 
L 515.219489 431.718191 
L 515.913299 431.575186 
L 517.285347 431.580319 
L 518.082339 431.718191 
L 519.459607 431.462983 
L 520.149686 431.62359 
L 521.475293 431.659525 
L 522.80536 431.794464 
L 523.549297 431.776131 
L 524.194417 431.937469 
L 524.87932 431.882467 
L 525.570159 432.011538 
L 527.688348 431.8634 
L 528.326855 432.026941 
L 529.066339 432.059942 
L 529.702641 431.872931 
L 531.130714 431.975603 
L 531.767731 431.977802 
L 532.454883 432.123011 
L 533.092623 432.004206 
L 534.467642 432.073142 
L 535.835325 432.22128 
L 537.15945 432.315885 
L 539.928702 432.425893 
L 540.614372 432.465492 
L 541.302962 432.182415 
L 541.951045 432.359887 
L 542.639687 432.422959 
L 544.751986 432.128878 
L 545.441335 432.141343 
L 546.077592 432.38629 
L 546.823734 430.348267 
L 547.411346 432.126679 
L 548.20168 432.246949 
L 549.534719 432.094408 
L 550.227762 432.299017 
L 550.955457 432.165547 
L 551.596882 431.911069 
L 552.281063 432.205147 
L 553.025001 432.210283 
L 553.763725 432.436159 
L 554.45087 432.486028 
L 555.087894 432.274817 
L 557.845313 432.316619 
L 558.486739 432.31442 
L 559.174658 432.456691 
L 560.500264 432.285083 
L 561.930587 432.483828 
L 562.622148 432.577699 
L 563.311504 432.452292 
L 563.951448 432.620966 
L 564.634191 432.486758 
L 566.759761 432.457425 
L 566.759761 432.457425 
" clip-path="url(#pf7724b1b8b)" style="fill: none; stroke: #ffa500; stroke-width: 1.5; stroke-linecap: square"/>
   </g>
   <g id="line2d_35">
    <path d="M 59.606473 441.429704 
L 59.898436 441.404615 
L 60.417481 441.40587 
L 60.86501 441.421637 
L 62.266578 441.420838 
L 62.521677 441.421476 
L 64.003609 441.382138 
L 64.575001 441.458577 
L 65.399279 441.402093 
L 65.80847 441.427966 
L 74.709654 441.431684 
L 75.249336 441.402107 
L 75.348861 441.467905 
L 75.751423 441.455988 
L 76.125961 441.441819 
L 77.454539 441.467971 
L 77.711112 441.431948 
L 79.032318 441.438805 
L 79.276365 441.466182 
L 79.919265 441.434691 
L 91.481292 441.453472 
L 91.866137 441.432007 
L 92.261334 441.487391 
L 93.291299 441.457535 
L 95.015803 441.488293 
L 95.270909 441.44234 
L 96.348068 441.466314 
L 159.948023 441.456619 
L 160.339518 441.432256 
L 161.37171 441.44732 
L 168.142886 441.34137 
L 168.393554 441.366048 
L 169.085859 441.33642 
L 169.724358 441.330648 
L 169.975756 441.324041 
L 171.241673 441.29849 
L 188.435779 440.684222 
L 188.581016 440.595258 
L 188.732895 440.711027 
L 189.075723 440.604762 
L 189.619098 440.618117 
L 190.551027 440.566143 
L 190.795059 440.494625 
L 191.044274 440.530582 
L 191.339179 440.46224 
L 191.730682 440.479731 
L 192.219491 440.39103 
L 192.615402 440.454965 
L 192.755486 440.381951 
L 193.05042 440.432604 
L 193.924089 440.274806 
L 194.468186 440.309348 
L 194.718139 440.247965 
L 195.35736 440.232887 
L 195.742943 440.213526 
L 197.814699 440.034643 
L 197.965856 439.915654 
L 198.212092 439.992122 
L 203.961406 439.440829 
L 204.060202 439.324598 
L 204.448756 439.358567 
L 205.67264 439.198664 
L 205.775107 439.219301 
L 206.008832 439.114928 
L 206.311861 439.067956 
L 207.189947 438.955604 
L 207.343308 438.999394 
L 207.587348 438.907452 
L 207.735548 438.947324 
L 207.979588 438.831049 
L 208.372551 438.892711 
L 208.528854 438.856233 
L 208.67558 438.644078 
L 208.773631 438.753958 
L 209.70556 438.607431 
L 210.495916 438.413822 
L 210.639693 438.473225 
L 210.882988 438.309684 
L 211.031911 438.402822 
L 211.282586 438.312618 
L 211.528108 438.264216 
L 211.682929 438.281083 
L 211.912223 438.154213 
L 212.848583 438.010473 
L 212.947378 437.899 
L 213.244495 437.907801 
L 213.492958 437.823463 
L 213.738479 437.843998 
L 215.552925 437.263173 
L 215.704797 437.335773 
L 215.995278 437.26097 
L 216.250384 437.1649 
L 216.644084 437.042427 
L 217.182305 436.87962 
L 217.282568 436.761549 
L 217.583393 436.837818 
L 217.822994 436.719013 
L 219.145681 436.321529 
L 219.450915 436.051652 
L 219.556346 436.160188 
L 219.843877 436.045051 
L 219.935315 435.859509 
L 220.087932 435.919644 
L 220.765477 435.548564 
L 221.161411 435.411422 
L 222.585098 434.820331 
L 223.120348 434.623788 
L 223.228728 434.33411 
L 223.528809 434.419914 
L 224.210785 434.016563 
L 224.310325 434.1559 
L 224.460737 433.888223 
L 224.701083 433.82442 
L 224.84486 433.695349 
L 225.091841 433.337465 
L 225.240027 433.409334 
L 225.776767 432.840244 
L 225.874095 433.140922 
L 226.171212 432.73097 
L 226.261912 432.911379 
L 226.658561 432.407556 
L 227.344968 431.948469 
L 227.455553 431.68446 
L 227.597125 431.831133 
L 227.7571 431.745329 
L 227.844851 431.413114 
L 227.99157 431.474714 
L 228.237814 431.220236 
L 228.382328 431.251038 
L 228.776035 430.65261 
L 228.922017 430.772153 
L 229.317921 430.273464 
L 229.415979 430.267596 
L 229.561238 429.844421 
L 229.711628 430.088652 
L 229.806738 429.987426 
L 229.953456 429.593611 
L 230.103131 429.562075 
L 230.355288 429.18146 
L 230.49978 429.303198 
L 230.600802 429.118387 
L 230.746047 429.138189 
L 230.990079 428.718705 
L 231.388217 428.225148 
L 231.537885 428.222218 
L 232.564901 426.919757 
L 232.864236 426.296399 
L 233.24541 425.972985 
L 233.490187 425.607768 
L 233.644293 425.486029 
L 234.029153 424.694727 
L 234.18323 424.353711 
L 234.281288 424.496716 
L 234.719969 423.577078 
L 235.107056 422.964716 
L 235.354044 422.639833 
L 235.503712 422.15948 
L 235.649694 422.188817 
L 236.586769 420.403803 
L 236.677447 420.435339 
L 236.828604 420.201394 
L 237.130144 419.517896 
L 237.284965 419.182017 
L 237.379359 418.510989 
L 237.529742 418.687726 
L 237.671314 418.46185 
L 237.915347 417.841422 
L 238.197725 417.256197 
L 238.354773 417.10879 
L 238.707192 415.821001 
L 238.994717 415.151438 
L 239.145874 414.891093 
L 239.390651 414.217131 
L 239.685562 413.609171 
L 239.932544 412.57879 
L 240.076313 411.987699 
L 240.18027 412.114571 
L 240.319608 411.870359 
L 240.860779 410.047215 
L 240.998657 409.985611 
L 241.248588 408.89363 
L 241.396051 408.771887 
L 241.655566 407.798712 
L 241.94458 407.104948 
L 242.091306 406.227843 
L 242.242433 406.028367 
L 242.479852 405.332381 
L 242.877231 403.756379 
L 243.551105 401.097181 
L 243.708897 400.973989 
L 243.947776 399.766868 
L 244.490407 397.842509 
L 244.635651 397.629845 
L 244.887808 396.060452 
L 245.03084 396.007623 
L 245.282975 394.24902 
L 245.67301 392.903288 
L 246.11905 390.971624 
L 246.21859 390.728124 
L 246.609348 388.45103 
L 246.902048 387.43827 
L 246.996413 385.879105 
L 247.194748 386.031673 
L 247.294288 385.609228 
L 247.839131 382.232825 
L 249.161073 375.518122 
L 249.699295 371.937821 
L 250.09079 370.069214 
L 250.388644 367.799426 
L 250.628252 366.748524 
L 251.719434 359.200736 
L 251.870583 358.03614 
L 251.962006 358.307478 
L 252.24953 355.45468 
L 252.390358 355.349789 
L 252.936682 350.750116 
L 253.185146 348.857324 
L 253.329645 346.971838 
L 253.479313 346.972569 
L 253.623827 345.060668 
L 253.725579 345.3034 
L 254.510782 338.953198 
L 254.667808 338.040907 
L 254.81822 336.223592 
L 254.955354 336.164956 
L 255.057099 334.212722 
L 255.192013 333.925966 
L 256.668055 322.68199 
L 256.920212 320.06754 
L 257.069142 319.114185 
L 257.216583 317.076132 
L 257.315379 317.36508 
L 257.465054 316.680141 
L 257.849169 312.249875 
L 258.004735 312.978839 
L 258.394771 309.182183 
L 258.638066 306.931465 
L 258.784785 307.04443 
L 259.181441 302.057532 
L 259.32816 301.893237 
L 259.432116 299.821502 
L 259.575148 299.42328 
L 259.725561 299.338192 
L 260.807135 291.856421 
L 261.10942 290.146919 
L 261.352737 287.849293 
L 261.595287 286.274748 
L 261.744955 284.340123 
L 261.890936 284.194169 
L 262.041349 284.241846 
L 262.287608 281.581911 
L 262.427691 281.488786 
L 262.811069 278.235575 
L 263.112616 278.031716 
L 263.212156 275.869009 
L 263.365496 275.907151 
L 263.508528 276.199752 
L 263.752582 274.208683 
L 263.905199 273.373368 
L 264.057079 271.165214 
L 264.20452 272.12153 
L 264.298906 270.458244 
L 264.448574 270.084937 
L 264.590862 269.333981 
L 264.689665 269.925833 
L 264.831952 268.485477 
L 264.980883 268.695219 
L 265.132032 268.272083 
L 265.529426 265.967843 
L 265.670232 266.944691 
L 265.925338 263.996538 
L 266.065421 264.207011 
L 266.465764 262.735164 
L 266.609541 263.025573 
L 266.751829 261.768583 
L 266.849887 262.557681 
L 267.004708 262.83198 
L 267.14923 261.438532 
L 267.301847 262.149194 
L 267.594547 260.147091 
L 267.689656 260.50717 
L 267.980129 260.726448 
L 268.0841 259.122566 
L 268.379749 260.168353 
L 268.524249 259.530323 
L 268.62084 260.445574 
L 268.775661 259.918278 
L 268.915744 258.598961 
L 269.067624 258.471347 
L 269.162726 260.961143 
L 269.310934 258.695007 
L 269.459864 258.283636 
L 269.605101 259.467996 
L 269.704641 259.054395 
L 269.849878 259.942463 
L 269.998063 260.040739 
L 270.146987 259.759135 
L 270.290026 259.116721 
L 270.387355 260.202112 
L 270.682266 259.619064 
L 270.929992 261.426074 
L 271.07228 259.392443 
L 271.184354 262.369933 
L 271.321488 260.788044 
L 271.466725 261.244208 
L 271.721831 262.650075 
L 271.863381 263.191329 
L 272.003464 262.058261 
L 272.406034 263.946669 
L 272.555701 263.382 
L 272.937597 265.725842 
L 273.094645 265.023985 
L 273.243576 265.362072 
L 273.340889 268.151082 
L 273.48909 268.342484 
L 273.631385 268.805223 
L 273.792105 267.638435 
L 274.194674 270.255115 
L 274.400368 270.584396 
L 274.833151 271.978498 
L 275.391264 272.571081 
L 276.707316 273.036012 
L 277.328113 274.264397 
L 278.051369 274.415503 
L 278.610227 274.954488 
L 279.163187 275.030041 
L 279.753025 275.588866 
L 280.2964 277.887953 
L 280.894334 276.994003 
L 282.04744 280.252328 
L 282.702881 280.039663 
L 284.040307 281.079568 
L 285.367403 282.461251 
L 286.049379 284.115694 
L 286.738013 284.81682 
L 287.386074 284.418599 
L 288.127048 286.569578 
L 288.827449 286.398709 
L 289.525667 285.932278 
L 290.220177 287.390206 
L 290.876364 288.047307 
L 291.632812 288.456525 
L 292.934104 290.987386 
L 293.635249 291.299057 
L 294.302487 292.481225 
L 295.007341 291.528601 
L 295.714378 291.878414 
L 296.383105 293.614293 
L 297.127743 293.389864 
L 297.736751 294.473063 
L 298.379659 293.692769 
L 299.133144 294.388743 
L 299.797433 296.104051 
L 300.496374 295.884774 
L 301.149611 297.309712 
L 302.661027 297.640454 
L 303.30984 298.164098 
L 304.022052 297.435865 
L 304.715095 299.034594 
L 305.3698 299.069045 
L 306.724927 300.617175 
L 307.426073 300.88413 
L 308.167769 301.45472 
L 308.820261 302.526884 
L 309.527327 303.995809 
L 310.168753 303.557254 
L 310.871388 304.704971 
L 311.571789 305.153061 
L 312.216909 305.779365 
L 313.019821 306.942462 
L 313.712864 308.153275 
L 315.01195 309.684526 
L 315.660012 309.593593 
L 317.095488 311.908867 
L 317.734717 311.876569 
L 318.433658 313.774513 
L 319.070675 314.716179 
L 319.717999 315.069645 
L 320.408838 318.1586 
L 321.061315 317.373885 
L 321.752898 319.553471 
L 322.445204 320.643245 
L 323.832012 323.864197 
L 324.524333 324.788215 
L 325.861758 327.031588 
L 326.501702 326.827691 
L 327.186649 327.841219 
L 327.929075 330.50846 
L 328.521863 331.843926 
L 329.271676 332.674089 
L 330.550104 334.933612 
L 331.235789 335.947871 
L 331.875733 337.331014 
L 332.571725 337.999843 
L 333.256673 339.003797 
L 333.894412 341.033738 
L 334.633174 341.217834 
L 335.273863 342.79311 
L 335.914551 345.224963 
L 336.599491 345.882795 
L 337.246816 346.688735 
L 338.721375 349.449139 
L 339.267699 350.563097 
L 339.960742 351.156412 
L 340.592591 352.824812 
L 341.328411 353.557467 
L 342.01776 354.951568 
L 342.606116 355.472982 
L 343.299882 356.843667 
L 343.979668 357.627614 
L 344.56874 358.962388 
L 345.259586 359.601149 
L 346.591113 361.935456 
L 347.234028 363.807715 
L 347.914515 363.957322 
L 348.65843 364.663563 
L 349.344115 365.943277 
L 349.980373 366.478647 
L 350.671956 367.338878 
L 351.32666 368.862093 
L 351.997584 368.83787 
L 352.633842 370.376464 
L 355.250455 374.22445 
L 355.987735 374.517782 
L 356.53849 375.558455 
L 357.268389 376.186951 
L 357.948876 377.722623 
L 358.540941 377.43952 
L 359.273045 378.560822 
L 359.915245 379.022139 
L 360.548532 380.27986 
L 361.333012 381.51778 
L 361.977409 381.772969 
L 362.577533 382.392698 
L 363.308914 382.58483 
L 363.947421 384.318517 
L 364.633806 384.470316 
L 365.27375 385.040137 
L 365.910774 386.135063 
L 366.605299 386.36826 
L 367.241557 387.257135 
L 368.571616 388.459104 
L 369.208641 388.903503 
L 369.950329 388.872705 
L 370.535737 390.10405 
L 371.175681 390.497119 
L 371.91372 391.510648 
L 372.595696 392.208814 
L 373.290228 392.332006 
L 373.972205 393.350648 
L 374.561298 393.45846 
L 375.252137 394.122867 
L 376.634536 394.928115 
L 377.322403 395.793498 
L 377.957172 395.937222 
L 378.600087 396.878888 
L 379.974391 397.566019 
L 380.710181 397.99873 
L 381.351615 399.001954 
L 381.937015 398.854577 
L 382.671375 399.61653 
L 384.692229 401.122135 
L 385.375694 401.427924 
L 386.110047 401.966217 
L 386.755889 402.205296 
L 387.388497 403.254774 
L 388.083745 402.838213 
L 389.410074 403.732179 
L 390.044171 404.368006 
L 390.732761 404.635684 
L 391.466347 405.303778 
L 392.058412 405.223842 
L 393.490224 406.443452 
L 394.133095 406.478656 
L 394.816553 407.152618 
L 396.139999 407.581637 
L 398.258919 408.902427 
L 398.898907 408.881161 
L 400.371977 409.575659 
L 401.006753 410.171149 
L 402.340507 410.405095 
L 402.978246 411.053388 
L 404.406364 411.419338 
L 405.093509 411.885761 
L 405.727562 412.046369 
L 406.362375 412.352915 
L 407.054658 412.875805 
L 408.380309 413.367159 
L 409.025429 413.70964 
L 409.703719 413.601835 
L 410.451298 413.987587 
L 411.13845 414.188528 
L 411.771058 414.241331 
L 412.469232 414.709949 
L 413.11071 414.956361 
L 413.897351 415.383915 
L 414.534375 415.357516 
L 415.167706 415.840068 
L 415.859982 416.103347 
L 416.545689 416.109945 
L 417.875712 416.890247 
L 418.517904 416.770707 
L 419.214641 417.18066 
L 422.600214 418.014498 
L 423.290286 418.735395 
L 423.92731 418.534454 
L 424.660896 418.692128 
L 425.34953 419.074947 
L 425.941551 419.180548 
L 426.633112 419.603704 
L 427.270896 419.308154 
L 427.95877 419.714438 
L 428.646637 419.801711 
L 429.284377 420.056923 
L 430.023139 420.491076 
L 430.706604 420.417003 
L 432.033693 420.703751 
L 432.679579 420.755085 
L 433.360066 420.99416 
L 434.154139 421.059432 
L 434.797776 421.427582 
L 436.121179 421.587455 
L 437.450523 422.069277 
L 438.093394 422.017943 
L 438.782743 422.530564 
L 439.52079 422.412493 
L 440.059756 422.554033 
L 442.129263 422.629567 
L 442.813488 423.08572 
L 443.412167 423.243394 
L 444.106647 423.601278 
L 444.794566 423.464871 
L 445.431539 423.574144 
L 446.120895 423.821286 
L 447.544604 423.923227 
L 448.234676 423.964295 
L 449.571357 424.340512 
L 450.306432 424.375712 
L 450.894044 424.655859 
L 452.963588 424.779063 
L 456.258491 425.441293 
L 457.000946 425.310019 
L 458.321421 425.783775 
L 459.010011 425.660571 
L 459.602798 426.021385 
L 460.985198 426.04412 
L 461.628828 426.196661 
L 462.261444 426.221595 
L 462.944902 426.419602 
L 464.369334 426.381468 
L 464.959143 426.570678 
L 467.664952 426.656478 
L 468.30345 427.120698 
L 468.995734 427.012897 
L 472.399039 427.547518 
L 473.082497 427.457315 
L 474.365356 427.600321 
L 476.525578 427.8504 
L 477.905051 428.04254 
L 478.590721 427.989006 
L 480.561447 428.292619 
L 481.205085 428.454691 
L 481.890792 428.097542 
L 483.168476 428.434159 
L 484.499258 428.616767 
L 485.824916 428.83751 
L 487.263341 428.704771 
L 487.943828 428.707704 
L 488.589715 429.035517 
L 489.275378 428.919646 
L 491.985596 429.265795 
L 493.951913 429.33693 
L 495.286389 429.426402 
L 496.017048 429.3362 
L 496.702718 429.561341 
L 498.035705 429.562075 
L 500.638324 429.672079 
L 501.336543 429.929491 
L 502.705664 429.82242 
L 503.403838 430.046119 
L 504.043834 429.842222 
L 504.726525 430.139256 
L 505.422539 430.00136 
L 506.063206 429.993294 
L 506.753322 430.175925 
L 508.131268 430.084988 
L 509.409718 430.448005 
L 510.828252 430.247795 
L 511.424726 430.267596 
L 512.113315 430.515472 
L 512.75034 430.320399 
L 514.235243 430.41207 
L 516.248724 430.729617 
L 519.011319 430.630613 
L 519.694777 430.74575 
L 520.345072 430.597612 
L 521.080148 430.788287 
L 523.140829 430.796353 
L 523.780058 430.883622 
L 525.1558 430.775083 
L 525.840025 430.957691 
L 526.537477 430.882888 
L 527.866055 431.073567 
L 529.241841 430.954758 
L 529.932635 431.158636 
L 530.571141 430.826421 
L 531.310625 431.080899 
L 532.737977 431.238573 
L 534.07322 431.198235 
L 534.768467 431.290641 
L 535.400316 431.108767 
L 536.723718 431.166703 
L 537.464684 431.43438 
L 538.111293 431.275972 
L 539.434695 431.204837 
L 540.123329 431.402844 
L 540.761835 431.289176 
L 544.199026 431.462249 
L 544.793251 431.441713 
L 545.4826 431.556119 
L 546.172723 431.493051 
L 546.812667 431.555385 
L 547.499097 431.443182 
L 549.508884 431.715258 
L 550.154004 431.517985 
L 552.116679 431.537786 
L 552.861295 431.478382 
L 554.185464 431.673459 
L 554.827612 431.495984 
L 555.559761 431.693257 
L 556.24984 431.721125 
L 556.950985 431.622856 
L 557.580622 431.658056 
L 558.905514 431.180637 
L 560.276124 431.520184 
L 560.826872 429.389733 
L 561.508133 430.045385 
L 562.246128 430.413535 
L 562.885357 430.407668 
L 563.528272 430.68708 
L 564.801546 430.881423 
L 566.876989 430.915893 
L 566.876989 430.915893 
" clip-path="url(#pf7724b1b8b)" style="fill: none; stroke: #0000ff; stroke-width: 1.5; stroke-linecap: square"/>
   </g>
   <g id="patch_9">
    <path d="M 34.240625 450.72 
L 34.240625 249.12 
" style="fill: none; stroke: #000000; stroke-width: 0.8; stroke-linejoin: miter; stroke-linecap: square"/>
   </g>
   <g id="patch_10">
    <path d="M 592.240625 450.72 
L 592.240625 249.12 
" style="fill: none; stroke: #000000; stroke-width: 0.8; stroke-linejoin: miter; stroke-linecap: square"/>
   </g>
   <g id="patch_11">
    <path d="M 34.240625 450.72 
L 592.240625 450.72 
" style="fill: none; stroke: #000000; stroke-width: 0.8; stroke-linejoin: miter; stroke-linecap: square"/>
   </g>
   <g id="patch_12">
    <path d="M 34.240625 249.12 
L 592.240625 249.12 
" style="fill: none; stroke: #000000; stroke-width: 0.8; stroke-linejoin: miter; stroke-linecap: square"/>
   </g>
   <g id="legend_2">
    <g id="patch_13">
     <path d="M 416.095312 286.47625 
L 585.240625 286.47625 
Q 587.240625 286.47625 587.240625 284.47625 
L 587.240625 256.12 
Q 587.240625 254.12 585.240625 254.12 
L 416.095312 254.12 
Q 414.095312 254.12 414.095312 256.12 
L 414.095312 284.47625 
Q 414.095312 286.47625 416.095312 286.47625 
z
" style="fill: #ffffff; opacity: 0.8; stroke: #cccccc; stroke-linejoin: miter"/>
    </g>
    <g id="line2d_36">
     <path d="M 418.095312 262.218437 
L 428.095312 262.218437 
L 438.095312 262.218437 
" style="fill: none; stroke: #ffa500; stroke-width: 1.5; stroke-linecap: square"/>
    </g>
    <g id="text_37">
     <!-- PS:Styrene(m/z=104) -->
     <g transform="translate(446.095312 265.718437) scale(0.1 -0.1)">
      <defs>
       <path id="DejaVuSans-3a" d="M 750 794 
L 1409 794 
L 1409 0 
L 750 0 
L 750 794 
z
M 750 3309 
L 1409 3309 
L 1409 2516 
L 750 2516 
L 750 3309 
z
" transform="scale(0.015625)"/>
       <path id="DejaVuSans-79" d="M 2059 -325 
Q 1816 -950 1584 -1140 
Q 1353 -1331 966 -1331 
L 506 -1331 
L 506 -850 
L 844 -850 
Q 1081 -850 1212 -737 
Q 1344 -625 1503 -206 
L 1606 56 
L 191 3500 
L 800 3500 
L 1894 763 
L 2988 3500 
L 3597 3500 
L 2059 -325 
z
" transform="scale(0.015625)"/>
       <path id="DejaVuSans-72" d="M 2631 2963 
Q 2534 3019 2420 3045 
Q 2306 3072 2169 3072 
Q 1681 3072 1420 2755 
Q 1159 2438 1159 1844 
L 1159 0 
L 581 0 
L 581 3500 
L 1159 3500 
L 1159 2956 
Q 1341 3275 1631 3429 
Q 1922 3584 2338 3584 
Q 2397 3584 2469 3576 
Q 2541 3569 2628 3553 
L 2631 2963 
z
" transform="scale(0.015625)"/>
       <path id="DejaVuSans-2f" d="M 1625 4666 
L 2156 4666 
L 531 -594 
L 0 -594 
L 1625 4666 
z
" transform="scale(0.015625)"/>
       <path id="DejaVuSans-7a" d="M 353 3500 
L 3084 3500 
L 3084 2975 
L 922 459 
L 3084 459 
L 3084 0 
L 275 0 
L 275 525 
L 2438 3041 
L 353 3041 
L 353 3500 
z
" transform="scale(0.015625)"/>
       <path id="DejaVuSans-3d" d="M 678 2906 
L 4684 2906 
L 4684 2381 
L 678 2381 
L 678 2906 
z
M 678 1631 
L 4684 1631 
L 4684 1100 
L 678 1100 
L 678 1631 
z
" transform="scale(0.015625)"/>
      </defs>
      <use xlink:href="#DejaVuSans-50"/>
      <use xlink:href="#DejaVuSans-53" x="60.302734"/>
      <use xlink:href="#DejaVuSans-3a" x="123.779297"/>
      <use xlink:href="#DejaVuSans-53" x="157.470703"/>
      <use xlink:href="#DejaVuSans-74" x="220.947266"/>
      <use xlink:href="#DejaVuSans-79" x="260.15625"/>
      <use xlink:href="#DejaVuSans-72" x="319.335938"/>
      <use xlink:href="#DejaVuSans-65" x="358.199219"/>
      <use xlink:href="#DejaVuSans-6e" x="419.722656"/>
      <use xlink:href="#DejaVuSans-65" x="483.101562"/>
      <use xlink:href="#DejaVuSans-28" x="544.625"/>
      <use xlink:href="#DejaVuSans-6d" x="583.638672"/>
      <use xlink:href="#DejaVuSans-2f" x="681.050781"/>
      <use xlink:href="#DejaVuSans-7a" x="714.742188"/>
      <use xlink:href="#DejaVuSans-3d" x="767.232422"/>
      <use xlink:href="#DejaVuSans-31" x="851.021484"/>
      <use xlink:href="#DejaVuSans-30" x="914.644531"/>
      <use xlink:href="#DejaVuSans-34" x="978.267578"/>
      <use xlink:href="#DejaVuSans-29" x="1041.890625"/>
     </g>
    </g>
    <g id="line2d_37">
     <path d="M 418.095312 276.896562 
L 428.095312 276.896562 
L 438.095312 276.896562 
" style="fill: none; stroke: #0000ff; stroke-width: 1.5; stroke-linecap: square"/>
    </g>
    <g id="text_38">
     <!-- SCF3-PS:Styrene(m/z=104) -->
     <g transform="translate(446.095312 280.396562) scale(0.1 -0.1)">
      <use xlink:href="#DejaVuSans-53"/>
      <use xlink:href="#DejaVuSans-43" x="63.476562"/>
      <use xlink:href="#DejaVuSans-46" x="133.300781"/>
      <use xlink:href="#DejaVuSans-33" x="190.820312"/>
      <use xlink:href="#DejaVuSans-2d" x="254.443359"/>
      <use xlink:href="#DejaVuSans-50" x="290.527344"/>
      <use xlink:href="#DejaVuSans-53" x="350.830078"/>
      <use xlink:href="#DejaVuSans-3a" x="414.306641"/>
      <use xlink:href="#DejaVuSans-53" x="447.998047"/>
      <use xlink:href="#DejaVuSans-74" x="511.474609"/>
      <use xlink:href="#DejaVuSans-79" x="550.683594"/>
      <use xlink:href="#DejaVuSans-72" x="609.863281"/>
      <use xlink:href="#DejaVuSans-65" x="648.726562"/>
      <use xlink:href="#DejaVuSans-6e" x="710.25"/>
      <use xlink:href="#DejaVuSans-65" x="773.628906"/>
      <use xlink:href="#DejaVuSans-28" x="835.152344"/>
      <use xlink:href="#DejaVuSans-6d" x="874.166016"/>
      <use xlink:href="#DejaVuSans-2f" x="971.578125"/>
      <use xlink:href="#DejaVuSans-7a" x="1005.269531"/>
      <use xlink:href="#DejaVuSans-3d" x="1057.759766"/>
      <use xlink:href="#DejaVuSans-31" x="1141.548828"/>
      <use xlink:href="#DejaVuSans-30" x="1205.171875"/>
      <use xlink:href="#DejaVuSans-34" x="1268.794922"/>
      <use xlink:href="#DejaVuSans-29" x="1332.417969"/>
     </g>
    </g>
   </g>
  </g>
 </g>
 <defs>
  <clipPath id="p63e710d7c3">
   <rect x="34.240625" y="7.2" width="558" height="201.6"/>
  </clipPath>
  <clipPath id="pf7724b1b8b">
   <rect x="34.240625" y="249.12" width="558" height="201.6"/>
  </clipPath>
 </defs>
</svg>
