<?xml version="1.0" encoding="utf-8" standalone="no"?>
<!DOCTYPE svg PUBLIC "-//W3C//DTD SVG 1.1//EN"
  "http://www.w3.org/Graphics/SVG/1.1/DTD/svg11.dtd">
<svg xmlns:xlink="http://www.w3.org/1999/xlink" width="410.995781pt" height="309.333094pt" viewBox="0 0 410.995781 309.333094" xmlns="http://www.w3.org/2000/svg" version="1.1">
 <metadata>
  <rdf:RDF xmlns:dc="http://purl.org/dc/elements/1.1/" xmlns:cc="http://creativecommons.org/ns#" xmlns:rdf="http://www.w3.org/1999/02/22-rdf-syntax-ns#">
   <cc:Work>
    <dc:type rdf:resource="http://purl.org/dc/dcmitype/StillImage"/>
    <dc:date>2024-01-21T20:57:54.525326</dc:date>
    <dc:format>image/svg+xml</dc:format>
    <dc:creator>
     <cc:Agent>
      <dc:title>Matplotlib v3.7.1, https://matplotlib.org/</dc:title>
     </cc:Agent>
    </dc:creator>
   </cc:Work>
  </rdf:RDF>
 </metadata>
 <defs>
  <style type="text/css">*{stroke-linejoin: round; stroke-linecap: butt}</style>
 </defs>
 <g id="figure_1">
  <g id="patch_1">
   <path d="M 0 309.333094 
L 410.995781 309.333094 
L 410.995781 0 
L 0 0 
z
" style="fill: #ffffff"/>
  </g>
  <g id="axes_1">
   <g id="patch_2">
    <path d="M 40.964375 273.312 
L 398.084375 273.312 
L 398.084375 7.2 
L 40.964375 7.2 
z
" style="fill: #ffffff"/>
   </g>
   <g id="matplotlib.axis_1">
    <g id="xtick_1">
     <g id="line2d_1">
      <defs>
       <path id="md2141e83b9" d="M 0 0 
L 0 -6 
" style="stroke: #262626; stroke-width: 1.25"/>
      </defs>
      <g>
       <use xlink:href="#md2141e83b9" x="40.964375" y="273.312" style="fill: #262626; stroke: #262626; stroke-width: 1.25"/>
      </g>
     </g>
     <g id="text_1">
      <!-- 4 -->
      <g style="fill: #262626" transform="translate(37.905859 284.685594) scale(0.11 -0.11)">
       <defs>
        <path id="ArialMT-34" d="M 2069 0 
L 2069 1097 
L 81 1097 
L 81 1613 
L 2172 4581 
L 2631 4581 
L 2631 1613 
L 3250 1613 
L 3250 1097 
L 2631 1097 
L 2631 0 
L 2069 0 
z
M 2069 1613 
L 2069 3678 
L 634 1613 
L 2069 1613 
z
" transform="scale(0.015625)"/>
       </defs>
       <use xlink:href="#ArialMT-34"/>
      </g>
     </g>
    </g>
    <g id="xtick_2">
     <g id="line2d_2">
      <g>
       <use xlink:href="#md2141e83b9" x="91.981518" y="273.312" style="fill: #262626; stroke: #262626; stroke-width: 1.25"/>
      </g>
     </g>
     <g id="text_2">
      <!-- 5 -->
      <g style="fill: #262626" transform="translate(88.923002 284.685594) scale(0.11 -0.11)">
       <defs>
        <path id="ArialMT-35" d="M 266 1200 
L 856 1250 
Q 922 819 1161 601 
Q 1400 384 1738 384 
Q 2144 384 2425 690 
Q 2706 997 2706 1503 
Q 2706 1984 2436 2262 
Q 2166 2541 1728 2541 
Q 1456 2541 1237 2417 
Q 1019 2294 894 2097 
L 366 2166 
L 809 4519 
L 3088 4519 
L 3088 3981 
L 1259 3981 
L 1013 2750 
Q 1425 3038 1878 3038 
Q 2478 3038 2890 2622 
Q 3303 2206 3303 1553 
Q 3303 931 2941 478 
Q 2500 -78 1738 -78 
Q 1113 -78 717 272 
Q 322 622 266 1200 
z
" transform="scale(0.015625)"/>
       </defs>
       <use xlink:href="#ArialMT-35"/>
      </g>
     </g>
    </g>
    <g id="xtick_3">
     <g id="line2d_3">
      <g>
       <use xlink:href="#md2141e83b9" x="142.998661" y="273.312" style="fill: #262626; stroke: #262626; stroke-width: 1.25"/>
      </g>
     </g>
     <g id="text_3">
      <!-- 6 -->
      <g style="fill: #262626" transform="translate(139.940145 284.685594) scale(0.11 -0.11)">
       <defs>
        <path id="ArialMT-36" d="M 3184 3459 
L 2625 3416 
Q 2550 3747 2413 3897 
Q 2184 4138 1850 4138 
Q 1581 4138 1378 3988 
Q 1113 3794 959 3422 
Q 806 3050 800 2363 
Q 1003 2672 1297 2822 
Q 1591 2972 1913 2972 
Q 2475 2972 2870 2558 
Q 3266 2144 3266 1488 
Q 3266 1056 3080 686 
Q 2894 316 2569 119 
Q 2244 -78 1831 -78 
Q 1128 -78 684 439 
Q 241 956 241 2144 
Q 241 3472 731 4075 
Q 1159 4600 1884 4600 
Q 2425 4600 2770 4297 
Q 3116 3994 3184 3459 
z
M 888 1484 
Q 888 1194 1011 928 
Q 1134 663 1356 523 
Q 1578 384 1822 384 
Q 2178 384 2434 671 
Q 2691 959 2691 1453 
Q 2691 1928 2437 2201 
Q 2184 2475 1800 2475 
Q 1419 2475 1153 2201 
Q 888 1928 888 1484 
z
" transform="scale(0.015625)"/>
       </defs>
       <use xlink:href="#ArialMT-36"/>
      </g>
     </g>
    </g>
    <g id="xtick_4">
     <g id="line2d_4">
      <g>
       <use xlink:href="#md2141e83b9" x="194.015804" y="273.312" style="fill: #262626; stroke: #262626; stroke-width: 1.25"/>
      </g>
     </g>
     <g id="text_4">
      <!-- 7 -->
      <g style="fill: #262626" transform="translate(190.957288 284.685594) scale(0.11 -0.11)">
       <defs>
        <path id="ArialMT-37" d="M 303 3981 
L 303 4522 
L 3269 4522 
L 3269 4084 
Q 2831 3619 2401 2847 
Q 1972 2075 1738 1259 
Q 1569 684 1522 0 
L 944 0 
Q 953 541 1156 1306 
Q 1359 2072 1739 2783 
Q 2119 3494 2547 3981 
L 303 3981 
z
" transform="scale(0.015625)"/>
       </defs>
       <use xlink:href="#ArialMT-37"/>
      </g>
     </g>
    </g>
    <g id="xtick_5">
     <g id="line2d_5">
      <g>
       <use xlink:href="#md2141e83b9" x="245.032946" y="273.312" style="fill: #262626; stroke: #262626; stroke-width: 1.25"/>
      </g>
     </g>
     <g id="text_5">
      <!-- 8 -->
      <g style="fill: #262626" transform="translate(241.974431 284.685594) scale(0.11 -0.11)">
       <defs>
        <path id="ArialMT-38" d="M 1131 2484 
Q 781 2613 612 2850 
Q 444 3088 444 3419 
Q 444 3919 803 4259 
Q 1163 4600 1759 4600 
Q 2359 4600 2725 4251 
Q 3091 3903 3091 3403 
Q 3091 3084 2923 2848 
Q 2756 2613 2416 2484 
Q 2838 2347 3058 2040 
Q 3278 1734 3278 1309 
Q 3278 722 2862 322 
Q 2447 -78 1769 -78 
Q 1091 -78 675 323 
Q 259 725 259 1325 
Q 259 1772 486 2073 
Q 713 2375 1131 2484 
z
M 1019 3438 
Q 1019 3113 1228 2906 
Q 1438 2700 1772 2700 
Q 2097 2700 2305 2904 
Q 2513 3109 2513 3406 
Q 2513 3716 2298 3927 
Q 2084 4138 1766 4138 
Q 1444 4138 1231 3931 
Q 1019 3725 1019 3438 
z
M 838 1322 
Q 838 1081 952 856 
Q 1066 631 1291 507 
Q 1516 384 1775 384 
Q 2178 384 2440 643 
Q 2703 903 2703 1303 
Q 2703 1709 2433 1975 
Q 2163 2241 1756 2241 
Q 1359 2241 1098 1978 
Q 838 1716 838 1322 
z
" transform="scale(0.015625)"/>
       </defs>
       <use xlink:href="#ArialMT-38"/>
      </g>
     </g>
    </g>
    <g id="xtick_6">
     <g id="line2d_6">
      <g>
       <use xlink:href="#md2141e83b9" x="296.050089" y="273.312" style="fill: #262626; stroke: #262626; stroke-width: 1.25"/>
      </g>
     </g>
     <g id="text_6">
      <!-- 9 -->
      <g style="fill: #262626" transform="translate(292.991574 284.685594) scale(0.11 -0.11)">
       <defs>
        <path id="ArialMT-39" d="M 350 1059 
L 891 1109 
Q 959 728 1153 556 
Q 1347 384 1650 384 
Q 1909 384 2104 503 
Q 2300 622 2425 820 
Q 2550 1019 2634 1356 
Q 2719 1694 2719 2044 
Q 2719 2081 2716 2156 
Q 2547 1888 2255 1720 
Q 1963 1553 1622 1553 
Q 1053 1553 659 1965 
Q 266 2378 266 3053 
Q 266 3750 677 4175 
Q 1088 4600 1706 4600 
Q 2153 4600 2523 4359 
Q 2894 4119 3086 3673 
Q 3278 3228 3278 2384 
Q 3278 1506 3087 986 
Q 2897 466 2520 194 
Q 2144 -78 1638 -78 
Q 1100 -78 759 220 
Q 419 519 350 1059 
z
M 2653 3081 
Q 2653 3566 2395 3850 
Q 2138 4134 1775 4134 
Q 1400 4134 1122 3828 
Q 844 3522 844 3034 
Q 844 2597 1108 2323 
Q 1372 2050 1759 2050 
Q 2150 2050 2401 2323 
Q 2653 2597 2653 3081 
z
" transform="scale(0.015625)"/>
       </defs>
       <use xlink:href="#ArialMT-39"/>
      </g>
     </g>
    </g>
    <g id="xtick_7">
     <g id="line2d_7">
      <g>
       <use xlink:href="#md2141e83b9" x="347.067232" y="273.312" style="fill: #262626; stroke: #262626; stroke-width: 1.25"/>
      </g>
     </g>
     <g id="text_7">
      <!-- 10 -->
      <g style="fill: #262626" transform="translate(340.950201 284.685594) scale(0.11 -0.11)">
       <defs>
        <path id="ArialMT-31" d="M 2384 0 
L 1822 0 
L 1822 3584 
Q 1619 3391 1289 3197 
Q 959 3003 697 2906 
L 697 3450 
Q 1169 3672 1522 3987 
Q 1875 4303 2022 4600 
L 2384 4600 
L 2384 0 
z
" transform="scale(0.015625)"/>
        <path id="ArialMT-30" d="M 266 2259 
Q 266 3072 433 3567 
Q 600 4063 929 4331 
Q 1259 4600 1759 4600 
Q 2128 4600 2406 4451 
Q 2684 4303 2865 4023 
Q 3047 3744 3150 3342 
Q 3253 2941 3253 2259 
Q 3253 1453 3087 958 
Q 2922 463 2592 192 
Q 2263 -78 1759 -78 
Q 1097 -78 719 397 
Q 266 969 266 2259 
z
M 844 2259 
Q 844 1131 1108 757 
Q 1372 384 1759 384 
Q 2147 384 2411 759 
Q 2675 1134 2675 2259 
Q 2675 3391 2411 3762 
Q 2147 4134 1753 4134 
Q 1366 4134 1134 3806 
Q 844 3388 844 2259 
z
" transform="scale(0.015625)"/>
       </defs>
       <use xlink:href="#ArialMT-31"/>
       <use xlink:href="#ArialMT-30" x="55.615234"/>
      </g>
     </g>
    </g>
    <g id="xtick_8">
     <g id="line2d_8">
      <g>
       <use xlink:href="#md2141e83b9" x="398.084375" y="273.312" style="fill: #262626; stroke: #262626; stroke-width: 1.25"/>
      </g>
     </g>
     <g id="text_8">
      <!-- 11 -->
      <g style="fill: #262626" transform="translate(392.372969 284.685594) scale(0.11 -0.11)">
       <use xlink:href="#ArialMT-31"/>
       <use xlink:href="#ArialMT-31" x="48.240234"/>
      </g>
     </g>
    </g>
    <g id="xtick_9">
     <g id="line2d_9">
      <defs>
       <path id="m20b62c124e" d="M 0 0 
L 0 -4 
" style="stroke: #262626"/>
      </defs>
      <g>
       <use xlink:href="#m20b62c124e" x="66.472946" y="273.312" style="fill: #262626; stroke: #262626"/>
      </g>
     </g>
    </g>
    <g id="xtick_10">
     <g id="line2d_10">
      <g>
       <use xlink:href="#m20b62c124e" x="117.490089" y="273.312" style="fill: #262626; stroke: #262626"/>
      </g>
     </g>
    </g>
    <g id="xtick_11">
     <g id="line2d_11">
      <g>
       <use xlink:href="#m20b62c124e" x="168.507232" y="273.312" style="fill: #262626; stroke: #262626"/>
      </g>
     </g>
    </g>
    <g id="xtick_12">
     <g id="line2d_12">
      <g>
       <use xlink:href="#m20b62c124e" x="219.524375" y="273.312" style="fill: #262626; stroke: #262626"/>
      </g>
     </g>
    </g>
    <g id="xtick_13">
     <g id="line2d_13">
      <g>
       <use xlink:href="#m20b62c124e" x="270.541518" y="273.312" style="fill: #262626; stroke: #262626"/>
      </g>
     </g>
    </g>
    <g id="xtick_14">
     <g id="line2d_14">
      <g>
       <use xlink:href="#m20b62c124e" x="321.558661" y="273.312" style="fill: #262626; stroke: #262626"/>
      </g>
     </g>
    </g>
    <g id="xtick_15">
     <g id="line2d_15">
      <g>
       <use xlink:href="#m20b62c124e" x="372.575804" y="273.312" style="fill: #262626; stroke: #262626"/>
      </g>
     </g>
    </g>
    <g id="text_9">
     <!-- Time (min) -->
     <g style="fill: #262626" transform="translate(191.087188 299.607469) scale(0.12 -0.12)">
      <defs>
       <path id="ArialMT-54" d="M 1659 0 
L 1659 4041 
L 150 4041 
L 150 4581 
L 3781 4581 
L 3781 4041 
L 2266 4041 
L 2266 0 
L 1659 0 
z
" transform="scale(0.015625)"/>
       <path id="ArialMT-69" d="M 425 3934 
L 425 4581 
L 988 4581 
L 988 3934 
L 425 3934 
z
M 425 0 
L 425 3319 
L 988 3319 
L 988 0 
L 425 0 
z
" transform="scale(0.015625)"/>
       <path id="ArialMT-6d" d="M 422 0 
L 422 3319 
L 925 3319 
L 925 2853 
Q 1081 3097 1340 3245 
Q 1600 3394 1931 3394 
Q 2300 3394 2536 3241 
Q 2772 3088 2869 2813 
Q 3263 3394 3894 3394 
Q 4388 3394 4653 3120 
Q 4919 2847 4919 2278 
L 4919 0 
L 4359 0 
L 4359 2091 
Q 4359 2428 4304 2576 
Q 4250 2725 4106 2815 
Q 3963 2906 3769 2906 
Q 3419 2906 3187 2673 
Q 2956 2441 2956 1928 
L 2956 0 
L 2394 0 
L 2394 2156 
Q 2394 2531 2256 2718 
Q 2119 2906 1806 2906 
Q 1569 2906 1367 2781 
Q 1166 2656 1075 2415 
Q 984 2175 984 1722 
L 984 0 
L 422 0 
z
" transform="scale(0.015625)"/>
       <path id="ArialMT-65" d="M 2694 1069 
L 3275 997 
Q 3138 488 2766 206 
Q 2394 -75 1816 -75 
Q 1088 -75 661 373 
Q 234 822 234 1631 
Q 234 2469 665 2931 
Q 1097 3394 1784 3394 
Q 2450 3394 2872 2941 
Q 3294 2488 3294 1666 
Q 3294 1616 3291 1516 
L 816 1516 
Q 847 969 1125 678 
Q 1403 388 1819 388 
Q 2128 388 2347 550 
Q 2566 713 2694 1069 
z
M 847 1978 
L 2700 1978 
Q 2663 2397 2488 2606 
Q 2219 2931 1791 2931 
Q 1403 2931 1139 2672 
Q 875 2413 847 1978 
z
" transform="scale(0.015625)"/>
       <path id="ArialMT-20" transform="scale(0.015625)"/>
       <path id="ArialMT-28" d="M 1497 -1347 
Q 1031 -759 709 28 
Q 388 816 388 1659 
Q 388 2403 628 3084 
Q 909 3875 1497 4659 
L 1900 4659 
Q 1522 4009 1400 3731 
Q 1209 3300 1100 2831 
Q 966 2247 966 1656 
Q 966 153 1900 -1347 
L 1497 -1347 
z
" transform="scale(0.015625)"/>
       <path id="ArialMT-6e" d="M 422 0 
L 422 3319 
L 928 3319 
L 928 2847 
Q 1294 3394 1984 3394 
Q 2284 3394 2536 3286 
Q 2788 3178 2913 3003 
Q 3038 2828 3088 2588 
Q 3119 2431 3119 2041 
L 3119 0 
L 2556 0 
L 2556 2019 
Q 2556 2363 2490 2533 
Q 2425 2703 2258 2804 
Q 2091 2906 1866 2906 
Q 1506 2906 1245 2678 
Q 984 2450 984 1813 
L 984 0 
L 422 0 
z
" transform="scale(0.015625)"/>
       <path id="ArialMT-29" d="M 791 -1347 
L 388 -1347 
Q 1322 153 1322 1656 
Q 1322 2244 1188 2822 
Q 1081 3291 891 3722 
Q 769 4003 388 4659 
L 791 4659 
Q 1378 3875 1659 3084 
Q 1900 2403 1900 1659 
Q 1900 816 1576 28 
Q 1253 -759 791 -1347 
z
" transform="scale(0.015625)"/>
      </defs>
      <use xlink:href="#ArialMT-54"/>
      <use xlink:href="#ArialMT-69" x="57.333984"/>
      <use xlink:href="#ArialMT-6d" x="79.550781"/>
      <use xlink:href="#ArialMT-65" x="162.851562"/>
      <use xlink:href="#ArialMT-20" x="218.466797"/>
      <use xlink:href="#ArialMT-28" x="246.25"/>
      <use xlink:href="#ArialMT-6d" x="279.550781"/>
      <use xlink:href="#ArialMT-69" x="362.851562"/>
      <use xlink:href="#ArialMT-6e" x="385.068359"/>
      <use xlink:href="#ArialMT-29" x="440.683594"/>
     </g>
    </g>
   </g>
   <g id="matplotlib.axis_2">
    <g id="ytick_1">
     <g id="line2d_16">
      <defs>
       <path id="me212b9a2f3" d="M 0 0 
L 6 0 
" style="stroke: #262626; stroke-width: 1.25"/>
      </defs>
      <g>
       <use xlink:href="#me212b9a2f3" x="40.964375" y="251.136" style="fill: #262626; stroke: #262626; stroke-width: 1.25"/>
      </g>
     </g>
     <g id="text_10">
      <!-- 0.0 -->
      <g style="fill: #262626" transform="translate(22.174375 255.072797) scale(0.11 -0.11)">
       <defs>
        <path id="ArialMT-2e" d="M 581 0 
L 581 641 
L 1222 641 
L 1222 0 
L 581 0 
z
" transform="scale(0.015625)"/>
       </defs>
       <use xlink:href="#ArialMT-30"/>
       <use xlink:href="#ArialMT-2e" x="55.615234"/>
       <use xlink:href="#ArialMT-30" x="83.398438"/>
      </g>
     </g>
    </g>
    <g id="ytick_2">
     <g id="line2d_17">
      <g>
       <use xlink:href="#me212b9a2f3" x="40.964375" y="206.784" style="fill: #262626; stroke: #262626; stroke-width: 1.25"/>
      </g>
     </g>
     <g id="text_11">
      <!-- 0.2 -->
      <g style="fill: #262626" transform="translate(22.174375 210.720797) scale(0.11 -0.11)">
       <defs>
        <path id="ArialMT-32" d="M 3222 541 
L 3222 0 
L 194 0 
Q 188 203 259 391 
Q 375 700 629 1000 
Q 884 1300 1366 1694 
Q 2113 2306 2375 2664 
Q 2638 3022 2638 3341 
Q 2638 3675 2398 3904 
Q 2159 4134 1775 4134 
Q 1369 4134 1125 3890 
Q 881 3647 878 3216 
L 300 3275 
Q 359 3922 746 4261 
Q 1134 4600 1788 4600 
Q 2447 4600 2831 4234 
Q 3216 3869 3216 3328 
Q 3216 3053 3103 2787 
Q 2991 2522 2730 2228 
Q 2469 1934 1863 1422 
Q 1356 997 1212 845 
Q 1069 694 975 541 
L 3222 541 
z
" transform="scale(0.015625)"/>
       </defs>
       <use xlink:href="#ArialMT-30"/>
       <use xlink:href="#ArialMT-2e" x="55.615234"/>
       <use xlink:href="#ArialMT-32" x="83.398438"/>
      </g>
     </g>
    </g>
    <g id="ytick_3">
     <g id="line2d_18">
      <g>
       <use xlink:href="#me212b9a2f3" x="40.964375" y="162.432" style="fill: #262626; stroke: #262626; stroke-width: 1.25"/>
      </g>
     </g>
     <g id="text_12">
      <!-- 0.4 -->
      <g style="fill: #262626" transform="translate(22.174375 166.368797) scale(0.11 -0.11)">
       <use xlink:href="#ArialMT-30"/>
       <use xlink:href="#ArialMT-2e" x="55.615234"/>
       <use xlink:href="#ArialMT-34" x="83.398438"/>
      </g>
     </g>
    </g>
    <g id="ytick_4">
     <g id="line2d_19">
      <g>
       <use xlink:href="#me212b9a2f3" x="40.964375" y="118.08" style="fill: #262626; stroke: #262626; stroke-width: 1.25"/>
      </g>
     </g>
     <g id="text_13">
      <!-- 0.6 -->
      <g style="fill: #262626" transform="translate(22.174375 122.016797) scale(0.11 -0.11)">
       <use xlink:href="#ArialMT-30"/>
       <use xlink:href="#ArialMT-2e" x="55.615234"/>
       <use xlink:href="#ArialMT-36" x="83.398438"/>
      </g>
     </g>
    </g>
    <g id="ytick_5">
     <g id="line2d_20">
      <g>
       <use xlink:href="#me212b9a2f3" x="40.964375" y="73.728" style="fill: #262626; stroke: #262626; stroke-width: 1.25"/>
      </g>
     </g>
     <g id="text_14">
      <!-- 0.8 -->
      <g style="fill: #262626" transform="translate(22.174375 77.664797) scale(0.11 -0.11)">
       <use xlink:href="#ArialMT-30"/>
       <use xlink:href="#ArialMT-2e" x="55.615234"/>
       <use xlink:href="#ArialMT-38" x="83.398438"/>
      </g>
     </g>
    </g>
    <g id="ytick_6">
     <g id="line2d_21">
      <g>
       <use xlink:href="#me212b9a2f3" x="40.964375" y="29.376" style="fill: #262626; stroke: #262626; stroke-width: 1.25"/>
      </g>
     </g>
     <g id="text_15">
      <!-- 1.0 -->
      <g style="fill: #262626" transform="translate(22.174375 33.312797) scale(0.11 -0.11)">
       <use xlink:href="#ArialMT-31"/>
       <use xlink:href="#ArialMT-2e" x="55.615234"/>
       <use xlink:href="#ArialMT-30" x="83.398438"/>
      </g>
     </g>
    </g>
    <g id="ytick_7">
     <g id="line2d_22">
      <defs>
       <path id="mf42ca757e2" d="M 0 0 
L 4 0 
" style="stroke: #262626"/>
      </defs>
      <g>
       <use xlink:href="#mf42ca757e2" x="40.964375" y="228.96" style="fill: #262626; stroke: #262626"/>
      </g>
     </g>
    </g>
    <g id="ytick_8">
     <g id="line2d_23">
      <g>
       <use xlink:href="#mf42ca757e2" x="40.964375" y="184.608" style="fill: #262626; stroke: #262626"/>
      </g>
     </g>
    </g>
    <g id="ytick_9">
     <g id="line2d_24">
      <g>
       <use xlink:href="#mf42ca757e2" x="40.964375" y="140.256" style="fill: #262626; stroke: #262626"/>
      </g>
     </g>
    </g>
    <g id="ytick_10">
     <g id="line2d_25">
      <g>
       <use xlink:href="#mf42ca757e2" x="40.964375" y="95.904" style="fill: #262626; stroke: #262626"/>
      </g>
     </g>
    </g>
    <g id="ytick_11">
     <g id="line2d_26">
      <g>
       <use xlink:href="#mf42ca757e2" x="40.964375" y="51.552" style="fill: #262626; stroke: #262626"/>
      </g>
     </g>
    </g>
    <g id="text_16">
     <!-- Refractive Index -->
     <g style="fill: #262626" transform="translate(15.789375 183.606937) rotate(-90) scale(0.12 -0.12)">
      <defs>
       <path id="ArialMT-52" d="M 503 0 
L 503 4581 
L 2534 4581 
Q 3147 4581 3465 4457 
Q 3784 4334 3975 4021 
Q 4166 3709 4166 3331 
Q 4166 2844 3850 2509 
Q 3534 2175 2875 2084 
Q 3116 1969 3241 1856 
Q 3506 1613 3744 1247 
L 4541 0 
L 3778 0 
L 3172 953 
Q 2906 1366 2734 1584 
Q 2563 1803 2427 1890 
Q 2291 1978 2150 2013 
Q 2047 2034 1813 2034 
L 1109 2034 
L 1109 0 
L 503 0 
z
M 1109 2559 
L 2413 2559 
Q 2828 2559 3062 2645 
Q 3297 2731 3419 2920 
Q 3541 3109 3541 3331 
Q 3541 3656 3305 3865 
Q 3069 4075 2559 4075 
L 1109 4075 
L 1109 2559 
z
" transform="scale(0.015625)"/>
       <path id="ArialMT-66" d="M 556 0 
L 556 2881 
L 59 2881 
L 59 3319 
L 556 3319 
L 556 3672 
Q 556 4006 616 4169 
Q 697 4388 901 4523 
Q 1106 4659 1475 4659 
Q 1713 4659 2000 4603 
L 1916 4113 
Q 1741 4144 1584 4144 
Q 1328 4144 1222 4034 
Q 1116 3925 1116 3625 
L 1116 3319 
L 1763 3319 
L 1763 2881 
L 1116 2881 
L 1116 0 
L 556 0 
z
" transform="scale(0.015625)"/>
       <path id="ArialMT-72" d="M 416 0 
L 416 3319 
L 922 3319 
L 922 2816 
Q 1116 3169 1280 3281 
Q 1444 3394 1641 3394 
Q 1925 3394 2219 3213 
L 2025 2691 
Q 1819 2813 1613 2813 
Q 1428 2813 1281 2702 
Q 1134 2591 1072 2394 
Q 978 2094 978 1738 
L 978 0 
L 416 0 
z
" transform="scale(0.015625)"/>
       <path id="ArialMT-61" d="M 2588 409 
Q 2275 144 1986 34 
Q 1697 -75 1366 -75 
Q 819 -75 525 192 
Q 231 459 231 875 
Q 231 1119 342 1320 
Q 453 1522 633 1644 
Q 813 1766 1038 1828 
Q 1203 1872 1538 1913 
Q 2219 1994 2541 2106 
Q 2544 2222 2544 2253 
Q 2544 2597 2384 2738 
Q 2169 2928 1744 2928 
Q 1347 2928 1158 2789 
Q 969 2650 878 2297 
L 328 2372 
Q 403 2725 575 2942 
Q 747 3159 1072 3276 
Q 1397 3394 1825 3394 
Q 2250 3394 2515 3294 
Q 2781 3194 2906 3042 
Q 3031 2891 3081 2659 
Q 3109 2516 3109 2141 
L 3109 1391 
Q 3109 606 3145 398 
Q 3181 191 3288 0 
L 2700 0 
Q 2613 175 2588 409 
z
M 2541 1666 
Q 2234 1541 1622 1453 
Q 1275 1403 1131 1340 
Q 988 1278 909 1158 
Q 831 1038 831 891 
Q 831 666 1001 516 
Q 1172 366 1500 366 
Q 1825 366 2078 508 
Q 2331 650 2450 897 
Q 2541 1088 2541 1459 
L 2541 1666 
z
" transform="scale(0.015625)"/>
       <path id="ArialMT-63" d="M 2588 1216 
L 3141 1144 
Q 3050 572 2676 248 
Q 2303 -75 1759 -75 
Q 1078 -75 664 370 
Q 250 816 250 1647 
Q 250 2184 428 2587 
Q 606 2991 970 3192 
Q 1334 3394 1763 3394 
Q 2303 3394 2647 3120 
Q 2991 2847 3088 2344 
L 2541 2259 
Q 2463 2594 2264 2762 
Q 2066 2931 1784 2931 
Q 1359 2931 1093 2626 
Q 828 2322 828 1663 
Q 828 994 1084 691 
Q 1341 388 1753 388 
Q 2084 388 2306 591 
Q 2528 794 2588 1216 
z
" transform="scale(0.015625)"/>
       <path id="ArialMT-74" d="M 1650 503 
L 1731 6 
Q 1494 -44 1306 -44 
Q 1000 -44 831 53 
Q 663 150 594 308 
Q 525 466 525 972 
L 525 2881 
L 113 2881 
L 113 3319 
L 525 3319 
L 525 4141 
L 1084 4478 
L 1084 3319 
L 1650 3319 
L 1650 2881 
L 1084 2881 
L 1084 941 
Q 1084 700 1114 631 
Q 1144 563 1211 522 
Q 1278 481 1403 481 
Q 1497 481 1650 503 
z
" transform="scale(0.015625)"/>
       <path id="ArialMT-76" d="M 1344 0 
L 81 3319 
L 675 3319 
L 1388 1331 
Q 1503 1009 1600 663 
Q 1675 925 1809 1294 
L 2547 3319 
L 3125 3319 
L 1869 0 
L 1344 0 
z
" transform="scale(0.015625)"/>
       <path id="ArialMT-49" d="M 597 0 
L 597 4581 
L 1203 4581 
L 1203 0 
L 597 0 
z
" transform="scale(0.015625)"/>
       <path id="ArialMT-64" d="M 2575 0 
L 2575 419 
Q 2259 -75 1647 -75 
Q 1250 -75 917 144 
Q 584 363 401 755 
Q 219 1147 219 1656 
Q 219 2153 384 2558 
Q 550 2963 881 3178 
Q 1213 3394 1622 3394 
Q 1922 3394 2156 3267 
Q 2391 3141 2538 2938 
L 2538 4581 
L 3097 4581 
L 3097 0 
L 2575 0 
z
M 797 1656 
Q 797 1019 1065 703 
Q 1334 388 1700 388 
Q 2069 388 2326 689 
Q 2584 991 2584 1609 
Q 2584 2291 2321 2609 
Q 2059 2928 1675 2928 
Q 1300 2928 1048 2622 
Q 797 2316 797 1656 
z
" transform="scale(0.015625)"/>
       <path id="ArialMT-78" d="M 47 0 
L 1259 1725 
L 138 3319 
L 841 3319 
L 1350 2541 
Q 1494 2319 1581 2169 
Q 1719 2375 1834 2534 
L 2394 3319 
L 3066 3319 
L 1919 1756 
L 3153 0 
L 2463 0 
L 1781 1031 
L 1600 1309 
L 728 0 
L 47 0 
z
" transform="scale(0.015625)"/>
      </defs>
      <use xlink:href="#ArialMT-52"/>
      <use xlink:href="#ArialMT-65" x="72.216797"/>
      <use xlink:href="#ArialMT-66" x="127.832031"/>
      <use xlink:href="#ArialMT-72" x="155.615234"/>
      <use xlink:href="#ArialMT-61" x="188.916016"/>
      <use xlink:href="#ArialMT-63" x="244.53125"/>
      <use xlink:href="#ArialMT-74" x="294.53125"/>
      <use xlink:href="#ArialMT-69" x="322.314453"/>
      <use xlink:href="#ArialMT-76" x="344.53125"/>
      <use xlink:href="#ArialMT-65" x="394.53125"/>
      <use xlink:href="#ArialMT-20" x="450.146484"/>
      <use xlink:href="#ArialMT-49" x="477.929688"/>
      <use xlink:href="#ArialMT-6e" x="505.712891"/>
      <use xlink:href="#ArialMT-64" x="561.328125"/>
      <use xlink:href="#ArialMT-65" x="616.943359"/>
      <use xlink:href="#ArialMT-78" x="672.558594"/>
     </g>
    </g>
   </g>
   <g id="PolyCollection_1"/>
   <g id="PolyCollection_2"/>
   <g id="line2d_27">
    <path d="M 40.879176 251.391517 
L 41.729632 251.391517 
L 41.984718 251.429371 
L 42.409691 251.410444 
L 42.664776 251.211709 
L 42.835174 251.334735 
L 43.005061 251.50508 
L 43.685119 251.306344 
L 43.855516 251.240099 
L 44.195291 251.391517 
L 44.705462 251.154927 
L 45.045746 251.211709 
L 45.300832 251.353662 
L 45.555918 251.296881 
L 45.980891 251.221172 
L 46.235976 251.363126 
L 46.576261 251.429371 
L 46.831346 251.334735 
L 47.001234 251.240099 
L 47.341518 251.476689 
L 47.681802 251.391517 
L 47.936888 251.315808 
L 48.191974 251.211709 
L 48.447059 251.448298 
L 49.297005 251.249563 
L 49.552091 251.391517 
L 50.572434 251.259027 
L 50.912718 251.325272 
L 51.253002 251.098146 
L 52.188146 251.230636 
L 52.443232 251.117073 
L 52.783516 251.287417 
L 53.378376 251.249563 
L 53.548774 251.192781 
L 53.888548 251.429371 
L 54.739004 251.325272 
L 55.079288 251.476689 
L 55.249175 251.372589 
L 55.504261 251.183318 
L 55.674148 251.136 
L 56.439405 251.363126 
L 56.694491 251.183318 
L 57.459748 251.325272 
L 57.714834 251.117073 
L 57.885231 251.088682 
L 58.225005 251.296881 
L 59.075461 251.164391 
L 59.330546 251.325272 
L 59.755519 251.221172 
L 60.605975 251.315808 
L 60.946259 251.164391 
L 61.711516 251.259027 
L 62.221688 251.041364 
L 62.476774 251.211709 
L 62.986945 251.173854 
L 63.242031 251.031901 
L 63.667004 251.344199 
L 64.347062 251.154927 
L 64.772545 251.382053 
L 65.452604 251.136 
L 66.047974 251.315808 
L 66.642834 251.287417 
L 67.323402 251.202245 
L 67.493289 251.126536 
L 68.088659 251.344199 
L 68.513632 251.173854 
L 68.683519 251.117073 
L 69.109002 251.334735 
L 69.364088 251.325272 
L 69.533975 251.315808 
L 69.789061 251.202245 
L 70.214034 251.391517 
L 70.639516 251.306344 
L 71.659859 251.211709 
L 71.829746 251.136 
L 72.509805 251.306344 
L 73.105175 251.154927 
L 73.360261 251.249563 
L 74.125518 251.126536 
L 74.380604 251.40098 
L 74.635689 251.306344 
L 75.231059 251.249563 
L 75.656032 251.429371 
L 76.166204 251.259027 
L 76.846262 251.467225 
L 77.271745 251.240099 
L 77.526831 251.429371 
L 77.866605 251.419907 
L 78.037002 251.448298 
L 78.376776 251.221172 
L 78.802259 251.476689 
L 79.567516 251.277954 
L 79.907291 251.410444 
L 80.247575 251.334735 
L 80.502661 251.259027 
L 80.842945 251.277954 
L 81.098031 251.391517 
L 81.523004 251.230636 
L 82.373459 251.344199 
L 82.628545 251.230636 
L 82.798432 251.372589 
L 82.968319 251.457762 
L 83.818775 251.192781 
L 84.073861 251.429371 
L 84.753919 251.249563 
L 84.924316 251.240099 
L 85.349289 251.486152 
L 85.689574 251.230636 
L 85.859461 251.240099 
L 86.114546 251.240099 
L 86.539519 251.40098 
L 86.879804 251.173854 
L 87.730259 251.429371 
L 88.070034 251.211709 
L 88.835291 251.363126 
L 89.005688 251.325272 
L 89.260774 251.240099 
L 89.600548 251.467225 
L 90.365805 251.306344 
L 90.791288 251.429371 
L 91.131062 251.211709 
L 91.726432 251.240099 
L 91.896319 251.306344 
L 92.491689 250.975119 
L 93.171748 250.994046 
L 93.512032 250.681748 
L 93.767118 250.823702 
L 94.447176 250.50194 
L 94.617574 250.36945 
L 95.127745 250.397841 
L 95.382831 250.274814 
L 95.552718 250.255887 
L 95.722605 250.151788 
L 96.232776 250.23696 
L 96.742948 249.981444 
L 97.508205 249.886808 
L 97.763291 249.744854 
L 98.613746 249.782708 
L 98.868832 249.593437 
L 99.548891 249.725927 
L 99.803976 249.669146 
L 100.059062 249.555583 
L 100.484545 249.782708 
L 101.164604 249.602901 
L 101.589576 249.801636 
L 102.015059 249.650218 
L 102.609919 249.820563 
L 102.865005 249.896271 
L 103.290488 249.688073 
L 103.545574 249.858417 
L 103.800659 249.820563 
L 103.970546 249.858417 
L 104.310831 249.555583 
L 104.905691 249.782708 
L 105.501061 249.669146 
L 105.926034 249.867881 
L 106.436205 249.688073 
L 106.691291 249.697536 
L 107.031575 249.792172 
L 107.541746 249.631291 
L 107.796832 249.820563 
L 108.476891 249.801636 
L 108.647288 249.763781 
L 108.902374 249.915199 
L 109.242148 249.858417 
L 109.497234 249.801636 
L 109.752319 249.650218 
L 110.177802 249.905735 
L 110.432888 249.792172 
L 110.687974 249.773245 
L 110.857861 249.716463 
L 111.282834 249.934126 
L 112.048091 249.848954 
L 112.473574 249.97198 
L 112.983745 249.792172 
L 113.323519 249.886808 
L 113.578605 249.934126 
L 113.749002 249.943589 
L 114.088776 249.801636 
L 114.343862 249.934126 
L 115.279516 249.725927 
L 115.534602 249.896271 
L 117.659976 249.763781 
L 118.000261 249.830026 
L 118.340545 249.678609 
L 118.595631 249.820563 
L 119.190491 249.820563 
L 119.445576 249.631291 
L 119.871059 249.858417 
L 120.126145 249.820563 
L 120.296032 249.820563 
L 120.551118 249.631291 
L 120.976091 249.962516 
L 121.656659 249.716463 
L 122.421916 249.867881 
L 122.677002 249.820563 
L 123.357061 249.924662 
L 123.697345 249.650218 
L 123.867232 249.763781 
L 124.377404 249.915199 
L 124.717688 249.792172 
L 124.887575 249.650218 
L 125.227859 249.858417 
L 125.652832 249.811099 
L 125.822719 249.773245 
L 125.993116 249.659682 
L 126.418089 249.896271 
L 126.758374 249.763781 
L 127.608319 249.848954 
L 128.203689 249.735391 
L 128.799059 249.820563 
L 129.224032 249.602901 
L 129.479118 249.848954 
L 130.329574 249.583973 
L 130.669348 249.896271 
L 131.094831 249.763781 
L 131.264718 249.669146 
L 131.434605 249.536655 
L 131.860088 249.782708 
L 132.115174 249.697536 
L 132.370259 249.735391 
L 132.710034 249.773245 
L 133.050318 249.782708 
L 133.305404 249.593437 
L 134.240548 249.792172 
L 134.580832 249.555583 
L 134.835918 249.773245 
L 135.771062 249.697536 
L 136.111346 249.867881 
L 136.961802 249.669146 
L 137.301576 249.886808 
L 137.896946 249.621828 
L 138.662204 249.707 
L 138.917289 249.631291 
L 139.257574 249.735391 
L 139.427461 249.725927 
L 139.682546 249.716463 
L 140.022831 249.612364 
L 140.362605 249.811099 
L 141.213061 249.640755 
L 141.468146 249.858417 
L 141.638034 249.754318 
L 141.808431 249.659682 
L 143.763918 249.763781 
L 143.933805 249.754318 
L 144.274089 249.546119 
L 144.699062 249.725927 
L 145.294432 249.621828 
L 145.464319 249.678609 
L 145.719405 249.801636 
L 146.059689 249.744854 
L 146.399974 249.650218 
L 146.569861 249.659682 
L 146.994834 249.886808 
L 147.335118 249.725927 
L 147.845289 249.735391 
L 148.100375 249.811099 
L 148.695745 249.725927 
L 149.205916 249.886808 
L 149.545691 249.707 
L 149.800776 249.650218 
L 150.055862 249.763781 
L 150.226259 249.735391 
L 150.566034 249.782708 
L 150.821119 249.650218 
L 151.246602 249.924662 
L 151.841462 249.763781 
L 152.096548 249.744854 
L 152.351634 249.915199 
L 152.691918 249.763781 
L 152.947004 249.763781 
L 153.202089 249.792172 
L 153.542374 249.924662 
L 153.967346 249.678609 
L 154.222432 249.725927 
L 154.732604 249.782708 
L 155.242775 249.735391 
L 155.412662 249.886808 
L 156.263118 249.621828 
L 156.603402 249.877344 
L 157.538546 249.744854 
L 157.878831 249.83949 
L 158.218605 249.621828 
L 158.473691 249.669146 
L 158.813975 249.811099 
L 158.983862 249.801636 
L 159.409345 249.555583 
L 159.749119 249.744854 
L 160.429688 249.593437 
L 160.599575 249.555583 
L 160.854661 249.716463 
L 161.194945 249.631291 
L 161.450031 249.57451 
L 161.705116 249.508265 
L 161.960202 249.707 
L 162.810148 249.498801 
L 163.235631 249.707 
L 164.000888 249.546119 
L 164.340662 249.621828 
L 164.936032 249.271675 
L 165.105919 249.356848 
L 165.361005 249.328457 
L 165.531402 249.404165 
L 165.956375 249.120258 
L 166.296659 249.413629 
L 166.891519 249.186503 
L 167.146605 249.101331 
L 167.401691 249.262212 
L 168.082259 249.016159 
L 168.337345 249.006695 
L 168.677119 249.101331 
L 169.187291 248.779569 
L 169.442376 248.80796 
L 169.697462 248.703861 
L 169.867859 248.666006 
L 170.292832 248.363172 
L 170.547918 248.514589 
L 171.398374 248.079265 
L 171.653459 248.211755 
L 171.908545 248.04141 
L 172.503405 247.64394 
L 172.843689 247.691258 
L 173.864032 247.00988 
L 174.119118 246.886854 
L 174.459402 246.460993 
L 174.884375 246.21494 
L 175.394546 245.874251 
L 175.734831 245.382145 
L 175.904718 245.457854 
L 176.839862 244.312761 
L 177.094948 244.274907 
L 178.540774 242.372728 
L 179.050945 241.549396 
L 179.475918 240.981582 
L 180.071288 239.817562 
L 180.326374 239.410628 
L 181.856888 236.13623 
L 183.557289 231.659959 
L 183.812375 230.969117 
L 184.662831 228.148971 
L 185.342889 225.688441 
L 186.363232 221.675885 
L 186.958602 219.319454 
L 188.403918 212.392116 
L 189.764545 205.067307 
L 191.805231 192.603776 
L 193.930605 177.660788 
L 199.032319 136.039976 
L 200.648032 121.94871 
L 206.515004 73.258607 
L 209.406145 54.057009 
L 210.001005 50.583876 
L 210.681574 47.072889 
L 212.381975 39.379001 
L 213.317119 36.161385 
L 214.337462 33.284457 
L 215.018031 31.997411 
L 215.273116 31.505305 
L 215.698089 30.681974 
L 216.038374 30.369676 
L 216.378148 30.028987 
L 216.803631 29.489563 
L 217.058716 29.565272 
L 217.908662 29.394927 
L 218.248946 29.735616 
L 218.589231 29.839715 
L 219.269289 30.587338 
L 220.459519 32.555762 
L 220.799804 33.218212 
L 221.224776 34.268669 
L 222.755291 39.019385 
L 225.476545 50.318896 
L 227.857005 63.123116 
L 229.813002 74.82956 
L 241.121462 149.941971 
L 242.822374 159.99229 
L 243.502432 164.118409 
L 248.518948 190.275736 
L 249.454602 194.581664 
L 250.049462 197.288247 
L 252.260545 206.392208 
L 252.685518 208.152433 
L 253.450775 210.896871 
L 253.705861 211.956791 
L 254.385919 214.370003 
L 254.896091 216.120765 
L 255.321574 217.445666 
L 258.637688 227.145832 
L 259.062661 228.082726 
L 259.487634 229.227819 
L 260.423288 231.45176 
L 260.763062 232.123674 
L 261.188545 232.928078 
L 261.783405 234.139416 
L 262.038491 234.461177 
L 262.974145 236.287648 
L 263.229231 236.476919 
L 264.249574 238.180363 
L 264.419461 238.350707 
L 264.844434 239.145648 
L 265.184718 239.524191 
L 267.055516 241.842767 
L 267.650376 242.306483 
L 267.905462 242.599854 
L 268.160548 242.789125 
L 268.500832 242.959469 
L 268.670719 243.025715 
L 269.180891 243.640847 
L 269.946148 244.189734 
L 270.286432 244.54935 
L 270.966491 244.937357 
L 271.391974 245.344291 
L 271.647059 245.353754 
L 272.072032 245.647125 
L 272.582204 245.987814 
L 273.007176 245.978351 
L 273.517348 246.498847 
L 273.772434 246.621874 
L 274.197916 246.669192 
L 274.367804 246.867927 
L 276.153404 247.407351 
L 276.323291 247.37896 
L 276.748774 247.691258 
L 277.258945 247.77643 
L 277.769116 248.060337 
L 277.939004 248.126583 
L 278.363976 248.003556 
L 278.789459 248.30639 
L 279.044545 248.363172 
L 279.299631 248.401026 
L 279.554716 248.325318 
L 279.809802 248.599761 
L 280.744946 248.590298 
L 281.000032 248.845814 
L 281.425005 248.732251 
L 281.935176 248.864742 
L 282.190262 248.997232 
L 282.700434 248.836351 
L 283.465691 249.054013 
L 283.805975 248.902596 
L 284.316146 249.167576 
L 284.656431 249.129722 
L 284.996205 248.968841 
L 285.336489 249.214894 
L 285.846661 249.233821 
L 286.016548 249.148649 
L 286.526719 249.356848 
L 286.781805 249.186503 
L 287.717459 249.451483 
L 288.142432 249.20543 
L 288.567405 249.33792 
L 288.907689 249.328457 
L 289.247974 249.139185 
L 289.503059 249.385238 
L 290.353005 249.224357 
L 290.778488 249.44202 
L 291.458546 249.271675 
L 291.883519 249.47041 
L 292.393691 249.375775 
L 292.564088 249.347384 
L 293.074259 249.47041 
L 294.009404 249.33792 
L 294.349688 249.385238 
L 294.689462 249.20543 
L 294.944548 249.328457 
L 295.454719 249.375775 
L 295.795004 249.252748 
L 296.135288 249.44202 
L 296.475062 249.224357 
L 296.730148 249.120258 
L 296.900545 249.101331 
L 297.325518 249.290602 
L 298.005576 249.167576 
L 299.366204 249.271675 
L 299.791176 249.252748 
L 300.046262 249.091867 
L 300.556434 249.262212 
L 301.406889 249.318993 
L 301.576776 249.394702 
L 302.172146 249.148649 
L 303.022602 249.224357 
L 303.362376 249.224357 
L 303.617462 249.347384 
L 304.042945 249.347384 
L 304.382719 249.158112 
L 304.637805 249.281139 
L 305.063288 249.243285 
L 305.233175 249.195967 
L 305.488261 249.044549 
L 305.828545 249.243285 
L 306.678491 249.016159 
L 307.018775 249.20543 
L 307.698834 249.006695 
L 308.039118 249.063477 
L 308.294204 249.016159 
L 308.719176 248.80796 
L 308.974262 248.836351 
L 309.569632 248.656543 
L 309.824718 248.505126 
L 309.994605 248.599761 
L 311.014948 247.984629 
L 311.185345 248.003556 
L 311.695516 247.681794 
L 312.630661 247.170761 
L 313.055634 246.87739 
L 313.395918 246.792218 
L 313.651004 246.574556 
L 314.161175 246.006741 
L 314.586148 245.751225 
L 315.351405 245.249655 
L 315.521802 245.164483 
L 316.371748 244.218125 
L 316.626834 244.15188 
L 317.562488 243.536748 
L 317.817574 243.546211 
L 318.412434 243.177132 
L 318.752718 243.196059 
L 319.007804 243.233913 
L 319.517975 243.167668 
L 319.858259 243.451575 
L 320.453119 243.546211 
L 320.623516 243.593529 
L 320.963291 244.01939 
L 321.218376 244.123489 
L 322.238719 244.927893 
L 322.579004 245.136092 
L 323.514148 245.732298 
L 323.769234 245.864788 
L 324.534491 246.489384 
L 324.874775 246.536702 
L 325.215059 246.820609 
L 325.895118 246.886854 
L 326.065005 246.962563 
L 326.405289 247.24647 
L 327.340434 247.331642 
L 327.595519 247.426278 
L 327.935804 247.331642 
L 328.276088 247.388424 
L 328.445975 247.435741 
L 328.701061 247.568231 
L 329.211232 247.360033 
L 329.466318 247.407351 
L 329.721404 247.492523 
L 329.976489 247.530377 
L 330.316774 247.274861 
L 330.656548 247.520914 
L 330.911634 247.492523 
L 331.166719 247.501986 
L 331.421805 247.303251 
L 331.762089 247.558768 
L 332.187062 247.397887 
L 332.357459 247.416814 
L 332.612545 247.416814 
L 333.122716 247.568231 
L 333.462491 247.501986 
L 333.717576 247.539841 
L 334.227748 247.596622 
L 334.482834 247.492523 
L 335.248091 247.653404 
L 335.418488 247.596622 
L 335.758262 247.407351 
L 336.013348 247.568231 
L 336.693916 247.227543 
L 336.949002 247.180225 
L 337.204088 247.180225 
L 337.629061 246.782755 
L 337.798948 246.621874 
L 338.054034 246.394748 
L 338.394318 246.281185 
L 339.329462 245.088774 
L 339.669746 244.710231 
L 340.094719 244.028854 
L 340.265116 243.915291 
L 340.859976 243.054105 
L 341.200261 242.514681 
L 341.455346 242.334873 
L 343.071059 240.489476 
L 343.240946 240.385377 
L 343.496032 240.167714 
L 343.921005 240.054151 
L 344.516375 239.552582 
L 345.196434 239.211893 
L 345.451519 239.022621 
L 346.301975 238.83335 
L 346.642259 238.606224 
L 346.897345 238.748178 
L 347.747291 238.502125 
L 348.002376 238.691396 
L 348.682945 238.577833 
L 348.938031 238.644078 
L 349.448202 238.871204 
L 349.873175 238.994231 
L 350.468545 239.476873 
L 350.808319 239.46741 
L 351.573576 240.281277 
L 351.999059 240.404304 
L 352.424032 240.89641 
L 353.189289 241.379052 
L 353.614262 241.842767 
L 354.124434 242.107748 
L 354.379519 242.401118 
L 354.889691 242.770198 
L 355.570259 243.262304 
L 355.910034 243.517821 
L 356.250318 243.527284 
L 357.100774 244.312761 
L 357.440548 244.341152 
L 357.780832 244.748086 
L 358.376202 244.880576 
L 358.546089 244.880576 
L 358.886374 245.278046 
L 359.396545 245.344291 
L 360.246491 245.826933 
L 360.586775 245.741761 
L 360.841861 245.987814 
L 361.182145 246.016205 
L 361.437231 246.025668 
L 361.692316 245.997278 
L 362.117289 246.271721 
L 362.287176 246.319039 
L 362.542262 246.460993 
L 362.797348 246.375821 
L 363.392718 246.725973 
L 364.072776 246.905781 
L 364.327862 247.189688 
L 365.093119 247.293788 
L 365.263516 247.407351 
L 365.603291 247.64394 
L 366.028774 247.615549 
L 366.283859 247.757503 
L 366.794031 247.918384 
L 367.133805 247.795357 
L 367.388891 248.164437 
L 367.984261 248.315854 
L 368.239346 248.183364 
L 368.579631 248.486198 
L 369.514775 248.770106 
L 369.855059 249.006695 
L 370.280032 248.864742 
L 370.705005 248.968841 
L 371.215176 249.025622 
L 371.470262 249.044549 
L 371.725348 249.224357 
L 371.980434 249.271675 
L 372.235519 249.385238 
L 372.575804 249.233821 
L 372.916088 249.57451 
L 373.596146 249.57451 
L 373.851232 249.924662 
L 374.021119 250.095007 
L 374.361404 250.180179 
L 374.616489 250.293742 
L 374.786376 250.359987 
L 376.316891 252.025576 
L 377.337234 253.785802 
L 378.102491 255.801543 
L 379.377919 261.498617 
L 380.228375 267.375498 
L 381.078831 276.545704 
L 381.758889 286.491924 
L 382.524146 300.914415 
L 382.944004 310.333094 
M 397.56291 310.333094 
L 398.169574 303.592607 
L 398.169574 303.592607 
" clip-path="url(#p57505f53ba)" style="fill: none; stroke: #1f77b4; stroke-linecap: round"/>
   </g>
   <g id="line2d_28">
    <path d="M 40.879176 251.091148 
L 41.304659 251.068722 
L 41.559745 251.203278 
L 41.899519 251.035083 
L 42.069916 250.979018 
L 42.239804 250.8781 
L 42.494889 251.046296 
L 42.664776 251.158426 
L 43.090259 251.001444 
L 43.515232 250.967805 
L 44.025404 251.113574 
L 44.280489 250.979018 
L 44.450376 251.035083 
L 44.705462 251.158426 
L 45.130945 251.113574 
L 45.470719 250.889313 
L 45.811004 251.113574 
L 46.066089 251.068722 
L 46.406374 250.967805 
L 46.576261 250.844461 
L 46.916545 251.158426 
L 47.426716 251.001444 
L 47.851689 250.945379 
L 48.106775 251.091148 
L 48.702145 250.844461 
L 49.382204 251.079935 
L 49.637289 250.833248 
L 49.807176 250.833248 
L 50.062262 251.001444 
L 50.317348 250.945379 
L 50.487745 250.979018 
L 50.742831 250.799609 
L 50.912718 250.754757 
L 51.167804 251.068722 
L 52.102948 250.900526 
L 52.358034 251.057509 
L 52.953404 250.844461 
L 53.123291 250.799609 
L 53.378376 250.934166 
L 53.548774 250.979018 
L 53.973746 250.799609 
L 54.228832 250.855674 
L 54.569116 250.990231 
L 54.739004 250.956592 
L 55.079288 250.687479 
L 55.249175 250.709905 
L 55.589459 250.900526 
L 56.439405 250.8781 
L 56.694491 250.922953 
L 57.204662 250.8781 
L 57.375059 250.777183 
L 57.800032 251.046296 
L 58.055118 250.8781 
L 58.395402 250.743544 
L 58.565289 250.777183 
L 58.990262 250.990231 
L 59.500434 250.76597 
L 59.755519 250.855674 
L 60.010605 250.844461 
L 60.181002 250.889313 
L 60.605975 250.608988 
L 60.861061 250.911739 
L 61.456431 250.922953 
L 61.711516 250.698692 
L 62.051291 251.012657 
L 62.476774 250.911739 
L 62.646661 250.889313 
L 62.816548 250.844461 
L 63.242031 251.091148 
L 63.922089 250.76597 
L 64.347062 250.979018 
L 65.027631 250.822035 
L 65.707689 250.732331 
L 66.047974 250.597775 
L 66.303059 250.866887 
L 67.153005 250.810822 
L 67.493289 251.035083 
L 67.918262 250.754757 
L 68.088659 250.721118 
L 68.343745 250.642627 
L 68.768718 250.799609 
L 69.023804 250.709905 
L 69.789061 250.945379 
L 70.299232 250.65384 
L 70.724205 250.8781 
L 71.064489 250.8781 
L 71.489462 250.721118 
L 71.744548 250.8781 
L 72.425116 250.608988 
L 72.595004 250.575349 
L 72.935288 250.866887 
L 73.615346 250.54171 
L 73.870432 250.732331 
L 74.040319 250.844461 
L 74.635689 250.586562 
L 74.975974 250.754757 
L 75.400946 250.721118 
L 75.656032 250.620201 
L 76.251402 250.76597 
L 76.591176 250.597775 
L 76.846262 250.429579 
L 77.101348 250.676266 
L 77.611519 250.631414 
L 77.781916 250.54171 
L 77.951804 250.474432 
L 78.292088 250.788396 
L 79.057345 250.485645 
L 79.397119 250.687479 
L 79.567516 250.698692 
L 79.907291 250.452005 
L 80.417462 250.552923 
L 80.842945 250.552923 
L 81.098031 250.440792 
L 81.353116 250.687479 
L 81.947976 250.709905 
L 82.288261 250.519284 
L 82.543346 250.788396 
L 83.053518 250.575349 
L 83.393802 250.429579 
L 83.733576 250.76597 
L 84.414145 250.575349 
L 84.924316 250.889313 
L 85.519176 250.799609 
L 85.689574 250.810822 
L 85.944659 250.822035 
L 86.199745 250.833248 
L 86.539519 250.564136 
L 86.794605 250.822035 
L 86.965002 250.743544 
L 87.134889 250.732331 
L 87.389975 250.777183 
L 87.645061 250.564136 
L 87.985345 250.922953 
L 88.325119 250.788396 
L 88.580205 250.721118 
L 88.750602 250.564136 
L 89.260774 250.788396 
L 89.685746 250.586562 
L 90.026031 250.687479 
L 90.451004 250.844461 
L 90.875976 250.586562 
L 91.641234 250.833248 
L 91.896319 250.608988 
L 92.406491 250.855674 
L 92.916662 250.642627 
L 93.087059 250.54171 
L 93.426834 250.911739 
L 93.767118 250.665053 
L 93.937005 250.732331 
L 94.192091 250.676266 
L 94.532375 250.8781 
L 94.702262 250.788396 
L 94.957348 250.586562 
L 95.297632 250.65384 
L 95.637916 250.822035 
L 95.807804 250.866887 
L 96.232776 250.485645 
L 96.487862 250.799609 
L 96.913345 250.799609 
L 97.083232 250.76597 
L 97.338318 250.597775 
L 98.188774 250.721118 
L 98.698945 250.743544 
L 98.868832 250.743544 
L 99.209116 250.620201 
L 99.464202 250.642627 
L 99.634089 250.676266 
L 100.229459 250.732331 
L 100.484545 250.642627 
L 101.334491 250.754757 
L 101.674775 250.496858 
L 101.929861 250.76597 
L 102.865005 250.597775 
L 103.120091 250.844461 
L 103.460375 250.709905 
L 103.715461 250.698692 
L 103.970546 250.564136 
L 104.310831 250.855674 
L 104.650605 250.709905 
L 105.076088 250.687479 
L 105.586259 250.76597 
L 105.926034 250.530497 
L 106.096431 250.65384 
L 106.776489 250.76597 
L 107.116774 250.620201 
L 107.371859 250.799609 
L 107.626945 250.676266 
L 107.882031 250.76597 
L 108.137116 250.519284 
L 108.307004 250.687479 
L 108.562089 250.822035 
L 109.327346 250.665053 
L 109.667631 250.945379 
L 109.922716 250.76597 
L 110.347689 250.698692 
L 110.517576 250.754757 
L 110.857861 250.855674 
L 111.027748 250.810822 
L 111.368032 250.597775 
L 111.963402 250.866887 
L 112.133289 250.833248 
L 112.473574 250.620201 
L 112.728659 250.911739 
L 113.408718 250.676266 
L 113.578605 250.496858 
L 114.088776 250.822035 
L 114.429061 250.799609 
L 114.939232 250.934166 
L 115.109119 251.035083 
L 115.704489 250.810822 
L 116.299859 250.967805 
L 116.724832 250.676266 
L 117.235004 250.911739 
L 117.575288 250.866887 
L 117.915062 250.575349 
L 118.255346 251.001444 
L 118.850716 250.732331 
L 119.020604 250.665053 
L 119.360888 250.956592 
L 119.785861 250.732331 
L 119.955748 250.676266 
L 120.126145 250.65384 
L 120.636316 250.698692 
L 121.146488 250.54171 
L 121.486262 250.608988 
L 121.911745 250.665053 
L 122.251519 250.508071 
L 122.506605 250.698692 
L 122.761691 250.631414 
L 123.016776 250.698692 
L 123.187174 250.552923 
L 123.271862 250.474432 
L 123.612146 250.822035 
L 123.782034 250.754757 
L 124.037119 250.65384 
L 124.292205 250.608988 
L 124.547291 250.552923 
L 124.887575 250.65384 
L 125.142661 250.54171 
L 125.738031 250.519284 
L 125.993116 250.743544 
L 126.248202 250.552923 
L 126.418089 250.463218 
L 126.758374 250.65384 
L 127.438432 250.485645 
L 127.608319 250.407153 
L 127.948604 250.665053 
L 128.543974 250.575349 
L 128.713861 250.418366 
L 129.138834 250.754757 
L 129.564316 250.54171 
L 129.819402 250.485645 
L 130.244375 250.698692 
L 130.924434 250.440792 
L 131.179519 250.519284 
L 131.349916 250.608988 
L 131.605002 250.474432 
L 131.944776 250.339875 
L 132.199862 250.530497 
L 132.540146 250.508071 
L 132.710034 250.508071 
L 132.880431 250.39594 
L 133.050318 250.328662 
L 133.305404 250.608988 
L 134.155859 250.317449 
L 134.495634 250.597775 
L 135.005805 250.508071 
L 135.346089 250.530497 
L 135.771062 250.743544 
L 136.111346 250.485645 
L 136.281234 250.440792 
L 136.791405 250.743544 
L 137.386775 250.474432 
L 137.641861 250.687479 
L 137.982145 250.709905 
L 138.152032 250.676266 
L 138.407118 250.452005 
L 138.832091 250.620201 
L 139.172375 250.552923 
L 139.682546 250.474432 
L 139.937632 250.631414 
L 140.277916 250.474432 
L 140.872776 250.620201 
L 141.127862 250.709905 
L 141.468146 250.440792 
L 142.233404 250.631414 
L 142.403291 250.620201 
L 142.658376 250.407153 
L 142.828774 250.530497 
L 142.998661 250.721118 
L 143.678719 250.530497 
L 143.849116 250.39594 
L 144.188891 250.597775 
L 144.869459 250.429579 
L 145.039346 250.452005 
L 145.379631 250.642627 
L 145.804604 250.452005 
L 146.144888 250.496858 
L 146.569861 250.687479 
L 146.994834 250.407153 
L 147.335118 250.530497 
L 147.505005 250.54171 
L 147.760091 250.552923 
L 148.185574 250.39594 
L 148.440659 250.631414 
L 148.780434 250.485645 
L 148.950831 250.496858 
L 149.290605 250.227745 
L 149.630889 250.597775 
L 150.396146 250.384727 
L 150.736431 250.709905 
L 150.991516 250.552923 
L 151.161404 250.452005 
L 151.926661 250.732331 
L 152.096548 250.709905 
L 152.436832 250.474432 
L 152.777116 250.575349 
L 153.542374 250.182893 
L 153.967346 250.429579 
L 154.647405 250.205319 
L 154.817802 250.384727 
L 155.072888 250.54171 
L 155.412662 250.485645 
L 155.583059 250.485645 
L 155.838145 250.351088 
L 156.177919 250.54171 
L 156.433005 250.407153 
L 156.688091 250.317449 
L 156.858488 250.306236 
L 157.198262 250.429579 
L 157.623745 250.384727 
L 157.878831 250.28381 
L 158.133916 250.373514 
L 159.154259 250.306236 
L 159.409345 250.39594 
L 159.664431 250.295023 
L 159.834318 250.28381 
L 160.089404 250.093189 
L 160.599575 250.429579 
L 160.854661 250.306236 
L 161.534719 250.407153 
L 161.705116 250.429579 
L 162.044891 250.238958 
L 162.980545 250.295023 
L 163.320319 250.05955 
L 163.575405 250.227745 
L 164.085576 250.194106 
L 164.425861 249.958632 
L 164.680946 250.182893 
L 165.616091 249.812863 
L 165.871176 250.070763 
L 166.806831 249.812863 
L 167.146605 249.924993 
L 167.572088 249.655881 
L 168.166948 249.779224 
L 168.337345 249.68952 
L 168.677119 249.420407 
L 169.102602 249.498898 
L 169.867859 249.263425 
L 170.122945 249.521324 
L 170.292832 249.420407 
L 170.547918 249.285851 
L 170.717805 249.240999 
L 170.888202 249.06159 
L 171.398374 249.151295 
L 171.738148 248.814904 
L 172.333518 248.713987 
L 172.503405 248.770052 
L 172.758491 248.57943 
L 173.013576 248.411235 
L 173.268662 248.456087 
L 173.608946 248.265466 
L 173.778834 248.164548 
L 174.119118 247.72724 
L 174.374204 247.783305 
L 175.054262 247.233867 
L 175.224659 246.998394 
L 175.649632 246.998394 
L 176.414889 246.235908 
L 176.755174 246.123778 
L 177.435232 245.327653 
L 177.605119 245.282801 
L 178.115291 244.72215 
L 178.455575 244.161498 
L 178.710661 244.060581 
L 179.220832 243.443865 
L 179.561116 242.715018 
L 179.731004 242.692592 
L 180.071288 242.143154 
L 180.836545 240.876082 
L 181.006432 240.696674 
L 182.622145 237.05244 
L 184.577632 232.118709 
L 187.893746 219.952577 
L 191.039974 204.523454 
L 192.910262 193.545902 
L 195.376431 176.591808 
L 198.522148 152.551082 
L 200.223059 138.467522 
L 200.988316 132.053672 
L 201.838262 125.07917 
L 207.790432 78.163873 
L 211.361632 55.334153 
L 212.551862 49.189416 
L 213.912489 42.943761 
L 214.592548 40.476895 
L 214.932832 39.288314 
L 215.357805 37.86426 
L 215.953175 36.002898 
L 216.548545 34.48914 
L 216.803631 33.816358 
L 217.483689 32.268961 
L 219.014204 30.430024 
L 219.269289 30.003929 
L 219.524375 29.712391 
L 219.864659 29.734817 
L 220.714605 29.48813 
L 220.969691 29.723604 
L 221.395174 29.97029 
L 221.734948 29.914225 
L 222.160431 30.676711 
L 222.500205 30.889758 
L 223.095575 31.67467 
L 223.435859 32.212895 
L 223.690945 32.627777 
L 225.051062 35.722572 
L 225.731631 37.595147 
L 226.071405 38.469763 
L 226.496888 40.039587 
L 227.176946 42.147636 
L 228.027402 45.489117 
L 228.537574 47.529888 
L 229.047745 49.593084 
L 230.407862 55.569627 
L 231.088431 59.023239 
L 231.683291 62.005903 
L 235.764662 83.938581 
L 236.529919 88.670477 
L 236.955402 90.901869 
L 237.465574 93.963025 
L 245.118145 137.974149 
L 245.713005 141.214714 
L 247.413916 150.286051 
L 247.924088 152.977177 
L 249.624489 161.611207 
L 253.875748 182.310451 
L 257.787232 199.858836 
L 258.637688 203.133039 
L 259.232548 205.599905 
L 262.719059 217.609055 
L 262.974145 218.528523 
L 263.313919 219.537695 
L 264.759745 223.608023 
L 268.075859 230.885276 
L 268.245746 231.165602 
L 268.670719 232.230839 
L 268.925805 232.544804 
L 269.861459 234.282823 
L 270.286432 234.697705 
L 271.051689 235.931138 
L 271.391974 236.222676 
L 272.412316 237.5346 
L 272.582204 237.770074 
L 272.922488 238.341938 
L 273.177574 238.510134 
L 273.432659 238.801672 
L 273.602546 238.824098 
L 274.453002 239.911762 
L 274.963174 240.315431 
L 275.302948 240.7191 
L 275.813119 241.021851 
L 276.493688 241.627355 
L 276.833462 241.750698 
L 277.173746 242.210432 
L 277.769116 242.479545 
L 277.939004 242.479545 
L 278.279288 243.051409 
L 278.619062 243.141113 
L 278.874148 243.286882 
L 279.044545 243.298095 
L 279.724604 243.802681 
L 280.149576 243.926025 
L 280.744946 244.284842 
L 280.914834 244.217563 
L 281.169919 244.374546 
L 281.340316 244.57638 
L 281.595402 244.610019 
L 281.850488 244.789428 
L 282.190262 244.72215 
L 282.700434 245.237949 
L 283.465691 245.294014 
L 283.720776 245.551913 
L 284.486034 245.697683 
L 284.996205 246.078926 
L 285.336489 245.944369 
L 285.591575 245.955582 
L 286.016548 246.258334 
L 286.526719 246.067713 
L 286.867004 246.471382 
L 287.377175 246.471382 
L 287.632261 246.359251 
L 288.057234 246.695642 
L 288.397518 246.751707 
L 288.567405 246.729281 
L 288.737802 246.583512 
L 289.077576 246.964755 
L 289.417861 246.774133 
L 289.842834 246.796559 
L 290.268316 247.121737 
L 291.118262 247.009607 
L 291.543745 247.110524 
L 291.883519 246.931116 
L 291.968718 246.931116 
L 292.223804 247.233867 
L 292.819174 247.200228 
L 293.074259 247.02082 
L 293.414034 247.312358 
L 294.349688 247.121737 
L 294.519575 247.24508 
L 295.029746 247.13295 
L 295.880202 247.278719 
L 296.219976 247.177802 
L 296.815346 247.345997 
L 296.985234 247.39085 
L 297.325518 247.200228 
L 297.665802 247.413276 
L 298.345861 247.312358 
L 298.515748 247.256293 
L 298.770834 247.559045 
L 299.025919 247.50298 
L 299.706488 247.514193 
L 299.961574 247.749666 
L 300.811519 247.61511 
L 301.151804 247.738453 
L 301.406889 247.626323 
L 301.576776 247.570258 
L 302.086948 247.805732 
L 302.852205 247.693601 
L 303.107291 247.884223 
L 303.787859 247.704814 
L 303.957746 247.693601 
L 304.212832 247.996353 
L 304.808202 247.839371 
L 305.063288 247.783305 
L 305.573459 247.951501 
L 305.828545 247.884223 
L 306.678491 248.063631 
L 306.933576 247.917862 
L 307.188662 248.074844 
L 307.443748 248.153335 
L 307.953919 248.186974 
L 308.124316 247.98514 
L 308.294204 248.130909 
L 308.464091 248.231826 
L 309.144659 248.130909 
L 309.314546 248.074844 
L 309.739519 248.400022 
L 310.334889 248.164548 
L 310.589975 248.231826 
L 310.845061 248.400022 
L 311.355232 248.108483 
L 311.610318 248.153335 
L 312.035291 248.254253 
L 312.290376 248.086057 
L 312.545462 248.018779 
L 312.800548 248.142122 
L 313.140832 248.2094 
L 313.310719 248.231826 
L 313.651004 248.007566 
L 313.906089 248.198187 
L 314.161175 248.164548 
L 314.416261 248.09727 
L 314.756545 247.98514 
L 315.011631 248.243039 
L 315.606491 248.186974 
L 315.776888 248.086057 
L 316.456946 248.321531 
L 316.797231 248.243039 
L 317.137005 248.500939 
L 317.562488 248.500939 
L 317.902262 248.332744 
L 318.327745 248.523365 
L 318.582831 248.557004 
L 318.837916 248.456087 
L 319.007804 248.411235 
L 319.348088 248.702774 
L 319.687862 248.646708 
L 319.942948 248.680347 
L 320.113345 248.57943 
L 320.538318 248.83733 
L 320.963291 248.702774 
L 321.558661 248.747626 
L 321.728548 248.826117 
L 322.068832 248.489726 
L 322.834089 248.994312 
L 323.003976 248.870969 
L 323.344261 248.657921 
L 323.599346 248.781265 
L 324.194716 248.523365 
L 324.449802 248.366383 
L 324.789576 248.669134 
L 325.129861 248.500939 
L 325.299748 248.557004 
L 325.554834 248.35517 
L 325.980316 248.601856 
L 326.660375 248.231826 
L 327.170546 248.388809 
L 327.595519 248.052418 
L 327.935804 248.164548 
L 328.786259 247.805732 
L 329.041345 248.029992 
L 329.721404 247.458128 
L 329.891291 247.345997 
L 330.231575 247.547832 
L 330.571859 247.345997 
L 330.741746 247.301145 
L 330.996832 247.189015 
L 331.421805 247.458128 
L 331.847288 247.24508 
L 332.017175 247.177802 
L 332.357459 247.39085 
L 332.612545 247.35721 
L 333.037518 247.099311 
L 333.462491 247.323571 
L 333.632888 247.368424 
L 333.802775 247.368424 
L 334.143059 247.144163 
L 334.482834 247.469341 
L 335.163402 247.121737 
L 335.333289 247.144163 
L 335.673574 247.345997 
L 336.183745 247.155376 
L 336.438831 246.975968 
L 336.863804 247.043246 
L 338.139232 246.078926 
L 338.479516 245.630405 
L 338.649404 245.652831 
L 338.819291 245.495848 
L 339.584548 244.239989 
L 339.839634 244.239989 
L 340.690089 242.838361 
L 341.200261 242.333775 
L 341.710432 241.391881 
L 342.475689 240.539691 
L 342.815974 240.2033 
L 343.071059 240.136022 
L 343.410834 239.945401 
L 343.665919 239.564158 
L 343.836316 239.35111 
L 344.176091 239.597797 
L 344.431176 239.395963 
L 344.601574 239.38475 
L 345.026546 239.025933 
L 345.281632 239.182915 
L 346.046889 238.75682 
L 346.216776 238.846524 
L 346.471862 239.070785 
L 347.237119 238.768033 
L 347.407516 238.835311 
L 347.747291 238.958655 
L 348.172774 238.891376 
L 348.938031 239.250193 
L 349.277805 239.01472 
L 349.532891 239.429602 
L 350.383346 239.665075 
L 350.808319 240.34907 
L 351.318491 240.506052 
L 351.488888 240.584543 
L 353.189289 242.087089 
L 353.529574 242.064663 
L 354.209632 242.737444 
L 354.464718 242.75987 
L 354.634605 242.726231 
L 354.889691 243.040196 
L 355.144776 243.174752 
L 355.825345 243.399013 
L 356.165119 243.86996 
L 356.930376 244.116646 
L 357.440548 244.621232 
L 357.695634 244.497889 
L 357.950719 244.598806 
L 358.291004 244.912771 
L 358.631288 245.125818 
L 358.971062 245.036114 
L 359.311346 245.495848 
L 359.481234 245.529487 
L 359.821518 245.708896 
L 360.076604 245.596766 
L 360.416888 246.157417 
L 360.756662 246.202269 
L 361.011748 246.247121 
L 361.182145 246.224695 
L 361.692316 246.639577 
L 362.457574 246.841411 
L 362.797348 247.110524 
L 363.222831 247.054459 
L 363.477916 247.278719 
L 363.902889 247.581471 
L 364.582948 247.749666 
L 365.008431 247.951501 
L 365.263516 247.906649 
L 365.518602 247.783305 
L 365.858376 248.164548 
L 366.368548 248.108483 
L 366.623634 247.996353 
L 367.049116 248.433661 
L 367.388891 248.2094 
L 367.643976 248.231826 
L 367.899062 248.35517 
L 368.154148 248.545791 
L 368.409234 248.444874 
L 368.664319 248.321531 
L 369.429576 248.657921 
L 369.599974 248.534578 
L 369.855059 248.433661 
L 370.110145 248.669134 
L 371.045289 248.758839 
L 371.385574 248.983099 
L 371.895745 248.848543 
L 372.065632 248.83733 
L 372.575804 249.297064 
L 372.916088 249.252212 
L 373.510948 249.577389 
L 373.681345 249.622242 
L 373.936431 249.54375 
L 374.106318 249.622242 
L 374.531291 250.115615 
L 374.701688 250.306236 
L 374.956774 250.496858 
L 375.211859 250.54171 
L 375.381746 250.911739 
L 375.977116 251.853634 
L 376.402089 252.459137 
L 376.827062 253.591653 
L 377.082148 254.0626 
L 377.507631 255.25118 
L 378.783059 261.21651 
L 379.633005 267.507017 
L 380.568659 278.237882 
L 381.163519 287.825019 
L 381.758889 299.677186 
L 382.187075 310.333094 
L 382.187075 310.333094 
" clip-path="url(#p57505f53ba)" style="fill: none; stroke: #ff7f0e; stroke-linecap: round"/>
   </g>
   <g id="patch_3">
    <path d="M 40.964375 273.312 
L 40.964375 7.2 
" style="fill: none; stroke: #262626; stroke-width: 1.25; stroke-linejoin: miter; stroke-linecap: square"/>
   </g>
   <g id="patch_4">
    <path d="M 40.964375 273.312 
L 398.084375 273.312 
" style="fill: none; stroke: #262626; stroke-width: 1.25; stroke-linejoin: miter; stroke-linecap: square"/>
   </g>
   <g id="legend_1"/>
  </g>
 </g>
 <defs>
  <clipPath id="p57505f53ba">
   <rect x="40.964375" y="7.2" width="357.12" height="266.112"/>
  </clipPath>
 </defs>
</svg>
