<?xml version="1.0" encoding="utf-8" standalone="no"?>
<!DOCTYPE svg PUBLIC "-//W3C//DTD SVG 1.1//EN"
  "http://www.w3.org/Graphics/SVG/1.1/DTD/svg11.dtd">
<svg xmlns:xlink="http://www.w3.org/1999/xlink" width="504pt" height="360pt" viewBox="0 0 504 360" xmlns="http://www.w3.org/2000/svg" version="1.1">
 <metadata>
  <rdf:RDF xmlns:dc="http://purl.org/dc/elements/1.1/" xmlns:cc="http://creativecommons.org/ns#" xmlns:rdf="http://www.w3.org/1999/02/22-rdf-syntax-ns#">
   <cc:Work>
    <dc:type rdf:resource="http://purl.org/dc/dcmitype/StillImage"/>
    <dc:date>2025-02-24T23:34:37.125617</dc:date>
    <dc:format>image/svg+xml</dc:format>
    <dc:creator>
     <cc:Agent>
      <dc:title>Matplotlib v3.7.1, https://matplotlib.org/</dc:title>
     </cc:Agent>
    </dc:creator>
   </cc:Work>
  </rdf:RDF>
 </metadata>
 <defs>
  <style type="text/css">*{stroke-linejoin: round; stroke-linecap: butt}</style>
 </defs>
 <g id="figure_1">
  <g id="patch_1">
   <path d="M 0 360 
L 504 360 
L 504 0 
L 0 0 
z
" style="fill: #ffffff"/>
  </g>
  <g id="axes_1">
   <g id="patch_2">
    <path d="M 52.93 312.92 
L 466.035 312.92 
L 466.035 33.96 
L 52.93 33.96 
z
" style="fill: #ffffff"/>
   </g>
   <g id="matplotlib.axis_1">
    <g id="xtick_1">
     <g id="line2d_1">
      <defs>
       <path id="mea39d707cd" d="M 0 0 
L 0 -3.5 
" style="stroke: #000000; stroke-width: 0.8"/>
      </defs>
      <g>
       <use xlink:href="#mea39d707cd" x="52.93" y="312.92" style="stroke: #000000; stroke-width: 0.8"/>
      </g>
     </g>
     <g id="text_1">
      <!-- 5.0 -->
      <g transform="translate(43.388125 325.538125) scale(0.12 -0.12)">
       <defs>
        <path id="DejaVuSans-35" d="M 691 4666 
L 3169 4666 
L 3169 4134 
L 1269 4134 
L 1269 2991 
Q 1406 3038 1543 3061 
Q 1681 3084 1819 3084 
Q 2600 3084 3056 2656 
Q 3513 2228 3513 1497 
Q 3513 744 3044 326 
Q 2575 -91 1722 -91 
Q 1428 -91 1123 -41 
Q 819 9 494 109 
L 494 744 
Q 775 591 1075 516 
Q 1375 441 1709 441 
Q 2250 441 2565 725 
Q 2881 1009 2881 1497 
Q 2881 1984 2565 2268 
Q 2250 2553 1709 2553 
Q 1456 2553 1204 2497 
Q 953 2441 691 2322 
L 691 4666 
z
" transform="scale(0.015625)"/>
        <path id="DejaVuSans-2e" d="M 684 794 
L 1344 794 
L 1344 0 
L 684 0 
L 684 794 
z
" transform="scale(0.015625)"/>
        <path id="DejaVuSans-30" d="M 2034 4250 
Q 1547 4250 1301 3770 
Q 1056 3291 1056 2328 
Q 1056 1369 1301 889 
Q 1547 409 2034 409 
Q 2525 409 2770 889 
Q 3016 1369 3016 2328 
Q 3016 3291 2770 3770 
Q 2525 4250 2034 4250 
z
M 2034 4750 
Q 2819 4750 3233 4129 
Q 3647 3509 3647 2328 
Q 3647 1150 3233 529 
Q 2819 -91 2034 -91 
Q 1250 -91 836 529 
Q 422 1150 422 2328 
Q 422 3509 836 4129 
Q 1250 4750 2034 4750 
z
" transform="scale(0.015625)"/>
       </defs>
       <use xlink:href="#DejaVuSans-35"/>
       <use xlink:href="#DejaVuSans-2e" x="63.623047"/>
       <use xlink:href="#DejaVuSans-30" x="95.410156"/>
      </g>
     </g>
    </g>
    <g id="xtick_2">
     <g id="line2d_2">
      <g>
       <use xlink:href="#mea39d707cd" x="132.373269" y="312.92" style="stroke: #000000; stroke-width: 0.8"/>
      </g>
     </g>
     <g id="text_2">
      <!-- 5.5 -->
      <g transform="translate(122.831394 325.538125) scale(0.12 -0.12)">
       <use xlink:href="#DejaVuSans-35"/>
       <use xlink:href="#DejaVuSans-2e" x="63.623047"/>
       <use xlink:href="#DejaVuSans-35" x="95.410156"/>
      </g>
     </g>
    </g>
    <g id="xtick_3">
     <g id="line2d_3">
      <g>
       <use xlink:href="#mea39d707cd" x="211.816538" y="312.92" style="stroke: #000000; stroke-width: 0.8"/>
      </g>
     </g>
     <g id="text_3">
      <!-- 6.0 -->
      <g transform="translate(202.274663 325.538125) scale(0.12 -0.12)">
       <defs>
        <path id="DejaVuSans-36" d="M 2113 2584 
Q 1688 2584 1439 2293 
Q 1191 2003 1191 1497 
Q 1191 994 1439 701 
Q 1688 409 2113 409 
Q 2538 409 2786 701 
Q 3034 994 3034 1497 
Q 3034 2003 2786 2293 
Q 2538 2584 2113 2584 
z
M 3366 4563 
L 3366 3988 
Q 3128 4100 2886 4159 
Q 2644 4219 2406 4219 
Q 1781 4219 1451 3797 
Q 1122 3375 1075 2522 
Q 1259 2794 1537 2939 
Q 1816 3084 2150 3084 
Q 2853 3084 3261 2657 
Q 3669 2231 3669 1497 
Q 3669 778 3244 343 
Q 2819 -91 2113 -91 
Q 1303 -91 875 529 
Q 447 1150 447 2328 
Q 447 3434 972 4092 
Q 1497 4750 2381 4750 
Q 2619 4750 2861 4703 
Q 3103 4656 3366 4563 
z
" transform="scale(0.015625)"/>
       </defs>
       <use xlink:href="#DejaVuSans-36"/>
       <use xlink:href="#DejaVuSans-2e" x="63.623047"/>
       <use xlink:href="#DejaVuSans-30" x="95.410156"/>
      </g>
     </g>
    </g>
    <g id="xtick_4">
     <g id="line2d_4">
      <g>
       <use xlink:href="#mea39d707cd" x="291.259808" y="312.92" style="stroke: #000000; stroke-width: 0.8"/>
      </g>
     </g>
     <g id="text_4">
      <!-- 6.5 -->
      <g transform="translate(281.717933 325.538125) scale(0.12 -0.12)">
       <use xlink:href="#DejaVuSans-36"/>
       <use xlink:href="#DejaVuSans-2e" x="63.623047"/>
       <use xlink:href="#DejaVuSans-35" x="95.410156"/>
      </g>
     </g>
    </g>
    <g id="xtick_5">
     <g id="line2d_5">
      <g>
       <use xlink:href="#mea39d707cd" x="370.703077" y="312.92" style="stroke: #000000; stroke-width: 0.8"/>
      </g>
     </g>
     <g id="text_5">
      <!-- 7.0 -->
      <g transform="translate(361.161202 325.538125) scale(0.12 -0.12)">
       <defs>
        <path id="DejaVuSans-37" d="M 525 4666 
L 3525 4666 
L 3525 4397 
L 1831 0 
L 1172 0 
L 2766 4134 
L 525 4134 
L 525 4666 
z
" transform="scale(0.015625)"/>
       </defs>
       <use xlink:href="#DejaVuSans-37"/>
       <use xlink:href="#DejaVuSans-2e" x="63.623047"/>
       <use xlink:href="#DejaVuSans-30" x="95.410156"/>
      </g>
     </g>
    </g>
    <g id="xtick_6">
     <g id="line2d_6">
      <g>
       <use xlink:href="#mea39d707cd" x="450.146346" y="312.92" style="stroke: #000000; stroke-width: 0.8"/>
      </g>
     </g>
     <g id="text_6">
      <!-- 7.5 -->
      <g transform="translate(440.604471 325.538125) scale(0.12 -0.12)">
       <use xlink:href="#DejaVuSans-37"/>
       <use xlink:href="#DejaVuSans-2e" x="63.623047"/>
       <use xlink:href="#DejaVuSans-35" x="95.410156"/>
      </g>
     </g>
    </g>
    <g id="text_7">
     <!-- Retention Time (min) -->
     <g transform="translate(196.0625 341.151875) scale(0.12 -0.12)">
      <defs>
       <path id="DejaVuSans-52" d="M 2841 2188 
Q 3044 2119 3236 1894 
Q 3428 1669 3622 1275 
L 4263 0 
L 3584 0 
L 2988 1197 
Q 2756 1666 2539 1819 
Q 2322 1972 1947 1972 
L 1259 1972 
L 1259 0 
L 628 0 
L 628 4666 
L 2053 4666 
Q 2853 4666 3247 4331 
Q 3641 3997 3641 3322 
Q 3641 2881 3436 2590 
Q 3231 2300 2841 2188 
z
M 1259 4147 
L 1259 2491 
L 2053 2491 
Q 2509 2491 2742 2702 
Q 2975 2913 2975 3322 
Q 2975 3731 2742 3939 
Q 2509 4147 2053 4147 
L 1259 4147 
z
" transform="scale(0.015625)"/>
       <path id="DejaVuSans-65" d="M 3597 1894 
L 3597 1613 
L 953 1613 
Q 991 1019 1311 708 
Q 1631 397 2203 397 
Q 2534 397 2845 478 
Q 3156 559 3463 722 
L 3463 178 
Q 3153 47 2828 -22 
Q 2503 -91 2169 -91 
Q 1331 -91 842 396 
Q 353 884 353 1716 
Q 353 2575 817 3079 
Q 1281 3584 2069 3584 
Q 2775 3584 3186 3129 
Q 3597 2675 3597 1894 
z
M 3022 2063 
Q 3016 2534 2758 2815 
Q 2500 3097 2075 3097 
Q 1594 3097 1305 2825 
Q 1016 2553 972 2059 
L 3022 2063 
z
" transform="scale(0.015625)"/>
       <path id="DejaVuSans-74" d="M 1172 4494 
L 1172 3500 
L 2356 3500 
L 2356 3053 
L 1172 3053 
L 1172 1153 
Q 1172 725 1289 603 
Q 1406 481 1766 481 
L 2356 481 
L 2356 0 
L 1766 0 
Q 1100 0 847 248 
Q 594 497 594 1153 
L 594 3053 
L 172 3053 
L 172 3500 
L 594 3500 
L 594 4494 
L 1172 4494 
z
" transform="scale(0.015625)"/>
       <path id="DejaVuSans-6e" d="M 3513 2113 
L 3513 0 
L 2938 0 
L 2938 2094 
Q 2938 2591 2744 2837 
Q 2550 3084 2163 3084 
Q 1697 3084 1428 2787 
Q 1159 2491 1159 1978 
L 1159 0 
L 581 0 
L 581 3500 
L 1159 3500 
L 1159 2956 
Q 1366 3272 1645 3428 
Q 1925 3584 2291 3584 
Q 2894 3584 3203 3211 
Q 3513 2838 3513 2113 
z
" transform="scale(0.015625)"/>
       <path id="DejaVuSans-69" d="M 603 3500 
L 1178 3500 
L 1178 0 
L 603 0 
L 603 3500 
z
M 603 4863 
L 1178 4863 
L 1178 4134 
L 603 4134 
L 603 4863 
z
" transform="scale(0.015625)"/>
       <path id="DejaVuSans-6f" d="M 1959 3097 
Q 1497 3097 1228 2736 
Q 959 2375 959 1747 
Q 959 1119 1226 758 
Q 1494 397 1959 397 
Q 2419 397 2687 759 
Q 2956 1122 2956 1747 
Q 2956 2369 2687 2733 
Q 2419 3097 1959 3097 
z
M 1959 3584 
Q 2709 3584 3137 3096 
Q 3566 2609 3566 1747 
Q 3566 888 3137 398 
Q 2709 -91 1959 -91 
Q 1206 -91 779 398 
Q 353 888 353 1747 
Q 353 2609 779 3096 
Q 1206 3584 1959 3584 
z
" transform="scale(0.015625)"/>
       <path id="DejaVuSans-20" transform="scale(0.015625)"/>
       <path id="DejaVuSans-54" d="M -19 4666 
L 3928 4666 
L 3928 4134 
L 2272 4134 
L 2272 0 
L 1638 0 
L 1638 4134 
L -19 4134 
L -19 4666 
z
" transform="scale(0.015625)"/>
       <path id="DejaVuSans-6d" d="M 3328 2828 
Q 3544 3216 3844 3400 
Q 4144 3584 4550 3584 
Q 5097 3584 5394 3201 
Q 5691 2819 5691 2113 
L 5691 0 
L 5113 0 
L 5113 2094 
Q 5113 2597 4934 2840 
Q 4756 3084 4391 3084 
Q 3944 3084 3684 2787 
Q 3425 2491 3425 1978 
L 3425 0 
L 2847 0 
L 2847 2094 
Q 2847 2600 2669 2842 
Q 2491 3084 2119 3084 
Q 1678 3084 1418 2786 
Q 1159 2488 1159 1978 
L 1159 0 
L 581 0 
L 581 3500 
L 1159 3500 
L 1159 2956 
Q 1356 3278 1631 3431 
Q 1906 3584 2284 3584 
Q 2666 3584 2933 3390 
Q 3200 3197 3328 2828 
z
" transform="scale(0.015625)"/>
       <path id="DejaVuSans-28" d="M 1984 4856 
Q 1566 4138 1362 3434 
Q 1159 2731 1159 2009 
Q 1159 1288 1364 580 
Q 1569 -128 1984 -844 
L 1484 -844 
Q 1016 -109 783 600 
Q 550 1309 550 2009 
Q 550 2706 781 3412 
Q 1013 4119 1484 4856 
L 1984 4856 
z
" transform="scale(0.015625)"/>
       <path id="DejaVuSans-29" d="M 513 4856 
L 1013 4856 
Q 1481 4119 1714 3412 
Q 1947 2706 1947 2009 
Q 1947 1309 1714 600 
Q 1481 -109 1013 -844 
L 513 -844 
Q 928 -128 1133 580 
Q 1338 1288 1338 2009 
Q 1338 2731 1133 3434 
Q 928 4138 513 4856 
z
" transform="scale(0.015625)"/>
      </defs>
      <use xlink:href="#DejaVuSans-52"/>
      <use xlink:href="#DejaVuSans-65" x="64.982422"/>
      <use xlink:href="#DejaVuSans-74" x="126.505859"/>
      <use xlink:href="#DejaVuSans-65" x="165.714844"/>
      <use xlink:href="#DejaVuSans-6e" x="227.238281"/>
      <use xlink:href="#DejaVuSans-74" x="290.617188"/>
      <use xlink:href="#DejaVuSans-69" x="329.826172"/>
      <use xlink:href="#DejaVuSans-6f" x="357.609375"/>
      <use xlink:href="#DejaVuSans-6e" x="418.791016"/>
      <use xlink:href="#DejaVuSans-20" x="482.169922"/>
      <use xlink:href="#DejaVuSans-54" x="513.957031"/>
      <use xlink:href="#DejaVuSans-69" x="571.916016"/>
      <use xlink:href="#DejaVuSans-6d" x="599.699219"/>
      <use xlink:href="#DejaVuSans-65" x="697.111328"/>
      <use xlink:href="#DejaVuSans-20" x="758.634766"/>
      <use xlink:href="#DejaVuSans-28" x="790.421875"/>
      <use xlink:href="#DejaVuSans-6d" x="829.435547"/>
      <use xlink:href="#DejaVuSans-69" x="926.847656"/>
      <use xlink:href="#DejaVuSans-6e" x="954.630859"/>
      <use xlink:href="#DejaVuSans-29" x="1018.009766"/>
     </g>
    </g>
   </g>
   <g id="matplotlib.axis_2">
    <g id="ytick_1">
     <g id="line2d_7">
      <defs>
       <path id="mcae60dd48f" d="M 0 0 
L 3.5 0 
" style="stroke: #000000; stroke-width: 0.8"/>
      </defs>
      <g>
       <use xlink:href="#mcae60dd48f" x="52.93" y="289.673333" style="stroke: #000000; stroke-width: 0.8"/>
      </g>
     </g>
     <g id="text_8">
      <!-- 0.0 -->
      <g transform="translate(30.34625 294.232396) scale(0.12 -0.12)">
       <use xlink:href="#DejaVuSans-30"/>
       <use xlink:href="#DejaVuSans-2e" x="63.623047"/>
       <use xlink:href="#DejaVuSans-30" x="95.410156"/>
      </g>
     </g>
    </g>
    <g id="ytick_2">
     <g id="line2d_8">
      <g>
       <use xlink:href="#mcae60dd48f" x="52.93" y="243.18" style="stroke: #000000; stroke-width: 0.8"/>
      </g>
     </g>
     <g id="text_9">
      <!-- 0.2 -->
      <g transform="translate(30.34625 247.739062) scale(0.12 -0.12)">
       <defs>
        <path id="DejaVuSans-32" d="M 1228 531 
L 3431 531 
L 3431 0 
L 469 0 
L 469 531 
Q 828 903 1448 1529 
Q 2069 2156 2228 2338 
Q 2531 2678 2651 2914 
Q 2772 3150 2772 3378 
Q 2772 3750 2511 3984 
Q 2250 4219 1831 4219 
Q 1534 4219 1204 4116 
Q 875 4013 500 3803 
L 500 4441 
Q 881 4594 1212 4672 
Q 1544 4750 1819 4750 
Q 2544 4750 2975 4387 
Q 3406 4025 3406 3419 
Q 3406 3131 3298 2873 
Q 3191 2616 2906 2266 
Q 2828 2175 2409 1742 
Q 1991 1309 1228 531 
z
" transform="scale(0.015625)"/>
       </defs>
       <use xlink:href="#DejaVuSans-30"/>
       <use xlink:href="#DejaVuSans-2e" x="63.623047"/>
       <use xlink:href="#DejaVuSans-32" x="95.410156"/>
      </g>
     </g>
    </g>
    <g id="ytick_3">
     <g id="line2d_9">
      <g>
       <use xlink:href="#mcae60dd48f" x="52.93" y="196.686667" style="stroke: #000000; stroke-width: 0.8"/>
      </g>
     </g>
     <g id="text_10">
      <!-- 0.4 -->
      <g transform="translate(30.34625 201.245729) scale(0.12 -0.12)">
       <defs>
        <path id="DejaVuSans-34" d="M 2419 4116 
L 825 1625 
L 2419 1625 
L 2419 4116 
z
M 2253 4666 
L 3047 4666 
L 3047 1625 
L 3713 1625 
L 3713 1100 
L 3047 1100 
L 3047 0 
L 2419 0 
L 2419 1100 
L 313 1100 
L 313 1709 
L 2253 4666 
z
" transform="scale(0.015625)"/>
       </defs>
       <use xlink:href="#DejaVuSans-30"/>
       <use xlink:href="#DejaVuSans-2e" x="63.623047"/>
       <use xlink:href="#DejaVuSans-34" x="95.410156"/>
      </g>
     </g>
    </g>
    <g id="ytick_4">
     <g id="line2d_10">
      <g>
       <use xlink:href="#mcae60dd48f" x="52.93" y="150.193333" style="stroke: #000000; stroke-width: 0.8"/>
      </g>
     </g>
     <g id="text_11">
      <!-- 0.6 -->
      <g transform="translate(30.34625 154.752396) scale(0.12 -0.12)">
       <use xlink:href="#DejaVuSans-30"/>
       <use xlink:href="#DejaVuSans-2e" x="63.623047"/>
       <use xlink:href="#DejaVuSans-36" x="95.410156"/>
      </g>
     </g>
    </g>
    <g id="ytick_5">
     <g id="line2d_11">
      <g>
       <use xlink:href="#mcae60dd48f" x="52.93" y="103.7" style="stroke: #000000; stroke-width: 0.8"/>
      </g>
     </g>
     <g id="text_12">
      <!-- 0.8 -->
      <g transform="translate(30.34625 108.259063) scale(0.12 -0.12)">
       <defs>
        <path id="DejaVuSans-38" d="M 2034 2216 
Q 1584 2216 1326 1975 
Q 1069 1734 1069 1313 
Q 1069 891 1326 650 
Q 1584 409 2034 409 
Q 2484 409 2743 651 
Q 3003 894 3003 1313 
Q 3003 1734 2745 1975 
Q 2488 2216 2034 2216 
z
M 1403 2484 
Q 997 2584 770 2862 
Q 544 3141 544 3541 
Q 544 4100 942 4425 
Q 1341 4750 2034 4750 
Q 2731 4750 3128 4425 
Q 3525 4100 3525 3541 
Q 3525 3141 3298 2862 
Q 3072 2584 2669 2484 
Q 3125 2378 3379 2068 
Q 3634 1759 3634 1313 
Q 3634 634 3220 271 
Q 2806 -91 2034 -91 
Q 1263 -91 848 271 
Q 434 634 434 1313 
Q 434 1759 690 2068 
Q 947 2378 1403 2484 
z
M 1172 3481 
Q 1172 3119 1398 2916 
Q 1625 2713 2034 2713 
Q 2441 2713 2670 2916 
Q 2900 3119 2900 3481 
Q 2900 3844 2670 4047 
Q 2441 4250 2034 4250 
Q 1625 4250 1398 4047 
Q 1172 3844 1172 3481 
z
" transform="scale(0.015625)"/>
       </defs>
       <use xlink:href="#DejaVuSans-30"/>
       <use xlink:href="#DejaVuSans-2e" x="63.623047"/>
       <use xlink:href="#DejaVuSans-38" x="95.410156"/>
      </g>
     </g>
    </g>
    <g id="ytick_6">
     <g id="line2d_12">
      <g>
       <use xlink:href="#mcae60dd48f" x="52.93" y="57.206667" style="stroke: #000000; stroke-width: 0.8"/>
      </g>
     </g>
     <g id="text_13">
      <!-- 1.0 -->
      <g transform="translate(30.34625 61.765729) scale(0.12 -0.12)">
       <defs>
        <path id="DejaVuSans-31" d="M 794 531 
L 1825 531 
L 1825 4091 
L 703 3866 
L 703 4441 
L 1819 4666 
L 2450 4666 
L 2450 531 
L 3481 531 
L 3481 0 
L 794 0 
L 794 531 
z
" transform="scale(0.015625)"/>
       </defs>
       <use xlink:href="#DejaVuSans-31"/>
       <use xlink:href="#DejaVuSans-2e" x="63.623047"/>
       <use xlink:href="#DejaVuSans-30" x="95.410156"/>
      </g>
     </g>
    </g>
    <g id="text_14">
     <!-- Normalized Intensity -->
     <g transform="translate(23.850625 235.488438) rotate(-90) scale(0.12 -0.12)">
      <defs>
       <path id="DejaVuSans-4e" d="M 628 4666 
L 1478 4666 
L 3547 763 
L 3547 4666 
L 4159 4666 
L 4159 0 
L 3309 0 
L 1241 3903 
L 1241 0 
L 628 0 
L 628 4666 
z
" transform="scale(0.015625)"/>
       <path id="DejaVuSans-72" d="M 2631 2963 
Q 2534 3019 2420 3045 
Q 2306 3072 2169 3072 
Q 1681 3072 1420 2755 
Q 1159 2438 1159 1844 
L 1159 0 
L 581 0 
L 581 3500 
L 1159 3500 
L 1159 2956 
Q 1341 3275 1631 3429 
Q 1922 3584 2338 3584 
Q 2397 3584 2469 3576 
Q 2541 3569 2628 3553 
L 2631 2963 
z
" transform="scale(0.015625)"/>
       <path id="DejaVuSans-61" d="M 2194 1759 
Q 1497 1759 1228 1600 
Q 959 1441 959 1056 
Q 959 750 1161 570 
Q 1363 391 1709 391 
Q 2188 391 2477 730 
Q 2766 1069 2766 1631 
L 2766 1759 
L 2194 1759 
z
M 3341 1997 
L 3341 0 
L 2766 0 
L 2766 531 
Q 2569 213 2275 61 
Q 1981 -91 1556 -91 
Q 1019 -91 701 211 
Q 384 513 384 1019 
Q 384 1609 779 1909 
Q 1175 2209 1959 2209 
L 2766 2209 
L 2766 2266 
Q 2766 2663 2505 2880 
Q 2244 3097 1772 3097 
Q 1472 3097 1187 3025 
Q 903 2953 641 2809 
L 641 3341 
Q 956 3463 1253 3523 
Q 1550 3584 1831 3584 
Q 2591 3584 2966 3190 
Q 3341 2797 3341 1997 
z
" transform="scale(0.015625)"/>
       <path id="DejaVuSans-6c" d="M 603 4863 
L 1178 4863 
L 1178 0 
L 603 0 
L 603 4863 
z
" transform="scale(0.015625)"/>
       <path id="DejaVuSans-7a" d="M 353 3500 
L 3084 3500 
L 3084 2975 
L 922 459 
L 3084 459 
L 3084 0 
L 275 0 
L 275 525 
L 2438 3041 
L 353 3041 
L 353 3500 
z
" transform="scale(0.015625)"/>
       <path id="DejaVuSans-64" d="M 2906 2969 
L 2906 4863 
L 3481 4863 
L 3481 0 
L 2906 0 
L 2906 525 
Q 2725 213 2448 61 
Q 2172 -91 1784 -91 
Q 1150 -91 751 415 
Q 353 922 353 1747 
Q 353 2572 751 3078 
Q 1150 3584 1784 3584 
Q 2172 3584 2448 3432 
Q 2725 3281 2906 2969 
z
M 947 1747 
Q 947 1113 1208 752 
Q 1469 391 1925 391 
Q 2381 391 2643 752 
Q 2906 1113 2906 1747 
Q 2906 2381 2643 2742 
Q 2381 3103 1925 3103 
Q 1469 3103 1208 2742 
Q 947 2381 947 1747 
z
" transform="scale(0.015625)"/>
       <path id="DejaVuSans-49" d="M 628 4666 
L 1259 4666 
L 1259 0 
L 628 0 
L 628 4666 
z
" transform="scale(0.015625)"/>
       <path id="DejaVuSans-73" d="M 2834 3397 
L 2834 2853 
Q 2591 2978 2328 3040 
Q 2066 3103 1784 3103 
Q 1356 3103 1142 2972 
Q 928 2841 928 2578 
Q 928 2378 1081 2264 
Q 1234 2150 1697 2047 
L 1894 2003 
Q 2506 1872 2764 1633 
Q 3022 1394 3022 966 
Q 3022 478 2636 193 
Q 2250 -91 1575 -91 
Q 1294 -91 989 -36 
Q 684 19 347 128 
L 347 722 
Q 666 556 975 473 
Q 1284 391 1588 391 
Q 1994 391 2212 530 
Q 2431 669 2431 922 
Q 2431 1156 2273 1281 
Q 2116 1406 1581 1522 
L 1381 1569 
Q 847 1681 609 1914 
Q 372 2147 372 2553 
Q 372 3047 722 3315 
Q 1072 3584 1716 3584 
Q 2034 3584 2315 3537 
Q 2597 3491 2834 3397 
z
" transform="scale(0.015625)"/>
       <path id="DejaVuSans-79" d="M 2059 -325 
Q 1816 -950 1584 -1140 
Q 1353 -1331 966 -1331 
L 506 -1331 
L 506 -850 
L 844 -850 
Q 1081 -850 1212 -737 
Q 1344 -625 1503 -206 
L 1606 56 
L 191 3500 
L 800 3500 
L 1894 763 
L 2988 3500 
L 3597 3500 
L 2059 -325 
z
" transform="scale(0.015625)"/>
      </defs>
      <use xlink:href="#DejaVuSans-4e"/>
      <use xlink:href="#DejaVuSans-6f" x="74.804688"/>
      <use xlink:href="#DejaVuSans-72" x="135.986328"/>
      <use xlink:href="#DejaVuSans-6d" x="175.349609"/>
      <use xlink:href="#DejaVuSans-61" x="272.761719"/>
      <use xlink:href="#DejaVuSans-6c" x="334.041016"/>
      <use xlink:href="#DejaVuSans-69" x="361.824219"/>
      <use xlink:href="#DejaVuSans-7a" x="389.607422"/>
      <use xlink:href="#DejaVuSans-65" x="442.097656"/>
      <use xlink:href="#DejaVuSans-64" x="503.621094"/>
      <use xlink:href="#DejaVuSans-20" x="567.097656"/>
      <use xlink:href="#DejaVuSans-49" x="598.884766"/>
      <use xlink:href="#DejaVuSans-6e" x="628.376953"/>
      <use xlink:href="#DejaVuSans-74" x="691.755859"/>
      <use xlink:href="#DejaVuSans-65" x="730.964844"/>
      <use xlink:href="#DejaVuSans-6e" x="792.488281"/>
      <use xlink:href="#DejaVuSans-73" x="855.867188"/>
      <use xlink:href="#DejaVuSans-69" x="907.966797"/>
      <use xlink:href="#DejaVuSans-74" x="935.75"/>
      <use xlink:href="#DejaVuSans-79" x="974.958984"/>
     </g>
    </g>
   </g>
   <g id="line2d_13">
    <path d="M 52.664659 289.752598 
L 53.724433 289.734984 
L 54.253525 289.867092 
L 55.578639 289.726177 
L 56.373071 289.743791 
L 57.696596 289.734984 
L 58.756369 289.752598 
L 60.608986 289.655719 
L 61.139667 289.690948 
L 61.66876 289.787827 
L 62.992284 289.805442 
L 63.522966 289.796634 
L 64.052058 289.629297 
L 64.84649 289.638104 
L 65.640923 289.734984 
L 67.229788 289.576454 
L 68.024221 289.629297 
L 69.613087 289.787827 
L 70.407519 289.523611 
L 72.525477 289.831863 
L 73.58525 289.514803 
L 73.850591 289.444346 
L 75.439456 289.858285 
L 77.028321 289.523611 
L 77.557413 289.567647 
L 78.617187 289.893514 
L 79.940712 289.514803 
L 80.735144 289.638104 
L 81.529577 289.814249 
L 82.058669 289.823056 
L 83.647534 289.611683 
L 84.707308 289.893514 
L 87.090606 289.602876 
L 88.150379 289.77902 
L 88.944812 289.646912 
L 91.32811 289.77902 
L 96.889139 289.699755 
L 97.418231 289.717369 
L 98.212663 289.567647 
L 100.066869 289.708562 
L 100.595962 289.585261 
L 101.125054 289.726177 
L 103.2446 289.840671 
L 103.773692 289.611683 
L 104.302784 289.655719 
L 104.833466 289.814249 
L 107.480515 289.699755 
L 108.805629 289.972779 
L 110.394494 289.602876 
L 111.98336 289.867092 
L 112.512452 289.840671 
L 113.306885 289.550032 
L 113.835977 289.567647 
L 114.630409 289.708562 
L 115.955523 289.787827 
L 117.013708 289.541225 
L 118.073481 289.911128 
L 118.602573 289.805442 
L 119.133254 289.602876 
L 120.191438 289.514803 
L 121.251212 289.831863 
L 121.516552 289.911128 
L 122.310985 289.690948 
L 123.105417 289.567647 
L 124.163602 289.708562 
L 124.694283 289.805442 
L 126.017808 289.602876 
L 126.81224 289.602876 
L 127.606673 289.858285 
L 128.666446 289.682141 
L 129.460879 289.682141 
L 130.255312 289.62049 
L 130.784404 289.814249 
L 132.373269 289.611683 
L 133.696794 289.611683 
L 134.227475 289.550032 
L 135.021908 289.629297 
L 135.816341 289.602876 
L 136.345433 289.673333 
L 137.139865 289.585261 
L 137.934298 289.532418 
L 139.523163 289.602876 
L 143.229986 289.541225 
L 143.760667 289.46196 
L 144.5551 289.594068 
L 146.407717 289.629297 
L 146.938398 289.417924 
L 147.46749 289.497189 
L 147.996583 289.699755 
L 149.056356 289.708562 
L 150.379881 289.426731 
L 151.968746 289.726177 
L 153.557611 289.417924 
L 155.677158 289.638104 
L 156.20625 289.479574 
L 157.000683 289.497189 
L 158.060456 289.734984 
L 160.707506 289.655719 
L 161.238187 289.840671 
L 162.561712 289.532418 
L 163.885236 289.62049 
L 164.415917 289.743791 
L 164.94501 289.62049 
L 165.739442 289.391502 
L 166.799216 289.444346 
L 167.328308 289.585261 
L 170.240698 289.488382 
L 170.771379 289.514803 
L 171.829563 289.373888 
L 172.360244 289.497189 
L 173.683769 289.356273 
L 176.596159 289.250587 
L 176.8615 289.100864 
L 177.655933 289.153707 
L 178.450365 289.127285 
L 181.362756 288.968755 
L 182.157188 289.136093 
L 182.687869 289.056828 
L 183.216962 288.819033 
L 183.746054 288.819033 
L 185.60026 289.003984 
L 186.923784 288.616467 
L 187.718217 288.766189 
L 189.307083 288.554816 
L 190.101515 288.378671 
L 191.690381 288.625274 
L 193.544587 288.184913 
L 194.339019 288.237756 
L 194.868111 288.317021 
L 196.722317 287.885467 
L 197.782091 288.043997 
L 198.576523 287.832624 
L 200.165389 287.506756 
L 200.959821 287.674094 
L 203.606871 286.995937 
L 204.401304 287.075202 
L 205.461077 286.67007 
L 206.52085 286.51154 
L 207.844375 286.220902 
L 209.1679 285.886227 
L 210.493014 285.525131 
L 211.022106 285.260914 
L 212.081879 284.908625 
L 213.405404 284.19524 
L 215.788702 282.909386 
L 219.495525 279.774014 
L 220.289958 278.620268 
L 221.615071 277.017353 
L 222.673256 275.317559 
L 225.587235 269.275803 
L 228.764966 259.173918 
L 231.412015 247.17848 
L 232.471788 241.02223 
L 234.589746 227.326998 
L 236.973044 208.259358 
L 238.561909 193.982849 
L 242.004981 160.189532 
L 244.917371 131.037622 
L 247.300669 109.098828 
L 249.154875 94.038476 
L 250.74374 82.932567 
L 252.067265 75.173403 
L 253.392379 68.832202 
L 254.186812 65.652794 
L 255.244996 62.332471 
L 256.304769 59.681496 
L 256.833861 58.747931 
L 257.628294 57.83198 
L 258.158975 57.470883 
L 258.953408 57.347582 
L 259.747841 57.206667 
L 260.276933 57.629413 
L 261.336706 58.985726 
L 261.865798 59.89287 
L 263.454663 63.274844 
L 264.514437 66.58636 
L 266.632394 74.0725 
L 269.015692 84.764469 
L 270.075466 90.128068 
L 276.694679 126.087962 
L 278.548885 136.110583 
L 282.521048 156.525727 
L 285.169687 169.181707 
L 288.87651 185.078746 
L 292.583333 199.399292 
L 298.144361 218.396473 
L 299.204135 221.523037 
L 299.998567 223.865759 
L 302.116525 230.004394 
L 303.176298 232.488031 
L 304.499823 236.16945 
L 305.824937 239.260786 
L 306.619369 241.075074 
L 308.208235 244.870987 
L 309.53176 247.284166 
L 311.385966 251.168152 
L 312.44415 252.779874 
L 314.563696 256.56698 
L 315.621881 258.002557 
L 316.152562 258.72475 
L 317.476087 260.979399 
L 318.270519 261.8337 
L 319.330292 263.172398 
L 319.859385 263.876975 
L 320.653817 264.969071 
L 322.242683 266.545564 
L 323.831548 268.236551 
L 325.949506 270.068454 
L 326.743938 270.825875 
L 327.538371 271.407152 
L 328.332804 272.120537 
L 329.657917 273.010066 
L 330.981442 273.899596 
L 332.835648 275.070957 
L 333.36474 275.396824 
L 334.424514 276.110209 
L 335.748038 276.823594 
L 336.277131 276.850016 
L 336.807812 277.070196 
L 337.865996 277.810003 
L 338.660429 278.13587 
L 339.19111 278.188714 
L 340.249294 278.681918 
L 341.838159 279.492183 
L 342.632592 279.43934 
L 343.163273 279.712363 
L 343.957706 280.108689 
L 345.546571 280.443363 
L 346.075663 280.505014 
L 346.604756 280.795652 
L 347.399188 281.18317 
L 347.929869 281.3417 
L 348.724302 281.368121 
L 349.782486 281.597109 
L 350.84226 282.204808 
L 351.636692 282.13435 
L 352.165784 282.125543 
L 353.225558 282.539482 
L 354.01999 282.900578 
L 355.874196 282.979843 
L 356.137948 283.032687 
L 356.668629 283.323325 
L 357.197721 283.376168 
L 357.726813 283.376168 
L 359.051927 283.605156 
L 359.315679 283.605156 
L 360.375452 284.03671 
L 360.904544 283.948638 
L 362.75875 284.107168 
L 363.287842 284.29212 
L 368.319779 284.855782 
L 371.232169 285.252107 
L 372.291942 285.30495 
L 372.821034 285.234493 
L 373.880808 285.410637 
L 374.67524 285.56036 
L 375.204333 285.666047 
L 376.264106 285.454673 
L 378.118312 285.842191 
L 378.647404 285.824577 
L 379.441837 285.648432 
L 380.236269 285.886227 
L 381.296042 286.220902 
L 381.825135 286.088793 
L 382.354227 285.974299 
L 383.414 286.124022 
L 384.473773 286.379432 
L 385.002865 286.220902 
L 385.797298 286.018336 
L 386.32639 286.168058 
L 387.120823 286.361817 
L 388.180596 286.370624 
L 389.240369 286.220902 
L 389.769462 286.388239 
L 390.298554 286.617227 
L 390.829235 286.590805 
L 391.623667 286.441082 
L 393.212533 286.617227 
L 393.741625 286.810986 
L 395.859583 286.634841 
L 397.184696 286.819793 
L 397.979129 286.793371 
L 399.037313 286.661263 
L 400.097087 286.907865 
L 400.891519 286.775757 
L 402.745725 286.855022 
L 403.274817 286.943094 
L 409.101187 287.039973 
L 409.630279 286.92548 
L 410.690052 287.031166 
L 412.013577 287.180889 
L 412.80801 287.048781 
L 414.925967 287.30419 
L 415.98574 287.004745 
L 416.780173 287.24254 
L 417.839946 287.286576 
L 418.369038 287.357034 
L 419.163471 287.119238 
L 419.692563 287.224925 
L 420.486996 287.427491 
L 421.546769 287.383455 
L 422.341202 287.24254 
L 422.870294 287.277769 
L 423.930067 287.5596 
L 424.459159 287.568407 
L 425.253592 287.286576 
L 425.784273 287.348226 
L 426.842458 287.568407 
L 427.63689 287.594829 
L 428.696663 287.365841 
L 429.225756 287.471527 
L 430.020188 287.700515 
L 430.550869 287.647672 
L 431.345302 287.489142 
L 432.668827 287.436299 
L 433.46326 287.762166 
L 434.523033 287.489142 
L 436.111898 287.647672 
L 436.64099 287.753359 
L 437.964515 287.568407 
L 438.758948 287.647672 
L 439.553381 287.806202 
L 440.347813 287.753359 
L 441.672927 287.700515 
L 442.46736 287.753359 
L 442.996452 287.806202 
L 444.319977 287.735744 
L 444.850658 287.823816 
L 447.763048 287.77978 
L 448.557481 287.903081 
L 449.881006 287.770973 
L 450.675438 287.903081 
L 451.469871 287.903081 
L 452.000552 287.93831 
L 452.529644 287.77978 
L 453.324077 287.911889 
L 454.11851 288.043997 
L 454.912942 287.955925 
L 455.707375 287.77978 
L 458.090673 288.03519 
L 458.885106 287.735744 
L 459.414198 287.859045 
L 459.944879 288.008768 
L 460.739312 288.088033 
L 461.268404 288.079226 
L 462.328177 287.77978 
L 462.857269 287.867852 
L 463.651702 288.09684 
L 464.180794 288.043997 
L 465.240567 287.894274 
L 465.769659 287.850238 
L 466.300341 288.017575 
L 466.300341 288.017575 
" clip-path="url(#p81fdeed431)" style="fill: none; stroke: #252525; stroke-width: 1.2; stroke-linecap: square"/>
   </g>
   <g id="line2d_14">
    <path d="M 52.664659 287.067195 
L 54.784206 286.95309 
L 56.107731 286.998732 
L 57.431256 286.838986 
L 59.020121 286.994168 
L 59.814554 286.870935 
L 62.728533 286.84355 
L 63.522966 286.747703 
L 65.906264 286.775088 
L 67.495129 286.651855 
L 68.024221 286.738575 
L 69.083994 286.665548 
L 73.850591 286.65642 
L 74.908775 286.60165 
L 76.762981 286.615342 
L 78.351846 286.505802 
L 79.940712 286.505802 
L 80.735144 286.428211 
L 82.58935 286.51493 
L 83.118442 286.505802 
L 83.912875 286.314107 
L 85.2364 286.46016 
L 86.561514 286.368877 
L 87.355946 286.268466 
L 89.208563 286.38257 
L 90.002996 286.254773 
L 91.062769 286.236516 
L 92.386294 286.254773 
L 93.975159 286.117848 
L 95.034933 286.209131 
L 97.15289 286.003744 
L 98.212663 286.126976 
L 99.801529 285.976359 
L 101.390394 285.99918 
L 106.15699 285.812049 
L 109.600062 285.679688 
L 113.306885 285.547327 
L 113.835977 285.419531 
L 116.484615 285.39671 
L 117.279048 285.264349 
L 119.133254 285.323683 
L 120.191438 285.163937 
L 122.574736 285.118296 
L 123.63451 284.95855 
L 124.958034 284.999627 
L 126.283148 284.844446 
L 127.606673 284.807932 
L 128.401106 284.807932 
L 129.989971 284.584288 
L 130.784404 284.593417 
L 131.578837 284.561467 
L 132.63861 284.369772 
L 133.962135 284.378901 
L 134.756567 284.296746 
L 149.321696 282.694724 
L 150.116129 282.466515 
L 151.439654 282.334154 
L 152.763179 282.105946 
L 153.29386 281.89143 
L 154.088292 281.827532 
L 155.146477 281.717992 
L 157.529775 281.215934 
L 158.324208 281.106394 
L 159.383981 280.77321 
L 160.972846 280.513052 
L 161.767279 280.371563 
L 163.621485 279.874069 
L 164.679669 279.718887 
L 166.268534 279.244214 
L 168.917173 278.678257 
L 171.300471 278.139686 
L 172.360244 277.838451 
L 173.683769 277.427676 
L 176.332408 276.492022 
L 177.126841 276.104068 
L 179.77389 274.680048 
L 181.099004 273.899576 
L 182.687869 272.813304 
L 183.482302 272.073909 
L 185.071167 270.923739 
L 192.221062 265.095299 
L 194.073679 263.949694 
L 196.722317 262.534802 
L 197.782091 262.283773 
L 198.576523 261.904947 
L 199.900048 261.599148 
L 203.343119 261.489608 
L 204.137552 261.521557 
L 205.990169 261.658482 
L 212.610971 262.393313 
L 213.670744 262.370492 
L 214.994269 262.393313 
L 216.054042 262.251824 
L 217.377567 262.005359 
L 218.437341 261.781715 
L 218.966433 261.503301 
L 219.495525 261.147296 
L 220.820639 260.503748 
L 221.878823 259.759789 
L 224.792802 256.437077 
L 226.381667 253.643807 
L 227.705192 251.02854 
L 229.559398 246.030778 
L 230.617583 242.475293 
L 230.882923 241.735898 
L 231.942696 237.267579 
L 232.206448 236.354746 
L 233.000881 232.543668 
L 234.060654 227.235543 
L 235.649519 217.942901 
L 237.503725 205.820476 
L 238.298158 199.480849 
L 240.416115 182.260251 
L 243.064754 158.59505 
L 246.506236 127.084048 
L 246.771577 125.221868 
L 247.56601 117.855304 
L 249.949308 98.621909 
L 251.803514 85.887886 
L 252.067265 84.5232 
L 252.597946 80.890124 
L 253.656131 75.253379 
L 255.244996 68.087638 
L 256.304769 64.285688 
L 257.099202 62.099453 
L 257.628294 60.857999 
L 258.688067 58.840638 
L 259.217159 58.06473 
L 259.747841 57.612877 
L 260.542273 57.266001 
L 261.600458 57.256872 
L 262.39489 57.745238 
L 262.660231 57.968882 
L 264.249096 60.520251 
L 265.308869 62.68823 
L 267.426827 69.342784 
L 268.4866 73.281659 
L 270.604558 82.20004 
L 271.39899 86.184557 
L 273.516948 96.955988 
L 276.165587 111.269213 
L 282.255708 144.058181 
L 282.521048 145.089683 
L 283.315481 149.425641 
L 284.904346 157.317084 
L 285.169687 158.325764 
L 285.964119 162.28746 
L 288.347417 173.159304 
L 292.583333 190.621803 
L 293.114014 192.575266 
L 294.966631 199.421515 
L 298.675042 212.109896 
L 301.058341 219.53123 
L 304.765163 229.727577 
L 308.208235 237.952204 
L 310.591533 242.940838 
L 314.033015 249.280464 
L 315.887221 252.206095 
L 319.594044 257.441193 
L 321.44825 259.759789 
L 322.508023 260.804983 
L 323.831548 262.347672 
L 325.155073 263.566304 
L 325.949506 264.269185 
L 327.538371 265.83013 
L 328.598144 266.537576 
L 330.45235 268.0757 
L 332.570308 269.454078 
L 333.36474 269.978957 
L 335.218946 270.951124 
L 335.748038 271.288873 
L 336.542471 271.809188 
L 337.602244 272.242783 
L 338.660429 272.781355 
L 341.043727 273.867626 
L 345.01589 275.392058 
L 348.193621 276.533099 
L 349.253394 276.802385 
L 351.371352 277.560037 
L 352.431125 277.687833 
L 354.549083 278.303996 
L 355.608856 278.518512 
L 357.726813 279.047955 
L 358.521246 279.166623 
L 360.640792 279.718887 
L 362.229658 279.933403 
L 363.287842 280.230074 
L 365.67114 280.622592 
L 366.465573 280.859929 
L 367.790687 280.923827 
L 370.968417 281.43045 
L 371.76285 281.549118 
L 372.557283 281.717992 
L 373.615467 281.804711 
L 374.67524 281.927944 
L 377.058538 282.261128 
L 378.382063 282.448259 
L 379.176496 282.521285 
L 380.236269 282.65821 
L 382.884908 282.93206 
L 383.679341 283.087242 
L 385.797298 283.224167 
L 387.386163 283.484324 
L 388.445937 283.388477 
L 389.769462 283.621249 
L 391.092986 283.707968 
L 391.887419 283.685148 
L 393.476284 284.009203 
L 394.801398 284.009203 
L 395.859583 284.178077 
L 396.654015 284.255668 
L 397.448448 284.159821 
L 399.037313 284.35608 
L 399.831746 284.461056 
L 402.215044 284.652751 
L 402.745725 284.6847 
L 403.803909 284.648187 
L 406.717889 284.84901 
L 412.80801 285.145681 
L 414.396875 285.278041 
L 415.191308 285.195886 
L 417.839946 285.332811 
L 418.634379 285.34194 
L 419.957904 285.510814 
L 422.606542 285.656867 
L 423.664727 285.716201 
L 424.989841 285.629482 
L 427.107798 285.784664 
L 427.902231 285.757279 
L 429.756437 285.939846 
L 431.609054 285.875947 
L 432.403486 286.081335 
L 435.052125 286.040257 
L 436.111898 286.16349 
L 437.170083 286.10872 
L 440.347813 286.231952 
L 441.142246 286.259337 
L 441.936679 286.359749 
L 442.996452 286.346056 
L 444.056225 286.409955 
L 445.645091 286.432775 
L 455.707375 286.71119 
L 456.767148 286.84355 
L 457.825333 286.702061 
L 459.944879 286.893756 
L 461.533744 286.857243 
L 462.591929 287.030681 
L 464.446135 286.889192 
L 465.505908 287.035245 
L 466.035 287.06263 
L 466.300341 287.012425 
L 466.300341 287.012425 
" clip-path="url(#p81fdeed431)" style="fill: none; stroke: #045a8d; stroke-width: 1.2; stroke-linecap: square"/>
   </g>
   <g id="patch_3">
    <path d="M 52.93 312.92 
L 52.93 33.96 
" style="fill: none; stroke: #000000; stroke-width: 0.5; stroke-linejoin: miter; stroke-linecap: square"/>
   </g>
   <g id="patch_4">
    <path d="M 52.93 312.92 
L 466.035 312.92 
" style="fill: none; stroke: #000000; stroke-width: 0.5; stroke-linejoin: miter; stroke-linecap: square"/>
   </g>
   <g id="legend_1">
    <g id="text_15">
     <!-- Experiment Conditions -->
     <g transform="translate(334.619875 48.758438) scale(0.1 -0.1)">
      <defs>
       <path id="DejaVuSans-45" d="M 628 4666 
L 3578 4666 
L 3578 4134 
L 1259 4134 
L 1259 2753 
L 3481 2753 
L 3481 2222 
L 1259 2222 
L 1259 531 
L 3634 531 
L 3634 0 
L 628 0 
L 628 4666 
z
" transform="scale(0.015625)"/>
       <path id="DejaVuSans-78" d="M 3513 3500 
L 2247 1797 
L 3578 0 
L 2900 0 
L 1881 1375 
L 863 0 
L 184 0 
L 1544 1831 
L 300 3500 
L 978 3500 
L 1906 2253 
L 2834 3500 
L 3513 3500 
z
" transform="scale(0.015625)"/>
       <path id="DejaVuSans-70" d="M 1159 525 
L 1159 -1331 
L 581 -1331 
L 581 3500 
L 1159 3500 
L 1159 2969 
Q 1341 3281 1617 3432 
Q 1894 3584 2278 3584 
Q 2916 3584 3314 3078 
Q 3713 2572 3713 1747 
Q 3713 922 3314 415 
Q 2916 -91 2278 -91 
Q 1894 -91 1617 61 
Q 1341 213 1159 525 
z
M 3116 1747 
Q 3116 2381 2855 2742 
Q 2594 3103 2138 3103 
Q 1681 3103 1420 2742 
Q 1159 2381 1159 1747 
Q 1159 1113 1420 752 
Q 1681 391 2138 391 
Q 2594 391 2855 752 
Q 3116 1113 3116 1747 
z
" transform="scale(0.015625)"/>
       <path id="DejaVuSans-43" d="M 4122 4306 
L 4122 3641 
Q 3803 3938 3442 4084 
Q 3081 4231 2675 4231 
Q 1875 4231 1450 3742 
Q 1025 3253 1025 2328 
Q 1025 1406 1450 917 
Q 1875 428 2675 428 
Q 3081 428 3442 575 
Q 3803 722 4122 1019 
L 4122 359 
Q 3791 134 3420 21 
Q 3050 -91 2638 -91 
Q 1578 -91 968 557 
Q 359 1206 359 2328 
Q 359 3453 968 4101 
Q 1578 4750 2638 4750 
Q 3056 4750 3426 4639 
Q 3797 4528 4122 4306 
z
" transform="scale(0.015625)"/>
      </defs>
      <use xlink:href="#DejaVuSans-45"/>
      <use xlink:href="#DejaVuSans-78" x="63.183594"/>
      <use xlink:href="#DejaVuSans-70" x="122.363281"/>
      <use xlink:href="#DejaVuSans-65" x="185.839844"/>
      <use xlink:href="#DejaVuSans-72" x="247.363281"/>
      <use xlink:href="#DejaVuSans-69" x="288.476562"/>
      <use xlink:href="#DejaVuSans-6d" x="316.259766"/>
      <use xlink:href="#DejaVuSans-65" x="413.671875"/>
      <use xlink:href="#DejaVuSans-6e" x="475.195312"/>
      <use xlink:href="#DejaVuSans-74" x="538.574219"/>
      <use xlink:href="#DejaVuSans-20" x="577.783203"/>
      <use xlink:href="#DejaVuSans-43" x="609.570312"/>
      <use xlink:href="#DejaVuSans-6f" x="679.394531"/>
      <use xlink:href="#DejaVuSans-6e" x="740.576172"/>
      <use xlink:href="#DejaVuSans-64" x="803.955078"/>
      <use xlink:href="#DejaVuSans-69" x="867.431641"/>
      <use xlink:href="#DejaVuSans-74" x="895.214844"/>
      <use xlink:href="#DejaVuSans-69" x="934.423828"/>
      <use xlink:href="#DejaVuSans-6f" x="962.207031"/>
      <use xlink:href="#DejaVuSans-6e" x="1023.388672"/>
      <use xlink:href="#DejaVuSans-73" x="1086.767578"/>
     </g>
    </g>
    <g id="line2d_15">
     <path d="M 352.683625 58.116875 
L 360.683625 58.116875 
L 368.683625 58.116875 
" style="fill: none; stroke: #252525; stroke-width: 1.2; stroke-linecap: square"/>
    </g>
    <g id="text_16">
     <!-- PS-110K -->
     <g transform="translate(375.083625 60.916875) scale(0.08 -0.08)">
      <defs>
       <path id="DejaVuSans-50" d="M 1259 4147 
L 1259 2394 
L 2053 2394 
Q 2494 2394 2734 2622 
Q 2975 2850 2975 3272 
Q 2975 3691 2734 3919 
Q 2494 4147 2053 4147 
L 1259 4147 
z
M 628 4666 
L 2053 4666 
Q 2838 4666 3239 4311 
Q 3641 3956 3641 3272 
Q 3641 2581 3239 2228 
Q 2838 1875 2053 1875 
L 1259 1875 
L 1259 0 
L 628 0 
L 628 4666 
z
" transform="scale(0.015625)"/>
       <path id="DejaVuSans-53" d="M 3425 4513 
L 3425 3897 
Q 3066 4069 2747 4153 
Q 2428 4238 2131 4238 
Q 1616 4238 1336 4038 
Q 1056 3838 1056 3469 
Q 1056 3159 1242 3001 
Q 1428 2844 1947 2747 
L 2328 2669 
Q 3034 2534 3370 2195 
Q 3706 1856 3706 1288 
Q 3706 609 3251 259 
Q 2797 -91 1919 -91 
Q 1588 -91 1214 -16 
Q 841 59 441 206 
L 441 856 
Q 825 641 1194 531 
Q 1563 422 1919 422 
Q 2459 422 2753 634 
Q 3047 847 3047 1241 
Q 3047 1584 2836 1778 
Q 2625 1972 2144 2069 
L 1759 2144 
Q 1053 2284 737 2584 
Q 422 2884 422 3419 
Q 422 4038 858 4394 
Q 1294 4750 2059 4750 
Q 2388 4750 2728 4690 
Q 3069 4631 3425 4513 
z
" transform="scale(0.015625)"/>
       <path id="DejaVuSans-2d" d="M 313 2009 
L 1997 2009 
L 1997 1497 
L 313 1497 
L 313 2009 
z
" transform="scale(0.015625)"/>
       <path id="DejaVuSans-4b" d="M 628 4666 
L 1259 4666 
L 1259 2694 
L 3353 4666 
L 4166 4666 
L 1850 2491 
L 4331 0 
L 3500 0 
L 1259 2247 
L 1259 0 
L 628 0 
L 628 4666 
z
" transform="scale(0.015625)"/>
      </defs>
      <use xlink:href="#DejaVuSans-50"/>
      <use xlink:href="#DejaVuSans-53" x="60.302734"/>
      <use xlink:href="#DejaVuSans-2d" x="123.779297"/>
      <use xlink:href="#DejaVuSans-31" x="159.863281"/>
      <use xlink:href="#DejaVuSans-31" x="223.486328"/>
      <use xlink:href="#DejaVuSans-30" x="287.109375"/>
      <use xlink:href="#DejaVuSans-4b" x="350.732422"/>
     </g>
    </g>
    <g id="line2d_16">
     <path d="M 352.683625 69.859375 
L 360.683625 69.859375 
L 368.683625 69.859375 
" style="fill: none; stroke: #045a8d; stroke-width: 1.2; stroke-linecap: square"/>
    </g>
    <g id="text_17">
     <!-- PS-110K-SCF$_{3}$ -->
     <g transform="translate(375.083625 72.659375) scale(0.08 -0.08)">
      <defs>
       <path id="DejaVuSans-46" d="M 628 4666 
L 3309 4666 
L 3309 4134 
L 1259 4134 
L 1259 2759 
L 3109 2759 
L 3109 2228 
L 1259 2228 
L 1259 0 
L 628 0 
L 628 4666 
z
" transform="scale(0.015625)"/>
       <path id="DejaVuSans-33" d="M 2597 2516 
Q 3050 2419 3304 2112 
Q 3559 1806 3559 1356 
Q 3559 666 3084 287 
Q 2609 -91 1734 -91 
Q 1441 -91 1130 -33 
Q 819 25 488 141 
L 488 750 
Q 750 597 1062 519 
Q 1375 441 1716 441 
Q 2309 441 2620 675 
Q 2931 909 2931 1356 
Q 2931 1769 2642 2001 
Q 2353 2234 1838 2234 
L 1294 2234 
L 1294 2753 
L 1863 2753 
Q 2328 2753 2575 2939 
Q 2822 3125 2822 3475 
Q 2822 3834 2567 4026 
Q 2313 4219 1838 4219 
Q 1578 4219 1281 4162 
Q 984 4106 628 3988 
L 628 4550 
Q 988 4650 1302 4700 
Q 1616 4750 1894 4750 
Q 2613 4750 3031 4423 
Q 3450 4097 3450 3541 
Q 3450 3153 3228 2886 
Q 3006 2619 2597 2516 
z
" transform="scale(0.015625)"/>
      </defs>
      <use xlink:href="#DejaVuSans-50" transform="translate(0 0.78125)"/>
      <use xlink:href="#DejaVuSans-53" transform="translate(60.302734 0.78125)"/>
      <use xlink:href="#DejaVuSans-2d" transform="translate(123.779297 0.78125)"/>
      <use xlink:href="#DejaVuSans-31" transform="translate(159.863281 0.78125)"/>
      <use xlink:href="#DejaVuSans-31" transform="translate(223.486328 0.78125)"/>
      <use xlink:href="#DejaVuSans-30" transform="translate(287.109375 0.78125)"/>
      <use xlink:href="#DejaVuSans-4b" transform="translate(350.732422 0.78125)"/>
      <use xlink:href="#DejaVuSans-2d" transform="translate(416.308594 0.78125)"/>
      <use xlink:href="#DejaVuSans-53" transform="translate(452.392578 0.78125)"/>
      <use xlink:href="#DejaVuSans-43" transform="translate(515.869141 0.78125)"/>
      <use xlink:href="#DejaVuSans-46" transform="translate(585.693359 0.78125)"/>
      <use xlink:href="#DejaVuSans-33" transform="translate(644.169922 -15.625) scale(0.7)"/>
     </g>
    </g>
   </g>
   <g id="legend_2">
    <g id="text_18">
     <!-- GPC Data -->
     <g transform="translate(358.762188 94.716875) scale(0.1 -0.1)">
      <defs>
       <path id="DejaVuSans-47" d="M 3809 666 
L 3809 1919 
L 2778 1919 
L 2778 2438 
L 4434 2438 
L 4434 434 
Q 4069 175 3628 42 
Q 3188 -91 2688 -91 
Q 1594 -91 976 548 
Q 359 1188 359 2328 
Q 359 3472 976 4111 
Q 1594 4750 2688 4750 
Q 3144 4750 3555 4637 
Q 3966 4525 4313 4306 
L 4313 3634 
Q 3963 3931 3569 4081 
Q 3175 4231 2741 4231 
Q 1884 4231 1454 3753 
Q 1025 3275 1025 2328 
Q 1025 1384 1454 906 
Q 1884 428 2741 428 
Q 3075 428 3337 486 
Q 3600 544 3809 666 
z
" transform="scale(0.015625)"/>
       <path id="DejaVuSans-44" d="M 1259 4147 
L 1259 519 
L 2022 519 
Q 2988 519 3436 956 
Q 3884 1394 3884 2338 
Q 3884 3275 3436 3711 
Q 2988 4147 2022 4147 
L 1259 4147 
z
M 628 4666 
L 1925 4666 
Q 3281 4666 3915 4102 
Q 4550 3538 4550 2338 
Q 4550 1131 3912 565 
Q 3275 0 1925 0 
L 628 0 
L 628 4666 
z
" transform="scale(0.015625)"/>
      </defs>
      <use xlink:href="#DejaVuSans-47"/>
      <use xlink:href="#DejaVuSans-50" x="77.490234"/>
      <use xlink:href="#DejaVuSans-43" x="137.792969"/>
      <use xlink:href="#DejaVuSans-20" x="207.617188"/>
      <use xlink:href="#DejaVuSans-44" x="239.404297"/>
      <use xlink:href="#DejaVuSans-61" x="316.40625"/>
      <use xlink:href="#DejaVuSans-74" x="377.685547"/>
      <use xlink:href="#DejaVuSans-61" x="416.894531"/>
     </g>
    </g>
    <g id="line2d_17">
     <path d="M 306.505 104.075313 
L 314.505 104.075313 
L 322.505 104.075313 
" style="fill: none; stroke: #252525; stroke-width: 1.2; stroke-linecap: square"/>
    </g>
    <g id="text_19">
     <!-- Mn=94.0k, Mw=103k, Mp=111k -->
     <g transform="translate(328.905 106.875313) scale(0.08 -0.08)">
      <defs>
       <path id="DejaVuSans-4d" d="M 628 4666 
L 1569 4666 
L 2759 1491 
L 3956 4666 
L 4897 4666 
L 4897 0 
L 4281 0 
L 4281 4097 
L 3078 897 
L 2444 897 
L 1241 4097 
L 1241 0 
L 628 0 
L 628 4666 
z
" transform="scale(0.015625)"/>
       <path id="DejaVuSans-3d" d="M 678 2906 
L 4684 2906 
L 4684 2381 
L 678 2381 
L 678 2906 
z
M 678 1631 
L 4684 1631 
L 4684 1100 
L 678 1100 
L 678 1631 
z
" transform="scale(0.015625)"/>
       <path id="DejaVuSans-39" d="M 703 97 
L 703 672 
Q 941 559 1184 500 
Q 1428 441 1663 441 
Q 2288 441 2617 861 
Q 2947 1281 2994 2138 
Q 2813 1869 2534 1725 
Q 2256 1581 1919 1581 
Q 1219 1581 811 2004 
Q 403 2428 403 3163 
Q 403 3881 828 4315 
Q 1253 4750 1959 4750 
Q 2769 4750 3195 4129 
Q 3622 3509 3622 2328 
Q 3622 1225 3098 567 
Q 2575 -91 1691 -91 
Q 1453 -91 1209 -44 
Q 966 3 703 97 
z
M 1959 2075 
Q 2384 2075 2632 2365 
Q 2881 2656 2881 3163 
Q 2881 3666 2632 3958 
Q 2384 4250 1959 4250 
Q 1534 4250 1286 3958 
Q 1038 3666 1038 3163 
Q 1038 2656 1286 2365 
Q 1534 2075 1959 2075 
z
" transform="scale(0.015625)"/>
       <path id="DejaVuSans-6b" d="M 581 4863 
L 1159 4863 
L 1159 1991 
L 2875 3500 
L 3609 3500 
L 1753 1863 
L 3688 0 
L 2938 0 
L 1159 1709 
L 1159 0 
L 581 0 
L 581 4863 
z
" transform="scale(0.015625)"/>
       <path id="DejaVuSans-2c" d="M 750 794 
L 1409 794 
L 1409 256 
L 897 -744 
L 494 -744 
L 750 256 
L 750 794 
z
" transform="scale(0.015625)"/>
       <path id="DejaVuSans-77" d="M 269 3500 
L 844 3500 
L 1563 769 
L 2278 3500 
L 2956 3500 
L 3675 769 
L 4391 3500 
L 4966 3500 
L 4050 0 
L 3372 0 
L 2619 2869 
L 1863 0 
L 1184 0 
L 269 3500 
z
" transform="scale(0.015625)"/>
      </defs>
      <use xlink:href="#DejaVuSans-4d"/>
      <use xlink:href="#DejaVuSans-6e" x="86.279297"/>
      <use xlink:href="#DejaVuSans-3d" x="149.658203"/>
      <use xlink:href="#DejaVuSans-39" x="233.447266"/>
      <use xlink:href="#DejaVuSans-34" x="297.070312"/>
      <use xlink:href="#DejaVuSans-2e" x="360.693359"/>
      <use xlink:href="#DejaVuSans-30" x="392.480469"/>
      <use xlink:href="#DejaVuSans-6b" x="456.103516"/>
      <use xlink:href="#DejaVuSans-2c" x="514.013672"/>
      <use xlink:href="#DejaVuSans-20" x="545.800781"/>
      <use xlink:href="#DejaVuSans-4d" x="577.587891"/>
      <use xlink:href="#DejaVuSans-77" x="663.867188"/>
      <use xlink:href="#DejaVuSans-3d" x="745.654297"/>
      <use xlink:href="#DejaVuSans-31" x="829.443359"/>
      <use xlink:href="#DejaVuSans-30" x="893.066406"/>
      <use xlink:href="#DejaVuSans-33" x="956.689453"/>
      <use xlink:href="#DejaVuSans-6b" x="1020.3125"/>
      <use xlink:href="#DejaVuSans-2c" x="1078.222656"/>
      <use xlink:href="#DejaVuSans-20" x="1110.009766"/>
      <use xlink:href="#DejaVuSans-4d" x="1141.796875"/>
      <use xlink:href="#DejaVuSans-70" x="1228.076172"/>
      <use xlink:href="#DejaVuSans-3d" x="1291.552734"/>
      <use xlink:href="#DejaVuSans-31" x="1375.341797"/>
      <use xlink:href="#DejaVuSans-31" x="1438.964844"/>
      <use xlink:href="#DejaVuSans-31" x="1502.587891"/>
      <use xlink:href="#DejaVuSans-6b" x="1566.210938"/>
     </g>
    </g>
    <g id="line2d_18">
     <path d="M 306.505 115.817813 
L 314.505 115.817813 
L 322.505 115.817813 
" style="fill: none; stroke: #045a8d; stroke-width: 1.2; stroke-linecap: square"/>
    </g>
    <g id="text_20">
     <!-- Mn=84.9k, Mw=100k, Mp=109k -->
     <g transform="translate(328.905 118.617813) scale(0.08 -0.08)">
      <use xlink:href="#DejaVuSans-4d"/>
      <use xlink:href="#DejaVuSans-6e" x="86.279297"/>
      <use xlink:href="#DejaVuSans-3d" x="149.658203"/>
      <use xlink:href="#DejaVuSans-38" x="233.447266"/>
      <use xlink:href="#DejaVuSans-34" x="297.070312"/>
      <use xlink:href="#DejaVuSans-2e" x="360.693359"/>
      <use xlink:href="#DejaVuSans-39" x="392.480469"/>
      <use xlink:href="#DejaVuSans-6b" x="456.103516"/>
      <use xlink:href="#DejaVuSans-2c" x="514.013672"/>
      <use xlink:href="#DejaVuSans-20" x="545.800781"/>
      <use xlink:href="#DejaVuSans-4d" x="577.587891"/>
      <use xlink:href="#DejaVuSans-77" x="663.867188"/>
      <use xlink:href="#DejaVuSans-3d" x="745.654297"/>
      <use xlink:href="#DejaVuSans-31" x="829.443359"/>
      <use xlink:href="#DejaVuSans-30" x="893.066406"/>
      <use xlink:href="#DejaVuSans-30" x="956.689453"/>
      <use xlink:href="#DejaVuSans-6b" x="1020.3125"/>
      <use xlink:href="#DejaVuSans-2c" x="1078.222656"/>
      <use xlink:href="#DejaVuSans-20" x="1110.009766"/>
      <use xlink:href="#DejaVuSans-4d" x="1141.796875"/>
      <use xlink:href="#DejaVuSans-70" x="1228.076172"/>
      <use xlink:href="#DejaVuSans-3d" x="1291.552734"/>
      <use xlink:href="#DejaVuSans-31" x="1375.341797"/>
      <use xlink:href="#DejaVuSans-30" x="1438.964844"/>
      <use xlink:href="#DejaVuSans-39" x="1502.587891"/>
      <use xlink:href="#DejaVuSans-6b" x="1566.210938"/>
     </g>
    </g>
   </g>
  </g>
 </g>
 <defs>
  <clipPath id="p81fdeed431">
   <rect x="52.93" y="33.96" width="413.105" height="278.96"/>
  </clipPath>
 </defs>
</svg>
