<?xml version="1.0" encoding="utf-8" standalone="no"?>
<!DOCTYPE svg PUBLIC "-//W3C//DTD SVG 1.1//EN"
  "http://www.w3.org/Graphics/SVG/1.1/DTD/svg11.dtd">
<svg xmlns:xlink="http://www.w3.org/1999/xlink" width="504pt" height="360pt" viewBox="0 0 504 360" xmlns="http://www.w3.org/2000/svg" version="1.1">
 <metadata>
  <rdf:RDF xmlns:dc="http://purl.org/dc/elements/1.1/" xmlns:cc="http://creativecommons.org/ns#" xmlns:rdf="http://www.w3.org/1999/02/22-rdf-syntax-ns#">
   <cc:Work>
    <dc:type rdf:resource="http://purl.org/dc/dcmitype/StillImage"/>
    <dc:date>2025-02-22T11:45:27.688040</dc:date>
    <dc:format>image/svg+xml</dc:format>
    <dc:creator>
     <cc:Agent>
      <dc:title>Matplotlib v3.7.1, https://matplotlib.org/</dc:title>
     </cc:Agent>
    </dc:creator>
   </cc:Work>
  </rdf:RDF>
 </metadata>
 <defs>
  <style type="text/css">*{stroke-linejoin: round; stroke-linecap: butt}</style>
 </defs>
 <g id="figure_1">
  <g id="patch_1">
   <path d="M 0 360 
L 504 360 
L 504 0 
L 0 0 
z
" style="fill: #ffffff"/>
  </g>
  <g id="axes_1">
   <g id="patch_2">
    <path d="M 50.95 313.64 
L 467.025 313.64 
L 467.025 33.6 
L 50.95 33.6 
z
" style="fill: #ffffff"/>
   </g>
   <g id="matplotlib.axis_1">
    <g id="xtick_1">
     <g id="line2d_1">
      <defs>
       <path id="m626c3fe2dd" d="M 0 0 
L 0 -3.5 
" style="stroke: #000000; stroke-width: 0.8"/>
      </defs>
      <g>
       <use xlink:href="#m626c3fe2dd" x="50.95" y="313.64" style="stroke: #000000; stroke-width: 0.8"/>
      </g>
     </g>
     <g id="text_1">
      <!-- 6.4 -->
      <g transform="translate(42.61 325.748125) scale(0.12 -0.12)">
       <defs>
        <path id="Helvetica-36" d="M 1872 4494 
Q 2622 4494 2917 4105 
Q 3213 3716 3213 3303 
L 2656 3303 
Q 2606 3569 2497 3719 
Q 2294 4000 1881 4000 
Q 1409 4000 1131 3564 
Q 853 3128 822 2316 
Q 1016 2600 1309 2741 
Q 1578 2866 1909 2866 
Q 2472 2866 2890 2506 
Q 3309 2147 3309 1434 
Q 3309 825 2912 354 
Q 2516 -116 1781 -116 
Q 1153 -116 697 361 
Q 241 838 241 1966 
Q 241 2800 444 3381 
Q 834 4494 1872 4494 
z
M 1831 384 
Q 2275 384 2495 682 
Q 2716 981 2716 1388 
Q 2716 1731 2519 2042 
Q 2322 2353 1803 2353 
Q 1441 2353 1167 2112 
Q 894 1872 894 1388 
Q 894 963 1142 673 
Q 1391 384 1831 384 
z
" transform="scale(0.015625)"/>
        <path id="Helvetica-2e" d="M 547 681 
L 1200 681 
L 1200 0 
L 547 0 
L 547 681 
z
" transform="scale(0.015625)"/>
        <path id="Helvetica-34" d="M 2116 1584 
L 2116 3613 
L 681 1584 
L 2116 1584 
z
M 2125 0 
L 2125 1094 
L 163 1094 
L 163 1644 
L 2213 4488 
L 2688 4488 
L 2688 1584 
L 3347 1584 
L 3347 1094 
L 2688 1094 
L 2688 0 
L 2125 0 
z
" transform="scale(0.015625)"/>
       </defs>
       <use xlink:href="#Helvetica-36"/>
       <use xlink:href="#Helvetica-2e" x="55.615234"/>
       <use xlink:href="#Helvetica-34" x="83.398438"/>
      </g>
     </g>
    </g>
    <g id="xtick_2">
     <g id="line2d_2">
      <g>
       <use xlink:href="#m626c3fe2dd" x="102.959375" y="313.64" style="stroke: #000000; stroke-width: 0.8"/>
      </g>
     </g>
     <g id="text_2">
      <!-- 6.6 -->
      <g transform="translate(94.619375 325.748125) scale(0.12 -0.12)">
       <use xlink:href="#Helvetica-36"/>
       <use xlink:href="#Helvetica-2e" x="55.615234"/>
       <use xlink:href="#Helvetica-36" x="83.398438"/>
      </g>
     </g>
    </g>
    <g id="xtick_3">
     <g id="line2d_3">
      <g>
       <use xlink:href="#m626c3fe2dd" x="154.96875" y="313.64" style="stroke: #000000; stroke-width: 0.8"/>
      </g>
     </g>
     <g id="text_3">
      <!-- 6.8 -->
      <g transform="translate(146.62875 325.748125) scale(0.12 -0.12)">
       <defs>
        <path id="Helvetica-38" d="M 1741 2600 
Q 2113 2600 2322 2808 
Q 2531 3016 2531 3303 
Q 2531 3553 2331 3762 
Q 2131 3972 1722 3972 
Q 1316 3972 1134 3762 
Q 953 3553 953 3272 
Q 953 2956 1187 2778 
Q 1422 2600 1741 2600 
z
M 1775 384 
Q 2166 384 2423 595 
Q 2681 806 2681 1225 
Q 2681 1659 2415 1884 
Q 2150 2109 1734 2109 
Q 1331 2109 1076 1879 
Q 822 1650 822 1244 
Q 822 894 1055 639 
Q 1288 384 1775 384 
z
M 975 2384 
Q 741 2484 609 2619 
Q 363 2869 363 3269 
Q 363 3769 725 4128 
Q 1088 4488 1753 4488 
Q 2397 4488 2762 4148 
Q 3128 3809 3128 3356 
Q 3128 2938 2916 2678 
Q 2797 2531 2547 2391 
Q 2825 2263 2984 2097 
Q 3281 1784 3281 1284 
Q 3281 694 2884 283 
Q 2488 -128 1763 -128 
Q 1109 -128 657 226 
Q 206 581 206 1256 
Q 206 1653 400 1942 
Q 594 2231 975 2384 
z
" transform="scale(0.015625)"/>
       </defs>
       <use xlink:href="#Helvetica-36"/>
       <use xlink:href="#Helvetica-2e" x="55.615234"/>
       <use xlink:href="#Helvetica-38" x="83.398438"/>
      </g>
     </g>
    </g>
    <g id="xtick_4">
     <g id="line2d_4">
      <g>
       <use xlink:href="#m626c3fe2dd" x="206.978125" y="313.64" style="stroke: #000000; stroke-width: 0.8"/>
      </g>
     </g>
     <g id="text_4">
      <!-- 7.0 -->
      <g transform="translate(198.638125 325.748125) scale(0.12 -0.12)">
       <defs>
        <path id="Helvetica-37" d="M 3347 4400 
L 3347 3909 
Q 3131 3700 2773 3181 
Q 2416 2663 2141 2063 
Q 1869 1478 1728 997 
Q 1638 688 1494 0 
L 872 0 
Q 1084 1281 1809 2550 
Q 2238 3294 2709 3834 
L 234 3834 
L 234 4400 
L 3347 4400 
z
" transform="scale(0.015625)"/>
        <path id="Helvetica-30" d="M 1731 4475 
Q 2600 4475 2988 3759 
Q 3288 3206 3288 2244 
Q 3288 1331 3016 734 
Q 2622 -122 1728 -122 
Q 922 -122 528 578 
Q 200 1163 200 2147 
Q 200 2909 397 3456 
Q 766 4475 1731 4475 
z
M 1725 391 
Q 2163 391 2422 778 
Q 2681 1166 2681 2222 
Q 2681 2984 2493 3476 
Q 2306 3969 1766 3969 
Q 1269 3969 1039 3501 
Q 809 3034 809 2125 
Q 809 1441 956 1025 
Q 1181 391 1725 391 
z
" transform="scale(0.015625)"/>
       </defs>
       <use xlink:href="#Helvetica-37"/>
       <use xlink:href="#Helvetica-2e" x="55.615234"/>
       <use xlink:href="#Helvetica-30" x="83.398438"/>
      </g>
     </g>
    </g>
    <g id="xtick_5">
     <g id="line2d_5">
      <g>
       <use xlink:href="#m626c3fe2dd" x="258.9875" y="313.64" style="stroke: #000000; stroke-width: 0.8"/>
      </g>
     </g>
     <g id="text_5">
      <!-- 7.2 -->
      <g transform="translate(250.6475 325.748125) scale(0.12 -0.12)">
       <defs>
        <path id="Helvetica-32" d="M 200 0 
Q 231 578 439 1006 
Q 647 1434 1250 1784 
L 1850 2131 
Q 2253 2366 2416 2531 
Q 2672 2791 2672 3125 
Q 2672 3516 2437 3745 
Q 2203 3975 1813 3975 
Q 1234 3975 1013 3538 
Q 894 3303 881 2888 
L 309 2888 
Q 319 3472 525 3841 
Q 891 4491 1816 4491 
Q 2584 4491 2939 4075 
Q 3294 3659 3294 3150 
Q 3294 2613 2916 2231 
Q 2697 2009 2131 1694 
L 1703 1456 
Q 1397 1288 1222 1134 
Q 909 863 828 531 
L 3272 531 
L 3272 0 
L 200 0 
z
" transform="scale(0.015625)"/>
       </defs>
       <use xlink:href="#Helvetica-37"/>
       <use xlink:href="#Helvetica-2e" x="55.615234"/>
       <use xlink:href="#Helvetica-32" x="83.398438"/>
      </g>
     </g>
    </g>
    <g id="xtick_6">
     <g id="line2d_6">
      <g>
       <use xlink:href="#m626c3fe2dd" x="310.996875" y="313.64" style="stroke: #000000; stroke-width: 0.8"/>
      </g>
     </g>
     <g id="text_6">
      <!-- 7.4 -->
      <g transform="translate(302.656875 325.748125) scale(0.12 -0.12)">
       <use xlink:href="#Helvetica-37"/>
       <use xlink:href="#Helvetica-2e" x="55.615234"/>
       <use xlink:href="#Helvetica-34" x="83.398438"/>
      </g>
     </g>
    </g>
    <g id="xtick_7">
     <g id="line2d_7">
      <g>
       <use xlink:href="#m626c3fe2dd" x="363.00625" y="313.64" style="stroke: #000000; stroke-width: 0.8"/>
      </g>
     </g>
     <g id="text_7">
      <!-- 7.6 -->
      <g transform="translate(354.66625 325.748125) scale(0.12 -0.12)">
       <use xlink:href="#Helvetica-37"/>
       <use xlink:href="#Helvetica-2e" x="55.615234"/>
       <use xlink:href="#Helvetica-36" x="83.398438"/>
      </g>
     </g>
    </g>
    <g id="xtick_8">
     <g id="line2d_8">
      <g>
       <use xlink:href="#m626c3fe2dd" x="415.015625" y="313.64" style="stroke: #000000; stroke-width: 0.8"/>
      </g>
     </g>
     <g id="text_8">
      <!-- 7.8 -->
      <g transform="translate(406.675625 325.748125) scale(0.12 -0.12)">
       <use xlink:href="#Helvetica-37"/>
       <use xlink:href="#Helvetica-2e" x="55.615234"/>
       <use xlink:href="#Helvetica-38" x="83.398438"/>
      </g>
     </g>
    </g>
    <g id="xtick_9">
     <g id="line2d_9">
      <g>
       <use xlink:href="#m626c3fe2dd" x="467.025" y="313.64" style="stroke: #000000; stroke-width: 0.8"/>
      </g>
     </g>
     <g id="text_9">
      <!-- 8.0 -->
      <g transform="translate(458.685 325.748125) scale(0.12 -0.12)">
       <use xlink:href="#Helvetica-38"/>
       <use xlink:href="#Helvetica-2e" x="55.615234"/>
       <use xlink:href="#Helvetica-30" x="83.398438"/>
      </g>
     </g>
    </g>
    <g id="text_10">
     <!-- Retention Time (min) -->
     <g transform="translate(202.975625 340.945625) scale(0.12 -0.12)">
      <defs>
       <path id="Helvetica-52" d="M 2622 2488 
Q 3059 2488 3314 2663 
Q 3569 2838 3569 3294 
Q 3569 3784 3213 3963 
Q 3022 4056 2703 4056 
L 1184 4056 
L 1184 2488 
L 2622 2488 
z
M 563 4591 
L 2688 4591 
Q 3213 4591 3553 4438 
Q 4200 4144 4200 3353 
Q 4200 2941 4029 2678 
Q 3859 2416 3553 2256 
Q 3822 2147 3958 1969 
Q 4094 1791 4109 1391 
L 4131 775 
Q 4141 513 4175 384 
Q 4231 166 4375 103 
L 4375 0 
L 3613 0 
Q 3581 59 3562 153 
Q 3544 247 3531 516 
L 3494 1281 
Q 3472 1731 3159 1884 
Q 2981 1969 2600 1969 
L 1184 1969 
L 1184 0 
L 563 0 
L 563 4591 
z
" transform="scale(0.015625)"/>
       <path id="Helvetica-65" d="M 1806 3422 
Q 2163 3422 2497 3255 
Q 2831 3088 3006 2822 
Q 3175 2569 3231 2231 
Q 3281 2000 3281 1494 
L 828 1494 
Q 844 984 1069 676 
Q 1294 369 1766 369 
Q 2206 369 2469 659 
Q 2619 828 2681 1050 
L 3234 1050 
Q 3213 866 3089 639 
Q 2966 413 2813 269 
Q 2556 19 2178 -69 
Q 1975 -119 1719 -119 
Q 1094 -119 659 336 
Q 225 791 225 1609 
Q 225 2416 662 2919 
Q 1100 3422 1806 3422 
z
M 2703 1941 
Q 2669 2306 2544 2525 
Q 2313 2931 1772 2931 
Q 1384 2931 1121 2651 
Q 859 2372 844 1941 
L 2703 1941 
z
M 1753 3428 
L 1753 3428 
z
" transform="scale(0.015625)"/>
       <path id="Helvetica-74" d="M 525 4281 
L 1094 4281 
L 1094 3347 
L 1628 3347 
L 1628 2888 
L 1094 2888 
L 1094 703 
Q 1094 528 1213 469 
Q 1278 434 1431 434 
Q 1472 434 1519 436 
Q 1566 438 1628 444 
L 1628 0 
Q 1531 -28 1426 -40 
Q 1322 -53 1200 -53 
Q 806 -53 665 148 
Q 525 350 525 672 
L 525 2888 
L 72 2888 
L 72 3347 
L 525 3347 
L 525 4281 
z
" transform="scale(0.015625)"/>
       <path id="Helvetica-6e" d="M 413 3347 
L 947 3347 
L 947 2872 
Q 1184 3166 1450 3294 
Q 1716 3422 2041 3422 
Q 2753 3422 3003 2925 
Q 3141 2653 3141 2147 
L 3141 0 
L 2569 0 
L 2569 2109 
Q 2569 2416 2478 2603 
Q 2328 2916 1934 2916 
Q 1734 2916 1606 2875 
Q 1375 2806 1200 2600 
Q 1059 2434 1017 2257 
Q 975 2081 975 1753 
L 975 0 
L 413 0 
L 413 3347 
z
M 1734 3428 
L 1734 3428 
z
" transform="scale(0.015625)"/>
       <path id="Helvetica-69" d="M 413 3331 
L 984 3331 
L 984 0 
L 413 0 
L 413 3331 
z
M 413 4591 
L 984 4591 
L 984 3953 
L 413 3953 
L 413 4591 
z
" transform="scale(0.015625)"/>
       <path id="Helvetica-6f" d="M 1741 363 
Q 2300 363 2508 786 
Q 2716 1209 2716 1728 
Q 2716 2197 2566 2491 
Q 2328 2953 1747 2953 
Q 1231 2953 997 2559 
Q 763 2166 763 1609 
Q 763 1075 997 719 
Q 1231 363 1741 363 
z
M 1763 3444 
Q 2409 3444 2856 3012 
Q 3303 2581 3303 1744 
Q 3303 934 2909 406 
Q 2516 -122 1688 -122 
Q 997 -122 590 345 
Q 184 813 184 1600 
Q 184 2444 612 2944 
Q 1041 3444 1763 3444 
z
M 1744 3428 
L 1744 3428 
z
" transform="scale(0.015625)"/>
       <path id="Helvetica-20" transform="scale(0.015625)"/>
       <path id="Helvetica-54" d="M 3828 4591 
L 3828 4044 
L 2281 4044 
L 2281 0 
L 1650 0 
L 1650 4044 
L 103 4044 
L 103 4591 
L 3828 4591 
z
" transform="scale(0.015625)"/>
       <path id="Helvetica-6d" d="M 413 3347 
L 969 3347 
L 969 2872 
Q 1169 3119 1331 3231 
Q 1609 3422 1963 3422 
Q 2363 3422 2606 3225 
Q 2744 3113 2856 2894 
Q 3044 3163 3297 3292 
Q 3550 3422 3866 3422 
Q 4541 3422 4784 2934 
Q 4916 2672 4916 2228 
L 4916 0 
L 4331 0 
L 4331 2325 
Q 4331 2659 4164 2784 
Q 3997 2909 3756 2909 
Q 3425 2909 3186 2687 
Q 2947 2466 2947 1947 
L 2947 0 
L 2375 0 
L 2375 2184 
Q 2375 2525 2294 2681 
Q 2166 2916 1816 2916 
Q 1497 2916 1236 2669 
Q 975 2422 975 1775 
L 975 0 
L 413 0 
L 413 3347 
z
" transform="scale(0.015625)"/>
       <path id="Helvetica-28" d="M 1894 4666 
Q 1403 3713 1256 3263 
Q 1034 2578 1034 1681 
Q 1034 775 1288 25 
Q 1444 -438 1903 -1306 
L 1525 -1306 
Q 1069 -594 959 -397 
Q 850 -200 722 138 
Q 547 600 478 1125 
Q 444 1397 444 1644 
Q 444 2569 734 3291 
Q 919 3750 1503 4666 
L 1894 4666 
z
" transform="scale(0.015625)"/>
       <path id="Helvetica-29" d="M 222 -1306 
Q 719 -338 863 106 
Q 1081 778 1081 1681 
Q 1081 2584 828 3334 
Q 672 3797 213 4666 
L 591 4666 
Q 1072 3897 1173 3717 
Q 1275 3538 1394 3222 
Q 1544 2831 1608 2450 
Q 1672 2069 1672 1716 
Q 1672 791 1378 66 
Q 1194 -400 613 -1306 
L 222 -1306 
z
" transform="scale(0.015625)"/>
      </defs>
      <use xlink:href="#Helvetica-52"/>
      <use xlink:href="#Helvetica-65" x="72.216797"/>
      <use xlink:href="#Helvetica-74" x="127.832031"/>
      <use xlink:href="#Helvetica-65" x="155.615234"/>
      <use xlink:href="#Helvetica-6e" x="211.230469"/>
      <use xlink:href="#Helvetica-74" x="266.845703"/>
      <use xlink:href="#Helvetica-69" x="294.628906"/>
      <use xlink:href="#Helvetica-6f" x="316.845703"/>
      <use xlink:href="#Helvetica-6e" x="372.460938"/>
      <use xlink:href="#Helvetica-20" x="428.076172"/>
      <use xlink:href="#Helvetica-54" x="455.859375"/>
      <use xlink:href="#Helvetica-69" x="516.943359"/>
      <use xlink:href="#Helvetica-6d" x="539.160156"/>
      <use xlink:href="#Helvetica-65" x="622.460938"/>
      <use xlink:href="#Helvetica-20" x="678.076172"/>
      <use xlink:href="#Helvetica-28" x="705.859375"/>
      <use xlink:href="#Helvetica-6d" x="739.160156"/>
      <use xlink:href="#Helvetica-69" x="822.460938"/>
      <use xlink:href="#Helvetica-6e" x="844.677734"/>
      <use xlink:href="#Helvetica-29" x="900.292969"/>
     </g>
    </g>
   </g>
   <g id="matplotlib.axis_2">
    <g id="ytick_1">
     <g id="line2d_10">
      <defs>
       <path id="mb07006ed7c" d="M 0 0 
L 3.5 0 
" style="stroke: #000000; stroke-width: 0.8"/>
      </defs>
      <g>
       <use xlink:href="#mb07006ed7c" x="50.95" y="290.303333" style="stroke: #000000; stroke-width: 0.8"/>
      </g>
     </g>
     <g id="text_11">
      <!-- 0.0 -->
      <g transform="translate(30.77 294.607396) scale(0.12 -0.12)">
       <use xlink:href="#Helvetica-30"/>
       <use xlink:href="#Helvetica-2e" x="55.615234"/>
       <use xlink:href="#Helvetica-30" x="83.398438"/>
      </g>
     </g>
    </g>
    <g id="ytick_2">
     <g id="line2d_11">
      <g>
       <use xlink:href="#mb07006ed7c" x="50.95" y="243.63" style="stroke: #000000; stroke-width: 0.8"/>
      </g>
     </g>
     <g id="text_12">
      <!-- 0.2 -->
      <g transform="translate(30.77 247.934063) scale(0.12 -0.12)">
       <use xlink:href="#Helvetica-30"/>
       <use xlink:href="#Helvetica-2e" x="55.615234"/>
       <use xlink:href="#Helvetica-32" x="83.398438"/>
      </g>
     </g>
    </g>
    <g id="ytick_3">
     <g id="line2d_12">
      <g>
       <use xlink:href="#mb07006ed7c" x="50.95" y="196.956667" style="stroke: #000000; stroke-width: 0.8"/>
      </g>
     </g>
     <g id="text_13">
      <!-- 0.4 -->
      <g transform="translate(30.77 201.260729) scale(0.12 -0.12)">
       <use xlink:href="#Helvetica-30"/>
       <use xlink:href="#Helvetica-2e" x="55.615234"/>
       <use xlink:href="#Helvetica-34" x="83.398438"/>
      </g>
     </g>
    </g>
    <g id="ytick_4">
     <g id="line2d_13">
      <g>
       <use xlink:href="#mb07006ed7c" x="50.95" y="150.283333" style="stroke: #000000; stroke-width: 0.8"/>
      </g>
     </g>
     <g id="text_14">
      <!-- 0.6 -->
      <g transform="translate(30.77 154.587396) scale(0.12 -0.12)">
       <use xlink:href="#Helvetica-30"/>
       <use xlink:href="#Helvetica-2e" x="55.615234"/>
       <use xlink:href="#Helvetica-36" x="83.398438"/>
      </g>
     </g>
    </g>
    <g id="ytick_5">
     <g id="line2d_14">
      <g>
       <use xlink:href="#mb07006ed7c" x="50.95" y="103.61" style="stroke: #000000; stroke-width: 0.8"/>
      </g>
     </g>
     <g id="text_15">
      <!-- 0.8 -->
      <g transform="translate(30.77 107.914062) scale(0.12 -0.12)">
       <use xlink:href="#Helvetica-30"/>
       <use xlink:href="#Helvetica-2e" x="55.615234"/>
       <use xlink:href="#Helvetica-38" x="83.398438"/>
      </g>
     </g>
    </g>
    <g id="ytick_6">
     <g id="line2d_15">
      <g>
       <use xlink:href="#mb07006ed7c" x="50.95" y="56.936667" style="stroke: #000000; stroke-width: 0.8"/>
      </g>
     </g>
     <g id="text_16">
      <!-- 1.0 -->
      <g transform="translate(30.77 61.240729) scale(0.12 -0.12)">
       <defs>
        <path id="Helvetica-31" d="M 613 3169 
L 613 3600 
Q 1222 3659 1462 3798 
Q 1703 3938 1822 4456 
L 2266 4456 
L 2266 0 
L 1666 0 
L 1666 3169 
L 613 3169 
z
" transform="scale(0.015625)"/>
       </defs>
       <use xlink:href="#Helvetica-31"/>
       <use xlink:href="#Helvetica-2e" x="55.615234"/>
       <use xlink:href="#Helvetica-30" x="83.398438"/>
      </g>
     </g>
    </g>
    <g id="text_17">
     <!-- Normalized Intensity -->
     <g transform="translate(24.1975 227.971563) rotate(-90) scale(0.12 -0.12)">
      <defs>
       <path id="Helvetica-4e" d="M 488 4591 
L 1222 4591 
L 3541 872 
L 3541 4591 
L 4131 4591 
L 4131 0 
L 3434 0 
L 1081 3716 
L 1081 0 
L 488 0 
L 488 4591 
z
M 2269 4591 
L 2269 4591 
z
" transform="scale(0.015625)"/>
       <path id="Helvetica-72" d="M 428 3347 
L 963 3347 
L 963 2769 
Q 1028 2938 1284 3180 
Q 1541 3422 1875 3422 
Q 1891 3422 1928 3419 
Q 1966 3416 2056 3406 
L 2056 2813 
Q 2006 2822 1964 2825 
Q 1922 2828 1872 2828 
Q 1447 2828 1219 2554 
Q 991 2281 991 1925 
L 991 0 
L 428 0 
L 428 3347 
z
" transform="scale(0.015625)"/>
       <path id="Helvetica-61" d="M 844 891 
Q 844 647 1022 506 
Q 1200 366 1444 366 
Q 1741 366 2019 503 
Q 2488 731 2488 1250 
L 2488 1703 
Q 2384 1638 2221 1594 
Q 2059 1550 1903 1531 
L 1563 1488 
Q 1256 1447 1103 1359 
Q 844 1213 844 891 
z
M 2206 2028 
Q 2400 2053 2466 2191 
Q 2503 2266 2503 2406 
Q 2503 2694 2298 2823 
Q 2094 2953 1713 2953 
Q 1272 2953 1088 2716 
Q 984 2584 953 2325 
L 428 2325 
Q 444 2944 830 3186 
Q 1216 3428 1725 3428 
Q 2316 3428 2684 3203 
Q 3050 2978 3050 2503 
L 3050 575 
Q 3050 488 3086 434 
Q 3122 381 3238 381 
Q 3275 381 3322 386 
Q 3369 391 3422 400 
L 3422 -16 
Q 3291 -53 3222 -62 
Q 3153 -72 3034 -72 
Q 2744 -72 2613 134 
Q 2544 244 2516 444 
Q 2344 219 2022 53 
Q 1700 -113 1313 -113 
Q 847 -113 551 170 
Q 256 453 256 878 
Q 256 1344 547 1600 
Q 838 1856 1309 1916 
L 2206 2028 
z
M 1741 3428 
L 1741 3428 
z
" transform="scale(0.015625)"/>
       <path id="Helvetica-6c" d="M 428 4591 
L 991 4591 
L 991 0 
L 428 0 
L 428 4591 
z
" transform="scale(0.015625)"/>
       <path id="Helvetica-7a" d="M 163 444 
L 2147 2844 
L 309 2844 
L 309 3347 
L 2903 3347 
L 2903 2888 
L 931 503 
L 2963 503 
L 2963 0 
L 163 0 
L 163 444 
z
M 1609 3428 
L 1609 3428 
z
" transform="scale(0.015625)"/>
       <path id="Helvetica-64" d="M 769 1634 
Q 769 1097 997 734 
Q 1225 372 1728 372 
Q 2119 372 2370 708 
Q 2622 1044 2622 1672 
Q 2622 2306 2362 2611 
Q 2103 2916 1722 2916 
Q 1297 2916 1033 2591 
Q 769 2266 769 1634 
z
M 1616 3406 
Q 2000 3406 2259 3244 
Q 2409 3150 2600 2916 
L 2600 4606 
L 3141 4606 
L 3141 0 
L 2634 0 
L 2634 466 
Q 2438 156 2169 18 
Q 1900 -119 1553 -119 
Q 994 -119 584 351 
Q 175 822 175 1603 
Q 175 2334 548 2870 
Q 922 3406 1616 3406 
z
" transform="scale(0.015625)"/>
       <path id="Helvetica-49" d="M 628 4591 
L 1256 4591 
L 1256 0 
L 628 0 
L 628 4591 
z
" transform="scale(0.015625)"/>
       <path id="Helvetica-73" d="M 747 1050 
Q 772 769 888 619 
Q 1100 347 1625 347 
Q 1938 347 2175 483 
Q 2413 619 2413 903 
Q 2413 1119 2222 1231 
Q 2100 1300 1741 1391 
L 1294 1503 
Q 866 1609 663 1741 
Q 300 1969 300 2372 
Q 300 2847 642 3140 
Q 984 3434 1563 3434 
Q 2319 3434 2653 2991 
Q 2863 2709 2856 2384 
L 2325 2384 
Q 2309 2575 2191 2731 
Q 1997 2953 1519 2953 
Q 1200 2953 1036 2831 
Q 872 2709 872 2509 
Q 872 2291 1088 2159 
Q 1213 2081 1456 2022 
L 1828 1931 
Q 2434 1784 2641 1647 
Q 2969 1431 2969 969 
Q 2969 522 2630 197 
Q 2291 -128 1597 -128 
Q 850 -128 539 211 
Q 228 550 206 1050 
L 747 1050 
z
M 1578 3428 
L 1578 3428 
z
" transform="scale(0.015625)"/>
       <path id="Helvetica-79" d="M 2503 3347 
L 3125 3347 
Q 3006 3025 2597 1878 
Q 2291 1016 2084 472 
Q 1597 -809 1397 -1090 
Q 1197 -1372 709 -1372 
Q 591 -1372 527 -1362 
Q 463 -1353 369 -1328 
L 369 -816 
Q 516 -856 581 -865 
Q 647 -875 697 -875 
Q 853 -875 926 -823 
Q 1000 -772 1050 -697 
Q 1066 -672 1162 -440 
Q 1259 -209 1303 -97 
L 66 3347 
L 703 3347 
L 1600 622 
L 2503 3347 
z
M 1597 3428 
L 1597 3428 
z
" transform="scale(0.015625)"/>
      </defs>
      <use xlink:href="#Helvetica-4e"/>
      <use xlink:href="#Helvetica-6f" x="72.216797"/>
      <use xlink:href="#Helvetica-72" x="127.832031"/>
      <use xlink:href="#Helvetica-6d" x="161.132812"/>
      <use xlink:href="#Helvetica-61" x="244.433594"/>
      <use xlink:href="#Helvetica-6c" x="300.048828"/>
      <use xlink:href="#Helvetica-69" x="322.265625"/>
      <use xlink:href="#Helvetica-7a" x="344.482422"/>
      <use xlink:href="#Helvetica-65" x="394.482422"/>
      <use xlink:href="#Helvetica-64" x="450.097656"/>
      <use xlink:href="#Helvetica-20" x="505.712891"/>
      <use xlink:href="#Helvetica-49" x="533.496094"/>
      <use xlink:href="#Helvetica-6e" x="561.279297"/>
      <use xlink:href="#Helvetica-74" x="616.894531"/>
      <use xlink:href="#Helvetica-65" x="644.677734"/>
      <use xlink:href="#Helvetica-6e" x="700.292969"/>
      <use xlink:href="#Helvetica-73" x="755.908203"/>
      <use xlink:href="#Helvetica-69" x="805.908203"/>
      <use xlink:href="#Helvetica-74" x="828.125"/>
      <use xlink:href="#Helvetica-79" x="855.908203"/>
     </g>
    </g>
   </g>
   <g id="line2d_16">
    <path d="M 50.515722 289.821102 
L 51.815956 289.834497 
L 53.11619 289.955055 
L 57.451172 289.827799 
L 58.317128 290.015334 
L 62.652109 289.841195 
L 63.952344 289.874683 
L 67.853047 289.85459 
L 70.453516 289.961753 
L 77.388966 289.948357 
L 78.6892 289.901474 
L 79.555156 289.867985 
L 81.721347 289.901474 
L 83.890138 289.861288 
L 84.756094 289.720637 
L 87.356563 289.908171 
L 89.091075 289.901474 
L 90.39131 289.754125 
L 93.423456 289.921567 
L 94.72369 289.821102 
L 96.458203 289.874683 
L 98.624394 289.955055 
L 99.924628 289.707241 
L 100.793185 289.720637 
L 102.093419 289.847892 
L 104.693888 289.74073 
L 105.994122 289.65366 
L 107.294356 289.847892 
L 108.594591 289.921567 
L 109.894825 289.787613 
L 112.926972 289.85459 
L 113.36125 289.914869 
L 115.52744 289.720637 
L 120.728378 289.700544 
L 122.028612 289.646962 
L 123.763125 289.760823 
L 125.063359 289.707241 
L 126.797872 289.747427 
L 127.663828 289.734032 
L 128.964062 289.821102 
L 136.33119 289.687148 
L 138.931659 289.626869 
L 140.231894 289.606776 
L 141.532128 289.720637 
L 145.432831 289.626869 
L 148.467578 289.65366 
L 149.333534 289.479521 
L 150.202091 289.479521 
L 151.502325 289.5398 
L 154.102794 289.439335 
L 155.403028 289.291986 
L 157.569219 289.466125 
L 158.435175 289.446032 
L 159.303731 289.332172 
L 161.469922 289.2518 
L 163.204435 289.385754 
L 164.936347 289.184824 
L 167.536815 289.325475 
L 168.83705 289.305382 
L 170.571563 289.077661 
L 171.437519 289.057568 
L 173.60631 289.218312 
L 177.072734 288.970498 
L 178.807247 289.104452 
L 179.673203 288.896824 
L 180.539159 288.903522 
L 181.407716 288.950405 
L 182.70795 288.816452 
L 184.008185 288.876731 
L 185.740097 288.756173 
L 193.109825 288.662406 
L 203.077422 287.945756 
L 205.243612 287.497013 
L 206.112169 287.403245 
L 209.144315 286.653107 
L 210.012872 286.224457 
L 212.179062 285.628365 
L 213.479297 285.072459 
L 214.345253 284.442878 
L 216.079766 283.485113 
L 218.245956 282.165673 
L 222.580937 277.550983 
L 223.446894 276.439171 
L 224.747128 274.336105 
L 228.647831 267.189699 
L 229.516388 264.872307 
L 231.682578 259.10562 
L 233.417091 254.122559 
L 235.583281 246.393456 
L 237.317794 239.923513 
L 238.618028 234.083151 
L 240.784219 223.748658 
L 243.818966 208.223475 
L 244.684922 202.691206 
L 247.285391 187.005279 
L 250.320138 168.278614 
L 251.186094 162.049787 
L 258.553222 114.623637 
L 258.9875 112.49378 
L 259.853456 106.874441 
L 260.722013 102.00524 
L 261.15369 100.123197 
L 262.022247 95.01288 
L 262.888203 90.612515 
L 263.322481 88.911309 
L 264.188437 84.32341 
L 265.054394 80.485649 
L 265.488672 79.045652 
L 266.354628 75.341844 
L 267.223185 72.227431 
L 267.654862 71.05534 
L 268.523419 68.007903 
L 269.389375 65.436001 
L 269.823653 64.538514 
L 270.689609 62.448843 
L 271.555565 60.79452 
L 273.724356 58.041781 
L 275.024591 57.023736 
L 275.456269 56.936667 
L 276.324825 57.050527 
L 277.62506 57.566247 
L 278.491016 58.169037 
L 280.657206 60.660567 
L 283.691953 67.137207 
L 284.992188 70.090877 
L 286.292422 74.029102 
L 288.026935 79.655139 
L 288.892891 82.608808 
L 289.327169 83.740713 
L 290.627403 88.542938 
L 292.793594 96.754272 
L 295.394063 106.686906 
L 295.828341 108.013044 
L 296.694297 111.716851 
L 299.729044 123.705668 
L 300.160722 125.051898 
L 301.029278 128.782496 
L 306.230216 148.379858 
L 306.661894 149.652413 
L 307.53045 153.041431 
L 310.130919 162.130159 
L 312.731388 170.569215 
L 313.163065 171.660934 
L 314.031622 174.661487 
L 317.063769 183.622959 
L 317.498047 184.560632 
L 318.364003 187.186116 
L 320.964472 194.051221 
L 323.56494 200.434093 
L 323.999219 201.177534 
L 325.299453 204.31204 
L 327.899922 209.95817 
L 328.3342 210.681517 
L 329.200156 212.469793 
L 330.934669 215.751648 
L 332.234903 218.196295 
L 332.666581 218.799085 
L 333.535138 220.453407 
L 338.736075 228.845579 
L 339.167753 229.280927 
L 343.068456 234.927057 
L 346.103203 238.704539 
L 347.403438 240.59328 
L 347.837716 241.02193 
L 348.703672 242.194021 
L 351.304141 245.060621 
L 353.904609 248.349173 
L 354.338888 248.684056 
L 359.539825 254.410558 
L 361.706016 256.567206 
L 363.872206 259.011853 
L 366.040997 260.954175 
L 367.772909 262.575009 
L 369.073144 263.86096 
L 369.507422 264.128867 
L 371.241935 265.602353 
L 372.973847 267.035653 
L 374.274081 268.154162 
L 375.574315 269.091835 
L 376.442872 269.654439 
L 378.609063 271.248483 
L 383.375722 274.168664 
L 388.576659 276.881217 
L 389.445216 277.209402 
L 391.611406 278.22075 
L 394.211875 279.191911 
L 395.077831 279.386143 
L 395.946388 279.76791 
L 397.246622 280.297025 
L 401.579003 281.529395 
L 403.747794 282.118789 
L 405.048028 282.212557 
L 407.214219 282.835439 
L 408.948731 283.304276 
L 410.680644 283.324369 
L 412.849435 283.89367 
L 415.015625 284.154879 
L 416.750138 284.32232 
L 418.916328 284.804552 
L 419.782284 284.804552 
L 421.082519 284.92511 
L 421.951075 284.978691 
L 424.551544 285.434132 
L 425.851778 285.44083 
L 430.618438 285.929759 
L 431.918672 286.050317 
L 436.253653 286.425387 
L 448.821719 287.155432 
L 449.687675 287.128641 
L 454.022656 287.409943 
L 454.888612 287.356362 
L 459.223594 287.570687 
L 460.08955 287.530501 
L 461.824063 287.738128 
L 463.124297 287.865384 
L 463.990253 287.90557 
L 465.290487 287.664454 
L 466.159044 287.771617 
L 467.459278 287.959151 
L 467.459278 287.959151 
" clip-path="url(#p6a009f5228)" style="fill: none; stroke: #969696; stroke-width: 1.2; stroke-linecap: square"/>
   </g>
   <g id="line2d_17">
    <path d="M 50.515722 287.998028 
L 53.11619 288.048583 
L 56.150938 287.932307 
L 59.185685 287.836252 
L 60.051641 287.805919 
L 62.217831 287.795808 
L 67.853047 287.725031 
L 69.58756 287.583477 
L 72.619706 287.588533 
L 74.354219 287.426757 
L 75.654453 287.416646 
L 77.388966 287.452035 
L 82.155625 287.270037 
L 83.021581 287.224537 
L 84.321815 287.027373 
L 87.356563 287.022318 
L 105.125565 285.677556 
L 115.52744 284.802956 
L 116.827675 284.777678 
L 118.562188 284.519848 
L 122.897169 284.226629 
L 124.629081 284.039576 
L 126.363594 284.014299 
L 132.430487 283.296418 
L 133.730722 283.028477 
L 135.899513 282.74537 
L 137.199747 282.431929 
L 140.231894 281.602828 
L 141.532128 281.259054 
L 142.832362 280.70295 
L 146.301388 279.42391 
L 154.102794 275.192461 
L 157.13494 273.321928 
L 158.869453 272.234997 
L 163.204435 269.687028 
L 164.504669 268.974203 
L 165.804903 268.352378 
L 167.105138 267.573832 
L 168.83705 266.886284 
L 172.737753 265.425246 
L 174.472266 265.071362 
L 177.507013 264.666922 
L 180.107481 264.611312 
L 180.973438 264.631534 
L 182.70795 264.611312 
L 189.6408 265.799353 
L 190.509356 266.02685 
L 191.809591 266.198737 
L 194.41006 266.941895 
L 196.141972 267.422167 
L 198.310763 267.922661 
L 200.042675 268.458543 
L 202.211466 268.88826 
L 205.243612 269.565696 
L 207.844081 269.828582 
L 209.578594 270.005524 
L 211.313106 269.949914 
L 214.779531 269.702195 
L 217.814278 268.595041 
L 219.54619 267.695163 
L 220.846425 266.79023 
L 223.446894 264.515258 
L 224.31545 263.585047 
L 225.615685 261.845957 
L 227.347597 259.267655 
L 229.082109 256.219192 
L 230.382344 253.489225 
L 232.982812 247.053581 
L 234.717325 241.993031 
L 236.883516 234.601899 
L 239.483984 224.485855 
L 242.084453 212.570055 
L 244.250644 201.645132 
L 247.285391 184.668783 
L 249.885859 169.087749 
L 259.853456 107.91627 
L 262.022247 96.126858 
L 264.188437 85.626596 
L 265.488672 79.833 
L 266.788906 74.843227 
L 268.523419 69.019298 
L 269.823653 65.333842 
L 271.123888 62.300546 
L 271.989844 60.65751 
L 273.290078 58.883032 
L 274.590312 57.53827 
L 275.456269 57.042832 
L 276.324825 56.936667 
L 277.190781 57.02261 
L 278.056737 57.406828 
L 278.925294 58.003376 
L 280.225528 59.327915 
L 281.091484 60.606955 
L 282.391719 62.983038 
L 284.126231 66.628049 
L 285.426466 69.893898 
L 287.158378 74.823005 
L 290.193125 84.605386 
L 292.793594 94.10466 
L 296.694297 108.927369 
L 303.195469 133.997564 
L 309.262362 155.928298 
L 312.731388 167.530657 
L 315.763534 176.736712 
L 318.364003 184.168289 
L 321.39875 192.130692 
L 323.133263 196.367196 
L 327.899922 206.953401 
L 332.234903 215.305077 
L 337.001563 223.221981 
L 339.167753 226.391776 
L 343.937013 233.034695 
L 346.103203 235.820273 
L 347.403438 237.488586 
L 349.13795 239.505728 
L 350.869862 241.669479 
L 353.470331 244.652221 
L 359.539825 251.376028 
L 367.772909 259.621539 
L 369.9417 261.588126 
L 372.542169 263.82771 
L 375.142638 266.006628 
L 377.743106 267.958049 
L 379.909297 269.494919 
L 381.209531 270.47063 
L 383.375722 271.734503 
L 386.844747 273.716257 
L 395.512109 277.669653 
L 396.812344 278.084204 
L 398.546856 278.665586 
L 400.278769 279.226746 
L 405.048028 280.606896 
L 405.913984 280.849559 
L 407.648497 281.163 
L 409.380409 281.537106 
L 415.449903 282.735259 
L 418.050372 283.053755 
L 427.152013 284.256962 
L 428.452247 284.38335 
L 430.618438 284.701846 
L 431.484394 284.681624 
L 436.685331 285.242784 
L 438.419844 285.424781 
L 440.154356 285.566335 
L 441.454591 285.596668 
L 444.921016 285.996052 
L 447.955763 286.117384 
L 449.687675 286.269049 
L 451.856466 286.299382 
L 460.08955 286.799876 
L 462.258341 286.835264 
L 464.85881 287.002096 
L 466.159044 286.981874 
L 467.459278 287.067817 
L 467.459278 287.067817 
" clip-path="url(#p6a009f5228)" style="fill: none; stroke: #3690c0; stroke-width: 1.2; stroke-linecap: square"/>
   </g>
   <g id="patch_3">
    <path d="M 50.95 313.64 
L 50.95 33.6 
" style="fill: none; stroke: #000000; stroke-width: 0.5; stroke-linejoin: miter; stroke-linecap: square"/>
   </g>
   <g id="patch_4">
    <path d="M 50.95 313.64 
L 467.025 313.64 
" style="fill: none; stroke: #000000; stroke-width: 0.5; stroke-linejoin: miter; stroke-linecap: square"/>
   </g>
   <g id="legend_1">
    <g id="text_18">
     <!-- Experiment Conditions -->
     <g transform="translate(358.31125 48.16875) scale(0.1 -0.1)">
      <defs>
       <path id="Helvetica-45" d="M 547 4591 
L 3894 4591 
L 3894 4028 
L 1153 4028 
L 1153 2634 
L 3688 2634 
L 3688 2103 
L 1153 2103 
L 1153 547 
L 3941 547 
L 3941 0 
L 547 0 
L 547 4591 
z
M 2244 4591 
L 2244 4591 
z
" transform="scale(0.015625)"/>
       <path id="Helvetica-78" d="M 94 3347 
L 822 3347 
L 1591 2169 
L 2369 3347 
L 3053 3331 
L 1925 1716 
L 3103 0 
L 2384 0 
L 1553 1256 
L 747 0 
L 34 0 
L 1213 1716 
L 94 3347 
z
" transform="scale(0.015625)"/>
       <path id="Helvetica-70" d="M 1825 378 
Q 2219 378 2480 708 
Q 2741 1038 2741 1694 
Q 2741 2094 2625 2381 
Q 2406 2934 1825 2934 
Q 1241 2934 1025 2350 
Q 909 2038 909 1556 
Q 909 1169 1025 897 
Q 1244 378 1825 378 
z
M 369 3331 
L 916 3331 
L 916 2888 
Q 1084 3116 1284 3241 
Q 1569 3428 1953 3428 
Q 2522 3428 2919 2992 
Q 3316 2556 3316 1747 
Q 3316 653 2744 184 
Q 2381 -113 1900 -113 
Q 1522 -113 1266 53 
Q 1116 147 931 375 
L 931 -1334 
L 369 -1334 
L 369 3331 
z
" transform="scale(0.015625)"/>
       <path id="Helvetica-43" d="M 2422 4716 
Q 3294 4716 3775 4256 
Q 4256 3797 4309 3213 
L 3703 3213 
Q 3600 3656 3292 3915 
Q 2984 4175 2428 4175 
Q 1750 4175 1333 3698 
Q 916 3222 916 2238 
Q 916 1431 1292 929 
Q 1669 428 2416 428 
Q 3103 428 3463 956 
Q 3653 1234 3747 1688 
L 4353 1688 
Q 4272 963 3816 472 
Q 3269 -119 2341 -119 
Q 1541 -119 997 366 
Q 281 1006 281 2344 
Q 281 3359 819 4009 
Q 1400 4716 2422 4716 
z
M 2297 4716 
L 2297 4716 
z
" transform="scale(0.015625)"/>
      </defs>
      <use xlink:href="#Helvetica-45"/>
      <use xlink:href="#Helvetica-78" x="66.699219"/>
      <use xlink:href="#Helvetica-70" x="116.699219"/>
      <use xlink:href="#Helvetica-65" x="172.314453"/>
      <use xlink:href="#Helvetica-72" x="227.929688"/>
      <use xlink:href="#Helvetica-69" x="261.230469"/>
      <use xlink:href="#Helvetica-6d" x="283.447266"/>
      <use xlink:href="#Helvetica-65" x="366.748047"/>
      <use xlink:href="#Helvetica-6e" x="422.363281"/>
      <use xlink:href="#Helvetica-74" x="477.978516"/>
      <use xlink:href="#Helvetica-20" x="505.761719"/>
      <use xlink:href="#Helvetica-43" x="533.544922"/>
      <use xlink:href="#Helvetica-6f" x="605.761719"/>
      <use xlink:href="#Helvetica-6e" x="661.376953"/>
      <use xlink:href="#Helvetica-64" x="716.992188"/>
      <use xlink:href="#Helvetica-69" x="772.607422"/>
      <use xlink:href="#Helvetica-74" x="794.824219"/>
      <use xlink:href="#Helvetica-69" x="822.607422"/>
      <use xlink:href="#Helvetica-6f" x="844.824219"/>
      <use xlink:href="#Helvetica-6e" x="900.439453"/>
      <use xlink:href="#Helvetica-73" x="956.054688"/>
     </g>
    </g>
    <g id="line2d_18">
     <path d="M 357.3975 57.191875 
L 365.3975 57.191875 
L 373.3975 57.191875 
" style="fill: none; stroke: #969696; stroke-width: 1.2; stroke-linecap: square"/>
    </g>
    <g id="text_19">
     <!-- PS-19.6K -->
     <g transform="translate(379.7975 59.991875) scale(0.08 -0.08)">
      <defs>
       <path id="Helvetica-50" d="M 547 4591 
L 2613 4591 
Q 3225 4591 3600 4245 
Q 3975 3900 3975 3275 
Q 3975 2738 3640 2339 
Q 3306 1941 2613 1941 
L 1169 1941 
L 1169 0 
L 547 0 
L 547 4591 
z
M 3347 3272 
Q 3347 3778 2972 3959 
Q 2766 4056 2406 4056 
L 1169 4056 
L 1169 2466 
L 2406 2466 
Q 2825 2466 3086 2644 
Q 3347 2822 3347 3272 
z
" transform="scale(0.015625)"/>
       <path id="Helvetica-53" d="M 894 1481 
Q 916 1091 1078 847 
Q 1388 391 2169 391 
Q 2519 391 2806 491 
Q 3363 684 3363 1184 
Q 3363 1559 3128 1719 
Q 2891 1875 2384 1991 
L 1763 2131 
Q 1153 2269 900 2434 
Q 463 2722 463 3294 
Q 463 3913 891 4309 
Q 1319 4706 2103 4706 
Q 2825 4706 3329 4357 
Q 3834 4009 3834 3244 
L 3250 3244 
Q 3203 3613 3050 3809 
Q 2766 4169 2084 4169 
Q 1534 4169 1293 3937 
Q 1053 3706 1053 3400 
Q 1053 3063 1334 2906 
Q 1519 2806 2169 2656 
L 2813 2509 
Q 3278 2403 3531 2219 
Q 3969 1897 3969 1284 
Q 3969 522 3414 194 
Q 2859 -134 2125 -134 
Q 1269 -134 784 303 
Q 300 738 309 1481 
L 894 1481 
z
M 2150 4716 
L 2150 4716 
z
" transform="scale(0.015625)"/>
       <path id="Helvetica-2d" d="M 266 2072 
L 1834 2072 
L 1834 1494 
L 266 1494 
L 266 2072 
z
" transform="scale(0.015625)"/>
       <path id="Helvetica-39" d="M 850 1081 
Q 875 616 1209 438 
Q 1381 344 1597 344 
Q 2000 344 2284 680 
Q 2569 1016 2688 2044 
Q 2500 1747 2223 1626 
Q 1947 1506 1628 1506 
Q 981 1506 604 1909 
Q 228 2313 228 2947 
Q 228 3556 600 4018 
Q 972 4481 1697 4481 
Q 2675 4481 3047 3600 
Q 3253 3116 3253 2388 
Q 3253 1566 3006 931 
Q 2597 -125 1619 -125 
Q 963 -125 622 219 
Q 281 563 281 1081 
L 850 1081 
z
M 1703 2000 
Q 2038 2000 2314 2220 
Q 2591 2441 2591 2991 
Q 2591 3484 2342 3726 
Q 2094 3969 1709 3969 
Q 1297 3969 1055 3692 
Q 813 3416 813 2953 
Q 813 2516 1025 2258 
Q 1238 2000 1703 2000 
z
" transform="scale(0.015625)"/>
       <path id="Helvetica-4b" d="M 488 4591 
L 1094 4591 
L 1094 2353 
L 3331 4591 
L 4191 4591 
L 2281 2741 
L 4244 0 
L 3434 0 
L 1828 2303 
L 1094 1600 
L 1094 0 
L 488 0 
L 488 4591 
z
" transform="scale(0.015625)"/>
      </defs>
      <use xlink:href="#Helvetica-50"/>
      <use xlink:href="#Helvetica-53" x="66.699219"/>
      <use xlink:href="#Helvetica-2d" x="133.398438"/>
      <use xlink:href="#Helvetica-31" x="166.699219"/>
      <use xlink:href="#Helvetica-39" x="222.314453"/>
      <use xlink:href="#Helvetica-2e" x="277.929688"/>
      <use xlink:href="#Helvetica-36" x="305.712891"/>
      <use xlink:href="#Helvetica-4b" x="361.328125"/>
     </g>
    </g>
    <g id="line2d_19">
     <path d="M 357.3975 68.598125 
L 365.3975 68.598125 
L 373.3975 68.598125 
" style="fill: none; stroke: #3690c0; stroke-width: 1.2; stroke-linecap: square"/>
    </g>
    <g id="text_20">
     <!-- PS-19.6K-SCF3-crude -->
     <g transform="translate(379.7975 71.398125) scale(0.08 -0.08)">
      <defs>
       <path id="Helvetica-46" d="M 547 4591 
L 3731 4591 
L 3731 4028 
L 1169 4028 
L 1169 2634 
L 3422 2634 
L 3422 2088 
L 1169 2088 
L 1169 0 
L 547 0 
L 547 4591 
z
" transform="scale(0.015625)"/>
       <path id="Helvetica-33" d="M 1663 -122 
Q 869 -122 511 314 
Q 153 750 153 1375 
L 741 1375 
Q 778 941 903 744 
Q 1122 391 1694 391 
Q 2138 391 2406 628 
Q 2675 866 2675 1241 
Q 2675 1703 2392 1887 
Q 2109 2072 1606 2072 
Q 1550 2072 1492 2070 
Q 1434 2069 1375 2066 
L 1375 2563 
Q 1463 2553 1522 2550 
Q 1581 2547 1650 2547 
Q 1966 2547 2169 2647 
Q 2525 2822 2525 3272 
Q 2525 3606 2287 3787 
Q 2050 3969 1734 3969 
Q 1172 3969 956 3594 
Q 838 3388 822 3006 
L 266 3006 
Q 266 3506 466 3856 
Q 809 4481 1675 4481 
Q 2359 4481 2734 4176 
Q 3109 3872 3109 3294 
Q 3109 2881 2888 2625 
Q 2750 2466 2531 2375 
Q 2884 2278 3082 2001 
Q 3281 1725 3281 1325 
Q 3281 684 2859 281 
Q 2438 -122 1663 -122 
z
" transform="scale(0.015625)"/>
       <path id="Helvetica-63" d="M 1703 3444 
Q 2269 3444 2623 3169 
Q 2978 2894 3050 2222 
L 2503 2222 
Q 2453 2531 2275 2736 
Q 2097 2941 1703 2941 
Q 1166 2941 934 2416 
Q 784 2075 784 1575 
Q 784 1072 996 728 
Q 1209 384 1666 384 
Q 2016 384 2220 598 
Q 2425 813 2503 1184 
L 3050 1184 
Q 2956 519 2581 211 
Q 2206 -97 1622 -97 
Q 966 -97 575 383 
Q 184 863 184 1581 
Q 184 2463 612 2953 
Q 1041 3444 1703 3444 
z
M 1616 3428 
L 1616 3428 
z
" transform="scale(0.015625)"/>
       <path id="Helvetica-75" d="M 975 3347 
L 975 1125 
Q 975 869 1056 706 
Q 1206 406 1616 406 
Q 2203 406 2416 931 
Q 2531 1213 2531 1703 
L 2531 3347 
L 3094 3347 
L 3094 0 
L 2563 0 
L 2569 494 
Q 2459 303 2297 172 
Q 1975 -91 1516 -91 
Q 800 -91 541 388 
Q 400 644 400 1072 
L 400 3347 
L 975 3347 
z
M 1747 3428 
L 1747 3428 
z
" transform="scale(0.015625)"/>
      </defs>
      <use xlink:href="#Helvetica-50"/>
      <use xlink:href="#Helvetica-53" x="66.699219"/>
      <use xlink:href="#Helvetica-2d" x="133.398438"/>
      <use xlink:href="#Helvetica-31" x="166.699219"/>
      <use xlink:href="#Helvetica-39" x="222.314453"/>
      <use xlink:href="#Helvetica-2e" x="277.929688"/>
      <use xlink:href="#Helvetica-36" x="305.712891"/>
      <use xlink:href="#Helvetica-4b" x="361.328125"/>
      <use xlink:href="#Helvetica-2d" x="428.027344"/>
      <use xlink:href="#Helvetica-53" x="461.328125"/>
      <use xlink:href="#Helvetica-43" x="528.027344"/>
      <use xlink:href="#Helvetica-46" x="600.244141"/>
      <use xlink:href="#Helvetica-33" x="661.328125"/>
      <use xlink:href="#Helvetica-2d" x="716.943359"/>
      <use xlink:href="#Helvetica-63" x="750.244141"/>
      <use xlink:href="#Helvetica-72" x="800.244141"/>
      <use xlink:href="#Helvetica-75" x="833.544922"/>
      <use xlink:href="#Helvetica-64" x="889.160156"/>
      <use xlink:href="#Helvetica-65" x="944.775391"/>
     </g>
    </g>
   </g>
   <g id="legend_2">
    <g id="text_21">
     <!-- GPC Data -->
     <g transform="translate(367.699844 164.758281) scale(0.1 -0.1)">
      <defs>
       <path id="Helvetica-47" d="M 2472 4709 
Q 3119 4709 3591 4459 
Q 4275 4100 4428 3200 
L 3813 3200 
Q 3700 3703 3347 3933 
Q 2994 4163 2456 4163 
Q 1819 4163 1383 3684 
Q 947 3206 947 2259 
Q 947 1441 1306 927 
Q 1666 413 2478 413 
Q 3100 413 3508 773 
Q 3916 1134 3925 1941 
L 2488 1941 
L 2488 2456 
L 4503 2456 
L 4503 0 
L 4103 0 
L 3953 591 
Q 3638 244 3394 109 
Q 2984 -122 2353 -122 
Q 1538 -122 950 406 
Q 309 1069 309 2225 
Q 309 3378 934 4059 
Q 1528 4709 2472 4709 
z
M 2369 4716 
L 2369 4716 
z
" transform="scale(0.015625)"/>
       <path id="Helvetica-44" d="M 2250 531 
Q 2566 531 2769 597 
Q 3131 719 3363 1066 
Q 3547 1344 3628 1778 
Q 3675 2038 3675 2259 
Q 3675 3113 3336 3584 
Q 2997 4056 2244 4056 
L 1141 4056 
L 1141 531 
L 2250 531 
z
M 516 4591 
L 2375 4591 
Q 3322 4591 3844 3919 
Q 4309 3313 4309 2366 
Q 4309 1634 4034 1044 
Q 3550 0 2369 0 
L 516 0 
L 516 4591 
z
" transform="scale(0.015625)"/>
      </defs>
      <use xlink:href="#Helvetica-47"/>
      <use xlink:href="#Helvetica-50" x="77.783203"/>
      <use xlink:href="#Helvetica-43" x="144.482422"/>
      <use xlink:href="#Helvetica-20" x="216.699219"/>
      <use xlink:href="#Helvetica-44" x="244.482422"/>
      <use xlink:href="#Helvetica-61" x="316.699219"/>
      <use xlink:href="#Helvetica-74" x="372.314453"/>
      <use xlink:href="#Helvetica-61" x="400.097656"/>
     </g>
    </g>
    <g id="line2d_20">
     <path d="M 321.145 173.781406 
L 329.145 173.781406 
L 337.145 173.781406 
" style="fill: none; stroke: #969696; stroke-width: 1.2; stroke-linecap: square"/>
    </g>
    <g id="text_22">
     <!-- Mn=16.7k, Mw=17.9k, Mp=19.5k -->
     <g transform="translate(343.545 176.581406) scale(0.08 -0.08)">
      <defs>
       <path id="Helvetica-4d" d="M 472 4591 
L 1363 4591 
L 2681 709 
L 3991 4591 
L 4872 4591 
L 4872 0 
L 4281 0 
L 4281 2709 
Q 4281 2850 4287 3175 
Q 4294 3500 4294 3872 
L 2984 0 
L 2369 0 
L 1050 3872 
L 1050 3731 
Q 1050 3563 1058 3217 
Q 1066 2872 1066 2709 
L 1066 0 
L 472 0 
L 472 4591 
z
" transform="scale(0.015625)"/>
       <path id="Helvetica-3d" d="M 3547 2569 
L 3547 2044 
L 288 2044 
L 288 2569 
L 3547 2569 
z
M 3547 1228 
L 3547 694 
L 288 694 
L 288 1228 
L 3547 1228 
z
" transform="scale(0.015625)"/>
       <path id="Helvetica-6b" d="M 400 4591 
L 941 4591 
L 941 1925 
L 2384 3347 
L 3103 3347 
L 1822 2094 
L 3175 0 
L 2456 0 
L 1413 1688 
L 941 1256 
L 941 0 
L 400 0 
L 400 4591 
z
" transform="scale(0.015625)"/>
       <path id="Helvetica-2c" d="M 531 -653 
Q 747 -616 834 -350 
Q 881 -209 881 -78 
Q 881 -56 879 -39 
Q 878 -22 872 0 
L 531 0 
L 531 681 
L 1200 681 
L 1200 50 
Q 1200 -322 1050 -603 
Q 900 -884 531 -950 
L 531 -653 
z
" transform="scale(0.015625)"/>
       <path id="Helvetica-77" d="M 672 3347 
L 1316 709 
L 1969 3347 
L 2600 3347 
L 3256 725 
L 3941 3347 
L 4503 3347 
L 3531 0 
L 2947 0 
L 2266 2591 
L 1606 0 
L 1022 0 
L 56 3347 
L 672 3347 
z
" transform="scale(0.015625)"/>
       <path id="Helvetica-35" d="M 791 1141 
Q 847 659 1238 475 
Q 1438 381 1700 381 
Q 2200 381 2440 700 
Q 2681 1019 2681 1406 
Q 2681 1875 2395 2131 
Q 2109 2388 1709 2388 
Q 1419 2388 1211 2275 
Q 1003 2163 856 1963 
L 369 1991 
L 709 4400 
L 3034 4400 
L 3034 3856 
L 1131 3856 
L 941 2613 
Q 1097 2731 1238 2791 
Q 1488 2894 1816 2894 
Q 2431 2894 2859 2497 
Q 3288 2100 3288 1491 
Q 3288 856 2895 371 
Q 2503 -113 1644 -113 
Q 1097 -113 676 195 
Q 256 503 206 1141 
L 791 1141 
z
" transform="scale(0.015625)"/>
      </defs>
      <use xlink:href="#Helvetica-4d"/>
      <use xlink:href="#Helvetica-6e" x="83.300781"/>
      <use xlink:href="#Helvetica-3d" x="138.916016"/>
      <use xlink:href="#Helvetica-31" x="197.314453"/>
      <use xlink:href="#Helvetica-36" x="252.929688"/>
      <use xlink:href="#Helvetica-2e" x="308.544922"/>
      <use xlink:href="#Helvetica-37" x="336.328125"/>
      <use xlink:href="#Helvetica-6b" x="391.943359"/>
      <use xlink:href="#Helvetica-2c" x="441.943359"/>
      <use xlink:href="#Helvetica-20" x="469.726562"/>
      <use xlink:href="#Helvetica-4d" x="497.509766"/>
      <use xlink:href="#Helvetica-77" x="580.810547"/>
      <use xlink:href="#Helvetica-3d" x="653.027344"/>
      <use xlink:href="#Helvetica-31" x="711.425781"/>
      <use xlink:href="#Helvetica-37" x="767.041016"/>
      <use xlink:href="#Helvetica-2e" x="822.65625"/>
      <use xlink:href="#Helvetica-39" x="850.439453"/>
      <use xlink:href="#Helvetica-6b" x="906.054688"/>
      <use xlink:href="#Helvetica-2c" x="956.054688"/>
      <use xlink:href="#Helvetica-20" x="983.837891"/>
      <use xlink:href="#Helvetica-4d" x="1011.621094"/>
      <use xlink:href="#Helvetica-70" x="1094.921875"/>
      <use xlink:href="#Helvetica-3d" x="1150.537109"/>
      <use xlink:href="#Helvetica-31" x="1208.935547"/>
      <use xlink:href="#Helvetica-39" x="1264.550781"/>
      <use xlink:href="#Helvetica-2e" x="1320.166016"/>
      <use xlink:href="#Helvetica-35" x="1347.949219"/>
      <use xlink:href="#Helvetica-6b" x="1403.564453"/>
     </g>
    </g>
    <g id="line2d_21">
     <path d="M 321.145 185.187656 
L 329.145 185.187656 
L 337.145 185.187656 
" style="fill: none; stroke: #3690c0; stroke-width: 1.2; stroke-linecap: square"/>
    </g>
    <g id="text_23">
     <!-- Mn=16.6k, Mw=17.9k, Mp=19.4k -->
     <g transform="translate(343.545 187.987656) scale(0.08 -0.08)">
      <use xlink:href="#Helvetica-4d"/>
      <use xlink:href="#Helvetica-6e" x="83.300781"/>
      <use xlink:href="#Helvetica-3d" x="138.916016"/>
      <use xlink:href="#Helvetica-31" x="197.314453"/>
      <use xlink:href="#Helvetica-36" x="252.929688"/>
      <use xlink:href="#Helvetica-2e" x="308.544922"/>
      <use xlink:href="#Helvetica-36" x="336.328125"/>
      <use xlink:href="#Helvetica-6b" x="391.943359"/>
      <use xlink:href="#Helvetica-2c" x="441.943359"/>
      <use xlink:href="#Helvetica-20" x="469.726562"/>
      <use xlink:href="#Helvetica-4d" x="497.509766"/>
      <use xlink:href="#Helvetica-77" x="580.810547"/>
      <use xlink:href="#Helvetica-3d" x="653.027344"/>
      <use xlink:href="#Helvetica-31" x="711.425781"/>
      <use xlink:href="#Helvetica-37" x="767.041016"/>
      <use xlink:href="#Helvetica-2e" x="822.65625"/>
      <use xlink:href="#Helvetica-39" x="850.439453"/>
      <use xlink:href="#Helvetica-6b" x="906.054688"/>
      <use xlink:href="#Helvetica-2c" x="956.054688"/>
      <use xlink:href="#Helvetica-20" x="983.837891"/>
      <use xlink:href="#Helvetica-4d" x="1011.621094"/>
      <use xlink:href="#Helvetica-70" x="1094.921875"/>
      <use xlink:href="#Helvetica-3d" x="1150.537109"/>
      <use xlink:href="#Helvetica-31" x="1208.935547"/>
      <use xlink:href="#Helvetica-39" x="1264.550781"/>
      <use xlink:href="#Helvetica-2e" x="1320.166016"/>
      <use xlink:href="#Helvetica-34" x="1347.949219"/>
      <use xlink:href="#Helvetica-6b" x="1403.564453"/>
     </g>
    </g>
   </g>
  </g>
 </g>
 <defs>
  <clipPath id="p6a009f5228">
   <rect x="50.95" y="33.6" width="416.075" height="280.04"/>
  </clipPath>
 </defs>
</svg>
