<?xml version="1.0" encoding="utf-8" standalone="no"?>
<!DOCTYPE svg PUBLIC "-//W3C//DTD SVG 1.1//EN"
  "http://www.w3.org/Graphics/SVG/1.1/DTD/svg11.dtd">
<svg xmlns:xlink="http://www.w3.org/1999/xlink" width="504pt" height="360pt" viewBox="0 0 504 360" xmlns="http://www.w3.org/2000/svg" version="1.1">
 <metadata>
  <rdf:RDF xmlns:dc="http://purl.org/dc/elements/1.1/" xmlns:cc="http://creativecommons.org/ns#" xmlns:rdf="http://www.w3.org/1999/02/22-rdf-syntax-ns#">
   <cc:Work>
    <dc:type rdf:resource="http://purl.org/dc/dcmitype/StillImage"/>
    <dc:date>2025-02-25T17:13:21.608148</dc:date>
    <dc:format>image/svg+xml</dc:format>
    <dc:creator>
     <cc:Agent>
      <dc:title>Matplotlib v3.7.1, https://matplotlib.org/</dc:title>
     </cc:Agent>
    </dc:creator>
   </cc:Work>
  </rdf:RDF>
 </metadata>
 <defs>
  <style type="text/css">*{stroke-linejoin: round; stroke-linecap: butt}</style>
 </defs>
 <g id="figure_1">
  <g id="patch_1">
   <path d="M 0 360 
L 504 360 
L 504 0 
L 0 0 
z
" style="fill: #ffffff"/>
  </g>
  <g id="axes_1">
   <g id="patch_2">
    <path d="M 50.95 313.64 
L 467.025 313.64 
L 467.025 33.6 
L 50.95 33.6 
z
" style="fill: #ffffff"/>
   </g>
   <g id="matplotlib.axis_1">
    <g id="xtick_1">
     <g id="line2d_1">
      <defs>
       <path id="m37ceaf19f7" d="M 0 0 
L 0 -3.5 
" style="stroke: #000000; stroke-width: 0.8"/>
      </defs>
      <g>
       <use xlink:href="#m37ceaf19f7" x="50.95" y="313.64" style="stroke: #000000; stroke-width: 0.8"/>
      </g>
     </g>
     <g id="text_1">
      <!-- 5.0 -->
      <g transform="translate(42.61 325.748125) scale(0.12 -0.12)">
       <defs>
        <path id="Helvetica-35" d="M 791 1141 
Q 847 659 1238 475 
Q 1438 381 1700 381 
Q 2200 381 2440 700 
Q 2681 1019 2681 1406 
Q 2681 1875 2395 2131 
Q 2109 2388 1709 2388 
Q 1419 2388 1211 2275 
Q 1003 2163 856 1963 
L 369 1991 
L 709 4400 
L 3034 4400 
L 3034 3856 
L 1131 3856 
L 941 2613 
Q 1097 2731 1238 2791 
Q 1488 2894 1816 2894 
Q 2431 2894 2859 2497 
Q 3288 2100 3288 1491 
Q 3288 856 2895 371 
Q 2503 -113 1644 -113 
Q 1097 -113 676 195 
Q 256 503 206 1141 
L 791 1141 
z
" transform="scale(0.015625)"/>
        <path id="Helvetica-2e" d="M 547 681 
L 1200 681 
L 1200 0 
L 547 0 
L 547 681 
z
" transform="scale(0.015625)"/>
        <path id="Helvetica-30" d="M 1731 4475 
Q 2600 4475 2988 3759 
Q 3288 3206 3288 2244 
Q 3288 1331 3016 734 
Q 2622 -122 1728 -122 
Q 922 -122 528 578 
Q 200 1163 200 2147 
Q 200 2909 397 3456 
Q 766 4475 1731 4475 
z
M 1725 391 
Q 2163 391 2422 778 
Q 2681 1166 2681 2222 
Q 2681 2984 2493 3476 
Q 2306 3969 1766 3969 
Q 1269 3969 1039 3501 
Q 809 3034 809 2125 
Q 809 1441 956 1025 
Q 1181 391 1725 391 
z
" transform="scale(0.015625)"/>
       </defs>
       <use xlink:href="#Helvetica-35"/>
       <use xlink:href="#Helvetica-2e" x="55.615234"/>
       <use xlink:href="#Helvetica-30" x="83.398438"/>
      </g>
     </g>
    </g>
    <g id="xtick_2">
     <g id="line2d_2">
      <g>
       <use xlink:href="#m37ceaf19f7" x="130.964423" y="313.64" style="stroke: #000000; stroke-width: 0.8"/>
      </g>
     </g>
     <g id="text_2">
      <!-- 5.5 -->
      <g transform="translate(122.624423 325.748125) scale(0.12 -0.12)">
       <use xlink:href="#Helvetica-35"/>
       <use xlink:href="#Helvetica-2e" x="55.615234"/>
       <use xlink:href="#Helvetica-35" x="83.398438"/>
      </g>
     </g>
    </g>
    <g id="xtick_3">
     <g id="line2d_3">
      <g>
       <use xlink:href="#m37ceaf19f7" x="210.978846" y="313.64" style="stroke: #000000; stroke-width: 0.8"/>
      </g>
     </g>
     <g id="text_3">
      <!-- 6.0 -->
      <g transform="translate(202.638846 325.748125) scale(0.12 -0.12)">
       <defs>
        <path id="Helvetica-36" d="M 1872 4494 
Q 2622 4494 2917 4105 
Q 3213 3716 3213 3303 
L 2656 3303 
Q 2606 3569 2497 3719 
Q 2294 4000 1881 4000 
Q 1409 4000 1131 3564 
Q 853 3128 822 2316 
Q 1016 2600 1309 2741 
Q 1578 2866 1909 2866 
Q 2472 2866 2890 2506 
Q 3309 2147 3309 1434 
Q 3309 825 2912 354 
Q 2516 -116 1781 -116 
Q 1153 -116 697 361 
Q 241 838 241 1966 
Q 241 2800 444 3381 
Q 834 4494 1872 4494 
z
M 1831 384 
Q 2275 384 2495 682 
Q 2716 981 2716 1388 
Q 2716 1731 2519 2042 
Q 2322 2353 1803 2353 
Q 1441 2353 1167 2112 
Q 894 1872 894 1388 
Q 894 963 1142 673 
Q 1391 384 1831 384 
z
" transform="scale(0.015625)"/>
       </defs>
       <use xlink:href="#Helvetica-36"/>
       <use xlink:href="#Helvetica-2e" x="55.615234"/>
       <use xlink:href="#Helvetica-30" x="83.398438"/>
      </g>
     </g>
    </g>
    <g id="xtick_4">
     <g id="line2d_4">
      <g>
       <use xlink:href="#m37ceaf19f7" x="290.993269" y="313.64" style="stroke: #000000; stroke-width: 0.8"/>
      </g>
     </g>
     <g id="text_4">
      <!-- 6.5 -->
      <g transform="translate(282.653269 325.748125) scale(0.12 -0.12)">
       <use xlink:href="#Helvetica-36"/>
       <use xlink:href="#Helvetica-2e" x="55.615234"/>
       <use xlink:href="#Helvetica-35" x="83.398438"/>
      </g>
     </g>
    </g>
    <g id="xtick_5">
     <g id="line2d_5">
      <g>
       <use xlink:href="#m37ceaf19f7" x="371.007692" y="313.64" style="stroke: #000000; stroke-width: 0.8"/>
      </g>
     </g>
     <g id="text_5">
      <!-- 7.0 -->
      <g transform="translate(362.667692 325.748125) scale(0.12 -0.12)">
       <defs>
        <path id="Helvetica-37" d="M 3347 4400 
L 3347 3909 
Q 3131 3700 2773 3181 
Q 2416 2663 2141 2063 
Q 1869 1478 1728 997 
Q 1638 688 1494 0 
L 872 0 
Q 1084 1281 1809 2550 
Q 2238 3294 2709 3834 
L 234 3834 
L 234 4400 
L 3347 4400 
z
" transform="scale(0.015625)"/>
       </defs>
       <use xlink:href="#Helvetica-37"/>
       <use xlink:href="#Helvetica-2e" x="55.615234"/>
       <use xlink:href="#Helvetica-30" x="83.398438"/>
      </g>
     </g>
    </g>
    <g id="xtick_6">
     <g id="line2d_6">
      <g>
       <use xlink:href="#m37ceaf19f7" x="451.022115" y="313.64" style="stroke: #000000; stroke-width: 0.8"/>
      </g>
     </g>
     <g id="text_6">
      <!-- 7.5 -->
      <g transform="translate(442.682115 325.748125) scale(0.12 -0.12)">
       <use xlink:href="#Helvetica-37"/>
       <use xlink:href="#Helvetica-2e" x="55.615234"/>
       <use xlink:href="#Helvetica-35" x="83.398438"/>
      </g>
     </g>
    </g>
    <g id="text_7">
     <!-- Retention Time (min) -->
     <g transform="translate(202.975625 340.945625) scale(0.12 -0.12)">
      <defs>
       <path id="Helvetica-52" d="M 2622 2488 
Q 3059 2488 3314 2663 
Q 3569 2838 3569 3294 
Q 3569 3784 3213 3963 
Q 3022 4056 2703 4056 
L 1184 4056 
L 1184 2488 
L 2622 2488 
z
M 563 4591 
L 2688 4591 
Q 3213 4591 3553 4438 
Q 4200 4144 4200 3353 
Q 4200 2941 4029 2678 
Q 3859 2416 3553 2256 
Q 3822 2147 3958 1969 
Q 4094 1791 4109 1391 
L 4131 775 
Q 4141 513 4175 384 
Q 4231 166 4375 103 
L 4375 0 
L 3613 0 
Q 3581 59 3562 153 
Q 3544 247 3531 516 
L 3494 1281 
Q 3472 1731 3159 1884 
Q 2981 1969 2600 1969 
L 1184 1969 
L 1184 0 
L 563 0 
L 563 4591 
z
" transform="scale(0.015625)"/>
       <path id="Helvetica-65" d="M 1806 3422 
Q 2163 3422 2497 3255 
Q 2831 3088 3006 2822 
Q 3175 2569 3231 2231 
Q 3281 2000 3281 1494 
L 828 1494 
Q 844 984 1069 676 
Q 1294 369 1766 369 
Q 2206 369 2469 659 
Q 2619 828 2681 1050 
L 3234 1050 
Q 3213 866 3089 639 
Q 2966 413 2813 269 
Q 2556 19 2178 -69 
Q 1975 -119 1719 -119 
Q 1094 -119 659 336 
Q 225 791 225 1609 
Q 225 2416 662 2919 
Q 1100 3422 1806 3422 
z
M 2703 1941 
Q 2669 2306 2544 2525 
Q 2313 2931 1772 2931 
Q 1384 2931 1121 2651 
Q 859 2372 844 1941 
L 2703 1941 
z
M 1753 3428 
L 1753 3428 
z
" transform="scale(0.015625)"/>
       <path id="Helvetica-74" d="M 525 4281 
L 1094 4281 
L 1094 3347 
L 1628 3347 
L 1628 2888 
L 1094 2888 
L 1094 703 
Q 1094 528 1213 469 
Q 1278 434 1431 434 
Q 1472 434 1519 436 
Q 1566 438 1628 444 
L 1628 0 
Q 1531 -28 1426 -40 
Q 1322 -53 1200 -53 
Q 806 -53 665 148 
Q 525 350 525 672 
L 525 2888 
L 72 2888 
L 72 3347 
L 525 3347 
L 525 4281 
z
" transform="scale(0.015625)"/>
       <path id="Helvetica-6e" d="M 413 3347 
L 947 3347 
L 947 2872 
Q 1184 3166 1450 3294 
Q 1716 3422 2041 3422 
Q 2753 3422 3003 2925 
Q 3141 2653 3141 2147 
L 3141 0 
L 2569 0 
L 2569 2109 
Q 2569 2416 2478 2603 
Q 2328 2916 1934 2916 
Q 1734 2916 1606 2875 
Q 1375 2806 1200 2600 
Q 1059 2434 1017 2257 
Q 975 2081 975 1753 
L 975 0 
L 413 0 
L 413 3347 
z
M 1734 3428 
L 1734 3428 
z
" transform="scale(0.015625)"/>
       <path id="Helvetica-69" d="M 413 3331 
L 984 3331 
L 984 0 
L 413 0 
L 413 3331 
z
M 413 4591 
L 984 4591 
L 984 3953 
L 413 3953 
L 413 4591 
z
" transform="scale(0.015625)"/>
       <path id="Helvetica-6f" d="M 1741 363 
Q 2300 363 2508 786 
Q 2716 1209 2716 1728 
Q 2716 2197 2566 2491 
Q 2328 2953 1747 2953 
Q 1231 2953 997 2559 
Q 763 2166 763 1609 
Q 763 1075 997 719 
Q 1231 363 1741 363 
z
M 1763 3444 
Q 2409 3444 2856 3012 
Q 3303 2581 3303 1744 
Q 3303 934 2909 406 
Q 2516 -122 1688 -122 
Q 997 -122 590 345 
Q 184 813 184 1600 
Q 184 2444 612 2944 
Q 1041 3444 1763 3444 
z
M 1744 3428 
L 1744 3428 
z
" transform="scale(0.015625)"/>
       <path id="Helvetica-20" transform="scale(0.015625)"/>
       <path id="Helvetica-54" d="M 3828 4591 
L 3828 4044 
L 2281 4044 
L 2281 0 
L 1650 0 
L 1650 4044 
L 103 4044 
L 103 4591 
L 3828 4591 
z
" transform="scale(0.015625)"/>
       <path id="Helvetica-6d" d="M 413 3347 
L 969 3347 
L 969 2872 
Q 1169 3119 1331 3231 
Q 1609 3422 1963 3422 
Q 2363 3422 2606 3225 
Q 2744 3113 2856 2894 
Q 3044 3163 3297 3292 
Q 3550 3422 3866 3422 
Q 4541 3422 4784 2934 
Q 4916 2672 4916 2228 
L 4916 0 
L 4331 0 
L 4331 2325 
Q 4331 2659 4164 2784 
Q 3997 2909 3756 2909 
Q 3425 2909 3186 2687 
Q 2947 2466 2947 1947 
L 2947 0 
L 2375 0 
L 2375 2184 
Q 2375 2525 2294 2681 
Q 2166 2916 1816 2916 
Q 1497 2916 1236 2669 
Q 975 2422 975 1775 
L 975 0 
L 413 0 
L 413 3347 
z
" transform="scale(0.015625)"/>
       <path id="Helvetica-28" d="M 1894 4666 
Q 1403 3713 1256 3263 
Q 1034 2578 1034 1681 
Q 1034 775 1288 25 
Q 1444 -438 1903 -1306 
L 1525 -1306 
Q 1069 -594 959 -397 
Q 850 -200 722 138 
Q 547 600 478 1125 
Q 444 1397 444 1644 
Q 444 2569 734 3291 
Q 919 3750 1503 4666 
L 1894 4666 
z
" transform="scale(0.015625)"/>
       <path id="Helvetica-29" d="M 222 -1306 
Q 719 -338 863 106 
Q 1081 778 1081 1681 
Q 1081 2584 828 3334 
Q 672 3797 213 4666 
L 591 4666 
Q 1072 3897 1173 3717 
Q 1275 3538 1394 3222 
Q 1544 2831 1608 2450 
Q 1672 2069 1672 1716 
Q 1672 791 1378 66 
Q 1194 -400 613 -1306 
L 222 -1306 
z
" transform="scale(0.015625)"/>
      </defs>
      <use xlink:href="#Helvetica-52"/>
      <use xlink:href="#Helvetica-65" x="72.216797"/>
      <use xlink:href="#Helvetica-74" x="127.832031"/>
      <use xlink:href="#Helvetica-65" x="155.615234"/>
      <use xlink:href="#Helvetica-6e" x="211.230469"/>
      <use xlink:href="#Helvetica-74" x="266.845703"/>
      <use xlink:href="#Helvetica-69" x="294.628906"/>
      <use xlink:href="#Helvetica-6f" x="316.845703"/>
      <use xlink:href="#Helvetica-6e" x="372.460938"/>
      <use xlink:href="#Helvetica-20" x="428.076172"/>
      <use xlink:href="#Helvetica-54" x="455.859375"/>
      <use xlink:href="#Helvetica-69" x="516.943359"/>
      <use xlink:href="#Helvetica-6d" x="539.160156"/>
      <use xlink:href="#Helvetica-65" x="622.460938"/>
      <use xlink:href="#Helvetica-20" x="678.076172"/>
      <use xlink:href="#Helvetica-28" x="705.859375"/>
      <use xlink:href="#Helvetica-6d" x="739.160156"/>
      <use xlink:href="#Helvetica-69" x="822.460938"/>
      <use xlink:href="#Helvetica-6e" x="844.677734"/>
      <use xlink:href="#Helvetica-29" x="900.292969"/>
     </g>
    </g>
   </g>
   <g id="matplotlib.axis_2">
    <g id="ytick_1">
     <g id="line2d_7">
      <defs>
       <path id="m30401854df" d="M 0 0 
L 3.5 0 
" style="stroke: #000000; stroke-width: 0.8"/>
      </defs>
      <g>
       <use xlink:href="#m30401854df" x="50.95" y="290.303333" style="stroke: #000000; stroke-width: 0.8"/>
      </g>
     </g>
     <g id="text_8">
      <!-- 0.0 -->
      <g transform="translate(30.77 294.607396) scale(0.12 -0.12)">
       <use xlink:href="#Helvetica-30"/>
       <use xlink:href="#Helvetica-2e" x="55.615234"/>
       <use xlink:href="#Helvetica-30" x="83.398438"/>
      </g>
     </g>
    </g>
    <g id="ytick_2">
     <g id="line2d_8">
      <g>
       <use xlink:href="#m30401854df" x="50.95" y="243.63" style="stroke: #000000; stroke-width: 0.8"/>
      </g>
     </g>
     <g id="text_9">
      <!-- 0.2 -->
      <g transform="translate(30.77 247.934063) scale(0.12 -0.12)">
       <defs>
        <path id="Helvetica-32" d="M 200 0 
Q 231 578 439 1006 
Q 647 1434 1250 1784 
L 1850 2131 
Q 2253 2366 2416 2531 
Q 2672 2791 2672 3125 
Q 2672 3516 2437 3745 
Q 2203 3975 1813 3975 
Q 1234 3975 1013 3538 
Q 894 3303 881 2888 
L 309 2888 
Q 319 3472 525 3841 
Q 891 4491 1816 4491 
Q 2584 4491 2939 4075 
Q 3294 3659 3294 3150 
Q 3294 2613 2916 2231 
Q 2697 2009 2131 1694 
L 1703 1456 
Q 1397 1288 1222 1134 
Q 909 863 828 531 
L 3272 531 
L 3272 0 
L 200 0 
z
" transform="scale(0.015625)"/>
       </defs>
       <use xlink:href="#Helvetica-30"/>
       <use xlink:href="#Helvetica-2e" x="55.615234"/>
       <use xlink:href="#Helvetica-32" x="83.398438"/>
      </g>
     </g>
    </g>
    <g id="ytick_3">
     <g id="line2d_9">
      <g>
       <use xlink:href="#m30401854df" x="50.95" y="196.956667" style="stroke: #000000; stroke-width: 0.8"/>
      </g>
     </g>
     <g id="text_10">
      <!-- 0.4 -->
      <g transform="translate(30.77 201.260729) scale(0.12 -0.12)">
       <defs>
        <path id="Helvetica-34" d="M 2116 1584 
L 2116 3613 
L 681 1584 
L 2116 1584 
z
M 2125 0 
L 2125 1094 
L 163 1094 
L 163 1644 
L 2213 4488 
L 2688 4488 
L 2688 1584 
L 3347 1584 
L 3347 1094 
L 2688 1094 
L 2688 0 
L 2125 0 
z
" transform="scale(0.015625)"/>
       </defs>
       <use xlink:href="#Helvetica-30"/>
       <use xlink:href="#Helvetica-2e" x="55.615234"/>
       <use xlink:href="#Helvetica-34" x="83.398438"/>
      </g>
     </g>
    </g>
    <g id="ytick_4">
     <g id="line2d_10">
      <g>
       <use xlink:href="#m30401854df" x="50.95" y="150.283333" style="stroke: #000000; stroke-width: 0.8"/>
      </g>
     </g>
     <g id="text_11">
      <!-- 0.6 -->
      <g transform="translate(30.77 154.587396) scale(0.12 -0.12)">
       <use xlink:href="#Helvetica-30"/>
       <use xlink:href="#Helvetica-2e" x="55.615234"/>
       <use xlink:href="#Helvetica-36" x="83.398438"/>
      </g>
     </g>
    </g>
    <g id="ytick_5">
     <g id="line2d_11">
      <g>
       <use xlink:href="#m30401854df" x="50.95" y="103.61" style="stroke: #000000; stroke-width: 0.8"/>
      </g>
     </g>
     <g id="text_12">
      <!-- 0.8 -->
      <g transform="translate(30.77 107.914062) scale(0.12 -0.12)">
       <defs>
        <path id="Helvetica-38" d="M 1741 2600 
Q 2113 2600 2322 2808 
Q 2531 3016 2531 3303 
Q 2531 3553 2331 3762 
Q 2131 3972 1722 3972 
Q 1316 3972 1134 3762 
Q 953 3553 953 3272 
Q 953 2956 1187 2778 
Q 1422 2600 1741 2600 
z
M 1775 384 
Q 2166 384 2423 595 
Q 2681 806 2681 1225 
Q 2681 1659 2415 1884 
Q 2150 2109 1734 2109 
Q 1331 2109 1076 1879 
Q 822 1650 822 1244 
Q 822 894 1055 639 
Q 1288 384 1775 384 
z
M 975 2384 
Q 741 2484 609 2619 
Q 363 2869 363 3269 
Q 363 3769 725 4128 
Q 1088 4488 1753 4488 
Q 2397 4488 2762 4148 
Q 3128 3809 3128 3356 
Q 3128 2938 2916 2678 
Q 2797 2531 2547 2391 
Q 2825 2263 2984 2097 
Q 3281 1784 3281 1284 
Q 3281 694 2884 283 
Q 2488 -128 1763 -128 
Q 1109 -128 657 226 
Q 206 581 206 1256 
Q 206 1653 400 1942 
Q 594 2231 975 2384 
z
" transform="scale(0.015625)"/>
       </defs>
       <use xlink:href="#Helvetica-30"/>
       <use xlink:href="#Helvetica-2e" x="55.615234"/>
       <use xlink:href="#Helvetica-38" x="83.398438"/>
      </g>
     </g>
    </g>
    <g id="ytick_6">
     <g id="line2d_12">
      <g>
       <use xlink:href="#m30401854df" x="50.95" y="56.936667" style="stroke: #000000; stroke-width: 0.8"/>
      </g>
     </g>
     <g id="text_13">
      <!-- 1.0 -->
      <g transform="translate(30.77 61.240729) scale(0.12 -0.12)">
       <defs>
        <path id="Helvetica-31" d="M 613 3169 
L 613 3600 
Q 1222 3659 1462 3798 
Q 1703 3938 1822 4456 
L 2266 4456 
L 2266 0 
L 1666 0 
L 1666 3169 
L 613 3169 
z
" transform="scale(0.015625)"/>
       </defs>
       <use xlink:href="#Helvetica-31"/>
       <use xlink:href="#Helvetica-2e" x="55.615234"/>
       <use xlink:href="#Helvetica-30" x="83.398438"/>
      </g>
     </g>
    </g>
    <g id="text_14">
     <!-- Normalized Intensity -->
     <g transform="translate(24.1975 227.971563) rotate(-90) scale(0.12 -0.12)">
      <defs>
       <path id="Helvetica-4e" d="M 488 4591 
L 1222 4591 
L 3541 872 
L 3541 4591 
L 4131 4591 
L 4131 0 
L 3434 0 
L 1081 3716 
L 1081 0 
L 488 0 
L 488 4591 
z
M 2269 4591 
L 2269 4591 
z
" transform="scale(0.015625)"/>
       <path id="Helvetica-72" d="M 428 3347 
L 963 3347 
L 963 2769 
Q 1028 2938 1284 3180 
Q 1541 3422 1875 3422 
Q 1891 3422 1928 3419 
Q 1966 3416 2056 3406 
L 2056 2813 
Q 2006 2822 1964 2825 
Q 1922 2828 1872 2828 
Q 1447 2828 1219 2554 
Q 991 2281 991 1925 
L 991 0 
L 428 0 
L 428 3347 
z
" transform="scale(0.015625)"/>
       <path id="Helvetica-61" d="M 844 891 
Q 844 647 1022 506 
Q 1200 366 1444 366 
Q 1741 366 2019 503 
Q 2488 731 2488 1250 
L 2488 1703 
Q 2384 1638 2221 1594 
Q 2059 1550 1903 1531 
L 1563 1488 
Q 1256 1447 1103 1359 
Q 844 1213 844 891 
z
M 2206 2028 
Q 2400 2053 2466 2191 
Q 2503 2266 2503 2406 
Q 2503 2694 2298 2823 
Q 2094 2953 1713 2953 
Q 1272 2953 1088 2716 
Q 984 2584 953 2325 
L 428 2325 
Q 444 2944 830 3186 
Q 1216 3428 1725 3428 
Q 2316 3428 2684 3203 
Q 3050 2978 3050 2503 
L 3050 575 
Q 3050 488 3086 434 
Q 3122 381 3238 381 
Q 3275 381 3322 386 
Q 3369 391 3422 400 
L 3422 -16 
Q 3291 -53 3222 -62 
Q 3153 -72 3034 -72 
Q 2744 -72 2613 134 
Q 2544 244 2516 444 
Q 2344 219 2022 53 
Q 1700 -113 1313 -113 
Q 847 -113 551 170 
Q 256 453 256 878 
Q 256 1344 547 1600 
Q 838 1856 1309 1916 
L 2206 2028 
z
M 1741 3428 
L 1741 3428 
z
" transform="scale(0.015625)"/>
       <path id="Helvetica-6c" d="M 428 4591 
L 991 4591 
L 991 0 
L 428 0 
L 428 4591 
z
" transform="scale(0.015625)"/>
       <path id="Helvetica-7a" d="M 163 444 
L 2147 2844 
L 309 2844 
L 309 3347 
L 2903 3347 
L 2903 2888 
L 931 503 
L 2963 503 
L 2963 0 
L 163 0 
L 163 444 
z
M 1609 3428 
L 1609 3428 
z
" transform="scale(0.015625)"/>
       <path id="Helvetica-64" d="M 769 1634 
Q 769 1097 997 734 
Q 1225 372 1728 372 
Q 2119 372 2370 708 
Q 2622 1044 2622 1672 
Q 2622 2306 2362 2611 
Q 2103 2916 1722 2916 
Q 1297 2916 1033 2591 
Q 769 2266 769 1634 
z
M 1616 3406 
Q 2000 3406 2259 3244 
Q 2409 3150 2600 2916 
L 2600 4606 
L 3141 4606 
L 3141 0 
L 2634 0 
L 2634 466 
Q 2438 156 2169 18 
Q 1900 -119 1553 -119 
Q 994 -119 584 351 
Q 175 822 175 1603 
Q 175 2334 548 2870 
Q 922 3406 1616 3406 
z
" transform="scale(0.015625)"/>
       <path id="Helvetica-49" d="M 628 4591 
L 1256 4591 
L 1256 0 
L 628 0 
L 628 4591 
z
" transform="scale(0.015625)"/>
       <path id="Helvetica-73" d="M 747 1050 
Q 772 769 888 619 
Q 1100 347 1625 347 
Q 1938 347 2175 483 
Q 2413 619 2413 903 
Q 2413 1119 2222 1231 
Q 2100 1300 1741 1391 
L 1294 1503 
Q 866 1609 663 1741 
Q 300 1969 300 2372 
Q 300 2847 642 3140 
Q 984 3434 1563 3434 
Q 2319 3434 2653 2991 
Q 2863 2709 2856 2384 
L 2325 2384 
Q 2309 2575 2191 2731 
Q 1997 2953 1519 2953 
Q 1200 2953 1036 2831 
Q 872 2709 872 2509 
Q 872 2291 1088 2159 
Q 1213 2081 1456 2022 
L 1828 1931 
Q 2434 1784 2641 1647 
Q 2969 1431 2969 969 
Q 2969 522 2630 197 
Q 2291 -128 1597 -128 
Q 850 -128 539 211 
Q 228 550 206 1050 
L 747 1050 
z
M 1578 3428 
L 1578 3428 
z
" transform="scale(0.015625)"/>
       <path id="Helvetica-79" d="M 2503 3347 
L 3125 3347 
Q 3006 3025 2597 1878 
Q 2291 1016 2084 472 
Q 1597 -809 1397 -1090 
Q 1197 -1372 709 -1372 
Q 591 -1372 527 -1362 
Q 463 -1353 369 -1328 
L 369 -816 
Q 516 -856 581 -865 
Q 647 -875 697 -875 
Q 853 -875 926 -823 
Q 1000 -772 1050 -697 
Q 1066 -672 1162 -440 
Q 1259 -209 1303 -97 
L 66 3347 
L 703 3347 
L 1600 622 
L 2503 3347 
z
M 1597 3428 
L 1597 3428 
z
" transform="scale(0.015625)"/>
      </defs>
      <use xlink:href="#Helvetica-4e"/>
      <use xlink:href="#Helvetica-6f" x="72.216797"/>
      <use xlink:href="#Helvetica-72" x="127.832031"/>
      <use xlink:href="#Helvetica-6d" x="161.132812"/>
      <use xlink:href="#Helvetica-61" x="244.433594"/>
      <use xlink:href="#Helvetica-6c" x="300.048828"/>
      <use xlink:href="#Helvetica-69" x="322.265625"/>
      <use xlink:href="#Helvetica-7a" x="344.482422"/>
      <use xlink:href="#Helvetica-65" x="394.482422"/>
      <use xlink:href="#Helvetica-64" x="450.097656"/>
      <use xlink:href="#Helvetica-20" x="505.712891"/>
      <use xlink:href="#Helvetica-49" x="533.496094"/>
      <use xlink:href="#Helvetica-6e" x="561.279297"/>
      <use xlink:href="#Helvetica-74" x="616.894531"/>
      <use xlink:href="#Helvetica-65" x="644.677734"/>
      <use xlink:href="#Helvetica-6e" x="700.292969"/>
      <use xlink:href="#Helvetica-73" x="755.908203"/>
      <use xlink:href="#Helvetica-69" x="805.908203"/>
      <use xlink:href="#Helvetica-74" x="828.125"/>
      <use xlink:href="#Helvetica-79" x="855.908203"/>
     </g>
    </g>
   </g>
   <g id="line2d_13">
    <path d="M 50.682752 290.382905 
L 51.750144 290.365223 
L 52.28304 290.497842 
L 53.617681 290.356381 
L 54.417825 290.374064 
L 55.750865 290.365223 
L 56.818258 290.382905 
L 58.684194 290.285651 
L 59.21869 290.321016 
L 59.751587 290.418271 
L 61.084627 290.435953 
L 61.619123 290.427112 
L 62.152019 290.259127 
L 62.952163 290.267968 
L 63.752308 290.365223 
L 65.352596 290.206079 
L 66.15274 290.259127 
L 67.753029 290.418271 
L 68.553173 290.153031 
L 70.686358 290.462477 
L 71.75375 290.14419 
L 72.020998 290.073459 
L 73.621287 290.489001 
L 75.221575 290.153031 
L 75.754471 290.197237 
L 76.821864 290.524366 
L 78.154904 290.14419 
L 78.955048 290.267968 
L 79.755192 290.444794 
L 80.288088 290.453636 
L 81.888377 290.241444 
L 82.955769 290.524366 
L 85.356202 290.232603 
L 86.423594 290.409429 
L 87.223739 290.276809 
L 89.624171 290.409429 
L 95.225181 290.329857 
L 95.758077 290.34754 
L 96.558221 290.197237 
L 98.425758 290.338699 
L 98.958654 290.21492 
L 99.49155 290.356381 
L 101.626335 290.471318 
L 102.159231 290.241444 
L 102.692127 290.285651 
L 103.226623 290.444794 
L 105.892704 290.329857 
L 107.227344 290.603938 
L 108.827633 290.232603 
L 110.427921 290.497842 
L 110.960817 290.471318 
L 111.760962 290.179555 
L 112.293858 290.197237 
L 113.094002 290.338699 
L 114.428642 290.418271 
L 115.494435 290.170714 
L 116.561827 290.542049 
L 117.094723 290.435953 
L 117.629219 290.232603 
L 118.695011 290.14419 
L 119.762404 290.462477 
L 120.029652 290.542049 
L 120.829796 290.321016 
L 121.62994 290.197237 
L 122.695733 290.338699 
L 123.230229 290.435953 
L 124.563269 290.232603 
L 125.363413 290.232603 
L 126.163558 290.489001 
L 127.23095 290.312175 
L 128.031094 290.312175 
L 128.831239 290.250285 
L 129.364135 290.444794 
L 130.964423 290.241444 
L 132.297463 290.241444 
L 132.83196 290.179555 
L 133.632104 290.259127 
L 134.432248 290.232603 
L 134.965144 290.303333 
L 135.765288 290.21492 
L 136.565433 290.161872 
L 138.165721 290.232603 
L 141.899194 290.170714 
L 142.43369 290.091142 
L 143.233835 290.223761 
L 145.099771 290.259127 
L 145.634267 290.046935 
L 146.167163 290.126507 
L 146.70006 290.329857 
L 147.767452 290.338699 
L 149.100492 290.055776 
L 150.700781 290.356381 
L 152.301069 290.046935 
L 154.435854 290.267968 
L 154.96875 290.108824 
L 155.768894 290.126507 
L 156.836287 290.365223 
L 159.502367 290.285651 
L 160.036864 290.471318 
L 161.369904 290.161872 
L 162.702944 290.250285 
L 163.23744 290.374064 
L 163.770337 290.250285 
L 164.570481 290.020411 
L 165.637873 290.073459 
L 166.170769 290.21492 
L 169.104098 290.117666 
L 169.638594 290.14419 
L 170.704386 290.002728 
L 171.238883 290.126507 
L 172.571923 289.985046 
L 175.505252 289.87895 
L 175.7725 289.728647 
L 176.572644 289.781695 
L 177.372788 289.755171 
L 180.306117 289.596028 
L 181.106261 289.764013 
L 181.640758 289.684441 
L 182.173654 289.445725 
L 182.70655 289.445725 
L 184.574087 289.631393 
L 185.907127 289.242375 
L 186.707271 289.392677 
L 188.30756 289.180486 
L 189.107704 289.003659 
L 190.707992 289.251216 
L 192.575529 288.80915 
L 193.375673 288.862198 
L 193.908569 288.94177 
L 195.776106 288.508545 
L 196.843498 288.667689 
L 197.643642 288.455497 
L 199.243931 288.128368 
L 200.044075 288.296353 
L 202.710156 287.615572 
L 203.5103 287.695144 
L 204.577692 287.288443 
L 205.645085 287.129299 
L 206.978125 286.837536 
L 208.311165 286.501565 
L 209.645806 286.139071 
L 210.178702 285.873832 
L 211.246094 285.520179 
L 212.579135 284.804032 
L 214.979567 283.513199 
L 218.71304 280.365689 
L 219.513185 279.207476 
L 220.847825 277.598355 
L 221.913617 275.89198 
L 224.848546 269.826834 
L 228.049123 259.685839 
L 230.715204 247.64396 
L 231.782596 241.463876 
L 233.915781 227.715622 
L 236.316213 208.574162 
L 237.916502 194.242381 
L 241.384327 160.318233 
L 244.317656 131.05346 
L 246.718088 109.02973 
L 248.585625 93.911071 
L 250.185913 82.762165 
L 251.518954 74.972961 
L 252.853594 68.60721 
L 253.653739 65.415493 
L 254.719531 62.082315 
L 255.786923 59.421078 
L 256.319819 58.483898 
L 257.119963 57.5644 
L 257.65446 57.201906 
L 258.454604 57.078128 
L 259.254748 56.936667 
L 259.787644 57.36105 
L 260.855037 58.722614 
L 261.387933 59.63327 
L 262.988221 63.028337 
L 264.055614 66.352673 
L 266.188798 73.867796 
L 268.589231 84.60116 
L 269.656623 89.985524 
L 276.323425 126.084638 
L 278.190962 136.146061 
L 282.191683 156.640243 
L 284.859364 169.345221 
L 288.592837 185.303806 
L 292.32631 199.679794 
L 297.927319 218.750523 
L 298.994712 221.889192 
L 299.794856 224.240983 
L 301.92804 230.403384 
L 302.995433 232.896636 
L 304.328473 236.592309 
L 305.663114 239.695612 
L 306.463258 241.516924 
L 308.063546 245.327534 
L 309.396587 247.750056 
L 311.264123 251.649078 
L 312.329915 253.26704 
L 314.4647 257.068808 
L 315.530492 258.509943 
L 316.064989 259.234931 
L 317.398029 261.49831 
L 318.198173 262.355918 
L 319.265565 263.699799 
L 319.798462 264.407104 
L 320.598606 265.503428 
L 322.198894 267.086024 
L 323.799183 268.783558 
L 325.932367 270.622553 
L 326.732511 271.382906 
L 327.532656 271.966434 
L 328.3328 272.682581 
L 329.66744 273.575554 
L 331.000481 274.468527 
L 332.868017 275.644423 
L 333.400913 275.971552 
L 334.468306 276.687699 
L 335.801346 277.403846 
L 336.334242 277.43037 
L 336.868739 277.651403 
L 337.934531 278.394074 
L 338.734675 278.721203 
L 339.269171 278.774251 
L 340.334963 279.269365 
L 341.935252 280.082766 
L 342.735396 280.029718 
L 343.269892 280.303799 
L 344.070037 280.701659 
L 345.670325 281.037629 
L 346.203221 281.099518 
L 346.736117 281.391282 
L 347.536261 281.7803 
L 348.070758 281.939444 
L 348.870902 281.965968 
L 349.936694 282.195842 
L 351.004087 282.805893 
L 351.804231 282.735163 
L 352.337127 282.726321 
L 353.404519 283.141863 
L 354.204663 283.504358 
L 356.0722 283.583929 
L 356.337848 283.636977 
L 356.872344 283.928741 
L 357.40524 283.981789 
L 357.938136 283.981789 
L 359.272777 284.211663 
L 359.538425 284.211663 
L 360.605817 284.644888 
L 361.138713 284.556475 
L 363.00625 284.715618 
L 363.539146 284.901286 
L 368.60726 285.467131 
L 371.540588 285.86499 
L 372.607981 285.918038 
L 373.140877 285.847308 
L 374.208269 286.024134 
L 375.008413 286.174436 
L 375.54131 286.280532 
L 376.608702 286.068341 
L 378.476239 286.457359 
L 379.009135 286.439676 
L 379.809279 286.26285 
L 380.609423 286.501565 
L 381.676815 286.837536 
L 382.209712 286.704916 
L 382.742608 286.589979 
L 383.81 286.740281 
L 384.877392 286.996679 
L 385.410288 286.837536 
L 386.210433 286.634185 
L 386.743329 286.784488 
L 387.543473 286.978997 
L 388.610865 286.987838 
L 389.678258 286.837536 
L 390.211154 287.005521 
L 390.74405 287.235395 
L 391.278546 287.208871 
L 392.07869 287.058569 
L 393.678979 287.235395 
L 394.211875 287.429904 
L 396.34506 287.253078 
L 397.6797 287.438745 
L 398.479844 287.412221 
L 399.545636 287.279602 
L 400.613029 287.527159 
L 401.413173 287.394539 
L 403.28071 287.474111 
L 403.813606 287.562524 
L 409.681864 287.659778 
L 410.21476 287.544841 
L 411.282152 287.650937 
L 412.615192 287.80124 
L 413.415337 287.66862 
L 415.548521 287.925018 
L 416.615913 287.624413 
L 417.416058 287.863129 
L 418.48345 287.907335 
L 419.016346 287.978066 
L 419.81649 287.73935 
L 420.349386 287.845446 
L 421.149531 288.048796 
L 422.216923 288.00459 
L 423.017067 287.863129 
L 423.549963 287.898494 
L 424.617356 288.181416 
L 425.150252 288.190258 
L 425.950396 287.907335 
L 426.484892 287.969225 
L 427.550685 288.190258 
L 428.350829 288.216782 
L 429.418221 287.986907 
L 429.951117 288.093003 
L 430.751261 288.322877 
L 431.285758 288.26983 
L 432.085902 288.110686 
L 433.418942 288.057638 
L 434.219087 288.384767 
L 435.286479 288.110686 
L 436.886767 288.26983 
L 437.419663 288.375925 
L 438.752704 288.190258 
L 439.552848 288.26983 
L 440.352992 288.428973 
L 441.153136 288.375925 
L 442.487777 288.322877 
L 443.287921 288.375925 
L 443.820817 288.428973 
L 445.153858 288.358243 
L 445.688354 288.446656 
L 448.621683 288.402449 
L 449.421827 288.526228 
L 450.754867 288.393608 
L 451.555011 288.526228 
L 452.355156 288.526228 
L 452.889652 288.561593 
L 453.422548 288.402449 
L 454.222692 288.535069 
L 455.022837 288.667689 
L 455.822981 288.579276 
L 456.623125 288.402449 
L 459.023558 288.658848 
L 459.823702 288.358243 
L 460.356598 288.482021 
L 460.891094 288.632324 
L 461.691239 288.711896 
L 462.224135 288.703054 
L 463.291527 288.402449 
L 463.824423 288.490863 
L 464.624567 288.720737 
L 465.157463 288.667689 
L 466.224856 288.517386 
L 466.757752 288.47318 
L 467.292248 288.641165 
L 467.292248 288.641165 
" clip-path="url(#pa44c7d5f31)" style="fill: none; stroke: #252525; stroke-width: 0.8; stroke-linecap: square"/>
   </g>
   <g id="line2d_14">
    <path d="M 50.682752 287.687105 
L 52.817537 287.572559 
L 54.150577 287.618377 
L 55.483617 287.458013 
L 57.083906 287.613795 
L 57.88405 287.490086 
L 60.818979 287.462595 
L 61.619123 287.366376 
L 64.019556 287.393867 
L 65.619844 287.270158 
L 66.15274 287.357213 
L 67.220133 287.283903 
L 72.020998 287.27474 
L 73.08679 287.219758 
L 74.954327 287.233503 
L 76.554615 287.123539 
L 78.154904 287.123539 
L 78.955048 287.045648 
L 80.822585 287.132703 
L 81.355481 287.123539 
L 82.155625 286.931102 
L 83.488665 287.077721 
L 84.823306 286.986084 
L 85.62345 286.885283 
L 87.489386 286.999829 
L 88.289531 286.871538 
L 89.356923 286.853211 
L 90.689963 286.871538 
L 92.290252 286.734083 
L 93.357644 286.82572 
L 95.490829 286.619537 
L 96.290973 286.770738 
L 98.958654 286.559973 
L 99.758798 286.614955 
L 104.559663 286.4271 
L 108.027489 286.294227 
L 111.760962 286.161353 
L 112.293858 286.033062 
L 114.961538 286.010153 
L 115.761683 285.877279 
L 117.629219 285.936843 
L 118.695011 285.776479 
L 121.095444 285.730661 
L 122.162837 285.570296 
L 123.495877 285.611533 
L 124.830517 285.455751 
L 126.163558 285.419096 
L 126.963702 285.419096 
L 128.56399 285.194586 
L 129.364135 285.20375 
L 130.164279 285.171677 
L 131.231671 284.97924 
L 132.564712 284.988403 
L 133.364856 284.90593 
L 148.0347 283.297706 
L 148.834844 283.068614 
L 150.167885 282.935741 
L 151.500925 282.706649 
L 152.035421 282.491302 
L 152.835565 282.427157 
L 153.901358 282.317193 
L 156.30179 281.813191 
L 157.101935 281.703227 
L 158.169327 281.368753 
L 159.769615 281.107588 
L 160.56976 280.965551 
L 162.437296 280.466131 
L 163.503088 280.310348 
L 165.103377 279.833837 
L 167.771058 279.26569 
L 170.17149 278.725033 
L 171.238883 278.422632 
L 172.571923 278.010267 
L 175.239604 277.07099 
L 176.039748 276.681534 
L 178.705829 275.252001 
L 180.040469 274.468507 
L 181.640758 273.37803 
L 182.440902 272.635773 
L 184.04119 271.48115 
L 191.242489 265.630145 
L 193.108425 264.480104 
L 195.776106 263.059735 
L 196.843498 262.807734 
L 197.643642 262.427441 
L 198.976683 262.120458 
L 202.444508 262.010494 
L 203.244652 262.042567 
L 205.110588 262.180022 
L 211.77899 262.917698 
L 212.846383 262.894789 
L 214.179423 262.917698 
L 215.246815 262.775661 
L 216.579856 262.528242 
L 217.647248 262.303732 
L 218.180144 262.02424 
L 218.71304 261.666857 
L 220.047681 261.020818 
L 221.113473 260.273978 
L 224.048402 256.938402 
L 225.64869 254.134318 
L 226.981731 251.508926 
L 228.849267 246.491815 
L 229.91506 242.922564 
L 230.182308 242.180307 
L 231.2497 237.694689 
L 231.515348 236.778322 
L 232.315492 232.952489 
L 233.382885 227.623813 
L 234.983173 218.295195 
L 236.85071 206.125837 
L 237.650854 199.761667 
L 239.784038 182.474399 
L 242.451719 158.717578 
L 245.917944 127.08458 
L 246.185192 125.215191 
L 246.985337 117.820107 
L 249.385769 98.512249 
L 251.253306 85.728926 
L 251.518954 84.358957 
L 252.05345 80.711815 
L 253.119242 75.053247 
L 254.719531 67.859764 
L 255.786923 64.043095 
L 256.587067 61.848395 
L 257.119963 60.602136 
L 258.187356 58.576964 
L 258.720252 57.798052 
L 259.254748 57.34445 
L 260.054892 56.996231 
L 261.120685 56.987067 
L 261.920829 57.477323 
L 262.188077 57.701833 
L 263.788365 60.26308 
L 264.855758 62.439452 
L 266.988942 69.119769 
L 268.056335 73.073894 
L 270.189519 82.026802 
L 270.989663 86.026745 
L 273.122848 96.839879 
L 275.790529 111.208517 
L 281.924435 144.124429 
L 282.191683 145.159924 
L 282.991827 149.512668 
L 284.592115 157.434663 
L 284.859364 158.447249 
L 285.659508 162.424283 
L 288.05994 173.338217 
L 292.32631 190.868323 
L 292.860806 192.829349 
L 294.726742 199.702103 
L 298.461815 212.439608 
L 300.862248 219.889674 
L 304.595721 230.125496 
L 308.063546 238.381965 
L 310.463979 243.389912 
L 313.930204 249.754082 
L 315.79774 252.691039 
L 319.531213 257.946406 
L 321.39875 260.273978 
L 322.466142 261.323219 
L 323.799183 262.87188 
L 325.132223 264.09523 
L 325.932367 264.800833 
L 327.532656 266.367821 
L 328.600048 267.078005 
L 330.467585 268.622084 
L 332.600769 270.005799 
L 333.400913 270.53271 
L 335.26845 271.508641 
L 335.801346 271.847697 
L 336.60149 272.370026 
L 337.668883 272.805301 
L 338.734675 273.345957 
L 341.135108 274.436434 
L 345.135829 275.966768 
L 348.336406 277.112227 
L 349.403798 277.382555 
L 351.536983 278.14314 
L 352.604375 278.271431 
L 354.73756 278.889979 
L 355.804952 279.105325 
L 357.938136 279.636819 
L 358.738281 279.755946 
L 360.873065 280.310348 
L 362.473354 280.525695 
L 363.539146 280.823514 
L 365.939579 281.217552 
L 366.739723 281.455807 
L 368.074364 281.519953 
L 371.27494 282.028537 
L 372.075085 282.147665 
L 372.875229 282.317193 
L 373.941021 282.404248 
L 374.741165 282.514212 
L 375.808558 282.679158 
L 378.476239 283.031959 
L 381.409567 283.343524 
L 381.942463 283.384761 
L 382.742608 283.421415 
L 385.14304 283.73298 
L 385.943185 283.778798 
L 387.810721 284.090363 
L 388.878114 283.994145 
L 390.211154 284.227818 
L 391.544194 284.314873 
L 392.344338 284.291964 
L 393.944627 284.617275 
L 395.279267 284.617275 
L 396.34506 284.786802 
L 397.145204 284.864694 
L 397.945348 284.768475 
L 399.545636 284.965494 
L 400.345781 285.070876 
L 402.746213 285.263313 
L 403.28071 285.295386 
L 404.346502 285.258732 
L 407.281431 285.460332 
L 413.415337 285.758152 
L 415.015625 285.891025 
L 415.815769 285.808552 
L 418.48345 285.946007 
L 419.283594 285.955171 
L 420.616635 286.124699 
L 423.284315 286.271317 
L 424.350108 286.330881 
L 425.684748 286.243826 
L 427.817933 286.399609 
L 428.618077 286.372118 
L 430.485614 286.555391 
L 432.35155 286.491246 
L 433.151694 286.697428 
L 435.819375 286.656192 
L 436.886767 286.779901 
L 437.95256 286.724919 
L 441.153136 286.848629 
L 441.953281 286.87612 
L 442.753425 286.97692 
L 443.820817 286.963175 
L 444.88821 287.02732 
L 446.488498 287.05023 
L 456.623125 287.329722 
L 457.690517 287.462595 
L 458.75631 287.320558 
L 460.891094 287.512995 
L 462.491383 287.47634 
L 463.557175 287.65045 
L 465.424712 287.508413 
L 466.492104 287.655032 
L 467.025 287.682523 
L 467.292248 287.632123 
L 467.292248 287.632123 
" clip-path="url(#pa44c7d5f31)" style="fill: none; stroke: #045a8d; stroke-width: 0.8; stroke-linecap: square"/>
   </g>
   <g id="patch_3">
    <path d="M 50.95 313.64 
L 50.95 33.6 
" style="fill: none; stroke: #000000; stroke-width: 0.5; stroke-linejoin: miter; stroke-linecap: square"/>
   </g>
   <g id="patch_4">
    <path d="M 50.95 313.64 
L 467.025 313.64 
" style="fill: none; stroke: #000000; stroke-width: 0.5; stroke-linejoin: miter; stroke-linecap: square"/>
   </g>
   <g id="legend_1">
    <g id="text_15">
     <!-- Experiment Conditions -->
     <g transform="translate(348.823125 48.16875) scale(0.1 -0.1)">
      <defs>
       <path id="Helvetica-45" d="M 547 4591 
L 3894 4591 
L 3894 4028 
L 1153 4028 
L 1153 2634 
L 3688 2634 
L 3688 2103 
L 1153 2103 
L 1153 547 
L 3941 547 
L 3941 0 
L 547 0 
L 547 4591 
z
M 2244 4591 
L 2244 4591 
z
" transform="scale(0.015625)"/>
       <path id="Helvetica-78" d="M 94 3347 
L 822 3347 
L 1591 2169 
L 2369 3347 
L 3053 3331 
L 1925 1716 
L 3103 0 
L 2384 0 
L 1553 1256 
L 747 0 
L 34 0 
L 1213 1716 
L 94 3347 
z
" transform="scale(0.015625)"/>
       <path id="Helvetica-70" d="M 1825 378 
Q 2219 378 2480 708 
Q 2741 1038 2741 1694 
Q 2741 2094 2625 2381 
Q 2406 2934 1825 2934 
Q 1241 2934 1025 2350 
Q 909 2038 909 1556 
Q 909 1169 1025 897 
Q 1244 378 1825 378 
z
M 369 3331 
L 916 3331 
L 916 2888 
Q 1084 3116 1284 3241 
Q 1569 3428 1953 3428 
Q 2522 3428 2919 2992 
Q 3316 2556 3316 1747 
Q 3316 653 2744 184 
Q 2381 -113 1900 -113 
Q 1522 -113 1266 53 
Q 1116 147 931 375 
L 931 -1334 
L 369 -1334 
L 369 3331 
z
" transform="scale(0.015625)"/>
       <path id="Helvetica-43" d="M 2422 4716 
Q 3294 4716 3775 4256 
Q 4256 3797 4309 3213 
L 3703 3213 
Q 3600 3656 3292 3915 
Q 2984 4175 2428 4175 
Q 1750 4175 1333 3698 
Q 916 3222 916 2238 
Q 916 1431 1292 929 
Q 1669 428 2416 428 
Q 3103 428 3463 956 
Q 3653 1234 3747 1688 
L 4353 1688 
Q 4272 963 3816 472 
Q 3269 -119 2341 -119 
Q 1541 -119 997 366 
Q 281 1006 281 2344 
Q 281 3359 819 4009 
Q 1400 4716 2422 4716 
z
M 2297 4716 
L 2297 4716 
z
" transform="scale(0.015625)"/>
      </defs>
      <use xlink:href="#Helvetica-45"/>
      <use xlink:href="#Helvetica-78" x="66.699219"/>
      <use xlink:href="#Helvetica-70" x="116.699219"/>
      <use xlink:href="#Helvetica-65" x="172.314453"/>
      <use xlink:href="#Helvetica-72" x="227.929688"/>
      <use xlink:href="#Helvetica-69" x="261.230469"/>
      <use xlink:href="#Helvetica-6d" x="283.447266"/>
      <use xlink:href="#Helvetica-65" x="366.748047"/>
      <use xlink:href="#Helvetica-6e" x="422.363281"/>
      <use xlink:href="#Helvetica-74" x="477.978516"/>
      <use xlink:href="#Helvetica-20" x="505.761719"/>
      <use xlink:href="#Helvetica-43" x="533.544922"/>
      <use xlink:href="#Helvetica-6f" x="605.761719"/>
      <use xlink:href="#Helvetica-6e" x="661.376953"/>
      <use xlink:href="#Helvetica-64" x="716.992188"/>
      <use xlink:href="#Helvetica-69" x="772.607422"/>
      <use xlink:href="#Helvetica-74" x="794.824219"/>
      <use xlink:href="#Helvetica-69" x="822.607422"/>
      <use xlink:href="#Helvetica-6f" x="844.824219"/>
      <use xlink:href="#Helvetica-6e" x="900.439453"/>
      <use xlink:href="#Helvetica-73" x="956.054688"/>
     </g>
    </g>
    <g id="line2d_15">
     <path d="M 360.643125 57.191875 
L 368.643125 57.191875 
L 376.643125 57.191875 
" style="fill: none; stroke: #252525; stroke-width: 0.8; stroke-linecap: square"/>
    </g>
    <g id="text_16">
     <!-- PS-110K -->
     <g transform="translate(383.043125 59.991875) scale(0.08 -0.08)">
      <defs>
       <path id="Helvetica-50" d="M 547 4591 
L 2613 4591 
Q 3225 4591 3600 4245 
Q 3975 3900 3975 3275 
Q 3975 2738 3640 2339 
Q 3306 1941 2613 1941 
L 1169 1941 
L 1169 0 
L 547 0 
L 547 4591 
z
M 3347 3272 
Q 3347 3778 2972 3959 
Q 2766 4056 2406 4056 
L 1169 4056 
L 1169 2466 
L 2406 2466 
Q 2825 2466 3086 2644 
Q 3347 2822 3347 3272 
z
" transform="scale(0.015625)"/>
       <path id="Helvetica-53" d="M 894 1481 
Q 916 1091 1078 847 
Q 1388 391 2169 391 
Q 2519 391 2806 491 
Q 3363 684 3363 1184 
Q 3363 1559 3128 1719 
Q 2891 1875 2384 1991 
L 1763 2131 
Q 1153 2269 900 2434 
Q 463 2722 463 3294 
Q 463 3913 891 4309 
Q 1319 4706 2103 4706 
Q 2825 4706 3329 4357 
Q 3834 4009 3834 3244 
L 3250 3244 
Q 3203 3613 3050 3809 
Q 2766 4169 2084 4169 
Q 1534 4169 1293 3937 
Q 1053 3706 1053 3400 
Q 1053 3063 1334 2906 
Q 1519 2806 2169 2656 
L 2813 2509 
Q 3278 2403 3531 2219 
Q 3969 1897 3969 1284 
Q 3969 522 3414 194 
Q 2859 -134 2125 -134 
Q 1269 -134 784 303 
Q 300 738 309 1481 
L 894 1481 
z
M 2150 4716 
L 2150 4716 
z
" transform="scale(0.015625)"/>
       <path id="Helvetica-2d" d="M 266 2072 
L 1834 2072 
L 1834 1494 
L 266 1494 
L 266 2072 
z
" transform="scale(0.015625)"/>
       <path id="Helvetica-4b" d="M 488 4591 
L 1094 4591 
L 1094 2353 
L 3331 4591 
L 4191 4591 
L 2281 2741 
L 4244 0 
L 3434 0 
L 1828 2303 
L 1094 1600 
L 1094 0 
L 488 0 
L 488 4591 
z
" transform="scale(0.015625)"/>
      </defs>
      <use xlink:href="#Helvetica-50"/>
      <use xlink:href="#Helvetica-53" x="66.699219"/>
      <use xlink:href="#Helvetica-2d" x="133.398438"/>
      <use xlink:href="#Helvetica-31" x="166.699219"/>
      <use xlink:href="#Helvetica-31" x="222.314453"/>
      <use xlink:href="#Helvetica-30" x="277.929688"/>
      <use xlink:href="#Helvetica-4b" x="333.544922"/>
     </g>
    </g>
    <g id="line2d_16">
     <path d="M 360.643125 68.598125 
L 368.643125 68.598125 
L 376.643125 68.598125 
" style="fill: none; stroke: #045a8d; stroke-width: 0.8; stroke-linecap: square"/>
    </g>
    <g id="text_17">
     <!-- PS-110K-SCF$_{3}$ -->
     <g transform="translate(383.043125 71.398125) scale(0.08 -0.08)">
      <defs>
       <path id="Helvetica-46" d="M 547 4591 
L 3731 4591 
L 3731 4028 
L 1169 4028 
L 1169 2634 
L 3422 2634 
L 3422 2088 
L 1169 2088 
L 1169 0 
L 547 0 
L 547 4591 
z
" transform="scale(0.015625)"/>
       <path id="DejaVuSans-33" d="M 2597 2516 
Q 3050 2419 3304 2112 
Q 3559 1806 3559 1356 
Q 3559 666 3084 287 
Q 2609 -91 1734 -91 
Q 1441 -91 1130 -33 
Q 819 25 488 141 
L 488 750 
Q 750 597 1062 519 
Q 1375 441 1716 441 
Q 2309 441 2620 675 
Q 2931 909 2931 1356 
Q 2931 1769 2642 2001 
Q 2353 2234 1838 2234 
L 1294 2234 
L 1294 2753 
L 1863 2753 
Q 2328 2753 2575 2939 
Q 2822 3125 2822 3475 
Q 2822 3834 2567 4026 
Q 2313 4219 1838 4219 
Q 1578 4219 1281 4162 
Q 984 4106 628 3988 
L 628 4550 
Q 988 4650 1302 4700 
Q 1616 4750 1894 4750 
Q 2613 4750 3031 4423 
Q 3450 4097 3450 3541 
Q 3450 3153 3228 2886 
Q 3006 2619 2597 2516 
z
" transform="scale(0.015625)"/>
      </defs>
      <use xlink:href="#Helvetica-50" transform="translate(0 0.3125)"/>
      <use xlink:href="#Helvetica-53" transform="translate(66.699219 0.3125)"/>
      <use xlink:href="#Helvetica-2d" transform="translate(133.398438 0.3125)"/>
      <use xlink:href="#Helvetica-31" transform="translate(166.699219 0.3125)"/>
      <use xlink:href="#Helvetica-31" transform="translate(222.314453 0.3125)"/>
      <use xlink:href="#Helvetica-30" transform="translate(277.929688 0.3125)"/>
      <use xlink:href="#Helvetica-4b" transform="translate(333.544922 0.3125)"/>
      <use xlink:href="#Helvetica-2d" transform="translate(400.244141 0.3125)"/>
      <use xlink:href="#Helvetica-53" transform="translate(433.544922 0.3125)"/>
      <use xlink:href="#Helvetica-43" transform="translate(500.244141 0.3125)"/>
      <use xlink:href="#Helvetica-46" transform="translate(572.460938 0.3125)"/>
      <use xlink:href="#DejaVuSans-33" transform="translate(634.501953 -16.09375) scale(0.7)"/>
     </g>
    </g>
   </g>
   <g id="legend_2">
    <g id="text_18">
     <!-- GPC Data -->
     <g transform="translate(369.922344 136.754281) scale(0.1 -0.1)">
      <defs>
       <path id="Helvetica-47" d="M 2472 4709 
Q 3119 4709 3591 4459 
Q 4275 4100 4428 3200 
L 3813 3200 
Q 3700 3703 3347 3933 
Q 2994 4163 2456 4163 
Q 1819 4163 1383 3684 
Q 947 3206 947 2259 
Q 947 1441 1306 927 
Q 1666 413 2478 413 
Q 3100 413 3508 773 
Q 3916 1134 3925 1941 
L 2488 1941 
L 2488 2456 
L 4503 2456 
L 4503 0 
L 4103 0 
L 3953 591 
Q 3638 244 3394 109 
Q 2984 -122 2353 -122 
Q 1538 -122 950 406 
Q 309 1069 309 2225 
Q 309 3378 934 4059 
Q 1528 4709 2472 4709 
z
M 2369 4716 
L 2369 4716 
z
" transform="scale(0.015625)"/>
       <path id="Helvetica-44" d="M 2250 531 
Q 2566 531 2769 597 
Q 3131 719 3363 1066 
Q 3547 1344 3628 1778 
Q 3675 2038 3675 2259 
Q 3675 3113 3336 3584 
Q 2997 4056 2244 4056 
L 1141 4056 
L 1141 531 
L 2250 531 
z
M 516 4591 
L 2375 4591 
Q 3322 4591 3844 3919 
Q 4309 3313 4309 2366 
Q 4309 1634 4034 1044 
Q 3550 0 2369 0 
L 516 0 
L 516 4591 
z
" transform="scale(0.015625)"/>
      </defs>
      <use xlink:href="#Helvetica-47"/>
      <use xlink:href="#Helvetica-50" x="77.783203"/>
      <use xlink:href="#Helvetica-43" x="144.482422"/>
      <use xlink:href="#Helvetica-20" x="216.699219"/>
      <use xlink:href="#Helvetica-44" x="244.482422"/>
      <use xlink:href="#Helvetica-61" x="316.699219"/>
      <use xlink:href="#Helvetica-74" x="372.314453"/>
      <use xlink:href="#Helvetica-61" x="400.097656"/>
     </g>
    </g>
    <g id="line2d_17">
     <path d="M 325.59 145.777406 
L 333.59 145.777406 
L 341.59 145.777406 
" style="fill: none; stroke: #252525; stroke-width: 0.8; stroke-linecap: square"/>
    </g>
    <g id="text_19">
     <!-- Mn=94.0k, Mw=103k, Mp=111k -->
     <g transform="translate(347.99 148.577406) scale(0.08 -0.08)">
      <defs>
       <path id="Helvetica-4d" d="M 472 4591 
L 1363 4591 
L 2681 709 
L 3991 4591 
L 4872 4591 
L 4872 0 
L 4281 0 
L 4281 2709 
Q 4281 2850 4287 3175 
Q 4294 3500 4294 3872 
L 2984 0 
L 2369 0 
L 1050 3872 
L 1050 3731 
Q 1050 3563 1058 3217 
Q 1066 2872 1066 2709 
L 1066 0 
L 472 0 
L 472 4591 
z
" transform="scale(0.015625)"/>
       <path id="Helvetica-3d" d="M 3547 2569 
L 3547 2044 
L 288 2044 
L 288 2569 
L 3547 2569 
z
M 3547 1228 
L 3547 694 
L 288 694 
L 288 1228 
L 3547 1228 
z
" transform="scale(0.015625)"/>
       <path id="Helvetica-39" d="M 850 1081 
Q 875 616 1209 438 
Q 1381 344 1597 344 
Q 2000 344 2284 680 
Q 2569 1016 2688 2044 
Q 2500 1747 2223 1626 
Q 1947 1506 1628 1506 
Q 981 1506 604 1909 
Q 228 2313 228 2947 
Q 228 3556 600 4018 
Q 972 4481 1697 4481 
Q 2675 4481 3047 3600 
Q 3253 3116 3253 2388 
Q 3253 1566 3006 931 
Q 2597 -125 1619 -125 
Q 963 -125 622 219 
Q 281 563 281 1081 
L 850 1081 
z
M 1703 2000 
Q 2038 2000 2314 2220 
Q 2591 2441 2591 2991 
Q 2591 3484 2342 3726 
Q 2094 3969 1709 3969 
Q 1297 3969 1055 3692 
Q 813 3416 813 2953 
Q 813 2516 1025 2258 
Q 1238 2000 1703 2000 
z
" transform="scale(0.015625)"/>
       <path id="Helvetica-6b" d="M 400 4591 
L 941 4591 
L 941 1925 
L 2384 3347 
L 3103 3347 
L 1822 2094 
L 3175 0 
L 2456 0 
L 1413 1688 
L 941 1256 
L 941 0 
L 400 0 
L 400 4591 
z
" transform="scale(0.015625)"/>
       <path id="Helvetica-2c" d="M 531 -653 
Q 747 -616 834 -350 
Q 881 -209 881 -78 
Q 881 -56 879 -39 
Q 878 -22 872 0 
L 531 0 
L 531 681 
L 1200 681 
L 1200 50 
Q 1200 -322 1050 -603 
Q 900 -884 531 -950 
L 531 -653 
z
" transform="scale(0.015625)"/>
       <path id="Helvetica-77" d="M 672 3347 
L 1316 709 
L 1969 3347 
L 2600 3347 
L 3256 725 
L 3941 3347 
L 4503 3347 
L 3531 0 
L 2947 0 
L 2266 2591 
L 1606 0 
L 1022 0 
L 56 3347 
L 672 3347 
z
" transform="scale(0.015625)"/>
       <path id="Helvetica-33" d="M 1663 -122 
Q 869 -122 511 314 
Q 153 750 153 1375 
L 741 1375 
Q 778 941 903 744 
Q 1122 391 1694 391 
Q 2138 391 2406 628 
Q 2675 866 2675 1241 
Q 2675 1703 2392 1887 
Q 2109 2072 1606 2072 
Q 1550 2072 1492 2070 
Q 1434 2069 1375 2066 
L 1375 2563 
Q 1463 2553 1522 2550 
Q 1581 2547 1650 2547 
Q 1966 2547 2169 2647 
Q 2525 2822 2525 3272 
Q 2525 3606 2287 3787 
Q 2050 3969 1734 3969 
Q 1172 3969 956 3594 
Q 838 3388 822 3006 
L 266 3006 
Q 266 3506 466 3856 
Q 809 4481 1675 4481 
Q 2359 4481 2734 4176 
Q 3109 3872 3109 3294 
Q 3109 2881 2888 2625 
Q 2750 2466 2531 2375 
Q 2884 2278 3082 2001 
Q 3281 1725 3281 1325 
Q 3281 684 2859 281 
Q 2438 -122 1663 -122 
z
" transform="scale(0.015625)"/>
      </defs>
      <use xlink:href="#Helvetica-4d"/>
      <use xlink:href="#Helvetica-6e" x="83.300781"/>
      <use xlink:href="#Helvetica-3d" x="138.916016"/>
      <use xlink:href="#Helvetica-39" x="197.314453"/>
      <use xlink:href="#Helvetica-34" x="252.929688"/>
      <use xlink:href="#Helvetica-2e" x="308.544922"/>
      <use xlink:href="#Helvetica-30" x="336.328125"/>
      <use xlink:href="#Helvetica-6b" x="391.943359"/>
      <use xlink:href="#Helvetica-2c" x="441.943359"/>
      <use xlink:href="#Helvetica-20" x="469.726562"/>
      <use xlink:href="#Helvetica-4d" x="497.509766"/>
      <use xlink:href="#Helvetica-77" x="580.810547"/>
      <use xlink:href="#Helvetica-3d" x="653.027344"/>
      <use xlink:href="#Helvetica-31" x="711.425781"/>
      <use xlink:href="#Helvetica-30" x="767.041016"/>
      <use xlink:href="#Helvetica-33" x="822.65625"/>
      <use xlink:href="#Helvetica-6b" x="878.271484"/>
      <use xlink:href="#Helvetica-2c" x="928.271484"/>
      <use xlink:href="#Helvetica-20" x="956.054688"/>
      <use xlink:href="#Helvetica-4d" x="983.837891"/>
      <use xlink:href="#Helvetica-70" x="1067.138672"/>
      <use xlink:href="#Helvetica-3d" x="1122.753906"/>
      <use xlink:href="#Helvetica-31" x="1181.152344"/>
      <use xlink:href="#Helvetica-31" x="1236.767578"/>
      <use xlink:href="#Helvetica-31" x="1292.382812"/>
      <use xlink:href="#Helvetica-6b" x="1347.998047"/>
     </g>
    </g>
    <g id="line2d_18">
     <path d="M 325.59 157.183656 
L 333.59 157.183656 
L 341.59 157.183656 
" style="fill: none; stroke: #045a8d; stroke-width: 0.8; stroke-linecap: square"/>
    </g>
    <g id="text_20">
     <!-- Mn=84.9k, Mw=100k, Mp=109k -->
     <g transform="translate(347.99 159.983656) scale(0.08 -0.08)">
      <use xlink:href="#Helvetica-4d"/>
      <use xlink:href="#Helvetica-6e" x="83.300781"/>
      <use xlink:href="#Helvetica-3d" x="138.916016"/>
      <use xlink:href="#Helvetica-38" x="197.314453"/>
      <use xlink:href="#Helvetica-34" x="252.929688"/>
      <use xlink:href="#Helvetica-2e" x="308.544922"/>
      <use xlink:href="#Helvetica-39" x="336.328125"/>
      <use xlink:href="#Helvetica-6b" x="391.943359"/>
      <use xlink:href="#Helvetica-2c" x="441.943359"/>
      <use xlink:href="#Helvetica-20" x="469.726562"/>
      <use xlink:href="#Helvetica-4d" x="497.509766"/>
      <use xlink:href="#Helvetica-77" x="580.810547"/>
      <use xlink:href="#Helvetica-3d" x="653.027344"/>
      <use xlink:href="#Helvetica-31" x="711.425781"/>
      <use xlink:href="#Helvetica-30" x="767.041016"/>
      <use xlink:href="#Helvetica-30" x="822.65625"/>
      <use xlink:href="#Helvetica-6b" x="878.271484"/>
      <use xlink:href="#Helvetica-2c" x="928.271484"/>
      <use xlink:href="#Helvetica-20" x="956.054688"/>
      <use xlink:href="#Helvetica-4d" x="983.837891"/>
      <use xlink:href="#Helvetica-70" x="1067.138672"/>
      <use xlink:href="#Helvetica-3d" x="1122.753906"/>
      <use xlink:href="#Helvetica-31" x="1181.152344"/>
      <use xlink:href="#Helvetica-30" x="1236.767578"/>
      <use xlink:href="#Helvetica-39" x="1292.382812"/>
      <use xlink:href="#Helvetica-6b" x="1347.998047"/>
     </g>
    </g>
   </g>
  </g>
 </g>
 <defs>
  <clipPath id="pa44c7d5f31">
   <rect x="50.95" y="33.6" width="416.075" height="280.04"/>
  </clipPath>
 </defs>
</svg>
