<?xml version="1.0" encoding="utf-8" standalone="no"?>
<!DOCTYPE svg PUBLIC "-//W3C//DTD SVG 1.1//EN"
  "http://www.w3.org/Graphics/SVG/1.1/DTD/svg11.dtd">
<svg xmlns:xlink="http://www.w3.org/1999/xlink" width="504pt" height="360pt" viewBox="0 0 504 360" xmlns="http://www.w3.org/2000/svg" version="1.1">
 <metadata>
  <rdf:RDF xmlns:dc="http://purl.org/dc/elements/1.1/" xmlns:cc="http://creativecommons.org/ns#" xmlns:rdf="http://www.w3.org/1999/02/22-rdf-syntax-ns#">
   <cc:Work>
    <dc:type rdf:resource="http://purl.org/dc/dcmitype/StillImage"/>
    <dc:date>2025-02-24T23:34:35.952941</dc:date>
    <dc:format>image/svg+xml</dc:format>
    <dc:creator>
     <cc:Agent>
      <dc:title>Matplotlib v3.7.1, https://matplotlib.org/</dc:title>
     </cc:Agent>
    </dc:creator>
   </cc:Work>
  </rdf:RDF>
 </metadata>
 <defs>
  <style type="text/css">*{stroke-linejoin: round; stroke-linecap: butt}</style>
 </defs>
 <g id="figure_1">
  <g id="patch_1">
   <path d="M 0 360 
L 504 360 
L 504 0 
L 0 0 
z
" style="fill: #ffffff"/>
  </g>
  <g id="axes_1">
   <g id="patch_2">
    <path d="M 52.93 312.92 
L 466.035 312.92 
L 466.035 33.96 
L 52.93 33.96 
z
" style="fill: #ffffff"/>
   </g>
   <g id="matplotlib.axis_1">
    <g id="xtick_1">
     <g id="line2d_1">
      <defs>
       <path id="m1f68c6534b" d="M 0 0 
L 0 -3.5 
" style="stroke: #000000; stroke-width: 0.8"/>
      </defs>
      <g>
       <use xlink:href="#m1f68c6534b" x="52.93" y="312.92" style="stroke: #000000; stroke-width: 0.8"/>
      </g>
     </g>
     <g id="text_1">
      <!-- 6.4 -->
      <g transform="translate(43.388125 325.538125) scale(0.12 -0.12)">
       <defs>
        <path id="DejaVuSans-36" d="M 2113 2584 
Q 1688 2584 1439 2293 
Q 1191 2003 1191 1497 
Q 1191 994 1439 701 
Q 1688 409 2113 409 
Q 2538 409 2786 701 
Q 3034 994 3034 1497 
Q 3034 2003 2786 2293 
Q 2538 2584 2113 2584 
z
M 3366 4563 
L 3366 3988 
Q 3128 4100 2886 4159 
Q 2644 4219 2406 4219 
Q 1781 4219 1451 3797 
Q 1122 3375 1075 2522 
Q 1259 2794 1537 2939 
Q 1816 3084 2150 3084 
Q 2853 3084 3261 2657 
Q 3669 2231 3669 1497 
Q 3669 778 3244 343 
Q 2819 -91 2113 -91 
Q 1303 -91 875 529 
Q 447 1150 447 2328 
Q 447 3434 972 4092 
Q 1497 4750 2381 4750 
Q 2619 4750 2861 4703 
Q 3103 4656 3366 4563 
z
" transform="scale(0.015625)"/>
        <path id="DejaVuSans-2e" d="M 684 794 
L 1344 794 
L 1344 0 
L 684 0 
L 684 794 
z
" transform="scale(0.015625)"/>
        <path id="DejaVuSans-34" d="M 2419 4116 
L 825 1625 
L 2419 1625 
L 2419 4116 
z
M 2253 4666 
L 3047 4666 
L 3047 1625 
L 3713 1625 
L 3713 1100 
L 3047 1100 
L 3047 0 
L 2419 0 
L 2419 1100 
L 313 1100 
L 313 1709 
L 2253 4666 
z
" transform="scale(0.015625)"/>
       </defs>
       <use xlink:href="#DejaVuSans-36"/>
       <use xlink:href="#DejaVuSans-2e" x="63.623047"/>
       <use xlink:href="#DejaVuSans-34" x="95.410156"/>
      </g>
     </g>
    </g>
    <g id="xtick_2">
     <g id="line2d_2">
      <g>
       <use xlink:href="#m1f68c6534b" x="101.530588" y="312.92" style="stroke: #000000; stroke-width: 0.8"/>
      </g>
     </g>
     <g id="text_2">
      <!-- 6.6 -->
      <g transform="translate(91.988713 325.538125) scale(0.12 -0.12)">
       <use xlink:href="#DejaVuSans-36"/>
       <use xlink:href="#DejaVuSans-2e" x="63.623047"/>
       <use xlink:href="#DejaVuSans-36" x="95.410156"/>
      </g>
     </g>
    </g>
    <g id="xtick_3">
     <g id="line2d_3">
      <g>
       <use xlink:href="#m1f68c6534b" x="150.131176" y="312.92" style="stroke: #000000; stroke-width: 0.8"/>
      </g>
     </g>
     <g id="text_3">
      <!-- 6.8 -->
      <g transform="translate(140.589301 325.538125) scale(0.12 -0.12)">
       <defs>
        <path id="DejaVuSans-38" d="M 2034 2216 
Q 1584 2216 1326 1975 
Q 1069 1734 1069 1313 
Q 1069 891 1326 650 
Q 1584 409 2034 409 
Q 2484 409 2743 651 
Q 3003 894 3003 1313 
Q 3003 1734 2745 1975 
Q 2488 2216 2034 2216 
z
M 1403 2484 
Q 997 2584 770 2862 
Q 544 3141 544 3541 
Q 544 4100 942 4425 
Q 1341 4750 2034 4750 
Q 2731 4750 3128 4425 
Q 3525 4100 3525 3541 
Q 3525 3141 3298 2862 
Q 3072 2584 2669 2484 
Q 3125 2378 3379 2068 
Q 3634 1759 3634 1313 
Q 3634 634 3220 271 
Q 2806 -91 2034 -91 
Q 1263 -91 848 271 
Q 434 634 434 1313 
Q 434 1759 690 2068 
Q 947 2378 1403 2484 
z
M 1172 3481 
Q 1172 3119 1398 2916 
Q 1625 2713 2034 2713 
Q 2441 2713 2670 2916 
Q 2900 3119 2900 3481 
Q 2900 3844 2670 4047 
Q 2441 4250 2034 4250 
Q 1625 4250 1398 4047 
Q 1172 3844 1172 3481 
z
" transform="scale(0.015625)"/>
       </defs>
       <use xlink:href="#DejaVuSans-36"/>
       <use xlink:href="#DejaVuSans-2e" x="63.623047"/>
       <use xlink:href="#DejaVuSans-38" x="95.410156"/>
      </g>
     </g>
    </g>
    <g id="xtick_4">
     <g id="line2d_4">
      <g>
       <use xlink:href="#m1f68c6534b" x="198.731765" y="312.92" style="stroke: #000000; stroke-width: 0.8"/>
      </g>
     </g>
     <g id="text_4">
      <!-- 7.0 -->
      <g transform="translate(189.18989 325.538125) scale(0.12 -0.12)">
       <defs>
        <path id="DejaVuSans-37" d="M 525 4666 
L 3525 4666 
L 3525 4397 
L 1831 0 
L 1172 0 
L 2766 4134 
L 525 4134 
L 525 4666 
z
" transform="scale(0.015625)"/>
        <path id="DejaVuSans-30" d="M 2034 4250 
Q 1547 4250 1301 3770 
Q 1056 3291 1056 2328 
Q 1056 1369 1301 889 
Q 1547 409 2034 409 
Q 2525 409 2770 889 
Q 3016 1369 3016 2328 
Q 3016 3291 2770 3770 
Q 2525 4250 2034 4250 
z
M 2034 4750 
Q 2819 4750 3233 4129 
Q 3647 3509 3647 2328 
Q 3647 1150 3233 529 
Q 2819 -91 2034 -91 
Q 1250 -91 836 529 
Q 422 1150 422 2328 
Q 422 3509 836 4129 
Q 1250 4750 2034 4750 
z
" transform="scale(0.015625)"/>
       </defs>
       <use xlink:href="#DejaVuSans-37"/>
       <use xlink:href="#DejaVuSans-2e" x="63.623047"/>
       <use xlink:href="#DejaVuSans-30" x="95.410156"/>
      </g>
     </g>
    </g>
    <g id="xtick_5">
     <g id="line2d_5">
      <g>
       <use xlink:href="#m1f68c6534b" x="247.332353" y="312.92" style="stroke: #000000; stroke-width: 0.8"/>
      </g>
     </g>
     <g id="text_5">
      <!-- 7.2 -->
      <g transform="translate(237.790478 325.538125) scale(0.12 -0.12)">
       <defs>
        <path id="DejaVuSans-32" d="M 1228 531 
L 3431 531 
L 3431 0 
L 469 0 
L 469 531 
Q 828 903 1448 1529 
Q 2069 2156 2228 2338 
Q 2531 2678 2651 2914 
Q 2772 3150 2772 3378 
Q 2772 3750 2511 3984 
Q 2250 4219 1831 4219 
Q 1534 4219 1204 4116 
Q 875 4013 500 3803 
L 500 4441 
Q 881 4594 1212 4672 
Q 1544 4750 1819 4750 
Q 2544 4750 2975 4387 
Q 3406 4025 3406 3419 
Q 3406 3131 3298 2873 
Q 3191 2616 2906 2266 
Q 2828 2175 2409 1742 
Q 1991 1309 1228 531 
z
" transform="scale(0.015625)"/>
       </defs>
       <use xlink:href="#DejaVuSans-37"/>
       <use xlink:href="#DejaVuSans-2e" x="63.623047"/>
       <use xlink:href="#DejaVuSans-32" x="95.410156"/>
      </g>
     </g>
    </g>
    <g id="xtick_6">
     <g id="line2d_6">
      <g>
       <use xlink:href="#m1f68c6534b" x="295.932941" y="312.92" style="stroke: #000000; stroke-width: 0.8"/>
      </g>
     </g>
     <g id="text_6">
      <!-- 7.4 -->
      <g transform="translate(286.391066 325.538125) scale(0.12 -0.12)">
       <use xlink:href="#DejaVuSans-37"/>
       <use xlink:href="#DejaVuSans-2e" x="63.623047"/>
       <use xlink:href="#DejaVuSans-34" x="95.410156"/>
      </g>
     </g>
    </g>
    <g id="xtick_7">
     <g id="line2d_7">
      <g>
       <use xlink:href="#m1f68c6534b" x="344.533529" y="312.92" style="stroke: #000000; stroke-width: 0.8"/>
      </g>
     </g>
     <g id="text_7">
      <!-- 7.6 -->
      <g transform="translate(334.991654 325.538125) scale(0.12 -0.12)">
       <use xlink:href="#DejaVuSans-37"/>
       <use xlink:href="#DejaVuSans-2e" x="63.623047"/>
       <use xlink:href="#DejaVuSans-36" x="95.410156"/>
      </g>
     </g>
    </g>
    <g id="xtick_8">
     <g id="line2d_8">
      <g>
       <use xlink:href="#m1f68c6534b" x="393.134118" y="312.92" style="stroke: #000000; stroke-width: 0.8"/>
      </g>
     </g>
     <g id="text_8">
      <!-- 7.8 -->
      <g transform="translate(383.592243 325.538125) scale(0.12 -0.12)">
       <use xlink:href="#DejaVuSans-37"/>
       <use xlink:href="#DejaVuSans-2e" x="63.623047"/>
       <use xlink:href="#DejaVuSans-38" x="95.410156"/>
      </g>
     </g>
    </g>
    <g id="xtick_9">
     <g id="line2d_9">
      <g>
       <use xlink:href="#m1f68c6534b" x="441.734706" y="312.92" style="stroke: #000000; stroke-width: 0.8"/>
      </g>
     </g>
     <g id="text_9">
      <!-- 8.0 -->
      <g transform="translate(432.192831 325.538125) scale(0.12 -0.12)">
       <use xlink:href="#DejaVuSans-38"/>
       <use xlink:href="#DejaVuSans-2e" x="63.623047"/>
       <use xlink:href="#DejaVuSans-30" x="95.410156"/>
      </g>
     </g>
    </g>
    <g id="text_10">
     <!-- Retention Time (min) -->
     <g transform="translate(196.0625 341.151875) scale(0.12 -0.12)">
      <defs>
       <path id="DejaVuSans-52" d="M 2841 2188 
Q 3044 2119 3236 1894 
Q 3428 1669 3622 1275 
L 4263 0 
L 3584 0 
L 2988 1197 
Q 2756 1666 2539 1819 
Q 2322 1972 1947 1972 
L 1259 1972 
L 1259 0 
L 628 0 
L 628 4666 
L 2053 4666 
Q 2853 4666 3247 4331 
Q 3641 3997 3641 3322 
Q 3641 2881 3436 2590 
Q 3231 2300 2841 2188 
z
M 1259 4147 
L 1259 2491 
L 2053 2491 
Q 2509 2491 2742 2702 
Q 2975 2913 2975 3322 
Q 2975 3731 2742 3939 
Q 2509 4147 2053 4147 
L 1259 4147 
z
" transform="scale(0.015625)"/>
       <path id="DejaVuSans-65" d="M 3597 1894 
L 3597 1613 
L 953 1613 
Q 991 1019 1311 708 
Q 1631 397 2203 397 
Q 2534 397 2845 478 
Q 3156 559 3463 722 
L 3463 178 
Q 3153 47 2828 -22 
Q 2503 -91 2169 -91 
Q 1331 -91 842 396 
Q 353 884 353 1716 
Q 353 2575 817 3079 
Q 1281 3584 2069 3584 
Q 2775 3584 3186 3129 
Q 3597 2675 3597 1894 
z
M 3022 2063 
Q 3016 2534 2758 2815 
Q 2500 3097 2075 3097 
Q 1594 3097 1305 2825 
Q 1016 2553 972 2059 
L 3022 2063 
z
" transform="scale(0.015625)"/>
       <path id="DejaVuSans-74" d="M 1172 4494 
L 1172 3500 
L 2356 3500 
L 2356 3053 
L 1172 3053 
L 1172 1153 
Q 1172 725 1289 603 
Q 1406 481 1766 481 
L 2356 481 
L 2356 0 
L 1766 0 
Q 1100 0 847 248 
Q 594 497 594 1153 
L 594 3053 
L 172 3053 
L 172 3500 
L 594 3500 
L 594 4494 
L 1172 4494 
z
" transform="scale(0.015625)"/>
       <path id="DejaVuSans-6e" d="M 3513 2113 
L 3513 0 
L 2938 0 
L 2938 2094 
Q 2938 2591 2744 2837 
Q 2550 3084 2163 3084 
Q 1697 3084 1428 2787 
Q 1159 2491 1159 1978 
L 1159 0 
L 581 0 
L 581 3500 
L 1159 3500 
L 1159 2956 
Q 1366 3272 1645 3428 
Q 1925 3584 2291 3584 
Q 2894 3584 3203 3211 
Q 3513 2838 3513 2113 
z
" transform="scale(0.015625)"/>
       <path id="DejaVuSans-69" d="M 603 3500 
L 1178 3500 
L 1178 0 
L 603 0 
L 603 3500 
z
M 603 4863 
L 1178 4863 
L 1178 4134 
L 603 4134 
L 603 4863 
z
" transform="scale(0.015625)"/>
       <path id="DejaVuSans-6f" d="M 1959 3097 
Q 1497 3097 1228 2736 
Q 959 2375 959 1747 
Q 959 1119 1226 758 
Q 1494 397 1959 397 
Q 2419 397 2687 759 
Q 2956 1122 2956 1747 
Q 2956 2369 2687 2733 
Q 2419 3097 1959 3097 
z
M 1959 3584 
Q 2709 3584 3137 3096 
Q 3566 2609 3566 1747 
Q 3566 888 3137 398 
Q 2709 -91 1959 -91 
Q 1206 -91 779 398 
Q 353 888 353 1747 
Q 353 2609 779 3096 
Q 1206 3584 1959 3584 
z
" transform="scale(0.015625)"/>
       <path id="DejaVuSans-20" transform="scale(0.015625)"/>
       <path id="DejaVuSans-54" d="M -19 4666 
L 3928 4666 
L 3928 4134 
L 2272 4134 
L 2272 0 
L 1638 0 
L 1638 4134 
L -19 4134 
L -19 4666 
z
" transform="scale(0.015625)"/>
       <path id="DejaVuSans-6d" d="M 3328 2828 
Q 3544 3216 3844 3400 
Q 4144 3584 4550 3584 
Q 5097 3584 5394 3201 
Q 5691 2819 5691 2113 
L 5691 0 
L 5113 0 
L 5113 2094 
Q 5113 2597 4934 2840 
Q 4756 3084 4391 3084 
Q 3944 3084 3684 2787 
Q 3425 2491 3425 1978 
L 3425 0 
L 2847 0 
L 2847 2094 
Q 2847 2600 2669 2842 
Q 2491 3084 2119 3084 
Q 1678 3084 1418 2786 
Q 1159 2488 1159 1978 
L 1159 0 
L 581 0 
L 581 3500 
L 1159 3500 
L 1159 2956 
Q 1356 3278 1631 3431 
Q 1906 3584 2284 3584 
Q 2666 3584 2933 3390 
Q 3200 3197 3328 2828 
z
" transform="scale(0.015625)"/>
       <path id="DejaVuSans-28" d="M 1984 4856 
Q 1566 4138 1362 3434 
Q 1159 2731 1159 2009 
Q 1159 1288 1364 580 
Q 1569 -128 1984 -844 
L 1484 -844 
Q 1016 -109 783 600 
Q 550 1309 550 2009 
Q 550 2706 781 3412 
Q 1013 4119 1484 4856 
L 1984 4856 
z
" transform="scale(0.015625)"/>
       <path id="DejaVuSans-29" d="M 513 4856 
L 1013 4856 
Q 1481 4119 1714 3412 
Q 1947 2706 1947 2009 
Q 1947 1309 1714 600 
Q 1481 -109 1013 -844 
L 513 -844 
Q 928 -128 1133 580 
Q 1338 1288 1338 2009 
Q 1338 2731 1133 3434 
Q 928 4138 513 4856 
z
" transform="scale(0.015625)"/>
      </defs>
      <use xlink:href="#DejaVuSans-52"/>
      <use xlink:href="#DejaVuSans-65" x="64.982422"/>
      <use xlink:href="#DejaVuSans-74" x="126.505859"/>
      <use xlink:href="#DejaVuSans-65" x="165.714844"/>
      <use xlink:href="#DejaVuSans-6e" x="227.238281"/>
      <use xlink:href="#DejaVuSans-74" x="290.617188"/>
      <use xlink:href="#DejaVuSans-69" x="329.826172"/>
      <use xlink:href="#DejaVuSans-6f" x="357.609375"/>
      <use xlink:href="#DejaVuSans-6e" x="418.791016"/>
      <use xlink:href="#DejaVuSans-20" x="482.169922"/>
      <use xlink:href="#DejaVuSans-54" x="513.957031"/>
      <use xlink:href="#DejaVuSans-69" x="571.916016"/>
      <use xlink:href="#DejaVuSans-6d" x="599.699219"/>
      <use xlink:href="#DejaVuSans-65" x="697.111328"/>
      <use xlink:href="#DejaVuSans-20" x="758.634766"/>
      <use xlink:href="#DejaVuSans-28" x="790.421875"/>
      <use xlink:href="#DejaVuSans-6d" x="829.435547"/>
      <use xlink:href="#DejaVuSans-69" x="926.847656"/>
      <use xlink:href="#DejaVuSans-6e" x="954.630859"/>
      <use xlink:href="#DejaVuSans-29" x="1018.009766"/>
     </g>
    </g>
   </g>
   <g id="matplotlib.axis_2">
    <g id="ytick_1">
     <g id="line2d_10">
      <defs>
       <path id="mfd57d1f9ac" d="M 0 0 
L 3.5 0 
" style="stroke: #000000; stroke-width: 0.8"/>
      </defs>
      <g>
       <use xlink:href="#mfd57d1f9ac" x="52.93" y="289.673333" style="stroke: #000000; stroke-width: 0.8"/>
      </g>
     </g>
     <g id="text_11">
      <!-- 0.0 -->
      <g transform="translate(30.34625 294.232396) scale(0.12 -0.12)">
       <use xlink:href="#DejaVuSans-30"/>
       <use xlink:href="#DejaVuSans-2e" x="63.623047"/>
       <use xlink:href="#DejaVuSans-30" x="95.410156"/>
      </g>
     </g>
    </g>
    <g id="ytick_2">
     <g id="line2d_11">
      <g>
       <use xlink:href="#mfd57d1f9ac" x="52.93" y="243.18" style="stroke: #000000; stroke-width: 0.8"/>
      </g>
     </g>
     <g id="text_12">
      <!-- 0.2 -->
      <g transform="translate(30.34625 247.739062) scale(0.12 -0.12)">
       <use xlink:href="#DejaVuSans-30"/>
       <use xlink:href="#DejaVuSans-2e" x="63.623047"/>
       <use xlink:href="#DejaVuSans-32" x="95.410156"/>
      </g>
     </g>
    </g>
    <g id="ytick_3">
     <g id="line2d_12">
      <g>
       <use xlink:href="#mfd57d1f9ac" x="52.93" y="196.686667" style="stroke: #000000; stroke-width: 0.8"/>
      </g>
     </g>
     <g id="text_13">
      <!-- 0.4 -->
      <g transform="translate(30.34625 201.245729) scale(0.12 -0.12)">
       <use xlink:href="#DejaVuSans-30"/>
       <use xlink:href="#DejaVuSans-2e" x="63.623047"/>
       <use xlink:href="#DejaVuSans-34" x="95.410156"/>
      </g>
     </g>
    </g>
    <g id="ytick_4">
     <g id="line2d_13">
      <g>
       <use xlink:href="#mfd57d1f9ac" x="52.93" y="150.193333" style="stroke: #000000; stroke-width: 0.8"/>
      </g>
     </g>
     <g id="text_14">
      <!-- 0.6 -->
      <g transform="translate(30.34625 154.752396) scale(0.12 -0.12)">
       <use xlink:href="#DejaVuSans-30"/>
       <use xlink:href="#DejaVuSans-2e" x="63.623047"/>
       <use xlink:href="#DejaVuSans-36" x="95.410156"/>
      </g>
     </g>
    </g>
    <g id="ytick_5">
     <g id="line2d_14">
      <g>
       <use xlink:href="#mfd57d1f9ac" x="52.93" y="103.7" style="stroke: #000000; stroke-width: 0.8"/>
      </g>
     </g>
     <g id="text_15">
      <!-- 0.8 -->
      <g transform="translate(30.34625 108.259063) scale(0.12 -0.12)">
       <use xlink:href="#DejaVuSans-30"/>
       <use xlink:href="#DejaVuSans-2e" x="63.623047"/>
       <use xlink:href="#DejaVuSans-38" x="95.410156"/>
      </g>
     </g>
    </g>
    <g id="ytick_6">
     <g id="line2d_15">
      <g>
       <use xlink:href="#mfd57d1f9ac" x="52.93" y="57.206667" style="stroke: #000000; stroke-width: 0.8"/>
      </g>
     </g>
     <g id="text_16">
      <!-- 1.0 -->
      <g transform="translate(30.34625 61.765729) scale(0.12 -0.12)">
       <defs>
        <path id="DejaVuSans-31" d="M 794 531 
L 1825 531 
L 1825 4091 
L 703 3866 
L 703 4441 
L 1819 4666 
L 2450 4666 
L 2450 531 
L 3481 531 
L 3481 0 
L 794 0 
L 794 531 
z
" transform="scale(0.015625)"/>
       </defs>
       <use xlink:href="#DejaVuSans-31"/>
       <use xlink:href="#DejaVuSans-2e" x="63.623047"/>
       <use xlink:href="#DejaVuSans-30" x="95.410156"/>
      </g>
     </g>
    </g>
    <g id="text_17">
     <!-- Normalized Intensity -->
     <g transform="translate(23.850625 235.488438) rotate(-90) scale(0.12 -0.12)">
      <defs>
       <path id="DejaVuSans-4e" d="M 628 4666 
L 1478 4666 
L 3547 763 
L 3547 4666 
L 4159 4666 
L 4159 0 
L 3309 0 
L 1241 3903 
L 1241 0 
L 628 0 
L 628 4666 
z
" transform="scale(0.015625)"/>
       <path id="DejaVuSans-72" d="M 2631 2963 
Q 2534 3019 2420 3045 
Q 2306 3072 2169 3072 
Q 1681 3072 1420 2755 
Q 1159 2438 1159 1844 
L 1159 0 
L 581 0 
L 581 3500 
L 1159 3500 
L 1159 2956 
Q 1341 3275 1631 3429 
Q 1922 3584 2338 3584 
Q 2397 3584 2469 3576 
Q 2541 3569 2628 3553 
L 2631 2963 
z
" transform="scale(0.015625)"/>
       <path id="DejaVuSans-61" d="M 2194 1759 
Q 1497 1759 1228 1600 
Q 959 1441 959 1056 
Q 959 750 1161 570 
Q 1363 391 1709 391 
Q 2188 391 2477 730 
Q 2766 1069 2766 1631 
L 2766 1759 
L 2194 1759 
z
M 3341 1997 
L 3341 0 
L 2766 0 
L 2766 531 
Q 2569 213 2275 61 
Q 1981 -91 1556 -91 
Q 1019 -91 701 211 
Q 384 513 384 1019 
Q 384 1609 779 1909 
Q 1175 2209 1959 2209 
L 2766 2209 
L 2766 2266 
Q 2766 2663 2505 2880 
Q 2244 3097 1772 3097 
Q 1472 3097 1187 3025 
Q 903 2953 641 2809 
L 641 3341 
Q 956 3463 1253 3523 
Q 1550 3584 1831 3584 
Q 2591 3584 2966 3190 
Q 3341 2797 3341 1997 
z
" transform="scale(0.015625)"/>
       <path id="DejaVuSans-6c" d="M 603 4863 
L 1178 4863 
L 1178 0 
L 603 0 
L 603 4863 
z
" transform="scale(0.015625)"/>
       <path id="DejaVuSans-7a" d="M 353 3500 
L 3084 3500 
L 3084 2975 
L 922 459 
L 3084 459 
L 3084 0 
L 275 0 
L 275 525 
L 2438 3041 
L 353 3041 
L 353 3500 
z
" transform="scale(0.015625)"/>
       <path id="DejaVuSans-64" d="M 2906 2969 
L 2906 4863 
L 3481 4863 
L 3481 0 
L 2906 0 
L 2906 525 
Q 2725 213 2448 61 
Q 2172 -91 1784 -91 
Q 1150 -91 751 415 
Q 353 922 353 1747 
Q 353 2572 751 3078 
Q 1150 3584 1784 3584 
Q 2172 3584 2448 3432 
Q 2725 3281 2906 2969 
z
M 947 1747 
Q 947 1113 1208 752 
Q 1469 391 1925 391 
Q 2381 391 2643 752 
Q 2906 1113 2906 1747 
Q 2906 2381 2643 2742 
Q 2381 3103 1925 3103 
Q 1469 3103 1208 2742 
Q 947 2381 947 1747 
z
" transform="scale(0.015625)"/>
       <path id="DejaVuSans-49" d="M 628 4666 
L 1259 4666 
L 1259 0 
L 628 0 
L 628 4666 
z
" transform="scale(0.015625)"/>
       <path id="DejaVuSans-73" d="M 2834 3397 
L 2834 2853 
Q 2591 2978 2328 3040 
Q 2066 3103 1784 3103 
Q 1356 3103 1142 2972 
Q 928 2841 928 2578 
Q 928 2378 1081 2264 
Q 1234 2150 1697 2047 
L 1894 2003 
Q 2506 1872 2764 1633 
Q 3022 1394 3022 966 
Q 3022 478 2636 193 
Q 2250 -91 1575 -91 
Q 1294 -91 989 -36 
Q 684 19 347 128 
L 347 722 
Q 666 556 975 473 
Q 1284 391 1588 391 
Q 1994 391 2212 530 
Q 2431 669 2431 922 
Q 2431 1156 2273 1281 
Q 2116 1406 1581 1522 
L 1381 1569 
Q 847 1681 609 1914 
Q 372 2147 372 2553 
Q 372 3047 722 3315 
Q 1072 3584 1716 3584 
Q 2034 3584 2315 3537 
Q 2597 3491 2834 3397 
z
" transform="scale(0.015625)"/>
       <path id="DejaVuSans-79" d="M 2059 -325 
Q 1816 -950 1584 -1140 
Q 1353 -1331 966 -1331 
L 506 -1331 
L 506 -850 
L 844 -850 
Q 1081 -850 1212 -737 
Q 1344 -625 1503 -206 
L 1606 56 
L 191 3500 
L 800 3500 
L 1894 763 
L 2988 3500 
L 3597 3500 
L 2059 -325 
z
" transform="scale(0.015625)"/>
      </defs>
      <use xlink:href="#DejaVuSans-4e"/>
      <use xlink:href="#DejaVuSans-6f" x="74.804688"/>
      <use xlink:href="#DejaVuSans-72" x="135.986328"/>
      <use xlink:href="#DejaVuSans-6d" x="175.349609"/>
      <use xlink:href="#DejaVuSans-61" x="272.761719"/>
      <use xlink:href="#DejaVuSans-6c" x="334.041016"/>
      <use xlink:href="#DejaVuSans-69" x="361.824219"/>
      <use xlink:href="#DejaVuSans-7a" x="389.607422"/>
      <use xlink:href="#DejaVuSans-65" x="442.097656"/>
      <use xlink:href="#DejaVuSans-64" x="503.621094"/>
      <use xlink:href="#DejaVuSans-20" x="567.097656"/>
      <use xlink:href="#DejaVuSans-49" x="598.884766"/>
      <use xlink:href="#DejaVuSans-6e" x="628.376953"/>
      <use xlink:href="#DejaVuSans-74" x="691.755859"/>
      <use xlink:href="#DejaVuSans-65" x="730.964844"/>
      <use xlink:href="#DejaVuSans-6e" x="792.488281"/>
      <use xlink:href="#DejaVuSans-73" x="855.867188"/>
      <use xlink:href="#DejaVuSans-69" x="907.966797"/>
      <use xlink:href="#DejaVuSans-74" x="935.75"/>
      <use xlink:href="#DejaVuSans-79" x="974.958984"/>
     </g>
    </g>
   </g>
   <g id="line2d_16">
    <path d="M 52.524185 289.192961 
L 53.7392 289.206305 
L 54.954215 289.326398 
L 59.005074 289.199633 
L 59.814273 289.386445 
L 63.865132 289.212977 
L 65.080147 289.246336 
L 68.725191 289.226321 
L 71.155221 289.33307 
L 77.636109 289.319726 
L 78.851124 289.273023 
L 79.660324 289.239664 
L 81.684538 289.273023 
L 83.711183 289.232992 
L 84.520382 289.092884 
L 86.950412 289.279695 
L 88.571241 289.273023 
L 89.786256 289.126243 
L 92.61967 289.293039 
L 93.834685 289.192961 
L 95.455515 289.246336 
L 97.479729 289.326398 
L 98.694744 289.07954 
L 99.506374 289.092884 
L 100.721388 289.219649 
L 103.151418 289.112899 
L 104.366433 289.026166 
L 105.581447 289.219649 
L 106.796462 289.293039 
L 108.011477 289.159602 
L 110.844891 289.226321 
L 111.250706 289.286367 
L 113.27492 289.092884 
L 118.134979 289.072868 
L 119.349994 289.019494 
L 120.970824 289.132915 
L 122.185838 289.07954 
L 123.806668 289.119571 
L 124.615868 289.106228 
L 125.830882 289.192961 
L 132.715156 289.059525 
L 135.145185 288.999478 
L 136.3602 288.979463 
L 137.575215 289.092884 
L 141.220259 288.999478 
L 144.056103 289.026166 
L 144.865303 288.852698 
L 145.676933 288.852698 
L 146.891947 288.912744 
L 149.321977 288.812667 
L 150.536991 288.665887 
L 152.561206 288.839354 
L 153.370406 288.819339 
L 154.182036 288.705918 
L 156.20625 288.625856 
L 157.82708 288.759292 
L 159.445479 288.559137 
L 161.875509 288.699246 
L 163.090523 288.67923 
L 164.711353 288.452388 
L 165.520553 288.432372 
L 167.547197 288.592496 
L 170.786426 288.345639 
L 172.407256 288.479075 
L 173.216456 288.272248 
L 174.025656 288.27892 
L 174.837286 288.325623 
L 176.0523 288.192186 
L 177.267315 288.252233 
L 178.885715 288.13214 
L 185.772418 288.038734 
L 195.086721 287.324848 
L 197.110935 286.877835 
L 197.922565 286.78443 
L 200.755979 286.037185 
L 201.567609 285.610187 
L 203.591824 285.016394 
L 204.806838 284.462632 
L 205.616038 283.83548 
L 207.236868 282.881408 
L 209.261082 281.567057 
L 213.311941 276.970164 
L 214.121141 275.86264 
L 215.336156 273.767684 
L 218.9812 266.648839 
L 220.196215 263.252876 
L 222.222859 257.415022 
L 223.437874 253.632093 
L 225.867903 244.304871 
L 227.892118 235.584786 
L 229.916332 225.530334 
L 233.157991 207.910024 
L 233.967191 202.39909 
L 236.397221 186.773658 
L 239.233065 168.119213 
L 240.042265 161.914409 
L 246.926538 114.671162 
L 247.332353 112.549519 
L 248.141553 106.951851 
L 250.168197 95.136036 
L 252.192412 84.487791 
L 253.001612 80.66483 
L 253.407426 79.230386 
L 254.216626 75.540863 
L 255.028256 72.438461 
L 255.431641 71.27089 
L 256.243271 68.235206 
L 257.052471 65.673222 
L 257.458286 64.779197 
L 258.267485 62.697585 
L 259.076685 61.049642 
L 261.10333 58.307519 
L 262.318344 57.2934 
L 262.721729 57.206667 
L 263.533359 57.320088 
L 264.748374 57.833819 
L 265.557574 58.434284 
L 267.581788 60.916206 
L 270.417632 67.367868 
L 271.632647 70.310146 
L 272.847662 74.233184 
L 274.468491 79.837523 
L 275.277691 82.779801 
L 275.683506 83.907341 
L 276.898521 88.691045 
L 278.922735 96.870712 
L 281.352765 106.76504 
L 281.75858 108.086063 
L 282.567779 111.775586 
L 285.403624 123.718167 
L 285.807009 125.059205 
L 286.618638 128.775416 
L 291.478697 148.297198 
L 291.882082 149.564847 
L 292.693712 152.940794 
L 295.123741 161.994471 
L 297.553771 170.40098 
L 297.957156 171.488489 
L 298.768786 174.47747 
L 301.6022 183.404382 
L 302.008015 184.338439 
L 302.817215 186.953797 
L 305.247244 193.792426 
L 307.677273 200.150682 
L 308.083088 200.891256 
L 309.298103 204.013673 
L 311.728132 209.638028 
L 312.133947 210.358586 
L 312.943147 212.139966 
L 314.563977 215.409164 
L 315.778991 217.844383 
L 316.182376 218.444847 
L 316.994006 220.09279 
L 321.854065 228.452597 
L 322.25745 228.886266 
L 325.902494 234.510621 
L 328.738338 238.273534 
L 329.953353 240.154991 
L 330.359168 240.581988 
L 331.168368 241.749559 
L 333.598397 244.605103 
L 336.028426 247.880973 
L 336.434241 248.214565 
L 341.2943 253.918982 
L 343.318515 256.067312 
L 345.342729 258.502531 
L 347.369374 260.437362 
L 348.987773 262.051946 
L 350.202788 263.332938 
L 350.608603 263.599811 
L 352.229433 265.067614 
L 353.847832 266.495387 
L 355.062847 267.609583 
L 356.277862 268.543639 
L 357.089491 269.104073 
L 359.113706 270.691969 
L 363.973765 273.834403 
L 368.428009 276.302981 
L 369.239638 276.6299 
L 371.263853 277.637347 
L 373.693882 278.604763 
L 374.503082 278.798246 
L 375.314712 279.178541 
L 376.529727 279.705615 
L 380.983971 281.073341 
L 381.79317 281.386917 
L 382.6048 281.520354 
L 383.819815 281.613759 
L 385.844029 282.23424 
L 387.464859 282.701268 
L 389.083259 282.721284 
L 391.109903 283.288389 
L 393.134118 283.548591 
L 394.754947 283.715387 
L 396.779162 284.195759 
L 397.588362 284.195759 
L 398.803376 284.315852 
L 399.615006 284.369226 
L 402.045036 284.822911 
L 403.26005 284.829583 
L 407.714294 285.316627 
L 408.929309 285.43672 
L 412.980168 285.810342 
L 424.7245 286.537572 
L 425.5337 286.510885 
L 429.584559 286.791102 
L 430.393759 286.737727 
L 434.444618 286.951226 
L 435.253817 286.911195 
L 436.874647 287.118021 
L 438.089662 287.244786 
L 438.898862 287.284817 
L 440.113876 287.044631 
L 440.925506 287.151381 
L 442.543906 287.378223 
L 444.57055 287.311505 
L 445.785565 287.224771 
L 447.809779 287.58505 
L 449.833994 287.358207 
L 453.075653 287.651768 
L 455.505683 287.558362 
L 457.529897 287.798548 
L 458.744912 287.725158 
L 460.769126 287.685127 
L 461.984141 287.905298 
L 465.629185 287.745174 
L 466.440815 287.838579 
L 466.440815 287.838579 
" clip-path="url(#pb4b846750b)" style="fill: none; stroke: #969696; stroke-width: 1.2; stroke-linecap: square"/>
   </g>
   <g id="line2d_17">
    <path d="M 52.524185 289.107351 
L 54.55083 288.955375 
L 56.575044 289.054945 
L 58.195874 289.018261 
L 59.814273 288.981577 
L 62.244303 288.955375 
L 63.865132 288.981577 
L 71.155221 288.876766 
L 81.281153 288.504685 
L 82.899553 288.536129 
L 84.114567 288.619978 
L 87.759612 288.384152 
L 90.189641 288.258378 
L 91.404656 288.059236 
L 94.646315 287.980628 
L 97.076344 287.723839 
L 98.291359 287.739561 
L 99.506374 287.529938 
L 101.530588 287.325556 
L 104.366433 287.121173 
L 105.984832 286.827701 
L 108.820676 286.670484 
L 112.059906 286.403215 
L 112.871536 286.408455 
L 114.489935 286.18311 
L 122.185838 285.601407 
L 123.400853 285.475633 
L 126.640082 285.140236 
L 128.260912 284.836283 
L 131.500141 284.254579 
L 132.311771 283.997791 
L 133.93017 283.641432 
L 135.956815 283.091171 
L 137.17183 282.525189 
L 138.790229 282.043056 
L 140.816874 281.173121 
L 143.246903 279.899661 
L 144.461918 279.354641 
L 146.486132 277.992092 
L 148.510347 276.786759 
L 150.131176 275.843456 
L 151.752006 274.575237 
L 152.967021 273.862519 
L 154.58542 272.898253 
L 157.421265 271.064051 
L 159.042094 270.351333 
L 160.660494 269.423752 
L 163.496338 268.354674 
L 164.305538 268.071683 
L 165.520553 267.573829 
L 167.141382 267.227951 
L 172.001441 266.709134 
L 175.646485 267.04453 
L 178.48233 267.516182 
L 180.100729 267.835857 
L 182.530759 268.449005 
L 183.342388 268.648146 
L 185.366603 269.245572 
L 189.011647 270.194116 
L 191.441676 270.964481 
L 195.492536 271.902543 
L 196.301735 272.065001 
L 197.922565 272.112166 
L 199.13758 272.363714 
L 201.161794 272.494728 
L 203.997638 272.154091 
L 205.212653 271.944468 
L 206.021853 271.624793 
L 208.857697 270.199357 
L 210.072712 269.49712 
L 211.287727 268.31275 
L 214.121141 265.136961 
L 214.932771 263.999756 
L 216.55117 261.175086 
L 218.577815 257.124122 
L 219.79283 254.257527 
L 221.817044 248.519098 
L 223.437874 243.16323 
L 224.652888 238.834515 
L 227.082918 228.725446 
L 229.107132 219.150915 
L 231.131347 208.360572 
L 233.561376 194.190057 
L 236.803036 173.426899 
L 246.523153 108.155537 
L 248.953183 93.812083 
L 250.977397 83.514353 
L 253.001612 74.45864 
L 254.216626 69.951745 
L 255.431641 66.194253 
L 257.052471 62.106604 
L 257.86167 60.398177 
L 258.6733 59.119477 
L 259.4825 58.212857 
L 260.2917 57.60495 
L 261.10333 57.290516 
L 262.318344 57.23287 
L 263.127544 57.500139 
L 263.936744 58.165692 
L 264.748374 59.198085 
L 266.366773 61.745005 
L 267.178403 63.306696 
L 268.796803 67.153278 
L 270.011817 70.764034 
L 273.253477 81.517694 
L 275.683506 91.066022 
L 278.922735 104.5343 
L 285.807009 134.379374 
L 291.478697 157.437904 
L 294.717926 169.52267 
L 297.553771 179.374951 
L 299.9838 187.125762 
L 303.223029 196.726495 
L 308.892288 210.996581 
L 312.943147 219.785025 
L 316.994006 227.352415 
L 323.06908 236.858818 
L 328.738338 244.420968 
L 329.953353 245.998381 
L 331.168368 247.607238 
L 333.598397 250.374261 
L 340.079286 257.590533 
L 344.939344 262.569079 
L 349.393588 266.682931 
L 350.608603 267.710083 
L 353.847832 270.487588 
L 359.519521 274.470425 
L 360.734536 275.156941 
L 363.164565 276.70291 
L 366.809609 278.442781 
L 368.428009 279.234108 
L 370.048838 279.747684 
L 372.073053 280.743394 
L 373.288067 281.146918 
L 375.718097 281.833433 
L 376.933112 282.362731 
L 377.744741 282.53043 
L 378.959756 282.750534 
L 383.008185 283.756724 
L 384.2232 283.892979 
L 385.844029 284.317466 
L 387.059044 284.563773 
L 390.298273 284.972538 
L 391.513288 285.27125 
L 393.539933 285.480873 
L 401.639221 286.319365 
L 408.929309 286.979678 
L 412.574353 287.173579 
L 415.004382 287.299353 
L 415.813582 287.236466 
L 418.243612 287.535179 
L 419.458626 287.608547 
L 421.079456 287.514216 
L 423.9153 287.781486 
L 425.130315 287.713358 
L 429.178744 287.928222 
L 430.393759 287.854854 
L 431.608773 288.012071 
L 433.229603 288.132604 
L 436.468832 288.111642 
L 437.280462 288.263619 
L 438.089662 288.253138 
L 439.304676 288.169288 
L 440.519691 288.132604 
L 441.328891 288.179769 
L 442.949721 288.342227 
L 444.57055 288.232175 
L 448.618979 288.441798 
L 451.454824 288.45752 
L 452.669838 288.431317 
L 455.909067 288.431317 
L 460.365741 288.619978 
L 466.440815 288.609497 
L 466.440815 288.609497 
" clip-path="url(#pb4b846750b)" style="fill: none; stroke: #3690c0; stroke-width: 1.2; stroke-linecap: square"/>
   </g>
   <g id="patch_3">
    <path d="M 52.93 312.92 
L 52.93 33.96 
" style="fill: none; stroke: #000000; stroke-width: 0.5; stroke-linejoin: miter; stroke-linecap: square"/>
   </g>
   <g id="patch_4">
    <path d="M 52.93 312.92 
L 466.035 312.92 
" style="fill: none; stroke: #000000; stroke-width: 0.5; stroke-linejoin: miter; stroke-linecap: square"/>
   </g>
   <g id="legend_1">
    <g id="text_18">
     <!-- Experiment Conditions -->
     <g transform="translate(334.619875 48.758438) scale(0.1 -0.1)">
      <defs>
       <path id="DejaVuSans-45" d="M 628 4666 
L 3578 4666 
L 3578 4134 
L 1259 4134 
L 1259 2753 
L 3481 2753 
L 3481 2222 
L 1259 2222 
L 1259 531 
L 3634 531 
L 3634 0 
L 628 0 
L 628 4666 
z
" transform="scale(0.015625)"/>
       <path id="DejaVuSans-78" d="M 3513 3500 
L 2247 1797 
L 3578 0 
L 2900 0 
L 1881 1375 
L 863 0 
L 184 0 
L 1544 1831 
L 300 3500 
L 978 3500 
L 1906 2253 
L 2834 3500 
L 3513 3500 
z
" transform="scale(0.015625)"/>
       <path id="DejaVuSans-70" d="M 1159 525 
L 1159 -1331 
L 581 -1331 
L 581 3500 
L 1159 3500 
L 1159 2969 
Q 1341 3281 1617 3432 
Q 1894 3584 2278 3584 
Q 2916 3584 3314 3078 
Q 3713 2572 3713 1747 
Q 3713 922 3314 415 
Q 2916 -91 2278 -91 
Q 1894 -91 1617 61 
Q 1341 213 1159 525 
z
M 3116 1747 
Q 3116 2381 2855 2742 
Q 2594 3103 2138 3103 
Q 1681 3103 1420 2742 
Q 1159 2381 1159 1747 
Q 1159 1113 1420 752 
Q 1681 391 2138 391 
Q 2594 391 2855 752 
Q 3116 1113 3116 1747 
z
" transform="scale(0.015625)"/>
       <path id="DejaVuSans-43" d="M 4122 4306 
L 4122 3641 
Q 3803 3938 3442 4084 
Q 3081 4231 2675 4231 
Q 1875 4231 1450 3742 
Q 1025 3253 1025 2328 
Q 1025 1406 1450 917 
Q 1875 428 2675 428 
Q 3081 428 3442 575 
Q 3803 722 4122 1019 
L 4122 359 
Q 3791 134 3420 21 
Q 3050 -91 2638 -91 
Q 1578 -91 968 557 
Q 359 1206 359 2328 
Q 359 3453 968 4101 
Q 1578 4750 2638 4750 
Q 3056 4750 3426 4639 
Q 3797 4528 4122 4306 
z
" transform="scale(0.015625)"/>
      </defs>
      <use xlink:href="#DejaVuSans-45"/>
      <use xlink:href="#DejaVuSans-78" x="63.183594"/>
      <use xlink:href="#DejaVuSans-70" x="122.363281"/>
      <use xlink:href="#DejaVuSans-65" x="185.839844"/>
      <use xlink:href="#DejaVuSans-72" x="247.363281"/>
      <use xlink:href="#DejaVuSans-69" x="288.476562"/>
      <use xlink:href="#DejaVuSans-6d" x="316.259766"/>
      <use xlink:href="#DejaVuSans-65" x="413.671875"/>
      <use xlink:href="#DejaVuSans-6e" x="475.195312"/>
      <use xlink:href="#DejaVuSans-74" x="538.574219"/>
      <use xlink:href="#DejaVuSans-20" x="577.783203"/>
      <use xlink:href="#DejaVuSans-43" x="609.570312"/>
      <use xlink:href="#DejaVuSans-6f" x="679.394531"/>
      <use xlink:href="#DejaVuSans-6e" x="740.576172"/>
      <use xlink:href="#DejaVuSans-64" x="803.955078"/>
      <use xlink:href="#DejaVuSans-69" x="867.431641"/>
      <use xlink:href="#DejaVuSans-74" x="895.214844"/>
      <use xlink:href="#DejaVuSans-69" x="934.423828"/>
      <use xlink:href="#DejaVuSans-6f" x="962.207031"/>
      <use xlink:href="#DejaVuSans-6e" x="1023.388672"/>
      <use xlink:href="#DejaVuSans-73" x="1086.767578"/>
     </g>
    </g>
    <g id="line2d_18">
     <path d="M 351.403625 58.116875 
L 359.403625 58.116875 
L 367.403625 58.116875 
" style="fill: none; stroke: #969696; stroke-width: 1.2; stroke-linecap: square"/>
    </g>
    <g id="text_19">
     <!-- PS-19.6K -->
     <g transform="translate(373.803625 60.916875) scale(0.08 -0.08)">
      <defs>
       <path id="DejaVuSans-50" d="M 1259 4147 
L 1259 2394 
L 2053 2394 
Q 2494 2394 2734 2622 
Q 2975 2850 2975 3272 
Q 2975 3691 2734 3919 
Q 2494 4147 2053 4147 
L 1259 4147 
z
M 628 4666 
L 2053 4666 
Q 2838 4666 3239 4311 
Q 3641 3956 3641 3272 
Q 3641 2581 3239 2228 
Q 2838 1875 2053 1875 
L 1259 1875 
L 1259 0 
L 628 0 
L 628 4666 
z
" transform="scale(0.015625)"/>
       <path id="DejaVuSans-53" d="M 3425 4513 
L 3425 3897 
Q 3066 4069 2747 4153 
Q 2428 4238 2131 4238 
Q 1616 4238 1336 4038 
Q 1056 3838 1056 3469 
Q 1056 3159 1242 3001 
Q 1428 2844 1947 2747 
L 2328 2669 
Q 3034 2534 3370 2195 
Q 3706 1856 3706 1288 
Q 3706 609 3251 259 
Q 2797 -91 1919 -91 
Q 1588 -91 1214 -16 
Q 841 59 441 206 
L 441 856 
Q 825 641 1194 531 
Q 1563 422 1919 422 
Q 2459 422 2753 634 
Q 3047 847 3047 1241 
Q 3047 1584 2836 1778 
Q 2625 1972 2144 2069 
L 1759 2144 
Q 1053 2284 737 2584 
Q 422 2884 422 3419 
Q 422 4038 858 4394 
Q 1294 4750 2059 4750 
Q 2388 4750 2728 4690 
Q 3069 4631 3425 4513 
z
" transform="scale(0.015625)"/>
       <path id="DejaVuSans-2d" d="M 313 2009 
L 1997 2009 
L 1997 1497 
L 313 1497 
L 313 2009 
z
" transform="scale(0.015625)"/>
       <path id="DejaVuSans-39" d="M 703 97 
L 703 672 
Q 941 559 1184 500 
Q 1428 441 1663 441 
Q 2288 441 2617 861 
Q 2947 1281 2994 2138 
Q 2813 1869 2534 1725 
Q 2256 1581 1919 1581 
Q 1219 1581 811 2004 
Q 403 2428 403 3163 
Q 403 3881 828 4315 
Q 1253 4750 1959 4750 
Q 2769 4750 3195 4129 
Q 3622 3509 3622 2328 
Q 3622 1225 3098 567 
Q 2575 -91 1691 -91 
Q 1453 -91 1209 -44 
Q 966 3 703 97 
z
M 1959 2075 
Q 2384 2075 2632 2365 
Q 2881 2656 2881 3163 
Q 2881 3666 2632 3958 
Q 2384 4250 1959 4250 
Q 1534 4250 1286 3958 
Q 1038 3666 1038 3163 
Q 1038 2656 1286 2365 
Q 1534 2075 1959 2075 
z
" transform="scale(0.015625)"/>
       <path id="DejaVuSans-4b" d="M 628 4666 
L 1259 4666 
L 1259 2694 
L 3353 4666 
L 4166 4666 
L 1850 2491 
L 4331 0 
L 3500 0 
L 1259 2247 
L 1259 0 
L 628 0 
L 628 4666 
z
" transform="scale(0.015625)"/>
      </defs>
      <use xlink:href="#DejaVuSans-50"/>
      <use xlink:href="#DejaVuSans-53" x="60.302734"/>
      <use xlink:href="#DejaVuSans-2d" x="123.779297"/>
      <use xlink:href="#DejaVuSans-31" x="159.863281"/>
      <use xlink:href="#DejaVuSans-39" x="223.486328"/>
      <use xlink:href="#DejaVuSans-2e" x="287.109375"/>
      <use xlink:href="#DejaVuSans-36" x="318.896484"/>
      <use xlink:href="#DejaVuSans-4b" x="382.519531"/>
     </g>
    </g>
    <g id="line2d_19">
     <path d="M 351.403625 69.859375 
L 359.403625 69.859375 
L 367.403625 69.859375 
" style="fill: none; stroke: #3690c0; stroke-width: 1.2; stroke-linecap: square"/>
    </g>
    <g id="text_20">
     <!-- PS-19.6K-SCF$_{3}$ -->
     <g transform="translate(373.803625 72.659375) scale(0.08 -0.08)">
      <defs>
       <path id="DejaVuSans-46" d="M 628 4666 
L 3309 4666 
L 3309 4134 
L 1259 4134 
L 1259 2759 
L 3109 2759 
L 3109 2228 
L 1259 2228 
L 1259 0 
L 628 0 
L 628 4666 
z
" transform="scale(0.015625)"/>
       <path id="DejaVuSans-33" d="M 2597 2516 
Q 3050 2419 3304 2112 
Q 3559 1806 3559 1356 
Q 3559 666 3084 287 
Q 2609 -91 1734 -91 
Q 1441 -91 1130 -33 
Q 819 25 488 141 
L 488 750 
Q 750 597 1062 519 
Q 1375 441 1716 441 
Q 2309 441 2620 675 
Q 2931 909 2931 1356 
Q 2931 1769 2642 2001 
Q 2353 2234 1838 2234 
L 1294 2234 
L 1294 2753 
L 1863 2753 
Q 2328 2753 2575 2939 
Q 2822 3125 2822 3475 
Q 2822 3834 2567 4026 
Q 2313 4219 1838 4219 
Q 1578 4219 1281 4162 
Q 984 4106 628 3988 
L 628 4550 
Q 988 4650 1302 4700 
Q 1616 4750 1894 4750 
Q 2613 4750 3031 4423 
Q 3450 4097 3450 3541 
Q 3450 3153 3228 2886 
Q 3006 2619 2597 2516 
z
" transform="scale(0.015625)"/>
      </defs>
      <use xlink:href="#DejaVuSans-50" transform="translate(0 0.78125)"/>
      <use xlink:href="#DejaVuSans-53" transform="translate(60.302734 0.78125)"/>
      <use xlink:href="#DejaVuSans-2d" transform="translate(123.779297 0.78125)"/>
      <use xlink:href="#DejaVuSans-31" transform="translate(159.863281 0.78125)"/>
      <use xlink:href="#DejaVuSans-39" transform="translate(223.486328 0.78125)"/>
      <use xlink:href="#DejaVuSans-2e" transform="translate(287.109375 0.78125)"/>
      <use xlink:href="#DejaVuSans-36" transform="translate(318.896484 0.78125)"/>
      <use xlink:href="#DejaVuSans-4b" transform="translate(382.519531 0.78125)"/>
      <use xlink:href="#DejaVuSans-2d" transform="translate(448.095703 0.78125)"/>
      <use xlink:href="#DejaVuSans-53" transform="translate(484.179688 0.78125)"/>
      <use xlink:href="#DejaVuSans-43" transform="translate(547.65625 0.78125)"/>
      <use xlink:href="#DejaVuSans-46" transform="translate(617.480469 0.78125)"/>
      <use xlink:href="#DejaVuSans-33" transform="translate(675.957031 -15.625) scale(0.7)"/>
     </g>
    </g>
   </g>
   <g id="legend_2">
    <g id="text_21">
     <!-- GPC Data -->
     <g transform="translate(356.219688 94.716875) scale(0.1 -0.1)">
      <defs>
       <path id="DejaVuSans-47" d="M 3809 666 
L 3809 1919 
L 2778 1919 
L 2778 2438 
L 4434 2438 
L 4434 434 
Q 4069 175 3628 42 
Q 3188 -91 2688 -91 
Q 1594 -91 976 548 
Q 359 1188 359 2328 
Q 359 3472 976 4111 
Q 1594 4750 2688 4750 
Q 3144 4750 3555 4637 
Q 3966 4525 4313 4306 
L 4313 3634 
Q 3963 3931 3569 4081 
Q 3175 4231 2741 4231 
Q 1884 4231 1454 3753 
Q 1025 3275 1025 2328 
Q 1025 1384 1454 906 
Q 1884 428 2741 428 
Q 3075 428 3337 486 
Q 3600 544 3809 666 
z
" transform="scale(0.015625)"/>
       <path id="DejaVuSans-44" d="M 1259 4147 
L 1259 519 
L 2022 519 
Q 2988 519 3436 956 
Q 3884 1394 3884 2338 
Q 3884 3275 3436 3711 
Q 2988 4147 2022 4147 
L 1259 4147 
z
M 628 4666 
L 1925 4666 
Q 3281 4666 3915 4102 
Q 4550 3538 4550 2338 
Q 4550 1131 3912 565 
Q 3275 0 1925 0 
L 628 0 
L 628 4666 
z
" transform="scale(0.015625)"/>
      </defs>
      <use xlink:href="#DejaVuSans-47"/>
      <use xlink:href="#DejaVuSans-50" x="77.490234"/>
      <use xlink:href="#DejaVuSans-43" x="137.792969"/>
      <use xlink:href="#DejaVuSans-20" x="207.617188"/>
      <use xlink:href="#DejaVuSans-44" x="239.404297"/>
      <use xlink:href="#DejaVuSans-61" x="316.40625"/>
      <use xlink:href="#DejaVuSans-74" x="377.685547"/>
      <use xlink:href="#DejaVuSans-61" x="416.894531"/>
     </g>
    </g>
    <g id="line2d_20">
     <path d="M 301.42 104.075313 
L 309.42 104.075313 
L 317.42 104.075313 
" style="fill: none; stroke: #969696; stroke-width: 1.2; stroke-linecap: square"/>
    </g>
    <g id="text_22">
     <!-- Mn=16.7k, Mw=17.9k, Mp=19.5k -->
     <g transform="translate(323.82 106.875313) scale(0.08 -0.08)">
      <defs>
       <path id="DejaVuSans-4d" d="M 628 4666 
L 1569 4666 
L 2759 1491 
L 3956 4666 
L 4897 4666 
L 4897 0 
L 4281 0 
L 4281 4097 
L 3078 897 
L 2444 897 
L 1241 4097 
L 1241 0 
L 628 0 
L 628 4666 
z
" transform="scale(0.015625)"/>
       <path id="DejaVuSans-3d" d="M 678 2906 
L 4684 2906 
L 4684 2381 
L 678 2381 
L 678 2906 
z
M 678 1631 
L 4684 1631 
L 4684 1100 
L 678 1100 
L 678 1631 
z
" transform="scale(0.015625)"/>
       <path id="DejaVuSans-6b" d="M 581 4863 
L 1159 4863 
L 1159 1991 
L 2875 3500 
L 3609 3500 
L 1753 1863 
L 3688 0 
L 2938 0 
L 1159 1709 
L 1159 0 
L 581 0 
L 581 4863 
z
" transform="scale(0.015625)"/>
       <path id="DejaVuSans-2c" d="M 750 794 
L 1409 794 
L 1409 256 
L 897 -744 
L 494 -744 
L 750 256 
L 750 794 
z
" transform="scale(0.015625)"/>
       <path id="DejaVuSans-77" d="M 269 3500 
L 844 3500 
L 1563 769 
L 2278 3500 
L 2956 3500 
L 3675 769 
L 4391 3500 
L 4966 3500 
L 4050 0 
L 3372 0 
L 2619 2869 
L 1863 0 
L 1184 0 
L 269 3500 
z
" transform="scale(0.015625)"/>
       <path id="DejaVuSans-35" d="M 691 4666 
L 3169 4666 
L 3169 4134 
L 1269 4134 
L 1269 2991 
Q 1406 3038 1543 3061 
Q 1681 3084 1819 3084 
Q 2600 3084 3056 2656 
Q 3513 2228 3513 1497 
Q 3513 744 3044 326 
Q 2575 -91 1722 -91 
Q 1428 -91 1123 -41 
Q 819 9 494 109 
L 494 744 
Q 775 591 1075 516 
Q 1375 441 1709 441 
Q 2250 441 2565 725 
Q 2881 1009 2881 1497 
Q 2881 1984 2565 2268 
Q 2250 2553 1709 2553 
Q 1456 2553 1204 2497 
Q 953 2441 691 2322 
L 691 4666 
z
" transform="scale(0.015625)"/>
      </defs>
      <use xlink:href="#DejaVuSans-4d"/>
      <use xlink:href="#DejaVuSans-6e" x="86.279297"/>
      <use xlink:href="#DejaVuSans-3d" x="149.658203"/>
      <use xlink:href="#DejaVuSans-31" x="233.447266"/>
      <use xlink:href="#DejaVuSans-36" x="297.070312"/>
      <use xlink:href="#DejaVuSans-2e" x="360.693359"/>
      <use xlink:href="#DejaVuSans-37" x="392.480469"/>
      <use xlink:href="#DejaVuSans-6b" x="456.103516"/>
      <use xlink:href="#DejaVuSans-2c" x="514.013672"/>
      <use xlink:href="#DejaVuSans-20" x="545.800781"/>
      <use xlink:href="#DejaVuSans-4d" x="577.587891"/>
      <use xlink:href="#DejaVuSans-77" x="663.867188"/>
      <use xlink:href="#DejaVuSans-3d" x="745.654297"/>
      <use xlink:href="#DejaVuSans-31" x="829.443359"/>
      <use xlink:href="#DejaVuSans-37" x="893.066406"/>
      <use xlink:href="#DejaVuSans-2e" x="956.689453"/>
      <use xlink:href="#DejaVuSans-39" x="988.476562"/>
      <use xlink:href="#DejaVuSans-6b" x="1052.099609"/>
      <use xlink:href="#DejaVuSans-2c" x="1110.009766"/>
      <use xlink:href="#DejaVuSans-20" x="1141.796875"/>
      <use xlink:href="#DejaVuSans-4d" x="1173.583984"/>
      <use xlink:href="#DejaVuSans-70" x="1259.863281"/>
      <use xlink:href="#DejaVuSans-3d" x="1323.339844"/>
      <use xlink:href="#DejaVuSans-31" x="1407.128906"/>
      <use xlink:href="#DejaVuSans-39" x="1470.751953"/>
      <use xlink:href="#DejaVuSans-2e" x="1534.375"/>
      <use xlink:href="#DejaVuSans-35" x="1566.162109"/>
      <use xlink:href="#DejaVuSans-6b" x="1629.785156"/>
     </g>
    </g>
    <g id="line2d_21">
     <path d="M 301.42 115.817813 
L 309.42 115.817813 
L 317.42 115.817813 
" style="fill: none; stroke: #3690c0; stroke-width: 1.2; stroke-linecap: square"/>
    </g>
    <g id="text_23">
     <!-- Mn=17.2k, Mw=18.4k, Mp=19.6k -->
     <g transform="translate(323.82 118.617813) scale(0.08 -0.08)">
      <use xlink:href="#DejaVuSans-4d"/>
      <use xlink:href="#DejaVuSans-6e" x="86.279297"/>
      <use xlink:href="#DejaVuSans-3d" x="149.658203"/>
      <use xlink:href="#DejaVuSans-31" x="233.447266"/>
      <use xlink:href="#DejaVuSans-37" x="297.070312"/>
      <use xlink:href="#DejaVuSans-2e" x="360.693359"/>
      <use xlink:href="#DejaVuSans-32" x="392.480469"/>
      <use xlink:href="#DejaVuSans-6b" x="456.103516"/>
      <use xlink:href="#DejaVuSans-2c" x="514.013672"/>
      <use xlink:href="#DejaVuSans-20" x="545.800781"/>
      <use xlink:href="#DejaVuSans-4d" x="577.587891"/>
      <use xlink:href="#DejaVuSans-77" x="663.867188"/>
      <use xlink:href="#DejaVuSans-3d" x="745.654297"/>
      <use xlink:href="#DejaVuSans-31" x="829.443359"/>
      <use xlink:href="#DejaVuSans-38" x="893.066406"/>
      <use xlink:href="#DejaVuSans-2e" x="956.689453"/>
      <use xlink:href="#DejaVuSans-34" x="988.476562"/>
      <use xlink:href="#DejaVuSans-6b" x="1052.099609"/>
      <use xlink:href="#DejaVuSans-2c" x="1110.009766"/>
      <use xlink:href="#DejaVuSans-20" x="1141.796875"/>
      <use xlink:href="#DejaVuSans-4d" x="1173.583984"/>
      <use xlink:href="#DejaVuSans-70" x="1259.863281"/>
      <use xlink:href="#DejaVuSans-3d" x="1323.339844"/>
      <use xlink:href="#DejaVuSans-31" x="1407.128906"/>
      <use xlink:href="#DejaVuSans-39" x="1470.751953"/>
      <use xlink:href="#DejaVuSans-2e" x="1534.375"/>
      <use xlink:href="#DejaVuSans-36" x="1566.162109"/>
      <use xlink:href="#DejaVuSans-6b" x="1629.785156"/>
     </g>
    </g>
   </g>
  </g>
 </g>
 <defs>
  <clipPath id="pb4b846750b">
   <rect x="52.93" y="33.96" width="413.105" height="278.96"/>
  </clipPath>
 </defs>
</svg>
