<?xml version="1.0" encoding="utf-8" standalone="no"?>
<!DOCTYPE svg PUBLIC "-//W3C//DTD SVG 1.1//EN"
  "http://www.w3.org/Graphics/SVG/1.1/DTD/svg11.dtd">
<svg xmlns:xlink="http://www.w3.org/1999/xlink" width="504pt" height="360pt" viewBox="0 0 504 360" xmlns="http://www.w3.org/2000/svg" version="1.1">
 <metadata>
  <rdf:RDF xmlns:dc="http://purl.org/dc/elements/1.1/" xmlns:cc="http://creativecommons.org/ns#" xmlns:rdf="http://www.w3.org/1999/02/22-rdf-syntax-ns#">
   <cc:Work>
    <dc:type rdf:resource="http://purl.org/dc/dcmitype/StillImage"/>
    <dc:date>2025-02-25T17:13:20.521555</dc:date>
    <dc:format>image/svg+xml</dc:format>
    <dc:creator>
     <cc:Agent>
      <dc:title>Matplotlib v3.7.1, https://matplotlib.org/</dc:title>
     </cc:Agent>
    </dc:creator>
   </cc:Work>
  </rdf:RDF>
 </metadata>
 <defs>
  <style type="text/css">*{stroke-linejoin: round; stroke-linecap: butt}</style>
 </defs>
 <g id="figure_1">
  <g id="patch_1">
   <path d="M 0 360 
L 504 360 
L 504 0 
L 0 0 
z
" style="fill: #ffffff"/>
  </g>
  <g id="axes_1">
   <g id="patch_2">
    <path d="M 50.95 313.64 
L 467.025 313.64 
L 467.025 33.6 
L 50.95 33.6 
z
" style="fill: #ffffff"/>
   </g>
   <g id="matplotlib.axis_1">
    <g id="xtick_1">
     <g id="line2d_1">
      <defs>
       <path id="m0d27f26b63" d="M 0 0 
L 0 -3.5 
" style="stroke: #000000; stroke-width: 0.8"/>
      </defs>
      <g>
       <use xlink:href="#m0d27f26b63" x="74.065278" y="313.64" style="stroke: #000000; stroke-width: 0.8"/>
      </g>
     </g>
     <g id="text_1">
      <!-- 6.8 -->
      <g transform="translate(65.725278 325.748125) scale(0.12 -0.12)">
       <defs>
        <path id="Helvetica-36" d="M 1872 4494 
Q 2622 4494 2917 4105 
Q 3213 3716 3213 3303 
L 2656 3303 
Q 2606 3569 2497 3719 
Q 2294 4000 1881 4000 
Q 1409 4000 1131 3564 
Q 853 3128 822 2316 
Q 1016 2600 1309 2741 
Q 1578 2866 1909 2866 
Q 2472 2866 2890 2506 
Q 3309 2147 3309 1434 
Q 3309 825 2912 354 
Q 2516 -116 1781 -116 
Q 1153 -116 697 361 
Q 241 838 241 1966 
Q 241 2800 444 3381 
Q 834 4494 1872 4494 
z
M 1831 384 
Q 2275 384 2495 682 
Q 2716 981 2716 1388 
Q 2716 1731 2519 2042 
Q 2322 2353 1803 2353 
Q 1441 2353 1167 2112 
Q 894 1872 894 1388 
Q 894 963 1142 673 
Q 1391 384 1831 384 
z
" transform="scale(0.015625)"/>
        <path id="Helvetica-2e" d="M 547 681 
L 1200 681 
L 1200 0 
L 547 0 
L 547 681 
z
" transform="scale(0.015625)"/>
        <path id="Helvetica-38" d="M 1741 2600 
Q 2113 2600 2322 2808 
Q 2531 3016 2531 3303 
Q 2531 3553 2331 3762 
Q 2131 3972 1722 3972 
Q 1316 3972 1134 3762 
Q 953 3553 953 3272 
Q 953 2956 1187 2778 
Q 1422 2600 1741 2600 
z
M 1775 384 
Q 2166 384 2423 595 
Q 2681 806 2681 1225 
Q 2681 1659 2415 1884 
Q 2150 2109 1734 2109 
Q 1331 2109 1076 1879 
Q 822 1650 822 1244 
Q 822 894 1055 639 
Q 1288 384 1775 384 
z
M 975 2384 
Q 741 2484 609 2619 
Q 363 2869 363 3269 
Q 363 3769 725 4128 
Q 1088 4488 1753 4488 
Q 2397 4488 2762 4148 
Q 3128 3809 3128 3356 
Q 3128 2938 2916 2678 
Q 2797 2531 2547 2391 
Q 2825 2263 2984 2097 
Q 3281 1784 3281 1284 
Q 3281 694 2884 283 
Q 2488 -128 1763 -128 
Q 1109 -128 657 226 
Q 206 581 206 1256 
Q 206 1653 400 1942 
Q 594 2231 975 2384 
z
" transform="scale(0.015625)"/>
       </defs>
       <use xlink:href="#Helvetica-36"/>
       <use xlink:href="#Helvetica-2e" x="55.615234"/>
       <use xlink:href="#Helvetica-38" x="83.398438"/>
      </g>
     </g>
    </g>
    <g id="xtick_2">
     <g id="line2d_2">
      <g>
       <use xlink:href="#m0d27f26b63" x="120.295833" y="313.64" style="stroke: #000000; stroke-width: 0.8"/>
      </g>
     </g>
     <g id="text_2">
      <!-- 7.0 -->
      <g transform="translate(111.955833 325.748125) scale(0.12 -0.12)">
       <defs>
        <path id="Helvetica-37" d="M 3347 4400 
L 3347 3909 
Q 3131 3700 2773 3181 
Q 2416 2663 2141 2063 
Q 1869 1478 1728 997 
Q 1638 688 1494 0 
L 872 0 
Q 1084 1281 1809 2550 
Q 2238 3294 2709 3834 
L 234 3834 
L 234 4400 
L 3347 4400 
z
" transform="scale(0.015625)"/>
        <path id="Helvetica-30" d="M 1731 4475 
Q 2600 4475 2988 3759 
Q 3288 3206 3288 2244 
Q 3288 1331 3016 734 
Q 2622 -122 1728 -122 
Q 922 -122 528 578 
Q 200 1163 200 2147 
Q 200 2909 397 3456 
Q 766 4475 1731 4475 
z
M 1725 391 
Q 2163 391 2422 778 
Q 2681 1166 2681 2222 
Q 2681 2984 2493 3476 
Q 2306 3969 1766 3969 
Q 1269 3969 1039 3501 
Q 809 3034 809 2125 
Q 809 1441 956 1025 
Q 1181 391 1725 391 
z
" transform="scale(0.015625)"/>
       </defs>
       <use xlink:href="#Helvetica-37"/>
       <use xlink:href="#Helvetica-2e" x="55.615234"/>
       <use xlink:href="#Helvetica-30" x="83.398438"/>
      </g>
     </g>
    </g>
    <g id="xtick_3">
     <g id="line2d_3">
      <g>
       <use xlink:href="#m0d27f26b63" x="166.526389" y="313.64" style="stroke: #000000; stroke-width: 0.8"/>
      </g>
     </g>
     <g id="text_3">
      <!-- 7.2 -->
      <g transform="translate(158.186389 325.748125) scale(0.12 -0.12)">
       <defs>
        <path id="Helvetica-32" d="M 200 0 
Q 231 578 439 1006 
Q 647 1434 1250 1784 
L 1850 2131 
Q 2253 2366 2416 2531 
Q 2672 2791 2672 3125 
Q 2672 3516 2437 3745 
Q 2203 3975 1813 3975 
Q 1234 3975 1013 3538 
Q 894 3303 881 2888 
L 309 2888 
Q 319 3472 525 3841 
Q 891 4491 1816 4491 
Q 2584 4491 2939 4075 
Q 3294 3659 3294 3150 
Q 3294 2613 2916 2231 
Q 2697 2009 2131 1694 
L 1703 1456 
Q 1397 1288 1222 1134 
Q 909 863 828 531 
L 3272 531 
L 3272 0 
L 200 0 
z
" transform="scale(0.015625)"/>
       </defs>
       <use xlink:href="#Helvetica-37"/>
       <use xlink:href="#Helvetica-2e" x="55.615234"/>
       <use xlink:href="#Helvetica-32" x="83.398438"/>
      </g>
     </g>
    </g>
    <g id="xtick_4">
     <g id="line2d_4">
      <g>
       <use xlink:href="#m0d27f26b63" x="212.756944" y="313.64" style="stroke: #000000; stroke-width: 0.8"/>
      </g>
     </g>
     <g id="text_4">
      <!-- 7.4 -->
      <g transform="translate(204.416944 325.748125) scale(0.12 -0.12)">
       <defs>
        <path id="Helvetica-34" d="M 2116 1584 
L 2116 3613 
L 681 1584 
L 2116 1584 
z
M 2125 0 
L 2125 1094 
L 163 1094 
L 163 1644 
L 2213 4488 
L 2688 4488 
L 2688 1584 
L 3347 1584 
L 3347 1094 
L 2688 1094 
L 2688 0 
L 2125 0 
z
" transform="scale(0.015625)"/>
       </defs>
       <use xlink:href="#Helvetica-37"/>
       <use xlink:href="#Helvetica-2e" x="55.615234"/>
       <use xlink:href="#Helvetica-34" x="83.398438"/>
      </g>
     </g>
    </g>
    <g id="xtick_5">
     <g id="line2d_5">
      <g>
       <use xlink:href="#m0d27f26b63" x="258.9875" y="313.64" style="stroke: #000000; stroke-width: 0.8"/>
      </g>
     </g>
     <g id="text_5">
      <!-- 7.6 -->
      <g transform="translate(250.6475 325.748125) scale(0.12 -0.12)">
       <use xlink:href="#Helvetica-37"/>
       <use xlink:href="#Helvetica-2e" x="55.615234"/>
       <use xlink:href="#Helvetica-36" x="83.398438"/>
      </g>
     </g>
    </g>
    <g id="xtick_6">
     <g id="line2d_6">
      <g>
       <use xlink:href="#m0d27f26b63" x="305.218056" y="313.64" style="stroke: #000000; stroke-width: 0.8"/>
      </g>
     </g>
     <g id="text_6">
      <!-- 7.8 -->
      <g transform="translate(296.878056 325.748125) scale(0.12 -0.12)">
       <use xlink:href="#Helvetica-37"/>
       <use xlink:href="#Helvetica-2e" x="55.615234"/>
       <use xlink:href="#Helvetica-38" x="83.398438"/>
      </g>
     </g>
    </g>
    <g id="xtick_7">
     <g id="line2d_7">
      <g>
       <use xlink:href="#m0d27f26b63" x="351.448611" y="313.64" style="stroke: #000000; stroke-width: 0.8"/>
      </g>
     </g>
     <g id="text_7">
      <!-- 8.0 -->
      <g transform="translate(343.108611 325.748125) scale(0.12 -0.12)">
       <use xlink:href="#Helvetica-38"/>
       <use xlink:href="#Helvetica-2e" x="55.615234"/>
       <use xlink:href="#Helvetica-30" x="83.398438"/>
      </g>
     </g>
    </g>
    <g id="xtick_8">
     <g id="line2d_8">
      <g>
       <use xlink:href="#m0d27f26b63" x="397.679167" y="313.64" style="stroke: #000000; stroke-width: 0.8"/>
      </g>
     </g>
     <g id="text_8">
      <!-- 8.2 -->
      <g transform="translate(389.339167 325.748125) scale(0.12 -0.12)">
       <use xlink:href="#Helvetica-38"/>
       <use xlink:href="#Helvetica-2e" x="55.615234"/>
       <use xlink:href="#Helvetica-32" x="83.398438"/>
      </g>
     </g>
    </g>
    <g id="xtick_9">
     <g id="line2d_9">
      <g>
       <use xlink:href="#m0d27f26b63" x="443.909722" y="313.64" style="stroke: #000000; stroke-width: 0.8"/>
      </g>
     </g>
     <g id="text_9">
      <!-- 8.4 -->
      <g transform="translate(435.569722 325.748125) scale(0.12 -0.12)">
       <use xlink:href="#Helvetica-38"/>
       <use xlink:href="#Helvetica-2e" x="55.615234"/>
       <use xlink:href="#Helvetica-34" x="83.398438"/>
      </g>
     </g>
    </g>
    <g id="text_10">
     <!-- Retention Time (min) -->
     <g transform="translate(202.975625 340.945625) scale(0.12 -0.12)">
      <defs>
       <path id="Helvetica-52" d="M 2622 2488 
Q 3059 2488 3314 2663 
Q 3569 2838 3569 3294 
Q 3569 3784 3213 3963 
Q 3022 4056 2703 4056 
L 1184 4056 
L 1184 2488 
L 2622 2488 
z
M 563 4591 
L 2688 4591 
Q 3213 4591 3553 4438 
Q 4200 4144 4200 3353 
Q 4200 2941 4029 2678 
Q 3859 2416 3553 2256 
Q 3822 2147 3958 1969 
Q 4094 1791 4109 1391 
L 4131 775 
Q 4141 513 4175 384 
Q 4231 166 4375 103 
L 4375 0 
L 3613 0 
Q 3581 59 3562 153 
Q 3544 247 3531 516 
L 3494 1281 
Q 3472 1731 3159 1884 
Q 2981 1969 2600 1969 
L 1184 1969 
L 1184 0 
L 563 0 
L 563 4591 
z
" transform="scale(0.015625)"/>
       <path id="Helvetica-65" d="M 1806 3422 
Q 2163 3422 2497 3255 
Q 2831 3088 3006 2822 
Q 3175 2569 3231 2231 
Q 3281 2000 3281 1494 
L 828 1494 
Q 844 984 1069 676 
Q 1294 369 1766 369 
Q 2206 369 2469 659 
Q 2619 828 2681 1050 
L 3234 1050 
Q 3213 866 3089 639 
Q 2966 413 2813 269 
Q 2556 19 2178 -69 
Q 1975 -119 1719 -119 
Q 1094 -119 659 336 
Q 225 791 225 1609 
Q 225 2416 662 2919 
Q 1100 3422 1806 3422 
z
M 2703 1941 
Q 2669 2306 2544 2525 
Q 2313 2931 1772 2931 
Q 1384 2931 1121 2651 
Q 859 2372 844 1941 
L 2703 1941 
z
M 1753 3428 
L 1753 3428 
z
" transform="scale(0.015625)"/>
       <path id="Helvetica-74" d="M 525 4281 
L 1094 4281 
L 1094 3347 
L 1628 3347 
L 1628 2888 
L 1094 2888 
L 1094 703 
Q 1094 528 1213 469 
Q 1278 434 1431 434 
Q 1472 434 1519 436 
Q 1566 438 1628 444 
L 1628 0 
Q 1531 -28 1426 -40 
Q 1322 -53 1200 -53 
Q 806 -53 665 148 
Q 525 350 525 672 
L 525 2888 
L 72 2888 
L 72 3347 
L 525 3347 
L 525 4281 
z
" transform="scale(0.015625)"/>
       <path id="Helvetica-6e" d="M 413 3347 
L 947 3347 
L 947 2872 
Q 1184 3166 1450 3294 
Q 1716 3422 2041 3422 
Q 2753 3422 3003 2925 
Q 3141 2653 3141 2147 
L 3141 0 
L 2569 0 
L 2569 2109 
Q 2569 2416 2478 2603 
Q 2328 2916 1934 2916 
Q 1734 2916 1606 2875 
Q 1375 2806 1200 2600 
Q 1059 2434 1017 2257 
Q 975 2081 975 1753 
L 975 0 
L 413 0 
L 413 3347 
z
M 1734 3428 
L 1734 3428 
z
" transform="scale(0.015625)"/>
       <path id="Helvetica-69" d="M 413 3331 
L 984 3331 
L 984 0 
L 413 0 
L 413 3331 
z
M 413 4591 
L 984 4591 
L 984 3953 
L 413 3953 
L 413 4591 
z
" transform="scale(0.015625)"/>
       <path id="Helvetica-6f" d="M 1741 363 
Q 2300 363 2508 786 
Q 2716 1209 2716 1728 
Q 2716 2197 2566 2491 
Q 2328 2953 1747 2953 
Q 1231 2953 997 2559 
Q 763 2166 763 1609 
Q 763 1075 997 719 
Q 1231 363 1741 363 
z
M 1763 3444 
Q 2409 3444 2856 3012 
Q 3303 2581 3303 1744 
Q 3303 934 2909 406 
Q 2516 -122 1688 -122 
Q 997 -122 590 345 
Q 184 813 184 1600 
Q 184 2444 612 2944 
Q 1041 3444 1763 3444 
z
M 1744 3428 
L 1744 3428 
z
" transform="scale(0.015625)"/>
       <path id="Helvetica-20" transform="scale(0.015625)"/>
       <path id="Helvetica-54" d="M 3828 4591 
L 3828 4044 
L 2281 4044 
L 2281 0 
L 1650 0 
L 1650 4044 
L 103 4044 
L 103 4591 
L 3828 4591 
z
" transform="scale(0.015625)"/>
       <path id="Helvetica-6d" d="M 413 3347 
L 969 3347 
L 969 2872 
Q 1169 3119 1331 3231 
Q 1609 3422 1963 3422 
Q 2363 3422 2606 3225 
Q 2744 3113 2856 2894 
Q 3044 3163 3297 3292 
Q 3550 3422 3866 3422 
Q 4541 3422 4784 2934 
Q 4916 2672 4916 2228 
L 4916 0 
L 4331 0 
L 4331 2325 
Q 4331 2659 4164 2784 
Q 3997 2909 3756 2909 
Q 3425 2909 3186 2687 
Q 2947 2466 2947 1947 
L 2947 0 
L 2375 0 
L 2375 2184 
Q 2375 2525 2294 2681 
Q 2166 2916 1816 2916 
Q 1497 2916 1236 2669 
Q 975 2422 975 1775 
L 975 0 
L 413 0 
L 413 3347 
z
" transform="scale(0.015625)"/>
       <path id="Helvetica-28" d="M 1894 4666 
Q 1403 3713 1256 3263 
Q 1034 2578 1034 1681 
Q 1034 775 1288 25 
Q 1444 -438 1903 -1306 
L 1525 -1306 
Q 1069 -594 959 -397 
Q 850 -200 722 138 
Q 547 600 478 1125 
Q 444 1397 444 1644 
Q 444 2569 734 3291 
Q 919 3750 1503 4666 
L 1894 4666 
z
" transform="scale(0.015625)"/>
       <path id="Helvetica-29" d="M 222 -1306 
Q 719 -338 863 106 
Q 1081 778 1081 1681 
Q 1081 2584 828 3334 
Q 672 3797 213 4666 
L 591 4666 
Q 1072 3897 1173 3717 
Q 1275 3538 1394 3222 
Q 1544 2831 1608 2450 
Q 1672 2069 1672 1716 
Q 1672 791 1378 66 
Q 1194 -400 613 -1306 
L 222 -1306 
z
" transform="scale(0.015625)"/>
      </defs>
      <use xlink:href="#Helvetica-52"/>
      <use xlink:href="#Helvetica-65" x="72.216797"/>
      <use xlink:href="#Helvetica-74" x="127.832031"/>
      <use xlink:href="#Helvetica-65" x="155.615234"/>
      <use xlink:href="#Helvetica-6e" x="211.230469"/>
      <use xlink:href="#Helvetica-74" x="266.845703"/>
      <use xlink:href="#Helvetica-69" x="294.628906"/>
      <use xlink:href="#Helvetica-6f" x="316.845703"/>
      <use xlink:href="#Helvetica-6e" x="372.460938"/>
      <use xlink:href="#Helvetica-20" x="428.076172"/>
      <use xlink:href="#Helvetica-54" x="455.859375"/>
      <use xlink:href="#Helvetica-69" x="516.943359"/>
      <use xlink:href="#Helvetica-6d" x="539.160156"/>
      <use xlink:href="#Helvetica-65" x="622.460938"/>
      <use xlink:href="#Helvetica-20" x="678.076172"/>
      <use xlink:href="#Helvetica-28" x="705.859375"/>
      <use xlink:href="#Helvetica-6d" x="739.160156"/>
      <use xlink:href="#Helvetica-69" x="822.460938"/>
      <use xlink:href="#Helvetica-6e" x="844.677734"/>
      <use xlink:href="#Helvetica-29" x="900.292969"/>
     </g>
    </g>
   </g>
   <g id="matplotlib.axis_2">
    <g id="ytick_1">
     <g id="line2d_10">
      <defs>
       <path id="m9272038f97" d="M 0 0 
L 3.5 0 
" style="stroke: #000000; stroke-width: 0.8"/>
      </defs>
      <g>
       <use xlink:href="#m9272038f97" x="50.95" y="290.303333" style="stroke: #000000; stroke-width: 0.8"/>
      </g>
     </g>
     <g id="text_11">
      <!-- 0.0 -->
      <g transform="translate(30.77 294.607396) scale(0.12 -0.12)">
       <use xlink:href="#Helvetica-30"/>
       <use xlink:href="#Helvetica-2e" x="55.615234"/>
       <use xlink:href="#Helvetica-30" x="83.398438"/>
      </g>
     </g>
    </g>
    <g id="ytick_2">
     <g id="line2d_11">
      <g>
       <use xlink:href="#m9272038f97" x="50.95" y="243.63" style="stroke: #000000; stroke-width: 0.8"/>
      </g>
     </g>
     <g id="text_12">
      <!-- 0.2 -->
      <g transform="translate(30.77 247.934063) scale(0.12 -0.12)">
       <use xlink:href="#Helvetica-30"/>
       <use xlink:href="#Helvetica-2e" x="55.615234"/>
       <use xlink:href="#Helvetica-32" x="83.398438"/>
      </g>
     </g>
    </g>
    <g id="ytick_3">
     <g id="line2d_12">
      <g>
       <use xlink:href="#m9272038f97" x="50.95" y="196.956667" style="stroke: #000000; stroke-width: 0.8"/>
      </g>
     </g>
     <g id="text_13">
      <!-- 0.4 -->
      <g transform="translate(30.77 201.260729) scale(0.12 -0.12)">
       <use xlink:href="#Helvetica-30"/>
       <use xlink:href="#Helvetica-2e" x="55.615234"/>
       <use xlink:href="#Helvetica-34" x="83.398438"/>
      </g>
     </g>
    </g>
    <g id="ytick_4">
     <g id="line2d_13">
      <g>
       <use xlink:href="#m9272038f97" x="50.95" y="150.283333" style="stroke: #000000; stroke-width: 0.8"/>
      </g>
     </g>
     <g id="text_14">
      <!-- 0.6 -->
      <g transform="translate(30.77 154.587396) scale(0.12 -0.12)">
       <use xlink:href="#Helvetica-30"/>
       <use xlink:href="#Helvetica-2e" x="55.615234"/>
       <use xlink:href="#Helvetica-36" x="83.398438"/>
      </g>
     </g>
    </g>
    <g id="ytick_5">
     <g id="line2d_14">
      <g>
       <use xlink:href="#m9272038f97" x="50.95" y="103.61" style="stroke: #000000; stroke-width: 0.8"/>
      </g>
     </g>
     <g id="text_15">
      <!-- 0.8 -->
      <g transform="translate(30.77 107.914062) scale(0.12 -0.12)">
       <use xlink:href="#Helvetica-30"/>
       <use xlink:href="#Helvetica-2e" x="55.615234"/>
       <use xlink:href="#Helvetica-38" x="83.398438"/>
      </g>
     </g>
    </g>
    <g id="ytick_6">
     <g id="line2d_15">
      <g>
       <use xlink:href="#m9272038f97" x="50.95" y="56.936667" style="stroke: #000000; stroke-width: 0.8"/>
      </g>
     </g>
     <g id="text_16">
      <!-- 1.0 -->
      <g transform="translate(30.77 61.240729) scale(0.12 -0.12)">
       <defs>
        <path id="Helvetica-31" d="M 613 3169 
L 613 3600 
Q 1222 3659 1462 3798 
Q 1703 3938 1822 4456 
L 2266 4456 
L 2266 0 
L 1666 0 
L 1666 3169 
L 613 3169 
z
" transform="scale(0.015625)"/>
       </defs>
       <use xlink:href="#Helvetica-31"/>
       <use xlink:href="#Helvetica-2e" x="55.615234"/>
       <use xlink:href="#Helvetica-30" x="83.398438"/>
      </g>
     </g>
    </g>
    <g id="text_17">
     <!-- Normalized Intensity -->
     <g transform="translate(24.1975 227.971563) rotate(-90) scale(0.12 -0.12)">
      <defs>
       <path id="Helvetica-4e" d="M 488 4591 
L 1222 4591 
L 3541 872 
L 3541 4591 
L 4131 4591 
L 4131 0 
L 3434 0 
L 1081 3716 
L 1081 0 
L 488 0 
L 488 4591 
z
M 2269 4591 
L 2269 4591 
z
" transform="scale(0.015625)"/>
       <path id="Helvetica-72" d="M 428 3347 
L 963 3347 
L 963 2769 
Q 1028 2938 1284 3180 
Q 1541 3422 1875 3422 
Q 1891 3422 1928 3419 
Q 1966 3416 2056 3406 
L 2056 2813 
Q 2006 2822 1964 2825 
Q 1922 2828 1872 2828 
Q 1447 2828 1219 2554 
Q 991 2281 991 1925 
L 991 0 
L 428 0 
L 428 3347 
z
" transform="scale(0.015625)"/>
       <path id="Helvetica-61" d="M 844 891 
Q 844 647 1022 506 
Q 1200 366 1444 366 
Q 1741 366 2019 503 
Q 2488 731 2488 1250 
L 2488 1703 
Q 2384 1638 2221 1594 
Q 2059 1550 1903 1531 
L 1563 1488 
Q 1256 1447 1103 1359 
Q 844 1213 844 891 
z
M 2206 2028 
Q 2400 2053 2466 2191 
Q 2503 2266 2503 2406 
Q 2503 2694 2298 2823 
Q 2094 2953 1713 2953 
Q 1272 2953 1088 2716 
Q 984 2584 953 2325 
L 428 2325 
Q 444 2944 830 3186 
Q 1216 3428 1725 3428 
Q 2316 3428 2684 3203 
Q 3050 2978 3050 2503 
L 3050 575 
Q 3050 488 3086 434 
Q 3122 381 3238 381 
Q 3275 381 3322 386 
Q 3369 391 3422 400 
L 3422 -16 
Q 3291 -53 3222 -62 
Q 3153 -72 3034 -72 
Q 2744 -72 2613 134 
Q 2544 244 2516 444 
Q 2344 219 2022 53 
Q 1700 -113 1313 -113 
Q 847 -113 551 170 
Q 256 453 256 878 
Q 256 1344 547 1600 
Q 838 1856 1309 1916 
L 2206 2028 
z
M 1741 3428 
L 1741 3428 
z
" transform="scale(0.015625)"/>
       <path id="Helvetica-6c" d="M 428 4591 
L 991 4591 
L 991 0 
L 428 0 
L 428 4591 
z
" transform="scale(0.015625)"/>
       <path id="Helvetica-7a" d="M 163 444 
L 2147 2844 
L 309 2844 
L 309 3347 
L 2903 3347 
L 2903 2888 
L 931 503 
L 2963 503 
L 2963 0 
L 163 0 
L 163 444 
z
M 1609 3428 
L 1609 3428 
z
" transform="scale(0.015625)"/>
       <path id="Helvetica-64" d="M 769 1634 
Q 769 1097 997 734 
Q 1225 372 1728 372 
Q 2119 372 2370 708 
Q 2622 1044 2622 1672 
Q 2622 2306 2362 2611 
Q 2103 2916 1722 2916 
Q 1297 2916 1033 2591 
Q 769 2266 769 1634 
z
M 1616 3406 
Q 2000 3406 2259 3244 
Q 2409 3150 2600 2916 
L 2600 4606 
L 3141 4606 
L 3141 0 
L 2634 0 
L 2634 466 
Q 2438 156 2169 18 
Q 1900 -119 1553 -119 
Q 994 -119 584 351 
Q 175 822 175 1603 
Q 175 2334 548 2870 
Q 922 3406 1616 3406 
z
" transform="scale(0.015625)"/>
       <path id="Helvetica-49" d="M 628 4591 
L 1256 4591 
L 1256 0 
L 628 0 
L 628 4591 
z
" transform="scale(0.015625)"/>
       <path id="Helvetica-73" d="M 747 1050 
Q 772 769 888 619 
Q 1100 347 1625 347 
Q 1938 347 2175 483 
Q 2413 619 2413 903 
Q 2413 1119 2222 1231 
Q 2100 1300 1741 1391 
L 1294 1503 
Q 866 1609 663 1741 
Q 300 1969 300 2372 
Q 300 2847 642 3140 
Q 984 3434 1563 3434 
Q 2319 3434 2653 2991 
Q 2863 2709 2856 2384 
L 2325 2384 
Q 2309 2575 2191 2731 
Q 1997 2953 1519 2953 
Q 1200 2953 1036 2831 
Q 872 2709 872 2509 
Q 872 2291 1088 2159 
Q 1213 2081 1456 2022 
L 1828 1931 
Q 2434 1784 2641 1647 
Q 2969 1431 2969 969 
Q 2969 522 2630 197 
Q 2291 -128 1597 -128 
Q 850 -128 539 211 
Q 228 550 206 1050 
L 747 1050 
z
M 1578 3428 
L 1578 3428 
z
" transform="scale(0.015625)"/>
       <path id="Helvetica-79" d="M 2503 3347 
L 3125 3347 
Q 3006 3025 2597 1878 
Q 2291 1016 2084 472 
Q 1597 -809 1397 -1090 
Q 1197 -1372 709 -1372 
Q 591 -1372 527 -1362 
Q 463 -1353 369 -1328 
L 369 -816 
Q 516 -856 581 -865 
Q 647 -875 697 -875 
Q 853 -875 926 -823 
Q 1000 -772 1050 -697 
Q 1066 -672 1162 -440 
Q 1259 -209 1303 -97 
L 66 3347 
L 703 3347 
L 1600 622 
L 2503 3347 
z
M 1597 3428 
L 1597 3428 
z
" transform="scale(0.015625)"/>
      </defs>
      <use xlink:href="#Helvetica-4e"/>
      <use xlink:href="#Helvetica-6f" x="72.216797"/>
      <use xlink:href="#Helvetica-72" x="127.832031"/>
      <use xlink:href="#Helvetica-6d" x="161.132812"/>
      <use xlink:href="#Helvetica-61" x="244.433594"/>
      <use xlink:href="#Helvetica-6c" x="300.048828"/>
      <use xlink:href="#Helvetica-69" x="322.265625"/>
      <use xlink:href="#Helvetica-7a" x="344.482422"/>
      <use xlink:href="#Helvetica-65" x="394.482422"/>
      <use xlink:href="#Helvetica-64" x="450.097656"/>
      <use xlink:href="#Helvetica-20" x="505.712891"/>
      <use xlink:href="#Helvetica-49" x="533.496094"/>
      <use xlink:href="#Helvetica-6e" x="561.279297"/>
      <use xlink:href="#Helvetica-74" x="616.894531"/>
      <use xlink:href="#Helvetica-65" x="644.677734"/>
      <use xlink:href="#Helvetica-6e" x="700.292969"/>
      <use xlink:href="#Helvetica-73" x="755.908203"/>
      <use xlink:href="#Helvetica-69" x="805.908203"/>
      <use xlink:href="#Helvetica-74" x="828.125"/>
      <use xlink:href="#Helvetica-79" x="855.908203"/>
     </g>
    </g>
   </g>
   <g id="line2d_16">
    <path d="M 50.563975 290.360226 
L 51.719739 290.352098 
L 54.417292 290.392735 
L 57.114845 290.352098 
L 59.040347 290.381899 
L 61.351875 290.384608 
L 64.433142 290.34668 
L 65.974931 290.365644 
L 67.900433 290.406281 
L 71.367725 290.395445 
L 72.523489 290.376481 
L 75.221042 290.327716 
L 80.999861 290.387317 
L 84.467153 290.349389 
L 86.778681 290.354807 
L 94.099289 290.373771 
L 95.255053 290.322297 
L 98.722345 290.37919 
L 100.261822 290.311461 
L 104.115139 290.311461 
L 141.099583 290.203095 
L 147.264428 290.132657 
L 152.271197 290.035127 
L 153.812986 290.029709 
L 158.822067 289.945725 
L 161.133595 289.915924 
L 163.828836 289.859032 
L 165.370625 289.850904 
L 167.296128 289.766921 
L 171.149444 289.726283 
L 172.691233 289.750666 
L 175.002761 289.728992 
L 178.084028 289.712737 
L 179.239792 289.663973 
L 181.165294 289.563734 
L 188.099878 289.422858 
L 195.420486 288.864772 
L 200.043542 288.119754 
L 202.355069 287.466847 
L 204.280572 286.765176 
L 206.208386 285.871155 
L 208.519914 284.497613 
L 210.059392 283.278493 
L 212.756944 280.601847 
L 214.298733 278.76233 
L 216.610261 275.248555 
L 218.149739 272.449998 
L 219.305503 270.090323 
L 221.61703 264.628665 
L 223.158819 260.456566 
L 225.084322 254.417858 
L 227.012136 247.718116 
L 228.551614 241.665862 
L 231.249167 229.970437 
L 233.174669 220.645524 
L 236.258247 204.35808 
L 238.953489 188.76418 
L 242.806806 165.191817 
L 250.897153 115.365026 
L 253.594706 100.383396 
L 255.906233 88.839683 
L 257.831736 80.368154 
L 259.757239 73.018215 
L 261.299028 68.065878 
L 262.454792 64.958477 
L 263.996581 61.512431 
L 264.766319 60.184944 
L 265.922083 58.654271 
L 266.691822 57.898417 
L 267.463872 57.383677 
L 268.619636 56.95834 
L 269.389375 56.99085 
L 270.159114 57.272602 
L 270.931164 57.811724 
L 272.086928 58.968533 
L 273.242692 60.480242 
L 274.398456 62.533782 
L 275.55422 65.028915 
L 277.479722 69.95416 
L 279.021511 74.567852 
L 281.333039 82.462331 
L 283.644567 91.118083 
L 287.881597 108.581301 
L 297.127708 147.417047 
L 300.981025 162.195491 
L 303.676267 171.742555 
L 306.759845 181.685156 
L 309.455086 189.660911 
L 312.152639 196.926866 
L 315.233905 204.414972 
L 318.317483 211.125551 
L 321.012725 216.533025 
L 325.63578 224.684875 
L 330.644861 232.36804 
L 336.423681 240.313993 
L 340.660711 245.767524 
L 349.137083 255.921439 
L 355.301928 262.618472 
L 358.383194 265.685236 
L 363.392275 270.201398 
L 365.703803 272.043624 
L 369.940833 275.118516 
L 376.105678 278.681056 
L 378.417206 279.845993 
L 381.498472 281.127423 
L 383.81 281.999771 
L 385.351789 282.4522 
L 387.663317 283.229728 
L 389.202794 283.587337 
L 390.744583 284.001837 
L 392.670086 284.465103 
L 394.981614 284.876895 
L 397.679167 285.391634 
L 399.604669 285.681514 
L 401.532483 286.036413 
L 404.999775 286.461751 
L 406.155539 286.594499 
L 408.85078 286.827487 
L 415.015625 287.420792 
L 437.361164 288.572183 
L 439.286667 288.623657 
L 441.212169 288.753696 
L 443.139983 288.715768 
L 446.22125 288.899991 
L 448.146753 288.883736 
L 450.074567 289.008357 
L 453.541858 289.059831 
L 455.081336 289.089632 
L 456.623125 289.057122 
L 467.411025 289.311782 
L 467.411025 289.311782 
" clip-path="url(#p9aa78f3ed3)" style="fill: none; stroke: #bdbdbd; stroke-width: 0.8; stroke-linecap: square"/>
   </g>
   <g id="line2d_17">
    <path d="M 50.563975 289.949837 
L 51.336025 289.714172 
L 52.491789 289.396025 
L 53.261528 289.454942 
L 54.031267 289.678823 
L 55.573056 289.655256 
L 57.884583 289.289976 
L 59.426372 289.737739 
L 61.351875 289.30176 
L 62.893664 289.172144 
L 64.049428 289.454942 
L 64.819167 289.384242 
L 66.360956 289.125011 
L 69.442222 289.125011 
L 70.597986 289.066095 
L 71.75375 288.853997 
L 73.295539 289.113228 
L 74.835017 289.007179 
L 75.607067 288.995396 
L 76.762831 288.912913 
L 77.918595 288.960046 
L 79.844097 288.653683 
L 80.613836 288.747948 
L 83.311389 288.512284 
L 84.081128 288.582983 
L 88.32047 288.135221 
L 89.090208 288.194137 
L 89.859947 288.123438 
L 92.5575 287.640326 
L 94.099289 287.663892 
L 94.869028 287.652109 
L 96.410817 287.004032 
L 97.566581 287.004032 
L 99.492083 286.827284 
L 100.647847 286.273472 
L 101.033872 286.084941 
L 101.803611 286.132074 
L 102.57335 286.238123 
L 103.729114 286.026025 
L 106.426667 284.953752 
L 107.968456 284.953752 
L 108.352169 284.835919 
L 109.893958 283.905045 
L 111.049722 283.586898 
L 112.591511 283.433716 
L 113.36125 283.186269 
L 115.286753 282.243611 
L 115.672778 282.161129 
L 116.442517 282.255394 
L 117.214567 282.05508 
L 118.370331 281.430569 
L 119.140069 281.171338 
L 119.909808 280.688226 
L 120.295833 280.511478 
L 120.681858 280.464345 
L 121.451597 280.59396 
L 121.837622 280.499695 
L 122.607361 280.110848 
L 123.3771 279.780918 
L 125.688628 279.003226 
L 126.460678 278.932526 
L 127.616442 278.50833 
L 129.155919 277.895603 
L 130.697708 277.577456 
L 132.239497 276.941162 
L 133.395261 276.469833 
L 134.934739 275.786407 
L 136.862553 274.867315 
L 139.174081 273.641861 
L 140.713558 272.404623 
L 141.485608 271.768329 
L 144.18085 269.411685 
L 144.9529 268.445461 
L 147.264428 266.029901 
L 148.420192 264.462732 
L 150.73172 260.93955 
L 152.271197 258.783221 
L 153.043247 257.286752 
L 154.199011 254.930108 
L 157.280278 249.568743 
L 159.20578 245.315 
L 160.361544 243.394336 
L 163.445122 237.149229 
L 164.214861 235.68811 
L 166.140364 232.730522 
L 167.296128 230.397444 
L 168.837917 228.07615 
L 173.074947 223.009365 
L 173.460972 222.714785 
L 174.230711 222.361288 
L 175.002761 221.937092 
L 175.7725 221.371498 
L 178.084028 220.440624 
L 178.853767 220.558456 
L 179.239792 220.664505 
L 179.625817 220.652722 
L 180.395556 220.452407 
L 181.165294 220.475973 
L 182.321058 220.923736 
L 183.093108 221.135834 
L 185.018611 222.278806 
L 185.78835 222.655869 
L 186.944114 223.645659 
L 188.485903 225.094995 
L 189.641667 226.190835 
L 194.650747 231.351885 
L 196.190225 233.154718 
L 201.585331 237.891572 
L 202.741095 238.351118 
L 203.896858 239.199509 
L 205.052622 239.553006 
L 206.208386 239.82402 
L 209.289653 239.258425 
L 210.445417 238.551432 
L 212.756944 236.147655 
L 214.298733 234.097375 
L 215.068472 232.730522 
L 218.921789 223.24503 
L 219.691528 220.864819 
L 221.233317 215.279573 
L 223.928558 204.94569 
L 228.1679 184.277922 
L 230.093403 173.213479 
L 233.560694 152.769593 
L 236.641961 133.810392 
L 242.42078 100.110384 
L 243.962569 92.027095 
L 246.274097 81.398631 
L 248.1996 73.751321 
L 249.355364 69.792159 
L 251.283178 64.289396 
L 252.438942 61.756004 
L 253.978419 59.222611 
L 255.134183 57.867541 
L 255.906233 57.24303 
L 256.675972 56.972016 
L 257.445711 56.972016 
L 258.217761 57.266597 
L 259.373525 57.832191 
L 260.143264 58.30352 
L 260.913003 59.387576 
L 262.068767 61.225759 
L 262.840817 62.757577 
L 265.152345 67.96576 
L 267.077847 73.963419 
L 269.00335 80.338141 
L 270.545139 86.135485 
L 275.168194 105.483532 
L 285.956095 153.453019 
L 291.348889 174.156136 
L 295.971944 189.662854 
L 299.439236 199.961388 
L 303.676267 210.330621 
L 306.373819 216.151532 
L 308.299322 220.087127 
L 309.071372 221.418631 
L 310.996875 225.024296 
L 312.922378 228.394297 
L 314.078142 230.055731 
L 317.16172 234.851501 
L 317.931458 235.72346 
L 321.39875 240.719545 
L 322.940539 242.23958 
L 324.866042 245.114686 
L 326.791544 247.247448 
L 327.563595 247.907309 
L 328.333333 248.944232 
L 329.875122 251.124128 
L 330.644861 251.878254 
L 331.4146 252.479198 
L 332.570364 253.65752 
L 335.267917 256.897905 
L 336.809706 258.135143 
L 338.349183 260.020459 
L 339.504947 261.293046 
L 342.2025 263.543641 
L 343.744289 265.476089 
L 344.514028 265.994551 
L 345.283767 266.677978 
L 346.43953 267.691335 
L 347.211581 268.410111 
L 348.367345 269.800531 
L 350.292847 271.049552 
L 353.374114 273.653644 
L 354.529878 274.431336 
L 356.071667 275.503609 
L 357.613456 276.611232 
L 365.703803 281.053506 
L 366.473542 281.206688 
L 369.171095 282.585324 
L 370.710572 283.103786 
L 371.482622 283.186269 
L 374.177864 284.305674 
L 374.949914 284.43529 
L 375.719653 284.352807 
L 376.489392 284.517772 
L 378.031181 285.142283 
L 378.800919 285.413297 
L 379.186944 285.472213 
L 380.342708 285.236549 
L 380.728733 285.271899 
L 381.884497 285.743227 
L 382.654236 285.919976 
L 383.81 286.238123 
L 385.351789 286.002458 
L 386.121528 286.238123 
L 386.891267 286.638752 
L 388.04703 286.791934 
L 390.744583 286.839067 
L 391.900347 287.286829 
L 392.670086 287.534277 
L 394.211875 287.204347 
L 394.981614 287.239696 
L 396.909428 287.805291 
L 397.679167 287.734591 
L 399.220956 287.428228 
L 399.990694 287.522493 
L 400.760433 287.852424 
L 401.532483 287.934906 
L 402.302222 287.781724 
L 403.457986 287.805291 
L 404.227725 287.675675 
L 404.999775 287.758158 
L 405.769514 288.147004 
L 406.539253 288.040955 
L 407.311303 287.91134 
L 408.081042 288.005605 
L 408.85078 288.064522 
L 409.622831 287.993822 
L 410.778595 288.253053 
L 411.548333 288.24127 
L 412.318072 288.135221 
L 420.024706 288.500501 
L 421.564183 288.453368 
L 423.875711 288.488717 
L 424.647761 288.53585 
L 425.4175 288.665466 
L 426.573264 288.594766 
L 428.115053 288.724382 
L 428.884792 288.465151 
L 429.65453 288.53585 
L 430.810294 288.818648 
L 431.966058 288.771515 
L 432.738108 288.747948 
L 433.893872 288.524067 
L 435.819375 288.90113 
L 437.361164 288.759732 
L 438.130903 288.689032 
L 440.056405 288.960046 
L 441.212169 289.183927 
L 443.139983 288.653683 
L 443.909722 288.830431 
L 444.679461 289.042529 
L 445.835225 289.007179 
L 448.532778 288.842214 
L 450.074567 289.348893 
L 451.614044 288.983613 
L 453.541858 288.924697 
L 454.697622 289.26641 
L 457.392864 288.995396 
L 459.320678 289.172144 
L 460.090417 289.101445 
L 461.246181 289.089662 
L 462.015919 289.042529 
L 462.78797 289.077878 
L 463.557708 289.289976 
L 465.099497 289.077878 
L 466.255261 289.148578 
L 467.411025 289.054312 
L 467.411025 289.054312 
" clip-path="url(#p9aa78f3ed3)" style="fill: none; stroke: #74a9cf; stroke-width: 0.8; stroke-linecap: square"/>
   </g>
   <g id="patch_3">
    <path d="M 50.95 313.64 
L 50.95 33.6 
" style="fill: none; stroke: #000000; stroke-width: 0.5; stroke-linejoin: miter; stroke-linecap: square"/>
   </g>
   <g id="patch_4">
    <path d="M 50.95 313.64 
L 467.025 313.64 
" style="fill: none; stroke: #000000; stroke-width: 0.5; stroke-linejoin: miter; stroke-linecap: square"/>
   </g>
   <g id="legend_1">
    <g id="text_18">
     <!-- Experiment Conditions -->
     <g transform="translate(348.823125 48.16875) scale(0.1 -0.1)">
      <defs>
       <path id="Helvetica-45" d="M 547 4591 
L 3894 4591 
L 3894 4028 
L 1153 4028 
L 1153 2634 
L 3688 2634 
L 3688 2103 
L 1153 2103 
L 1153 547 
L 3941 547 
L 3941 0 
L 547 0 
L 547 4591 
z
M 2244 4591 
L 2244 4591 
z
" transform="scale(0.015625)"/>
       <path id="Helvetica-78" d="M 94 3347 
L 822 3347 
L 1591 2169 
L 2369 3347 
L 3053 3331 
L 1925 1716 
L 3103 0 
L 2384 0 
L 1553 1256 
L 747 0 
L 34 0 
L 1213 1716 
L 94 3347 
z
" transform="scale(0.015625)"/>
       <path id="Helvetica-70" d="M 1825 378 
Q 2219 378 2480 708 
Q 2741 1038 2741 1694 
Q 2741 2094 2625 2381 
Q 2406 2934 1825 2934 
Q 1241 2934 1025 2350 
Q 909 2038 909 1556 
Q 909 1169 1025 897 
Q 1244 378 1825 378 
z
M 369 3331 
L 916 3331 
L 916 2888 
Q 1084 3116 1284 3241 
Q 1569 3428 1953 3428 
Q 2522 3428 2919 2992 
Q 3316 2556 3316 1747 
Q 3316 653 2744 184 
Q 2381 -113 1900 -113 
Q 1522 -113 1266 53 
Q 1116 147 931 375 
L 931 -1334 
L 369 -1334 
L 369 3331 
z
" transform="scale(0.015625)"/>
       <path id="Helvetica-43" d="M 2422 4716 
Q 3294 4716 3775 4256 
Q 4256 3797 4309 3213 
L 3703 3213 
Q 3600 3656 3292 3915 
Q 2984 4175 2428 4175 
Q 1750 4175 1333 3698 
Q 916 3222 916 2238 
Q 916 1431 1292 929 
Q 1669 428 2416 428 
Q 3103 428 3463 956 
Q 3653 1234 3747 1688 
L 4353 1688 
Q 4272 963 3816 472 
Q 3269 -119 2341 -119 
Q 1541 -119 997 366 
Q 281 1006 281 2344 
Q 281 3359 819 4009 
Q 1400 4716 2422 4716 
z
M 2297 4716 
L 2297 4716 
z
" transform="scale(0.015625)"/>
      </defs>
      <use xlink:href="#Helvetica-45"/>
      <use xlink:href="#Helvetica-78" x="66.699219"/>
      <use xlink:href="#Helvetica-70" x="116.699219"/>
      <use xlink:href="#Helvetica-65" x="172.314453"/>
      <use xlink:href="#Helvetica-72" x="227.929688"/>
      <use xlink:href="#Helvetica-69" x="261.230469"/>
      <use xlink:href="#Helvetica-6d" x="283.447266"/>
      <use xlink:href="#Helvetica-65" x="366.748047"/>
      <use xlink:href="#Helvetica-6e" x="422.363281"/>
      <use xlink:href="#Helvetica-74" x="477.978516"/>
      <use xlink:href="#Helvetica-20" x="505.761719"/>
      <use xlink:href="#Helvetica-43" x="533.544922"/>
      <use xlink:href="#Helvetica-6f" x="605.761719"/>
      <use xlink:href="#Helvetica-6e" x="661.376953"/>
      <use xlink:href="#Helvetica-64" x="716.992188"/>
      <use xlink:href="#Helvetica-69" x="772.607422"/>
      <use xlink:href="#Helvetica-74" x="794.824219"/>
      <use xlink:href="#Helvetica-69" x="822.607422"/>
      <use xlink:href="#Helvetica-6f" x="844.824219"/>
      <use xlink:href="#Helvetica-6e" x="900.439453"/>
      <use xlink:href="#Helvetica-73" x="956.054688"/>
     </g>
    </g>
    <g id="line2d_18">
     <path d="M 362.843125 57.191875 
L 370.843125 57.191875 
L 378.843125 57.191875 
" style="fill: none; stroke: #bdbdbd; stroke-width: 0.8; stroke-linecap: square"/>
    </g>
    <g id="text_19">
     <!-- PS-10K -->
     <g transform="translate(385.243125 59.991875) scale(0.08 -0.08)">
      <defs>
       <path id="Helvetica-50" d="M 547 4591 
L 2613 4591 
Q 3225 4591 3600 4245 
Q 3975 3900 3975 3275 
Q 3975 2738 3640 2339 
Q 3306 1941 2613 1941 
L 1169 1941 
L 1169 0 
L 547 0 
L 547 4591 
z
M 3347 3272 
Q 3347 3778 2972 3959 
Q 2766 4056 2406 4056 
L 1169 4056 
L 1169 2466 
L 2406 2466 
Q 2825 2466 3086 2644 
Q 3347 2822 3347 3272 
z
" transform="scale(0.015625)"/>
       <path id="Helvetica-53" d="M 894 1481 
Q 916 1091 1078 847 
Q 1388 391 2169 391 
Q 2519 391 2806 491 
Q 3363 684 3363 1184 
Q 3363 1559 3128 1719 
Q 2891 1875 2384 1991 
L 1763 2131 
Q 1153 2269 900 2434 
Q 463 2722 463 3294 
Q 463 3913 891 4309 
Q 1319 4706 2103 4706 
Q 2825 4706 3329 4357 
Q 3834 4009 3834 3244 
L 3250 3244 
Q 3203 3613 3050 3809 
Q 2766 4169 2084 4169 
Q 1534 4169 1293 3937 
Q 1053 3706 1053 3400 
Q 1053 3063 1334 2906 
Q 1519 2806 2169 2656 
L 2813 2509 
Q 3278 2403 3531 2219 
Q 3969 1897 3969 1284 
Q 3969 522 3414 194 
Q 2859 -134 2125 -134 
Q 1269 -134 784 303 
Q 300 738 309 1481 
L 894 1481 
z
M 2150 4716 
L 2150 4716 
z
" transform="scale(0.015625)"/>
       <path id="Helvetica-2d" d="M 266 2072 
L 1834 2072 
L 1834 1494 
L 266 1494 
L 266 2072 
z
" transform="scale(0.015625)"/>
       <path id="Helvetica-4b" d="M 488 4591 
L 1094 4591 
L 1094 2353 
L 3331 4591 
L 4191 4591 
L 2281 2741 
L 4244 0 
L 3434 0 
L 1828 2303 
L 1094 1600 
L 1094 0 
L 488 0 
L 488 4591 
z
" transform="scale(0.015625)"/>
      </defs>
      <use xlink:href="#Helvetica-50"/>
      <use xlink:href="#Helvetica-53" x="66.699219"/>
      <use xlink:href="#Helvetica-2d" x="133.398438"/>
      <use xlink:href="#Helvetica-31" x="166.699219"/>
      <use xlink:href="#Helvetica-30" x="222.314453"/>
      <use xlink:href="#Helvetica-4b" x="277.929688"/>
     </g>
    </g>
    <g id="line2d_19">
     <path d="M 362.843125 68.598125 
L 370.843125 68.598125 
L 378.843125 68.598125 
" style="fill: none; stroke: #74a9cf; stroke-width: 0.8; stroke-linecap: square"/>
    </g>
    <g id="text_20">
     <!-- PS-10K-SCF$_{3}$ -->
     <g transform="translate(385.243125 71.398125) scale(0.08 -0.08)">
      <defs>
       <path id="Helvetica-46" d="M 547 4591 
L 3731 4591 
L 3731 4028 
L 1169 4028 
L 1169 2634 
L 3422 2634 
L 3422 2088 
L 1169 2088 
L 1169 0 
L 547 0 
L 547 4591 
z
" transform="scale(0.015625)"/>
       <path id="DejaVuSans-33" d="M 2597 2516 
Q 3050 2419 3304 2112 
Q 3559 1806 3559 1356 
Q 3559 666 3084 287 
Q 2609 -91 1734 -91 
Q 1441 -91 1130 -33 
Q 819 25 488 141 
L 488 750 
Q 750 597 1062 519 
Q 1375 441 1716 441 
Q 2309 441 2620 675 
Q 2931 909 2931 1356 
Q 2931 1769 2642 2001 
Q 2353 2234 1838 2234 
L 1294 2234 
L 1294 2753 
L 1863 2753 
Q 2328 2753 2575 2939 
Q 2822 3125 2822 3475 
Q 2822 3834 2567 4026 
Q 2313 4219 1838 4219 
Q 1578 4219 1281 4162 
Q 984 4106 628 3988 
L 628 4550 
Q 988 4650 1302 4700 
Q 1616 4750 1894 4750 
Q 2613 4750 3031 4423 
Q 3450 4097 3450 3541 
Q 3450 3153 3228 2886 
Q 3006 2619 2597 2516 
z
" transform="scale(0.015625)"/>
      </defs>
      <use xlink:href="#Helvetica-50" transform="translate(0 0.3125)"/>
      <use xlink:href="#Helvetica-53" transform="translate(66.699219 0.3125)"/>
      <use xlink:href="#Helvetica-2d" transform="translate(133.398438 0.3125)"/>
      <use xlink:href="#Helvetica-31" transform="translate(166.699219 0.3125)"/>
      <use xlink:href="#Helvetica-30" transform="translate(222.314453 0.3125)"/>
      <use xlink:href="#Helvetica-4b" transform="translate(277.929688 0.3125)"/>
      <use xlink:href="#Helvetica-2d" transform="translate(344.628906 0.3125)"/>
      <use xlink:href="#Helvetica-53" transform="translate(377.929688 0.3125)"/>
      <use xlink:href="#Helvetica-43" transform="translate(444.628906 0.3125)"/>
      <use xlink:href="#Helvetica-46" transform="translate(516.845703 0.3125)"/>
      <use xlink:href="#DejaVuSans-33" transform="translate(578.886719 -16.09375) scale(0.7)"/>
     </g>
    </g>
   </g>
   <g id="legend_2">
    <g id="text_21">
     <!-- GPC Data -->
     <g transform="translate(369.924219 136.754281) scale(0.1 -0.1)">
      <defs>
       <path id="Helvetica-47" d="M 2472 4709 
Q 3119 4709 3591 4459 
Q 4275 4100 4428 3200 
L 3813 3200 
Q 3700 3703 3347 3933 
Q 2994 4163 2456 4163 
Q 1819 4163 1383 3684 
Q 947 3206 947 2259 
Q 947 1441 1306 927 
Q 1666 413 2478 413 
Q 3100 413 3508 773 
Q 3916 1134 3925 1941 
L 2488 1941 
L 2488 2456 
L 4503 2456 
L 4503 0 
L 4103 0 
L 3953 591 
Q 3638 244 3394 109 
Q 2984 -122 2353 -122 
Q 1538 -122 950 406 
Q 309 1069 309 2225 
Q 309 3378 934 4059 
Q 1528 4709 2472 4709 
z
M 2369 4716 
L 2369 4716 
z
" transform="scale(0.015625)"/>
       <path id="Helvetica-44" d="M 2250 531 
Q 2566 531 2769 597 
Q 3131 719 3363 1066 
Q 3547 1344 3628 1778 
Q 3675 2038 3675 2259 
Q 3675 3113 3336 3584 
Q 2997 4056 2244 4056 
L 1141 4056 
L 1141 531 
L 2250 531 
z
M 516 4591 
L 2375 4591 
Q 3322 4591 3844 3919 
Q 4309 3313 4309 2366 
Q 4309 1634 4034 1044 
Q 3550 0 2369 0 
L 516 0 
L 516 4591 
z
" transform="scale(0.015625)"/>
      </defs>
      <use xlink:href="#Helvetica-47"/>
      <use xlink:href="#Helvetica-50" x="77.783203"/>
      <use xlink:href="#Helvetica-43" x="144.482422"/>
      <use xlink:href="#Helvetica-20" x="216.699219"/>
      <use xlink:href="#Helvetica-44" x="244.482422"/>
      <use xlink:href="#Helvetica-61" x="316.699219"/>
      <use xlink:href="#Helvetica-74" x="372.314453"/>
      <use xlink:href="#Helvetica-61" x="400.097656"/>
     </g>
    </g>
    <g id="line2d_20">
     <path d="M 325.59375 145.777406 
L 333.59375 145.777406 
L 341.59375 145.777406 
" style="fill: none; stroke: #bdbdbd; stroke-width: 0.8; stroke-linecap: square"/>
    </g>
    <g id="text_22">
     <!-- Mn=8.5k, Mw=9.2k, Mp=9.8k -->
     <g transform="translate(347.99375 148.577406) scale(0.08 -0.08)">
      <defs>
       <path id="Helvetica-4d" d="M 472 4591 
L 1363 4591 
L 2681 709 
L 3991 4591 
L 4872 4591 
L 4872 0 
L 4281 0 
L 4281 2709 
Q 4281 2850 4287 3175 
Q 4294 3500 4294 3872 
L 2984 0 
L 2369 0 
L 1050 3872 
L 1050 3731 
Q 1050 3563 1058 3217 
Q 1066 2872 1066 2709 
L 1066 0 
L 472 0 
L 472 4591 
z
" transform="scale(0.015625)"/>
       <path id="Helvetica-3d" d="M 3547 2569 
L 3547 2044 
L 288 2044 
L 288 2569 
L 3547 2569 
z
M 3547 1228 
L 3547 694 
L 288 694 
L 288 1228 
L 3547 1228 
z
" transform="scale(0.015625)"/>
       <path id="Helvetica-35" d="M 791 1141 
Q 847 659 1238 475 
Q 1438 381 1700 381 
Q 2200 381 2440 700 
Q 2681 1019 2681 1406 
Q 2681 1875 2395 2131 
Q 2109 2388 1709 2388 
Q 1419 2388 1211 2275 
Q 1003 2163 856 1963 
L 369 1991 
L 709 4400 
L 3034 4400 
L 3034 3856 
L 1131 3856 
L 941 2613 
Q 1097 2731 1238 2791 
Q 1488 2894 1816 2894 
Q 2431 2894 2859 2497 
Q 3288 2100 3288 1491 
Q 3288 856 2895 371 
Q 2503 -113 1644 -113 
Q 1097 -113 676 195 
Q 256 503 206 1141 
L 791 1141 
z
" transform="scale(0.015625)"/>
       <path id="Helvetica-6b" d="M 400 4591 
L 941 4591 
L 941 1925 
L 2384 3347 
L 3103 3347 
L 1822 2094 
L 3175 0 
L 2456 0 
L 1413 1688 
L 941 1256 
L 941 0 
L 400 0 
L 400 4591 
z
" transform="scale(0.015625)"/>
       <path id="Helvetica-2c" d="M 531 -653 
Q 747 -616 834 -350 
Q 881 -209 881 -78 
Q 881 -56 879 -39 
Q 878 -22 872 0 
L 531 0 
L 531 681 
L 1200 681 
L 1200 50 
Q 1200 -322 1050 -603 
Q 900 -884 531 -950 
L 531 -653 
z
" transform="scale(0.015625)"/>
       <path id="Helvetica-77" d="M 672 3347 
L 1316 709 
L 1969 3347 
L 2600 3347 
L 3256 725 
L 3941 3347 
L 4503 3347 
L 3531 0 
L 2947 0 
L 2266 2591 
L 1606 0 
L 1022 0 
L 56 3347 
L 672 3347 
z
" transform="scale(0.015625)"/>
       <path id="Helvetica-39" d="M 850 1081 
Q 875 616 1209 438 
Q 1381 344 1597 344 
Q 2000 344 2284 680 
Q 2569 1016 2688 2044 
Q 2500 1747 2223 1626 
Q 1947 1506 1628 1506 
Q 981 1506 604 1909 
Q 228 2313 228 2947 
Q 228 3556 600 4018 
Q 972 4481 1697 4481 
Q 2675 4481 3047 3600 
Q 3253 3116 3253 2388 
Q 3253 1566 3006 931 
Q 2597 -125 1619 -125 
Q 963 -125 622 219 
Q 281 563 281 1081 
L 850 1081 
z
M 1703 2000 
Q 2038 2000 2314 2220 
Q 2591 2441 2591 2991 
Q 2591 3484 2342 3726 
Q 2094 3969 1709 3969 
Q 1297 3969 1055 3692 
Q 813 3416 813 2953 
Q 813 2516 1025 2258 
Q 1238 2000 1703 2000 
z
" transform="scale(0.015625)"/>
      </defs>
      <use xlink:href="#Helvetica-4d"/>
      <use xlink:href="#Helvetica-6e" x="83.300781"/>
      <use xlink:href="#Helvetica-3d" x="138.916016"/>
      <use xlink:href="#Helvetica-38" x="197.314453"/>
      <use xlink:href="#Helvetica-2e" x="252.929688"/>
      <use xlink:href="#Helvetica-35" x="280.712891"/>
      <use xlink:href="#Helvetica-6b" x="336.328125"/>
      <use xlink:href="#Helvetica-2c" x="386.328125"/>
      <use xlink:href="#Helvetica-20" x="414.111328"/>
      <use xlink:href="#Helvetica-4d" x="441.894531"/>
      <use xlink:href="#Helvetica-77" x="525.195312"/>
      <use xlink:href="#Helvetica-3d" x="597.412109"/>
      <use xlink:href="#Helvetica-39" x="655.810547"/>
      <use xlink:href="#Helvetica-2e" x="711.425781"/>
      <use xlink:href="#Helvetica-32" x="739.208984"/>
      <use xlink:href="#Helvetica-6b" x="794.824219"/>
      <use xlink:href="#Helvetica-2c" x="844.824219"/>
      <use xlink:href="#Helvetica-20" x="872.607422"/>
      <use xlink:href="#Helvetica-4d" x="900.390625"/>
      <use xlink:href="#Helvetica-70" x="983.691406"/>
      <use xlink:href="#Helvetica-3d" x="1039.306641"/>
      <use xlink:href="#Helvetica-39" x="1097.705078"/>
      <use xlink:href="#Helvetica-2e" x="1153.320312"/>
      <use xlink:href="#Helvetica-38" x="1181.103516"/>
      <use xlink:href="#Helvetica-6b" x="1236.71875"/>
     </g>
    </g>
    <g id="line2d_21">
     <path d="M 325.59375 157.183656 
L 333.59375 157.183656 
L 341.59375 157.183656 
" style="fill: none; stroke: #74a9cf; stroke-width: 0.8; stroke-linecap: square"/>
    </g>
    <g id="text_23">
     <!-- Mn=9.5k, Mw=10.2k, Mp=10.8k -->
     <g transform="translate(347.99375 159.983656) scale(0.08 -0.08)">
      <use xlink:href="#Helvetica-4d"/>
      <use xlink:href="#Helvetica-6e" x="83.300781"/>
      <use xlink:href="#Helvetica-3d" x="138.916016"/>
      <use xlink:href="#Helvetica-39" x="197.314453"/>
      <use xlink:href="#Helvetica-2e" x="252.929688"/>
      <use xlink:href="#Helvetica-35" x="280.712891"/>
      <use xlink:href="#Helvetica-6b" x="336.328125"/>
      <use xlink:href="#Helvetica-2c" x="386.328125"/>
      <use xlink:href="#Helvetica-20" x="414.111328"/>
      <use xlink:href="#Helvetica-4d" x="441.894531"/>
      <use xlink:href="#Helvetica-77" x="525.195312"/>
      <use xlink:href="#Helvetica-3d" x="597.412109"/>
      <use xlink:href="#Helvetica-31" x="655.810547"/>
      <use xlink:href="#Helvetica-30" x="711.425781"/>
      <use xlink:href="#Helvetica-2e" x="767.041016"/>
      <use xlink:href="#Helvetica-32" x="794.824219"/>
      <use xlink:href="#Helvetica-6b" x="850.439453"/>
      <use xlink:href="#Helvetica-2c" x="900.439453"/>
      <use xlink:href="#Helvetica-20" x="928.222656"/>
      <use xlink:href="#Helvetica-4d" x="956.005859"/>
      <use xlink:href="#Helvetica-70" x="1039.306641"/>
      <use xlink:href="#Helvetica-3d" x="1094.921875"/>
      <use xlink:href="#Helvetica-31" x="1153.320312"/>
      <use xlink:href="#Helvetica-30" x="1208.935547"/>
      <use xlink:href="#Helvetica-2e" x="1264.550781"/>
      <use xlink:href="#Helvetica-38" x="1292.333984"/>
      <use xlink:href="#Helvetica-6b" x="1347.949219"/>
     </g>
    </g>
   </g>
  </g>
 </g>
 <defs>
  <clipPath id="p9aa78f3ed3">
   <rect x="50.95" y="33.6" width="416.075" height="280.04"/>
  </clipPath>
 </defs>
</svg>
