<?xml version="1.0" encoding="utf-8" standalone="no"?>
<!DOCTYPE svg PUBLIC "-//W3C//DTD SVG 1.1//EN"
  "http://www.w3.org/Graphics/SVG/1.1/DTD/svg11.dtd">
<svg xmlns:xlink="http://www.w3.org/1999/xlink" width="504pt" height="360pt" viewBox="0 0 504 360" xmlns="http://www.w3.org/2000/svg" version="1.1">
 <metadata>
  <rdf:RDF xmlns:dc="http://purl.org/dc/elements/1.1/" xmlns:cc="http://creativecommons.org/ns#" xmlns:rdf="http://www.w3.org/1999/02/22-rdf-syntax-ns#">
   <cc:Work>
    <dc:type rdf:resource="http://purl.org/dc/dcmitype/StillImage"/>
    <dc:date>2025-02-22T11:45:28.404849</dc:date>
    <dc:format>image/svg+xml</dc:format>
    <dc:creator>
     <cc:Agent>
      <dc:title>Matplotlib v3.7.1, https://matplotlib.org/</dc:title>
     </cc:Agent>
    </dc:creator>
   </cc:Work>
  </rdf:RDF>
 </metadata>
 <defs>
  <style type="text/css">*{stroke-linejoin: round; stroke-linecap: butt}</style>
 </defs>
 <g id="figure_1">
  <g id="patch_1">
   <path d="M 0 360 
L 504 360 
L 504 0 
L 0 0 
z
" style="fill: #ffffff"/>
  </g>
  <g id="axes_1">
   <g id="patch_2">
    <path d="M 50.95 313.64 
L 467.025 313.64 
L 467.025 33.6 
L 50.95 33.6 
z
" style="fill: #ffffff"/>
   </g>
   <g id="matplotlib.axis_1">
    <g id="xtick_1">
     <g id="line2d_1">
      <defs>
       <path id="m2ade160110" d="M 0 0 
L 0 -3.5 
" style="stroke: #000000; stroke-width: 0.8"/>
      </defs>
      <g>
       <use xlink:href="#m2ade160110" x="50.95" y="313.64" style="stroke: #000000; stroke-width: 0.8"/>
      </g>
     </g>
     <g id="text_1">
      <!-- 5.0 -->
      <g transform="translate(42.61 325.748125) scale(0.12 -0.12)">
       <defs>
        <path id="Helvetica-35" d="M 791 1141 
Q 847 659 1238 475 
Q 1438 381 1700 381 
Q 2200 381 2440 700 
Q 2681 1019 2681 1406 
Q 2681 1875 2395 2131 
Q 2109 2388 1709 2388 
Q 1419 2388 1211 2275 
Q 1003 2163 856 1963 
L 369 1991 
L 709 4400 
L 3034 4400 
L 3034 3856 
L 1131 3856 
L 941 2613 
Q 1097 2731 1238 2791 
Q 1488 2894 1816 2894 
Q 2431 2894 2859 2497 
Q 3288 2100 3288 1491 
Q 3288 856 2895 371 
Q 2503 -113 1644 -113 
Q 1097 -113 676 195 
Q 256 503 206 1141 
L 791 1141 
z
" transform="scale(0.015625)"/>
        <path id="Helvetica-2e" d="M 547 681 
L 1200 681 
L 1200 0 
L 547 0 
L 547 681 
z
" transform="scale(0.015625)"/>
        <path id="Helvetica-30" d="M 1731 4475 
Q 2600 4475 2988 3759 
Q 3288 3206 3288 2244 
Q 3288 1331 3016 734 
Q 2622 -122 1728 -122 
Q 922 -122 528 578 
Q 200 1163 200 2147 
Q 200 2909 397 3456 
Q 766 4475 1731 4475 
z
M 1725 391 
Q 2163 391 2422 778 
Q 2681 1166 2681 2222 
Q 2681 2984 2493 3476 
Q 2306 3969 1766 3969 
Q 1269 3969 1039 3501 
Q 809 3034 809 2125 
Q 809 1441 956 1025 
Q 1181 391 1725 391 
z
" transform="scale(0.015625)"/>
       </defs>
       <use xlink:href="#Helvetica-35"/>
       <use xlink:href="#Helvetica-2e" x="55.615234"/>
       <use xlink:href="#Helvetica-30" x="83.398438"/>
      </g>
     </g>
    </g>
    <g id="xtick_2">
     <g id="line2d_2">
      <g>
       <use xlink:href="#m2ade160110" x="134.165" y="313.64" style="stroke: #000000; stroke-width: 0.8"/>
      </g>
     </g>
     <g id="text_2">
      <!-- 5.5 -->
      <g transform="translate(125.825 325.748125) scale(0.12 -0.12)">
       <use xlink:href="#Helvetica-35"/>
       <use xlink:href="#Helvetica-2e" x="55.615234"/>
       <use xlink:href="#Helvetica-35" x="83.398438"/>
      </g>
     </g>
    </g>
    <g id="xtick_3">
     <g id="line2d_3">
      <g>
       <use xlink:href="#m2ade160110" x="217.38" y="313.64" style="stroke: #000000; stroke-width: 0.8"/>
      </g>
     </g>
     <g id="text_3">
      <!-- 6.0 -->
      <g transform="translate(209.04 325.748125) scale(0.12 -0.12)">
       <defs>
        <path id="Helvetica-36" d="M 1872 4494 
Q 2622 4494 2917 4105 
Q 3213 3716 3213 3303 
L 2656 3303 
Q 2606 3569 2497 3719 
Q 2294 4000 1881 4000 
Q 1409 4000 1131 3564 
Q 853 3128 822 2316 
Q 1016 2600 1309 2741 
Q 1578 2866 1909 2866 
Q 2472 2866 2890 2506 
Q 3309 2147 3309 1434 
Q 3309 825 2912 354 
Q 2516 -116 1781 -116 
Q 1153 -116 697 361 
Q 241 838 241 1966 
Q 241 2800 444 3381 
Q 834 4494 1872 4494 
z
M 1831 384 
Q 2275 384 2495 682 
Q 2716 981 2716 1388 
Q 2716 1731 2519 2042 
Q 2322 2353 1803 2353 
Q 1441 2353 1167 2112 
Q 894 1872 894 1388 
Q 894 963 1142 673 
Q 1391 384 1831 384 
z
" transform="scale(0.015625)"/>
       </defs>
       <use xlink:href="#Helvetica-36"/>
       <use xlink:href="#Helvetica-2e" x="55.615234"/>
       <use xlink:href="#Helvetica-30" x="83.398438"/>
      </g>
     </g>
    </g>
    <g id="xtick_4">
     <g id="line2d_4">
      <g>
       <use xlink:href="#m2ade160110" x="300.595" y="313.64" style="stroke: #000000; stroke-width: 0.8"/>
      </g>
     </g>
     <g id="text_4">
      <!-- 6.5 -->
      <g transform="translate(292.255 325.748125) scale(0.12 -0.12)">
       <use xlink:href="#Helvetica-36"/>
       <use xlink:href="#Helvetica-2e" x="55.615234"/>
       <use xlink:href="#Helvetica-35" x="83.398438"/>
      </g>
     </g>
    </g>
    <g id="xtick_5">
     <g id="line2d_5">
      <g>
       <use xlink:href="#m2ade160110" x="383.81" y="313.64" style="stroke: #000000; stroke-width: 0.8"/>
      </g>
     </g>
     <g id="text_5">
      <!-- 7.0 -->
      <g transform="translate(375.47 325.748125) scale(0.12 -0.12)">
       <defs>
        <path id="Helvetica-37" d="M 3347 4400 
L 3347 3909 
Q 3131 3700 2773 3181 
Q 2416 2663 2141 2063 
Q 1869 1478 1728 997 
Q 1638 688 1494 0 
L 872 0 
Q 1084 1281 1809 2550 
Q 2238 3294 2709 3834 
L 234 3834 
L 234 4400 
L 3347 4400 
z
" transform="scale(0.015625)"/>
       </defs>
       <use xlink:href="#Helvetica-37"/>
       <use xlink:href="#Helvetica-2e" x="55.615234"/>
       <use xlink:href="#Helvetica-30" x="83.398438"/>
      </g>
     </g>
    </g>
    <g id="xtick_6">
     <g id="line2d_6">
      <g>
       <use xlink:href="#m2ade160110" x="467.025" y="313.64" style="stroke: #000000; stroke-width: 0.8"/>
      </g>
     </g>
     <g id="text_6">
      <!-- 7.5 -->
      <g transform="translate(458.685 325.748125) scale(0.12 -0.12)">
       <use xlink:href="#Helvetica-37"/>
       <use xlink:href="#Helvetica-2e" x="55.615234"/>
       <use xlink:href="#Helvetica-35" x="83.398438"/>
      </g>
     </g>
    </g>
    <g id="text_7">
     <!-- Retention Time (min) -->
     <g transform="translate(202.975625 340.945625) scale(0.12 -0.12)">
      <defs>
       <path id="Helvetica-52" d="M 2622 2488 
Q 3059 2488 3314 2663 
Q 3569 2838 3569 3294 
Q 3569 3784 3213 3963 
Q 3022 4056 2703 4056 
L 1184 4056 
L 1184 2488 
L 2622 2488 
z
M 563 4591 
L 2688 4591 
Q 3213 4591 3553 4438 
Q 4200 4144 4200 3353 
Q 4200 2941 4029 2678 
Q 3859 2416 3553 2256 
Q 3822 2147 3958 1969 
Q 4094 1791 4109 1391 
L 4131 775 
Q 4141 513 4175 384 
Q 4231 166 4375 103 
L 4375 0 
L 3613 0 
Q 3581 59 3562 153 
Q 3544 247 3531 516 
L 3494 1281 
Q 3472 1731 3159 1884 
Q 2981 1969 2600 1969 
L 1184 1969 
L 1184 0 
L 563 0 
L 563 4591 
z
" transform="scale(0.015625)"/>
       <path id="Helvetica-65" d="M 1806 3422 
Q 2163 3422 2497 3255 
Q 2831 3088 3006 2822 
Q 3175 2569 3231 2231 
Q 3281 2000 3281 1494 
L 828 1494 
Q 844 984 1069 676 
Q 1294 369 1766 369 
Q 2206 369 2469 659 
Q 2619 828 2681 1050 
L 3234 1050 
Q 3213 866 3089 639 
Q 2966 413 2813 269 
Q 2556 19 2178 -69 
Q 1975 -119 1719 -119 
Q 1094 -119 659 336 
Q 225 791 225 1609 
Q 225 2416 662 2919 
Q 1100 3422 1806 3422 
z
M 2703 1941 
Q 2669 2306 2544 2525 
Q 2313 2931 1772 2931 
Q 1384 2931 1121 2651 
Q 859 2372 844 1941 
L 2703 1941 
z
M 1753 3428 
L 1753 3428 
z
" transform="scale(0.015625)"/>
       <path id="Helvetica-74" d="M 525 4281 
L 1094 4281 
L 1094 3347 
L 1628 3347 
L 1628 2888 
L 1094 2888 
L 1094 703 
Q 1094 528 1213 469 
Q 1278 434 1431 434 
Q 1472 434 1519 436 
Q 1566 438 1628 444 
L 1628 0 
Q 1531 -28 1426 -40 
Q 1322 -53 1200 -53 
Q 806 -53 665 148 
Q 525 350 525 672 
L 525 2888 
L 72 2888 
L 72 3347 
L 525 3347 
L 525 4281 
z
" transform="scale(0.015625)"/>
       <path id="Helvetica-6e" d="M 413 3347 
L 947 3347 
L 947 2872 
Q 1184 3166 1450 3294 
Q 1716 3422 2041 3422 
Q 2753 3422 3003 2925 
Q 3141 2653 3141 2147 
L 3141 0 
L 2569 0 
L 2569 2109 
Q 2569 2416 2478 2603 
Q 2328 2916 1934 2916 
Q 1734 2916 1606 2875 
Q 1375 2806 1200 2600 
Q 1059 2434 1017 2257 
Q 975 2081 975 1753 
L 975 0 
L 413 0 
L 413 3347 
z
M 1734 3428 
L 1734 3428 
z
" transform="scale(0.015625)"/>
       <path id="Helvetica-69" d="M 413 3331 
L 984 3331 
L 984 0 
L 413 0 
L 413 3331 
z
M 413 4591 
L 984 4591 
L 984 3953 
L 413 3953 
L 413 4591 
z
" transform="scale(0.015625)"/>
       <path id="Helvetica-6f" d="M 1741 363 
Q 2300 363 2508 786 
Q 2716 1209 2716 1728 
Q 2716 2197 2566 2491 
Q 2328 2953 1747 2953 
Q 1231 2953 997 2559 
Q 763 2166 763 1609 
Q 763 1075 997 719 
Q 1231 363 1741 363 
z
M 1763 3444 
Q 2409 3444 2856 3012 
Q 3303 2581 3303 1744 
Q 3303 934 2909 406 
Q 2516 -122 1688 -122 
Q 997 -122 590 345 
Q 184 813 184 1600 
Q 184 2444 612 2944 
Q 1041 3444 1763 3444 
z
M 1744 3428 
L 1744 3428 
z
" transform="scale(0.015625)"/>
       <path id="Helvetica-20" transform="scale(0.015625)"/>
       <path id="Helvetica-54" d="M 3828 4591 
L 3828 4044 
L 2281 4044 
L 2281 0 
L 1650 0 
L 1650 4044 
L 103 4044 
L 103 4591 
L 3828 4591 
z
" transform="scale(0.015625)"/>
       <path id="Helvetica-6d" d="M 413 3347 
L 969 3347 
L 969 2872 
Q 1169 3119 1331 3231 
Q 1609 3422 1963 3422 
Q 2363 3422 2606 3225 
Q 2744 3113 2856 2894 
Q 3044 3163 3297 3292 
Q 3550 3422 3866 3422 
Q 4541 3422 4784 2934 
Q 4916 2672 4916 2228 
L 4916 0 
L 4331 0 
L 4331 2325 
Q 4331 2659 4164 2784 
Q 3997 2909 3756 2909 
Q 3425 2909 3186 2687 
Q 2947 2466 2947 1947 
L 2947 0 
L 2375 0 
L 2375 2184 
Q 2375 2525 2294 2681 
Q 2166 2916 1816 2916 
Q 1497 2916 1236 2669 
Q 975 2422 975 1775 
L 975 0 
L 413 0 
L 413 3347 
z
" transform="scale(0.015625)"/>
       <path id="Helvetica-28" d="M 1894 4666 
Q 1403 3713 1256 3263 
Q 1034 2578 1034 1681 
Q 1034 775 1288 25 
Q 1444 -438 1903 -1306 
L 1525 -1306 
Q 1069 -594 959 -397 
Q 850 -200 722 138 
Q 547 600 478 1125 
Q 444 1397 444 1644 
Q 444 2569 734 3291 
Q 919 3750 1503 4666 
L 1894 4666 
z
" transform="scale(0.015625)"/>
       <path id="Helvetica-29" d="M 222 -1306 
Q 719 -338 863 106 
Q 1081 778 1081 1681 
Q 1081 2584 828 3334 
Q 672 3797 213 4666 
L 591 4666 
Q 1072 3897 1173 3717 
Q 1275 3538 1394 3222 
Q 1544 2831 1608 2450 
Q 1672 2069 1672 1716 
Q 1672 791 1378 66 
Q 1194 -400 613 -1306 
L 222 -1306 
z
" transform="scale(0.015625)"/>
      </defs>
      <use xlink:href="#Helvetica-52"/>
      <use xlink:href="#Helvetica-65" x="72.216797"/>
      <use xlink:href="#Helvetica-74" x="127.832031"/>
      <use xlink:href="#Helvetica-65" x="155.615234"/>
      <use xlink:href="#Helvetica-6e" x="211.230469"/>
      <use xlink:href="#Helvetica-74" x="266.845703"/>
      <use xlink:href="#Helvetica-69" x="294.628906"/>
      <use xlink:href="#Helvetica-6f" x="316.845703"/>
      <use xlink:href="#Helvetica-6e" x="372.460938"/>
      <use xlink:href="#Helvetica-20" x="428.076172"/>
      <use xlink:href="#Helvetica-54" x="455.859375"/>
      <use xlink:href="#Helvetica-69" x="516.943359"/>
      <use xlink:href="#Helvetica-6d" x="539.160156"/>
      <use xlink:href="#Helvetica-65" x="622.460938"/>
      <use xlink:href="#Helvetica-20" x="678.076172"/>
      <use xlink:href="#Helvetica-28" x="705.859375"/>
      <use xlink:href="#Helvetica-6d" x="739.160156"/>
      <use xlink:href="#Helvetica-69" x="822.460938"/>
      <use xlink:href="#Helvetica-6e" x="844.677734"/>
      <use xlink:href="#Helvetica-29" x="900.292969"/>
     </g>
    </g>
   </g>
   <g id="matplotlib.axis_2">
    <g id="ytick_1">
     <g id="line2d_7">
      <defs>
       <path id="mc1b56add02" d="M 0 0 
L 3.5 0 
" style="stroke: #000000; stroke-width: 0.8"/>
      </defs>
      <g>
       <use xlink:href="#mc1b56add02" x="50.95" y="290.303333" style="stroke: #000000; stroke-width: 0.8"/>
      </g>
     </g>
     <g id="text_8">
      <!-- 0.0 -->
      <g transform="translate(30.77 294.607396) scale(0.12 -0.12)">
       <use xlink:href="#Helvetica-30"/>
       <use xlink:href="#Helvetica-2e" x="55.615234"/>
       <use xlink:href="#Helvetica-30" x="83.398438"/>
      </g>
     </g>
    </g>
    <g id="ytick_2">
     <g id="line2d_8">
      <g>
       <use xlink:href="#mc1b56add02" x="50.95" y="243.63" style="stroke: #000000; stroke-width: 0.8"/>
      </g>
     </g>
     <g id="text_9">
      <!-- 0.2 -->
      <g transform="translate(30.77 247.934063) scale(0.12 -0.12)">
       <defs>
        <path id="Helvetica-32" d="M 200 0 
Q 231 578 439 1006 
Q 647 1434 1250 1784 
L 1850 2131 
Q 2253 2366 2416 2531 
Q 2672 2791 2672 3125 
Q 2672 3516 2437 3745 
Q 2203 3975 1813 3975 
Q 1234 3975 1013 3538 
Q 894 3303 881 2888 
L 309 2888 
Q 319 3472 525 3841 
Q 891 4491 1816 4491 
Q 2584 4491 2939 4075 
Q 3294 3659 3294 3150 
Q 3294 2613 2916 2231 
Q 2697 2009 2131 1694 
L 1703 1456 
Q 1397 1288 1222 1134 
Q 909 863 828 531 
L 3272 531 
L 3272 0 
L 200 0 
z
" transform="scale(0.015625)"/>
       </defs>
       <use xlink:href="#Helvetica-30"/>
       <use xlink:href="#Helvetica-2e" x="55.615234"/>
       <use xlink:href="#Helvetica-32" x="83.398438"/>
      </g>
     </g>
    </g>
    <g id="ytick_3">
     <g id="line2d_9">
      <g>
       <use xlink:href="#mc1b56add02" x="50.95" y="196.956667" style="stroke: #000000; stroke-width: 0.8"/>
      </g>
     </g>
     <g id="text_10">
      <!-- 0.4 -->
      <g transform="translate(30.77 201.260729) scale(0.12 -0.12)">
       <defs>
        <path id="Helvetica-34" d="M 2116 1584 
L 2116 3613 
L 681 1584 
L 2116 1584 
z
M 2125 0 
L 2125 1094 
L 163 1094 
L 163 1644 
L 2213 4488 
L 2688 4488 
L 2688 1584 
L 3347 1584 
L 3347 1094 
L 2688 1094 
L 2688 0 
L 2125 0 
z
" transform="scale(0.015625)"/>
       </defs>
       <use xlink:href="#Helvetica-30"/>
       <use xlink:href="#Helvetica-2e" x="55.615234"/>
       <use xlink:href="#Helvetica-34" x="83.398438"/>
      </g>
     </g>
    </g>
    <g id="ytick_4">
     <g id="line2d_10">
      <g>
       <use xlink:href="#mc1b56add02" x="50.95" y="150.283333" style="stroke: #000000; stroke-width: 0.8"/>
      </g>
     </g>
     <g id="text_11">
      <!-- 0.6 -->
      <g transform="translate(30.77 154.587396) scale(0.12 -0.12)">
       <use xlink:href="#Helvetica-30"/>
       <use xlink:href="#Helvetica-2e" x="55.615234"/>
       <use xlink:href="#Helvetica-36" x="83.398438"/>
      </g>
     </g>
    </g>
    <g id="ytick_5">
     <g id="line2d_11">
      <g>
       <use xlink:href="#mc1b56add02" x="50.95" y="103.61" style="stroke: #000000; stroke-width: 0.8"/>
      </g>
     </g>
     <g id="text_12">
      <!-- 0.8 -->
      <g transform="translate(30.77 107.914062) scale(0.12 -0.12)">
       <defs>
        <path id="Helvetica-38" d="M 1741 2600 
Q 2113 2600 2322 2808 
Q 2531 3016 2531 3303 
Q 2531 3553 2331 3762 
Q 2131 3972 1722 3972 
Q 1316 3972 1134 3762 
Q 953 3553 953 3272 
Q 953 2956 1187 2778 
Q 1422 2600 1741 2600 
z
M 1775 384 
Q 2166 384 2423 595 
Q 2681 806 2681 1225 
Q 2681 1659 2415 1884 
Q 2150 2109 1734 2109 
Q 1331 2109 1076 1879 
Q 822 1650 822 1244 
Q 822 894 1055 639 
Q 1288 384 1775 384 
z
M 975 2384 
Q 741 2484 609 2619 
Q 363 2869 363 3269 
Q 363 3769 725 4128 
Q 1088 4488 1753 4488 
Q 2397 4488 2762 4148 
Q 3128 3809 3128 3356 
Q 3128 2938 2916 2678 
Q 2797 2531 2547 2391 
Q 2825 2263 2984 2097 
Q 3281 1784 3281 1284 
Q 3281 694 2884 283 
Q 2488 -128 1763 -128 
Q 1109 -128 657 226 
Q 206 581 206 1256 
Q 206 1653 400 1942 
Q 594 2231 975 2384 
z
" transform="scale(0.015625)"/>
       </defs>
       <use xlink:href="#Helvetica-30"/>
       <use xlink:href="#Helvetica-2e" x="55.615234"/>
       <use xlink:href="#Helvetica-38" x="83.398438"/>
      </g>
     </g>
    </g>
    <g id="ytick_6">
     <g id="line2d_12">
      <g>
       <use xlink:href="#mc1b56add02" x="50.95" y="56.936667" style="stroke: #000000; stroke-width: 0.8"/>
      </g>
     </g>
     <g id="text_13">
      <!-- 1.0 -->
      <g transform="translate(30.77 61.240729) scale(0.12 -0.12)">
       <defs>
        <path id="Helvetica-31" d="M 613 3169 
L 613 3600 
Q 1222 3659 1462 3798 
Q 1703 3938 1822 4456 
L 2266 4456 
L 2266 0 
L 1666 0 
L 1666 3169 
L 613 3169 
z
" transform="scale(0.015625)"/>
       </defs>
       <use xlink:href="#Helvetica-31"/>
       <use xlink:href="#Helvetica-2e" x="55.615234"/>
       <use xlink:href="#Helvetica-30" x="83.398438"/>
      </g>
     </g>
    </g>
    <g id="text_14">
     <!-- Normalized Intensity -->
     <g transform="translate(24.1975 227.971563) rotate(-90) scale(0.12 -0.12)">
      <defs>
       <path id="Helvetica-4e" d="M 488 4591 
L 1222 4591 
L 3541 872 
L 3541 4591 
L 4131 4591 
L 4131 0 
L 3434 0 
L 1081 3716 
L 1081 0 
L 488 0 
L 488 4591 
z
M 2269 4591 
L 2269 4591 
z
" transform="scale(0.015625)"/>
       <path id="Helvetica-72" d="M 428 3347 
L 963 3347 
L 963 2769 
Q 1028 2938 1284 3180 
Q 1541 3422 1875 3422 
Q 1891 3422 1928 3419 
Q 1966 3416 2056 3406 
L 2056 2813 
Q 2006 2822 1964 2825 
Q 1922 2828 1872 2828 
Q 1447 2828 1219 2554 
Q 991 2281 991 1925 
L 991 0 
L 428 0 
L 428 3347 
z
" transform="scale(0.015625)"/>
       <path id="Helvetica-61" d="M 844 891 
Q 844 647 1022 506 
Q 1200 366 1444 366 
Q 1741 366 2019 503 
Q 2488 731 2488 1250 
L 2488 1703 
Q 2384 1638 2221 1594 
Q 2059 1550 1903 1531 
L 1563 1488 
Q 1256 1447 1103 1359 
Q 844 1213 844 891 
z
M 2206 2028 
Q 2400 2053 2466 2191 
Q 2503 2266 2503 2406 
Q 2503 2694 2298 2823 
Q 2094 2953 1713 2953 
Q 1272 2953 1088 2716 
Q 984 2584 953 2325 
L 428 2325 
Q 444 2944 830 3186 
Q 1216 3428 1725 3428 
Q 2316 3428 2684 3203 
Q 3050 2978 3050 2503 
L 3050 575 
Q 3050 488 3086 434 
Q 3122 381 3238 381 
Q 3275 381 3322 386 
Q 3369 391 3422 400 
L 3422 -16 
Q 3291 -53 3222 -62 
Q 3153 -72 3034 -72 
Q 2744 -72 2613 134 
Q 2544 244 2516 444 
Q 2344 219 2022 53 
Q 1700 -113 1313 -113 
Q 847 -113 551 170 
Q 256 453 256 878 
Q 256 1344 547 1600 
Q 838 1856 1309 1916 
L 2206 2028 
z
M 1741 3428 
L 1741 3428 
z
" transform="scale(0.015625)"/>
       <path id="Helvetica-6c" d="M 428 4591 
L 991 4591 
L 991 0 
L 428 0 
L 428 4591 
z
" transform="scale(0.015625)"/>
       <path id="Helvetica-7a" d="M 163 444 
L 2147 2844 
L 309 2844 
L 309 3347 
L 2903 3347 
L 2903 2888 
L 931 503 
L 2963 503 
L 2963 0 
L 163 0 
L 163 444 
z
M 1609 3428 
L 1609 3428 
z
" transform="scale(0.015625)"/>
       <path id="Helvetica-64" d="M 769 1634 
Q 769 1097 997 734 
Q 1225 372 1728 372 
Q 2119 372 2370 708 
Q 2622 1044 2622 1672 
Q 2622 2306 2362 2611 
Q 2103 2916 1722 2916 
Q 1297 2916 1033 2591 
Q 769 2266 769 1634 
z
M 1616 3406 
Q 2000 3406 2259 3244 
Q 2409 3150 2600 2916 
L 2600 4606 
L 3141 4606 
L 3141 0 
L 2634 0 
L 2634 466 
Q 2438 156 2169 18 
Q 1900 -119 1553 -119 
Q 994 -119 584 351 
Q 175 822 175 1603 
Q 175 2334 548 2870 
Q 922 3406 1616 3406 
z
" transform="scale(0.015625)"/>
       <path id="Helvetica-49" d="M 628 4591 
L 1256 4591 
L 1256 0 
L 628 0 
L 628 4591 
z
" transform="scale(0.015625)"/>
       <path id="Helvetica-73" d="M 747 1050 
Q 772 769 888 619 
Q 1100 347 1625 347 
Q 1938 347 2175 483 
Q 2413 619 2413 903 
Q 2413 1119 2222 1231 
Q 2100 1300 1741 1391 
L 1294 1503 
Q 866 1609 663 1741 
Q 300 1969 300 2372 
Q 300 2847 642 3140 
Q 984 3434 1563 3434 
Q 2319 3434 2653 2991 
Q 2863 2709 2856 2384 
L 2325 2384 
Q 2309 2575 2191 2731 
Q 1997 2953 1519 2953 
Q 1200 2953 1036 2831 
Q 872 2709 872 2509 
Q 872 2291 1088 2159 
Q 1213 2081 1456 2022 
L 1828 1931 
Q 2434 1784 2641 1647 
Q 2969 1431 2969 969 
Q 2969 522 2630 197 
Q 2291 -128 1597 -128 
Q 850 -128 539 211 
Q 228 550 206 1050 
L 747 1050 
z
M 1578 3428 
L 1578 3428 
z
" transform="scale(0.015625)"/>
       <path id="Helvetica-79" d="M 2503 3347 
L 3125 3347 
Q 3006 3025 2597 1878 
Q 2291 1016 2084 472 
Q 1597 -809 1397 -1090 
Q 1197 -1372 709 -1372 
Q 591 -1372 527 -1362 
Q 463 -1353 369 -1328 
L 369 -816 
Q 516 -856 581 -865 
Q 647 -875 697 -875 
Q 853 -875 926 -823 
Q 1000 -772 1050 -697 
Q 1066 -672 1162 -440 
Q 1259 -209 1303 -97 
L 66 3347 
L 703 3347 
L 1600 622 
L 2503 3347 
z
M 1597 3428 
L 1597 3428 
z
" transform="scale(0.015625)"/>
      </defs>
      <use xlink:href="#Helvetica-4e"/>
      <use xlink:href="#Helvetica-6f" x="72.216797"/>
      <use xlink:href="#Helvetica-72" x="127.832031"/>
      <use xlink:href="#Helvetica-6d" x="161.132812"/>
      <use xlink:href="#Helvetica-61" x="244.433594"/>
      <use xlink:href="#Helvetica-6c" x="300.048828"/>
      <use xlink:href="#Helvetica-69" x="322.265625"/>
      <use xlink:href="#Helvetica-7a" x="344.482422"/>
      <use xlink:href="#Helvetica-65" x="394.482422"/>
      <use xlink:href="#Helvetica-64" x="450.097656"/>
      <use xlink:href="#Helvetica-20" x="505.712891"/>
      <use xlink:href="#Helvetica-49" x="533.496094"/>
      <use xlink:href="#Helvetica-6e" x="561.279297"/>
      <use xlink:href="#Helvetica-74" x="616.894531"/>
      <use xlink:href="#Helvetica-65" x="644.677734"/>
      <use xlink:href="#Helvetica-6e" x="700.292969"/>
      <use xlink:href="#Helvetica-73" x="755.908203"/>
      <use xlink:href="#Helvetica-69" x="805.908203"/>
      <use xlink:href="#Helvetica-74" x="828.125"/>
      <use xlink:href="#Helvetica-79" x="855.908203"/>
     </g>
    </g>
   </g>
   <g id="line2d_13">
    <path d="M 50.672062 290.382905 
L 51.78215 290.365223 
L 52.336362 290.497842 
L 53.724388 290.356381 
L 54.556538 290.374064 
L 55.9429 290.365223 
L 57.052988 290.382905 
L 58.993562 290.285651 
L 59.549438 290.321016 
L 60.10365 290.418271 
L 61.490012 290.435953 
L 62.045888 290.427112 
L 62.6001 290.259127 
L 63.43225 290.267968 
L 64.2644 290.365223 
L 65.9287 290.206079 
L 66.76085 290.259127 
L 68.42515 290.418271 
L 69.2573 290.153031 
L 71.475812 290.462477 
L 72.5859 290.14419 
L 72.863838 290.073459 
L 74.528138 290.489001 
L 76.192438 290.153031 
L 76.74665 290.197237 
L 77.856738 290.524366 
L 79.2431 290.14419 
L 80.07525 290.267968 
L 80.9074 290.444794 
L 81.461612 290.453636 
L 83.125912 290.241444 
L 84.236 290.524366 
L 86.73245 290.232603 
L 87.842538 290.409429 
L 88.674688 290.276809 
L 91.171138 290.409429 
L 96.996188 290.329857 
L 97.5504 290.34754 
L 98.38255 290.197237 
L 100.324788 290.338699 
L 100.879 290.21492 
L 101.433212 290.356381 
L 103.653388 290.471318 
L 104.2076 290.241444 
L 104.761812 290.285651 
L 105.317688 290.444794 
L 108.090412 290.329857 
L 109.478438 290.603938 
L 111.142738 290.232603 
L 112.807038 290.497842 
L 113.36125 290.471318 
L 114.1934 290.179555 
L 114.747612 290.197237 
L 115.579762 290.338699 
L 116.967788 290.418271 
L 118.076212 290.170714 
L 119.1863 290.542049 
L 119.740512 290.435953 
L 120.296388 290.232603 
L 121.404812 290.14419 
L 122.5149 290.462477 
L 122.792838 290.542049 
L 123.624988 290.321016 
L 124.1792 290.206079 
L 125.289288 290.276809 
L 126.121438 290.435953 
L 127.5078 290.232603 
L 128.33995 290.232603 
L 129.1721 290.489001 
L 130.282188 290.312175 
L 131.114338 290.312175 
L 131.946488 290.250285 
L 132.5007 290.444794 
L 134.165 290.241444 
L 135.551362 290.241444 
L 136.107238 290.179555 
L 136.939388 290.259127 
L 137.771538 290.232603 
L 138.32575 290.303333 
L 139.1579 290.21492 
L 139.99005 290.161872 
L 141.65435 290.232603 
L 145.537162 290.170714 
L 146.093038 290.091142 
L 146.925188 290.223761 
L 148.865762 290.259127 
L 149.421638 290.046935 
L 149.97585 290.126507 
L 150.530062 290.329857 
L 151.64015 290.338699 
L 153.026512 290.055776 
L 154.690812 290.356381 
L 156.355112 290.046935 
L 158.575288 290.267968 
L 159.1295 290.108824 
L 159.96165 290.126507 
L 161.071738 290.365223 
L 163.844462 290.285651 
L 164.400338 290.471318 
L 165.7867 290.161872 
L 167.173062 290.250285 
L 167.728938 290.374064 
L 168.28315 290.250285 
L 169.1153 290.020411 
L 170.225388 290.073459 
L 170.7796 290.21492 
L 173.830262 290.117666 
L 174.386138 290.14419 
L 175.494562 290.002728 
L 176.050438 290.126507 
L 177.4368 289.985046 
L 180.487462 289.87895 
L 180.7654 289.728647 
L 181.59755 289.781695 
L 182.4297 289.755171 
L 185.480362 289.596028 
L 186.312512 289.764013 
L 186.868388 289.684441 
L 187.4226 289.445725 
L 187.976812 289.445725 
L 189.91905 289.631393 
L 191.305412 289.242375 
L 192.137562 289.392677 
L 193.801862 289.180486 
L 194.634012 289.003659 
L 196.298312 289.251216 
L 198.24055 288.80915 
L 199.0727 288.862198 
L 199.626912 288.94177 
L 201.56915 288.508545 
L 202.679238 288.667689 
L 203.511388 288.455497 
L 205.175688 288.128368 
L 206.007838 288.296353 
L 208.780562 287.615572 
L 209.612712 287.695144 
L 210.7228 287.288443 
L 211.832888 287.129299 
L 213.21925 286.837536 
L 214.605612 286.501565 
L 215.993638 286.139071 
L 216.54785 285.873832 
L 217.657938 285.520179 
L 219.0443 284.804032 
L 221.54075 283.513199 
L 225.423562 280.365689 
L 226.255712 279.207476 
L 227.643738 277.598355 
L 228.752162 275.89198 
L 230.6944 272.284721 
L 231.52655 270.560664 
L 233.468788 265.158617 
L 234.85515 260.746797 
L 236.241512 255.017621 
L 237.629538 249.005523 
L 238.737962 243.081838 
L 240.958138 229.581141 
L 242.066562 221.47365 
L 244.286738 204.056247 
L 245.6731 191.696081 
L 249.279638 157.550899 
L 252.3303 128.498318 
L 254.82675 106.748669 
L 256.49105 93.911071 
L 258.15535 82.762165 
L 259.541712 74.972961 
L 260.929738 68.60721 
L 261.761888 65.415493 
L 262.870312 62.082315 
L 263.9804 59.421078 
L 264.534612 58.483898 
L 265.366762 57.5644 
L 265.922638 57.201906 
L 266.47685 57.09581 
L 267.863212 57.113493 
L 268.419088 57.661655 
L 269.527512 59.120473 
L 271.191812 62.276825 
L 272.3019 65.512748 
L 273.9662 70.764493 
L 275.076288 75.017168 
L 277.849012 87.156302 
L 282.009762 108.419679 
L 283.952 118.764024 
L 290.887138 154.032053 
L 294.492012 170.512276 
L 298.376488 186.364764 
L 304.477812 208.282399 
L 308.638562 221.199569 
L 309.74865 224.240983 
L 311.967162 230.403384 
L 313.07725 232.896636 
L 314.463612 236.592309 
L 315.851638 239.695612 
L 316.683788 241.516924 
L 318.348088 245.327534 
L 319.73445 247.750056 
L 321.676688 251.649078 
L 322.785112 253.26704 
L 325.005288 257.068808 
L 326.113712 258.509943 
L 326.669588 259.234931 
L 328.05595 261.49831 
L 328.8881 262.355918 
L 329.998188 263.699799 
L 330.5524 264.407104 
L 331.38455 265.503428 
L 333.04885 267.086024 
L 334.71315 268.783558 
L 336.931662 270.622553 
L 337.763812 271.382906 
L 338.595962 271.966434 
L 339.428112 272.682581 
L 340.816138 273.575554 
L 342.2025 274.468527 
L 344.144738 275.644423 
L 344.69895 275.971552 
L 345.809038 276.687699 
L 347.1954 277.403846 
L 347.749612 277.43037 
L 348.305488 277.651403 
L 349.413912 278.394074 
L 350.246062 278.721203 
L 350.801938 278.774251 
L 351.910362 279.269365 
L 353.574662 280.082766 
L 354.406812 280.029718 
L 354.962688 280.303799 
L 355.794838 280.701659 
L 357.459138 281.037629 
L 358.01335 281.099518 
L 358.567562 281.391282 
L 359.399712 281.7803 
L 359.955588 281.939444 
L 360.787738 281.965968 
L 361.896162 282.195842 
L 363.00625 282.805893 
L 363.8384 282.735163 
L 364.392612 282.726321 
L 365.5027 283.141863 
L 366.33485 283.504358 
L 368.277088 283.583929 
L 368.553362 283.636977 
L 369.109238 283.928741 
L 369.66345 283.981789 
L 370.217662 283.981789 
L 371.605688 284.211663 
L 371.881962 284.211663 
L 372.99205 284.644888 
L 373.546262 284.556475 
L 375.4885 284.715618 
L 376.042712 284.901286 
L 381.31355 285.467131 
L 384.364212 285.86499 
L 385.4743 285.918038 
L 386.028512 285.847308 
L 387.1386 286.024134 
L 387.97075 286.174436 
L 388.524962 286.280532 
L 389.63505 286.068341 
L 391.577288 286.457359 
L 392.1315 286.439676 
L 392.96365 286.26285 
L 393.7958 286.501565 
L 394.905888 286.837536 
L 395.4601 286.704916 
L 396.014312 286.589979 
L 397.1244 286.740281 
L 398.234488 286.996679 
L 398.7887 286.837536 
L 399.62085 286.634185 
L 400.175062 286.784488 
L 401.007212 286.978997 
L 402.1173 286.987838 
L 403.227388 286.837536 
L 403.7816 287.005521 
L 404.335812 287.235395 
L 404.891688 287.208871 
L 405.723838 287.058569 
L 407.388138 287.235395 
L 407.94235 287.429904 
L 410.160862 287.253078 
L 411.548888 287.438745 
L 412.381038 287.412221 
L 413.489462 287.279602 
L 414.59955 287.527159 
L 415.4317 287.394539 
L 417.373938 287.474111 
L 417.92815 287.562524 
L 424.031138 287.659778 
L 424.58535 287.544841 
L 425.695438 287.650937 
L 427.0818 287.80124 
L 427.91395 287.66862 
L 430.132462 287.925018 
L 431.24255 287.624413 
L 432.0747 287.863129 
L 433.184788 287.907335 
L 433.739 287.978066 
L 434.57115 287.73935 
L 435.125362 287.845446 
L 435.957512 288.048796 
L 437.0676 288.00459 
L 437.89975 287.863129 
L 438.453962 287.898494 
L 439.56405 288.181416 
L 440.118262 288.190258 
L 440.950412 287.907335 
L 441.506288 287.969225 
L 442.614712 288.190258 
L 443.446862 288.216782 
L 444.55695 287.986907 
L 445.111162 288.093003 
L 445.943312 288.322877 
L 446.499188 288.26983 
L 447.331338 288.110686 
L 448.7177 288.057638 
L 449.54985 288.384767 
L 450.659938 288.110686 
L 452.324238 288.26983 
L 452.87845 288.375925 
L 454.264812 288.190258 
L 455.096962 288.26983 
L 455.929112 288.428973 
L 456.761262 288.375925 
L 458.149288 288.322877 
L 458.981438 288.375925 
L 459.53565 288.428973 
L 460.922012 288.358243 
L 461.477888 288.446656 
L 464.52855 288.402449 
L 465.3607 288.526228 
L 466.747062 288.393608 
L 467.302938 288.535069 
L 467.302938 288.535069 
" clip-path="url(#p358075ba01)" style="fill: none; stroke: #252525; stroke-width: 1.2; stroke-linecap: square"/>
   </g>
   <g id="line2d_14">
    <path d="M 50.672062 281.516101 
L 51.227938 281.617104 
L 52.060088 282.778634 
L 52.6143 283.031141 
L 52.892238 282.829136 
L 53.168512 282.374624 
L 53.724388 282.172618 
L 54.556538 282.122117 
L 54.832812 282.172618 
L 55.388688 282.930138 
L 55.664962 283.536155 
L 55.9429 283.687659 
L 56.497112 282.526128 
L 56.77505 282.273621 
L 57.052988 282.324122 
L 57.6072 282.728133 
L 58.717288 282.728133 
L 58.993562 282.930138 
L 59.825712 282.475626 
L 60.381588 281.920112 
L 60.657862 281.86961 
L 60.9358 281.970613 
L 61.490012 282.526128 
L 62.045888 283.081643 
L 62.878038 282.122117 
L 63.154312 282.021114 
L 64.818612 282.374624 
L 65.374488 282.728133 
L 65.9287 282.324122 
L 66.206638 281.970613 
L 66.482912 281.86961 
L 66.76085 281.920112 
L 67.038788 282.172618 
L 67.593 283.031141 
L 67.870938 283.182645 
L 68.147212 283.182645 
L 68.42515 282.98064 
L 68.979362 281.970613 
L 69.535238 281.86961 
L 70.08945 281.768608 
L 70.367388 281.86961 
L 70.9216 282.526128 
L 71.475812 283.485653 
L 71.75375 283.233147 
L 72.031688 282.677632 
L 72.5859 282.071616 
L 72.863838 282.021114 
L 73.140112 282.273621 
L 73.41805 282.324122 
L 73.695988 282.526128 
L 74.2502 282.425125 
L 74.528138 282.677632 
L 75.360288 282.728133 
L 75.9145 282.273621 
L 76.468712 281.718106 
L 76.74665 281.768608 
L 77.5788 283.081643 
L 77.856738 282.98064 
L 78.41095 281.768608 
L 78.688888 281.566602 
L 79.521038 282.021114 
L 80.353188 282.021114 
L 80.9074 282.778634 
L 81.185338 282.62713 
L 82.017488 281.566602 
L 82.293762 281.415098 
L 82.5717 281.516101 
L 83.125912 282.172618 
L 83.958062 282.576629 
L 84.236 282.172618 
L 84.513938 281.566602 
L 84.790212 281.364597 
L 85.346088 281.819109 
L 86.178238 281.768608 
L 87.010388 282.475626 
L 87.286662 282.324122 
L 87.842538 281.566602 
L 88.674688 281.364597 
L 89.506838 282.172618 
L 90.06105 282.425125 
L 90.338988 282.324122 
L 90.615262 281.970613 
L 90.8932 281.86961 
L 91.171138 282.021114 
L 91.447412 281.920112 
L 92.003288 281.516101 
L 92.5575 281.86961 
L 93.38965 282.728133 
L 93.943862 281.667605 
L 94.2218 281.516101 
L 94.499738 281.617104 
L 95.05395 282.021114 
L 95.331888 282.172618 
L 95.8861 282.071616 
L 96.164038 282.172618 
L 96.440312 282.425125 
L 96.71825 282.374624 
L 96.996188 282.122117 
L 97.5504 281.162592 
L 97.828338 281.011088 
L 98.104612 281.061589 
L 98.38255 281.263594 
L 99.2147 282.425125 
L 99.492638 282.576629 
L 100.324788 281.718106 
L 101.156938 281.667605 
L 101.71115 281.364597 
L 102.821238 282.122117 
L 103.37545 281.4656 
L 103.653388 281.061589 
L 103.929662 281.011088 
L 104.761812 281.718106 
L 105.03975 281.768608 
L 105.317688 281.617104 
L 105.8719 281.86961 
L 106.426112 281.566602 
L 106.981988 281.617104 
L 107.814138 281.162592 
L 108.36835 281.364597 
L 108.922562 282.324122 
L 109.2005 282.071616 
L 109.754712 281.061589 
L 110.03265 280.859584 
L 110.310588 281.011088 
L 110.8648 281.566602 
L 111.142738 281.718106 
L 111.69695 281.768608 
L 112.251162 281.970613 
L 113.639188 281.263594 
L 114.1934 281.768608 
L 114.747612 282.475626 
L 115.303488 282.22312 
L 115.579762 281.566602 
L 116.135638 281.11209 
L 116.411912 281.213093 
L 116.68985 281.566602 
L 117.522 281.516101 
L 118.076212 281.920112 
L 118.35415 282.22312 
L 118.632088 282.122117 
L 118.908362 281.86961 
L 119.1863 281.314096 
L 119.740512 280.859584 
L 120.296388 281.263594 
L 120.572662 281.516101 
L 121.404812 281.415098 
L 121.68275 281.263594 
L 121.960688 280.657578 
L 122.236962 280.70808 
L 122.792838 280.455573 
L 123.901262 280.455573 
L 124.733412 281.768608 
L 125.565562 280.455573 
L 125.8435 280.304069 
L 126.121438 280.405072 
L 126.67565 281.061589 
L 128.33995 281.011088 
L 129.450038 280.203066 
L 130.00425 280.607077 
L 130.558462 281.213093 
L 130.8364 281.364597 
L 131.66855 279.95056 
L 131.946488 279.900058 
L 132.778638 280.455573 
L 133.610788 280.809082 
L 134.165 281.11209 
L 134.442938 281.061589 
L 135.275088 280.102064 
L 135.551362 279.900058 
L 135.8293 279.95056 
L 136.66145 280.758581 
L 136.939388 280.910085 
L 137.215662 280.910085 
L 138.047812 280.405072 
L 138.603688 280.304069 
L 139.1579 280.001061 
L 139.435838 280.051562 
L 140.267988 280.910085 
L 140.544262 280.859584 
L 141.100138 279.748554 
L 141.376412 279.445546 
L 141.932288 279.546549 
L 142.4865 279.849557 
L 143.31865 279.95056 
L 143.596588 280.051562 
L 144.1508 279.647552 
L 144.428738 279.698053 
L 144.98295 279.496048 
L 145.537162 279.748554 
L 146.369312 280.859584 
L 146.64725 281.011088 
L 147.4794 279.344544 
L 148.033612 279.19304 
L 149.421638 280.001061 
L 149.697912 280.253568 
L 149.97585 280.253568 
L 151.085938 279.092037 
L 151.362212 279.041536 
L 151.64015 279.243541 
L 152.194362 280.051562 
L 153.026512 279.900058 
L 153.30445 279.395045 
L 153.582388 279.142538 
L 153.858662 279.344544 
L 154.1366 279.344544 
L 154.690812 279.142538 
L 154.96875 279.092037 
L 155.522962 279.294042 
L 155.8009 279.698053 
L 156.078838 279.647552 
L 156.355112 279.294042 
L 156.63305 278.688026 
L 156.910988 278.385018 
L 157.743138 278.587024 
L 158.29735 279.294042 
L 159.1295 279.748554 
L 159.407438 279.647552 
L 159.96165 278.991034 
L 160.239588 278.83953 
L 161.071738 278.738528 
L 161.348012 278.637525 
L 161.62595 278.991034 
L 161.903888 279.59705 
L 162.180162 279.647552 
L 162.4581 279.496048 
L 162.736038 278.738528 
L 163.012312 278.334517 
L 163.568188 278.08201 
L 164.400338 278.284016 
L 164.95455 278.132512 
L 165.508762 278.536522 
L 165.7867 278.43552 
L 166.340912 277.930506 
L 166.896788 277.526496 
L 167.173062 277.526496 
L 167.451 277.678 
L 168.005212 278.334517 
L 168.561088 278.334517 
L 169.393238 277.425493 
L 169.669512 277.475994 
L 170.225388 277.223488 
L 171.889688 278.385018 
L 172.165962 277.880005 
L 172.4439 277.122485 
L 172.721838 276.718474 
L 172.998112 276.56697 
L 173.27605 276.718474 
L 173.553988 277.172986 
L 173.830262 277.374992 
L 174.94035 277.627498 
L 175.494562 276.819477 
L 176.60465 276.213461 
L 176.882588 276.314464 
L 177.714738 277.223488 
L 177.991012 277.122485 
L 178.26895 276.768976 
L 178.823162 275.859952 
L 179.1011 275.708448 
L 179.655312 275.910453 
L 179.93325 276.011456 
L 180.211188 275.80945 
L 181.043338 275.859952 
L 181.875488 275.102432 
L 182.151762 274.64792 
L 182.4297 274.496416 
L 182.983912 274.698421 
L 183.539788 275.253936 
L 183.816062 275.607445 
L 184.094 275.556944 
L 184.371938 275.354938 
L 184.92615 274.445914 
L 186.59045 273.435888 
L 187.144662 273.839898 
L 187.4226 274.193408 
L 187.700538 273.991402 
L 188.25475 272.981376 
L 188.532688 272.77937 
L 188.808962 272.77937 
L 189.364838 272.981376 
L 190.196988 272.627866 
L 190.473262 272.425861 
L 191.029138 271.61784 
L 192.4155 270.708816 
L 192.969712 271.112826 
L 193.525588 271.668341 
L 193.801862 271.365333 
L 194.357738 270.304805 
L 194.634012 270.001797 
L 194.91195 269.900794 
L 195.7441 270.254304 
L 196.298312 269.799792 
L 196.854188 269.74929 
L 198.24055 267.678735 
L 198.518488 267.678735 
L 199.0727 268.032245 
L 199.350638 268.284751 
L 199.626912 268.335253 
L 199.90485 268.183749 
L 200.459062 267.274725 
L 200.737 267.173722 
L 201.291212 267.325226 
L 202.679238 267.426229 
L 202.955512 267.628234 
L 203.511388 266.820213 
L 203.787662 266.214197 
L 204.343538 265.911189 
L 204.619812 265.860687 
L 205.7299 266.71921 
L 206.284112 266.466703 
L 206.56205 266.062693 
L 207.116262 265.96169 
L 208.22635 265.557679 
L 208.780562 265.96169 
L 209.0585 266.365701 
L 209.336438 266.416202 
L 209.89065 265.355674 
L 210.168588 265.103167 
L 210.444862 265.103167 
L 211.277012 265.557679 
L 211.832888 265.305173 
L 212.109162 265.456677 
L 212.3871 265.810186 
L 212.665038 265.810186 
L 213.21925 265.254671 
L 214.0514 264.699157 
L 214.329338 264.800159 
L 215.161488 265.96169 
L 215.437762 265.911189 
L 215.7157 265.507178 
L 215.993638 264.901162 
L 216.54785 264.497151 
L 216.825788 264.497151 
L 218.766362 265.608181 
L 219.0443 265.456677 
L 219.322238 265.103167 
L 219.87645 263.941637 
L 220.154388 263.638629 
L 220.7086 264.143642 
L 221.262812 264.547653 
L 221.818688 264.598154 
L 222.3729 263.790133 
L 222.650838 263.537626 
L 222.927112 263.638629 
L 223.482988 263.234618 
L 223.759262 263.133615 
L 224.591412 263.386122 
L 224.86935 263.487125 
L 225.147288 263.234618 
L 226.255712 261.063061 
L 227.3658 261.164063 
L 227.920012 260.760053 
L 228.19795 260.457045 
L 228.475888 259.800527 
L 228.752162 259.447018 
L 229.584312 257.982479 
L 229.86225 257.62897 
L 230.140188 257.62897 
L 230.6944 258.133983 
L 230.972338 258.032981 
L 231.248612 257.729973 
L 232.080762 254.952399 
L 232.912912 254.245381 
L 234.023 252.528335 
L 234.300938 252.275828 
L 235.133088 249.801263 
L 235.965238 247.02369 
L 236.797388 245.50865 
L 237.3516 243.741103 
L 238.461688 239.599994 
L 239.293838 236.670916 
L 240.125988 233.287327 
L 240.402262 232.731812 
L 240.6802 231.570281 
L 241.790288 224.752601 
L 243.454588 216.167374 
L 244.563012 208.743678 
L 246.227312 197.734387 
L 246.783188 194.350798 
L 249.555912 171.928205 
L 250.388062 165.464034 
L 251.49815 155.616274 
L 253.16245 143.091943 
L 253.9946 135.41574 
L 256.49105 117.336263 
L 257.3232 110.41758 
L 259.265438 98.095254 
L 261.206012 85.924433 
L 262.594038 80.268283 
L 263.14825 76.682688 
L 263.702462 74.208123 
L 265.366762 68.551974 
L 265.6447 67.895456 
L 267.031062 62.895824 
L 267.586938 61.835296 
L 268.14115 61.330283 
L 268.695362 60.673765 
L 269.527512 58.1992 
L 270.915538 57.542683 
L 271.46975 57.845691 
L 271.747688 57.997195 
L 272.023962 57.845691 
L 272.579838 57.138672 
L 272.856112 56.936667 
L 273.13405 56.987168 
L 273.411988 57.290176 
L 274.79835 60.067749 
L 275.908438 61.431285 
L 277.016862 63.50184 
L 277.849012 66.582422 
L 278.12695 67.693451 
L 278.404888 68.097462 
L 278.681162 68.248966 
L 278.9591 68.753979 
L 279.79125 71.683056 
L 282.009762 79.914774 
L 282.565638 81.631819 
L 283.397788 85.217414 
L 284.229938 89.409025 
L 285.338362 92.388603 
L 286.170512 96.075201 
L 287.002662 99.913302 
L 287.834812 103.902908 
L 288.9449 107.3875 
L 290.6092 114.710193 
L 291.163412 116.174732 
L 291.995562 119.356316 
L 292.551438 121.275367 
L 293.10565 124.002439 
L 293.659862 126.881015 
L 294.215738 127.992044 
L 294.76995 129.35558 
L 297.2664 137.789303 
L 298.376488 140.263869 
L 298.9307 142.283922 
L 300.040788 146.677538 
L 300.872938 147.940071 
L 302.813512 153.848728 
L 303.369388 155.81828 
L 304.201538 156.727304 
L 305.033688 158.797858 
L 305.865838 161.676434 
L 306.42005 162.585458 
L 306.697988 162.837965 
L 306.974262 163.241976 
L 308.08435 166.171053 
L 308.362288 166.827571 
L 309.194438 169.504141 
L 309.470712 170.261661 
L 310.026588 170.564669 
L 310.302862 170.716173 
L 310.5808 171.120184 
L 313.07725 177.180344 
L 314.463612 179.604408 
L 315.851638 183.392008 
L 316.127912 183.291006 
L 316.40585 183.341507 
L 316.683788 183.796019 
L 318.07015 187.078606 
L 319.180238 189.654174 
L 319.73445 190.058184 
L 320.012388 190.26019 
L 320.5666 191.01771 
L 321.676688 194.148792 
L 321.952962 194.704307 
L 322.2309 194.653806 
L 322.508838 194.754808 
L 323.06305 195.613331 
L 323.340988 196.168846 
L 323.8952 196.673859 
L 324.72735 198.441406 
L 325.005288 199.400931 
L 325.281562 199.804942 
L 326.113712 199.905945 
L 326.39165 200.309955 
L 327.501738 203.037027 
L 328.333888 204.299561 
L 328.610162 204.148057 
L 328.8881 204.350062 
L 330.5524 206.521619 
L 331.38455 208.289166 
L 331.662488 208.188163 
L 331.938762 207.885155 
L 332.2167 208.036659 
L 332.494638 208.44067 
L 333.326788 210.208217 
L 333.881 211.218244 
L 334.158938 211.420249 
L 334.435212 211.925262 
L 334.991088 212.430276 
L 335.267362 212.480777 
L 335.5453 212.682782 
L 335.823238 212.682782 
L 336.099512 212.884788 
L 336.37745 213.288798 
L 337.2096 215.25835 
L 337.763812 215.561358 
L 338.04175 215.157348 
L 338.595962 215.510857 
L 339.428112 216.722889 
L 339.983988 217.328905 
L 340.260262 217.783417 
L 340.816138 218.944948 
L 341.924562 218.944948 
L 342.480438 219.702468 
L 343.03465 220.813497 
L 343.588862 221.268009 
L 343.8668 221.369012 
L 344.144738 221.167006 
L 344.421012 221.167006 
L 344.976888 221.773022 
L 345.253162 221.722521 
L 345.809038 222.126532 
L 346.085312 222.631545 
L 346.641188 223.94458 
L 346.917462 224.298089 
L 347.749612 223.540569 
L 348.02755 223.641572 
L 348.305488 223.894078 
L 349.137638 225.106111 
L 349.413912 225.055609 
L 350.524 226.116137 
L 351.634088 226.065636 
L 352.1883 226.97466 
L 352.742512 228.439199 
L 353.02045 228.691705 
L 353.298388 228.792708 
L 353.8526 228.338196 
L 354.130538 228.388697 
L 354.406812 228.590703 
L 354.68475 228.944212 
L 354.962688 229.499727 
L 355.5169 229.499727 
L 356.626988 230.661257 
L 357.1812 230.156244 
L 357.459138 230.055241 
L 357.735412 230.257247 
L 358.01335 230.661257 
L 358.291288 231.368276 
L 358.8455 232.125796 
L 359.399712 232.024793 
L 359.67765 231.974292 
L 359.955588 232.075295 
L 360.787738 232.883316 
L 361.34195 232.984319 
L 361.619888 232.933817 
L 361.896162 233.186324 
L 362.452038 234.044847 
L 362.728312 234.347855 
L 363.284188 233.590335 
L 363.560462 233.489332 
L 363.8384 233.640836 
L 365.224762 235.256879 
L 365.780638 235.812393 
L 366.33485 235.559887 
L 367.444938 235.862895 
L 367.99915 236.367908 
L 368.553362 237.377935 
L 368.8313 237.57994 
L 369.109238 237.428436 
L 369.385512 237.125428 
L 369.66345 237.024425 
L 369.941388 237.276932 
L 370.4956 238.084953 
L 370.773538 238.286959 
L 371.049812 238.33746 
L 371.32775 238.539465 
L 372.1599 239.549492 
L 372.437838 239.498991 
L 372.99205 238.892975 
L 373.546262 238.993977 
L 373.8242 239.397988 
L 374.378412 240.458516 
L 375.210562 240.812026 
L 375.4885 240.559519 
L 375.766438 240.458516 
L 376.042712 240.812026 
L 376.874862 241.064532 
L 377.430738 241.317039 
L 377.707012 241.569546 
L 378.262888 242.781578 
L 378.539162 242.680575 
L 379.095038 242.175562 
L 379.371312 242.024058 
L 379.64925 242.226063 
L 380.4814 243.589599 
L 380.759338 244.094612 
L 381.591488 244.347119 
L 382.699912 243.791604 
L 383.255788 243.99361 
L 384.087938 245.357146 
L 384.364212 245.91266 
L 384.64215 245.710655 
L 384.920088 245.054138 
L 385.752238 244.801631 
L 386.860662 245.862159 
L 387.1386 245.963162 
L 387.416538 246.215668 
L 387.692812 246.67018 
L 388.248688 246.316671 
L 388.524962 245.862159 
L 388.8029 245.862159 
L 389.080838 245.710655 
L 389.357112 245.811658 
L 390.189262 247.326698 
L 390.4672 248.084218 
L 390.745138 248.488228 
L 391.021412 248.336724 
L 391.29935 247.983215 
L 391.577288 247.882212 
L 392.1315 248.437727 
L 392.685712 248.336724 
L 393.241588 248.589231 
L 393.517862 248.993242 
L 393.7958 249.70026 
L 394.073738 249.801263 
L 394.905888 249.043743 
L 395.4601 249.599258 
L 396.014312 250.306276 
L 396.570188 250.508282 
L 396.846462 250.760788 
L 397.1244 250.81129 
L 397.678612 250.356778 
L 397.95655 250.255775 
L 399.066638 250.45778 
L 399.342912 250.710287 
L 400.175062 252.023322 
L 400.453 251.821316 
L 401.007212 251.2153 
L 401.28515 251.265802 
L 402.1173 252.073823 
L 402.395238 252.073823 
L 402.94945 252.376831 
L 403.227388 252.831343 
L 403.503662 252.982847 
L 404.059538 252.982847 
L 404.335812 252.73034 
L 404.61375 252.629338 
L 404.891688 252.73034 
L 406.000112 254.245381 
L 406.27805 254.497887 
L 406.555988 254.396885 
L 406.832262 253.891871 
L 407.1102 253.639364 
L 408.220288 254.396885 
L 408.7745 254.346383 
L 409.052438 254.447386 
L 409.60665 255.507914 
L 409.884588 255.457413 
L 410.160862 255.255407 
L 410.716738 254.548389 
L 410.993012 254.548389 
L 411.27095 254.699893 
L 411.548888 255.103903 
L 412.657312 255.911925 
L 413.489462 255.507914 
L 413.7674 255.608917 
L 414.321612 255.962426 
L 414.59955 255.962426 
L 414.877488 256.164431 
L 415.709638 257.426965 
L 415.985912 257.426965 
L 416.541788 256.669445 
L 416.818062 256.467439 
L 417.096 256.568442 
L 417.650212 257.174458 
L 418.482362 257.578469 
L 418.7603 257.881477 
L 419.038238 257.982479 
L 419.870388 257.578469 
L 420.702538 257.527967 
L 422.0889 259.14401 
L 422.643112 258.285487 
L 422.92105 258.133983 
L 423.475262 258.689498 
L 423.7532 259.043007 
L 424.307412 259.093509 
L 424.58535 259.194511 
L 424.863288 259.497519 
L 425.139562 260.053034 
L 425.4175 260.255039 
L 425.971712 259.851029 
L 426.24965 259.497519 
L 426.527588 259.346015 
L 426.803862 259.346015 
L 427.636012 260.356042 
L 428.468162 260.558047 
L 428.7461 260.103535 
L 429.024038 259.90153 
L 429.57825 260.356042 
L 430.4104 260.457045 
L 430.688338 260.608549 
L 431.520488 261.669077 
L 432.0747 260.760053 
L 432.628912 260.760053 
L 432.90685 260.962058 
L 433.461062 261.972085 
L 434.293212 262.376095 
L 434.57115 262.578101 
L 435.125362 262.275093 
L 435.4033 262.022586 
L 435.681238 261.921583 
L 436.23545 261.517573 
L 436.513388 261.618575 
L 437.621812 262.830607 
L 437.89975 262.881109 
L 438.177688 262.376095 
L 438.7319 262.073087 
L 439.286112 262.679103 
L 439.841988 262.881109 
L 440.3962 263.184117 
L 440.950412 263.941637 
L 441.506288 263.68913 
L 442.0605 263.184117 
L 442.338438 263.083114 
L 442.614712 263.184117 
L 443.170588 263.840634 
L 444.002738 264.042639 
L 444.55695 263.487125 
L 445.3891 263.68913 
L 445.667038 263.638629 
L 445.943312 263.436623 
L 446.22125 263.386122 
L 446.499188 263.588127 
L 447.0534 264.396149 
L 447.331338 264.295146 
L 447.88555 263.487125 
L 448.163488 263.436623 
L 448.7177 263.941637 
L 449.271912 264.648655 
L 450.104062 265.002165 
L 450.936212 264.749658 
L 451.492088 265.002165 
L 452.0463 264.800159 
L 453.156388 266.163695 
L 453.432662 266.062693 
L 453.7106 265.557679 
L 453.988538 265.355674 
L 454.54275 265.305173 
L 455.652838 265.608181 
L 455.929112 265.608181 
L 456.20705 265.759685 
L 456.484988 266.163695 
L 456.761262 266.163695 
L 457.317138 265.810186 
L 457.87135 265.709183 
L 458.149288 265.658682 
L 458.425562 265.759685 
L 458.981438 266.668709 
L 459.53565 267.173722 
L 459.813588 266.971717 
L 460.089862 266.517205 
L 460.3678 266.416202 
L 460.922012 266.567706 
L 461.477888 266.214197 
L 461.754162 266.163695 
L 462.0321 266.365701 
L 462.86425 267.678735 
L 463.142188 267.47673 
L 463.6964 266.820213 
L 463.974338 266.769711 
L 464.52855 267.072719 
L 465.638638 267.779738 
L 465.914912 267.830239 
L 466.19285 267.47673 
L 466.470788 267.375727 
L 467.025 267.981743 
L 467.302938 267.678735 
L 467.302938 267.678735 
" clip-path="url(#p358075ba01)" style="fill: none; stroke: #045a8d; stroke-width: 1.2; stroke-linecap: square"/>
   </g>
   <g id="patch_3">
    <path d="M 50.95 313.64 
L 50.95 33.6 
" style="fill: none; stroke: #000000; stroke-width: 0.5; stroke-linejoin: miter; stroke-linecap: square"/>
   </g>
   <g id="patch_4">
    <path d="M 50.95 313.64 
L 467.025 313.64 
" style="fill: none; stroke: #000000; stroke-width: 0.5; stroke-linejoin: miter; stroke-linecap: square"/>
   </g>
   <g id="legend_1">
    <g id="text_15">
     <!-- Experiment Conditions -->
     <g transform="translate(359.225 48.16875) scale(0.1 -0.1)">
      <defs>
       <path id="Helvetica-45" d="M 547 4591 
L 3894 4591 
L 3894 4028 
L 1153 4028 
L 1153 2634 
L 3688 2634 
L 3688 2103 
L 1153 2103 
L 1153 547 
L 3941 547 
L 3941 0 
L 547 0 
L 547 4591 
z
M 2244 4591 
L 2244 4591 
z
" transform="scale(0.015625)"/>
       <path id="Helvetica-78" d="M 94 3347 
L 822 3347 
L 1591 2169 
L 2369 3347 
L 3053 3331 
L 1925 1716 
L 3103 0 
L 2384 0 
L 1553 1256 
L 747 0 
L 34 0 
L 1213 1716 
L 94 3347 
z
" transform="scale(0.015625)"/>
       <path id="Helvetica-70" d="M 1825 378 
Q 2219 378 2480 708 
Q 2741 1038 2741 1694 
Q 2741 2094 2625 2381 
Q 2406 2934 1825 2934 
Q 1241 2934 1025 2350 
Q 909 2038 909 1556 
Q 909 1169 1025 897 
Q 1244 378 1825 378 
z
M 369 3331 
L 916 3331 
L 916 2888 
Q 1084 3116 1284 3241 
Q 1569 3428 1953 3428 
Q 2522 3428 2919 2992 
Q 3316 2556 3316 1747 
Q 3316 653 2744 184 
Q 2381 -113 1900 -113 
Q 1522 -113 1266 53 
Q 1116 147 931 375 
L 931 -1334 
L 369 -1334 
L 369 3331 
z
" transform="scale(0.015625)"/>
       <path id="Helvetica-43" d="M 2422 4716 
Q 3294 4716 3775 4256 
Q 4256 3797 4309 3213 
L 3703 3213 
Q 3600 3656 3292 3915 
Q 2984 4175 2428 4175 
Q 1750 4175 1333 3698 
Q 916 3222 916 2238 
Q 916 1431 1292 929 
Q 1669 428 2416 428 
Q 3103 428 3463 956 
Q 3653 1234 3747 1688 
L 4353 1688 
Q 4272 963 3816 472 
Q 3269 -119 2341 -119 
Q 1541 -119 997 366 
Q 281 1006 281 2344 
Q 281 3359 819 4009 
Q 1400 4716 2422 4716 
z
M 2297 4716 
L 2297 4716 
z
" transform="scale(0.015625)"/>
      </defs>
      <use xlink:href="#Helvetica-45"/>
      <use xlink:href="#Helvetica-78" x="66.699219"/>
      <use xlink:href="#Helvetica-70" x="116.699219"/>
      <use xlink:href="#Helvetica-65" x="172.314453"/>
      <use xlink:href="#Helvetica-72" x="227.929688"/>
      <use xlink:href="#Helvetica-69" x="261.230469"/>
      <use xlink:href="#Helvetica-6d" x="283.447266"/>
      <use xlink:href="#Helvetica-65" x="366.748047"/>
      <use xlink:href="#Helvetica-6e" x="422.363281"/>
      <use xlink:href="#Helvetica-74" x="477.978516"/>
      <use xlink:href="#Helvetica-20" x="505.761719"/>
      <use xlink:href="#Helvetica-43" x="533.544922"/>
      <use xlink:href="#Helvetica-6f" x="605.761719"/>
      <use xlink:href="#Helvetica-6e" x="661.376953"/>
      <use xlink:href="#Helvetica-64" x="716.992188"/>
      <use xlink:href="#Helvetica-69" x="772.607422"/>
      <use xlink:href="#Helvetica-74" x="794.824219"/>
      <use xlink:href="#Helvetica-69" x="822.607422"/>
      <use xlink:href="#Helvetica-6f" x="844.824219"/>
      <use xlink:href="#Helvetica-6e" x="900.439453"/>
      <use xlink:href="#Helvetica-73" x="956.054688"/>
     </g>
    </g>
    <g id="line2d_15">
     <path d="M 359.4225 57.191875 
L 367.4225 57.191875 
L 375.4225 57.191875 
" style="fill: none; stroke: #252525; stroke-width: 1.2; stroke-linecap: square"/>
    </g>
    <g id="text_16">
     <!-- PS-110K -->
     <g transform="translate(381.8225 59.991875) scale(0.08 -0.08)">
      <defs>
       <path id="Helvetica-50" d="M 547 4591 
L 2613 4591 
Q 3225 4591 3600 4245 
Q 3975 3900 3975 3275 
Q 3975 2738 3640 2339 
Q 3306 1941 2613 1941 
L 1169 1941 
L 1169 0 
L 547 0 
L 547 4591 
z
M 3347 3272 
Q 3347 3778 2972 3959 
Q 2766 4056 2406 4056 
L 1169 4056 
L 1169 2466 
L 2406 2466 
Q 2825 2466 3086 2644 
Q 3347 2822 3347 3272 
z
" transform="scale(0.015625)"/>
       <path id="Helvetica-53" d="M 894 1481 
Q 916 1091 1078 847 
Q 1388 391 2169 391 
Q 2519 391 2806 491 
Q 3363 684 3363 1184 
Q 3363 1559 3128 1719 
Q 2891 1875 2384 1991 
L 1763 2131 
Q 1153 2269 900 2434 
Q 463 2722 463 3294 
Q 463 3913 891 4309 
Q 1319 4706 2103 4706 
Q 2825 4706 3329 4357 
Q 3834 4009 3834 3244 
L 3250 3244 
Q 3203 3613 3050 3809 
Q 2766 4169 2084 4169 
Q 1534 4169 1293 3937 
Q 1053 3706 1053 3400 
Q 1053 3063 1334 2906 
Q 1519 2806 2169 2656 
L 2813 2509 
Q 3278 2403 3531 2219 
Q 3969 1897 3969 1284 
Q 3969 522 3414 194 
Q 2859 -134 2125 -134 
Q 1269 -134 784 303 
Q 300 738 309 1481 
L 894 1481 
z
M 2150 4716 
L 2150 4716 
z
" transform="scale(0.015625)"/>
       <path id="Helvetica-2d" d="M 266 2072 
L 1834 2072 
L 1834 1494 
L 266 1494 
L 266 2072 
z
" transform="scale(0.015625)"/>
       <path id="Helvetica-4b" d="M 488 4591 
L 1094 4591 
L 1094 2353 
L 3331 4591 
L 4191 4591 
L 2281 2741 
L 4244 0 
L 3434 0 
L 1828 2303 
L 1094 1600 
L 1094 0 
L 488 0 
L 488 4591 
z
" transform="scale(0.015625)"/>
      </defs>
      <use xlink:href="#Helvetica-50"/>
      <use xlink:href="#Helvetica-53" x="66.699219"/>
      <use xlink:href="#Helvetica-2d" x="133.398438"/>
      <use xlink:href="#Helvetica-31" x="166.699219"/>
      <use xlink:href="#Helvetica-31" x="222.314453"/>
      <use xlink:href="#Helvetica-30" x="277.929688"/>
      <use xlink:href="#Helvetica-4b" x="333.544922"/>
     </g>
    </g>
    <g id="line2d_16">
     <path d="M 359.4225 68.598125 
L 367.4225 68.598125 
L 375.4225 68.598125 
" style="fill: none; stroke: #045a8d; stroke-width: 1.2; stroke-linecap: square"/>
    </g>
    <g id="text_17">
     <!-- PS-110K-SCF3-crude -->
     <g transform="translate(381.8225 71.398125) scale(0.08 -0.08)">
      <defs>
       <path id="Helvetica-46" d="M 547 4591 
L 3731 4591 
L 3731 4028 
L 1169 4028 
L 1169 2634 
L 3422 2634 
L 3422 2088 
L 1169 2088 
L 1169 0 
L 547 0 
L 547 4591 
z
" transform="scale(0.015625)"/>
       <path id="Helvetica-33" d="M 1663 -122 
Q 869 -122 511 314 
Q 153 750 153 1375 
L 741 1375 
Q 778 941 903 744 
Q 1122 391 1694 391 
Q 2138 391 2406 628 
Q 2675 866 2675 1241 
Q 2675 1703 2392 1887 
Q 2109 2072 1606 2072 
Q 1550 2072 1492 2070 
Q 1434 2069 1375 2066 
L 1375 2563 
Q 1463 2553 1522 2550 
Q 1581 2547 1650 2547 
Q 1966 2547 2169 2647 
Q 2525 2822 2525 3272 
Q 2525 3606 2287 3787 
Q 2050 3969 1734 3969 
Q 1172 3969 956 3594 
Q 838 3388 822 3006 
L 266 3006 
Q 266 3506 466 3856 
Q 809 4481 1675 4481 
Q 2359 4481 2734 4176 
Q 3109 3872 3109 3294 
Q 3109 2881 2888 2625 
Q 2750 2466 2531 2375 
Q 2884 2278 3082 2001 
Q 3281 1725 3281 1325 
Q 3281 684 2859 281 
Q 2438 -122 1663 -122 
z
" transform="scale(0.015625)"/>
       <path id="Helvetica-63" d="M 1703 3444 
Q 2269 3444 2623 3169 
Q 2978 2894 3050 2222 
L 2503 2222 
Q 2453 2531 2275 2736 
Q 2097 2941 1703 2941 
Q 1166 2941 934 2416 
Q 784 2075 784 1575 
Q 784 1072 996 728 
Q 1209 384 1666 384 
Q 2016 384 2220 598 
Q 2425 813 2503 1184 
L 3050 1184 
Q 2956 519 2581 211 
Q 2206 -97 1622 -97 
Q 966 -97 575 383 
Q 184 863 184 1581 
Q 184 2463 612 2953 
Q 1041 3444 1703 3444 
z
M 1616 3428 
L 1616 3428 
z
" transform="scale(0.015625)"/>
       <path id="Helvetica-75" d="M 975 3347 
L 975 1125 
Q 975 869 1056 706 
Q 1206 406 1616 406 
Q 2203 406 2416 931 
Q 2531 1213 2531 1703 
L 2531 3347 
L 3094 3347 
L 3094 0 
L 2563 0 
L 2569 494 
Q 2459 303 2297 172 
Q 1975 -91 1516 -91 
Q 800 -91 541 388 
Q 400 644 400 1072 
L 400 3347 
L 975 3347 
z
M 1747 3428 
L 1747 3428 
z
" transform="scale(0.015625)"/>
      </defs>
      <use xlink:href="#Helvetica-50"/>
      <use xlink:href="#Helvetica-53" x="66.699219"/>
      <use xlink:href="#Helvetica-2d" x="133.398438"/>
      <use xlink:href="#Helvetica-31" x="166.699219"/>
      <use xlink:href="#Helvetica-31" x="222.314453"/>
      <use xlink:href="#Helvetica-30" x="277.929688"/>
      <use xlink:href="#Helvetica-4b" x="333.544922"/>
      <use xlink:href="#Helvetica-2d" x="400.244141"/>
      <use xlink:href="#Helvetica-53" x="433.544922"/>
      <use xlink:href="#Helvetica-43" x="500.244141"/>
      <use xlink:href="#Helvetica-46" x="572.460938"/>
      <use xlink:href="#Helvetica-33" x="633.544922"/>
      <use xlink:href="#Helvetica-2d" x="689.160156"/>
      <use xlink:href="#Helvetica-63" x="722.460938"/>
      <use xlink:href="#Helvetica-72" x="772.460938"/>
      <use xlink:href="#Helvetica-75" x="805.761719"/>
      <use xlink:href="#Helvetica-64" x="861.376953"/>
      <use xlink:href="#Helvetica-65" x="916.992188"/>
     </g>
    </g>
   </g>
   <g id="legend_2">
    <g id="text_18">
     <!-- GPC Data -->
     <g transform="translate(363.251094 164.758281) scale(0.1 -0.1)">
      <defs>
       <path id="Helvetica-47" d="M 2472 4709 
Q 3119 4709 3591 4459 
Q 4275 4100 4428 3200 
L 3813 3200 
Q 3700 3703 3347 3933 
Q 2994 4163 2456 4163 
Q 1819 4163 1383 3684 
Q 947 3206 947 2259 
Q 947 1441 1306 927 
Q 1666 413 2478 413 
Q 3100 413 3508 773 
Q 3916 1134 3925 1941 
L 2488 1941 
L 2488 2456 
L 4503 2456 
L 4503 0 
L 4103 0 
L 3953 591 
Q 3638 244 3394 109 
Q 2984 -122 2353 -122 
Q 1538 -122 950 406 
Q 309 1069 309 2225 
Q 309 3378 934 4059 
Q 1528 4709 2472 4709 
z
M 2369 4716 
L 2369 4716 
z
" transform="scale(0.015625)"/>
       <path id="Helvetica-44" d="M 2250 531 
Q 2566 531 2769 597 
Q 3131 719 3363 1066 
Q 3547 1344 3628 1778 
Q 3675 2038 3675 2259 
Q 3675 3113 3336 3584 
Q 2997 4056 2244 4056 
L 1141 4056 
L 1141 531 
L 2250 531 
z
M 516 4591 
L 2375 4591 
Q 3322 4591 3844 3919 
Q 4309 3313 4309 2366 
Q 4309 1634 4034 1044 
Q 3550 0 2369 0 
L 516 0 
L 516 4591 
z
" transform="scale(0.015625)"/>
      </defs>
      <use xlink:href="#Helvetica-47"/>
      <use xlink:href="#Helvetica-50" x="77.783203"/>
      <use xlink:href="#Helvetica-43" x="144.482422"/>
      <use xlink:href="#Helvetica-20" x="216.699219"/>
      <use xlink:href="#Helvetica-44" x="244.482422"/>
      <use xlink:href="#Helvetica-61" x="316.699219"/>
      <use xlink:href="#Helvetica-74" x="372.314453"/>
      <use xlink:href="#Helvetica-61" x="400.097656"/>
     </g>
    </g>
    <g id="line2d_17">
     <path d="M 312.2475 173.781406 
L 320.2475 173.781406 
L 328.2475 173.781406 
" style="fill: none; stroke: #252525; stroke-width: 1.2; stroke-linecap: square"/>
    </g>
    <g id="text_19">
     <!-- Mn=94.0k, Mw=103.0k, Mp=111.2k -->
     <g transform="translate(334.6475 176.581406) scale(0.08 -0.08)">
      <defs>
       <path id="Helvetica-4d" d="M 472 4591 
L 1363 4591 
L 2681 709 
L 3991 4591 
L 4872 4591 
L 4872 0 
L 4281 0 
L 4281 2709 
Q 4281 2850 4287 3175 
Q 4294 3500 4294 3872 
L 2984 0 
L 2369 0 
L 1050 3872 
L 1050 3731 
Q 1050 3563 1058 3217 
Q 1066 2872 1066 2709 
L 1066 0 
L 472 0 
L 472 4591 
z
" transform="scale(0.015625)"/>
       <path id="Helvetica-3d" d="M 3547 2569 
L 3547 2044 
L 288 2044 
L 288 2569 
L 3547 2569 
z
M 3547 1228 
L 3547 694 
L 288 694 
L 288 1228 
L 3547 1228 
z
" transform="scale(0.015625)"/>
       <path id="Helvetica-39" d="M 850 1081 
Q 875 616 1209 438 
Q 1381 344 1597 344 
Q 2000 344 2284 680 
Q 2569 1016 2688 2044 
Q 2500 1747 2223 1626 
Q 1947 1506 1628 1506 
Q 981 1506 604 1909 
Q 228 2313 228 2947 
Q 228 3556 600 4018 
Q 972 4481 1697 4481 
Q 2675 4481 3047 3600 
Q 3253 3116 3253 2388 
Q 3253 1566 3006 931 
Q 2597 -125 1619 -125 
Q 963 -125 622 219 
Q 281 563 281 1081 
L 850 1081 
z
M 1703 2000 
Q 2038 2000 2314 2220 
Q 2591 2441 2591 2991 
Q 2591 3484 2342 3726 
Q 2094 3969 1709 3969 
Q 1297 3969 1055 3692 
Q 813 3416 813 2953 
Q 813 2516 1025 2258 
Q 1238 2000 1703 2000 
z
" transform="scale(0.015625)"/>
       <path id="Helvetica-6b" d="M 400 4591 
L 941 4591 
L 941 1925 
L 2384 3347 
L 3103 3347 
L 1822 2094 
L 3175 0 
L 2456 0 
L 1413 1688 
L 941 1256 
L 941 0 
L 400 0 
L 400 4591 
z
" transform="scale(0.015625)"/>
       <path id="Helvetica-2c" d="M 531 -653 
Q 747 -616 834 -350 
Q 881 -209 881 -78 
Q 881 -56 879 -39 
Q 878 -22 872 0 
L 531 0 
L 531 681 
L 1200 681 
L 1200 50 
Q 1200 -322 1050 -603 
Q 900 -884 531 -950 
L 531 -653 
z
" transform="scale(0.015625)"/>
       <path id="Helvetica-77" d="M 672 3347 
L 1316 709 
L 1969 3347 
L 2600 3347 
L 3256 725 
L 3941 3347 
L 4503 3347 
L 3531 0 
L 2947 0 
L 2266 2591 
L 1606 0 
L 1022 0 
L 56 3347 
L 672 3347 
z
" transform="scale(0.015625)"/>
      </defs>
      <use xlink:href="#Helvetica-4d"/>
      <use xlink:href="#Helvetica-6e" x="83.300781"/>
      <use xlink:href="#Helvetica-3d" x="138.916016"/>
      <use xlink:href="#Helvetica-39" x="197.314453"/>
      <use xlink:href="#Helvetica-34" x="252.929688"/>
      <use xlink:href="#Helvetica-2e" x="308.544922"/>
      <use xlink:href="#Helvetica-30" x="336.328125"/>
      <use xlink:href="#Helvetica-6b" x="391.943359"/>
      <use xlink:href="#Helvetica-2c" x="441.943359"/>
      <use xlink:href="#Helvetica-20" x="469.726562"/>
      <use xlink:href="#Helvetica-4d" x="497.509766"/>
      <use xlink:href="#Helvetica-77" x="580.810547"/>
      <use xlink:href="#Helvetica-3d" x="653.027344"/>
      <use xlink:href="#Helvetica-31" x="711.425781"/>
      <use xlink:href="#Helvetica-30" x="767.041016"/>
      <use xlink:href="#Helvetica-33" x="822.65625"/>
      <use xlink:href="#Helvetica-2e" x="878.271484"/>
      <use xlink:href="#Helvetica-30" x="906.054688"/>
      <use xlink:href="#Helvetica-6b" x="961.669922"/>
      <use xlink:href="#Helvetica-2c" x="1011.669922"/>
      <use xlink:href="#Helvetica-20" x="1039.453125"/>
      <use xlink:href="#Helvetica-4d" x="1067.236328"/>
      <use xlink:href="#Helvetica-70" x="1150.537109"/>
      <use xlink:href="#Helvetica-3d" x="1206.152344"/>
      <use xlink:href="#Helvetica-31" x="1264.550781"/>
      <use xlink:href="#Helvetica-31" x="1320.166016"/>
      <use xlink:href="#Helvetica-31" x="1375.78125"/>
      <use xlink:href="#Helvetica-2e" x="1431.396484"/>
      <use xlink:href="#Helvetica-32" x="1459.179688"/>
      <use xlink:href="#Helvetica-6b" x="1514.794922"/>
     </g>
    </g>
    <g id="line2d_18">
     <path d="M 312.2475 185.187656 
L 320.2475 185.187656 
L 328.2475 185.187656 
" style="fill: none; stroke: #045a8d; stroke-width: 1.2; stroke-linecap: square"/>
    </g>
    <g id="text_20">
     <!-- Mn=91.8k, Mw=98.4k, Mp=104.7k -->
     <g transform="translate(334.6475 187.987656) scale(0.08 -0.08)">
      <use xlink:href="#Helvetica-4d"/>
      <use xlink:href="#Helvetica-6e" x="83.300781"/>
      <use xlink:href="#Helvetica-3d" x="138.916016"/>
      <use xlink:href="#Helvetica-39" x="197.314453"/>
      <use xlink:href="#Helvetica-31" x="252.929688"/>
      <use xlink:href="#Helvetica-2e" x="308.544922"/>
      <use xlink:href="#Helvetica-38" x="336.328125"/>
      <use xlink:href="#Helvetica-6b" x="391.943359"/>
      <use xlink:href="#Helvetica-2c" x="441.943359"/>
      <use xlink:href="#Helvetica-20" x="469.726562"/>
      <use xlink:href="#Helvetica-4d" x="497.509766"/>
      <use xlink:href="#Helvetica-77" x="580.810547"/>
      <use xlink:href="#Helvetica-3d" x="653.027344"/>
      <use xlink:href="#Helvetica-39" x="711.425781"/>
      <use xlink:href="#Helvetica-38" x="767.041016"/>
      <use xlink:href="#Helvetica-2e" x="822.65625"/>
      <use xlink:href="#Helvetica-34" x="850.439453"/>
      <use xlink:href="#Helvetica-6b" x="906.054688"/>
      <use xlink:href="#Helvetica-2c" x="956.054688"/>
      <use xlink:href="#Helvetica-20" x="983.837891"/>
      <use xlink:href="#Helvetica-4d" x="1011.621094"/>
      <use xlink:href="#Helvetica-70" x="1094.921875"/>
      <use xlink:href="#Helvetica-3d" x="1150.537109"/>
      <use xlink:href="#Helvetica-31" x="1208.935547"/>
      <use xlink:href="#Helvetica-30" x="1264.550781"/>
      <use xlink:href="#Helvetica-34" x="1320.166016"/>
      <use xlink:href="#Helvetica-2e" x="1375.78125"/>
      <use xlink:href="#Helvetica-37" x="1403.564453"/>
      <use xlink:href="#Helvetica-6b" x="1459.179688"/>
     </g>
    </g>
   </g>
  </g>
 </g>
 <defs>
  <clipPath id="p358075ba01">
   <rect x="50.95" y="33.6" width="416.075" height="280.04"/>
  </clipPath>
 </defs>
</svg>
