<?xml version="1.0" encoding="utf-8" standalone="no"?>
<!DOCTYPE svg PUBLIC "-//W3C//DTD SVG 1.1//EN"
  "http://www.w3.org/Graphics/SVG/1.1/DTD/svg11.dtd">
<svg xmlns:xlink="http://www.w3.org/1999/xlink" width="504pt" height="360pt" viewBox="0 0 504 360" xmlns="http://www.w3.org/2000/svg" version="1.1">
 <metadata>
  <rdf:RDF xmlns:dc="http://purl.org/dc/elements/1.1/" xmlns:cc="http://creativecommons.org/ns#" xmlns:rdf="http://www.w3.org/1999/02/22-rdf-syntax-ns#">
   <cc:Work>
    <dc:type rdf:resource="http://purl.org/dc/dcmitype/StillImage"/>
    <dc:date>2025-02-22T11:49:51.344907</dc:date>
    <dc:format>image/svg+xml</dc:format>
    <dc:creator>
     <cc:Agent>
      <dc:title>Matplotlib v3.7.1, https://matplotlib.org/</dc:title>
     </cc:Agent>
    </dc:creator>
   </cc:Work>
  </rdf:RDF>
 </metadata>
 <defs>
  <style type="text/css">*{stroke-linejoin: round; stroke-linecap: butt}</style>
 </defs>
 <g id="figure_1">
  <g id="patch_1">
   <path d="M 0 360 
L 504 360 
L 504 0 
L 0 0 
z
" style="fill: #ffffff"/>
  </g>
  <g id="axes_1">
   <g id="patch_2">
    <path d="M 50.95 313.64 
L 467.025 313.64 
L 467.025 33.6 
L 50.95 33.6 
z
" style="fill: #ffffff"/>
   </g>
   <g id="matplotlib.axis_1">
    <g id="xtick_1">
     <g id="line2d_1">
      <defs>
       <path id="mef7634854f" d="M 0 0 
L 0 -3.5 
" style="stroke: #000000; stroke-width: 0.8"/>
      </defs>
      <g>
       <use xlink:href="#mef7634854f" x="50.95" y="313.64" style="stroke: #000000; stroke-width: 0.8"/>
      </g>
     </g>
     <g id="text_1">
      <!-- 5.0 -->
      <g transform="translate(42.61 325.748125) scale(0.12 -0.12)">
       <defs>
        <path id="Helvetica-35" d="M 791 1141 
Q 847 659 1238 475 
Q 1438 381 1700 381 
Q 2200 381 2440 700 
Q 2681 1019 2681 1406 
Q 2681 1875 2395 2131 
Q 2109 2388 1709 2388 
Q 1419 2388 1211 2275 
Q 1003 2163 856 1963 
L 369 1991 
L 709 4400 
L 3034 4400 
L 3034 3856 
L 1131 3856 
L 941 2613 
Q 1097 2731 1238 2791 
Q 1488 2894 1816 2894 
Q 2431 2894 2859 2497 
Q 3288 2100 3288 1491 
Q 3288 856 2895 371 
Q 2503 -113 1644 -113 
Q 1097 -113 676 195 
Q 256 503 206 1141 
L 791 1141 
z
" transform="scale(0.015625)"/>
        <path id="Helvetica-2e" d="M 547 681 
L 1200 681 
L 1200 0 
L 547 0 
L 547 681 
z
" transform="scale(0.015625)"/>
        <path id="Helvetica-30" d="M 1731 4475 
Q 2600 4475 2988 3759 
Q 3288 3206 3288 2244 
Q 3288 1331 3016 734 
Q 2622 -122 1728 -122 
Q 922 -122 528 578 
Q 200 1163 200 2147 
Q 200 2909 397 3456 
Q 766 4475 1731 4475 
z
M 1725 391 
Q 2163 391 2422 778 
Q 2681 1166 2681 2222 
Q 2681 2984 2493 3476 
Q 2306 3969 1766 3969 
Q 1269 3969 1039 3501 
Q 809 3034 809 2125 
Q 809 1441 956 1025 
Q 1181 391 1725 391 
z
" transform="scale(0.015625)"/>
       </defs>
       <use xlink:href="#Helvetica-35"/>
       <use xlink:href="#Helvetica-2e" x="55.615234"/>
       <use xlink:href="#Helvetica-30" x="83.398438"/>
      </g>
     </g>
    </g>
    <g id="xtick_2">
     <g id="line2d_2">
      <g>
       <use xlink:href="#mef7634854f" x="134.165" y="313.64" style="stroke: #000000; stroke-width: 0.8"/>
      </g>
     </g>
     <g id="text_2">
      <!-- 5.5 -->
      <g transform="translate(125.825 325.748125) scale(0.12 -0.12)">
       <use xlink:href="#Helvetica-35"/>
       <use xlink:href="#Helvetica-2e" x="55.615234"/>
       <use xlink:href="#Helvetica-35" x="83.398438"/>
      </g>
     </g>
    </g>
    <g id="xtick_3">
     <g id="line2d_3">
      <g>
       <use xlink:href="#mef7634854f" x="217.38" y="313.64" style="stroke: #000000; stroke-width: 0.8"/>
      </g>
     </g>
     <g id="text_3">
      <!-- 6.0 -->
      <g transform="translate(209.04 325.748125) scale(0.12 -0.12)">
       <defs>
        <path id="Helvetica-36" d="M 1872 4494 
Q 2622 4494 2917 4105 
Q 3213 3716 3213 3303 
L 2656 3303 
Q 2606 3569 2497 3719 
Q 2294 4000 1881 4000 
Q 1409 4000 1131 3564 
Q 853 3128 822 2316 
Q 1016 2600 1309 2741 
Q 1578 2866 1909 2866 
Q 2472 2866 2890 2506 
Q 3309 2147 3309 1434 
Q 3309 825 2912 354 
Q 2516 -116 1781 -116 
Q 1153 -116 697 361 
Q 241 838 241 1966 
Q 241 2800 444 3381 
Q 834 4494 1872 4494 
z
M 1831 384 
Q 2275 384 2495 682 
Q 2716 981 2716 1388 
Q 2716 1731 2519 2042 
Q 2322 2353 1803 2353 
Q 1441 2353 1167 2112 
Q 894 1872 894 1388 
Q 894 963 1142 673 
Q 1391 384 1831 384 
z
" transform="scale(0.015625)"/>
       </defs>
       <use xlink:href="#Helvetica-36"/>
       <use xlink:href="#Helvetica-2e" x="55.615234"/>
       <use xlink:href="#Helvetica-30" x="83.398438"/>
      </g>
     </g>
    </g>
    <g id="xtick_4">
     <g id="line2d_4">
      <g>
       <use xlink:href="#mef7634854f" x="300.595" y="313.64" style="stroke: #000000; stroke-width: 0.8"/>
      </g>
     </g>
     <g id="text_4">
      <!-- 6.5 -->
      <g transform="translate(292.255 325.748125) scale(0.12 -0.12)">
       <use xlink:href="#Helvetica-36"/>
       <use xlink:href="#Helvetica-2e" x="55.615234"/>
       <use xlink:href="#Helvetica-35" x="83.398438"/>
      </g>
     </g>
    </g>
    <g id="xtick_5">
     <g id="line2d_5">
      <g>
       <use xlink:href="#mef7634854f" x="383.81" y="313.64" style="stroke: #000000; stroke-width: 0.8"/>
      </g>
     </g>
     <g id="text_5">
      <!-- 7.0 -->
      <g transform="translate(375.47 325.748125) scale(0.12 -0.12)">
       <defs>
        <path id="Helvetica-37" d="M 3347 4400 
L 3347 3909 
Q 3131 3700 2773 3181 
Q 2416 2663 2141 2063 
Q 1869 1478 1728 997 
Q 1638 688 1494 0 
L 872 0 
Q 1084 1281 1809 2550 
Q 2238 3294 2709 3834 
L 234 3834 
L 234 4400 
L 3347 4400 
z
" transform="scale(0.015625)"/>
       </defs>
       <use xlink:href="#Helvetica-37"/>
       <use xlink:href="#Helvetica-2e" x="55.615234"/>
       <use xlink:href="#Helvetica-30" x="83.398438"/>
      </g>
     </g>
    </g>
    <g id="xtick_6">
     <g id="line2d_6">
      <g>
       <use xlink:href="#mef7634854f" x="467.025" y="313.64" style="stroke: #000000; stroke-width: 0.8"/>
      </g>
     </g>
     <g id="text_6">
      <!-- 7.5 -->
      <g transform="translate(458.685 325.748125) scale(0.12 -0.12)">
       <use xlink:href="#Helvetica-37"/>
       <use xlink:href="#Helvetica-2e" x="55.615234"/>
       <use xlink:href="#Helvetica-35" x="83.398438"/>
      </g>
     </g>
    </g>
    <g id="text_7">
     <!-- Retention Time (min) -->
     <g transform="translate(202.975625 340.945625) scale(0.12 -0.12)">
      <defs>
       <path id="Helvetica-52" d="M 2622 2488 
Q 3059 2488 3314 2663 
Q 3569 2838 3569 3294 
Q 3569 3784 3213 3963 
Q 3022 4056 2703 4056 
L 1184 4056 
L 1184 2488 
L 2622 2488 
z
M 563 4591 
L 2688 4591 
Q 3213 4591 3553 4438 
Q 4200 4144 4200 3353 
Q 4200 2941 4029 2678 
Q 3859 2416 3553 2256 
Q 3822 2147 3958 1969 
Q 4094 1791 4109 1391 
L 4131 775 
Q 4141 513 4175 384 
Q 4231 166 4375 103 
L 4375 0 
L 3613 0 
Q 3581 59 3562 153 
Q 3544 247 3531 516 
L 3494 1281 
Q 3472 1731 3159 1884 
Q 2981 1969 2600 1969 
L 1184 1969 
L 1184 0 
L 563 0 
L 563 4591 
z
" transform="scale(0.015625)"/>
       <path id="Helvetica-65" d="M 1806 3422 
Q 2163 3422 2497 3255 
Q 2831 3088 3006 2822 
Q 3175 2569 3231 2231 
Q 3281 2000 3281 1494 
L 828 1494 
Q 844 984 1069 676 
Q 1294 369 1766 369 
Q 2206 369 2469 659 
Q 2619 828 2681 1050 
L 3234 1050 
Q 3213 866 3089 639 
Q 2966 413 2813 269 
Q 2556 19 2178 -69 
Q 1975 -119 1719 -119 
Q 1094 -119 659 336 
Q 225 791 225 1609 
Q 225 2416 662 2919 
Q 1100 3422 1806 3422 
z
M 2703 1941 
Q 2669 2306 2544 2525 
Q 2313 2931 1772 2931 
Q 1384 2931 1121 2651 
Q 859 2372 844 1941 
L 2703 1941 
z
M 1753 3428 
L 1753 3428 
z
" transform="scale(0.015625)"/>
       <path id="Helvetica-74" d="M 525 4281 
L 1094 4281 
L 1094 3347 
L 1628 3347 
L 1628 2888 
L 1094 2888 
L 1094 703 
Q 1094 528 1213 469 
Q 1278 434 1431 434 
Q 1472 434 1519 436 
Q 1566 438 1628 444 
L 1628 0 
Q 1531 -28 1426 -40 
Q 1322 -53 1200 -53 
Q 806 -53 665 148 
Q 525 350 525 672 
L 525 2888 
L 72 2888 
L 72 3347 
L 525 3347 
L 525 4281 
z
" transform="scale(0.015625)"/>
       <path id="Helvetica-6e" d="M 413 3347 
L 947 3347 
L 947 2872 
Q 1184 3166 1450 3294 
Q 1716 3422 2041 3422 
Q 2753 3422 3003 2925 
Q 3141 2653 3141 2147 
L 3141 0 
L 2569 0 
L 2569 2109 
Q 2569 2416 2478 2603 
Q 2328 2916 1934 2916 
Q 1734 2916 1606 2875 
Q 1375 2806 1200 2600 
Q 1059 2434 1017 2257 
Q 975 2081 975 1753 
L 975 0 
L 413 0 
L 413 3347 
z
M 1734 3428 
L 1734 3428 
z
" transform="scale(0.015625)"/>
       <path id="Helvetica-69" d="M 413 3331 
L 984 3331 
L 984 0 
L 413 0 
L 413 3331 
z
M 413 4591 
L 984 4591 
L 984 3953 
L 413 3953 
L 413 4591 
z
" transform="scale(0.015625)"/>
       <path id="Helvetica-6f" d="M 1741 363 
Q 2300 363 2508 786 
Q 2716 1209 2716 1728 
Q 2716 2197 2566 2491 
Q 2328 2953 1747 2953 
Q 1231 2953 997 2559 
Q 763 2166 763 1609 
Q 763 1075 997 719 
Q 1231 363 1741 363 
z
M 1763 3444 
Q 2409 3444 2856 3012 
Q 3303 2581 3303 1744 
Q 3303 934 2909 406 
Q 2516 -122 1688 -122 
Q 997 -122 590 345 
Q 184 813 184 1600 
Q 184 2444 612 2944 
Q 1041 3444 1763 3444 
z
M 1744 3428 
L 1744 3428 
z
" transform="scale(0.015625)"/>
       <path id="Helvetica-20" transform="scale(0.015625)"/>
       <path id="Helvetica-54" d="M 3828 4591 
L 3828 4044 
L 2281 4044 
L 2281 0 
L 1650 0 
L 1650 4044 
L 103 4044 
L 103 4591 
L 3828 4591 
z
" transform="scale(0.015625)"/>
       <path id="Helvetica-6d" d="M 413 3347 
L 969 3347 
L 969 2872 
Q 1169 3119 1331 3231 
Q 1609 3422 1963 3422 
Q 2363 3422 2606 3225 
Q 2744 3113 2856 2894 
Q 3044 3163 3297 3292 
Q 3550 3422 3866 3422 
Q 4541 3422 4784 2934 
Q 4916 2672 4916 2228 
L 4916 0 
L 4331 0 
L 4331 2325 
Q 4331 2659 4164 2784 
Q 3997 2909 3756 2909 
Q 3425 2909 3186 2687 
Q 2947 2466 2947 1947 
L 2947 0 
L 2375 0 
L 2375 2184 
Q 2375 2525 2294 2681 
Q 2166 2916 1816 2916 
Q 1497 2916 1236 2669 
Q 975 2422 975 1775 
L 975 0 
L 413 0 
L 413 3347 
z
" transform="scale(0.015625)"/>
       <path id="Helvetica-28" d="M 1894 4666 
Q 1403 3713 1256 3263 
Q 1034 2578 1034 1681 
Q 1034 775 1288 25 
Q 1444 -438 1903 -1306 
L 1525 -1306 
Q 1069 -594 959 -397 
Q 850 -200 722 138 
Q 547 600 478 1125 
Q 444 1397 444 1644 
Q 444 2569 734 3291 
Q 919 3750 1503 4666 
L 1894 4666 
z
" transform="scale(0.015625)"/>
       <path id="Helvetica-29" d="M 222 -1306 
Q 719 -338 863 106 
Q 1081 778 1081 1681 
Q 1081 2584 828 3334 
Q 672 3797 213 4666 
L 591 4666 
Q 1072 3897 1173 3717 
Q 1275 3538 1394 3222 
Q 1544 2831 1608 2450 
Q 1672 2069 1672 1716 
Q 1672 791 1378 66 
Q 1194 -400 613 -1306 
L 222 -1306 
z
" transform="scale(0.015625)"/>
      </defs>
      <use xlink:href="#Helvetica-52"/>
      <use xlink:href="#Helvetica-65" x="72.216797"/>
      <use xlink:href="#Helvetica-74" x="127.832031"/>
      <use xlink:href="#Helvetica-65" x="155.615234"/>
      <use xlink:href="#Helvetica-6e" x="211.230469"/>
      <use xlink:href="#Helvetica-74" x="266.845703"/>
      <use xlink:href="#Helvetica-69" x="294.628906"/>
      <use xlink:href="#Helvetica-6f" x="316.845703"/>
      <use xlink:href="#Helvetica-6e" x="372.460938"/>
      <use xlink:href="#Helvetica-20" x="428.076172"/>
      <use xlink:href="#Helvetica-54" x="455.859375"/>
      <use xlink:href="#Helvetica-69" x="516.943359"/>
      <use xlink:href="#Helvetica-6d" x="539.160156"/>
      <use xlink:href="#Helvetica-65" x="622.460938"/>
      <use xlink:href="#Helvetica-20" x="678.076172"/>
      <use xlink:href="#Helvetica-28" x="705.859375"/>
      <use xlink:href="#Helvetica-6d" x="739.160156"/>
      <use xlink:href="#Helvetica-69" x="822.460938"/>
      <use xlink:href="#Helvetica-6e" x="844.677734"/>
      <use xlink:href="#Helvetica-29" x="900.292969"/>
     </g>
    </g>
   </g>
   <g id="matplotlib.axis_2">
    <g id="ytick_1">
     <g id="line2d_7">
      <defs>
       <path id="ma0d0c132d0" d="M 0 0 
L 3.5 0 
" style="stroke: #000000; stroke-width: 0.8"/>
      </defs>
      <g>
       <use xlink:href="#ma0d0c132d0" x="50.95" y="290.303333" style="stroke: #000000; stroke-width: 0.8"/>
      </g>
     </g>
     <g id="text_8">
      <!-- 0.0 -->
      <g transform="translate(30.77 294.607396) scale(0.12 -0.12)">
       <use xlink:href="#Helvetica-30"/>
       <use xlink:href="#Helvetica-2e" x="55.615234"/>
       <use xlink:href="#Helvetica-30" x="83.398438"/>
      </g>
     </g>
    </g>
    <g id="ytick_2">
     <g id="line2d_8">
      <g>
       <use xlink:href="#ma0d0c132d0" x="50.95" y="243.63" style="stroke: #000000; stroke-width: 0.8"/>
      </g>
     </g>
     <g id="text_9">
      <!-- 0.2 -->
      <g transform="translate(30.77 247.934063) scale(0.12 -0.12)">
       <defs>
        <path id="Helvetica-32" d="M 200 0 
Q 231 578 439 1006 
Q 647 1434 1250 1784 
L 1850 2131 
Q 2253 2366 2416 2531 
Q 2672 2791 2672 3125 
Q 2672 3516 2437 3745 
Q 2203 3975 1813 3975 
Q 1234 3975 1013 3538 
Q 894 3303 881 2888 
L 309 2888 
Q 319 3472 525 3841 
Q 891 4491 1816 4491 
Q 2584 4491 2939 4075 
Q 3294 3659 3294 3150 
Q 3294 2613 2916 2231 
Q 2697 2009 2131 1694 
L 1703 1456 
Q 1397 1288 1222 1134 
Q 909 863 828 531 
L 3272 531 
L 3272 0 
L 200 0 
z
" transform="scale(0.015625)"/>
       </defs>
       <use xlink:href="#Helvetica-30"/>
       <use xlink:href="#Helvetica-2e" x="55.615234"/>
       <use xlink:href="#Helvetica-32" x="83.398438"/>
      </g>
     </g>
    </g>
    <g id="ytick_3">
     <g id="line2d_9">
      <g>
       <use xlink:href="#ma0d0c132d0" x="50.95" y="196.956667" style="stroke: #000000; stroke-width: 0.8"/>
      </g>
     </g>
     <g id="text_10">
      <!-- 0.4 -->
      <g transform="translate(30.77 201.260729) scale(0.12 -0.12)">
       <defs>
        <path id="Helvetica-34" d="M 2116 1584 
L 2116 3613 
L 681 1584 
L 2116 1584 
z
M 2125 0 
L 2125 1094 
L 163 1094 
L 163 1644 
L 2213 4488 
L 2688 4488 
L 2688 1584 
L 3347 1584 
L 3347 1094 
L 2688 1094 
L 2688 0 
L 2125 0 
z
" transform="scale(0.015625)"/>
       </defs>
       <use xlink:href="#Helvetica-30"/>
       <use xlink:href="#Helvetica-2e" x="55.615234"/>
       <use xlink:href="#Helvetica-34" x="83.398438"/>
      </g>
     </g>
    </g>
    <g id="ytick_4">
     <g id="line2d_10">
      <g>
       <use xlink:href="#ma0d0c132d0" x="50.95" y="150.283333" style="stroke: #000000; stroke-width: 0.8"/>
      </g>
     </g>
     <g id="text_11">
      <!-- 0.6 -->
      <g transform="translate(30.77 154.587396) scale(0.12 -0.12)">
       <use xlink:href="#Helvetica-30"/>
       <use xlink:href="#Helvetica-2e" x="55.615234"/>
       <use xlink:href="#Helvetica-36" x="83.398438"/>
      </g>
     </g>
    </g>
    <g id="ytick_5">
     <g id="line2d_11">
      <g>
       <use xlink:href="#ma0d0c132d0" x="50.95" y="103.61" style="stroke: #000000; stroke-width: 0.8"/>
      </g>
     </g>
     <g id="text_12">
      <!-- 0.8 -->
      <g transform="translate(30.77 107.914062) scale(0.12 -0.12)">
       <defs>
        <path id="Helvetica-38" d="M 1741 2600 
Q 2113 2600 2322 2808 
Q 2531 3016 2531 3303 
Q 2531 3553 2331 3762 
Q 2131 3972 1722 3972 
Q 1316 3972 1134 3762 
Q 953 3553 953 3272 
Q 953 2956 1187 2778 
Q 1422 2600 1741 2600 
z
M 1775 384 
Q 2166 384 2423 595 
Q 2681 806 2681 1225 
Q 2681 1659 2415 1884 
Q 2150 2109 1734 2109 
Q 1331 2109 1076 1879 
Q 822 1650 822 1244 
Q 822 894 1055 639 
Q 1288 384 1775 384 
z
M 975 2384 
Q 741 2484 609 2619 
Q 363 2869 363 3269 
Q 363 3769 725 4128 
Q 1088 4488 1753 4488 
Q 2397 4488 2762 4148 
Q 3128 3809 3128 3356 
Q 3128 2938 2916 2678 
Q 2797 2531 2547 2391 
Q 2825 2263 2984 2097 
Q 3281 1784 3281 1284 
Q 3281 694 2884 283 
Q 2488 -128 1763 -128 
Q 1109 -128 657 226 
Q 206 581 206 1256 
Q 206 1653 400 1942 
Q 594 2231 975 2384 
z
" transform="scale(0.015625)"/>
       </defs>
       <use xlink:href="#Helvetica-30"/>
       <use xlink:href="#Helvetica-2e" x="55.615234"/>
       <use xlink:href="#Helvetica-38" x="83.398438"/>
      </g>
     </g>
    </g>
    <g id="ytick_6">
     <g id="line2d_12">
      <g>
       <use xlink:href="#ma0d0c132d0" x="50.95" y="56.936667" style="stroke: #000000; stroke-width: 0.8"/>
      </g>
     </g>
     <g id="text_13">
      <!-- 1.0 -->
      <g transform="translate(30.77 61.240729) scale(0.12 -0.12)">
       <defs>
        <path id="Helvetica-31" d="M 613 3169 
L 613 3600 
Q 1222 3659 1462 3798 
Q 1703 3938 1822 4456 
L 2266 4456 
L 2266 0 
L 1666 0 
L 1666 3169 
L 613 3169 
z
" transform="scale(0.015625)"/>
       </defs>
       <use xlink:href="#Helvetica-31"/>
       <use xlink:href="#Helvetica-2e" x="55.615234"/>
       <use xlink:href="#Helvetica-30" x="83.398438"/>
      </g>
     </g>
    </g>
    <g id="text_14">
     <!-- Normalized Intensity -->
     <g transform="translate(24.1975 227.971563) rotate(-90) scale(0.12 -0.12)">
      <defs>
       <path id="Helvetica-4e" d="M 488 4591 
L 1222 4591 
L 3541 872 
L 3541 4591 
L 4131 4591 
L 4131 0 
L 3434 0 
L 1081 3716 
L 1081 0 
L 488 0 
L 488 4591 
z
M 2269 4591 
L 2269 4591 
z
" transform="scale(0.015625)"/>
       <path id="Helvetica-72" d="M 428 3347 
L 963 3347 
L 963 2769 
Q 1028 2938 1284 3180 
Q 1541 3422 1875 3422 
Q 1891 3422 1928 3419 
Q 1966 3416 2056 3406 
L 2056 2813 
Q 2006 2822 1964 2825 
Q 1922 2828 1872 2828 
Q 1447 2828 1219 2554 
Q 991 2281 991 1925 
L 991 0 
L 428 0 
L 428 3347 
z
" transform="scale(0.015625)"/>
       <path id="Helvetica-61" d="M 844 891 
Q 844 647 1022 506 
Q 1200 366 1444 366 
Q 1741 366 2019 503 
Q 2488 731 2488 1250 
L 2488 1703 
Q 2384 1638 2221 1594 
Q 2059 1550 1903 1531 
L 1563 1488 
Q 1256 1447 1103 1359 
Q 844 1213 844 891 
z
M 2206 2028 
Q 2400 2053 2466 2191 
Q 2503 2266 2503 2406 
Q 2503 2694 2298 2823 
Q 2094 2953 1713 2953 
Q 1272 2953 1088 2716 
Q 984 2584 953 2325 
L 428 2325 
Q 444 2944 830 3186 
Q 1216 3428 1725 3428 
Q 2316 3428 2684 3203 
Q 3050 2978 3050 2503 
L 3050 575 
Q 3050 488 3086 434 
Q 3122 381 3238 381 
Q 3275 381 3322 386 
Q 3369 391 3422 400 
L 3422 -16 
Q 3291 -53 3222 -62 
Q 3153 -72 3034 -72 
Q 2744 -72 2613 134 
Q 2544 244 2516 444 
Q 2344 219 2022 53 
Q 1700 -113 1313 -113 
Q 847 -113 551 170 
Q 256 453 256 878 
Q 256 1344 547 1600 
Q 838 1856 1309 1916 
L 2206 2028 
z
M 1741 3428 
L 1741 3428 
z
" transform="scale(0.015625)"/>
       <path id="Helvetica-6c" d="M 428 4591 
L 991 4591 
L 991 0 
L 428 0 
L 428 4591 
z
" transform="scale(0.015625)"/>
       <path id="Helvetica-7a" d="M 163 444 
L 2147 2844 
L 309 2844 
L 309 3347 
L 2903 3347 
L 2903 2888 
L 931 503 
L 2963 503 
L 2963 0 
L 163 0 
L 163 444 
z
M 1609 3428 
L 1609 3428 
z
" transform="scale(0.015625)"/>
       <path id="Helvetica-64" d="M 769 1634 
Q 769 1097 997 734 
Q 1225 372 1728 372 
Q 2119 372 2370 708 
Q 2622 1044 2622 1672 
Q 2622 2306 2362 2611 
Q 2103 2916 1722 2916 
Q 1297 2916 1033 2591 
Q 769 2266 769 1634 
z
M 1616 3406 
Q 2000 3406 2259 3244 
Q 2409 3150 2600 2916 
L 2600 4606 
L 3141 4606 
L 3141 0 
L 2634 0 
L 2634 466 
Q 2438 156 2169 18 
Q 1900 -119 1553 -119 
Q 994 -119 584 351 
Q 175 822 175 1603 
Q 175 2334 548 2870 
Q 922 3406 1616 3406 
z
" transform="scale(0.015625)"/>
       <path id="Helvetica-49" d="M 628 4591 
L 1256 4591 
L 1256 0 
L 628 0 
L 628 4591 
z
" transform="scale(0.015625)"/>
       <path id="Helvetica-73" d="M 747 1050 
Q 772 769 888 619 
Q 1100 347 1625 347 
Q 1938 347 2175 483 
Q 2413 619 2413 903 
Q 2413 1119 2222 1231 
Q 2100 1300 1741 1391 
L 1294 1503 
Q 866 1609 663 1741 
Q 300 1969 300 2372 
Q 300 2847 642 3140 
Q 984 3434 1563 3434 
Q 2319 3434 2653 2991 
Q 2863 2709 2856 2384 
L 2325 2384 
Q 2309 2575 2191 2731 
Q 1997 2953 1519 2953 
Q 1200 2953 1036 2831 
Q 872 2709 872 2509 
Q 872 2291 1088 2159 
Q 1213 2081 1456 2022 
L 1828 1931 
Q 2434 1784 2641 1647 
Q 2969 1431 2969 969 
Q 2969 522 2630 197 
Q 2291 -128 1597 -128 
Q 850 -128 539 211 
Q 228 550 206 1050 
L 747 1050 
z
M 1578 3428 
L 1578 3428 
z
" transform="scale(0.015625)"/>
       <path id="Helvetica-79" d="M 2503 3347 
L 3125 3347 
Q 3006 3025 2597 1878 
Q 2291 1016 2084 472 
Q 1597 -809 1397 -1090 
Q 1197 -1372 709 -1372 
Q 591 -1372 527 -1362 
Q 463 -1353 369 -1328 
L 369 -816 
Q 516 -856 581 -865 
Q 647 -875 697 -875 
Q 853 -875 926 -823 
Q 1000 -772 1050 -697 
Q 1066 -672 1162 -440 
Q 1259 -209 1303 -97 
L 66 3347 
L 703 3347 
L 1600 622 
L 2503 3347 
z
M 1597 3428 
L 1597 3428 
z
" transform="scale(0.015625)"/>
      </defs>
      <use xlink:href="#Helvetica-4e"/>
      <use xlink:href="#Helvetica-6f" x="72.216797"/>
      <use xlink:href="#Helvetica-72" x="127.832031"/>
      <use xlink:href="#Helvetica-6d" x="161.132812"/>
      <use xlink:href="#Helvetica-61" x="244.433594"/>
      <use xlink:href="#Helvetica-6c" x="300.048828"/>
      <use xlink:href="#Helvetica-69" x="322.265625"/>
      <use xlink:href="#Helvetica-7a" x="344.482422"/>
      <use xlink:href="#Helvetica-65" x="394.482422"/>
      <use xlink:href="#Helvetica-64" x="450.097656"/>
      <use xlink:href="#Helvetica-20" x="505.712891"/>
      <use xlink:href="#Helvetica-49" x="533.496094"/>
      <use xlink:href="#Helvetica-6e" x="561.279297"/>
      <use xlink:href="#Helvetica-74" x="616.894531"/>
      <use xlink:href="#Helvetica-65" x="644.677734"/>
      <use xlink:href="#Helvetica-6e" x="700.292969"/>
      <use xlink:href="#Helvetica-73" x="755.908203"/>
      <use xlink:href="#Helvetica-69" x="805.908203"/>
      <use xlink:href="#Helvetica-74" x="828.125"/>
      <use xlink:href="#Helvetica-79" x="855.908203"/>
     </g>
    </g>
   </g>
   <g id="line2d_13">
    <path d="M 50.672062 290.382905 
L 51.78215 290.365223 
L 52.336362 290.497842 
L 53.724388 290.356381 
L 54.556538 290.374064 
L 55.9429 290.365223 
L 57.052988 290.382905 
L 58.993562 290.285651 
L 59.549438 290.321016 
L 60.10365 290.418271 
L 61.490012 290.435953 
L 62.045888 290.427112 
L 62.6001 290.259127 
L 63.43225 290.267968 
L 64.2644 290.365223 
L 65.9287 290.206079 
L 66.76085 290.259127 
L 68.42515 290.418271 
L 69.2573 290.153031 
L 71.475812 290.462477 
L 72.5859 290.14419 
L 72.863838 290.073459 
L 74.528138 290.489001 
L 76.192438 290.153031 
L 76.74665 290.197237 
L 77.856738 290.524366 
L 79.2431 290.14419 
L 80.07525 290.267968 
L 80.9074 290.444794 
L 81.461612 290.453636 
L 83.125912 290.241444 
L 84.236 290.524366 
L 86.73245 290.232603 
L 87.842538 290.409429 
L 88.674688 290.276809 
L 91.171138 290.409429 
L 96.996188 290.329857 
L 97.5504 290.34754 
L 98.38255 290.197237 
L 100.324788 290.338699 
L 100.879 290.21492 
L 101.433212 290.356381 
L 103.653388 290.471318 
L 104.2076 290.241444 
L 104.761812 290.285651 
L 105.317688 290.444794 
L 108.090412 290.329857 
L 109.478438 290.603938 
L 111.142738 290.232603 
L 112.807038 290.497842 
L 113.36125 290.471318 
L 114.1934 290.179555 
L 114.747612 290.197237 
L 115.579762 290.338699 
L 116.967788 290.418271 
L 118.076212 290.170714 
L 119.1863 290.542049 
L 119.740512 290.435953 
L 120.296388 290.232603 
L 121.404812 290.14419 
L 122.5149 290.462477 
L 122.792838 290.542049 
L 123.624988 290.321016 
L 124.1792 290.206079 
L 125.289288 290.276809 
L 126.121438 290.435953 
L 127.5078 290.232603 
L 128.33995 290.232603 
L 129.1721 290.489001 
L 130.282188 290.312175 
L 131.114338 290.312175 
L 131.946488 290.250285 
L 132.5007 290.444794 
L 134.165 290.241444 
L 135.551362 290.241444 
L 136.107238 290.179555 
L 136.939388 290.259127 
L 137.771538 290.232603 
L 138.32575 290.303333 
L 139.1579 290.21492 
L 139.99005 290.161872 
L 141.65435 290.232603 
L 145.537162 290.170714 
L 146.093038 290.091142 
L 146.925188 290.223761 
L 148.865762 290.259127 
L 149.421638 290.046935 
L 149.97585 290.126507 
L 150.530062 290.329857 
L 151.64015 290.338699 
L 153.026512 290.055776 
L 154.690812 290.356381 
L 156.355112 290.046935 
L 158.575288 290.267968 
L 159.1295 290.108824 
L 159.96165 290.126507 
L 161.071738 290.365223 
L 163.844462 290.285651 
L 164.400338 290.471318 
L 165.7867 290.161872 
L 167.173062 290.250285 
L 167.728938 290.374064 
L 168.28315 290.250285 
L 169.1153 290.020411 
L 170.225388 290.073459 
L 170.7796 290.21492 
L 173.830262 290.117666 
L 174.386138 290.14419 
L 175.494562 290.002728 
L 176.050438 290.126507 
L 177.4368 289.985046 
L 180.487462 289.87895 
L 180.7654 289.728647 
L 181.59755 289.781695 
L 182.4297 289.755171 
L 185.480362 289.596028 
L 186.312512 289.764013 
L 186.868388 289.684441 
L 187.4226 289.445725 
L 187.976812 289.445725 
L 189.91905 289.631393 
L 191.305412 289.242375 
L 192.137562 289.392677 
L 193.801862 289.180486 
L 194.634012 289.003659 
L 196.298312 289.251216 
L 198.24055 288.80915 
L 199.0727 288.862198 
L 199.626912 288.94177 
L 201.56915 288.508545 
L 202.679238 288.667689 
L 203.511388 288.455497 
L 205.175688 288.128368 
L 206.007838 288.296353 
L 208.780562 287.615572 
L 209.612712 287.695144 
L 210.7228 287.288443 
L 211.832888 287.129299 
L 213.21925 286.837536 
L 214.605612 286.501565 
L 215.993638 286.139071 
L 216.54785 285.873832 
L 217.657938 285.520179 
L 219.0443 284.804032 
L 221.54075 283.513199 
L 225.423562 280.365689 
L 226.255712 279.207476 
L 227.643738 277.598355 
L 228.752162 275.89198 
L 230.6944 272.284721 
L 231.52655 270.560664 
L 233.468788 265.158617 
L 234.85515 260.746797 
L 236.241512 255.017621 
L 237.629538 249.005523 
L 238.737962 243.081838 
L 240.958138 229.581141 
L 242.066562 221.47365 
L 244.286738 204.056247 
L 245.6731 191.696081 
L 249.279638 157.550899 
L 252.3303 128.498318 
L 254.82675 106.748669 
L 256.49105 93.911071 
L 258.15535 82.762165 
L 259.541712 74.972961 
L 260.929738 68.60721 
L 261.761888 65.415493 
L 262.870312 62.082315 
L 263.9804 59.421078 
L 264.534612 58.483898 
L 265.366762 57.5644 
L 265.922638 57.201906 
L 266.47685 57.09581 
L 267.863212 57.113493 
L 268.419088 57.661655 
L 269.527512 59.120473 
L 271.191812 62.276825 
L 272.3019 65.512748 
L 273.9662 70.764493 
L 275.076288 75.017168 
L 277.849012 87.156302 
L 282.009762 108.419679 
L 283.952 118.764024 
L 290.887138 154.032053 
L 294.492012 170.512276 
L 298.376488 186.364764 
L 304.477812 208.282399 
L 308.638562 221.199569 
L 309.74865 224.240983 
L 311.967162 230.403384 
L 313.07725 232.896636 
L 314.463612 236.592309 
L 315.851638 239.695612 
L 316.683788 241.516924 
L 318.348088 245.327534 
L 319.73445 247.750056 
L 321.676688 251.649078 
L 322.785112 253.26704 
L 325.005288 257.068808 
L 326.113712 258.509943 
L 326.669588 259.234931 
L 328.05595 261.49831 
L 328.8881 262.355918 
L 329.998188 263.699799 
L 330.5524 264.407104 
L 331.38455 265.503428 
L 333.04885 267.086024 
L 334.71315 268.783558 
L 336.931662 270.622553 
L 337.763812 271.382906 
L 338.595962 271.966434 
L 339.428112 272.682581 
L 340.816138 273.575554 
L 342.2025 274.468527 
L 344.144738 275.644423 
L 344.69895 275.971552 
L 345.809038 276.687699 
L 347.1954 277.403846 
L 347.749612 277.43037 
L 348.305488 277.651403 
L 349.413912 278.394074 
L 350.246062 278.721203 
L 350.801938 278.774251 
L 351.910362 279.269365 
L 353.574662 280.082766 
L 354.406812 280.029718 
L 354.962688 280.303799 
L 355.794838 280.701659 
L 357.459138 281.037629 
L 358.01335 281.099518 
L 358.567562 281.391282 
L 359.399712 281.7803 
L 359.955588 281.939444 
L 360.787738 281.965968 
L 361.896162 282.195842 
L 363.00625 282.805893 
L 363.8384 282.735163 
L 364.392612 282.726321 
L 365.5027 283.141863 
L 366.33485 283.504358 
L 368.277088 283.583929 
L 368.553362 283.636977 
L 369.109238 283.928741 
L 369.66345 283.981789 
L 370.217662 283.981789 
L 371.605688 284.211663 
L 371.881962 284.211663 
L 372.99205 284.644888 
L 373.546262 284.556475 
L 375.4885 284.715618 
L 376.042712 284.901286 
L 381.31355 285.467131 
L 384.364212 285.86499 
L 385.4743 285.918038 
L 386.028512 285.847308 
L 387.1386 286.024134 
L 387.97075 286.174436 
L 388.524962 286.280532 
L 389.63505 286.068341 
L 391.577288 286.457359 
L 392.1315 286.439676 
L 392.96365 286.26285 
L 393.7958 286.501565 
L 394.905888 286.837536 
L 395.4601 286.704916 
L 396.014312 286.589979 
L 397.1244 286.740281 
L 398.234488 286.996679 
L 398.7887 286.837536 
L 399.62085 286.634185 
L 400.175062 286.784488 
L 401.007212 286.978997 
L 402.1173 286.987838 
L 403.227388 286.837536 
L 403.7816 287.005521 
L 404.335812 287.235395 
L 404.891688 287.208871 
L 405.723838 287.058569 
L 407.388138 287.235395 
L 407.94235 287.429904 
L 410.160862 287.253078 
L 411.548888 287.438745 
L 412.381038 287.412221 
L 413.489462 287.279602 
L 414.59955 287.527159 
L 415.4317 287.394539 
L 417.373938 287.474111 
L 417.92815 287.562524 
L 424.031138 287.659778 
L 424.58535 287.544841 
L 425.695438 287.650937 
L 427.0818 287.80124 
L 427.91395 287.66862 
L 430.132462 287.925018 
L 431.24255 287.624413 
L 432.0747 287.863129 
L 433.184788 287.907335 
L 433.739 287.978066 
L 434.57115 287.73935 
L 435.125362 287.845446 
L 435.957512 288.048796 
L 437.0676 288.00459 
L 437.89975 287.863129 
L 438.453962 287.898494 
L 439.56405 288.181416 
L 440.118262 288.190258 
L 440.950412 287.907335 
L 441.506288 287.969225 
L 442.614712 288.190258 
L 443.446862 288.216782 
L 444.55695 287.986907 
L 445.111162 288.093003 
L 445.943312 288.322877 
L 446.499188 288.26983 
L 447.331338 288.110686 
L 448.7177 288.057638 
L 449.54985 288.384767 
L 450.659938 288.110686 
L 452.324238 288.26983 
L 452.87845 288.375925 
L 454.264812 288.190258 
L 455.096962 288.26983 
L 455.929112 288.428973 
L 456.761262 288.375925 
L 458.149288 288.322877 
L 458.981438 288.375925 
L 459.53565 288.428973 
L 460.922012 288.358243 
L 461.477888 288.446656 
L 464.52855 288.402449 
L 465.3607 288.526228 
L 466.747062 288.393608 
L 467.302938 288.535069 
L 467.302938 288.535069 
" clip-path="url(#pb07030eac8)" style="fill: none; stroke: #252525; stroke-width: 1.2; stroke-linecap: square"/>
   </g>
   <g id="line2d_14">
    <path d="M 50.672062 287.687105 
L 52.892238 287.572559 
L 54.2786 287.618377 
L 55.664962 287.458013 
L 57.329262 287.613795 
L 58.161412 287.490086 
L 61.213738 287.462595 
L 62.045888 287.366376 
L 64.542338 287.393867 
L 66.206638 287.270158 
L 66.76085 287.357213 
L 67.870938 287.283903 
L 72.863838 287.27474 
L 73.972262 287.219758 
L 75.9145 287.233503 
L 77.5788 287.123539 
L 79.2431 287.123539 
L 80.07525 287.045648 
L 82.017488 287.132703 
L 82.5717 287.123539 
L 83.40385 286.931102 
L 84.790212 287.077721 
L 86.178238 286.986084 
L 87.010388 286.885283 
L 88.950962 286.999829 
L 89.783112 286.871538 
L 90.8932 286.853211 
L 92.279562 286.871538 
L 93.943862 286.734083 
L 95.05395 286.82572 
L 97.272462 286.619537 
L 98.104612 286.770738 
L 100.879 286.559973 
L 101.71115 286.614955 
L 106.70405 286.4271 
L 110.310588 286.294227 
L 114.1934 286.161353 
L 114.747612 286.033062 
L 117.522 286.010153 
L 118.35415 285.877279 
L 120.296388 285.936843 
L 121.404812 285.776479 
L 123.901262 285.730661 
L 125.01135 285.570296 
L 126.397712 285.611533 
L 127.785738 285.455751 
L 129.1721 285.419096 
L 130.00425 285.419096 
L 131.66855 285.194586 
L 132.5007 285.20375 
L 133.33285 285.171677 
L 134.442938 284.97924 
L 135.8293 284.988403 
L 136.66145 284.90593 
L 151.918088 283.297706 
L 152.750238 283.068614 
L 154.1366 282.935741 
L 155.522962 282.706649 
L 156.078838 282.491302 
L 156.910988 282.427157 
L 158.019412 282.317193 
L 160.515862 281.813191 
L 161.348012 281.703227 
L 162.4581 281.368753 
L 164.1224 281.107588 
L 164.95455 280.965551 
L 166.896788 280.466131 
L 168.005212 280.310348 
L 169.669512 279.833837 
L 172.4439 279.26569 
L 174.94035 278.725033 
L 176.050438 278.422632 
L 177.4368 278.010267 
L 179.93325 277.162627 
L 181.043338 276.681534 
L 183.816062 275.252001 
L 185.204088 274.468507 
L 186.868388 273.37803 
L 187.700538 272.635773 
L 189.364838 271.48115 
L 196.854188 265.630145 
L 198.794762 264.480104 
L 201.56915 263.059735 
L 202.679238 262.807734 
L 203.511388 262.427441 
L 204.89775 262.120458 
L 208.504288 262.010494 
L 209.336438 262.042567 
L 211.277012 262.180022 
L 218.21215 262.917698 
L 219.322238 262.894789 
L 220.7086 262.917698 
L 221.818688 262.775661 
L 223.20505 262.528242 
L 224.315138 262.303732 
L 224.86935 262.02424 
L 225.423562 261.666857 
L 226.811588 261.020818 
L 227.920012 260.273978 
L 230.972338 256.938402 
L 232.3587 254.63832 
L 234.023 251.508926 
L 235.965238 246.491815 
L 237.073662 242.922564 
L 237.3516 242.180307 
L 238.461688 237.694689 
L 238.737962 236.778322 
L 239.570112 232.952489 
L 240.6802 227.623813 
L 242.3445 218.295195 
L 244.286738 206.125837 
L 245.118888 199.761667 
L 247.059462 185.182264 
L 247.891612 177.851326 
L 251.49815 146.516148 
L 254.82675 117.820107 
L 257.3232 98.512249 
L 258.9875 87.433369 
L 260.6518 77.751949 
L 260.929738 76.65689 
L 261.48395 73.765751 
L 262.870312 67.859764 
L 263.9804 64.043095 
L 264.81255 61.848395 
L 265.366762 60.602136 
L 266.198912 58.938929 
L 267.309 57.541469 
L 268.14115 57.064958 
L 268.9733 56.941249 
L 269.527512 56.987067 
L 270.359662 57.477323 
L 270.6376 57.701833 
L 272.3019 60.26308 
L 273.411988 62.439452 
L 275.6305 69.119769 
L 276.740588 73.073894 
L 278.9591 82.026802 
L 279.79125 86.026745 
L 282.009762 96.839879 
L 284.78415 111.208517 
L 291.163412 144.124429 
L 291.44135 145.159924 
L 292.2735 149.512668 
L 293.9378 157.434663 
L 294.215738 158.447249 
L 295.047888 162.424283 
L 297.544338 173.338217 
L 301.981362 190.868323 
L 302.537238 192.829349 
L 304.201538 198.753663 
L 307.530138 209.846288 
L 310.858738 219.889674 
L 314.463612 229.465711 
L 318.07015 237.767999 
L 320.012388 241.790851 
L 322.508838 246.491815 
L 326.669588 253.080495 
L 328.8881 256.214471 
L 329.998188 257.570695 
L 331.38455 259.27972 
L 332.494638 260.516816 
L 333.326788 261.323219 
L 334.71315 262.87188 
L 336.099512 264.09523 
L 336.931662 264.800833 
L 338.595962 266.367821 
L 339.70605 267.078005 
L 341.648288 268.622084 
L 343.8668 270.005799 
L 344.69895 270.53271 
L 346.641188 271.508641 
L 347.1954 271.847697 
L 348.02755 272.370026 
L 349.137638 272.805301 
L 350.246062 273.345957 
L 352.742512 274.436434 
L 356.903262 275.966768 
L 360.231862 277.112227 
L 361.34195 277.382555 
L 363.560462 278.14314 
L 364.67055 278.271431 
L 366.889062 278.889979 
L 367.99915 279.105325 
L 370.217662 279.636819 
L 371.049812 279.755946 
L 373.269988 280.310348 
L 374.934288 280.525695 
L 376.042712 280.823514 
L 378.539162 281.217552 
L 379.371312 281.455807 
L 380.759338 281.519953 
L 384.087938 282.028537 
L 384.920088 282.147665 
L 385.752238 282.317193 
L 386.860662 282.404248 
L 387.692812 282.514212 
L 388.8029 282.679158 
L 391.577288 283.031959 
L 394.62795 283.343524 
L 395.182162 283.384761 
L 396.014312 283.421415 
L 398.510762 283.73298 
L 399.342912 283.778798 
L 401.28515 284.090363 
L 402.395238 283.994145 
L 403.7816 284.227818 
L 405.167962 284.314873 
L 406.000112 284.291964 
L 407.664412 284.617275 
L 409.052438 284.617275 
L 410.160862 284.786802 
L 410.993012 284.864694 
L 411.825162 284.768475 
L 413.489462 284.965494 
L 414.321612 285.070876 
L 416.818062 285.263313 
L 417.373938 285.295386 
L 418.482362 285.258732 
L 421.534688 285.460332 
L 427.91395 285.758152 
L 429.57825 285.891025 
L 430.4104 285.808552 
L 433.184788 285.946007 
L 434.016938 285.955171 
L 435.4033 286.124699 
L 438.177688 286.271317 
L 439.286112 286.330881 
L 440.674138 286.243826 
L 442.89265 286.399609 
L 443.7248 286.372118 
L 445.667038 286.555391 
L 447.607612 286.491246 
L 448.439762 286.697428 
L 451.21415 286.656192 
L 452.324238 286.779901 
L 453.432662 286.724919 
L 456.761262 286.848629 
L 457.593412 286.87612 
L 458.425562 286.97692 
L 459.53565 286.963175 
L 460.645738 287.02732 
L 462.310038 287.05023 
L 467.302938 287.215176 
L 467.302938 287.215176 
" clip-path="url(#pb07030eac8)" style="fill: none; stroke: #045a8d; stroke-width: 1.2; stroke-linecap: square"/>
   </g>
   <g id="patch_3">
    <path d="M 50.95 313.64 
L 50.95 33.6 
" style="fill: none; stroke: #000000; stroke-width: 0.5; stroke-linejoin: miter; stroke-linecap: square"/>
   </g>
   <g id="patch_4">
    <path d="M 50.95 313.64 
L 467.025 313.64 
" style="fill: none; stroke: #000000; stroke-width: 0.5; stroke-linejoin: miter; stroke-linecap: square"/>
   </g>
   <g id="legend_1">
    <g id="text_15">
     <!-- Experiment Conditions -->
     <g transform="translate(359.225 48.16875) scale(0.1 -0.1)">
      <defs>
       <path id="Helvetica-45" d="M 547 4591 
L 3894 4591 
L 3894 4028 
L 1153 4028 
L 1153 2634 
L 3688 2634 
L 3688 2103 
L 1153 2103 
L 1153 547 
L 3941 547 
L 3941 0 
L 547 0 
L 547 4591 
z
M 2244 4591 
L 2244 4591 
z
" transform="scale(0.015625)"/>
       <path id="Helvetica-78" d="M 94 3347 
L 822 3347 
L 1591 2169 
L 2369 3347 
L 3053 3331 
L 1925 1716 
L 3103 0 
L 2384 0 
L 1553 1256 
L 747 0 
L 34 0 
L 1213 1716 
L 94 3347 
z
" transform="scale(0.015625)"/>
       <path id="Helvetica-70" d="M 1825 378 
Q 2219 378 2480 708 
Q 2741 1038 2741 1694 
Q 2741 2094 2625 2381 
Q 2406 2934 1825 2934 
Q 1241 2934 1025 2350 
Q 909 2038 909 1556 
Q 909 1169 1025 897 
Q 1244 378 1825 378 
z
M 369 3331 
L 916 3331 
L 916 2888 
Q 1084 3116 1284 3241 
Q 1569 3428 1953 3428 
Q 2522 3428 2919 2992 
Q 3316 2556 3316 1747 
Q 3316 653 2744 184 
Q 2381 -113 1900 -113 
Q 1522 -113 1266 53 
Q 1116 147 931 375 
L 931 -1334 
L 369 -1334 
L 369 3331 
z
" transform="scale(0.015625)"/>
       <path id="Helvetica-43" d="M 2422 4716 
Q 3294 4716 3775 4256 
Q 4256 3797 4309 3213 
L 3703 3213 
Q 3600 3656 3292 3915 
Q 2984 4175 2428 4175 
Q 1750 4175 1333 3698 
Q 916 3222 916 2238 
Q 916 1431 1292 929 
Q 1669 428 2416 428 
Q 3103 428 3463 956 
Q 3653 1234 3747 1688 
L 4353 1688 
Q 4272 963 3816 472 
Q 3269 -119 2341 -119 
Q 1541 -119 997 366 
Q 281 1006 281 2344 
Q 281 3359 819 4009 
Q 1400 4716 2422 4716 
z
M 2297 4716 
L 2297 4716 
z
" transform="scale(0.015625)"/>
      </defs>
      <use xlink:href="#Helvetica-45"/>
      <use xlink:href="#Helvetica-78" x="66.699219"/>
      <use xlink:href="#Helvetica-70" x="116.699219"/>
      <use xlink:href="#Helvetica-65" x="172.314453"/>
      <use xlink:href="#Helvetica-72" x="227.929688"/>
      <use xlink:href="#Helvetica-69" x="261.230469"/>
      <use xlink:href="#Helvetica-6d" x="283.447266"/>
      <use xlink:href="#Helvetica-65" x="366.748047"/>
      <use xlink:href="#Helvetica-6e" x="422.363281"/>
      <use xlink:href="#Helvetica-74" x="477.978516"/>
      <use xlink:href="#Helvetica-20" x="505.761719"/>
      <use xlink:href="#Helvetica-43" x="533.544922"/>
      <use xlink:href="#Helvetica-6f" x="605.761719"/>
      <use xlink:href="#Helvetica-6e" x="661.376953"/>
      <use xlink:href="#Helvetica-64" x="716.992188"/>
      <use xlink:href="#Helvetica-69" x="772.607422"/>
      <use xlink:href="#Helvetica-74" x="794.824219"/>
      <use xlink:href="#Helvetica-69" x="822.607422"/>
      <use xlink:href="#Helvetica-6f" x="844.824219"/>
      <use xlink:href="#Helvetica-6e" x="900.439453"/>
      <use xlink:href="#Helvetica-73" x="956.054688"/>
     </g>
    </g>
    <g id="line2d_15">
     <path d="M 370.759375 57.191875 
L 378.759375 57.191875 
L 386.759375 57.191875 
" style="fill: none; stroke: #252525; stroke-width: 1.2; stroke-linecap: square"/>
    </g>
    <g id="text_16">
     <!-- PS-110K -->
     <g transform="translate(393.159375 59.991875) scale(0.08 -0.08)">
      <defs>
       <path id="Helvetica-50" d="M 547 4591 
L 2613 4591 
Q 3225 4591 3600 4245 
Q 3975 3900 3975 3275 
Q 3975 2738 3640 2339 
Q 3306 1941 2613 1941 
L 1169 1941 
L 1169 0 
L 547 0 
L 547 4591 
z
M 3347 3272 
Q 3347 3778 2972 3959 
Q 2766 4056 2406 4056 
L 1169 4056 
L 1169 2466 
L 2406 2466 
Q 2825 2466 3086 2644 
Q 3347 2822 3347 3272 
z
" transform="scale(0.015625)"/>
       <path id="Helvetica-53" d="M 894 1481 
Q 916 1091 1078 847 
Q 1388 391 2169 391 
Q 2519 391 2806 491 
Q 3363 684 3363 1184 
Q 3363 1559 3128 1719 
Q 2891 1875 2384 1991 
L 1763 2131 
Q 1153 2269 900 2434 
Q 463 2722 463 3294 
Q 463 3913 891 4309 
Q 1319 4706 2103 4706 
Q 2825 4706 3329 4357 
Q 3834 4009 3834 3244 
L 3250 3244 
Q 3203 3613 3050 3809 
Q 2766 4169 2084 4169 
Q 1534 4169 1293 3937 
Q 1053 3706 1053 3400 
Q 1053 3063 1334 2906 
Q 1519 2806 2169 2656 
L 2813 2509 
Q 3278 2403 3531 2219 
Q 3969 1897 3969 1284 
Q 3969 522 3414 194 
Q 2859 -134 2125 -134 
Q 1269 -134 784 303 
Q 300 738 309 1481 
L 894 1481 
z
M 2150 4716 
L 2150 4716 
z
" transform="scale(0.015625)"/>
       <path id="Helvetica-2d" d="M 266 2072 
L 1834 2072 
L 1834 1494 
L 266 1494 
L 266 2072 
z
" transform="scale(0.015625)"/>
       <path id="Helvetica-4b" d="M 488 4591 
L 1094 4591 
L 1094 2353 
L 3331 4591 
L 4191 4591 
L 2281 2741 
L 4244 0 
L 3434 0 
L 1828 2303 
L 1094 1600 
L 1094 0 
L 488 0 
L 488 4591 
z
" transform="scale(0.015625)"/>
      </defs>
      <use xlink:href="#Helvetica-50"/>
      <use xlink:href="#Helvetica-53" x="66.699219"/>
      <use xlink:href="#Helvetica-2d" x="133.398438"/>
      <use xlink:href="#Helvetica-31" x="166.699219"/>
      <use xlink:href="#Helvetica-31" x="222.314453"/>
      <use xlink:href="#Helvetica-30" x="277.929688"/>
      <use xlink:href="#Helvetica-4b" x="333.544922"/>
     </g>
    </g>
    <g id="line2d_16">
     <path d="M 370.759375 68.598125 
L 378.759375 68.598125 
L 386.759375 68.598125 
" style="fill: none; stroke: #045a8d; stroke-width: 1.2; stroke-linecap: square"/>
    </g>
    <g id="text_17">
     <!-- PS-110K-SCF3 -->
     <g transform="translate(393.159375 71.398125) scale(0.08 -0.08)">
      <defs>
       <path id="Helvetica-46" d="M 547 4591 
L 3731 4591 
L 3731 4028 
L 1169 4028 
L 1169 2634 
L 3422 2634 
L 3422 2088 
L 1169 2088 
L 1169 0 
L 547 0 
L 547 4591 
z
" transform="scale(0.015625)"/>
       <path id="Helvetica-33" d="M 1663 -122 
Q 869 -122 511 314 
Q 153 750 153 1375 
L 741 1375 
Q 778 941 903 744 
Q 1122 391 1694 391 
Q 2138 391 2406 628 
Q 2675 866 2675 1241 
Q 2675 1703 2392 1887 
Q 2109 2072 1606 2072 
Q 1550 2072 1492 2070 
Q 1434 2069 1375 2066 
L 1375 2563 
Q 1463 2553 1522 2550 
Q 1581 2547 1650 2547 
Q 1966 2547 2169 2647 
Q 2525 2822 2525 3272 
Q 2525 3606 2287 3787 
Q 2050 3969 1734 3969 
Q 1172 3969 956 3594 
Q 838 3388 822 3006 
L 266 3006 
Q 266 3506 466 3856 
Q 809 4481 1675 4481 
Q 2359 4481 2734 4176 
Q 3109 3872 3109 3294 
Q 3109 2881 2888 2625 
Q 2750 2466 2531 2375 
Q 2884 2278 3082 2001 
Q 3281 1725 3281 1325 
Q 3281 684 2859 281 
Q 2438 -122 1663 -122 
z
" transform="scale(0.015625)"/>
      </defs>
      <use xlink:href="#Helvetica-50"/>
      <use xlink:href="#Helvetica-53" x="66.699219"/>
      <use xlink:href="#Helvetica-2d" x="133.398438"/>
      <use xlink:href="#Helvetica-31" x="166.699219"/>
      <use xlink:href="#Helvetica-31" x="222.314453"/>
      <use xlink:href="#Helvetica-30" x="277.929688"/>
      <use xlink:href="#Helvetica-4b" x="333.544922"/>
      <use xlink:href="#Helvetica-2d" x="400.244141"/>
      <use xlink:href="#Helvetica-53" x="433.544922"/>
      <use xlink:href="#Helvetica-43" x="500.244141"/>
      <use xlink:href="#Helvetica-46" x="572.460938"/>
      <use xlink:href="#Helvetica-33" x="633.544922"/>
     </g>
    </g>
   </g>
   <g id="legend_2">
    <g id="text_18">
     <!-- GPC Data -->
     <g transform="translate(363.251094 164.758281) scale(0.1 -0.1)">
      <defs>
       <path id="Helvetica-47" d="M 2472 4709 
Q 3119 4709 3591 4459 
Q 4275 4100 4428 3200 
L 3813 3200 
Q 3700 3703 3347 3933 
Q 2994 4163 2456 4163 
Q 1819 4163 1383 3684 
Q 947 3206 947 2259 
Q 947 1441 1306 927 
Q 1666 413 2478 413 
Q 3100 413 3508 773 
Q 3916 1134 3925 1941 
L 2488 1941 
L 2488 2456 
L 4503 2456 
L 4503 0 
L 4103 0 
L 3953 591 
Q 3638 244 3394 109 
Q 2984 -122 2353 -122 
Q 1538 -122 950 406 
Q 309 1069 309 2225 
Q 309 3378 934 4059 
Q 1528 4709 2472 4709 
z
M 2369 4716 
L 2369 4716 
z
" transform="scale(0.015625)"/>
       <path id="Helvetica-44" d="M 2250 531 
Q 2566 531 2769 597 
Q 3131 719 3363 1066 
Q 3547 1344 3628 1778 
Q 3675 2038 3675 2259 
Q 3675 3113 3336 3584 
Q 2997 4056 2244 4056 
L 1141 4056 
L 1141 531 
L 2250 531 
z
M 516 4591 
L 2375 4591 
Q 3322 4591 3844 3919 
Q 4309 3313 4309 2366 
Q 4309 1634 4034 1044 
Q 3550 0 2369 0 
L 516 0 
L 516 4591 
z
" transform="scale(0.015625)"/>
      </defs>
      <use xlink:href="#Helvetica-47"/>
      <use xlink:href="#Helvetica-50" x="77.783203"/>
      <use xlink:href="#Helvetica-43" x="144.482422"/>
      <use xlink:href="#Helvetica-20" x="216.699219"/>
      <use xlink:href="#Helvetica-44" x="244.482422"/>
      <use xlink:href="#Helvetica-61" x="316.699219"/>
      <use xlink:href="#Helvetica-74" x="372.314453"/>
      <use xlink:href="#Helvetica-61" x="400.097656"/>
     </g>
    </g>
    <g id="line2d_17">
     <path d="M 312.2475 173.781406 
L 320.2475 173.781406 
L 328.2475 173.781406 
" style="fill: none; stroke: #252525; stroke-width: 1.2; stroke-linecap: square"/>
    </g>
    <g id="text_19">
     <!-- Mn=94.0k, Mw=103.0k, Mp=111.2k -->
     <g transform="translate(334.6475 176.581406) scale(0.08 -0.08)">
      <defs>
       <path id="Helvetica-4d" d="M 472 4591 
L 1363 4591 
L 2681 709 
L 3991 4591 
L 4872 4591 
L 4872 0 
L 4281 0 
L 4281 2709 
Q 4281 2850 4287 3175 
Q 4294 3500 4294 3872 
L 2984 0 
L 2369 0 
L 1050 3872 
L 1050 3731 
Q 1050 3563 1058 3217 
Q 1066 2872 1066 2709 
L 1066 0 
L 472 0 
L 472 4591 
z
" transform="scale(0.015625)"/>
       <path id="Helvetica-3d" d="M 3547 2569 
L 3547 2044 
L 288 2044 
L 288 2569 
L 3547 2569 
z
M 3547 1228 
L 3547 694 
L 288 694 
L 288 1228 
L 3547 1228 
z
" transform="scale(0.015625)"/>
       <path id="Helvetica-39" d="M 850 1081 
Q 875 616 1209 438 
Q 1381 344 1597 344 
Q 2000 344 2284 680 
Q 2569 1016 2688 2044 
Q 2500 1747 2223 1626 
Q 1947 1506 1628 1506 
Q 981 1506 604 1909 
Q 228 2313 228 2947 
Q 228 3556 600 4018 
Q 972 4481 1697 4481 
Q 2675 4481 3047 3600 
Q 3253 3116 3253 2388 
Q 3253 1566 3006 931 
Q 2597 -125 1619 -125 
Q 963 -125 622 219 
Q 281 563 281 1081 
L 850 1081 
z
M 1703 2000 
Q 2038 2000 2314 2220 
Q 2591 2441 2591 2991 
Q 2591 3484 2342 3726 
Q 2094 3969 1709 3969 
Q 1297 3969 1055 3692 
Q 813 3416 813 2953 
Q 813 2516 1025 2258 
Q 1238 2000 1703 2000 
z
" transform="scale(0.015625)"/>
       <path id="Helvetica-6b" d="M 400 4591 
L 941 4591 
L 941 1925 
L 2384 3347 
L 3103 3347 
L 1822 2094 
L 3175 0 
L 2456 0 
L 1413 1688 
L 941 1256 
L 941 0 
L 400 0 
L 400 4591 
z
" transform="scale(0.015625)"/>
       <path id="Helvetica-2c" d="M 531 -653 
Q 747 -616 834 -350 
Q 881 -209 881 -78 
Q 881 -56 879 -39 
Q 878 -22 872 0 
L 531 0 
L 531 681 
L 1200 681 
L 1200 50 
Q 1200 -322 1050 -603 
Q 900 -884 531 -950 
L 531 -653 
z
" transform="scale(0.015625)"/>
       <path id="Helvetica-77" d="M 672 3347 
L 1316 709 
L 1969 3347 
L 2600 3347 
L 3256 725 
L 3941 3347 
L 4503 3347 
L 3531 0 
L 2947 0 
L 2266 2591 
L 1606 0 
L 1022 0 
L 56 3347 
L 672 3347 
z
" transform="scale(0.015625)"/>
      </defs>
      <use xlink:href="#Helvetica-4d"/>
      <use xlink:href="#Helvetica-6e" x="83.300781"/>
      <use xlink:href="#Helvetica-3d" x="138.916016"/>
      <use xlink:href="#Helvetica-39" x="197.314453"/>
      <use xlink:href="#Helvetica-34" x="252.929688"/>
      <use xlink:href="#Helvetica-2e" x="308.544922"/>
      <use xlink:href="#Helvetica-30" x="336.328125"/>
      <use xlink:href="#Helvetica-6b" x="391.943359"/>
      <use xlink:href="#Helvetica-2c" x="441.943359"/>
      <use xlink:href="#Helvetica-20" x="469.726562"/>
      <use xlink:href="#Helvetica-4d" x="497.509766"/>
      <use xlink:href="#Helvetica-77" x="580.810547"/>
      <use xlink:href="#Helvetica-3d" x="653.027344"/>
      <use xlink:href="#Helvetica-31" x="711.425781"/>
      <use xlink:href="#Helvetica-30" x="767.041016"/>
      <use xlink:href="#Helvetica-33" x="822.65625"/>
      <use xlink:href="#Helvetica-2e" x="878.271484"/>
      <use xlink:href="#Helvetica-30" x="906.054688"/>
      <use xlink:href="#Helvetica-6b" x="961.669922"/>
      <use xlink:href="#Helvetica-2c" x="1011.669922"/>
      <use xlink:href="#Helvetica-20" x="1039.453125"/>
      <use xlink:href="#Helvetica-4d" x="1067.236328"/>
      <use xlink:href="#Helvetica-70" x="1150.537109"/>
      <use xlink:href="#Helvetica-3d" x="1206.152344"/>
      <use xlink:href="#Helvetica-31" x="1264.550781"/>
      <use xlink:href="#Helvetica-31" x="1320.166016"/>
      <use xlink:href="#Helvetica-31" x="1375.78125"/>
      <use xlink:href="#Helvetica-2e" x="1431.396484"/>
      <use xlink:href="#Helvetica-32" x="1459.179688"/>
      <use xlink:href="#Helvetica-6b" x="1514.794922"/>
     </g>
    </g>
    <g id="line2d_18">
     <path d="M 312.2475 185.187656 
L 320.2475 185.187656 
L 328.2475 185.187656 
" style="fill: none; stroke: #045a8d; stroke-width: 1.2; stroke-linecap: square"/>
    </g>
    <g id="text_20">
     <!-- Mn=84.9k, Mw=100k, Mp=109k -->
     <g transform="translate(334.6475 187.987656) scale(0.08 -0.08)">
      <use xlink:href="#Helvetica-4d"/>
      <use xlink:href="#Helvetica-6e" x="83.300781"/>
      <use xlink:href="#Helvetica-3d" x="138.916016"/>
      <use xlink:href="#Helvetica-38" x="197.314453"/>
      <use xlink:href="#Helvetica-34" x="252.929688"/>
      <use xlink:href="#Helvetica-2e" x="308.544922"/>
      <use xlink:href="#Helvetica-39" x="336.328125"/>
      <use xlink:href="#Helvetica-6b" x="391.943359"/>
      <use xlink:href="#Helvetica-2c" x="441.943359"/>
      <use xlink:href="#Helvetica-20" x="469.726562"/>
      <use xlink:href="#Helvetica-4d" x="497.509766"/>
      <use xlink:href="#Helvetica-77" x="580.810547"/>
      <use xlink:href="#Helvetica-3d" x="653.027344"/>
      <use xlink:href="#Helvetica-31" x="711.425781"/>
      <use xlink:href="#Helvetica-30" x="767.041016"/>
      <use xlink:href="#Helvetica-30" x="822.65625"/>
      <use xlink:href="#Helvetica-6b" x="878.271484"/>
      <use xlink:href="#Helvetica-2c" x="928.271484"/>
      <use xlink:href="#Helvetica-20" x="956.054688"/>
      <use xlink:href="#Helvetica-4d" x="983.837891"/>
      <use xlink:href="#Helvetica-70" x="1067.138672"/>
      <use xlink:href="#Helvetica-3d" x="1122.753906"/>
      <use xlink:href="#Helvetica-31" x="1181.152344"/>
      <use xlink:href="#Helvetica-30" x="1236.767578"/>
      <use xlink:href="#Helvetica-39" x="1292.382812"/>
      <use xlink:href="#Helvetica-6b" x="1347.998047"/>
     </g>
    </g>
   </g>
  </g>
 </g>
 <defs>
  <clipPath id="pb07030eac8">
   <rect x="50.95" y="33.6" width="416.075" height="280.04"/>
  </clipPath>
 </defs>
</svg>
