<?xml version="1.0" encoding="utf-8" standalone="no"?>
<!DOCTYPE svg PUBLIC "-//W3C//DTD SVG 1.1//EN"
  "http://www.w3.org/Graphics/SVG/1.1/DTD/svg11.dtd">
<svg xmlns:xlink="http://www.w3.org/1999/xlink" width="504pt" height="360pt" viewBox="0 0 504 360" xmlns="http://www.w3.org/2000/svg" version="1.1">
 <metadata>
  <rdf:RDF xmlns:dc="http://purl.org/dc/elements/1.1/" xmlns:cc="http://creativecommons.org/ns#" xmlns:rdf="http://www.w3.org/1999/02/22-rdf-syntax-ns#">
   <cc:Work>
    <dc:type rdf:resource="http://purl.org/dc/dcmitype/StillImage"/>
    <dc:date>2025-02-24T23:34:36.543243</dc:date>
    <dc:format>image/svg+xml</dc:format>
    <dc:creator>
     <cc:Agent>
      <dc:title>Matplotlib v3.7.1, https://matplotlib.org/</dc:title>
     </cc:Agent>
    </dc:creator>
   </cc:Work>
  </rdf:RDF>
 </metadata>
 <defs>
  <style type="text/css">*{stroke-linejoin: round; stroke-linecap: butt}</style>
 </defs>
 <g id="figure_1">
  <g id="patch_1">
   <path d="M 0 360 
L 504 360 
L 504 0 
L 0 0 
z
" style="fill: #ffffff"/>
  </g>
  <g id="axes_1">
   <g id="patch_2">
    <path d="M 52.93 312.92 
L 466.035 312.92 
L 466.035 33.96 
L 52.93 33.96 
z
" style="fill: #ffffff"/>
   </g>
   <g id="matplotlib.axis_1">
    <g id="xtick_1">
     <g id="line2d_1">
      <defs>
       <path id="m962a5b2961" d="M 0 0 
L 0 -3.5 
" style="stroke: #000000; stroke-width: 0.8"/>
      </defs>
      <g>
       <use xlink:href="#m962a5b2961" x="74.672368" y="312.92" style="stroke: #000000; stroke-width: 0.8"/>
      </g>
     </g>
     <g id="text_1">
      <!-- 6.00 -->
      <g transform="translate(61.312993 325.538125) scale(0.12 -0.12)">
       <defs>
        <path id="DejaVuSans-36" d="M 2113 2584 
Q 1688 2584 1439 2293 
Q 1191 2003 1191 1497 
Q 1191 994 1439 701 
Q 1688 409 2113 409 
Q 2538 409 2786 701 
Q 3034 994 3034 1497 
Q 3034 2003 2786 2293 
Q 2538 2584 2113 2584 
z
M 3366 4563 
L 3366 3988 
Q 3128 4100 2886 4159 
Q 2644 4219 2406 4219 
Q 1781 4219 1451 3797 
Q 1122 3375 1075 2522 
Q 1259 2794 1537 2939 
Q 1816 3084 2150 3084 
Q 2853 3084 3261 2657 
Q 3669 2231 3669 1497 
Q 3669 778 3244 343 
Q 2819 -91 2113 -91 
Q 1303 -91 875 529 
Q 447 1150 447 2328 
Q 447 3434 972 4092 
Q 1497 4750 2381 4750 
Q 2619 4750 2861 4703 
Q 3103 4656 3366 4563 
z
" transform="scale(0.015625)"/>
        <path id="DejaVuSans-2e" d="M 684 794 
L 1344 794 
L 1344 0 
L 684 0 
L 684 794 
z
" transform="scale(0.015625)"/>
        <path id="DejaVuSans-30" d="M 2034 4250 
Q 1547 4250 1301 3770 
Q 1056 3291 1056 2328 
Q 1056 1369 1301 889 
Q 1547 409 2034 409 
Q 2525 409 2770 889 
Q 3016 1369 3016 2328 
Q 3016 3291 2770 3770 
Q 2525 4250 2034 4250 
z
M 2034 4750 
Q 2819 4750 3233 4129 
Q 3647 3509 3647 2328 
Q 3647 1150 3233 529 
Q 2819 -91 2034 -91 
Q 1250 -91 836 529 
Q 422 1150 422 2328 
Q 422 3509 836 4129 
Q 1250 4750 2034 4750 
z
" transform="scale(0.015625)"/>
       </defs>
       <use xlink:href="#DejaVuSans-36"/>
       <use xlink:href="#DejaVuSans-2e" x="63.623047"/>
       <use xlink:href="#DejaVuSans-30" x="95.410156"/>
       <use xlink:href="#DejaVuSans-30" x="159.033203"/>
      </g>
     </g>
    </g>
    <g id="xtick_2">
     <g id="line2d_2">
      <g>
       <use xlink:href="#m962a5b2961" x="129.028289" y="312.92" style="stroke: #000000; stroke-width: 0.8"/>
      </g>
     </g>
     <g id="text_2">
      <!-- 6.25 -->
      <g transform="translate(115.668914 325.538125) scale(0.12 -0.12)">
       <defs>
        <path id="DejaVuSans-32" d="M 1228 531 
L 3431 531 
L 3431 0 
L 469 0 
L 469 531 
Q 828 903 1448 1529 
Q 2069 2156 2228 2338 
Q 2531 2678 2651 2914 
Q 2772 3150 2772 3378 
Q 2772 3750 2511 3984 
Q 2250 4219 1831 4219 
Q 1534 4219 1204 4116 
Q 875 4013 500 3803 
L 500 4441 
Q 881 4594 1212 4672 
Q 1544 4750 1819 4750 
Q 2544 4750 2975 4387 
Q 3406 4025 3406 3419 
Q 3406 3131 3298 2873 
Q 3191 2616 2906 2266 
Q 2828 2175 2409 1742 
Q 1991 1309 1228 531 
z
" transform="scale(0.015625)"/>
        <path id="DejaVuSans-35" d="M 691 4666 
L 3169 4666 
L 3169 4134 
L 1269 4134 
L 1269 2991 
Q 1406 3038 1543 3061 
Q 1681 3084 1819 3084 
Q 2600 3084 3056 2656 
Q 3513 2228 3513 1497 
Q 3513 744 3044 326 
Q 2575 -91 1722 -91 
Q 1428 -91 1123 -41 
Q 819 9 494 109 
L 494 744 
Q 775 591 1075 516 
Q 1375 441 1709 441 
Q 2250 441 2565 725 
Q 2881 1009 2881 1497 
Q 2881 1984 2565 2268 
Q 2250 2553 1709 2553 
Q 1456 2553 1204 2497 
Q 953 2441 691 2322 
L 691 4666 
z
" transform="scale(0.015625)"/>
       </defs>
       <use xlink:href="#DejaVuSans-36"/>
       <use xlink:href="#DejaVuSans-2e" x="63.623047"/>
       <use xlink:href="#DejaVuSans-32" x="95.410156"/>
       <use xlink:href="#DejaVuSans-35" x="159.033203"/>
      </g>
     </g>
    </g>
    <g id="xtick_3">
     <g id="line2d_3">
      <g>
       <use xlink:href="#m962a5b2961" x="183.384211" y="312.92" style="stroke: #000000; stroke-width: 0.8"/>
      </g>
     </g>
     <g id="text_3">
      <!-- 6.50 -->
      <g transform="translate(170.024836 325.538125) scale(0.12 -0.12)">
       <use xlink:href="#DejaVuSans-36"/>
       <use xlink:href="#DejaVuSans-2e" x="63.623047"/>
       <use xlink:href="#DejaVuSans-35" x="95.410156"/>
       <use xlink:href="#DejaVuSans-30" x="159.033203"/>
      </g>
     </g>
    </g>
    <g id="xtick_4">
     <g id="line2d_4">
      <g>
       <use xlink:href="#m962a5b2961" x="237.740132" y="312.92" style="stroke: #000000; stroke-width: 0.8"/>
      </g>
     </g>
     <g id="text_4">
      <!-- 6.75 -->
      <g transform="translate(224.380757 325.538125) scale(0.12 -0.12)">
       <defs>
        <path id="DejaVuSans-37" d="M 525 4666 
L 3525 4666 
L 3525 4397 
L 1831 0 
L 1172 0 
L 2766 4134 
L 525 4134 
L 525 4666 
z
" transform="scale(0.015625)"/>
       </defs>
       <use xlink:href="#DejaVuSans-36"/>
       <use xlink:href="#DejaVuSans-2e" x="63.623047"/>
       <use xlink:href="#DejaVuSans-37" x="95.410156"/>
       <use xlink:href="#DejaVuSans-35" x="159.033203"/>
      </g>
     </g>
    </g>
    <g id="xtick_5">
     <g id="line2d_5">
      <g>
       <use xlink:href="#m962a5b2961" x="292.096053" y="312.92" style="stroke: #000000; stroke-width: 0.8"/>
      </g>
     </g>
     <g id="text_5">
      <!-- 7.00 -->
      <g transform="translate(278.736678 325.538125) scale(0.12 -0.12)">
       <use xlink:href="#DejaVuSans-37"/>
       <use xlink:href="#DejaVuSans-2e" x="63.623047"/>
       <use xlink:href="#DejaVuSans-30" x="95.410156"/>
       <use xlink:href="#DejaVuSans-30" x="159.033203"/>
      </g>
     </g>
    </g>
    <g id="xtick_6">
     <g id="line2d_6">
      <g>
       <use xlink:href="#m962a5b2961" x="346.451974" y="312.92" style="stroke: #000000; stroke-width: 0.8"/>
      </g>
     </g>
     <g id="text_6">
      <!-- 7.25 -->
      <g transform="translate(333.092599 325.538125) scale(0.12 -0.12)">
       <use xlink:href="#DejaVuSans-37"/>
       <use xlink:href="#DejaVuSans-2e" x="63.623047"/>
       <use xlink:href="#DejaVuSans-32" x="95.410156"/>
       <use xlink:href="#DejaVuSans-35" x="159.033203"/>
      </g>
     </g>
    </g>
    <g id="xtick_7">
     <g id="line2d_7">
      <g>
       <use xlink:href="#m962a5b2961" x="400.807895" y="312.92" style="stroke: #000000; stroke-width: 0.8"/>
      </g>
     </g>
     <g id="text_7">
      <!-- 7.50 -->
      <g transform="translate(387.44852 325.538125) scale(0.12 -0.12)">
       <use xlink:href="#DejaVuSans-37"/>
       <use xlink:href="#DejaVuSans-2e" x="63.623047"/>
       <use xlink:href="#DejaVuSans-35" x="95.410156"/>
       <use xlink:href="#DejaVuSans-30" x="159.033203"/>
      </g>
     </g>
    </g>
    <g id="xtick_8">
     <g id="line2d_8">
      <g>
       <use xlink:href="#m962a5b2961" x="455.163816" y="312.92" style="stroke: #000000; stroke-width: 0.8"/>
      </g>
     </g>
     <g id="text_8">
      <!-- 7.75 -->
      <g transform="translate(441.804441 325.538125) scale(0.12 -0.12)">
       <use xlink:href="#DejaVuSans-37"/>
       <use xlink:href="#DejaVuSans-2e" x="63.623047"/>
       <use xlink:href="#DejaVuSans-37" x="95.410156"/>
       <use xlink:href="#DejaVuSans-35" x="159.033203"/>
      </g>
     </g>
    </g>
    <g id="text_9">
     <!-- Retention Time (min) -->
     <g transform="translate(196.0625 341.151875) scale(0.12 -0.12)">
      <defs>
       <path id="DejaVuSans-52" d="M 2841 2188 
Q 3044 2119 3236 1894 
Q 3428 1669 3622 1275 
L 4263 0 
L 3584 0 
L 2988 1197 
Q 2756 1666 2539 1819 
Q 2322 1972 1947 1972 
L 1259 1972 
L 1259 0 
L 628 0 
L 628 4666 
L 2053 4666 
Q 2853 4666 3247 4331 
Q 3641 3997 3641 3322 
Q 3641 2881 3436 2590 
Q 3231 2300 2841 2188 
z
M 1259 4147 
L 1259 2491 
L 2053 2491 
Q 2509 2491 2742 2702 
Q 2975 2913 2975 3322 
Q 2975 3731 2742 3939 
Q 2509 4147 2053 4147 
L 1259 4147 
z
" transform="scale(0.015625)"/>
       <path id="DejaVuSans-65" d="M 3597 1894 
L 3597 1613 
L 953 1613 
Q 991 1019 1311 708 
Q 1631 397 2203 397 
Q 2534 397 2845 478 
Q 3156 559 3463 722 
L 3463 178 
Q 3153 47 2828 -22 
Q 2503 -91 2169 -91 
Q 1331 -91 842 396 
Q 353 884 353 1716 
Q 353 2575 817 3079 
Q 1281 3584 2069 3584 
Q 2775 3584 3186 3129 
Q 3597 2675 3597 1894 
z
M 3022 2063 
Q 3016 2534 2758 2815 
Q 2500 3097 2075 3097 
Q 1594 3097 1305 2825 
Q 1016 2553 972 2059 
L 3022 2063 
z
" transform="scale(0.015625)"/>
       <path id="DejaVuSans-74" d="M 1172 4494 
L 1172 3500 
L 2356 3500 
L 2356 3053 
L 1172 3053 
L 1172 1153 
Q 1172 725 1289 603 
Q 1406 481 1766 481 
L 2356 481 
L 2356 0 
L 1766 0 
Q 1100 0 847 248 
Q 594 497 594 1153 
L 594 3053 
L 172 3053 
L 172 3500 
L 594 3500 
L 594 4494 
L 1172 4494 
z
" transform="scale(0.015625)"/>
       <path id="DejaVuSans-6e" d="M 3513 2113 
L 3513 0 
L 2938 0 
L 2938 2094 
Q 2938 2591 2744 2837 
Q 2550 3084 2163 3084 
Q 1697 3084 1428 2787 
Q 1159 2491 1159 1978 
L 1159 0 
L 581 0 
L 581 3500 
L 1159 3500 
L 1159 2956 
Q 1366 3272 1645 3428 
Q 1925 3584 2291 3584 
Q 2894 3584 3203 3211 
Q 3513 2838 3513 2113 
z
" transform="scale(0.015625)"/>
       <path id="DejaVuSans-69" d="M 603 3500 
L 1178 3500 
L 1178 0 
L 603 0 
L 603 3500 
z
M 603 4863 
L 1178 4863 
L 1178 4134 
L 603 4134 
L 603 4863 
z
" transform="scale(0.015625)"/>
       <path id="DejaVuSans-6f" d="M 1959 3097 
Q 1497 3097 1228 2736 
Q 959 2375 959 1747 
Q 959 1119 1226 758 
Q 1494 397 1959 397 
Q 2419 397 2687 759 
Q 2956 1122 2956 1747 
Q 2956 2369 2687 2733 
Q 2419 3097 1959 3097 
z
M 1959 3584 
Q 2709 3584 3137 3096 
Q 3566 2609 3566 1747 
Q 3566 888 3137 398 
Q 2709 -91 1959 -91 
Q 1206 -91 779 398 
Q 353 888 353 1747 
Q 353 2609 779 3096 
Q 1206 3584 1959 3584 
z
" transform="scale(0.015625)"/>
       <path id="DejaVuSans-20" transform="scale(0.015625)"/>
       <path id="DejaVuSans-54" d="M -19 4666 
L 3928 4666 
L 3928 4134 
L 2272 4134 
L 2272 0 
L 1638 0 
L 1638 4134 
L -19 4134 
L -19 4666 
z
" transform="scale(0.015625)"/>
       <path id="DejaVuSans-6d" d="M 3328 2828 
Q 3544 3216 3844 3400 
Q 4144 3584 4550 3584 
Q 5097 3584 5394 3201 
Q 5691 2819 5691 2113 
L 5691 0 
L 5113 0 
L 5113 2094 
Q 5113 2597 4934 2840 
Q 4756 3084 4391 3084 
Q 3944 3084 3684 2787 
Q 3425 2491 3425 1978 
L 3425 0 
L 2847 0 
L 2847 2094 
Q 2847 2600 2669 2842 
Q 2491 3084 2119 3084 
Q 1678 3084 1418 2786 
Q 1159 2488 1159 1978 
L 1159 0 
L 581 0 
L 581 3500 
L 1159 3500 
L 1159 2956 
Q 1356 3278 1631 3431 
Q 1906 3584 2284 3584 
Q 2666 3584 2933 3390 
Q 3200 3197 3328 2828 
z
" transform="scale(0.015625)"/>
       <path id="DejaVuSans-28" d="M 1984 4856 
Q 1566 4138 1362 3434 
Q 1159 2731 1159 2009 
Q 1159 1288 1364 580 
Q 1569 -128 1984 -844 
L 1484 -844 
Q 1016 -109 783 600 
Q 550 1309 550 2009 
Q 550 2706 781 3412 
Q 1013 4119 1484 4856 
L 1984 4856 
z
" transform="scale(0.015625)"/>
       <path id="DejaVuSans-29" d="M 513 4856 
L 1013 4856 
Q 1481 4119 1714 3412 
Q 1947 2706 1947 2009 
Q 1947 1309 1714 600 
Q 1481 -109 1013 -844 
L 513 -844 
Q 928 -128 1133 580 
Q 1338 1288 1338 2009 
Q 1338 2731 1133 3434 
Q 928 4138 513 4856 
z
" transform="scale(0.015625)"/>
      </defs>
      <use xlink:href="#DejaVuSans-52"/>
      <use xlink:href="#DejaVuSans-65" x="64.982422"/>
      <use xlink:href="#DejaVuSans-74" x="126.505859"/>
      <use xlink:href="#DejaVuSans-65" x="165.714844"/>
      <use xlink:href="#DejaVuSans-6e" x="227.238281"/>
      <use xlink:href="#DejaVuSans-74" x="290.617188"/>
      <use xlink:href="#DejaVuSans-69" x="329.826172"/>
      <use xlink:href="#DejaVuSans-6f" x="357.609375"/>
      <use xlink:href="#DejaVuSans-6e" x="418.791016"/>
      <use xlink:href="#DejaVuSans-20" x="482.169922"/>
      <use xlink:href="#DejaVuSans-54" x="513.957031"/>
      <use xlink:href="#DejaVuSans-69" x="571.916016"/>
      <use xlink:href="#DejaVuSans-6d" x="599.699219"/>
      <use xlink:href="#DejaVuSans-65" x="697.111328"/>
      <use xlink:href="#DejaVuSans-20" x="758.634766"/>
      <use xlink:href="#DejaVuSans-28" x="790.421875"/>
      <use xlink:href="#DejaVuSans-6d" x="829.435547"/>
      <use xlink:href="#DejaVuSans-69" x="926.847656"/>
      <use xlink:href="#DejaVuSans-6e" x="954.630859"/>
      <use xlink:href="#DejaVuSans-29" x="1018.009766"/>
     </g>
    </g>
   </g>
   <g id="matplotlib.axis_2">
    <g id="ytick_1">
     <g id="line2d_9">
      <defs>
       <path id="m7a5e08babe" d="M 0 0 
L 3.5 0 
" style="stroke: #000000; stroke-width: 0.8"/>
      </defs>
      <g>
       <use xlink:href="#m7a5e08babe" x="52.93" y="289.673333" style="stroke: #000000; stroke-width: 0.8"/>
      </g>
     </g>
     <g id="text_10">
      <!-- 0.0 -->
      <g transform="translate(30.34625 294.232396) scale(0.12 -0.12)">
       <use xlink:href="#DejaVuSans-30"/>
       <use xlink:href="#DejaVuSans-2e" x="63.623047"/>
       <use xlink:href="#DejaVuSans-30" x="95.410156"/>
      </g>
     </g>
    </g>
    <g id="ytick_2">
     <g id="line2d_10">
      <g>
       <use xlink:href="#m7a5e08babe" x="52.93" y="243.18" style="stroke: #000000; stroke-width: 0.8"/>
      </g>
     </g>
     <g id="text_11">
      <!-- 0.2 -->
      <g transform="translate(30.34625 247.739062) scale(0.12 -0.12)">
       <use xlink:href="#DejaVuSans-30"/>
       <use xlink:href="#DejaVuSans-2e" x="63.623047"/>
       <use xlink:href="#DejaVuSans-32" x="95.410156"/>
      </g>
     </g>
    </g>
    <g id="ytick_3">
     <g id="line2d_11">
      <g>
       <use xlink:href="#m7a5e08babe" x="52.93" y="196.686667" style="stroke: #000000; stroke-width: 0.8"/>
      </g>
     </g>
     <g id="text_12">
      <!-- 0.4 -->
      <g transform="translate(30.34625 201.245729) scale(0.12 -0.12)">
       <defs>
        <path id="DejaVuSans-34" d="M 2419 4116 
L 825 1625 
L 2419 1625 
L 2419 4116 
z
M 2253 4666 
L 3047 4666 
L 3047 1625 
L 3713 1625 
L 3713 1100 
L 3047 1100 
L 3047 0 
L 2419 0 
L 2419 1100 
L 313 1100 
L 313 1709 
L 2253 4666 
z
" transform="scale(0.015625)"/>
       </defs>
       <use xlink:href="#DejaVuSans-30"/>
       <use xlink:href="#DejaVuSans-2e" x="63.623047"/>
       <use xlink:href="#DejaVuSans-34" x="95.410156"/>
      </g>
     </g>
    </g>
    <g id="ytick_4">
     <g id="line2d_12">
      <g>
       <use xlink:href="#m7a5e08babe" x="52.93" y="150.193333" style="stroke: #000000; stroke-width: 0.8"/>
      </g>
     </g>
     <g id="text_13">
      <!-- 0.6 -->
      <g transform="translate(30.34625 154.752396) scale(0.12 -0.12)">
       <use xlink:href="#DejaVuSans-30"/>
       <use xlink:href="#DejaVuSans-2e" x="63.623047"/>
       <use xlink:href="#DejaVuSans-36" x="95.410156"/>
      </g>
     </g>
    </g>
    <g id="ytick_5">
     <g id="line2d_13">
      <g>
       <use xlink:href="#m7a5e08babe" x="52.93" y="103.7" style="stroke: #000000; stroke-width: 0.8"/>
      </g>
     </g>
     <g id="text_14">
      <!-- 0.8 -->
      <g transform="translate(30.34625 108.259063) scale(0.12 -0.12)">
       <defs>
        <path id="DejaVuSans-38" d="M 2034 2216 
Q 1584 2216 1326 1975 
Q 1069 1734 1069 1313 
Q 1069 891 1326 650 
Q 1584 409 2034 409 
Q 2484 409 2743 651 
Q 3003 894 3003 1313 
Q 3003 1734 2745 1975 
Q 2488 2216 2034 2216 
z
M 1403 2484 
Q 997 2584 770 2862 
Q 544 3141 544 3541 
Q 544 4100 942 4425 
Q 1341 4750 2034 4750 
Q 2731 4750 3128 4425 
Q 3525 4100 3525 3541 
Q 3525 3141 3298 2862 
Q 3072 2584 2669 2484 
Q 3125 2378 3379 2068 
Q 3634 1759 3634 1313 
Q 3634 634 3220 271 
Q 2806 -91 2034 -91 
Q 1263 -91 848 271 
Q 434 634 434 1313 
Q 434 1759 690 2068 
Q 947 2378 1403 2484 
z
M 1172 3481 
Q 1172 3119 1398 2916 
Q 1625 2713 2034 2713 
Q 2441 2713 2670 2916 
Q 2900 3119 2900 3481 
Q 2900 3844 2670 4047 
Q 2441 4250 2034 4250 
Q 1625 4250 1398 4047 
Q 1172 3844 1172 3481 
z
" transform="scale(0.015625)"/>
       </defs>
       <use xlink:href="#DejaVuSans-30"/>
       <use xlink:href="#DejaVuSans-2e" x="63.623047"/>
       <use xlink:href="#DejaVuSans-38" x="95.410156"/>
      </g>
     </g>
    </g>
    <g id="ytick_6">
     <g id="line2d_14">
      <g>
       <use xlink:href="#m7a5e08babe" x="52.93" y="57.206667" style="stroke: #000000; stroke-width: 0.8"/>
      </g>
     </g>
     <g id="text_15">
      <!-- 1.0 -->
      <g transform="translate(30.34625 61.765729) scale(0.12 -0.12)">
       <defs>
        <path id="DejaVuSans-31" d="M 794 531 
L 1825 531 
L 1825 4091 
L 703 3866 
L 703 4441 
L 1819 4666 
L 2450 4666 
L 2450 531 
L 3481 531 
L 3481 0 
L 794 0 
L 794 531 
z
" transform="scale(0.015625)"/>
       </defs>
       <use xlink:href="#DejaVuSans-31"/>
       <use xlink:href="#DejaVuSans-2e" x="63.623047"/>
       <use xlink:href="#DejaVuSans-30" x="95.410156"/>
      </g>
     </g>
    </g>
    <g id="text_16">
     <!-- Normalized Intensity -->
     <g transform="translate(23.850625 235.488438) rotate(-90) scale(0.12 -0.12)">
      <defs>
       <path id="DejaVuSans-4e" d="M 628 4666 
L 1478 4666 
L 3547 763 
L 3547 4666 
L 4159 4666 
L 4159 0 
L 3309 0 
L 1241 3903 
L 1241 0 
L 628 0 
L 628 4666 
z
" transform="scale(0.015625)"/>
       <path id="DejaVuSans-72" d="M 2631 2963 
Q 2534 3019 2420 3045 
Q 2306 3072 2169 3072 
Q 1681 3072 1420 2755 
Q 1159 2438 1159 1844 
L 1159 0 
L 581 0 
L 581 3500 
L 1159 3500 
L 1159 2956 
Q 1341 3275 1631 3429 
Q 1922 3584 2338 3584 
Q 2397 3584 2469 3576 
Q 2541 3569 2628 3553 
L 2631 2963 
z
" transform="scale(0.015625)"/>
       <path id="DejaVuSans-61" d="M 2194 1759 
Q 1497 1759 1228 1600 
Q 959 1441 959 1056 
Q 959 750 1161 570 
Q 1363 391 1709 391 
Q 2188 391 2477 730 
Q 2766 1069 2766 1631 
L 2766 1759 
L 2194 1759 
z
M 3341 1997 
L 3341 0 
L 2766 0 
L 2766 531 
Q 2569 213 2275 61 
Q 1981 -91 1556 -91 
Q 1019 -91 701 211 
Q 384 513 384 1019 
Q 384 1609 779 1909 
Q 1175 2209 1959 2209 
L 2766 2209 
L 2766 2266 
Q 2766 2663 2505 2880 
Q 2244 3097 1772 3097 
Q 1472 3097 1187 3025 
Q 903 2953 641 2809 
L 641 3341 
Q 956 3463 1253 3523 
Q 1550 3584 1831 3584 
Q 2591 3584 2966 3190 
Q 3341 2797 3341 1997 
z
" transform="scale(0.015625)"/>
       <path id="DejaVuSans-6c" d="M 603 4863 
L 1178 4863 
L 1178 0 
L 603 0 
L 603 4863 
z
" transform="scale(0.015625)"/>
       <path id="DejaVuSans-7a" d="M 353 3500 
L 3084 3500 
L 3084 2975 
L 922 459 
L 3084 459 
L 3084 0 
L 275 0 
L 275 525 
L 2438 3041 
L 353 3041 
L 353 3500 
z
" transform="scale(0.015625)"/>
       <path id="DejaVuSans-64" d="M 2906 2969 
L 2906 4863 
L 3481 4863 
L 3481 0 
L 2906 0 
L 2906 525 
Q 2725 213 2448 61 
Q 2172 -91 1784 -91 
Q 1150 -91 751 415 
Q 353 922 353 1747 
Q 353 2572 751 3078 
Q 1150 3584 1784 3584 
Q 2172 3584 2448 3432 
Q 2725 3281 2906 2969 
z
M 947 1747 
Q 947 1113 1208 752 
Q 1469 391 1925 391 
Q 2381 391 2643 752 
Q 2906 1113 2906 1747 
Q 2906 2381 2643 2742 
Q 2381 3103 1925 3103 
Q 1469 3103 1208 2742 
Q 947 2381 947 1747 
z
" transform="scale(0.015625)"/>
       <path id="DejaVuSans-49" d="M 628 4666 
L 1259 4666 
L 1259 0 
L 628 0 
L 628 4666 
z
" transform="scale(0.015625)"/>
       <path id="DejaVuSans-73" d="M 2834 3397 
L 2834 2853 
Q 2591 2978 2328 3040 
Q 2066 3103 1784 3103 
Q 1356 3103 1142 2972 
Q 928 2841 928 2578 
Q 928 2378 1081 2264 
Q 1234 2150 1697 2047 
L 1894 2003 
Q 2506 1872 2764 1633 
Q 3022 1394 3022 966 
Q 3022 478 2636 193 
Q 2250 -91 1575 -91 
Q 1294 -91 989 -36 
Q 684 19 347 128 
L 347 722 
Q 666 556 975 473 
Q 1284 391 1588 391 
Q 1994 391 2212 530 
Q 2431 669 2431 922 
Q 2431 1156 2273 1281 
Q 2116 1406 1581 1522 
L 1381 1569 
Q 847 1681 609 1914 
Q 372 2147 372 2553 
Q 372 3047 722 3315 
Q 1072 3584 1716 3584 
Q 2034 3584 2315 3537 
Q 2597 3491 2834 3397 
z
" transform="scale(0.015625)"/>
       <path id="DejaVuSans-79" d="M 2059 -325 
Q 1816 -950 1584 -1140 
Q 1353 -1331 966 -1331 
L 506 -1331 
L 506 -850 
L 844 -850 
Q 1081 -850 1212 -737 
Q 1344 -625 1503 -206 
L 1606 56 
L 191 3500 
L 800 3500 
L 1894 763 
L 2988 3500 
L 3597 3500 
L 2059 -325 
z
" transform="scale(0.015625)"/>
      </defs>
      <use xlink:href="#DejaVuSans-4e"/>
      <use xlink:href="#DejaVuSans-6f" x="74.804688"/>
      <use xlink:href="#DejaVuSans-72" x="135.986328"/>
      <use xlink:href="#DejaVuSans-6d" x="175.349609"/>
      <use xlink:href="#DejaVuSans-61" x="272.761719"/>
      <use xlink:href="#DejaVuSans-6c" x="334.041016"/>
      <use xlink:href="#DejaVuSans-69" x="361.824219"/>
      <use xlink:href="#DejaVuSans-7a" x="389.607422"/>
      <use xlink:href="#DejaVuSans-65" x="442.097656"/>
      <use xlink:href="#DejaVuSans-64" x="503.621094"/>
      <use xlink:href="#DejaVuSans-20" x="567.097656"/>
      <use xlink:href="#DejaVuSans-49" x="598.884766"/>
      <use xlink:href="#DejaVuSans-6e" x="628.376953"/>
      <use xlink:href="#DejaVuSans-74" x="691.755859"/>
      <use xlink:href="#DejaVuSans-65" x="730.964844"/>
      <use xlink:href="#DejaVuSans-6e" x="792.488281"/>
      <use xlink:href="#DejaVuSans-73" x="855.867188"/>
      <use xlink:href="#DejaVuSans-69" x="907.966797"/>
      <use xlink:href="#DejaVuSans-74" x="935.75"/>
      <use xlink:href="#DejaVuSans-79" x="974.958984"/>
     </g>
    </g>
   </g>
   <g id="line2d_15">
    <path d="M 52.566902 289.657178 
L 54.741139 289.531168 
L 56.554453 289.634561 
L 58.72869 289.495626 
L 60.176731 289.576402 
L 61.26385 289.582864 
L 63.077163 289.489164 
L 66.699442 289.557016 
L 68.512755 289.576402 
L 69.599874 289.586095 
L 71.047916 289.589326 
L 79.744863 289.563478 
L 85.543553 289.553785 
L 89.892026 289.611944 
L 91.703166 289.557016 
L 94.2405 289.611944 
L 96.051639 289.50855 
L 97.864953 289.595788 
L 99.312995 289.53763 
L 100.763211 289.527937 
L 102.57435 289.605482 
L 105.111684 289.505319 
L 107.649019 289.544092 
L 109.09706 289.482702 
L 110.910374 289.56994 
L 112.721513 289.492395 
L 114.171729 289.527937 
L 115.258848 289.605482 
L 117.069987 289.495626 
L 140.623495 289.41485 
L 142.073711 289.366385 
L 144.971968 289.340536 
L 146.785282 289.308226 
L 154.032013 289.198371 
L 155.119132 289.191909 
L 156.569348 289.243605 
L 158.380487 289.088516 
L 159.830703 289.065898 
L 161.641842 289.065898 
L 164.179177 288.965736 
L 165.990316 288.939888 
L 168.164553 288.75895 
L 169.614769 288.797722 
L 171.06281 288.668481 
L 179.759758 288.325991 
L 188.819803 287.854259 
L 190.630942 287.76379 
L 191.71806 287.695939 
L 194.979416 287.540849 
L 196.066534 287.411607 
L 198.966966 287.282366 
L 201.141203 287.065886 
L 203.31544 286.910797 
L 204.402558 286.694317 
L 207.300816 286.348596 
L 211.649289 285.178961 
L 213.460429 284.261346 
L 215.634666 282.981855 
L 217.447979 281.243557 
L 218.896021 279.579573 
L 219.983139 278.077141 
L 221.070258 276.157905 
L 222.520474 273.156271 
L 223.97069 269.547202 
L 225.418731 265.081909 
L 226.868947 259.763622 
L 228.319163 253.631113 
L 230.130303 244.458198 
L 231.580519 235.967032 
L 233.391658 224.031581 
L 235.202797 210.50969 
L 237.377034 192.574202 
L 240.277466 166.703287 
L 245.713058 117.42997 
L 247.887295 99.920979 
L 249.698434 87.067913 
L 251.14865 78.334419 
L 252.596692 71.054892 
L 254.046908 65.226101 
L 255.134026 61.881978 
L 256.221145 59.549169 
L 256.945166 58.447385 
L 257.671361 57.68486 
L 258.395382 57.268056 
L 259.119402 57.235746 
L 259.845598 57.587929 
L 260.569618 58.285833 
L 261.293639 59.290686 
L 262.380758 61.213153 
L 263.467876 63.743055 
L 264.554995 66.919165 
L 266.368308 73.045211 
L 268.179447 79.985479 
L 271.440803 94.218198 
L 283.762203 149.414007 
L 286.660461 161.187907 
L 289.558718 172.270365 
L 292.820074 183.963488 
L 295.720505 193.488586 
L 298.255666 201.310927 
L 300.793 208.42244 
L 303.691258 215.934602 
L 308.039731 225.737569 
L 311.664184 232.862006 
L 312.388205 234.012255 
L 313.1144 235.39837 
L 313.475324 235.892719 
L 314.562442 237.899193 
L 315.288637 239.055904 
L 316.736679 241.346709 
L 320.724229 247.417828 
L 328.334058 257.285416 
L 329.7821 258.871855 
L 333.043455 262.429227 
L 335.943887 265.156223 
L 339.205242 267.963994 
L 343.914639 271.388894 
L 346.451974 272.894557 
L 351.887566 275.692635 
L 357.686255 278.009289 
L 360.947611 279.01091 
L 362.034729 279.369556 
L 363.482771 279.653887 
L 367.470321 280.642584 
L 368.55744 280.875219 
L 370.005481 281.262943 
L 371.818795 281.569892 
L 373.629934 281.928537 
L 375.08015 282.206406 
L 377.254387 282.455196 
L 380.876666 283.004472 
L 395.7354 284.749233 
L 396.822519 284.823546 
L 398.996755 285.082029 
L 404.06925 285.495602 
L 405.156368 285.540837 
L 408.054626 285.841323 
L 409.86794 285.899482 
L 411.315981 286.086882 
L 415.303532 286.309824 
L 416.751574 286.387368 
L 418.564887 286.435834 
L 426.535639 286.897872 
L 427.985855 286.988341 
L 429.796995 287.098197 
L 432.697427 287.208052 
L 433.784545 287.304983 
L 435.595684 287.311445 
L 438.857039 287.476228 
L 441.394374 287.573159 
L 444.655729 287.641011 
L 458.425171 288.04166 
L 460.599408 288.07397 
L 462.410547 288.19998 
L 463.860763 288.10628 
L 466.398098 288.258139 
L 466.398098 288.258139 
" clip-path="url(#pe0b581c6b0)" style="fill: none; stroke: #636363; stroke-width: 1.2; stroke-linecap: square"/>
   </g>
   <g id="line2d_16">
    <path d="M 52.566902 288.835532 
L 54.017118 288.833513 
L 69.960797 288.641727 
L 72.135034 288.633652 
L 77.570626 288.542806 
L 79.744863 288.441866 
L 102.937447 287.56167 
L 111.634395 286.824809 
L 124.679816 285.270334 
L 126.130032 285.157281 
L 128.304269 284.908969 
L 133.376763 284.422438 
L 139.899474 283.810742 
L 144.247947 283.162708 
L 147.146205 282.47026 
L 151.133755 280.986443 
L 152.220874 280.417142 
L 156.569348 277.784629 
L 161.278745 274.10234 
L 167.077434 269.321826 
L 171.06281 266.485414 
L 174.324166 264.82798 
L 175.774382 264.313187 
L 178.672639 263.661115 
L 180.122855 263.586419 
L 182.66019 263.657077 
L 184.471329 263.895295 
L 187.369587 264.547367 
L 191.357137 265.758646 
L 204.763481 270.072819 
L 206.213697 270.381695 
L 207.663913 270.688552 
L 209.111955 270.993391 
L 210.925269 271.152876 
L 213.823526 271.223534 
L 216.360861 270.747097 
L 217.808902 270.23836 
L 218.896021 269.576194 
L 220.709334 268.158998 
L 221.796453 267.050677 
L 223.244495 265.070236 
L 224.331613 263.206885 
L 225.781829 260.219063 
L 226.868947 257.465422 
L 228.319163 253.127024 
L 229.767205 247.916505 
L 231.217421 241.787433 
L 232.667637 234.659055 
L 234.115679 226.583861 
L 235.928992 215.115067 
L 237.740132 202.176587 
L 239.914368 185.024875 
L 242.812626 160.264312 
L 247.887295 116.272673 
L 250.061532 99.351104 
L 251.872671 86.838591 
L 253.322887 78.236491 
L 254.770929 71.04553 
L 255.858047 66.54361 
L 256.945166 62.956205 
L 258.032284 60.283316 
L 258.758479 58.985228 
L 259.4825 58.030336 
L 260.206521 57.432772 
L 260.932716 57.206667 
L 261.293639 57.238967 
L 262.019834 57.62052 
L 262.743855 58.290761 
L 263.467876 59.23354 
L 264.194071 60.485195 
L 265.28119 62.881509 
L 266.368308 65.863275 
L 268.179447 71.846993 
L 269.629663 77.378501 
L 271.8039 86.608448 
L 275.426179 103.211047 
L 283.036008 138.057528 
L 287.023558 154.843838 
L 289.921816 166.28235 
L 292.45915 175.681876 
L 295.720505 186.98311 
L 298.618763 196.136342 
L 301.156098 203.51707 
L 304.417453 212.181753 
L 307.678808 219.861262 
L 309.489947 223.721205 
L 313.1144 230.849582 
L 316.736679 237.15429 
L 321.085152 243.889002 
L 325.072703 249.390228 
L 328.694981 253.978957 
L 331.232316 256.91429 
L 334.130574 259.984883 
L 337.391929 263.180641 
L 342.1035 267.080959 
L 347.539092 270.714797 
L 350.076427 272.206689 
L 352.250663 273.288765 
L 354.4249 274.328446 
L 362.75875 277.453546 
L 365.296084 278.18637 
L 368.194342 278.965626 
L 377.61531 281.053064 
L 387.038453 282.569181 
L 401.531916 284.240747 
L 408.417724 284.953382 
L 410.955058 285.139112 
L 413.129295 285.320804 
L 418.92581 285.760902 
L 433.05835 286.606778 
L 434.871663 286.72185 
L 455.163816 287.527351 
L 456.614032 287.593971 
L 458.062074 287.652516 
L 460.962505 287.731249 
L 463.136742 287.777682 
L 466.398098 287.872565 
L 466.398098 287.872565 
" clip-path="url(#pe0b581c6b0)" style="fill: none; stroke: #0570b0; stroke-width: 1.2; stroke-linecap: square"/>
   </g>
   <g id="patch_3">
    <path d="M 52.93 312.92 
L 52.93 33.96 
" style="fill: none; stroke: #000000; stroke-width: 0.5; stroke-linejoin: miter; stroke-linecap: square"/>
   </g>
   <g id="patch_4">
    <path d="M 52.93 312.92 
L 466.035 312.92 
" style="fill: none; stroke: #000000; stroke-width: 0.5; stroke-linejoin: miter; stroke-linecap: square"/>
   </g>
   <g id="legend_1">
    <g id="text_17">
     <!-- Experiment Conditions -->
     <g transform="translate(334.619875 48.758438) scale(0.1 -0.1)">
      <defs>
       <path id="DejaVuSans-45" d="M 628 4666 
L 3578 4666 
L 3578 4134 
L 1259 4134 
L 1259 2753 
L 3481 2753 
L 3481 2222 
L 1259 2222 
L 1259 531 
L 3634 531 
L 3634 0 
L 628 0 
L 628 4666 
z
" transform="scale(0.015625)"/>
       <path id="DejaVuSans-78" d="M 3513 3500 
L 2247 1797 
L 3578 0 
L 2900 0 
L 1881 1375 
L 863 0 
L 184 0 
L 1544 1831 
L 300 3500 
L 978 3500 
L 1906 2253 
L 2834 3500 
L 3513 3500 
z
" transform="scale(0.015625)"/>
       <path id="DejaVuSans-70" d="M 1159 525 
L 1159 -1331 
L 581 -1331 
L 581 3500 
L 1159 3500 
L 1159 2969 
Q 1341 3281 1617 3432 
Q 1894 3584 2278 3584 
Q 2916 3584 3314 3078 
Q 3713 2572 3713 1747 
Q 3713 922 3314 415 
Q 2916 -91 2278 -91 
Q 1894 -91 1617 61 
Q 1341 213 1159 525 
z
M 3116 1747 
Q 3116 2381 2855 2742 
Q 2594 3103 2138 3103 
Q 1681 3103 1420 2742 
Q 1159 2381 1159 1747 
Q 1159 1113 1420 752 
Q 1681 391 2138 391 
Q 2594 391 2855 752 
Q 3116 1113 3116 1747 
z
" transform="scale(0.015625)"/>
       <path id="DejaVuSans-43" d="M 4122 4306 
L 4122 3641 
Q 3803 3938 3442 4084 
Q 3081 4231 2675 4231 
Q 1875 4231 1450 3742 
Q 1025 3253 1025 2328 
Q 1025 1406 1450 917 
Q 1875 428 2675 428 
Q 3081 428 3442 575 
Q 3803 722 4122 1019 
L 4122 359 
Q 3791 134 3420 21 
Q 3050 -91 2638 -91 
Q 1578 -91 968 557 
Q 359 1206 359 2328 
Q 359 3453 968 4101 
Q 1578 4750 2638 4750 
Q 3056 4750 3426 4639 
Q 3797 4528 4122 4306 
z
" transform="scale(0.015625)"/>
      </defs>
      <use xlink:href="#DejaVuSans-45"/>
      <use xlink:href="#DejaVuSans-78" x="63.183594"/>
      <use xlink:href="#DejaVuSans-70" x="122.363281"/>
      <use xlink:href="#DejaVuSans-65" x="185.839844"/>
      <use xlink:href="#DejaVuSans-72" x="247.363281"/>
      <use xlink:href="#DejaVuSans-69" x="288.476562"/>
      <use xlink:href="#DejaVuSans-6d" x="316.259766"/>
      <use xlink:href="#DejaVuSans-65" x="413.671875"/>
      <use xlink:href="#DejaVuSans-6e" x="475.195312"/>
      <use xlink:href="#DejaVuSans-74" x="538.574219"/>
      <use xlink:href="#DejaVuSans-20" x="577.783203"/>
      <use xlink:href="#DejaVuSans-43" x="609.570312"/>
      <use xlink:href="#DejaVuSans-6f" x="679.394531"/>
      <use xlink:href="#DejaVuSans-6e" x="740.576172"/>
      <use xlink:href="#DejaVuSans-64" x="803.955078"/>
      <use xlink:href="#DejaVuSans-69" x="867.431641"/>
      <use xlink:href="#DejaVuSans-74" x="895.214844"/>
      <use xlink:href="#DejaVuSans-69" x="934.423828"/>
      <use xlink:href="#DejaVuSans-6f" x="962.207031"/>
      <use xlink:href="#DejaVuSans-6e" x="1023.388672"/>
      <use xlink:href="#DejaVuSans-73" x="1086.767578"/>
     </g>
    </g>
    <g id="line2d_17">
     <path d="M 351.403625 58.116875 
L 359.403625 58.116875 
L 367.403625 58.116875 
" style="fill: none; stroke: #636363; stroke-width: 1.2; stroke-linecap: square"/>
    </g>
    <g id="text_18">
     <!-- PS-40.4K -->
     <g transform="translate(373.803625 60.916875) scale(0.08 -0.08)">
      <defs>
       <path id="DejaVuSans-50" d="M 1259 4147 
L 1259 2394 
L 2053 2394 
Q 2494 2394 2734 2622 
Q 2975 2850 2975 3272 
Q 2975 3691 2734 3919 
Q 2494 4147 2053 4147 
L 1259 4147 
z
M 628 4666 
L 2053 4666 
Q 2838 4666 3239 4311 
Q 3641 3956 3641 3272 
Q 3641 2581 3239 2228 
Q 2838 1875 2053 1875 
L 1259 1875 
L 1259 0 
L 628 0 
L 628 4666 
z
" transform="scale(0.015625)"/>
       <path id="DejaVuSans-53" d="M 3425 4513 
L 3425 3897 
Q 3066 4069 2747 4153 
Q 2428 4238 2131 4238 
Q 1616 4238 1336 4038 
Q 1056 3838 1056 3469 
Q 1056 3159 1242 3001 
Q 1428 2844 1947 2747 
L 2328 2669 
Q 3034 2534 3370 2195 
Q 3706 1856 3706 1288 
Q 3706 609 3251 259 
Q 2797 -91 1919 -91 
Q 1588 -91 1214 -16 
Q 841 59 441 206 
L 441 856 
Q 825 641 1194 531 
Q 1563 422 1919 422 
Q 2459 422 2753 634 
Q 3047 847 3047 1241 
Q 3047 1584 2836 1778 
Q 2625 1972 2144 2069 
L 1759 2144 
Q 1053 2284 737 2584 
Q 422 2884 422 3419 
Q 422 4038 858 4394 
Q 1294 4750 2059 4750 
Q 2388 4750 2728 4690 
Q 3069 4631 3425 4513 
z
" transform="scale(0.015625)"/>
       <path id="DejaVuSans-2d" d="M 313 2009 
L 1997 2009 
L 1997 1497 
L 313 1497 
L 313 2009 
z
" transform="scale(0.015625)"/>
       <path id="DejaVuSans-4b" d="M 628 4666 
L 1259 4666 
L 1259 2694 
L 3353 4666 
L 4166 4666 
L 1850 2491 
L 4331 0 
L 3500 0 
L 1259 2247 
L 1259 0 
L 628 0 
L 628 4666 
z
" transform="scale(0.015625)"/>
      </defs>
      <use xlink:href="#DejaVuSans-50"/>
      <use xlink:href="#DejaVuSans-53" x="60.302734"/>
      <use xlink:href="#DejaVuSans-2d" x="123.779297"/>
      <use xlink:href="#DejaVuSans-34" x="159.863281"/>
      <use xlink:href="#DejaVuSans-30" x="223.486328"/>
      <use xlink:href="#DejaVuSans-2e" x="287.109375"/>
      <use xlink:href="#DejaVuSans-34" x="318.896484"/>
      <use xlink:href="#DejaVuSans-4b" x="382.519531"/>
     </g>
    </g>
    <g id="line2d_18">
     <path d="M 351.403625 69.859375 
L 359.403625 69.859375 
L 367.403625 69.859375 
" style="fill: none; stroke: #0570b0; stroke-width: 1.2; stroke-linecap: square"/>
    </g>
    <g id="text_19">
     <!-- PS-40.4K-SCF$_{3}$ -->
     <g transform="translate(373.803625 72.659375) scale(0.08 -0.08)">
      <defs>
       <path id="DejaVuSans-46" d="M 628 4666 
L 3309 4666 
L 3309 4134 
L 1259 4134 
L 1259 2759 
L 3109 2759 
L 3109 2228 
L 1259 2228 
L 1259 0 
L 628 0 
L 628 4666 
z
" transform="scale(0.015625)"/>
       <path id="DejaVuSans-33" d="M 2597 2516 
Q 3050 2419 3304 2112 
Q 3559 1806 3559 1356 
Q 3559 666 3084 287 
Q 2609 -91 1734 -91 
Q 1441 -91 1130 -33 
Q 819 25 488 141 
L 488 750 
Q 750 597 1062 519 
Q 1375 441 1716 441 
Q 2309 441 2620 675 
Q 2931 909 2931 1356 
Q 2931 1769 2642 2001 
Q 2353 2234 1838 2234 
L 1294 2234 
L 1294 2753 
L 1863 2753 
Q 2328 2753 2575 2939 
Q 2822 3125 2822 3475 
Q 2822 3834 2567 4026 
Q 2313 4219 1838 4219 
Q 1578 4219 1281 4162 
Q 984 4106 628 3988 
L 628 4550 
Q 988 4650 1302 4700 
Q 1616 4750 1894 4750 
Q 2613 4750 3031 4423 
Q 3450 4097 3450 3541 
Q 3450 3153 3228 2886 
Q 3006 2619 2597 2516 
z
" transform="scale(0.015625)"/>
      </defs>
      <use xlink:href="#DejaVuSans-50" transform="translate(0 0.78125)"/>
      <use xlink:href="#DejaVuSans-53" transform="translate(60.302734 0.78125)"/>
      <use xlink:href="#DejaVuSans-2d" transform="translate(123.779297 0.78125)"/>
      <use xlink:href="#DejaVuSans-34" transform="translate(159.863281 0.78125)"/>
      <use xlink:href="#DejaVuSans-30" transform="translate(223.486328 0.78125)"/>
      <use xlink:href="#DejaVuSans-2e" transform="translate(287.109375 0.78125)"/>
      <use xlink:href="#DejaVuSans-34" transform="translate(318.896484 0.78125)"/>
      <use xlink:href="#DejaVuSans-4b" transform="translate(382.519531 0.78125)"/>
      <use xlink:href="#DejaVuSans-2d" transform="translate(448.095703 0.78125)"/>
      <use xlink:href="#DejaVuSans-53" transform="translate(484.179688 0.78125)"/>
      <use xlink:href="#DejaVuSans-43" transform="translate(547.65625 0.78125)"/>
      <use xlink:href="#DejaVuSans-46" transform="translate(617.480469 0.78125)"/>
      <use xlink:href="#DejaVuSans-33" transform="translate(675.957031 -15.625) scale(0.7)"/>
     </g>
    </g>
   </g>
   <g id="legend_2">
    <g id="text_20">
     <!-- GPC Data -->
     <g transform="translate(356.219688 94.716875) scale(0.1 -0.1)">
      <defs>
       <path id="DejaVuSans-47" d="M 3809 666 
L 3809 1919 
L 2778 1919 
L 2778 2438 
L 4434 2438 
L 4434 434 
Q 4069 175 3628 42 
Q 3188 -91 2688 -91 
Q 1594 -91 976 548 
Q 359 1188 359 2328 
Q 359 3472 976 4111 
Q 1594 4750 2688 4750 
Q 3144 4750 3555 4637 
Q 3966 4525 4313 4306 
L 4313 3634 
Q 3963 3931 3569 4081 
Q 3175 4231 2741 4231 
Q 1884 4231 1454 3753 
Q 1025 3275 1025 2328 
Q 1025 1384 1454 906 
Q 1884 428 2741 428 
Q 3075 428 3337 486 
Q 3600 544 3809 666 
z
" transform="scale(0.015625)"/>
       <path id="DejaVuSans-44" d="M 1259 4147 
L 1259 519 
L 2022 519 
Q 2988 519 3436 956 
Q 3884 1394 3884 2338 
Q 3884 3275 3436 3711 
Q 2988 4147 2022 4147 
L 1259 4147 
z
M 628 4666 
L 1925 4666 
Q 3281 4666 3915 4102 
Q 4550 3538 4550 2338 
Q 4550 1131 3912 565 
Q 3275 0 1925 0 
L 628 0 
L 628 4666 
z
" transform="scale(0.015625)"/>
      </defs>
      <use xlink:href="#DejaVuSans-47"/>
      <use xlink:href="#DejaVuSans-50" x="77.490234"/>
      <use xlink:href="#DejaVuSans-43" x="137.792969"/>
      <use xlink:href="#DejaVuSans-20" x="207.617188"/>
      <use xlink:href="#DejaVuSans-44" x="239.404297"/>
      <use xlink:href="#DejaVuSans-61" x="316.40625"/>
      <use xlink:href="#DejaVuSans-74" x="377.685547"/>
      <use xlink:href="#DejaVuSans-61" x="416.894531"/>
     </g>
    </g>
    <g id="line2d_19">
     <path d="M 301.42 104.075313 
L 309.42 104.075313 
L 317.42 104.075313 
" style="fill: none; stroke: #636363; stroke-width: 1.2; stroke-linecap: square"/>
    </g>
    <g id="text_21">
     <!-- Mn=34.6k, Mw=37.4k, Mp=41.4k -->
     <g transform="translate(323.82 106.875313) scale(0.08 -0.08)">
      <defs>
       <path id="DejaVuSans-4d" d="M 628 4666 
L 1569 4666 
L 2759 1491 
L 3956 4666 
L 4897 4666 
L 4897 0 
L 4281 0 
L 4281 4097 
L 3078 897 
L 2444 897 
L 1241 4097 
L 1241 0 
L 628 0 
L 628 4666 
z
" transform="scale(0.015625)"/>
       <path id="DejaVuSans-3d" d="M 678 2906 
L 4684 2906 
L 4684 2381 
L 678 2381 
L 678 2906 
z
M 678 1631 
L 4684 1631 
L 4684 1100 
L 678 1100 
L 678 1631 
z
" transform="scale(0.015625)"/>
       <path id="DejaVuSans-6b" d="M 581 4863 
L 1159 4863 
L 1159 1991 
L 2875 3500 
L 3609 3500 
L 1753 1863 
L 3688 0 
L 2938 0 
L 1159 1709 
L 1159 0 
L 581 0 
L 581 4863 
z
" transform="scale(0.015625)"/>
       <path id="DejaVuSans-2c" d="M 750 794 
L 1409 794 
L 1409 256 
L 897 -744 
L 494 -744 
L 750 256 
L 750 794 
z
" transform="scale(0.015625)"/>
       <path id="DejaVuSans-77" d="M 269 3500 
L 844 3500 
L 1563 769 
L 2278 3500 
L 2956 3500 
L 3675 769 
L 4391 3500 
L 4966 3500 
L 4050 0 
L 3372 0 
L 2619 2869 
L 1863 0 
L 1184 0 
L 269 3500 
z
" transform="scale(0.015625)"/>
      </defs>
      <use xlink:href="#DejaVuSans-4d"/>
      <use xlink:href="#DejaVuSans-6e" x="86.279297"/>
      <use xlink:href="#DejaVuSans-3d" x="149.658203"/>
      <use xlink:href="#DejaVuSans-33" x="233.447266"/>
      <use xlink:href="#DejaVuSans-34" x="297.070312"/>
      <use xlink:href="#DejaVuSans-2e" x="360.693359"/>
      <use xlink:href="#DejaVuSans-36" x="392.480469"/>
      <use xlink:href="#DejaVuSans-6b" x="456.103516"/>
      <use xlink:href="#DejaVuSans-2c" x="514.013672"/>
      <use xlink:href="#DejaVuSans-20" x="545.800781"/>
      <use xlink:href="#DejaVuSans-4d" x="577.587891"/>
      <use xlink:href="#DejaVuSans-77" x="663.867188"/>
      <use xlink:href="#DejaVuSans-3d" x="745.654297"/>
      <use xlink:href="#DejaVuSans-33" x="829.443359"/>
      <use xlink:href="#DejaVuSans-37" x="893.066406"/>
      <use xlink:href="#DejaVuSans-2e" x="956.689453"/>
      <use xlink:href="#DejaVuSans-34" x="988.476562"/>
      <use xlink:href="#DejaVuSans-6b" x="1052.099609"/>
      <use xlink:href="#DejaVuSans-2c" x="1110.009766"/>
      <use xlink:href="#DejaVuSans-20" x="1141.796875"/>
      <use xlink:href="#DejaVuSans-4d" x="1173.583984"/>
      <use xlink:href="#DejaVuSans-70" x="1259.863281"/>
      <use xlink:href="#DejaVuSans-3d" x="1323.339844"/>
      <use xlink:href="#DejaVuSans-34" x="1407.128906"/>
      <use xlink:href="#DejaVuSans-31" x="1470.751953"/>
      <use xlink:href="#DejaVuSans-2e" x="1534.375"/>
      <use xlink:href="#DejaVuSans-34" x="1566.162109"/>
      <use xlink:href="#DejaVuSans-6b" x="1629.785156"/>
     </g>
    </g>
    <g id="line2d_20">
     <path d="M 301.42 115.817813 
L 309.42 115.817813 
L 317.42 115.817813 
" style="fill: none; stroke: #0570b0; stroke-width: 1.2; stroke-linecap: square"/>
    </g>
    <g id="text_22">
     <!-- Mn=33.8k, Mw=36.8k, Mp=40.7k -->
     <g transform="translate(323.82 118.617813) scale(0.08 -0.08)">
      <use xlink:href="#DejaVuSans-4d"/>
      <use xlink:href="#DejaVuSans-6e" x="86.279297"/>
      <use xlink:href="#DejaVuSans-3d" x="149.658203"/>
      <use xlink:href="#DejaVuSans-33" x="233.447266"/>
      <use xlink:href="#DejaVuSans-33" x="297.070312"/>
      <use xlink:href="#DejaVuSans-2e" x="360.693359"/>
      <use xlink:href="#DejaVuSans-38" x="392.480469"/>
      <use xlink:href="#DejaVuSans-6b" x="456.103516"/>
      <use xlink:href="#DejaVuSans-2c" x="514.013672"/>
      <use xlink:href="#DejaVuSans-20" x="545.800781"/>
      <use xlink:href="#DejaVuSans-4d" x="577.587891"/>
      <use xlink:href="#DejaVuSans-77" x="663.867188"/>
      <use xlink:href="#DejaVuSans-3d" x="745.654297"/>
      <use xlink:href="#DejaVuSans-33" x="829.443359"/>
      <use xlink:href="#DejaVuSans-36" x="893.066406"/>
      <use xlink:href="#DejaVuSans-2e" x="956.689453"/>
      <use xlink:href="#DejaVuSans-38" x="988.476562"/>
      <use xlink:href="#DejaVuSans-6b" x="1052.099609"/>
      <use xlink:href="#DejaVuSans-2c" x="1110.009766"/>
      <use xlink:href="#DejaVuSans-20" x="1141.796875"/>
      <use xlink:href="#DejaVuSans-4d" x="1173.583984"/>
      <use xlink:href="#DejaVuSans-70" x="1259.863281"/>
      <use xlink:href="#DejaVuSans-3d" x="1323.339844"/>
      <use xlink:href="#DejaVuSans-34" x="1407.128906"/>
      <use xlink:href="#DejaVuSans-30" x="1470.751953"/>
      <use xlink:href="#DejaVuSans-2e" x="1534.375"/>
      <use xlink:href="#DejaVuSans-37" x="1566.162109"/>
      <use xlink:href="#DejaVuSans-6b" x="1629.785156"/>
     </g>
    </g>
   </g>
  </g>
 </g>
 <defs>
  <clipPath id="pe0b581c6b0">
   <rect x="52.93" y="33.96" width="413.105" height="278.96"/>
  </clipPath>
 </defs>
</svg>
