<?xml version="1.0" encoding="utf-8" standalone="no"?>
<!DOCTYPE svg PUBLIC "-//W3C//DTD SVG 1.1//EN"
  "http://www.w3.org/Graphics/SVG/1.1/DTD/svg11.dtd">
<svg xmlns:xlink="http://www.w3.org/1999/xlink" width="504pt" height="360pt" viewBox="0 0 504 360" xmlns="http://www.w3.org/2000/svg" version="1.1">
 <metadata>
  <rdf:RDF xmlns:dc="http://purl.org/dc/elements/1.1/" xmlns:cc="http://creativecommons.org/ns#" xmlns:rdf="http://www.w3.org/1999/02/22-rdf-syntax-ns#">
   <cc:Work>
    <dc:type rdf:resource="http://purl.org/dc/dcmitype/StillImage"/>
    <dc:date>2025-02-25T17:13:21.254456</dc:date>
    <dc:format>image/svg+xml</dc:format>
    <dc:creator>
     <cc:Agent>
      <dc:title>Matplotlib v3.7.1, https://matplotlib.org/</dc:title>
     </cc:Agent>
    </dc:creator>
   </cc:Work>
  </rdf:RDF>
 </metadata>
 <defs>
  <style type="text/css">*{stroke-linejoin: round; stroke-linecap: butt}</style>
 </defs>
 <g id="figure_1">
  <g id="patch_1">
   <path d="M 0 360 
L 504 360 
L 504 0 
L 0 0 
z
" style="fill: #ffffff"/>
  </g>
  <g id="axes_1">
   <g id="patch_2">
    <path d="M 50.95 313.64 
L 467.025 313.64 
L 467.025 33.6 
L 50.95 33.6 
z
" style="fill: #ffffff"/>
   </g>
   <g id="matplotlib.axis_1">
    <g id="xtick_1">
     <g id="line2d_1">
      <defs>
       <path id="m4e3ada6dd2" d="M 0 0 
L 0 -3.5 
" style="stroke: #000000; stroke-width: 0.8"/>
      </defs>
      <g>
       <use xlink:href="#m4e3ada6dd2" x="72.848684" y="313.64" style="stroke: #000000; stroke-width: 0.8"/>
      </g>
     </g>
     <g id="text_1">
      <!-- 6.00 -->
      <g transform="translate(61.172122 325.748125) scale(0.12 -0.12)">
       <defs>
        <path id="Helvetica-36" d="M 1872 4494 
Q 2622 4494 2917 4105 
Q 3213 3716 3213 3303 
L 2656 3303 
Q 2606 3569 2497 3719 
Q 2294 4000 1881 4000 
Q 1409 4000 1131 3564 
Q 853 3128 822 2316 
Q 1016 2600 1309 2741 
Q 1578 2866 1909 2866 
Q 2472 2866 2890 2506 
Q 3309 2147 3309 1434 
Q 3309 825 2912 354 
Q 2516 -116 1781 -116 
Q 1153 -116 697 361 
Q 241 838 241 1966 
Q 241 2800 444 3381 
Q 834 4494 1872 4494 
z
M 1831 384 
Q 2275 384 2495 682 
Q 2716 981 2716 1388 
Q 2716 1731 2519 2042 
Q 2322 2353 1803 2353 
Q 1441 2353 1167 2112 
Q 894 1872 894 1388 
Q 894 963 1142 673 
Q 1391 384 1831 384 
z
" transform="scale(0.015625)"/>
        <path id="Helvetica-2e" d="M 547 681 
L 1200 681 
L 1200 0 
L 547 0 
L 547 681 
z
" transform="scale(0.015625)"/>
        <path id="Helvetica-30" d="M 1731 4475 
Q 2600 4475 2988 3759 
Q 3288 3206 3288 2244 
Q 3288 1331 3016 734 
Q 2622 -122 1728 -122 
Q 922 -122 528 578 
Q 200 1163 200 2147 
Q 200 2909 397 3456 
Q 766 4475 1731 4475 
z
M 1725 391 
Q 2163 391 2422 778 
Q 2681 1166 2681 2222 
Q 2681 2984 2493 3476 
Q 2306 3969 1766 3969 
Q 1269 3969 1039 3501 
Q 809 3034 809 2125 
Q 809 1441 956 1025 
Q 1181 391 1725 391 
z
" transform="scale(0.015625)"/>
       </defs>
       <use xlink:href="#Helvetica-36"/>
       <use xlink:href="#Helvetica-2e" x="55.615234"/>
       <use xlink:href="#Helvetica-30" x="83.398438"/>
       <use xlink:href="#Helvetica-30" x="139.013672"/>
      </g>
     </g>
    </g>
    <g id="xtick_2">
     <g id="line2d_2">
      <g>
       <use xlink:href="#m4e3ada6dd2" x="127.595395" y="313.64" style="stroke: #000000; stroke-width: 0.8"/>
      </g>
     </g>
     <g id="text_2">
      <!-- 6.25 -->
      <g transform="translate(115.918832 325.748125) scale(0.12 -0.12)">
       <defs>
        <path id="Helvetica-32" d="M 200 0 
Q 231 578 439 1006 
Q 647 1434 1250 1784 
L 1850 2131 
Q 2253 2366 2416 2531 
Q 2672 2791 2672 3125 
Q 2672 3516 2437 3745 
Q 2203 3975 1813 3975 
Q 1234 3975 1013 3538 
Q 894 3303 881 2888 
L 309 2888 
Q 319 3472 525 3841 
Q 891 4491 1816 4491 
Q 2584 4491 2939 4075 
Q 3294 3659 3294 3150 
Q 3294 2613 2916 2231 
Q 2697 2009 2131 1694 
L 1703 1456 
Q 1397 1288 1222 1134 
Q 909 863 828 531 
L 3272 531 
L 3272 0 
L 200 0 
z
" transform="scale(0.015625)"/>
        <path id="Helvetica-35" d="M 791 1141 
Q 847 659 1238 475 
Q 1438 381 1700 381 
Q 2200 381 2440 700 
Q 2681 1019 2681 1406 
Q 2681 1875 2395 2131 
Q 2109 2388 1709 2388 
Q 1419 2388 1211 2275 
Q 1003 2163 856 1963 
L 369 1991 
L 709 4400 
L 3034 4400 
L 3034 3856 
L 1131 3856 
L 941 2613 
Q 1097 2731 1238 2791 
Q 1488 2894 1816 2894 
Q 2431 2894 2859 2497 
Q 3288 2100 3288 1491 
Q 3288 856 2895 371 
Q 2503 -113 1644 -113 
Q 1097 -113 676 195 
Q 256 503 206 1141 
L 791 1141 
z
" transform="scale(0.015625)"/>
       </defs>
       <use xlink:href="#Helvetica-36"/>
       <use xlink:href="#Helvetica-2e" x="55.615234"/>
       <use xlink:href="#Helvetica-32" x="83.398438"/>
       <use xlink:href="#Helvetica-35" x="139.013672"/>
      </g>
     </g>
    </g>
    <g id="xtick_3">
     <g id="line2d_3">
      <g>
       <use xlink:href="#m4e3ada6dd2" x="182.342105" y="313.64" style="stroke: #000000; stroke-width: 0.8"/>
      </g>
     </g>
     <g id="text_3">
      <!-- 6.50 -->
      <g transform="translate(170.665543 325.748125) scale(0.12 -0.12)">
       <use xlink:href="#Helvetica-36"/>
       <use xlink:href="#Helvetica-2e" x="55.615234"/>
       <use xlink:href="#Helvetica-35" x="83.398438"/>
       <use xlink:href="#Helvetica-30" x="139.013672"/>
      </g>
     </g>
    </g>
    <g id="xtick_4">
     <g id="line2d_4">
      <g>
       <use xlink:href="#m4e3ada6dd2" x="237.088816" y="313.64" style="stroke: #000000; stroke-width: 0.8"/>
      </g>
     </g>
     <g id="text_4">
      <!-- 6.75 -->
      <g transform="translate(225.412253 325.748125) scale(0.12 -0.12)">
       <defs>
        <path id="Helvetica-37" d="M 3347 4400 
L 3347 3909 
Q 3131 3700 2773 3181 
Q 2416 2663 2141 2063 
Q 1869 1478 1728 997 
Q 1638 688 1494 0 
L 872 0 
Q 1084 1281 1809 2550 
Q 2238 3294 2709 3834 
L 234 3834 
L 234 4400 
L 3347 4400 
z
" transform="scale(0.015625)"/>
       </defs>
       <use xlink:href="#Helvetica-36"/>
       <use xlink:href="#Helvetica-2e" x="55.615234"/>
       <use xlink:href="#Helvetica-37" x="83.398438"/>
       <use xlink:href="#Helvetica-35" x="139.013672"/>
      </g>
     </g>
    </g>
    <g id="xtick_5">
     <g id="line2d_5">
      <g>
       <use xlink:href="#m4e3ada6dd2" x="291.835526" y="313.64" style="stroke: #000000; stroke-width: 0.8"/>
      </g>
     </g>
     <g id="text_5">
      <!-- 7.00 -->
      <g transform="translate(280.158964 325.748125) scale(0.12 -0.12)">
       <use xlink:href="#Helvetica-37"/>
       <use xlink:href="#Helvetica-2e" x="55.615234"/>
       <use xlink:href="#Helvetica-30" x="83.398438"/>
       <use xlink:href="#Helvetica-30" x="139.013672"/>
      </g>
     </g>
    </g>
    <g id="xtick_6">
     <g id="line2d_6">
      <g>
       <use xlink:href="#m4e3ada6dd2" x="346.582237" y="313.64" style="stroke: #000000; stroke-width: 0.8"/>
      </g>
     </g>
     <g id="text_6">
      <!-- 7.25 -->
      <g transform="translate(334.905674 325.748125) scale(0.12 -0.12)">
       <use xlink:href="#Helvetica-37"/>
       <use xlink:href="#Helvetica-2e" x="55.615234"/>
       <use xlink:href="#Helvetica-32" x="83.398438"/>
       <use xlink:href="#Helvetica-35" x="139.013672"/>
      </g>
     </g>
    </g>
    <g id="xtick_7">
     <g id="line2d_7">
      <g>
       <use xlink:href="#m4e3ada6dd2" x="401.328947" y="313.64" style="stroke: #000000; stroke-width: 0.8"/>
      </g>
     </g>
     <g id="text_7">
      <!-- 7.50 -->
      <g transform="translate(389.652385 325.748125) scale(0.12 -0.12)">
       <use xlink:href="#Helvetica-37"/>
       <use xlink:href="#Helvetica-2e" x="55.615234"/>
       <use xlink:href="#Helvetica-35" x="83.398438"/>
       <use xlink:href="#Helvetica-30" x="139.013672"/>
      </g>
     </g>
    </g>
    <g id="xtick_8">
     <g id="line2d_8">
      <g>
       <use xlink:href="#m4e3ada6dd2" x="456.075658" y="313.64" style="stroke: #000000; stroke-width: 0.8"/>
      </g>
     </g>
     <g id="text_8">
      <!-- 7.75 -->
      <g transform="translate(444.399095 325.748125) scale(0.12 -0.12)">
       <use xlink:href="#Helvetica-37"/>
       <use xlink:href="#Helvetica-2e" x="55.615234"/>
       <use xlink:href="#Helvetica-37" x="83.398438"/>
       <use xlink:href="#Helvetica-35" x="139.013672"/>
      </g>
     </g>
    </g>
    <g id="text_9">
     <!-- Retention Time (min) -->
     <g transform="translate(202.975625 340.945625) scale(0.12 -0.12)">
      <defs>
       <path id="Helvetica-52" d="M 2622 2488 
Q 3059 2488 3314 2663 
Q 3569 2838 3569 3294 
Q 3569 3784 3213 3963 
Q 3022 4056 2703 4056 
L 1184 4056 
L 1184 2488 
L 2622 2488 
z
M 563 4591 
L 2688 4591 
Q 3213 4591 3553 4438 
Q 4200 4144 4200 3353 
Q 4200 2941 4029 2678 
Q 3859 2416 3553 2256 
Q 3822 2147 3958 1969 
Q 4094 1791 4109 1391 
L 4131 775 
Q 4141 513 4175 384 
Q 4231 166 4375 103 
L 4375 0 
L 3613 0 
Q 3581 59 3562 153 
Q 3544 247 3531 516 
L 3494 1281 
Q 3472 1731 3159 1884 
Q 2981 1969 2600 1969 
L 1184 1969 
L 1184 0 
L 563 0 
L 563 4591 
z
" transform="scale(0.015625)"/>
       <path id="Helvetica-65" d="M 1806 3422 
Q 2163 3422 2497 3255 
Q 2831 3088 3006 2822 
Q 3175 2569 3231 2231 
Q 3281 2000 3281 1494 
L 828 1494 
Q 844 984 1069 676 
Q 1294 369 1766 369 
Q 2206 369 2469 659 
Q 2619 828 2681 1050 
L 3234 1050 
Q 3213 866 3089 639 
Q 2966 413 2813 269 
Q 2556 19 2178 -69 
Q 1975 -119 1719 -119 
Q 1094 -119 659 336 
Q 225 791 225 1609 
Q 225 2416 662 2919 
Q 1100 3422 1806 3422 
z
M 2703 1941 
Q 2669 2306 2544 2525 
Q 2313 2931 1772 2931 
Q 1384 2931 1121 2651 
Q 859 2372 844 1941 
L 2703 1941 
z
M 1753 3428 
L 1753 3428 
z
" transform="scale(0.015625)"/>
       <path id="Helvetica-74" d="M 525 4281 
L 1094 4281 
L 1094 3347 
L 1628 3347 
L 1628 2888 
L 1094 2888 
L 1094 703 
Q 1094 528 1213 469 
Q 1278 434 1431 434 
Q 1472 434 1519 436 
Q 1566 438 1628 444 
L 1628 0 
Q 1531 -28 1426 -40 
Q 1322 -53 1200 -53 
Q 806 -53 665 148 
Q 525 350 525 672 
L 525 2888 
L 72 2888 
L 72 3347 
L 525 3347 
L 525 4281 
z
" transform="scale(0.015625)"/>
       <path id="Helvetica-6e" d="M 413 3347 
L 947 3347 
L 947 2872 
Q 1184 3166 1450 3294 
Q 1716 3422 2041 3422 
Q 2753 3422 3003 2925 
Q 3141 2653 3141 2147 
L 3141 0 
L 2569 0 
L 2569 2109 
Q 2569 2416 2478 2603 
Q 2328 2916 1934 2916 
Q 1734 2916 1606 2875 
Q 1375 2806 1200 2600 
Q 1059 2434 1017 2257 
Q 975 2081 975 1753 
L 975 0 
L 413 0 
L 413 3347 
z
M 1734 3428 
L 1734 3428 
z
" transform="scale(0.015625)"/>
       <path id="Helvetica-69" d="M 413 3331 
L 984 3331 
L 984 0 
L 413 0 
L 413 3331 
z
M 413 4591 
L 984 4591 
L 984 3953 
L 413 3953 
L 413 4591 
z
" transform="scale(0.015625)"/>
       <path id="Helvetica-6f" d="M 1741 363 
Q 2300 363 2508 786 
Q 2716 1209 2716 1728 
Q 2716 2197 2566 2491 
Q 2328 2953 1747 2953 
Q 1231 2953 997 2559 
Q 763 2166 763 1609 
Q 763 1075 997 719 
Q 1231 363 1741 363 
z
M 1763 3444 
Q 2409 3444 2856 3012 
Q 3303 2581 3303 1744 
Q 3303 934 2909 406 
Q 2516 -122 1688 -122 
Q 997 -122 590 345 
Q 184 813 184 1600 
Q 184 2444 612 2944 
Q 1041 3444 1763 3444 
z
M 1744 3428 
L 1744 3428 
z
" transform="scale(0.015625)"/>
       <path id="Helvetica-20" transform="scale(0.015625)"/>
       <path id="Helvetica-54" d="M 3828 4591 
L 3828 4044 
L 2281 4044 
L 2281 0 
L 1650 0 
L 1650 4044 
L 103 4044 
L 103 4591 
L 3828 4591 
z
" transform="scale(0.015625)"/>
       <path id="Helvetica-6d" d="M 413 3347 
L 969 3347 
L 969 2872 
Q 1169 3119 1331 3231 
Q 1609 3422 1963 3422 
Q 2363 3422 2606 3225 
Q 2744 3113 2856 2894 
Q 3044 3163 3297 3292 
Q 3550 3422 3866 3422 
Q 4541 3422 4784 2934 
Q 4916 2672 4916 2228 
L 4916 0 
L 4331 0 
L 4331 2325 
Q 4331 2659 4164 2784 
Q 3997 2909 3756 2909 
Q 3425 2909 3186 2687 
Q 2947 2466 2947 1947 
L 2947 0 
L 2375 0 
L 2375 2184 
Q 2375 2525 2294 2681 
Q 2166 2916 1816 2916 
Q 1497 2916 1236 2669 
Q 975 2422 975 1775 
L 975 0 
L 413 0 
L 413 3347 
z
" transform="scale(0.015625)"/>
       <path id="Helvetica-28" d="M 1894 4666 
Q 1403 3713 1256 3263 
Q 1034 2578 1034 1681 
Q 1034 775 1288 25 
Q 1444 -438 1903 -1306 
L 1525 -1306 
Q 1069 -594 959 -397 
Q 850 -200 722 138 
Q 547 600 478 1125 
Q 444 1397 444 1644 
Q 444 2569 734 3291 
Q 919 3750 1503 4666 
L 1894 4666 
z
" transform="scale(0.015625)"/>
       <path id="Helvetica-29" d="M 222 -1306 
Q 719 -338 863 106 
Q 1081 778 1081 1681 
Q 1081 2584 828 3334 
Q 672 3797 213 4666 
L 591 4666 
Q 1072 3897 1173 3717 
Q 1275 3538 1394 3222 
Q 1544 2831 1608 2450 
Q 1672 2069 1672 1716 
Q 1672 791 1378 66 
Q 1194 -400 613 -1306 
L 222 -1306 
z
" transform="scale(0.015625)"/>
      </defs>
      <use xlink:href="#Helvetica-52"/>
      <use xlink:href="#Helvetica-65" x="72.216797"/>
      <use xlink:href="#Helvetica-74" x="127.832031"/>
      <use xlink:href="#Helvetica-65" x="155.615234"/>
      <use xlink:href="#Helvetica-6e" x="211.230469"/>
      <use xlink:href="#Helvetica-74" x="266.845703"/>
      <use xlink:href="#Helvetica-69" x="294.628906"/>
      <use xlink:href="#Helvetica-6f" x="316.845703"/>
      <use xlink:href="#Helvetica-6e" x="372.460938"/>
      <use xlink:href="#Helvetica-20" x="428.076172"/>
      <use xlink:href="#Helvetica-54" x="455.859375"/>
      <use xlink:href="#Helvetica-69" x="516.943359"/>
      <use xlink:href="#Helvetica-6d" x="539.160156"/>
      <use xlink:href="#Helvetica-65" x="622.460938"/>
      <use xlink:href="#Helvetica-20" x="678.076172"/>
      <use xlink:href="#Helvetica-28" x="705.859375"/>
      <use xlink:href="#Helvetica-6d" x="739.160156"/>
      <use xlink:href="#Helvetica-69" x="822.460938"/>
      <use xlink:href="#Helvetica-6e" x="844.677734"/>
      <use xlink:href="#Helvetica-29" x="900.292969"/>
     </g>
    </g>
   </g>
   <g id="matplotlib.axis_2">
    <g id="ytick_1">
     <g id="line2d_9">
      <defs>
       <path id="m58f401862b" d="M 0 0 
L 3.5 0 
" style="stroke: #000000; stroke-width: 0.8"/>
      </defs>
      <g>
       <use xlink:href="#m58f401862b" x="50.95" y="290.303333" style="stroke: #000000; stroke-width: 0.8"/>
      </g>
     </g>
     <g id="text_10">
      <!-- 0.0 -->
      <g transform="translate(30.77 294.607396) scale(0.12 -0.12)">
       <use xlink:href="#Helvetica-30"/>
       <use xlink:href="#Helvetica-2e" x="55.615234"/>
       <use xlink:href="#Helvetica-30" x="83.398438"/>
      </g>
     </g>
    </g>
    <g id="ytick_2">
     <g id="line2d_10">
      <g>
       <use xlink:href="#m58f401862b" x="50.95" y="243.63" style="stroke: #000000; stroke-width: 0.8"/>
      </g>
     </g>
     <g id="text_11">
      <!-- 0.2 -->
      <g transform="translate(30.77 247.934063) scale(0.12 -0.12)">
       <use xlink:href="#Helvetica-30"/>
       <use xlink:href="#Helvetica-2e" x="55.615234"/>
       <use xlink:href="#Helvetica-32" x="83.398438"/>
      </g>
     </g>
    </g>
    <g id="ytick_3">
     <g id="line2d_11">
      <g>
       <use xlink:href="#m58f401862b" x="50.95" y="196.956667" style="stroke: #000000; stroke-width: 0.8"/>
      </g>
     </g>
     <g id="text_12">
      <!-- 0.4 -->
      <g transform="translate(30.77 201.260729) scale(0.12 -0.12)">
       <defs>
        <path id="Helvetica-34" d="M 2116 1584 
L 2116 3613 
L 681 1584 
L 2116 1584 
z
M 2125 0 
L 2125 1094 
L 163 1094 
L 163 1644 
L 2213 4488 
L 2688 4488 
L 2688 1584 
L 3347 1584 
L 3347 1094 
L 2688 1094 
L 2688 0 
L 2125 0 
z
" transform="scale(0.015625)"/>
       </defs>
       <use xlink:href="#Helvetica-30"/>
       <use xlink:href="#Helvetica-2e" x="55.615234"/>
       <use xlink:href="#Helvetica-34" x="83.398438"/>
      </g>
     </g>
    </g>
    <g id="ytick_4">
     <g id="line2d_12">
      <g>
       <use xlink:href="#m58f401862b" x="50.95" y="150.283333" style="stroke: #000000; stroke-width: 0.8"/>
      </g>
     </g>
     <g id="text_13">
      <!-- 0.6 -->
      <g transform="translate(30.77 154.587396) scale(0.12 -0.12)">
       <use xlink:href="#Helvetica-30"/>
       <use xlink:href="#Helvetica-2e" x="55.615234"/>
       <use xlink:href="#Helvetica-36" x="83.398438"/>
      </g>
     </g>
    </g>
    <g id="ytick_5">
     <g id="line2d_13">
      <g>
       <use xlink:href="#m58f401862b" x="50.95" y="103.61" style="stroke: #000000; stroke-width: 0.8"/>
      </g>
     </g>
     <g id="text_14">
      <!-- 0.8 -->
      <g transform="translate(30.77 107.914062) scale(0.12 -0.12)">
       <defs>
        <path id="Helvetica-38" d="M 1741 2600 
Q 2113 2600 2322 2808 
Q 2531 3016 2531 3303 
Q 2531 3553 2331 3762 
Q 2131 3972 1722 3972 
Q 1316 3972 1134 3762 
Q 953 3553 953 3272 
Q 953 2956 1187 2778 
Q 1422 2600 1741 2600 
z
M 1775 384 
Q 2166 384 2423 595 
Q 2681 806 2681 1225 
Q 2681 1659 2415 1884 
Q 2150 2109 1734 2109 
Q 1331 2109 1076 1879 
Q 822 1650 822 1244 
Q 822 894 1055 639 
Q 1288 384 1775 384 
z
M 975 2384 
Q 741 2484 609 2619 
Q 363 2869 363 3269 
Q 363 3769 725 4128 
Q 1088 4488 1753 4488 
Q 2397 4488 2762 4148 
Q 3128 3809 3128 3356 
Q 3128 2938 2916 2678 
Q 2797 2531 2547 2391 
Q 2825 2263 2984 2097 
Q 3281 1784 3281 1284 
Q 3281 694 2884 283 
Q 2488 -128 1763 -128 
Q 1109 -128 657 226 
Q 206 581 206 1256 
Q 206 1653 400 1942 
Q 594 2231 975 2384 
z
" transform="scale(0.015625)"/>
       </defs>
       <use xlink:href="#Helvetica-30"/>
       <use xlink:href="#Helvetica-2e" x="55.615234"/>
       <use xlink:href="#Helvetica-38" x="83.398438"/>
      </g>
     </g>
    </g>
    <g id="ytick_6">
     <g id="line2d_14">
      <g>
       <use xlink:href="#m58f401862b" x="50.95" y="56.936667" style="stroke: #000000; stroke-width: 0.8"/>
      </g>
     </g>
     <g id="text_15">
      <!-- 1.0 -->
      <g transform="translate(30.77 61.240729) scale(0.12 -0.12)">
       <defs>
        <path id="Helvetica-31" d="M 613 3169 
L 613 3600 
Q 1222 3659 1462 3798 
Q 1703 3938 1822 4456 
L 2266 4456 
L 2266 0 
L 1666 0 
L 1666 3169 
L 613 3169 
z
" transform="scale(0.015625)"/>
       </defs>
       <use xlink:href="#Helvetica-31"/>
       <use xlink:href="#Helvetica-2e" x="55.615234"/>
       <use xlink:href="#Helvetica-30" x="83.398438"/>
      </g>
     </g>
    </g>
    <g id="text_16">
     <!-- Normalized Intensity -->
     <g transform="translate(24.1975 227.971563) rotate(-90) scale(0.12 -0.12)">
      <defs>
       <path id="Helvetica-4e" d="M 488 4591 
L 1222 4591 
L 3541 872 
L 3541 4591 
L 4131 4591 
L 4131 0 
L 3434 0 
L 1081 3716 
L 1081 0 
L 488 0 
L 488 4591 
z
M 2269 4591 
L 2269 4591 
z
" transform="scale(0.015625)"/>
       <path id="Helvetica-72" d="M 428 3347 
L 963 3347 
L 963 2769 
Q 1028 2938 1284 3180 
Q 1541 3422 1875 3422 
Q 1891 3422 1928 3419 
Q 1966 3416 2056 3406 
L 2056 2813 
Q 2006 2822 1964 2825 
Q 1922 2828 1872 2828 
Q 1447 2828 1219 2554 
Q 991 2281 991 1925 
L 991 0 
L 428 0 
L 428 3347 
z
" transform="scale(0.015625)"/>
       <path id="Helvetica-61" d="M 844 891 
Q 844 647 1022 506 
Q 1200 366 1444 366 
Q 1741 366 2019 503 
Q 2488 731 2488 1250 
L 2488 1703 
Q 2384 1638 2221 1594 
Q 2059 1550 1903 1531 
L 1563 1488 
Q 1256 1447 1103 1359 
Q 844 1213 844 891 
z
M 2206 2028 
Q 2400 2053 2466 2191 
Q 2503 2266 2503 2406 
Q 2503 2694 2298 2823 
Q 2094 2953 1713 2953 
Q 1272 2953 1088 2716 
Q 984 2584 953 2325 
L 428 2325 
Q 444 2944 830 3186 
Q 1216 3428 1725 3428 
Q 2316 3428 2684 3203 
Q 3050 2978 3050 2503 
L 3050 575 
Q 3050 488 3086 434 
Q 3122 381 3238 381 
Q 3275 381 3322 386 
Q 3369 391 3422 400 
L 3422 -16 
Q 3291 -53 3222 -62 
Q 3153 -72 3034 -72 
Q 2744 -72 2613 134 
Q 2544 244 2516 444 
Q 2344 219 2022 53 
Q 1700 -113 1313 -113 
Q 847 -113 551 170 
Q 256 453 256 878 
Q 256 1344 547 1600 
Q 838 1856 1309 1916 
L 2206 2028 
z
M 1741 3428 
L 1741 3428 
z
" transform="scale(0.015625)"/>
       <path id="Helvetica-6c" d="M 428 4591 
L 991 4591 
L 991 0 
L 428 0 
L 428 4591 
z
" transform="scale(0.015625)"/>
       <path id="Helvetica-7a" d="M 163 444 
L 2147 2844 
L 309 2844 
L 309 3347 
L 2903 3347 
L 2903 2888 
L 931 503 
L 2963 503 
L 2963 0 
L 163 0 
L 163 444 
z
M 1609 3428 
L 1609 3428 
z
" transform="scale(0.015625)"/>
       <path id="Helvetica-64" d="M 769 1634 
Q 769 1097 997 734 
Q 1225 372 1728 372 
Q 2119 372 2370 708 
Q 2622 1044 2622 1672 
Q 2622 2306 2362 2611 
Q 2103 2916 1722 2916 
Q 1297 2916 1033 2591 
Q 769 2266 769 1634 
z
M 1616 3406 
Q 2000 3406 2259 3244 
Q 2409 3150 2600 2916 
L 2600 4606 
L 3141 4606 
L 3141 0 
L 2634 0 
L 2634 466 
Q 2438 156 2169 18 
Q 1900 -119 1553 -119 
Q 994 -119 584 351 
Q 175 822 175 1603 
Q 175 2334 548 2870 
Q 922 3406 1616 3406 
z
" transform="scale(0.015625)"/>
       <path id="Helvetica-49" d="M 628 4591 
L 1256 4591 
L 1256 0 
L 628 0 
L 628 4591 
z
" transform="scale(0.015625)"/>
       <path id="Helvetica-73" d="M 747 1050 
Q 772 769 888 619 
Q 1100 347 1625 347 
Q 1938 347 2175 483 
Q 2413 619 2413 903 
Q 2413 1119 2222 1231 
Q 2100 1300 1741 1391 
L 1294 1503 
Q 866 1609 663 1741 
Q 300 1969 300 2372 
Q 300 2847 642 3140 
Q 984 3434 1563 3434 
Q 2319 3434 2653 2991 
Q 2863 2709 2856 2384 
L 2325 2384 
Q 2309 2575 2191 2731 
Q 1997 2953 1519 2953 
Q 1200 2953 1036 2831 
Q 872 2709 872 2509 
Q 872 2291 1088 2159 
Q 1213 2081 1456 2022 
L 1828 1931 
Q 2434 1784 2641 1647 
Q 2969 1431 2969 969 
Q 2969 522 2630 197 
Q 2291 -128 1597 -128 
Q 850 -128 539 211 
Q 228 550 206 1050 
L 747 1050 
z
M 1578 3428 
L 1578 3428 
z
" transform="scale(0.015625)"/>
       <path id="Helvetica-79" d="M 2503 3347 
L 3125 3347 
Q 3006 3025 2597 1878 
Q 2291 1016 2084 472 
Q 1597 -809 1397 -1090 
Q 1197 -1372 709 -1372 
Q 591 -1372 527 -1362 
Q 463 -1353 369 -1328 
L 369 -816 
Q 516 -856 581 -865 
Q 647 -875 697 -875 
Q 853 -875 926 -823 
Q 1000 -772 1050 -697 
Q 1066 -672 1162 -440 
Q 1259 -209 1303 -97 
L 66 3347 
L 703 3347 
L 1600 622 
L 2503 3347 
z
M 1597 3428 
L 1597 3428 
z
" transform="scale(0.015625)"/>
      </defs>
      <use xlink:href="#Helvetica-4e"/>
      <use xlink:href="#Helvetica-6f" x="72.216797"/>
      <use xlink:href="#Helvetica-72" x="127.832031"/>
      <use xlink:href="#Helvetica-6d" x="161.132812"/>
      <use xlink:href="#Helvetica-61" x="244.433594"/>
      <use xlink:href="#Helvetica-6c" x="300.048828"/>
      <use xlink:href="#Helvetica-69" x="322.265625"/>
      <use xlink:href="#Helvetica-7a" x="344.482422"/>
      <use xlink:href="#Helvetica-65" x="394.482422"/>
      <use xlink:href="#Helvetica-64" x="450.097656"/>
      <use xlink:href="#Helvetica-20" x="505.712891"/>
      <use xlink:href="#Helvetica-49" x="533.496094"/>
      <use xlink:href="#Helvetica-6e" x="561.279297"/>
      <use xlink:href="#Helvetica-74" x="616.894531"/>
      <use xlink:href="#Helvetica-65" x="644.677734"/>
      <use xlink:href="#Helvetica-6e" x="700.292969"/>
      <use xlink:href="#Helvetica-73" x="755.908203"/>
      <use xlink:href="#Helvetica-69" x="805.908203"/>
      <use xlink:href="#Helvetica-74" x="828.125"/>
      <use xlink:href="#Helvetica-79" x="855.908203"/>
     </g>
    </g>
   </g>
   <g id="line2d_15">
    <path d="M 50.584292 290.287116 
L 52.77416 290.160617 
L 54.600511 290.264411 
L 56.790379 290.124938 
L 58.248831 290.206027 
L 59.343766 290.212514 
L 61.170116 290.118451 
L 64.818437 290.186566 
L 66.644787 290.206027 
L 67.739721 290.215758 
L 69.198174 290.219001 
L 77.957647 290.193053 
L 83.798026 290.183322 
L 88.177763 290.241706 
L 90.001924 290.186566 
L 92.5575 290.241706 
L 94.38166 290.137912 
L 96.208011 290.225488 
L 97.666463 290.167104 
L 99.127105 290.157374 
L 100.951266 290.235219 
L 103.506842 290.134669 
L 106.062419 290.173591 
L 107.520871 290.111964 
L 109.347221 290.19954 
L 111.171382 290.121695 
L 112.632024 290.157374 
L 113.726958 290.235219 
L 115.551118 290.124938 
L 139.273963 290.04385 
L 140.734605 289.995196 
L 143.6537 289.969248 
L 145.48005 289.936813 
L 152.778882 289.826532 
L 153.873816 289.820045 
L 155.334458 289.871942 
L 157.158618 289.716251 
L 158.619261 289.693547 
L 160.443421 289.693547 
L 162.998997 289.592997 
L 164.823158 289.567048 
L 167.013026 289.38541 
L 168.473669 289.424332 
L 169.932121 289.29459 
L 178.691595 288.950775 
L 187.816776 288.477217 
L 189.640937 288.386397 
L 190.735871 288.318283 
L 194.020674 288.162593 
L 195.115608 288.032851 
L 198.036892 287.903109 
L 200.226761 287.685791 
L 202.416629 287.530101 
L 203.511563 287.312784 
L 206.430658 286.965724 
L 210.810395 285.79156 
L 212.634555 284.870393 
L 214.824424 283.585949 
L 216.650774 281.840921 
L 218.109226 280.170495 
L 219.20416 278.662246 
L 220.299095 276.735579 
L 221.759737 273.722325 
L 223.220379 270.099284 
L 224.678831 265.616703 
L 226.139474 260.277826 
L 227.600116 254.121575 
L 229.424276 244.913147 
L 230.884919 236.389107 
L 232.709079 224.407447 
L 234.533239 210.833206 
L 236.723108 192.828281 
L 239.644392 166.857206 
L 245.119063 117.393125 
L 247.308932 99.816348 
L 249.133092 86.913521 
L 250.593734 78.146216 
L 252.052187 70.838506 
L 253.512829 64.987148 
L 254.607763 61.630078 
L 255.702697 59.288238 
L 256.431924 58.182188 
L 257.16334 57.416712 
L 257.892566 56.998294 
L 258.621792 56.965859 
L 259.353208 57.319405 
L 260.082434 58.020011 
L 260.81166 59.028754 
L 261.906595 60.958664 
L 263.001529 63.498361 
L 264.096463 66.686767 
L 265.922813 72.83653 
L 267.746974 79.803668 
L 271.031776 94.091489 
L 277.96709 125.845807 
L 281.251892 140.237422 
L 284.900213 155.49182 
L 289.27995 172.445836 
L 292.564752 184.18423 
L 295.486037 193.746205 
L 298.039424 201.59883 
L 300.595 208.737875 
L 303.514095 216.27912 
L 307.893831 226.12004 
L 311.544342 233.272059 
L 312.273568 234.426762 
L 313.004984 235.818243 
L 313.368502 236.314506 
L 314.463437 238.328748 
L 315.194853 239.489938 
L 316.653305 241.789612 
L 320.669524 247.884235 
L 328.334063 257.790026 
L 329.792516 259.382607 
L 333.077318 262.953751 
L 335.998603 265.691304 
L 339.283405 268.509946 
L 344.02666 271.948105 
L 346.582237 273.459598 
L 352.056908 276.268509 
L 357.897287 278.594131 
L 361.18209 279.599631 
L 362.277024 279.959664 
L 363.735476 280.245096 
L 367.751695 281.237622 
L 368.846629 281.471157 
L 370.305081 281.860382 
L 372.131432 282.168519 
L 373.955592 282.528553 
L 375.416234 282.807498 
L 377.606103 283.057251 
L 381.254424 283.608654 
L 396.219984 285.360169 
L 397.314919 285.43477 
L 399.504787 285.694254 
L 404.61375 286.109428 
L 405.708684 286.154838 
L 408.627779 286.456487 
L 410.454129 286.514871 
L 411.912581 286.702997 
L 415.9288 286.926802 
L 417.387253 287.004647 
L 419.213603 287.0533 
L 427.24166 287.517127 
L 428.702303 287.607946 
L 430.526463 287.718227 
L 433.447748 287.828508 
L 434.542682 287.925814 
L 436.366842 287.932301 
L 439.651645 288.097722 
L 442.207221 288.195028 
L 445.492024 288.263143 
L 459.360461 288.665342 
L 461.550329 288.697778 
L 463.374489 288.824276 
L 464.835132 288.730213 
L 467.390708 288.88266 
L 467.390708 288.88266 
" clip-path="url(#p23f0e63516)" style="fill: none; stroke: #636363; stroke-width: 0.8; stroke-linecap: square"/>
   </g>
   <g id="line2d_16">
    <path d="M 50.584292 289.462288 
L 52.044934 289.460262 
L 68.103239 289.267733 
L 70.293108 289.259627 
L 75.767779 289.168429 
L 77.957647 289.067099 
L 101.316974 288.183495 
L 110.076447 287.443781 
L 123.215658 285.883287 
L 124.6763 285.769797 
L 126.866169 285.520524 
L 131.975132 285.032109 
L 138.544737 284.418045 
L 142.924474 283.767502 
L 145.843568 283.072373 
L 149.859787 281.582812 
L 150.954721 281.011307 
L 155.334458 278.368602 
L 160.077713 274.672057 
L 165.918092 269.873034 
L 169.932121 267.025641 
L 173.216924 265.361791 
L 174.677566 264.845004 
L 177.59666 264.190408 
L 179.057303 264.115423 
L 181.612879 264.186354 
L 183.437039 264.425495 
L 186.356134 265.080091 
L 190.372353 266.29606 
L 203.875081 270.626935 
L 205.335724 270.937007 
L 206.796366 271.245052 
L 208.254818 271.551071 
L 210.081169 271.711173 
L 213.000263 271.782105 
L 215.55584 271.303824 
L 217.014292 270.793117 
L 218.109226 270.128388 
L 219.935576 268.705704 
L 221.030511 267.593093 
L 222.488963 265.604984 
L 223.583897 263.734419 
L 225.044539 260.73503 
L 226.139474 257.970728 
L 227.600116 253.615534 
L 229.058568 248.384843 
L 230.519211 242.232041 
L 231.979853 235.076066 
L 233.438305 226.969609 
L 235.264655 215.456413 
L 237.088816 202.467842 
L 239.278684 185.249726 
L 242.197779 160.393302 
L 247.308932 116.231349 
L 249.4988 99.244267 
L 251.322961 86.683312 
L 252.783603 78.047908 
L 254.242055 70.829108 
L 255.336989 66.309758 
L 256.431924 62.708464 
L 257.526858 60.025227 
L 258.258274 58.722114 
L 258.9875 57.763525 
L 259.716726 57.163647 
L 260.448142 56.936667 
L 260.81166 56.969092 
L 261.543076 57.352123 
L 262.272303 58.024959 
L 263.001529 58.971387 
L 263.732945 60.227888 
L 264.827879 62.63348 
L 265.922813 65.626789 
L 267.746974 71.633674 
L 269.207616 77.186597 
L 271.397484 86.452278 
L 275.045805 103.119154 
L 282.710345 138.100544 
L 286.726563 154.951842 
L 289.645658 166.434639 
L 292.201234 175.870555 
L 295.486037 187.215542 
L 298.405132 196.404212 
L 300.960708 203.813514 
L 304.245511 212.511742 
L 307.530313 220.220983 
L 309.354474 224.09587 
L 313.004984 231.251845 
L 316.653305 237.580962 
L 321.033042 244.341747 
L 325.049261 249.864271 
L 328.697581 254.470765 
L 331.253158 257.417463 
L 334.172253 260.499943 
L 337.457055 263.708073 
L 342.2025 267.623492 
L 347.677171 271.271398 
L 350.232748 272.769066 
L 352.422616 273.855331 
L 354.612484 274.899038 
L 363.00625 278.036237 
L 365.561826 278.771898 
L 368.480921 279.554171 
L 377.969621 281.64969 
L 387.460511 283.171678 
L 401.694655 284.827421 
L 403.153108 284.997657 
L 404.61375 285.153706 
L 407.169326 285.366501 
L 409.359195 285.579295 
L 411.912581 285.800196 
L 414.468158 286.000831 
L 418.482187 286.276451 
L 422.498405 286.572336 
L 426.878142 286.854036 
L 433.082039 287.237066 
L 435.271908 287.31813 
L 442.570739 287.662655 
L 444.760608 287.782225 
L 446.22125 287.83897 
L 448.776826 287.915982 
L 451.330213 287.990966 
L 453.520081 288.112563 
L 455.70995 288.153096 
L 457.5363 288.215921 
L 458.994753 288.274692 
L 461.550329 288.333464 
L 464.835132 288.410476 
L 467.390708 288.495593 
L 467.390708 288.495593 
" clip-path="url(#p23f0e63516)" style="fill: none; stroke: #0570b0; stroke-width: 0.8; stroke-linecap: square"/>
   </g>
   <g id="patch_3">
    <path d="M 50.95 313.64 
L 50.95 33.6 
" style="fill: none; stroke: #000000; stroke-width: 0.5; stroke-linejoin: miter; stroke-linecap: square"/>
   </g>
   <g id="patch_4">
    <path d="M 50.95 313.64 
L 467.025 313.64 
" style="fill: none; stroke: #000000; stroke-width: 0.5; stroke-linejoin: miter; stroke-linecap: square"/>
   </g>
   <g id="legend_1">
    <g id="text_17">
     <!-- Experiment Conditions -->
     <g transform="translate(348.823125 48.16875) scale(0.1 -0.1)">
      <defs>
       <path id="Helvetica-45" d="M 547 4591 
L 3894 4591 
L 3894 4028 
L 1153 4028 
L 1153 2634 
L 3688 2634 
L 3688 2103 
L 1153 2103 
L 1153 547 
L 3941 547 
L 3941 0 
L 547 0 
L 547 4591 
z
M 2244 4591 
L 2244 4591 
z
" transform="scale(0.015625)"/>
       <path id="Helvetica-78" d="M 94 3347 
L 822 3347 
L 1591 2169 
L 2369 3347 
L 3053 3331 
L 1925 1716 
L 3103 0 
L 2384 0 
L 1553 1256 
L 747 0 
L 34 0 
L 1213 1716 
L 94 3347 
z
" transform="scale(0.015625)"/>
       <path id="Helvetica-70" d="M 1825 378 
Q 2219 378 2480 708 
Q 2741 1038 2741 1694 
Q 2741 2094 2625 2381 
Q 2406 2934 1825 2934 
Q 1241 2934 1025 2350 
Q 909 2038 909 1556 
Q 909 1169 1025 897 
Q 1244 378 1825 378 
z
M 369 3331 
L 916 3331 
L 916 2888 
Q 1084 3116 1284 3241 
Q 1569 3428 1953 3428 
Q 2522 3428 2919 2992 
Q 3316 2556 3316 1747 
Q 3316 653 2744 184 
Q 2381 -113 1900 -113 
Q 1522 -113 1266 53 
Q 1116 147 931 375 
L 931 -1334 
L 369 -1334 
L 369 3331 
z
" transform="scale(0.015625)"/>
       <path id="Helvetica-43" d="M 2422 4716 
Q 3294 4716 3775 4256 
Q 4256 3797 4309 3213 
L 3703 3213 
Q 3600 3656 3292 3915 
Q 2984 4175 2428 4175 
Q 1750 4175 1333 3698 
Q 916 3222 916 2238 
Q 916 1431 1292 929 
Q 1669 428 2416 428 
Q 3103 428 3463 956 
Q 3653 1234 3747 1688 
L 4353 1688 
Q 4272 963 3816 472 
Q 3269 -119 2341 -119 
Q 1541 -119 997 366 
Q 281 1006 281 2344 
Q 281 3359 819 4009 
Q 1400 4716 2422 4716 
z
M 2297 4716 
L 2297 4716 
z
" transform="scale(0.015625)"/>
      </defs>
      <use xlink:href="#Helvetica-45"/>
      <use xlink:href="#Helvetica-78" x="66.699219"/>
      <use xlink:href="#Helvetica-70" x="116.699219"/>
      <use xlink:href="#Helvetica-65" x="172.314453"/>
      <use xlink:href="#Helvetica-72" x="227.929688"/>
      <use xlink:href="#Helvetica-69" x="261.230469"/>
      <use xlink:href="#Helvetica-6d" x="283.447266"/>
      <use xlink:href="#Helvetica-65" x="366.748047"/>
      <use xlink:href="#Helvetica-6e" x="422.363281"/>
      <use xlink:href="#Helvetica-74" x="477.978516"/>
      <use xlink:href="#Helvetica-20" x="505.761719"/>
      <use xlink:href="#Helvetica-43" x="533.544922"/>
      <use xlink:href="#Helvetica-6f" x="605.761719"/>
      <use xlink:href="#Helvetica-6e" x="661.376953"/>
      <use xlink:href="#Helvetica-64" x="716.992188"/>
      <use xlink:href="#Helvetica-69" x="772.607422"/>
      <use xlink:href="#Helvetica-74" x="794.824219"/>
      <use xlink:href="#Helvetica-69" x="822.607422"/>
      <use xlink:href="#Helvetica-6f" x="844.824219"/>
      <use xlink:href="#Helvetica-6e" x="900.439453"/>
      <use xlink:href="#Helvetica-73" x="956.054688"/>
     </g>
    </g>
    <g id="line2d_17">
     <path d="M 359.523125 57.191875 
L 367.523125 57.191875 
L 375.523125 57.191875 
" style="fill: none; stroke: #636363; stroke-width: 0.8; stroke-linecap: square"/>
    </g>
    <g id="text_18">
     <!-- PS-40.4K -->
     <g transform="translate(381.923125 59.991875) scale(0.08 -0.08)">
      <defs>
       <path id="Helvetica-50" d="M 547 4591 
L 2613 4591 
Q 3225 4591 3600 4245 
Q 3975 3900 3975 3275 
Q 3975 2738 3640 2339 
Q 3306 1941 2613 1941 
L 1169 1941 
L 1169 0 
L 547 0 
L 547 4591 
z
M 3347 3272 
Q 3347 3778 2972 3959 
Q 2766 4056 2406 4056 
L 1169 4056 
L 1169 2466 
L 2406 2466 
Q 2825 2466 3086 2644 
Q 3347 2822 3347 3272 
z
" transform="scale(0.015625)"/>
       <path id="Helvetica-53" d="M 894 1481 
Q 916 1091 1078 847 
Q 1388 391 2169 391 
Q 2519 391 2806 491 
Q 3363 684 3363 1184 
Q 3363 1559 3128 1719 
Q 2891 1875 2384 1991 
L 1763 2131 
Q 1153 2269 900 2434 
Q 463 2722 463 3294 
Q 463 3913 891 4309 
Q 1319 4706 2103 4706 
Q 2825 4706 3329 4357 
Q 3834 4009 3834 3244 
L 3250 3244 
Q 3203 3613 3050 3809 
Q 2766 4169 2084 4169 
Q 1534 4169 1293 3937 
Q 1053 3706 1053 3400 
Q 1053 3063 1334 2906 
Q 1519 2806 2169 2656 
L 2813 2509 
Q 3278 2403 3531 2219 
Q 3969 1897 3969 1284 
Q 3969 522 3414 194 
Q 2859 -134 2125 -134 
Q 1269 -134 784 303 
Q 300 738 309 1481 
L 894 1481 
z
M 2150 4716 
L 2150 4716 
z
" transform="scale(0.015625)"/>
       <path id="Helvetica-2d" d="M 266 2072 
L 1834 2072 
L 1834 1494 
L 266 1494 
L 266 2072 
z
" transform="scale(0.015625)"/>
       <path id="Helvetica-4b" d="M 488 4591 
L 1094 4591 
L 1094 2353 
L 3331 4591 
L 4191 4591 
L 2281 2741 
L 4244 0 
L 3434 0 
L 1828 2303 
L 1094 1600 
L 1094 0 
L 488 0 
L 488 4591 
z
" transform="scale(0.015625)"/>
      </defs>
      <use xlink:href="#Helvetica-50"/>
      <use xlink:href="#Helvetica-53" x="66.699219"/>
      <use xlink:href="#Helvetica-2d" x="133.398438"/>
      <use xlink:href="#Helvetica-34" x="166.699219"/>
      <use xlink:href="#Helvetica-30" x="222.314453"/>
      <use xlink:href="#Helvetica-2e" x="277.929688"/>
      <use xlink:href="#Helvetica-34" x="305.712891"/>
      <use xlink:href="#Helvetica-4b" x="361.328125"/>
     </g>
    </g>
    <g id="line2d_18">
     <path d="M 359.523125 68.598125 
L 367.523125 68.598125 
L 375.523125 68.598125 
" style="fill: none; stroke: #0570b0; stroke-width: 0.8; stroke-linecap: square"/>
    </g>
    <g id="text_19">
     <!-- PS-40.4K-SCF$_{3}$ -->
     <g transform="translate(381.923125 71.398125) scale(0.08 -0.08)">
      <defs>
       <path id="Helvetica-46" d="M 547 4591 
L 3731 4591 
L 3731 4028 
L 1169 4028 
L 1169 2634 
L 3422 2634 
L 3422 2088 
L 1169 2088 
L 1169 0 
L 547 0 
L 547 4591 
z
" transform="scale(0.015625)"/>
       <path id="DejaVuSans-33" d="M 2597 2516 
Q 3050 2419 3304 2112 
Q 3559 1806 3559 1356 
Q 3559 666 3084 287 
Q 2609 -91 1734 -91 
Q 1441 -91 1130 -33 
Q 819 25 488 141 
L 488 750 
Q 750 597 1062 519 
Q 1375 441 1716 441 
Q 2309 441 2620 675 
Q 2931 909 2931 1356 
Q 2931 1769 2642 2001 
Q 2353 2234 1838 2234 
L 1294 2234 
L 1294 2753 
L 1863 2753 
Q 2328 2753 2575 2939 
Q 2822 3125 2822 3475 
Q 2822 3834 2567 4026 
Q 2313 4219 1838 4219 
Q 1578 4219 1281 4162 
Q 984 4106 628 3988 
L 628 4550 
Q 988 4650 1302 4700 
Q 1616 4750 1894 4750 
Q 2613 4750 3031 4423 
Q 3450 4097 3450 3541 
Q 3450 3153 3228 2886 
Q 3006 2619 2597 2516 
z
" transform="scale(0.015625)"/>
      </defs>
      <use xlink:href="#Helvetica-50" transform="translate(0 0.3125)"/>
      <use xlink:href="#Helvetica-53" transform="translate(66.699219 0.3125)"/>
      <use xlink:href="#Helvetica-2d" transform="translate(133.398438 0.3125)"/>
      <use xlink:href="#Helvetica-34" transform="translate(166.699219 0.3125)"/>
      <use xlink:href="#Helvetica-30" transform="translate(222.314453 0.3125)"/>
      <use xlink:href="#Helvetica-2e" transform="translate(277.929688 0.3125)"/>
      <use xlink:href="#Helvetica-34" transform="translate(305.712891 0.3125)"/>
      <use xlink:href="#Helvetica-4b" transform="translate(361.328125 0.3125)"/>
      <use xlink:href="#Helvetica-2d" transform="translate(428.027344 0.3125)"/>
      <use xlink:href="#Helvetica-53" transform="translate(461.328125 0.3125)"/>
      <use xlink:href="#Helvetica-43" transform="translate(528.027344 0.3125)"/>
      <use xlink:href="#Helvetica-46" transform="translate(600.244141 0.3125)"/>
      <use xlink:href="#DejaVuSans-33" transform="translate(662.285156 -16.09375) scale(0.7)"/>
     </g>
    </g>
   </g>
   <g id="legend_2">
    <g id="text_20">
     <!-- GPC Data -->
     <g transform="translate(367.699844 136.754281) scale(0.1 -0.1)">
      <defs>
       <path id="Helvetica-47" d="M 2472 4709 
Q 3119 4709 3591 4459 
Q 4275 4100 4428 3200 
L 3813 3200 
Q 3700 3703 3347 3933 
Q 2994 4163 2456 4163 
Q 1819 4163 1383 3684 
Q 947 3206 947 2259 
Q 947 1441 1306 927 
Q 1666 413 2478 413 
Q 3100 413 3508 773 
Q 3916 1134 3925 1941 
L 2488 1941 
L 2488 2456 
L 4503 2456 
L 4503 0 
L 4103 0 
L 3953 591 
Q 3638 244 3394 109 
Q 2984 -122 2353 -122 
Q 1538 -122 950 406 
Q 309 1069 309 2225 
Q 309 3378 934 4059 
Q 1528 4709 2472 4709 
z
M 2369 4716 
L 2369 4716 
z
" transform="scale(0.015625)"/>
       <path id="Helvetica-44" d="M 2250 531 
Q 2566 531 2769 597 
Q 3131 719 3363 1066 
Q 3547 1344 3628 1778 
Q 3675 2038 3675 2259 
Q 3675 3113 3336 3584 
Q 2997 4056 2244 4056 
L 1141 4056 
L 1141 531 
L 2250 531 
z
M 516 4591 
L 2375 4591 
Q 3322 4591 3844 3919 
Q 4309 3313 4309 2366 
Q 4309 1634 4034 1044 
Q 3550 0 2369 0 
L 516 0 
L 516 4591 
z
" transform="scale(0.015625)"/>
      </defs>
      <use xlink:href="#Helvetica-47"/>
      <use xlink:href="#Helvetica-50" x="77.783203"/>
      <use xlink:href="#Helvetica-43" x="144.482422"/>
      <use xlink:href="#Helvetica-20" x="216.699219"/>
      <use xlink:href="#Helvetica-44" x="244.482422"/>
      <use xlink:href="#Helvetica-61" x="316.699219"/>
      <use xlink:href="#Helvetica-74" x="372.314453"/>
      <use xlink:href="#Helvetica-61" x="400.097656"/>
     </g>
    </g>
    <g id="line2d_19">
     <path d="M 321.145 145.777406 
L 329.145 145.777406 
L 337.145 145.777406 
" style="fill: none; stroke: #636363; stroke-width: 0.8; stroke-linecap: square"/>
    </g>
    <g id="text_21">
     <!-- Mn=34.6k, Mw=37.4k, Mp=41.4k -->
     <g transform="translate(343.545 148.577406) scale(0.08 -0.08)">
      <defs>
       <path id="Helvetica-4d" d="M 472 4591 
L 1363 4591 
L 2681 709 
L 3991 4591 
L 4872 4591 
L 4872 0 
L 4281 0 
L 4281 2709 
Q 4281 2850 4287 3175 
Q 4294 3500 4294 3872 
L 2984 0 
L 2369 0 
L 1050 3872 
L 1050 3731 
Q 1050 3563 1058 3217 
Q 1066 2872 1066 2709 
L 1066 0 
L 472 0 
L 472 4591 
z
" transform="scale(0.015625)"/>
       <path id="Helvetica-3d" d="M 3547 2569 
L 3547 2044 
L 288 2044 
L 288 2569 
L 3547 2569 
z
M 3547 1228 
L 3547 694 
L 288 694 
L 288 1228 
L 3547 1228 
z
" transform="scale(0.015625)"/>
       <path id="Helvetica-33" d="M 1663 -122 
Q 869 -122 511 314 
Q 153 750 153 1375 
L 741 1375 
Q 778 941 903 744 
Q 1122 391 1694 391 
Q 2138 391 2406 628 
Q 2675 866 2675 1241 
Q 2675 1703 2392 1887 
Q 2109 2072 1606 2072 
Q 1550 2072 1492 2070 
Q 1434 2069 1375 2066 
L 1375 2563 
Q 1463 2553 1522 2550 
Q 1581 2547 1650 2547 
Q 1966 2547 2169 2647 
Q 2525 2822 2525 3272 
Q 2525 3606 2287 3787 
Q 2050 3969 1734 3969 
Q 1172 3969 956 3594 
Q 838 3388 822 3006 
L 266 3006 
Q 266 3506 466 3856 
Q 809 4481 1675 4481 
Q 2359 4481 2734 4176 
Q 3109 3872 3109 3294 
Q 3109 2881 2888 2625 
Q 2750 2466 2531 2375 
Q 2884 2278 3082 2001 
Q 3281 1725 3281 1325 
Q 3281 684 2859 281 
Q 2438 -122 1663 -122 
z
" transform="scale(0.015625)"/>
       <path id="Helvetica-6b" d="M 400 4591 
L 941 4591 
L 941 1925 
L 2384 3347 
L 3103 3347 
L 1822 2094 
L 3175 0 
L 2456 0 
L 1413 1688 
L 941 1256 
L 941 0 
L 400 0 
L 400 4591 
z
" transform="scale(0.015625)"/>
       <path id="Helvetica-2c" d="M 531 -653 
Q 747 -616 834 -350 
Q 881 -209 881 -78 
Q 881 -56 879 -39 
Q 878 -22 872 0 
L 531 0 
L 531 681 
L 1200 681 
L 1200 50 
Q 1200 -322 1050 -603 
Q 900 -884 531 -950 
L 531 -653 
z
" transform="scale(0.015625)"/>
       <path id="Helvetica-77" d="M 672 3347 
L 1316 709 
L 1969 3347 
L 2600 3347 
L 3256 725 
L 3941 3347 
L 4503 3347 
L 3531 0 
L 2947 0 
L 2266 2591 
L 1606 0 
L 1022 0 
L 56 3347 
L 672 3347 
z
" transform="scale(0.015625)"/>
      </defs>
      <use xlink:href="#Helvetica-4d"/>
      <use xlink:href="#Helvetica-6e" x="83.300781"/>
      <use xlink:href="#Helvetica-3d" x="138.916016"/>
      <use xlink:href="#Helvetica-33" x="197.314453"/>
      <use xlink:href="#Helvetica-34" x="252.929688"/>
      <use xlink:href="#Helvetica-2e" x="308.544922"/>
      <use xlink:href="#Helvetica-36" x="336.328125"/>
      <use xlink:href="#Helvetica-6b" x="391.943359"/>
      <use xlink:href="#Helvetica-2c" x="441.943359"/>
      <use xlink:href="#Helvetica-20" x="469.726562"/>
      <use xlink:href="#Helvetica-4d" x="497.509766"/>
      <use xlink:href="#Helvetica-77" x="580.810547"/>
      <use xlink:href="#Helvetica-3d" x="653.027344"/>
      <use xlink:href="#Helvetica-33" x="711.425781"/>
      <use xlink:href="#Helvetica-37" x="767.041016"/>
      <use xlink:href="#Helvetica-2e" x="822.65625"/>
      <use xlink:href="#Helvetica-34" x="850.439453"/>
      <use xlink:href="#Helvetica-6b" x="906.054688"/>
      <use xlink:href="#Helvetica-2c" x="956.054688"/>
      <use xlink:href="#Helvetica-20" x="983.837891"/>
      <use xlink:href="#Helvetica-4d" x="1011.621094"/>
      <use xlink:href="#Helvetica-70" x="1094.921875"/>
      <use xlink:href="#Helvetica-3d" x="1150.537109"/>
      <use xlink:href="#Helvetica-34" x="1208.935547"/>
      <use xlink:href="#Helvetica-31" x="1264.550781"/>
      <use xlink:href="#Helvetica-2e" x="1320.166016"/>
      <use xlink:href="#Helvetica-34" x="1347.949219"/>
      <use xlink:href="#Helvetica-6b" x="1403.564453"/>
     </g>
    </g>
    <g id="line2d_20">
     <path d="M 321.145 157.183656 
L 329.145 157.183656 
L 337.145 157.183656 
" style="fill: none; stroke: #0570b0; stroke-width: 0.8; stroke-linecap: square"/>
    </g>
    <g id="text_22">
     <!-- Mn=33.8k, Mw=36.8k, Mp=40.7k -->
     <g transform="translate(343.545 159.983656) scale(0.08 -0.08)">
      <use xlink:href="#Helvetica-4d"/>
      <use xlink:href="#Helvetica-6e" x="83.300781"/>
      <use xlink:href="#Helvetica-3d" x="138.916016"/>
      <use xlink:href="#Helvetica-33" x="197.314453"/>
      <use xlink:href="#Helvetica-33" x="252.929688"/>
      <use xlink:href="#Helvetica-2e" x="308.544922"/>
      <use xlink:href="#Helvetica-38" x="336.328125"/>
      <use xlink:href="#Helvetica-6b" x="391.943359"/>
      <use xlink:href="#Helvetica-2c" x="441.943359"/>
      <use xlink:href="#Helvetica-20" x="469.726562"/>
      <use xlink:href="#Helvetica-4d" x="497.509766"/>
      <use xlink:href="#Helvetica-77" x="580.810547"/>
      <use xlink:href="#Helvetica-3d" x="653.027344"/>
      <use xlink:href="#Helvetica-33" x="711.425781"/>
      <use xlink:href="#Helvetica-36" x="767.041016"/>
      <use xlink:href="#Helvetica-2e" x="822.65625"/>
      <use xlink:href="#Helvetica-38" x="850.439453"/>
      <use xlink:href="#Helvetica-6b" x="906.054688"/>
      <use xlink:href="#Helvetica-2c" x="956.054688"/>
      <use xlink:href="#Helvetica-20" x="983.837891"/>
      <use xlink:href="#Helvetica-4d" x="1011.621094"/>
      <use xlink:href="#Helvetica-70" x="1094.921875"/>
      <use xlink:href="#Helvetica-3d" x="1150.537109"/>
      <use xlink:href="#Helvetica-34" x="1208.935547"/>
      <use xlink:href="#Helvetica-30" x="1264.550781"/>
      <use xlink:href="#Helvetica-2e" x="1320.166016"/>
      <use xlink:href="#Helvetica-37" x="1347.949219"/>
      <use xlink:href="#Helvetica-6b" x="1403.564453"/>
     </g>
    </g>
   </g>
  </g>
 </g>
 <defs>
  <clipPath id="p23f0e63516">
   <rect x="50.95" y="33.6" width="416.075" height="280.04"/>
  </clipPath>
 </defs>
</svg>
