<?xml version="1.0" encoding="utf-8" standalone="no"?>
<!DOCTYPE svg PUBLIC "-//W3C//DTD SVG 1.1//EN"
  "http://www.w3.org/Graphics/SVG/1.1/DTD/svg11.dtd">
<svg xmlns:xlink="http://www.w3.org/1999/xlink" width="504pt" height="360pt" viewBox="0 0 504 360" xmlns="http://www.w3.org/2000/svg" version="1.1">
 <metadata>
  <rdf:RDF xmlns:dc="http://purl.org/dc/elements/1.1/" xmlns:cc="http://creativecommons.org/ns#" xmlns:rdf="http://www.w3.org/1999/02/22-rdf-syntax-ns#">
   <cc:Work>
    <dc:type rdf:resource="http://purl.org/dc/dcmitype/StillImage"/>
    <dc:date>2025-02-25T17:13:21.968860</dc:date>
    <dc:format>image/svg+xml</dc:format>
    <dc:creator>
     <cc:Agent>
      <dc:title>Matplotlib v3.7.1, https://matplotlib.org/</dc:title>
     </cc:Agent>
    </dc:creator>
   </cc:Work>
  </rdf:RDF>
 </metadata>
 <defs>
  <style type="text/css">*{stroke-linejoin: round; stroke-linecap: butt}</style>
 </defs>
 <g id="figure_1">
  <g id="patch_1">
   <path d="M 0 360 
L 504 360 
L 504 0 
L 0 0 
z
" style="fill: #ffffff"/>
  </g>
  <g id="axes_1">
   <g id="patch_2">
    <path d="M 50.95 313.64 
L 467.025 313.64 
L 467.025 33.6 
L 50.95 33.6 
z
" style="fill: #ffffff"/>
   </g>
   <g id="matplotlib.axis_1">
    <g id="xtick_1">
     <g id="line2d_1">
      <defs>
       <path id="m3d4af976b1" d="M 0 0 
L 0 -3.5 
" style="stroke: #000000; stroke-width: 0.8"/>
      </defs>
      <g>
       <use xlink:href="#m3d4af976b1" x="88.775" y="313.64" style="stroke: #000000; stroke-width: 0.8"/>
      </g>
     </g>
     <g id="text_1">
      <!-- 4 -->
      <g transform="translate(85.438438 325.748125) scale(0.12 -0.12)">
       <defs>
        <path id="Helvetica-34" d="M 2116 1584 
L 2116 3613 
L 681 1584 
L 2116 1584 
z
M 2125 0 
L 2125 1094 
L 163 1094 
L 163 1644 
L 2213 4488 
L 2688 4488 
L 2688 1584 
L 3347 1584 
L 3347 1094 
L 2688 1094 
L 2688 0 
L 2125 0 
z
" transform="scale(0.015625)"/>
       </defs>
       <use xlink:href="#Helvetica-34"/>
      </g>
     </g>
    </g>
    <g id="xtick_2">
     <g id="line2d_2">
      <g>
       <use xlink:href="#m3d4af976b1" x="164.425" y="313.64" style="stroke: #000000; stroke-width: 0.8"/>
      </g>
     </g>
     <g id="text_2">
      <!-- 5 -->
      <g transform="translate(161.088437 325.748125) scale(0.12 -0.12)">
       <defs>
        <path id="Helvetica-35" d="M 791 1141 
Q 847 659 1238 475 
Q 1438 381 1700 381 
Q 2200 381 2440 700 
Q 2681 1019 2681 1406 
Q 2681 1875 2395 2131 
Q 2109 2388 1709 2388 
Q 1419 2388 1211 2275 
Q 1003 2163 856 1963 
L 369 1991 
L 709 4400 
L 3034 4400 
L 3034 3856 
L 1131 3856 
L 941 2613 
Q 1097 2731 1238 2791 
Q 1488 2894 1816 2894 
Q 2431 2894 2859 2497 
Q 3288 2100 3288 1491 
Q 3288 856 2895 371 
Q 2503 -113 1644 -113 
Q 1097 -113 676 195 
Q 256 503 206 1141 
L 791 1141 
z
" transform="scale(0.015625)"/>
       </defs>
       <use xlink:href="#Helvetica-35"/>
      </g>
     </g>
    </g>
    <g id="xtick_3">
     <g id="line2d_3">
      <g>
       <use xlink:href="#m3d4af976b1" x="240.075" y="313.64" style="stroke: #000000; stroke-width: 0.8"/>
      </g>
     </g>
     <g id="text_3">
      <!-- 6 -->
      <g transform="translate(236.738438 325.748125) scale(0.12 -0.12)">
       <defs>
        <path id="Helvetica-36" d="M 1872 4494 
Q 2622 4494 2917 4105 
Q 3213 3716 3213 3303 
L 2656 3303 
Q 2606 3569 2497 3719 
Q 2294 4000 1881 4000 
Q 1409 4000 1131 3564 
Q 853 3128 822 2316 
Q 1016 2600 1309 2741 
Q 1578 2866 1909 2866 
Q 2472 2866 2890 2506 
Q 3309 2147 3309 1434 
Q 3309 825 2912 354 
Q 2516 -116 1781 -116 
Q 1153 -116 697 361 
Q 241 838 241 1966 
Q 241 2800 444 3381 
Q 834 4494 1872 4494 
z
M 1831 384 
Q 2275 384 2495 682 
Q 2716 981 2716 1388 
Q 2716 1731 2519 2042 
Q 2322 2353 1803 2353 
Q 1441 2353 1167 2112 
Q 894 1872 894 1388 
Q 894 963 1142 673 
Q 1391 384 1831 384 
z
" transform="scale(0.015625)"/>
       </defs>
       <use xlink:href="#Helvetica-36"/>
      </g>
     </g>
    </g>
    <g id="xtick_4">
     <g id="line2d_4">
      <g>
       <use xlink:href="#m3d4af976b1" x="315.725" y="313.64" style="stroke: #000000; stroke-width: 0.8"/>
      </g>
     </g>
     <g id="text_4">
      <!-- 7 -->
      <g transform="translate(312.388438 325.748125) scale(0.12 -0.12)">
       <defs>
        <path id="Helvetica-37" d="M 3347 4400 
L 3347 3909 
Q 3131 3700 2773 3181 
Q 2416 2663 2141 2063 
Q 1869 1478 1728 997 
Q 1638 688 1494 0 
L 872 0 
Q 1084 1281 1809 2550 
Q 2238 3294 2709 3834 
L 234 3834 
L 234 4400 
L 3347 4400 
z
" transform="scale(0.015625)"/>
       </defs>
       <use xlink:href="#Helvetica-37"/>
      </g>
     </g>
    </g>
    <g id="xtick_5">
     <g id="line2d_5">
      <g>
       <use xlink:href="#m3d4af976b1" x="391.375" y="313.64" style="stroke: #000000; stroke-width: 0.8"/>
      </g>
     </g>
     <g id="text_5">
      <!-- 8 -->
      <g transform="translate(388.038438 325.748125) scale(0.12 -0.12)">
       <defs>
        <path id="Helvetica-38" d="M 1741 2600 
Q 2113 2600 2322 2808 
Q 2531 3016 2531 3303 
Q 2531 3553 2331 3762 
Q 2131 3972 1722 3972 
Q 1316 3972 1134 3762 
Q 953 3553 953 3272 
Q 953 2956 1187 2778 
Q 1422 2600 1741 2600 
z
M 1775 384 
Q 2166 384 2423 595 
Q 2681 806 2681 1225 
Q 2681 1659 2415 1884 
Q 2150 2109 1734 2109 
Q 1331 2109 1076 1879 
Q 822 1650 822 1244 
Q 822 894 1055 639 
Q 1288 384 1775 384 
z
M 975 2384 
Q 741 2484 609 2619 
Q 363 2869 363 3269 
Q 363 3769 725 4128 
Q 1088 4488 1753 4488 
Q 2397 4488 2762 4148 
Q 3128 3809 3128 3356 
Q 3128 2938 2916 2678 
Q 2797 2531 2547 2391 
Q 2825 2263 2984 2097 
Q 3281 1784 3281 1284 
Q 3281 694 2884 283 
Q 2488 -128 1763 -128 
Q 1109 -128 657 226 
Q 206 581 206 1256 
Q 206 1653 400 1942 
Q 594 2231 975 2384 
z
" transform="scale(0.015625)"/>
       </defs>
       <use xlink:href="#Helvetica-38"/>
      </g>
     </g>
    </g>
    <g id="xtick_6">
     <g id="line2d_6">
      <g>
       <use xlink:href="#m3d4af976b1" x="467.025" y="313.64" style="stroke: #000000; stroke-width: 0.8"/>
      </g>
     </g>
     <g id="text_6">
      <!-- 9 -->
      <g transform="translate(463.688438 325.748125) scale(0.12 -0.12)">
       <defs>
        <path id="Helvetica-39" d="M 850 1081 
Q 875 616 1209 438 
Q 1381 344 1597 344 
Q 2000 344 2284 680 
Q 2569 1016 2688 2044 
Q 2500 1747 2223 1626 
Q 1947 1506 1628 1506 
Q 981 1506 604 1909 
Q 228 2313 228 2947 
Q 228 3556 600 4018 
Q 972 4481 1697 4481 
Q 2675 4481 3047 3600 
Q 3253 3116 3253 2388 
Q 3253 1566 3006 931 
Q 2597 -125 1619 -125 
Q 963 -125 622 219 
Q 281 563 281 1081 
L 850 1081 
z
M 1703 2000 
Q 2038 2000 2314 2220 
Q 2591 2441 2591 2991 
Q 2591 3484 2342 3726 
Q 2094 3969 1709 3969 
Q 1297 3969 1055 3692 
Q 813 3416 813 2953 
Q 813 2516 1025 2258 
Q 1238 2000 1703 2000 
z
" transform="scale(0.015625)"/>
       </defs>
       <use xlink:href="#Helvetica-39"/>
      </g>
     </g>
    </g>
    <g id="text_7">
     <!-- Retention Time (min) -->
     <g transform="translate(202.975625 340.945625) scale(0.12 -0.12)">
      <defs>
       <path id="Helvetica-52" d="M 2622 2488 
Q 3059 2488 3314 2663 
Q 3569 2838 3569 3294 
Q 3569 3784 3213 3963 
Q 3022 4056 2703 4056 
L 1184 4056 
L 1184 2488 
L 2622 2488 
z
M 563 4591 
L 2688 4591 
Q 3213 4591 3553 4438 
Q 4200 4144 4200 3353 
Q 4200 2941 4029 2678 
Q 3859 2416 3553 2256 
Q 3822 2147 3958 1969 
Q 4094 1791 4109 1391 
L 4131 775 
Q 4141 513 4175 384 
Q 4231 166 4375 103 
L 4375 0 
L 3613 0 
Q 3581 59 3562 153 
Q 3544 247 3531 516 
L 3494 1281 
Q 3472 1731 3159 1884 
Q 2981 1969 2600 1969 
L 1184 1969 
L 1184 0 
L 563 0 
L 563 4591 
z
" transform="scale(0.015625)"/>
       <path id="Helvetica-65" d="M 1806 3422 
Q 2163 3422 2497 3255 
Q 2831 3088 3006 2822 
Q 3175 2569 3231 2231 
Q 3281 2000 3281 1494 
L 828 1494 
Q 844 984 1069 676 
Q 1294 369 1766 369 
Q 2206 369 2469 659 
Q 2619 828 2681 1050 
L 3234 1050 
Q 3213 866 3089 639 
Q 2966 413 2813 269 
Q 2556 19 2178 -69 
Q 1975 -119 1719 -119 
Q 1094 -119 659 336 
Q 225 791 225 1609 
Q 225 2416 662 2919 
Q 1100 3422 1806 3422 
z
M 2703 1941 
Q 2669 2306 2544 2525 
Q 2313 2931 1772 2931 
Q 1384 2931 1121 2651 
Q 859 2372 844 1941 
L 2703 1941 
z
M 1753 3428 
L 1753 3428 
z
" transform="scale(0.015625)"/>
       <path id="Helvetica-74" d="M 525 4281 
L 1094 4281 
L 1094 3347 
L 1628 3347 
L 1628 2888 
L 1094 2888 
L 1094 703 
Q 1094 528 1213 469 
Q 1278 434 1431 434 
Q 1472 434 1519 436 
Q 1566 438 1628 444 
L 1628 0 
Q 1531 -28 1426 -40 
Q 1322 -53 1200 -53 
Q 806 -53 665 148 
Q 525 350 525 672 
L 525 2888 
L 72 2888 
L 72 3347 
L 525 3347 
L 525 4281 
z
" transform="scale(0.015625)"/>
       <path id="Helvetica-6e" d="M 413 3347 
L 947 3347 
L 947 2872 
Q 1184 3166 1450 3294 
Q 1716 3422 2041 3422 
Q 2753 3422 3003 2925 
Q 3141 2653 3141 2147 
L 3141 0 
L 2569 0 
L 2569 2109 
Q 2569 2416 2478 2603 
Q 2328 2916 1934 2916 
Q 1734 2916 1606 2875 
Q 1375 2806 1200 2600 
Q 1059 2434 1017 2257 
Q 975 2081 975 1753 
L 975 0 
L 413 0 
L 413 3347 
z
M 1734 3428 
L 1734 3428 
z
" transform="scale(0.015625)"/>
       <path id="Helvetica-69" d="M 413 3331 
L 984 3331 
L 984 0 
L 413 0 
L 413 3331 
z
M 413 4591 
L 984 4591 
L 984 3953 
L 413 3953 
L 413 4591 
z
" transform="scale(0.015625)"/>
       <path id="Helvetica-6f" d="M 1741 363 
Q 2300 363 2508 786 
Q 2716 1209 2716 1728 
Q 2716 2197 2566 2491 
Q 2328 2953 1747 2953 
Q 1231 2953 997 2559 
Q 763 2166 763 1609 
Q 763 1075 997 719 
Q 1231 363 1741 363 
z
M 1763 3444 
Q 2409 3444 2856 3012 
Q 3303 2581 3303 1744 
Q 3303 934 2909 406 
Q 2516 -122 1688 -122 
Q 997 -122 590 345 
Q 184 813 184 1600 
Q 184 2444 612 2944 
Q 1041 3444 1763 3444 
z
M 1744 3428 
L 1744 3428 
z
" transform="scale(0.015625)"/>
       <path id="Helvetica-20" transform="scale(0.015625)"/>
       <path id="Helvetica-54" d="M 3828 4591 
L 3828 4044 
L 2281 4044 
L 2281 0 
L 1650 0 
L 1650 4044 
L 103 4044 
L 103 4591 
L 3828 4591 
z
" transform="scale(0.015625)"/>
       <path id="Helvetica-6d" d="M 413 3347 
L 969 3347 
L 969 2872 
Q 1169 3119 1331 3231 
Q 1609 3422 1963 3422 
Q 2363 3422 2606 3225 
Q 2744 3113 2856 2894 
Q 3044 3163 3297 3292 
Q 3550 3422 3866 3422 
Q 4541 3422 4784 2934 
Q 4916 2672 4916 2228 
L 4916 0 
L 4331 0 
L 4331 2325 
Q 4331 2659 4164 2784 
Q 3997 2909 3756 2909 
Q 3425 2909 3186 2687 
Q 2947 2466 2947 1947 
L 2947 0 
L 2375 0 
L 2375 2184 
Q 2375 2525 2294 2681 
Q 2166 2916 1816 2916 
Q 1497 2916 1236 2669 
Q 975 2422 975 1775 
L 975 0 
L 413 0 
L 413 3347 
z
" transform="scale(0.015625)"/>
       <path id="Helvetica-28" d="M 1894 4666 
Q 1403 3713 1256 3263 
Q 1034 2578 1034 1681 
Q 1034 775 1288 25 
Q 1444 -438 1903 -1306 
L 1525 -1306 
Q 1069 -594 959 -397 
Q 850 -200 722 138 
Q 547 600 478 1125 
Q 444 1397 444 1644 
Q 444 2569 734 3291 
Q 919 3750 1503 4666 
L 1894 4666 
z
" transform="scale(0.015625)"/>
       <path id="Helvetica-29" d="M 222 -1306 
Q 719 -338 863 106 
Q 1081 778 1081 1681 
Q 1081 2584 828 3334 
Q 672 3797 213 4666 
L 591 4666 
Q 1072 3897 1173 3717 
Q 1275 3538 1394 3222 
Q 1544 2831 1608 2450 
Q 1672 2069 1672 1716 
Q 1672 791 1378 66 
Q 1194 -400 613 -1306 
L 222 -1306 
z
" transform="scale(0.015625)"/>
      </defs>
      <use xlink:href="#Helvetica-52"/>
      <use xlink:href="#Helvetica-65" x="72.216797"/>
      <use xlink:href="#Helvetica-74" x="127.832031"/>
      <use xlink:href="#Helvetica-65" x="155.615234"/>
      <use xlink:href="#Helvetica-6e" x="211.230469"/>
      <use xlink:href="#Helvetica-74" x="266.845703"/>
      <use xlink:href="#Helvetica-69" x="294.628906"/>
      <use xlink:href="#Helvetica-6f" x="316.845703"/>
      <use xlink:href="#Helvetica-6e" x="372.460938"/>
      <use xlink:href="#Helvetica-20" x="428.076172"/>
      <use xlink:href="#Helvetica-54" x="455.859375"/>
      <use xlink:href="#Helvetica-69" x="516.943359"/>
      <use xlink:href="#Helvetica-6d" x="539.160156"/>
      <use xlink:href="#Helvetica-65" x="622.460938"/>
      <use xlink:href="#Helvetica-20" x="678.076172"/>
      <use xlink:href="#Helvetica-28" x="705.859375"/>
      <use xlink:href="#Helvetica-6d" x="739.160156"/>
      <use xlink:href="#Helvetica-69" x="822.460938"/>
      <use xlink:href="#Helvetica-6e" x="844.677734"/>
      <use xlink:href="#Helvetica-29" x="900.292969"/>
     </g>
    </g>
   </g>
   <g id="matplotlib.axis_2">
    <g id="ytick_1">
     <g id="line2d_7">
      <defs>
       <path id="md84eba1f4d" d="M 0 0 
L 3.5 0 
" style="stroke: #000000; stroke-width: 0.8"/>
      </defs>
      <g>
       <use xlink:href="#md84eba1f4d" x="50.95" y="290.303333" style="stroke: #000000; stroke-width: 0.8"/>
      </g>
     </g>
     <g id="text_8">
      <!-- 0.0 -->
      <g transform="translate(30.77 294.607396) scale(0.12 -0.12)">
       <defs>
        <path id="Helvetica-30" d="M 1731 4475 
Q 2600 4475 2988 3759 
Q 3288 3206 3288 2244 
Q 3288 1331 3016 734 
Q 2622 -122 1728 -122 
Q 922 -122 528 578 
Q 200 1163 200 2147 
Q 200 2909 397 3456 
Q 766 4475 1731 4475 
z
M 1725 391 
Q 2163 391 2422 778 
Q 2681 1166 2681 2222 
Q 2681 2984 2493 3476 
Q 2306 3969 1766 3969 
Q 1269 3969 1039 3501 
Q 809 3034 809 2125 
Q 809 1441 956 1025 
Q 1181 391 1725 391 
z
" transform="scale(0.015625)"/>
        <path id="Helvetica-2e" d="M 547 681 
L 1200 681 
L 1200 0 
L 547 0 
L 547 681 
z
" transform="scale(0.015625)"/>
       </defs>
       <use xlink:href="#Helvetica-30"/>
       <use xlink:href="#Helvetica-2e" x="55.615234"/>
       <use xlink:href="#Helvetica-30" x="83.398438"/>
      </g>
     </g>
    </g>
    <g id="ytick_2">
     <g id="line2d_8">
      <g>
       <use xlink:href="#md84eba1f4d" x="50.95" y="243.63" style="stroke: #000000; stroke-width: 0.8"/>
      </g>
     </g>
     <g id="text_9">
      <!-- 0.2 -->
      <g transform="translate(30.77 247.934063) scale(0.12 -0.12)">
       <defs>
        <path id="Helvetica-32" d="M 200 0 
Q 231 578 439 1006 
Q 647 1434 1250 1784 
L 1850 2131 
Q 2253 2366 2416 2531 
Q 2672 2791 2672 3125 
Q 2672 3516 2437 3745 
Q 2203 3975 1813 3975 
Q 1234 3975 1013 3538 
Q 894 3303 881 2888 
L 309 2888 
Q 319 3472 525 3841 
Q 891 4491 1816 4491 
Q 2584 4491 2939 4075 
Q 3294 3659 3294 3150 
Q 3294 2613 2916 2231 
Q 2697 2009 2131 1694 
L 1703 1456 
Q 1397 1288 1222 1134 
Q 909 863 828 531 
L 3272 531 
L 3272 0 
L 200 0 
z
" transform="scale(0.015625)"/>
       </defs>
       <use xlink:href="#Helvetica-30"/>
       <use xlink:href="#Helvetica-2e" x="55.615234"/>
       <use xlink:href="#Helvetica-32" x="83.398438"/>
      </g>
     </g>
    </g>
    <g id="ytick_3">
     <g id="line2d_9">
      <g>
       <use xlink:href="#md84eba1f4d" x="50.95" y="196.956667" style="stroke: #000000; stroke-width: 0.8"/>
      </g>
     </g>
     <g id="text_10">
      <!-- 0.4 -->
      <g transform="translate(30.77 201.260729) scale(0.12 -0.12)">
       <use xlink:href="#Helvetica-30"/>
       <use xlink:href="#Helvetica-2e" x="55.615234"/>
       <use xlink:href="#Helvetica-34" x="83.398438"/>
      </g>
     </g>
    </g>
    <g id="ytick_4">
     <g id="line2d_10">
      <g>
       <use xlink:href="#md84eba1f4d" x="50.95" y="150.283333" style="stroke: #000000; stroke-width: 0.8"/>
      </g>
     </g>
     <g id="text_11">
      <!-- 0.6 -->
      <g transform="translate(30.77 154.587396) scale(0.12 -0.12)">
       <use xlink:href="#Helvetica-30"/>
       <use xlink:href="#Helvetica-2e" x="55.615234"/>
       <use xlink:href="#Helvetica-36" x="83.398438"/>
      </g>
     </g>
    </g>
    <g id="ytick_5">
     <g id="line2d_11">
      <g>
       <use xlink:href="#md84eba1f4d" x="50.95" y="103.61" style="stroke: #000000; stroke-width: 0.8"/>
      </g>
     </g>
     <g id="text_12">
      <!-- 0.8 -->
      <g transform="translate(30.77 107.914062) scale(0.12 -0.12)">
       <use xlink:href="#Helvetica-30"/>
       <use xlink:href="#Helvetica-2e" x="55.615234"/>
       <use xlink:href="#Helvetica-38" x="83.398438"/>
      </g>
     </g>
    </g>
    <g id="ytick_6">
     <g id="line2d_12">
      <g>
       <use xlink:href="#md84eba1f4d" x="50.95" y="56.936667" style="stroke: #000000; stroke-width: 0.8"/>
      </g>
     </g>
     <g id="text_13">
      <!-- 1.0 -->
      <g transform="translate(30.77 61.240729) scale(0.12 -0.12)">
       <defs>
        <path id="Helvetica-31" d="M 613 3169 
L 613 3600 
Q 1222 3659 1462 3798 
Q 1703 3938 1822 4456 
L 2266 4456 
L 2266 0 
L 1666 0 
L 1666 3169 
L 613 3169 
z
" transform="scale(0.015625)"/>
       </defs>
       <use xlink:href="#Helvetica-31"/>
       <use xlink:href="#Helvetica-2e" x="55.615234"/>
       <use xlink:href="#Helvetica-30" x="83.398438"/>
      </g>
     </g>
    </g>
    <g id="text_14">
     <!-- Normalized Intensity -->
     <g transform="translate(24.1975 227.971563) rotate(-90) scale(0.12 -0.12)">
      <defs>
       <path id="Helvetica-4e" d="M 488 4591 
L 1222 4591 
L 3541 872 
L 3541 4591 
L 4131 4591 
L 4131 0 
L 3434 0 
L 1081 3716 
L 1081 0 
L 488 0 
L 488 4591 
z
M 2269 4591 
L 2269 4591 
z
" transform="scale(0.015625)"/>
       <path id="Helvetica-72" d="M 428 3347 
L 963 3347 
L 963 2769 
Q 1028 2938 1284 3180 
Q 1541 3422 1875 3422 
Q 1891 3422 1928 3419 
Q 1966 3416 2056 3406 
L 2056 2813 
Q 2006 2822 1964 2825 
Q 1922 2828 1872 2828 
Q 1447 2828 1219 2554 
Q 991 2281 991 1925 
L 991 0 
L 428 0 
L 428 3347 
z
" transform="scale(0.015625)"/>
       <path id="Helvetica-61" d="M 844 891 
Q 844 647 1022 506 
Q 1200 366 1444 366 
Q 1741 366 2019 503 
Q 2488 731 2488 1250 
L 2488 1703 
Q 2384 1638 2221 1594 
Q 2059 1550 1903 1531 
L 1563 1488 
Q 1256 1447 1103 1359 
Q 844 1213 844 891 
z
M 2206 2028 
Q 2400 2053 2466 2191 
Q 2503 2266 2503 2406 
Q 2503 2694 2298 2823 
Q 2094 2953 1713 2953 
Q 1272 2953 1088 2716 
Q 984 2584 953 2325 
L 428 2325 
Q 444 2944 830 3186 
Q 1216 3428 1725 3428 
Q 2316 3428 2684 3203 
Q 3050 2978 3050 2503 
L 3050 575 
Q 3050 488 3086 434 
Q 3122 381 3238 381 
Q 3275 381 3322 386 
Q 3369 391 3422 400 
L 3422 -16 
Q 3291 -53 3222 -62 
Q 3153 -72 3034 -72 
Q 2744 -72 2613 134 
Q 2544 244 2516 444 
Q 2344 219 2022 53 
Q 1700 -113 1313 -113 
Q 847 -113 551 170 
Q 256 453 256 878 
Q 256 1344 547 1600 
Q 838 1856 1309 1916 
L 2206 2028 
z
M 1741 3428 
L 1741 3428 
z
" transform="scale(0.015625)"/>
       <path id="Helvetica-6c" d="M 428 4591 
L 991 4591 
L 991 0 
L 428 0 
L 428 4591 
z
" transform="scale(0.015625)"/>
       <path id="Helvetica-7a" d="M 163 444 
L 2147 2844 
L 309 2844 
L 309 3347 
L 2903 3347 
L 2903 2888 
L 931 503 
L 2963 503 
L 2963 0 
L 163 0 
L 163 444 
z
M 1609 3428 
L 1609 3428 
z
" transform="scale(0.015625)"/>
       <path id="Helvetica-64" d="M 769 1634 
Q 769 1097 997 734 
Q 1225 372 1728 372 
Q 2119 372 2370 708 
Q 2622 1044 2622 1672 
Q 2622 2306 2362 2611 
Q 2103 2916 1722 2916 
Q 1297 2916 1033 2591 
Q 769 2266 769 1634 
z
M 1616 3406 
Q 2000 3406 2259 3244 
Q 2409 3150 2600 2916 
L 2600 4606 
L 3141 4606 
L 3141 0 
L 2634 0 
L 2634 466 
Q 2438 156 2169 18 
Q 1900 -119 1553 -119 
Q 994 -119 584 351 
Q 175 822 175 1603 
Q 175 2334 548 2870 
Q 922 3406 1616 3406 
z
" transform="scale(0.015625)"/>
       <path id="Helvetica-49" d="M 628 4591 
L 1256 4591 
L 1256 0 
L 628 0 
L 628 4591 
z
" transform="scale(0.015625)"/>
       <path id="Helvetica-73" d="M 747 1050 
Q 772 769 888 619 
Q 1100 347 1625 347 
Q 1938 347 2175 483 
Q 2413 619 2413 903 
Q 2413 1119 2222 1231 
Q 2100 1300 1741 1391 
L 1294 1503 
Q 866 1609 663 1741 
Q 300 1969 300 2372 
Q 300 2847 642 3140 
Q 984 3434 1563 3434 
Q 2319 3434 2653 2991 
Q 2863 2709 2856 2384 
L 2325 2384 
Q 2309 2575 2191 2731 
Q 1997 2953 1519 2953 
Q 1200 2953 1036 2831 
Q 872 2709 872 2509 
Q 872 2291 1088 2159 
Q 1213 2081 1456 2022 
L 1828 1931 
Q 2434 1784 2641 1647 
Q 2969 1431 2969 969 
Q 2969 522 2630 197 
Q 2291 -128 1597 -128 
Q 850 -128 539 211 
Q 228 550 206 1050 
L 747 1050 
z
M 1578 3428 
L 1578 3428 
z
" transform="scale(0.015625)"/>
       <path id="Helvetica-79" d="M 2503 3347 
L 3125 3347 
Q 3006 3025 2597 1878 
Q 2291 1016 2084 472 
Q 1597 -809 1397 -1090 
Q 1197 -1372 709 -1372 
Q 591 -1372 527 -1362 
Q 463 -1353 369 -1328 
L 369 -816 
Q 516 -856 581 -865 
Q 647 -875 697 -875 
Q 853 -875 926 -823 
Q 1000 -772 1050 -697 
Q 1066 -672 1162 -440 
Q 1259 -209 1303 -97 
L 66 3347 
L 703 3347 
L 1600 622 
L 2503 3347 
z
M 1597 3428 
L 1597 3428 
z
" transform="scale(0.015625)"/>
      </defs>
      <use xlink:href="#Helvetica-4e"/>
      <use xlink:href="#Helvetica-6f" x="72.216797"/>
      <use xlink:href="#Helvetica-72" x="127.832031"/>
      <use xlink:href="#Helvetica-6d" x="161.132812"/>
      <use xlink:href="#Helvetica-61" x="244.433594"/>
      <use xlink:href="#Helvetica-6c" x="300.048828"/>
      <use xlink:href="#Helvetica-69" x="322.265625"/>
      <use xlink:href="#Helvetica-7a" x="344.482422"/>
      <use xlink:href="#Helvetica-65" x="394.482422"/>
      <use xlink:href="#Helvetica-64" x="450.097656"/>
      <use xlink:href="#Helvetica-20" x="505.712891"/>
      <use xlink:href="#Helvetica-49" x="533.496094"/>
      <use xlink:href="#Helvetica-6e" x="561.279297"/>
      <use xlink:href="#Helvetica-74" x="616.894531"/>
      <use xlink:href="#Helvetica-65" x="644.677734"/>
      <use xlink:href="#Helvetica-6e" x="700.292969"/>
      <use xlink:href="#Helvetica-73" x="755.908203"/>
      <use xlink:href="#Helvetica-69" x="805.908203"/>
      <use xlink:href="#Helvetica-74" x="828.125"/>
      <use xlink:href="#Helvetica-79" x="855.908203"/>
     </g>
    </g>
   </g>
   <g id="line2d_13">
    <path d="M 50.823665 290.427081 
L 51.076336 290.179586 
L 51.201915 290.220835 
L 51.580165 290.901445 
L 51.7065 290.88082 
L 52.08475 290.365207 
L 52.463 290.262084 
L 52.714915 290.179586 
L 52.967586 290.571452 
L 53.2195 290.901445 
L 53.724086 290.323958 
L 54.227915 290.303333 
L 54.35425 290.406456 
L 54.606165 290.715824 
L 54.858836 290.530203 
L 55.11075 290.550828 
L 55.489 290.282709 
L 55.86725 290.427081 
L 56.119165 290.633326 
L 56.497415 290.303333 
L 56.750086 290.323958 
L 57.002 290.447705 
L 57.253915 290.282709 
L 57.506586 290.385831 
L 57.884836 290.488954 
L 58.13675 290.323958 
L 58.515 290.592077 
L 58.766915 290.736449 
L 59.019586 290.509579 
L 59.2715 290.344582 
L 59.64975 290.406456 
L 60.028 290.323958 
L 60.40625 290.571452 
L 60.532586 290.46833 
L 60.7845 290.097088 
L 60.910836 290.076463 
L 61.414665 290.530203 
L 61.792915 290.385831 
L 61.91925 290.447705 
L 62.423836 290.076463 
L 63.305915 290.447705 
L 63.43225 290.323958 
L 63.684165 289.890843 
L 63.8105 289.808344 
L 64.315086 290.158962 
L 64.440665 290.076463 
L 64.693336 290.262084 
L 64.818915 290.406456 
L 65.071586 290.097088 
L 65.3235 289.602099 
L 65.449836 289.540225 
L 65.953665 290.24146 
L 66.331915 290.303333 
L 66.584586 290.138337 
L 66.962836 289.663973 
L 67.21475 289.849593 
L 67.593 290.530203 
L 67.719336 290.530203 
L 68.223165 289.78772 
L 68.475836 289.828969 
L 68.601415 289.725846 
L 69.357914 290.323958 
L 69.736165 289.767095 
L 69.988835 289.663973 
L 70.24075 289.870218 
L 70.745336 290.488954 
L 71.249165 290.138337 
L 71.501836 289.993965 
L 71.75375 289.78772 
L 72.132 290.385831 
L 72.258336 290.323958 
L 72.636586 289.602099 
L 72.762165 289.602099 
L 73.014836 289.767095 
L 73.393086 289.725846 
L 73.771336 290.200211 
L 73.896915 290.200211 
L 74.4015 289.705222 
L 75.158 290.035214 
L 75.788164 289.828969 
L 76.040836 289.808344 
L 76.166415 289.705222 
L 76.671 290.138337 
L 77.04925 289.808344 
L 77.301165 289.911467 
L 77.4275 290.097088 
L 78.688586 289.78772 
L 79.066836 289.911467 
L 79.31875 290.097088 
L 79.570665 289.684597 
L 79.697 289.437103 
L 79.948915 289.540225 
L 80.201586 289.808344 
L 80.579836 289.808344 
L 80.83175 290.117712 
L 80.958086 290.097088 
L 81.336336 289.437103 
L 81.58825 289.602099 
L 81.9665 289.993965 
L 82.34475 289.932092 
L 82.471086 289.828969 
L 82.849336 289.292731 
L 83.353165 289.540225 
L 83.85775 289.932092 
L 84.362336 289.148359 
L 85.244415 289.78772 
L 85.37075 289.808344 
L 86.000915 288.797742 
L 86.12725 288.962738 
L 86.379165 289.519601 
L 86.631836 289.663973 
L 86.757415 289.684597 
L 87.388336 289.127735 
L 87.64025 288.983363 
L 87.892165 289.292731 
L 88.144836 289.828969 
L 88.270415 289.808344 
L 88.648665 289.230857 
L 89.15325 289.189608 
L 89.405165 289.437103 
L 89.783415 289.78772 
L 90.036086 289.540225 
L 90.414336 289.003987 
L 90.792586 289.148359 
L 91.170836 289.622724 
L 91.549086 289.272106 
L 91.927336 289.210233 
L 92.17925 289.127735 
L 92.305586 289.148359 
L 92.431165 289.292731 
L 92.683835 289.705222 
L 93.062086 289.230857 
L 93.314 289.189608 
L 93.565915 289.210233 
L 93.818586 289.10711 
L 93.944164 289.10711 
L 94.196836 289.457727 
L 94.700665 289.292731 
L 94.953336 289.127735 
L 95.331586 289.354605 
L 95.5835 289.230857 
L 95.835415 289.10711 
L 96.213664 289.33398 
L 96.71825 289.189608 
L 96.970165 289.313355 
L 97.47475 288.900865 
L 97.726665 289.230857 
L 97.979336 289.478352 
L 98.483165 289.251482 
L 98.861415 288.838991 
L 99.366 288.983363 
L 99.996165 289.375229 
L 100.374415 288.838991 
L 100.752665 289.272106 
L 101.130915 289.354605 
L 101.383586 289.602099 
L 101.6355 289.272106 
L 101.887415 288.756493 
L 102.01375 288.818366 
L 102.643914 289.622724 
L 102.896586 289.643348 
L 103.1485 289.375229 
L 103.400415 289.272106 
L 103.653086 289.065861 
L 103.905 289.313355 
L 104.156915 289.643348 
L 104.409586 289.581474 
L 104.787836 289.003987 
L 105.03975 289.003987 
L 105.544335 289.437103 
L 105.922586 289.808344 
L 106.679086 289.10711 
L 107.057336 289.622724 
L 107.30925 289.663973 
L 108.192086 289.168984 
L 108.317665 289.230857 
L 108.695915 289.849593 
L 108.82225 289.828969 
L 109.074164 289.498976 
L 109.326836 289.395854 
L 109.705086 289.581474 
L 109.830665 289.519601 
L 110.208915 289.973341 
L 110.839836 289.56085 
L 111.09175 289.540225 
L 111.343665 289.746471 
L 111.47 289.684597 
L 111.721915 289.890843 
L 111.974586 289.828969 
L 112.2265 289.911467 
L 112.478414 289.952716 
L 112.983 289.973341 
L 113.234915 290.200211 
L 113.7395 289.808344 
L 114.244086 290.035214 
L 114.747915 289.890843 
L 115.000585 290.055839 
L 115.504414 289.911467 
L 115.882665 290.055839 
L 116.135336 289.746471 
L 116.260915 289.519601 
L 116.38725 289.540225 
L 116.7655 289.993965 
L 117.395665 290.158962 
L 117.522 290.282709 
L 117.90025 289.602099 
L 118.2785 289.767095 
L 118.908664 290.200211 
L 119.161336 289.973341 
L 119.41325 289.705222 
L 120.16975 290.138337 
L 120.421665 290.385831 
L 120.92625 289.540225 
L 121.178165 289.828969 
L 121.430836 290.076463 
L 121.68275 290.076463 
L 121.934664 290.262084 
L 122.187336 289.932092 
L 122.565586 289.33398 
L 122.8175 289.808344 
L 123.069415 290.220835 
L 123.19575 290.179586 
L 123.322086 290.262084 
L 123.447665 290.179586 
L 123.700335 289.849593 
L 124.204165 289.56085 
L 124.835086 290.220835 
L 125.087 289.78772 
L 125.46525 289.354605 
L 125.717165 289.437103 
L 125.969836 289.78772 
L 126.473665 289.932092 
L 127.104586 289.210233 
L 127.3565 289.457727 
L 127.608415 289.78772 
L 127.73475 289.890843 
L 127.861086 289.78772 
L 128.113 289.416478 
L 128.49125 289.437103 
L 128.8695 289.148359 
L 129.374086 289.890843 
L 129.752336 289.354605 
L 130.00425 289.395854 
L 130.256165 289.478352 
L 130.3825 289.375229 
L 130.887086 289.622724 
L 131.012665 289.622724 
L 131.265336 289.478352 
L 131.643586 289.251482 
L 132.27375 289.498976 
L 132.652 289.313355 
L 133.156586 289.478352 
L 133.4085 289.375229 
L 133.78675 289.416478 
L 134.165 289.230857 
L 134.54325 289.519601 
L 134.795164 289.602099 
L 135.173415 289.230857 
L 135.29975 289.045236 
L 135.678 289.168984 
L 136.05625 289.168984 
L 136.560835 289.457727 
L 136.939086 288.818366 
L 137.442915 289.272106 
L 137.821165 289.292731 
L 137.9475 289.395854 
L 138.073836 289.354605 
L 138.452086 288.818366 
L 138.704 288.900865 
L 139.208586 289.437103 
L 139.586836 289.086485 
L 139.83875 288.673995 
L 140.090665 288.612121 
L 140.343336 288.756493 
L 140.721586 289.189608 
L 140.9735 289.33398 
L 141.35175 288.508998 
L 141.478086 288.467749 
L 141.603665 288.591497 
L 141.856336 289.086485 
L 142.4865 289.395854 
L 142.991085 288.777117 
L 143.243 288.591497 
L 143.747586 289.354605 
L 143.873165 289.33398 
L 144.125836 288.88024 
L 144.882336 288.777117 
L 145.386165 289.272106 
L 145.764415 288.632746 
L 146.395335 288.529623 
L 146.773586 289.024612 
L 147.782 288.570872 
L 148.286586 289.003987 
L 148.664836 288.65337 
L 148.91675 288.777117 
L 149.168665 288.591497 
L 149.421335 288.405876 
L 149.546915 288.447125 
L 149.799586 288.859616 
L 150.42975 288.632746 
L 150.808 288.859616 
L 151.059915 288.777117 
L 151.312586 288.859616 
L 151.816415 288.777117 
L 152.194665 288.65337 
L 152.69925 288.65337 
L 152.951165 288.405876 
L 154.21225 288.302753 
L 154.464165 288.158381 
L 154.96875 288.220255 
L 155.347 288.467749 
L 155.598915 288.323378 
L 155.851585 287.931511 
L 155.977165 288.014009 
L 156.229836 288.405876 
L 156.733665 288.4265 
L 156.986336 288.65337 
L 157.23825 288.158381 
L 157.490165 287.642768 
L 157.742836 288.096508 
L 157.99475 288.508998 
L 158.499336 288.673995 
L 158.75125 288.344002 
L 159.003165 287.910887 
L 159.1295 287.910887 
L 159.634086 288.632746 
L 159.886 288.612121 
L 160.6425 287.910887 
L 161.147086 288.344002 
L 161.399 288.756493 
L 161.525336 288.694619 
L 161.903586 288.055259 
L 162.1555 287.910887 
L 162.53375 288.385251 
L 162.785664 288.4265 
L 162.912 288.591497 
L 163.163915 288.405876 
L 163.794836 287.684017 
L 164.173086 288.282128 
L 164.298665 288.529623 
L 164.551336 288.220255 
L 164.80325 287.931511 
L 165.055165 287.890262 
L 165.433415 287.580894 
L 165.938 288.364627 
L 166.442586 287.931511 
L 166.6945 287.931511 
L 167.451 288.179006 
L 167.82925 287.993385 
L 168.2075 287.622143 
L 168.837665 287.849013 
L 169.090336 287.622143 
L 169.215914 287.642768 
L 169.594165 287.952136 
L 169.846836 287.890262 
L 170.09875 287.74589 
L 170.350665 287.910887 
L 170.603336 287.807764 
L 170.85525 287.684017 
L 171.359836 287.952136 
L 171.863665 287.56027 
L 172.241915 287.910887 
L 172.7465 287.766515 
L 172.998415 287.869638 
L 173.12475 287.849013 
L 173.376665 287.271526 
L 173.629336 287.312775 
L 174.2595 287.642768 
L 174.764086 287.457147 
L 175.016 287.230277 
L 175.520586 287.539645 
L 175.7725 287.869638 
L 176.024415 287.725266 
L 176.402665 286.941533 
L 176.529 286.87966 
L 176.90725 287.147779 
L 177.159165 287.168403 
L 177.537415 287.601519 
L 177.790086 287.003407 
L 178.042 286.446544 
L 178.168336 286.487793 
L 178.42025 287.065281 
L 178.672165 287.085905 
L 178.924836 287.003407 
L 179.806915 286.19905 
L 180.3115 286.962158 
L 180.437836 286.900284 
L 181.068 286.157801 
L 181.44625 286.034054 
L 181.572586 286.054678 
L 181.950836 286.446544 
L 182.454665 285.724686 
L 182.832915 285.477191 
L 183.3375 285.807184 
L 184.345915 284.652209 
L 184.47225 284.714083 
L 184.8505 285.167823 
L 185.355086 284.507838 
L 186.111586 284.177845 
L 186.3635 284.404715 
L 186.615415 284.115971 
L 186.993665 283.579733 
L 187.49825 283.497235 
L 188.002836 282.981622 
L 188.506664 282.713503 
L 188.884915 282.301012 
L 189.137586 282.342261 
L 189.263165 282.259763 
L 189.641415 281.723525 
L 189.894086 281.599778 
L 190.019665 281.599778 
L 191.407086 279.92919 
L 192.163586 279.186706 
L 192.4155 278.464848 
L 192.79375 278.464848 
L 193.045665 278.11423 
L 193.298336 277.866736 
L 193.55025 277.70174 
L 194.180415 276.175524 
L 194.558665 276.072401 
L 195.189586 275.041174 
L 195.81975 273.721203 
L 196.57625 273.143716 
L 196.9545 271.906244 
L 197.33275 271.452504 
L 198.08925 270.483151 
L 198.593836 268.730065 
L 198.84575 268.338199 
L 199.097665 268.193827 
L 199.475915 267.636964 
L 200.35875 264.914525 
L 200.737 264.728904 
L 200.863336 264.543283 
L 201.87175 261.490851 
L 202.123665 261.057736 
L 202.376336 260.768992 
L 202.880165 258.954033 
L 203.258415 257.778434 
L 204.393165 254.952872 
L 205.024086 252.972916 
L 205.527915 251.776693 
L 205.906165 250.394849 
L 207.040915 247.094923 
L 207.671836 244.76435 
L 212.589086 227.604733 
L 213.21925 224.676048 
L 213.471165 224.077936 
L 215.1105 217.787452 
L 215.48875 216.467481 
L 216.6235 211.765086 
L 217.00175 210.630736 
L 217.631915 207.372059 
L 218.641086 203.989635 
L 219.397586 200.256593 
L 219.6495 199.905976 
L 219.901414 199.080994 
L 221.036165 193.801112 
L 221.414415 192.976131 
L 222.6755 187.38688 
L 222.927414 186.70627 
L 224.1885 181.529511 
L 224.440415 180.66328 
L 225.32325 177.012737 
L 228.222915 165.957984 
L 228.7275 164.30802 
L 229.10575 162.53431 
L 229.484 161.523707 
L 231.123336 155.191974 
L 231.501586 154.016375 
L 232.636336 149.375854 
L 233.2665 147.148403 
L 233.64475 145.168447 
L 234.023 144.302217 
L 234.653165 142.157265 
L 235.409665 138.795465 
L 235.91425 137.599241 
L 236.418836 135.309918 
L 237.175336 132.566854 
L 237.553585 131.432504 
L 238.18375 128.2357 
L 239.570415 123.10019 
L 240.075 121.450227 
L 240.326915 120.748992 
L 241.714336 115.262865 
L 241.839915 115.118493 
L 242.092586 114.211013 
L 242.596415 111.88044 
L 243.101 110.168604 
L 244.99225 103.403755 
L 245.496836 101.671293 
L 247.009836 96.308913 
L 247.64 94.246459 
L 248.77475 90.307172 
L 249.153 89.502815 
L 249.783165 87.089744 
L 250.161415 86.367885 
L 251.4225 82.366724 
L 251.80075 81.644865 
L 253.061836 77.437459 
L 253.565665 76.550604 
L 254.322165 73.786916 
L 254.953086 72.796938 
L 255.456915 71.270722 
L 255.9615 69.930127 
L 256.33975 69.827004 
L 256.466086 69.641383 
L 257.4745 66.712698 
L 257.726415 66.568327 
L 257.979086 66.588951 
L 258.861165 64.505873 
L 259.113836 64.072757 
L 259.36575 63.969635 
L 260.12225 62.587791 
L 260.374165 62.072177 
L 260.5005 62.072177 
L 260.752415 61.845307 
L 260.87875 61.886556 
L 261.257 60.937827 
L 261.508915 60.710957 
L 262.39175 59.72098 
L 263.778414 58.792875 
L 264.031086 58.442258 
L 264.409336 58.297886 
L 264.66125 58.009143 
L 265.165836 58.050392 
L 265.41775 57.555403 
L 265.669665 57.163537 
L 265.796 57.184161 
L 266.047915 57.555403 
L 266.300586 57.45228 
L 266.678836 57.246035 
L 267.309 56.957291 
L 268.0655 57.699775 
L 268.570086 57.246035 
L 269.704836 58.236013 
L 270.083086 57.596652 
L 270.208664 57.658526 
L 270.839586 58.792875 
L 271.848 59.019745 
L 272.6045 60.525337 
L 273.109086 60.463463 
L 273.487336 61.061575 
L 274.243836 62.773411 
L 274.49575 62.649664 
L 274.747665 62.897159 
L 275.000336 63.412772 
L 275.504165 64.650245 
L 276.387 65.598973 
L 276.638914 66.320832 
L 276.891586 67.228312 
L 277.648086 68.21829 
L 278.27825 69.806379 
L 278.530165 70.466365 
L 279.286665 71.621339 
L 279.917586 73.456923 
L 280.674086 75.024388 
L 281.934415 78.159318 
L 282.439 79.747408 
L 282.943586 80.902382 
L 284.834836 86.718502 
L 285.338665 88.327216 
L 285.84325 89.853432 
L 285.969586 89.915306 
L 286.2215 90.575291 
L 287.104336 93.813344 
L 287.986415 96.700779 
L 288.742915 99.443843 
L 288.86925 99.546966 
L 289.2475 100.598817 
L 290.255915 104.496855 
L 290.634165 105.218714 
L 290.886836 106.06432 
L 291.517 108.910507 
L 292.525415 111.797942 
L 293.156336 114.396634 
L 293.40825 114.994746 
L 294.16475 117.861557 
L 294.669336 119.862137 
L 295.425836 121.924591 
L 295.804086 123.492056 
L 296.182336 124.750153 
L 297.19075 128.2357 
L 297.569 129.885664 
L 298.073586 131.391255 
L 299.082 134.979925 
L 299.964835 137.90861 
L 300.97325 141.435406 
L 302.612586 147.107154 
L 303.24275 149.231482 
L 303.621 150.138962 
L 304.75575 154.346368 
L 305.007664 154.552613 
L 305.134 154.820732 
L 305.8905 157.770041 
L 306.395085 159.39938 
L 306.647 159.646874 
L 306.898915 160.554354 
L 307.529836 163.194295 
L 308.16 164.596764 
L 308.286336 164.844258 
L 309.29475 168.474177 
L 309.546665 168.989791 
L 309.924915 170.103516 
L 310.555836 172.475338 
L 310.934086 173.279695 
L 311.312336 174.145926 
L 311.56425 175.135904 
L 312.068836 176.992112 
L 312.32075 177.404603 
L 312.950915 179.198938 
L 313.203585 180.085793 
L 313.581836 181.653258 
L 313.83375 182.106998 
L 314.716586 184.664441 
L 315.220415 186.479401 
L 315.851336 187.84062 
L 316.4815 189.8412 
L 316.733415 190.29494 
L 317.364336 191.965528 
L 317.742586 193.141127 
L 318.120836 194.275477 
L 318.37275 194.832339 
L 320.768586 201.659062 
L 320.894165 201.679686 
L 321.0205 201.824058 
L 321.525086 203.474021 
L 322.15525 205.371479 
L 322.407165 205.804594 
L 322.5335 205.825219 
L 322.785415 206.402706 
L 323.66825 209.207643 
L 323.920164 209.413889 
L 324.298415 210.383242 
L 325.307586 213.126306 
L 325.685835 213.518172 
L 326.567915 216.240611 
L 326.820586 216.591228 
L 327.324415 217.086217 
L 328.080915 219.519913 
L 328.333586 219.726158 
L 328.837415 220.633638 
L 328.96375 220.839884 
L 329.72025 223.046709 
L 329.972165 223.191081 
L 330.47675 224.222308 
L 331.106915 226.078517 
L 332.116085 227.852227 
L 332.494335 229.04845 
L 332.872586 229.357819 
L 333.376415 230.389046 
L 333.629086 230.677789 
L 334.007336 232.059633 
L 334.385586 232.265879 
L 334.6375 232.740243 
L 335.01575 233.647723 
L 335.394 234.348957 
L 335.898586 235.338935 
L 336.1505 235.524556 
L 336.52875 236.184541 
L 336.780665 236.782653 
L 337.28525 237.422014 
L 337.915415 238.803858 
L 339.050164 240.639442 
L 339.428414 241.526297 
L 339.681086 241.773791 
L 340.059336 242.000661 
L 340.6895 243.382506 
L 340.941415 243.836245 
L 341.194086 244.496231 
L 341.572336 244.331234 
L 341.82425 244.888097 
L 342.2025 245.919324 
L 342.959 246.703056 
L 343.210915 246.641183 
L 343.463586 247.239294 
L 343.841836 248.311771 
L 344.09375 248.641763 
L 344.598336 248.641763 
L 345.102165 249.549243 
L 345.480414 250.539221 
L 345.60675 250.931087 
L 345.733086 250.951712 
L 345.985 250.745466 
L 346.236915 250.80734 
L 346.36325 250.972336 
L 346.7415 251.90044 
L 347.11975 252.498552 
L 347.87625 252.828545 
L 348.128165 253.509155 
L 348.506415 254.375385 
L 348.759086 254.231013 
L 349.011 254.416634 
L 349.262915 254.767251 
L 349.515586 254.911623 
L 349.7675 255.427237 
L 350.019415 256.149096 
L 350.775915 256.499713 
L 351.65875 257.860932 
L 352.037 258.21155 
L 352.41525 258.294048 
L 352.667165 258.603416 
L 352.919836 259.30465 
L 353.17175 259.325275 
L 353.423665 259.552145 
L 355.44125 261.676472 
L 355.693165 261.965216 
L 355.8195 261.965216 
L 355.945836 261.841469 
L 356.19775 262.088963 
L 356.449665 262.522078 
L 356.95425 262.996443 
L 357.206165 263.388309 
L 357.3325 263.326435 
L 357.458836 263.099565 
L 357.71075 263.305811 
L 357.962665 263.738926 
L 358.340914 264.316413 
L 358.719164 264.728904 
L 359.097415 264.543283 
L 359.475665 264.93515 
L 360.106585 265.863254 
L 360.610415 265.595135 
L 361.241336 266.70886 
L 361.619586 267.327596 
L 361.8715 267.141975 
L 362.123415 266.832607 
L 362.24975 266.894481 
L 362.501665 267.513217 
L 362.754336 268.02883 
L 363.132586 268.379448 
L 363.76275 268.090704 
L 363.889086 268.173202 
L 364.51925 269.555046 
L 364.645586 269.431299 
L 364.8975 269.121931 
L 365.27575 269.328176 
L 365.527665 269.699418 
L 366.158586 270.627522 
L 366.662415 270.194407 
L 366.915085 270.359403 
L 367.418915 271.20501 
L 367.671586 271.184385 
L 367.9235 271.287508 
L 368.175415 271.266883 
L 368.428086 271.225634 
L 368.68 271.6175 
L 368.931915 272.29811 
L 369.05825 272.29811 
L 369.310165 272.112489 
L 369.4365 272.091865 
L 369.941086 272.545605 
L 370.193 272.566229 
L 370.57125 273.226214 
L 370.9495 273.061218 
L 371.201414 273.061218 
L 371.957915 273.906824 
L 372.336165 273.948073 
L 372.588836 274.174943 
L 372.84075 274.257441 
L 373.345335 274.690557 
L 373.59725 274.649308 
L 373.849165 274.546185 
L 374.101836 274.75243 
L 374.35375 274.917427 
L 374.732 274.9793 
L 374.983915 275.020549 
L 375.236586 275.20617 
L 375.4885 275.515538 
L 375.740415 275.742408 
L 376.118665 276.093025 
L 376.245 276.093025 
L 376.62325 275.680535 
L 377.127836 276.237397 
L 377.37975 276.34052 
L 377.758 276.670513 
L 378.13625 276.196148 
L 378.388165 276.464267 
L 378.89275 277.248 
L 379.144665 277.330498 
L 379.64925 276.856133 
L 379.775585 276.938632 
L 380.40575 278.011108 
L 380.657665 278.072981 
L 381.035915 277.598617 
L 381.16225 277.598617 
L 382.045086 278.609219 
L 382.170665 278.712342 
L 382.423336 278.485472 
L 382.67525 278.11423 
L 382.801586 278.072981 
L 382.927165 278.176104 
L 383.305415 279.062959 
L 383.558086 279.269205 
L 383.81 279.083584 
L 384.440165 278.753591 
L 384.692836 279.166082 
L 385.071086 279.722944 
L 385.449336 279.186706 
L 386.0795 279.331078 
L 386.584086 280.011688 
L 386.836 279.949814 
L 387.21425 279.599197 
L 387.466165 279.722944 
L 387.97075 280.527302 
L 388.222665 280.300432 
L 388.853586 280.341681 
L 389.1055 280.279807 
L 389.231836 280.424179 
L 389.48375 280.919168 
L 389.862 280.692298 
L 389.988336 280.651049 
L 390.366586 281.001666 
L 390.744836 280.877919 
L 391.501336 281.166662 
L 391.879586 281.125413 
L 392.257836 281.434781 
L 392.50975 281.290409 
L 392.761665 281.414157 
L 393.139914 281.682276 
L 393.518165 281.785398 
L 393.896415 281.806023 
L 394.149086 281.682276 
L 394.527335 281.92977 
L 394.905586 282.280387 
L 395.283836 282.321636 
L 395.53575 282.094767 
L 395.787665 282.321636 
L 396.040336 282.259763 
L 396.29225 282.424759 
L 396.6705 282.734127 
L 396.922415 282.280387 
L 397.175086 281.950395 
L 397.678915 282.857875 
L 398.057164 283.06412 
L 398.1835 283.146618 
L 398.435415 282.83725 
L 398.688085 282.362886 
L 398.813665 282.362886 
L 399.066336 282.754752 
L 399.444585 283.352863 
L 399.6965 283.29099 
L 400.07475 283.022871 
L 400.326665 282.83725 
L 401.083165 283.682856 
L 401.461415 283.187867 
L 401.58775 283.002246 
L 401.966 283.167243 
L 402.34425 283.703481 
L 402.596165 283.889101 
L 403.227086 283.29099 
L 403.479 283.187867 
L 403.983586 284.177845 
L 404.487415 283.662232 
L 404.865665 283.785979 
L 404.992 283.620982 
L 405.118336 283.703481 
L 405.496585 284.445964 
L 405.622165 284.404715 
L 406.000414 284.033473 
L 406.378665 284.280968 
L 406.756915 284.219094 
L 407.009586 284.445964 
L 407.387835 284.342841 
L 407.513415 284.280968 
L 408.39625 284.714083 
L 408.7745 284.363466 
L 409.404665 284.652209 
L 409.782915 284.817206 
L 409.90925 284.920328 
L 410.413836 284.652209 
L 411.295915 284.775957 
L 411.548586 284.590336 
L 412.17875 285.023451 
L 412.430665 285.0647 
L 412.683336 285.209072 
L 412.808914 285.147198 
L 413.061586 284.672834 
L 413.187165 284.693459 
L 413.69175 285.147198 
L 414.07 285.188447 
L 414.321915 285.29157 
L 414.574586 284.920328 
L 414.8265 284.982202 
L 415.331086 285.497816 
L 415.583 285.683436 
L 415.709336 285.662812 
L 416.213165 285.105949 
L 416.591415 285.394693 
L 416.844086 285.621563 
L 417.222336 286.054678 
L 417.600586 285.374068 
L 417.726165 285.270946 
L 417.8525 285.312195 
L 418.23075 285.869057 
L 418.609 286.034054 
L 419.239165 285.394693 
L 419.3655 285.229697 
L 419.617415 285.600938 
L 419.995665 286.240299 
L 420.626586 285.74531 
L 421.130415 285.704061 
L 421.635 286.364046 
L 422.01325 285.807184 
L 422.3915 285.74531 
L 422.643415 285.889682 
L 423.021664 286.219674 
L 423.399915 286.095927 
L 423.652586 286.034054 
L 424.030836 285.827808 
L 424.156415 285.992805 
L 424.409086 286.570292 
L 424.534665 286.611541 
L 424.912914 286.095927 
L 425.4175 286.343422 
L 425.79575 286.384671 
L 426.047665 286.694039 
L 426.678586 286.343422 
L 427.056835 286.570292 
L 427.30875 286.467169 
L 427.435086 286.467169 
L 427.687 286.364046 
L 428.06525 286.529043 
L 428.317165 286.446544 
L 428.695415 286.714663 
L 428.82175 286.755913 
L 429.073665 286.65279 
L 429.451915 286.570292 
L 429.704586 286.900284 
L 429.9565 286.797162 
L 431.217585 286.673414 
L 431.595836 286.87966 
L 431.721414 286.838411 
L 431.974086 286.384671 
L 432.099665 286.384671 
L 432.60425 286.797162 
L 433.234415 286.900284 
L 433.739 286.137176 
L 434.369165 287.044656 
L 434.621836 287.065281 
L 434.747415 287.024032 
L 435.125665 286.632165 
L 435.252 286.570292 
L 435.63025 286.900284 
L 436.0085 287.498396 
L 436.134836 287.457147 
L 436.638665 286.65279 
L 436.891336 286.714663 
L 437.269586 287.250901 
L 437.5215 287.51902 
L 437.647836 287.56027 
L 438.278 286.611541 
L 438.404336 286.632165 
L 438.782586 287.147779 
L 439.0345 287.3334 
L 440.042915 286.735288 
L 440.5475 287.477771 
L 440.92575 287.003407 
L 441.177665 286.941533 
L 441.430336 287.044656 
L 441.68225 286.982782 
L 442.0605 287.457147 
L 442.565086 287.003407 
L 442.943336 287.044656 
L 443.19525 287.147779 
L 443.447165 287.374649 
L 443.825415 287.044656 
L 444.203665 286.87966 
L 444.456336 286.735288 
L 444.70825 286.920909 
L 444.960165 287.189028 
L 445.338414 286.838411 
L 445.46475 286.87966 
L 445.843 287.271526 
L 446.473164 287.065281 
L 446.725835 287.147779 
L 446.97775 286.962158 
L 447.73425 287.127154 
L 448.1125 286.755913 
L 448.617086 287.003407 
L 448.995336 287.10653 
L 449.24725 287.189028 
L 449.751836 286.817786 
L 450.382 287.312775 
L 450.508336 287.312775 
L 451.012165 286.838411 
L 451.1385 286.797162 
L 451.51675 287.065281 
L 451.768665 287.147779 
L 452.146915 287.51902 
L 452.27325 287.374649 
L 452.525165 286.859035 
L 452.777835 286.962158 
L 453.156086 287.3334 
L 453.659915 287.51902 
L 453.912586 287.189028 
L 454.290836 286.714663 
L 454.794665 287.415898 
L 455.172915 287.539645 
L 455.425586 287.230277 
L 455.6775 287.127154 
L 455.929415 286.900284 
L 456.560336 287.869638 
L 456.685915 287.725266 
L 456.938585 287.271526 
L 457.442414 287.209652 
L 457.56875 287.292151 
L 457.820665 287.622143 
L 458.198915 287.807764 
L 458.451586 287.498396 
L 458.829836 287.024032 
L 458.955415 287.024032 
L 459.08175 287.168403 
L 459.333664 287.601519 
L 459.46 287.704641 
L 459.964586 287.415898 
L 460.2165 287.271526 
L 460.468415 286.982782 
L 460.59475 287.003407 
L 460.721086 287.168403 
L 460.973 287.663392 
L 461.099336 287.622143 
L 461.35125 287.230277 
L 461.603165 287.292151 
L 461.855836 287.395273 
L 462.234086 287.230277 
L 462.486 287.539645 
L 463.116165 287.209652 
L 463.494415 287.312775 
L 463.747086 287.415898 
L 463.999 287.415898 
L 464.250914 287.209652 
L 464.629165 287.51902 
L 465.13375 287.354024 
L 465.385665 287.498396 
L 465.89025 287.292151 
L 466.394835 287.684017 
L 466.773086 287.477771 
L 467.025 287.250901 
L 467.151336 287.354024 
L 467.151336 287.354024 
" clip-path="url(#pbecd43e893)" style="fill: none; stroke: #8286ff; stroke-width: 0.8; stroke-linecap: square"/>
   </g>
   <g id="line2d_14">
    <path d="M 50.823665 290.630375 
L 51.201915 290.59502 
L 51.958415 290.815994 
L 52.336665 290.515469 
L 52.967586 290.692248 
L 53.471415 290.85135 
L 54.102336 290.453596 
L 54.858836 290.869028 
L 55.237086 290.789477 
L 55.86725 290.648053 
L 56.371836 290.886706 
L 57.002 290.533147 
L 57.38025 290.577342 
L 58.010415 290.833672 
L 58.515 290.603859 
L 59.145165 290.754121 
L 59.523415 290.736443 
L 60.40625 290.59502 
L 60.910836 290.886706 
L 61.414665 290.683409 
L 62.171165 290.718765 
L 62.423836 290.886706 
L 63.180336 290.656892 
L 63.8105 290.807155 
L 64.18875 290.780638 
L 64.94525 290.630375 
L 65.449836 290.886706 
L 65.828086 290.736443 
L 66.331915 290.67457 
L 66.584586 290.683409 
L 67.088415 290.877867 
L 67.466665 290.656892 
L 68.223165 290.754121 
L 68.601415 290.886706 
L 68.854086 290.85135 
L 69.357914 290.683409 
L 69.610586 290.718765 
L 69.8625 290.860189 
L 70.24075 290.736443 
L 70.619 290.842511 
L 71.249165 290.807155 
L 71.501836 290.922062 
L 72.005665 290.798316 
L 72.383915 290.869028 
L 72.762165 290.807155 
L 73.140415 290.877867 
L 74.275165 290.780638 
L 74.77975 290.815994 
L 75.53625 290.718765 
L 75.788164 290.727604 
L 76.040836 290.754121 
L 76.544665 290.656892 
L 77.301165 290.656892 
L 77.553836 290.639214 
L 78.814165 290.736443 
L 79.31875 290.665731 
L 79.697 290.709926 
L 80.201586 290.692248 
L 80.4535 290.612698 
L 80.83175 290.577342 
L 81.336336 290.683409 
L 83.353165 290.541986 
L 83.605836 290.347528 
L 84.109665 290.524308 
L 84.487915 290.488952 
L 84.866165 290.550825 
L 85.244415 290.285655 
L 86.253586 290.480113 
L 87.010086 290.347528 
L 87.766586 290.427079 
L 88.270415 290.153071 
L 88.775 290.276816 
L 89.405165 290.321011 
L 89.783415 290.002808 
L 90.66625 290.223783 
L 91.0445 290.082359 
L 91.42275 289.940935 
L 92.17925 290.126554 
L 92.431165 289.993969 
L 92.809415 289.781834 
L 93.440336 289.870223 
L 93.818586 289.98513 
L 94.322415 289.578537 
L 94.575086 289.719961 
L 94.827 289.808351 
L 95.457165 289.746478 
L 95.96175 289.392919 
L 96.71825 289.675766 
L 97.47475 289.278012 
L 97.853 289.366402 
L 98.357586 289.437114 
L 98.735836 289.127749 
L 99.114085 289.092394 
L 99.74425 289.216139 
L 100.1225 288.986326 
L 100.627086 288.703479 
L 101.130915 289.021682 
L 101.383586 288.924453 
L 101.6355 288.800707 
L 102.01375 288.668123 
L 102.265665 288.588572 
L 102.77025 288.809546 
L 103.1485 288.464826 
L 103.52675 288.376436 
L 104.535165 288.296886 
L 104.913415 288.111267 
L 105.418 288.111267 
L 105.79625 288.146623 
L 106.300836 287.907971 
L 106.804665 287.704674 
L 107.30925 287.969843 
L 107.813836 287.607445 
L 108.192086 287.563251 
L 108.444 287.536734 
L 108.82225 287.589767 
L 109.705086 287.209691 
L 110.461586 287.209691 
L 111.47 286.953361 
L 111.721915 287.121302 
L 112.478414 286.741226 
L 114.496 286.246243 
L 114.87425 286.299277 
L 117.90025 285.344667 
L 118.2785 285.167888 
L 118.530415 285.052981 
L 118.908664 284.97343 
L 120.421665 284.124889 
L 120.674336 283.992304 
L 123.447665 281.322933 
L 124.204165 280.48323 
L 126.22175 278.520977 
L 127.482836 277.398427 
L 127.861086 277.221648 
L 129.121415 276.302394 
L 129.626 276.16097 
L 130.256165 275.595276 
L 130.508836 275.551081 
L 131.012665 275.268234 
L 131.265336 275.144488 
L 131.643586 274.737895 
L 132.021836 274.6937 
L 132.400086 274.684861 
L 132.903915 274.295946 
L 133.282165 274.09265 
L 133.660415 274.048455 
L 134.038665 274.136845 
L 134.291336 273.889353 
L 134.669586 273.544633 
L 135.173415 273.597667 
L 135.551665 273.535794 
L 135.678 273.544633 
L 136.308165 272.996617 
L 136.939086 273.102684 
L 137.191 273.031973 
L 137.821165 272.581185 
L 138.577665 272.643058 
L 138.955915 272.316015 
L 139.334165 272.183431 
L 140.090665 272.254143 
L 140.343336 272.156914 
L 140.847165 271.829872 
L 141.35175 271.9271 
L 141.856336 271.750321 
L 142.4865 271.520508 
L 143.116665 271.688448 
L 143.747586 271.308372 
L 144.251415 271.343728 
L 144.756 271.440957 
L 145.386165 271.043203 
L 145.638836 271.113915 
L 145.89075 271.175787 
L 146.269 271.06972 
L 147.151836 270.725 
L 147.530086 270.972491 
L 147.782 270.822228 
L 148.033915 270.645449 
L 148.91675 270.610093 
L 149.168665 270.698483 
L 150.0515 270.309568 
L 150.681665 270.265373 
L 151.5645 269.876458 
L 151.816415 269.991365 
L 152.069086 270.11511 
L 152.69925 269.814585 
L 153.0775 269.664322 
L 153.329415 269.620128 
L 153.707665 269.788068 
L 154.464165 269.399153 
L 155.473336 269.319602 
L 156.355414 269.054433 
L 156.608086 269.160501 
L 156.986336 268.974882 
L 157.490165 268.868814 
L 157.868415 268.718552 
L 158.246665 268.806942 
L 158.624915 268.444544 
L 162.785664 267.489934 
L 163.163915 267.357349 
L 163.542165 267.26896 
L 164.929586 266.800494 
L 165.307836 266.800494 
L 165.686086 266.526486 
L 165.938 266.376223 
L 166.568165 266.252477 
L 170.09875 264.93547 
L 170.350665 264.714495 
L 171.107165 264.581911 
L 172.36825 264.078089 
L 172.7465 263.901309 
L 173.12475 263.698013 
L 173.503 263.406327 
L 174.007586 263.309098 
L 174.385836 263.247225 
L 174.63775 262.999734 
L 175.016 262.646175 
L 175.39425 262.637336 
L 175.898836 262.442878 
L 176.024415 262.416361 
L 176.529 261.815311 
L 177.033586 261.762277 
L 177.790086 261.276133 
L 178.168336 260.922574 
L 178.546586 260.878379 
L 178.924836 260.772312 
L 179.17675 260.480625 
L 179.555 260.01216 
L 180.3115 259.720473 
L 180.563415 259.623245 
L 181.068 258.933805 
L 181.319915 258.924966 
L 181.572586 258.854254 
L 182.076414 258.491856 
L 182.707336 257.714026 
L 183.589415 257.227882 
L 183.967665 256.706382 
L 184.598586 256.229078 
L 184.976836 256.025781 
L 185.733336 254.982782 
L 186.489836 254.487799 
L 187.371915 253.179631 
L 187.750165 253.029368 
L 188.002836 252.711165 
L 188.759336 251.597454 
L 189.137586 251.270412 
L 189.515836 250.969886 
L 190.146 249.820819 
L 191.407086 248.167931 
L 192.03725 247.160287 
L 192.4155 246.78905 
L 193.423915 244.853314 
L 193.802165 244.367171 
L 194.054836 243.969417 
L 194.811336 242.457952 
L 195.315165 241.653605 
L 195.693415 240.99952 
L 199.475915 233.106314 
L 200.863336 229.888927 
L 201.87175 227.581954 
L 204.014915 222.066432 
L 205.527915 218.141926 
L 206.537086 215.339971 
L 207.671836 212.025354 
L 216.497164 185.596814 
L 216.875415 184.24445 
L 217.884586 181.362944 
L 218.641086 178.923386 
L 219.27125 177.182108 
L 220.657915 172.886365 
L 221.036165 171.595874 
L 221.54075 169.996019 
L 222.170915 168.343131 
L 222.801836 166.159904 
L 223.180086 165.081548 
L 223.683915 163.808736 
L 227.971 151.24855 
L 228.853836 148.552662 
L 229.484 146.855578 
L 229.86225 145.998197 
L 230.61875 143.505606 
L 233.896665 134.100935 
L 234.274915 133.314266 
L 235.409665 129.849387 
L 236.040586 128.187659 
L 236.67075 126.19005 
L 250.161415 86.891959 
L 252.305336 81.217336 
L 252.809165 80.015235 
L 253.565665 78.238601 
L 254.07025 76.912754 
L 255.078665 74.711849 
L 257.222586 70.12442 
L 257.600836 69.549887 
L 258.9875 66.951227 
L 259.36575 66.420889 
L 260.752415 64.158111 
L 261.257 63.459832 
L 261.761586 62.628968 
L 262.139836 62.275409 
L 263.021915 61.135181 
L 263.274586 60.808139 
L 264.156665 60.198249 
L 265.165836 59.234801 
L 265.669665 59.031504 
L 266.300586 58.315547 
L 267.435336 57.758692 
L 267.813586 57.396293 
L 268.0655 57.431649 
L 268.317415 57.458166 
L 268.948336 57.237192 
L 269.452165 56.980862 
L 270.083086 57.219514 
L 270.965165 56.945506 
L 271.343415 57.086929 
L 271.721665 57.325582 
L 272.22625 57.007378 
L 272.478165 57.007378 
L 273.361 57.449327 
L 273.991165 57.502361 
L 274.243836 57.802886 
L 274.622086 58.209479 
L 275.000336 58.28903 
L 275.504165 58.412776 
L 275.756836 58.616072 
L 276.260665 59.349707 
L 276.891586 59.614877 
L 277.52175 60.44574 
L 277.9 60.834655 
L 278.782836 61.612485 
L 279.161086 62.26657 
L 279.664915 62.832264 
L 280.421415 63.90178 
L 280.799665 64.564704 
L 281.177915 64.94478 
L 282.439 67.004261 
L 282.943586 67.684863 
L 284.960415 71.282326 
L 285.338665 72.068995 
L 285.716915 72.723079 
L 292.021586 86.202519 
L 292.65175 87.590238 
L 293.03 88.412263 
L 294.291086 91.178863 
L 294.794915 92.230701 
L 295.425836 93.53887 
L 302.108 106.885725 
L 303.24275 109.555096 
L 303.494665 110.032401 
L 304.75575 113.444246 
L 305.260336 114.672863 
L 306.395085 117.907929 
L 307.277165 120.639173 
L 307.78175 122.071087 
L 308.16 123.034536 
L 309.042836 125.960237 
L 310.05125 129.009684 
L 310.681415 130.971937 
L 311.690586 134.207002 
L 312.194415 135.700789 
L 313.07725 138.405516 
L 313.960086 141.083726 
L 314.463915 142.639386 
L 315.094836 144.875647 
L 315.976915 147.509662 
L 316.607836 149.781279 
L 317.111665 151.080609 
L 321.272415 164.171134 
L 322.15525 166.743276 
L 323.038086 169.483359 
L 323.794586 171.878722 
L 324.42475 173.70839 
L 325.307586 176.29821 
L 325.811415 177.756641 
L 326.820586 180.470207 
L 327.324415 181.972833 
L 328.333586 184.695238 
L 329.090086 186.75472 
L 329.846586 188.840718 
L 330.47675 190.528963 
L 334.511165 201.00315 
L 335.01575 202.231768 
L 336.402415 205.785037 
L 338.924586 212.396591 
L 339.681086 214.235099 
L 343.589165 223.569058 
L 343.841836 224.037524 
L 344.472 225.672735 
L 345.2285 227.069293 
L 345.60675 227.917835 
L 346.36325 229.667952 
L 347.246085 231.426909 
L 348.002586 233.05328 
L 348.2545 233.353806 
L 348.759086 234.485195 
L 349.38925 235.837558 
L 349.7675 236.226473 
L 350.019415 236.659583 
L 350.775915 238.347827 
L 351.2805 239.081463 
L 351.532415 239.443861 
L 352.541586 241.441469 
L 352.919836 241.918774 
L 353.423665 242.855706 
L 354.054586 243.960578 
L 354.432836 244.28762 
L 354.68475 244.738408 
L 355.314915 246.01122 
L 355.8195 246.629949 
L 356.324086 247.39894 
L 356.827915 248.415422 
L 357.71075 249.431904 
L 358.46725 250.669361 
L 358.8455 250.925691 
L 359.22375 251.438352 
L 359.853915 252.569741 
L 360.988665 253.939783 
L 361.366915 254.523155 
L 362.24975 255.442409 
L 362.628 256.087654 
L 363.00625 256.617993 
L 363.258165 256.777094 
L 363.889086 257.493051 
L 364.645586 258.580245 
L 365.654 259.649762 
L 365.905915 259.967965 
L 366.158586 260.135905 
L 367.040664 261.04632 
L 367.418915 261.691565 
L 367.797165 261.841828 
L 368.553665 262.575463 
L 369.184586 263.300259 
L 369.81475 263.848276 
L 370.823165 264.944309 
L 371.201414 265.209478 
L 371.579665 265.456969 
L 371.957915 265.951952 
L 372.336165 266.199443 
L 372.967085 266.756299 
L 373.470914 267.251282 
L 373.849165 267.52529 
L 374.101836 267.640197 
L 374.858336 268.435705 
L 375.362165 268.806942 
L 375.614836 268.99256 
L 375.993086 269.142823 
L 376.749586 269.788068 
L 378.262586 270.857584 
L 378.640836 271.043203 
L 379.144665 271.458635 
L 379.522915 271.555863 
L 380.0275 272.059685 
L 380.279415 272.174592 
L 381.035915 272.643058 
L 381.288586 272.784481 
L 382.045086 273.394371 
L 382.801586 273.800964 
L 383.81 274.455048 
L 384.061915 274.472726 
L 384.5665 274.817446 
L 384.94475 275.020742 
L 385.323 275.321268 
L 385.574915 275.232878 
L 385.953165 275.524564 
L 386.331414 275.798572 
L 387.340586 276.08142 
L 388.222665 276.655953 
L 388.853586 276.876928 
L 389.735665 277.4603 
L 389.988336 277.354232 
L 390.113915 277.292359 
L 390.492165 277.592885 
L 390.870415 277.875732 
L 391.501336 278.114384 
L 391.75325 278.070189 
L 392.257836 278.49446 
L 392.761665 278.777308 
L 393.139914 278.653562 
L 393.518165 278.786147 
L 394.02275 279.148545 
L 394.274665 279.298807 
L 394.77925 279.1839 
L 395.787665 279.891019 
L 396.544165 279.855663 
L 397.04875 280.279934 
L 397.300664 280.332967 
L 397.80525 280.244578 
L 398.057164 280.306451 
L 398.688085 280.766077 
L 399.570165 280.863306 
L 400.326665 281.322933 
L 400.579336 281.252221 
L 400.83125 281.17267 
L 401.083165 281.26106 
L 401.58775 281.676492 
L 401.839665 281.667653 
L 402.092336 281.579263 
L 402.7225 281.69417 
L 403.227086 282.109602 
L 404.109164 282.065407 
L 404.992 282.472 
L 405.496585 282.348254 
L 405.7485 282.542712 
L 406.12675 282.790203 
L 406.505 282.843237 
L 406.88325 282.843237 
L 407.2615 282.852076 
L 407.766086 283.232152 
L 408.144336 283.07305 
L 408.900836 283.232152 
L 409.279086 283.523838 
L 410.2875 283.514999 
L 411.170336 283.797846 
L 411.8005 283.691779 
L 412.305085 283.965787 
L 412.557 283.93927 
L 413.061586 284.089533 
L 413.439836 284.02766 
L 413.818086 284.301668 
L 414.44825 284.169083 
L 415.456665 284.496126 
L 415.834915 284.522642 
L 416.213165 284.451931 
L 417.47425 284.752456 
L 417.978836 284.611032 
L 418.609 284.823168 
L 418.98725 284.876202 
L 419.74375 285.026464 
L 420.8785 285.114854 
L 421.25675 285.212083 
L 421.635 285.2386 
L 422.265165 285.273956 
L 422.643415 285.326989 
L 424.156415 285.468413 
L 424.409086 285.433057 
L 424.787336 285.539125 
L 425.291165 285.600998 
L 425.543836 285.680548 
L 426.174 285.574481 
L 426.804165 285.760099 
L 427.182415 285.910362 
L 427.435086 285.733582 
L 428.06525 285.883845 
L 428.317165 285.989913 
L 429.326336 285.92804 
L 429.830165 286.087141 
L 430.208415 286.131336 
L 430.461086 285.989913 
L 431.09125 286.18437 
L 431.84775 286.175531 
L 432.099665 286.060624 
L 433.234415 286.263921 
L 433.612664 286.149014 
L 434.747415 286.458378 
L 435.125665 286.290438 
L 435.503915 286.484895 
L 436.260415 286.590963 
L 436.638665 286.334633 
L 436.891336 286.423022 
L 437.269586 286.643997 
L 438.026085 286.582124 
L 438.278 286.467217 
L 439.160836 286.767743 
L 439.539086 286.511412 
L 439.917335 286.546768 
L 440.295586 286.741226 
L 440.673836 286.803099 
L 441.177665 286.511412 
L 441.430336 286.635158 
L 441.934165 286.87381 
L 442.186836 286.838454 
L 442.817 286.555607 
L 443.699836 286.79426 
L 443.95175 286.643997 
L 444.581914 286.661675 
L 445.212836 286.820776 
L 445.591086 286.537929 
L 445.843 286.493734 
L 446.5995 286.785421 
L 447.104086 286.61748 
L 447.482336 286.520251 
L 448.1125 286.767743 
L 448.49075 286.608641 
L 449.373586 286.732387 
L 449.6255 286.829615 
L 450.130086 286.52909 
L 450.886586 286.61748 
L 451.1385 286.758904 
L 451.390414 286.732387 
L 451.768665 286.564446 
L 452.146915 286.537929 
L 452.525165 286.79426 
L 453.659915 286.608641 
L 453.912586 286.758904 
L 454.1645 286.909166 
L 454.54275 286.803099 
L 455.047336 286.864971 
L 455.29925 286.785421 
L 455.929415 286.891488 
L 456.434 286.79426 
L 457.316836 286.935683 
L 458.451586 286.9622 
L 458.7035 287.006395 
L 459.08175 286.9622 
L 459.711915 286.944522 
L 459.964586 286.997556 
L 460.2165 287.130141 
L 460.468415 287.085946 
L 460.721086 286.9622 
L 463.872665 287.059429 
L 464.125336 287.094785 
L 464.503586 286.988717 
L 465.007415 286.988717 
L 465.385665 286.988717 
L 465.763915 287.032912 
L 466.520415 286.935683 
L 466.898665 286.926844 
L 467.151336 286.926844 
L 467.151336 286.926844 
" clip-path="url(#pbecd43e893)" style="fill: none; stroke: #f5c92a; stroke-width: 0.8; stroke-linecap: square"/>
   </g>
   <g id="patch_3">
    <path d="M 50.95 313.64 
L 50.95 33.6 
" style="fill: none; stroke: #000000; stroke-width: 0.5; stroke-linejoin: miter; stroke-linecap: square"/>
   </g>
   <g id="patch_4">
    <path d="M 50.95 313.64 
L 467.025 313.64 
" style="fill: none; stroke: #000000; stroke-width: 0.5; stroke-linejoin: miter; stroke-linecap: square"/>
   </g>
   <g id="legend_1">
    <g id="text_15">
     <!-- Experiment Conditions -->
     <g transform="translate(348.823125 48.16875) scale(0.1 -0.1)">
      <defs>
       <path id="Helvetica-45" d="M 547 4591 
L 3894 4591 
L 3894 4028 
L 1153 4028 
L 1153 2634 
L 3688 2634 
L 3688 2103 
L 1153 2103 
L 1153 547 
L 3941 547 
L 3941 0 
L 547 0 
L 547 4591 
z
M 2244 4591 
L 2244 4591 
z
" transform="scale(0.015625)"/>
       <path id="Helvetica-78" d="M 94 3347 
L 822 3347 
L 1591 2169 
L 2369 3347 
L 3053 3331 
L 1925 1716 
L 3103 0 
L 2384 0 
L 1553 1256 
L 747 0 
L 34 0 
L 1213 1716 
L 94 3347 
z
" transform="scale(0.015625)"/>
       <path id="Helvetica-70" d="M 1825 378 
Q 2219 378 2480 708 
Q 2741 1038 2741 1694 
Q 2741 2094 2625 2381 
Q 2406 2934 1825 2934 
Q 1241 2934 1025 2350 
Q 909 2038 909 1556 
Q 909 1169 1025 897 
Q 1244 378 1825 378 
z
M 369 3331 
L 916 3331 
L 916 2888 
Q 1084 3116 1284 3241 
Q 1569 3428 1953 3428 
Q 2522 3428 2919 2992 
Q 3316 2556 3316 1747 
Q 3316 653 2744 184 
Q 2381 -113 1900 -113 
Q 1522 -113 1266 53 
Q 1116 147 931 375 
L 931 -1334 
L 369 -1334 
L 369 3331 
z
" transform="scale(0.015625)"/>
       <path id="Helvetica-43" d="M 2422 4716 
Q 3294 4716 3775 4256 
Q 4256 3797 4309 3213 
L 3703 3213 
Q 3600 3656 3292 3915 
Q 2984 4175 2428 4175 
Q 1750 4175 1333 3698 
Q 916 3222 916 2238 
Q 916 1431 1292 929 
Q 1669 428 2416 428 
Q 3103 428 3463 956 
Q 3653 1234 3747 1688 
L 4353 1688 
Q 4272 963 3816 472 
Q 3269 -119 2341 -119 
Q 1541 -119 997 366 
Q 281 1006 281 2344 
Q 281 3359 819 4009 
Q 1400 4716 2422 4716 
z
M 2297 4716 
L 2297 4716 
z
" transform="scale(0.015625)"/>
      </defs>
      <use xlink:href="#Helvetica-45"/>
      <use xlink:href="#Helvetica-78" x="66.699219"/>
      <use xlink:href="#Helvetica-70" x="116.699219"/>
      <use xlink:href="#Helvetica-65" x="172.314453"/>
      <use xlink:href="#Helvetica-72" x="227.929688"/>
      <use xlink:href="#Helvetica-69" x="261.230469"/>
      <use xlink:href="#Helvetica-6d" x="283.447266"/>
      <use xlink:href="#Helvetica-65" x="366.748047"/>
      <use xlink:href="#Helvetica-6e" x="422.363281"/>
      <use xlink:href="#Helvetica-74" x="477.978516"/>
      <use xlink:href="#Helvetica-20" x="505.761719"/>
      <use xlink:href="#Helvetica-43" x="533.544922"/>
      <use xlink:href="#Helvetica-6f" x="605.761719"/>
      <use xlink:href="#Helvetica-6e" x="661.376953"/>
      <use xlink:href="#Helvetica-64" x="716.992188"/>
      <use xlink:href="#Helvetica-69" x="772.607422"/>
      <use xlink:href="#Helvetica-74" x="794.824219"/>
      <use xlink:href="#Helvetica-69" x="822.607422"/>
      <use xlink:href="#Helvetica-6f" x="844.824219"/>
      <use xlink:href="#Helvetica-6e" x="900.439453"/>
      <use xlink:href="#Helvetica-73" x="956.054688"/>
     </g>
    </g>
    <g id="line2d_15">
     <path d="M 350.843125 57.348125 
L 358.843125 57.348125 
L 366.843125 57.348125 
" style="fill: none; stroke: #8286ff; stroke-width: 0.8; stroke-linecap: square"/>
    </g>
    <g id="text_16">
     <!-- PS-Styrofoam -->
     <g transform="translate(373.243125 60.148125) scale(0.08 -0.08)">
      <defs>
       <path id="Helvetica-50" d="M 547 4591 
L 2613 4591 
Q 3225 4591 3600 4245 
Q 3975 3900 3975 3275 
Q 3975 2738 3640 2339 
Q 3306 1941 2613 1941 
L 1169 1941 
L 1169 0 
L 547 0 
L 547 4591 
z
M 3347 3272 
Q 3347 3778 2972 3959 
Q 2766 4056 2406 4056 
L 1169 4056 
L 1169 2466 
L 2406 2466 
Q 2825 2466 3086 2644 
Q 3347 2822 3347 3272 
z
" transform="scale(0.015625)"/>
       <path id="Helvetica-53" d="M 894 1481 
Q 916 1091 1078 847 
Q 1388 391 2169 391 
Q 2519 391 2806 491 
Q 3363 684 3363 1184 
Q 3363 1559 3128 1719 
Q 2891 1875 2384 1991 
L 1763 2131 
Q 1153 2269 900 2434 
Q 463 2722 463 3294 
Q 463 3913 891 4309 
Q 1319 4706 2103 4706 
Q 2825 4706 3329 4357 
Q 3834 4009 3834 3244 
L 3250 3244 
Q 3203 3613 3050 3809 
Q 2766 4169 2084 4169 
Q 1534 4169 1293 3937 
Q 1053 3706 1053 3400 
Q 1053 3063 1334 2906 
Q 1519 2806 2169 2656 
L 2813 2509 
Q 3278 2403 3531 2219 
Q 3969 1897 3969 1284 
Q 3969 522 3414 194 
Q 2859 -134 2125 -134 
Q 1269 -134 784 303 
Q 300 738 309 1481 
L 894 1481 
z
M 2150 4716 
L 2150 4716 
z
" transform="scale(0.015625)"/>
       <path id="Helvetica-2d" d="M 266 2072 
L 1834 2072 
L 1834 1494 
L 266 1494 
L 266 2072 
z
" transform="scale(0.015625)"/>
       <path id="Helvetica-66" d="M 553 3856 
Q 566 4206 675 4369 
Q 872 4656 1434 4656 
Q 1488 4656 1544 4653 
Q 1600 4650 1672 4644 
L 1672 4131 
Q 1584 4138 1545 4139 
Q 1506 4141 1472 4141 
Q 1216 4141 1166 4008 
Q 1116 3875 1116 3331 
L 1672 3331 
L 1672 2888 
L 1109 2888 
L 1109 0 
L 553 0 
L 553 2888 
L 88 2888 
L 88 3331 
L 553 3331 
L 553 3856 
z
" transform="scale(0.015625)"/>
      </defs>
      <use xlink:href="#Helvetica-50"/>
      <use xlink:href="#Helvetica-53" x="66.699219"/>
      <use xlink:href="#Helvetica-2d" x="133.398438"/>
      <use xlink:href="#Helvetica-53" x="166.699219"/>
      <use xlink:href="#Helvetica-74" x="233.398438"/>
      <use xlink:href="#Helvetica-79" x="261.181641"/>
      <use xlink:href="#Helvetica-72" x="311.181641"/>
      <use xlink:href="#Helvetica-6f" x="344.482422"/>
      <use xlink:href="#Helvetica-66" x="400.097656"/>
      <use xlink:href="#Helvetica-6f" x="427.880859"/>
      <use xlink:href="#Helvetica-61" x="483.496094"/>
      <use xlink:href="#Helvetica-6d" x="539.111328"/>
     </g>
    </g>
    <g id="line2d_16">
     <path d="M 350.843125 68.983125 
L 358.843125 68.983125 
L 366.843125 68.983125 
" style="fill: none; stroke: #f5c92a; stroke-width: 0.8; stroke-linecap: square"/>
    </g>
    <g id="text_17">
     <!-- PS-Styrofoam_SCF$_{3}$ -->
     <g transform="translate(373.243125 71.783125) scale(0.08 -0.08)">
      <defs>
       <path id="Helvetica-5f" d="M 0 -800 
L 0 -484 
L 3559 -484 
L 3559 -800 
L 0 -800 
z
" transform="scale(0.015625)"/>
       <path id="Helvetica-46" d="M 547 4591 
L 3731 4591 
L 3731 4028 
L 1169 4028 
L 1169 2634 
L 3422 2634 
L 3422 2088 
L 1169 2088 
L 1169 0 
L 547 0 
L 547 4591 
z
" transform="scale(0.015625)"/>
       <path id="DejaVuSans-33" d="M 2597 2516 
Q 3050 2419 3304 2112 
Q 3559 1806 3559 1356 
Q 3559 666 3084 287 
Q 2609 -91 1734 -91 
Q 1441 -91 1130 -33 
Q 819 25 488 141 
L 488 750 
Q 750 597 1062 519 
Q 1375 441 1716 441 
Q 2309 441 2620 675 
Q 2931 909 2931 1356 
Q 2931 1769 2642 2001 
Q 2353 2234 1838 2234 
L 1294 2234 
L 1294 2753 
L 1863 2753 
Q 2328 2753 2575 2939 
Q 2822 3125 2822 3475 
Q 2822 3834 2567 4026 
Q 2313 4219 1838 4219 
Q 1578 4219 1281 4162 
Q 984 4106 628 3988 
L 628 4550 
Q 988 4650 1302 4700 
Q 1616 4750 1894 4750 
Q 2613 4750 3031 4423 
Q 3450 4097 3450 3541 
Q 3450 3153 3228 2886 
Q 3006 2619 2597 2516 
z
" transform="scale(0.015625)"/>
      </defs>
      <use xlink:href="#Helvetica-50" transform="translate(0 0.3125)"/>
      <use xlink:href="#Helvetica-53" transform="translate(66.699219 0.3125)"/>
      <use xlink:href="#Helvetica-2d" transform="translate(133.398438 0.3125)"/>
      <use xlink:href="#Helvetica-53" transform="translate(166.699219 0.3125)"/>
      <use xlink:href="#Helvetica-74" transform="translate(233.398438 0.3125)"/>
      <use xlink:href="#Helvetica-79" transform="translate(261.181641 0.3125)"/>
      <use xlink:href="#Helvetica-72" transform="translate(311.181641 0.3125)"/>
      <use xlink:href="#Helvetica-6f" transform="translate(344.482422 0.3125)"/>
      <use xlink:href="#Helvetica-66" transform="translate(400.097656 0.3125)"/>
      <use xlink:href="#Helvetica-6f" transform="translate(427.880859 0.3125)"/>
      <use xlink:href="#Helvetica-61" transform="translate(483.496094 0.3125)"/>
      <use xlink:href="#Helvetica-6d" transform="translate(539.111328 0.3125)"/>
      <use xlink:href="#Helvetica-5f" transform="translate(622.412109 0.3125)"/>
      <use xlink:href="#Helvetica-53" transform="translate(678.027344 0.3125)"/>
      <use xlink:href="#Helvetica-43" transform="translate(744.726562 0.3125)"/>
      <use xlink:href="#Helvetica-46" transform="translate(816.943359 0.3125)"/>
      <use xlink:href="#DejaVuSans-33" transform="translate(878.984375 -16.09375) scale(0.7)"/>
     </g>
    </g>
   </g>
   <g id="legend_2">
    <g id="text_18">
     <!-- GPC Data -->
     <g transform="translate(366.586719 136.754281) scale(0.1 -0.1)">
      <defs>
       <path id="Helvetica-47" d="M 2472 4709 
Q 3119 4709 3591 4459 
Q 4275 4100 4428 3200 
L 3813 3200 
Q 3700 3703 3347 3933 
Q 2994 4163 2456 4163 
Q 1819 4163 1383 3684 
Q 947 3206 947 2259 
Q 947 1441 1306 927 
Q 1666 413 2478 413 
Q 3100 413 3508 773 
Q 3916 1134 3925 1941 
L 2488 1941 
L 2488 2456 
L 4503 2456 
L 4503 0 
L 4103 0 
L 3953 591 
Q 3638 244 3394 109 
Q 2984 -122 2353 -122 
Q 1538 -122 950 406 
Q 309 1069 309 2225 
Q 309 3378 934 4059 
Q 1528 4709 2472 4709 
z
M 2369 4716 
L 2369 4716 
z
" transform="scale(0.015625)"/>
       <path id="Helvetica-44" d="M 2250 531 
Q 2566 531 2769 597 
Q 3131 719 3363 1066 
Q 3547 1344 3628 1778 
Q 3675 2038 3675 2259 
Q 3675 3113 3336 3584 
Q 2997 4056 2244 4056 
L 1141 4056 
L 1141 531 
L 2250 531 
z
M 516 4591 
L 2375 4591 
Q 3322 4591 3844 3919 
Q 4309 3313 4309 2366 
Q 4309 1634 4034 1044 
Q 3550 0 2369 0 
L 516 0 
L 516 4591 
z
" transform="scale(0.015625)"/>
      </defs>
      <use xlink:href="#Helvetica-47"/>
      <use xlink:href="#Helvetica-50" x="77.783203"/>
      <use xlink:href="#Helvetica-43" x="144.482422"/>
      <use xlink:href="#Helvetica-20" x="216.699219"/>
      <use xlink:href="#Helvetica-44" x="244.482422"/>
      <use xlink:href="#Helvetica-61" x="316.699219"/>
      <use xlink:href="#Helvetica-74" x="372.314453"/>
      <use xlink:href="#Helvetica-61" x="400.097656"/>
     </g>
    </g>
    <g id="line2d_17">
     <path d="M 318.91875 145.777406 
L 326.91875 145.777406 
L 334.91875 145.777406 
" style="fill: none; stroke: #8286ff; stroke-width: 0.8; stroke-linecap: square"/>
    </g>
    <g id="text_19">
     <!-- Mn=54.5k, Mw=121.3k, Mp=100k -->
     <g transform="translate(341.31875 148.577406) scale(0.08 -0.08)">
      <defs>
       <path id="Helvetica-4d" d="M 472 4591 
L 1363 4591 
L 2681 709 
L 3991 4591 
L 4872 4591 
L 4872 0 
L 4281 0 
L 4281 2709 
Q 4281 2850 4287 3175 
Q 4294 3500 4294 3872 
L 2984 0 
L 2369 0 
L 1050 3872 
L 1050 3731 
Q 1050 3563 1058 3217 
Q 1066 2872 1066 2709 
L 1066 0 
L 472 0 
L 472 4591 
z
" transform="scale(0.015625)"/>
       <path id="Helvetica-3d" d="M 3547 2569 
L 3547 2044 
L 288 2044 
L 288 2569 
L 3547 2569 
z
M 3547 1228 
L 3547 694 
L 288 694 
L 288 1228 
L 3547 1228 
z
" transform="scale(0.015625)"/>
       <path id="Helvetica-6b" d="M 400 4591 
L 941 4591 
L 941 1925 
L 2384 3347 
L 3103 3347 
L 1822 2094 
L 3175 0 
L 2456 0 
L 1413 1688 
L 941 1256 
L 941 0 
L 400 0 
L 400 4591 
z
" transform="scale(0.015625)"/>
       <path id="Helvetica-2c" d="M 531 -653 
Q 747 -616 834 -350 
Q 881 -209 881 -78 
Q 881 -56 879 -39 
Q 878 -22 872 0 
L 531 0 
L 531 681 
L 1200 681 
L 1200 50 
Q 1200 -322 1050 -603 
Q 900 -884 531 -950 
L 531 -653 
z
" transform="scale(0.015625)"/>
       <path id="Helvetica-77" d="M 672 3347 
L 1316 709 
L 1969 3347 
L 2600 3347 
L 3256 725 
L 3941 3347 
L 4503 3347 
L 3531 0 
L 2947 0 
L 2266 2591 
L 1606 0 
L 1022 0 
L 56 3347 
L 672 3347 
z
" transform="scale(0.015625)"/>
       <path id="Helvetica-33" d="M 1663 -122 
Q 869 -122 511 314 
Q 153 750 153 1375 
L 741 1375 
Q 778 941 903 744 
Q 1122 391 1694 391 
Q 2138 391 2406 628 
Q 2675 866 2675 1241 
Q 2675 1703 2392 1887 
Q 2109 2072 1606 2072 
Q 1550 2072 1492 2070 
Q 1434 2069 1375 2066 
L 1375 2563 
Q 1463 2553 1522 2550 
Q 1581 2547 1650 2547 
Q 1966 2547 2169 2647 
Q 2525 2822 2525 3272 
Q 2525 3606 2287 3787 
Q 2050 3969 1734 3969 
Q 1172 3969 956 3594 
Q 838 3388 822 3006 
L 266 3006 
Q 266 3506 466 3856 
Q 809 4481 1675 4481 
Q 2359 4481 2734 4176 
Q 3109 3872 3109 3294 
Q 3109 2881 2888 2625 
Q 2750 2466 2531 2375 
Q 2884 2278 3082 2001 
Q 3281 1725 3281 1325 
Q 3281 684 2859 281 
Q 2438 -122 1663 -122 
z
" transform="scale(0.015625)"/>
      </defs>
      <use xlink:href="#Helvetica-4d"/>
      <use xlink:href="#Helvetica-6e" x="83.300781"/>
      <use xlink:href="#Helvetica-3d" x="138.916016"/>
      <use xlink:href="#Helvetica-35" x="197.314453"/>
      <use xlink:href="#Helvetica-34" x="252.929688"/>
      <use xlink:href="#Helvetica-2e" x="308.544922"/>
      <use xlink:href="#Helvetica-35" x="336.328125"/>
      <use xlink:href="#Helvetica-6b" x="391.943359"/>
      <use xlink:href="#Helvetica-2c" x="441.943359"/>
      <use xlink:href="#Helvetica-20" x="469.726562"/>
      <use xlink:href="#Helvetica-4d" x="497.509766"/>
      <use xlink:href="#Helvetica-77" x="580.810547"/>
      <use xlink:href="#Helvetica-3d" x="653.027344"/>
      <use xlink:href="#Helvetica-31" x="711.425781"/>
      <use xlink:href="#Helvetica-32" x="767.041016"/>
      <use xlink:href="#Helvetica-31" x="822.65625"/>
      <use xlink:href="#Helvetica-2e" x="878.271484"/>
      <use xlink:href="#Helvetica-33" x="906.054688"/>
      <use xlink:href="#Helvetica-6b" x="961.669922"/>
      <use xlink:href="#Helvetica-2c" x="1011.669922"/>
      <use xlink:href="#Helvetica-20" x="1039.453125"/>
      <use xlink:href="#Helvetica-4d" x="1067.236328"/>
      <use xlink:href="#Helvetica-70" x="1150.537109"/>
      <use xlink:href="#Helvetica-3d" x="1206.152344"/>
      <use xlink:href="#Helvetica-31" x="1264.550781"/>
      <use xlink:href="#Helvetica-30" x="1320.166016"/>
      <use xlink:href="#Helvetica-30" x="1375.78125"/>
      <use xlink:href="#Helvetica-6b" x="1431.396484"/>
     </g>
    </g>
    <g id="line2d_18">
     <path d="M 318.91875 157.183656 
L 326.91875 157.183656 
L 334.91875 157.183656 
" style="fill: none; stroke: #f5c92a; stroke-width: 0.8; stroke-linecap: square"/>
    </g>
    <g id="text_20">
     <!-- Mn=48.2k, Mw=140k, Mp=92.2k -->
     <g transform="translate(341.31875 159.983656) scale(0.08 -0.08)">
      <use xlink:href="#Helvetica-4d"/>
      <use xlink:href="#Helvetica-6e" x="83.300781"/>
      <use xlink:href="#Helvetica-3d" x="138.916016"/>
      <use xlink:href="#Helvetica-34" x="197.314453"/>
      <use xlink:href="#Helvetica-38" x="252.929688"/>
      <use xlink:href="#Helvetica-2e" x="308.544922"/>
      <use xlink:href="#Helvetica-32" x="336.328125"/>
      <use xlink:href="#Helvetica-6b" x="391.943359"/>
      <use xlink:href="#Helvetica-2c" x="441.943359"/>
      <use xlink:href="#Helvetica-20" x="469.726562"/>
      <use xlink:href="#Helvetica-4d" x="497.509766"/>
      <use xlink:href="#Helvetica-77" x="580.810547"/>
      <use xlink:href="#Helvetica-3d" x="653.027344"/>
      <use xlink:href="#Helvetica-31" x="711.425781"/>
      <use xlink:href="#Helvetica-34" x="767.041016"/>
      <use xlink:href="#Helvetica-30" x="822.65625"/>
      <use xlink:href="#Helvetica-6b" x="878.271484"/>
      <use xlink:href="#Helvetica-2c" x="928.271484"/>
      <use xlink:href="#Helvetica-20" x="956.054688"/>
      <use xlink:href="#Helvetica-4d" x="983.837891"/>
      <use xlink:href="#Helvetica-70" x="1067.138672"/>
      <use xlink:href="#Helvetica-3d" x="1122.753906"/>
      <use xlink:href="#Helvetica-39" x="1181.152344"/>
      <use xlink:href="#Helvetica-32" x="1236.767578"/>
      <use xlink:href="#Helvetica-2e" x="1292.382812"/>
      <use xlink:href="#Helvetica-32" x="1320.166016"/>
      <use xlink:href="#Helvetica-6b" x="1375.78125"/>
     </g>
    </g>
   </g>
  </g>
 </g>
 <defs>
  <clipPath id="pbecd43e893">
   <rect x="50.95" y="33.6" width="416.075" height="280.04"/>
  </clipPath>
 </defs>
</svg>
