<?xml version="1.0" encoding="utf-8" standalone="no"?>
<!DOCTYPE svg PUBLIC "-//W3C//DTD SVG 1.1//EN"
  "http://www.w3.org/Graphics/SVG/1.1/DTD/svg11.dtd">
<svg height="288pt" version="1.1" viewBox="0 0 432 288" width="432pt" xmlns="http://www.w3.org/2000/svg" xmlns:xlink="http://www.w3.org/1999/xlink">
 <metadata>
  <rdf:RDF xmlns:cc="http://creativecommons.org/ns#" xmlns:dc="http://purl.org/dc/elements/1.1/" xmlns:rdf="http://www.w3.org/1999/02/22-rdf-syntax-ns#">
   <cc:Work>
    <dc:type rdf:resource="http://purl.org/dc/dcmitype/StillImage"/>
    <dc:date>2023-07-19T14:14:38.449221</dc:date>
    <dc:format>image/svg+xml</dc:format>
    <dc:creator>
     <cc:Agent>
      <dc:title>Matplotlib v3.4.3, https://matplotlib.org/</dc:title>
     </cc:Agent>
    </dc:creator>
   </cc:Work>
  </rdf:RDF>
 </metadata>
 <defs>
  <style type="text/css">*{stroke-linecap:butt;stroke-linejoin:round;}</style>
 </defs>
 <g id="figure_1">
  <g id="patch_1">
   <path d="M 0 288 
L 432 288 
L 432 0 
L 0 0 
z
" style="fill:none;"/>
  </g>
  <g id="axes_1">
   <g id="patch_2">
    <path d="M 54 252 
L 388.8 252 
L 388.8 34.56 
L 54 34.56 
z
" style="fill:none;"/>
   </g>
   <g id="matplotlib.axis_1">
    <g id="xtick_1">
     <g id="text_1">
      <!-- 1600 -->
      <g style="fill:#262626;" transform="translate(78.219522 266.157812)scale(0.1 -0.1)">
       <defs>
        <path d="M 2384 0 
L 1822 0 
L 1822 3584 
Q 1619 3391 1289 3197 
Q 959 3003 697 2906 
L 697 3450 
Q 1169 3672 1522 3987 
Q 1875 4303 2022 4600 
L 2384 4600 
L 2384 0 
z
" id="ArialMT-31" transform="scale(0.015625)"/>
        <path d="M 3184 3459 
L 2625 3416 
Q 2550 3747 2413 3897 
Q 2184 4138 1850 4138 
Q 1581 4138 1378 3988 
Q 1113 3794 959 3422 
Q 806 3050 800 2363 
Q 1003 2672 1297 2822 
Q 1591 2972 1913 2972 
Q 2475 2972 2870 2558 
Q 3266 2144 3266 1488 
Q 3266 1056 3080 686 
Q 2894 316 2569 119 
Q 2244 -78 1831 -78 
Q 1128 -78 684 439 
Q 241 956 241 2144 
Q 241 3472 731 4075 
Q 1159 4600 1884 4600 
Q 2425 4600 2770 4297 
Q 3116 3994 3184 3459 
z
M 888 1484 
Q 888 1194 1011 928 
Q 1134 663 1356 523 
Q 1578 384 1822 384 
Q 2178 384 2434 671 
Q 2691 959 2691 1453 
Q 2691 1928 2437 2201 
Q 2184 2475 1800 2475 
Q 1419 2475 1153 2201 
Q 888 1928 888 1484 
z
" id="ArialMT-36" transform="scale(0.015625)"/>
        <path d="M 266 2259 
Q 266 3072 433 3567 
Q 600 4063 929 4331 
Q 1259 4600 1759 4600 
Q 2128 4600 2406 4451 
Q 2684 4303 2865 4023 
Q 3047 3744 3150 3342 
Q 3253 2941 3253 2259 
Q 3253 1453 3087 958 
Q 2922 463 2592 192 
Q 2263 -78 1759 -78 
Q 1097 -78 719 397 
Q 266 969 266 2259 
z
M 844 2259 
Q 844 1131 1108 757 
Q 1372 384 1759 384 
Q 2147 384 2411 759 
Q 2675 1134 2675 2259 
Q 2675 3391 2411 3762 
Q 2147 4134 1753 4134 
Q 1366 4134 1134 3806 
Q 844 3388 844 2259 
z
" id="ArialMT-30" transform="scale(0.015625)"/>
       </defs>
       <use xlink:href="#ArialMT-31"/>
       <use x="55.615234" xlink:href="#ArialMT-36"/>
       <use x="111.230469" xlink:href="#ArialMT-30"/>
       <use x="166.845703" xlink:href="#ArialMT-30"/>
      </g>
     </g>
    </g>
    <g id="xtick_2">
     <g id="text_2">
      <!-- 1800 -->
      <g style="fill:#262626;" transform="translate(128.527562 266.157812)scale(0.1 -0.1)">
       <defs>
        <path d="M 1131 2484 
Q 781 2613 612 2850 
Q 444 3088 444 3419 
Q 444 3919 803 4259 
Q 1163 4600 1759 4600 
Q 2359 4600 2725 4251 
Q 3091 3903 3091 3403 
Q 3091 3084 2923 2848 
Q 2756 2613 2416 2484 
Q 2838 2347 3058 2040 
Q 3278 1734 3278 1309 
Q 3278 722 2862 322 
Q 2447 -78 1769 -78 
Q 1091 -78 675 323 
Q 259 725 259 1325 
Q 259 1772 486 2073 
Q 713 2375 1131 2484 
z
M 1019 3438 
Q 1019 3113 1228 2906 
Q 1438 2700 1772 2700 
Q 2097 2700 2305 2904 
Q 2513 3109 2513 3406 
Q 2513 3716 2298 3927 
Q 2084 4138 1766 4138 
Q 1444 4138 1231 3931 
Q 1019 3725 1019 3438 
z
M 838 1322 
Q 838 1081 952 856 
Q 1066 631 1291 507 
Q 1516 384 1775 384 
Q 2178 384 2440 643 
Q 2703 903 2703 1303 
Q 2703 1709 2433 1975 
Q 2163 2241 1756 2241 
Q 1359 2241 1098 1978 
Q 838 1716 838 1322 
z
" id="ArialMT-38" transform="scale(0.015625)"/>
       </defs>
       <use xlink:href="#ArialMT-31"/>
       <use x="55.615234" xlink:href="#ArialMT-38"/>
       <use x="111.230469" xlink:href="#ArialMT-30"/>
       <use x="166.845703" xlink:href="#ArialMT-30"/>
      </g>
     </g>
    </g>
    <g id="xtick_3">
     <g id="text_3">
      <!-- 2000 -->
      <g style="fill:#262626;" transform="translate(178.835601 266.157812)scale(0.1 -0.1)">
       <defs>
        <path d="M 3222 541 
L 3222 0 
L 194 0 
Q 188 203 259 391 
Q 375 700 629 1000 
Q 884 1300 1366 1694 
Q 2113 2306 2375 2664 
Q 2638 3022 2638 3341 
Q 2638 3675 2398 3904 
Q 2159 4134 1775 4134 
Q 1369 4134 1125 3890 
Q 881 3647 878 3216 
L 300 3275 
Q 359 3922 746 4261 
Q 1134 4600 1788 4600 
Q 2447 4600 2831 4234 
Q 3216 3869 3216 3328 
Q 3216 3053 3103 2787 
Q 2991 2522 2730 2228 
Q 2469 1934 1863 1422 
Q 1356 997 1212 845 
Q 1069 694 975 541 
L 3222 541 
z
" id="ArialMT-32" transform="scale(0.015625)"/>
       </defs>
       <use xlink:href="#ArialMT-32"/>
       <use x="55.615234" xlink:href="#ArialMT-30"/>
       <use x="111.230469" xlink:href="#ArialMT-30"/>
       <use x="166.845703" xlink:href="#ArialMT-30"/>
      </g>
     </g>
    </g>
    <g id="xtick_4">
     <g id="text_4">
      <!-- 2200 -->
      <g style="fill:#262626;" transform="translate(229.14364 266.157812)scale(0.1 -0.1)">
       <use xlink:href="#ArialMT-32"/>
       <use x="55.615234" xlink:href="#ArialMT-32"/>
       <use x="111.230469" xlink:href="#ArialMT-30"/>
       <use x="166.845703" xlink:href="#ArialMT-30"/>
      </g>
     </g>
    </g>
    <g id="xtick_5">
     <g id="text_5">
      <!-- 2400 -->
      <g style="fill:#262626;" transform="translate(279.451679 266.157812)scale(0.1 -0.1)">
       <defs>
        <path d="M 2069 0 
L 2069 1097 
L 81 1097 
L 81 1613 
L 2172 4581 
L 2631 4581 
L 2631 1613 
L 3250 1613 
L 3250 1097 
L 2631 1097 
L 2631 0 
L 2069 0 
z
M 2069 1613 
L 2069 3678 
L 634 1613 
L 2069 1613 
z
" id="ArialMT-34" transform="scale(0.015625)"/>
       </defs>
       <use xlink:href="#ArialMT-32"/>
       <use x="55.615234" xlink:href="#ArialMT-34"/>
       <use x="111.230469" xlink:href="#ArialMT-30"/>
       <use x="166.845703" xlink:href="#ArialMT-30"/>
      </g>
     </g>
    </g>
    <g id="xtick_6">
     <g id="text_6">
      <!-- 2600 -->
      <g style="fill:#262626;" transform="translate(329.759718 266.157812)scale(0.1 -0.1)">
       <use xlink:href="#ArialMT-32"/>
       <use x="55.615234" xlink:href="#ArialMT-36"/>
       <use x="111.230469" xlink:href="#ArialMT-30"/>
       <use x="166.845703" xlink:href="#ArialMT-30"/>
      </g>
     </g>
    </g>
    <g id="text_7">
     <!-- wavenumber -->
     <g style="fill:#262626;" transform="translate(192.776563 279.303125)scale(0.1 -0.1)">
      <defs>
       <path d="M 1034 0 
L 19 3319 
L 600 3319 
L 1128 1403 
L 1325 691 
Q 1338 744 1497 1375 
L 2025 3319 
L 2603 3319 
L 3100 1394 
L 3266 759 
L 3456 1400 
L 4025 3319 
L 4572 3319 
L 3534 0 
L 2950 0 
L 2422 1988 
L 2294 2553 
L 1622 0 
L 1034 0 
z
" id="ArialMT-77" transform="scale(0.015625)"/>
       <path d="M 2588 409 
Q 2275 144 1986 34 
Q 1697 -75 1366 -75 
Q 819 -75 525 192 
Q 231 459 231 875 
Q 231 1119 342 1320 
Q 453 1522 633 1644 
Q 813 1766 1038 1828 
Q 1203 1872 1538 1913 
Q 2219 1994 2541 2106 
Q 2544 2222 2544 2253 
Q 2544 2597 2384 2738 
Q 2169 2928 1744 2928 
Q 1347 2928 1158 2789 
Q 969 2650 878 2297 
L 328 2372 
Q 403 2725 575 2942 
Q 747 3159 1072 3276 
Q 1397 3394 1825 3394 
Q 2250 3394 2515 3294 
Q 2781 3194 2906 3042 
Q 3031 2891 3081 2659 
Q 3109 2516 3109 2141 
L 3109 1391 
Q 3109 606 3145 398 
Q 3181 191 3288 0 
L 2700 0 
Q 2613 175 2588 409 
z
M 2541 1666 
Q 2234 1541 1622 1453 
Q 1275 1403 1131 1340 
Q 988 1278 909 1158 
Q 831 1038 831 891 
Q 831 666 1001 516 
Q 1172 366 1500 366 
Q 1825 366 2078 508 
Q 2331 650 2450 897 
Q 2541 1088 2541 1459 
L 2541 1666 
z
" id="ArialMT-61" transform="scale(0.015625)"/>
       <path d="M 1344 0 
L 81 3319 
L 675 3319 
L 1388 1331 
Q 1503 1009 1600 663 
Q 1675 925 1809 1294 
L 2547 3319 
L 3125 3319 
L 1869 0 
L 1344 0 
z
" id="ArialMT-76" transform="scale(0.015625)"/>
       <path d="M 2694 1069 
L 3275 997 
Q 3138 488 2766 206 
Q 2394 -75 1816 -75 
Q 1088 -75 661 373 
Q 234 822 234 1631 
Q 234 2469 665 2931 
Q 1097 3394 1784 3394 
Q 2450 3394 2872 2941 
Q 3294 2488 3294 1666 
Q 3294 1616 3291 1516 
L 816 1516 
Q 847 969 1125 678 
Q 1403 388 1819 388 
Q 2128 388 2347 550 
Q 2566 713 2694 1069 
z
M 847 1978 
L 2700 1978 
Q 2663 2397 2488 2606 
Q 2219 2931 1791 2931 
Q 1403 2931 1139 2672 
Q 875 2413 847 1978 
z
" id="ArialMT-65" transform="scale(0.015625)"/>
       <path d="M 422 0 
L 422 3319 
L 928 3319 
L 928 2847 
Q 1294 3394 1984 3394 
Q 2284 3394 2536 3286 
Q 2788 3178 2913 3003 
Q 3038 2828 3088 2588 
Q 3119 2431 3119 2041 
L 3119 0 
L 2556 0 
L 2556 2019 
Q 2556 2363 2490 2533 
Q 2425 2703 2258 2804 
Q 2091 2906 1866 2906 
Q 1506 2906 1245 2678 
Q 984 2450 984 1813 
L 984 0 
L 422 0 
z
" id="ArialMT-6e" transform="scale(0.015625)"/>
       <path d="M 2597 0 
L 2597 488 
Q 2209 -75 1544 -75 
Q 1250 -75 995 37 
Q 741 150 617 320 
Q 494 491 444 738 
Q 409 903 409 1263 
L 409 3319 
L 972 3319 
L 972 1478 
Q 972 1038 1006 884 
Q 1059 663 1231 536 
Q 1403 409 1656 409 
Q 1909 409 2131 539 
Q 2353 669 2445 892 
Q 2538 1116 2538 1541 
L 2538 3319 
L 3100 3319 
L 3100 0 
L 2597 0 
z
" id="ArialMT-75" transform="scale(0.015625)"/>
       <path d="M 422 0 
L 422 3319 
L 925 3319 
L 925 2853 
Q 1081 3097 1340 3245 
Q 1600 3394 1931 3394 
Q 2300 3394 2536 3241 
Q 2772 3088 2869 2813 
Q 3263 3394 3894 3394 
Q 4388 3394 4653 3120 
Q 4919 2847 4919 2278 
L 4919 0 
L 4359 0 
L 4359 2091 
Q 4359 2428 4304 2576 
Q 4250 2725 4106 2815 
Q 3963 2906 3769 2906 
Q 3419 2906 3187 2673 
Q 2956 2441 2956 1928 
L 2956 0 
L 2394 0 
L 2394 2156 
Q 2394 2531 2256 2718 
Q 2119 2906 1806 2906 
Q 1569 2906 1367 2781 
Q 1166 2656 1075 2415 
Q 984 2175 984 1722 
L 984 0 
L 422 0 
z
" id="ArialMT-6d" transform="scale(0.015625)"/>
       <path d="M 941 0 
L 419 0 
L 419 4581 
L 981 4581 
L 981 2947 
Q 1338 3394 1891 3394 
Q 2197 3394 2470 3270 
Q 2744 3147 2920 2923 
Q 3097 2700 3197 2384 
Q 3297 2069 3297 1709 
Q 3297 856 2875 390 
Q 2453 -75 1863 -75 
Q 1275 -75 941 416 
L 941 0 
z
M 934 1684 
Q 934 1088 1097 822 
Q 1363 388 1816 388 
Q 2184 388 2453 708 
Q 2722 1028 2722 1663 
Q 2722 2313 2464 2622 
Q 2206 2931 1841 2931 
Q 1472 2931 1203 2611 
Q 934 2291 934 1684 
z
" id="ArialMT-62" transform="scale(0.015625)"/>
       <path d="M 416 0 
L 416 3319 
L 922 3319 
L 922 2816 
Q 1116 3169 1280 3281 
Q 1444 3394 1641 3394 
Q 1925 3394 2219 3213 
L 2025 2691 
Q 1819 2813 1613 2813 
Q 1428 2813 1281 2702 
Q 1134 2591 1072 2394 
Q 978 2094 978 1738 
L 978 0 
L 416 0 
z
" id="ArialMT-72" transform="scale(0.015625)"/>
      </defs>
      <use xlink:href="#ArialMT-77"/>
      <use x="72.216797" xlink:href="#ArialMT-61"/>
      <use x="127.832031" xlink:href="#ArialMT-76"/>
      <use x="177.832031" xlink:href="#ArialMT-65"/>
      <use x="233.447266" xlink:href="#ArialMT-6e"/>
      <use x="289.0625" xlink:href="#ArialMT-75"/>
      <use x="344.677734" xlink:href="#ArialMT-6d"/>
      <use x="427.978516" xlink:href="#ArialMT-62"/>
      <use x="483.59375" xlink:href="#ArialMT-65"/>
      <use x="539.208984" xlink:href="#ArialMT-72"/>
     </g>
    </g>
   </g>
   <g id="matplotlib.axis_2">
    <g id="ytick_1">
     <g id="text_8">
      <!-- 0 -->
      <g style="fill:#262626;" transform="translate(41.439062 245.69343)scale(0.1 -0.1)">
       <use xlink:href="#ArialMT-30"/>
      </g>
     </g>
    </g>
    <g id="ytick_2">
     <g id="text_9">
      <!-- 2000 -->
      <g style="fill:#262626;" transform="translate(24.75625 219.50525)scale(0.1 -0.1)">
       <use xlink:href="#ArialMT-32"/>
       <use x="55.615234" xlink:href="#ArialMT-30"/>
       <use x="111.230469" xlink:href="#ArialMT-30"/>
       <use x="166.845703" xlink:href="#ArialMT-30"/>
      </g>
     </g>
    </g>
    <g id="ytick_3">
     <g id="text_10">
      <!-- 4000 -->
      <g style="fill:#262626;" transform="translate(24.75625 193.31707)scale(0.1 -0.1)">
       <use xlink:href="#ArialMT-34"/>
       <use x="55.615234" xlink:href="#ArialMT-30"/>
       <use x="111.230469" xlink:href="#ArialMT-30"/>
       <use x="166.845703" xlink:href="#ArialMT-30"/>
      </g>
     </g>
    </g>
    <g id="ytick_4">
     <g id="text_11">
      <!-- 6000 -->
      <g style="fill:#262626;" transform="translate(24.75625 167.128891)scale(0.1 -0.1)">
       <use xlink:href="#ArialMT-36"/>
       <use x="55.615234" xlink:href="#ArialMT-30"/>
       <use x="111.230469" xlink:href="#ArialMT-30"/>
       <use x="166.845703" xlink:href="#ArialMT-30"/>
      </g>
     </g>
    </g>
    <g id="ytick_5">
     <g id="text_12">
      <!-- 8000 -->
      <g style="fill:#262626;" transform="translate(24.75625 140.940711)scale(0.1 -0.1)">
       <use xlink:href="#ArialMT-38"/>
       <use x="55.615234" xlink:href="#ArialMT-30"/>
       <use x="111.230469" xlink:href="#ArialMT-30"/>
       <use x="166.845703" xlink:href="#ArialMT-30"/>
      </g>
     </g>
    </g>
    <g id="ytick_6">
     <g id="text_13">
      <!-- 10000 -->
      <g style="fill:#262626;" transform="translate(19.195312 114.752531)scale(0.1 -0.1)">
       <use xlink:href="#ArialMT-31"/>
       <use x="55.615234" xlink:href="#ArialMT-30"/>
       <use x="111.230469" xlink:href="#ArialMT-30"/>
       <use x="166.845703" xlink:href="#ArialMT-30"/>
       <use x="222.460938" xlink:href="#ArialMT-30"/>
      </g>
     </g>
    </g>
    <g id="ytick_7">
     <g id="text_14">
      <!-- 12000 -->
      <g style="fill:#262626;" transform="translate(19.195312 88.564351)scale(0.1 -0.1)">
       <use xlink:href="#ArialMT-31"/>
       <use x="55.615234" xlink:href="#ArialMT-32"/>
       <use x="111.230469" xlink:href="#ArialMT-30"/>
       <use x="166.845703" xlink:href="#ArialMT-30"/>
       <use x="222.460938" xlink:href="#ArialMT-30"/>
      </g>
     </g>
    </g>
    <g id="ytick_8">
     <g id="text_15">
      <!-- 14000 -->
      <g style="fill:#262626;" transform="translate(19.195312 62.376171)scale(0.1 -0.1)">
       <use xlink:href="#ArialMT-31"/>
       <use x="55.615234" xlink:href="#ArialMT-34"/>
       <use x="111.230469" xlink:href="#ArialMT-30"/>
       <use x="166.845703" xlink:href="#ArialMT-30"/>
       <use x="222.460938" xlink:href="#ArialMT-30"/>
      </g>
     </g>
    </g>
    <g id="text_16">
     <!-- intensity -->
     <g style="fill:#262626;" transform="translate(13.090625 161.621406)rotate(-90)scale(0.1 -0.1)">
      <defs>
       <path d="M 425 3934 
L 425 4581 
L 988 4581 
L 988 3934 
L 425 3934 
z
M 425 0 
L 425 3319 
L 988 3319 
L 988 0 
L 425 0 
z
" id="ArialMT-69" transform="scale(0.015625)"/>
       <path d="M 1650 503 
L 1731 6 
Q 1494 -44 1306 -44 
Q 1000 -44 831 53 
Q 663 150 594 308 
Q 525 466 525 972 
L 525 2881 
L 113 2881 
L 113 3319 
L 525 3319 
L 525 4141 
L 1084 4478 
L 1084 3319 
L 1650 3319 
L 1650 2881 
L 1084 2881 
L 1084 941 
Q 1084 700 1114 631 
Q 1144 563 1211 522 
Q 1278 481 1403 481 
Q 1497 481 1650 503 
z
" id="ArialMT-74" transform="scale(0.015625)"/>
       <path d="M 197 991 
L 753 1078 
Q 800 744 1014 566 
Q 1228 388 1613 388 
Q 2000 388 2187 545 
Q 2375 703 2375 916 
Q 2375 1106 2209 1216 
Q 2094 1291 1634 1406 
Q 1016 1563 777 1677 
Q 538 1791 414 1992 
Q 291 2194 291 2438 
Q 291 2659 392 2848 
Q 494 3038 669 3163 
Q 800 3259 1026 3326 
Q 1253 3394 1513 3394 
Q 1903 3394 2198 3281 
Q 2494 3169 2634 2976 
Q 2775 2784 2828 2463 
L 2278 2388 
Q 2241 2644 2061 2787 
Q 1881 2931 1553 2931 
Q 1166 2931 1000 2803 
Q 834 2675 834 2503 
Q 834 2394 903 2306 
Q 972 2216 1119 2156 
Q 1203 2125 1616 2013 
Q 2213 1853 2448 1751 
Q 2684 1650 2818 1456 
Q 2953 1263 2953 975 
Q 2953 694 2789 445 
Q 2625 197 2315 61 
Q 2006 -75 1616 -75 
Q 969 -75 630 194 
Q 291 463 197 991 
z
" id="ArialMT-73" transform="scale(0.015625)"/>
       <path d="M 397 -1278 
L 334 -750 
Q 519 -800 656 -800 
Q 844 -800 956 -737 
Q 1069 -675 1141 -563 
Q 1194 -478 1313 -144 
Q 1328 -97 1363 -6 
L 103 3319 
L 709 3319 
L 1400 1397 
Q 1534 1031 1641 628 
Q 1738 1016 1872 1384 
L 2581 3319 
L 3144 3319 
L 1881 -56 
Q 1678 -603 1566 -809 
Q 1416 -1088 1222 -1217 
Q 1028 -1347 759 -1347 
Q 597 -1347 397 -1278 
z
" id="ArialMT-79" transform="scale(0.015625)"/>
      </defs>
      <use xlink:href="#ArialMT-69"/>
      <use x="22.216797" xlink:href="#ArialMT-6e"/>
      <use x="77.832031" xlink:href="#ArialMT-74"/>
      <use x="105.615234" xlink:href="#ArialMT-65"/>
      <use x="161.230469" xlink:href="#ArialMT-6e"/>
      <use x="216.845703" xlink:href="#ArialMT-73"/>
      <use x="266.845703" xlink:href="#ArialMT-69"/>
      <use x="289.0625" xlink:href="#ArialMT-74"/>
      <use x="316.845703" xlink:href="#ArialMT-79"/>
     </g>
    </g>
   </g>
   <g id="line2d_1">
    <path clip-path="url(#p288d3ab421)" d="M 69.218182 241.601937 
L 70.978963 241.501569 
L 71.859354 241.295725 
L 73.997446 241.728122 
L 75.758227 241.489589 
L 76.387077 241.355199 
L 78.902479 241.306437 
L 80.789031 241.606999 
L 83.052893 241.451522 
L 84.939444 241.048603 
L 86.322915 240.015323 
L 86.700225 239.248625 
L 88.209467 235.418321 
L 88.461007 235.571211 
L 88.838317 236.373852 
L 90.221788 240.12186 
L 90.599098 240.466033 
L 90.976409 240.555863 
L 92.10834 240.57231 
L 93.617581 240.880502 
L 95.252592 240.697774 
L 97.390684 240.168413 
L 103.427648 240.222838 
L 104.93689 240.416478 
L 106.571901 240.391035 
L 107.200751 240.133775 
L 107.955372 240.11178 
L 108.709992 240.531674 
L 109.338843 240.751825 
L 110.345004 240.697448 
L 111.602705 240.745905 
L 113.237716 240.901023 
L 115.753118 240.935556 
L 117.010819 240.711449 
L 118.26852 240.968227 
L 118.89737 240.731329 
L 119.526221 240.600779 
L 120.406612 240.692789 
L 121.035462 240.667463 
L 123.928174 240.235654 
L 125.437415 240.317692 
L 126.192036 240.142978 
L 127.072427 239.980363 
L 127.701277 240.131565 
L 128.330128 240.223857 
L 128.958978 240.141166 
L 130.216679 239.871938 
L 131.09707 240.162206 
L 131.72592 240.341459 
L 132.229001 240.239443 
L 133.486702 239.886358 
L 134.870173 240.070463 
L 135.499023 240.040694 
L 137.134035 240.38238 
L 138.643276 240.227229 
L 142.542149 241.040606 
L 144.17716 241.034391 
L 145.812171 241.05017 
L 146.944102 241.331136 
L 147.321412 241.361342 
L 148.453343 241.243014 
L 149.333734 241.183521 
L 151.094515 241.156664 
L 151.849136 241.086168 
L 153.106837 240.778471 
L 155.748009 240.314462 
L 157.38302 240.251053 
L 158.766491 239.871379 
L 159.395342 240.007274 
L 160.024192 240.110249 
L 162.665364 239.88757 
L 163.545755 239.929482 
L 164.551916 240.207418 
L 167.821938 240.01021 
L 168.702329 240.204372 
L 169.83426 240.371554 
L 170.46311 240.384257 
L 172.349662 240.468059 
L 172.978512 240.454987 
L 174.236213 240.639808 
L 174.865064 240.681433 
L 175.745455 240.483712 
L 177.003156 240.612638 
L 178.009316 240.650387 
L 178.763937 240.573651 
L 180.273178 240.433199 
L 181.027799 240.500762 
L 182.15973 240.463989 
L 183.543201 240.128744 
L 184.172051 240.119631 
L 185.052442 240.343196 
L 187.567844 240.239233 
L 188.322464 240.254845 
L 189.077085 240.216776 
L 191.969797 240.34404 
L 193.730579 240.74718 
L 194.988279 240.596912 
L 195.7429 240.770411 
L 197.000601 241.18849 
L 197.503681 241.054574 
L 198.132532 240.847098 
L 198.635612 240.953328 
L 199.641773 241.549056 
L 200.144853 241.77954 
L 200.522164 241.755604 
L 201.654095 241.436405 
L 202.282945 241.406259 
L 203.414876 241.503062 
L 204.798347 241.329446 
L 205.301427 241.379877 
L 206.936439 241.844496 
L 207.9426 241.690047 
L 211.464162 241.590212 
L 212.847633 241.750181 
L 215.111495 241.458767 
L 215.991886 241.494415 
L 220.645379 241.409619 
L 221.52577 241.309224 
L 222.02885 241.386408 
L 223.035011 241.628321 
L 223.663862 241.677619 
L 224.166942 241.556927 
L 224.670023 241.470884 
L 227.562735 241.554226 
L 228.317355 241.515503 
L 229.323516 241.621342 
L 230.329677 241.580527 
L 230.832757 241.604169 
L 232.090458 241.867486 
L 233.096619 241.933616 
L 236.240872 241.914405 
L 236.995492 241.701767 
L 238.127423 241.553804 
L 238.756273 241.538701 
L 240.768595 240.620863 
L 242.780917 239.461927 
L 243.409767 239.679798 
L 244.290158 239.816408 
L 244.793238 239.742387 
L 245.296319 239.7023 
L 246.67979 239.741212 
L 247.18287 239.497421 
L 247.68595 238.962455 
L 248.566341 237.700066 
L 249.320962 236.030989 
L 250.075582 233.61152 
L 250.955973 230.728477 
L 251.459053 229.773005 
L 251.710594 229.577227 
L 251.962134 229.622013 
L 252.213674 229.924354 
L 252.590984 230.740678 
L 253.219835 232.871813 
L 254.603306 237.77675 
L 255.232156 239.201886 
L 255.861007 240.039465 
L 256.741397 240.619914 
L 258.502179 241.349398 
L 259.75988 241.560884 
L 262.401052 241.497319 
L 263.532983 241.752652 
L 264.539144 241.75448 
L 265.167994 241.707506 
L 266.299925 241.964475 
L 267.306086 241.797964 
L 267.934936 241.67007 
L 268.438017 241.724624 
L 269.066867 241.764351 
L 271.079189 241.821786 
L 271.582269 241.900825 
L 272.46266 241.687877 
L 273.594591 241.465139 
L 275.229602 241.604358 
L 276.109992 241.479621 
L 276.738843 241.421787 
L 277.996544 241.491703 
L 278.625394 241.381417 
L 280.511946 241.083428 
L 282.272727 240.865882 
L 282.901578 240.794661 
L 283.907739 240.836405 
L 284.913899 240.850075 
L 286.29737 240.549733 
L 287.051991 240.526258 
L 288.687002 240.673289 
L 296.484748 240.41479 
L 296.987829 240.429166 
L 297.616679 240.572164 
L 299.25169 240.536889 
L 300.886702 240.637696 
L 301.515552 240.7244 
L 302.647483 240.70912 
L 303.402104 240.433755 
L 304.030954 240.509765 
L 305.037115 240.625306 
L 305.540195 240.469688 
L 306.043276 240.311066 
L 306.923666 240.420417 
L 307.426747 240.394244 
L 308.055597 240.31081 
L 310.696769 240.384738 
L 311.45139 240.415962 
L 312.331781 240.449354 
L 313.086401 240.400137 
L 313.841022 240.383861 
L 314.469872 240.372758 
L 316.607964 240.374722 
L 317.488355 240.152474 
L 320.758377 240.463518 
L 321.261458 240.427861 
L 322.267618 240.304713 
L 323.90263 240.25853 
L 328.304583 240.482447 
L 328.933434 240.645118 
L 330.945755 240.425021 
L 332.077686 240.865614 
L 332.580766 240.785006 
L 333.712697 240.571179 
L 335.347708 240.886074 
L 336.85695 240.946465 
L 338.114651 240.930313 
L 338.743501 241.051179 
L 339.498122 240.953886 
L 340.378512 240.924642 
L 341.384673 240.767211 
L 342.390834 240.751371 
L 343.019684 240.985282 
L 343.900075 240.91496 
L 344.403156 240.893784 
L 346.667017 241.043165 
L 347.170098 241.038943 
L 347.673178 241.07311 
L 351.194741 241.104151 
L 352.326672 241.281216 
L 353.081292 241.333544 
L 354.464763 241.145998 
L 356.854395 241.368841 
L 358.112096 241.286132 
L 358.866717 241.123176 
L 361.256349 241.545162 
L 363.39444 241.75027 
L 364.149061 241.938869 
L 365.658302 241.843638 
L 366.790233 241.641691 
L 367.670624 241.657931 
L 368.676784 241.781467 
L 371.821037 241.648117 
L 373.078738 241.643438 
L 373.581818 241.643438 
L 373.581818 241.643438 
" style="fill:none;stroke:#e41a1c;stroke-linecap:round;"/>
   </g>
   <g id="line2d_2">
    <path clip-path="url(#p288d3ab421)" d="M 69.218182 242.114524 
L 71.356273 242.030469 
L 71.859354 241.986561 
L 72.613974 242.041232 
L 73.117055 241.812328 
L 74.500526 242.115181 
L 74.877836 241.96508 
L 75.129376 241.883104 
L 75.758227 241.976902 
L 76.135537 241.771155 
L 76.890158 241.921627 
L 77.393238 242.113531 
L 78.022089 241.826875 
L 78.776709 242.101108 
L 79.15402 242.062153 
L 79.6571 241.740032 
L 80.03441 241.889761 
L 80.411721 241.996446 
L 82.298272 241.819726 
L 83.304433 241.214952 
L 84.059053 240.355052 
L 84.687904 238.991727 
L 85.190984 236.705057 
L 86.071375 232.264182 
L 86.448685 228.833218 
L 86.700225 224.510799 
L 87.077536 213.161848 
L 87.454846 194.6022 
L 87.957926 167.586238 
L 88.083696 166.621917 
L 88.209467 169.441283 
L 88.586777 192.974597 
L 88.964087 212.291638 
L 89.341397 219.293555 
L 89.844478 226.125738 
L 90.599098 237.607625 
L 90.976409 239.715955 
L 91.353719 240.573973 
L 91.856799 241.094092 
L 92.48565 241.423393 
L 92.86296 241.75189 
L 95.001052 242.024103 
L 95.504132 242.104142 
L 96.258753 241.910394 
L 96.636063 241.826193 
L 97.139144 241.994991 
L 97.893764 241.7387 
L 98.271074 241.8092 
L 98.899925 242.114273 
L 99.277235 241.932801 
L 99.528775 241.843232 
L 100.157626 241.907193 
L 100.534936 241.830317 
L 101.541097 242.017725 
L 102.044177 242.017386 
L 102.421488 241.991134 
L 102.924568 241.902867 
L 103.427648 241.906983 
L 103.930729 241.864537 
L 104.308039 241.966793 
L 104.811119 241.954725 
L 105.18843 242.112112 
L 107.200751 241.918687 
L 107.703832 241.941108 
L 108.081142 241.843545 
L 108.835763 242.059862 
L 109.590383 241.914095 
L 110.219234 242.097914 
L 110.848084 241.91909 
L 111.225394 241.951065 
L 111.728475 241.811348 
L 112.231555 242.003189 
L 112.860406 241.995599 
L 113.615026 241.984488 
L 114.118107 242.033436 
L 114.621187 242.09799 
L 115.375808 241.898073 
L 115.753118 242.111215 
L 116.633509 242.074651 
L 117.136589 241.878155 
L 117.76544 242.072758 
L 118.26852 241.903176 
L 118.7716 241.769536 
L 119.148911 241.891025 
L 119.526221 242.111004 
L 120.658152 241.756404 
L 120.909692 241.827393 
L 121.287002 242.018745 
L 121.915853 242.018456 
L 122.670473 242.067237 
L 123.299324 241.627759 
L 123.802404 241.912495 
L 124.305485 242.079334 
L 124.557025 242.081865 
L 125.185875 241.662968 
L 125.940496 241.930212 
L 126.443576 241.913156 
L 127.575507 241.98845 
L 127.952817 241.960221 
L 128.581668 242.069138 
L 129.462059 241.867308 
L 129.839369 241.923492 
L 130.216679 241.832555 
L 130.9713 241.923337 
L 131.60015 241.840786 
L 132.606311 241.945886 
L 132.983621 241.857236 
L 133.360932 242.050338 
L 133.989782 241.81384 
L 134.492863 242.097631 
L 135.121713 242.04534 
L 135.624793 241.840877 
L 138.014425 241.87212 
L 138.265965 241.715167 
L 138.517506 241.812121 
L 138.894816 241.980117 
L 139.397896 241.954296 
L 139.900977 242.047926 
L 140.655597 241.809966 
L 141.032908 241.885858 
L 141.913298 241.900578 
L 143.422539 241.999874 
L 144.05139 241.92002 
L 144.55447 242.111647 
L 145.183321 241.933143 
L 145.560631 242.033921 
L 146.189482 241.834943 
L 146.566792 241.970642 
L 147.698723 241.915332 
L 148.201803 242.046683 
L 148.704884 241.827466 
L 149.333734 242.110376 
L 150.591435 242.016716 
L 151.094515 242.099683 
L 151.471826 241.818789 
L 151.849136 241.639558 
L 152.352216 241.897122 
L 152.729527 242.017291 
L 154.112998 241.705577 
L 154.364538 241.79439 
L 154.867618 241.725474 
L 155.999549 242.111521 
L 157.00571 241.852666 
L 157.63456 241.61027 
L 158.011871 241.763222 
L 158.389181 241.901634 
L 162.288054 241.790693 
L 162.665364 241.976892 
L 164.300376 241.654078 
L 164.803456 241.799065 
L 165.306536 241.908475 
L 166.941548 241.822837 
L 167.696168 242.047295 
L 168.199249 241.622908 
L 169.205409 241.932041 
L 169.96003 241.872904 
L 171.720811 241.756904 
L 172.223892 241.653127 
L 173.607363 242.079509 
L 174.487754 241.708312 
L 175.493914 241.791422 
L 175.745455 241.79208 
L 176.248535 241.953393 
L 177.254696 241.7569 
L 177.632006 241.722737 
L 178.512397 241.879678 
L 178.763937 241.859204 
L 179.392787 242.09621 
L 180.524718 241.849516 
L 181.153569 242.008119 
L 182.15973 241.889848 
L 182.53704 241.777196 
L 183.04012 241.891112 
L 183.417431 241.688333 
L 184.046281 241.797842 
L 184.423591 241.66814 
L 184.926672 241.902329 
L 185.429752 241.710327 
L 186.310143 241.907735 
L 186.813223 241.860991 
L 187.693614 241.707457 
L 188.070924 241.859581 
L 189.077085 241.650179 
L 189.580165 241.851507 
L 190.837866 241.434519 
L 191.466717 241.818502 
L 192.221337 241.940779 
L 192.472878 242.042764 
L 193.353268 241.843779 
L 194.862509 241.820242 
L 195.61713 241.971176 
L 195.99444 241.788153 
L 196.371751 241.805055 
L 197.000601 242.095106 
L 197.503681 241.714003 
L 198.006762 241.828106 
L 198.384072 241.667396 
L 199.390233 241.928591 
L 199.767543 241.99024 
L 200.270624 242.114146 
L 201.276784 241.945518 
L 202.031405 241.993435 
L 202.660255 241.78348 
L 203.037566 242.109364 
L 203.540646 242.040721 
L 204.295267 241.957818 
L 204.672577 242.084636 
L 205.678738 241.918702 
L 206.056048 242.113948 
L 206.936439 241.894775 
L 207.565289 242.093938 
L 208.57145 241.965998 
L 209.07453 242.113205 
L 210.206461 241.987105 
L 210.458002 242.108128 
L 211.715702 241.856135 
L 212.721863 242.007014 
L 213.099174 241.867846 
L 213.602254 242.015769 
L 213.979564 241.761824 
L 215.237265 242.080071 
L 215.740346 241.921848 
L 215.991886 241.82511 
L 216.369196 242.011084 
L 216.746506 242.066022 
L 217.878437 241.826032 
L 218.633058 241.966105 
L 219.387678 242.021801 
L 219.764989 242.090882 
L 220.519609 241.703369 
L 221.02269 241.50981 
L 221.52577 241.507867 
L 222.02885 241.414147 
L 224.544252 241.898541 
L 225.047333 241.834118 
L 225.298873 241.846142 
L 225.801953 242.081522 
L 226.179264 241.92426 
L 226.682344 241.949531 
L 227.311195 241.642886 
L 227.688505 241.909146 
L 228.065815 242.088205 
L 228.443125 242.068327 
L 229.197746 241.665037 
L 229.575056 241.566787 
L 230.455447 241.983864 
L 231.084298 242.094325 
L 231.713148 241.941835 
L 232.216228 242.006954 
L 232.593539 242.077485 
L 234.8574 241.921124 
L 236.618182 240.929427 
L 237.247032 239.951504 
L 237.875883 238.526514 
L 238.378963 236.910658 
L 239.133584 233.463334 
L 240.139745 226.327326 
L 240.768595 221.133351 
L 241.145905 214.696561 
L 241.648986 200.396533 
L 242.152066 178.763974 
L 242.655147 149.217717 
L 244.038618 51.330744 
L 244.290158 44.560268 
L 244.415928 44.443636 
L 244.541698 47.31183 
L 244.793238 63.626798 
L 245.170548 111.585884 
L 245.799399 191.29413 
L 246.176709 213.366149 
L 246.55402 224.368503 
L 247.0571 231.896654 
L 247.56018 235.79681 
L 247.937491 237.557704 
L 248.440571 238.646536 
L 249.069421 239.629372 
L 249.572502 239.917698 
L 250.327122 240.273818 
L 250.955973 240.999538 
L 251.333283 241.132346 
L 251.584823 241.262983 
L 251.962134 241.107849 
L 252.465214 240.966904 
L 252.842524 240.810954 
L 253.219835 240.609764 
L 253.471375 240.693456 
L 254.729076 241.775745 
L 255.106386 241.848109 
L 255.357926 241.941244 
L 255.986777 241.877963 
L 256.364087 241.985433 
L 257.873328 242.066682 
L 258.250639 242.087872 
L 258.627949 242.087395 
L 258.879489 242.097991 
L 259.382569 241.849261 
L 259.88565 242.068002 
L 261.143351 241.991068 
L 261.646431 242.0229 
L 262.401052 241.720048 
L 262.652592 241.760135 
L 263.281443 241.650964 
L 263.658753 241.794242 
L 264.036063 241.996138 
L 264.790684 241.819394 
L 265.922615 242.106389 
L 266.299925 241.890549 
L 266.677235 241.747604 
L 267.180316 241.883339 
L 267.934936 241.354126 
L 268.312246 240.780412 
L 268.689557 240.162039 
L 268.815327 240.146571 
L 269.066867 240.439396 
L 269.569947 241.083753 
L 270.450338 241.822406 
L 272.085349 242.022642 
L 272.46266 241.799036 
L 273.21728 241.234838 
L 273.720361 241.149237 
L 274.223441 240.664646 
L 274.474981 240.815838 
L 275.103832 241.924169 
L 275.732682 241.82901 
L 277.116153 240.797282 
L 277.241923 240.801597 
L 277.493464 241.149858 
L 277.870774 241.640912 
L 278.248084 241.705071 
L 278.751165 242.113374 
L 279.002705 241.938312 
L 279.380015 241.684402 
L 280.134636 241.971858 
L 280.511946 241.839417 
L 281.015026 241.779535 
L 281.518107 241.738084 
L 281.895417 241.835906 
L 282.272727 241.79014 
L 282.775808 241.983758 
L 283.656198 241.725081 
L 284.285049 241.840747 
L 284.662359 241.955756 
L 286.29737 241.855628 
L 286.926221 242.020241 
L 287.555071 241.888242 
L 287.806612 241.892764 
L 288.309692 242.057304 
L 289.693163 241.827329 
L 290.447784 241.603755 
L 290.950864 241.703686 
L 291.453944 241.575385 
L 291.957025 241.775281 
L 292.208565 241.827389 
L 292.585875 242.08918 
L 293.214726 242.092371 
L 293.466266 242.043955 
L 293.969346 241.478325 
L 294.220887 241.573609 
L 294.472427 241.7204 
L 294.849737 241.720823 
L 295.352817 242.009773 
L 295.730128 241.833387 
L 297.113599 241.882129 
L 297.993989 241.587705 
L 298.3713 241.552402 
L 298.87438 241.25469 
L 299.377461 241.397115 
L 300.132081 241.012455 
L 300.509391 241.110206 
L 301.012472 240.736027 
L 301.389782 240.90978 
L 301.892863 240.813376 
L 302.270173 240.886239 
L 303.402104 240.778417 
L 303.905184 240.926538 
L 304.911345 241.017804 
L 305.414425 241.341468 
L 306.043276 241.577871 
L 306.546356 241.517112 
L 306.923666 241.760387 
L 307.300977 241.974629 
L 307.804057 241.849621 
L 308.432908 242.044889 
L 308.935988 241.568927 
L 309.187528 241.719059 
L 309.439068 241.882474 
L 309.816379 241.924897 
L 310.193689 242.109029 
L 310.570999 241.882976 
L 311.19985 242.037729 
L 311.57716 241.844895 
L 312.206011 241.862323 
L 312.960631 241.860445 
L 313.337941 241.896324 
L 313.715252 242.112794 
L 314.469872 241.883862 
L 315.601803 242.016533 
L 315.853343 242.078124 
L 317.362585 241.739316 
L 317.865665 242.10883 
L 318.242975 241.948588 
L 318.620285 241.970373 
L 318.997596 241.784989 
L 319.500676 242.066738 
L 320.255297 241.997286 
L 321.009917 241.673663 
L 321.512998 241.873519 
L 322.141848 241.86702 
L 322.393388 241.877929 
L 322.770699 241.769282 
L 323.273779 242.100391 
L 323.77686 241.869529 
L 324.53148 242.079339 
L 325.160331 241.851734 
L 325.537641 241.594761 
L 325.914951 241.707412 
L 326.292261 241.743582 
L 326.669572 241.733547 
L 327.172652 241.849947 
L 327.549962 241.701404 
L 328.053043 241.846874 
L 328.430353 241.623867 
L 328.807663 241.500011 
L 329.059204 241.470802 
L 329.688054 241.954003 
L 330.819985 241.624994 
L 331.197295 241.723955 
L 331.574606 241.640902 
L 332.077686 241.848046 
L 333.083847 241.713101 
L 333.461157 241.802286 
L 333.964237 241.829702 
L 334.341548 241.985873 
L 334.718858 241.830604 
L 335.221938 242.077631 
L 335.473479 241.930407 
L 335.976559 242.007289 
L 336.228099 241.855484 
L 336.85695 242.046078 
L 337.10849 241.97149 
L 337.4858 241.93722 
L 337.73734 241.89419 
L 337.988881 241.965062 
L 338.491961 241.79426 
L 338.743501 241.974354 
L 339.246582 241.810666 
L 339.498122 242.100952 
L 339.749662 241.948543 
L 340.001202 241.79285 
L 341.007363 241.99796 
L 342.139294 241.641983 
L 342.390834 241.761627 
L 342.893914 242.064934 
L 343.145455 241.893943 
L 343.396995 241.639793 
L 343.648535 241.807876 
L 343.900075 241.946462 
L 344.277385 241.666754 
L 344.780466 241.803943 
L 345.032006 241.784954 
L 345.409316 241.930696 
L 346.038167 241.769873 
L 346.415477 241.769955 
L 346.667017 241.671146 
L 346.918557 241.796627 
L 347.170098 241.955786 
L 347.547408 241.827539 
L 347.798948 241.808126 
L 348.176258 241.895339 
L 348.553569 241.762323 
L 349.056649 241.811444 
L 349.308189 241.769523 
L 350.06281 242.065806 
L 350.56589 241.737847 
L 350.943201 241.793972 
L 351.320511 241.861187 
L 351.697821 241.873711 
L 352.075131 241.956315 
L 352.578212 241.530201 
L 353.207062 242.084164 
L 353.710143 241.87352 
L 354.716304 241.962858 
L 355.345154 241.784369 
L 355.974005 242.006597 
L 356.854395 241.900256 
L 357.231705 241.960483 
L 357.734786 241.677314 
L 358.237866 242.040693 
L 359.118257 241.85382 
L 359.998648 241.75463 
L 360.375958 241.447359 
L 360.879038 241.374951 
L 361.256349 240.813852 
L 361.507889 240.873051 
L 361.885199 240.938353 
L 362.136739 241.061972 
L 363.01713 242.014746 
L 363.26867 241.819753 
L 363.52021 241.676933 
L 364.274831 242.019465 
L 364.777911 242.033024 
L 365.155222 241.78186 
L 365.784072 241.875123 
L 366.161382 241.95507 
L 366.664463 242.010505 
L 367.544853 241.800439 
L 367.796394 241.78037 
L 368.425244 242.111558 
L 369.179865 241.848503 
L 369.682945 241.811553 
L 369.934485 241.895118 
L 370.311796 241.848835 
L 370.814876 242.113799 
L 371.569497 241.957947 
L 372.072577 241.94323 
L 372.449887 241.952663 
L 372.827198 242.07544 
L 373.330278 241.93301 
L 373.581818 241.93301 
L 373.581818 241.93301 
" style="fill:none;stroke:#377eb8;stroke-dasharray:3.7,1.6;stroke-dashoffset:0;"/>
   </g>
   <g id="line2d_3">
    <path clip-path="url(#p288d3ab421)" d="M 69.218182 241.464651 
L 70.978963 241.376686 
L 71.607814 241.309919 
L 73.620135 241.23123 
L 74.248986 241.295978 
L 74.877836 241.281677 
L 76.512847 241.218714 
L 78.147859 241.721466 
L 81.040571 241.738298 
L 82.046732 241.915579 
L 83.052893 241.609824 
L 83.681743 241.460353 
L 84.436364 241.531395 
L 85.568295 241.607339 
L 88.083696 241.513885 
L 89.089857 241.249274 
L 89.718708 241.41404 
L 90.473328 241.626981 
L 91.227949 241.451213 
L 92.35988 241.155006 
L 93.869121 241.173179 
L 95.126822 240.926597 
L 96.007213 240.783216 
L 96.761833 240.722017 
L 99.906086 240.059358 
L 100.786476 239.820684 
L 101.289557 239.851041 
L 103.050338 240.349332 
L 105.3142 240.176777 
L 106.06882 240.490806 
L 106.949211 240.838528 
L 107.578062 240.717341 
L 108.332682 240.540997 
L 109.087303 240.689226 
L 109.841923 240.935268 
L 111.728475 241.356598 
L 112.483095 241.472904 
L 114.118107 241.365714 
L 116.507739 241.177272 
L 117.262359 241.10182 
L 119.02314 241.327712 
L 120.155071 241.258608 
L 120.909692 241.360816 
L 121.538542 241.202453 
L 122.293163 240.953133 
L 124.682795 240.828924 
L 125.311645 240.791113 
L 126.569346 240.572512 
L 128.204358 240.842577 
L 129.587829 240.756665 
L 131.22284 240.547864 
L 131.85169 240.478868 
L 133.360932 240.632979 
L 134.870173 240.592519 
L 136.379414 240.927807 
L 138.265965 240.707569 
L 141.284448 241.166413 
L 142.039068 241.323351 
L 142.667919 241.191314 
L 143.296769 241.092059 
L 146.944102 241.349663 
L 148.327573 241.310195 
L 149.459504 241.505438 
L 150.339895 241.386086 
L 152.352216 241.099055 
L 152.855297 241.048946 
L 154.112998 240.736951 
L 154.741848 240.627811 
L 155.748009 240.563794 
L 157.00571 240.543138 
L 157.63456 240.488434 
L 158.640721 240.304961 
L 160.527273 240.218612 
L 161.659204 240.018524 
L 161.910744 240.066753 
L 162.413824 240.522895 
L 162.916905 240.878818 
L 163.419985 240.926395 
L 163.923065 240.695414 
L 164.803456 240.233789 
L 165.558077 240.395938 
L 166.186927 240.419497 
L 166.941548 240.525685 
L 168.828099 240.543191 
L 169.58272 240.648422 
L 170.33734 240.546027 
L 172.349662 240.681043 
L 172.978512 240.596838 
L 174.236213 240.586454 
L 179.267017 240.462289 
L 179.895868 240.466205 
L 180.398948 240.364771 
L 181.027799 240.210226 
L 182.41127 240.333297 
L 183.04012 240.383069 
L 186.561683 240.100523 
L 187.567844 239.998697 
L 191.089406 240.449775 
L 193.101728 240.356264 
L 193.982119 240.400297 
L 194.736739 240.347876 
L 198.887153 240.913955 
L 200.270624 240.890775 
L 200.899474 240.820555 
L 201.528325 241.016326 
L 202.282945 241.333616 
L 203.037566 241.448392 
L 204.672577 241.260485 
L 205.427198 241.387347 
L 206.181818 241.461999 
L 206.810669 241.385218 
L 208.19414 241.319555 
L 208.82299 241.230485 
L 210.080691 241.104027 
L 211.212622 241.192688 
L 212.093013 241.292964 
L 214.105334 240.868742 
L 215.363035 241.041403 
L 215.991886 241.042966 
L 217.501127 241.158055 
L 218.381518 241.285164 
L 220.268069 241.001198 
L 220.89692 241.033496 
L 221.52577 241.085809 
L 223.286551 240.935081 
L 223.789632 241.009428 
L 224.670023 241.179142 
L 228.191585 241.544159 
L 229.826597 241.700378 
L 230.832757 241.847907 
L 231.335838 241.809127 
L 231.838918 241.769909 
L 232.467769 241.770547 
L 233.222389 241.674288 
L 234.35432 241.764956 
L 235.234711 241.768002 
L 236.366642 241.747316 
L 237.372802 241.805824 
L 239.259354 241.8535 
L 239.762434 241.994763 
L 240.768595 241.847589 
L 241.774756 241.453861 
L 242.780917 241.392959 
L 243.535537 241.307548 
L 244.290158 240.80413 
L 244.793238 240.563905 
L 245.296319 240.60732 
L 246.302479 241.021934 
L 247.0571 241.15934 
L 249.320962 241.496965 
L 250.075582 241.449049 
L 251.207513 241.13901 
L 252.339444 241.460482 
L 252.716754 241.58019 
L 253.471375 241.501157 
L 255.106386 241.151984 
L 256.238317 241.503648 
L 257.118708 241.482448 
L 257.999098 241.456667 
L 260.01142 241.603132 
L 261.143351 241.671384 
L 264.413373 241.610666 
L 265.796844 241.913858 
L 266.299925 241.885121 
L 267.934936 241.4365 
L 268.438017 241.464585 
L 269.192637 241.587296 
L 269.821488 241.660429 
L 270.701878 241.780796 
L 271.833809 241.441506 
L 272.46266 241.217791 
L 273.720361 241.328372 
L 274.600751 241.464794 
L 275.355372 241.325142 
L 276.487303 241.053525 
L 277.367693 241.136894 
L 278.751165 240.948629 
L 279.883095 240.913769 
L 281.015026 240.863601 
L 282.524267 240.712221 
L 283.027348 240.711184 
L 284.662359 240.300082 
L 285.16544 240.213902 
L 285.66852 240.160949 
L 286.1716 240.032562 
L 289.693163 240.193698 
L 290.447784 240.190294 
L 291.202404 240.209511 
L 292.711645 239.963583 
L 293.717806 239.941063 
L 294.598197 239.921645 
L 295.478588 239.96473 
L 296.736289 240.042613 
L 297.490909 239.894096 
L 298.11976 239.76774 
L 299.25169 239.93627 
L 299.880541 240.070425 
L 300.635162 240.019057 
L 301.515552 239.89167 
L 302.144403 239.934806 
L 302.899023 240.097426 
L 305.917506 240.162932 
L 306.546356 240.107129 
L 307.804057 239.916667 
L 308.307137 239.981555 
L 308.935988 240.079219 
L 310.822539 239.912627 
L 312.331781 239.910771 
L 313.086401 239.977894 
L 313.715252 239.99969 
L 315.098723 240.023953 
L 318.242975 239.868941 
L 319.500676 240.070839 
L 320.758377 239.937426 
L 321.261458 239.992473 
L 322.393388 240.191763 
L 324.0284 240.019453 
L 324.78302 240.093529 
L 325.789181 240.062242 
L 326.543802 240.210589 
L 327.172652 240.333235 
L 328.430353 240.2155 
L 329.436514 240.5791 
L 329.939594 240.547609 
L 331.323065 240.264451 
L 332.706536 240.568439 
L 335.096168 240.831856 
L 335.850789 240.710407 
L 338.114651 240.763426 
L 339.246582 240.725926 
L 343.271225 240.964098 
L 344.403156 241.025894 
L 345.157776 241.093725 
L 346.289707 240.972743 
L 348.176258 241.262339 
L 349.93704 241.162912 
L 350.44012 241.139772 
L 351.572051 241.269379 
L 353.081292 241.380339 
L 353.710143 241.467944 
L 356.225545 241.538482 
L 356.980165 241.704802 
L 357.986326 241.775414 
L 359.495567 241.610044 
L 360.627498 241.795681 
L 361.130579 241.867557 
L 362.262509 241.911311 
L 362.89136 241.912037 
L 365.280992 241.659588 
L 368.676784 241.97755 
L 370.060255 241.662295 
L 371.192186 241.679793 
L 371.821037 241.609218 
L 373.581818 241.636559 
L 373.581818 241.636559 
" style="fill:none;stroke:#4daf4a;stroke-linecap:round;"/>
   </g>
   <g id="line2d_4">
    <path clip-path="url(#p288d3ab421)" d="M 69.218182 242.086844 
L 72.865515 241.985412 
L 73.745905 241.9783 
L 75.003606 242.086856 
L 75.506687 242.048648 
L 76.009767 242.095988 
L 76.764388 241.95426 
L 77.141698 242.005305 
L 77.896319 241.906307 
L 78.650939 242.000755 
L 79.15402 241.889759 
L 79.6571 241.894431 
L 80.03441 241.821045 
L 81.795192 242.113985 
L 82.801352 242.042059 
L 83.178663 242.029468 
L 83.681743 241.939581 
L 84.310594 242.014378 
L 85.065214 241.951516 
L 85.568295 241.916978 
L 86.071375 241.943202 
L 87.832156 242.003452 
L 88.335237 241.95222 
L 88.838317 241.949445 
L 89.215627 241.933917 
L 89.718708 241.999178 
L 90.347558 241.966255 
L 90.850639 241.939992 
L 91.353719 241.894328 
L 92.35988 241.919948 
L 92.98873 241.902022 
L 93.366041 241.824962 
L 94.120661 241.971873 
L 94.623742 241.903819 
L 96.258753 242.035369 
L 96.761833 242.015832 
L 97.893764 241.894396 
L 98.899925 241.94895 
L 99.906086 241.867804 
L 101.541097 242.078019 
L 102.547258 241.838317 
L 103.176108 242.037463 
L 103.679189 241.918862 
L 104.182269 241.876835 
L 105.3142 241.92102 
L 105.69151 241.789855 
L 106.571901 241.81356 
L 106.949211 241.847094 
L 107.452292 241.987378 
L 108.332682 241.982478 
L 108.961533 241.965204 
L 111.351165 241.874102 
L 111.854245 241.955708 
L 112.860406 241.80516 
L 114.243877 241.86776 
L 115.124267 241.880185 
L 115.501578 241.962216 
L 116.381968 241.841213 
L 116.759279 241.907133 
L 117.388129 241.812054 
L 121.035462 241.734079 
L 122.041623 241.796727 
L 123.802404 241.695072 
L 124.305485 241.64956 
L 125.185875 241.760592 
L 126.695116 241.806202 
L 127.575507 241.716046 
L 129.587829 241.743275 
L 130.216679 241.690762 
L 131.34861 241.75267 
L 132.103231 241.727469 
L 132.732081 241.842178 
L 133.360932 241.775915 
L 133.989782 241.737109 
L 137.888655 241.717262 
L 138.769046 241.833385 
L 140.026747 241.78273 
L 140.907137 241.800321 
L 142.542149 241.721941 
L 142.919459 241.821293 
L 143.67408 241.645978 
L 144.17716 240.367828 
L 144.4287 240.977457 
L 144.68024 241.707092 
L 144.931781 241.841255 
L 146.189482 241.852733 
L 146.441022 241.889784 
L 147.069872 241.811795 
L 147.572953 241.895851 
L 148.076033 241.795547 
L 149.082194 241.956784 
L 150.339895 241.814454 
L 151.220285 241.849932 
L 151.597596 241.775316 
L 152.477986 241.837067 
L 154.867618 241.641774 
L 157.760331 241.791271 
L 158.137641 241.73259 
L 158.640721 241.488794 
L 160.149962 241.591868 
L 160.527273 241.587953 
L 161.030353 241.626581 
L 162.036514 241.64489 
L 162.539594 241.664209 
L 163.168445 241.60374 
L 164.677686 241.749783 
L 166.186927 241.637124 
L 166.941548 241.682315 
L 167.821938 241.638398 
L 175.871225 241.675264 
L 176.625845 241.615876 
L 177.128926 241.714215 
L 177.757776 241.665157 
L 178.386627 241.765274 
L 179.518557 241.693046 
L 180.021638 241.72495 
L 180.650488 241.698236 
L 181.279339 241.642327 
L 181.656649 241.576631 
L 182.2855 241.723328 
L 182.78858 241.65919 
L 185.303982 241.629082 
L 186.184373 241.528689 
L 187.064763 241.686595 
L 187.693614 241.694802 
L 188.951315 241.719992 
L 189.328625 241.700107 
L 189.705935 241.659981 
L 190.083246 241.575561 
L 190.712096 241.559514 
L 191.592487 241.518904 
L 192.850188 241.684232 
L 193.353268 241.689411 
L 194.107889 241.753032 
L 198.006762 241.702764 
L 198.509842 241.778347 
L 199.012923 241.726672 
L 199.390233 241.786812 
L 199.767543 241.72873 
L 200.270624 241.881712 
L 200.773704 241.71571 
L 201.276784 241.798747 
L 201.905635 241.765739 
L 204.295267 241.733437 
L 204.672577 241.847547 
L 205.301427 241.837477 
L 205.678738 241.796458 
L 206.056048 241.754084 
L 206.559128 241.891518 
L 209.703381 241.694639 
L 210.206461 241.719607 
L 212.218783 241.858066 
L 213.224944 241.702059 
L 213.728024 241.872768 
L 214.231104 241.744717 
L 214.608415 241.92648 
L 216.243426 241.743836 
L 216.620736 241.797168 
L 216.998047 241.884526 
L 217.626897 241.771487 
L 219.513449 241.856612 
L 220.016529 241.819599 
L 220.519609 241.902793 
L 220.89692 241.7941 
L 221.65154 241.827267 
L 223.035011 241.700235 
L 223.538092 241.932623 
L 224.418482 241.732885 
L 225.047333 241.937095 
L 225.424643 241.832542 
L 225.927724 241.940415 
L 226.305034 241.84076 
L 226.933884 241.891017 
L 227.814275 241.748197 
L 228.191585 241.861864 
L 228.568896 241.994294 
L 229.323516 241.901961 
L 229.700826 241.914233 
L 230.203907 241.812178 
L 230.581217 241.890762 
L 231.084298 241.895122 
L 231.461608 241.958892 
L 232.719309 241.889642 
L 233.222389 241.969423 
L 233.72547 242.00875 
L 234.22855 241.961359 
L 235.108941 241.960137 
L 237.750113 241.924309 
L 239.007814 241.965566 
L 239.636664 242.085391 
L 240.265515 241.96027 
L 240.768595 241.976342 
L 241.145905 241.971257 
L 241.523216 241.861795 
L 242.529376 241.95399 
L 243.535537 242.017938 
L 244.793238 241.980371 
L 246.302479 241.856717 
L 247.56018 242.05809 
L 248.189031 241.860241 
L 248.692111 241.86127 
L 248.943651 241.90144 
L 249.446732 242.064637 
L 251.836364 241.885976 
L 252.213674 241.967212 
L 253.094065 241.894779 
L 255.735237 241.847477 
L 255.986777 241.837937 
L 256.489857 242.035441 
L 257.370248 241.930238 
L 259.88565 241.943157 
L 260.5145 241.967315 
L 261.143351 241.940644 
L 261.646431 241.944591 
L 262.023742 241.977577 
L 262.652592 242.107984 
L 263.532983 241.990496 
L 265.922615 241.967227 
L 266.299925 242.03295 
L 266.928775 241.829837 
L 267.809166 241.953483 
L 279.631555 241.433149 
L 280.008866 241.316258 
L 280.763486 241.437284 
L 283.404658 241.089598 
L 283.781968 240.972752 
L 284.285049 241.141593 
L 284.662359 241.115447 
L 285.039669 241.158603 
L 285.54275 241.0852 
L 285.92006 241.042795 
L 286.29737 240.949397 
L 287.555071 240.937475 
L 287.932382 240.849076 
L 288.687002 240.915306 
L 290.447784 240.924275 
L 291.957025 240.81648 
L 292.334335 240.64966 
L 293.340496 240.797254 
L 294.472427 240.697041 
L 294.975507 240.734175 
L 297.365139 240.8186 
L 297.742449 240.864725 
L 298.49707 240.677322 
L 298.87438 240.804989 
L 299.25169 240.817388 
L 299.880541 240.699402 
L 300.132081 240.671252 
L 300.760932 240.8396 
L 301.892863 240.840037 
L 302.773253 241.042141 
L 303.402104 240.959496 
L 303.779414 241.062618 
L 304.408264 240.989566 
L 304.785575 241.010454 
L 305.162885 240.912136 
L 305.791736 240.937194 
L 307.175207 241.053181 
L 307.552517 241.088584 
L 308.307137 241.054856 
L 309.187528 241.045776 
L 309.816379 241.12554 
L 310.319459 241.05835 
L 310.822539 241.11889 
L 311.19985 241.092551 
L 311.70293 241.224102 
L 312.206011 241.076939 
L 312.709091 241.205752 
L 315.979113 241.122637 
L 316.607964 241.280191 
L 316.985274 241.12909 
L 317.488355 241.203643 
L 317.865665 241.102293 
L 319.626446 241.272528 
L 320.003757 241.20609 
L 320.381067 241.199407 
L 320.758377 241.119489 
L 321.512998 241.234125 
L 322.770699 241.352712 
L 323.022239 241.35781 
L 323.399549 241.216125 
L 323.90263 241.247536 
L 324.27994 241.118205 
L 325.411871 241.208621 
L 325.914951 241.072625 
L 326.669572 241.239783 
L 327.046882 241.151309 
L 329.184974 241.326299 
L 329.562284 241.316669 
L 329.939594 241.287019 
L 330.442675 241.229953 
L 331.197295 241.319159 
L 331.700376 241.2905 
L 332.077686 241.14315 
L 332.329226 241.28721 
L 332.580766 241.452603 
L 334.215778 241.412421 
L 334.593088 241.37512 
L 334.970398 241.410862 
L 335.725019 241.434801 
L 337.86311 241.436324 
L 338.491961 241.51161 
L 338.869271 241.434838 
L 339.498122 241.428823 
L 340.126972 241.589189 
L 340.378512 241.626694 
L 341.007363 241.538985 
L 341.636213 241.513765 
L 342.139294 241.623267 
L 343.271225 241.571471 
L 343.648535 241.625585 
L 344.151615 241.53848 
L 344.654696 241.626226 
L 345.157776 241.583092 
L 345.786627 241.57379 
L 346.667017 241.615604 
L 347.170098 241.643049 
L 347.924718 241.544122 
L 349.182419 241.791925 
L 349.6855 241.559978 
L 350.18858 241.61124 
L 350.69166 241.870213 
L 351.194741 241.72559 
L 352.075131 241.846002 
L 352.703982 241.664641 
L 353.835913 241.785962 
L 354.338993 241.614446 
L 354.967844 241.846369 
L 355.470924 241.645087 
L 355.974005 241.682072 
L 356.477085 241.591528 
L 357.357476 241.797366 
L 359.621337 241.869697 
L 359.998648 241.723907 
L 360.879038 241.878722 
L 361.382119 241.844933 
L 361.885199 241.820633 
L 364.652141 241.876652 
L 365.280992 241.914157 
L 365.784072 241.910983 
L 366.287153 241.982879 
L 367.041773 241.867333 
L 368.047934 242.03329 
L 368.551014 241.821604 
L 369.934485 241.954758 
L 370.186026 241.919739 
L 370.814876 242.047582 
L 372.072577 241.976197 
L 372.952968 241.922999 
L 373.581818 242.101768 
L 373.581818 242.101768 
" style="fill:none;stroke:#984ea3;stroke-dasharray:3.7,1.6;stroke-dashoffset:0;"/>
   </g>
   <g id="patch_3">
    <path d="M 54 252 
L 54 34.56 
" style="fill:none;stroke:#262626;stroke-linecap:square;stroke-linejoin:miter;stroke-width:0.8;"/>
   </g>
   <g id="patch_4">
    <path d="M 54 252 
L 388.8 252 
" style="fill:none;stroke:#262626;stroke-linecap:square;stroke-linejoin:miter;stroke-width:0.8;"/>
   </g>
   <g id="legend_1">
    <g id="line2d_5">
     <path d="M 262.33125 47.2475 
L 282.33125 47.2475 
" style="fill:none;stroke:#e41a1c;stroke-linecap:round;"/>
    </g>
    <g id="line2d_6"/>
    <g id="text_17">
     <!-- Ac-Ndy3-Ndc6-Nte9 -->
     <g style="fill:#262626;" transform="translate(290.33125 50.7475)scale(0.1 -0.1)">
      <defs>
       <path d="M -9 0 
L 1750 4581 
L 2403 4581 
L 4278 0 
L 3588 0 
L 3053 1388 
L 1138 1388 
L 634 0 
L -9 0 
z
M 1313 1881 
L 2866 1881 
L 2388 3150 
Q 2169 3728 2063 4100 
Q 1975 3659 1816 3225 
L 1313 1881 
z
" id="ArialMT-41" transform="scale(0.015625)"/>
       <path d="M 2588 1216 
L 3141 1144 
Q 3050 572 2676 248 
Q 2303 -75 1759 -75 
Q 1078 -75 664 370 
Q 250 816 250 1647 
Q 250 2184 428 2587 
Q 606 2991 970 3192 
Q 1334 3394 1763 3394 
Q 2303 3394 2647 3120 
Q 2991 2847 3088 2344 
L 2541 2259 
Q 2463 2594 2264 2762 
Q 2066 2931 1784 2931 
Q 1359 2931 1093 2626 
Q 828 2322 828 1663 
Q 828 994 1084 691 
Q 1341 388 1753 388 
Q 2084 388 2306 591 
Q 2528 794 2588 1216 
z
" id="ArialMT-63" transform="scale(0.015625)"/>
       <path d="M 203 1375 
L 203 1941 
L 1931 1941 
L 1931 1375 
L 203 1375 
z
" id="ArialMT-2d" transform="scale(0.015625)"/>
       <path d="M 488 0 
L 488 4581 
L 1109 4581 
L 3516 984 
L 3516 4581 
L 4097 4581 
L 4097 0 
L 3475 0 
L 1069 3600 
L 1069 0 
L 488 0 
z
" id="ArialMT-4e" transform="scale(0.015625)"/>
       <path d="M 2575 0 
L 2575 419 
Q 2259 -75 1647 -75 
Q 1250 -75 917 144 
Q 584 363 401 755 
Q 219 1147 219 1656 
Q 219 2153 384 2558 
Q 550 2963 881 3178 
Q 1213 3394 1622 3394 
Q 1922 3394 2156 3267 
Q 2391 3141 2538 2938 
L 2538 4581 
L 3097 4581 
L 3097 0 
L 2575 0 
z
M 797 1656 
Q 797 1019 1065 703 
Q 1334 388 1700 388 
Q 2069 388 2326 689 
Q 2584 991 2584 1609 
Q 2584 2291 2321 2609 
Q 2059 2928 1675 2928 
Q 1300 2928 1048 2622 
Q 797 2316 797 1656 
z
" id="ArialMT-64" transform="scale(0.015625)"/>
       <path d="M 269 1209 
L 831 1284 
Q 928 806 1161 595 
Q 1394 384 1728 384 
Q 2125 384 2398 659 
Q 2672 934 2672 1341 
Q 2672 1728 2419 1979 
Q 2166 2231 1775 2231 
Q 1616 2231 1378 2169 
L 1441 2663 
Q 1497 2656 1531 2656 
Q 1891 2656 2178 2843 
Q 2466 3031 2466 3422 
Q 2466 3731 2256 3934 
Q 2047 4138 1716 4138 
Q 1388 4138 1169 3931 
Q 950 3725 888 3313 
L 325 3413 
Q 428 3978 793 4289 
Q 1159 4600 1703 4600 
Q 2078 4600 2393 4439 
Q 2709 4278 2876 4000 
Q 3044 3722 3044 3409 
Q 3044 3113 2884 2869 
Q 2725 2625 2413 2481 
Q 2819 2388 3044 2092 
Q 3269 1797 3269 1353 
Q 3269 753 2831 336 
Q 2394 -81 1725 -81 
Q 1122 -81 723 278 
Q 325 638 269 1209 
z
" id="ArialMT-33" transform="scale(0.015625)"/>
       <path d="M 350 1059 
L 891 1109 
Q 959 728 1153 556 
Q 1347 384 1650 384 
Q 1909 384 2104 503 
Q 2300 622 2425 820 
Q 2550 1019 2634 1356 
Q 2719 1694 2719 2044 
Q 2719 2081 2716 2156 
Q 2547 1888 2255 1720 
Q 1963 1553 1622 1553 
Q 1053 1553 659 1965 
Q 266 2378 266 3053 
Q 266 3750 677 4175 
Q 1088 4600 1706 4600 
Q 2153 4600 2523 4359 
Q 2894 4119 3086 3673 
Q 3278 3228 3278 2384 
Q 3278 1506 3087 986 
Q 2897 466 2520 194 
Q 2144 -78 1638 -78 
Q 1100 -78 759 220 
Q 419 519 350 1059 
z
M 2653 3081 
Q 2653 3566 2395 3850 
Q 2138 4134 1775 4134 
Q 1400 4134 1122 3828 
Q 844 3522 844 3034 
Q 844 2597 1108 2323 
Q 1372 2050 1759 2050 
Q 2150 2050 2401 2323 
Q 2653 2597 2653 3081 
z
" id="ArialMT-39" transform="scale(0.015625)"/>
      </defs>
      <use xlink:href="#ArialMT-41"/>
      <use x="66.699219" xlink:href="#ArialMT-63"/>
      <use x="116.699219" xlink:href="#ArialMT-2d"/>
      <use x="150" xlink:href="#ArialMT-4e"/>
      <use x="222.216797" xlink:href="#ArialMT-64"/>
      <use x="277.832031" xlink:href="#ArialMT-79"/>
      <use x="327.832031" xlink:href="#ArialMT-33"/>
      <use x="383.447266" xlink:href="#ArialMT-2d"/>
      <use x="416.748047" xlink:href="#ArialMT-4e"/>
      <use x="488.964844" xlink:href="#ArialMT-64"/>
      <use x="544.580078" xlink:href="#ArialMT-63"/>
      <use x="594.580078" xlink:href="#ArialMT-36"/>
      <use x="650.195312" xlink:href="#ArialMT-2d"/>
      <use x="683.496094" xlink:href="#ArialMT-4e"/>
      <use x="755.712891" xlink:href="#ArialMT-74"/>
      <use x="783.496094" xlink:href="#ArialMT-65"/>
      <use x="839.111328" xlink:href="#ArialMT-39"/>
     </g>
    </g>
    <g id="line2d_7">
     <path d="M 262.33125 61.51 
L 282.33125 61.51 
" style="fill:none;stroke:#377eb8;stroke-dasharray:3.7,1.6;stroke-dashoffset:0;"/>
    </g>
    <g id="line2d_8"/>
    <g id="text_18">
     <!-- diphenylacetylene -->
     <g style="fill:#262626;" transform="translate(290.33125 65.01)scale(0.1 -0.1)">
      <defs>
       <path d="M 422 -1272 
L 422 3319 
L 934 3319 
L 934 2888 
Q 1116 3141 1344 3267 
Q 1572 3394 1897 3394 
Q 2322 3394 2647 3175 
Q 2972 2956 3137 2557 
Q 3303 2159 3303 1684 
Q 3303 1175 3120 767 
Q 2938 359 2589 142 
Q 2241 -75 1856 -75 
Q 1575 -75 1351 44 
Q 1128 163 984 344 
L 984 -1272 
L 422 -1272 
z
M 931 1641 
Q 931 1000 1190 694 
Q 1450 388 1819 388 
Q 2194 388 2461 705 
Q 2728 1022 2728 1688 
Q 2728 2322 2467 2637 
Q 2206 2953 1844 2953 
Q 1484 2953 1207 2617 
Q 931 2281 931 1641 
z
" id="ArialMT-70" transform="scale(0.015625)"/>
       <path d="M 422 0 
L 422 4581 
L 984 4581 
L 984 2938 
Q 1378 3394 1978 3394 
Q 2347 3394 2619 3248 
Q 2891 3103 3008 2847 
Q 3125 2591 3125 2103 
L 3125 0 
L 2563 0 
L 2563 2103 
Q 2563 2525 2380 2717 
Q 2197 2909 1863 2909 
Q 1613 2909 1392 2779 
Q 1172 2650 1078 2428 
Q 984 2206 984 1816 
L 984 0 
L 422 0 
z
" id="ArialMT-68" transform="scale(0.015625)"/>
       <path d="M 409 0 
L 409 4581 
L 972 4581 
L 972 0 
L 409 0 
z
" id="ArialMT-6c" transform="scale(0.015625)"/>
      </defs>
      <use xlink:href="#ArialMT-64"/>
      <use x="55.615234" xlink:href="#ArialMT-69"/>
      <use x="77.832031" xlink:href="#ArialMT-70"/>
      <use x="133.447266" xlink:href="#ArialMT-68"/>
      <use x="189.0625" xlink:href="#ArialMT-65"/>
      <use x="244.677734" xlink:href="#ArialMT-6e"/>
      <use x="300.292969" xlink:href="#ArialMT-79"/>
      <use x="350.292969" xlink:href="#ArialMT-6c"/>
      <use x="372.509766" xlink:href="#ArialMT-61"/>
      <use x="428.125" xlink:href="#ArialMT-63"/>
      <use x="478.125" xlink:href="#ArialMT-65"/>
      <use x="533.740234" xlink:href="#ArialMT-74"/>
      <use x="561.523438" xlink:href="#ArialMT-79"/>
      <use x="611.523438" xlink:href="#ArialMT-6c"/>
      <use x="633.740234" xlink:href="#ArialMT-65"/>
      <use x="689.355469" xlink:href="#ArialMT-6e"/>
      <use x="744.970703" xlink:href="#ArialMT-65"/>
     </g>
    </g>
    <g id="line2d_9">
     <path d="M 262.33125 75.7725 
L 282.33125 75.7725 
" style="fill:none;stroke:#4daf4a;stroke-linecap:round;"/>
    </g>
    <g id="line2d_10"/>
    <g id="text_19">
     <!-- Ac-Ndc9-Nte9 -->
     <g style="fill:#262626;" transform="translate(290.33125 79.2725)scale(0.1 -0.1)">
      <use xlink:href="#ArialMT-41"/>
      <use x="66.699219" xlink:href="#ArialMT-63"/>
      <use x="116.699219" xlink:href="#ArialMT-2d"/>
      <use x="150" xlink:href="#ArialMT-4e"/>
      <use x="222.216797" xlink:href="#ArialMT-64"/>
      <use x="277.832031" xlink:href="#ArialMT-63"/>
      <use x="327.832031" xlink:href="#ArialMT-39"/>
      <use x="383.447266" xlink:href="#ArialMT-2d"/>
      <use x="416.748047" xlink:href="#ArialMT-4e"/>
      <use x="488.964844" xlink:href="#ArialMT-74"/>
      <use x="516.748047" xlink:href="#ArialMT-65"/>
      <use x="572.363281" xlink:href="#ArialMT-39"/>
     </g>
    </g>
    <g id="line2d_11">
     <path d="M 262.33125 89.917812 
L 282.33125 89.917812 
" style="fill:none;stroke:#984ea3;stroke-dasharray:3.7,1.6;stroke-dashoffset:0;"/>
    </g>
    <g id="line2d_12"/>
    <g id="text_20">
     <!-- phenylacetylene -->
     <g style="fill:#262626;" transform="translate(290.33125 93.417812)scale(0.1 -0.1)">
      <use xlink:href="#ArialMT-70"/>
      <use x="55.615234" xlink:href="#ArialMT-68"/>
      <use x="111.230469" xlink:href="#ArialMT-65"/>
      <use x="166.845703" xlink:href="#ArialMT-6e"/>
      <use x="222.460938" xlink:href="#ArialMT-79"/>
      <use x="272.460938" xlink:href="#ArialMT-6c"/>
      <use x="294.677734" xlink:href="#ArialMT-61"/>
      <use x="350.292969" xlink:href="#ArialMT-63"/>
      <use x="400.292969" xlink:href="#ArialMT-65"/>
      <use x="455.908203" xlink:href="#ArialMT-74"/>
      <use x="483.691406" xlink:href="#ArialMT-79"/>
      <use x="533.691406" xlink:href="#ArialMT-6c"/>
      <use x="555.908203" xlink:href="#ArialMT-65"/>
      <use x="611.523438" xlink:href="#ArialMT-6e"/>
      <use x="667.138672" xlink:href="#ArialMT-65"/>
     </g>
    </g>
   </g>
  </g>
 </g>
 <defs>
  <clipPath id="p288d3ab421">
   <rect height="217.44" width="334.8" x="54" y="34.56"/>
  </clipPath>
 </defs>
</svg>
