<?xml version="1.0" encoding="utf-8" standalone="no"?>
<!DOCTYPE svg PUBLIC "-//W3C//DTD SVG 1.1//EN"
  "http://www.w3.org/Graphics/SVG/1.1/DTD/svg11.dtd">
<svg xmlns:xlink="http://www.w3.org/1999/xlink" width="441.132125pt" height="309.333094pt" viewBox="0 0 441.132125 309.333094" xmlns="http://www.w3.org/2000/svg" version="1.1">
 <metadata>
  <rdf:RDF xmlns:dc="http://purl.org/dc/elements/1.1/" xmlns:cc="http://creativecommons.org/ns#" xmlns:rdf="http://www.w3.org/1999/02/22-rdf-syntax-ns#">
   <cc:Work>
    <dc:type rdf:resource="http://purl.org/dc/dcmitype/StillImage"/>
    <dc:date>2023-08-31T16:07:21.386962</dc:date>
    <dc:format>image/svg+xml</dc:format>
    <dc:creator>
     <cc:Agent>
      <dc:title>Matplotlib v3.7.1, https://matplotlib.org/</dc:title>
     </cc:Agent>
    </dc:creator>
   </cc:Work>
  </rdf:RDF>
 </metadata>
 <defs>
  <style type="text/css">*{stroke-linejoin: round; stroke-linecap: butt}</style>
 </defs>
 <g id="figure_1">
  <g id="patch_1">
   <path d="M 0 309.333094 
L 441.132125 309.333094 
L 441.132125 0 
L 0 0 
z
" style="fill: #ffffff"/>
  </g>
  <g id="axes_1">
   <g id="patch_2">
    <path d="M 41.25125 273.312 
L 398.37125 273.312 
L 398.37125 7.2 
L 41.25125 7.2 
z
" style="fill: #ffffff"/>
   </g>
   <g id="matplotlib.axis_1">
    <g id="xtick_1">
     <g id="line2d_1">
      <defs>
       <path id="m41695ae6ee" d="M 0 0 
L 0 -6 
" style="stroke: #262626; stroke-width: 1.25"/>
      </defs>
      <g>
       <use xlink:href="#m41695ae6ee" x="100.77125" y="273.312" style="fill: #262626; stroke: #262626; stroke-width: 1.25"/>
      </g>
     </g>
     <g id="text_1">
      <!-- 300 -->
      <g style="fill: #262626" transform="translate(91.595703 284.685594) scale(0.11 -0.11)">
       <defs>
        <path id="ArialMT-33" d="M 269 1209 
L 831 1284 
Q 928 806 1161 595 
Q 1394 384 1728 384 
Q 2125 384 2398 659 
Q 2672 934 2672 1341 
Q 2672 1728 2419 1979 
Q 2166 2231 1775 2231 
Q 1616 2231 1378 2169 
L 1441 2663 
Q 1497 2656 1531 2656 
Q 1891 2656 2178 2843 
Q 2466 3031 2466 3422 
Q 2466 3731 2256 3934 
Q 2047 4138 1716 4138 
Q 1388 4138 1169 3931 
Q 950 3725 888 3313 
L 325 3413 
Q 428 3978 793 4289 
Q 1159 4600 1703 4600 
Q 2078 4600 2393 4439 
Q 2709 4278 2876 4000 
Q 3044 3722 3044 3409 
Q 3044 3113 2884 2869 
Q 2725 2625 2413 2481 
Q 2819 2388 3044 2092 
Q 3269 1797 3269 1353 
Q 3269 753 2831 336 
Q 2394 -81 1725 -81 
Q 1122 -81 723 278 
Q 325 638 269 1209 
z
" transform="scale(0.015625)"/>
        <path id="ArialMT-30" d="M 266 2259 
Q 266 3072 433 3567 
Q 600 4063 929 4331 
Q 1259 4600 1759 4600 
Q 2128 4600 2406 4451 
Q 2684 4303 2865 4023 
Q 3047 3744 3150 3342 
Q 3253 2941 3253 2259 
Q 3253 1453 3087 958 
Q 2922 463 2592 192 
Q 2263 -78 1759 -78 
Q 1097 -78 719 397 
Q 266 969 266 2259 
z
M 844 2259 
Q 844 1131 1108 757 
Q 1372 384 1759 384 
Q 2147 384 2411 759 
Q 2675 1134 2675 2259 
Q 2675 3391 2411 3762 
Q 2147 4134 1753 4134 
Q 1366 4134 1134 3806 
Q 844 3388 844 2259 
z
" transform="scale(0.015625)"/>
       </defs>
       <use xlink:href="#ArialMT-33"/>
       <use xlink:href="#ArialMT-30" x="55.615234"/>
       <use xlink:href="#ArialMT-30" x="111.230469"/>
      </g>
     </g>
    </g>
    <g id="xtick_2">
     <g id="line2d_2">
      <g>
       <use xlink:href="#m41695ae6ee" x="175.17125" y="273.312" style="fill: #262626; stroke: #262626; stroke-width: 1.25"/>
      </g>
     </g>
     <g id="text_2">
      <!-- 400 -->
      <g style="fill: #262626" transform="translate(165.995703 284.685594) scale(0.11 -0.11)">
       <defs>
        <path id="ArialMT-34" d="M 2069 0 
L 2069 1097 
L 81 1097 
L 81 1613 
L 2172 4581 
L 2631 4581 
L 2631 1613 
L 3250 1613 
L 3250 1097 
L 2631 1097 
L 2631 0 
L 2069 0 
z
M 2069 1613 
L 2069 3678 
L 634 1613 
L 2069 1613 
z
" transform="scale(0.015625)"/>
       </defs>
       <use xlink:href="#ArialMT-34"/>
       <use xlink:href="#ArialMT-30" x="55.615234"/>
       <use xlink:href="#ArialMT-30" x="111.230469"/>
      </g>
     </g>
    </g>
    <g id="xtick_3">
     <g id="line2d_3">
      <g>
       <use xlink:href="#m41695ae6ee" x="249.57125" y="273.312" style="fill: #262626; stroke: #262626; stroke-width: 1.25"/>
      </g>
     </g>
     <g id="text_3">
      <!-- 500 -->
      <g style="fill: #262626" transform="translate(240.395703 284.685594) scale(0.11 -0.11)">
       <defs>
        <path id="ArialMT-35" d="M 266 1200 
L 856 1250 
Q 922 819 1161 601 
Q 1400 384 1738 384 
Q 2144 384 2425 690 
Q 2706 997 2706 1503 
Q 2706 1984 2436 2262 
Q 2166 2541 1728 2541 
Q 1456 2541 1237 2417 
Q 1019 2294 894 2097 
L 366 2166 
L 809 4519 
L 3088 4519 
L 3088 3981 
L 1259 3981 
L 1013 2750 
Q 1425 3038 1878 3038 
Q 2478 3038 2890 2622 
Q 3303 2206 3303 1553 
Q 3303 931 2941 478 
Q 2500 -78 1738 -78 
Q 1113 -78 717 272 
Q 322 622 266 1200 
z
" transform="scale(0.015625)"/>
       </defs>
       <use xlink:href="#ArialMT-35"/>
       <use xlink:href="#ArialMT-30" x="55.615234"/>
       <use xlink:href="#ArialMT-30" x="111.230469"/>
      </g>
     </g>
    </g>
    <g id="xtick_4">
     <g id="line2d_4">
      <g>
       <use xlink:href="#m41695ae6ee" x="323.97125" y="273.312" style="fill: #262626; stroke: #262626; stroke-width: 1.25"/>
      </g>
     </g>
     <g id="text_4">
      <!-- 600 -->
      <g style="fill: #262626" transform="translate(314.795703 284.685594) scale(0.11 -0.11)">
       <defs>
        <path id="ArialMT-36" d="M 3184 3459 
L 2625 3416 
Q 2550 3747 2413 3897 
Q 2184 4138 1850 4138 
Q 1581 4138 1378 3988 
Q 1113 3794 959 3422 
Q 806 3050 800 2363 
Q 1003 2672 1297 2822 
Q 1591 2972 1913 2972 
Q 2475 2972 2870 2558 
Q 3266 2144 3266 1488 
Q 3266 1056 3080 686 
Q 2894 316 2569 119 
Q 2244 -78 1831 -78 
Q 1128 -78 684 439 
Q 241 956 241 2144 
Q 241 3472 731 4075 
Q 1159 4600 1884 4600 
Q 2425 4600 2770 4297 
Q 3116 3994 3184 3459 
z
M 888 1484 
Q 888 1194 1011 928 
Q 1134 663 1356 523 
Q 1578 384 1822 384 
Q 2178 384 2434 671 
Q 2691 959 2691 1453 
Q 2691 1928 2437 2201 
Q 2184 2475 1800 2475 
Q 1419 2475 1153 2201 
Q 888 1928 888 1484 
z
" transform="scale(0.015625)"/>
       </defs>
       <use xlink:href="#ArialMT-36"/>
       <use xlink:href="#ArialMT-30" x="55.615234"/>
       <use xlink:href="#ArialMT-30" x="111.230469"/>
      </g>
     </g>
    </g>
    <g id="xtick_5">
     <g id="line2d_5">
      <g>
       <use xlink:href="#m41695ae6ee" x="398.37125" y="273.312" style="fill: #262626; stroke: #262626; stroke-width: 1.25"/>
      </g>
     </g>
     <g id="text_5">
      <!-- 700 -->
      <g style="fill: #262626" transform="translate(389.195703 284.685594) scale(0.11 -0.11)">
       <defs>
        <path id="ArialMT-37" d="M 303 3981 
L 303 4522 
L 3269 4522 
L 3269 4084 
Q 2831 3619 2401 2847 
Q 1972 2075 1738 1259 
Q 1569 684 1522 0 
L 944 0 
Q 953 541 1156 1306 
Q 1359 2072 1739 2783 
Q 2119 3494 2547 3981 
L 303 3981 
z
" transform="scale(0.015625)"/>
       </defs>
       <use xlink:href="#ArialMT-37"/>
       <use xlink:href="#ArialMT-30" x="55.615234"/>
       <use xlink:href="#ArialMT-30" x="111.230469"/>
      </g>
     </g>
    </g>
    <g id="xtick_6">
     <g id="line2d_6">
      <defs>
       <path id="mf003b1cda1" d="M 0 0 
L 0 -4 
" style="stroke: #262626"/>
      </defs>
      <g>
       <use xlink:href="#mf003b1cda1" x="63.57125" y="273.312" style="fill: #262626; stroke: #262626"/>
      </g>
     </g>
    </g>
    <g id="xtick_7">
     <g id="line2d_7">
      <g>
       <use xlink:href="#mf003b1cda1" x="137.97125" y="273.312" style="fill: #262626; stroke: #262626"/>
      </g>
     </g>
    </g>
    <g id="xtick_8">
     <g id="line2d_8">
      <g>
       <use xlink:href="#mf003b1cda1" x="212.37125" y="273.312" style="fill: #262626; stroke: #262626"/>
      </g>
     </g>
    </g>
    <g id="xtick_9">
     <g id="line2d_9">
      <g>
       <use xlink:href="#mf003b1cda1" x="286.77125" y="273.312" style="fill: #262626; stroke: #262626"/>
      </g>
     </g>
    </g>
    <g id="xtick_10">
     <g id="line2d_10">
      <g>
       <use xlink:href="#mf003b1cda1" x="361.17125" y="273.312" style="fill: #262626; stroke: #262626"/>
      </g>
     </g>
    </g>
    <g id="text_6">
     <!-- Wavelength (nm) -->
     <g style="fill: #262626" transform="translate(174.356562 299.607469) scale(0.12 -0.12)">
      <defs>
       <path id="ArialMT-57" d="M 1294 0 
L 78 4581 
L 700 4581 
L 1397 1578 
Q 1509 1106 1591 641 
Q 1766 1375 1797 1488 
L 2669 4581 
L 3400 4581 
L 4056 2263 
Q 4303 1400 4413 641 
Q 4500 1075 4641 1638 
L 5359 4581 
L 5969 4581 
L 4713 0 
L 4128 0 
L 3163 3491 
Q 3041 3928 3019 4028 
Q 2947 3713 2884 3491 
L 1913 0 
L 1294 0 
z
" transform="scale(0.015625)"/>
       <path id="ArialMT-61" d="M 2588 409 
Q 2275 144 1986 34 
Q 1697 -75 1366 -75 
Q 819 -75 525 192 
Q 231 459 231 875 
Q 231 1119 342 1320 
Q 453 1522 633 1644 
Q 813 1766 1038 1828 
Q 1203 1872 1538 1913 
Q 2219 1994 2541 2106 
Q 2544 2222 2544 2253 
Q 2544 2597 2384 2738 
Q 2169 2928 1744 2928 
Q 1347 2928 1158 2789 
Q 969 2650 878 2297 
L 328 2372 
Q 403 2725 575 2942 
Q 747 3159 1072 3276 
Q 1397 3394 1825 3394 
Q 2250 3394 2515 3294 
Q 2781 3194 2906 3042 
Q 3031 2891 3081 2659 
Q 3109 2516 3109 2141 
L 3109 1391 
Q 3109 606 3145 398 
Q 3181 191 3288 0 
L 2700 0 
Q 2613 175 2588 409 
z
M 2541 1666 
Q 2234 1541 1622 1453 
Q 1275 1403 1131 1340 
Q 988 1278 909 1158 
Q 831 1038 831 891 
Q 831 666 1001 516 
Q 1172 366 1500 366 
Q 1825 366 2078 508 
Q 2331 650 2450 897 
Q 2541 1088 2541 1459 
L 2541 1666 
z
" transform="scale(0.015625)"/>
       <path id="ArialMT-76" d="M 1344 0 
L 81 3319 
L 675 3319 
L 1388 1331 
Q 1503 1009 1600 663 
Q 1675 925 1809 1294 
L 2547 3319 
L 3125 3319 
L 1869 0 
L 1344 0 
z
" transform="scale(0.015625)"/>
       <path id="ArialMT-65" d="M 2694 1069 
L 3275 997 
Q 3138 488 2766 206 
Q 2394 -75 1816 -75 
Q 1088 -75 661 373 
Q 234 822 234 1631 
Q 234 2469 665 2931 
Q 1097 3394 1784 3394 
Q 2450 3394 2872 2941 
Q 3294 2488 3294 1666 
Q 3294 1616 3291 1516 
L 816 1516 
Q 847 969 1125 678 
Q 1403 388 1819 388 
Q 2128 388 2347 550 
Q 2566 713 2694 1069 
z
M 847 1978 
L 2700 1978 
Q 2663 2397 2488 2606 
Q 2219 2931 1791 2931 
Q 1403 2931 1139 2672 
Q 875 2413 847 1978 
z
" transform="scale(0.015625)"/>
       <path id="ArialMT-6c" d="M 409 0 
L 409 4581 
L 972 4581 
L 972 0 
L 409 0 
z
" transform="scale(0.015625)"/>
       <path id="ArialMT-6e" d="M 422 0 
L 422 3319 
L 928 3319 
L 928 2847 
Q 1294 3394 1984 3394 
Q 2284 3394 2536 3286 
Q 2788 3178 2913 3003 
Q 3038 2828 3088 2588 
Q 3119 2431 3119 2041 
L 3119 0 
L 2556 0 
L 2556 2019 
Q 2556 2363 2490 2533 
Q 2425 2703 2258 2804 
Q 2091 2906 1866 2906 
Q 1506 2906 1245 2678 
Q 984 2450 984 1813 
L 984 0 
L 422 0 
z
" transform="scale(0.015625)"/>
       <path id="ArialMT-67" d="M 319 -275 
L 866 -356 
Q 900 -609 1056 -725 
Q 1266 -881 1628 -881 
Q 2019 -881 2231 -725 
Q 2444 -569 2519 -288 
Q 2563 -116 2559 434 
Q 2191 0 1641 0 
Q 956 0 581 494 
Q 206 988 206 1678 
Q 206 2153 378 2554 
Q 550 2956 876 3175 
Q 1203 3394 1644 3394 
Q 2231 3394 2613 2919 
L 2613 3319 
L 3131 3319 
L 3131 450 
Q 3131 -325 2973 -648 
Q 2816 -972 2473 -1159 
Q 2131 -1347 1631 -1347 
Q 1038 -1347 672 -1080 
Q 306 -813 319 -275 
z
M 784 1719 
Q 784 1066 1043 766 
Q 1303 466 1694 466 
Q 2081 466 2343 764 
Q 2606 1063 2606 1700 
Q 2606 2309 2336 2618 
Q 2066 2928 1684 2928 
Q 1309 2928 1046 2623 
Q 784 2319 784 1719 
z
" transform="scale(0.015625)"/>
       <path id="ArialMT-74" d="M 1650 503 
L 1731 6 
Q 1494 -44 1306 -44 
Q 1000 -44 831 53 
Q 663 150 594 308 
Q 525 466 525 972 
L 525 2881 
L 113 2881 
L 113 3319 
L 525 3319 
L 525 4141 
L 1084 4478 
L 1084 3319 
L 1650 3319 
L 1650 2881 
L 1084 2881 
L 1084 941 
Q 1084 700 1114 631 
Q 1144 563 1211 522 
Q 1278 481 1403 481 
Q 1497 481 1650 503 
z
" transform="scale(0.015625)"/>
       <path id="ArialMT-68" d="M 422 0 
L 422 4581 
L 984 4581 
L 984 2938 
Q 1378 3394 1978 3394 
Q 2347 3394 2619 3248 
Q 2891 3103 3008 2847 
Q 3125 2591 3125 2103 
L 3125 0 
L 2563 0 
L 2563 2103 
Q 2563 2525 2380 2717 
Q 2197 2909 1863 2909 
Q 1613 2909 1392 2779 
Q 1172 2650 1078 2428 
Q 984 2206 984 1816 
L 984 0 
L 422 0 
z
" transform="scale(0.015625)"/>
       <path id="ArialMT-20" transform="scale(0.015625)"/>
       <path id="ArialMT-28" d="M 1497 -1347 
Q 1031 -759 709 28 
Q 388 816 388 1659 
Q 388 2403 628 3084 
Q 909 3875 1497 4659 
L 1900 4659 
Q 1522 4009 1400 3731 
Q 1209 3300 1100 2831 
Q 966 2247 966 1656 
Q 966 153 1900 -1347 
L 1497 -1347 
z
" transform="scale(0.015625)"/>
       <path id="ArialMT-6d" d="M 422 0 
L 422 3319 
L 925 3319 
L 925 2853 
Q 1081 3097 1340 3245 
Q 1600 3394 1931 3394 
Q 2300 3394 2536 3241 
Q 2772 3088 2869 2813 
Q 3263 3394 3894 3394 
Q 4388 3394 4653 3120 
Q 4919 2847 4919 2278 
L 4919 0 
L 4359 0 
L 4359 2091 
Q 4359 2428 4304 2576 
Q 4250 2725 4106 2815 
Q 3963 2906 3769 2906 
Q 3419 2906 3187 2673 
Q 2956 2441 2956 1928 
L 2956 0 
L 2394 0 
L 2394 2156 
Q 2394 2531 2256 2718 
Q 2119 2906 1806 2906 
Q 1569 2906 1367 2781 
Q 1166 2656 1075 2415 
Q 984 2175 984 1722 
L 984 0 
L 422 0 
z
" transform="scale(0.015625)"/>
       <path id="ArialMT-29" d="M 791 -1347 
L 388 -1347 
Q 1322 153 1322 1656 
Q 1322 2244 1188 2822 
Q 1081 3291 891 3722 
Q 769 4003 388 4659 
L 791 4659 
Q 1378 3875 1659 3084 
Q 1900 2403 1900 1659 
Q 1900 816 1576 28 
Q 1253 -759 791 -1347 
z
" transform="scale(0.015625)"/>
      </defs>
      <use xlink:href="#ArialMT-57"/>
      <use xlink:href="#ArialMT-61" x="90.634766"/>
      <use xlink:href="#ArialMT-76" x="146.25"/>
      <use xlink:href="#ArialMT-65" x="196.25"/>
      <use xlink:href="#ArialMT-6c" x="251.865234"/>
      <use xlink:href="#ArialMT-65" x="274.082031"/>
      <use xlink:href="#ArialMT-6e" x="329.697266"/>
      <use xlink:href="#ArialMT-67" x="385.3125"/>
      <use xlink:href="#ArialMT-74" x="440.927734"/>
      <use xlink:href="#ArialMT-68" x="468.710938"/>
      <use xlink:href="#ArialMT-20" x="524.326172"/>
      <use xlink:href="#ArialMT-28" x="552.109375"/>
      <use xlink:href="#ArialMT-6e" x="585.410156"/>
      <use xlink:href="#ArialMT-6d" x="641.025391"/>
      <use xlink:href="#ArialMT-29" x="724.326172"/>
     </g>
    </g>
   </g>
   <g id="matplotlib.axis_2">
    <g id="ytick_1">
     <g id="line2d_11">
      <defs>
       <path id="m89ffaeff5f" d="M 0 0 
L 6 0 
" style="stroke: #262626; stroke-width: 1.25"/>
      </defs>
      <g>
       <use xlink:href="#m89ffaeff5f" x="41.25125" y="251.136" style="fill: #262626; stroke: #262626; stroke-width: 1.25"/>
      </g>
     </g>
     <g id="text_7">
      <!-- 0.0 -->
      <g style="fill: #262626" transform="translate(22.46125 255.072797) scale(0.11 -0.11)">
       <defs>
        <path id="ArialMT-2e" d="M 581 0 
L 581 641 
L 1222 641 
L 1222 0 
L 581 0 
z
" transform="scale(0.015625)"/>
       </defs>
       <use xlink:href="#ArialMT-30"/>
       <use xlink:href="#ArialMT-2e" x="55.615234"/>
       <use xlink:href="#ArialMT-30" x="83.398438"/>
      </g>
     </g>
    </g>
    <g id="ytick_2">
     <g id="line2d_12">
      <g>
       <use xlink:href="#m89ffaeff5f" x="41.25125" y="206.784" style="fill: #262626; stroke: #262626; stroke-width: 1.25"/>
      </g>
     </g>
     <g id="text_8">
      <!-- 0.2 -->
      <g style="fill: #262626" transform="translate(22.46125 210.720797) scale(0.11 -0.11)">
       <defs>
        <path id="ArialMT-32" d="M 3222 541 
L 3222 0 
L 194 0 
Q 188 203 259 391 
Q 375 700 629 1000 
Q 884 1300 1366 1694 
Q 2113 2306 2375 2664 
Q 2638 3022 2638 3341 
Q 2638 3675 2398 3904 
Q 2159 4134 1775 4134 
Q 1369 4134 1125 3890 
Q 881 3647 878 3216 
L 300 3275 
Q 359 3922 746 4261 
Q 1134 4600 1788 4600 
Q 2447 4600 2831 4234 
Q 3216 3869 3216 3328 
Q 3216 3053 3103 2787 
Q 2991 2522 2730 2228 
Q 2469 1934 1863 1422 
Q 1356 997 1212 845 
Q 1069 694 975 541 
L 3222 541 
z
" transform="scale(0.015625)"/>
       </defs>
       <use xlink:href="#ArialMT-30"/>
       <use xlink:href="#ArialMT-2e" x="55.615234"/>
       <use xlink:href="#ArialMT-32" x="83.398438"/>
      </g>
     </g>
    </g>
    <g id="ytick_3">
     <g id="line2d_13">
      <g>
       <use xlink:href="#m89ffaeff5f" x="41.25125" y="162.432" style="fill: #262626; stroke: #262626; stroke-width: 1.25"/>
      </g>
     </g>
     <g id="text_9">
      <!-- 0.4 -->
      <g style="fill: #262626" transform="translate(22.46125 166.368797) scale(0.11 -0.11)">
       <use xlink:href="#ArialMT-30"/>
       <use xlink:href="#ArialMT-2e" x="55.615234"/>
       <use xlink:href="#ArialMT-34" x="83.398438"/>
      </g>
     </g>
    </g>
    <g id="ytick_4">
     <g id="line2d_14">
      <g>
       <use xlink:href="#m89ffaeff5f" x="41.25125" y="118.08" style="fill: #262626; stroke: #262626; stroke-width: 1.25"/>
      </g>
     </g>
     <g id="text_10">
      <!-- 0.6 -->
      <g style="fill: #262626" transform="translate(22.46125 122.016797) scale(0.11 -0.11)">
       <use xlink:href="#ArialMT-30"/>
       <use xlink:href="#ArialMT-2e" x="55.615234"/>
       <use xlink:href="#ArialMT-36" x="83.398438"/>
      </g>
     </g>
    </g>
    <g id="ytick_5">
     <g id="line2d_15">
      <g>
       <use xlink:href="#m89ffaeff5f" x="41.25125" y="73.728" style="fill: #262626; stroke: #262626; stroke-width: 1.25"/>
      </g>
     </g>
     <g id="text_11">
      <!-- 0.8 -->
      <g style="fill: #262626" transform="translate(22.46125 77.664797) scale(0.11 -0.11)">
       <defs>
        <path id="ArialMT-38" d="M 1131 2484 
Q 781 2613 612 2850 
Q 444 3088 444 3419 
Q 444 3919 803 4259 
Q 1163 4600 1759 4600 
Q 2359 4600 2725 4251 
Q 3091 3903 3091 3403 
Q 3091 3084 2923 2848 
Q 2756 2613 2416 2484 
Q 2838 2347 3058 2040 
Q 3278 1734 3278 1309 
Q 3278 722 2862 322 
Q 2447 -78 1769 -78 
Q 1091 -78 675 323 
Q 259 725 259 1325 
Q 259 1772 486 2073 
Q 713 2375 1131 2484 
z
M 1019 3438 
Q 1019 3113 1228 2906 
Q 1438 2700 1772 2700 
Q 2097 2700 2305 2904 
Q 2513 3109 2513 3406 
Q 2513 3716 2298 3927 
Q 2084 4138 1766 4138 
Q 1444 4138 1231 3931 
Q 1019 3725 1019 3438 
z
M 838 1322 
Q 838 1081 952 856 
Q 1066 631 1291 507 
Q 1516 384 1775 384 
Q 2178 384 2440 643 
Q 2703 903 2703 1303 
Q 2703 1709 2433 1975 
Q 2163 2241 1756 2241 
Q 1359 2241 1098 1978 
Q 838 1716 838 1322 
z
" transform="scale(0.015625)"/>
       </defs>
       <use xlink:href="#ArialMT-30"/>
       <use xlink:href="#ArialMT-2e" x="55.615234"/>
       <use xlink:href="#ArialMT-38" x="83.398438"/>
      </g>
     </g>
    </g>
    <g id="ytick_6">
     <g id="line2d_16">
      <g>
       <use xlink:href="#m89ffaeff5f" x="41.25125" y="29.376" style="fill: #262626; stroke: #262626; stroke-width: 1.25"/>
      </g>
     </g>
     <g id="text_12">
      <!-- 1.0 -->
      <g style="fill: #262626" transform="translate(22.46125 33.312797) scale(0.11 -0.11)">
       <defs>
        <path id="ArialMT-31" d="M 2384 0 
L 1822 0 
L 1822 3584 
Q 1619 3391 1289 3197 
Q 959 3003 697 2906 
L 697 3450 
Q 1169 3672 1522 3987 
Q 1875 4303 2022 4600 
L 2384 4600 
L 2384 0 
z
" transform="scale(0.015625)"/>
       </defs>
       <use xlink:href="#ArialMT-31"/>
       <use xlink:href="#ArialMT-2e" x="55.615234"/>
       <use xlink:href="#ArialMT-30" x="83.398438"/>
      </g>
     </g>
    </g>
    <g id="ytick_7">
     <g id="line2d_17">
      <defs>
       <path id="mf6736a0f49" d="M 0 0 
L 4 0 
" style="stroke: #262626"/>
      </defs>
      <g>
       <use xlink:href="#mf6736a0f49" x="41.25125" y="228.96" style="fill: #262626; stroke: #262626"/>
      </g>
     </g>
    </g>
    <g id="ytick_8">
     <g id="line2d_18">
      <g>
       <use xlink:href="#mf6736a0f49" x="41.25125" y="184.608" style="fill: #262626; stroke: #262626"/>
      </g>
     </g>
    </g>
    <g id="ytick_9">
     <g id="line2d_19">
      <g>
       <use xlink:href="#mf6736a0f49" x="41.25125" y="140.256" style="fill: #262626; stroke: #262626"/>
      </g>
     </g>
    </g>
    <g id="ytick_10">
     <g id="line2d_20">
      <g>
       <use xlink:href="#mf6736a0f49" x="41.25125" y="95.904" style="fill: #262626; stroke: #262626"/>
      </g>
     </g>
    </g>
    <g id="ytick_11">
     <g id="line2d_21">
      <g>
       <use xlink:href="#mf6736a0f49" x="41.25125" y="51.552" style="fill: #262626; stroke: #262626"/>
      </g>
     </g>
    </g>
    <g id="text_13">
     <!-- Absorbance (a.u.) -->
     <g style="fill: #262626" transform="translate(15.935625 187.94475) rotate(-90) scale(0.12 -0.12)">
      <defs>
       <path id="ArialMT-41" d="M -9 0 
L 1750 4581 
L 2403 4581 
L 4278 0 
L 3588 0 
L 3053 1388 
L 1138 1388 
L 634 0 
L -9 0 
z
M 1313 1881 
L 2866 1881 
L 2388 3150 
Q 2169 3728 2063 4100 
Q 1975 3659 1816 3225 
L 1313 1881 
z
" transform="scale(0.015625)"/>
       <path id="ArialMT-62" d="M 941 0 
L 419 0 
L 419 4581 
L 981 4581 
L 981 2947 
Q 1338 3394 1891 3394 
Q 2197 3394 2470 3270 
Q 2744 3147 2920 2923 
Q 3097 2700 3197 2384 
Q 3297 2069 3297 1709 
Q 3297 856 2875 390 
Q 2453 -75 1863 -75 
Q 1275 -75 941 416 
L 941 0 
z
M 934 1684 
Q 934 1088 1097 822 
Q 1363 388 1816 388 
Q 2184 388 2453 708 
Q 2722 1028 2722 1663 
Q 2722 2313 2464 2622 
Q 2206 2931 1841 2931 
Q 1472 2931 1203 2611 
Q 934 2291 934 1684 
z
" transform="scale(0.015625)"/>
       <path id="ArialMT-73" d="M 197 991 
L 753 1078 
Q 800 744 1014 566 
Q 1228 388 1613 388 
Q 2000 388 2187 545 
Q 2375 703 2375 916 
Q 2375 1106 2209 1216 
Q 2094 1291 1634 1406 
Q 1016 1563 777 1677 
Q 538 1791 414 1992 
Q 291 2194 291 2438 
Q 291 2659 392 2848 
Q 494 3038 669 3163 
Q 800 3259 1026 3326 
Q 1253 3394 1513 3394 
Q 1903 3394 2198 3281 
Q 2494 3169 2634 2976 
Q 2775 2784 2828 2463 
L 2278 2388 
Q 2241 2644 2061 2787 
Q 1881 2931 1553 2931 
Q 1166 2931 1000 2803 
Q 834 2675 834 2503 
Q 834 2394 903 2306 
Q 972 2216 1119 2156 
Q 1203 2125 1616 2013 
Q 2213 1853 2448 1751 
Q 2684 1650 2818 1456 
Q 2953 1263 2953 975 
Q 2953 694 2789 445 
Q 2625 197 2315 61 
Q 2006 -75 1616 -75 
Q 969 -75 630 194 
Q 291 463 197 991 
z
" transform="scale(0.015625)"/>
       <path id="ArialMT-6f" d="M 213 1659 
Q 213 2581 725 3025 
Q 1153 3394 1769 3394 
Q 2453 3394 2887 2945 
Q 3322 2497 3322 1706 
Q 3322 1066 3130 698 
Q 2938 331 2570 128 
Q 2203 -75 1769 -75 
Q 1072 -75 642 372 
Q 213 819 213 1659 
z
M 791 1659 
Q 791 1022 1069 705 
Q 1347 388 1769 388 
Q 2188 388 2466 706 
Q 2744 1025 2744 1678 
Q 2744 2294 2464 2611 
Q 2184 2928 1769 2928 
Q 1347 2928 1069 2612 
Q 791 2297 791 1659 
z
" transform="scale(0.015625)"/>
       <path id="ArialMT-72" d="M 416 0 
L 416 3319 
L 922 3319 
L 922 2816 
Q 1116 3169 1280 3281 
Q 1444 3394 1641 3394 
Q 1925 3394 2219 3213 
L 2025 2691 
Q 1819 2813 1613 2813 
Q 1428 2813 1281 2702 
Q 1134 2591 1072 2394 
Q 978 2094 978 1738 
L 978 0 
L 416 0 
z
" transform="scale(0.015625)"/>
       <path id="ArialMT-63" d="M 2588 1216 
L 3141 1144 
Q 3050 572 2676 248 
Q 2303 -75 1759 -75 
Q 1078 -75 664 370 
Q 250 816 250 1647 
Q 250 2184 428 2587 
Q 606 2991 970 3192 
Q 1334 3394 1763 3394 
Q 2303 3394 2647 3120 
Q 2991 2847 3088 2344 
L 2541 2259 
Q 2463 2594 2264 2762 
Q 2066 2931 1784 2931 
Q 1359 2931 1093 2626 
Q 828 2322 828 1663 
Q 828 994 1084 691 
Q 1341 388 1753 388 
Q 2084 388 2306 591 
Q 2528 794 2588 1216 
z
" transform="scale(0.015625)"/>
       <path id="ArialMT-75" d="M 2597 0 
L 2597 488 
Q 2209 -75 1544 -75 
Q 1250 -75 995 37 
Q 741 150 617 320 
Q 494 491 444 738 
Q 409 903 409 1263 
L 409 3319 
L 972 3319 
L 972 1478 
Q 972 1038 1006 884 
Q 1059 663 1231 536 
Q 1403 409 1656 409 
Q 1909 409 2131 539 
Q 2353 669 2445 892 
Q 2538 1116 2538 1541 
L 2538 3319 
L 3100 3319 
L 3100 0 
L 2597 0 
z
" transform="scale(0.015625)"/>
      </defs>
      <use xlink:href="#ArialMT-41"/>
      <use xlink:href="#ArialMT-62" x="66.699219"/>
      <use xlink:href="#ArialMT-73" x="122.314453"/>
      <use xlink:href="#ArialMT-6f" x="172.314453"/>
      <use xlink:href="#ArialMT-72" x="227.929688"/>
      <use xlink:href="#ArialMT-62" x="261.230469"/>
      <use xlink:href="#ArialMT-61" x="316.845703"/>
      <use xlink:href="#ArialMT-6e" x="372.460938"/>
      <use xlink:href="#ArialMT-63" x="428.076172"/>
      <use xlink:href="#ArialMT-65" x="478.076172"/>
      <use xlink:href="#ArialMT-20" x="533.691406"/>
      <use xlink:href="#ArialMT-28" x="561.474609"/>
      <use xlink:href="#ArialMT-61" x="594.775391"/>
      <use xlink:href="#ArialMT-2e" x="650.390625"/>
      <use xlink:href="#ArialMT-75" x="678.173828"/>
      <use xlink:href="#ArialMT-2e" x="733.789062"/>
      <use xlink:href="#ArialMT-29" x="761.572266"/>
     </g>
    </g>
   </g>
   <g id="PolyCollection_1"/>
   <g id="PolyCollection_2"/>
   <g id="PolyCollection_3"/>
   <g id="PolyCollection_4"/>
   <g id="PolyCollection_5"/>
   <g id="line2d_22">
    <path d="M 56.131239 242.182867 
L 56.627242 240.086533 
L 57.123235 241.110245 
L 57.619239 240.702633 
L 58.115242 241.363092 
L 58.611235 242.810159 
L 59.107239 242.646123 
L 59.603242 244.146674 
L 60.099235 243.565834 
L 60.595239 245.36506 
L 61.091242 244.880331 
L 61.587235 245.328199 
L 62.083239 246.303806 
L 62.579242 246.318425 
L 64.067242 247.506579 
L 64.563235 247.287539 
L 65.059239 247.744031 
L 65.555242 247.788395 
L 66.051235 248.203918 
L 66.547239 248.024759 
L 67.043242 248.402115 
L 67.539235 248.253872 
L 68.035239 248.292478 
L 69.027235 248.089799 
L 69.52325 248.270056 
L 70.019242 247.994233 
L 70.515235 248.250148 
L 72.49925 248.067616 
L 72.995242 247.751133 
L 73.98725 247.583701 
L 74.483242 247.538793 
L 74.979235 247.33119 
L 75.971242 247.187538 
L 77.459242 246.178179 
L 78.45125 245.666432 
L 78.947242 245.208754 
L 79.443235 245.016802 
L 79.93925 244.486322 
L 80.435242 244.125077 
L 80.931235 243.933716 
L 81.42725 243.216425 
L 82.91525 241.872002 
L 84.40325 240.278801 
L 85.89125 238.136625 
L 86.387242 237.289946 
L 88.371235 232.967391 
L 91.84325 225.199946 
L 93.827242 220.168002 
L 95.315242 214.747787 
L 96.30725 210.23711 
L 97.79525 202.213587 
L 99.779242 191.633503 
L 101.267242 185.299645 
L 103.74725 175.428273 
L 104.739235 170.138354 
L 105.731242 163.423945 
L 106.72325 154.817304 
L 110.691235 116.788881 
L 111.683242 110.960859 
L 112.67525 107.122942 
L 113.667235 104.763793 
L 114.659242 102.750954 
L 115.155235 101.431911 
L 115.65125 99.736474 
L 116.147242 97.456911 
L 117.13925 91.073393 
L 118.131235 81.702412 
L 119.619235 63.917758 
L 121.107235 45.378018 
L 122.099242 36.022594 
L 122.595235 32.578069 
L 123.09125 30.35985 
L 123.587242 29.376 
L 124.083235 29.563642 
L 124.57925 30.741636 
L 125.075242 32.89826 
L 125.571235 35.69709 
L 127.059235 46.698594 
L 128.547235 57.668587 
L 129.539242 62.760833 
L 130.035235 64.388317 
L 130.53125 68.017985 
L 131.027242 68.129902 
L 131.523235 67.717701 
L 132.01925 66.562546 
L 132.515242 64.987776 
L 133.50725 60.611109 
L 134.499235 55.991008 
L 134.99525 54.149486 
L 135.491242 52.847944 
L 135.987235 52.38447 
L 136.48325 52.790208 
L 136.979242 54.346592 
L 137.475235 57.069921 
L 137.97125 61.060241 
L 138.467242 66.256155 
L 139.45925 80.217153 
L 140.451235 97.716194 
L 144.915235 182.274478 
L 145.907242 196.338471 
L 146.89925 207.704436 
L 147.891235 216.895277 
L 148.883242 224.11408 
L 149.87525 229.657562 
L 150.867235 233.964959 
L 151.859242 237.326844 
L 152.85125 239.860373 
L 153.843235 241.90523 
L 155.331235 244.003224 
L 156.819235 245.617015 
L 158.80325 246.991255 
L 160.29125 247.729775 
L 160.787242 247.863329 
L 162.275242 248.532651 
L 168.723235 249.827747 
L 177.155242 250.567253 
L 178.643242 250.606202 
L 180.131242 250.693524 
L 183.107242 250.788502 
L 186.083242 250.92862 
L 188.067235 250.87853 
L 190.05125 250.954621 
L 190.547242 250.844672 
L 191.53925 251.013788 
L 194.019235 250.959336 
L 196.00325 251.033653 
L 197.49125 251.00042 
L 197.987242 251.051363 
L 198.483235 250.983886 
L 199.475242 251.043653 
L 201.459235 251.052743 
L 255.027235 251.033754 
L 256.019242 251.00042 
L 258.49925 251.046313 
L 259.98725 250.995032 
L 261.47525 251.030691 
L 278.835235 251.010017 
L 280.81925 251.023822 
L 293.219265 251.01628 
L 294.707265 251.042811 
L 296.195265 251.002811 
L 298.179235 251.004427 
L 299.667235 251.031936 
L 303.13925 251.034158 
L 311.075265 251.012508 
L 312.563265 251.014192 
L 316.53125 250.975837 
L 318.01925 251.049915 
L 319.50725 251.003888 
L 328.931265 251.020724 
L 330.915235 250.996649 
L 335.379235 250.978633 
L 336.867235 250.901168 
L 340.33925 250.931078 
L 341.82725 250.930337 
L 342.323265 251.03032 
L 343.811265 251.032509 
L 345.299265 251.05244 
L 349.26725 251.017828 
L 398.37125 251.148611 
L 398.37125 251.148611 
" clip-path="url(#p06d15b264d)" style="fill: none; stroke: #f6ab83; stroke-linecap: round"/>
   </g>
   <g id="line2d_23">
    <path d="M 56.131239 105.308676 
L 56.627242 111.272736 
L 57.123235 139.909254 
L 57.619239 154.24921 
L 58.115242 153.708557 
L 58.611235 165.930889 
L 59.107239 156.679637 
L 59.603242 163.427917 
L 60.099235 152.329161 
L 60.595239 169.674999 
L 61.091242 158.16549 
L 61.587235 164.474842 
L 62.083239 156.71896 
L 62.579242 160.349105 
L 63.075235 150.410718 
L 63.571239 147.170482 
L 64.067242 142.015128 
L 64.563235 135.603911 
L 65.059239 135.775625 
L 65.555242 132.220929 
L 66.051235 133.532292 
L 66.547239 123.697111 
L 67.043242 122.22248 
L 67.539235 115.988469 
L 68.035239 107.241203 
L 68.531242 94.414898 
L 69.027235 89.492 
L 69.52325 81.361112 
L 70.019242 76.24169 
L 70.515235 82.496241 
L 71.01125 79.695851 
L 72.003235 70.475383 
L 72.49925 69.93432 
L 72.995242 63.023539 
L 73.491235 53.923737 
L 73.98725 37.933219 
L 74.483242 29.376 
L 74.979235 31.916076 
L 75.47525 39.132508 
L 75.971242 56.144746 
L 77.459242 89.735659 
L 77.955235 90.162611 
L 78.45125 88.721699 
L 79.93925 53.911656 
L 80.435242 60.795737 
L 81.42725 103.361292 
L 82.419235 149.708734 
L 83.411242 171.868223 
L 83.907235 178.178983 
L 84.40325 182.627622 
L 84.899242 183.218232 
L 85.395235 182.890209 
L 85.89125 177.572948 
L 86.387242 174.514201 
L 86.883235 173.049218 
L 87.37925 177.223281 
L 87.875242 185.395773 
L 89.859235 227.646326 
L 90.35525 236.603117 
L 91.347235 244.294264 
L 91.84325 248.261577 
L 92.339242 248.955977 
L 92.835235 248.999818 
L 93.33125 250.010947 
L 93.827242 251.528276 
L 94.323235 252.451422 
L 94.81925 250.546899 
L 95.315242 251.420088 
L 95.811235 252.672144 
L 96.803242 254.325711 
L 97.299235 252.550773 
L 97.79525 251.74097 
L 98.291242 252.254916 
L 98.787235 251.811947 
L 99.28325 253.011034 
L 100.275235 253.050182 
L 100.77125 250.74618 
L 101.267242 252.862268 
L 101.763235 252.208419 
L 102.25925 252.384127 
L 102.755242 252.740414 
L 103.251235 252.399299 
L 103.74725 252.214537 
L 104.243242 252.181254 
L 104.739235 251.977393 
L 105.23525 252.393915 
L 105.731242 252.155314 
L 106.227235 252.807948 
L 106.72325 252.576467 
L 107.219242 253.509164 
L 107.715235 253.022778 
L 108.21125 251.890266 
L 108.707242 253.297295 
L 109.203235 252.192757 
L 109.69925 253.409836 
L 110.195242 251.81464 
L 111.18725 253.232704 
L 111.683242 253.121626 
L 112.179235 252.443347 
L 112.67525 252.395384 
L 113.171242 251.131004 
L 114.659242 253.961734 
L 115.155235 252.617332 
L 115.65125 252.694901 
L 116.147242 253.239555 
L 116.643235 252.520185 
L 117.13925 253.678945 
L 117.635242 254.539484 
L 118.131235 253.234172 
L 118.62725 254.064473 
L 119.123242 253.88688 
L 120.11525 253.972497 
L 120.611242 255.322569 
L 121.107235 253.923084 
L 121.60325 255.197853 
L 122.099242 254.546332 
L 122.595235 254.219065 
L 123.09125 254.601119 
L 124.083235 255.915286 
L 124.57925 255.347512 
L 125.075242 255.755868 
L 125.571235 256.453158 
L 126.06725 255.285399 
L 126.563242 256.111862 
L 127.059235 256.333365 
L 127.55525 255.732884 
L 128.051242 256.26051 
L 129.04325 256.573924 
L 129.539242 256.669753 
L 130.035235 257.299428 
L 130.53125 256.893181 
L 131.027242 257.124419 
L 131.523235 256.690287 
L 132.01925 256.950381 
L 133.011235 257.273031 
L 133.50725 256.618417 
L 134.003242 256.910292 
L 134.499235 257.457321 
L 134.99525 257.170861 
L 135.491242 257.423102 
L 135.987235 257.261787 
L 136.48325 257.241256 
L 136.979242 256.737712 
L 137.475235 257.285252 
L 137.97125 257.237345 
L 138.467242 256.004285 
L 138.963235 257.389374 
L 139.45925 258.220789 
L 139.955242 257.77211 
L 140.451235 257.027624 
L 140.94725 256.815936 
L 141.443242 257.33658 
L 141.939235 258.106425 
L 142.43525 258.146013 
L 142.931242 258.005742 
L 143.427235 257.587345 
L 143.92325 257.740827 
L 144.419242 257.748648 
L 144.915235 256.951359 
L 145.41125 257.728119 
L 145.907242 257.726652 
L 146.403235 257.451943 
L 146.89925 258.110335 
L 147.395242 257.588323 
L 147.891235 257.960288 
L 148.38725 257.665553 
L 148.883242 257.646979 
L 149.379235 257.862534 
L 149.87525 257.607386 
L 150.371242 258.097627 
L 151.36325 257.65871 
L 151.859242 258.147479 
L 152.355235 258.946491 
L 152.85125 258.215413 
L 153.347242 257.709056 
L 153.843235 258.027736 
L 154.33925 257.861556 
L 154.835242 257.945625 
L 155.82725 257.728608 
L 156.819235 258.694831 
L 157.31525 257.669953 
L 157.811242 258.252557 
L 158.307235 258.489582 
L 158.80325 257.735451 
L 159.299242 258.312181 
L 159.795235 258.405036 
L 160.787242 257.42408 
L 161.283235 257.894793 
L 161.77925 258.919615 
L 162.275242 258.925479 
L 162.771235 258.711934 
L 163.26725 258.34297 
L 163.763242 258.228609 
L 164.259235 257.911411 
L 164.75525 258.012096 
L 165.251242 257.793616 
L 165.747235 258.765199 
L 166.24325 258.040444 
L 166.739242 257.741805 
L 167.235235 258.018938 
L 167.73125 257.730074 
L 168.227242 257.970063 
L 168.723235 258.844362 
L 169.21925 258.846317 
L 169.715242 258.439734 
L 170.211235 258.257933 
L 170.70725 257.814633 
L 171.699235 258.748584 
L 172.19525 257.965175 
L 173.187235 258.050219 
L 173.68325 257.628894 
L 174.179242 257.892837 
L 175.17125 258.090295 
L 175.667242 258.546271 
L 176.163235 258.152366 
L 176.65925 258.951377 
L 177.155242 258.341015 
L 177.651235 258.085409 
L 178.14725 258.222745 
L 178.643242 258.639122 
L 179.139235 258.111312 
L 179.63525 258.497402 
L 180.131242 257.703679 
L 180.627235 258.231052 
L 181.12325 257.949534 
L 181.619242 258.639122 
L 182.115235 257.751092 
L 182.61125 257.92363 
L 183.107242 257.701235 
L 183.603235 258.284813 
L 184.09925 257.73594 
L 184.595242 257.739361 
L 185.091235 257.99499 
L 185.58725 258.767154 
L 186.083242 258.693365 
L 186.579235 257.678262 
L 187.07525 257.619117 
L 187.571242 258.251579 
L 188.067235 257.310672 
L 188.56325 258.419698 
L 189.059242 257.728608 
L 189.555235 257.455854 
L 190.05125 257.86791 
L 190.547242 256.629173 
L 191.043235 257.902124 
L 192.035242 257.99499 
L 192.531235 257.933894 
L 193.02725 258.401616 
L 193.523242 257.755491 
L 194.019235 257.60983 
L 194.51525 257.99059 
L 195.011242 258.161652 
L 195.507235 257.98668 
L 196.00325 258.093228 
L 196.499242 257.745715 
L 196.995235 258.085409 
L 197.49125 257.669463 
L 197.987242 258.194398 
L 198.483235 257.228057 
L 198.97925 258.119621 
L 199.475242 257.986191 
L 199.971235 257.637692 
L 200.46725 258.031646 
L 200.963242 257.805836 
L 201.459235 258.211504 
L 201.95525 257.968108 
L 203.44325 258.168006 
L 203.939242 257.41186 
L 204.435235 258.395751 
L 204.93125 258.428494 
L 205.427242 257.608364 
L 205.923235 258.132817 
L 206.41925 258.439246 
L 206.915242 257.594677 
L 207.411235 258.120109 
L 208.403242 258.280903 
L 208.899235 258.076611 
L 209.39525 258.275038 
L 209.891242 258.131351 
L 210.387235 258.30094 
L 210.88325 258.349812 
L 211.379242 258.792076 
L 211.875235 257.956866 
L 212.867242 257.891371 
L 213.363235 258.25891 
L 213.85925 257.934383 
L 214.355242 258.581945 
L 214.851235 258.621529 
L 215.34725 257.432391 
L 215.843242 257.941714 
L 216.339235 258.241804 
L 217.331242 257.945136 
L 217.827235 258.652805 
L 218.32325 257.689993 
L 218.819242 258.167029 
L 220.307242 258.076611 
L 220.803235 258.141125 
L 221.29925 258.718776 
L 221.795242 258.31267 
L 222.291235 258.118643 
L 222.78725 258.708513 
L 223.283242 257.782374 
L 223.779235 258.402105 
L 224.27525 258.080032 
L 224.771242 258.493003 
L 225.267235 258.434848 
L 225.76325 258.075633 
L 226.259242 258.036534 
L 227.25125 258.324399 
L 227.747242 257.590767 
L 228.243235 257.890394 
L 228.73925 257.660176 
L 229.235242 259.214259 
L 229.731235 257.538953 
L 230.22725 258.370338 
L 230.723242 257.48274 
L 231.219235 257.586856 
L 231.71525 258.432892 
L 232.211242 257.66262 
L 232.707235 257.669953 
L 233.20325 257.940248 
L 233.699242 257.889905 
L 234.195235 258.398684 
L 234.69125 257.775532 
L 235.187242 258.223721 
L 235.683235 257.50718 
L 236.17925 258.04191 
L 236.675242 257.639158 
L 237.171235 258.094694 
L 237.66725 257.929007 
L 238.163242 258.038 
L 238.659235 257.774065 
L 239.15525 257.969574 
L 240.147235 257.793616 
L 240.64325 257.786773 
L 241.139242 258.059016 
L 241.635235 257.989124 
L 242.627242 257.459764 
L 243.123235 257.670441 
L 243.61925 257.757447 
L 245.10725 257.476874 
L 245.603242 257.672397 
L 247.091242 257.357111 
L 247.587235 257.695858 
L 248.08325 257.614718 
L 248.579242 257.083844 
L 249.075235 257.100954 
L 249.57125 256.686865 
L 250.067242 256.4336 
L 250.563235 257.075044 
L 251.05925 256.67122 
L 251.555242 257.096065 
L 252.051235 256.142179 
L 252.54725 256.1324 
L 253.043242 255.998417 
L 253.539235 255.711367 
L 254.03525 256.508407 
L 255.027235 256.327987 
L 255.52325 255.759291 
L 256.019242 255.657084 
L 256.515235 256.152937 
L 257.01125 256.168095 
L 257.507242 256.35439 
L 258.003235 256.146091 
L 258.49925 256.128977 
L 258.995265 255.841446 
L 259.491235 255.401799 
L 260.483265 256.289359 
L 261.971265 256.200856 
L 262.467235 255.761736 
L 262.96325 255.723592 
L 263.459265 256.291315 
L 264.45125 255.937292 
L 265.443235 256.104528 
L 265.93925 255.641924 
L 266.435265 255.951962 
L 266.931235 255.542648 
L 267.42725 256.427244 
L 267.923265 255.621384 
L 268.419235 255.419894 
L 268.91525 256.14169 
L 269.411265 255.073622 
L 269.907235 255.781786 
L 270.40325 255.643391 
L 271.395235 256.047316 
L 271.89125 255.662952 
L 272.387265 255.760758 
L 272.883235 255.376856 
L 273.37925 255.478092 
L 273.875265 255.816995 
L 274.371235 255.548516 
L 275.363265 255.245295 
L 275.859235 255.444837 
L 276.35525 255.440435 
L 276.851265 255.803303 
L 277.84325 256.072744 
L 278.339265 255.184647 
L 278.835235 255.228177 
L 279.33125 254.451922 
L 279.827265 254.934224 
L 280.323235 255.117152 
L 281.315265 254.794333 
L 281.811235 255.2047 
L 282.30725 255.261924 
L 282.803265 255.10199 
L 283.299235 255.26926 
L 283.79525 255.108838 
L 284.291265 255.254098 
L 284.787235 255.076068 
L 285.779265 255.026179 
L 286.77125 255.547049 
L 287.763235 255.394952 
L 288.25925 255.407179 
L 288.755265 255.190517 
L 289.251235 255.285399 
L 289.74725 255.170953 
L 290.243265 255.524553 
L 290.739235 255.478092 
L 291.23525 255.057481 
L 292.72325 254.633892 
L 293.219265 255.00319 
L 293.715235 254.885312 
L 294.21125 254.418168 
L 294.707265 254.47638 
L 295.203235 254.349682 
L 295.69925 254.339409 
L 296.195265 253.530692 
L 296.691235 254.714114 
L 297.18725 254.525787 
L 297.683265 254.018974 
L 298.179235 253.728361 
L 298.67525 253.603107 
L 299.171265 254.713135 
L 299.667235 254.323265 
L 300.659265 254.304187 
L 301.155235 254.455835 
L 301.65125 253.84089 
L 302.147265 253.849208 
L 302.643235 253.360416 
L 303.13925 252.649632 
L 303.635265 253.358948 
L 304.131235 252.744818 
L 304.62725 253.027183 
L 305.123265 253.087861 
L 305.619235 252.725977 
L 306.11525 253.202855 
L 307.107235 251.997951 
L 308.099265 252.242191 
L 308.595235 252.483969 
L 309.09125 251.937746 
L 309.587265 251.956101 
L 310.083235 251.491316 
L 310.57925 251.236262 
L 312.06725 251.338824 
L 312.563265 251.003712 
L 313.059235 250.450927 
L 313.55525 250.835045 
L 314.051265 250.34467 
L 314.547235 250.677877 
L 315.539265 250.874703 
L 316.035235 250.192135 
L 317.027265 249.795224 
L 317.523235 250.142187 
L 318.01925 250.248204 
L 318.515265 249.925982 
L 319.50725 250.09689 
L 320.499235 249.594183 
L 320.99525 249.806243 
L 321.491265 249.597367 
L 322.48325 249.587816 
L 322.979265 249.934551 
L 323.475235 249.238113 
L 323.97125 249.567246 
L 324.467265 250.086116 
L 324.963235 249.899537 
L 325.45925 250.244287 
L 326.451235 249.139662 
L 326.94725 250.034208 
L 327.443265 249.451171 
L 327.939235 249.847626 
L 328.43525 250.079995 
L 328.931265 250.640665 
L 329.427235 249.905658 
L 329.92325 249.843463 
L 330.419265 250.592925 
L 331.41125 249.852033 
L 331.907265 250.00556 
L 332.403235 250.309904 
L 332.89925 249.8584 
L 333.891235 250.382619 
L 334.38725 250.299865 
L 334.883265 250.823784 
L 335.379235 250.174017 
L 335.87525 249.758004 
L 336.371265 248.666965 
L 336.867235 248.631204 
L 337.36325 248.848702 
L 337.859265 249.468313 
L 338.355235 248.66525 
L 338.85125 248.878583 
L 339.347265 249.265052 
L 339.843235 248.579767 
L 340.33925 248.830088 
L 341.331235 248.617487 
L 341.82725 249.03435 
L 342.819235 248.99296 
L 343.31525 250.848999 
L 343.811265 250.608594 
L 344.307235 250.862218 
L 344.80325 250.482265 
L 345.299265 250.532209 
L 345.795235 251.079843 
L 346.29125 249.927206 
L 346.787265 250.626955 
L 347.77925 249.47517 
L 348.275265 250.440644 
L 348.771235 250.631117 
L 349.26725 250.049879 
L 349.763265 250.355198 
L 350.259235 249.966873 
L 350.75525 250.044247 
L 351.251265 250.557181 
L 351.747235 250.631362 
L 352.24325 250.025393 
L 352.739265 250.701134 
L 353.235235 250.167406 
L 353.73125 250.32288 
L 354.227265 250.108398 
L 354.723235 250.328266 
L 355.21925 249.896843 
L 356.211235 250.008988 
L 356.70725 249.652219 
L 357.203265 249.919615 
L 358.19525 250.094441 
L 358.691265 250.055755 
L 359.187235 250.298396 
L 359.68325 249.668381 
L 360.179265 250.25506 
L 360.675235 249.620385 
L 361.17125 250.034698 
L 361.667265 249.896598 
L 362.163235 249.966138 
L 362.65925 249.815059 
L 363.155265 249.988175 
L 363.651235 249.604713 
L 364.14725 249.935776 
L 366.627235 250.363767 
L 367.619265 250.033963 
L 368.115235 250.370133 
L 368.61125 250.161775 
L 369.603235 250.644092 
L 370.09925 250.601494 
L 370.595265 250.802975 
L 371.091235 250.812523 
L 371.58725 250.594394 
L 372.083265 250.875682 
L 372.579235 250.392413 
L 373.07525 251.074703 
L 373.571265 250.961363 
L 374.067235 250.673225 
L 374.56325 251.120968 
L 375.059265 251.408829 
L 375.555235 250.615448 
L 376.547265 250.584846 
L 377.043235 250.726105 
L 377.53925 251.209825 
L 378.035265 250.876417 
L 378.531235 251.281301 
L 379.02725 251.179227 
L 379.523265 251.290358 
L 380.019235 250.917054 
L 381.011265 251.394143 
L 381.507235 251.50331 
L 382.00325 251.177024 
L 382.499265 251.241157 
L 382.995235 251.114114 
L 383.49125 251.239199 
L 383.987265 251.739746 
L 384.483235 251.729222 
L 384.97925 250.969931 
L 385.475265 251.608802 
L 385.971235 251.264411 
L 386.46725 251.451174 
L 386.963265 250.755482 
L 387.459235 251.281056 
L 387.95525 250.630138 
L 388.947235 250.879355 
L 389.44325 251.344209 
L 389.939265 251.231366 
L 390.435235 251.630831 
L 390.93125 251.038718 
L 391.427265 251.610026 
L 391.923235 251.334173 
L 392.41925 251.485686 
L 392.915265 251.285462 
L 393.411235 251.301373 
L 393.90725 250.951081 
L 394.403265 251.127822 
L 394.899235 251.632544 
L 395.891265 250.949123 
L 396.387235 251.125619 
L 396.88325 250.824029 
L 397.875235 250.86687 
L 398.37125 250.568933 
L 398.37125 250.568933 
" clip-path="url(#p06d15b264d)" style="fill: none; stroke: #f06043; stroke-linecap: round"/>
   </g>
   <g id="line2d_24">
    <path d="M 56.131239 189.880674 
L 56.627242 194.296202 
L 57.619239 200.395895 
L 58.115242 201.237649 
L 58.611235 202.936059 
L 59.603242 203.672252 
L 60.099235 202.787473 
L 60.595239 202.935646 
L 61.091242 200.789164 
L 61.587235 199.61148 
L 62.083239 198.080157 
L 63.571239 191.991385 
L 65.059239 183.347291 
L 66.051235 176.943107 
L 67.539235 164.93632 
L 70.019242 142.452687 
L 72.995242 115.263096 
L 73.98725 104.625679 
L 75.47525 85.470657 
L 76.96325 65.799528 
L 77.955235 56.450027 
L 78.947242 50.211139 
L 79.93925 46.747672 
L 80.435242 45.75042 
L 81.923242 43.935493 
L 82.419235 42.803866 
L 82.91525 41.157508 
L 83.411242 38.849354 
L 84.899242 30.581356 
L 85.395235 29.376 
L 85.89125 29.554574 
L 86.387242 31.086981 
L 87.37925 35.704677 
L 88.371235 41.025183 
L 88.86725 44.64548 
L 89.363242 49.603167 
L 90.35525 64.279731 
L 92.339242 96.389629 
L 93.33125 108.596794 
L 95.315242 129.349215 
L 96.30725 137.247878 
L 96.803242 139.848491 
L 97.299235 141.112608 
L 97.79525 141.09779 
L 98.291242 139.93951 
L 99.28325 136.122622 
L 99.779242 134.854627 
L 100.275235 134.783316 
L 100.77125 136.325319 
L 102.755242 146.791617 
L 103.251235 146.940966 
L 103.74725 145.743719 
L 104.739235 140.813902 
L 106.227235 132.210275 
L 106.72325 128.685794 
L 108.21125 114.95299 
L 108.707242 112.282824 
L 109.203235 112.721474 
L 109.69925 117.818623 
L 110.195242 127.356533 
L 111.18725 156.453108 
L 112.67525 202.348093 
L 113.667235 223.563786 
L 114.16325 230.973931 
L 114.659242 236.504757 
L 115.155235 240.584254 
L 115.65125 243.452684 
L 116.147242 245.59209 
L 117.13925 248.095217 
L 118.131235 249.375286 
L 119.123242 250.04266 
L 120.11525 250.408563 
L 121.60325 250.700448 
L 122.595235 250.763048 
L 124.083235 250.833667 
L 127.059235 250.958644 
L 128.051242 250.966473 
L 133.011235 251.058055 
L 134.003242 251.047457 
L 137.475235 251.090043 
L 138.963235 251.080754 
L 139.955242 251.104441 
L 141.939235 251.082596 
L 142.931242 251.105669 
L 149.379235 251.131371 
L 150.867235 251.123708 
L 159.795235 251.15707 
L 163.763242 251.158812 
L 186.083242 251.194047 
L 190.547242 251.104164 
L 191.53925 251.177361 
L 193.02725 251.177262 
L 197.49125 251.15608 
L 198.97925 251.188604 
L 214.851235 251.205368 
L 216.339235 251.183517 
L 223.779235 251.181042 
L 250.067242 251.157367 
L 252.051235 251.147112 
L 260.979235 251.167443 
L 268.419235 251.136341 
L 269.907235 251.17261 
L 271.89125 251.146953 
L 274.86725 251.146082 
L 279.33125 251.147785 
L 283.79525 251.133312 
L 286.275235 251.14828 
L 296.691235 251.147725 
L 302.643235 251.11955 
L 314.547235 251.098025 
L 321.987235 251.086973 
L 325.955265 251.065523 
L 333.891235 251.082834 
L 341.82725 251.026417 
L 343.31525 251.107213 
L 349.763265 251.081052 
L 352.739265 251.097054 
L 398.37125 251.112976 
L 398.37125 251.112976 
" clip-path="url(#p06d15b264d)" style="fill: none; stroke: #ca1a50; stroke-linecap: round"/>
   </g>
   <g id="line2d_25">
    <path d="M 56.131239 205.294197 
L 56.627242 205.163809 
L 57.123235 206.297005 
L 57.619239 206.579991 
L 58.611235 205.51492 
L 59.107239 204.381823 
L 59.603242 205.521889 
L 60.099235 204.095757 
L 60.595239 205.528088 
L 61.091242 204.426334 
L 62.083239 204.429391 
L 62.579242 203.884 
L 63.075235 203.723038 
L 64.067242 203.87591 
L 64.563235 202.901207 
L 65.059239 203.519502 
L 65.555242 203.563637 
L 66.051235 204.715771 
L 67.043242 205.468102 
L 67.539235 205.342608 
L 68.035239 205.651028 
L 68.531242 206.389557 
L 69.027235 206.715448 
L 69.52325 207.483826 
L 71.01125 210.779792 
L 72.003235 212.507718 
L 72.995242 214.842252 
L 73.491235 215.172069 
L 73.98725 215.275651 
L 74.483242 215.581425 
L 74.979235 216.519339 
L 75.47525 218.049499 
L 75.971242 220.383785 
L 76.467235 221.574075 
L 77.459242 224.598918 
L 77.955235 225.843796 
L 78.45125 226.27986 
L 78.947242 226.2975 
L 79.93925 225.818746 
L 80.435242 226.656052 
L 80.931235 228.328883 
L 81.42725 229.507114 
L 82.419235 232.644493 
L 82.91525 233.128461 
L 83.411242 233.783366 
L 85.395235 234.890445 
L 85.89125 234.602172 
L 88.86725 234.137169 
L 89.363242 233.79513 
L 90.35525 233.798889 
L 91.84325 233.605337 
L 92.339242 233.235249 
L 92.835235 233.211939 
L 94.323235 232.653184 
L 94.81925 232.403915 
L 96.30725 232.226268 
L 96.803242 232.443587 
L 97.299235 232.133315 
L 97.79525 232.037239 
L 99.779242 232.380839 
L 100.275235 232.669321 
L 100.77125 232.598576 
L 101.267242 232.868192 
L 101.763235 232.746435 
L 102.25925 232.745708 
L 103.251235 232.971331 
L 103.74725 232.74999 
L 104.739235 232.831165 
L 105.23525 232.835385 
L 106.227235 233.033976 
L 106.72325 233.084409 
L 108.21125 233.591629 
L 109.203235 234.334869 
L 109.69925 234.832937 
L 110.195242 235.002568 
L 110.691235 235.464791 
L 111.18725 235.742593 
L 112.67525 237.081492 
L 113.171242 237.255648 
L 115.155235 238.451953 
L 117.635242 238.632947 
L 118.131235 238.365516 
L 118.62725 238.291981 
L 119.123242 238.053066 
L 119.619235 238.077892 
L 120.11525 237.682763 
L 121.107235 237.174298 
L 124.57925 235.111943 
L 126.563242 233.466777 
L 127.059235 233.031547 
L 129.04325 230.678257 
L 131.523235 226.572347 
L 134.003242 221.73998 
L 139.955242 211.265474 
L 141.443242 207.772459 
L 142.43525 204.970992 
L 143.92325 199.425187 
L 144.419242 197.611059 
L 146.89925 186.728781 
L 148.883242 178.846118 
L 150.371242 174.263926 
L 151.36325 171.801413 
L 153.843235 166.571139 
L 154.835242 163.947897 
L 156.323242 158.533827 
L 157.31525 153.499119 
L 158.307235 147.447708 
L 159.795235 136.193114 
L 162.771235 112.353791 
L 163.763242 106.299584 
L 164.259235 103.918216 
L 164.75525 102.109184 
L 165.251242 100.741433 
L 165.747235 99.828339 
L 166.24325 99.194513 
L 166.739242 99.168936 
L 167.235235 99.410269 
L 167.73125 99.842984 
L 168.227242 100.671114 
L 169.21925 102.553042 
L 169.715242 103.432986 
L 170.70725 104.651335 
L 171.203242 104.813585 
L 171.699235 104.690487 
L 172.19525 104.024964 
L 172.691242 102.964992 
L 173.187235 101.239273 
L 173.68325 99.014538 
L 174.179242 96.17809 
L 175.17125 88.79375 
L 176.163235 79.311659 
L 178.14725 56.808127 
L 179.139235 45.686088 
L 180.131242 36.768654 
L 180.627235 33.41438 
L 181.12325 31.034823 
L 181.619242 29.65162 
L 182.115235 29.376 
L 182.61125 29.961792 
L 183.107242 31.775001 
L 183.603235 34.580083 
L 184.595242 42.649362 
L 185.58725 53.253879 
L 189.555235 99.008153 
L 190.547242 106.25385 
L 191.043235 109.086478 
L 191.53925 111.025297 
L 192.035242 112.073478 
L 192.531235 112.394264 
L 193.02725 111.898883 
L 193.523242 110.658248 
L 194.019235 108.713746 
L 195.011242 103.071172 
L 196.00325 95.282998 
L 198.97925 69.435846 
L 199.475242 66.33837 
L 199.971235 64.030375 
L 200.46725 62.704498 
L 200.963242 62.429288 
L 201.459235 63.348568 
L 201.95525 65.564567 
L 202.451242 68.946479 
L 202.947235 73.670592 
L 203.939242 86.573389 
L 205.427242 112.431222 
L 208.899235 177.972321 
L 209.891242 193.000026 
L 210.88325 205.574678 
L 211.875235 215.664949 
L 212.867242 223.476657 
L 213.85925 229.554853 
L 214.851235 234.108387 
L 215.843242 237.500425 
L 216.83525 240.073723 
L 218.32325 242.811891 
L 219.315235 244.12793 
L 220.803235 245.6009 
L 221.795242 246.379027 
L 225.76325 248.462813 
L 226.755235 248.803211 
L 228.73925 249.290335 
L 229.235242 249.610315 
L 229.731235 249.534421 
L 233.20325 250.112947 
L 237.66725 250.521716 
L 239.15525 250.570386 
L 241.139242 250.663316 
L 242.13125 250.669644 
L 244.115242 250.709716 
L 245.10725 250.811289 
L 246.099235 250.778137 
L 253.539235 250.913134 
L 254.03525 251.030238 
L 255.52325 250.906048 
L 257.507242 251.04944 
L 259.98725 250.992358 
L 260.979235 251.058163 
L 263.459265 251.112428 
L 265.93925 251.007873 
L 266.435265 251.100077 
L 266.931235 251.040483 
L 267.923265 251.059744 
L 270.899265 251.064427 
L 271.395235 251.159254 
L 271.89125 251.043703 
L 272.387265 251.117521 
L 273.37925 251.031409 
L 274.371235 251.088019 
L 274.86725 251.012323 
L 275.859235 251.053538 
L 282.30725 251.06911 
L 283.79525 251.065481 
L 284.291265 251.105697 
L 285.28325 251.02532 
L 289.251235 251.076603 
L 289.74725 251.023798 
L 290.739235 251.123257 
L 294.21125 251.070164 
L 295.69925 251.05307 
L 299.171265 251.002428 
L 300.16325 251.111492 
L 300.659265 251.034629 
L 302.147265 251.113014 
L 303.13925 251.017885 
L 306.611265 251.071218 
L 307.60325 250.968001 
L 309.09125 250.99751 
L 312.06725 250.939719 
L 313.55525 250.958866 
L 314.547235 250.93685 
L 316.035235 250.909093 
L 317.027265 250.853576 
L 317.523235 250.96074 
L 318.01925 250.890822 
L 319.50725 250.946804 
L 320.99525 250.880633 
L 323.97125 250.914129 
L 326.451235 250.861189 
L 327.443265 250.917174 
L 328.43525 250.919107 
L 328.931265 250.957578 
L 329.427235 250.864703 
L 330.419265 250.946921 
L 331.907265 250.916823 
L 334.38725 250.944052 
L 335.87525 250.784697 
L 336.867235 250.710829 
L 339.843235 250.809415 
L 341.331235 250.746037 
L 344.307235 251.020051 
L 345.299265 250.979594 
L 347.77925 251.00155 
L 350.75525 250.906341 
L 351.747235 250.985683 
L 354.723235 250.989138 
L 355.715265 250.97936 
L 357.203265 250.970226 
L 393.90725 251.118106 
L 395.39525 251.134086 
L 396.387235 251.165634 
L 396.88325 251.06513 
L 398.37125 251.122906 
L 398.37125 251.122906 
" clip-path="url(#p06d15b264d)" style="fill: none; stroke: #841e5a; stroke-linecap: round"/>
   </g>
   <g id="line2d_26">
    <path d="M 56.131239 208.305958 
L 56.627242 206.782499 
L 57.123235 207.345722 
L 57.619239 205.810377 
L 58.115242 202.077539 
L 58.611235 201.952609 
L 59.107239 204.051517 
L 59.603242 206.75418 
L 60.099235 205.029819 
L 60.595239 206.246238 
L 61.091242 204.861733 
L 61.587235 206.414304 
L 62.083239 206.551926 
L 63.571239 207.722786 
L 64.067242 208.518095 
L 64.563235 208.170295 
L 65.059239 209.247497 
L 65.555242 209.232699 
L 66.051235 209.708327 
L 66.547239 209.433321 
L 67.043242 210.177266 
L 68.035239 210.732075 
L 69.52325 213.084793 
L 70.019242 213.491925 
L 70.515235 214.567167 
L 71.507242 215.674856 
L 72.003235 215.916866 
L 72.49925 216.431922 
L 73.98725 215.87933 
L 74.483242 216.072801 
L 74.979235 216.687405 
L 75.47525 216.403728 
L 75.971242 216.73528 
L 76.467235 216.318985 
L 76.96325 215.646341 
L 77.459242 216.185236 
L 77.955235 215.567949 
L 78.947242 215.181738 
L 79.443235 215.468567 
L 79.93925 215.01 
L 80.435242 215.029252 
L 80.931235 215.383328 
L 81.42725 214.970707 
L 82.419235 214.839724 
L 82.91525 214.213862 
L 83.411242 214.18424 
L 83.907235 213.724392 
L 84.40325 213.608021 
L 85.395235 214.192125 
L 86.387242 214.158036 
L 86.883235 213.817658 
L 87.37925 214.185575 
L 87.875242 213.65283 
L 88.371235 213.834104 
L 88.86725 214.195713 
L 89.363242 213.669779 
L 89.859235 214.095072 
L 90.35525 213.986662 
L 91.84325 214.668942 
L 92.835235 214.64547 
L 93.827242 215.180442 
L 94.323235 215.042209 
L 94.81925 215.215351 
L 95.315242 215.632519 
L 95.811235 215.594054 
L 96.30725 215.684012 
L 96.803242 216.100172 
L 97.299235 215.793975 
L 98.291242 216.167478 
L 98.787235 216.032572 
L 99.28325 216.188564 
L 99.779242 216.059239 
L 100.275235 216.160155 
L 100.77125 216.000995 
L 101.267242 216.32065 
L 102.25925 216.182199 
L 102.755242 216.489546 
L 104.243242 216.186485 
L 105.23525 216.56928 
L 105.731242 216.607146 
L 106.227235 216.388802 
L 106.72325 216.349842 
L 107.219242 216.167891 
L 107.715235 216.237972 
L 108.21125 215.982523 
L 108.707242 215.891729 
L 109.203235 215.995337 
L 109.69925 215.92402 
L 110.195242 215.635433 
L 111.18725 215.258421 
L 111.683242 215.485264 
L 112.67525 215.164948 
L 113.667235 214.829843 
L 114.659242 214.654977 
L 115.155235 214.737182 
L 115.65125 214.473677 
L 116.147242 214.475848 
L 116.643235 214.033444 
L 117.13925 214.242561 
L 118.131235 213.741883 
L 119.123242 213.762304 
L 119.619235 213.755996 
L 121.60325 213.011239 
L 122.099242 213.025283 
L 122.595235 212.774922 
L 125.571235 211.996052 
L 126.563242 211.541484 
L 127.55525 211.15065 
L 128.051242 211.167331 
L 129.539242 210.55631 
L 130.035235 210.458672 
L 130.53125 210.113754 
L 131.027242 210.034234 
L 134.499235 208.66189 
L 134.99525 208.561655 
L 135.491242 208.315931 
L 135.987235 208.203221 
L 136.979242 207.710563 
L 137.475235 207.63147 
L 138.467242 207.04356 
L 138.963235 206.813128 
L 139.45925 206.70565 
L 139.955242 206.362747 
L 140.451235 206.25101 
L 141.443242 205.604451 
L 142.43525 205.332149 
L 143.427235 204.651274 
L 143.92325 204.603478 
L 144.419242 204.405381 
L 144.915235 204.038342 
L 145.907242 203.506981 
L 146.403235 203.609437 
L 146.89925 203.330658 
L 147.891235 203.011441 
L 150.867235 201.826296 
L 151.36325 201.484345 
L 152.355235 201.071552 
L 153.347242 200.270457 
L 153.843235 200.002014 
L 155.331235 198.623265 
L 156.819235 197.228103 
L 159.299242 194.420397 
L 160.29125 193.082135 
L 163.26725 188.913955 
L 165.747235 185.07303 
L 166.739242 183.37912 
L 168.227242 180.885618 
L 169.21925 179.326174 
L 170.211235 177.5212 
L 175.667242 168.416705 
L 176.65925 166.824091 
L 181.619242 158.513062 
L 187.571242 146.7821 
L 189.555235 142.420607 
L 197.987242 123.543215 
L 198.97925 121.07556 
L 200.46725 117.548304 
L 203.939242 108.874886 
L 211.875235 87.96073 
L 213.85925 82.67274 
L 215.34725 78.789022 
L 223.779235 58.321725 
L 227.747242 49.800723 
L 232.707235 40.807444 
L 234.195235 38.664038 
L 236.17925 35.916428 
L 239.15525 32.724854 
L 242.13125 30.490284 
L 244.115242 29.619197 
L 245.10725 29.494684 
L 246.59525 29.501478 
L 247.091242 29.562743 
L 249.57125 30.593345 
L 250.067242 30.927864 
L 250.563235 31.568497 
L 251.05925 31.928818 
L 253.043242 34.331956 
L 254.531242 36.748853 
L 256.019242 39.560914 
L 257.507242 42.848226 
L 260.483265 50.464448 
L 261.47525 53.488246 
L 262.96325 57.982553 
L 269.907235 81.546559 
L 274.371235 98.770561 
L 276.35525 107.286197 
L 280.81925 129.037378 
L 282.803265 139.989527 
L 285.28325 154.433078 
L 292.72325 197.372354 
L 294.707265 207.189578 
L 297.18725 217.7649 
L 299.667235 226.175791 
L 301.155235 230.176031 
L 301.65125 230.899525 
L 302.643235 233.074644 
L 304.131235 235.824105 
L 306.611265 239.404066 
L 307.60325 240.284637 
L 308.595235 241.243912 
L 310.083235 242.307198 
L 311.571235 243.192276 
L 312.06725 243.365917 
L 312.563265 243.673503 
L 313.059235 243.821343 
L 313.55525 244.097873 
L 314.547235 244.449285 
L 315.04325 244.69991 
L 315.539265 244.792068 
L 316.035235 245.015583 
L 317.027265 245.218693 
L 317.523235 245.466835 
L 321.987235 246.45846 
L 335.379235 249.311698 
L 336.371265 249.299601 
L 338.355235 249.721666 
L 338.85125 249.744974 
L 339.347265 249.912454 
L 339.843235 249.892983 
L 341.82725 250.185779 
L 342.323265 250.229559 
L 343.811265 250.668695 
L 345.795235 250.994778 
L 346.29125 250.897341 
L 346.787265 251.026478 
L 347.77925 250.957949 
L 348.275265 251.126694 
L 350.259235 251.213454 
L 350.75525 251.200211 
L 351.747235 251.364519 
L 352.24325 251.319672 
L 352.739265 251.418661 
L 353.73125 251.430798 
L 357.699235 251.586381 
L 359.187235 251.669732 
L 359.68325 251.608086 
L 360.675235 251.624 
L 361.667265 251.697855 
L 362.163235 251.60005 
L 363.155265 251.689386 
L 363.651235 251.582284 
L 365.139235 251.588902 
L 366.131265 251.558765 
L 367.12325 251.523073 
L 368.115235 251.336854 
L 370.595265 251.012442 
L 371.091235 250.81251 
L 372.083265 250.712167 
L 372.579235 250.509933 
L 375.059265 250.112701 
L 375.555235 249.962255 
L 378.035265 249.903409 
L 380.019235 250.219493 
L 380.51525 250.142233 
L 383.49125 250.829154 
L 383.987265 250.839842 
L 384.483235 251.060502 
L 385.475265 251.204941 
L 391.427265 252.041728 
L 392.41925 251.917596 
L 393.411235 252.028462 
L 394.403265 252.066685 
L 395.39525 252.192954 
L 397.379265 252.122856 
L 397.875235 252.164263 
L 398.37125 252.076605 
L 398.37125 252.076605 
" clip-path="url(#p06d15b264d)" style="fill: none; stroke: #3f1b43; stroke-linecap: round"/>
   </g>
   <g id="line2d_27"/>
   <g id="line2d_28"/>
   <g id="line2d_29"/>
   <g id="line2d_30"/>
   <g id="line2d_31"/>
   <g id="patch_3">
    <path d="M 41.25125 273.312 
L 41.25125 7.2 
" style="fill: none; stroke: #262626; stroke-width: 1.25; stroke-linejoin: miter; stroke-linecap: square"/>
   </g>
   <g id="patch_4">
    <path d="M 41.25125 273.312 
L 398.37125 273.312 
" style="fill: none; stroke: #262626; stroke-width: 1.25; stroke-linejoin: miter; stroke-linecap: square"/>
   </g>
   <g id="legend_1">
    <g id="line2d_32">
     <path d="M 296.63525 94.701412 
L 302.63525 94.701412 
L 308.63525 94.701412 
" style="fill: none; stroke: #f6ab83; stroke-width: 1.5; stroke-linecap: round"/>
    </g>
    <g id="text_14">
     <!-- 2023_06_22_C10-dialdehyde-chcl3_Abs -->
     <g style="fill: #262626" transform="translate(313.43525 96.801412) scale(0.06 -0.06)">
      <defs>
       <path id="ArialMT-5f" d="M -97 -1272 
L -97 -866 
L 3631 -866 
L 3631 -1272 
L -97 -1272 
z
" transform="scale(0.015625)"/>
       <path id="ArialMT-43" d="M 3763 1606 
L 4369 1453 
Q 4178 706 3683 314 
Q 3188 -78 2472 -78 
Q 1731 -78 1267 223 
Q 803 525 561 1097 
Q 319 1669 319 2325 
Q 319 3041 592 3573 
Q 866 4106 1370 4382 
Q 1875 4659 2481 4659 
Q 3169 4659 3637 4309 
Q 4106 3959 4291 3325 
L 3694 3184 
Q 3534 3684 3231 3912 
Q 2928 4141 2469 4141 
Q 1941 4141 1586 3887 
Q 1231 3634 1087 3207 
Q 944 2781 944 2328 
Q 944 1744 1114 1308 
Q 1284 872 1643 656 
Q 2003 441 2422 441 
Q 2931 441 3284 734 
Q 3638 1028 3763 1606 
z
" transform="scale(0.015625)"/>
       <path id="ArialMT-2d" d="M 203 1375 
L 203 1941 
L 1931 1941 
L 1931 1375 
L 203 1375 
z
" transform="scale(0.015625)"/>
       <path id="ArialMT-64" d="M 2575 0 
L 2575 419 
Q 2259 -75 1647 -75 
Q 1250 -75 917 144 
Q 584 363 401 755 
Q 219 1147 219 1656 
Q 219 2153 384 2558 
Q 550 2963 881 3178 
Q 1213 3394 1622 3394 
Q 1922 3394 2156 3267 
Q 2391 3141 2538 2938 
L 2538 4581 
L 3097 4581 
L 3097 0 
L 2575 0 
z
M 797 1656 
Q 797 1019 1065 703 
Q 1334 388 1700 388 
Q 2069 388 2326 689 
Q 2584 991 2584 1609 
Q 2584 2291 2321 2609 
Q 2059 2928 1675 2928 
Q 1300 2928 1048 2622 
Q 797 2316 797 1656 
z
" transform="scale(0.015625)"/>
       <path id="ArialMT-69" d="M 425 3934 
L 425 4581 
L 988 4581 
L 988 3934 
L 425 3934 
z
M 425 0 
L 425 3319 
L 988 3319 
L 988 0 
L 425 0 
z
" transform="scale(0.015625)"/>
       <path id="ArialMT-79" d="M 397 -1278 
L 334 -750 
Q 519 -800 656 -800 
Q 844 -800 956 -737 
Q 1069 -675 1141 -563 
Q 1194 -478 1313 -144 
Q 1328 -97 1363 -6 
L 103 3319 
L 709 3319 
L 1400 1397 
Q 1534 1031 1641 628 
Q 1738 1016 1872 1384 
L 2581 3319 
L 3144 3319 
L 1881 -56 
Q 1678 -603 1566 -809 
Q 1416 -1088 1222 -1217 
Q 1028 -1347 759 -1347 
Q 597 -1347 397 -1278 
z
" transform="scale(0.015625)"/>
      </defs>
      <use xlink:href="#ArialMT-32"/>
      <use xlink:href="#ArialMT-30" x="55.615234"/>
      <use xlink:href="#ArialMT-32" x="111.230469"/>
      <use xlink:href="#ArialMT-33" x="166.845703"/>
      <use xlink:href="#ArialMT-5f" x="222.460938"/>
      <use xlink:href="#ArialMT-30" x="278.076172"/>
      <use xlink:href="#ArialMT-36" x="333.691406"/>
      <use xlink:href="#ArialMT-5f" x="389.306641"/>
      <use xlink:href="#ArialMT-32" x="444.921875"/>
      <use xlink:href="#ArialMT-32" x="500.537109"/>
      <use xlink:href="#ArialMT-5f" x="556.152344"/>
      <use xlink:href="#ArialMT-43" x="611.767578"/>
      <use xlink:href="#ArialMT-31" x="683.984375"/>
      <use xlink:href="#ArialMT-30" x="739.599609"/>
      <use xlink:href="#ArialMT-2d" x="795.214844"/>
      <use xlink:href="#ArialMT-64" x="828.515625"/>
      <use xlink:href="#ArialMT-69" x="884.130859"/>
      <use xlink:href="#ArialMT-61" x="906.347656"/>
      <use xlink:href="#ArialMT-6c" x="961.962891"/>
      <use xlink:href="#ArialMT-64" x="984.179688"/>
      <use xlink:href="#ArialMT-65" x="1039.794922"/>
      <use xlink:href="#ArialMT-68" x="1095.410156"/>
      <use xlink:href="#ArialMT-79" x="1151.025391"/>
      <use xlink:href="#ArialMT-64" x="1201.025391"/>
      <use xlink:href="#ArialMT-65" x="1256.640625"/>
      <use xlink:href="#ArialMT-2d" x="1312.255859"/>
      <use xlink:href="#ArialMT-63" x="1345.556641"/>
      <use xlink:href="#ArialMT-68" x="1395.556641"/>
      <use xlink:href="#ArialMT-63" x="1451.171875"/>
      <use xlink:href="#ArialMT-6c" x="1501.171875"/>
      <use xlink:href="#ArialMT-33" x="1523.388672"/>
      <use xlink:href="#ArialMT-5f" x="1579.003906"/>
      <use xlink:href="#ArialMT-41" x="1634.619141"/>
      <use xlink:href="#ArialMT-62" x="1701.318359"/>
      <use xlink:href="#ArialMT-73" x="1756.933594"/>
     </g>
    </g>
    <g id="line2d_33">
     <path d="M 296.63525 103.276725 
L 302.63525 103.276725 
L 308.63525 103.276725 
" style="fill: none; stroke: #f06043; stroke-width: 1.5; stroke-linecap: round"/>
    </g>
    <g id="text_15">
     <!-- 2023_06_22_benzene-diphosphonate1_Abs -->
     <g style="fill: #262626" transform="translate(313.43525 105.376725) scale(0.06 -0.06)">
      <defs>
       <path id="ArialMT-7a" d="M 125 0 
L 125 456 
L 2238 2881 
Q 1878 2863 1603 2863 
L 250 2863 
L 250 3319 
L 2963 3319 
L 2963 2947 
L 1166 841 
L 819 456 
Q 1197 484 1528 484 
L 3063 484 
L 3063 0 
L 125 0 
z
" transform="scale(0.015625)"/>
       <path id="ArialMT-70" d="M 422 -1272 
L 422 3319 
L 934 3319 
L 934 2888 
Q 1116 3141 1344 3267 
Q 1572 3394 1897 3394 
Q 2322 3394 2647 3175 
Q 2972 2956 3137 2557 
Q 3303 2159 3303 1684 
Q 3303 1175 3120 767 
Q 2938 359 2589 142 
Q 2241 -75 1856 -75 
Q 1575 -75 1351 44 
Q 1128 163 984 344 
L 984 -1272 
L 422 -1272 
z
M 931 1641 
Q 931 1000 1190 694 
Q 1450 388 1819 388 
Q 2194 388 2461 705 
Q 2728 1022 2728 1688 
Q 2728 2322 2467 2637 
Q 2206 2953 1844 2953 
Q 1484 2953 1207 2617 
Q 931 2281 931 1641 
z
" transform="scale(0.015625)"/>
      </defs>
      <use xlink:href="#ArialMT-32"/>
      <use xlink:href="#ArialMT-30" x="55.615234"/>
      <use xlink:href="#ArialMT-32" x="111.230469"/>
      <use xlink:href="#ArialMT-33" x="166.845703"/>
      <use xlink:href="#ArialMT-5f" x="222.460938"/>
      <use xlink:href="#ArialMT-30" x="278.076172"/>
      <use xlink:href="#ArialMT-36" x="333.691406"/>
      <use xlink:href="#ArialMT-5f" x="389.306641"/>
      <use xlink:href="#ArialMT-32" x="444.921875"/>
      <use xlink:href="#ArialMT-32" x="500.537109"/>
      <use xlink:href="#ArialMT-5f" x="556.152344"/>
      <use xlink:href="#ArialMT-62" x="611.767578"/>
      <use xlink:href="#ArialMT-65" x="667.382812"/>
      <use xlink:href="#ArialMT-6e" x="722.998047"/>
      <use xlink:href="#ArialMT-7a" x="778.613281"/>
      <use xlink:href="#ArialMT-65" x="828.613281"/>
      <use xlink:href="#ArialMT-6e" x="884.228516"/>
      <use xlink:href="#ArialMT-65" x="939.84375"/>
      <use xlink:href="#ArialMT-2d" x="995.458984"/>
      <use xlink:href="#ArialMT-64" x="1028.759766"/>
      <use xlink:href="#ArialMT-69" x="1084.375"/>
      <use xlink:href="#ArialMT-70" x="1106.591797"/>
      <use xlink:href="#ArialMT-68" x="1162.207031"/>
      <use xlink:href="#ArialMT-6f" x="1217.822266"/>
      <use xlink:href="#ArialMT-73" x="1273.4375"/>
      <use xlink:href="#ArialMT-70" x="1323.4375"/>
      <use xlink:href="#ArialMT-68" x="1379.052734"/>
      <use xlink:href="#ArialMT-6f" x="1434.667969"/>
      <use xlink:href="#ArialMT-6e" x="1490.283203"/>
      <use xlink:href="#ArialMT-61" x="1545.898438"/>
      <use xlink:href="#ArialMT-74" x="1601.513672"/>
      <use xlink:href="#ArialMT-65" x="1629.296875"/>
      <use xlink:href="#ArialMT-31" x="1684.912109"/>
      <use xlink:href="#ArialMT-5f" x="1740.527344"/>
      <use xlink:href="#ArialMT-41" x="1796.142578"/>
      <use xlink:href="#ArialMT-62" x="1862.841797"/>
      <use xlink:href="#ArialMT-73" x="1918.457031"/>
     </g>
    </g>
    <g id="line2d_34">
     <path d="M 296.63525 111.837037 
L 302.63525 111.837037 
L 308.63525 111.837037 
" style="fill: none; stroke: #ca1a50; stroke-width: 1.5; stroke-linecap: round"/>
    </g>
    <g id="text_16">
     <!-- 2023_06_22_fluorene-diphosphonate_Abs -->
     <g style="fill: #262626" transform="translate(313.43525 113.937037) scale(0.06 -0.06)">
      <defs>
       <path id="ArialMT-66" d="M 556 0 
L 556 2881 
L 59 2881 
L 59 3319 
L 556 3319 
L 556 3672 
Q 556 4006 616 4169 
Q 697 4388 901 4523 
Q 1106 4659 1475 4659 
Q 1713 4659 2000 4603 
L 1916 4113 
Q 1741 4144 1584 4144 
Q 1328 4144 1222 4034 
Q 1116 3925 1116 3625 
L 1116 3319 
L 1763 3319 
L 1763 2881 
L 1116 2881 
L 1116 0 
L 556 0 
z
" transform="scale(0.015625)"/>
      </defs>
      <use xlink:href="#ArialMT-32"/>
      <use xlink:href="#ArialMT-30" x="55.615234"/>
      <use xlink:href="#ArialMT-32" x="111.230469"/>
      <use xlink:href="#ArialMT-33" x="166.845703"/>
      <use xlink:href="#ArialMT-5f" x="222.460938"/>
      <use xlink:href="#ArialMT-30" x="278.076172"/>
      <use xlink:href="#ArialMT-36" x="333.691406"/>
      <use xlink:href="#ArialMT-5f" x="389.306641"/>
      <use xlink:href="#ArialMT-32" x="444.921875"/>
      <use xlink:href="#ArialMT-32" x="500.537109"/>
      <use xlink:href="#ArialMT-5f" x="556.152344"/>
      <use xlink:href="#ArialMT-66" x="611.767578"/>
      <use xlink:href="#ArialMT-6c" x="639.550781"/>
      <use xlink:href="#ArialMT-75" x="661.767578"/>
      <use xlink:href="#ArialMT-6f" x="717.382812"/>
      <use xlink:href="#ArialMT-72" x="772.998047"/>
      <use xlink:href="#ArialMT-65" x="806.298828"/>
      <use xlink:href="#ArialMT-6e" x="861.914062"/>
      <use xlink:href="#ArialMT-65" x="917.529297"/>
      <use xlink:href="#ArialMT-2d" x="973.144531"/>
      <use xlink:href="#ArialMT-64" x="1006.445312"/>
      <use xlink:href="#ArialMT-69" x="1062.060547"/>
      <use xlink:href="#ArialMT-70" x="1084.277344"/>
      <use xlink:href="#ArialMT-68" x="1139.892578"/>
      <use xlink:href="#ArialMT-6f" x="1195.507812"/>
      <use xlink:href="#ArialMT-73" x="1251.123047"/>
      <use xlink:href="#ArialMT-70" x="1301.123047"/>
      <use xlink:href="#ArialMT-68" x="1356.738281"/>
      <use xlink:href="#ArialMT-6f" x="1412.353516"/>
      <use xlink:href="#ArialMT-6e" x="1467.96875"/>
      <use xlink:href="#ArialMT-61" x="1523.583984"/>
      <use xlink:href="#ArialMT-74" x="1579.199219"/>
      <use xlink:href="#ArialMT-65" x="1606.982422"/>
      <use xlink:href="#ArialMT-5f" x="1662.597656"/>
      <use xlink:href="#ArialMT-41" x="1718.212891"/>
      <use xlink:href="#ArialMT-62" x="1784.912109"/>
      <use xlink:href="#ArialMT-73" x="1840.527344"/>
     </g>
    </g>
    <g id="line2d_35">
     <path d="M 296.63525 120.342037 
L 302.63525 120.342037 
L 308.63525 120.342037 
" style="fill: none; stroke: #841e5a; stroke-width: 1.5; stroke-linecap: round"/>
    </g>
    <g id="text_17">
     <!-- 2023_06_22_model-compound_Abs -->
     <g style="fill: #262626" transform="translate(313.43525 122.442037) scale(0.06 -0.06)">
      <use xlink:href="#ArialMT-32"/>
      <use xlink:href="#ArialMT-30" x="55.615234"/>
      <use xlink:href="#ArialMT-32" x="111.230469"/>
      <use xlink:href="#ArialMT-33" x="166.845703"/>
      <use xlink:href="#ArialMT-5f" x="222.460938"/>
      <use xlink:href="#ArialMT-30" x="278.076172"/>
      <use xlink:href="#ArialMT-36" x="333.691406"/>
      <use xlink:href="#ArialMT-5f" x="389.306641"/>
      <use xlink:href="#ArialMT-32" x="444.921875"/>
      <use xlink:href="#ArialMT-32" x="500.537109"/>
      <use xlink:href="#ArialMT-5f" x="556.152344"/>
      <use xlink:href="#ArialMT-6d" x="611.767578"/>
      <use xlink:href="#ArialMT-6f" x="695.068359"/>
      <use xlink:href="#ArialMT-64" x="750.683594"/>
      <use xlink:href="#ArialMT-65" x="806.298828"/>
      <use xlink:href="#ArialMT-6c" x="861.914062"/>
      <use xlink:href="#ArialMT-2d" x="884.130859"/>
      <use xlink:href="#ArialMT-63" x="917.431641"/>
      <use xlink:href="#ArialMT-6f" x="967.431641"/>
      <use xlink:href="#ArialMT-6d" x="1023.046875"/>
      <use xlink:href="#ArialMT-70" x="1106.347656"/>
      <use xlink:href="#ArialMT-6f" x="1161.962891"/>
      <use xlink:href="#ArialMT-75" x="1217.578125"/>
      <use xlink:href="#ArialMT-6e" x="1273.193359"/>
      <use xlink:href="#ArialMT-64" x="1328.808594"/>
      <use xlink:href="#ArialMT-5f" x="1384.423828"/>
      <use xlink:href="#ArialMT-41" x="1440.039062"/>
      <use xlink:href="#ArialMT-62" x="1506.738281"/>
      <use xlink:href="#ArialMT-73" x="1562.353516"/>
     </g>
    </g>
    <g id="line2d_36">
     <path d="M 296.63525 128.847037 
L 302.63525 128.847037 
L 308.63525 128.847037 
" style="fill: none; stroke: #3f1b43; stroke-width: 1.5; stroke-linecap: round"/>
    </g>
    <g id="text_18">
     <!-- 2023_06_22_AU-038-A2-3_Abs -->
     <g style="fill: #262626" transform="translate(313.43525 130.947037) scale(0.06 -0.06)">
      <defs>
       <path id="ArialMT-55" d="M 3500 4581 
L 4106 4581 
L 4106 1934 
Q 4106 1244 3950 837 
Q 3794 431 3386 176 
Q 2978 -78 2316 -78 
Q 1672 -78 1262 144 
Q 853 366 678 786 
Q 503 1206 503 1934 
L 503 4581 
L 1109 4581 
L 1109 1938 
Q 1109 1341 1220 1058 
Q 1331 775 1601 622 
Q 1872 469 2263 469 
Q 2931 469 3215 772 
Q 3500 1075 3500 1938 
L 3500 4581 
z
" transform="scale(0.015625)"/>
      </defs>
      <use xlink:href="#ArialMT-32"/>
      <use xlink:href="#ArialMT-30" x="55.615234"/>
      <use xlink:href="#ArialMT-32" x="111.230469"/>
      <use xlink:href="#ArialMT-33" x="166.845703"/>
      <use xlink:href="#ArialMT-5f" x="222.460938"/>
      <use xlink:href="#ArialMT-30" x="278.076172"/>
      <use xlink:href="#ArialMT-36" x="333.691406"/>
      <use xlink:href="#ArialMT-5f" x="389.306641"/>
      <use xlink:href="#ArialMT-32" x="444.921875"/>
      <use xlink:href="#ArialMT-32" x="500.537109"/>
      <use xlink:href="#ArialMT-5f" x="556.152344"/>
      <use xlink:href="#ArialMT-41" x="611.767578"/>
      <use xlink:href="#ArialMT-55" x="678.466797"/>
      <use xlink:href="#ArialMT-2d" x="750.683594"/>
      <use xlink:href="#ArialMT-30" x="783.984375"/>
      <use xlink:href="#ArialMT-33" x="839.599609"/>
      <use xlink:href="#ArialMT-38" x="895.214844"/>
      <use xlink:href="#ArialMT-2d" x="950.830078"/>
      <use xlink:href="#ArialMT-41" x="984.130859"/>
      <use xlink:href="#ArialMT-32" x="1050.830078"/>
      <use xlink:href="#ArialMT-2d" x="1106.445312"/>
      <use xlink:href="#ArialMT-33" x="1139.746094"/>
      <use xlink:href="#ArialMT-5f" x="1195.361328"/>
      <use xlink:href="#ArialMT-41" x="1250.976562"/>
      <use xlink:href="#ArialMT-62" x="1317.675781"/>
      <use xlink:href="#ArialMT-73" x="1373.291016"/>
     </g>
    </g>
   </g>
  </g>
 </g>
 <defs>
  <clipPath id="p06d15b264d">
   <rect x="41.25125" y="7.2" width="357.12" height="266.112"/>
  </clipPath>
 </defs>
</svg>
