<?xml version="1.0" encoding="utf-8" standalone="no"?>
<!DOCTYPE svg PUBLIC "-//W3C//DTD SVG 1.1//EN"
  "http://www.w3.org/Graphics/SVG/1.1/DTD/svg11.dtd">
<svg xmlns:xlink="http://www.w3.org/1999/xlink" width="439.2175pt" height="312.983016pt" viewBox="0 0 439.2175 312.983016" xmlns="http://www.w3.org/2000/svg" version="1.1">
 <metadata>
  <rdf:RDF xmlns:dc="http://purl.org/dc/elements/1.1/" xmlns:cc="http://creativecommons.org/ns#" xmlns:rdf="http://www.w3.org/1999/02/22-rdf-syntax-ns#">
   <cc:Work>
    <dc:type rdf:resource="http://purl.org/dc/dcmitype/StillImage"/>
    <dc:date>2024-02-12T12:01:29.550742</dc:date>
    <dc:format>image/svg+xml</dc:format>
    <dc:creator>
     <cc:Agent>
      <dc:title>Matplotlib v3.7.1, https://matplotlib.org/</dc:title>
     </cc:Agent>
    </dc:creator>
   </cc:Work>
  </rdf:RDF>
 </metadata>
 <defs>
  <style type="text/css">*{stroke-linejoin: round; stroke-linecap: butt}</style>
 </defs>
 <g id="figure_1">
  <g id="patch_1">
   <path d="M 0 312.983016 
L 439.2175 312.983016 
L 439.2175 0 
L 0 0 
z
" style="fill: #ffffff"/>
  </g>
  <g id="axes_1">
   <g id="patch_2">
    <path d="M 62.663438 277.248797 
L 419.783438 277.248797 
L 419.783438 11.136797 
L 62.663438 11.136797 
z
" style="fill: #ffffff"/>
   </g>
   <g id="matplotlib.axis_1">
    <g id="xtick_1">
     <g id="line2d_1">
      <defs>
       <path id="med564ec4fa" d="M 0 0 
L 0 -6 
" style="stroke: #262626; stroke-width: 1.25"/>
      </defs>
      <g>
       <use xlink:href="#med564ec4fa" x="62.663438" y="277.248797" style="fill: #262626; stroke: #262626; stroke-width: 1.25"/>
      </g>
     </g>
     <g id="text_1">
      <!-- 4000 -->
      <g style="fill: #262626" transform="translate(50.429375 288.622391) scale(0.11 -0.11)">
       <defs>
        <path id="ArialMT-34" d="M 2069 0 
L 2069 1097 
L 81 1097 
L 81 1613 
L 2172 4581 
L 2631 4581 
L 2631 1613 
L 3250 1613 
L 3250 1097 
L 2631 1097 
L 2631 0 
L 2069 0 
z
M 2069 1613 
L 2069 3678 
L 634 1613 
L 2069 1613 
z
" transform="scale(0.015625)"/>
        <path id="ArialMT-30" d="M 266 2259 
Q 266 3072 433 3567 
Q 600 4063 929 4331 
Q 1259 4600 1759 4600 
Q 2128 4600 2406 4451 
Q 2684 4303 2865 4023 
Q 3047 3744 3150 3342 
Q 3253 2941 3253 2259 
Q 3253 1453 3087 958 
Q 2922 463 2592 192 
Q 2263 -78 1759 -78 
Q 1097 -78 719 397 
Q 266 969 266 2259 
z
M 844 2259 
Q 844 1131 1108 757 
Q 1372 384 1759 384 
Q 2147 384 2411 759 
Q 2675 1134 2675 2259 
Q 2675 3391 2411 3762 
Q 2147 4134 1753 4134 
Q 1366 4134 1134 3806 
Q 844 3388 844 2259 
z
" transform="scale(0.015625)"/>
       </defs>
       <use xlink:href="#ArialMT-34"/>
       <use xlink:href="#ArialMT-30" x="55.615234"/>
       <use xlink:href="#ArialMT-30" x="111.230469"/>
       <use xlink:href="#ArialMT-30" x="166.845703"/>
      </g>
     </g>
    </g>
    <g id="xtick_2">
     <g id="line2d_2">
      <g>
       <use xlink:href="#med564ec4fa" x="122.183438" y="277.248797" style="fill: #262626; stroke: #262626; stroke-width: 1.25"/>
      </g>
     </g>
     <g id="text_2">
      <!-- 4050 -->
      <g style="fill: #262626" transform="translate(109.949375 288.622391) scale(0.11 -0.11)">
       <defs>
        <path id="ArialMT-35" d="M 266 1200 
L 856 1250 
Q 922 819 1161 601 
Q 1400 384 1738 384 
Q 2144 384 2425 690 
Q 2706 997 2706 1503 
Q 2706 1984 2436 2262 
Q 2166 2541 1728 2541 
Q 1456 2541 1237 2417 
Q 1019 2294 894 2097 
L 366 2166 
L 809 4519 
L 3088 4519 
L 3088 3981 
L 1259 3981 
L 1013 2750 
Q 1425 3038 1878 3038 
Q 2478 3038 2890 2622 
Q 3303 2206 3303 1553 
Q 3303 931 2941 478 
Q 2500 -78 1738 -78 
Q 1113 -78 717 272 
Q 322 622 266 1200 
z
" transform="scale(0.015625)"/>
       </defs>
       <use xlink:href="#ArialMT-34"/>
       <use xlink:href="#ArialMT-30" x="55.615234"/>
       <use xlink:href="#ArialMT-35" x="111.230469"/>
       <use xlink:href="#ArialMT-30" x="166.845703"/>
      </g>
     </g>
    </g>
    <g id="xtick_3">
     <g id="line2d_3">
      <g>
       <use xlink:href="#med564ec4fa" x="181.703438" y="277.248797" style="fill: #262626; stroke: #262626; stroke-width: 1.25"/>
      </g>
     </g>
     <g id="text_3">
      <!-- 4100 -->
      <g style="fill: #262626" transform="translate(169.469375 288.622391) scale(0.11 -0.11)">
       <defs>
        <path id="ArialMT-31" d="M 2384 0 
L 1822 0 
L 1822 3584 
Q 1619 3391 1289 3197 
Q 959 3003 697 2906 
L 697 3450 
Q 1169 3672 1522 3987 
Q 1875 4303 2022 4600 
L 2384 4600 
L 2384 0 
z
" transform="scale(0.015625)"/>
       </defs>
       <use xlink:href="#ArialMT-34"/>
       <use xlink:href="#ArialMT-31" x="55.615234"/>
       <use xlink:href="#ArialMT-30" x="111.230469"/>
       <use xlink:href="#ArialMT-30" x="166.845703"/>
      </g>
     </g>
    </g>
    <g id="xtick_4">
     <g id="line2d_4">
      <g>
       <use xlink:href="#med564ec4fa" x="241.223438" y="277.248797" style="fill: #262626; stroke: #262626; stroke-width: 1.25"/>
      </g>
     </g>
     <g id="text_4">
      <!-- 4150 -->
      <g style="fill: #262626" transform="translate(228.989375 288.622391) scale(0.11 -0.11)">
       <use xlink:href="#ArialMT-34"/>
       <use xlink:href="#ArialMT-31" x="55.615234"/>
       <use xlink:href="#ArialMT-35" x="111.230469"/>
       <use xlink:href="#ArialMT-30" x="166.845703"/>
      </g>
     </g>
    </g>
    <g id="xtick_5">
     <g id="line2d_5">
      <g>
       <use xlink:href="#med564ec4fa" x="300.743438" y="277.248797" style="fill: #262626; stroke: #262626; stroke-width: 1.25"/>
      </g>
     </g>
     <g id="text_5">
      <!-- 4200 -->
      <g style="fill: #262626" transform="translate(288.509375 288.622391) scale(0.11 -0.11)">
       <defs>
        <path id="ArialMT-32" d="M 3222 541 
L 3222 0 
L 194 0 
Q 188 203 259 391 
Q 375 700 629 1000 
Q 884 1300 1366 1694 
Q 2113 2306 2375 2664 
Q 2638 3022 2638 3341 
Q 2638 3675 2398 3904 
Q 2159 4134 1775 4134 
Q 1369 4134 1125 3890 
Q 881 3647 878 3216 
L 300 3275 
Q 359 3922 746 4261 
Q 1134 4600 1788 4600 
Q 2447 4600 2831 4234 
Q 3216 3869 3216 3328 
Q 3216 3053 3103 2787 
Q 2991 2522 2730 2228 
Q 2469 1934 1863 1422 
Q 1356 997 1212 845 
Q 1069 694 975 541 
L 3222 541 
z
" transform="scale(0.015625)"/>
       </defs>
       <use xlink:href="#ArialMT-34"/>
       <use xlink:href="#ArialMT-32" x="55.615234"/>
       <use xlink:href="#ArialMT-30" x="111.230469"/>
       <use xlink:href="#ArialMT-30" x="166.845703"/>
      </g>
     </g>
    </g>
    <g id="xtick_6">
     <g id="line2d_6">
      <g>
       <use xlink:href="#med564ec4fa" x="360.263438" y="277.248797" style="fill: #262626; stroke: #262626; stroke-width: 1.25"/>
      </g>
     </g>
     <g id="text_6">
      <!-- 4250 -->
      <g style="fill: #262626" transform="translate(348.029375 288.622391) scale(0.11 -0.11)">
       <use xlink:href="#ArialMT-34"/>
       <use xlink:href="#ArialMT-32" x="55.615234"/>
       <use xlink:href="#ArialMT-35" x="111.230469"/>
       <use xlink:href="#ArialMT-30" x="166.845703"/>
      </g>
     </g>
    </g>
    <g id="xtick_7">
     <g id="line2d_7">
      <g>
       <use xlink:href="#med564ec4fa" x="419.783438" y="277.248797" style="fill: #262626; stroke: #262626; stroke-width: 1.25"/>
      </g>
     </g>
     <g id="text_7">
      <!-- 4300 -->
      <g style="fill: #262626" transform="translate(407.549375 288.622391) scale(0.11 -0.11)">
       <defs>
        <path id="ArialMT-33" d="M 269 1209 
L 831 1284 
Q 928 806 1161 595 
Q 1394 384 1728 384 
Q 2125 384 2398 659 
Q 2672 934 2672 1341 
Q 2672 1728 2419 1979 
Q 2166 2231 1775 2231 
Q 1616 2231 1378 2169 
L 1441 2663 
Q 1497 2656 1531 2656 
Q 1891 2656 2178 2843 
Q 2466 3031 2466 3422 
Q 2466 3731 2256 3934 
Q 2047 4138 1716 4138 
Q 1388 4138 1169 3931 
Q 950 3725 888 3313 
L 325 3413 
Q 428 3978 793 4289 
Q 1159 4600 1703 4600 
Q 2078 4600 2393 4439 
Q 2709 4278 2876 4000 
Q 3044 3722 3044 3409 
Q 3044 3113 2884 2869 
Q 2725 2625 2413 2481 
Q 2819 2388 3044 2092 
Q 3269 1797 3269 1353 
Q 3269 753 2831 336 
Q 2394 -81 1725 -81 
Q 1122 -81 723 278 
Q 325 638 269 1209 
z
" transform="scale(0.015625)"/>
       </defs>
       <use xlink:href="#ArialMT-34"/>
       <use xlink:href="#ArialMT-33" x="55.615234"/>
       <use xlink:href="#ArialMT-30" x="111.230469"/>
       <use xlink:href="#ArialMT-30" x="166.845703"/>
      </g>
     </g>
    </g>
    <g id="xtick_8">
     <g id="line2d_8">
      <defs>
       <path id="m7b986e734a" d="M 0 0 
L 0 -4 
" style="stroke: #262626"/>
      </defs>
      <g>
       <use xlink:href="#m7b986e734a" x="92.423438" y="277.248797" style="fill: #262626; stroke: #262626"/>
      </g>
     </g>
    </g>
    <g id="xtick_9">
     <g id="line2d_9">
      <g>
       <use xlink:href="#m7b986e734a" x="151.943438" y="277.248797" style="fill: #262626; stroke: #262626"/>
      </g>
     </g>
    </g>
    <g id="xtick_10">
     <g id="line2d_10">
      <g>
       <use xlink:href="#m7b986e734a" x="211.463438" y="277.248797" style="fill: #262626; stroke: #262626"/>
      </g>
     </g>
    </g>
    <g id="xtick_11">
     <g id="line2d_11">
      <g>
       <use xlink:href="#m7b986e734a" x="270.983438" y="277.248797" style="fill: #262626; stroke: #262626"/>
      </g>
     </g>
    </g>
    <g id="xtick_12">
     <g id="line2d_12">
      <g>
       <use xlink:href="#m7b986e734a" x="330.503438" y="277.248797" style="fill: #262626; stroke: #262626"/>
      </g>
     </g>
    </g>
    <g id="xtick_13">
     <g id="line2d_13">
      <g>
       <use xlink:href="#m7b986e734a" x="390.023438" y="277.248797" style="fill: #262626; stroke: #262626"/>
      </g>
     </g>
    </g>
    <g id="text_8">
     <!-- m/z -->
     <g style="fill: #262626" transform="translate(231.55875 303.398016) scale(0.12 -0.12)">
      <defs>
       <path id="ArialMT-6d" d="M 422 0 
L 422 3319 
L 925 3319 
L 925 2853 
Q 1081 3097 1340 3245 
Q 1600 3394 1931 3394 
Q 2300 3394 2536 3241 
Q 2772 3088 2869 2813 
Q 3263 3394 3894 3394 
Q 4388 3394 4653 3120 
Q 4919 2847 4919 2278 
L 4919 0 
L 4359 0 
L 4359 2091 
Q 4359 2428 4304 2576 
Q 4250 2725 4106 2815 
Q 3963 2906 3769 2906 
Q 3419 2906 3187 2673 
Q 2956 2441 2956 1928 
L 2956 0 
L 2394 0 
L 2394 2156 
Q 2394 2531 2256 2718 
Q 2119 2906 1806 2906 
Q 1569 2906 1367 2781 
Q 1166 2656 1075 2415 
Q 984 2175 984 1722 
L 984 0 
L 422 0 
z
" transform="scale(0.015625)"/>
       <path id="ArialMT-2f" d="M 0 -78 
L 1328 4659 
L 1778 4659 
L 453 -78 
L 0 -78 
z
" transform="scale(0.015625)"/>
       <path id="ArialMT-7a" d="M 125 0 
L 125 456 
L 2238 2881 
Q 1878 2863 1603 2863 
L 250 2863 
L 250 3319 
L 2963 3319 
L 2963 2947 
L 1166 841 
L 819 456 
Q 1197 484 1528 484 
L 3063 484 
L 3063 0 
L 125 0 
z
" transform="scale(0.015625)"/>
      </defs>
      <use xlink:href="#ArialMT-6d"/>
      <use xlink:href="#ArialMT-2f" x="83.300781"/>
      <use xlink:href="#ArialMT-7a" x="111.083984"/>
     </g>
    </g>
   </g>
   <g id="matplotlib.axis_2">
    <g id="ytick_1">
     <g id="line2d_14">
      <defs>
       <path id="m94a50a2d9d" d="M 0 0 
L 6 0 
" style="stroke: #262626; stroke-width: 1.25"/>
      </defs>
      <g>
       <use xlink:href="#m94a50a2d9d" x="62.663438" y="277.182286" style="fill: #262626; stroke: #262626; stroke-width: 1.25"/>
      </g>
     </g>
     <g id="text_9">
      <!-- 0 -->
      <g style="fill: #262626" transform="translate(53.046406 281.119082) scale(0.11 -0.11)">
       <use xlink:href="#ArialMT-30"/>
      </g>
     </g>
    </g>
    <g id="ytick_2">
     <g id="line2d_15">
      <g>
       <use xlink:href="#m94a50a2d9d" x="62.663438" y="223.973188" style="fill: #262626; stroke: #262626; stroke-width: 1.25"/>
      </g>
     </g>
     <g id="text_10">
      <!-- 20000 -->
      <g style="fill: #262626" transform="translate(28.578281 227.909985) scale(0.11 -0.11)">
       <use xlink:href="#ArialMT-32"/>
       <use xlink:href="#ArialMT-30" x="55.615234"/>
       <use xlink:href="#ArialMT-30" x="111.230469"/>
       <use xlink:href="#ArialMT-30" x="166.845703"/>
       <use xlink:href="#ArialMT-30" x="222.460938"/>
      </g>
     </g>
    </g>
    <g id="ytick_3">
     <g id="line2d_16">
      <g>
       <use xlink:href="#m94a50a2d9d" x="62.663438" y="170.76409" style="fill: #262626; stroke: #262626; stroke-width: 1.25"/>
      </g>
     </g>
     <g id="text_11">
      <!-- 40000 -->
      <g style="fill: #262626" transform="translate(28.578281 174.700887) scale(0.11 -0.11)">
       <use xlink:href="#ArialMT-34"/>
       <use xlink:href="#ArialMT-30" x="55.615234"/>
       <use xlink:href="#ArialMT-30" x="111.230469"/>
       <use xlink:href="#ArialMT-30" x="166.845703"/>
       <use xlink:href="#ArialMT-30" x="222.460938"/>
      </g>
     </g>
    </g>
    <g id="ytick_4">
     <g id="line2d_17">
      <g>
       <use xlink:href="#m94a50a2d9d" x="62.663438" y="117.554992" style="fill: #262626; stroke: #262626; stroke-width: 1.25"/>
      </g>
     </g>
     <g id="text_12">
      <!-- 60000 -->
      <g style="fill: #262626" transform="translate(28.578281 121.491789) scale(0.11 -0.11)">
       <defs>
        <path id="ArialMT-36" d="M 3184 3459 
L 2625 3416 
Q 2550 3747 2413 3897 
Q 2184 4138 1850 4138 
Q 1581 4138 1378 3988 
Q 1113 3794 959 3422 
Q 806 3050 800 2363 
Q 1003 2672 1297 2822 
Q 1591 2972 1913 2972 
Q 2475 2972 2870 2558 
Q 3266 2144 3266 1488 
Q 3266 1056 3080 686 
Q 2894 316 2569 119 
Q 2244 -78 1831 -78 
Q 1128 -78 684 439 
Q 241 956 241 2144 
Q 241 3472 731 4075 
Q 1159 4600 1884 4600 
Q 2425 4600 2770 4297 
Q 3116 3994 3184 3459 
z
M 888 1484 
Q 888 1194 1011 928 
Q 1134 663 1356 523 
Q 1578 384 1822 384 
Q 2178 384 2434 671 
Q 2691 959 2691 1453 
Q 2691 1928 2437 2201 
Q 2184 2475 1800 2475 
Q 1419 2475 1153 2201 
Q 888 1928 888 1484 
z
" transform="scale(0.015625)"/>
       </defs>
       <use xlink:href="#ArialMT-36"/>
       <use xlink:href="#ArialMT-30" x="55.615234"/>
       <use xlink:href="#ArialMT-30" x="111.230469"/>
       <use xlink:href="#ArialMT-30" x="166.845703"/>
       <use xlink:href="#ArialMT-30" x="222.460938"/>
      </g>
     </g>
    </g>
    <g id="ytick_5">
     <g id="line2d_18">
      <g>
       <use xlink:href="#m94a50a2d9d" x="62.663438" y="64.345895" style="fill: #262626; stroke: #262626; stroke-width: 1.25"/>
      </g>
     </g>
     <g id="text_13">
      <!-- 80000 -->
      <g style="fill: #262626" transform="translate(28.578281 68.282691) scale(0.11 -0.11)">
       <defs>
        <path id="ArialMT-38" d="M 1131 2484 
Q 781 2613 612 2850 
Q 444 3088 444 3419 
Q 444 3919 803 4259 
Q 1163 4600 1759 4600 
Q 2359 4600 2725 4251 
Q 3091 3903 3091 3403 
Q 3091 3084 2923 2848 
Q 2756 2613 2416 2484 
Q 2838 2347 3058 2040 
Q 3278 1734 3278 1309 
Q 3278 722 2862 322 
Q 2447 -78 1769 -78 
Q 1091 -78 675 323 
Q 259 725 259 1325 
Q 259 1772 486 2073 
Q 713 2375 1131 2484 
z
M 1019 3438 
Q 1019 3113 1228 2906 
Q 1438 2700 1772 2700 
Q 2097 2700 2305 2904 
Q 2513 3109 2513 3406 
Q 2513 3716 2298 3927 
Q 2084 4138 1766 4138 
Q 1444 4138 1231 3931 
Q 1019 3725 1019 3438 
z
M 838 1322 
Q 838 1081 952 856 
Q 1066 631 1291 507 
Q 1516 384 1775 384 
Q 2178 384 2440 643 
Q 2703 903 2703 1303 
Q 2703 1709 2433 1975 
Q 2163 2241 1756 2241 
Q 1359 2241 1098 1978 
Q 838 1716 838 1322 
z
" transform="scale(0.015625)"/>
       </defs>
       <use xlink:href="#ArialMT-38"/>
       <use xlink:href="#ArialMT-30" x="55.615234"/>
       <use xlink:href="#ArialMT-30" x="111.230469"/>
       <use xlink:href="#ArialMT-30" x="166.845703"/>
       <use xlink:href="#ArialMT-30" x="222.460938"/>
      </g>
     </g>
    </g>
    <g id="ytick_6">
     <g id="line2d_19">
      <g>
       <use xlink:href="#m94a50a2d9d" x="62.663438" y="11.136797" style="fill: #262626; stroke: #262626; stroke-width: 1.25"/>
      </g>
     </g>
     <g id="text_14">
      <!-- 100000 -->
      <g style="fill: #262626" transform="translate(22.46125 15.073594) scale(0.11 -0.11)">
       <use xlink:href="#ArialMT-31"/>
       <use xlink:href="#ArialMT-30" x="55.615234"/>
       <use xlink:href="#ArialMT-30" x="111.230469"/>
       <use xlink:href="#ArialMT-30" x="166.845703"/>
       <use xlink:href="#ArialMT-30" x="222.460938"/>
       <use xlink:href="#ArialMT-30" x="278.076172"/>
      </g>
     </g>
    </g>
    <g id="ytick_7">
     <g id="line2d_20">
      <defs>
       <path id="m26839befbf" d="M 0 0 
L 4 0 
" style="stroke: #262626"/>
      </defs>
      <g>
       <use xlink:href="#m26839befbf" x="62.663438" y="250.577737" style="fill: #262626; stroke: #262626"/>
      </g>
     </g>
    </g>
    <g id="ytick_8">
     <g id="line2d_21">
      <g>
       <use xlink:href="#m26839befbf" x="62.663438" y="197.368639" style="fill: #262626; stroke: #262626"/>
      </g>
     </g>
    </g>
    <g id="ytick_9">
     <g id="line2d_22">
      <g>
       <use xlink:href="#m26839befbf" x="62.663438" y="144.159541" style="fill: #262626; stroke: #262626"/>
      </g>
     </g>
    </g>
    <g id="ytick_10">
     <g id="line2d_23">
      <g>
       <use xlink:href="#m26839befbf" x="62.663438" y="90.950443" style="fill: #262626; stroke: #262626"/>
      </g>
     </g>
    </g>
    <g id="ytick_11">
     <g id="line2d_24">
      <g>
       <use xlink:href="#m26839befbf" x="62.663438" y="37.741346" style="fill: #262626; stroke: #262626"/>
      </g>
     </g>
    </g>
    <g id="text_15">
     <!-- Intensity (a.u.) -->
     <g style="fill: #262626" transform="translate(15.935625 182.205609) rotate(-90) scale(0.12 -0.12)">
      <defs>
       <path id="ArialMT-49" d="M 597 0 
L 597 4581 
L 1203 4581 
L 1203 0 
L 597 0 
z
" transform="scale(0.015625)"/>
       <path id="ArialMT-6e" d="M 422 0 
L 422 3319 
L 928 3319 
L 928 2847 
Q 1294 3394 1984 3394 
Q 2284 3394 2536 3286 
Q 2788 3178 2913 3003 
Q 3038 2828 3088 2588 
Q 3119 2431 3119 2041 
L 3119 0 
L 2556 0 
L 2556 2019 
Q 2556 2363 2490 2533 
Q 2425 2703 2258 2804 
Q 2091 2906 1866 2906 
Q 1506 2906 1245 2678 
Q 984 2450 984 1813 
L 984 0 
L 422 0 
z
" transform="scale(0.015625)"/>
       <path id="ArialMT-74" d="M 1650 503 
L 1731 6 
Q 1494 -44 1306 -44 
Q 1000 -44 831 53 
Q 663 150 594 308 
Q 525 466 525 972 
L 525 2881 
L 113 2881 
L 113 3319 
L 525 3319 
L 525 4141 
L 1084 4478 
L 1084 3319 
L 1650 3319 
L 1650 2881 
L 1084 2881 
L 1084 941 
Q 1084 700 1114 631 
Q 1144 563 1211 522 
Q 1278 481 1403 481 
Q 1497 481 1650 503 
z
" transform="scale(0.015625)"/>
       <path id="ArialMT-65" d="M 2694 1069 
L 3275 997 
Q 3138 488 2766 206 
Q 2394 -75 1816 -75 
Q 1088 -75 661 373 
Q 234 822 234 1631 
Q 234 2469 665 2931 
Q 1097 3394 1784 3394 
Q 2450 3394 2872 2941 
Q 3294 2488 3294 1666 
Q 3294 1616 3291 1516 
L 816 1516 
Q 847 969 1125 678 
Q 1403 388 1819 388 
Q 2128 388 2347 550 
Q 2566 713 2694 1069 
z
M 847 1978 
L 2700 1978 
Q 2663 2397 2488 2606 
Q 2219 2931 1791 2931 
Q 1403 2931 1139 2672 
Q 875 2413 847 1978 
z
" transform="scale(0.015625)"/>
       <path id="ArialMT-73" d="M 197 991 
L 753 1078 
Q 800 744 1014 566 
Q 1228 388 1613 388 
Q 2000 388 2187 545 
Q 2375 703 2375 916 
Q 2375 1106 2209 1216 
Q 2094 1291 1634 1406 
Q 1016 1563 777 1677 
Q 538 1791 414 1992 
Q 291 2194 291 2438 
Q 291 2659 392 2848 
Q 494 3038 669 3163 
Q 800 3259 1026 3326 
Q 1253 3394 1513 3394 
Q 1903 3394 2198 3281 
Q 2494 3169 2634 2976 
Q 2775 2784 2828 2463 
L 2278 2388 
Q 2241 2644 2061 2787 
Q 1881 2931 1553 2931 
Q 1166 2931 1000 2803 
Q 834 2675 834 2503 
Q 834 2394 903 2306 
Q 972 2216 1119 2156 
Q 1203 2125 1616 2013 
Q 2213 1853 2448 1751 
Q 2684 1650 2818 1456 
Q 2953 1263 2953 975 
Q 2953 694 2789 445 
Q 2625 197 2315 61 
Q 2006 -75 1616 -75 
Q 969 -75 630 194 
Q 291 463 197 991 
z
" transform="scale(0.015625)"/>
       <path id="ArialMT-69" d="M 425 3934 
L 425 4581 
L 988 4581 
L 988 3934 
L 425 3934 
z
M 425 0 
L 425 3319 
L 988 3319 
L 988 0 
L 425 0 
z
" transform="scale(0.015625)"/>
       <path id="ArialMT-79" d="M 397 -1278 
L 334 -750 
Q 519 -800 656 -800 
Q 844 -800 956 -737 
Q 1069 -675 1141 -563 
Q 1194 -478 1313 -144 
Q 1328 -97 1363 -6 
L 103 3319 
L 709 3319 
L 1400 1397 
Q 1534 1031 1641 628 
Q 1738 1016 1872 1384 
L 2581 3319 
L 3144 3319 
L 1881 -56 
Q 1678 -603 1566 -809 
Q 1416 -1088 1222 -1217 
Q 1028 -1347 759 -1347 
Q 597 -1347 397 -1278 
z
" transform="scale(0.015625)"/>
       <path id="ArialMT-20" transform="scale(0.015625)"/>
       <path id="ArialMT-28" d="M 1497 -1347 
Q 1031 -759 709 28 
Q 388 816 388 1659 
Q 388 2403 628 3084 
Q 909 3875 1497 4659 
L 1900 4659 
Q 1522 4009 1400 3731 
Q 1209 3300 1100 2831 
Q 966 2247 966 1656 
Q 966 153 1900 -1347 
L 1497 -1347 
z
" transform="scale(0.015625)"/>
       <path id="ArialMT-61" d="M 2588 409 
Q 2275 144 1986 34 
Q 1697 -75 1366 -75 
Q 819 -75 525 192 
Q 231 459 231 875 
Q 231 1119 342 1320 
Q 453 1522 633 1644 
Q 813 1766 1038 1828 
Q 1203 1872 1538 1913 
Q 2219 1994 2541 2106 
Q 2544 2222 2544 2253 
Q 2544 2597 2384 2738 
Q 2169 2928 1744 2928 
Q 1347 2928 1158 2789 
Q 969 2650 878 2297 
L 328 2372 
Q 403 2725 575 2942 
Q 747 3159 1072 3276 
Q 1397 3394 1825 3394 
Q 2250 3394 2515 3294 
Q 2781 3194 2906 3042 
Q 3031 2891 3081 2659 
Q 3109 2516 3109 2141 
L 3109 1391 
Q 3109 606 3145 398 
Q 3181 191 3288 0 
L 2700 0 
Q 2613 175 2588 409 
z
M 2541 1666 
Q 2234 1541 1622 1453 
Q 1275 1403 1131 1340 
Q 988 1278 909 1158 
Q 831 1038 831 891 
Q 831 666 1001 516 
Q 1172 366 1500 366 
Q 1825 366 2078 508 
Q 2331 650 2450 897 
Q 2541 1088 2541 1459 
L 2541 1666 
z
" transform="scale(0.015625)"/>
       <path id="ArialMT-2e" d="M 581 0 
L 581 641 
L 1222 641 
L 1222 0 
L 581 0 
z
" transform="scale(0.015625)"/>
       <path id="ArialMT-75" d="M 2597 0 
L 2597 488 
Q 2209 -75 1544 -75 
Q 1250 -75 995 37 
Q 741 150 617 320 
Q 494 491 444 738 
Q 409 903 409 1263 
L 409 3319 
L 972 3319 
L 972 1478 
Q 972 1038 1006 884 
Q 1059 663 1231 536 
Q 1403 409 1656 409 
Q 1909 409 2131 539 
Q 2353 669 2445 892 
Q 2538 1116 2538 1541 
L 2538 3319 
L 3100 3319 
L 3100 0 
L 2597 0 
z
" transform="scale(0.015625)"/>
       <path id="ArialMT-29" d="M 791 -1347 
L 388 -1347 
Q 1322 153 1322 1656 
Q 1322 2244 1188 2822 
Q 1081 3291 891 3722 
Q 769 4003 388 4659 
L 791 4659 
Q 1378 3875 1659 3084 
Q 1900 2403 1900 1659 
Q 1900 816 1576 28 
Q 1253 -759 791 -1347 
z
" transform="scale(0.015625)"/>
      </defs>
      <use xlink:href="#ArialMT-49"/>
      <use xlink:href="#ArialMT-6e" x="27.783203"/>
      <use xlink:href="#ArialMT-74" x="83.398438"/>
      <use xlink:href="#ArialMT-65" x="111.181641"/>
      <use xlink:href="#ArialMT-6e" x="166.796875"/>
      <use xlink:href="#ArialMT-73" x="222.412109"/>
      <use xlink:href="#ArialMT-69" x="272.412109"/>
      <use xlink:href="#ArialMT-74" x="294.628906"/>
      <use xlink:href="#ArialMT-79" x="322.412109"/>
      <use xlink:href="#ArialMT-20" x="372.412109"/>
      <use xlink:href="#ArialMT-28" x="400.195312"/>
      <use xlink:href="#ArialMT-61" x="433.496094"/>
      <use xlink:href="#ArialMT-2e" x="489.111328"/>
      <use xlink:href="#ArialMT-75" x="516.894531"/>
      <use xlink:href="#ArialMT-2e" x="572.509766"/>
      <use xlink:href="#ArialMT-29" x="600.292969"/>
     </g>
    </g>
   </g>
   <g id="PolyCollection_1"/>
   <g id="line2d_25">
    <path d="M 62.646058 112.768834 
L 63.905858 136.750174 
L 65.075902 154.468804 
L 65.975964 165.613449 
L 66.876144 174.092319 
L 67.731446 180.190082 
L 68.586749 184.774045 
L 69.30706 187.644676 
L 70.838033 192.933661 
L 72.189018 196.456103 
L 74.125799 200.646319 
L 76.198047 204.21931 
L 77.549866 206.102912 
L 81.245582 209.670582 
L 83.048918 210.617704 
L 83.725304 210.70816 
L 84.176227 210.53257 
L 84.942845 209.957911 
L 86.295854 208.287146 
L 86.972477 207.092602 
L 88.325724 204.21931 
L 90.536534 198.597769 
L 91.529328 195.136517 
L 92.928405 188.464096 
L 93.515153 184.85652 
L 94.282604 178.71885 
L 95.140287 170.253283 
L 96.178673 157.648047 
L 98.978375 122.487476 
L 99.746183 115.854962 
L 100.333407 112.537374 
L 100.739929 111.22311 
L 101.101334 110.714963 
L 101.417624 110.565977 
L 101.598326 110.773493 
L 101.914497 111.648782 
L 102.366254 113.707975 
L 102.908481 117.275645 
L 103.541059 122.947734 
L 104.535162 134.180175 
L 105.981379 152.127604 
L 107.247013 165.823625 
L 108.105886 173.030798 
L 108.919644 177.949979 
L 109.416993 179.791013 
L 109.959577 180.82327 
L 110.230869 180.99886 
L 110.547397 180.897763 
L 110.863924 180.53062 
L 111.270922 179.623405 
L 111.813506 177.832919 
L 112.53715 174.690921 
L 115.025086 163.054092 
L 115.703733 161.194434 
L 116.11085 160.516018 
L 116.472851 160.372353 
L 116.834851 160.452167 
L 117.106262 160.657022 
L 117.377793 161.159848 
L 118.101913 163.320137 
L 118.735444 165.991234 
L 119.731214 171.141875 
L 123.171708 189.94597 
L 124.167834 194.338381 
L 124.937666 196.770037 
L 126.02462 199.630026 
L 126.930515 201.534911 
L 128.33483 204.022437 
L 128.833131 204.490677 
L 129.51273 204.80195 
L 129.965916 204.839196 
L 130.283038 204.668927 
L 132.5942 202.378275 
L 133.682106 200.611733 
L 134.226 199.813597 
L 135.177963 198.555202 
L 136.266108 197.320751 
L 136.991537 196.857832 
L 137.807795 196.682242 
L 138.352046 196.855171 
L 138.986886 197.1425 
L 140.347632 198.222645 
L 142.07145 200.521278 
L 143.341845 202.410201 
L 144.385469 203.665936 
L 146.246183 206.310428 
L 147.607882 207.821566 
L 150.831485 210.508626 
L 151.240149 210.665592 
L 151.739641 210.958242 
L 152.284606 211.304102 
L 152.82969 211.325385 
L 153.329301 211.218967 
L 153.91974 211.11787 
L 154.737425 211.173739 
L 156.327562 211.250893 
L 157.372614 211.051358 
L 159.690323 211.570147 
L 160.463011 211.99582 
L 161.2357 212.402869 
L 161.872207 212.857807 
L 162.46324 213.296782 
L 163.054274 213.733097 
L 163.690781 214.129505 
L 164.327407 214.424815 
L 166.510362 215.707154 
L 167.192581 215.755043 
L 168.511782 215.627341 
L 169.103292 215.635322 
L 169.694682 215.39056 
L 170.69569 214.267848 
L 171.332792 212.948263 
L 171.787882 211.524919 
L 172.37951 208.731442 
L 173.016613 204.722136 
L 173.60836 199.443794 
L 174.245582 191.417201 
L 175.019461 178.740134 
L 175.975471 158.464807 
L 177.250389 126.105694 
L 179.299663 73.481897 
L 180.119372 58.572707 
L 180.75707 50.596664 
L 181.212636 47.111468 
L 181.577017 45.762617 
L 181.80486 45.536479 
L 181.941518 45.613632 
L 182.123768 46.018021 
L 182.397084 47.228528 
L 182.807057 50.28273 
L 183.353808 56.228847 
L 183.991743 65.668141 
L 185.176549 87.132691 
L 188.00232 139.929418 
L 189.096417 154.886495 
L 190.236225 167.576865 
L 191.14819 175.61676 
L 192.15134 182.337069 
L 193.154728 187.407896 
L 194.02134 190.967584 
L 195.207335 194.607087 
L 196.210961 197.094612 
L 197.899187 200.755398 
L 200.044049 204.650304 
L 201.002559 206.001815 
L 201.869885 207.230945 
L 202.600314 208.140821 
L 203.604655 209.106566 
L 204.198307 209.54022 
L 204.928856 210.197352 
L 206.207583 211.104567 
L 207.303704 211.136493 
L 208.03449 210.819899 
L 209.724739 209.734433 
L 210.273038 208.752725 
L 211.689494 205.61871 
L 212.923344 202.428824 
L 214.020298 199.24692 
L 215.117251 195.67925 
L 216.808691 188.48538 
L 217.677445 182.709532 
L 218.683452 174.456801 
L 219.689459 163.671317 
L 221.153055 145.516373 
L 222.571179 128.657071 
L 223.440409 120.550665 
L 223.989422 117.182529 
L 224.538434 115.046183 
L 224.904482 114.234745 
L 225.133277 114.107043 
L 225.31636 114.256028 
L 225.636697 114.90784 
L 225.957034 116.091742 
L 226.597707 119.568957 
L 227.192669 124.38438 
L 228.428423 137.064108 
L 230.900646 164.690272 
L 231.953674 173.648023 
L 232.640654 177.867505 
L 233.144312 179.791013 
L 233.648089 180.961614 
L 234.060325 181.339398 
L 234.47256 181.40591 
L 234.747304 181.246282 
L 235.20537 180.570527 
L 235.571894 179.65533 
L 236.304824 176.891118 
L 237.175244 173.488396 
L 239.007984 166.102973 
L 239.557949 164.815313 
L 239.970422 164.317808 
L 240.382777 164.160841 
L 240.70359 164.166162 
L 241.162013 164.613118 
L 241.666147 165.451162 
L 242.12457 166.704236 
L 242.720485 169.111948 
L 243.774822 174.467443 
L 247.351498 192.795317 
L 248.452261 196.748753 
L 249.828363 200.268535 
L 250.883534 202.386257 
L 251.571823 203.562178 
L 252.168213 204.128855 
L 252.718892 204.469393 
L 254.233319 204.972219 
L 254.600438 204.940294 
L 255.105406 204.738099 
L 256.7578 203.056691 
L 258.64018 200.499994 
L 259.282996 199.590119 
L 260.752545 198.126869 
L 261.165852 197.951279 
L 261.946635 197.911372 
L 262.360061 198.102924 
L 262.957165 198.353007 
L 263.416541 198.5419 
L 264.519208 199.371961 
L 265.208331 200.199363 
L 266.12732 201.436474 
L 267.000359 202.543224 
L 269.436275 206.281163 
L 271.229136 208.702177 
L 272.562503 210.088274 
L 273.436138 210.846503 
L 274.40179 211.434464 
L 277.75967 212.293791 
L 278.587713 212.344339 
L 279.001853 212.392228 
L 280.658294 212.198014 
L 281.302658 212.312414 
L 282.45318 212.482683 
L 284.386508 213.155778 
L 285.077059 213.677227 
L 285.951884 214.254546 
L 286.688504 214.717465 
L 287.609516 215.433128 
L 288.254237 215.845498 
L 289.589866 216.49731 
L 290.879664 216.760695 
L 291.893171 216.925643 
L 292.399924 216.96821 
L 293.09107 216.659597 
L 293.874353 216.178055 
L 294.51955 215.222952 
L 295.072491 214.076296 
L 295.671619 212.344339 
L 296.316935 209.577466 
L 296.823926 206.504641 
L 297.469242 201.125201 
L 298.160746 193.189064 
L 298.898318 181.445816 
L 299.774333 164.174143 
L 300.973185 136.109005 
L 303.140784 82.431667 
L 304.017157 65.593648 
L 304.662949 57.024323 
L 305.170416 52.754293 
L 305.585628 50.958486 
L 305.816208 50.681798 
L 306.000839 50.798858 
L 306.231539 51.360214 
L 306.554494 52.905939 
L 306.969706 56.196921 
L 307.523361 62.568711 
L 308.354022 74.982393 
L 309.600014 97.407367 
L 312.092592 142.004573 
L 313.385366 158.815987 
L 314.30876 168.2473 
L 315.417022 177.268902 
L 316.386841 183.403911 
L 317.402966 188.416208 
L 318.511586 192.369644 
L 319.296893 194.56718 
L 320.359563 197.155803 
L 321.560915 199.912034 
L 326.04408 207.951928 
L 326.783795 208.944278 
L 327.66231 209.835531 
L 329.09567 211.245572 
L 329.928117 211.82023 
L 330.390588 212.006462 
L 332.009413 212.001141 
L 332.564615 211.697849 
L 333.119699 211.229609 
L 333.767395 210.460737 
L 334.831494 208.739423 
L 335.89583 206.619041 
L 336.867673 204.432147 
L 337.978435 201.401889 
L 338.996703 198.142831 
L 340.061397 194.080317 
L 340.84849 190.289168 
L 341.728195 184.287182 
L 342.654207 176.279213 
L 343.858297 163.580862 
L 347.193322 126.563293 
L 347.841852 122.381057 
L 348.490501 119.427953 
L 348.861191 118.648439 
L 349.139269 118.507435 
L 349.37092 118.675044 
L 349.695304 119.263004 
L 350.065995 120.46553 
L 350.529418 122.718935 
L 351.085573 126.66439 
L 352.058844 135.858922 
L 353.217698 148.259302 
L 355.164716 168.651689 
L 355.999306 175.252277 
L 356.64855 179.0115 
L 357.251368 181.334077 
L 357.761455 182.525961 
L 358.132502 182.933011 
L 358.549857 183.111261 
L 358.781866 183.04741 
L 359.106488 182.677607 
L 359.477535 181.855526 
L 360.312482 179.072691 
L 361.054696 176.154172 
L 362.168197 171.599473 
L 363.374548 168.154184 
L 363.884991 167.334764 
L 364.302703 167.116606 
L 364.720295 167.145871 
L 365.138006 167.502372 
L 365.509292 168.058407 
L 365.880578 169.077362 
L 366.994554 173.158499 
L 367.923066 177.367339 
L 368.94443 182.818611 
L 370.244465 189.318102 
L 371.219641 193.300803 
L 372.194817 196.578484 
L 373.448903 200.223307 
L 373.959823 201.369963 
L 375.911007 204.299124 
L 376.933204 205.142488 
L 377.630183 205.520273 
L 378.001945 205.357985 
L 379.349597 204.469393 
L 380.418576 203.349341 
L 380.929972 202.551205 
L 381.81313 201.109238 
L 383.858832 198.475388 
L 384.416773 198.270533 
L 385.021258 198.19604 
L 385.439802 198.185399 
L 385.858347 198.201361 
L 386.741981 198.826568 
L 388.090942 200.279177 
L 389.300389 201.963245 
L 389.951775 202.833213 
L 392.510897 206.169424 
L 394.279475 207.826887 
L 395.117278 208.835199 
L 396.932876 211.165758 
L 397.817462 211.798946 
L 400.238974 213.334029 
L 403.499599 213.238252 
L 404.804039 212.820561 
L 405.92242 212.918998 
L 406.761176 213.270178 
L 407.926339 213.874101 
L 408.625461 214.262527 
L 409.278038 214.74407 
L 409.744199 215.21231 
L 410.350232 215.776326 
L 411.655624 216.750053 
L 412.215112 217.048024 
L 413.054463 217.545529 
L 414.873276 218.066978 
L 416.785653 217.862123 
L 417.718689 217.37792 
L 418.091879 217.005456 
L 418.745052 215.927972 
L 419.258352 214.634991 
L 419.818197 212.732766 
L 419.818197 212.732766 
" clip-path="url(#pf98a1618f9)" style="fill: none; stroke: #1f77b4; stroke-width: 0.2; stroke-linecap: round"/>
   </g>
   <g id="patch_3">
    <path d="M 62.663438 277.248797 
L 62.663438 11.136797 
" style="fill: none; stroke: #262626; stroke-width: 1.25; stroke-linejoin: miter; stroke-linecap: square"/>
   </g>
   <g id="patch_4">
    <path d="M 62.663438 277.248797 
L 419.783438 277.248797 
" style="fill: none; stroke: #262626; stroke-width: 1.25; stroke-linejoin: miter; stroke-linecap: square"/>
   </g>
   <g id="legend_1"/>
  </g>
 </g>
 <defs>
  <clipPath id="pf98a1618f9">
   <rect x="62.663438" y="11.136797" width="357.12" height="266.112"/>
  </clipPath>
 </defs>
</svg>
