<?xml version="1.0" encoding="utf-8" standalone="no"?>
<!DOCTYPE svg PUBLIC "-//W3C//DTD SVG 1.1//EN"
  "http://www.w3.org/Graphics/SVG/1.1/DTD/svg11.dtd">
<svg xmlns:xlink="http://www.w3.org/1999/xlink" width="412.525156pt" height="266.645078pt" viewBox="0 0 412.525156 266.645078" xmlns="http://www.w3.org/2000/svg" version="1.1">
 <metadata>
  <rdf:RDF xmlns:dc="http://purl.org/dc/elements/1.1/" xmlns:cc="http://creativecommons.org/ns#" xmlns:rdf="http://www.w3.org/1999/02/22-rdf-syntax-ns#">
   <cc:Work>
    <dc:type rdf:resource="http://purl.org/dc/dcmitype/StillImage"/>
    <dc:date>2023-09-04T22:40:10.457387</dc:date>
    <dc:format>image/svg+xml</dc:format>
    <dc:creator>
     <cc:Agent>
      <dc:title>Matplotlib v3.5.2, https://matplotlib.org/</dc:title>
     </cc:Agent>
    </dc:creator>
   </cc:Work>
  </rdf:RDF>
 </metadata>
 <defs>
  <style type="text/css">*{stroke-linejoin: round; stroke-linecap: butt}</style>
 </defs>
 <g id="figure_1">
  <g id="patch_1">
   <path d="M 0 266.645078 
L 412.525156 266.645078 
L 412.525156 0 
L 0 0 
L 0 266.645078 
z
" style="fill: none"/>
  </g>
  <g id="axes_1">
   <g id="patch_2">
    <path d="M 56.527656 228.819141 
L 391.327656 228.819141 
L 391.327656 11.379141 
L 56.527656 11.379141 
z
" style="fill: #ffffff"/>
   </g>
   <g id="matplotlib.axis_1">
    <g id="xtick_1">
     <g id="line2d_1">
      <defs>
       <path id="m9c4d29ae8a" d="M 0 0 
L 0 -6 
" style="stroke: #262626; stroke-width: 1.25"/>
      </defs>
      <g>
       <use xlink:href="#m9c4d29ae8a" x="56.527656" y="228.819141" style="fill: #262626; stroke: #262626; stroke-width: 1.25"/>
      </g>
     </g>
     <g id="text_1">
      <!-- 1400 -->
      <g style="fill: #262626" transform="translate(42.530156 240.677422)scale(0.11 -0.11)">
       <defs>
        <path id="DejaVuSans-31" d="M 794 531 
L 1825 531 
L 1825 4091 
L 703 3866 
L 703 4441 
L 1819 4666 
L 2450 4666 
L 2450 531 
L 3481 531 
L 3481 0 
L 794 0 
L 794 531 
z
" transform="scale(0.015625)"/>
        <path id="DejaVuSans-34" d="M 2419 4116 
L 825 1625 
L 2419 1625 
L 2419 4116 
z
M 2253 4666 
L 3047 4666 
L 3047 1625 
L 3713 1625 
L 3713 1100 
L 3047 1100 
L 3047 0 
L 2419 0 
L 2419 1100 
L 313 1100 
L 313 1709 
L 2253 4666 
z
" transform="scale(0.015625)"/>
        <path id="DejaVuSans-30" d="M 2034 4250 
Q 1547 4250 1301 3770 
Q 1056 3291 1056 2328 
Q 1056 1369 1301 889 
Q 1547 409 2034 409 
Q 2525 409 2770 889 
Q 3016 1369 3016 2328 
Q 3016 3291 2770 3770 
Q 2525 4250 2034 4250 
z
M 2034 4750 
Q 2819 4750 3233 4129 
Q 3647 3509 3647 2328 
Q 3647 1150 3233 529 
Q 2819 -91 2034 -91 
Q 1250 -91 836 529 
Q 422 1150 422 2328 
Q 422 3509 836 4129 
Q 1250 4750 2034 4750 
z
" transform="scale(0.015625)"/>
       </defs>
       <use xlink:href="#DejaVuSans-31"/>
       <use xlink:href="#DejaVuSans-34" x="63.623047"/>
       <use xlink:href="#DejaVuSans-30" x="127.246094"/>
       <use xlink:href="#DejaVuSans-30" x="190.869141"/>
      </g>
     </g>
    </g>
    <g id="xtick_2">
     <g id="line2d_2">
      <g>
       <use xlink:href="#m9c4d29ae8a" x="104.356228" y="228.819141" style="fill: #262626; stroke: #262626; stroke-width: 1.25"/>
      </g>
     </g>
     <g id="text_2">
      <!-- 1600 -->
      <g style="fill: #262626" transform="translate(90.358728 240.677422)scale(0.11 -0.11)">
       <defs>
        <path id="DejaVuSans-36" d="M 2113 2584 
Q 1688 2584 1439 2293 
Q 1191 2003 1191 1497 
Q 1191 994 1439 701 
Q 1688 409 2113 409 
Q 2538 409 2786 701 
Q 3034 994 3034 1497 
Q 3034 2003 2786 2293 
Q 2538 2584 2113 2584 
z
M 3366 4563 
L 3366 3988 
Q 3128 4100 2886 4159 
Q 2644 4219 2406 4219 
Q 1781 4219 1451 3797 
Q 1122 3375 1075 2522 
Q 1259 2794 1537 2939 
Q 1816 3084 2150 3084 
Q 2853 3084 3261 2657 
Q 3669 2231 3669 1497 
Q 3669 778 3244 343 
Q 2819 -91 2113 -91 
Q 1303 -91 875 529 
Q 447 1150 447 2328 
Q 447 3434 972 4092 
Q 1497 4750 2381 4750 
Q 2619 4750 2861 4703 
Q 3103 4656 3366 4563 
z
" transform="scale(0.015625)"/>
       </defs>
       <use xlink:href="#DejaVuSans-31"/>
       <use xlink:href="#DejaVuSans-36" x="63.623047"/>
       <use xlink:href="#DejaVuSans-30" x="127.246094"/>
       <use xlink:href="#DejaVuSans-30" x="190.869141"/>
      </g>
     </g>
    </g>
    <g id="xtick_3">
     <g id="line2d_3">
      <g>
       <use xlink:href="#m9c4d29ae8a" x="152.184799" y="228.819141" style="fill: #262626; stroke: #262626; stroke-width: 1.25"/>
      </g>
     </g>
     <g id="text_3">
      <!-- 1800 -->
      <g style="fill: #262626" transform="translate(138.187299 240.677422)scale(0.11 -0.11)">
       <defs>
        <path id="DejaVuSans-38" d="M 2034 2216 
Q 1584 2216 1326 1975 
Q 1069 1734 1069 1313 
Q 1069 891 1326 650 
Q 1584 409 2034 409 
Q 2484 409 2743 651 
Q 3003 894 3003 1313 
Q 3003 1734 2745 1975 
Q 2488 2216 2034 2216 
z
M 1403 2484 
Q 997 2584 770 2862 
Q 544 3141 544 3541 
Q 544 4100 942 4425 
Q 1341 4750 2034 4750 
Q 2731 4750 3128 4425 
Q 3525 4100 3525 3541 
Q 3525 3141 3298 2862 
Q 3072 2584 2669 2484 
Q 3125 2378 3379 2068 
Q 3634 1759 3634 1313 
Q 3634 634 3220 271 
Q 2806 -91 2034 -91 
Q 1263 -91 848 271 
Q 434 634 434 1313 
Q 434 1759 690 2068 
Q 947 2378 1403 2484 
z
M 1172 3481 
Q 1172 3119 1398 2916 
Q 1625 2713 2034 2713 
Q 2441 2713 2670 2916 
Q 2900 3119 2900 3481 
Q 2900 3844 2670 4047 
Q 2441 4250 2034 4250 
Q 1625 4250 1398 4047 
Q 1172 3844 1172 3481 
z
" transform="scale(0.015625)"/>
       </defs>
       <use xlink:href="#DejaVuSans-31"/>
       <use xlink:href="#DejaVuSans-38" x="63.623047"/>
       <use xlink:href="#DejaVuSans-30" x="127.246094"/>
       <use xlink:href="#DejaVuSans-30" x="190.869141"/>
      </g>
     </g>
    </g>
    <g id="xtick_4">
     <g id="line2d_4">
      <g>
       <use xlink:href="#m9c4d29ae8a" x="200.013371" y="228.819141" style="fill: #262626; stroke: #262626; stroke-width: 1.25"/>
      </g>
     </g>
     <g id="text_4">
      <!-- 2000 -->
      <g style="fill: #262626" transform="translate(186.015871 240.677422)scale(0.11 -0.11)">
       <defs>
        <path id="DejaVuSans-32" d="M 1228 531 
L 3431 531 
L 3431 0 
L 469 0 
L 469 531 
Q 828 903 1448 1529 
Q 2069 2156 2228 2338 
Q 2531 2678 2651 2914 
Q 2772 3150 2772 3378 
Q 2772 3750 2511 3984 
Q 2250 4219 1831 4219 
Q 1534 4219 1204 4116 
Q 875 4013 500 3803 
L 500 4441 
Q 881 4594 1212 4672 
Q 1544 4750 1819 4750 
Q 2544 4750 2975 4387 
Q 3406 4025 3406 3419 
Q 3406 3131 3298 2873 
Q 3191 2616 2906 2266 
Q 2828 2175 2409 1742 
Q 1991 1309 1228 531 
z
" transform="scale(0.015625)"/>
       </defs>
       <use xlink:href="#DejaVuSans-32"/>
       <use xlink:href="#DejaVuSans-30" x="63.623047"/>
       <use xlink:href="#DejaVuSans-30" x="127.246094"/>
       <use xlink:href="#DejaVuSans-30" x="190.869141"/>
      </g>
     </g>
    </g>
    <g id="xtick_5">
     <g id="line2d_5">
      <g>
       <use xlink:href="#m9c4d29ae8a" x="247.841942" y="228.819141" style="fill: #262626; stroke: #262626; stroke-width: 1.25"/>
      </g>
     </g>
     <g id="text_5">
      <!-- 2200 -->
      <g style="fill: #262626" transform="translate(233.844442 240.677422)scale(0.11 -0.11)">
       <use xlink:href="#DejaVuSans-32"/>
       <use xlink:href="#DejaVuSans-32" x="63.623047"/>
       <use xlink:href="#DejaVuSans-30" x="127.246094"/>
       <use xlink:href="#DejaVuSans-30" x="190.869141"/>
      </g>
     </g>
    </g>
    <g id="xtick_6">
     <g id="line2d_6">
      <g>
       <use xlink:href="#m9c4d29ae8a" x="295.670513" y="228.819141" style="fill: #262626; stroke: #262626; stroke-width: 1.25"/>
      </g>
     </g>
     <g id="text_6">
      <!-- 2400 -->
      <g style="fill: #262626" transform="translate(281.673013 240.677422)scale(0.11 -0.11)">
       <use xlink:href="#DejaVuSans-32"/>
       <use xlink:href="#DejaVuSans-34" x="63.623047"/>
       <use xlink:href="#DejaVuSans-30" x="127.246094"/>
       <use xlink:href="#DejaVuSans-30" x="190.869141"/>
      </g>
     </g>
    </g>
    <g id="xtick_7">
     <g id="line2d_7">
      <g>
       <use xlink:href="#m9c4d29ae8a" x="343.499085" y="228.819141" style="fill: #262626; stroke: #262626; stroke-width: 1.25"/>
      </g>
     </g>
     <g id="text_7">
      <!-- 2600 -->
      <g style="fill: #262626" transform="translate(329.501585 240.677422)scale(0.11 -0.11)">
       <use xlink:href="#DejaVuSans-32"/>
       <use xlink:href="#DejaVuSans-36" x="63.623047"/>
       <use xlink:href="#DejaVuSans-30" x="127.246094"/>
       <use xlink:href="#DejaVuSans-30" x="190.869141"/>
      </g>
     </g>
    </g>
    <g id="xtick_8">
     <g id="line2d_8">
      <g>
       <use xlink:href="#m9c4d29ae8a" x="391.327656" y="228.819141" style="fill: #262626; stroke: #262626; stroke-width: 1.25"/>
      </g>
     </g>
     <g id="text_8">
      <!-- 2800 -->
      <g style="fill: #262626" transform="translate(377.330156 240.677422)scale(0.11 -0.11)">
       <use xlink:href="#DejaVuSans-32"/>
       <use xlink:href="#DejaVuSans-38" x="63.623047"/>
       <use xlink:href="#DejaVuSans-30" x="127.246094"/>
       <use xlink:href="#DejaVuSans-30" x="190.869141"/>
      </g>
     </g>
    </g>
    <g id="xtick_9">
     <g id="line2d_9">
      <defs>
       <path id="mf9e3e2a7be" d="M 0 0 
L 0 -4 
" style="stroke: #262626"/>
      </defs>
      <g>
       <use xlink:href="#mf9e3e2a7be" x="80.441942" y="228.819141" style="fill: #262626; stroke: #262626"/>
      </g>
     </g>
    </g>
    <g id="xtick_10">
     <g id="line2d_10">
      <g>
       <use xlink:href="#mf9e3e2a7be" x="128.270513" y="228.819141" style="fill: #262626; stroke: #262626"/>
      </g>
     </g>
    </g>
    <g id="xtick_11">
     <g id="line2d_11">
      <g>
       <use xlink:href="#mf9e3e2a7be" x="176.099085" y="228.819141" style="fill: #262626; stroke: #262626"/>
      </g>
     </g>
    </g>
    <g id="xtick_12">
     <g id="line2d_12">
      <g>
       <use xlink:href="#mf9e3e2a7be" x="223.927656" y="228.819141" style="fill: #262626; stroke: #262626"/>
      </g>
     </g>
    </g>
    <g id="xtick_13">
     <g id="line2d_13">
      <g>
       <use xlink:href="#mf9e3e2a7be" x="271.756228" y="228.819141" style="fill: #262626; stroke: #262626"/>
      </g>
     </g>
    </g>
    <g id="xtick_14">
     <g id="line2d_14">
      <g>
       <use xlink:href="#mf9e3e2a7be" x="319.584799" y="228.819141" style="fill: #262626; stroke: #262626"/>
      </g>
     </g>
    </g>
    <g id="xtick_15">
     <g id="line2d_15">
      <g>
       <use xlink:href="#mf9e3e2a7be" x="367.413371" y="228.819141" style="fill: #262626; stroke: #262626"/>
      </g>
     </g>
    </g>
    <g id="text_9">
     <!-- Wavenumber ($\mathregular{cm^{-1}}$) -->
     <g style="fill: #262626" transform="translate(161.467656 256.949453)scale(0.12 -0.12)">
      <defs>
       <path id="DejaVuSans-57" d="M 213 4666 
L 850 4666 
L 1831 722 
L 2809 4666 
L 3519 4666 
L 4500 722 
L 5478 4666 
L 6119 4666 
L 4947 0 
L 4153 0 
L 3169 4050 
L 2175 0 
L 1381 0 
L 213 4666 
z
" transform="scale(0.015625)"/>
       <path id="DejaVuSans-61" d="M 2194 1759 
Q 1497 1759 1228 1600 
Q 959 1441 959 1056 
Q 959 750 1161 570 
Q 1363 391 1709 391 
Q 2188 391 2477 730 
Q 2766 1069 2766 1631 
L 2766 1759 
L 2194 1759 
z
M 3341 1997 
L 3341 0 
L 2766 0 
L 2766 531 
Q 2569 213 2275 61 
Q 1981 -91 1556 -91 
Q 1019 -91 701 211 
Q 384 513 384 1019 
Q 384 1609 779 1909 
Q 1175 2209 1959 2209 
L 2766 2209 
L 2766 2266 
Q 2766 2663 2505 2880 
Q 2244 3097 1772 3097 
Q 1472 3097 1187 3025 
Q 903 2953 641 2809 
L 641 3341 
Q 956 3463 1253 3523 
Q 1550 3584 1831 3584 
Q 2591 3584 2966 3190 
Q 3341 2797 3341 1997 
z
" transform="scale(0.015625)"/>
       <path id="DejaVuSans-76" d="M 191 3500 
L 800 3500 
L 1894 563 
L 2988 3500 
L 3597 3500 
L 2284 0 
L 1503 0 
L 191 3500 
z
" transform="scale(0.015625)"/>
       <path id="DejaVuSans-65" d="M 3597 1894 
L 3597 1613 
L 953 1613 
Q 991 1019 1311 708 
Q 1631 397 2203 397 
Q 2534 397 2845 478 
Q 3156 559 3463 722 
L 3463 178 
Q 3153 47 2828 -22 
Q 2503 -91 2169 -91 
Q 1331 -91 842 396 
Q 353 884 353 1716 
Q 353 2575 817 3079 
Q 1281 3584 2069 3584 
Q 2775 3584 3186 3129 
Q 3597 2675 3597 1894 
z
M 3022 2063 
Q 3016 2534 2758 2815 
Q 2500 3097 2075 3097 
Q 1594 3097 1305 2825 
Q 1016 2553 972 2059 
L 3022 2063 
z
" transform="scale(0.015625)"/>
       <path id="DejaVuSans-6e" d="M 3513 2113 
L 3513 0 
L 2938 0 
L 2938 2094 
Q 2938 2591 2744 2837 
Q 2550 3084 2163 3084 
Q 1697 3084 1428 2787 
Q 1159 2491 1159 1978 
L 1159 0 
L 581 0 
L 581 3500 
L 1159 3500 
L 1159 2956 
Q 1366 3272 1645 3428 
Q 1925 3584 2291 3584 
Q 2894 3584 3203 3211 
Q 3513 2838 3513 2113 
z
" transform="scale(0.015625)"/>
       <path id="DejaVuSans-75" d="M 544 1381 
L 544 3500 
L 1119 3500 
L 1119 1403 
Q 1119 906 1312 657 
Q 1506 409 1894 409 
Q 2359 409 2629 706 
Q 2900 1003 2900 1516 
L 2900 3500 
L 3475 3500 
L 3475 0 
L 2900 0 
L 2900 538 
Q 2691 219 2414 64 
Q 2138 -91 1772 -91 
Q 1169 -91 856 284 
Q 544 659 544 1381 
z
M 1991 3584 
L 1991 3584 
z
" transform="scale(0.015625)"/>
       <path id="DejaVuSans-6d" d="M 3328 2828 
Q 3544 3216 3844 3400 
Q 4144 3584 4550 3584 
Q 5097 3584 5394 3201 
Q 5691 2819 5691 2113 
L 5691 0 
L 5113 0 
L 5113 2094 
Q 5113 2597 4934 2840 
Q 4756 3084 4391 3084 
Q 3944 3084 3684 2787 
Q 3425 2491 3425 1978 
L 3425 0 
L 2847 0 
L 2847 2094 
Q 2847 2600 2669 2842 
Q 2491 3084 2119 3084 
Q 1678 3084 1418 2786 
Q 1159 2488 1159 1978 
L 1159 0 
L 581 0 
L 581 3500 
L 1159 3500 
L 1159 2956 
Q 1356 3278 1631 3431 
Q 1906 3584 2284 3584 
Q 2666 3584 2933 3390 
Q 3200 3197 3328 2828 
z
" transform="scale(0.015625)"/>
       <path id="DejaVuSans-62" d="M 3116 1747 
Q 3116 2381 2855 2742 
Q 2594 3103 2138 3103 
Q 1681 3103 1420 2742 
Q 1159 2381 1159 1747 
Q 1159 1113 1420 752 
Q 1681 391 2138 391 
Q 2594 391 2855 752 
Q 3116 1113 3116 1747 
z
M 1159 2969 
Q 1341 3281 1617 3432 
Q 1894 3584 2278 3584 
Q 2916 3584 3314 3078 
Q 3713 2572 3713 1747 
Q 3713 922 3314 415 
Q 2916 -91 2278 -91 
Q 1894 -91 1617 61 
Q 1341 213 1159 525 
L 1159 0 
L 581 0 
L 581 4863 
L 1159 4863 
L 1159 2969 
z
" transform="scale(0.015625)"/>
       <path id="DejaVuSans-72" d="M 2631 2963 
Q 2534 3019 2420 3045 
Q 2306 3072 2169 3072 
Q 1681 3072 1420 2755 
Q 1159 2438 1159 1844 
L 1159 0 
L 581 0 
L 581 3500 
L 1159 3500 
L 1159 2956 
Q 1341 3275 1631 3429 
Q 1922 3584 2338 3584 
Q 2397 3584 2469 3576 
Q 2541 3569 2628 3553 
L 2631 2963 
z
" transform="scale(0.015625)"/>
       <path id="DejaVuSans-20" transform="scale(0.015625)"/>
       <path id="DejaVuSans-28" d="M 1984 4856 
Q 1566 4138 1362 3434 
Q 1159 2731 1159 2009 
Q 1159 1288 1364 580 
Q 1569 -128 1984 -844 
L 1484 -844 
Q 1016 -109 783 600 
Q 550 1309 550 2009 
Q 550 2706 781 3412 
Q 1013 4119 1484 4856 
L 1984 4856 
z
" transform="scale(0.015625)"/>
       <path id="DejaVuSans-63" d="M 3122 3366 
L 3122 2828 
Q 2878 2963 2633 3030 
Q 2388 3097 2138 3097 
Q 1578 3097 1268 2742 
Q 959 2388 959 1747 
Q 959 1106 1268 751 
Q 1578 397 2138 397 
Q 2388 397 2633 464 
Q 2878 531 3122 666 
L 3122 134 
Q 2881 22 2623 -34 
Q 2366 -91 2075 -91 
Q 1284 -91 818 406 
Q 353 903 353 1747 
Q 353 2603 823 3093 
Q 1294 3584 2113 3584 
Q 2378 3584 2631 3529 
Q 2884 3475 3122 3366 
z
" transform="scale(0.015625)"/>
       <path id="DejaVuSans-2212" d="M 678 2272 
L 4684 2272 
L 4684 1741 
L 678 1741 
L 678 2272 
z
" transform="scale(0.015625)"/>
       <path id="DejaVuSans-29" d="M 513 4856 
L 1013 4856 
Q 1481 4119 1714 3412 
Q 1947 2706 1947 2009 
Q 1947 1309 1714 600 
Q 1481 -109 1013 -844 
L 513 -844 
Q 928 -128 1133 580 
Q 1338 1288 1338 2009 
Q 1338 2731 1133 3434 
Q 928 4138 513 4856 
z
" transform="scale(0.015625)"/>
      </defs>
      <use xlink:href="#DejaVuSans-57" transform="translate(0 0.684375)"/>
      <use xlink:href="#DejaVuSans-61" transform="translate(98.876953 0.684375)"/>
      <use xlink:href="#DejaVuSans-76" transform="translate(160.15625 0.684375)"/>
      <use xlink:href="#DejaVuSans-65" transform="translate(219.335938 0.684375)"/>
      <use xlink:href="#DejaVuSans-6e" transform="translate(280.859375 0.684375)"/>
      <use xlink:href="#DejaVuSans-75" transform="translate(344.238281 0.684375)"/>
      <use xlink:href="#DejaVuSans-6d" transform="translate(407.617188 0.684375)"/>
      <use xlink:href="#DejaVuSans-62" transform="translate(505.029297 0.684375)"/>
      <use xlink:href="#DejaVuSans-65" transform="translate(568.505859 0.684375)"/>
      <use xlink:href="#DejaVuSans-72" transform="translate(630.029297 0.684375)"/>
      <use xlink:href="#DejaVuSans-20" transform="translate(671.142578 0.684375)"/>
      <use xlink:href="#DejaVuSans-28" transform="translate(702.929688 0.684375)"/>
      <use xlink:href="#DejaVuSans-63" transform="translate(741.943359 0.684375)"/>
      <use xlink:href="#DejaVuSans-6d" transform="translate(796.923828 0.684375)"/>
      <use xlink:href="#DejaVuSans-2212" transform="translate(895.292969 38.965625)scale(0.7)"/>
      <use xlink:href="#DejaVuSans-31" transform="translate(953.945312 38.965625)scale(0.7)"/>
      <use xlink:href="#DejaVuSans-29" transform="translate(1001.21582 0.684375)"/>
     </g>
    </g>
   </g>
   <g id="matplotlib.axis_2">
    <g id="ytick_1">
     <g id="line2d_16">
      <defs>
       <path id="m925f3595bb" d="M 0 0 
L 6 0 
" style="stroke: #262626; stroke-width: 1.25"/>
      </defs>
      <g>
       <use xlink:href="#m925f3595bb" x="56.527656" y="228.819141" style="fill: #262626; stroke: #262626; stroke-width: 1.25"/>
      </g>
     </g>
     <g id="text_10">
      <!-- −200 -->
      <g style="fill: #262626" transform="translate(22.81375 232.998281)scale(0.11 -0.11)">
       <use xlink:href="#DejaVuSans-2212"/>
       <use xlink:href="#DejaVuSans-32" x="83.789062"/>
       <use xlink:href="#DejaVuSans-30" x="147.412109"/>
       <use xlink:href="#DejaVuSans-30" x="211.035156"/>
      </g>
     </g>
    </g>
    <g id="ytick_2">
     <g id="line2d_17">
      <g>
       <use xlink:href="#m925f3595bb" x="56.527656" y="197.756283" style="fill: #262626; stroke: #262626; stroke-width: 1.25"/>
      </g>
     </g>
     <g id="text_11">
      <!-- 0 -->
      <g style="fill: #262626" transform="translate(46.028906 201.935424)scale(0.11 -0.11)">
       <use xlink:href="#DejaVuSans-30"/>
      </g>
     </g>
    </g>
    <g id="ytick_3">
     <g id="line2d_18">
      <g>
       <use xlink:href="#m925f3595bb" x="56.527656" y="166.693426" style="fill: #262626; stroke: #262626; stroke-width: 1.25"/>
      </g>
     </g>
     <g id="text_12">
      <!-- 200 -->
      <g style="fill: #262626" transform="translate(32.031406 170.872567)scale(0.11 -0.11)">
       <use xlink:href="#DejaVuSans-32"/>
       <use xlink:href="#DejaVuSans-30" x="63.623047"/>
       <use xlink:href="#DejaVuSans-30" x="127.246094"/>
      </g>
     </g>
    </g>
    <g id="ytick_4">
     <g id="line2d_19">
      <g>
       <use xlink:href="#m925f3595bb" x="56.527656" y="135.630569" style="fill: #262626; stroke: #262626; stroke-width: 1.25"/>
      </g>
     </g>
     <g id="text_13">
      <!-- 400 -->
      <g style="fill: #262626" transform="translate(32.031406 139.80971)scale(0.11 -0.11)">
       <use xlink:href="#DejaVuSans-34"/>
       <use xlink:href="#DejaVuSans-30" x="63.623047"/>
       <use xlink:href="#DejaVuSans-30" x="127.246094"/>
      </g>
     </g>
    </g>
    <g id="ytick_5">
     <g id="line2d_20">
      <g>
       <use xlink:href="#m925f3595bb" x="56.527656" y="104.567712" style="fill: #262626; stroke: #262626; stroke-width: 1.25"/>
      </g>
     </g>
     <g id="text_14">
      <!-- 600 -->
      <g style="fill: #262626" transform="translate(32.031406 108.746853)scale(0.11 -0.11)">
       <use xlink:href="#DejaVuSans-36"/>
       <use xlink:href="#DejaVuSans-30" x="63.623047"/>
       <use xlink:href="#DejaVuSans-30" x="127.246094"/>
      </g>
     </g>
    </g>
    <g id="ytick_6">
     <g id="line2d_21">
      <g>
       <use xlink:href="#m925f3595bb" x="56.527656" y="73.504855" style="fill: #262626; stroke: #262626; stroke-width: 1.25"/>
      </g>
     </g>
     <g id="text_15">
      <!-- 800 -->
      <g style="fill: #262626" transform="translate(32.031406 77.683996)scale(0.11 -0.11)">
       <use xlink:href="#DejaVuSans-38"/>
       <use xlink:href="#DejaVuSans-30" x="63.623047"/>
       <use xlink:href="#DejaVuSans-30" x="127.246094"/>
      </g>
     </g>
    </g>
    <g id="ytick_7">
     <g id="line2d_22">
      <g>
       <use xlink:href="#m925f3595bb" x="56.527656" y="42.441998" style="fill: #262626; stroke: #262626; stroke-width: 1.25"/>
      </g>
     </g>
     <g id="text_16">
      <!-- 1000 -->
      <g style="fill: #262626" transform="translate(25.032656 46.621138)scale(0.11 -0.11)">
       <use xlink:href="#DejaVuSans-31"/>
       <use xlink:href="#DejaVuSans-30" x="63.623047"/>
       <use xlink:href="#DejaVuSans-30" x="127.246094"/>
       <use xlink:href="#DejaVuSans-30" x="190.869141"/>
      </g>
     </g>
    </g>
    <g id="ytick_8">
     <g id="line2d_23">
      <g>
       <use xlink:href="#m925f3595bb" x="56.527656" y="11.379141" style="fill: #262626; stroke: #262626; stroke-width: 1.25"/>
      </g>
     </g>
     <g id="text_17">
      <!-- 1200 -->
      <g style="fill: #262626" transform="translate(25.032656 15.558281)scale(0.11 -0.11)">
       <use xlink:href="#DejaVuSans-31"/>
       <use xlink:href="#DejaVuSans-32" x="63.623047"/>
       <use xlink:href="#DejaVuSans-30" x="127.246094"/>
       <use xlink:href="#DejaVuSans-30" x="190.869141"/>
      </g>
     </g>
    </g>
    <g id="ytick_9">
     <g id="line2d_24">
      <defs>
       <path id="m656edfe047" d="M 0 0 
L 4 0 
" style="stroke: #262626"/>
      </defs>
      <g>
       <use xlink:href="#m656edfe047" x="56.527656" y="213.287712" style="fill: #262626; stroke: #262626"/>
      </g>
     </g>
    </g>
    <g id="ytick_10">
     <g id="line2d_25">
      <g>
       <use xlink:href="#m656edfe047" x="56.527656" y="182.224855" style="fill: #262626; stroke: #262626"/>
      </g>
     </g>
    </g>
    <g id="ytick_11">
     <g id="line2d_26">
      <g>
       <use xlink:href="#m656edfe047" x="56.527656" y="151.161998" style="fill: #262626; stroke: #262626"/>
      </g>
     </g>
    </g>
    <g id="ytick_12">
     <g id="line2d_27">
      <g>
       <use xlink:href="#m656edfe047" x="56.527656" y="120.099141" style="fill: #262626; stroke: #262626"/>
      </g>
     </g>
    </g>
    <g id="ytick_13">
     <g id="line2d_28">
      <g>
       <use xlink:href="#m656edfe047" x="56.527656" y="89.036283" style="fill: #262626; stroke: #262626"/>
      </g>
     </g>
    </g>
    <g id="ytick_14">
     <g id="line2d_29">
      <g>
       <use xlink:href="#m656edfe047" x="56.527656" y="57.973426" style="fill: #262626; stroke: #262626"/>
      </g>
     </g>
    </g>
    <g id="ytick_15">
     <g id="line2d_30">
      <g>
       <use xlink:href="#m656edfe047" x="56.527656" y="26.910569" style="fill: #262626; stroke: #262626"/>
      </g>
     </g>
    </g>
    <g id="text_18">
     <!-- Intensity (a.u.) -->
     <g style="fill: #262626" transform="translate(16.318125 164.096016)rotate(-90)scale(0.12 -0.12)">
      <defs>
       <path id="DejaVuSans-49" d="M 628 4666 
L 1259 4666 
L 1259 0 
L 628 0 
L 628 4666 
z
" transform="scale(0.015625)"/>
       <path id="DejaVuSans-74" d="M 1172 4494 
L 1172 3500 
L 2356 3500 
L 2356 3053 
L 1172 3053 
L 1172 1153 
Q 1172 725 1289 603 
Q 1406 481 1766 481 
L 2356 481 
L 2356 0 
L 1766 0 
Q 1100 0 847 248 
Q 594 497 594 1153 
L 594 3053 
L 172 3053 
L 172 3500 
L 594 3500 
L 594 4494 
L 1172 4494 
z
" transform="scale(0.015625)"/>
       <path id="DejaVuSans-73" d="M 2834 3397 
L 2834 2853 
Q 2591 2978 2328 3040 
Q 2066 3103 1784 3103 
Q 1356 3103 1142 2972 
Q 928 2841 928 2578 
Q 928 2378 1081 2264 
Q 1234 2150 1697 2047 
L 1894 2003 
Q 2506 1872 2764 1633 
Q 3022 1394 3022 966 
Q 3022 478 2636 193 
Q 2250 -91 1575 -91 
Q 1294 -91 989 -36 
Q 684 19 347 128 
L 347 722 
Q 666 556 975 473 
Q 1284 391 1588 391 
Q 1994 391 2212 530 
Q 2431 669 2431 922 
Q 2431 1156 2273 1281 
Q 2116 1406 1581 1522 
L 1381 1569 
Q 847 1681 609 1914 
Q 372 2147 372 2553 
Q 372 3047 722 3315 
Q 1072 3584 1716 3584 
Q 2034 3584 2315 3537 
Q 2597 3491 2834 3397 
z
" transform="scale(0.015625)"/>
       <path id="DejaVuSans-69" d="M 603 3500 
L 1178 3500 
L 1178 0 
L 603 0 
L 603 3500 
z
M 603 4863 
L 1178 4863 
L 1178 4134 
L 603 4134 
L 603 4863 
z
" transform="scale(0.015625)"/>
       <path id="DejaVuSans-79" d="M 2059 -325 
Q 1816 -950 1584 -1140 
Q 1353 -1331 966 -1331 
L 506 -1331 
L 506 -850 
L 844 -850 
Q 1081 -850 1212 -737 
Q 1344 -625 1503 -206 
L 1606 56 
L 191 3500 
L 800 3500 
L 1894 763 
L 2988 3500 
L 3597 3500 
L 2059 -325 
z
" transform="scale(0.015625)"/>
       <path id="DejaVuSans-2e" d="M 684 794 
L 1344 794 
L 1344 0 
L 684 0 
L 684 794 
z
" transform="scale(0.015625)"/>
      </defs>
      <use xlink:href="#DejaVuSans-49"/>
      <use xlink:href="#DejaVuSans-6e" x="29.492188"/>
      <use xlink:href="#DejaVuSans-74" x="92.871094"/>
      <use xlink:href="#DejaVuSans-65" x="132.080078"/>
      <use xlink:href="#DejaVuSans-6e" x="193.603516"/>
      <use xlink:href="#DejaVuSans-73" x="256.982422"/>
      <use xlink:href="#DejaVuSans-69" x="309.082031"/>
      <use xlink:href="#DejaVuSans-74" x="336.865234"/>
      <use xlink:href="#DejaVuSans-79" x="376.074219"/>
      <use xlink:href="#DejaVuSans-20" x="435.253906"/>
      <use xlink:href="#DejaVuSans-28" x="467.041016"/>
      <use xlink:href="#DejaVuSans-61" x="506.054688"/>
      <use xlink:href="#DejaVuSans-2e" x="567.333984"/>
      <use xlink:href="#DejaVuSans-75" x="599.121094"/>
      <use xlink:href="#DejaVuSans-2e" x="662.5"/>
      <use xlink:href="#DejaVuSans-29" x="694.287109"/>
     </g>
    </g>
   </g>
   <g id="line2d_31">
    <path d="M 85.224799 191.676287 
L 86.659656 191.676287 
L 87.377085 188.490996 
L 87.616228 187.942191 
L 87.735799 188.044175 
L 87.974942 188.972301 
L 88.453228 190.933947 
L 89.648942 193.202186 
L 89.888085 193.056823 
L 90.246799 192.20422 
L 90.485942 191.745015 
L 90.605513 191.734994 
L 90.964228 191.986418 
L 91.083799 191.822497 
L 91.322942 190.937722 
L 91.801228 188.993063 
L 92.518656 187.886326 
L 92.877371 187.241017 
L 93.116513 187.387107 
L 93.833942 188.601639 
L 94.312228 188.033238 
L 94.551371 188.478482 
L 95.388371 190.998694 
L 95.747085 191.995821 
L 95.866656 192.062078 
L 96.464513 191.751164 
L 97.181942 192.339347 
L 97.421085 192.336896 
L 97.660228 191.918434 
L 98.377656 189.892157 
L 99.932085 186.516647 
L 100.171228 185.112961 
L 101.486513 172.856817 
L 101.845228 163.762699 
L 103.280085 118.329925 
L 103.399656 118.689472 
L 103.638799 122.560527 
L 103.997513 134.046172 
L 104.954085 169.511076 
L 105.312799 175.825658 
L 105.671513 178.86023 
L 105.910656 179.268373 
L 106.149799 179.036378 
L 106.508513 178.698286 
L 106.747656 178.885425 
L 107.106371 179.852206 
L 107.823799 182.025236 
L 108.421656 183.119047 
L 108.660799 182.859971 
L 109.019513 182.271434 
L 109.617371 181.755969 
L 109.976085 180.951641 
L 110.334799 179.27176 
L 110.813085 176.975229 
L 111.530513 175.397164 
L 111.889228 174.727156 
L 112.247942 174.674855 
L 112.726228 174.733123 
L 113.084942 174.342705 
L 113.324085 174.275363 
L 113.563228 174.750215 
L 113.921942 175.617972 
L 114.041513 175.67913 
L 114.280656 175.345988 
L 115.117656 173.271208 
L 115.356799 173.224801 
L 116.074228 173.335203 
L 116.313371 173.757715 
L 116.672085 174.588649 
L 116.791656 174.644865 
L 117.030799 174.322295 
L 117.269942 174.101638 
L 117.509085 174.566101 
L 117.987371 175.81299 
L 118.704799 176.790851 
L 119.183085 177.615076 
L 119.780942 177.988072 
L 120.378799 179.115628 
L 120.617942 178.156049 
L 121.215799 174.521858 
L 121.694085 173.698708 
L 121.813656 173.588062 
L 121.933228 173.662658 
L 122.172371 174.613523 
L 123.248513 181.384018 
L 123.487656 181.6647 
L 123.846371 181.520045 
L 124.563799 180.919921 
L 125.161656 181.528668 
L 125.400799 181.448273 
L 125.520371 181.522547 
L 125.759513 182.16372 
L 126.118228 183.349736 
L 126.357371 183.490825 
L 126.955228 183.292906 
L 127.313942 183.438541 
L 127.553085 183.166794 
L 127.911799 182.613001 
L 128.031371 182.634791 
L 128.270513 183.159042 
L 128.748799 184.701004 
L 128.868371 184.696876 
L 129.346656 184.00544 
L 129.585799 183.426669 
L 130.303228 181.036673 
L 130.542371 180.906246 
L 130.781513 181.529216 
L 131.498942 184.517123 
L 131.618513 184.507141 
L 131.857656 184.159589 
L 132.096799 183.35364 
L 132.814228 180.063508 
L 133.053371 179.801141 
L 133.292513 179.809213 
L 133.531656 180.136358 
L 134.009942 181.022053 
L 134.249085 180.960137 
L 134.607799 180.325315 
L 135.205656 178.967657 
L 135.683942 178.217164 
L 137.118799 175.411616 
L 137.357942 175.64511 
L 137.955799 176.874051 
L 138.194942 176.832506 
L 138.912371 176.039305 
L 139.510228 173.929114 
L 139.988513 172.55147 
L 140.227656 172.442141 
L 140.466799 172.844548 
L 141.184228 175.159735 
L 141.423371 175.330322 
L 141.662513 175.22345 
L 141.901656 174.724447 
L 142.379942 172.903595 
L 142.858228 171.04462 
L 142.977799 170.915201 
L 143.097371 170.959099 
L 143.336513 171.479278 
L 143.814799 173.446695 
L 144.532228 176.591825 
L 144.651799 176.725251 
L 144.771371 176.655858 
L 145.010513 176.003299 
L 146.206228 171.242941 
L 146.325799 171.327104 
L 146.564942 172.083825 
L 147.043228 173.787938 
L 147.282371 173.969132 
L 147.521513 173.729508 
L 147.999799 172.906751 
L 148.119371 172.933543 
L 148.358513 173.554106 
L 148.956371 175.754511 
L 149.793371 177.210623 
L 150.032513 176.59102 
L 150.510799 175.346628 
L 150.869513 174.866295 
L 150.989085 174.886913 
L 151.228228 175.37032 
L 151.706513 176.450107 
L 151.945656 176.95682 
L 153.021799 180.909899 
L 153.380513 181.955493 
L 153.978371 182.703832 
L 154.337085 183.228789 
L 155.054513 185.112823 
L 155.293656 185.387635 
L 155.652371 186.129942 
L 155.771942 186.043252 
L 156.250228 184.863454 
L 156.608942 184.877934 
L 156.848085 184.199268 
L 157.087228 183.57831 
L 157.206799 183.599453 
L 158.043799 185.131556 
L 158.402513 186.510016 
L 158.880799 187.46697 
L 159.239513 188.830488 
L 159.359085 188.952467 
L 159.598228 188.529116 
L 159.956942 187.850214 
L 160.674371 187.497253 
L 160.913513 187.665207 
L 161.152656 187.281205 
L 161.511371 186.605699 
L 161.870085 186.60181 
L 162.467942 185.866026 
L 163.065799 186.394724 
L 163.424513 186.463348 
L 163.544085 186.332408 
L 163.783228 185.558536 
L 164.141942 184.345168 
L 164.500656 183.530669 
L 165.815942 179.165971 
L 167.131228 176.606095 
L 167.489942 176.405027 
L 167.968228 176.560319 
L 168.207371 176.854584 
L 168.446513 177.284216 
L 168.566085 177.310327 
L 168.805228 176.709985 
L 169.761799 173.0228 
L 170.359656 171.149443 
L 170.479228 171.267278 
L 170.837942 172.32938 
L 171.316228 173.849141 
L 171.555371 173.98277 
L 171.914085 173.844282 
L 172.272799 174.120234 
L 172.511942 174.210017 
L 172.751085 173.891809 
L 173.707656 171.615546 
L 174.544656 171.068406 
L 174.783799 171.428813 
L 175.142513 172.978887 
L 175.620799 174.917658 
L 175.859942 175.135328 
L 176.099085 174.775384 
L 176.816513 173.01613 
L 177.175228 172.441821 
L 177.533942 172.138267 
L 177.653513 172.206925 
L 178.131799 172.889725 
L 178.490513 172.833842 
L 178.729656 172.870999 
L 178.968799 172.796163 
L 179.088371 172.944758 
L 180.523228 177.298952 
L 180.642799 177.35159 
L 180.881942 177.082216 
L 181.121085 176.790967 
L 181.360228 177.030348 
L 181.718942 177.478725 
L 182.555942 178.194347 
L 182.914656 179.163248 
L 183.034228 179.037607 
L 183.512513 177.83424 
L 183.871228 178.071849 
L 184.229942 178.478232 
L 184.827799 179.693867 
L 185.425656 181.041428 
L 185.545228 181.036152 
L 185.784371 180.234086 
L 186.143085 178.638132 
L 186.382228 178.398767 
L 186.740942 178.48386 
L 186.980085 178.724674 
L 188.295371 181.194731 
L 188.414942 181.082728 
L 189.012799 179.636934 
L 189.371513 179.479375 
L 189.610656 178.902221 
L 190.088942 177.505567 
L 190.328085 177.203516 
L 190.447656 177.167739 
L 190.686799 177.485408 
L 191.165085 178.579097 
L 191.882513 178.914573 
L 192.121656 179.110541 
L 192.241228 179.063622 
L 192.480371 178.584577 
L 192.958656 176.571959 
L 193.436942 174.72994 
L 194.273942 173.610545 
L 194.393513 173.737077 
L 194.632656 174.605257 
L 195.110942 176.460528 
L 195.350085 176.74585 
L 195.469656 176.626343 
L 196.306656 174.740089 
L 196.665371 174.517511 
L 197.024085 174.237209 
L 197.263228 174.530011 
L 197.980656 175.91173 
L 198.219799 176.057624 
L 198.458942 175.697887 
L 198.817656 175.118551 
L 199.056799 175.176731 
L 199.295942 175.260444 
L 199.535085 174.976536 
L 199.893799 174.313579 
L 200.013371 174.3242 
L 200.252513 174.776123 
L 200.611228 175.654183 
L 200.730799 175.737644 
L 200.969942 175.505808 
L 201.209085 175.276776 
L 201.448228 175.519734 
L 201.806942 176.367063 
L 202.763513 179.814241 
L 203.241799 181.646197 
L 203.361371 181.815624 
L 203.480942 181.764263 
L 204.078799 180.773334 
L 204.317942 180.431 
L 204.676656 179.740166 
L 204.796228 179.755274 
L 205.035371 180.166746 
L 205.394085 181.308279 
L 205.872371 183.660756 
L 206.470228 186.461515 
L 206.709371 186.772229 
L 206.828942 186.640077 
L 207.068085 185.814921 
L 207.665942 182.898189 
L 207.785513 182.722831 
L 207.905085 182.752687 
L 208.144228 183.400906 
L 208.622513 186.274464 
L 209.698656 193.782901 
L 209.818228 193.933123 
L 209.937799 193.83895 
L 210.176942 192.940279 
L 210.655228 190.494573 
L 211.372656 189.242689 
L 211.611799 189.200821 
L 211.850942 189.619478 
L 212.329228 190.953901 
L 212.448799 190.943565 
L 213.764085 189.106539 
L 214.242371 188.35759 
L 214.361942 188.418591 
L 214.601085 189.042344 
L 215.438085 193.202922 
L 215.796799 194.824768 
L 215.916371 194.998122 
L 216.035942 194.88068 
L 216.633799 193.47256 
L 217.351228 192.565835 
L 217.949085 192.184427 
L 218.188228 192.006229 
L 218.905656 191.033036 
L 219.264371 190.151063 
L 219.503513 190.314229 
L 220.579656 191.804825 
L 221.536228 193.778 
L 221.775371 193.434663 
L 222.253656 192.646802 
L 222.731942 191.968139 
L 222.971085 191.884181 
L 223.210228 191.44475 
L 223.808085 189.888073 
L 223.927656 189.97809 
L 224.286371 190.62715 
L 224.525513 190.574613 
L 225.003799 190.288622 
L 225.242942 190.28732 
L 225.721228 190.457265 
L 226.079942 190.338113 
L 226.558228 190.378234 
L 226.797371 190.157134 
L 227.156085 189.169962 
L 227.634371 187.827127 
L 227.873513 187.582701 
L 228.112656 187.811691 
L 228.830085 188.945205 
L 229.069228 189.334328 
L 229.308371 189.404975 
L 229.547513 189.281207 
L 229.786656 188.78486 
L 230.025799 188.204293 
L 230.145371 188.133437 
L 230.264942 188.286602 
L 230.623656 189.631743 
L 230.982371 190.71748 
L 231.341085 191.59652 
L 231.699799 192.541204 
L 231.938942 192.623907 
L 232.178085 192.447991 
L 232.417228 191.719227 
L 232.775942 190.224185 
L 232.895513 190.085056 
L 233.373799 190.206753 
L 233.732513 189.851903 
L 233.852085 189.9992 
L 234.569513 192.065671 
L 234.808656 192.024515 
L 235.526085 191.265763 
L 235.765228 191.110365 
L 236.243513 190.363139 
L 236.363085 190.437578 
L 236.602228 190.971295 
L 236.960942 191.902056 
L 237.200085 191.960602 
L 237.439228 191.906453 
L 237.917513 192.14745 
L 238.276228 191.604921 
L 238.515371 191.300518 
L 238.634942 191.278859 
L 238.754513 191.406009 
L 238.993656 192.14991 
L 239.591513 194.343566 
L 240.308942 195.421417 
L 240.548085 195.881082 
L 240.787228 195.780361 
L 241.026371 195.610458 
L 241.265513 195.731498 
L 241.624228 196.227266 
L 241.982942 196.741331 
L 242.341656 196.859213 
L 242.580799 196.739495 
L 242.939513 196.474675 
L 243.178656 196.73817 
L 243.537371 197.241222 
L 243.656942 197.082479 
L 243.896085 196.06884 
L 244.374371 193.866554 
L 245.450513 191.082823 
L 245.689656 190.954936 
L 246.167942 191.540281 
L 246.287513 191.352087 
L 246.526656 190.328514 
L 248.439799 179.096254 
L 249.874656 167.004821 
L 250.113799 166.304802 
L 250.233371 166.292767 
L 250.472513 167.059852 
L 250.950799 169.279987 
L 251.309513 169.863351 
L 251.787799 170.595887 
L 251.907371 170.467108 
L 252.505228 169.010487 
L 253.342228 170.094491 
L 253.581371 170.398699 
L 253.820513 169.997157 
L 254.179228 168.495877 
L 254.537942 165.460295 
L 255.135799 156.66882 
L 255.614085 148.091099 
L 256.331513 129.511837 
L 256.929371 107.306898 
L 258.125085 59.013872 
L 258.483799 51.36855 
L 258.722942 49.046343 
L 258.842513 48.907722 
L 258.962085 49.577572 
L 259.201228 53.163754 
L 259.559942 62.846507 
L 260.157799 88.124759 
L 261.473085 146.304194 
L 262.070942 163.208306 
L 262.549228 171.693882 
L 263.027513 176.434936 
L 263.625371 180.728093 
L 265.179799 188.680822 
L 265.538513 190.059554 
L 265.897228 191.384287 
L 266.016799 191.470132 
L 266.375513 191.189342 
L 266.614656 190.949428 
L 267.212513 189.977888 
L 267.451656 190.109737 
L 267.690799 189.855129 
L 267.810371 189.72644 
L 267.929942 189.762622 
L 268.288656 190.369621 
L 268.527799 190.11153 
L 268.647371 189.988153 
L 268.766942 190.089414 
L 270.082228 193.604113 
L 270.680085 193.922996 
L 270.919228 193.485661 
L 271.277942 192.592657 
L 271.397513 192.64164 
L 271.636656 193.371 
L 272.354085 195.700321 
L 272.593228 195.976497 
L 272.951942 195.741199 
L 273.071513 195.751903 
L 273.191085 195.622563 
L 273.430228 194.643256 
L 273.788942 193.130001 
L 274.267228 192.376531 
L 274.386799 192.454703 
L 274.984656 193.725489 
L 275.343371 193.585547 
L 275.582513 193.780573 
L 275.821656 194.035825 
L 275.941228 193.979371 
L 276.539085 193.016453 
L 276.897799 193.557717 
L 277.256513 194.748916 
L 277.495656 195.272884 
L 277.615228 195.22152 
L 277.973942 194.561798 
L 278.332656 193.200717 
L 279.050085 190.509414 
L 279.289228 189.998265 
L 279.408799 189.962389 
L 279.647942 190.264292 
L 280.484942 192.498474 
L 280.724085 192.263785 
L 281.082799 191.705 
L 281.441513 191.462494 
L 281.680656 190.982695 
L 282.278513 189.387515 
L 282.398085 189.401405 
L 282.756799 189.957562 
L 283.115513 190.531139 
L 283.354656 190.513348 
L 283.713371 190.368758 
L 283.832942 190.317628 
L 284.072085 189.828084 
L 285.267799 186.209825 
L 286.702656 184.926713 
L 287.061371 184.40659 
L 287.300513 184.523216 
L 287.420085 184.407825 
L 287.659228 183.502285 
L 288.017942 182.297416 
L 288.615799 181.933262 
L 288.854942 182.017745 
L 290.050656 183.380895 
L 290.289799 182.75814 
L 290.768085 181.22677 
L 291.365942 179.892086 
L 291.844228 178.729488 
L 292.083371 178.581915 
L 292.322513 178.91722 
L 292.681228 179.432568 
L 293.637799 180.387982 
L 293.876942 180.661219 
L 294.474799 180.588294 
L 294.713942 180.687348 
L 295.072656 180.705406 
L 295.670513 180.916761 
L 295.790085 180.857852 
L 296.387942 180.014198 
L 296.627085 179.844681 
L 297.105371 179.032881 
L 297.344513 179.003629 
L 297.583656 179.141354 
L 298.061942 179.58404 
L 298.659799 179.728471 
L 298.898942 179.331014 
L 299.018513 179.303524 
L 299.377228 179.614157 
L 299.616371 179.434859 
L 300.333799 178.164098 
L 300.931656 177.820123 
L 301.170799 177.816524 
L 301.529513 177.177871 
L 301.649085 177.322555 
L 302.246942 179.498699 
L 302.486085 179.330519 
L 302.725228 179.141759 
L 303.203513 179.048136 
L 303.442656 178.97187 
L 303.920942 179.043319 
L 304.040513 179.054715 
L 304.279656 179.474127 
L 304.638371 180.29127 
L 304.757942 180.262423 
L 305.236228 179.619944 
L 305.475371 180.239028 
L 305.834085 181.119828 
L 306.192799 181.393397 
L 306.790656 182.124269 
L 306.910228 182.033815 
L 307.149371 181.086226 
L 307.747228 178.017781 
L 307.986371 177.802363 
L 308.225513 178.157441 
L 308.703799 179.453368 
L 309.062513 180.272098 
L 309.301656 180.18312 
L 309.540799 179.934111 
L 309.779942 179.011362 
L 310.258228 176.517612 
L 310.497371 176.368977 
L 310.736513 176.699468 
L 311.334371 177.822805 
L 311.453942 177.862931 
L 311.573513 177.711512 
L 312.051799 176.255201 
L 312.410513 176.343979 
L 312.649656 175.710822 
L 312.888799 175.267875 
L 313.008371 175.507725 
L 313.486656 177.289242 
L 313.606228 177.350571 
L 313.845371 177.068172 
L 314.204085 176.532054 
L 314.443228 176.486905 
L 314.682371 176.914731 
L 315.041085 177.676179 
L 315.280228 177.630455 
L 315.519371 177.608956 
L 315.758513 178.125749 
L 315.997656 178.686375 
L 316.117228 178.648332 
L 316.715085 177.430235 
L 316.954228 177.371201 
L 317.193371 177.560911 
L 317.432513 177.83261 
L 317.552085 177.765139 
L 318.030371 176.882696 
L 318.269513 177.00609 
L 318.628228 177.194693 
L 318.986942 177.309355 
L 319.226085 177.828721 
L 319.584799 178.832525 
L 319.823942 178.725767 
L 320.063085 178.40533 
L 320.302228 177.643021 
L 321.019656 174.775402 
L 321.258799 174.483615 
L 321.497942 174.783036 
L 322.095799 175.871994 
L 322.454513 176.362384 
L 322.693656 176.642586 
L 322.932799 176.575775 
L 323.530656 176.020936 
L 323.650228 176.082054 
L 323.889371 176.770512 
L 324.367656 178.173033 
L 324.606799 178.331255 
L 324.845942 177.750095 
L 325.085085 177.192476 
L 325.443799 176.87129 
L 326.041656 175.978029 
L 326.400371 175.4927 
L 326.639513 175.347965 
L 326.878656 175.026449 
L 326.998228 175.03331 
L 327.476513 175.792531 
L 327.835228 175.667782 
L 328.074371 176.162839 
L 328.433085 177.245558 
L 328.552656 177.321499 
L 329.509228 176.822673 
L 330.346228 176.742866 
L 330.585371 176.926445 
L 331.183228 177.772274 
L 331.302799 177.810136 
L 331.422371 177.98649 
L 331.661513 179.003525 
L 332.020228 180.340852 
L 332.139799 180.327071 
L 332.378942 179.812471 
L 332.976799 178.009224 
L 333.813799 177.082188 
L 333.933371 177.260012 
L 334.172513 178.448498 
L 334.770371 182.327432 
L 335.129085 182.942461 
L 335.248656 182.953858 
L 335.487799 182.432967 
L 336.085656 180.608244 
L 336.563942 179.323916 
L 336.683513 179.45005 
L 337.759656 182.655837 
L 338.118371 183.073119 
L 338.477085 183.554667 
L 338.716228 183.805464 
L 338.955371 183.494824 
L 339.194513 183.226012 
L 339.433656 183.595114 
L 339.672799 183.901465 
L 339.911942 183.499667 
L 340.151085 183.217669 
L 340.509799 183.22385 
L 340.629371 183.190018 
L 340.748942 183.324983 
L 341.107656 184.84822 
L 341.346799 185.342131 
L 341.585942 184.748019 
L 341.944656 183.833153 
L 342.183799 183.989494 
L 342.422942 184.087298 
L 343.020799 183.642612 
L 343.618656 181.847284 
L 343.857799 181.871833 
L 344.096942 181.598432 
L 344.694799 180.660839 
L 344.933942 181.587377 
L 345.412228 184.129881 
L 345.651371 184.424358 
L 346.010085 184.174329 
L 346.249228 183.83383 
L 346.607942 183.055176 
L 346.727513 183.098214 
L 347.086228 183.462483 
L 347.325371 183.40536 
L 347.444942 183.557717 
L 348.162371 185.412452 
L 348.521085 185.19115 
L 348.760228 185.363311 
L 348.879799 185.297117 
L 349.238513 184.5544 
L 349.358085 184.660714 
L 349.716799 185.525513 
L 350.195085 185.482808 
L 350.673371 186.013988 
L 351.032085 186.170656 
L 351.271228 186.070887 
L 351.510371 185.745957 
L 352.347371 184.210001 
L 352.586513 183.894153 
L 352.706085 183.901619 
L 352.945228 184.53306 
L 353.782228 187.320589 
L 354.021371 187.59707 
L 354.260513 187.714662 
L 354.499656 188.111582 
L 354.858371 188.753865 
L 354.977942 188.70087 
L 355.814942 187.237878 
L 356.173656 186.120805 
L 356.293228 186.114628 
L 357.130228 187.231723 
L 357.488942 188.258256 
L 357.608513 188.20372 
L 357.847656 187.747351 
L 357.967228 187.733862 
L 358.206371 188.349188 
L 358.445513 188.900008 
L 359.162942 189.25031 
L 359.402085 189.272603 
L 359.641228 188.846409 
L 360.478228 185.977636 
L 360.597799 185.997512 
L 360.836942 186.853604 
L 361.195656 188.151921 
L 361.554371 189.265826 
L 361.913085 190.270107 
L 362.510942 190.939971 
L 362.869656 191.002849 
L 363.587085 191.550294 
L 363.826228 191.891316 
L 364.184942 192.071844 
L 365.021942 193.981826 
L 365.380656 195.466081 
L 365.619799 195.672766 
L 366.456799 195.683954 
L 366.695942 195.534542 
L 366.935085 194.954342 
L 367.532942 193.283248 
L 368.369942 191.951949 
L 368.728656 191.957704 
L 368.967799 192.340448 
L 369.565656 193.883345 
L 369.804799 193.859802 
L 370.163513 193.816362 
L 370.522228 194.097079 
L 371.000513 194.553922 
L 371.239656 194.525352 
L 371.837513 193.926244 
L 372.076656 193.86815 
L 372.435371 193.300843 
L 373.033228 192.096556 
L 373.272371 192.168545 
L 374.587656 192.168545 
L 374.587656 192.168545 
" clip-path="url(#p06c4c2f34e)" style="fill: none; stroke: #1f77b4; stroke-linecap: round"/>
   </g>
   <g id="patch_3">
    <path d="M 56.527656 228.819141 
L 56.527656 11.379141 
" style="fill: none; stroke: #262626; stroke-width: 1.25; stroke-linejoin: miter; stroke-linecap: square"/>
   </g>
   <g id="patch_4">
    <path d="M 56.527656 228.819141 
L 391.327656 228.819141 
" style="fill: none; stroke: #262626; stroke-width: 1.25; stroke-linejoin: miter; stroke-linecap: square"/>
   </g>
   <g id="legend_1"/>
  </g>
 </g>
 <defs>
  <clipPath id="p06c4c2f34e">
   <rect x="56.527656" y="11.379141" width="334.8" height="217.44"/>
  </clipPath>
 </defs>
</svg>
