<?xml version="1.0" encoding="utf-8" standalone="no"?>
<!DOCTYPE svg PUBLIC "-//W3C//DTD SVG 1.1//EN"
  "http://www.w3.org/Graphics/SVG/1.1/DTD/svg11.dtd">
<svg xmlns:xlink="http://www.w3.org/1999/xlink" width="438.998125pt" height="317.988562pt" viewBox="0 0 438.998125 317.988562" xmlns="http://www.w3.org/2000/svg" version="1.1">
 <metadata>
  <rdf:RDF xmlns:dc="http://purl.org/dc/elements/1.1/" xmlns:cc="http://creativecommons.org/ns#" xmlns:rdf="http://www.w3.org/1999/02/22-rdf-syntax-ns#">
   <cc:Work>
    <dc:type rdf:resource="http://purl.org/dc/dcmitype/StillImage"/>
    <dc:date>2024-02-20T16:01:12.919277</dc:date>
    <dc:format>image/svg+xml</dc:format>
    <dc:creator>
     <cc:Agent>
      <dc:title>Matplotlib v3.7.1, https://matplotlib.org/</dc:title>
     </cc:Agent>
    </dc:creator>
   </cc:Work>
  </rdf:RDF>
 </metadata>
 <defs>
  <style type="text/css">*{stroke-linejoin: round; stroke-linecap: butt}</style>
 </defs>
 <g id="figure_1">
  <g id="patch_1">
   <path d="M 0 317.988562 
L 438.998125 317.988562 
L 438.998125 0 
L 0 0 
z
" style="fill: #ffffff"/>
  </g>
  <g id="axes_1">
   <g id="patch_2">
    <path d="M 46.678125 283.910437 
L 403.798125 283.910437 
L 403.798125 17.798437 
L 46.678125 17.798437 
z
" style="fill: #ffffff"/>
   </g>
   <g id="matplotlib.axis_1">
    <g id="xtick_1">
     <g id="line2d_1">
      <defs>
       <path id="mfa91ecfa25" d="M 0 0 
L 0 -3.5 
" style="stroke: #000000; stroke-width: 0.8"/>
      </defs>
      <g>
       <use xlink:href="#mfa91ecfa25" x="46.678125" y="283.910437" style="stroke: #000000; stroke-width: 0.8"/>
      </g>
     </g>
     <g id="text_1">
      <!-- −60 -->
      <g transform="translate(36.125781 295.008875) scale(0.1 -0.1)">
       <defs>
        <path id="DejaVuSans-2212" d="M 678 2272 
L 4684 2272 
L 4684 1741 
L 678 1741 
L 678 2272 
z
" transform="scale(0.015625)"/>
        <path id="DejaVuSans-36" d="M 2113 2584 
Q 1688 2584 1439 2293 
Q 1191 2003 1191 1497 
Q 1191 994 1439 701 
Q 1688 409 2113 409 
Q 2538 409 2786 701 
Q 3034 994 3034 1497 
Q 3034 2003 2786 2293 
Q 2538 2584 2113 2584 
z
M 3366 4563 
L 3366 3988 
Q 3128 4100 2886 4159 
Q 2644 4219 2406 4219 
Q 1781 4219 1451 3797 
Q 1122 3375 1075 2522 
Q 1259 2794 1537 2939 
Q 1816 3084 2150 3084 
Q 2853 3084 3261 2657 
Q 3669 2231 3669 1497 
Q 3669 778 3244 343 
Q 2819 -91 2113 -91 
Q 1303 -91 875 529 
Q 447 1150 447 2328 
Q 447 3434 972 4092 
Q 1497 4750 2381 4750 
Q 2619 4750 2861 4703 
Q 3103 4656 3366 4563 
z
" transform="scale(0.015625)"/>
        <path id="DejaVuSans-30" d="M 2034 4250 
Q 1547 4250 1301 3770 
Q 1056 3291 1056 2328 
Q 1056 1369 1301 889 
Q 1547 409 2034 409 
Q 2525 409 2770 889 
Q 3016 1369 3016 2328 
Q 3016 3291 2770 3770 
Q 2525 4250 2034 4250 
z
M 2034 4750 
Q 2819 4750 3233 4129 
Q 3647 3509 3647 2328 
Q 3647 1150 3233 529 
Q 2819 -91 2034 -91 
Q 1250 -91 836 529 
Q 422 1150 422 2328 
Q 422 3509 836 4129 
Q 1250 4750 2034 4750 
z
" transform="scale(0.015625)"/>
       </defs>
       <use xlink:href="#DejaVuSans-2212"/>
       <use xlink:href="#DejaVuSans-36" x="83.789062"/>
       <use xlink:href="#DejaVuSans-30" x="147.412109"/>
      </g>
     </g>
    </g>
    <g id="xtick_2">
     <g id="line2d_2">
      <g>
       <use xlink:href="#mfa91ecfa25" x="101.619663" y="283.910437" style="stroke: #000000; stroke-width: 0.8"/>
      </g>
     </g>
     <g id="text_2">
      <!-- −50 -->
      <g transform="translate(91.06732 295.008875) scale(0.1 -0.1)">
       <defs>
        <path id="DejaVuSans-35" d="M 691 4666 
L 3169 4666 
L 3169 4134 
L 1269 4134 
L 1269 2991 
Q 1406 3038 1543 3061 
Q 1681 3084 1819 3084 
Q 2600 3084 3056 2656 
Q 3513 2228 3513 1497 
Q 3513 744 3044 326 
Q 2575 -91 1722 -91 
Q 1428 -91 1123 -41 
Q 819 9 494 109 
L 494 744 
Q 775 591 1075 516 
Q 1375 441 1709 441 
Q 2250 441 2565 725 
Q 2881 1009 2881 1497 
Q 2881 1984 2565 2268 
Q 2250 2553 1709 2553 
Q 1456 2553 1204 2497 
Q 953 2441 691 2322 
L 691 4666 
z
" transform="scale(0.015625)"/>
       </defs>
       <use xlink:href="#DejaVuSans-2212"/>
       <use xlink:href="#DejaVuSans-35" x="83.789062"/>
       <use xlink:href="#DejaVuSans-30" x="147.412109"/>
      </g>
     </g>
    </g>
    <g id="xtick_3">
     <g id="line2d_3">
      <g>
       <use xlink:href="#mfa91ecfa25" x="156.561202" y="283.910437" style="stroke: #000000; stroke-width: 0.8"/>
      </g>
     </g>
     <g id="text_3">
      <!-- −40 -->
      <g transform="translate(146.008858 295.008875) scale(0.1 -0.1)">
       <defs>
        <path id="DejaVuSans-34" d="M 2419 4116 
L 825 1625 
L 2419 1625 
L 2419 4116 
z
M 2253 4666 
L 3047 4666 
L 3047 1625 
L 3713 1625 
L 3713 1100 
L 3047 1100 
L 3047 0 
L 2419 0 
L 2419 1100 
L 313 1100 
L 313 1709 
L 2253 4666 
z
" transform="scale(0.015625)"/>
       </defs>
       <use xlink:href="#DejaVuSans-2212"/>
       <use xlink:href="#DejaVuSans-34" x="83.789062"/>
       <use xlink:href="#DejaVuSans-30" x="147.412109"/>
      </g>
     </g>
    </g>
    <g id="xtick_4">
     <g id="line2d_4">
      <g>
       <use xlink:href="#mfa91ecfa25" x="211.50274" y="283.910437" style="stroke: #000000; stroke-width: 0.8"/>
      </g>
     </g>
     <g id="text_4">
      <!-- −30 -->
      <g transform="translate(200.950397 295.008875) scale(0.1 -0.1)">
       <defs>
        <path id="DejaVuSans-33" d="M 2597 2516 
Q 3050 2419 3304 2112 
Q 3559 1806 3559 1356 
Q 3559 666 3084 287 
Q 2609 -91 1734 -91 
Q 1441 -91 1130 -33 
Q 819 25 488 141 
L 488 750 
Q 750 597 1062 519 
Q 1375 441 1716 441 
Q 2309 441 2620 675 
Q 2931 909 2931 1356 
Q 2931 1769 2642 2001 
Q 2353 2234 1838 2234 
L 1294 2234 
L 1294 2753 
L 1863 2753 
Q 2328 2753 2575 2939 
Q 2822 3125 2822 3475 
Q 2822 3834 2567 4026 
Q 2313 4219 1838 4219 
Q 1578 4219 1281 4162 
Q 984 4106 628 3988 
L 628 4550 
Q 988 4650 1302 4700 
Q 1616 4750 1894 4750 
Q 2613 4750 3031 4423 
Q 3450 4097 3450 3541 
Q 3450 3153 3228 2886 
Q 3006 2619 2597 2516 
z
" transform="scale(0.015625)"/>
       </defs>
       <use xlink:href="#DejaVuSans-2212"/>
       <use xlink:href="#DejaVuSans-33" x="83.789062"/>
       <use xlink:href="#DejaVuSans-30" x="147.412109"/>
      </g>
     </g>
    </g>
    <g id="xtick_5">
     <g id="line2d_5">
      <g>
       <use xlink:href="#mfa91ecfa25" x="266.444279" y="283.910437" style="stroke: #000000; stroke-width: 0.8"/>
      </g>
     </g>
     <g id="text_5">
      <!-- −20 -->
      <g transform="translate(255.891935 295.008875) scale(0.1 -0.1)">
       <defs>
        <path id="DejaVuSans-32" d="M 1228 531 
L 3431 531 
L 3431 0 
L 469 0 
L 469 531 
Q 828 903 1448 1529 
Q 2069 2156 2228 2338 
Q 2531 2678 2651 2914 
Q 2772 3150 2772 3378 
Q 2772 3750 2511 3984 
Q 2250 4219 1831 4219 
Q 1534 4219 1204 4116 
Q 875 4013 500 3803 
L 500 4441 
Q 881 4594 1212 4672 
Q 1544 4750 1819 4750 
Q 2544 4750 2975 4387 
Q 3406 4025 3406 3419 
Q 3406 3131 3298 2873 
Q 3191 2616 2906 2266 
Q 2828 2175 2409 1742 
Q 1991 1309 1228 531 
z
" transform="scale(0.015625)"/>
       </defs>
       <use xlink:href="#DejaVuSans-2212"/>
       <use xlink:href="#DejaVuSans-32" x="83.789062"/>
       <use xlink:href="#DejaVuSans-30" x="147.412109"/>
      </g>
     </g>
    </g>
    <g id="xtick_6">
     <g id="line2d_6">
      <g>
       <use xlink:href="#mfa91ecfa25" x="321.385817" y="283.910437" style="stroke: #000000; stroke-width: 0.8"/>
      </g>
     </g>
     <g id="text_6">
      <!-- −10 -->
      <g transform="translate(310.833474 295.008875) scale(0.1 -0.1)">
       <defs>
        <path id="DejaVuSans-31" d="M 794 531 
L 1825 531 
L 1825 4091 
L 703 3866 
L 703 4441 
L 1819 4666 
L 2450 4666 
L 2450 531 
L 3481 531 
L 3481 0 
L 794 0 
L 794 531 
z
" transform="scale(0.015625)"/>
       </defs>
       <use xlink:href="#DejaVuSans-2212"/>
       <use xlink:href="#DejaVuSans-31" x="83.789062"/>
       <use xlink:href="#DejaVuSans-30" x="147.412109"/>
      </g>
     </g>
    </g>
    <g id="xtick_7">
     <g id="line2d_7">
      <g>
       <use xlink:href="#mfa91ecfa25" x="376.327356" y="283.910437" style="stroke: #000000; stroke-width: 0.8"/>
      </g>
     </g>
     <g id="text_7">
      <!-- 0 -->
      <g transform="translate(373.146106 295.008875) scale(0.1 -0.1)">
       <use xlink:href="#DejaVuSans-30"/>
      </g>
     </g>
    </g>
    <g id="xtick_8">
     <g id="line2d_8">
      <defs>
       <path id="m6104e50a1a" d="M 0 0 
L 0 -4 
" style="stroke: #000000; stroke-width: 0.6"/>
      </defs>
      <g>
       <use xlink:href="#m6104e50a1a" x="74.148894" y="283.910437" style="stroke: #000000; stroke-width: 0.6"/>
      </g>
     </g>
    </g>
    <g id="xtick_9">
     <g id="line2d_9">
      <g>
       <use xlink:href="#m6104e50a1a" x="129.090433" y="283.910437" style="stroke: #000000; stroke-width: 0.6"/>
      </g>
     </g>
    </g>
    <g id="xtick_10">
     <g id="line2d_10">
      <g>
       <use xlink:href="#m6104e50a1a" x="184.031971" y="283.910437" style="stroke: #000000; stroke-width: 0.6"/>
      </g>
     </g>
    </g>
    <g id="xtick_11">
     <g id="line2d_11">
      <g>
       <use xlink:href="#m6104e50a1a" x="238.97351" y="283.910437" style="stroke: #000000; stroke-width: 0.6"/>
      </g>
     </g>
    </g>
    <g id="xtick_12">
     <g id="line2d_12">
      <g>
       <use xlink:href="#m6104e50a1a" x="293.915048" y="283.910437" style="stroke: #000000; stroke-width: 0.6"/>
      </g>
     </g>
    </g>
    <g id="xtick_13">
     <g id="line2d_13">
      <g>
       <use xlink:href="#m6104e50a1a" x="348.856587" y="283.910437" style="stroke: #000000; stroke-width: 0.6"/>
      </g>
     </g>
    </g>
    <g id="xtick_14">
     <g id="line2d_14">
      <g>
       <use xlink:href="#m6104e50a1a" x="403.798125" y="283.910437" style="stroke: #000000; stroke-width: 0.6"/>
      </g>
     </g>
    </g>
    <g id="text_8">
     <!-- Gate Voltage, $\mathregular{V_{G}}$ (V) -->
     <g transform="translate(174.088125 308.688562) scale(0.1 -0.1)">
      <defs>
       <path id="DejaVuSans-47" d="M 3809 666 
L 3809 1919 
L 2778 1919 
L 2778 2438 
L 4434 2438 
L 4434 434 
Q 4069 175 3628 42 
Q 3188 -91 2688 -91 
Q 1594 -91 976 548 
Q 359 1188 359 2328 
Q 359 3472 976 4111 
Q 1594 4750 2688 4750 
Q 3144 4750 3555 4637 
Q 3966 4525 4313 4306 
L 4313 3634 
Q 3963 3931 3569 4081 
Q 3175 4231 2741 4231 
Q 1884 4231 1454 3753 
Q 1025 3275 1025 2328 
Q 1025 1384 1454 906 
Q 1884 428 2741 428 
Q 3075 428 3337 486 
Q 3600 544 3809 666 
z
" transform="scale(0.015625)"/>
       <path id="DejaVuSans-61" d="M 2194 1759 
Q 1497 1759 1228 1600 
Q 959 1441 959 1056 
Q 959 750 1161 570 
Q 1363 391 1709 391 
Q 2188 391 2477 730 
Q 2766 1069 2766 1631 
L 2766 1759 
L 2194 1759 
z
M 3341 1997 
L 3341 0 
L 2766 0 
L 2766 531 
Q 2569 213 2275 61 
Q 1981 -91 1556 -91 
Q 1019 -91 701 211 
Q 384 513 384 1019 
Q 384 1609 779 1909 
Q 1175 2209 1959 2209 
L 2766 2209 
L 2766 2266 
Q 2766 2663 2505 2880 
Q 2244 3097 1772 3097 
Q 1472 3097 1187 3025 
Q 903 2953 641 2809 
L 641 3341 
Q 956 3463 1253 3523 
Q 1550 3584 1831 3584 
Q 2591 3584 2966 3190 
Q 3341 2797 3341 1997 
z
" transform="scale(0.015625)"/>
       <path id="DejaVuSans-74" d="M 1172 4494 
L 1172 3500 
L 2356 3500 
L 2356 3053 
L 1172 3053 
L 1172 1153 
Q 1172 725 1289 603 
Q 1406 481 1766 481 
L 2356 481 
L 2356 0 
L 1766 0 
Q 1100 0 847 248 
Q 594 497 594 1153 
L 594 3053 
L 172 3053 
L 172 3500 
L 594 3500 
L 594 4494 
L 1172 4494 
z
" transform="scale(0.015625)"/>
       <path id="DejaVuSans-65" d="M 3597 1894 
L 3597 1613 
L 953 1613 
Q 991 1019 1311 708 
Q 1631 397 2203 397 
Q 2534 397 2845 478 
Q 3156 559 3463 722 
L 3463 178 
Q 3153 47 2828 -22 
Q 2503 -91 2169 -91 
Q 1331 -91 842 396 
Q 353 884 353 1716 
Q 353 2575 817 3079 
Q 1281 3584 2069 3584 
Q 2775 3584 3186 3129 
Q 3597 2675 3597 1894 
z
M 3022 2063 
Q 3016 2534 2758 2815 
Q 2500 3097 2075 3097 
Q 1594 3097 1305 2825 
Q 1016 2553 972 2059 
L 3022 2063 
z
" transform="scale(0.015625)"/>
       <path id="DejaVuSans-20" transform="scale(0.015625)"/>
       <path id="DejaVuSans-56" d="M 1831 0 
L 50 4666 
L 709 4666 
L 2188 738 
L 3669 4666 
L 4325 4666 
L 2547 0 
L 1831 0 
z
" transform="scale(0.015625)"/>
       <path id="DejaVuSans-6f" d="M 1959 3097 
Q 1497 3097 1228 2736 
Q 959 2375 959 1747 
Q 959 1119 1226 758 
Q 1494 397 1959 397 
Q 2419 397 2687 759 
Q 2956 1122 2956 1747 
Q 2956 2369 2687 2733 
Q 2419 3097 1959 3097 
z
M 1959 3584 
Q 2709 3584 3137 3096 
Q 3566 2609 3566 1747 
Q 3566 888 3137 398 
Q 2709 -91 1959 -91 
Q 1206 -91 779 398 
Q 353 888 353 1747 
Q 353 2609 779 3096 
Q 1206 3584 1959 3584 
z
" transform="scale(0.015625)"/>
       <path id="DejaVuSans-6c" d="M 603 4863 
L 1178 4863 
L 1178 0 
L 603 0 
L 603 4863 
z
" transform="scale(0.015625)"/>
       <path id="DejaVuSans-67" d="M 2906 1791 
Q 2906 2416 2648 2759 
Q 2391 3103 1925 3103 
Q 1463 3103 1205 2759 
Q 947 2416 947 1791 
Q 947 1169 1205 825 
Q 1463 481 1925 481 
Q 2391 481 2648 825 
Q 2906 1169 2906 1791 
z
M 3481 434 
Q 3481 -459 3084 -895 
Q 2688 -1331 1869 -1331 
Q 1566 -1331 1297 -1286 
Q 1028 -1241 775 -1147 
L 775 -588 
Q 1028 -725 1275 -790 
Q 1522 -856 1778 -856 
Q 2344 -856 2625 -561 
Q 2906 -266 2906 331 
L 2906 616 
Q 2728 306 2450 153 
Q 2172 0 1784 0 
Q 1141 0 747 490 
Q 353 981 353 1791 
Q 353 2603 747 3093 
Q 1141 3584 1784 3584 
Q 2172 3584 2450 3431 
Q 2728 3278 2906 2969 
L 2906 3500 
L 3481 3500 
L 3481 434 
z
" transform="scale(0.015625)"/>
       <path id="DejaVuSans-2c" d="M 750 794 
L 1409 794 
L 1409 256 
L 897 -744 
L 494 -744 
L 750 256 
L 750 794 
z
" transform="scale(0.015625)"/>
       <path id="DejaVuSans-28" d="M 1984 4856 
Q 1566 4138 1362 3434 
Q 1159 2731 1159 2009 
Q 1159 1288 1364 580 
Q 1569 -128 1984 -844 
L 1484 -844 
Q 1016 -109 783 600 
Q 550 1309 550 2009 
Q 550 2706 781 3412 
Q 1013 4119 1484 4856 
L 1984 4856 
z
" transform="scale(0.015625)"/>
       <path id="DejaVuSans-29" d="M 513 4856 
L 1013 4856 
Q 1481 4119 1714 3412 
Q 1947 2706 1947 2009 
Q 1947 1309 1714 600 
Q 1481 -109 1013 -844 
L 513 -844 
Q 928 -128 1133 580 
Q 1338 1288 1338 2009 
Q 1338 2731 1133 3434 
Q 928 4138 513 4856 
z
" transform="scale(0.015625)"/>
      </defs>
      <use xlink:href="#DejaVuSans-47" transform="translate(0 0.015625)"/>
      <use xlink:href="#DejaVuSans-61" transform="translate(77.490234 0.015625)"/>
      <use xlink:href="#DejaVuSans-74" transform="translate(138.769531 0.015625)"/>
      <use xlink:href="#DejaVuSans-65" transform="translate(177.978516 0.015625)"/>
      <use xlink:href="#DejaVuSans-20" transform="translate(239.501953 0.015625)"/>
      <use xlink:href="#DejaVuSans-56" transform="translate(271.289062 0.015625)"/>
      <use xlink:href="#DejaVuSans-6f" transform="translate(339.697266 0.015625)"/>
      <use xlink:href="#DejaVuSans-6c" transform="translate(400.878906 0.015625)"/>
      <use xlink:href="#DejaVuSans-74" transform="translate(428.662109 0.015625)"/>
      <use xlink:href="#DejaVuSans-61" transform="translate(467.871094 0.015625)"/>
      <use xlink:href="#DejaVuSans-67" transform="translate(529.150391 0.015625)"/>
      <use xlink:href="#DejaVuSans-65" transform="translate(592.626953 0.015625)"/>
      <use xlink:href="#DejaVuSans-2c" transform="translate(654.150391 0.015625)"/>
      <use xlink:href="#DejaVuSans-20" transform="translate(685.9375 0.015625)"/>
      <use xlink:href="#DejaVuSans-56" transform="translate(717.724609 0.015625)"/>
      <use xlink:href="#DejaVuSans-47" transform="translate(787.089844 -16.390625) scale(0.7)"/>
      <use xlink:href="#DejaVuSans-20" transform="translate(844.067383 0.015625)"/>
      <use xlink:href="#DejaVuSans-28" transform="translate(875.854492 0.015625)"/>
      <use xlink:href="#DejaVuSans-56" transform="translate(914.868164 0.015625)"/>
      <use xlink:href="#DejaVuSans-29" transform="translate(983.276367 0.015625)"/>
     </g>
    </g>
   </g>
   <g id="matplotlib.axis_2">
    <g id="ytick_1">
     <g id="line2d_15">
      <defs>
       <path id="mc18d8ace91" d="M 0 0 
L 3.5 0 
" style="stroke: #000000; stroke-width: 0.8"/>
      </defs>
      <g>
       <use xlink:href="#mc18d8ace91" x="46.678125" y="235.576105" style="stroke: #000000; stroke-width: 0.8"/>
      </g>
     </g>
     <g id="text_9">
      <!-- $\mathdefault{0.00}$ -->
      <g transform="translate(20.878125 239.375323) scale(0.1 -0.1)">
       <defs>
        <path id="DejaVuSans-2e" d="M 684 794 
L 1344 794 
L 1344 0 
L 684 0 
L 684 794 
z
" transform="scale(0.015625)"/>
       </defs>
       <use xlink:href="#DejaVuSans-30" transform="translate(0 0.78125)"/>
       <use xlink:href="#DejaVuSans-2e" transform="translate(63.623047 0.78125)"/>
       <use xlink:href="#DejaVuSans-30" transform="translate(95.410156 0.78125)"/>
       <use xlink:href="#DejaVuSans-30" transform="translate(159.033203 0.78125)"/>
      </g>
     </g>
    </g>
    <g id="ytick_2">
     <g id="line2d_16">
      <g>
       <use xlink:href="#mc18d8ace91" x="46.678125" y="173.529841" style="stroke: #000000; stroke-width: 0.8"/>
      </g>
     </g>
     <g id="text_10">
      <!-- $\mathdefault{0.01}$ -->
      <g transform="translate(20.878125 177.329059) scale(0.1 -0.1)">
       <use xlink:href="#DejaVuSans-30" transform="translate(0 0.78125)"/>
       <use xlink:href="#DejaVuSans-2e" transform="translate(63.623047 0.78125)"/>
       <use xlink:href="#DejaVuSans-30" transform="translate(95.410156 0.78125)"/>
       <use xlink:href="#DejaVuSans-31" transform="translate(159.033203 0.78125)"/>
      </g>
     </g>
    </g>
    <g id="ytick_3">
     <g id="line2d_17">
      <g>
       <use xlink:href="#mc18d8ace91" x="46.678125" y="111.483577" style="stroke: #000000; stroke-width: 0.8"/>
      </g>
     </g>
     <g id="text_11">
      <!-- $\mathdefault{0.10}$ -->
      <g transform="translate(20.878125 115.282795) scale(0.1 -0.1)">
       <use xlink:href="#DejaVuSans-30" transform="translate(0 0.78125)"/>
       <use xlink:href="#DejaVuSans-2e" transform="translate(63.623047 0.78125)"/>
       <use xlink:href="#DejaVuSans-31" transform="translate(95.410156 0.78125)"/>
       <use xlink:href="#DejaVuSans-30" transform="translate(159.033203 0.78125)"/>
      </g>
     </g>
    </g>
    <g id="ytick_4">
     <g id="line2d_18">
      <g>
       <use xlink:href="#mc18d8ace91" x="46.678125" y="49.437313" style="stroke: #000000; stroke-width: 0.8"/>
      </g>
     </g>
     <g id="text_12">
      <!-- $\mathdefault{1.00}$ -->
      <g transform="translate(20.878125 53.236531) scale(0.1 -0.1)">
       <use xlink:href="#DejaVuSans-31" transform="translate(0 0.78125)"/>
       <use xlink:href="#DejaVuSans-2e" transform="translate(63.623047 0.78125)"/>
       <use xlink:href="#DejaVuSans-30" transform="translate(95.410156 0.78125)"/>
       <use xlink:href="#DejaVuSans-30" transform="translate(159.033203 0.78125)"/>
      </g>
     </g>
    </g>
    <g id="text_13">
     <!-- -$\mathregular{I_{D}}$ (A) -->
     <g transform="translate(14.798438 165.954437) rotate(-90) scale(0.1 -0.1)">
      <defs>
       <path id="DejaVuSans-2d" d="M 313 2009 
L 1997 2009 
L 1997 1497 
L 313 1497 
L 313 2009 
z
" transform="scale(0.015625)"/>
       <path id="DejaVuSans-49" d="M 628 4666 
L 1259 4666 
L 1259 0 
L 628 0 
L 628 4666 
z
" transform="scale(0.015625)"/>
       <path id="DejaVuSans-44" d="M 1259 4147 
L 1259 519 
L 2022 519 
Q 2988 519 3436 956 
Q 3884 1394 3884 2338 
Q 3884 3275 3436 3711 
Q 2988 4147 2022 4147 
L 1259 4147 
z
M 628 4666 
L 1925 4666 
Q 3281 4666 3915 4102 
Q 4550 3538 4550 2338 
Q 4550 1131 3912 565 
Q 3275 0 1925 0 
L 628 0 
L 628 4666 
z
" transform="scale(0.015625)"/>
       <path id="DejaVuSans-41" d="M 2188 4044 
L 1331 1722 
L 3047 1722 
L 2188 4044 
z
M 1831 4666 
L 2547 4666 
L 4325 0 
L 3669 0 
L 3244 1197 
L 1141 1197 
L 716 0 
L 50 0 
L 1831 4666 
z
" transform="scale(0.015625)"/>
      </defs>
      <use xlink:href="#DejaVuSans-2d" transform="translate(0 0.125)"/>
      <use xlink:href="#DejaVuSans-49" transform="translate(36.083984 0.125)"/>
      <use xlink:href="#DejaVuSans-44" transform="translate(66.533203 -16.28125) scale(0.7)"/>
      <use xlink:href="#DejaVuSans-20" transform="translate(123.168945 0.125)"/>
      <use xlink:href="#DejaVuSans-28" transform="translate(154.956055 0.125)"/>
      <use xlink:href="#DejaVuSans-41" transform="translate(193.969727 0.125)"/>
      <use xlink:href="#DejaVuSans-29" transform="translate(262.37793 0.125)"/>
     </g>
    </g>
    <g id="text_14">
     <!-- $\times\mathdefault{10^{−7}}\mathdefault{}$ -->
     <g transform="translate(46.678125 14.798437) scale(0.1 -0.1)">
      <defs>
       <path id="DejaVuSans-d7" d="M 4488 3438 
L 3059 2003 
L 4488 575 
L 4116 197 
L 2681 1631 
L 1247 197 
L 878 575 
L 2303 2003 
L 878 3438 
L 1247 3816 
L 2681 2381 
L 4116 3816 
L 4488 3438 
z
" transform="scale(0.015625)"/>
       <path id="DejaVuSans-37" d="M 525 4666 
L 3525 4666 
L 3525 4397 
L 1831 0 
L 1172 0 
L 2766 4134 
L 525 4134 
L 525 4666 
z
" transform="scale(0.015625)"/>
      </defs>
      <use xlink:href="#DejaVuSans-d7" transform="translate(0 0.684375)"/>
      <use xlink:href="#DejaVuSans-31" transform="translate(83.789062 0.684375)"/>
      <use xlink:href="#DejaVuSans-30" transform="translate(147.412109 0.684375)"/>
      <use xlink:href="#DejaVuSans-2212" transform="translate(211.992188 38.965625) scale(0.7)"/>
      <use xlink:href="#DejaVuSans-37" transform="translate(270.644531 38.965625) scale(0.7)"/>
     </g>
    </g>
   </g>
   <g id="line2d_19">
    <path d="M 46.678125 31.794614 
L 52.172279 34.262948 
L 57.666433 36.878859 
L 63.160587 39.558289 
L 68.65474 42.241058 
L 74.148894 44.938395 
L 79.643048 47.697797 
L 85.137202 50.563605 
L 90.631356 53.343337 
L 96.12551 56.395897 
L 101.619663 59.443627 
L 107.113817 62.666569 
L 112.607971 65.970967 
L 118.102125 69.274096 
L 123.596279 72.69016 
L 129.090433 76.35878 
L 134.584587 80.03483 
L 140.07874 84.079096 
L 145.572894 87.559268 
L 151.067048 92.254791 
L 156.561202 96.934446 
L 162.055356 101.801517 
L 167.54951 107.05327 
L 173.043663 112.487766 
L 178.537817 118.835784 
L 184.031971 126.101309 
L 189.526125 131.254609 
L 195.020279 139.581846 
L 200.514433 144.715622 
L 206.008587 151.225195 
L 211.50274 158.566032 
L 216.996894 166.111852 
L 222.491048 171.695281 
L 227.985202 174.496166 
L 233.479356 183.898849 
L 238.97351 187.755474 
L 244.467663 191.325207 
L 249.961817 213.447905 
L 255.455971 191.904809 
L 260.950125 196.111312 
L 266.444279 200.592116 
L 271.938433 215.029608 
L 277.432587 209.424455 
L 282.92674 206.253896 
L 288.420894 240.235758 
L 288.427939 318.988562 
M 299.401146 318.988562 
L 299.409202 228.912277 
L 304.903356 240.701534 
L 310.39751 217.38633 
L 315.891663 198.282431 
L 321.385817 254.872033 
L 326.879971 204.78488 
L 332.374125 202.449534 
L 337.868279 208.895929 
L 343.362433 141.838245 
L 348.856587 130.232844 
L 354.35074 128.356524 
L 359.844894 128.628797 
L 365.339048 129.845625 
L 370.833202 186.447315 
L 376.327356 198.105132 
L 381.82151 182.138695 
L 387.315663 187.209688 
L 392.809817 194.10887 
L 398.303971 181.50315 
" clip-path="url(#p24d5999874)" style="fill: none; stroke: #8286ff; stroke-width: 2; stroke-linecap: square"/>
   </g>
   <g id="line2d_20">
    <path d="M 46.678125 29.894437 
L 52.172279 31.104932 
L 57.666433 32.752459 
L 63.160587 34.491031 
L 68.65474 36.346177 
L 74.148894 38.259591 
L 79.643048 40.228807 
L 85.137202 42.26244 
L 90.631356 44.442866 
L 96.12551 46.696779 
L 101.619663 49.104061 
L 107.113817 51.639417 
L 112.607971 54.233094 
L 118.102125 57.106309 
L 123.596279 60.281451 
L 129.090433 63.498189 
L 134.584587 66.797873 
L 140.07874 68.906156 
L 145.572894 71.39232 
L 151.067048 74.938533 
L 156.561202 78.381978 
L 162.055356 81.956991 
L 167.54951 85.521266 
L 173.043663 89.677383 
L 178.537817 94.448679 
L 184.031971 99.201444 
L 189.526125 104.661009 
L 195.020279 111.40173 
L 200.514433 118.313384 
L 206.008587 127.189002 
L 211.50274 136.851315 
L 216.996894 148.8758 
L 222.491048 158.998807 
L 227.985202 171.364783 
L 233.479356 183.952099 
L 238.97351 190.920302 
L 244.467663 204.909467 
L 249.961817 243.178823 
L 255.455971 257.56423 
L 255.461467 318.988562 
M 271.931302 318.988562 
L 271.938433 239.268593 
L 271.945564 318.988562 
M 293.910826 318.988562 
L 293.915048 271.814437 
L 299.409202 224.10074 
L 299.417687 318.988562 
M 326.87094 318.988562 
L 326.879971 217.992582 
L 332.374125 240.485249 
L 337.868279 224.515725 
L 343.362433 209.070099 
L 348.856587 185.21369 
L 354.35074 189.558223 
L 359.844894 183.474876 
L 365.339048 171.636994 
L 370.833202 165.369982 
L 376.327356 161.1082 
L 381.82151 150.486808 
L 387.315663 141.01515 
L 392.809817 125.776868 
L 398.303971 107.300569 
" clip-path="url(#p24d5999874)" style="fill: none; stroke: #f5c92a; stroke-width: 2; stroke-linecap: square"/>
   </g>
   <g id="patch_3">
    <path d="M 46.678125 283.910438 
L 46.678125 17.798437 
" style="fill: none; stroke: #000000; stroke-width: 0.8; stroke-linejoin: miter; stroke-linecap: square"/>
   </g>
   <g id="patch_4">
    <path d="M 403.798125 283.910438 
L 403.798125 17.798437 
" style="fill: none; stroke: #000000; stroke-width: 0.8; stroke-linejoin: miter; stroke-linecap: square"/>
   </g>
   <g id="patch_5">
    <path d="M 46.678125 283.910437 
L 403.798125 283.910437 
" style="fill: none; stroke: #000000; stroke-width: 0.8; stroke-linejoin: miter; stroke-linecap: square"/>
   </g>
   <g id="legend_1">
    <g id="patch_6">
     <path d="M 322.698125 55.175 
L 396.798125 55.175 
Q 398.798125 55.175 398.798125 53.175 
L 398.798125 24.798437 
Q 398.798125 22.798437 396.798125 22.798437 
L 322.698125 22.798437 
Q 320.698125 22.798437 320.698125 24.798437 
L 320.698125 53.175 
Q 320.698125 55.175 322.698125 55.175 
z
" style="fill: #ffffff; opacity: 0.8; stroke: #cccccc; stroke-linejoin: miter"/>
    </g>
    <g id="line2d_21">
     <path d="M 324.698125 30.896875 
L 334.698125 30.896875 
L 344.698125 30.896875 
" style="fill: none; stroke: #8286ff; stroke-width: 2; stroke-linecap: square"/>
    </g>
    <g id="text_15">
     <!-- $\mathregular{I_{D}}$, up -->
     <g transform="translate(352.698125 34.396875) scale(0.1 -0.1)">
      <defs>
       <path id="DejaVuSans-75" d="M 544 1381 
L 544 3500 
L 1119 3500 
L 1119 1403 
Q 1119 906 1312 657 
Q 1506 409 1894 409 
Q 2359 409 2629 706 
Q 2900 1003 2900 1516 
L 2900 3500 
L 3475 3500 
L 3475 0 
L 2900 0 
L 2900 538 
Q 2691 219 2414 64 
Q 2138 -91 1772 -91 
Q 1169 -91 856 284 
Q 544 659 544 1381 
z
M 1991 3584 
L 1991 3584 
z
" transform="scale(0.015625)"/>
       <path id="DejaVuSans-70" d="M 1159 525 
L 1159 -1331 
L 581 -1331 
L 581 3500 
L 1159 3500 
L 1159 2969 
Q 1341 3281 1617 3432 
Q 1894 3584 2278 3584 
Q 2916 3584 3314 3078 
Q 3713 2572 3713 1747 
Q 3713 922 3314 415 
Q 2916 -91 2278 -91 
Q 1894 -91 1617 61 
Q 1341 213 1159 525 
z
M 3116 1747 
Q 3116 2381 2855 2742 
Q 2594 3103 2138 3103 
Q 1681 3103 1420 2742 
Q 1159 2381 1159 1747 
Q 1159 1113 1420 752 
Q 1681 391 2138 391 
Q 2594 391 2855 752 
Q 3116 1113 3116 1747 
z
" transform="scale(0.015625)"/>
      </defs>
      <use xlink:href="#DejaVuSans-49" transform="translate(0 0.09375)"/>
      <use xlink:href="#DejaVuSans-44" transform="translate(30.449219 -16.3125) scale(0.7)"/>
      <use xlink:href="#DejaVuSans-2c" transform="translate(87.084961 0.09375)"/>
      <use xlink:href="#DejaVuSans-20" transform="translate(118.87207 0.09375)"/>
      <use xlink:href="#DejaVuSans-75" transform="translate(150.65918 0.09375)"/>
      <use xlink:href="#DejaVuSans-70" transform="translate(214.038086 0.09375)"/>
     </g>
    </g>
    <g id="line2d_22">
     <path d="M 324.698125 45.595312 
L 334.698125 45.595312 
L 344.698125 45.595312 
" style="fill: none; stroke: #f5c92a; stroke-width: 2; stroke-linecap: square"/>
    </g>
    <g id="text_16">
     <!-- $\mathregular{I_{D}}$, down -->
     <g transform="translate(352.698125 49.095312) scale(0.1 -0.1)">
      <defs>
       <path id="DejaVuSans-64" d="M 2906 2969 
L 2906 4863 
L 3481 4863 
L 3481 0 
L 2906 0 
L 2906 525 
Q 2725 213 2448 61 
Q 2172 -91 1784 -91 
Q 1150 -91 751 415 
Q 353 922 353 1747 
Q 353 2572 751 3078 
Q 1150 3584 1784 3584 
Q 2172 3584 2448 3432 
Q 2725 3281 2906 2969 
z
M 947 1747 
Q 947 1113 1208 752 
Q 1469 391 1925 391 
Q 2381 391 2643 752 
Q 2906 1113 2906 1747 
Q 2906 2381 2643 2742 
Q 2381 3103 1925 3103 
Q 1469 3103 1208 2742 
Q 947 2381 947 1747 
z
" transform="scale(0.015625)"/>
       <path id="DejaVuSans-77" d="M 269 3500 
L 844 3500 
L 1563 769 
L 2278 3500 
L 2956 3500 
L 3675 769 
L 4391 3500 
L 4966 3500 
L 4050 0 
L 3372 0 
L 2619 2869 
L 1863 0 
L 1184 0 
L 269 3500 
z
" transform="scale(0.015625)"/>
       <path id="DejaVuSans-6e" d="M 3513 2113 
L 3513 0 
L 2938 0 
L 2938 2094 
Q 2938 2591 2744 2837 
Q 2550 3084 2163 3084 
Q 1697 3084 1428 2787 
Q 1159 2491 1159 1978 
L 1159 0 
L 581 0 
L 581 3500 
L 1159 3500 
L 1159 2956 
Q 1366 3272 1645 3428 
Q 1925 3584 2291 3584 
Q 2894 3584 3203 3211 
Q 3513 2838 3513 2113 
z
" transform="scale(0.015625)"/>
      </defs>
      <use xlink:href="#DejaVuSans-49" transform="translate(0 0.015625)"/>
      <use xlink:href="#DejaVuSans-44" transform="translate(30.449219 -16.390625) scale(0.7)"/>
      <use xlink:href="#DejaVuSans-2c" transform="translate(87.084961 0.015625)"/>
      <use xlink:href="#DejaVuSans-20" transform="translate(118.87207 0.015625)"/>
      <use xlink:href="#DejaVuSans-64" transform="translate(150.65918 0.015625)"/>
      <use xlink:href="#DejaVuSans-6f" transform="translate(214.135742 0.015625)"/>
      <use xlink:href="#DejaVuSans-77" transform="translate(275.317383 0.015625)"/>
      <use xlink:href="#DejaVuSans-6e" transform="translate(357.104492 0.015625)"/>
     </g>
    </g>
   </g>
  </g>
  <g id="axes_2">
   <g id="matplotlib.axis_3">
    <g id="ytick_5">
     <g id="line2d_23">
      <g>
       <use xlink:href="#mc18d8ace91" x="403.798125" y="272.643572" style="stroke: #000000; stroke-width: 0.8"/>
      </g>
     </g>
     <g id="text_17">
      <!-- $\mathdefault{0}$ -->
      <g transform="translate(410.798125 276.442791) scale(0.1 -0.1)">
       <use xlink:href="#DejaVuSans-30" transform="translate(0 0.78125)"/>
      </g>
     </g>
    </g>
    <g id="ytick_6">
     <g id="line2d_24">
      <g>
       <use xlink:href="#mc18d8ace91" x="403.798125" y="219.227571" style="stroke: #000000; stroke-width: 0.8"/>
      </g>
     </g>
     <g id="text_18">
      <!-- $\mathdefault{1}$ -->
      <g transform="translate(410.798125 223.02679) scale(0.1 -0.1)">
       <use xlink:href="#DejaVuSans-31" transform="translate(0 0.09375)"/>
      </g>
     </g>
    </g>
    <g id="ytick_7">
     <g id="line2d_25">
      <g>
       <use xlink:href="#mc18d8ace91" x="403.798125" y="165.811569" style="stroke: #000000; stroke-width: 0.8"/>
      </g>
     </g>
     <g id="text_19">
      <!-- $\mathdefault{2}$ -->
      <g transform="translate(410.798125 169.610788) scale(0.1 -0.1)">
       <use xlink:href="#DejaVuSans-32" transform="translate(0 0.78125)"/>
      </g>
     </g>
    </g>
    <g id="ytick_8">
     <g id="line2d_26">
      <g>
       <use xlink:href="#mc18d8ace91" x="403.798125" y="112.395568" style="stroke: #000000; stroke-width: 0.8"/>
      </g>
     </g>
     <g id="text_20">
      <!-- $\mathdefault{3}$ -->
      <g transform="translate(410.798125 116.194787) scale(0.1 -0.1)">
       <use xlink:href="#DejaVuSans-33" transform="translate(0 0.78125)"/>
      </g>
     </g>
    </g>
    <g id="ytick_9">
     <g id="line2d_27">
      <g>
       <use xlink:href="#mc18d8ace91" x="403.798125" y="58.979566" style="stroke: #000000; stroke-width: 0.8"/>
      </g>
     </g>
     <g id="text_21">
      <!-- $\mathdefault{4}$ -->
      <g transform="translate(410.798125 62.778785) scale(0.1 -0.1)">
       <use xlink:href="#DejaVuSans-34" transform="translate(0 0.09375)"/>
      </g>
     </g>
    </g>
    <g id="text_22">
     <!-- √|$\mathregular{I_{D}}$| (√A) -->
     <g transform="translate(429.398125 173.904437) rotate(-90) scale(0.1 -0.1)">
      <defs>
       <path id="DejaVuSans-221a" d="M 3488 5191 
L 4078 5191 
L 4078 4891 
L 3719 4891 
L 1863 -128 
L 1656 -128 
L 659 2631 
L 269 2491 
L 191 2741 
L 1075 3047 
L 1875 831 
L 3488 5191 
z
" transform="scale(0.015625)"/>
       <path id="DejaVuSans-7c" d="M 1344 4891 
L 1344 -1509 
L 813 -1509 
L 813 4891 
L 1344 4891 
z
" transform="scale(0.015625)"/>
      </defs>
      <use xlink:href="#DejaVuSans-221a" transform="translate(0 0.890625)"/>
      <use xlink:href="#DejaVuSans-7c" transform="translate(63.720703 0.890625)"/>
      <use xlink:href="#DejaVuSans-49" transform="translate(97.412109 0.890625)"/>
      <use xlink:href="#DejaVuSans-44" transform="translate(127.861328 -15.515625) scale(0.7)"/>
      <use xlink:href="#DejaVuSans-7c" transform="translate(184.49707 0.890625)"/>
      <use xlink:href="#DejaVuSans-20" transform="translate(218.188477 0.890625)"/>
      <use xlink:href="#DejaVuSans-28" transform="translate(249.975586 0.890625)"/>
      <use xlink:href="#DejaVuSans-221a" transform="translate(288.989258 0.890625)"/>
      <use xlink:href="#DejaVuSans-41" transform="translate(352.709961 0.890625)"/>
      <use xlink:href="#DejaVuSans-29" transform="translate(421.118164 0.890625)"/>
     </g>
    </g>
    <g id="text_23">
     <!-- $\times\mathdefault{10^{−4}}\mathdefault{}$ -->
     <g transform="translate(371.998125 14.798437) scale(0.1 -0.1)">
      <use xlink:href="#DejaVuSans-d7" transform="translate(0 0.684375)"/>
      <use xlink:href="#DejaVuSans-31" transform="translate(83.789062 0.684375)"/>
      <use xlink:href="#DejaVuSans-30" transform="translate(147.412109 0.684375)"/>
      <use xlink:href="#DejaVuSans-2212" transform="translate(211.992188 38.965625) scale(0.7)"/>
      <use xlink:href="#DejaVuSans-34" transform="translate(270.644531 38.965625) scale(0.7)"/>
     </g>
    </g>
   </g>
   <g id="line2d_28">
    <path d="M 46.678125 38.30428 
L 52.172279 48.795152 
L 57.666433 59.401101 
L 63.160587 69.743821 
L 68.65474 79.596857 
L 74.148894 89.021066 
L 79.643048 98.186225 
L 85.137202 107.220856 
L 90.631356 115.536887 
L 96.12551 124.188309 
L 101.619663 132.350748 
L 107.113817 140.494727 
L 112.607971 148.353949 
L 118.102125 155.74301 
L 123.596279 162.922957 
L 129.090433 170.143387 
L 134.584587 176.90186 
L 140.07874 183.823635 
L 145.572894 189.377997 
L 151.067048 196.325639 
L 156.561202 202.672973 
L 162.055356 208.715106 
L 167.54951 214.650914 
L 173.043663 220.213662 
L 178.537817 226.03953 
L 184.031971 231.91733 
L 189.526125 235.63124 
L 195.020279 240.930276 
L 200.514433 243.811833 
L 206.008587 247.092247 
L 211.50274 250.346016 
L 216.996894 253.259311 
L 222.491048 255.167043 
L 227.985202 256.052126 
L 233.479356 258.708389 
L 238.97351 259.670762 
L 244.467663 260.502211 
L 249.961817 264.589945 
L 255.455971 260.632089 
L 260.950125 261.53397 
L 266.444279 262.420299 
L 271.938433 264.822877 
L 277.432587 263.965675 
L 282.92674 263.439829 
L 288.420894 267.744413 
L 293.915048 271.033122 
L 299.409202 266.598913 
L 304.903356 267.786572 
L 310.39751 265.157505 
L 315.891663 261.972635 
L 321.385817 268.909566 
L 326.879971 263.185502 
L 332.374125 262.766643 
L 337.868279 263.880152 
L 343.362433 242.230647 
L 348.856587 234.92282 
L 354.35074 233.586411 
L 359.844894 233.783235 
L 365.339048 234.65082 
L 370.833202 259.352015 
L 376.327356 261.937472 
L 381.82151 258.245747 
L 387.315663 259.538715 
L 392.809817 261.113416 
L 398.303971 258.074951 
" clip-path="url(#p24d5999874)" style="fill: none; stroke-dasharray: 7.4,3.2; stroke-dashoffset: 0; stroke: #8286ff; stroke-width: 2"/>
   </g>
   <g id="line2d_29">
    <path d="M 46.678125 29.894437 
L 52.172279 35.286097 
L 57.666433 42.432442 
L 63.160587 49.740512 
L 68.65474 57.282933 
L 74.148894 64.794985 
L 79.643048 72.252604 
L 85.137202 79.673434 
L 90.631356 87.324917 
L 96.12551 94.915523 
L 101.619663 102.679597 
L 107.113817 110.490301 
L 112.607971 118.109391 
L 118.102125 126.132399 
L 123.596279 134.514895 
L 129.090433 142.518268 
L 134.584587 150.246437 
L 140.07874 154.942168 
L 145.572894 160.2486 
L 151.067048 167.406268 
L 156.561202 173.920035 
L 162.055356 180.256448 
L 167.54951 186.168939 
L 173.043663 192.587063 
L 178.537817 199.370037 
L 184.031971 205.555243 
L 189.526125 212.01867 
L 195.020279 219.146387 
L 200.514433 225.585585 
L 206.008587 232.731052 
L 211.50274 239.282087 
L 216.996894 245.953728 
L 222.491048 250.524355 
L 227.985202 255.059539 
L 233.479356 258.722151 
L 238.97351 260.410648 
L 244.467663 263.207341 
L 249.961817 268.004781 
L 255.455971 269.091515 
L 260.950125 266.763999 
L 266.444279 262.411134 
L 271.938433 267.655699 
L 277.432587 269.129617 
L 282.92674 263.604406 
L 288.420894 265.812745 
L 293.915048 269.916826 
L 299.409202 266.034422 
L 304.903356 266.559853 
L 310.39751 267.512054 
L 315.891663 271.814437 
L 321.385817 269.576268 
L 326.879971 265.241246 
L 332.374125 267.767041 
L 337.868279 266.085118 
L 343.362433 263.908428 
L 348.856587 259.044257 
L 354.35074 260.097534 
L 359.844894 258.598329 
L 365.339048 255.148131 
L 370.833202 252.990628 
L 376.327356 251.37339 
L 381.82151 246.739758 
L 387.315663 241.76259 
L 392.809817 231.671413 
L 398.303971 214.916417 
" clip-path="url(#p24d5999874)" style="fill: none; stroke-dasharray: 7.4,3.2; stroke-dashoffset: 0; stroke: #f5c92a; stroke-width: 2"/>
   </g>
   <g id="patch_7">
    <path d="M 46.678125 283.910437 
L 46.678125 17.798437 
" style="fill: none; stroke: #000000; stroke-width: 0.8; stroke-linejoin: miter; stroke-linecap: square"/>
   </g>
   <g id="patch_8">
    <path d="M 403.798125 283.910437 
L 403.798125 17.798437 
" style="fill: none; stroke: #000000; stroke-width: 0.8; stroke-linejoin: miter; stroke-linecap: square"/>
   </g>
   <g id="patch_9">
    <path d="M 46.678125 283.910437 
L 403.798125 283.910437 
" style="fill: none; stroke: #000000; stroke-width: 0.8; stroke-linejoin: miter; stroke-linecap: square"/>
   </g>
  </g>
 </g>
 <defs>
  <clipPath id="p24d5999874">
   <rect x="46.678125" y="17.798437" width="357.12" height="266.112"/>
  </clipPath>
 </defs>
</svg>
