<?xml version="1.0" encoding="utf-8" standalone="no"?>
<!DOCTYPE svg PUBLIC "-//W3C//DTD SVG 1.1//EN"
  "http://www.w3.org/Graphics/SVG/1.1/DTD/svg11.dtd">
<svg xmlns:xlink="http://www.w3.org/1999/xlink" width="442.298125pt" height="317.988562pt" viewBox="0 0 442.298125 317.988562" xmlns="http://www.w3.org/2000/svg" version="1.1">
 <metadata>
  <rdf:RDF xmlns:dc="http://purl.org/dc/elements/1.1/" xmlns:cc="http://creativecommons.org/ns#" xmlns:rdf="http://www.w3.org/1999/02/22-rdf-syntax-ns#">
   <cc:Work>
    <dc:type rdf:resource="http://purl.org/dc/dcmitype/StillImage"/>
    <dc:date>2024-04-28T23:51:33.214027</dc:date>
    <dc:format>image/svg+xml</dc:format>
    <dc:creator>
     <cc:Agent>
      <dc:title>Matplotlib v3.7.1, https://matplotlib.org/</dc:title>
     </cc:Agent>
    </dc:creator>
   </cc:Work>
  </rdf:RDF>
 </metadata>
 <defs>
  <style type="text/css">*{stroke-linejoin: round; stroke-linecap: butt}</style>
 </defs>
 <g id="figure_1">
  <g id="patch_1">
   <path d="M 0 317.988562 
L 442.298125 317.988562 
L 442.298125 0 
L 0 0 
z
" style="fill: #ffffff"/>
  </g>
  <g id="axes_1">
   <g id="patch_2">
    <path d="M 40.378125 283.910437 
L 397.498125 283.910437 
L 397.498125 17.798437 
L 40.378125 17.798437 
z
" style="fill: #ffffff"/>
   </g>
   <g id="matplotlib.axis_1">
    <g id="xtick_1">
     <g id="line2d_1">
      <defs>
       <path id="m89f96e523f" d="M 0 0 
L 0 -3.5 
" style="stroke: #000000; stroke-width: 0.8"/>
      </defs>
      <g>
       <use xlink:href="#m89f96e523f" x="40.378125" y="283.910437" style="stroke: #000000; stroke-width: 0.8"/>
      </g>
     </g>
     <g id="text_1">
      <!-- −60 -->
      <g transform="translate(29.825781 295.008875) scale(0.1 -0.1)">
       <defs>
        <path id="DejaVuSans-2212" d="M 678 2272 
L 4684 2272 
L 4684 1741 
L 678 1741 
L 678 2272 
z
" transform="scale(0.015625)"/>
        <path id="DejaVuSans-36" d="M 2113 2584 
Q 1688 2584 1439 2293 
Q 1191 2003 1191 1497 
Q 1191 994 1439 701 
Q 1688 409 2113 409 
Q 2538 409 2786 701 
Q 3034 994 3034 1497 
Q 3034 2003 2786 2293 
Q 2538 2584 2113 2584 
z
M 3366 4563 
L 3366 3988 
Q 3128 4100 2886 4159 
Q 2644 4219 2406 4219 
Q 1781 4219 1451 3797 
Q 1122 3375 1075 2522 
Q 1259 2794 1537 2939 
Q 1816 3084 2150 3084 
Q 2853 3084 3261 2657 
Q 3669 2231 3669 1497 
Q 3669 778 3244 343 
Q 2819 -91 2113 -91 
Q 1303 -91 875 529 
Q 447 1150 447 2328 
Q 447 3434 972 4092 
Q 1497 4750 2381 4750 
Q 2619 4750 2861 4703 
Q 3103 4656 3366 4563 
z
" transform="scale(0.015625)"/>
        <path id="DejaVuSans-30" d="M 2034 4250 
Q 1547 4250 1301 3770 
Q 1056 3291 1056 2328 
Q 1056 1369 1301 889 
Q 1547 409 2034 409 
Q 2525 409 2770 889 
Q 3016 1369 3016 2328 
Q 3016 3291 2770 3770 
Q 2525 4250 2034 4250 
z
M 2034 4750 
Q 2819 4750 3233 4129 
Q 3647 3509 3647 2328 
Q 3647 1150 3233 529 
Q 2819 -91 2034 -91 
Q 1250 -91 836 529 
Q 422 1150 422 2328 
Q 422 3509 836 4129 
Q 1250 4750 2034 4750 
z
" transform="scale(0.015625)"/>
       </defs>
       <use xlink:href="#DejaVuSans-2212"/>
       <use xlink:href="#DejaVuSans-36" x="83.789062"/>
       <use xlink:href="#DejaVuSans-30" x="147.412109"/>
      </g>
     </g>
    </g>
    <g id="xtick_2">
     <g id="line2d_2">
      <g>
       <use xlink:href="#m89f96e523f" x="95.319663" y="283.910437" style="stroke: #000000; stroke-width: 0.8"/>
      </g>
     </g>
     <g id="text_2">
      <!-- −50 -->
      <g transform="translate(84.76732 295.008875) scale(0.1 -0.1)">
       <defs>
        <path id="DejaVuSans-35" d="M 691 4666 
L 3169 4666 
L 3169 4134 
L 1269 4134 
L 1269 2991 
Q 1406 3038 1543 3061 
Q 1681 3084 1819 3084 
Q 2600 3084 3056 2656 
Q 3513 2228 3513 1497 
Q 3513 744 3044 326 
Q 2575 -91 1722 -91 
Q 1428 -91 1123 -41 
Q 819 9 494 109 
L 494 744 
Q 775 591 1075 516 
Q 1375 441 1709 441 
Q 2250 441 2565 725 
Q 2881 1009 2881 1497 
Q 2881 1984 2565 2268 
Q 2250 2553 1709 2553 
Q 1456 2553 1204 2497 
Q 953 2441 691 2322 
L 691 4666 
z
" transform="scale(0.015625)"/>
       </defs>
       <use xlink:href="#DejaVuSans-2212"/>
       <use xlink:href="#DejaVuSans-35" x="83.789062"/>
       <use xlink:href="#DejaVuSans-30" x="147.412109"/>
      </g>
     </g>
    </g>
    <g id="xtick_3">
     <g id="line2d_3">
      <g>
       <use xlink:href="#m89f96e523f" x="150.261202" y="283.910437" style="stroke: #000000; stroke-width: 0.8"/>
      </g>
     </g>
     <g id="text_3">
      <!-- −40 -->
      <g transform="translate(139.708858 295.008875) scale(0.1 -0.1)">
       <defs>
        <path id="DejaVuSans-34" d="M 2419 4116 
L 825 1625 
L 2419 1625 
L 2419 4116 
z
M 2253 4666 
L 3047 4666 
L 3047 1625 
L 3713 1625 
L 3713 1100 
L 3047 1100 
L 3047 0 
L 2419 0 
L 2419 1100 
L 313 1100 
L 313 1709 
L 2253 4666 
z
" transform="scale(0.015625)"/>
       </defs>
       <use xlink:href="#DejaVuSans-2212"/>
       <use xlink:href="#DejaVuSans-34" x="83.789062"/>
       <use xlink:href="#DejaVuSans-30" x="147.412109"/>
      </g>
     </g>
    </g>
    <g id="xtick_4">
     <g id="line2d_4">
      <g>
       <use xlink:href="#m89f96e523f" x="205.20274" y="283.910437" style="stroke: #000000; stroke-width: 0.8"/>
      </g>
     </g>
     <g id="text_4">
      <!-- −30 -->
      <g transform="translate(194.650397 295.008875) scale(0.1 -0.1)">
       <defs>
        <path id="DejaVuSans-33" d="M 2597 2516 
Q 3050 2419 3304 2112 
Q 3559 1806 3559 1356 
Q 3559 666 3084 287 
Q 2609 -91 1734 -91 
Q 1441 -91 1130 -33 
Q 819 25 488 141 
L 488 750 
Q 750 597 1062 519 
Q 1375 441 1716 441 
Q 2309 441 2620 675 
Q 2931 909 2931 1356 
Q 2931 1769 2642 2001 
Q 2353 2234 1838 2234 
L 1294 2234 
L 1294 2753 
L 1863 2753 
Q 2328 2753 2575 2939 
Q 2822 3125 2822 3475 
Q 2822 3834 2567 4026 
Q 2313 4219 1838 4219 
Q 1578 4219 1281 4162 
Q 984 4106 628 3988 
L 628 4550 
Q 988 4650 1302 4700 
Q 1616 4750 1894 4750 
Q 2613 4750 3031 4423 
Q 3450 4097 3450 3541 
Q 3450 3153 3228 2886 
Q 3006 2619 2597 2516 
z
" transform="scale(0.015625)"/>
       </defs>
       <use xlink:href="#DejaVuSans-2212"/>
       <use xlink:href="#DejaVuSans-33" x="83.789062"/>
       <use xlink:href="#DejaVuSans-30" x="147.412109"/>
      </g>
     </g>
    </g>
    <g id="xtick_5">
     <g id="line2d_5">
      <g>
       <use xlink:href="#m89f96e523f" x="260.144279" y="283.910437" style="stroke: #000000; stroke-width: 0.8"/>
      </g>
     </g>
     <g id="text_5">
      <!-- −20 -->
      <g transform="translate(249.591935 295.008875) scale(0.1 -0.1)">
       <defs>
        <path id="DejaVuSans-32" d="M 1228 531 
L 3431 531 
L 3431 0 
L 469 0 
L 469 531 
Q 828 903 1448 1529 
Q 2069 2156 2228 2338 
Q 2531 2678 2651 2914 
Q 2772 3150 2772 3378 
Q 2772 3750 2511 3984 
Q 2250 4219 1831 4219 
Q 1534 4219 1204 4116 
Q 875 4013 500 3803 
L 500 4441 
Q 881 4594 1212 4672 
Q 1544 4750 1819 4750 
Q 2544 4750 2975 4387 
Q 3406 4025 3406 3419 
Q 3406 3131 3298 2873 
Q 3191 2616 2906 2266 
Q 2828 2175 2409 1742 
Q 1991 1309 1228 531 
z
" transform="scale(0.015625)"/>
       </defs>
       <use xlink:href="#DejaVuSans-2212"/>
       <use xlink:href="#DejaVuSans-32" x="83.789062"/>
       <use xlink:href="#DejaVuSans-30" x="147.412109"/>
      </g>
     </g>
    </g>
    <g id="xtick_6">
     <g id="line2d_6">
      <g>
       <use xlink:href="#m89f96e523f" x="315.085817" y="283.910437" style="stroke: #000000; stroke-width: 0.8"/>
      </g>
     </g>
     <g id="text_6">
      <!-- −10 -->
      <g transform="translate(304.533474 295.008875) scale(0.1 -0.1)">
       <defs>
        <path id="DejaVuSans-31" d="M 794 531 
L 1825 531 
L 1825 4091 
L 703 3866 
L 703 4441 
L 1819 4666 
L 2450 4666 
L 2450 531 
L 3481 531 
L 3481 0 
L 794 0 
L 794 531 
z
" transform="scale(0.015625)"/>
       </defs>
       <use xlink:href="#DejaVuSans-2212"/>
       <use xlink:href="#DejaVuSans-31" x="83.789062"/>
       <use xlink:href="#DejaVuSans-30" x="147.412109"/>
      </g>
     </g>
    </g>
    <g id="xtick_7">
     <g id="line2d_7">
      <g>
       <use xlink:href="#m89f96e523f" x="370.027356" y="283.910437" style="stroke: #000000; stroke-width: 0.8"/>
      </g>
     </g>
     <g id="text_7">
      <!-- 0 -->
      <g transform="translate(366.846106 295.008875) scale(0.1 -0.1)">
       <use xlink:href="#DejaVuSans-30"/>
      </g>
     </g>
    </g>
    <g id="xtick_8">
     <g id="line2d_8">
      <defs>
       <path id="mb577718bc2" d="M 0 0 
L 0 -4 
" style="stroke: #000000; stroke-width: 0.6"/>
      </defs>
      <g>
       <use xlink:href="#mb577718bc2" x="67.848894" y="283.910437" style="stroke: #000000; stroke-width: 0.6"/>
      </g>
     </g>
    </g>
    <g id="xtick_9">
     <g id="line2d_9">
      <g>
       <use xlink:href="#mb577718bc2" x="122.790433" y="283.910437" style="stroke: #000000; stroke-width: 0.6"/>
      </g>
     </g>
    </g>
    <g id="xtick_10">
     <g id="line2d_10">
      <g>
       <use xlink:href="#mb577718bc2" x="177.731971" y="283.910437" style="stroke: #000000; stroke-width: 0.6"/>
      </g>
     </g>
    </g>
    <g id="xtick_11">
     <g id="line2d_11">
      <g>
       <use xlink:href="#mb577718bc2" x="232.67351" y="283.910437" style="stroke: #000000; stroke-width: 0.6"/>
      </g>
     </g>
    </g>
    <g id="xtick_12">
     <g id="line2d_12">
      <g>
       <use xlink:href="#mb577718bc2" x="287.615048" y="283.910437" style="stroke: #000000; stroke-width: 0.6"/>
      </g>
     </g>
    </g>
    <g id="xtick_13">
     <g id="line2d_13">
      <g>
       <use xlink:href="#mb577718bc2" x="342.556587" y="283.910437" style="stroke: #000000; stroke-width: 0.6"/>
      </g>
     </g>
    </g>
    <g id="xtick_14">
     <g id="line2d_14">
      <g>
       <use xlink:href="#mb577718bc2" x="397.498125" y="283.910437" style="stroke: #000000; stroke-width: 0.6"/>
      </g>
     </g>
    </g>
    <g id="text_8">
     <!-- Gate Voltage, $\mathregular{V_{G}}$ (V) -->
     <g transform="translate(167.788125 308.688562) scale(0.1 -0.1)">
      <defs>
       <path id="DejaVuSans-47" d="M 3809 666 
L 3809 1919 
L 2778 1919 
L 2778 2438 
L 4434 2438 
L 4434 434 
Q 4069 175 3628 42 
Q 3188 -91 2688 -91 
Q 1594 -91 976 548 
Q 359 1188 359 2328 
Q 359 3472 976 4111 
Q 1594 4750 2688 4750 
Q 3144 4750 3555 4637 
Q 3966 4525 4313 4306 
L 4313 3634 
Q 3963 3931 3569 4081 
Q 3175 4231 2741 4231 
Q 1884 4231 1454 3753 
Q 1025 3275 1025 2328 
Q 1025 1384 1454 906 
Q 1884 428 2741 428 
Q 3075 428 3337 486 
Q 3600 544 3809 666 
z
" transform="scale(0.015625)"/>
       <path id="DejaVuSans-61" d="M 2194 1759 
Q 1497 1759 1228 1600 
Q 959 1441 959 1056 
Q 959 750 1161 570 
Q 1363 391 1709 391 
Q 2188 391 2477 730 
Q 2766 1069 2766 1631 
L 2766 1759 
L 2194 1759 
z
M 3341 1997 
L 3341 0 
L 2766 0 
L 2766 531 
Q 2569 213 2275 61 
Q 1981 -91 1556 -91 
Q 1019 -91 701 211 
Q 384 513 384 1019 
Q 384 1609 779 1909 
Q 1175 2209 1959 2209 
L 2766 2209 
L 2766 2266 
Q 2766 2663 2505 2880 
Q 2244 3097 1772 3097 
Q 1472 3097 1187 3025 
Q 903 2953 641 2809 
L 641 3341 
Q 956 3463 1253 3523 
Q 1550 3584 1831 3584 
Q 2591 3584 2966 3190 
Q 3341 2797 3341 1997 
z
" transform="scale(0.015625)"/>
       <path id="DejaVuSans-74" d="M 1172 4494 
L 1172 3500 
L 2356 3500 
L 2356 3053 
L 1172 3053 
L 1172 1153 
Q 1172 725 1289 603 
Q 1406 481 1766 481 
L 2356 481 
L 2356 0 
L 1766 0 
Q 1100 0 847 248 
Q 594 497 594 1153 
L 594 3053 
L 172 3053 
L 172 3500 
L 594 3500 
L 594 4494 
L 1172 4494 
z
" transform="scale(0.015625)"/>
       <path id="DejaVuSans-65" d="M 3597 1894 
L 3597 1613 
L 953 1613 
Q 991 1019 1311 708 
Q 1631 397 2203 397 
Q 2534 397 2845 478 
Q 3156 559 3463 722 
L 3463 178 
Q 3153 47 2828 -22 
Q 2503 -91 2169 -91 
Q 1331 -91 842 396 
Q 353 884 353 1716 
Q 353 2575 817 3079 
Q 1281 3584 2069 3584 
Q 2775 3584 3186 3129 
Q 3597 2675 3597 1894 
z
M 3022 2063 
Q 3016 2534 2758 2815 
Q 2500 3097 2075 3097 
Q 1594 3097 1305 2825 
Q 1016 2553 972 2059 
L 3022 2063 
z
" transform="scale(0.015625)"/>
       <path id="DejaVuSans-20" transform="scale(0.015625)"/>
       <path id="DejaVuSans-56" d="M 1831 0 
L 50 4666 
L 709 4666 
L 2188 738 
L 3669 4666 
L 4325 4666 
L 2547 0 
L 1831 0 
z
" transform="scale(0.015625)"/>
       <path id="DejaVuSans-6f" d="M 1959 3097 
Q 1497 3097 1228 2736 
Q 959 2375 959 1747 
Q 959 1119 1226 758 
Q 1494 397 1959 397 
Q 2419 397 2687 759 
Q 2956 1122 2956 1747 
Q 2956 2369 2687 2733 
Q 2419 3097 1959 3097 
z
M 1959 3584 
Q 2709 3584 3137 3096 
Q 3566 2609 3566 1747 
Q 3566 888 3137 398 
Q 2709 -91 1959 -91 
Q 1206 -91 779 398 
Q 353 888 353 1747 
Q 353 2609 779 3096 
Q 1206 3584 1959 3584 
z
" transform="scale(0.015625)"/>
       <path id="DejaVuSans-6c" d="M 603 4863 
L 1178 4863 
L 1178 0 
L 603 0 
L 603 4863 
z
" transform="scale(0.015625)"/>
       <path id="DejaVuSans-67" d="M 2906 1791 
Q 2906 2416 2648 2759 
Q 2391 3103 1925 3103 
Q 1463 3103 1205 2759 
Q 947 2416 947 1791 
Q 947 1169 1205 825 
Q 1463 481 1925 481 
Q 2391 481 2648 825 
Q 2906 1169 2906 1791 
z
M 3481 434 
Q 3481 -459 3084 -895 
Q 2688 -1331 1869 -1331 
Q 1566 -1331 1297 -1286 
Q 1028 -1241 775 -1147 
L 775 -588 
Q 1028 -725 1275 -790 
Q 1522 -856 1778 -856 
Q 2344 -856 2625 -561 
Q 2906 -266 2906 331 
L 2906 616 
Q 2728 306 2450 153 
Q 2172 0 1784 0 
Q 1141 0 747 490 
Q 353 981 353 1791 
Q 353 2603 747 3093 
Q 1141 3584 1784 3584 
Q 2172 3584 2450 3431 
Q 2728 3278 2906 2969 
L 2906 3500 
L 3481 3500 
L 3481 434 
z
" transform="scale(0.015625)"/>
       <path id="DejaVuSans-2c" d="M 750 794 
L 1409 794 
L 1409 256 
L 897 -744 
L 494 -744 
L 750 256 
L 750 794 
z
" transform="scale(0.015625)"/>
       <path id="DejaVuSans-28" d="M 1984 4856 
Q 1566 4138 1362 3434 
Q 1159 2731 1159 2009 
Q 1159 1288 1364 580 
Q 1569 -128 1984 -844 
L 1484 -844 
Q 1016 -109 783 600 
Q 550 1309 550 2009 
Q 550 2706 781 3412 
Q 1013 4119 1484 4856 
L 1984 4856 
z
" transform="scale(0.015625)"/>
       <path id="DejaVuSans-29" d="M 513 4856 
L 1013 4856 
Q 1481 4119 1714 3412 
Q 1947 2706 1947 2009 
Q 1947 1309 1714 600 
Q 1481 -109 1013 -844 
L 513 -844 
Q 928 -128 1133 580 
Q 1338 1288 1338 2009 
Q 1338 2731 1133 3434 
Q 928 4138 513 4856 
z
" transform="scale(0.015625)"/>
      </defs>
      <use xlink:href="#DejaVuSans-47" transform="translate(0 0.015625)"/>
      <use xlink:href="#DejaVuSans-61" transform="translate(77.490234 0.015625)"/>
      <use xlink:href="#DejaVuSans-74" transform="translate(138.769531 0.015625)"/>
      <use xlink:href="#DejaVuSans-65" transform="translate(177.978516 0.015625)"/>
      <use xlink:href="#DejaVuSans-20" transform="translate(239.501953 0.015625)"/>
      <use xlink:href="#DejaVuSans-56" transform="translate(271.289062 0.015625)"/>
      <use xlink:href="#DejaVuSans-6f" transform="translate(339.697266 0.015625)"/>
      <use xlink:href="#DejaVuSans-6c" transform="translate(400.878906 0.015625)"/>
      <use xlink:href="#DejaVuSans-74" transform="translate(428.662109 0.015625)"/>
      <use xlink:href="#DejaVuSans-61" transform="translate(467.871094 0.015625)"/>
      <use xlink:href="#DejaVuSans-67" transform="translate(529.150391 0.015625)"/>
      <use xlink:href="#DejaVuSans-65" transform="translate(592.626953 0.015625)"/>
      <use xlink:href="#DejaVuSans-2c" transform="translate(654.150391 0.015625)"/>
      <use xlink:href="#DejaVuSans-20" transform="translate(685.9375 0.015625)"/>
      <use xlink:href="#DejaVuSans-56" transform="translate(717.724609 0.015625)"/>
      <use xlink:href="#DejaVuSans-47" transform="translate(787.089844 -16.390625) scale(0.7)"/>
      <use xlink:href="#DejaVuSans-20" transform="translate(844.067383 0.015625)"/>
      <use xlink:href="#DejaVuSans-28" transform="translate(875.854492 0.015625)"/>
      <use xlink:href="#DejaVuSans-56" transform="translate(914.868164 0.015625)"/>
      <use xlink:href="#DejaVuSans-29" transform="translate(983.276367 0.015625)"/>
     </g>
    </g>
   </g>
   <g id="matplotlib.axis_2">
    <g id="ytick_1">
     <g id="line2d_15">
      <defs>
       <path id="mf72d94dd5b" d="M 0 0 
L 3.5 0 
" style="stroke: #000000; stroke-width: 0.8"/>
      </defs>
      <g>
       <use xlink:href="#mf72d94dd5b" x="40.378125" y="274.463607" style="stroke: #000000; stroke-width: 0.8"/>
      </g>
     </g>
     <g id="text_9">
      <!-- $\mathdefault{0.0}$ -->
      <g transform="translate(20.878125 278.262826) scale(0.1 -0.1)">
       <defs>
        <path id="DejaVuSans-2e" d="M 684 794 
L 1344 794 
L 1344 0 
L 684 0 
L 684 794 
z
" transform="scale(0.015625)"/>
       </defs>
       <use xlink:href="#DejaVuSans-30" transform="translate(0 0.78125)"/>
       <use xlink:href="#DejaVuSans-2e" transform="translate(63.623047 0.78125)"/>
       <use xlink:href="#DejaVuSans-30" transform="translate(95.410156 0.78125)"/>
      </g>
     </g>
    </g>
    <g id="ytick_2">
     <g id="line2d_16">
      <g>
       <use xlink:href="#mf72d94dd5b" x="40.378125" y="232.454775" style="stroke: #000000; stroke-width: 0.8"/>
      </g>
     </g>
     <g id="text_10">
      <!-- $\mathdefault{0.0}$ -->
      <g transform="translate(20.878125 236.253993) scale(0.1 -0.1)">
       <use xlink:href="#DejaVuSans-30" transform="translate(0 0.78125)"/>
       <use xlink:href="#DejaVuSans-2e" transform="translate(63.623047 0.78125)"/>
       <use xlink:href="#DejaVuSans-30" transform="translate(95.410156 0.78125)"/>
      </g>
     </g>
    </g>
    <g id="ytick_3">
     <g id="line2d_17">
      <g>
       <use xlink:href="#mf72d94dd5b" x="40.378125" y="190.445942" style="stroke: #000000; stroke-width: 0.8"/>
      </g>
     </g>
     <g id="text_11">
      <!-- $\mathdefault{0.0}$ -->
      <g transform="translate(20.878125 194.245161) scale(0.1 -0.1)">
       <use xlink:href="#DejaVuSans-30" transform="translate(0 0.78125)"/>
       <use xlink:href="#DejaVuSans-2e" transform="translate(63.623047 0.78125)"/>
       <use xlink:href="#DejaVuSans-30" transform="translate(95.410156 0.78125)"/>
      </g>
     </g>
    </g>
    <g id="ytick_4">
     <g id="line2d_18">
      <g>
       <use xlink:href="#mf72d94dd5b" x="40.378125" y="148.437109" style="stroke: #000000; stroke-width: 0.8"/>
      </g>
     </g>
     <g id="text_12">
      <!-- $\mathdefault{0.0}$ -->
      <g transform="translate(20.878125 152.236328) scale(0.1 -0.1)">
       <use xlink:href="#DejaVuSans-30" transform="translate(0 0.78125)"/>
       <use xlink:href="#DejaVuSans-2e" transform="translate(63.623047 0.78125)"/>
       <use xlink:href="#DejaVuSans-30" transform="translate(95.410156 0.78125)"/>
      </g>
     </g>
    </g>
    <g id="ytick_5">
     <g id="line2d_19">
      <g>
       <use xlink:href="#mf72d94dd5b" x="40.378125" y="106.428277" style="stroke: #000000; stroke-width: 0.8"/>
      </g>
     </g>
     <g id="text_13">
      <!-- $\mathdefault{0.0}$ -->
      <g transform="translate(20.878125 110.227495) scale(0.1 -0.1)">
       <use xlink:href="#DejaVuSans-30" transform="translate(0 0.78125)"/>
       <use xlink:href="#DejaVuSans-2e" transform="translate(63.623047 0.78125)"/>
       <use xlink:href="#DejaVuSans-30" transform="translate(95.410156 0.78125)"/>
      </g>
     </g>
    </g>
    <g id="ytick_6">
     <g id="line2d_20">
      <g>
       <use xlink:href="#mf72d94dd5b" x="40.378125" y="64.419444" style="stroke: #000000; stroke-width: 0.8"/>
      </g>
     </g>
     <g id="text_14">
      <!-- $\mathdefault{0.1}$ -->
      <g transform="translate(20.878125 68.218663) scale(0.1 -0.1)">
       <use xlink:href="#DejaVuSans-30" transform="translate(0 0.78125)"/>
       <use xlink:href="#DejaVuSans-2e" transform="translate(63.623047 0.78125)"/>
       <use xlink:href="#DejaVuSans-31" transform="translate(95.410156 0.78125)"/>
      </g>
     </g>
    </g>
    <g id="ytick_7">
     <g id="line2d_21">
      <g>
       <use xlink:href="#mf72d94dd5b" x="40.378125" y="22.410611" style="stroke: #000000; stroke-width: 0.8"/>
      </g>
     </g>
     <g id="text_15">
      <!-- $\mathdefault{1.0}$ -->
      <g transform="translate(20.878125 26.20983) scale(0.1 -0.1)">
       <use xlink:href="#DejaVuSans-31" transform="translate(0 0.78125)"/>
       <use xlink:href="#DejaVuSans-2e" transform="translate(63.623047 0.78125)"/>
       <use xlink:href="#DejaVuSans-30" transform="translate(95.410156 0.78125)"/>
      </g>
     </g>
    </g>
    <g id="text_16">
     <!-- -$\mathregular{I_{D}}$ (A) -->
     <g transform="translate(14.798438 165.954437) rotate(-90) scale(0.1 -0.1)">
      <defs>
       <path id="DejaVuSans-2d" d="M 313 2009 
L 1997 2009 
L 1997 1497 
L 313 1497 
L 313 2009 
z
" transform="scale(0.015625)"/>
       <path id="DejaVuSans-49" d="M 628 4666 
L 1259 4666 
L 1259 0 
L 628 0 
L 628 4666 
z
" transform="scale(0.015625)"/>
       <path id="DejaVuSans-44" d="M 1259 4147 
L 1259 519 
L 2022 519 
Q 2988 519 3436 956 
Q 3884 1394 3884 2338 
Q 3884 3275 3436 3711 
Q 2988 4147 2022 4147 
L 1259 4147 
z
M 628 4666 
L 1925 4666 
Q 3281 4666 3915 4102 
Q 4550 3538 4550 2338 
Q 4550 1131 3912 565 
Q 3275 0 1925 0 
L 628 0 
L 628 4666 
z
" transform="scale(0.015625)"/>
       <path id="DejaVuSans-41" d="M 2188 4044 
L 1331 1722 
L 3047 1722 
L 2188 4044 
z
M 1831 4666 
L 2547 4666 
L 4325 0 
L 3669 0 
L 3244 1197 
L 1141 1197 
L 716 0 
L 50 0 
L 1831 4666 
z
" transform="scale(0.015625)"/>
      </defs>
      <use xlink:href="#DejaVuSans-2d" transform="translate(0 0.125)"/>
      <use xlink:href="#DejaVuSans-49" transform="translate(36.083984 0.125)"/>
      <use xlink:href="#DejaVuSans-44" transform="translate(66.533203 -16.28125) scale(0.7)"/>
      <use xlink:href="#DejaVuSans-20" transform="translate(123.168945 0.125)"/>
      <use xlink:href="#DejaVuSans-28" transform="translate(154.956055 0.125)"/>
      <use xlink:href="#DejaVuSans-41" transform="translate(193.969727 0.125)"/>
      <use xlink:href="#DejaVuSans-29" transform="translate(262.37793 0.125)"/>
     </g>
    </g>
    <g id="text_17">
     <!-- $\times\mathdefault{10^{−5}}\mathdefault{}$ -->
     <g transform="translate(40.378125 14.798437) scale(0.1 -0.1)">
      <defs>
       <path id="DejaVuSans-d7" d="M 4488 3438 
L 3059 2003 
L 4488 575 
L 4116 197 
L 2681 1631 
L 1247 197 
L 878 575 
L 2303 2003 
L 878 3438 
L 1247 3816 
L 2681 2381 
L 4116 3816 
L 4488 3438 
z
" transform="scale(0.015625)"/>
      </defs>
      <use xlink:href="#DejaVuSans-d7" transform="translate(0 0.684375)"/>
      <use xlink:href="#DejaVuSans-31" transform="translate(83.789062 0.684375)"/>
      <use xlink:href="#DejaVuSans-30" transform="translate(147.412109 0.684375)"/>
      <use xlink:href="#DejaVuSans-2212" transform="translate(211.992188 38.965625) scale(0.7)"/>
      <use xlink:href="#DejaVuSans-35" transform="translate(270.644531 38.965625) scale(0.7)"/>
     </g>
    </g>
   </g>
   <g id="line2d_22">
    <path d="M -1 31.524425 
L 1.919048 31.533749 
L 7.413202 31.546528 
L 12.907356 31.569888 
L 18.40151 31.596738 
L 23.895663 31.592045 
L 29.389817 31.599131 
L 34.883971 31.657986 
L 40.378125 31.643068 
L 45.872279 31.678368 
L 51.366433 31.697575 
L 56.860587 31.705348 
L 62.35474 31.679623 
L 67.848894 31.726764 
L 73.343048 31.739969 
L 78.837202 31.748219 
L 84.331356 31.722374 
L 89.82551 31.725919 
L 95.319663 31.760902 
L 100.813817 31.766255 
L 106.307971 31.808222 
L 111.802125 31.801655 
L 117.296279 31.783569 
L 122.790433 31.798695 
L 128.284587 31.832491 
L 133.77874 31.836259 
L 139.272894 31.853113 
L 144.767048 31.900117 
L 150.261202 31.883219 
L 155.755356 31.887769 
L 161.24951 31.904533 
L 166.743663 33.314626 
L 172.237817 35.211042 
L 177.731971 37.298552 
L 183.226125 39.644024 
L 188.720279 42.220425 
L 194.214433 44.987988 
L 199.708587 47.99679 
L 205.20274 51.242722 
L 210.696894 54.7555 
L 216.191048 58.48904 
L 221.685202 62.669224 
L 227.179356 67.135981 
L 232.67351 72.124938 
L 238.167663 77.700538 
L 243.661817 84.118437 
L 249.155971 91.578252 
L 254.650125 100.734586 
L 260.144279 112.141415 
L 265.638433 125.795062 
L 271.132587 140.073253 
L 276.62674 153.357768 
L 282.120894 167.627736 
L 287.615048 183.72802 
L 293.109202 192.555131 
L 298.603356 195.836155 
L 304.09751 198.177222 
L 309.591663 200.065969 
L 315.085817 202.085694 
L 320.579971 203.778016 
L 326.074125 205.45171 
L 331.568279 206.829695 
L 337.062433 208.298256 
L 342.556587 209.70122 
L 348.05074 211.117862 
L 353.544894 212.223336 
L 359.039048 213.238814 
L 364.533202 214.457871 
L 370.027356 214.934667 
L 375.52151 215.975819 
L 381.015663 217.111757 
L 386.509817 217.65616 
L 392.003971 218.133079 
L 397.498125 218.640072 
L 402.992279 218.476639 
L 408.486433 217.808247 
L 413.980587 216.648861 
L 419.47474 215.617244 
L 424.968894 212.996234 
L 430.463048 211.554973 
L 435.957202 208.137218 
L 441.451356 205.135758 
L 443.298125 203.778045 
" clip-path="url(#p973320f85a)" style="fill: none; stroke: #8286ff; stroke-width: 2; stroke-linecap: square"/>
   </g>
   <g id="line2d_23">
    <path d="M 443.298125 224.646348 
L 441.451356 227.093498 
L 435.957202 235.675214 
L 430.463048 247.737121 
L 424.968894 271.814437 
L 424.962656 318.988562 
M 320.591623 318.988562 
L 320.579971 230.78741 
L 315.085817 198.724329 
L 309.591663 180.767319 
L 304.09751 166.107093 
L 298.603356 153.385535 
L 293.109202 141.836548 
L 287.615048 130.795566 
L 282.120894 120.000025 
L 276.62674 109.928803 
L 271.132587 101.203847 
L 265.638433 93.40527 
L 260.144279 86.522632 
L 254.650125 80.473053 
L 249.155971 75.587345 
L 243.661817 70.563042 
L 238.167663 65.992541 
L 232.67351 61.766738 
L 227.179356 57.856936 
L 221.685202 54.244837 
L 216.191048 50.807098 
L 210.696894 47.723104 
L 205.20274 44.854953 
L 199.708587 42.278796 
L 194.214433 39.892065 
L 188.720279 37.687146 
L 183.226125 35.751083 
L 177.731971 34.170099 
L 172.237817 32.549445 
L 166.743663 31.054425 
L 161.24951 29.894437 
L 155.755356 30.014322 
L 150.261202 30.103292 
L 144.767048 30.164158 
L 139.272894 30.248624 
L 133.77874 30.277651 
L 128.284587 30.332346 
L 122.790433 30.378052 
L 117.296279 30.384225 
L 111.802125 30.459378 
L 106.307971 30.522508 
L 100.813817 30.528516 
L 95.319663 30.576243 
L 89.82551 30.61895 
L 84.331356 30.676694 
L 78.837202 30.683231 
L 73.343048 30.683622 
L 67.848894 30.77135 
L 62.35474 30.792076 
L 56.860587 30.820929 
L 51.366433 30.848 
L 45.872279 30.879008 
L 40.378125 30.90605 
L 34.883971 30.956585 
L 29.389817 30.94645 
L 23.895663 30.985495 
L 18.40151 31.020118 
L 12.907356 31.037404 
L 7.413202 31.037877 
L 1.919048 31.05157 
L -1 31.088444 
" clip-path="url(#p973320f85a)" style="fill: none; stroke: #f5c92a; stroke-width: 2; stroke-linecap: square"/>
   </g>
   <g id="patch_3">
    <path d="M 40.378125 283.910438 
L 40.378125 17.798437 
" style="fill: none; stroke: #000000; stroke-width: 0.8; stroke-linejoin: miter; stroke-linecap: square"/>
   </g>
   <g id="patch_4">
    <path d="M 397.498125 283.910438 
L 397.498125 17.798437 
" style="fill: none; stroke: #000000; stroke-width: 0.8; stroke-linejoin: miter; stroke-linecap: square"/>
   </g>
   <g id="patch_5">
    <path d="M 40.378125 283.910437 
L 397.498125 283.910437 
" style="fill: none; stroke: #000000; stroke-width: 0.8; stroke-linejoin: miter; stroke-linecap: square"/>
   </g>
   <g id="legend_1">
    <g id="patch_6">
     <path d="M 316.398125 55.175 
L 390.498125 55.175 
Q 392.498125 55.175 392.498125 53.175 
L 392.498125 24.798437 
Q 392.498125 22.798437 390.498125 22.798437 
L 316.398125 22.798437 
Q 314.398125 22.798437 314.398125 24.798437 
L 314.398125 53.175 
Q 314.398125 55.175 316.398125 55.175 
z
" style="fill: #ffffff; opacity: 0.8; stroke: #cccccc; stroke-linejoin: miter"/>
    </g>
    <g id="line2d_24">
     <path d="M 318.398125 30.896875 
L 328.398125 30.896875 
L 338.398125 30.896875 
" style="fill: none; stroke: #8286ff; stroke-width: 2; stroke-linecap: square"/>
    </g>
    <g id="text_18">
     <!-- $\mathregular{I_{D}}$, up -->
     <g transform="translate(346.398125 34.396875) scale(0.1 -0.1)">
      <defs>
       <path id="DejaVuSans-75" d="M 544 1381 
L 544 3500 
L 1119 3500 
L 1119 1403 
Q 1119 906 1312 657 
Q 1506 409 1894 409 
Q 2359 409 2629 706 
Q 2900 1003 2900 1516 
L 2900 3500 
L 3475 3500 
L 3475 0 
L 2900 0 
L 2900 538 
Q 2691 219 2414 64 
Q 2138 -91 1772 -91 
Q 1169 -91 856 284 
Q 544 659 544 1381 
z
M 1991 3584 
L 1991 3584 
z
" transform="scale(0.015625)"/>
       <path id="DejaVuSans-70" d="M 1159 525 
L 1159 -1331 
L 581 -1331 
L 581 3500 
L 1159 3500 
L 1159 2969 
Q 1341 3281 1617 3432 
Q 1894 3584 2278 3584 
Q 2916 3584 3314 3078 
Q 3713 2572 3713 1747 
Q 3713 922 3314 415 
Q 2916 -91 2278 -91 
Q 1894 -91 1617 61 
Q 1341 213 1159 525 
z
M 3116 1747 
Q 3116 2381 2855 2742 
Q 2594 3103 2138 3103 
Q 1681 3103 1420 2742 
Q 1159 2381 1159 1747 
Q 1159 1113 1420 752 
Q 1681 391 2138 391 
Q 2594 391 2855 752 
Q 3116 1113 3116 1747 
z
" transform="scale(0.015625)"/>
      </defs>
      <use xlink:href="#DejaVuSans-49" transform="translate(0 0.09375)"/>
      <use xlink:href="#DejaVuSans-44" transform="translate(30.449219 -16.3125) scale(0.7)"/>
      <use xlink:href="#DejaVuSans-2c" transform="translate(87.084961 0.09375)"/>
      <use xlink:href="#DejaVuSans-20" transform="translate(118.87207 0.09375)"/>
      <use xlink:href="#DejaVuSans-75" transform="translate(150.65918 0.09375)"/>
      <use xlink:href="#DejaVuSans-70" transform="translate(214.038086 0.09375)"/>
     </g>
    </g>
    <g id="line2d_25">
     <path d="M 318.398125 45.595312 
L 328.398125 45.595312 
L 338.398125 45.595312 
" style="fill: none; stroke: #f5c92a; stroke-width: 2; stroke-linecap: square"/>
    </g>
    <g id="text_19">
     <!-- $\mathregular{I_{D}}$, down -->
     <g transform="translate(346.398125 49.095312) scale(0.1 -0.1)">
      <defs>
       <path id="DejaVuSans-64" d="M 2906 2969 
L 2906 4863 
L 3481 4863 
L 3481 0 
L 2906 0 
L 2906 525 
Q 2725 213 2448 61 
Q 2172 -91 1784 -91 
Q 1150 -91 751 415 
Q 353 922 353 1747 
Q 353 2572 751 3078 
Q 1150 3584 1784 3584 
Q 2172 3584 2448 3432 
Q 2725 3281 2906 2969 
z
M 947 1747 
Q 947 1113 1208 752 
Q 1469 391 1925 391 
Q 2381 391 2643 752 
Q 2906 1113 2906 1747 
Q 2906 2381 2643 2742 
Q 2381 3103 1925 3103 
Q 1469 3103 1208 2742 
Q 947 2381 947 1747 
z
" transform="scale(0.015625)"/>
       <path id="DejaVuSans-77" d="M 269 3500 
L 844 3500 
L 1563 769 
L 2278 3500 
L 2956 3500 
L 3675 769 
L 4391 3500 
L 4966 3500 
L 4050 0 
L 3372 0 
L 2619 2869 
L 1863 0 
L 1184 0 
L 269 3500 
z
" transform="scale(0.015625)"/>
       <path id="DejaVuSans-6e" d="M 3513 2113 
L 3513 0 
L 2938 0 
L 2938 2094 
Q 2938 2591 2744 2837 
Q 2550 3084 2163 3084 
Q 1697 3084 1428 2787 
Q 1159 2491 1159 1978 
L 1159 0 
L 581 0 
L 581 3500 
L 1159 3500 
L 1159 2956 
Q 1366 3272 1645 3428 
Q 1925 3584 2291 3584 
Q 2894 3584 3203 3211 
Q 3513 2838 3513 2113 
z
" transform="scale(0.015625)"/>
      </defs>
      <use xlink:href="#DejaVuSans-49" transform="translate(0 0.015625)"/>
      <use xlink:href="#DejaVuSans-44" transform="translate(30.449219 -16.390625) scale(0.7)"/>
      <use xlink:href="#DejaVuSans-2c" transform="translate(87.084961 0.015625)"/>
      <use xlink:href="#DejaVuSans-20" transform="translate(118.87207 0.015625)"/>
      <use xlink:href="#DejaVuSans-64" transform="translate(150.65918 0.015625)"/>
      <use xlink:href="#DejaVuSans-6f" transform="translate(214.135742 0.015625)"/>
      <use xlink:href="#DejaVuSans-77" transform="translate(275.317383 0.015625)"/>
      <use xlink:href="#DejaVuSans-6e" transform="translate(357.104492 0.015625)"/>
     </g>
    </g>
   </g>
  </g>
  <g id="axes_2">
   <g id="matplotlib.axis_3">
    <g id="ytick_8">
     <g id="line2d_26">
      <g>
       <use xlink:href="#mf72d94dd5b" x="397.498125" y="272.134217" style="stroke: #000000; stroke-width: 0.8"/>
      </g>
     </g>
     <g id="text_20">
      <!-- $\mathdefault{0.0}$ -->
      <g transform="translate(404.498125 275.933436) scale(0.1 -0.1)">
       <use xlink:href="#DejaVuSans-30" transform="translate(0 0.78125)"/>
       <use xlink:href="#DejaVuSans-2e" transform="translate(63.623047 0.78125)"/>
       <use xlink:href="#DejaVuSans-30" transform="translate(95.410156 0.78125)"/>
      </g>
     </g>
    </g>
    <g id="ytick_9">
     <g id="line2d_27">
      <g>
       <use xlink:href="#mf72d94dd5b" x="397.498125" y="225.113429" style="stroke: #000000; stroke-width: 0.8"/>
      </g>
     </g>
     <g id="text_21">
      <!-- $\mathdefault{0.5}$ -->
      <g transform="translate(404.498125 228.912648) scale(0.1 -0.1)">
       <use xlink:href="#DejaVuSans-30" transform="translate(0 0.78125)"/>
       <use xlink:href="#DejaVuSans-2e" transform="translate(63.623047 0.78125)"/>
       <use xlink:href="#DejaVuSans-35" transform="translate(95.410156 0.78125)"/>
      </g>
     </g>
    </g>
    <g id="ytick_10">
     <g id="line2d_28">
      <g>
       <use xlink:href="#mf72d94dd5b" x="397.498125" y="178.092641" style="stroke: #000000; stroke-width: 0.8"/>
      </g>
     </g>
     <g id="text_22">
      <!-- $\mathdefault{1.0}$ -->
      <g transform="translate(404.498125 181.89186) scale(0.1 -0.1)">
       <use xlink:href="#DejaVuSans-31" transform="translate(0 0.78125)"/>
       <use xlink:href="#DejaVuSans-2e" transform="translate(63.623047 0.78125)"/>
       <use xlink:href="#DejaVuSans-30" transform="translate(95.410156 0.78125)"/>
      </g>
     </g>
    </g>
    <g id="ytick_11">
     <g id="line2d_29">
      <g>
       <use xlink:href="#mf72d94dd5b" x="397.498125" y="131.071853" style="stroke: #000000; stroke-width: 0.8"/>
      </g>
     </g>
     <g id="text_23">
      <!-- $\mathdefault{1.5}$ -->
      <g transform="translate(404.498125 134.871072) scale(0.1 -0.1)">
       <use xlink:href="#DejaVuSans-31" transform="translate(0 0.09375)"/>
       <use xlink:href="#DejaVuSans-2e" transform="translate(63.623047 0.09375)"/>
       <use xlink:href="#DejaVuSans-35" transform="translate(95.410156 0.09375)"/>
      </g>
     </g>
    </g>
    <g id="ytick_12">
     <g id="line2d_30">
      <g>
       <use xlink:href="#mf72d94dd5b" x="397.498125" y="84.051065" style="stroke: #000000; stroke-width: 0.8"/>
      </g>
     </g>
     <g id="text_24">
      <!-- $\mathdefault{2.0}$ -->
      <g transform="translate(404.498125 87.850284) scale(0.1 -0.1)">
       <use xlink:href="#DejaVuSans-32" transform="translate(0 0.78125)"/>
       <use xlink:href="#DejaVuSans-2e" transform="translate(63.623047 0.78125)"/>
       <use xlink:href="#DejaVuSans-30" transform="translate(95.410156 0.78125)"/>
      </g>
     </g>
    </g>
    <g id="ytick_13">
     <g id="line2d_31">
      <g>
       <use xlink:href="#mf72d94dd5b" x="397.498125" y="37.030277" style="stroke: #000000; stroke-width: 0.8"/>
      </g>
     </g>
     <g id="text_25">
      <!-- $\mathdefault{2.5}$ -->
      <g transform="translate(404.498125 40.829496) scale(0.1 -0.1)">
       <use xlink:href="#DejaVuSans-32" transform="translate(0 0.78125)"/>
       <use xlink:href="#DejaVuSans-2e" transform="translate(63.623047 0.78125)"/>
       <use xlink:href="#DejaVuSans-35" transform="translate(95.410156 0.78125)"/>
      </g>
     </g>
    </g>
    <g id="text_26">
     <!-- √|$\mathregular{I_{D}}$| (√A) -->
     <g transform="translate(432.698125 173.904437) rotate(-90) scale(0.1 -0.1)">
      <defs>
       <path id="DejaVuSans-221a" d="M 3488 5191 
L 4078 5191 
L 4078 4891 
L 3719 4891 
L 1863 -128 
L 1656 -128 
L 659 2631 
L 269 2491 
L 191 2741 
L 1075 3047 
L 1875 831 
L 3488 5191 
z
" transform="scale(0.015625)"/>
       <path id="DejaVuSans-7c" d="M 1344 4891 
L 1344 -1509 
L 813 -1509 
L 813 4891 
L 1344 4891 
z
" transform="scale(0.015625)"/>
      </defs>
      <use xlink:href="#DejaVuSans-221a" transform="translate(0 0.890625)"/>
      <use xlink:href="#DejaVuSans-7c" transform="translate(63.720703 0.890625)"/>
      <use xlink:href="#DejaVuSans-49" transform="translate(97.412109 0.890625)"/>
      <use xlink:href="#DejaVuSans-44" transform="translate(127.861328 -15.515625) scale(0.7)"/>
      <use xlink:href="#DejaVuSans-7c" transform="translate(184.49707 0.890625)"/>
      <use xlink:href="#DejaVuSans-20" transform="translate(218.188477 0.890625)"/>
      <use xlink:href="#DejaVuSans-28" transform="translate(249.975586 0.890625)"/>
      <use xlink:href="#DejaVuSans-221a" transform="translate(288.989258 0.890625)"/>
      <use xlink:href="#DejaVuSans-41" transform="translate(352.709961 0.890625)"/>
      <use xlink:href="#DejaVuSans-29" transform="translate(421.118164 0.890625)"/>
     </g>
    </g>
    <g id="text_27">
     <!-- $\times\mathdefault{10^{−3}}\mathdefault{}$ -->
     <g transform="translate(365.698125 14.798437) scale(0.1 -0.1)">
      <use xlink:href="#DejaVuSans-d7" transform="translate(0 0.765625)"/>
      <use xlink:href="#DejaVuSans-31" transform="translate(83.789062 0.765625)"/>
      <use xlink:href="#DejaVuSans-30" transform="translate(147.412109 0.765625)"/>
      <use xlink:href="#DejaVuSans-2212" transform="translate(211.992188 39.046875) scale(0.7)"/>
      <use xlink:href="#DejaVuSans-33" transform="translate(270.644531 39.046875) scale(0.7)"/>
     </g>
    </g>
   </g>
   <g id="line2d_32">
    <path d="M -1 40.477479 
L 1.919048 40.536673 
L 7.413202 40.617765 
L 12.907356 40.765936 
L 18.40151 40.936127 
L 23.895663 40.906392 
L 29.389817 40.951288 
L 34.883971 41.323884 
L 40.378125 41.229498 
L 45.872279 41.452772 
L 51.366433 41.574171 
L 56.860587 41.623279 
L 62.35474 41.460705 
L 67.848894 41.758532 
L 73.343048 41.841888 
L 78.837202 41.893952 
L 84.331356 41.730812 
L 89.82551 41.753199 
L 95.319663 41.973967 
L 100.813817 42.007728 
L 106.307971 42.272258 
L 111.802125 42.230883 
L 117.296279 42.116901 
L 122.790433 42.212236 
L 128.284587 42.425094 
L 133.77874 42.448809 
L 139.272894 42.554881 
L 144.767048 42.850428 
L 150.261202 42.74422 
L 155.755356 42.772826 
L 161.24951 42.878179 
L 166.743663 51.568764 
L 172.237817 62.739431 
L 177.731971 74.38272 
L 183.226125 86.694243 
L 188.720279 99.336351 
L 194.214433 111.957967 
L 199.708587 124.636065 
L 205.20274 137.190504 
L 210.696894 149.575936 
L 216.191048 161.496016 
L 221.685202 173.471863 
L 227.179356 184.839698 
L 232.67351 195.995227 
L 238.167663 206.784324 
L 243.661817 217.324522 
L 249.155971 227.458788 
L 254.650125 237.373584 
L 260.144279 246.705723 
L 265.638433 254.643348 
L 271.132587 260.307378 
L 276.62674 263.916467 
L 282.120894 266.576351 
L 287.615048 268.559198 
L 293.109202 269.327389 
L 298.603356 269.568764 
L 304.09751 269.728192 
L 309.591663 269.849566 
L 315.085817 269.972591 
L 320.579971 270.070558 
L 326.074125 270.163078 
L 331.568279 270.23613 
L 337.062433 270.311006 
L 342.556587 270.379777 
L 348.05074 270.446587 
L 353.544894 270.496949 
L 359.039048 270.541887 
L 364.533202 270.594207 
L 370.027356 270.614199 
L 375.52151 270.656958 
L 381.015663 270.702239 
L 386.509817 270.723445 
L 392.003971 270.741765 
L 397.498125 270.760978 
L 402.992279 270.754814 
L 408.486433 270.729313 
L 413.980587 270.683957 
L 419.47474 270.642369 
L 424.968894 270.531265 
L 430.463048 270.466683 
L 435.957202 270.302942 
L 441.451356 270.145936 
L 443.298125 270.067703 
" clip-path="url(#p973320f85a)" style="fill: none; stroke-dasharray: 7.4,3.2; stroke-dashoffset: 0; stroke: #8286ff; stroke-width: 2"/>
   </g>
   <g id="line2d_33">
    <path d="M 443.298125 270.964108 
L 441.451356 271.044958 
L 435.957202 271.273245 
L 430.463048 271.515595 
L 424.968894 271.814437 
L 419.47474 271.685944 
L 413.980587 271.465304 
L 408.486433 271.287363 
L 402.992279 271.19939 
L 397.498125 271.145756 
L 392.003971 271.127183 
L 386.509817 271.122979 
L 381.015663 271.102866 
L 375.52151 271.119232 
L 370.027356 271.121214 
L 364.533202 271.130069 
L 359.039048 271.14035 
L 353.544894 271.151192 
L 348.05074 271.148697 
L 342.556587 271.11528 
L 337.062433 271.113748 
L 331.568279 271.143275 
L 326.074125 271.151192 
L 320.579971 271.149832 
L 315.085817 269.763999 
L 309.591663 268.257025 
L 304.09751 266.339834 
L 298.603356 263.922718 
L 293.109202 260.865318 
L 287.615048 256.883365 
L 282.120894 251.632727 
L 276.62674 245.116059 
L 271.132587 237.817763 
L 265.638433 229.640659 
L 260.144279 220.819489 
L 254.650125 211.565874 
L 249.155971 202.887906 
L 243.661817 192.665317 
L 238.167663 182.060831 
L 232.67351 171.001171 
L 227.179356 159.562687 
L 221.685202 147.848647 
L 216.191048 135.569798 
L 210.696894 123.525578 
L 205.20274 111.372909 
L 199.708587 99.612561 
L 194.214433 87.950553 
L 188.720279 76.47756 
L 183.226125 65.815727 
L 177.731971 56.679783 
L 172.237817 46.894548 
L 166.743663 37.474259 
L 161.24951 29.894437 
L 155.755356 30.689025 
L 150.261202 31.277026 
L 144.767048 31.678459 
L 139.272894 32.234441 
L 133.77874 32.425209 
L 128.284587 32.784255 
L 122.790433 33.083881 
L 117.296279 33.12432 
L 111.802125 33.616085 
L 106.307971 34.028402 
L 100.813817 34.0676 
L 95.319663 34.37879 
L 89.82551 34.656905 
L 84.331356 35.032424 
L 78.837202 35.074892 
L 73.343048 35.077437 
L 67.848894 35.646699 
L 62.35474 35.780991 
L 56.860587 35.967811 
L 51.366433 36.142961 
L 45.872279 36.343423 
L 40.378125 36.518101 
L 34.883971 36.844197 
L 29.389817 36.778836 
L 23.895663 37.030545 
L 18.40151 37.253526 
L 12.907356 37.36477 
L 7.413202 37.367811 
L 1.919048 37.455896 
L -1 37.692827 
" clip-path="url(#p973320f85a)" style="fill: none; stroke-dasharray: 7.4,3.2; stroke-dashoffset: 0; stroke: #f5c92a; stroke-width: 2"/>
   </g>
   <g id="patch_7">
    <path d="M 40.378125 283.910437 
L 40.378125 17.798437 
" style="fill: none; stroke: #000000; stroke-width: 0.8; stroke-linejoin: miter; stroke-linecap: square"/>
   </g>
   <g id="patch_8">
    <path d="M 397.498125 283.910437 
L 397.498125 17.798437 
" style="fill: none; stroke: #000000; stroke-width: 0.8; stroke-linejoin: miter; stroke-linecap: square"/>
   </g>
   <g id="patch_9">
    <path d="M 40.378125 283.910437 
L 397.498125 283.910437 
" style="fill: none; stroke: #000000; stroke-width: 0.8; stroke-linejoin: miter; stroke-linecap: square"/>
   </g>
  </g>
 </g>
 <defs>
  <clipPath id="p973320f85a">
   <rect x="40.378125" y="17.798437" width="357.12" height="266.112"/>
  </clipPath>
 </defs>
</svg>
