<?xml version="1.0" encoding="utf-8" standalone="no"?>
<!DOCTYPE svg PUBLIC "-//W3C//DTD SVG 1.1//EN"
  "http://www.w3.org/Graphics/SVG/1.1/DTD/svg11.dtd">
<svg xmlns:xlink="http://www.w3.org/1999/xlink" width="432pt" height="180pt" viewBox="0 0 432 180" xmlns="http://www.w3.org/2000/svg" version="1.1">
 <metadata>
  <rdf:RDF xmlns:dc="http://purl.org/dc/elements/1.1/" xmlns:cc="http://creativecommons.org/ns#" xmlns:rdf="http://www.w3.org/1999/02/22-rdf-syntax-ns#">
   <cc:Work>
    <dc:type rdf:resource="http://purl.org/dc/dcmitype/StillImage"/>
    <dc:date>2025-02-05T00:57:01.187571</dc:date>
    <dc:format>image/svg+xml</dc:format>
    <dc:creator>
     <cc:Agent>
      <dc:title>Matplotlib v3.7.1, https://matplotlib.org/</dc:title>
     </cc:Agent>
    </dc:creator>
   </cc:Work>
  </rdf:RDF>
 </metadata>
 <defs>
  <style type="text/css">*{stroke-linejoin: round; stroke-linecap: butt}</style>
 </defs>
 <g id="figure_1">
  <g id="patch_1">
   <path d="M 0 180 
L 432 180 
L 432 0 
L 0 0 
z
" style="fill: #ffffff"/>
  </g>
  <g id="axes_1">
   <g id="patch_2">
    <path d="M 55.95 128.64 
L 390.025 128.64 
L 390.025 38.6 
L 55.95 38.6 
z
" style="fill: #ffffff"/>
   </g>
   <g id="matplotlib.axis_1">
    <g id="xtick_1">
     <g id="line2d_1">
      <defs>
       <path id="mf225b75000" d="M 0 0 
L 0 -3.5 
" style="stroke: #000000; stroke-width: 0.8"/>
      </defs>
      <g>
       <use xlink:href="#mf225b75000" x="55.95" y="128.64" style="stroke: #000000; stroke-width: 0.8"/>
      </g>
     </g>
     <g id="text_1">
      <!-- 880 -->
      <g transform="translate(45.940312 140.748125) scale(0.12 -0.12)">
       <defs>
        <path id="Helvetica-38" d="M 1741 2600 
Q 2113 2600 2322 2808 
Q 2531 3016 2531 3303 
Q 2531 3553 2331 3762 
Q 2131 3972 1722 3972 
Q 1316 3972 1134 3762 
Q 953 3553 953 3272 
Q 953 2956 1187 2778 
Q 1422 2600 1741 2600 
z
M 1775 384 
Q 2166 384 2423 595 
Q 2681 806 2681 1225 
Q 2681 1659 2415 1884 
Q 2150 2109 1734 2109 
Q 1331 2109 1076 1879 
Q 822 1650 822 1244 
Q 822 894 1055 639 
Q 1288 384 1775 384 
z
M 975 2384 
Q 741 2484 609 2619 
Q 363 2869 363 3269 
Q 363 3769 725 4128 
Q 1088 4488 1753 4488 
Q 2397 4488 2762 4148 
Q 3128 3809 3128 3356 
Q 3128 2938 2916 2678 
Q 2797 2531 2547 2391 
Q 2825 2263 2984 2097 
Q 3281 1784 3281 1284 
Q 3281 694 2884 283 
Q 2488 -128 1763 -128 
Q 1109 -128 657 226 
Q 206 581 206 1256 
Q 206 1653 400 1942 
Q 594 2231 975 2384 
z
" transform="scale(0.015625)"/>
        <path id="Helvetica-30" d="M 1731 4475 
Q 2600 4475 2988 3759 
Q 3288 3206 3288 2244 
Q 3288 1331 3016 734 
Q 2622 -122 1728 -122 
Q 922 -122 528 578 
Q 200 1163 200 2147 
Q 200 2909 397 3456 
Q 766 4475 1731 4475 
z
M 1725 391 
Q 2163 391 2422 778 
Q 2681 1166 2681 2222 
Q 2681 2984 2493 3476 
Q 2306 3969 1766 3969 
Q 1269 3969 1039 3501 
Q 809 3034 809 2125 
Q 809 1441 956 1025 
Q 1181 391 1725 391 
z
" transform="scale(0.015625)"/>
       </defs>
       <use xlink:href="#Helvetica-38"/>
       <use xlink:href="#Helvetica-38" x="55.615234"/>
       <use xlink:href="#Helvetica-30" x="111.230469"/>
      </g>
     </g>
    </g>
    <g id="xtick_2">
     <g id="line2d_2">
      <g>
       <use xlink:href="#mf225b75000" x="107.346154" y="128.64" style="stroke: #000000; stroke-width: 0.8"/>
      </g>
     </g>
     <g id="text_2">
      <!-- 900 -->
      <g transform="translate(97.336466 140.748125) scale(0.12 -0.12)">
       <defs>
        <path id="Helvetica-39" d="M 850 1081 
Q 875 616 1209 438 
Q 1381 344 1597 344 
Q 2000 344 2284 680 
Q 2569 1016 2688 2044 
Q 2500 1747 2223 1626 
Q 1947 1506 1628 1506 
Q 981 1506 604 1909 
Q 228 2313 228 2947 
Q 228 3556 600 4018 
Q 972 4481 1697 4481 
Q 2675 4481 3047 3600 
Q 3253 3116 3253 2388 
Q 3253 1566 3006 931 
Q 2597 -125 1619 -125 
Q 963 -125 622 219 
Q 281 563 281 1081 
L 850 1081 
z
M 1703 2000 
Q 2038 2000 2314 2220 
Q 2591 2441 2591 2991 
Q 2591 3484 2342 3726 
Q 2094 3969 1709 3969 
Q 1297 3969 1055 3692 
Q 813 3416 813 2953 
Q 813 2516 1025 2258 
Q 1238 2000 1703 2000 
z
" transform="scale(0.015625)"/>
       </defs>
       <use xlink:href="#Helvetica-39"/>
       <use xlink:href="#Helvetica-30" x="55.615234"/>
       <use xlink:href="#Helvetica-30" x="111.230469"/>
      </g>
     </g>
    </g>
    <g id="xtick_3">
     <g id="line2d_3">
      <g>
       <use xlink:href="#mf225b75000" x="158.742308" y="128.64" style="stroke: #000000; stroke-width: 0.8"/>
      </g>
     </g>
     <g id="text_3">
      <!-- 920 -->
      <g transform="translate(148.73262 140.748125) scale(0.12 -0.12)">
       <defs>
        <path id="Helvetica-32" d="M 200 0 
Q 231 578 439 1006 
Q 647 1434 1250 1784 
L 1850 2131 
Q 2253 2366 2416 2531 
Q 2672 2791 2672 3125 
Q 2672 3516 2437 3745 
Q 2203 3975 1813 3975 
Q 1234 3975 1013 3538 
Q 894 3303 881 2888 
L 309 2888 
Q 319 3472 525 3841 
Q 891 4491 1816 4491 
Q 2584 4491 2939 4075 
Q 3294 3659 3294 3150 
Q 3294 2613 2916 2231 
Q 2697 2009 2131 1694 
L 1703 1456 
Q 1397 1288 1222 1134 
Q 909 863 828 531 
L 3272 531 
L 3272 0 
L 200 0 
z
" transform="scale(0.015625)"/>
       </defs>
       <use xlink:href="#Helvetica-39"/>
       <use xlink:href="#Helvetica-32" x="55.615234"/>
       <use xlink:href="#Helvetica-30" x="111.230469"/>
      </g>
     </g>
    </g>
    <g id="xtick_4">
     <g id="line2d_4">
      <g>
       <use xlink:href="#mf225b75000" x="210.138462" y="128.64" style="stroke: #000000; stroke-width: 0.8"/>
      </g>
     </g>
     <g id="text_4">
      <!-- 940 -->
      <g transform="translate(200.128774 140.748125) scale(0.12 -0.12)">
       <defs>
        <path id="Helvetica-34" d="M 2116 1584 
L 2116 3613 
L 681 1584 
L 2116 1584 
z
M 2125 0 
L 2125 1094 
L 163 1094 
L 163 1644 
L 2213 4488 
L 2688 4488 
L 2688 1584 
L 3347 1584 
L 3347 1094 
L 2688 1094 
L 2688 0 
L 2125 0 
z
" transform="scale(0.015625)"/>
       </defs>
       <use xlink:href="#Helvetica-39"/>
       <use xlink:href="#Helvetica-34" x="55.615234"/>
       <use xlink:href="#Helvetica-30" x="111.230469"/>
      </g>
     </g>
    </g>
    <g id="xtick_5">
     <g id="line2d_5">
      <g>
       <use xlink:href="#mf225b75000" x="261.534615" y="128.64" style="stroke: #000000; stroke-width: 0.8"/>
      </g>
     </g>
     <g id="text_5">
      <!-- 960 -->
      <g transform="translate(251.524928 140.748125) scale(0.12 -0.12)">
       <defs>
        <path id="Helvetica-36" d="M 1872 4494 
Q 2622 4494 2917 4105 
Q 3213 3716 3213 3303 
L 2656 3303 
Q 2606 3569 2497 3719 
Q 2294 4000 1881 4000 
Q 1409 4000 1131 3564 
Q 853 3128 822 2316 
Q 1016 2600 1309 2741 
Q 1578 2866 1909 2866 
Q 2472 2866 2890 2506 
Q 3309 2147 3309 1434 
Q 3309 825 2912 354 
Q 2516 -116 1781 -116 
Q 1153 -116 697 361 
Q 241 838 241 1966 
Q 241 2800 444 3381 
Q 834 4494 1872 4494 
z
M 1831 384 
Q 2275 384 2495 682 
Q 2716 981 2716 1388 
Q 2716 1731 2519 2042 
Q 2322 2353 1803 2353 
Q 1441 2353 1167 2112 
Q 894 1872 894 1388 
Q 894 963 1142 673 
Q 1391 384 1831 384 
z
" transform="scale(0.015625)"/>
       </defs>
       <use xlink:href="#Helvetica-39"/>
       <use xlink:href="#Helvetica-36" x="55.615234"/>
       <use xlink:href="#Helvetica-30" x="111.230469"/>
      </g>
     </g>
    </g>
    <g id="xtick_6">
     <g id="line2d_6">
      <g>
       <use xlink:href="#mf225b75000" x="312.930769" y="128.64" style="stroke: #000000; stroke-width: 0.8"/>
      </g>
     </g>
     <g id="text_6">
      <!-- 980 -->
      <g transform="translate(302.921082 140.748125) scale(0.12 -0.12)">
       <use xlink:href="#Helvetica-39"/>
       <use xlink:href="#Helvetica-38" x="55.615234"/>
       <use xlink:href="#Helvetica-30" x="111.230469"/>
      </g>
     </g>
    </g>
    <g id="xtick_7">
     <g id="line2d_7">
      <g>
       <use xlink:href="#mf225b75000" x="364.326923" y="128.64" style="stroke: #000000; stroke-width: 0.8"/>
      </g>
     </g>
     <g id="text_7">
      <!-- 1000 -->
      <g transform="translate(350.980673 140.748125) scale(0.12 -0.12)">
       <defs>
        <path id="Helvetica-31" d="M 613 3169 
L 613 3600 
Q 1222 3659 1462 3798 
Q 1703 3938 1822 4456 
L 2266 4456 
L 2266 0 
L 1666 0 
L 1666 3169 
L 613 3169 
z
" transform="scale(0.015625)"/>
       </defs>
       <use xlink:href="#Helvetica-31"/>
       <use xlink:href="#Helvetica-30" x="55.615234"/>
       <use xlink:href="#Helvetica-30" x="111.230469"/>
       <use xlink:href="#Helvetica-30" x="166.845703"/>
      </g>
     </g>
    </g>
    <g id="text_8">
     <!-- m/z -->
     <g transform="translate(213.322812 155.8575) scale(0.12 -0.12)">
      <defs>
       <path id="Helvetica-6d" d="M 413 3347 
L 969 3347 
L 969 2872 
Q 1169 3119 1331 3231 
Q 1609 3422 1963 3422 
Q 2363 3422 2606 3225 
Q 2744 3113 2856 2894 
Q 3044 3163 3297 3292 
Q 3550 3422 3866 3422 
Q 4541 3422 4784 2934 
Q 4916 2672 4916 2228 
L 4916 0 
L 4331 0 
L 4331 2325 
Q 4331 2659 4164 2784 
Q 3997 2909 3756 2909 
Q 3425 2909 3186 2687 
Q 2947 2466 2947 1947 
L 2947 0 
L 2375 0 
L 2375 2184 
Q 2375 2525 2294 2681 
Q 2166 2916 1816 2916 
Q 1497 2916 1236 2669 
Q 975 2422 975 1775 
L 975 0 
L 413 0 
L 413 3347 
z
" transform="scale(0.015625)"/>
       <path id="Helvetica-2f" d="M 1456 4591 
L 1931 4591 
L 475 0 
L 0 0 
L 1456 4591 
z
" transform="scale(0.015625)"/>
       <path id="Helvetica-7a" d="M 163 444 
L 2147 2844 
L 309 2844 
L 309 3347 
L 2903 3347 
L 2903 2888 
L 931 503 
L 2963 503 
L 2963 0 
L 163 0 
L 163 444 
z
M 1609 3428 
L 1609 3428 
z
" transform="scale(0.015625)"/>
      </defs>
      <use xlink:href="#Helvetica-6d"/>
      <use xlink:href="#Helvetica-2f" x="83.300781"/>
      <use xlink:href="#Helvetica-7a" x="111.083984"/>
     </g>
    </g>
   </g>
   <g id="matplotlib.axis_2">
    <g id="ytick_1">
     <g id="line2d_8">
      <defs>
       <path id="m9aa2bc13f4" d="M 0 0 
L 3.5 0 
" style="stroke: #000000; stroke-width: 0.8"/>
      </defs>
      <g>
       <use xlink:href="#m9aa2bc13f4" x="55.95" y="128.64" style="stroke: #000000; stroke-width: 0.8"/>
      </g>
     </g>
     <g id="text_9">
      <!-- 0.0 -->
      <g transform="translate(35.77 132.944062) scale(0.12 -0.12)">
       <defs>
        <path id="Helvetica-2e" d="M 547 681 
L 1200 681 
L 1200 0 
L 547 0 
L 547 681 
z
" transform="scale(0.015625)"/>
       </defs>
       <use xlink:href="#Helvetica-30"/>
       <use xlink:href="#Helvetica-2e" x="55.615234"/>
       <use xlink:href="#Helvetica-30" x="83.398438"/>
      </g>
     </g>
    </g>
    <g id="ytick_2">
     <g id="line2d_9">
      <g>
       <use xlink:href="#m9aa2bc13f4" x="55.95" y="83.62" style="stroke: #000000; stroke-width: 0.8"/>
      </g>
     </g>
     <g id="text_10">
      <!-- 0.5 -->
      <g transform="translate(35.77 87.924062) scale(0.12 -0.12)">
       <defs>
        <path id="Helvetica-35" d="M 791 1141 
Q 847 659 1238 475 
Q 1438 381 1700 381 
Q 2200 381 2440 700 
Q 2681 1019 2681 1406 
Q 2681 1875 2395 2131 
Q 2109 2388 1709 2388 
Q 1419 2388 1211 2275 
Q 1003 2163 856 1963 
L 369 1991 
L 709 4400 
L 3034 4400 
L 3034 3856 
L 1131 3856 
L 941 2613 
Q 1097 2731 1238 2791 
Q 1488 2894 1816 2894 
Q 2431 2894 2859 2497 
Q 3288 2100 3288 1491 
Q 3288 856 2895 371 
Q 2503 -113 1644 -113 
Q 1097 -113 676 195 
Q 256 503 206 1141 
L 791 1141 
z
" transform="scale(0.015625)"/>
       </defs>
       <use xlink:href="#Helvetica-30"/>
       <use xlink:href="#Helvetica-2e" x="55.615234"/>
       <use xlink:href="#Helvetica-35" x="83.398438"/>
      </g>
     </g>
    </g>
    <g id="ytick_3">
     <g id="line2d_10">
      <g>
       <use xlink:href="#m9aa2bc13f4" x="55.95" y="38.6" style="stroke: #000000; stroke-width: 0.8"/>
      </g>
     </g>
     <g id="text_11">
      <!-- 1.0 -->
      <g transform="translate(35.77 42.904063) scale(0.12 -0.12)">
       <use xlink:href="#Helvetica-31"/>
       <use xlink:href="#Helvetica-2e" x="55.615234"/>
       <use xlink:href="#Helvetica-30" x="83.398438"/>
      </g>
     </g>
    </g>
    <g id="text_12">
     <!-- Normalized  -->
     <g transform="translate(16.3665 115.628125) rotate(-90) scale(0.12 -0.12)">
      <defs>
       <path id="Helvetica-4e" d="M 488 4591 
L 1222 4591 
L 3541 872 
L 3541 4591 
L 4131 4591 
L 4131 0 
L 3434 0 
L 1081 3716 
L 1081 0 
L 488 0 
L 488 4591 
z
M 2269 4591 
L 2269 4591 
z
" transform="scale(0.015625)"/>
       <path id="Helvetica-6f" d="M 1741 363 
Q 2300 363 2508 786 
Q 2716 1209 2716 1728 
Q 2716 2197 2566 2491 
Q 2328 2953 1747 2953 
Q 1231 2953 997 2559 
Q 763 2166 763 1609 
Q 763 1075 997 719 
Q 1231 363 1741 363 
z
M 1763 3444 
Q 2409 3444 2856 3012 
Q 3303 2581 3303 1744 
Q 3303 934 2909 406 
Q 2516 -122 1688 -122 
Q 997 -122 590 345 
Q 184 813 184 1600 
Q 184 2444 612 2944 
Q 1041 3444 1763 3444 
z
M 1744 3428 
L 1744 3428 
z
" transform="scale(0.015625)"/>
       <path id="Helvetica-72" d="M 428 3347 
L 963 3347 
L 963 2769 
Q 1028 2938 1284 3180 
Q 1541 3422 1875 3422 
Q 1891 3422 1928 3419 
Q 1966 3416 2056 3406 
L 2056 2813 
Q 2006 2822 1964 2825 
Q 1922 2828 1872 2828 
Q 1447 2828 1219 2554 
Q 991 2281 991 1925 
L 991 0 
L 428 0 
L 428 3347 
z
" transform="scale(0.015625)"/>
       <path id="Helvetica-61" d="M 844 891 
Q 844 647 1022 506 
Q 1200 366 1444 366 
Q 1741 366 2019 503 
Q 2488 731 2488 1250 
L 2488 1703 
Q 2384 1638 2221 1594 
Q 2059 1550 1903 1531 
L 1563 1488 
Q 1256 1447 1103 1359 
Q 844 1213 844 891 
z
M 2206 2028 
Q 2400 2053 2466 2191 
Q 2503 2266 2503 2406 
Q 2503 2694 2298 2823 
Q 2094 2953 1713 2953 
Q 1272 2953 1088 2716 
Q 984 2584 953 2325 
L 428 2325 
Q 444 2944 830 3186 
Q 1216 3428 1725 3428 
Q 2316 3428 2684 3203 
Q 3050 2978 3050 2503 
L 3050 575 
Q 3050 488 3086 434 
Q 3122 381 3238 381 
Q 3275 381 3322 386 
Q 3369 391 3422 400 
L 3422 -16 
Q 3291 -53 3222 -62 
Q 3153 -72 3034 -72 
Q 2744 -72 2613 134 
Q 2544 244 2516 444 
Q 2344 219 2022 53 
Q 1700 -113 1313 -113 
Q 847 -113 551 170 
Q 256 453 256 878 
Q 256 1344 547 1600 
Q 838 1856 1309 1916 
L 2206 2028 
z
M 1741 3428 
L 1741 3428 
z
" transform="scale(0.015625)"/>
       <path id="Helvetica-6c" d="M 428 4591 
L 991 4591 
L 991 0 
L 428 0 
L 428 4591 
z
" transform="scale(0.015625)"/>
       <path id="Helvetica-69" d="M 413 3331 
L 984 3331 
L 984 0 
L 413 0 
L 413 3331 
z
M 413 4591 
L 984 4591 
L 984 3953 
L 413 3953 
L 413 4591 
z
" transform="scale(0.015625)"/>
       <path id="Helvetica-65" d="M 1806 3422 
Q 2163 3422 2497 3255 
Q 2831 3088 3006 2822 
Q 3175 2569 3231 2231 
Q 3281 2000 3281 1494 
L 828 1494 
Q 844 984 1069 676 
Q 1294 369 1766 369 
Q 2206 369 2469 659 
Q 2619 828 2681 1050 
L 3234 1050 
Q 3213 866 3089 639 
Q 2966 413 2813 269 
Q 2556 19 2178 -69 
Q 1975 -119 1719 -119 
Q 1094 -119 659 336 
Q 225 791 225 1609 
Q 225 2416 662 2919 
Q 1100 3422 1806 3422 
z
M 2703 1941 
Q 2669 2306 2544 2525 
Q 2313 2931 1772 2931 
Q 1384 2931 1121 2651 
Q 859 2372 844 1941 
L 2703 1941 
z
M 1753 3428 
L 1753 3428 
z
" transform="scale(0.015625)"/>
       <path id="Helvetica-64" d="M 769 1634 
Q 769 1097 997 734 
Q 1225 372 1728 372 
Q 2119 372 2370 708 
Q 2622 1044 2622 1672 
Q 2622 2306 2362 2611 
Q 2103 2916 1722 2916 
Q 1297 2916 1033 2591 
Q 769 2266 769 1634 
z
M 1616 3406 
Q 2000 3406 2259 3244 
Q 2409 3150 2600 2916 
L 2600 4606 
L 3141 4606 
L 3141 0 
L 2634 0 
L 2634 466 
Q 2438 156 2169 18 
Q 1900 -119 1553 -119 
Q 994 -119 584 351 
Q 175 822 175 1603 
Q 175 2334 548 2870 
Q 922 3406 1616 3406 
z
" transform="scale(0.015625)"/>
       <path id="Helvetica-20" transform="scale(0.015625)"/>
      </defs>
      <use xlink:href="#Helvetica-4e"/>
      <use xlink:href="#Helvetica-6f" x="72.216797"/>
      <use xlink:href="#Helvetica-72" x="127.832031"/>
      <use xlink:href="#Helvetica-6d" x="161.132812"/>
      <use xlink:href="#Helvetica-61" x="244.433594"/>
      <use xlink:href="#Helvetica-6c" x="300.048828"/>
      <use xlink:href="#Helvetica-69" x="322.265625"/>
      <use xlink:href="#Helvetica-7a" x="344.482422"/>
      <use xlink:href="#Helvetica-65" x="394.482422"/>
      <use xlink:href="#Helvetica-64" x="450.097656"/>
      <use xlink:href="#Helvetica-20" x="505.712891"/>
     </g>
     <!--  Intensity -->
     <g transform="translate(29.1975 107.630312) rotate(-90) scale(0.12 -0.12)">
      <defs>
       <path id="Helvetica-49" d="M 628 4591 
L 1256 4591 
L 1256 0 
L 628 0 
L 628 4591 
z
" transform="scale(0.015625)"/>
       <path id="Helvetica-6e" d="M 413 3347 
L 947 3347 
L 947 2872 
Q 1184 3166 1450 3294 
Q 1716 3422 2041 3422 
Q 2753 3422 3003 2925 
Q 3141 2653 3141 2147 
L 3141 0 
L 2569 0 
L 2569 2109 
Q 2569 2416 2478 2603 
Q 2328 2916 1934 2916 
Q 1734 2916 1606 2875 
Q 1375 2806 1200 2600 
Q 1059 2434 1017 2257 
Q 975 2081 975 1753 
L 975 0 
L 413 0 
L 413 3347 
z
M 1734 3428 
L 1734 3428 
z
" transform="scale(0.015625)"/>
       <path id="Helvetica-74" d="M 525 4281 
L 1094 4281 
L 1094 3347 
L 1628 3347 
L 1628 2888 
L 1094 2888 
L 1094 703 
Q 1094 528 1213 469 
Q 1278 434 1431 434 
Q 1472 434 1519 436 
Q 1566 438 1628 444 
L 1628 0 
Q 1531 -28 1426 -40 
Q 1322 -53 1200 -53 
Q 806 -53 665 148 
Q 525 350 525 672 
L 525 2888 
L 72 2888 
L 72 3347 
L 525 3347 
L 525 4281 
z
" transform="scale(0.015625)"/>
       <path id="Helvetica-73" d="M 747 1050 
Q 772 769 888 619 
Q 1100 347 1625 347 
Q 1938 347 2175 483 
Q 2413 619 2413 903 
Q 2413 1119 2222 1231 
Q 2100 1300 1741 1391 
L 1294 1503 
Q 866 1609 663 1741 
Q 300 1969 300 2372 
Q 300 2847 642 3140 
Q 984 3434 1563 3434 
Q 2319 3434 2653 2991 
Q 2863 2709 2856 2384 
L 2325 2384 
Q 2309 2575 2191 2731 
Q 1997 2953 1519 2953 
Q 1200 2953 1036 2831 
Q 872 2709 872 2509 
Q 872 2291 1088 2159 
Q 1213 2081 1456 2022 
L 1828 1931 
Q 2434 1784 2641 1647 
Q 2969 1431 2969 969 
Q 2969 522 2630 197 
Q 2291 -128 1597 -128 
Q 850 -128 539 211 
Q 228 550 206 1050 
L 747 1050 
z
M 1578 3428 
L 1578 3428 
z
" transform="scale(0.015625)"/>
       <path id="Helvetica-79" d="M 2503 3347 
L 3125 3347 
Q 3006 3025 2597 1878 
Q 2291 1016 2084 472 
Q 1597 -809 1397 -1090 
Q 1197 -1372 709 -1372 
Q 591 -1372 527 -1362 
Q 463 -1353 369 -1328 
L 369 -816 
Q 516 -856 581 -865 
Q 647 -875 697 -875 
Q 853 -875 926 -823 
Q 1000 -772 1050 -697 
Q 1066 -672 1162 -440 
Q 1259 -209 1303 -97 
L 66 3347 
L 703 3347 
L 1600 622 
L 2503 3347 
z
M 1597 3428 
L 1597 3428 
z
" transform="scale(0.015625)"/>
      </defs>
      <use xlink:href="#Helvetica-20"/>
      <use xlink:href="#Helvetica-49" x="27.783203"/>
      <use xlink:href="#Helvetica-6e" x="55.566406"/>
      <use xlink:href="#Helvetica-74" x="111.181641"/>
      <use xlink:href="#Helvetica-65" x="138.964844"/>
      <use xlink:href="#Helvetica-6e" x="194.580078"/>
      <use xlink:href="#Helvetica-73" x="250.195312"/>
      <use xlink:href="#Helvetica-69" x="300.195312"/>
      <use xlink:href="#Helvetica-74" x="322.412109"/>
      <use xlink:href="#Helvetica-79" x="350.195312"/>
     </g>
    </g>
   </g>
   <g id="line2d_11">
    <path d="M 55.950514 128.381944 
L 56.109328 128.510972 
L 56.135797 128.489467 
L 56.479637 128.338935 
L 56.69139 128.403449 
L 57.061956 128.231412 
L 57.273708 128.403449 
L 57.379584 128.295925 
L 57.406053 128.360439 
L 57.458991 128.424953 
L 57.511929 128.360439 
L 57.882495 127.478749 
L 58.01484 127.693795 
L 58.491283 128.64 
L 58.755973 128.403449 
L 58.994194 128.510972 
L 59.153265 128.618495 
L 59.735841 128.252916 
L 59.788779 128.295925 
L 59.841717 128.252916 
L 60.053469 128.360439 
L 60.291947 128.446458 
L 60.583106 128.166898 
L 60.742177 128.123888 
L 60.900991 128.295925 
L 60.927461 128.274421 
L 61.007125 128.209907 
L 61.033594 128.252916 
L 61.536762 128.532477 
L 61.748771 128.145393 
L 62.172532 128.618495 
L 62.331603 128.683009 
L 62.570082 128.575486 
L 62.967631 127.951851 
L 63.020569 127.99486 
L 63.338711 128.360439 
L 63.444587 128.553981 
L 63.497525 128.489467 
L 63.683065 128.360439 
L 64.001207 128.446458 
L 64.107341 128.596991 
L 64.160279 128.553981 
L 64.478421 128.424953 
L 64.584297 128.338935 
L 64.87597 127.99486 
L 64.902439 128.016365 
L 65.273776 128.467963 
L 65.75099 127.865832 
L 65.857123 127.930346 
L 66.095601 128.252916 
L 66.307867 128.360439 
L 66.387531 128.403449 
L 66.414 128.381944 
L 66.573071 128.252916 
L 66.626009 128.338935 
L 66.838275 128.446458 
L 66.997346 128.489467 
L 67.236081 128.274421 
L 67.448348 128.188402 
L 67.660614 128.03787 
L 67.87288 128.080879 
L 68.05842 128.360439 
L 68.111615 128.360439 
L 68.138084 128.31743 
L 68.35035 128.059374 
L 68.589085 128.123888 
L 68.801351 128.360439 
L 68.933953 128.596991 
L 69.093281 128.661505 
L 69.43815 128.553981 
L 69.783275 128.338935 
L 69.809744 128.381944 
L 69.915877 128.489467 
L 70.075205 128.575486 
L 70.314197 128.489467 
L 70.552932 128.295925 
L 70.606127 128.274421 
L 70.632596 128.338935 
L 70.765455 128.424953 
L 70.791924 128.338935 
L 71.057385 127.844328 
L 71.322847 128.166898 
L 71.482175 128.575486 
L 71.508644 128.553981 
L 71.641503 128.575486 
L 71.8273 128.704514 
L 72.013097 128.596991 
L 72.305284 128.252916 
L 72.438143 128.080879 
L 72.464612 128.102384 
L 72.836463 128.510972 
L 73.101924 128.446458 
L 73.287979 128.274421 
L 73.473776 127.99486 
L 73.606635 127.758309 
L 73.65983 127.822823 
L 73.898822 128.145393 
L 74.005212 128.231412 
L 74.137814 128.360439 
L 74.16454 128.338935 
L 74.323868 128.188402 
L 74.430258 128.403449 
L 74.536391 128.489467 
L 74.563117 128.446458 
L 74.616055 128.381944 
L 74.66925 128.467963 
L 74.77564 128.618495 
L 74.828578 128.575486 
L 75.174217 128.166898 
L 75.28035 128.080879 
L 75.307076 128.102384 
L 75.599264 128.381944 
L 75.705654 128.381944 
L 75.732123 128.424953 
L 75.785318 128.360439 
L 76.316754 127.930346 
L 76.34348 127.973356 
L 76.715588 128.618495 
L 76.821978 128.510972 
L 76.928111 128.532477 
L 77.087696 128.575486 
L 77.539725 128.016365 
L 77.672584 128.252916 
L 77.911834 128.467963 
L 78.124614 128.381944 
L 78.310668 128.016365 
L 78.363863 128.059374 
L 78.656307 127.951851 
L 78.789423 127.930346 
L 78.869087 127.908842 
L 78.895556 127.951851 
L 79.028672 128.31743 
L 79.214726 128.726019 
L 79.401037 128.661505 
L 79.587091 128.467963 
L 79.746676 128.424953 
L 79.906261 128.510972 
L 80.411742 128.231412 
L 80.730913 128.338935 
L 80.890755 128.360439 
L 81.05034 128.145393 
L 81.289846 127.650786 
L 81.449431 127.887337 
L 81.688937 128.446458 
L 81.981638 128.338935 
L 82.088028 128.231412 
L 82.114754 128.274421 
L 82.300808 128.381944 
L 82.913193 128.274421 
L 82.992857 128.274421 
L 83.019583 128.31743 
L 83.312284 128.596991 
L 83.33901 128.510972 
L 83.658437 127.844328 
L 83.738358 127.779814 
L 83.791554 127.822823 
L 83.92467 128.209907 
L 84.03106 128.532477 
L 84.057786 128.510972 
L 84.110981 128.446458 
L 84.164176 128.489467 
L 84.324018 128.510972 
L 84.616976 128.403449 
L 84.69664 128.489467 
L 84.750092 128.446458 
L 84.989598 128.553981 
L 85.362477 128.726019 
L 85.60224 128.424953 
L 85.735356 128.252916 
L 85.762082 128.274421 
L 86.134961 128.510972 
L 86.16143 128.467963 
L 86.61423 127.887337 
L 86.720877 128.059374 
L 86.880719 128.252916 
L 86.933914 128.295925 
L 87.120482 128.661505 
L 87.147208 128.64 
L 87.41344 128.553981 
L 87.67993 128.467963 
L 87.973145 128.188402 
L 88.079792 128.295925 
L 88.292829 128.338935 
L 88.399476 128.231412 
L 88.71916 127.7153 
L 88.772612 127.779814 
L 88.932454 127.887337 
L 89.065827 128.123888 
L 89.492158 128.618495 
L 89.625531 128.510972 
L 89.971941 128.360439 
L 90.398529 128.683009 
L 90.425255 128.618495 
L 90.665275 128.338935 
L 90.691744 128.381944 
L 91.011942 128.510972 
L 91.278431 128.166898 
L 91.411804 128.016365 
L 91.491725 128.102384 
L 91.518451 128.059374 
L 91.598372 128.016365 
L 91.625098 128.080879 
L 91.67855 128.64 
L 91.811923 136.897788 
L 91.838392 134.854846 
L 92.211785 68.491474 
L 92.291963 74.38375 
L 92.451805 112.98461 
L 92.558709 132.70438 
L 92.611904 131.478615 
L 92.798729 127.908842 
L 92.932102 127.930346 
L 93.198849 128.03787 
L 93.305496 128.059374 
L 93.412143 127.908842 
L 93.438869 127.930346 
L 93.679146 128.145393 
L 93.838988 128.080879 
L 94.052539 128.03787 
L 94.132717 128.102384 
L 94.239364 128.446458 
L 94.292816 129.60771 
L 94.372737 133.586071 
L 94.426189 131.349587 
L 94.773113 93.50139 
L 94.826308 94.297062 
L 94.933212 103.027953 
L 95.146763 129.951784 
L 95.226684 128.532477 
L 95.360057 128.059374 
L 95.493687 128.080879 
L 95.733964 128.145393 
L 96.187535 128.03787 
L 96.481264 127.67229 
L 96.588168 127.629281 
L 96.774993 127.908842 
L 96.828445 128.919561 
L 96.935092 139.155777 
L 96.988544 135.736537 
L 97.335725 51.524299 
L 97.415646 55.803726 
L 97.549276 88.877889 
L 97.709375 132.70438 
L 97.762827 130.747456 
L 97.923183 127.435739 
L 97.976378 127.349721 
L 98.02983 127.199188 
L 98.083282 127.306711 
L 98.537367 128.209907 
L 98.564093 128.188402 
L 98.670997 128.016365 
L 98.724192 128.059374 
L 98.911274 128.166898 
L 98.964726 128.209907 
L 98.991452 128.166898 
L 99.205003 127.844328 
L 99.285181 127.844328 
L 99.311907 127.887337 
L 99.392085 128.338935 
L 99.472263 131.285073 
L 99.525715 133.736604 
L 99.552441 132.940931 
L 99.685814 113.543731 
L 99.926348 91.393934 
L 99.9798 92.770232 
L 100.11343 107.221361 
L 100.273786 130.575419 
L 100.327238 129.908775 
L 100.487337 127.822823 
L 100.514063 127.844328 
L 100.754597 127.779814 
L 100.861501 127.887337 
L 101.048583 128.080879 
L 101.289117 127.973356 
L 101.556377 127.607776 
L 101.636555 127.693795 
L 101.743459 127.779814 
L 101.770185 127.736804 
L 101.903815 127.693795 
L 102.010719 128.102384 
L 102.117623 129.156112 
L 102.144349 128.855047 
L 102.491787 120.618763 
L 102.598691 121.521958 
L 102.78603 127.457244 
L 102.866208 128.726019 
L 102.91966 128.360439 
L 103.080016 127.822823 
L 103.18692 127.908842 
L 103.400728 128.145393 
L 103.507632 128.252916 
L 103.721697 128.31743 
L 103.908779 128.102384 
L 104.203022 128.274421 
L 104.229748 128.231412 
L 104.309926 128.123888 
L 104.497008 127.887337 
L 104.630895 128.080879 
L 104.711073 128.338935 
L 104.737799 128.252916 
L 105.058768 127.027151 
L 105.085494 127.048655 
L 105.192398 127.242197 
L 105.406463 128.446458 
L 105.54035 128.188402 
L 105.67398 127.973356 
L 106.048401 128.424953 
L 106.423079 128.145393 
L 106.449805 128.188402 
L 106.529983 128.231412 
L 106.556709 128.209907 
L 107.011565 127.650786 
L 107.252356 128.102384 
L 107.332791 128.016365 
L 107.359517 127.99486 
L 107.412969 128.080879 
L 107.814373 128.145393 
L 108.135599 128.683009 
L 108.590712 128.123888 
L 108.697616 128.209907 
L 108.724342 128.145393 
L 108.804777 128.059374 
L 108.831503 128.102384 
L 109.018842 128.295925 
L 109.206181 128.016365 
L 109.313342 127.887337 
L 109.366794 127.951851 
L 109.55439 128.231412 
L 109.634568 128.381944 
L 109.688277 128.295925 
L 109.955794 127.930346 
L 110.009503 127.973356 
L 110.14339 128.274421 
L 110.196842 128.252916 
L 110.304002 128.274421 
L 110.330728 128.231412 
L 110.491341 128.123888 
L 110.759115 128.489467 
L 110.786098 128.467963 
L 111.053872 127.844328 
L 111.187759 127.7153 
L 111.214485 127.736804 
L 111.482259 128.252916 
L 111.669855 128.381944 
L 111.803742 128.166898 
L 112.018064 127.779814 
L 112.125225 127.887337 
L 112.151951 127.865832 
L 112.446708 127.973356 
L 113.035965 128.31743 
L 113.223561 128.295925 
L 113.518318 128.403449 
L 114.268702 128.510972 
L 114.536733 128.596991 
L 114.858216 128.080879 
L 115.019086 127.99486 
L 115.126247 127.930346 
L 115.15323 127.951851 
L 115.421261 128.059374 
L 115.689291 128.424953 
L 116.037757 128.31743 
L 116.305788 128.231412 
L 116.493641 128.338935 
L 116.681237 128.295925 
L 116.788398 128.274421 
L 117.19083 127.801318 
L 117.539296 128.209907 
L 117.646714 128.080879 
L 117.67344 128.123888 
L 117.914745 128.424953 
L 117.99518 128.467963 
L 118.022163 128.424953 
L 118.719609 128.360439 
L 118.880479 127.951851 
L 118.907205 127.99486 
L 118.987897 127.973356 
L 119.148767 127.887337 
L 119.202476 127.99486 
L 119.390329 128.274421 
L 119.417055 128.231412 
L 119.899921 127.478749 
L 119.95363 127.564767 
L 120.275627 127.951851 
L 120.651333 128.596991 
L 120.81246 128.489467 
L 121.188166 128.274421 
L 121.402745 128.446458 
L 121.537146 128.532477 
L 121.644564 128.704514 
L 121.724999 128.64 
L 121.939835 128.360439 
L 122.208123 128.252916 
L 122.342267 128.016365 
L 122.584086 127.607776 
L 122.745212 128.059374 
L 122.906082 128.274421 
L 122.986774 128.424953 
L 123.067209 128.381944 
L 123.335754 128.467963 
L 123.55059 128.64 
L 124.033971 128.338935 
L 124.114663 128.424953 
L 124.168372 128.360439 
L 124.356225 128.252916 
L 124.436917 128.231412 
L 124.463643 128.274421 
L 124.651753 128.338935 
L 125.108408 127.607776 
L 125.162117 127.693795 
L 125.592045 128.446458 
L 125.914299 128.661505 
L 125.941282 128.618495 
L 126.397937 128.381944 
L 126.774157 128.489467 
L 126.827866 128.510972 
L 126.854849 128.467963 
L 126.908558 128.424953 
L 126.935541 128.467963 
L 127.042959 128.510972 
L 127.069685 128.489467 
L 127.257795 128.424953 
L 127.55358 127.779814 
L 127.660998 127.887337 
L 127.956782 128.03787 
L 128.091183 127.908842 
L 128.117909 127.930346 
L 128.306276 128.188402 
L 128.467403 128.403449 
L 128.682496 128.553981 
L 128.951298 128.446458 
L 129.247083 128.31743 
L 129.462176 128.381944 
L 129.704252 128.31743 
L 129.892362 128.338935 
L 130.268838 128.145393 
L 130.75299 128.446458 
L 130.968083 128.274421 
L 131.048775 128.360439 
L 131.075758 128.31743 
L 131.210159 128.209907 
L 131.237142 128.252916 
L 131.479218 128.338935 
L 131.613619 128.145393 
L 131.640602 128.166898 
L 131.801986 128.166898 
L 131.990353 128.274421 
L 132.098028 128.295925 
L 132.124754 128.252916 
L 132.31312 128.295925 
L 132.420795 128.403449 
L 132.52847 128.295925 
L 132.555196 128.360439 
L 132.662871 128.31743 
L 132.851238 128.102384 
L 132.878221 128.123888 
L 133.254955 128.553981 
L 133.389356 128.661505 
L 133.524014 128.424953 
L 133.685398 128.274421 
L 134.735164 128.166898 
L 134.923531 128.145393 
L 135.031206 128.274421 
L 135.058189 128.252916 
L 135.138881 128.188402 
L 135.192847 128.231412 
L 135.86588 128.683009 
L 136.161921 128.381944 
L 137.050818 128.295925 
L 137.13151 128.166898 
L 137.185476 128.209907 
L 137.643159 128.123888 
L 138.020406 127.629281 
L 138.047389 127.650786 
L 138.182047 128.03787 
L 138.397397 128.360439 
L 138.909303 128.661505 
L 139.448192 128.360439 
L 139.609832 128.467963 
L 139.852422 128.532477 
L 139.960097 128.446458 
L 140.310619 127.758309 
L 140.337602 127.779814 
L 140.47226 128.016365 
L 140.768816 128.489467 
L 140.95744 128.381944 
L 141.227012 128.145393 
L 141.469602 128.252916 
L 141.658226 128.424953 
L 141.766158 128.360439 
L 141.793141 128.381944 
L 141.954782 128.596991 
L 142.008748 128.553981 
L 142.305304 128.446458 
L 142.763757 127.822823 
L 142.79074 127.844328 
L 143.006347 128.274421 
L 143.060313 128.231412 
L 143.249194 128.166898 
L 143.356869 128.231412 
L 143.383852 128.209907 
L 143.54575 128.274421 
L 143.680665 128.532477 
L 143.734631 128.489467 
L 143.923255 128.31743 
L 143.950238 128.338935 
L 144.112136 128.381944 
L 144.274033 128.145393 
L 144.301016 128.166898 
L 144.354982 128.209907 
L 144.381965 128.166898 
L 144.516623 128.102384 
L 145.137232 128.467963 
L 145.488011 128.31743 
L 145.622925 128.618495 
L 145.676891 128.532477 
L 145.946721 128.166898 
L 146.189568 128.03787 
L 146.216551 128.080879 
L 146.459398 128.403449 
L 146.810177 128.553981 
L 147.02604 128.446458 
L 147.430785 127.758309 
L 147.727855 128.467963 
L 147.808804 128.381944 
L 148.078634 128.03787 
L 148.240789 127.865832 
L 148.483635 128.059374 
L 148.564584 128.145393 
L 148.699756 128.446458 
L 148.753722 128.403449 
L 148.942603 128.381944 
L 149.347605 128.575486 
L 150.022693 128.166898 
L 150.184848 128.252916 
L 150.373986 128.145393 
L 150.427952 128.080879 
L 150.481918 128.145393 
L 150.562867 128.252916 
L 150.61709 128.209907 
L 150.968125 127.801318 
L 151.157263 128.059374 
L 151.373384 128.467963 
L 151.670454 128.360439 
L 151.778643 128.360439 
L 151.913558 128.231412 
L 151.940541 128.252916 
L 152.156918 128.360439 
L 152.453988 128.64 
L 152.778298 128.295925 
L 153.372695 128.188402 
L 153.534849 128.080879 
L 153.562089 128.123888 
L 153.805193 128.467963 
L 153.832176 128.424953 
L 153.994331 128.338935 
L 154.129503 128.381944 
L 154.264675 128.338935 
L 154.372864 128.381944 
L 154.399847 128.31743 
L 154.643207 128.231412 
L 154.913551 128.575486 
L 155.156912 128.769028 
L 155.400273 128.467963 
L 155.589411 128.209907 
L 155.832771 128.446458 
L 156.022166 128.338935 
L 156.319493 128.403449 
L 156.454665 128.532477 
L 156.698026 128.274421 
L 156.725266 128.295925 
L 156.968626 128.360439 
L 157.049832 128.446458 
L 157.185004 128.510972 
L 157.320176 128.446458 
L 157.509571 128.553981 
L 157.536554 128.489467 
L 157.725949 128.274421 
L 157.752932 128.295925 
L 158.158704 128.489467 
L 158.294133 128.381944 
L 158.402322 128.360439 
L 158.429305 128.403449 
L 158.754129 128.553981 
L 158.99749 128.360439 
L 159.376279 128.532477 
L 159.619897 128.188402 
L 159.809292 128.209907 
L 159.944721 128.209907 
L 160.134116 128.295925 
L 160.161099 128.252916 
L 160.269544 128.360439 
L 160.431699 128.596991 
L 160.485922 128.510972 
L 160.567128 128.446458 
L 160.594111 128.467963 
L 160.783763 128.596991 
L 160.973158 128.489467 
L 161.081347 128.446458 
L 161.244015 128.446458 
L 161.352204 128.489467 
L 161.379187 128.446458 
L 161.704011 128.102384 
L 161.86668 128.209907 
L 162.083058 128.360439 
L 162.218487 128.360439 
L 162.624773 128.553981 
L 162.787185 128.661505 
L 162.949597 128.683009 
L 163.3289 128.252916 
L 163.410106 128.145393 
L 163.599758 127.822823 
L 163.707947 127.865832 
L 163.978805 128.209907 
L 164.087251 128.424953 
L 164.141474 128.295925 
L 164.303885 128.03787 
L 164.330868 128.059374 
L 164.493537 128.123888 
L 164.791635 128.575486 
L 164.872841 128.489467 
L 165.062493 128.381944 
L 165.577225 128.295925 
L 165.766877 128.166898 
L 165.875323 128.274421 
L 165.983769 128.467963 
L 166.064975 128.403449 
L 166.254627 128.209907 
L 166.498501 128.102384 
L 166.715393 128.747523 
L 166.823839 128.596991 
L 166.959268 128.532477 
L 167.17616 128.145393 
L 167.2034 128.166898 
L 167.691149 128.424953 
L 168.07071 128.252916 
L 168.369064 128.381944 
L 168.531733 128.381944 
L 168.640179 128.338935 
L 168.748625 128.145393 
L 168.884054 127.99486 
L 168.911294 128.016365 
L 169.128185 128.102384 
L 169.589209 128.64 
L 169.697655 128.661505 
L 170.131438 127.908842 
L 170.429793 127.99486 
L 170.619702 128.360439 
L 170.673925 128.31743 
L 170.863834 128.274421 
L 170.945297 128.338935 
L 170.972536 128.295925 
L 171.026759 128.295925 
L 171.053742 128.360439 
L 171.107965 128.489467 
L 171.135205 128.403449 
L 171.487783 126.833609 
L 171.569246 127.005646 
L 171.731915 127.865832 
L 171.92208 128.704514 
L 172.166212 128.769028 
L 172.708956 128.381944 
L 172.735938 128.424953 
L 172.953087 128.575486 
L 173.061533 128.489467 
L 173.414368 128.123888 
L 173.495831 128.209907 
L 173.631516 128.274421 
L 173.740219 128.080879 
L 173.984351 127.349721 
L 174.25598 127.67229 
L 174.445889 128.123888 
L 174.527351 128.059374 
L 174.608814 128.059374 
L 174.636054 128.102384 
L 174.7445 128.188402 
L 174.907426 128.31743 
L 175.043112 128.553981 
L 175.124575 128.683009 
L 175.179055 128.64 
L 175.640592 128.403449 
L 175.857741 128.295925 
L 176.15661 127.801318 
L 176.238072 127.99486 
L 176.319535 128.123888 
L 176.346518 128.03787 
L 176.645387 127.67229 
L 176.67237 127.7153 
L 177.052701 128.252916 
L 177.079941 128.188402 
L 177.215627 128.209907 
L 177.37881 128.446458 
L 177.487256 128.726019 
L 177.541736 128.64 
L 177.813365 128.102384 
L 177.97629 127.973356 
L 178.00353 127.99486 
L 178.139216 128.231412 
L 178.329639 128.424953 
L 178.438085 128.360439 
L 178.655491 128.102384 
L 178.764193 128.188402 
L 178.872896 128.403449 
L 178.927376 128.31743 
L 179.036079 128.31743 
L 179.090302 128.252916 
L 179.226245 128.03787 
L 179.253228 128.059374 
L 179.334948 128.080879 
L 179.633816 128.424953 
L 179.661056 128.403449 
L 179.823982 128.403449 
L 180.095868 128.489467 
L 180.313273 128.381944 
L 180.639382 128.252916 
L 180.748085 128.31743 
L 180.992731 128.661505 
L 181.183153 128.553981 
L 181.319096 128.31743 
L 181.509262 128.080879 
L 182.134753 128.446458 
L 182.297936 128.381944 
L 182.515342 128.145393 
L 182.651284 128.231412 
L 182.896187 128.424953 
L 183.00489 128.274421 
L 183.222553 127.7153 
L 183.304016 127.607776 
L 183.358496 127.650786 
L 183.630381 128.145393 
L 184.065707 128.381944 
L 184.256129 128.252916 
L 184.636975 128.360439 
L 184.800158 128.596991 
L 184.827398 128.575486 
L 184.936101 128.489467 
L 185.01782 128.403449 
L 185.0723 128.446458 
L 185.126523 128.467963 
L 185.153763 128.424953 
L 185.344443 128.31743 
L 185.725288 128.510972 
L 185.997431 128.424953 
L 186.351037 128.575486 
L 186.704899 128.209907 
L 187.004282 128.338935 
L 187.113242 128.31743 
L 187.494344 128.532477 
L 187.848207 128.145393 
L 187.984406 128.209907 
L 188.229309 128.596991 
L 188.256549 128.575486 
L 188.855571 128.188402 
L 188.937291 128.252916 
L 188.991771 128.209907 
L 189.073491 128.295925 
L 189.155211 128.360439 
L 189.182451 128.31743 
L 189.454593 128.231412 
L 189.672513 128.532477 
L 189.944913 128.790533 
L 190.026633 128.747523 
L 190.244552 128.424953 
L 190.326272 128.338935 
L 190.380752 128.381944 
L 190.625912 128.596991 
L 191.170711 128.510972 
L 191.55207 127.99486 
L 191.57931 128.016365 
L 191.71551 128.231412 
L 191.87895 128.360439 
L 192.01515 128.360439 
L 192.260566 128.295925 
L 192.560206 128.403449 
L 192.750886 128.295925 
L 192.914582 128.274421 
L 193.186982 128.381944 
L 193.568599 128.166898 
L 194.004695 128.661505 
L 194.331831 128.31743 
L 194.550008 128.424953 
L 194.795168 128.726019 
L 195.122561 128.618495 
L 195.749594 128.209907 
L 196.049491 128.489467 
L 196.158708 128.31743 
L 196.349644 127.908842 
L 196.431364 127.801318 
L 196.567821 127.758309 
L 196.676781 127.865832 
L 196.758758 128.03787 
L 196.922198 128.403449 
L 197.249591 128.295925 
L 197.413288 128.102384 
L 197.467768 128.145393 
L 197.822401 128.510972 
L 198.068075 128.403449 
L 198.313491 128.295925 
L 198.477188 128.553981 
L 198.504428 128.532477 
L 198.831822 128.145393 
L 198.968278 127.951851 
L 198.995775 127.973356 
L 199.404889 128.209907 
L 199.459626 128.145393 
L 199.514106 128.209907 
L 199.623322 128.403449 
L 199.677802 128.360439 
L 200.223629 127.930346 
L 200.278366 128.016365 
L 200.55128 128.510972 
L 200.60576 128.553981 
L 200.660497 128.510972 
L 200.824194 128.446458 
L 200.851434 128.489467 
L 200.988147 128.467963 
L 201.261061 128.553981 
L 201.315541 128.618495 
L 201.370278 128.532477 
L 201.561214 128.553981 
L 201.643191 128.489467 
L 201.861625 128.231412 
L 202.025579 128.231412 
L 202.489686 128.467963 
L 202.65364 128.209907 
L 202.762856 128.166898 
L 202.790096 128.188402 
L 203.090507 128.274421 
L 203.308941 128.446458 
L 203.909762 128.360439 
L 204.292406 127.887337 
L 204.319646 127.908842 
L 204.592817 127.99486 
L 204.947964 127.822823 
L 205.494305 128.489467 
L 205.603779 128.446458 
L 205.631019 128.489467 
L 206.013663 128.683009 
L 206.806192 128.123888 
L 206.833432 128.166898 
L 206.970146 128.274421 
L 207.024883 128.188402 
L 207.270813 127.844328 
L 207.32555 127.887337 
L 207.434767 128.080879 
L 207.708194 128.575486 
L 208.118336 128.381944 
L 208.364266 128.274421 
L 208.446243 128.274421 
L 208.47374 128.31743 
L 208.637694 128.424953 
L 208.665191 128.360439 
L 209.020595 127.607776 
L 209.212046 127.435739 
L 209.294023 127.478749 
L 209.321263 127.457244 
L 209.704164 127.285207 
L 210.114305 127.973356 
L 210.169042 127.887337 
L 210.442727 127.478749 
L 210.688914 127.951851 
L 210.825628 128.381944 
L 210.852868 128.360439 
L 211.39998 127.607776 
L 211.427477 127.629281 
L 211.700905 128.03787 
L 211.783138 128.016365 
L 211.810378 128.080879 
L 211.892612 128.166898 
L 211.947349 128.102384 
L 212.220777 127.99486 
L 212.357747 128.03787 
L 212.384987 127.99486 
L 212.686169 127.349721 
L 212.740906 127.414235 
L 213.178544 128.661505 
L 213.206041 128.64 
L 213.506965 128.166898 
L 213.643936 128.166898 
L 214.054591 127.822823 
L 214.109328 127.930346 
L 214.191305 127.951851 
L 214.218802 127.887337 
L 214.820908 127.048655 
L 214.848405 127.07016 
L 214.930639 127.156179 
L 214.957879 127.091665 
L 215.067353 126.876618 
L 215.149587 126.984141 
L 215.533002 127.414235 
L 215.970897 128.188402 
L 216.409049 127.736804 
L 216.51878 127.629281 
L 216.54602 127.650786 
L 216.902195 128.059374 
L 217.121143 128.338935 
L 217.313108 128.231412 
L 217.422581 127.908842 
L 217.75126 126.984141 
L 217.970464 127.091665 
L 218.244406 127.650786 
L 218.518347 128.403449 
L 218.682815 128.510972 
L 218.819786 128.274421 
L 219.093727 128.016365 
L 219.367669 128.102384 
L 219.61437 128.016365 
L 219.751341 127.930346 
L 219.778838 127.951851 
L 219.998043 128.03787 
L 220.053037 128.209907 
L 220.107773 128.059374 
L 220.354475 127.156179 
L 220.491446 126.919627 
L 220.518943 126.962637 
L 220.71065 127.865832 
L 220.792884 128.31743 
L 220.875118 128.274421 
L 221.012346 128.31743 
L 221.368521 128.252916 
L 221.560486 128.080879 
L 221.779947 128.016365 
L 222.081386 128.446458 
L 222.328344 128.338935 
L 222.492812 128.209907 
L 222.629783 128.424953 
L 222.65728 128.403449 
L 223.068706 127.242197 
L 223.123443 127.242197 
L 223.287911 128.059374 
L 223.397641 128.467963 
L 223.452635 128.446458 
L 223.6446 128.683009 
L 223.672097 128.618495 
L 223.864061 128.510972 
L 224.385218 128.059374 
L 224.439955 128.188402 
L 224.549686 128.252916 
L 224.577183 128.231412 
L 224.933872 128.123888 
L 225.0711 128.080879 
L 225.208071 128.446458 
L 225.235568 128.338935 
L 225.674491 126.812104 
L 225.784479 127.177683 
L 226.058677 128.209907 
L 226.388127 128.532477 
L 226.525354 128.295925 
L 226.79981 127.887337 
L 226.937037 128.123888 
L 227.156499 128.489467 
L 227.183996 128.467963 
L 227.540942 128.059374 
L 227.787901 128.360439 
L 227.925128 128.446458 
L 228.062356 128.231412 
L 228.199584 127.99486 
L 228.227081 128.016365 
L 228.391806 128.102384 
L 228.693758 128.575486 
L 228.940973 128.510972 
L 229.050704 128.403449 
L 229.325417 128.016365 
L 229.517638 128.102384 
L 229.764854 128.31743 
L 230.094303 128.188402 
L 230.478746 128.360439 
L 230.753459 128.274421 
L 231.000674 128.381944 
L 231.138159 128.618495 
L 231.192896 128.575486 
L 231.63259 128.467963 
L 231.852309 128.209907 
L 232.154518 128.295925 
L 232.292003 128.381944 
L 232.401733 128.295925 
L 232.539218 128.252916 
L 232.868925 128.145393 
L 233.171134 128.03787 
L 233.336116 128.123888 
L 233.528594 128.338935 
L 233.610828 128.274421 
L 233.77581 128.102384 
L 233.940791 128.03787 
L 234.050779 128.03787 
L 234.243001 128.231412 
L 234.270498 128.252916 
L 234.297995 128.209907 
L 234.462976 127.99486 
L 234.930424 128.360439 
L 234.957921 128.295925 
L 235.287885 127.973356 
L 235.727579 128.467963 
L 236.415002 128.553981 
L 236.497493 128.618495 
L 236.552744 128.575486 
L 236.85521 128.446458 
L 237.13018 128.532477 
L 237.432646 128.424953 
L 237.680375 128.188402 
L 237.81786 128.166898 
L 237.927848 128.166898 
L 238.17532 128.532477 
L 238.395553 128.467963 
L 238.505541 128.532477 
L 238.533038 128.446458 
L 238.698019 128.295925 
L 238.780767 128.209907 
L 238.973246 128.03787 
L 239.055737 128.145393 
L 239.193478 128.532477 
L 239.220975 128.618495 
L 239.303466 128.553981 
L 239.440951 128.596991 
L 239.68868 128.295925 
L 239.853919 128.295925 
L 240.514359 128.188402 
L 240.651844 128.102384 
L 240.679341 128.123888 
L 241.202554 128.403449 
L 241.47778 128.274421 
L 241.642762 128.360439 
L 241.753007 128.295925 
L 241.780504 128.338935 
L 241.918245 128.360439 
L 242.165975 128.274421 
L 242.386207 128.618495 
L 242.468698 128.553981 
L 242.854426 128.31743 
L 242.881923 128.360439 
L 243.102156 128.403449 
L 243.2124 128.295925 
L 243.432633 128.252916 
L 243.515124 128.338935 
L 243.680362 128.446458 
L 243.818104 128.467963 
L 244.066091 128.532477 
L 244.203832 128.424953 
L 244.561807 128.274421 
L 245.14027 128.188402 
L 245.36076 128.03787 
L 245.608746 128.360439 
L 245.773985 128.489467 
L 245.801482 128.467963 
L 246.077222 128.381944 
L 246.18721 128.467963 
L 246.352705 128.532477 
L 246.490447 128.424953 
L 246.765931 127.973356 
L 247.234407 128.64 
L 247.289657 128.596991 
L 247.372405 128.553981 
L 247.399902 128.575486 
L 247.620392 128.64 
L 247.730636 128.467963 
L 247.978623 127.930346 
L 248.199369 128.188402 
L 248.419859 128.553981 
L 248.5576 128.532477 
L 248.971083 128.446458 
L 249.164075 128.295925 
L 249.605311 128.510972 
L 250.267294 128.446458 
L 250.432532 128.31743 
L 250.736026 128.424953 
L 251.011767 128.360439 
L 251.370512 127.779814 
L 251.45326 127.865832 
L 251.591001 128.274421 
L 251.756497 128.661505 
L 251.811748 128.596991 
L 252.142739 128.489467 
L 252.363486 128.31743 
L 252.556735 128.403449 
L 252.722231 128.596991 
L 252.777482 128.553981 
L 253.218975 127.693795 
L 253.246472 127.736804 
L 253.522469 128.252916 
L 253.687965 128.145393 
L 253.853717 128.059374 
L 254.019213 128.166898 
L 254.350461 128.726019 
L 254.405712 128.618495 
L 254.653955 128.31743 
L 254.847205 128.145393 
L 254.874959 128.166898 
L 255.040454 128.489467 
L 255.068208 128.446458 
L 255.261458 128.338935 
L 255.288955 128.381944 
L 255.399456 128.446458 
L 255.426953 128.424953 
L 255.8962 128.188402 
L 256.006702 128.360439 
L 256.089707 128.596991 
L 256.144701 128.532477 
L 256.558954 127.779814 
L 256.752203 128.274421 
L 256.973207 128.704514 
L 257.055955 128.747523 
L 257.083708 128.704514 
L 257.525458 128.059374 
L 257.580709 128.102384 
L 258.188469 128.575486 
L 258.24372 128.489467 
L 258.436969 128.360439 
L 258.49222 128.403449 
L 258.519974 128.381944 
L 258.768474 128.059374 
L 258.851479 127.908842 
L 258.989478 127.629281 
L 259.017232 127.67229 
L 259.459239 128.467963 
L 259.652745 128.489467 
L 260.012004 128.381944 
L 260.177757 128.188402 
L 260.426514 128.274421 
L 260.537016 128.403449 
L 260.564513 128.338935 
L 260.896275 127.822823 
L 261.006777 127.887337 
L 261.22778 128.575486 
L 261.255534 128.553981 
L 261.449041 128.059374 
L 261.670044 127.801318 
L 261.836054 128.209907 
L 262.001806 128.510972 
L 262.278318 128.274421 
L 262.361323 128.338935 
L 262.582326 128.575486 
L 262.637834 128.596991 
L 262.665331 128.532477 
L 262.83134 128.446458 
L 262.858837 128.489467 
L 262.941842 128.489467 
L 262.969596 128.446458 
L 263.384363 127.67229 
L 263.494865 127.822823 
L 263.716125 128.510972 
L 263.79913 128.424953 
L 264.269148 128.080879 
L 264.296902 128.166898 
L 264.601167 128.661505 
L 265.043688 128.123888 
L 265.154446 128.31743 
L 265.292702 128.424953 
L 265.928987 128.059374 
L 266.537517 128.403449 
L 266.73128 128.123888 
L 266.814285 128.080879 
L 266.842039 128.102384 
L 267.478581 128.510972 
L 267.727595 128.188402 
L 267.921358 128.145393 
L 268.032117 128.360439 
L 268.087368 128.532477 
L 268.142619 128.446458 
L 268.39189 127.07016 
L 268.5579 126.704581 
L 268.613151 126.74759 
L 268.945427 128.145393 
L 269.000935 128.080879 
L 269.166944 128.016365 
L 269.194698 128.059374 
L 269.416216 128.31743 
L 269.554471 128.553981 
L 269.66523 128.575486 
L 269.969752 128.252916 
L 270.523546 128.661505 
L 270.5513 128.596991 
L 270.939084 127.930346 
L 271.049842 127.844328 
L 271.326868 127.586272 
L 271.659144 127.973356 
L 271.742149 128.080879 
L 271.769902 128.03787 
L 271.936169 127.973356 
L 272.130189 128.059374 
L 272.434712 128.424953 
L 272.462466 128.381944 
L 272.573224 128.381944 
L 272.711737 128.403449 
L 272.822753 128.338935 
L 273.127532 127.865832 
L 273.210537 128.03787 
L 273.321295 128.188402 
L 273.349049 128.166898 
L 273.681582 127.134674 
L 273.709336 127.156179 
L 273.764587 127.134674 
L 273.792341 127.177683 
L 273.903357 127.629281 
L 274.069623 128.123888 
L 274.263387 128.059374 
L 274.596177 128.403449 
L 275.011715 128.209907 
L 275.233489 128.295925 
L 275.399756 128.145393 
L 275.42751 128.166898 
L 275.704792 128.231412 
L 275.926566 128.489467 
L 276.370115 127.306711 
L 276.453377 127.478749 
L 276.841418 128.424953 
L 276.896926 128.338935 
L 277.035695 128.123888 
L 277.063449 128.166898 
L 277.25747 128.274421 
L 277.45149 128.381944 
L 277.506998 128.510972 
L 277.59026 128.446458 
L 277.756526 128.446458 
L 277.895296 128.510972 
L 277.92305 128.467963 
L 278.061563 128.446458 
L 278.089317 128.424953 
L 278.144824 128.510972 
L 278.228086 128.403449 
L 278.533122 128.03787 
L 278.976928 127.521758 
L 279.06019 127.607776 
L 279.39298 128.274421 
L 279.420734 128.231412 
L 279.642765 128.166898 
L 279.864797 128.424953 
L 280.225341 128.31743 
L 280.391864 128.295925 
L 280.475126 128.381944 
L 280.530634 128.338935 
L 280.752665 128.295925 
L 281.335498 128.231412 
L 281.585283 127.844328 
L 281.696299 128.03787 
L 281.751806 127.973356 
L 281.862822 127.865832 
L 281.890576 127.887337 
L 282.084854 128.016365 
L 282.195869 127.973356 
L 282.223623 128.016365 
L 282.362393 128.424953 
L 282.473408 128.596991 
L 282.501162 128.575486 
L 283.112006 128.467963 
L 283.611576 128.188402 
L 283.778357 128.274421 
L 283.806111 128.231412 
L 284.111404 128.123888 
L 284.305938 128.145393 
L 284.416954 128.059374 
L 284.611231 127.865832 
L 284.638985 127.908842 
L 285.000043 128.360439 
L 285.027797 128.31743 
L 285.250086 128.231412 
L 285.305594 128.188402 
L 285.361101 128.252916 
L 285.527882 128.618495 
L 285.58339 128.532477 
L 285.805678 127.951851 
L 286.111228 128.295925 
L 286.249998 128.467963 
L 286.277752 128.424953 
L 286.361271 128.231412 
L 286.555805 128.016365 
L 286.805847 128.123888 
L 286.972371 128.360439 
L 287.000125 128.31743 
L 287.36144 126.919627 
L 287.416948 127.005646 
L 287.611482 127.930346 
L 287.750509 128.489467 
L 287.778262 128.446458 
L 287.861524 128.424953 
L 287.889278 128.467963 
L 288.167331 128.553981 
L 288.361866 128.446458 
L 288.778689 128.252916 
L 289.000977 128.489467 
L 289.11225 128.596991 
L 289.167757 128.64 
L 289.195768 128.596991 
L 289.445811 128.295925 
L 289.584837 128.360439 
L 289.612591 128.31743 
L 289.86289 127.930346 
L 289.890644 127.951851 
L 290.057425 128.03787 
L 290.307724 128.769028 
L 290.363232 128.64 
L 290.530013 128.252916 
L 290.558023 128.274421 
L 290.947092 128.381944 
L 291.058365 128.510972 
L 291.11413 128.446458 
L 291.364172 128.338935 
L 291.53121 128.123888 
L 291.586717 128.166898 
L 292.059562 128.553981 
L 292.11507 128.833542 
L 292.143081 128.747523 
L 292.532407 125.650853 
L 292.588172 125.82289 
L 292.699187 126.704581 
L 292.893979 128.726019 
L 292.949743 128.553981 
L 293.08877 128.31743 
L 293.116524 128.338935 
L 293.172289 128.403449 
L 293.339069 128.553981 
L 293.561615 128.446458 
L 293.867679 128.338935 
L 294.006962 128.510972 
L 294.06247 128.446458 
L 294.479807 128.231412 
L 294.619091 128.424953 
L 294.702609 128.704514 
L 294.758117 128.596991 
L 295.064181 127.457244 
L 295.092192 127.478749 
L 295.286984 127.908842 
L 295.454021 128.704514 
L 295.509529 128.596991 
L 295.648812 128.403449 
L 295.676566 128.424953 
L 295.81585 128.446458 
L 296.09416 128.360439 
L 296.455989 128.446458 
L 296.483743 128.489467 
L 296.511497 128.446458 
L 296.678534 128.252916 
L 296.957102 128.338935 
L 297.263423 128.898056 
L 297.291177 128.812037 
L 297.653006 127.027151 
L 297.736524 127.091665 
L 297.931573 127.99486 
L 298.015091 128.489467 
L 298.09861 128.295925 
L 298.237894 128.295925 
L 298.48845 128.489467 
L 298.989819 128.145393 
L 299.017573 128.188402 
L 299.240376 128.553981 
L 299.296141 128.467963 
L 299.435424 128.489467 
L 299.769756 128.403449 
L 299.936794 127.99486 
L 300.159596 127.543262 
L 300.243372 127.67229 
L 300.521939 128.338935 
L 300.549693 128.381944 
L 300.605458 128.338935 
L 300.772495 128.188402 
L 300.800506 128.209907 
L 301.079073 128.596991 
L 301.107084 128.575486 
L 301.218357 128.467963 
L 301.246368 128.489467 
L 301.636464 128.790533 
L 301.664218 128.726019 
L 301.970796 128.166898 
L 301.99855 128.188402 
L 302.165845 128.424953 
L 302.333139 128.532477 
L 302.416658 128.467963 
L 302.583953 128.274421 
L 302.611706 128.295925 
L 302.974049 128.188402 
L 303.029814 128.188402 
L 303.057825 128.231412 
L 303.447922 128.403449 
L 303.670981 128.360439 
L 304.312405 128.252916 
L 304.591229 128.166898 
L 304.897807 128.274421 
L 305.176631 128.188402 
L 305.371937 128.467963 
L 305.539231 128.726019 
L 305.846066 128.360439 
L 306.013361 128.231412 
L 306.041115 128.252916 
L 306.320196 128.360439 
L 306.71055 128.596991 
L 306.738561 128.553981 
L 307.184936 128.338935 
L 307.380242 128.489467 
L 307.436006 128.403449 
L 307.603301 128.145393 
L 307.659066 128.209907 
L 307.715088 128.274421 
L 307.770852 128.231412 
L 307.854371 128.231412 
L 307.882382 128.274421 
L 307.966158 128.360439 
L 308.077687 128.489467 
L 308.133452 128.446458 
L 308.244982 128.381944 
L 308.272993 128.403449 
L 308.524063 128.532477 
L 308.552074 128.489467 
L 308.719368 128.489467 
L 308.858909 128.575486 
L 308.88692 128.553981 
L 309.054471 128.403449 
L 309.082225 128.424953 
L 309.221766 128.467963 
L 309.249777 128.424953 
L 309.445082 128.31743 
L 309.668398 128.231412 
L 309.752174 128.209907 
L 309.779928 128.231412 
L 310.059266 128.467963 
L 310.254572 128.360439 
L 310.449877 128.31743 
L 310.729215 128.553981 
L 310.952531 128.596991 
L 311.203601 128.403449 
L 311.343399 128.381944 
L 311.734267 128.209907 
L 312.79534 128.102384 
L 313.046668 128.03787 
L 313.158454 128.145393 
L 313.549579 128.575486 
L 313.772895 128.510972 
L 313.968458 128.553981 
L 314.303817 127.908842 
L 314.415604 128.016365 
L 314.750707 128.338935 
L 315.030302 128.166898 
L 315.058056 128.209907 
L 315.253618 128.338935 
L 315.505203 128.231412 
L 315.616989 128.080879 
L 315.645 128.145393 
L 315.924338 128.231412 
L 315.952349 128.188402 
L 316.008114 128.252916 
L 316.175922 128.295925 
L 316.399496 128.145393 
L 316.595058 128.274421 
L 316.762866 128.381944 
L 316.874653 128.467963 
L 316.902664 128.446458 
L 316.958429 128.424953 
L 316.98644 128.467963 
L 317.014451 128.510972 
L 317.070215 128.424953 
L 317.3218 128.360439 
L 318.747786 128.467963 
L 318.943348 128.64 
L 318.971359 128.618495 
L 319.2232 128.424953 
L 319.670604 128.209907 
L 319.894177 128.102384 
L 320.174029 128.016365 
L 320.285816 127.973356 
L 320.341838 127.930346 
L 320.397859 127.99486 
L 320.621433 128.274421 
L 320.873274 128.446458 
L 320.901285 128.381944 
L 321.069093 128.059374 
L 321.125115 128.123888 
L 321.348945 128.338935 
L 321.376699 128.31743 
L 321.488743 128.424953 
L 321.600529 128.467963 
L 321.712573 128.274421 
L 321.740584 128.295925 
L 321.880382 128.381944 
L 321.908392 128.360439 
L 322.160234 128.252916 
L 322.300031 128.295925 
L 322.384064 128.295925 
L 322.412075 128.338935 
L 322.663916 128.553981 
L 322.803713 128.446458 
L 323.111576 128.016365 
L 323.251631 127.99486 
L 323.363418 127.99486 
L 323.503472 128.059374 
L 323.615516 128.059374 
L 324.063176 128.618495 
L 324.091187 128.596991 
L 324.735181 128.489467 
L 324.931 128.446458 
L 325.127077 128.467963 
L 325.659027 128.188402 
L 325.939136 128.295925 
L 326.078933 128.532477 
L 326.134955 128.467963 
L 326.331031 128.446458 
L 326.835228 128.360439 
L 326.975282 128.338935 
L 328.011686 128.231412 
L 328.45986 127.99486 
L 328.655936 128.016365 
L 328.711958 127.99486 
L 328.739969 128.03787 
L 329.020078 128.596991 
L 329.0761 128.553981 
L 329.412488 128.424953 
L 330.253072 128.510972 
L 330.477416 128.661505 
L 330.645482 128.683009 
L 331.065902 128.231412 
L 331.346268 128.704514 
L 331.430301 128.596991 
L 331.710667 128.188402 
L 331.822967 128.231412 
L 332.047055 128.532477 
L 332.131344 128.338935 
L 332.29941 128.166898 
L 332.776109 128.467963 
L 332.80412 128.424953 
L 333.000453 128.209907 
L 333.112497 128.360439 
L 333.168776 128.31743 
L 333.30883 128.145393 
L 333.364852 128.188402 
L 333.701497 128.274421 
L 333.869819 128.575486 
L 333.953852 128.467963 
L 334.038142 128.403449 
L 334.066153 128.467963 
L 334.122174 128.510972 
L 334.178196 128.446458 
L 334.767196 128.102384 
L 335.047819 128.596991 
L 335.132109 128.467963 
L 335.300431 128.381944 
L 335.833409 128.295925 
L 335.94571 128.188402 
L 335.973721 128.209907 
L 336.170054 128.31743 
L 336.422666 128.403449 
L 336.787322 128.855047 
L 336.815333 128.812037 
L 337.292546 128.274421 
L 337.545158 128.403449 
L 337.573169 128.360439 
L 337.910071 127.822823 
L 337.966093 127.908842 
L 338.078393 128.059374 
L 338.246716 128.467963 
L 338.274984 128.424953 
L 338.583618 127.629281 
L 338.639896 127.629281 
L 338.667907 127.67229 
L 338.780208 127.887337 
L 339.145121 128.661505 
L 339.285432 128.64 
L 339.482022 128.467963 
L 339.987503 128.123888 
L 340.015514 128.166898 
L 340.408695 128.510972 
L 340.464717 128.403449 
L 340.689575 128.145393 
L 340.801876 128.274421 
L 340.857897 128.209907 
L 341.223067 128.059374 
L 341.335368 128.166898 
L 341.531958 128.489467 
L 341.560226 128.467963 
L 341.644515 128.446458 
L 341.672526 128.489467 
L 341.700537 128.532477 
L 341.756816 128.467963 
L 341.981417 128.295925 
L 342.374855 128.489467 
L 342.712014 128.145393 
L 342.824314 128.252916 
L 343.358063 128.596991 
L 343.386331 128.553981 
L 343.751501 127.285207 
L 343.80778 127.349721 
L 343.892069 127.543262 
L 344.032638 128.295925 
L 344.116927 128.489467 
L 344.172949 128.446458 
L 344.369797 128.166898 
L 344.763234 128.403449 
L 344.791245 128.360439 
L 345.016103 128.080879 
L 345.18494 128.166898 
L 345.353519 128.338935 
L 345.38153 128.31743 
L 345.578377 128.102384 
L 345.606645 128.145393 
L 345.972072 128.059374 
L 346.168662 127.650786 
L 346.253209 127.779814 
L 346.646646 128.532477 
L 346.731193 128.381944 
L 346.927783 128.03787 
L 346.956051 128.059374 
L 347.462303 128.31743 
L 347.687161 128.274421 
L 347.884009 128.510972 
L 347.940287 128.467963 
L 348.333982 128.274421 
L 348.446539 128.338935 
L 348.47455 128.31743 
L 348.643387 128.080879 
L 348.755944 127.951851 
L 348.783955 127.99486 
L 348.924781 127.973356 
L 349.00907 128.080879 
L 349.290464 128.489467 
L 349.431033 128.360439 
L 349.459044 128.403449 
L 349.656148 128.31743 
L 349.740438 128.252916 
L 349.796716 128.295925 
L 349.937542 128.381944 
L 350.190668 128.575486 
L 350.331236 128.489467 
L 350.668909 128.102384 
L 350.697177 128.123888 
L 350.922292 128.338935 
L 350.950303 128.31743 
L 351.091129 128.252916 
L 351.428801 127.7153 
L 351.513348 127.801318 
L 352.132415 128.553981 
L 352.27324 128.553981 
L 352.836028 128.231412 
L 353.286515 128.596991 
L 353.342794 128.489467 
L 353.680724 127.99486 
L 353.877828 127.973356 
L 354.131211 128.080879 
L 354.356583 128.231412 
L 354.581698 128.338935 
L 354.891617 128.489467 
L 355.257815 127.99486 
L 355.285826 128.03787 
L 355.511198 128.338935 
L 355.652023 128.596991 
L 356.018221 128.145393 
L 356.046489 128.166898 
L 356.666069 128.252916 
L 357.004256 128.575486 
L 357.20136 128.553981 
L 357.314175 128.661505 
L 357.342186 128.64 
L 357.652105 128.188402 
L 357.821198 128.059374 
L 358.21592 128.489467 
L 358.356746 128.381944 
L 358.554107 128.360439 
L 358.807747 128.467963 
L 358.864026 128.532477 
L 358.920305 128.467963 
L 359.202213 128.467963 
L 359.258491 129.672224 
L 359.371306 138.897722 
L 359.399574 137.198854 
L 359.540399 98.081882 
L 359.766028 56.341342 
L 359.794039 56.104791 
L 359.878843 62.405656 
L 360.047936 106.963305 
L 360.160751 133.155978 
L 360.21703 131.543129 
L 360.357855 127.478749 
L 360.386123 127.500253 
L 360.724567 128.016365 
L 360.837381 127.930346 
L 361.062753 127.779814 
L 361.232104 127.887337 
L 361.288382 127.844328 
L 361.344918 127.887337 
L 361.457476 128.102384 
L 361.683105 128.446458 
L 361.795919 128.489467 
L 361.852455 129.951784 
L 361.937002 135.306444 
L 361.993281 132.467829 
L 362.359992 78.168569 
L 362.416528 79.501858 
L 362.529343 92.103587 
L 362.754972 131.371091 
L 362.81125 129.973289 
L 362.980601 127.7153 
L 363.065147 127.478749 
L 363.149694 127.607776 
L 363.37558 127.908842 
L 363.62922 128.360439 
L 364.306365 127.801318 
L 364.334632 127.844328 
L 364.391168 128.661505 
L 364.503983 140.295524 
L 364.560262 135.736537 
L 364.92723 38.6 
L 365.011777 43.868641 
L 365.152859 82.534015 
L 365.32221 133.263501 
L 365.378745 131.17755 
L 365.548096 127.263702 
L 365.66091 127.113169 
L 365.689178 127.156179 
L 366.027879 128.016365 
L 366.056147 127.99486 
L 366.70528 127.629281 
L 366.930909 128.059374 
L 366.987445 129.113102 
L 367.100517 135.693528 
L 367.128527 134.102183 
L 367.523764 76.749262 
L 367.608567 81.630819 
L 367.777918 114.167366 
L 367.890989 131.414101 
L 367.947268 129.779747 
L 368.116875 127.564767 
L 368.568648 128.252916 
L 368.624926 128.188402 
L 368.992152 127.758309 
L 369.02042 127.779814 
L 369.359377 128.209907 
L 369.387645 128.188402 
L 369.50046 128.188402 
L 369.556996 128.31743 
L 369.670067 129.758242 
L 369.698078 129.478682 
L 369.895953 120.102651 
L 370.093572 115.694196 
L 370.178375 116.72642 
L 370.347726 124.274555 
L 370.460797 128.726019 
L 370.517333 128.381944 
L 370.630404 127.951851 
L 370.658672 127.973356 
L 371.025898 128.231412 
L 371.054166 128.188402 
L 371.336588 127.67229 
L 371.534463 127.736804 
L 371.703813 127.887337 
L 371.986492 127.779814 
L 372.156099 127.586272 
L 372.212635 127.7153 
L 372.240903 127.779814 
L 372.268914 127.7153 
L 372.551593 126.403516 
L 372.664664 126.618562 
L 372.834271 127.220693 
L 373.032147 128.209907 
L 373.088682 128.102384 
L 373.230022 128.059374 
L 373.568979 128.166898 
L 373.625515 128.166898 
L 373.653783 128.123888 
L 373.851658 127.930346 
L 373.879926 127.951851 
L 374.134337 128.016365 
L 374.303944 128.123888 
L 374.841291 128.424953 
L 375.180506 127.844328 
L 375.293577 127.930346 
L 376.057067 128.510972 
L 376.085335 128.446458 
L 376.594414 127.844328 
L 376.764021 127.908842 
L 376.905361 127.973356 
L 377.160029 128.166898 
L 377.584304 128.424953 
L 377.697376 128.31743 
L 377.725643 128.338935 
L 378.008579 128.231412 
L 378.121908 128.403449 
L 378.263247 128.532477 
L 378.461379 128.31743 
L 378.913922 128.575486 
L 379.310187 128.166898 
L 379.451526 128.274421 
L 379.536587 128.274421 
L 379.564855 128.231412 
L 379.734719 128.123888 
L 379.819523 128.123888 
L 379.989387 128.360439 
L 380.017655 128.338935 
L 380.158994 128.446458 
L 380.244055 128.489467 
L 380.272323 128.446458 
L 380.498723 128.360439 
L 380.668587 128.295925 
L 380.866719 128.274421 
L 381.234716 128.446458 
L 381.461116 128.145393 
L 381.574444 128.03787 
L 381.63098 128.080879 
L 381.885905 128.016365 
L 382.112305 127.7153 
L 382.310437 127.973356 
L 382.565362 128.64 
L 382.621898 128.596991 
L 382.650166 128.64 
L 382.706959 128.575486 
L 383.386416 128.123888 
L 383.414684 128.166898 
L 383.55628 128.338935 
L 383.584805 128.31743 
L 383.896266 127.822823 
L 383.981326 127.887337 
L 384.292787 128.295925 
L 384.321055 128.252916 
L 384.547712 128.102384 
L 384.57598 128.145393 
L 384.915965 128.467963 
L 384.972501 128.489467 
L 385.001026 128.446458 
L 385.227683 128.274421 
L 385.765801 128.188402 
L 385.879129 128.080879 
L 385.935922 128.123888 
L 386.275908 128.274421 
L 386.360968 128.231412 
L 386.389236 128.252916 
L 386.474297 128.381944 
L 386.5591 128.31743 
L 386.75749 128.209907 
L 386.927611 128.145393 
L 387.211061 127.951851 
L 387.239328 128.016365 
L 387.437718 128.209907 
L 387.77796 128.553981 
L 388.004617 128.252916 
L 388.032885 128.274421 
L 388.061153 128.188402 
L 388.259799 127.844328 
L 388.373128 127.887337 
L 388.458188 128.080879 
L 388.741638 128.31743 
L 388.826699 128.231412 
L 389.053356 127.973356 
L 389.507184 128.188402 
L 389.733841 127.930346 
L 389.932487 127.650786 
L 390.017548 127.693795 
L 390.017548 127.693795 
" clip-path="url(#p54ad9addc4)" style="fill: none; stroke: #8286ff; stroke-width: 0.6; stroke-linecap: square"/>
   </g>
   <g id="line2d_12"/>
   <g id="patch_3">
    <path d="M 55.95 128.64 
L 55.95 38.6 
" style="fill: none; stroke: #000000; stroke-width: 0.5; stroke-linejoin: miter; stroke-linecap: square"/>
   </g>
   <g id="patch_4">
    <path d="M 55.95 128.64 
L 390.025 128.64 
" style="fill: none; stroke: #000000; stroke-width: 0.5; stroke-linejoin: miter; stroke-linecap: square"/>
   </g>
   <g id="legend_1">
    <g id="patch_5">
     <path d="M 192.536719 60.857812 
L 253.438281 60.857812 
Q 255.438281 60.857812 255.438281 58.857812 
L 255.438281 45.6 
Q 255.438281 43.6 253.438281 43.6 
L 192.536719 43.6 
Q 190.536719 43.6 190.536719 45.6 
L 190.536719 58.857812 
Q 190.536719 60.857812 192.536719 60.857812 
z
" style="fill: #ffffff; opacity: 0.8; stroke: #cccccc; stroke-linejoin: miter"/>
    </g>
    <g id="line2d_13">
     <path d="M 194.536719 51.273438 
L 204.536719 51.273438 
L 214.536719 51.273438 
" style="fill: none; stroke: #8286ff; stroke-width: 0.6; stroke-linecap: square"/>
    </g>
    <g id="text_13">
     <!-- PS-1K -->
     <g transform="translate(222.536719 54.773438) scale(0.1 -0.1)">
      <defs>
       <path id="Helvetica-50" d="M 547 4591 
L 2613 4591 
Q 3225 4591 3600 4245 
Q 3975 3900 3975 3275 
Q 3975 2738 3640 2339 
Q 3306 1941 2613 1941 
L 1169 1941 
L 1169 0 
L 547 0 
L 547 4591 
z
M 3347 3272 
Q 3347 3778 2972 3959 
Q 2766 4056 2406 4056 
L 1169 4056 
L 1169 2466 
L 2406 2466 
Q 2825 2466 3086 2644 
Q 3347 2822 3347 3272 
z
" transform="scale(0.015625)"/>
       <path id="Helvetica-53" d="M 894 1481 
Q 916 1091 1078 847 
Q 1388 391 2169 391 
Q 2519 391 2806 491 
Q 3363 684 3363 1184 
Q 3363 1559 3128 1719 
Q 2891 1875 2384 1991 
L 1763 2131 
Q 1153 2269 900 2434 
Q 463 2722 463 3294 
Q 463 3913 891 4309 
Q 1319 4706 2103 4706 
Q 2825 4706 3329 4357 
Q 3834 4009 3834 3244 
L 3250 3244 
Q 3203 3613 3050 3809 
Q 2766 4169 2084 4169 
Q 1534 4169 1293 3937 
Q 1053 3706 1053 3400 
Q 1053 3063 1334 2906 
Q 1519 2806 2169 2656 
L 2813 2509 
Q 3278 2403 3531 2219 
Q 3969 1897 3969 1284 
Q 3969 522 3414 194 
Q 2859 -134 2125 -134 
Q 1269 -134 784 303 
Q 300 738 309 1481 
L 894 1481 
z
M 2150 4716 
L 2150 4716 
z
" transform="scale(0.015625)"/>
       <path id="Helvetica-2d" d="M 266 2072 
L 1834 2072 
L 1834 1494 
L 266 1494 
L 266 2072 
z
" transform="scale(0.015625)"/>
       <path id="Helvetica-4b" d="M 488 4591 
L 1094 4591 
L 1094 2353 
L 3331 4591 
L 4191 4591 
L 2281 2741 
L 4244 0 
L 3434 0 
L 1828 2303 
L 1094 1600 
L 1094 0 
L 488 0 
L 488 4591 
z
" transform="scale(0.015625)"/>
      </defs>
      <use xlink:href="#Helvetica-50"/>
      <use xlink:href="#Helvetica-53" x="66.699219"/>
      <use xlink:href="#Helvetica-2d" x="133.398438"/>
      <use xlink:href="#Helvetica-31" x="166.699219"/>
      <use xlink:href="#Helvetica-4b" x="222.314453"/>
     </g>
    </g>
   </g>
  </g>
 </g>
 <defs>
  <clipPath id="p54ad9addc4">
   <rect x="55.95" y="38.6" width="334.075" height="90.04"/>
  </clipPath>
 </defs>
</svg>
