<?xml version="1.0" encoding="utf-8" standalone="no"?>
<!DOCTYPE svg PUBLIC "-//W3C//DTD SVG 1.1//EN"
  "http://www.w3.org/Graphics/SVG/1.1/DTD/svg11.dtd">
<svg xmlns:xlink="http://www.w3.org/1999/xlink" width="432pt" height="180pt" viewBox="0 0 432 180" xmlns="http://www.w3.org/2000/svg" version="1.1">
 <metadata>
  <rdf:RDF xmlns:dc="http://purl.org/dc/elements/1.1/" xmlns:cc="http://creativecommons.org/ns#" xmlns:rdf="http://www.w3.org/1999/02/22-rdf-syntax-ns#">
   <cc:Work>
    <dc:type rdf:resource="http://purl.org/dc/dcmitype/StillImage"/>
    <dc:date>2025-02-05T00:57:12.012615</dc:date>
    <dc:format>image/svg+xml</dc:format>
    <dc:creator>
     <cc:Agent>
      <dc:title>Matplotlib v3.7.1, https://matplotlib.org/</dc:title>
     </cc:Agent>
    </dc:creator>
   </cc:Work>
  </rdf:RDF>
 </metadata>
 <defs>
  <style type="text/css">*{stroke-linejoin: round; stroke-linecap: butt}</style>
 </defs>
 <g id="figure_1">
  <g id="patch_1">
   <path d="M 0 180 
L 432 180 
L 432 0 
L 0 0 
z
" style="fill: #ffffff"/>
  </g>
  <g id="axes_1">
   <g id="patch_2">
    <path d="M 55.95 128.64 
L 390.025 128.64 
L 390.025 38.6 
L 55.95 38.6 
z
" style="fill: #ffffff"/>
   </g>
   <g id="matplotlib.axis_1">
    <g id="xtick_1">
     <g id="line2d_1">
      <defs>
       <path id="m6caacc9d1a" d="M 0 0 
L 0 -3.5 
" style="stroke: #000000; stroke-width: 0.8"/>
      </defs>
      <g>
       <use xlink:href="#m6caacc9d1a" x="55.95" y="128.64" style="stroke: #000000; stroke-width: 0.8"/>
      </g>
     </g>
     <g id="text_1">
      <!-- 880 -->
      <g transform="translate(45.940312 140.748125) scale(0.12 -0.12)">
       <defs>
        <path id="Helvetica-38" d="M 1741 2600 
Q 2113 2600 2322 2808 
Q 2531 3016 2531 3303 
Q 2531 3553 2331 3762 
Q 2131 3972 1722 3972 
Q 1316 3972 1134 3762 
Q 953 3553 953 3272 
Q 953 2956 1187 2778 
Q 1422 2600 1741 2600 
z
M 1775 384 
Q 2166 384 2423 595 
Q 2681 806 2681 1225 
Q 2681 1659 2415 1884 
Q 2150 2109 1734 2109 
Q 1331 2109 1076 1879 
Q 822 1650 822 1244 
Q 822 894 1055 639 
Q 1288 384 1775 384 
z
M 975 2384 
Q 741 2484 609 2619 
Q 363 2869 363 3269 
Q 363 3769 725 4128 
Q 1088 4488 1753 4488 
Q 2397 4488 2762 4148 
Q 3128 3809 3128 3356 
Q 3128 2938 2916 2678 
Q 2797 2531 2547 2391 
Q 2825 2263 2984 2097 
Q 3281 1784 3281 1284 
Q 3281 694 2884 283 
Q 2488 -128 1763 -128 
Q 1109 -128 657 226 
Q 206 581 206 1256 
Q 206 1653 400 1942 
Q 594 2231 975 2384 
z
" transform="scale(0.015625)"/>
        <path id="Helvetica-30" d="M 1731 4475 
Q 2600 4475 2988 3759 
Q 3288 3206 3288 2244 
Q 3288 1331 3016 734 
Q 2622 -122 1728 -122 
Q 922 -122 528 578 
Q 200 1163 200 2147 
Q 200 2909 397 3456 
Q 766 4475 1731 4475 
z
M 1725 391 
Q 2163 391 2422 778 
Q 2681 1166 2681 2222 
Q 2681 2984 2493 3476 
Q 2306 3969 1766 3969 
Q 1269 3969 1039 3501 
Q 809 3034 809 2125 
Q 809 1441 956 1025 
Q 1181 391 1725 391 
z
" transform="scale(0.015625)"/>
       </defs>
       <use xlink:href="#Helvetica-38"/>
       <use xlink:href="#Helvetica-38" x="55.615234"/>
       <use xlink:href="#Helvetica-30" x="111.230469"/>
      </g>
     </g>
    </g>
    <g id="xtick_2">
     <g id="line2d_2">
      <g>
       <use xlink:href="#m6caacc9d1a" x="107.346154" y="128.64" style="stroke: #000000; stroke-width: 0.8"/>
      </g>
     </g>
     <g id="text_2">
      <!-- 900 -->
      <g transform="translate(97.336466 140.748125) scale(0.12 -0.12)">
       <defs>
        <path id="Helvetica-39" d="M 850 1081 
Q 875 616 1209 438 
Q 1381 344 1597 344 
Q 2000 344 2284 680 
Q 2569 1016 2688 2044 
Q 2500 1747 2223 1626 
Q 1947 1506 1628 1506 
Q 981 1506 604 1909 
Q 228 2313 228 2947 
Q 228 3556 600 4018 
Q 972 4481 1697 4481 
Q 2675 4481 3047 3600 
Q 3253 3116 3253 2388 
Q 3253 1566 3006 931 
Q 2597 -125 1619 -125 
Q 963 -125 622 219 
Q 281 563 281 1081 
L 850 1081 
z
M 1703 2000 
Q 2038 2000 2314 2220 
Q 2591 2441 2591 2991 
Q 2591 3484 2342 3726 
Q 2094 3969 1709 3969 
Q 1297 3969 1055 3692 
Q 813 3416 813 2953 
Q 813 2516 1025 2258 
Q 1238 2000 1703 2000 
z
" transform="scale(0.015625)"/>
       </defs>
       <use xlink:href="#Helvetica-39"/>
       <use xlink:href="#Helvetica-30" x="55.615234"/>
       <use xlink:href="#Helvetica-30" x="111.230469"/>
      </g>
     </g>
    </g>
    <g id="xtick_3">
     <g id="line2d_3">
      <g>
       <use xlink:href="#m6caacc9d1a" x="158.742308" y="128.64" style="stroke: #000000; stroke-width: 0.8"/>
      </g>
     </g>
     <g id="text_3">
      <!-- 920 -->
      <g transform="translate(148.73262 140.748125) scale(0.12 -0.12)">
       <defs>
        <path id="Helvetica-32" d="M 200 0 
Q 231 578 439 1006 
Q 647 1434 1250 1784 
L 1850 2131 
Q 2253 2366 2416 2531 
Q 2672 2791 2672 3125 
Q 2672 3516 2437 3745 
Q 2203 3975 1813 3975 
Q 1234 3975 1013 3538 
Q 894 3303 881 2888 
L 309 2888 
Q 319 3472 525 3841 
Q 891 4491 1816 4491 
Q 2584 4491 2939 4075 
Q 3294 3659 3294 3150 
Q 3294 2613 2916 2231 
Q 2697 2009 2131 1694 
L 1703 1456 
Q 1397 1288 1222 1134 
Q 909 863 828 531 
L 3272 531 
L 3272 0 
L 200 0 
z
" transform="scale(0.015625)"/>
       </defs>
       <use xlink:href="#Helvetica-39"/>
       <use xlink:href="#Helvetica-32" x="55.615234"/>
       <use xlink:href="#Helvetica-30" x="111.230469"/>
      </g>
     </g>
    </g>
    <g id="xtick_4">
     <g id="line2d_4">
      <g>
       <use xlink:href="#m6caacc9d1a" x="210.138462" y="128.64" style="stroke: #000000; stroke-width: 0.8"/>
      </g>
     </g>
     <g id="text_4">
      <!-- 940 -->
      <g transform="translate(200.128774 140.748125) scale(0.12 -0.12)">
       <defs>
        <path id="Helvetica-34" d="M 2116 1584 
L 2116 3613 
L 681 1584 
L 2116 1584 
z
M 2125 0 
L 2125 1094 
L 163 1094 
L 163 1644 
L 2213 4488 
L 2688 4488 
L 2688 1584 
L 3347 1584 
L 3347 1094 
L 2688 1094 
L 2688 0 
L 2125 0 
z
" transform="scale(0.015625)"/>
       </defs>
       <use xlink:href="#Helvetica-39"/>
       <use xlink:href="#Helvetica-34" x="55.615234"/>
       <use xlink:href="#Helvetica-30" x="111.230469"/>
      </g>
     </g>
    </g>
    <g id="xtick_5">
     <g id="line2d_5">
      <g>
       <use xlink:href="#m6caacc9d1a" x="261.534615" y="128.64" style="stroke: #000000; stroke-width: 0.8"/>
      </g>
     </g>
     <g id="text_5">
      <!-- 960 -->
      <g transform="translate(251.524928 140.748125) scale(0.12 -0.12)">
       <defs>
        <path id="Helvetica-36" d="M 1872 4494 
Q 2622 4494 2917 4105 
Q 3213 3716 3213 3303 
L 2656 3303 
Q 2606 3569 2497 3719 
Q 2294 4000 1881 4000 
Q 1409 4000 1131 3564 
Q 853 3128 822 2316 
Q 1016 2600 1309 2741 
Q 1578 2866 1909 2866 
Q 2472 2866 2890 2506 
Q 3309 2147 3309 1434 
Q 3309 825 2912 354 
Q 2516 -116 1781 -116 
Q 1153 -116 697 361 
Q 241 838 241 1966 
Q 241 2800 444 3381 
Q 834 4494 1872 4494 
z
M 1831 384 
Q 2275 384 2495 682 
Q 2716 981 2716 1388 
Q 2716 1731 2519 2042 
Q 2322 2353 1803 2353 
Q 1441 2353 1167 2112 
Q 894 1872 894 1388 
Q 894 963 1142 673 
Q 1391 384 1831 384 
z
" transform="scale(0.015625)"/>
       </defs>
       <use xlink:href="#Helvetica-39"/>
       <use xlink:href="#Helvetica-36" x="55.615234"/>
       <use xlink:href="#Helvetica-30" x="111.230469"/>
      </g>
     </g>
    </g>
    <g id="xtick_6">
     <g id="line2d_6">
      <g>
       <use xlink:href="#m6caacc9d1a" x="312.930769" y="128.64" style="stroke: #000000; stroke-width: 0.8"/>
      </g>
     </g>
     <g id="text_6">
      <!-- 980 -->
      <g transform="translate(302.921082 140.748125) scale(0.12 -0.12)">
       <use xlink:href="#Helvetica-39"/>
       <use xlink:href="#Helvetica-38" x="55.615234"/>
       <use xlink:href="#Helvetica-30" x="111.230469"/>
      </g>
     </g>
    </g>
    <g id="xtick_7">
     <g id="line2d_7">
      <g>
       <use xlink:href="#m6caacc9d1a" x="364.326923" y="128.64" style="stroke: #000000; stroke-width: 0.8"/>
      </g>
     </g>
     <g id="text_7">
      <!-- 1000 -->
      <g transform="translate(350.980673 140.748125) scale(0.12 -0.12)">
       <defs>
        <path id="Helvetica-31" d="M 613 3169 
L 613 3600 
Q 1222 3659 1462 3798 
Q 1703 3938 1822 4456 
L 2266 4456 
L 2266 0 
L 1666 0 
L 1666 3169 
L 613 3169 
z
" transform="scale(0.015625)"/>
       </defs>
       <use xlink:href="#Helvetica-31"/>
       <use xlink:href="#Helvetica-30" x="55.615234"/>
       <use xlink:href="#Helvetica-30" x="111.230469"/>
       <use xlink:href="#Helvetica-30" x="166.845703"/>
      </g>
     </g>
    </g>
    <g id="text_8">
     <!-- m/z -->
     <g transform="translate(213.322812 155.8575) scale(0.12 -0.12)">
      <defs>
       <path id="Helvetica-6d" d="M 413 3347 
L 969 3347 
L 969 2872 
Q 1169 3119 1331 3231 
Q 1609 3422 1963 3422 
Q 2363 3422 2606 3225 
Q 2744 3113 2856 2894 
Q 3044 3163 3297 3292 
Q 3550 3422 3866 3422 
Q 4541 3422 4784 2934 
Q 4916 2672 4916 2228 
L 4916 0 
L 4331 0 
L 4331 2325 
Q 4331 2659 4164 2784 
Q 3997 2909 3756 2909 
Q 3425 2909 3186 2687 
Q 2947 2466 2947 1947 
L 2947 0 
L 2375 0 
L 2375 2184 
Q 2375 2525 2294 2681 
Q 2166 2916 1816 2916 
Q 1497 2916 1236 2669 
Q 975 2422 975 1775 
L 975 0 
L 413 0 
L 413 3347 
z
" transform="scale(0.015625)"/>
       <path id="Helvetica-2f" d="M 1456 4591 
L 1931 4591 
L 475 0 
L 0 0 
L 1456 4591 
z
" transform="scale(0.015625)"/>
       <path id="Helvetica-7a" d="M 163 444 
L 2147 2844 
L 309 2844 
L 309 3347 
L 2903 3347 
L 2903 2888 
L 931 503 
L 2963 503 
L 2963 0 
L 163 0 
L 163 444 
z
M 1609 3428 
L 1609 3428 
z
" transform="scale(0.015625)"/>
      </defs>
      <use xlink:href="#Helvetica-6d"/>
      <use xlink:href="#Helvetica-2f" x="83.300781"/>
      <use xlink:href="#Helvetica-7a" x="111.083984"/>
     </g>
    </g>
   </g>
   <g id="matplotlib.axis_2">
    <g id="ytick_1">
     <g id="line2d_8">
      <defs>
       <path id="me18c0af73f" d="M 0 0 
L 3.5 0 
" style="stroke: #000000; stroke-width: 0.8"/>
      </defs>
      <g>
       <use xlink:href="#me18c0af73f" x="55.95" y="128.64" style="stroke: #000000; stroke-width: 0.8"/>
      </g>
     </g>
     <g id="text_9">
      <!-- 0.0 -->
      <g transform="translate(35.77 132.944062) scale(0.12 -0.12)">
       <defs>
        <path id="Helvetica-2e" d="M 547 681 
L 1200 681 
L 1200 0 
L 547 0 
L 547 681 
z
" transform="scale(0.015625)"/>
       </defs>
       <use xlink:href="#Helvetica-30"/>
       <use xlink:href="#Helvetica-2e" x="55.615234"/>
       <use xlink:href="#Helvetica-30" x="83.398438"/>
      </g>
     </g>
    </g>
    <g id="ytick_2">
     <g id="line2d_9">
      <g>
       <use xlink:href="#me18c0af73f" x="55.95" y="83.62" style="stroke: #000000; stroke-width: 0.8"/>
      </g>
     </g>
     <g id="text_10">
      <!-- 0.5 -->
      <g transform="translate(35.77 87.924062) scale(0.12 -0.12)">
       <defs>
        <path id="Helvetica-35" d="M 791 1141 
Q 847 659 1238 475 
Q 1438 381 1700 381 
Q 2200 381 2440 700 
Q 2681 1019 2681 1406 
Q 2681 1875 2395 2131 
Q 2109 2388 1709 2388 
Q 1419 2388 1211 2275 
Q 1003 2163 856 1963 
L 369 1991 
L 709 4400 
L 3034 4400 
L 3034 3856 
L 1131 3856 
L 941 2613 
Q 1097 2731 1238 2791 
Q 1488 2894 1816 2894 
Q 2431 2894 2859 2497 
Q 3288 2100 3288 1491 
Q 3288 856 2895 371 
Q 2503 -113 1644 -113 
Q 1097 -113 676 195 
Q 256 503 206 1141 
L 791 1141 
z
" transform="scale(0.015625)"/>
       </defs>
       <use xlink:href="#Helvetica-30"/>
       <use xlink:href="#Helvetica-2e" x="55.615234"/>
       <use xlink:href="#Helvetica-35" x="83.398438"/>
      </g>
     </g>
    </g>
    <g id="ytick_3">
     <g id="line2d_10">
      <g>
       <use xlink:href="#me18c0af73f" x="55.95" y="38.6" style="stroke: #000000; stroke-width: 0.8"/>
      </g>
     </g>
     <g id="text_11">
      <!-- 1.0 -->
      <g transform="translate(35.77 42.904063) scale(0.12 -0.12)">
       <use xlink:href="#Helvetica-31"/>
       <use xlink:href="#Helvetica-2e" x="55.615234"/>
       <use xlink:href="#Helvetica-30" x="83.398438"/>
      </g>
     </g>
    </g>
    <g id="text_12">
     <!-- Normalized  -->
     <g transform="translate(16.3665 115.628125) rotate(-90) scale(0.12 -0.12)">
      <defs>
       <path id="Helvetica-4e" d="M 488 4591 
L 1222 4591 
L 3541 872 
L 3541 4591 
L 4131 4591 
L 4131 0 
L 3434 0 
L 1081 3716 
L 1081 0 
L 488 0 
L 488 4591 
z
M 2269 4591 
L 2269 4591 
z
" transform="scale(0.015625)"/>
       <path id="Helvetica-6f" d="M 1741 363 
Q 2300 363 2508 786 
Q 2716 1209 2716 1728 
Q 2716 2197 2566 2491 
Q 2328 2953 1747 2953 
Q 1231 2953 997 2559 
Q 763 2166 763 1609 
Q 763 1075 997 719 
Q 1231 363 1741 363 
z
M 1763 3444 
Q 2409 3444 2856 3012 
Q 3303 2581 3303 1744 
Q 3303 934 2909 406 
Q 2516 -122 1688 -122 
Q 997 -122 590 345 
Q 184 813 184 1600 
Q 184 2444 612 2944 
Q 1041 3444 1763 3444 
z
M 1744 3428 
L 1744 3428 
z
" transform="scale(0.015625)"/>
       <path id="Helvetica-72" d="M 428 3347 
L 963 3347 
L 963 2769 
Q 1028 2938 1284 3180 
Q 1541 3422 1875 3422 
Q 1891 3422 1928 3419 
Q 1966 3416 2056 3406 
L 2056 2813 
Q 2006 2822 1964 2825 
Q 1922 2828 1872 2828 
Q 1447 2828 1219 2554 
Q 991 2281 991 1925 
L 991 0 
L 428 0 
L 428 3347 
z
" transform="scale(0.015625)"/>
       <path id="Helvetica-61" d="M 844 891 
Q 844 647 1022 506 
Q 1200 366 1444 366 
Q 1741 366 2019 503 
Q 2488 731 2488 1250 
L 2488 1703 
Q 2384 1638 2221 1594 
Q 2059 1550 1903 1531 
L 1563 1488 
Q 1256 1447 1103 1359 
Q 844 1213 844 891 
z
M 2206 2028 
Q 2400 2053 2466 2191 
Q 2503 2266 2503 2406 
Q 2503 2694 2298 2823 
Q 2094 2953 1713 2953 
Q 1272 2953 1088 2716 
Q 984 2584 953 2325 
L 428 2325 
Q 444 2944 830 3186 
Q 1216 3428 1725 3428 
Q 2316 3428 2684 3203 
Q 3050 2978 3050 2503 
L 3050 575 
Q 3050 488 3086 434 
Q 3122 381 3238 381 
Q 3275 381 3322 386 
Q 3369 391 3422 400 
L 3422 -16 
Q 3291 -53 3222 -62 
Q 3153 -72 3034 -72 
Q 2744 -72 2613 134 
Q 2544 244 2516 444 
Q 2344 219 2022 53 
Q 1700 -113 1313 -113 
Q 847 -113 551 170 
Q 256 453 256 878 
Q 256 1344 547 1600 
Q 838 1856 1309 1916 
L 2206 2028 
z
M 1741 3428 
L 1741 3428 
z
" transform="scale(0.015625)"/>
       <path id="Helvetica-6c" d="M 428 4591 
L 991 4591 
L 991 0 
L 428 0 
L 428 4591 
z
" transform="scale(0.015625)"/>
       <path id="Helvetica-69" d="M 413 3331 
L 984 3331 
L 984 0 
L 413 0 
L 413 3331 
z
M 413 4591 
L 984 4591 
L 984 3953 
L 413 3953 
L 413 4591 
z
" transform="scale(0.015625)"/>
       <path id="Helvetica-65" d="M 1806 3422 
Q 2163 3422 2497 3255 
Q 2831 3088 3006 2822 
Q 3175 2569 3231 2231 
Q 3281 2000 3281 1494 
L 828 1494 
Q 844 984 1069 676 
Q 1294 369 1766 369 
Q 2206 369 2469 659 
Q 2619 828 2681 1050 
L 3234 1050 
Q 3213 866 3089 639 
Q 2966 413 2813 269 
Q 2556 19 2178 -69 
Q 1975 -119 1719 -119 
Q 1094 -119 659 336 
Q 225 791 225 1609 
Q 225 2416 662 2919 
Q 1100 3422 1806 3422 
z
M 2703 1941 
Q 2669 2306 2544 2525 
Q 2313 2931 1772 2931 
Q 1384 2931 1121 2651 
Q 859 2372 844 1941 
L 2703 1941 
z
M 1753 3428 
L 1753 3428 
z
" transform="scale(0.015625)"/>
       <path id="Helvetica-64" d="M 769 1634 
Q 769 1097 997 734 
Q 1225 372 1728 372 
Q 2119 372 2370 708 
Q 2622 1044 2622 1672 
Q 2622 2306 2362 2611 
Q 2103 2916 1722 2916 
Q 1297 2916 1033 2591 
Q 769 2266 769 1634 
z
M 1616 3406 
Q 2000 3406 2259 3244 
Q 2409 3150 2600 2916 
L 2600 4606 
L 3141 4606 
L 3141 0 
L 2634 0 
L 2634 466 
Q 2438 156 2169 18 
Q 1900 -119 1553 -119 
Q 994 -119 584 351 
Q 175 822 175 1603 
Q 175 2334 548 2870 
Q 922 3406 1616 3406 
z
" transform="scale(0.015625)"/>
       <path id="Helvetica-20" transform="scale(0.015625)"/>
      </defs>
      <use xlink:href="#Helvetica-4e"/>
      <use xlink:href="#Helvetica-6f" x="72.216797"/>
      <use xlink:href="#Helvetica-72" x="127.832031"/>
      <use xlink:href="#Helvetica-6d" x="161.132812"/>
      <use xlink:href="#Helvetica-61" x="244.433594"/>
      <use xlink:href="#Helvetica-6c" x="300.048828"/>
      <use xlink:href="#Helvetica-69" x="322.265625"/>
      <use xlink:href="#Helvetica-7a" x="344.482422"/>
      <use xlink:href="#Helvetica-65" x="394.482422"/>
      <use xlink:href="#Helvetica-64" x="450.097656"/>
      <use xlink:href="#Helvetica-20" x="505.712891"/>
     </g>
     <!--  Intensity -->
     <g transform="translate(29.1975 107.630312) rotate(-90) scale(0.12 -0.12)">
      <defs>
       <path id="Helvetica-49" d="M 628 4591 
L 1256 4591 
L 1256 0 
L 628 0 
L 628 4591 
z
" transform="scale(0.015625)"/>
       <path id="Helvetica-6e" d="M 413 3347 
L 947 3347 
L 947 2872 
Q 1184 3166 1450 3294 
Q 1716 3422 2041 3422 
Q 2753 3422 3003 2925 
Q 3141 2653 3141 2147 
L 3141 0 
L 2569 0 
L 2569 2109 
Q 2569 2416 2478 2603 
Q 2328 2916 1934 2916 
Q 1734 2916 1606 2875 
Q 1375 2806 1200 2600 
Q 1059 2434 1017 2257 
Q 975 2081 975 1753 
L 975 0 
L 413 0 
L 413 3347 
z
M 1734 3428 
L 1734 3428 
z
" transform="scale(0.015625)"/>
       <path id="Helvetica-74" d="M 525 4281 
L 1094 4281 
L 1094 3347 
L 1628 3347 
L 1628 2888 
L 1094 2888 
L 1094 703 
Q 1094 528 1213 469 
Q 1278 434 1431 434 
Q 1472 434 1519 436 
Q 1566 438 1628 444 
L 1628 0 
Q 1531 -28 1426 -40 
Q 1322 -53 1200 -53 
Q 806 -53 665 148 
Q 525 350 525 672 
L 525 2888 
L 72 2888 
L 72 3347 
L 525 3347 
L 525 4281 
z
" transform="scale(0.015625)"/>
       <path id="Helvetica-73" d="M 747 1050 
Q 772 769 888 619 
Q 1100 347 1625 347 
Q 1938 347 2175 483 
Q 2413 619 2413 903 
Q 2413 1119 2222 1231 
Q 2100 1300 1741 1391 
L 1294 1503 
Q 866 1609 663 1741 
Q 300 1969 300 2372 
Q 300 2847 642 3140 
Q 984 3434 1563 3434 
Q 2319 3434 2653 2991 
Q 2863 2709 2856 2384 
L 2325 2384 
Q 2309 2575 2191 2731 
Q 1997 2953 1519 2953 
Q 1200 2953 1036 2831 
Q 872 2709 872 2509 
Q 872 2291 1088 2159 
Q 1213 2081 1456 2022 
L 1828 1931 
Q 2434 1784 2641 1647 
Q 2969 1431 2969 969 
Q 2969 522 2630 197 
Q 2291 -128 1597 -128 
Q 850 -128 539 211 
Q 228 550 206 1050 
L 747 1050 
z
M 1578 3428 
L 1578 3428 
z
" transform="scale(0.015625)"/>
       <path id="Helvetica-79" d="M 2503 3347 
L 3125 3347 
Q 3006 3025 2597 1878 
Q 2291 1016 2084 472 
Q 1597 -809 1397 -1090 
Q 1197 -1372 709 -1372 
Q 591 -1372 527 -1362 
Q 463 -1353 369 -1328 
L 369 -816 
Q 516 -856 581 -865 
Q 647 -875 697 -875 
Q 853 -875 926 -823 
Q 1000 -772 1050 -697 
Q 1066 -672 1162 -440 
Q 1259 -209 1303 -97 
L 66 3347 
L 703 3347 
L 1600 622 
L 2503 3347 
z
M 1597 3428 
L 1597 3428 
z
" transform="scale(0.015625)"/>
      </defs>
      <use xlink:href="#Helvetica-20"/>
      <use xlink:href="#Helvetica-49" x="27.783203"/>
      <use xlink:href="#Helvetica-6e" x="55.566406"/>
      <use xlink:href="#Helvetica-74" x="111.181641"/>
      <use xlink:href="#Helvetica-65" x="138.964844"/>
      <use xlink:href="#Helvetica-6e" x="194.580078"/>
      <use xlink:href="#Helvetica-73" x="250.195312"/>
      <use xlink:href="#Helvetica-69" x="300.195312"/>
      <use xlink:href="#Helvetica-74" x="322.412109"/>
      <use xlink:href="#Helvetica-79" x="350.195312"/>
     </g>
    </g>
   </g>
   <g id="line2d_11">
    <path d="M 55.950514 128.176795 
L 56.082859 128.283688 
L 56.109328 128.248057 
L 56.32108 128.03427 
L 56.347292 128.069901 
L 56.797266 128.497475 
L 56.929611 128.390582 
L 56.982549 128.354951 
L 57.035487 128.426213 
L 57.273708 128.568738 
L 57.458991 128.675631 
L 57.564867 128.711262 
L 57.591336 128.675631 
L 57.670743 128.426213 
L 57.961902 127.42854 
L 58.120717 127.535433 
L 58.332469 128.176795 
L 58.358938 128.141163 
L 58.464814 128.176795 
L 58.650097 128.568738 
L 59.153265 128.069901 
L 59.232672 128.176795 
L 59.391486 128.390582 
L 59.444424 128.283688 
L 59.894655 127.713589 
L 59.921124 127.74922 
L 60.21254 128.390582 
L 60.239009 128.354951 
L 60.344885 128.426213 
L 60.450761 128.533106 
L 60.47723 128.497475 
L 60.66277 128.354951 
L 60.689239 128.390582 
L 60.768646 128.497475 
L 60.848053 128.604369 
L 60.874522 128.497475 
L 61.192408 127.891745 
L 61.32501 127.998639 
L 61.377948 127.927376 
L 61.430886 127.963008 
L 61.96078 128.568738 
L 62.199258 128.212426 
L 62.384541 128.319319 
L 62.782091 128.818156 
L 62.80856 128.782525 
L 63.232578 127.642327 
L 63.311985 127.713589 
L 63.391649 127.784852 
L 63.656596 128.248057 
L 63.73626 128.176795 
L 63.789198 128.248057 
L 63.815667 128.283688 
L 63.868605 128.176795 
L 64.13381 127.998639 
L 64.292881 128.319319 
L 64.31935 128.283688 
L 64.345819 128.248057 
L 64.398757 128.319319 
L 64.557828 128.568738 
L 64.611023 128.426213 
L 65.777459 128.319319 
L 65.910061 128.283688 
L 66.042663 128.319319 
L 66.148796 128.248057 
L 66.175265 128.283688 
L 66.546602 128.604369 
L 66.732142 128.533106 
L 66.891213 128.390582 
L 67.050541 128.283688 
L 67.342214 128.03427 
L 67.421879 128.03427 
L 67.448348 127.998639 
L 67.474817 127.963008 
L 67.528012 128.069901 
L 67.634145 128.176795 
L 67.713552 128.141163 
L 67.740021 128.176795 
L 67.793216 128.212426 
L 67.819685 128.141163 
L 67.899349 128.105532 
L 67.925818 128.141163 
L 67.979013 128.176795 
L 68.005482 128.105532 
L 68.191022 127.74922 
L 68.217748 127.784852 
L 68.695218 128.319319 
L 68.721687 128.283688 
L 69.040086 128.390582 
L 69.25261 128.533106 
L 69.623947 127.998639 
L 69.677142 128.141163 
L 69.73008 128.248057 
L 69.783275 128.176795 
L 69.995541 127.713589 
L 70.181338 127.42854 
L 70.579658 128.497475 
L 70.632596 128.390582 
L 70.738729 128.176795 
L 70.791924 128.212426 
L 70.845119 128.283688 
L 70.871588 128.248057 
L 71.163519 127.74922 
L 71.269652 127.713589 
L 71.296378 127.74922 
L 71.482175 128.176795 
L 71.588308 128.426213 
L 71.641503 128.390582 
L 71.694441 128.354951 
L 71.747636 128.426213 
L 72.278815 128.354951 
L 72.544276 127.856114 
L 72.730073 128.248057 
L 72.809737 128.461844 
L 72.862932 128.354951 
L 73.101924 127.856114 
L 73.234784 127.74922 
L 73.500502 128.105532 
L 73.55344 127.998639 
L 73.713025 128.105532 
L 73.819158 128.248057 
L 73.845627 128.212426 
L 74.111345 128.03427 
L 74.297399 128.105532 
L 74.616055 128.675631 
L 74.908499 128.568738 
L 74.961437 128.533106 
L 75.014632 128.604369 
L 75.041358 128.64 
L 75.121022 128.568738 
L 75.227155 128.497475 
L 75.572795 127.606696 
L 75.625733 127.677958 
L 75.971372 128.675631 
L 76.051036 128.533106 
L 76.1307 128.461844 
L 76.34348 127.891745 
L 76.476339 127.74922 
L 76.529534 127.820483 
L 76.609198 128.03427 
L 76.688862 128.283688 
L 76.742057 128.248057 
L 76.795252 128.212426 
L 77.087696 127.499802 
L 77.114165 127.464171 
L 77.16736 127.535433 
L 77.220555 127.713589 
L 77.433335 128.604369 
L 77.48653 128.533106 
L 77.752248 128.105532 
L 77.805443 128.03427 
L 77.858638 128.105532 
L 78.363863 128.64 
L 78.789423 127.927376 
L 78.895556 128.105532 
L 79.055141 128.212426 
L 79.267921 128.319319 
L 79.507427 127.606696 
L 79.587091 127.713589 
L 79.693481 127.784852 
L 79.959456 128.64 
L 80.065846 128.497475 
L 80.172236 128.426213 
L 80.385273 128.533106 
L 80.491663 128.426213 
L 80.704444 128.141163 
L 80.757639 128.212426 
L 80.997145 128.390582 
L 81.36951 127.677958 
L 81.502626 127.74922 
L 81.529095 127.713589 
L 81.662211 127.535433 
L 81.848522 128.03427 
L 81.928443 127.998639 
L 82.300808 127.392909 
L 82.35426 127.535433 
L 82.56704 128.461844 
L 82.646961 128.319319 
L 82.886467 128.604369 
L 82.913193 128.497475 
L 83.019583 128.426213 
L 83.125973 128.497475 
L 83.152699 128.461844 
L 83.4454 128.248057 
L 83.552047 128.390582 
L 83.605242 128.283688 
L 83.658437 128.212426 
L 83.711632 128.283688 
L 83.951139 128.426213 
L 84.190902 128.212426 
L 84.244097 128.283688 
L 84.270823 128.248057 
L 84.48386 127.963008 
L 84.69664 127.856114 
L 84.909677 128.283688 
L 85.069519 128.711262 
L 85.256087 128.64 
L 85.335751 128.675631 
L 85.362477 128.64 
L 85.948393 128.03427 
L 86.108235 128.141163 
L 86.214882 128.248057 
L 86.268077 128.176795 
L 86.534309 128.248057 
L 86.61423 130.314666 
L 86.667682 131.312339 
L 86.694151 130.350297 
L 87.040561 106.762454 
L 87.120482 108.080807 
L 87.253598 117.273653 
L 87.41344 129.637673 
L 87.466892 128.568738 
L 87.546813 127.713589 
L 87.600009 127.927376 
L 87.626735 127.998639 
L 87.67993 127.927376 
L 87.839772 127.856114 
L 87.919693 127.891745 
L 87.946419 127.820483 
L 88.212908 127.464171 
L 88.266103 127.571065 
L 88.479397 128.03427 
L 88.61277 128.141163 
L 88.639239 128.105532 
L 88.692691 128.03427 
L 88.772612 128.105532 
L 88.799338 128.141163 
L 88.852533 128.03427 
L 88.95918 128.141163 
L 89.119022 128.426213 
L 89.225669 129.780198 
L 89.278864 129.281361 
L 89.625531 116.240348 
L 89.705452 116.952972 
L 89.838825 122.083862 
L 89.998667 128.925049 
L 90.052119 128.390582 
L 90.13204 127.998639 
L 90.185235 128.141163 
L 90.238687 128.212426 
L 90.318608 128.141163 
L 90.47845 128.03427 
L 90.665275 127.74922 
L 90.71847 127.820483 
L 90.878569 127.998639 
L 91.065137 128.105532 
L 91.145058 128.319319 
L 91.19851 128.248057 
L 91.305157 127.963008 
L 91.385078 127.820483 
L 91.411804 127.891745 
L 91.545177 127.927376 
L 91.598372 127.891745 
L 91.625098 127.963008 
L 91.67855 128.390582 
L 91.758471 134.447883 
L 91.811923 139.863823 
L 91.865118 135.303031 
L 92.211785 44.728564 
L 92.265237 47.828476 
L 92.39861 79.54023 
L 92.585178 135.124875 
L 92.63863 131.276708 
L 92.798729 126.288342 
L 93.03875 127.214753 
L 93.225575 128.176795 
L 93.27877 128.069901 
L 93.598968 127.499802 
L 93.705615 127.250384 
L 93.732341 127.286015 
L 94.132717 127.74922 
L 94.159186 127.713589 
L 94.212638 127.677958 
L 94.239364 127.784852 
L 94.292816 128.533106 
L 94.399463 134.412252 
L 94.452915 131.169814 
L 94.799839 86.310154 
L 94.826308 86.880253 
L 94.933212 95.894943 
L 95.146763 132.23875 
L 95.25341 128.853787 
L 95.360057 127.891745 
L 95.386783 127.927376 
L 95.600334 127.820483 
L 95.680512 127.535433 
L 95.920789 127.179121 
L 96.054162 127.179121 
L 96.107614 127.250384 
L 96.427812 127.891745 
L 96.534716 127.642327 
L 96.748267 127.036597 
L 96.801719 127.107859 
L 96.88164 128.853787 
L 96.988544 135.338662 
L 97.01527 133.129529 
L 97.362451 78.04372 
L 97.415646 79.682754 
L 97.549276 98.674175 
L 97.736101 133.557103 
L 97.789553 130.706609 
L 97.949909 127.179121 
L 98.056556 127.286015 
L 98.216912 127.571065 
L 98.243638 127.535433 
L 98.403737 127.42854 
L 98.430463 127.464171 
L 98.483915 127.606696 
L 98.537367 127.499802 
L 98.724192 127.606696 
L 98.991452 128.105532 
L 99.392085 127.535433 
L 99.418811 127.642327 
L 99.472263 128.354951 
L 99.552441 131.490495 
L 99.605893 129.637673 
L 99.953074 108.009545 
L 100.033252 109.755473 
L 100.193608 122.368912 
L 100.300512 130.13651 
L 100.353964 128.675631 
L 100.434142 127.571065 
L 100.487337 127.713589 
L 100.540789 127.891745 
L 100.620967 127.820483 
L 100.727871 127.713589 
L 100.754597 127.677958 
L 100.808049 127.784852 
L 100.941679 127.998639 
L 101.021857 127.891745 
L 101.342569 127.642327 
L 101.609829 127.677958 
L 101.690007 127.856114 
L 101.716733 127.784852 
L 101.796911 127.677958 
L 101.850363 127.713589 
L 102.037445 128.141163 
L 102.144349 128.996312 
L 102.171075 128.889418 
L 102.545239 123.758528 
L 102.598691 123.901053 
L 102.705595 125.076882 
L 102.892934 128.461844 
L 102.946386 128.212426 
L 103.106742 127.820483 
L 103.133468 127.856114 
L 103.267098 127.963008 
L 103.507632 128.105532 
L 104.069392 128.212426 
L 104.14957 128.283688 
L 104.176296 128.212426 
L 104.443556 128.105532 
L 104.550717 127.998639 
L 104.604169 128.069901 
L 104.684347 128.141163 
L 104.711073 128.069901 
L 104.791251 127.784852 
L 105.138946 126.82281 
L 105.192398 126.965334 
L 105.486641 128.283688 
L 105.593802 128.176795 
L 105.700706 127.856114 
L 105.834593 127.535433 
L 105.861319 127.606696 
L 106.10211 128.141163 
L 106.155562 128.105532 
L 106.262466 128.141163 
L 106.289192 128.105532 
L 106.449805 127.998639 
L 106.476531 128.03427 
L 106.503257 128.105532 
L 106.556709 127.998639 
L 106.877935 127.286015 
L 106.904661 127.321646 
L 107.118726 127.784852 
L 107.252356 128.283688 
L 107.306065 128.176795 
L 107.52013 127.891745 
L 107.787647 127.963008 
L 108.001712 128.283688 
L 108.322938 128.390582 
L 108.590712 128.568738 
L 109.206181 127.856114 
L 109.233164 127.891745 
L 109.55439 128.141163 
L 109.822164 128.03427 
L 109.929068 127.998639 
L 109.955794 128.03427 
L 110.009503 128.069901 
L 110.062955 127.998639 
L 110.705663 127.891745 
L 110.786098 127.820483 
L 110.812824 127.856114 
L 111.080598 128.248057 
L 111.13405 128.141163 
L 111.214485 127.998639 
L 111.267937 128.069901 
L 111.348372 127.963008 
L 111.428807 127.891745 
L 111.455533 127.963008 
L 111.723307 128.390582 
L 111.803742 128.319319 
L 112.04479 127.571065 
L 112.151951 127.42854 
L 112.178677 127.464171 
L 112.259112 127.535433 
L 112.446708 127.891745 
L 112.741208 128.105532 
L 112.875352 127.820483 
L 113.009239 127.927376 
L 113.625479 128.03427 
L 113.679188 128.069901 
L 113.705914 127.998639 
L 113.759366 127.963008 
L 113.813075 128.03427 
L 113.866784 128.105532 
L 113.89351 128.03427 
L 113.946962 127.927376 
L 114.000671 127.998639 
L 114.429572 128.03427 
L 114.536733 128.354951 
L 114.563459 128.319319 
L 114.724329 126.965334 
L 114.911925 126.110186 
L 114.99236 126.359604 
L 115.099521 127.14349 
L 115.287117 128.533106 
L 115.313843 128.497475 
L 115.528422 128.176795 
L 115.608857 128.283688 
L 115.796452 128.354951 
L 116.037757 128.248057 
L 116.413206 127.927376 
L 116.493641 128.03427 
L 116.627528 128.497475 
L 116.681237 128.390582 
L 116.949268 127.856114 
L 117.083412 127.642327 
L 117.110395 127.677958 
L 117.432135 127.571065 
L 117.566279 127.535433 
L 117.780858 127.963008 
L 117.968454 128.283688 
L 118.183033 128.426213 
L 118.370886 128.283688 
L 118.397612 128.319319 
L 118.585465 128.497475 
L 118.612191 128.461844 
L 118.746335 128.248057 
L 118.773061 128.283688 
L 118.853753 128.176795 
L 119.068332 127.856114 
L 119.175493 127.963008 
L 119.309637 128.390582 
L 119.363346 128.319319 
L 119.577924 127.856114 
L 119.685342 128.069901 
L 119.712068 128.176795 
L 119.739051 128.105532 
L 120.114757 124.72057 
L 120.168209 124.898726 
L 120.275627 125.93203 
L 120.46348 128.782525 
L 120.517189 128.604369 
L 120.651333 128.390582 
L 120.81246 128.426213 
L 120.946604 128.390582 
L 121.214892 128.64 
L 121.241875 128.604369 
L 121.429728 128.497475 
L 121.67129 128.212426 
L 121.698016 128.283688 
L 121.778708 128.533106 
L 121.832417 128.354951 
L 122.154414 127.499802 
L 122.235106 127.606696 
L 122.261832 127.677958 
L 122.342267 127.606696 
L 122.476668 127.321646 
L 122.664521 126.502129 
L 122.691503 126.573391 
L 122.798921 126.894072 
L 123.094192 128.354951 
L 123.120918 128.319319 
L 123.20161 128.319319 
L 123.282045 128.212426 
L 123.309028 128.248057 
L 123.496881 128.354951 
L 123.846118 128.069901 
L 124.060954 128.176795 
L 124.248807 128.426213 
L 124.786154 128.461844 
L 124.866589 128.711262 
L 124.893572 128.533106 
L 125.215826 126.502129 
L 125.242809 126.573391 
L 125.538336 127.642327 
L 125.592045 127.927376 
L 125.645754 127.677958 
L 125.699463 127.642327 
L 125.753172 127.713589 
L 125.994991 128.141163 
L 126.183101 127.784852 
L 126.290519 127.891745 
L 126.42492 128.212426 
L 126.586047 128.568738 
L 126.693465 128.461844 
L 126.935541 127.891745 
L 127.123651 127.963008 
L 127.392196 128.390582 
L 127.446162 128.283688 
L 127.714707 127.392909 
L 127.768673 127.321646 
L 127.822382 127.392909 
L 128.037217 127.107859 
L 128.091183 127.179121 
L 128.279293 127.606696 
L 128.521112 128.426213 
L 128.601804 128.141163 
L 128.789914 127.784852 
L 128.816897 127.820483 
L 128.951298 127.927376 
L 129.2201 128.283688 
L 129.274066 128.176795 
L 129.327775 128.141163 
L 129.381484 128.212426 
L 129.973054 128.319319 
L 130.188146 128.461844 
L 130.483931 127.891745 
L 130.699281 127.036597 
L 130.779973 127.107859 
L 131.210159 128.604369 
L 131.237142 128.568738 
L 131.452235 128.283688 
L 131.55991 128.390582 
L 131.613619 128.319319 
L 131.801986 128.176795 
L 131.828969 128.212426 
L 132.017336 128.354951 
L 132.044062 128.319319 
L 132.582179 127.606696 
L 132.635888 127.677958 
L 132.743563 127.963008 
L 132.985896 128.568738 
L 133.093314 128.248057 
L 133.308664 127.677958 
L 133.739364 128.354951 
L 133.820056 128.248057 
L 133.927731 128.105532 
L 133.954714 128.141163 
L 134.223772 128.354951 
L 134.331447 128.248057 
L 134.466105 128.461844 
L 134.492831 128.426213 
L 134.708181 128.319319 
L 134.869822 128.069901 
L 134.896548 128.105532 
L 135.112155 128.212426 
L 135.21983 128.426213 
L 135.327505 128.319319 
L 135.569581 128.212426 
L 135.677513 127.891745 
L 135.838897 127.677958 
L 135.919589 127.784852 
L 135.973555 127.713589 
L 136.027521 127.677958 
L 136.054247 127.74922 
L 136.296579 128.283688 
L 136.485203 127.927376 
L 136.512186 127.891745 
L 136.565895 127.963008 
L 137.050818 128.461844 
L 137.185476 128.354951 
L 137.535484 128.248057 
L 137.8048 128.069901 
L 138.074115 128.176795 
L 138.155064 128.248057 
L 138.182047 128.212426 
L 138.613004 127.321646 
L 138.66697 127.357277 
L 138.88232 128.176795 
L 138.963269 128.141163 
L 139.017235 128.212426 
L 139.070944 128.105532 
L 139.286551 127.820483 
L 139.502158 128.248057 
L 139.582849 128.426213 
L 139.609832 128.319319 
L 139.744747 127.927376 
L 139.771473 127.963008 
L 140.095012 127.713589 
L 140.175704 127.820483 
L 140.22967 127.891745 
L 140.283636 127.820483 
L 140.364585 127.642327 
L 140.418294 127.74922 
L 140.660884 128.212426 
L 140.687867 128.176795 
L 140.822782 127.927376 
L 140.849508 127.963008 
L 140.903474 128.03427 
L 140.95744 127.927376 
L 141.038389 127.856114 
L 141.065115 127.891745 
L 141.334687 128.319319 
L 141.712192 128.212426 
L 141.873833 128.176795 
L 142.008748 128.212426 
L 142.11668 128.390582 
L 142.143663 128.354951 
L 142.197372 128.283688 
L 142.467202 127.357277 
L 142.60186 127.464171 
L 142.682808 127.571065 
L 142.871689 128.141163 
L 142.898415 128.069901 
L 143.356869 127.42854 
L 143.410835 127.535433 
L 143.626699 127.998639 
L 143.707648 128.212426 
L 143.869289 128.568738 
L 144.004204 128.568738 
L 144.166101 128.426213 
L 144.543606 128.105532 
L 144.75947 127.998639 
L 144.840419 127.891745 
L 144.894385 127.927376 
L 144.948351 127.998639 
L 145.002317 127.891745 
L 145.056283 127.856114 
L 145.110249 127.927376 
L 145.568959 128.03427 
L 145.703874 128.212426 
L 145.730857 128.176795 
L 146.000687 128.354951 
L 146.405432 127.891745 
L 146.432415 127.963008 
L 146.702245 128.390582 
L 146.729228 128.426213 
L 146.756211 128.319319 
L 146.918109 128.141163 
L 147.187938 128.176795 
L 147.322853 128.354951 
L 147.889753 127.713589 
L 147.916736 127.74922 
L 148.618807 128.568738 
L 148.64579 128.533106 
L 148.861654 128.248057 
L 149.266656 128.141163 
L 149.806829 127.535433 
L 149.833812 127.571065 
L 150.238814 128.354951 
L 150.400969 128.283688 
L 150.61709 127.856114 
L 151.076057 128.283688 
L 151.265195 128.212426 
L 151.373384 128.319319 
L 151.643471 128.746894 
L 151.72442 128.64 
L 151.886575 128.354951 
L 151.913558 128.390582 
L 152.291833 128.497475 
L 152.373039 128.604369 
L 152.400022 128.568738 
L 152.562177 128.461844 
L 152.58916 128.497475 
L 152.724332 128.390582 
L 152.832264 128.354951 
L 152.859247 128.390582 
L 152.967436 128.461844 
L 152.994419 128.426213 
L 153.129591 128.069901 
L 153.264763 127.856114 
L 153.291746 127.891745 
L 153.399934 127.891745 
L 153.480883 127.784852 
L 153.507866 127.820483 
L 153.589072 128.105532 
L 153.751227 128.248057 
L 154.129503 128.354951 
L 154.318898 128.426213 
L 154.643207 128.105532 
L 154.67019 128.141163 
L 154.886568 128.248057 
L 154.994757 128.283688 
L 155.02174 128.248057 
L 155.075706 128.212426 
L 155.129929 128.283688 
L 155.319067 128.354951 
L 155.454239 128.461844 
L 156.022166 127.74922 
L 156.049149 127.820483 
L 156.130355 127.891745 
L 156.184321 127.820483 
L 156.373716 127.74922 
L 156.617077 127.856114 
L 156.995609 128.64 
L 157.293193 128.105532 
L 157.347159 127.963008 
L 157.428365 127.998639 
L 157.482588 127.927376 
L 157.536554 127.998639 
L 157.888361 128.283688 
L 157.915344 128.248057 
L 157.96931 128.319319 
L 158.23991 128.568738 
L 158.266893 128.533106 
L 158.99749 127.74922 
L 159.105678 127.856114 
L 159.26809 128.248057 
L 159.403519 128.426213 
L 159.430502 128.390582 
L 159.484725 128.319319 
L 159.538691 128.390582 
L 159.64688 128.426213 
L 159.67412 128.390582 
L 159.863515 128.497475 
L 159.971704 128.533106 
L 160.079893 128.426213 
L 160.107133 128.461844 
L 160.377733 128.782525 
L 160.431699 128.711262 
L 160.540145 128.604369 
L 160.891952 128.176795 
L 160.946175 128.248057 
L 161.000141 128.319319 
L 161.162553 128.533106 
L 161.216776 128.461844 
L 161.487633 127.784852 
L 161.541599 127.820483 
L 161.920646 128.675631 
L 161.947886 128.64 
L 162.164521 128.533106 
L 162.191504 128.497475 
L 162.272709 128.568738 
L 162.326932 128.604369 
L 162.353915 128.533106 
L 162.597533 128.141163 
L 162.678996 128.248057 
L 162.868391 128.319319 
L 163.058043 128.212426 
L 163.220455 127.820483 
L 163.247695 127.856114 
L 163.355883 128.141163 
L 163.518295 128.390582 
L 163.816393 127.891745 
L 163.897599 127.820483 
L 163.951822 127.891745 
L 164.276903 128.461844 
L 165.00827 128.568738 
L 165.170939 128.64 
L 165.523002 127.998639 
L 165.631448 128.105532 
L 165.929546 128.604369 
L 166.010752 128.533106 
L 166.417295 127.642327 
L 166.444278 127.677958 
L 166.525741 127.784852 
L 166.742633 128.426213 
L 166.823839 128.354951 
L 166.986508 128.319319 
L 167.311588 128.426213 
L 167.52848 128.533106 
L 167.799595 128.64 
L 167.908041 128.675631 
L 168.09795 128.461844 
L 168.341824 128.390582 
L 168.558716 128.069901 
L 168.640179 127.963008 
L 168.748625 127.713589 
L 168.775608 127.74922 
L 169.01974 128.248057 
L 169.046723 128.176795 
L 169.155168 127.998639 
L 169.182408 128.03427 
L 169.290854 128.212426 
L 169.372317 128.105532 
L 169.480763 127.963008 
L 169.507746 128.03427 
L 169.616192 128.212426 
L 169.670415 128.176795 
L 169.751878 128.105532 
L 169.833341 127.927376 
L 169.887564 127.998639 
L 170.131438 128.248057 
L 170.158678 128.212426 
L 170.538496 127.606696 
L 170.619702 127.74922 
L 170.945297 128.319319 
L 171.243651 128.212426 
L 171.487783 128.03427 
L 171.515023 128.069901 
L 171.542006 128.03427 
L 171.731915 127.713589 
L 171.813378 127.677958 
L 171.840618 127.713589 
L 171.8676 127.74922 
L 171.92208 127.642327 
L 171.976303 127.571065 
L 172.003286 127.606696 
L 172.274658 128.319319 
L 172.356121 128.248057 
L 172.627493 128.141163 
L 172.681716 128.105532 
L 172.708956 128.176795 
L 172.844641 128.426213 
L 172.898864 128.390582 
L 173.305922 127.856114 
L 173.360145 127.927376 
L 173.523071 128.069901 
L 173.550054 128.03427 
L 173.740219 127.820483 
L 174.011591 127.891745 
L 174.147277 128.141163 
L 174.174517 128.105532 
L 174.364426 127.891745 
L 174.825963 128.533106 
L 174.880186 128.426213 
L 175.043112 128.141163 
L 175.070352 128.176795 
L 175.179055 128.283688 
L 175.423443 128.675631 
L 175.504649 128.568738 
L 175.776278 128.141163 
L 175.939204 127.963008 
L 175.966444 127.998639 
L 176.346518 128.782525 
L 176.536684 128.354951 
L 176.917016 127.214753 
L 177.025461 127.321646 
L 177.35157 128.176795 
L 177.405793 128.212426 
L 177.514496 128.64 
L 177.568719 128.497475 
L 177.813365 127.963008 
L 177.97629 128.069901 
L 178.247919 128.461844 
L 178.302399 128.354951 
L 178.411102 128.354951 
L 178.574028 128.497475 
L 178.601268 128.461844 
L 178.764193 128.319319 
L 178.845656 128.248057 
L 179.090302 127.74922 
L 179.117542 127.784852 
L 179.579336 128.354951 
L 179.606576 128.283688 
L 179.823982 127.74922 
L 179.878462 127.820483 
L 180.313273 128.782525 
L 180.557919 128.319319 
L 180.585159 128.354951 
L 180.748085 128.390582 
L 181.210393 127.963008 
L 181.373319 128.176795 
L 181.427799 128.105532 
L 181.645205 127.856114 
L 181.672445 127.891745 
L 181.754165 128.069901 
L 181.808388 127.998639 
L 182.243456 128.105532 
L 182.678524 128.533106 
L 183.168073 127.963008 
L 183.195313 127.998639 
L 183.358496 128.390582 
L 183.494438 128.64 
L 183.521678 128.604369 
L 184.038467 127.535433 
L 184.228889 127.42854 
L 184.609735 127.891745 
L 184.636975 127.856114 
L 184.800158 127.42854 
L 184.854638 127.535433 
L 185.262723 128.64 
L 185.344443 128.568738 
L 185.480386 128.319319 
L 185.534866 128.354951 
L 185.725288 128.461844 
L 185.915711 128.354951 
L 185.942951 128.390582 
L 185.997431 128.319319 
L 186.133374 128.069901 
L 186.187854 128.105532 
L 186.324054 128.212426 
L 186.541716 128.319319 
L 186.813859 128.212426 
L 187.140482 127.963008 
L 187.303664 128.03427 
L 187.684767 128.746894 
L 187.820967 128.390582 
L 188.038886 127.963008 
L 188.202069 128.069901 
L 188.392749 128.533106 
L 188.447229 128.461844 
L 188.583429 128.390582 
L 188.610669 128.426213 
L 188.664891 128.497475 
L 188.692131 128.426213 
L 188.964531 127.713589 
L 189.073491 127.820483 
L 189.400113 128.533106 
L 189.427353 128.497475 
L 189.563553 128.319319 
L 189.754233 128.426213 
L 189.835953 128.568738 
L 189.890433 128.497475 
L 190.217312 128.141163 
L 190.244552 128.176795 
L 190.407992 128.212426 
L 190.598672 128.141163 
L 190.625912 128.069901 
L 190.707632 128.141163 
L 191.088991 128.533106 
L 191.252431 128.390582 
L 191.279671 128.354951 
L 191.334151 128.426213 
L 191.470351 128.604369 
L 191.497591 128.568738 
L 191.60655 128.533106 
L 191.63379 128.568738 
L 191.71551 128.64 
L 191.74275 128.604369 
L 191.98791 128.248057 
L 192.233326 128.354951 
L 192.424006 128.604369 
L 192.478486 128.497475 
L 192.641926 128.319319 
L 192.941822 128.390582 
L 193.050782 128.497475 
L 193.078022 128.461844 
L 193.268702 128.390582 
L 193.732038 128.319319 
L 193.922975 128.03427 
L 194.168392 128.212426 
L 194.331831 127.998639 
L 194.495271 128.03427 
L 194.713448 128.141163 
L 194.849905 128.212426 
L 194.958864 128.105532 
L 195.177041 128.426213 
L 195.313241 128.497475 
L 195.422458 128.675631 
L 195.449698 128.64 
L 195.640634 128.461844 
L 195.667874 128.497475 
L 195.722354 128.533106 
L 195.776834 128.461844 
L 195.967771 128.354951 
L 196.131468 128.64 
L 196.158708 128.604369 
L 196.540324 127.963008 
L 196.731261 127.499802 
L 197.222351 128.497475 
L 197.304071 128.461844 
L 197.576985 127.571065 
L 197.685944 127.42854 
L 197.713441 127.464171 
L 197.822401 127.499802 
L 198.149795 128.390582 
L 198.313491 128.426213 
L 198.640885 128.319319 
L 199.050255 127.856114 
L 199.077495 127.891745 
L 199.350409 128.426213 
L 199.459626 128.283688 
L 199.486866 128.354951 
L 199.596082 128.568738 
L 199.650562 128.461844 
L 199.787019 128.105532 
L 199.868996 128.141163 
L 199.950716 128.03427 
L 200.14191 127.927376 
L 200.714977 128.711262 
L 200.769714 128.64 
L 201.097107 127.856114 
L 201.151844 127.927376 
L 201.315541 128.283688 
L 201.397518 128.533106 
L 201.452255 128.461844 
L 201.643191 128.03427 
L 201.807145 127.784852 
L 201.861625 127.856114 
L 202.025579 127.998639 
L 202.162035 128.248057 
L 202.244012 128.105532 
L 202.271252 128.03427 
L 202.325732 128.105532 
L 202.380469 128.176795 
L 202.407709 128.105532 
L 202.73536 127.214753 
L 202.790096 127.179121 
L 202.817336 127.250384 
L 203.254461 128.568738 
L 203.281701 128.604369 
L 203.308941 128.533106 
L 203.418157 128.248057 
L 203.445654 128.283688 
L 203.746065 128.390582 
L 203.964499 128.746894 
L 204.019235 128.568738 
L 204.210429 128.105532 
L 204.456103 127.464171 
L 204.51084 127.535433 
L 204.893227 128.283688 
L 205.057181 128.176795 
L 205.193895 128.069901 
L 205.521802 128.176795 
L 205.794973 128.354951 
L 206.232097 128.461844 
L 206.286834 128.497475 
L 206.341571 128.426213 
L 206.587501 128.069901 
L 206.942906 128.141163 
L 207.052122 128.319319 
L 207.079362 128.248057 
L 207.35279 127.784852 
L 207.489504 127.677958 
L 207.626218 127.606696 
L 207.790171 127.998639 
L 207.844908 127.927376 
L 208.008862 128.03427 
L 208.118336 128.141163 
L 208.145576 128.105532 
L 208.47374 128.176795 
L 208.528477 128.283688 
L 208.582957 128.212426 
L 208.774408 128.141163 
L 209.102572 128.03427 
L 209.40324 127.820483 
L 209.731661 128.212426 
L 209.786141 128.141163 
L 210.059825 127.713589 
L 210.141802 127.606696 
L 210.278516 127.535433 
L 210.305756 127.571065 
L 210.469967 127.784852 
L 210.524704 127.74922 
L 210.551944 127.820483 
L 210.716154 128.248057 
L 210.743651 128.212426 
L 211.099056 128.319319 
L 211.236026 128.354951 
L 211.755642 127.856114 
L 211.974589 128.176795 
L 212.029326 128.03427 
L 212.084063 127.891745 
L 212.1388 127.998639 
L 212.303011 128.03427 
L 212.521958 127.820483 
L 212.549198 127.856114 
L 212.90486 128.141163 
L 213.370252 128.212426 
L 213.479725 128.497475 
L 213.561702 128.426213 
L 213.808147 128.248057 
L 213.917621 128.319319 
L 214.273539 127.74922 
L 214.43775 127.357277 
L 214.519984 127.42854 
L 214.848405 128.03427 
L 215.505505 127.321646 
L 215.724453 127.713589 
L 215.834183 128.141163 
L 215.88892 128.105532 
L 215.998394 128.105532 
L 216.053131 128.212426 
L 216.107868 128.105532 
L 216.354312 127.642327 
L 216.655751 128.283688 
L 216.682991 128.248057 
L 216.929435 128.03427 
L 216.956932 128.069901 
L 217.176137 127.963008 
L 217.367845 127.74922 
L 217.477318 127.820483 
L 217.532055 127.998639 
L 217.614289 127.927376 
L 217.778757 127.856114 
L 217.915728 127.42854 
L 217.970464 127.499802 
L 218.216909 127.998639 
L 218.299143 128.105532 
L 218.35388 128.069901 
L 218.874523 128.568738 
L 219.285692 128.461844 
L 219.888569 127.784852 
L 219.915809 127.820483 
L 219.998043 127.927376 
L 220.080277 128.141163 
L 220.107773 128.105532 
L 220.463949 126.466498 
L 220.546183 126.573391 
L 220.738147 127.713589 
L 220.847878 128.426213 
L 220.902615 128.283688 
L 221.067083 127.998639 
L 221.09458 128.03427 
L 221.286287 128.212426 
L 221.313784 128.141163 
L 221.450755 127.891745 
L 221.478252 127.927376 
L 221.834684 127.998639 
L 221.999152 128.248057 
L 222.108883 128.141163 
L 222.218614 128.283688 
L 222.245854 128.248057 
L 222.492812 127.963008 
L 222.547549 128.03427 
L 222.684777 128.354951 
L 222.712017 128.319319 
L 223.068706 127.357277 
L 223.15094 127.286015 
L 223.178437 127.321646 
L 223.315407 127.927376 
L 223.425138 128.319319 
L 223.479875 128.212426 
L 223.589606 127.963008 
L 223.617103 128.03427 
L 224.028529 128.426213 
L 224.330225 128.03427 
L 224.357721 128.105532 
L 224.439955 128.212426 
L 224.467452 128.176795 
L 224.60468 128.105532 
L 224.632177 128.141163 
L 224.769148 128.354951 
L 224.796645 128.319319 
L 225.09834 128.105532 
L 225.290562 127.998639 
L 225.510023 126.965334 
L 225.674491 127.072228 
L 225.784479 127.392909 
L 226.00394 128.319319 
L 226.031437 128.212426 
L 226.141168 128.03427 
L 226.195905 128.069901 
L 226.552851 128.711262 
L 226.827307 128.248057 
L 227.046768 127.606696 
L 227.183996 127.713589 
L 227.458451 128.03427 
L 227.513445 127.963008 
L 227.623176 127.891745 
L 227.650673 127.963008 
L 227.70541 128.03427 
L 227.787901 128.176795 
L 227.842895 128.105532 
L 228.172087 127.179121 
L 228.309572 127.535433 
L 228.584027 128.426213 
L 228.639021 128.390582 
L 228.803746 128.354951 
L 229.050704 128.568738 
L 229.078201 128.533106 
L 229.133195 128.497475 
L 229.160692 128.568738 
L 229.242926 128.64 
L 229.270423 128.604369 
L 229.490141 128.319319 
L 229.847088 127.820483 
L 229.902082 127.927376 
L 229.957075 127.998639 
L 229.984315 127.927376 
L 230.1218 127.891745 
L 230.341519 128.176795 
L 230.423753 128.141163 
L 230.451249 128.176795 
L 230.478746 128.212426 
L 230.53374 128.105532 
L 231.000674 128.176795 
L 231.165399 128.319319 
L 231.385375 128.426213 
L 231.495105 128.568738 
L 231.522602 128.497475 
L 231.769818 128.141163 
L 231.989793 128.461844 
L 232.072027 128.354951 
L 232.237009 128.248057 
L 232.292003 128.105532 
L 232.374237 128.141163 
L 232.484224 128.248057 
L 232.73144 128.604369 
L 232.758937 128.533106 
L 232.951415 128.212426 
L 232.978912 128.141163 
L 233.061403 128.212426 
L 233.913294 128.283688 
L 234.188264 128.711262 
L 234.270498 128.604369 
L 234.462976 128.248057 
L 235.122903 128.319319 
L 235.315124 128.568738 
L 235.562597 128.426213 
L 235.645088 128.354951 
L 235.810069 128.176795 
L 236.057542 128.319319 
L 236.250021 128.176795 
L 236.277517 128.212426 
L 236.469996 128.319319 
L 236.52499 128.283688 
L 236.580241 128.354951 
L 236.662732 128.461844 
L 236.717726 128.426213 
L 236.800216 128.354951 
L 236.910204 128.105532 
L 236.965198 128.141163 
L 237.13018 128.212426 
L 237.240167 128.105532 
L 237.267664 128.141163 
L 237.322658 128.212426 
L 237.377652 128.176795 
L 237.432646 128.141163 
L 237.460143 128.176795 
L 237.542634 128.248057 
L 237.570131 128.176795 
L 237.680375 128.176795 
L 237.707872 128.212426 
L 237.762866 128.105532 
L 237.982842 128.176795 
L 238.037836 128.319319 
L 238.09283 128.212426 
L 238.285565 128.105532 
L 238.450547 127.891745 
L 238.698019 127.963008 
L 238.945749 128.426213 
L 238.973246 128.390582 
L 239.055737 128.319319 
L 239.11073 128.390582 
L 239.193478 128.533106 
L 239.220975 128.497475 
L 239.440951 128.176795 
L 239.68868 128.319319 
L 239.798668 128.283688 
L 239.826165 128.319319 
L 239.963907 128.354951 
L 240.156642 128.283688 
L 240.239133 128.390582 
L 240.431612 128.675631 
L 240.982321 128.105532 
L 241.064812 128.176795 
L 241.092309 128.141163 
L 241.505277 128.248057 
L 241.698013 128.497475 
L 241.973239 128.03427 
L 242.413704 128.675631 
L 242.468698 128.568738 
L 242.633937 128.426213 
L 243.047162 128.03427 
L 243.515124 128.497475 
L 243.818104 127.784852 
L 243.873355 127.856114 
L 243.955846 127.927376 
L 244.286323 128.568738 
L 244.479316 128.212426 
L 244.754799 128.319319 
L 244.975032 128.818156 
L 245.030282 128.746894 
L 245.525998 127.74922 
L 245.773985 128.141163 
L 246.132216 127.856114 
L 246.46295 128.319319 
L 246.517944 128.212426 
L 246.765931 127.856114 
L 246.848678 127.856114 
L 246.876175 127.891745 
L 247.179413 128.533106 
L 247.20691 128.497475 
L 247.48265 128.390582 
L 247.896132 128.03427 
L 248.226866 128.319319 
L 248.530104 128.105532 
L 248.723096 128.176795 
L 248.860838 128.248057 
L 248.943586 128.390582 
L 248.971083 128.354951 
L 249.164075 128.069901 
L 249.302074 128.248057 
L 249.329571 128.212426 
L 249.550317 127.998639 
L 249.577814 128.03427 
L 249.632808 128.069901 
L 249.660562 127.998639 
L 249.853555 127.677958 
L 250.184546 128.426213 
L 250.212043 128.354951 
L 250.487783 127.927376 
L 250.653279 127.891745 
L 250.929019 127.784852 
L 251.039521 127.606696 
L 251.067018 127.642327 
L 251.177262 127.606696 
L 251.618755 128.675631 
L 251.673749 128.64 
L 251.949747 128.426213 
L 252.087745 128.461844 
L 252.66698 127.784852 
L 252.694734 127.820483 
L 252.832476 128.069901 
L 252.887726 128.03427 
L 253.274226 128.568738 
L 253.329219 128.497475 
L 253.439721 128.248057 
L 253.494972 128.283688 
L 253.522469 128.319319 
L 253.549966 128.248057 
L 253.632971 128.141163 
L 253.660468 128.176795 
L 253.743215 128.212426 
L 253.770712 128.176795 
L 253.908711 128.141163 
L 253.963962 128.212426 
L 254.019213 128.141163 
L 254.157211 128.03427 
L 254.184708 128.069901 
L 254.405712 128.319319 
L 254.433209 128.283688 
L 254.709206 127.713589 
L 254.73696 127.74922 
L 254.874959 127.856114 
L 255.509701 128.497475 
L 256.255202 128.426213 
L 256.420955 128.248057 
L 256.614205 128.212426 
L 256.835208 127.74922 
L 257.138959 128.319319 
L 257.332209 128.818156 
L 257.38746 128.675631 
L 257.663714 128.03427 
L 257.801713 127.927376 
L 257.829467 127.963008 
L 257.967465 128.319319 
L 258.105721 128.64 
L 258.133218 128.604369 
L 258.215966 128.319319 
L 258.409472 127.856114 
L 258.575225 127.963008 
L 258.768474 128.176795 
L 258.823725 128.141163 
L 259.072483 127.535433 
L 259.210738 127.891745 
L 259.486993 128.533106 
L 260.481765 128.461844 
L 260.81327 127.891745 
L 261.089782 127.998639 
L 261.255534 128.248057 
L 261.283288 128.212426 
L 261.39379 128.319319 
L 261.532046 128.426213 
L 261.725552 128.319319 
L 262.250564 127.606696 
L 262.306072 127.677958 
L 262.83134 128.176795 
L 262.941842 127.927376 
L 262.997093 127.998639 
L 263.218353 128.176795 
L 263.439614 127.713589 
L 263.494865 127.74922 
L 263.716125 127.856114 
L 263.992636 128.533106 
L 264.379906 128.069901 
L 264.435157 128.141163 
L 264.739423 128.390582 
L 264.822427 128.319319 
L 264.850181 128.390582 
L 264.932929 128.461844 
L 264.960683 128.390582 
L 265.264948 128.176795 
L 265.624721 128.64 
L 265.707469 128.568738 
L 266.011991 128.461844 
L 266.316257 128.176795 
L 266.34401 128.212426 
L 266.537517 128.283688 
L 266.73128 128.212426 
L 266.842039 128.069901 
L 266.869536 128.105532 
L 267.008049 128.212426 
L 267.257063 128.497475 
L 267.284817 128.461844 
L 267.506078 127.998639 
L 268.032117 128.105532 
L 268.142619 128.390582 
L 268.198127 128.248057 
L 268.585654 127.14349 
L 268.834668 128.069901 
L 268.917673 128.248057 
L 268.973181 128.176795 
L 269.305457 128.248057 
L 269.360708 128.319319 
L 269.416216 128.283688 
L 269.554471 128.176795 
L 269.582225 128.212426 
L 269.748235 128.390582 
L 269.886747 128.283688 
L 270.136019 127.891745 
L 270.219023 127.998639 
L 270.412787 128.426213 
L 270.5513 128.64 
L 270.579054 128.604369 
L 270.74532 128.354951 
L 271.409872 127.606696 
L 271.492877 127.606696 
L 271.520631 127.571065 
L 271.63139 127.677958 
L 271.853164 128.105532 
L 271.991677 128.141163 
L 272.268445 127.963008 
L 272.351707 128.069901 
L 272.628732 128.390582 
L 272.68424 128.319319 
L 272.794999 128.319319 
L 272.905757 128.426213 
L 272.933511 128.390582 
L 273.182783 127.998639 
L 273.376803 127.891745 
L 273.54307 127.499802 
L 273.570824 127.535433 
L 273.930854 128.176795 
L 274.09712 128.604369 
L 274.124874 128.568738 
L 274.540669 127.74922 
L 274.623674 127.856114 
L 274.873202 128.497475 
L 274.92871 128.390582 
L 275.122731 128.319319 
L 275.261243 128.212426 
L 275.455264 127.963008 
L 275.566279 127.856114 
L 275.788054 127.713589 
L 275.898812 127.927376 
L 275.95432 127.820483 
L 276.397869 126.965334 
L 276.896926 127.963008 
L 277.035695 127.713589 
L 277.063449 127.74922 
L 277.174208 128.03427 
L 277.340732 128.248057 
L 278.339102 128.354951 
L 278.449861 128.568738 
L 278.505368 128.533106 
L 278.949174 127.820483 
L 279.06019 127.998639 
L 279.226713 128.319319 
L 279.670519 127.927376 
L 279.975812 128.319319 
L 280.03132 128.212426 
L 280.225341 127.891745 
L 280.308602 128.03427 
L 280.336356 128.069901 
L 280.391864 127.963008 
L 280.530634 127.784852 
L 280.558388 127.820483 
L 280.669403 128.141163 
L 280.835927 128.354951 
L 281.030204 128.568738 
L 281.085712 128.497475 
L 281.196728 128.319319 
L 281.224482 128.354951 
L 281.335498 128.069901 
L 281.557529 127.250384 
L 281.751806 127.357277 
L 282.001592 128.141163 
L 282.029346 128.069901 
L 282.140361 127.891745 
L 282.223623 127.963008 
L 282.584424 128.319319 
L 282.612178 128.283688 
L 282.750948 128.141163 
L 282.806456 128.212426 
L 283.306283 128.711262 
L 283.833865 128.212426 
L 284.305938 128.283688 
L 284.472462 128.426213 
L 284.750258 128.604369 
L 285.083562 128.533106 
L 285.44462 127.891745 
L 285.833432 128.604369 
L 286.138982 128.390582 
L 286.472286 128.283688 
L 286.666821 128.03427 
L 287.111397 128.533106 
L 287.139151 128.461844 
L 287.416948 127.998639 
L 287.66699 128.105532 
L 288.000551 128.354951 
L 288.167331 128.248057 
L 288.334112 128.105532 
L 288.639662 128.675631 
L 288.695427 128.818156 
L 288.750935 128.746894 
L 289.223522 128.283688 
L 289.418057 128.461844 
L 289.445811 128.390582 
L 289.668356 128.105532 
L 289.86289 127.784852 
L 289.918398 127.927376 
L 290.057425 128.283688 
L 290.112933 128.426213 
L 290.168698 128.354951 
L 290.27997 128.283688 
L 290.307724 128.319319 
L 290.363232 128.390582 
L 290.418997 128.283688 
L 290.585777 128.069901 
L 290.947092 128.533106 
L 291.002857 128.461844 
L 291.364172 128.176795 
L 291.586717 128.604369 
L 291.670236 128.711262 
L 291.69799 128.675631 
L 292.031808 128.105532 
L 292.11507 128.176795 
L 292.170835 128.283688 
L 292.226343 128.212426 
L 292.560161 127.642327 
L 292.727198 127.713589 
L 292.921733 128.069901 
L 292.949743 128.03427 
L 293.061016 127.856114 
L 293.08877 127.891745 
L 293.422588 128.497475 
L 293.645133 128.390582 
L 293.895433 128.248057 
L 294.674598 128.354951 
L 294.758117 128.461844 
L 294.785871 128.354951 
L 295.203465 127.74922 
L 295.286984 127.891745 
L 295.620802 128.675631 
L 295.648812 128.568738 
L 295.81585 128.069901 
L 295.843604 128.105532 
L 295.927123 128.176795 
L 295.982631 128.105532 
L 296.149668 128.03427 
L 296.37247 128.141163 
L 296.483743 127.891745 
L 296.567262 127.998639 
L 296.623027 128.105532 
L 296.678534 128.03427 
L 296.762053 127.856114 
L 296.817818 127.927376 
L 297.151893 128.426213 
L 297.263423 128.319319 
L 297.374695 127.998639 
L 297.597498 127.392909 
L 297.653006 127.357277 
L 297.70877 127.42854 
L 298.09861 128.533106 
L 298.182129 128.426213 
L 298.59998 128.069901 
L 298.767017 128.141163 
L 298.962066 128.390582 
L 299.40767 127.856114 
L 299.435424 127.927376 
L 299.713991 128.675631 
L 299.769756 128.533106 
L 300.131842 128.03427 
L 300.215361 128.141163 
L 300.354644 128.248057 
L 300.521939 128.354951 
L 300.688976 128.426213 
L 300.912036 128.319319 
L 300.995554 128.354951 
L 301.023308 128.319319 
L 301.302132 127.856114 
L 301.441416 127.963008 
L 301.552689 128.283688 
L 301.775748 128.818156 
L 302.11008 128.568738 
L 302.360893 128.461844 
L 302.639717 127.499802 
L 302.751247 127.606696 
L 302.834766 127.856114 
L 303.085579 128.604369 
L 303.11359 128.568738 
L 303.197109 128.461844 
L 303.447922 128.319319 
L 303.726746 128.426213 
L 303.866287 128.604369 
L 303.89404 128.568738 
L 304.00557 128.568738 
L 304.033581 128.604369 
L 304.089346 128.533106 
L 304.1171 128.497475 
L 304.172865 128.568738 
L 304.25664 128.64 
L 304.284394 128.604369 
L 304.507454 128.141163 
L 304.646994 128.03427 
L 304.702759 127.998639 
L 304.758524 128.069901 
L 305.009337 128.497475 
L 305.093113 128.354951 
L 305.232396 128.212426 
L 305.343926 128.248057 
L 305.371937 128.212426 
L 305.427702 128.176795 
L 305.483467 128.248057 
L 305.762291 128.426213 
L 305.929585 128.319319 
L 306.097137 128.248057 
L 306.124891 128.283688 
L 306.152901 128.212426 
L 306.292185 128.03427 
L 306.320196 128.069901 
L 306.403715 128.212426 
L 306.459736 128.141163 
L 306.989631 128.248057 
L 307.129171 128.533106 
L 307.184936 128.319319 
L 307.268455 128.248057 
L 307.296466 128.283688 
L 307.352231 128.319319 
L 307.380242 128.283688 
L 307.519782 127.998639 
L 307.575547 128.069901 
L 307.659066 127.963008 
L 307.938147 127.74922 
L 308.077687 128.069901 
L 308.217228 128.212426 
L 308.524063 128.461844 
L 308.77539 128.319319 
L 309.02646 128.212426 
L 309.166001 128.176795 
L 309.249777 128.212426 
L 309.277531 128.176795 
L 309.473093 127.963008 
L 309.528858 128.03427 
L 309.696152 128.390582 
L 309.779928 128.176795 
L 309.83595 128.141163 
L 309.891715 128.212426 
L 309.97549 128.319319 
L 310.031255 128.212426 
L 310.170796 128.069901 
L 310.422123 128.354951 
L 310.449877 128.319319 
L 310.701204 127.963008 
L 310.896509 127.713589 
L 310.952531 127.820483 
L 311.092072 128.141163 
L 311.259623 128.354951 
L 311.315388 128.319319 
L 311.454929 128.141163 
L 311.48294 128.176795 
L 311.566715 128.105532 
L 311.62248 128.069901 
L 311.678502 128.141163 
L 311.873807 128.497475 
L 311.901818 128.461844 
L 312.544013 128.568738 
L 312.683811 128.64 
L 312.711565 128.604369 
L 313.130443 128.497475 
L 313.577333 128.105532 
L 313.745141 128.212426 
L 314.16402 128.746894 
L 314.220042 128.675631 
L 314.527391 128.176795 
L 314.806729 127.856114 
L 314.834483 127.891745 
L 314.890505 128.03427 
L 314.946269 127.927376 
L 315.002291 127.856114 
L 315.058056 127.927376 
L 315.588978 128.03427 
L 315.784541 128.497475 
L 315.840562 128.461844 
L 316.064136 127.74922 
L 316.119901 127.784852 
L 316.203933 127.856114 
L 316.595058 128.568738 
L 316.846642 128.319319 
L 316.874653 128.354951 
L 317.014451 128.533106 
L 317.070215 128.426213 
L 317.238024 128.248057 
L 317.601395 128.354951 
L 317.741192 128.461844 
L 317.769203 128.426213 
L 318.132574 128.03427 
L 318.160585 128.069901 
L 318.188596 128.105532 
L 318.272372 128.03427 
L 318.44018 128.141163 
L 318.523956 128.283688 
L 318.579977 128.248057 
L 319.027381 127.820483 
L 319.391009 128.461844 
L 319.474785 128.426213 
L 319.502795 128.461844 
L 319.55856 128.497475 
L 319.614582 128.426213 
L 319.782391 128.176795 
L 319.810401 128.212426 
L 320.118007 128.461844 
L 320.313827 128.390582 
L 320.397859 128.283688 
L 320.537657 128.069901 
L 320.565668 128.105532 
L 320.845263 128.533106 
L 320.901285 128.426213 
L 321.069093 128.354951 
L 321.097104 128.426213 
L 321.153126 128.319319 
L 321.320934 128.105532 
L 321.768595 128.746894 
L 321.852371 128.64 
L 322.356053 127.998639 
L 322.384064 128.069901 
L 322.496107 128.283688 
L 322.523861 128.212426 
L 322.635905 128.069901 
L 322.691927 128.141163 
L 322.803713 128.390582 
L 322.831724 128.354951 
L 323.027801 127.891745 
L 323.055812 127.927376 
L 323.44745 128.354951 
L 323.475461 128.319319 
L 323.783324 127.784852 
L 323.895368 127.891745 
L 324.147209 128.248057 
L 324.483083 127.998639 
L 324.567115 128.105532 
L 324.874978 128.390582 
L 324.902989 128.354951 
L 325.267131 128.461844 
L 325.351164 128.604369 
L 325.406929 128.568738 
L 325.743059 128.497475 
L 325.995158 128.141163 
L 326.27501 128.212426 
L 326.387053 128.390582 
L 326.443075 128.354951 
L 327.003293 128.461844 
L 327.171359 128.568738 
L 327.199369 128.533106 
L 327.367435 128.426213 
L 327.563511 128.354951 
L 327.815609 128.461844 
L 328.067707 128.604369 
L 328.263784 128.533106 
L 328.403838 128.533106 
L 328.655936 127.820483 
L 328.852013 127.927376 
L 328.936046 128.212426 
L 329.132379 128.675631 
L 329.188401 128.568738 
L 329.384477 128.283688 
L 329.440499 128.319319 
L 329.496521 128.248057 
L 329.77663 128.354951 
L 329.944952 128.533106 
L 330.169039 128.64 
L 330.19705 128.675631 
L 330.281083 128.604369 
L 330.365373 128.604369 
L 330.393383 128.64 
L 330.58946 128.533106 
L 330.813804 127.927376 
L 330.841815 127.963008 
L 330.897837 127.856114 
L 331.093913 127.713589 
L 331.121924 127.74922 
L 331.907 128.604369 
L 332.355432 128.212426 
L 332.607787 128.248057 
L 332.664066 128.426213 
L 332.748098 128.354951 
L 333.421131 128.248057 
L 333.645475 127.891745 
L 333.925841 128.319319 
L 334.066153 128.426213 
L 334.094163 128.390582 
L 334.290497 128.319319 
L 334.402797 128.426213 
L 334.711174 128.64 
L 335.047819 128.354951 
L 335.384464 128.711262 
L 335.412475 128.675631 
L 335.777131 127.713589 
L 335.833409 127.891745 
L 336.029743 128.248057 
L 336.198065 128.461844 
L 336.226076 128.390582 
L 336.478688 127.820483 
L 336.787322 128.03427 
L 336.815333 127.998639 
L 336.871612 128.069901 
L 337.039934 128.248057 
L 337.124224 128.354951 
L 337.320557 128.568738 
L 337.348568 128.497475 
L 337.545158 128.248057 
L 337.629191 128.354951 
L 337.853792 128.568738 
L 337.881803 128.497475 
L 338.134415 127.713589 
L 338.218705 127.927376 
L 338.246716 127.927376 
L 338.583618 126.323973 
L 338.639896 126.359604 
L 338.723929 126.573391 
L 338.892508 127.820483 
L 339.004809 128.64 
L 339.060831 128.497475 
L 339.22941 128.354951 
L 339.369722 128.354951 
L 339.538301 128.319319 
L 339.594323 128.426213 
L 339.706623 128.461844 
L 339.734634 128.426213 
L 340.184094 128.03427 
L 340.492985 128.533106 
L 340.577274 128.64 
L 340.633296 128.746894 
L 340.689575 128.675631 
L 340.914176 128.212426 
L 341.223067 127.250384 
L 341.251078 127.321646 
L 341.588237 128.461844 
L 341.644515 128.426213 
L 342.121986 128.319319 
L 342.459145 128.03427 
L 342.712014 128.533106 
L 342.740024 128.604369 
L 342.796303 128.568738 
L 342.936615 128.461844 
L 343.245763 128.568738 
L 343.358063 128.925049 
L 343.386331 128.853787 
L 343.554911 125.397562 
L 343.751501 123.651634 
L 343.80778 123.794159 
L 343.948348 125.646981 
L 344.144938 128.925049 
L 344.201217 128.675631 
L 344.313518 128.354951 
L 344.341786 128.426213 
L 344.510365 128.568738 
L 344.538376 128.497475 
L 344.847524 128.426213 
L 345.10065 128.069901 
L 345.21295 127.891745 
L 345.269229 127.963008 
L 345.466076 128.176795 
L 345.915793 128.782525 
L 345.972072 128.711262 
L 346.365509 126.609023 
L 346.393777 126.644654 
L 346.478067 126.894072 
L 346.702925 128.568738 
L 346.787215 128.426213 
L 346.871761 128.319319 
L 346.899772 128.354951 
L 347.068609 128.426213 
L 347.237188 128.354951 
L 347.490314 128.497475 
L 347.74344 128.141163 
L 348.249692 128.64 
L 348.418272 128.746894 
L 348.47455 128.782525 
L 348.502818 128.746894 
L 348.587108 128.248057 
L 348.868502 126.502129 
L 348.952792 126.573391 
L 349.262196 128.069901 
L 349.346743 127.784852 
L 349.487312 127.677958 
L 349.54359 127.74922 
L 349.571601 127.713589 
L 349.62788 127.606696 
L 349.684159 127.713589 
L 350.415783 128.461844 
L 350.668909 128.426213 
L 350.894024 127.963008 
L 350.922292 127.927376 
L 350.978571 127.998639 
L 351.147407 128.141163 
L 351.175418 128.105532 
L 351.344255 127.856114 
L 351.457069 127.535433 
L 351.569627 127.357277 
L 351.597638 127.42854 
L 351.710195 127.392909 
L 351.879032 127.713589 
L 351.907299 127.677958 
L 351.991589 127.571065 
L 352.019857 127.642327 
L 352.385798 128.319319 
L 352.470087 128.390582 
L 352.639181 128.604369 
L 352.808017 128.212426 
L 353.005121 127.856114 
L 353.117679 127.74922 
L 353.145947 127.784852 
L 353.371062 128.283688 
L 353.427341 128.212426 
L 353.596177 128.03427 
L 353.652713 128.105532 
L 353.708992 128.176795 
L 353.737003 128.105532 
L 353.990386 127.74922 
L 354.046664 127.713589 
L 354.074932 127.74922 
L 354.131211 128.711262 
L 354.215758 131.811175 
L 354.272037 130.207772 
L 354.638234 101.417776 
L 354.666245 101.774088 
L 354.77906 107.475077 
L 355.004175 130.670977 
L 355.116989 128.141163 
L 355.201279 127.571065 
L 355.257815 127.642327 
L 355.48293 127.963008 
L 355.708302 127.677958 
L 355.849128 127.571065 
L 355.933674 127.464171 
L 355.961942 127.606696 
L 356.32814 127.963008 
L 356.609791 127.713589 
L 356.694337 128.03427 
L 356.806895 130.920396 
L 356.863431 129.210099 
L 357.20136 111.608294 
L 357.229628 111.643926 
L 357.314175 113.425485 
L 357.483268 124.186102 
L 357.595826 130.350297 
L 357.652105 129.24573 
L 357.821198 127.642327 
L 358.074838 127.74922 
L 358.300467 127.856114 
L 358.582118 127.963008 
L 358.835758 128.319319 
L 359.173945 128.03427 
L 359.23048 128.283688 
L 359.286759 130.350297 
L 359.399574 140.469553 
L 359.427842 137.298378 
L 359.794039 38.6 
L 359.878843 44.407883 
L 360.019668 83.495291 
L 360.188762 136.229442 
L 360.245298 132.737586 
L 360.414391 127.107859 
L 360.498938 126.82281 
L 360.64002 126.609023 
L 361.232104 128.141163 
L 361.288382 128.03427 
L 361.542279 127.677958 
L 361.795919 127.74922 
L 361.852455 128.319319 
L 361.96527 135.837499 
L 362.021549 132.274381 
L 362.38826 71.523213 
L 362.416528 72.235837 
L 362.529343 84.243546 
L 362.754972 133.16516 
L 362.867786 128.746894 
L 363.03688 126.929703 
L 363.177962 126.894072 
L 363.996189 127.74922 
L 364.109003 127.856114 
L 364.221818 128.069901 
L 364.278354 127.927376 
L 364.3629 127.677958 
L 364.391168 127.74922 
L 364.447447 129.423886 
L 364.560262 138.331682 
L 364.588529 135.55245 
L 364.955498 61.19017 
L 365.011777 63.470566 
L 365.124591 80.929846 
L 365.350477 135.730605 
L 365.407013 131.312339 
L 365.548096 127.392909 
L 365.604374 127.286015 
L 365.66091 127.321646 
L 366.310044 128.069901 
L 366.338312 127.998639 
L 366.592209 127.642327 
L 366.761559 127.606696 
L 367.015713 128.319319 
L 367.128527 133.735259 
L 367.156795 132.915742 
L 367.523764 94.149015 
L 367.608567 96.001836 
L 367.74965 110.361203 
L 367.919257 132.024962 
L 367.975536 129.459517 
L 368.116875 126.858441 
L 368.144886 126.894072 
L 368.483844 128.03427 
L 368.54038 128.069901 
L 368.596916 127.998639 
L 368.737998 127.891745 
L 369.274574 127.784852 
L 369.302842 127.74922 
L 369.387645 127.820483 
L 369.585264 127.927376 
L 369.698078 128.960681 
L 369.726346 128.818156 
L 370.121839 120.51609 
L 370.178375 121.050558 
L 370.347726 125.005619 
L 370.489065 128.746894 
L 370.545601 128.176795 
L 370.658672 127.74922 
L 370.68694 127.784852 
L 371.138712 128.354951 
L 371.16698 128.248057 
L 371.393123 127.784852 
L 371.506195 127.856114 
L 371.703813 128.069901 
L 371.901688 128.141163 
L 372.127831 127.998639 
L 372.32545 128.390582 
L 372.381985 128.141163 
L 372.636396 127.036597 
L 372.777736 127.14349 
L 372.862539 127.357277 
L 373.088682 128.604369 
L 373.145218 128.461844 
L 373.286301 128.461844 
L 373.371104 128.354951 
L 373.484176 128.069901 
L 373.653783 127.784852 
L 374.106069 128.176795 
L 374.247409 128.141163 
L 374.473552 128.283688 
L 374.614891 128.283688 
L 375.010899 128.212426 
L 375.26531 127.856114 
L 375.350113 127.927376 
L 375.547988 128.248057 
L 375.717596 128.461844 
L 375.774131 128.354951 
L 375.943996 128.176795 
L 376.141871 128.283688 
L 376.311478 128.319319 
L 376.50961 128.248057 
L 376.679218 128.319319 
L 376.905361 128.212426 
L 376.933629 128.248057 
L 376.990421 128.141163 
L 377.160029 128.105532 
L 377.442965 128.390582 
L 377.471232 128.354951 
L 377.753911 128.176795 
L 377.838972 128.283688 
L 377.895508 128.176795 
L 378.036847 128.03427 
L 378.263247 127.927376 
L 378.348051 128.03427 
L 378.800851 128.533106 
L 378.829119 128.497475 
L 378.885655 128.568738 
L 379.055519 128.105532 
L 379.281919 127.357277 
L 379.366723 127.179121 
L 379.423258 127.250384 
L 379.593123 127.642327 
L 379.706194 128.069901 
L 379.762987 127.963008 
L 379.847791 127.820483 
L 379.904326 127.856114 
L 379.989387 127.74922 
L 380.102459 127.74922 
L 380.640319 128.390582 
L 380.668587 128.354951 
L 380.781659 128.212426 
L 380.810184 128.283688 
L 381.064852 128.212426 
L 381.17818 127.998639 
L 381.206448 128.03427 
L 381.517652 128.141163 
L 381.85738 128.390582 
L 381.914173 128.354951 
L 381.942441 128.390582 
L 382.055769 128.461844 
L 382.282169 127.998639 
L 382.452034 127.856114 
L 382.650166 127.713589 
L 382.933359 128.390582 
L 383.018419 128.354951 
L 383.32988 127.856114 
L 383.528012 127.963008 
L 383.811205 128.461844 
L 383.952801 128.461844 
L 384.06613 128.568738 
L 384.122923 128.497475 
L 384.292787 128.461844 
L 384.519444 128.354951 
L 384.746101 128.212426 
L 384.972501 128.533106 
L 385.029294 128.461844 
L 385.255951 128.212426 
L 385.284219 128.283688 
L 385.539144 128.319319 
L 385.624204 128.461844 
L 385.652472 128.426213 
L 386.049251 127.713589 
L 386.162579 127.713589 
L 386.304175 128.069901 
L 386.417504 128.212426 
L 386.445772 128.176795 
L 386.615893 128.497475 
L 386.644161 128.461844 
L 386.927611 128.212426 
L 386.955879 128.248057 
L 387.069207 128.354951 
L 387.126 128.390582 
L 387.182536 128.319319 
L 387.551046 127.677958 
L 388.032885 128.212426 
L 388.061153 128.176795 
L 388.429663 128.069901 
L 388.656577 127.927376 
L 389.110148 128.354951 
L 389.166941 128.283688 
L 389.422123 127.927376 
L 389.56372 128.03427 
L 389.790634 128.390582 
L 390.017548 127.963008 
L 390.017548 127.963008 
" clip-path="url(#p975ebadc6b)" style="fill: none; stroke: #ad8c09; stroke-width: 0.6; stroke-linecap: square"/>
   </g>
   <g id="line2d_12"/>
   <g id="patch_3">
    <path d="M 55.95 128.64 
L 55.95 38.6 
" style="fill: none; stroke: #000000; stroke-width: 0.5; stroke-linejoin: miter; stroke-linecap: square"/>
   </g>
   <g id="patch_4">
    <path d="M 55.95 128.64 
L 390.025 128.64 
" style="fill: none; stroke: #000000; stroke-width: 0.5; stroke-linejoin: miter; stroke-linecap: square"/>
   </g>
   <g id="legend_1">
    <g id="patch_5">
     <path d="M 178.4375 60.857812 
L 267.5375 60.857812 
Q 269.5375 60.857812 269.5375 58.857812 
L 269.5375 45.6 
Q 269.5375 43.6 267.5375 43.6 
L 178.4375 43.6 
Q 176.4375 43.6 176.4375 45.6 
L 176.4375 58.857812 
Q 176.4375 60.857812 178.4375 60.857812 
z
" style="fill: #ffffff; opacity: 0.8; stroke: #cccccc; stroke-linejoin: miter"/>
    </g>
    <g id="line2d_13">
     <path d="M 180.4375 51.273438 
L 190.4375 51.273438 
L 200.4375 51.273438 
" style="fill: none; stroke: #ad8c09; stroke-width: 0.6; stroke-linecap: square"/>
    </g>
    <g id="text_13">
     <!-- PS-1K-SCF$_3$ -->
     <g transform="translate(208.4375 54.773438) scale(0.1 -0.1)">
      <defs>
       <path id="Helvetica-50" d="M 547 4591 
L 2613 4591 
Q 3225 4591 3600 4245 
Q 3975 3900 3975 3275 
Q 3975 2738 3640 2339 
Q 3306 1941 2613 1941 
L 1169 1941 
L 1169 0 
L 547 0 
L 547 4591 
z
M 3347 3272 
Q 3347 3778 2972 3959 
Q 2766 4056 2406 4056 
L 1169 4056 
L 1169 2466 
L 2406 2466 
Q 2825 2466 3086 2644 
Q 3347 2822 3347 3272 
z
" transform="scale(0.015625)"/>
       <path id="Helvetica-53" d="M 894 1481 
Q 916 1091 1078 847 
Q 1388 391 2169 391 
Q 2519 391 2806 491 
Q 3363 684 3363 1184 
Q 3363 1559 3128 1719 
Q 2891 1875 2384 1991 
L 1763 2131 
Q 1153 2269 900 2434 
Q 463 2722 463 3294 
Q 463 3913 891 4309 
Q 1319 4706 2103 4706 
Q 2825 4706 3329 4357 
Q 3834 4009 3834 3244 
L 3250 3244 
Q 3203 3613 3050 3809 
Q 2766 4169 2084 4169 
Q 1534 4169 1293 3937 
Q 1053 3706 1053 3400 
Q 1053 3063 1334 2906 
Q 1519 2806 2169 2656 
L 2813 2509 
Q 3278 2403 3531 2219 
Q 3969 1897 3969 1284 
Q 3969 522 3414 194 
Q 2859 -134 2125 -134 
Q 1269 -134 784 303 
Q 300 738 309 1481 
L 894 1481 
z
M 2150 4716 
L 2150 4716 
z
" transform="scale(0.015625)"/>
       <path id="Helvetica-2d" d="M 266 2072 
L 1834 2072 
L 1834 1494 
L 266 1494 
L 266 2072 
z
" transform="scale(0.015625)"/>
       <path id="Helvetica-4b" d="M 488 4591 
L 1094 4591 
L 1094 2353 
L 3331 4591 
L 4191 4591 
L 2281 2741 
L 4244 0 
L 3434 0 
L 1828 2303 
L 1094 1600 
L 1094 0 
L 488 0 
L 488 4591 
z
" transform="scale(0.015625)"/>
       <path id="Helvetica-43" d="M 2422 4716 
Q 3294 4716 3775 4256 
Q 4256 3797 4309 3213 
L 3703 3213 
Q 3600 3656 3292 3915 
Q 2984 4175 2428 4175 
Q 1750 4175 1333 3698 
Q 916 3222 916 2238 
Q 916 1431 1292 929 
Q 1669 428 2416 428 
Q 3103 428 3463 956 
Q 3653 1234 3747 1688 
L 4353 1688 
Q 4272 963 3816 472 
Q 3269 -119 2341 -119 
Q 1541 -119 997 366 
Q 281 1006 281 2344 
Q 281 3359 819 4009 
Q 1400 4716 2422 4716 
z
M 2297 4716 
L 2297 4716 
z
" transform="scale(0.015625)"/>
       <path id="Helvetica-46" d="M 547 4591 
L 3731 4591 
L 3731 4028 
L 1169 4028 
L 1169 2634 
L 3422 2634 
L 3422 2088 
L 1169 2088 
L 1169 0 
L 547 0 
L 547 4591 
z
" transform="scale(0.015625)"/>
       <path id="DejaVuSans-33" d="M 2597 2516 
Q 3050 2419 3304 2112 
Q 3559 1806 3559 1356 
Q 3559 666 3084 287 
Q 2609 -91 1734 -91 
Q 1441 -91 1130 -33 
Q 819 25 488 141 
L 488 750 
Q 750 597 1062 519 
Q 1375 441 1716 441 
Q 2309 441 2620 675 
Q 2931 909 2931 1356 
Q 2931 1769 2642 2001 
Q 2353 2234 1838 2234 
L 1294 2234 
L 1294 2753 
L 1863 2753 
Q 2328 2753 2575 2939 
Q 2822 3125 2822 3475 
Q 2822 3834 2567 4026 
Q 2313 4219 1838 4219 
Q 1578 4219 1281 4162 
Q 984 4106 628 3988 
L 628 4550 
Q 988 4650 1302 4700 
Q 1616 4750 1894 4750 
Q 2613 4750 3031 4423 
Q 3450 4097 3450 3541 
Q 3450 3153 3228 2886 
Q 3006 2619 2597 2516 
z
" transform="scale(0.015625)"/>
      </defs>
      <use xlink:href="#Helvetica-50" transform="translate(0 0.3125)"/>
      <use xlink:href="#Helvetica-53" transform="translate(66.699219 0.3125)"/>
      <use xlink:href="#Helvetica-2d" transform="translate(133.398438 0.3125)"/>
      <use xlink:href="#Helvetica-31" transform="translate(166.699219 0.3125)"/>
      <use xlink:href="#Helvetica-4b" transform="translate(222.314453 0.3125)"/>
      <use xlink:href="#Helvetica-2d" transform="translate(289.013672 0.3125)"/>
      <use xlink:href="#Helvetica-53" transform="translate(322.314453 0.3125)"/>
      <use xlink:href="#Helvetica-43" transform="translate(389.013672 0.3125)"/>
      <use xlink:href="#Helvetica-46" transform="translate(461.230469 0.3125)"/>
      <use xlink:href="#DejaVuSans-33" transform="translate(523.271484 -16.09375) scale(0.7)"/>
     </g>
    </g>
   </g>
  </g>
 </g>
 <defs>
  <clipPath id="p975ebadc6b">
   <rect x="55.95" y="38.6" width="334.075" height="90.04"/>
  </clipPath>
 </defs>
</svg>
