<?xml version="1.0" encoding="utf-8" standalone="no"?>
<!DOCTYPE svg PUBLIC "-//W3C//DTD SVG 1.1//EN"
  "http://www.w3.org/Graphics/SVG/1.1/DTD/svg11.dtd">
<svg xmlns:xlink="http://www.w3.org/1999/xlink" width="432pt" height="180pt" viewBox="0 0 432 180" xmlns="http://www.w3.org/2000/svg" version="1.1">
 <metadata>
  <rdf:RDF xmlns:dc="http://purl.org/dc/elements/1.1/" xmlns:cc="http://creativecommons.org/ns#" xmlns:rdf="http://www.w3.org/1999/02/22-rdf-syntax-ns#">
   <cc:Work>
    <dc:type rdf:resource="http://purl.org/dc/dcmitype/StillImage"/>
    <dc:date>2025-07-10T14:52:59.716086</dc:date>
    <dc:format>image/svg+xml</dc:format>
    <dc:creator>
     <cc:Agent>
      <dc:title>Matplotlib v3.7.1, https://matplotlib.org/</dc:title>
     </cc:Agent>
    </dc:creator>
   </cc:Work>
  </rdf:RDF>
 </metadata>
 <defs>
  <style type="text/css">*{stroke-linejoin: round; stroke-linecap: butt}</style>
 </defs>
 <g id="figure_1">
  <g id="patch_1">
   <path d="M 0 180 
L 432 180 
L 432 0 
L 0 0 
z
" style="fill: #ffffff"/>
  </g>
  <g id="axes_1">
   <g id="patch_2">
    <path d="M 55.95 128.64 
L 390.025 128.64 
L 390.025 38.6 
L 55.95 38.6 
z
" style="fill: #ffffff"/>
   </g>
   <g id="matplotlib.axis_1">
    <g id="xtick_1">
     <g id="line2d_1">
      <defs>
       <path id="mc0a4463120" d="M 0 0 
L 0 -3.5 
" style="stroke: #000000; stroke-width: 0.8"/>
      </defs>
      <g>
       <use xlink:href="#mc0a4463120" x="55.95" y="128.64" style="stroke: #000000; stroke-width: 0.8"/>
      </g>
     </g>
     <g id="text_1">
      <!-- 850 -->
      <g transform="translate(45.940313 140.748125) scale(0.12 -0.12)">
       <defs>
        <path id="Helvetica-38" d="M 1741 2600 
Q 2113 2600 2322 2808 
Q 2531 3016 2531 3303 
Q 2531 3553 2331 3762 
Q 2131 3972 1722 3972 
Q 1316 3972 1134 3762 
Q 953 3553 953 3272 
Q 953 2956 1187 2778 
Q 1422 2600 1741 2600 
z
M 1775 384 
Q 2166 384 2423 595 
Q 2681 806 2681 1225 
Q 2681 1659 2415 1884 
Q 2150 2109 1734 2109 
Q 1331 2109 1076 1879 
Q 822 1650 822 1244 
Q 822 894 1055 639 
Q 1288 384 1775 384 
z
M 975 2384 
Q 741 2484 609 2619 
Q 363 2869 363 3269 
Q 363 3769 725 4128 
Q 1088 4488 1753 4488 
Q 2397 4488 2762 4148 
Q 3128 3809 3128 3356 
Q 3128 2938 2916 2678 
Q 2797 2531 2547 2391 
Q 2825 2263 2984 2097 
Q 3281 1784 3281 1284 
Q 3281 694 2884 283 
Q 2488 -128 1763 -128 
Q 1109 -128 657 226 
Q 206 581 206 1256 
Q 206 1653 400 1942 
Q 594 2231 975 2384 
z
" transform="scale(0.015625)"/>
        <path id="Helvetica-35" d="M 791 1141 
Q 847 659 1238 475 
Q 1438 381 1700 381 
Q 2200 381 2440 700 
Q 2681 1019 2681 1406 
Q 2681 1875 2395 2131 
Q 2109 2388 1709 2388 
Q 1419 2388 1211 2275 
Q 1003 2163 856 1963 
L 369 1991 
L 709 4400 
L 3034 4400 
L 3034 3856 
L 1131 3856 
L 941 2613 
Q 1097 2731 1238 2791 
Q 1488 2894 1816 2894 
Q 2431 2894 2859 2497 
Q 3288 2100 3288 1491 
Q 3288 856 2895 371 
Q 2503 -113 1644 -113 
Q 1097 -113 676 195 
Q 256 503 206 1141 
L 791 1141 
z
" transform="scale(0.015625)"/>
        <path id="Helvetica-30" d="M 1731 4475 
Q 2600 4475 2988 3759 
Q 3288 3206 3288 2244 
Q 3288 1331 3016 734 
Q 2622 -122 1728 -122 
Q 922 -122 528 578 
Q 200 1163 200 2147 
Q 200 2909 397 3456 
Q 766 4475 1731 4475 
z
M 1725 391 
Q 2163 391 2422 778 
Q 2681 1166 2681 2222 
Q 2681 2984 2493 3476 
Q 2306 3969 1766 3969 
Q 1269 3969 1039 3501 
Q 809 3034 809 2125 
Q 809 1441 956 1025 
Q 1181 391 1725 391 
z
" transform="scale(0.015625)"/>
       </defs>
       <use xlink:href="#Helvetica-38"/>
       <use xlink:href="#Helvetica-35" x="55.615234"/>
       <use xlink:href="#Helvetica-30" x="111.230469"/>
      </g>
     </g>
    </g>
    <g id="xtick_2">
     <g id="line2d_2">
      <g>
       <use xlink:href="#mc0a4463120" x="97.709375" y="128.64" style="stroke: #000000; stroke-width: 0.8"/>
      </g>
     </g>
     <g id="text_2">
      <!-- 875 -->
      <g transform="translate(87.699688 140.748125) scale(0.12 -0.12)">
       <defs>
        <path id="Helvetica-37" d="M 3347 4400 
L 3347 3909 
Q 3131 3700 2773 3181 
Q 2416 2663 2141 2063 
Q 1869 1478 1728 997 
Q 1638 688 1494 0 
L 872 0 
Q 1084 1281 1809 2550 
Q 2238 3294 2709 3834 
L 234 3834 
L 234 4400 
L 3347 4400 
z
" transform="scale(0.015625)"/>
       </defs>
       <use xlink:href="#Helvetica-38"/>
       <use xlink:href="#Helvetica-37" x="55.615234"/>
       <use xlink:href="#Helvetica-35" x="111.230469"/>
      </g>
     </g>
    </g>
    <g id="xtick_3">
     <g id="line2d_3">
      <g>
       <use xlink:href="#mc0a4463120" x="139.46875" y="128.64" style="stroke: #000000; stroke-width: 0.8"/>
      </g>
     </g>
     <g id="text_3">
      <!-- 900 -->
      <g transform="translate(129.459062 140.748125) scale(0.12 -0.12)">
       <defs>
        <path id="Helvetica-39" d="M 850 1081 
Q 875 616 1209 438 
Q 1381 344 1597 344 
Q 2000 344 2284 680 
Q 2569 1016 2688 2044 
Q 2500 1747 2223 1626 
Q 1947 1506 1628 1506 
Q 981 1506 604 1909 
Q 228 2313 228 2947 
Q 228 3556 600 4018 
Q 972 4481 1697 4481 
Q 2675 4481 3047 3600 
Q 3253 3116 3253 2388 
Q 3253 1566 3006 931 
Q 2597 -125 1619 -125 
Q 963 -125 622 219 
Q 281 563 281 1081 
L 850 1081 
z
M 1703 2000 
Q 2038 2000 2314 2220 
Q 2591 2441 2591 2991 
Q 2591 3484 2342 3726 
Q 2094 3969 1709 3969 
Q 1297 3969 1055 3692 
Q 813 3416 813 2953 
Q 813 2516 1025 2258 
Q 1238 2000 1703 2000 
z
" transform="scale(0.015625)"/>
       </defs>
       <use xlink:href="#Helvetica-39"/>
       <use xlink:href="#Helvetica-30" x="55.615234"/>
       <use xlink:href="#Helvetica-30" x="111.230469"/>
      </g>
     </g>
    </g>
    <g id="xtick_4">
     <g id="line2d_4">
      <g>
       <use xlink:href="#mc0a4463120" x="181.228125" y="128.64" style="stroke: #000000; stroke-width: 0.8"/>
      </g>
     </g>
     <g id="text_4">
      <!-- 925 -->
      <g transform="translate(171.218438 140.748125) scale(0.12 -0.12)">
       <defs>
        <path id="Helvetica-32" d="M 200 0 
Q 231 578 439 1006 
Q 647 1434 1250 1784 
L 1850 2131 
Q 2253 2366 2416 2531 
Q 2672 2791 2672 3125 
Q 2672 3516 2437 3745 
Q 2203 3975 1813 3975 
Q 1234 3975 1013 3538 
Q 894 3303 881 2888 
L 309 2888 
Q 319 3472 525 3841 
Q 891 4491 1816 4491 
Q 2584 4491 2939 4075 
Q 3294 3659 3294 3150 
Q 3294 2613 2916 2231 
Q 2697 2009 2131 1694 
L 1703 1456 
Q 1397 1288 1222 1134 
Q 909 863 828 531 
L 3272 531 
L 3272 0 
L 200 0 
z
" transform="scale(0.015625)"/>
       </defs>
       <use xlink:href="#Helvetica-39"/>
       <use xlink:href="#Helvetica-32" x="55.615234"/>
       <use xlink:href="#Helvetica-35" x="111.230469"/>
      </g>
     </g>
    </g>
    <g id="xtick_5">
     <g id="line2d_5">
      <g>
       <use xlink:href="#mc0a4463120" x="222.9875" y="128.64" style="stroke: #000000; stroke-width: 0.8"/>
      </g>
     </g>
     <g id="text_5">
      <!-- 950 -->
      <g transform="translate(212.977813 140.748125) scale(0.12 -0.12)">
       <use xlink:href="#Helvetica-39"/>
       <use xlink:href="#Helvetica-35" x="55.615234"/>
       <use xlink:href="#Helvetica-30" x="111.230469"/>
      </g>
     </g>
    </g>
    <g id="xtick_6">
     <g id="line2d_6">
      <g>
       <use xlink:href="#mc0a4463120" x="264.746875" y="128.64" style="stroke: #000000; stroke-width: 0.8"/>
      </g>
     </g>
     <g id="text_6">
      <!-- 975 -->
      <g transform="translate(254.737188 140.748125) scale(0.12 -0.12)">
       <use xlink:href="#Helvetica-39"/>
       <use xlink:href="#Helvetica-37" x="55.615234"/>
       <use xlink:href="#Helvetica-35" x="111.230469"/>
      </g>
     </g>
    </g>
    <g id="xtick_7">
     <g id="line2d_7">
      <g>
       <use xlink:href="#mc0a4463120" x="306.50625" y="128.64" style="stroke: #000000; stroke-width: 0.8"/>
      </g>
     </g>
     <g id="text_7">
      <!-- 1000 -->
      <g transform="translate(293.16 140.748125) scale(0.12 -0.12)">
       <defs>
        <path id="Helvetica-31" d="M 613 3169 
L 613 3600 
Q 1222 3659 1462 3798 
Q 1703 3938 1822 4456 
L 2266 4456 
L 2266 0 
L 1666 0 
L 1666 3169 
L 613 3169 
z
" transform="scale(0.015625)"/>
       </defs>
       <use xlink:href="#Helvetica-31"/>
       <use xlink:href="#Helvetica-30" x="55.615234"/>
       <use xlink:href="#Helvetica-30" x="111.230469"/>
       <use xlink:href="#Helvetica-30" x="166.845703"/>
      </g>
     </g>
    </g>
    <g id="xtick_8">
     <g id="line2d_8">
      <g>
       <use xlink:href="#mc0a4463120" x="348.265625" y="128.64" style="stroke: #000000; stroke-width: 0.8"/>
      </g>
     </g>
     <g id="text_8">
      <!-- 1025 -->
      <g transform="translate(334.919375 140.748125) scale(0.12 -0.12)">
       <use xlink:href="#Helvetica-31"/>
       <use xlink:href="#Helvetica-30" x="55.615234"/>
       <use xlink:href="#Helvetica-32" x="111.230469"/>
       <use xlink:href="#Helvetica-35" x="166.845703"/>
      </g>
     </g>
    </g>
    <g id="xtick_9">
     <g id="line2d_9">
      <g>
       <use xlink:href="#mc0a4463120" x="390.025" y="128.64" style="stroke: #000000; stroke-width: 0.8"/>
      </g>
     </g>
     <g id="text_9">
      <!-- 1050 -->
      <g transform="translate(376.67875 140.748125) scale(0.12 -0.12)">
       <use xlink:href="#Helvetica-31"/>
       <use xlink:href="#Helvetica-30" x="55.615234"/>
       <use xlink:href="#Helvetica-35" x="111.230469"/>
       <use xlink:href="#Helvetica-30" x="166.845703"/>
      </g>
     </g>
    </g>
    <g id="text_10">
     <!-- m/z -->
     <g transform="translate(213.322812 155.8575) scale(0.12 -0.12)">
      <defs>
       <path id="Helvetica-6d" d="M 413 3347 
L 969 3347 
L 969 2872 
Q 1169 3119 1331 3231 
Q 1609 3422 1963 3422 
Q 2363 3422 2606 3225 
Q 2744 3113 2856 2894 
Q 3044 3163 3297 3292 
Q 3550 3422 3866 3422 
Q 4541 3422 4784 2934 
Q 4916 2672 4916 2228 
L 4916 0 
L 4331 0 
L 4331 2325 
Q 4331 2659 4164 2784 
Q 3997 2909 3756 2909 
Q 3425 2909 3186 2687 
Q 2947 2466 2947 1947 
L 2947 0 
L 2375 0 
L 2375 2184 
Q 2375 2525 2294 2681 
Q 2166 2916 1816 2916 
Q 1497 2916 1236 2669 
Q 975 2422 975 1775 
L 975 0 
L 413 0 
L 413 3347 
z
" transform="scale(0.015625)"/>
       <path id="Helvetica-2f" d="M 1456 4591 
L 1931 4591 
L 475 0 
L 0 0 
L 1456 4591 
z
" transform="scale(0.015625)"/>
       <path id="Helvetica-7a" d="M 163 444 
L 2147 2844 
L 309 2844 
L 309 3347 
L 2903 3347 
L 2903 2888 
L 931 503 
L 2963 503 
L 2963 0 
L 163 0 
L 163 444 
z
M 1609 3428 
L 1609 3428 
z
" transform="scale(0.015625)"/>
      </defs>
      <use xlink:href="#Helvetica-6d"/>
      <use xlink:href="#Helvetica-2f" x="83.300781"/>
      <use xlink:href="#Helvetica-7a" x="111.083984"/>
     </g>
    </g>
   </g>
   <g id="matplotlib.axis_2">
    <g id="ytick_1">
     <g id="line2d_10">
      <defs>
       <path id="m2b4ea94737" d="M 0 0 
L 3.5 0 
" style="stroke: #000000; stroke-width: 0.8"/>
      </defs>
      <g>
       <use xlink:href="#m2b4ea94737" x="55.95" y="128.64" style="stroke: #000000; stroke-width: 0.8"/>
      </g>
     </g>
     <g id="text_11">
      <!-- 0.0 -->
      <g transform="translate(35.77 132.944062) scale(0.12 -0.12)">
       <defs>
        <path id="Helvetica-2e" d="M 547 681 
L 1200 681 
L 1200 0 
L 547 0 
L 547 681 
z
" transform="scale(0.015625)"/>
       </defs>
       <use xlink:href="#Helvetica-30"/>
       <use xlink:href="#Helvetica-2e" x="55.615234"/>
       <use xlink:href="#Helvetica-30" x="83.398438"/>
      </g>
     </g>
    </g>
    <g id="ytick_2">
     <g id="line2d_11">
      <g>
       <use xlink:href="#m2b4ea94737" x="55.95" y="83.62" style="stroke: #000000; stroke-width: 0.8"/>
      </g>
     </g>
     <g id="text_12">
      <!-- 0.5 -->
      <g transform="translate(35.77 87.924062) scale(0.12 -0.12)">
       <use xlink:href="#Helvetica-30"/>
       <use xlink:href="#Helvetica-2e" x="55.615234"/>
       <use xlink:href="#Helvetica-35" x="83.398438"/>
      </g>
     </g>
    </g>
    <g id="ytick_3">
     <g id="line2d_12">
      <g>
       <use xlink:href="#m2b4ea94737" x="55.95" y="38.6" style="stroke: #000000; stroke-width: 0.8"/>
      </g>
     </g>
     <g id="text_13">
      <!-- 1.0 -->
      <g transform="translate(35.77 42.904063) scale(0.12 -0.12)">
       <use xlink:href="#Helvetica-31"/>
       <use xlink:href="#Helvetica-2e" x="55.615234"/>
       <use xlink:href="#Helvetica-30" x="83.398438"/>
      </g>
     </g>
    </g>
    <g id="text_14">
     <!-- Normalized  -->
     <g transform="translate(16.3665 115.628125) rotate(-90) scale(0.12 -0.12)">
      <defs>
       <path id="Helvetica-4e" d="M 488 4591 
L 1222 4591 
L 3541 872 
L 3541 4591 
L 4131 4591 
L 4131 0 
L 3434 0 
L 1081 3716 
L 1081 0 
L 488 0 
L 488 4591 
z
M 2269 4591 
L 2269 4591 
z
" transform="scale(0.015625)"/>
       <path id="Helvetica-6f" d="M 1741 363 
Q 2300 363 2508 786 
Q 2716 1209 2716 1728 
Q 2716 2197 2566 2491 
Q 2328 2953 1747 2953 
Q 1231 2953 997 2559 
Q 763 2166 763 1609 
Q 763 1075 997 719 
Q 1231 363 1741 363 
z
M 1763 3444 
Q 2409 3444 2856 3012 
Q 3303 2581 3303 1744 
Q 3303 934 2909 406 
Q 2516 -122 1688 -122 
Q 997 -122 590 345 
Q 184 813 184 1600 
Q 184 2444 612 2944 
Q 1041 3444 1763 3444 
z
M 1744 3428 
L 1744 3428 
z
" transform="scale(0.015625)"/>
       <path id="Helvetica-72" d="M 428 3347 
L 963 3347 
L 963 2769 
Q 1028 2938 1284 3180 
Q 1541 3422 1875 3422 
Q 1891 3422 1928 3419 
Q 1966 3416 2056 3406 
L 2056 2813 
Q 2006 2822 1964 2825 
Q 1922 2828 1872 2828 
Q 1447 2828 1219 2554 
Q 991 2281 991 1925 
L 991 0 
L 428 0 
L 428 3347 
z
" transform="scale(0.015625)"/>
       <path id="Helvetica-61" d="M 844 891 
Q 844 647 1022 506 
Q 1200 366 1444 366 
Q 1741 366 2019 503 
Q 2488 731 2488 1250 
L 2488 1703 
Q 2384 1638 2221 1594 
Q 2059 1550 1903 1531 
L 1563 1488 
Q 1256 1447 1103 1359 
Q 844 1213 844 891 
z
M 2206 2028 
Q 2400 2053 2466 2191 
Q 2503 2266 2503 2406 
Q 2503 2694 2298 2823 
Q 2094 2953 1713 2953 
Q 1272 2953 1088 2716 
Q 984 2584 953 2325 
L 428 2325 
Q 444 2944 830 3186 
Q 1216 3428 1725 3428 
Q 2316 3428 2684 3203 
Q 3050 2978 3050 2503 
L 3050 575 
Q 3050 488 3086 434 
Q 3122 381 3238 381 
Q 3275 381 3322 386 
Q 3369 391 3422 400 
L 3422 -16 
Q 3291 -53 3222 -62 
Q 3153 -72 3034 -72 
Q 2744 -72 2613 134 
Q 2544 244 2516 444 
Q 2344 219 2022 53 
Q 1700 -113 1313 -113 
Q 847 -113 551 170 
Q 256 453 256 878 
Q 256 1344 547 1600 
Q 838 1856 1309 1916 
L 2206 2028 
z
M 1741 3428 
L 1741 3428 
z
" transform="scale(0.015625)"/>
       <path id="Helvetica-6c" d="M 428 4591 
L 991 4591 
L 991 0 
L 428 0 
L 428 4591 
z
" transform="scale(0.015625)"/>
       <path id="Helvetica-69" d="M 413 3331 
L 984 3331 
L 984 0 
L 413 0 
L 413 3331 
z
M 413 4591 
L 984 4591 
L 984 3953 
L 413 3953 
L 413 4591 
z
" transform="scale(0.015625)"/>
       <path id="Helvetica-65" d="M 1806 3422 
Q 2163 3422 2497 3255 
Q 2831 3088 3006 2822 
Q 3175 2569 3231 2231 
Q 3281 2000 3281 1494 
L 828 1494 
Q 844 984 1069 676 
Q 1294 369 1766 369 
Q 2206 369 2469 659 
Q 2619 828 2681 1050 
L 3234 1050 
Q 3213 866 3089 639 
Q 2966 413 2813 269 
Q 2556 19 2178 -69 
Q 1975 -119 1719 -119 
Q 1094 -119 659 336 
Q 225 791 225 1609 
Q 225 2416 662 2919 
Q 1100 3422 1806 3422 
z
M 2703 1941 
Q 2669 2306 2544 2525 
Q 2313 2931 1772 2931 
Q 1384 2931 1121 2651 
Q 859 2372 844 1941 
L 2703 1941 
z
M 1753 3428 
L 1753 3428 
z
" transform="scale(0.015625)"/>
       <path id="Helvetica-64" d="M 769 1634 
Q 769 1097 997 734 
Q 1225 372 1728 372 
Q 2119 372 2370 708 
Q 2622 1044 2622 1672 
Q 2622 2306 2362 2611 
Q 2103 2916 1722 2916 
Q 1297 2916 1033 2591 
Q 769 2266 769 1634 
z
M 1616 3406 
Q 2000 3406 2259 3244 
Q 2409 3150 2600 2916 
L 2600 4606 
L 3141 4606 
L 3141 0 
L 2634 0 
L 2634 466 
Q 2438 156 2169 18 
Q 1900 -119 1553 -119 
Q 994 -119 584 351 
Q 175 822 175 1603 
Q 175 2334 548 2870 
Q 922 3406 1616 3406 
z
" transform="scale(0.015625)"/>
       <path id="Helvetica-20" transform="scale(0.015625)"/>
      </defs>
      <use xlink:href="#Helvetica-4e"/>
      <use xlink:href="#Helvetica-6f" x="72.216797"/>
      <use xlink:href="#Helvetica-72" x="127.832031"/>
      <use xlink:href="#Helvetica-6d" x="161.132812"/>
      <use xlink:href="#Helvetica-61" x="244.433594"/>
      <use xlink:href="#Helvetica-6c" x="300.048828"/>
      <use xlink:href="#Helvetica-69" x="322.265625"/>
      <use xlink:href="#Helvetica-7a" x="344.482422"/>
      <use xlink:href="#Helvetica-65" x="394.482422"/>
      <use xlink:href="#Helvetica-64" x="450.097656"/>
      <use xlink:href="#Helvetica-20" x="505.712891"/>
     </g>
     <!--  Intensity -->
     <g transform="translate(29.1975 107.630312) rotate(-90) scale(0.12 -0.12)">
      <defs>
       <path id="Helvetica-49" d="M 628 4591 
L 1256 4591 
L 1256 0 
L 628 0 
L 628 4591 
z
" transform="scale(0.015625)"/>
       <path id="Helvetica-6e" d="M 413 3347 
L 947 3347 
L 947 2872 
Q 1184 3166 1450 3294 
Q 1716 3422 2041 3422 
Q 2753 3422 3003 2925 
Q 3141 2653 3141 2147 
L 3141 0 
L 2569 0 
L 2569 2109 
Q 2569 2416 2478 2603 
Q 2328 2916 1934 2916 
Q 1734 2916 1606 2875 
Q 1375 2806 1200 2600 
Q 1059 2434 1017 2257 
Q 975 2081 975 1753 
L 975 0 
L 413 0 
L 413 3347 
z
M 1734 3428 
L 1734 3428 
z
" transform="scale(0.015625)"/>
       <path id="Helvetica-74" d="M 525 4281 
L 1094 4281 
L 1094 3347 
L 1628 3347 
L 1628 2888 
L 1094 2888 
L 1094 703 
Q 1094 528 1213 469 
Q 1278 434 1431 434 
Q 1472 434 1519 436 
Q 1566 438 1628 444 
L 1628 0 
Q 1531 -28 1426 -40 
Q 1322 -53 1200 -53 
Q 806 -53 665 148 
Q 525 350 525 672 
L 525 2888 
L 72 2888 
L 72 3347 
L 525 3347 
L 525 4281 
z
" transform="scale(0.015625)"/>
       <path id="Helvetica-73" d="M 747 1050 
Q 772 769 888 619 
Q 1100 347 1625 347 
Q 1938 347 2175 483 
Q 2413 619 2413 903 
Q 2413 1119 2222 1231 
Q 2100 1300 1741 1391 
L 1294 1503 
Q 866 1609 663 1741 
Q 300 1969 300 2372 
Q 300 2847 642 3140 
Q 984 3434 1563 3434 
Q 2319 3434 2653 2991 
Q 2863 2709 2856 2384 
L 2325 2384 
Q 2309 2575 2191 2731 
Q 1997 2953 1519 2953 
Q 1200 2953 1036 2831 
Q 872 2709 872 2509 
Q 872 2291 1088 2159 
Q 1213 2081 1456 2022 
L 1828 1931 
Q 2434 1784 2641 1647 
Q 2969 1431 2969 969 
Q 2969 522 2630 197 
Q 2291 -128 1597 -128 
Q 850 -128 539 211 
Q 228 550 206 1050 
L 747 1050 
z
M 1578 3428 
L 1578 3428 
z
" transform="scale(0.015625)"/>
       <path id="Helvetica-79" d="M 2503 3347 
L 3125 3347 
Q 3006 3025 2597 1878 
Q 2291 1016 2084 472 
Q 1597 -809 1397 -1090 
Q 1197 -1372 709 -1372 
Q 591 -1372 527 -1362 
Q 463 -1353 369 -1328 
L 369 -816 
Q 516 -856 581 -865 
Q 647 -875 697 -875 
Q 853 -875 926 -823 
Q 1000 -772 1050 -697 
Q 1066 -672 1162 -440 
Q 1259 -209 1303 -97 
L 66 3347 
L 703 3347 
L 1600 622 
L 2503 3347 
z
M 1597 3428 
L 1597 3428 
z
" transform="scale(0.015625)"/>
      </defs>
      <use xlink:href="#Helvetica-20"/>
      <use xlink:href="#Helvetica-49" x="27.783203"/>
      <use xlink:href="#Helvetica-6e" x="55.566406"/>
      <use xlink:href="#Helvetica-74" x="111.181641"/>
      <use xlink:href="#Helvetica-65" x="138.964844"/>
      <use xlink:href="#Helvetica-6e" x="194.580078"/>
      <use xlink:href="#Helvetica-73" x="250.195312"/>
      <use xlink:href="#Helvetica-69" x="300.195312"/>
      <use xlink:href="#Helvetica-74" x="322.412109"/>
      <use xlink:href="#Helvetica-79" x="350.195312"/>
     </g>
    </g>
   </g>
   <g id="line2d_13">
    <path d="M 55.952673 127.677958 
L 56.003285 127.784852 
L 56.206068 128.64 
L 56.273719 128.461844 
L 56.442761 128.354951 
L 56.49354 128.461844 
L 56.561023 128.390582 
L 56.662582 128.283688 
L 56.814753 127.927376 
L 56.865366 128.069901 
L 57.068316 128.248057 
L 57.237358 127.891745 
L 57.271267 127.998639 
L 57.491088 128.533106 
L 57.72778 127.998639 
L 57.84621 127.963008 
L 58.082902 128.675631 
L 58.099773 128.64 
L 58.641141 127.606696 
L 58.67505 127.677958 
L 58.81035 127.891745 
L 58.878 127.856114 
L 58.962521 127.963008 
L 59.11486 128.141163 
L 59.267198 128.069901 
L 59.317977 127.963008 
L 59.368757 128.105532 
L 59.554836 128.64 
L 59.639357 128.461844 
L 59.791695 128.212426 
L 59.977942 128.746894 
L 60.062463 128.533106 
L 60.299489 127.42854 
L 60.333398 127.535433 
L 60.384177 127.784852 
L 60.485736 128.426213 
L 60.519645 128.319319 
L 60.705725 128.141163 
L 60.92588 128.461844 
L 60.959789 128.426213 
L 61.332282 128.319319 
L 61.41697 128.176795 
L 61.484621 128.248057 
L 61.687905 128.354951 
L 61.738685 128.461844 
L 61.772593 128.354951 
L 62.026657 127.642327 
L 62.043528 127.677958 
L 62.145087 127.784852 
L 62.331501 128.283688 
L 62.399318 128.390582 
L 62.433059 128.461844 
L 62.500877 128.354951 
L 62.653382 128.069901 
L 62.721032 128.141163 
L 62.873537 128.354951 
L 62.907446 128.319319 
L 63.110731 128.03427 
L 63.144639 128.069901 
L 63.212456 128.141163 
L 63.263236 128.069901 
L 63.39887 128.03427 
L 63.68701 128.461844 
L 63.890295 128.069901 
L 63.924203 128.105532 
L 63.958112 128.03427 
L 63.974983 128.03427 
L 64.0428 127.998639 
L 64.059838 128.03427 
L 64.127655 128.319319 
L 64.178434 128.141163 
L 64.246252 128.105532 
L 64.28016 128.176795 
L 64.534391 128.64 
L 64.5683 128.568738 
L 64.754881 128.354951 
L 64.771751 128.390582 
L 64.958332 128.283688 
L 65.076929 128.141163 
L 65.110838 128.212426 
L 65.144746 128.248057 
L 65.195693 128.176795 
L 65.534779 127.713589 
L 65.772139 128.248057 
L 65.840123 128.283688 
L 65.890903 128.248057 
L 65.941849 128.176795 
L 66.043575 128.03427 
L 66.077484 128.069901 
L 66.145301 128.176795 
L 66.34892 128.568738 
L 66.399866 128.497475 
L 66.569409 128.105532 
L 66.654264 128.212426 
L 66.773028 128.283688 
L 66.790066 128.248057 
L 67.163227 128.176795 
L 67.3159 127.963008 
L 67.383884 128.069901 
L 67.553594 128.497475 
L 67.672358 128.390582 
L 67.757213 128.248057 
L 67.791121 128.354951 
L 67.875976 128.533106 
L 67.893014 128.497475 
L 68.096633 127.891745 
L 68.130542 127.784852 
L 68.181488 127.963008 
L 68.334327 128.533106 
L 68.368236 128.390582 
L 68.453091 128.176795 
L 68.504037 128.283688 
L 68.622801 128.461844 
L 68.656877 128.354951 
L 68.911442 127.250384 
L 68.92848 127.321646 
L 69.081319 128.354951 
L 69.149136 127.891745 
L 69.336051 126.965334 
L 69.386998 127.072228 
L 69.437944 127.321646 
L 69.556708 128.283688 
L 69.624692 128.212426 
L 69.998355 128.746894 
L 70.049301 128.675631 
L 70.202141 128.497475 
L 70.287163 128.390582 
L 70.304033 128.461844 
L 70.35498 128.64 
L 70.405926 128.533106 
L 70.660826 127.642327 
L 70.694734 127.784852 
L 70.813665 128.64 
L 70.864611 128.354951 
L 71.10264 127.179121 
L 71.170457 127.535433 
L 71.340501 128.248057 
L 71.459432 128.533106 
L 71.510378 128.390582 
L 71.612271 128.319319 
L 71.629309 128.390582 
L 71.663385 128.461844 
L 71.714331 128.319319 
L 71.8503 128.212426 
L 71.901246 128.248057 
L 71.96923 128.212426 
L 72.139275 127.606696 
L 72.292281 127.250384 
L 72.462158 128.176795 
L 72.530142 127.820483 
L 72.734262 127.036597 
L 72.802246 127.42854 
L 73.108259 128.319319 
L 73.176243 128.283688 
L 73.193281 128.319319 
L 73.261265 128.533106 
L 73.32925 128.426213 
L 73.380363 128.319319 
L 73.516332 127.963008 
L 73.550407 128.03427 
L 73.856587 128.141163 
L 73.907533 128.212426 
L 73.941609 128.105532 
L 74.06054 127.963008 
L 74.094615 127.998639 
L 74.145729 128.105532 
L 74.179638 127.963008 
L 74.349849 127.571065 
L 74.417833 127.392909 
L 74.468779 127.499802 
L 74.724013 128.568738 
L 74.809035 128.461844 
L 74.911262 128.497475 
L 74.928133 128.461844 
L 75.013322 128.354951 
L 75.166328 128.03427 
L 75.234479 128.105532 
L 75.336539 128.212426 
L 75.353577 128.141163 
L 75.523788 127.642327 
L 75.557864 127.74922 
L 75.779022 128.141163 
L 75.60881 127.713589 
L 75.813097 128.069901 
L 75.864211 127.891745 
L 75.932195 128.03427 
L 76.25558 128.604369 
L 76.306693 128.568738 
L 76.442829 128.461844 
L 76.562093 128.283688 
L 76.61304 128.354951 
L 76.76638 128.461844 
L 76.953629 127.891745 
L 77.038818 128.141163 
L 77.191992 128.604369 
L 77.243105 128.390582 
L 77.396279 127.963008 
L 77.600733 128.069901 
L 77.668884 128.141163 
L 77.702793 128.069901 
L 77.736868 128.03427 
L 77.770944 128.141163 
L 78.026511 128.746894 
L 78.077625 128.64 
L 78.384138 128.176795 
L 78.401176 128.212426 
L 78.486365 128.319319 
L 78.520441 128.248057 
L 78.60563 128.141163 
L 78.639706 128.212426 
L 78.690819 128.176795 
L 78.724895 128.248057 
L 78.741933 128.283688 
L 78.793046 128.141163 
L 78.895273 127.927376 
L 78.929349 127.998639 
L 78.9975 128.105532 
L 79.184916 128.461844 
L 79.321219 128.212426 
L 79.372332 128.283688 
L 79.491597 128.568738 
L 79.559748 128.461844 
L 79.764369 127.856114 
L 79.815483 127.963008 
L 80.002899 128.711262 
L 80.019937 128.675631 
L 80.258633 128.105532 
L 80.343822 128.212426 
L 80.446049 128.568738 
L 80.514368 128.497475 
L 80.582519 128.390582 
L 80.684746 128.283688 
L 80.735859 128.319319 
L 80.94048 128.212426 
L 81.145101 127.998639 
L 81.418041 128.319319 
L 81.588419 127.963008 
L 81.605624 127.998639 
L 81.98079 128.533106 
L 82.185411 128.354951 
L 82.714252 128.283688 
L 82.850721 128.176795 
L 82.970153 128.283688 
L 83.072547 128.533106 
L 83.106623 128.461844 
L 83.157903 128.319319 
L 83.226054 128.426213 
L 83.413805 128.533106 
L 83.465085 128.675631 
L 83.533236 128.64 
L 83.772267 127.891745 
L 83.874661 128.141163 
L 83.994093 128.461844 
L 84.045206 128.248057 
L 84.215919 127.998639 
L 84.318313 128.105532 
L 84.454949 128.461844 
L 84.489025 128.426213 
L 84.69398 127.963008 
L 84.898768 128.141163 
L 85.035405 128.212426 
L 85.189079 128.64 
L 85.206117 128.604369 
L 85.394034 127.927376 
L 85.411072 127.963008 
L 85.445148 128.141163 
L 85.530671 127.998639 
L 85.701383 127.856114 
L 85.923376 128.497475 
L 86.077051 128.390582 
L 86.435847 128.497475 
L 86.452885 128.533106 
L 86.487128 128.461844 
L 86.538408 128.461844 
L 86.760401 128.248057 
L 87.15344 128.319319 
L 87.204721 128.390582 
L 87.238796 128.212426 
L 87.409676 127.963008 
L 87.443918 127.927376 
L 87.495199 128.03427 
L 87.888238 128.782525 
L 87.922481 128.711262 
L 88.110398 128.497475 
L 88.127436 128.533106 
L 88.401043 128.426213 
L 88.520642 128.319319 
L 88.53768 128.354951 
L 88.657446 128.461844 
L 88.674484 128.390582 
L 88.948091 127.357277 
L 89.016409 127.464171 
L 89.238736 128.248057 
L 89.426821 128.354951 
L 89.68339 128.64 
L 89.700428 128.604369 
L 89.751709 128.675631 
L 89.768913 128.675631 
L 89.820194 128.711262 
L 89.888512 128.675631 
L 90.008278 128.604369 
L 90.196362 128.283688 
L 90.264848 128.390582 
L 90.470137 128.64 
L 90.658221 128.105532 
L 90.81223 127.571065 
L 90.897753 127.820483 
L 91.034724 128.319319 
L 91.068966 128.461844 
L 91.137285 128.390582 
L 91.240013 128.141163 
L 91.274255 128.212426 
L 91.411059 128.533106 
L 91.445302 128.461844 
L 91.650758 127.856114 
L 91.685001 127.891745 
L 91.839009 128.426213 
L 91.94157 128.176795 
L 91.993018 128.141163 
L 92.02726 128.212426 
L 92.232549 128.533106 
L 92.266792 128.461844 
L 92.472248 128.283688 
L 92.728985 128.354951 
L 92.780432 128.497475 
L 92.831713 128.319319 
L 92.985889 128.141163 
L 93.225587 128.461844 
L 93.037169 128.069901 
L 93.242625 128.426213 
L 93.431044 127.891745 
L 93.602257 127.606696 
L 93.6365 127.677958 
L 93.927646 128.497475 
L 94.321687 127.642327 
L 94.372968 127.784852 
L 94.544348 128.212426 
L 94.578591 128.176795 
L 94.698524 128.069901 
L 94.749805 127.998639 
L 94.818457 128.069901 
L 94.921185 128.141163 
L 95.075361 128.461844 
L 95.092566 128.426213 
L 95.212498 128.176795 
L 95.298189 128.248057 
L 95.555092 128.141163 
L 95.675192 127.820483 
L 95.69223 127.856114 
L 95.743678 127.891745 
L 95.760883 127.820483 
L 95.77792 127.820483 
L 95.863611 127.784852 
L 95.880815 127.856114 
L 95.966506 128.03427 
L 96.034991 127.927376 
L 96.086439 127.998639 
L 96.155091 128.212426 
L 96.206372 128.03427 
L 96.326472 127.464171 
L 96.377919 127.606696 
L 96.600747 128.604369 
L 96.617785 128.533106 
L 96.789332 128.105532 
L 96.994956 127.998639 
L 97.132093 127.74922 
L 97.183541 127.820483 
L 97.440779 128.426213 
L 97.457984 128.390582 
L 97.509431 128.497475 
L 97.543674 128.461844 
L 97.577916 128.426213 
L 97.732259 127.927376 
L 97.749464 127.963008 
L 97.886602 128.03427 
L 98.006702 128.461844 
L 98.040944 128.390582 
L 98.315387 127.74922 
L 98.418282 127.856114 
L 98.452692 127.820483 
L 98.607035 128.03427 
L 98.778582 127.42854 
L 98.915887 126.929703 
L 98.95013 127.036597 
L 99.053025 127.856114 
L 99.207534 128.319319 
L 99.276187 127.963008 
L 99.379082 127.677958 
L 99.413492 127.74922 
L 99.602244 128.390582 
L 99.670896 128.354951 
L 99.705139 128.283688 
L 99.928301 127.784852 
L 99.979749 127.891745 
L 100.254358 128.354951 
L 100.031196 127.856114 
L 100.271563 128.319319 
L 100.528968 126.965334 
L 100.666273 127.464171 
L 100.889435 128.497475 
L 100.94105 128.390582 
L 101.129802 127.856114 
L 101.215659 127.963008 
L 101.438988 128.64 
L 101.456026 128.604369 
L 101.765213 127.784852 
L 101.971337 128.283688 
L 102.022784 128.141163 
L 102.314766 127.072228 
L 102.349176 127.14349 
L 102.641157 128.319319 
L 102.812872 128.069901 
L 102.847281 128.141163 
L 103.036201 128.426213 
L 103.070611 128.390582 
L 103.379964 127.927376 
L 103.397002 127.963008 
L 103.534474 128.069901 
L 103.671946 128.176795 
L 103.72356 127.998639 
L 103.792213 128.141163 
L 103.843827 127.891745 
L 104.032914 126.965334 
L 104.067323 126.929703 
L 104.101566 127.000966 
L 104.445329 128.426213 
L 104.514149 128.283688 
L 104.668825 128.141163 
L 104.68603 128.176795 
L 104.823502 128.283688 
L 104.909526 128.461844 
L 104.943936 128.390582 
L 105.064203 128.283688 
L 105.184637 128.141163 
L 105.201842 128.212426 
L 105.270494 128.176795 
L 105.322109 128.212426 
L 105.408133 128.105532 
L 105.614425 127.784852 
L 105.648834 127.820483 
L 105.683244 127.856114 
L 105.717654 127.713589 
L 105.769268 127.642327 
L 105.803678 127.713589 
L 105.958355 128.212426 
L 106.009969 128.141163 
L 106.078789 128.212426 
L 106.147608 128.283688 
L 106.182018 128.212426 
L 106.302452 128.03427 
L 106.336695 128.105532 
L 106.629178 128.497475 
L 106.732407 128.354951 
L 106.766816 128.426213 
L 107.007684 128.675631 
L 107.145323 128.64 
L 107.420601 127.392909 
L 107.437806 127.42854 
L 107.52383 127.856114 
L 107.799108 128.568738 
L 107.867928 128.461844 
L 108.160577 128.069901 
L 108.298216 128.390582 
L 108.349831 128.248057 
L 108.590866 127.677958 
L 108.659685 127.820483 
L 108.74571 128.248057 
L 108.831901 128.390582 
L 108.866311 128.354951 
L 108.986745 128.533106 
L 109.021155 128.461844 
L 109.124551 128.354951 
L 109.15896 128.390582 
L 109.244985 128.604369 
L 109.279394 128.426213 
L 109.468815 127.891745 
L 109.503225 127.963008 
L 109.641031 127.998639 
L 109.70985 128.212426 
L 109.761632 128.105532 
L 109.813246 128.176795 
L 109.968257 128.568738 
L 109.985462 128.497475 
L 110.157678 128.212426 
L 110.243702 128.319319 
L 110.502109 128.818156 
L 110.536519 128.711262 
L 110.794926 127.642327 
L 110.812131 127.677958 
L 111.173934 128.283688 
L 111.191139 128.248057 
L 111.346149 127.963008 
L 111.363521 127.998639 
L 111.415136 128.105532 
L 111.656338 128.568738 
L 111.690915 128.426213 
L 112.449098 128.319319 
L 112.535289 128.283688 
L 112.569699 128.319319 
L 112.793863 128.426213 
L 112.914465 128.64 
L 112.949041 128.604369 
L 113.069642 128.533106 
L 113.22482 128.354951 
L 113.500766 128.03427 
L 113.586958 128.069901 
L 113.655944 128.176795 
L 113.707559 128.141163 
L 113.75934 128.212426 
L 113.811122 128.105532 
L 113.914518 128.03427 
L 114.017914 127.74922 
L 114.052491 127.820483 
L 114.345642 128.319319 
L 114.397423 128.283688 
L 114.449205 128.248057 
L 114.50082 128.283688 
L 114.707946 128.533106 
L 114.725151 128.497475 
L 114.949315 127.998639 
L 114.983892 128.141163 
L 115.018302 128.248057 
L 115.087455 128.176795 
L 115.31162 127.42854 
L 115.346196 127.535433 
L 115.570528 128.497475 
L 115.622142 128.319319 
L 115.673924 128.176795 
L 115.743078 128.283688 
L 116.019024 127.713589 
L 116.070805 127.820483 
L 116.174368 128.283688 
L 116.22615 128.426213 
L 116.312508 128.390582 
L 116.450481 128.426213 
L 116.502263 128.319319 
L 116.588621 128.390582 
L 116.640403 128.461844 
L 116.67498 128.354951 
L 116.84753 127.856114 
L 116.882106 127.891745 
L 116.98567 128.354951 
L 117.020079 128.461844 
L 117.071861 128.319319 
L 117.089233 128.354951 
L 117.210001 127.856114 
L 117.296359 127.74922 
L 117.330936 127.820483 
L 117.382718 127.891745 
L 117.469076 128.105532 
L 117.520858 127.998639 
L 117.676203 128.248057 
L 117.727984 128.176795 
L 117.935278 127.998639 
L 118.280544 128.746894 
L 118.349698 128.64 
L 118.418684 128.533106 
L 118.453261 128.604369 
L 118.470633 128.64 
L 118.505043 128.568738 
L 118.539619 128.568738 
L 118.695131 127.998639 
L 118.816066 127.606696 
L 118.867848 127.74922 
L 119.075142 128.675631 
L 119.1615 128.533106 
L 119.40337 127.74922 
L 119.437947 127.820483 
L 119.54151 128.283688 
L 119.628036 128.105532 
L 119.800753 127.499802 
L 119.817957 127.464171 
L 119.869906 127.571065 
L 120.025418 128.604369 
L 120.0772 128.461844 
L 120.267288 128.03427 
L 120.319237 128.141163 
L 120.474749 128.319319 
L 120.52653 128.426213 
L 120.630261 128.64 
L 120.682042 128.568738 
L 120.906875 127.927376 
L 120.92408 127.998639 
L 121.13154 128.248057 
L 121.148745 128.212426 
L 121.252475 128.176795 
L 121.373578 127.606696 
L 121.425359 127.713589 
L 121.494513 127.784852 
L 121.667397 128.64 
L 121.771127 128.461844 
L 122.065113 128.354951 
L 122.151638 128.141163 
L 122.220792 128.283688 
L 122.341894 128.390582 
L 122.359099 128.319319 
L 122.583931 127.677958 
L 122.618508 127.713589 
L 122.705034 127.642327 
L 122.774187 127.535433 
L 122.826136 127.606696 
L 122.895289 128.03427 
L 122.981815 127.891745 
L 123.189275 127.392909 
L 123.206647 127.42854 
L 123.362326 128.461844 
L 123.448852 128.354951 
L 123.483428 128.319319 
L 123.518005 128.426213 
L 123.569954 128.604369 
L 123.621902 128.426213 
L 123.812158 128.319319 
L 123.846735 128.212426 
L 123.93326 128.248057 
L 124.002581 128.390582 
L 124.054362 128.248057 
L 124.071734 128.212426 
L 124.123683 128.319319 
L 124.140888 128.319319 
L 124.26199 128.426213 
L 124.296734 128.390582 
L 124.383259 128.283688 
L 124.521733 128.176795 
L 124.746566 127.856114 
L 124.763938 127.891745 
L 124.902412 128.426213 
L 124.988937 128.711262 
L 125.040886 128.675631 
L 125.213937 128.568738 
L 125.265885 128.64 
L 125.317834 128.533106 
L 125.629526 128.03427 
L 125.646731 128.105532 
L 125.733423 128.248057 
L 125.785372 128.176795 
L 125.854526 128.248057 
L 125.906474 128.176795 
L 125.941051 128.248057 
L 126.027743 131.312339 
L 126.06232 128.497475 
L 126.270115 106.762454 
L 126.304692 107.296921 
L 126.391384 114.708207 
L 126.512486 129.637673 
L 126.581807 127.74922 
L 126.599179 127.713589 
L 126.616551 127.784852 
L 126.651127 127.998639 
L 126.720448 127.856114 
L 126.876294 127.784852 
L 127.03214 127.464171 
L 127.049512 127.499802 
L 127.29205 128.141163 
L 127.309255 128.105532 
L 127.465268 128.03427 
L 127.655858 128.960681 
L 127.690435 129.780198 
L 127.742383 128.248057 
L 127.950345 116.240348 
L 127.984922 116.561029 
L 128.071614 120.658615 
L 128.192884 128.925049 
L 128.262204 127.998639 
L 128.296948 128.069901 
L 128.348897 128.212426 
L 128.418217 128.141163 
L 128.626179 127.74922 
L 128.660756 127.820483 
L 128.834141 128.105532 
L 128.868717 128.069901 
L 128.903461 128.176795 
L 128.938038 128.319319 
L 129.007358 128.176795 
L 129.094051 127.820483 
L 129.163371 127.891745 
L 129.284808 128.390582 
L 129.354128 137.832845 
L 129.3715 139.863823 
L 129.406077 135.303031 
L 129.631411 44.728564 
L 129.700898 56.344329 
L 129.874116 135.124875 
L 129.995552 126.323973 
L 130.012924 126.288342 
L 130.047501 126.466498 
L 130.290373 128.176795 
L 130.342322 128.03427 
L 130.6024 127.250384 
L 130.723836 127.499802 
L 130.862644 127.74922 
L 130.949336 127.784852 
L 131.001285 129.495148 
L 131.053401 134.412252 
L 131.088145 131.169814 
L 131.313645 86.310154 
L 131.365594 89.980166 
L 131.504402 126.82281 
L 131.539146 132.23875 
L 131.608466 128.853787 
L 131.677787 127.891745 
L 131.729903 127.963008 
L 131.747275 127.998639 
L 131.782018 127.891745 
L 131.816595 127.891745 
L 132.059468 127.14349 
L 132.094211 127.214753 
L 132.146327 127.179121 
L 132.163699 127.250384 
L 132.371828 127.891745 
L 132.406572 127.820483 
L 132.597495 127.036597 
L 132.632239 127.357277 
L 132.684188 130.599715 
L 132.736304 135.338662 
L 132.771047 128.782525 
L 132.979343 78.04372 
L 133.01392 79.682754 
L 133.118151 104.874001 
L 133.222216 133.557103 
L 133.274331 129.24573 
L 133.378396 127.179121 
L 133.41314 127.250384 
L 133.534743 127.571065 
L 133.638807 127.464171 
L 133.656179 127.42854 
L 133.690923 127.535433 
L 133.708295 127.606696 
L 133.743039 127.499802 
L 133.777782 127.499802 
L 133.812526 127.464171 
L 133.84727 127.571065 
L 134.038194 128.105532 
L 134.15963 127.963008 
L 134.194374 127.927376 
L 134.298605 127.535433 
L 134.315977 127.642327 
L 134.350721 128.354951 
L 134.402837 131.490495 
L 134.437581 129.637673 
L 134.663248 108.009545 
L 134.697992 108.829062 
L 134.802223 119.482786 
L 134.889083 130.13651 
L 134.95857 127.571065 
L 134.993147 127.642327 
L 135.045263 127.891745 
L 135.132122 127.820483 
L 135.184238 127.677958 
L 135.236354 127.820483 
L 135.28847 127.891745 
L 135.305841 127.998639 
L 135.375329 127.856114 
L 135.514304 127.606696 
L 135.531676 127.642327 
L 135.740139 127.677958 
L 135.792255 127.856114 
L 135.84437 127.677958 
L 135.913858 127.74922 
L 136.052833 128.675631 
L 136.087577 128.996312 
L 136.122321 128.497475 
L 136.348155 123.758528 
L 136.365527 123.865421 
L 136.400271 124.079209 
L 136.574157 128.461844 
L 136.730504 127.856114 
L 136.817364 127.963008 
L 137.043366 128.176795 
L 137.182341 127.998639 
L 137.390971 128.283688 
L 137.408342 128.212426 
L 137.582061 128.105532 
L 137.651716 127.998639 
L 137.703832 128.105532 
L 137.738576 128.141163 
L 137.773319 128.03427 
L 138.034065 126.82281 
L 138.051437 126.894072 
L 138.155835 127.784852 
L 138.260067 128.283688 
L 138.294977 128.212426 
L 138.433953 127.677958 
L 138.486235 127.535433 
L 138.538351 127.713589 
L 138.746981 128.141163 
L 138.816469 128.069901 
L 138.886123 127.998639 
L 138.920867 128.105532 
L 139.007894 127.677958 
L 139.164408 127.286015 
L 139.199151 127.357277 
L 139.407781 128.283688 
L 139.477436 128.105532 
L 139.651322 127.891745 
L 139.686233 127.927376 
L 139.773092 128.03427 
L 139.912235 128.283688 
L 139.981889 128.212426 
L 140.068916 128.319319 
L 140.277713 128.568738 
L 140.295085 128.533106 
L 140.521253 128.03427 
L 140.573369 128.105532 
L 140.60828 128.03427 
L 140.677767 127.856114 
L 140.73005 127.927376 
L 140.921475 128.141163 
L 140.938847 128.105532 
L 140.973591 128.069901 
L 141.008502 128.176795 
L 141.025874 128.212426 
L 141.060617 128.105532 
L 141.1129 127.963008 
L 141.182555 128.069901 
L 141.635059 127.963008 
L 141.704714 127.820483 
L 141.739458 127.891745 
L 141.896139 128.248057 
L 141.913511 128.212426 
L 142.105103 127.891745 
L 142.139847 127.963008 
L 142.348811 128.390582 
L 142.592518 127.42854 
L 142.662173 127.535433 
L 142.836226 127.963008 
L 142.905881 128.141163 
L 142.993074 128.069901 
L 143.062729 127.820483 
L 143.132383 127.927376 
L 143.550311 128.03427 
L 143.619966 127.963008 
L 143.70716 128.105532 
L 143.759275 127.927376 
L 143.846469 127.963008 
L 144.072972 128.03427 
L 144.142626 128.354951 
L 144.17737 128.176795 
L 144.386501 126.110186 
L 144.421245 126.21708 
L 144.630376 128.533106 
L 144.769852 128.212426 
L 144.804596 128.176795 
L 144.839507 128.283688 
L 145.013727 128.426213 
L 145.257769 127.856114 
L 145.397078 127.963008 
L 145.501643 128.497475 
L 145.588837 128.354951 
L 145.797968 127.642327 
L 145.972355 127.74922 
L 146.111831 127.535433 
L 146.129203 127.571065 
L 146.198858 127.642327 
L 146.460439 128.461844 
L 146.495349 128.426213 
L 146.599915 128.319319 
L 146.634826 128.283688 
L 146.66957 128.354951 
L 146.687109 128.354951 
L 146.774302 128.497475 
L 146.809213 128.390582 
L 147.105537 127.856114 
L 147.140448 127.927376 
L 147.245014 128.390582 
L 147.367118 128.141163 
L 147.419401 127.856114 
L 147.489223 128.069901 
L 147.506595 128.176795 
L 147.541505 127.856114 
L 147.768342 124.72057 
L 147.803086 124.898726 
L 147.890447 126.395235 
L 147.995012 128.782525 
L 148.064834 128.390582 
L 148.343953 128.461844 
L 148.48343 128.64 
L 148.780088 128.212426 
L 148.84991 128.533106 
L 148.902193 128.248057 
L 149.111658 127.499802 
L 149.146569 127.606696 
L 149.163941 127.677958 
L 149.233762 127.571065 
L 149.425688 126.502129 
L 149.513049 126.894072 
L 149.739886 128.354951 
L 149.757258 128.319319 
L 150.106366 128.212426 
L 150.24601 128.069901 
L 150.33337 128.176795 
L 150.507924 128.461844 
L 150.612657 128.354951 
L 150.647568 128.426213 
L 150.734928 128.497475 
L 150.769839 128.426213 
L 150.787211 128.390582 
L 150.822122 128.568738 
L 150.857033 128.711262 
L 150.891944 128.319319 
L 151.084037 126.502129 
L 151.101576 126.573391 
L 151.590494 128.141163 
L 151.712766 127.784852 
L 151.800126 127.927376 
L 151.922231 128.426213 
L 152.009591 128.604369 
L 152.02713 128.568738 
L 152.254134 127.856114 
L 152.324123 127.963008 
L 152.516216 128.390582 
L 152.743387 127.321646 
L 152.79567 127.357277 
L 152.84812 127.250384 
L 152.917941 127.107859 
L 152.970391 127.214753 
L 153.232473 128.426213 
L 153.284923 128.141163 
L 153.407194 127.784852 
L 153.459644 127.856114 
L 153.686815 128.283688 
L 153.721893 128.176795 
L 153.756804 128.141163 
L 153.791715 128.212426 
L 153.809253 128.212426 
L 153.949064 128.319319 
L 153.966436 128.283688 
L 154.281134 128.354951 
L 154.316045 128.461844 
L 154.403406 128.390582 
L 154.455856 128.283688 
L 154.665655 127.036597 
L 154.700733 127.107859 
L 154.980353 128.604369 
L 155.032803 128.497475 
L 155.33013 128.141163 
L 155.505018 128.354951 
L 155.52239 128.319319 
L 155.872167 127.606696 
L 155.924616 127.713589 
L 156.134582 128.568738 
L 156.151954 128.533106 
L 156.379459 127.677958 
L 156.431909 127.856114 
L 156.624336 128.354951 
L 156.746775 128.105532 
L 156.816764 128.212426 
L 156.939202 128.354951 
L 156.956741 128.283688 
L 157.009191 128.248057 
L 157.044102 128.354951 
L 157.096718 128.461844 
L 157.184079 128.390582 
L 157.429123 127.998639 
L 157.464034 128.069901 
L 157.586639 128.426213 
L 157.709078 128.319319 
L 158.111638 127.677958 
L 158.286527 128.283688 
L 158.321604 128.105532 
L 158.426671 127.891745 
L 158.461582 127.963008 
L 158.776782 128.461844 
L 158.794154 128.390582 
L 158.916759 128.354951 
L 159.039365 128.461844 
L 159.056737 128.390582 
L 159.231959 128.141163 
L 159.407014 127.998639 
L 159.494542 128.248057 
L 159.52962 128.141163 
L 159.809742 127.321646 
L 159.827281 127.357277 
L 160.054953 128.212426 
L 160.072325 128.176795 
L 160.230008 127.820483 
L 160.247547 127.856114 
L 160.422602 128.426213 
L 160.475219 128.069901 
L 160.615363 127.74922 
L 160.650441 127.784852 
L 160.913191 127.677958 
L 160.93073 127.642327 
L 160.965641 127.74922 
L 161.123324 128.212426 
L 161.158402 128.105532 
L 161.368703 127.856114 
L 161.386074 127.891745 
L 161.613914 128.354951 
L 161.736519 128.248057 
L 161.754058 128.283688 
L 161.824214 128.176795 
L 161.946819 128.141163 
L 162.069592 128.390582 
L 162.122042 128.283688 
L 162.297431 127.357277 
L 162.420037 127.464171 
L 162.560348 128.141163 
L 162.612798 127.998639 
L 162.770648 127.642327 
L 162.805726 127.677958 
L 162.875715 127.42854 
L 162.928332 127.642327 
L 163.103721 128.212426 
L 163.261404 128.604369 
L 163.594477 128.105532 
L 163.612016 128.141163 
L 163.734789 128.03427 
L 163.840022 127.891745 
L 163.892639 127.963008 
L 163.910178 127.998639 
L 163.962795 127.856114 
L 164.120645 127.963008 
L 164.155723 127.998639 
L 164.20834 127.891745 
L 164.296035 127.963008 
L 164.506502 128.426213 
L 164.857281 127.891745 
L 165.067748 128.426213 
L 165.225598 128.105532 
L 165.313293 128.069901 
L 165.348371 128.105532 
L 165.453605 128.354951 
L 165.506221 128.283688 
L 165.822089 127.713589 
L 165.857167 127.784852 
L 166.295975 128.568738 
L 166.313514 128.533106 
L 166.471364 128.248057 
L 166.488903 128.283688 
L 166.54152 128.354951 
L 166.576765 128.248057 
L 167.05065 127.535433 
L 167.103267 127.642327 
L 167.33144 128.354951 
L 167.45438 128.283688 
L 167.594858 127.856114 
L 167.629936 127.891745 
L 167.893187 128.283688 
L 167.928432 128.248057 
L 168.033666 128.212426 
L 168.051372 128.248057 
L 168.279545 128.746894 
L 168.332329 128.568738 
L 168.525424 128.354951 
L 168.542963 128.390582 
L 168.683442 128.497475 
L 168.736226 128.604369 
L 168.788842 128.497475 
L 168.859165 128.461844 
L 168.911782 128.497475 
L 168.964566 128.390582 
L 169.034722 128.354951 
L 169.069966 128.426213 
L 169.1752 128.354951 
L 169.315846 127.856114 
L 169.350924 127.927376 
L 169.438785 127.820483 
L 169.456324 127.784852 
L 169.491402 127.856114 
L 169.667126 128.248057 
L 169.737448 128.176795 
L 169.790065 128.212426 
L 169.895633 128.390582 
L 169.930711 128.354951 
L 170.141512 128.248057 
L 170.211835 128.105532 
L 170.282158 128.141163 
L 170.370019 128.248057 
L 170.440342 128.283688 
L 170.47542 128.212426 
L 170.633605 128.319319 
L 170.739005 128.461844 
L 170.774083 128.390582 
L 171.108158 127.74922 
L 171.143236 127.856114 
L 171.178481 127.891745 
L 171.231098 127.784852 
L 171.371743 127.74922 
L 171.49485 127.856114 
L 171.740896 128.64 
L 171.776141 128.568738 
L 171.828758 128.533106 
L 171.969403 127.963008 
L 172.022187 127.998639 
L 172.057432 127.927376 
L 172.110216 128.03427 
L 172.391507 128.354951 
L 172.444291 128.426213 
L 172.496908 128.604369 
L 172.567231 128.533106 
L 173.077363 127.74922 
L 173.464222 128.426213 
L 173.499467 128.390582 
L 173.605035 128.497475 
L 173.675357 128.533106 
L 173.692896 128.461844 
L 173.74568 128.426213 
L 173.780925 128.497475 
L 173.939277 128.782525 
L 173.992061 128.711262 
L 174.220735 128.141163 
L 174.326303 128.248057 
L 174.467115 128.533106 
L 174.484654 128.461844 
L 174.660712 127.784852 
L 174.731034 127.927376 
L 174.819063 128.319319 
L 174.94217 128.675631 
L 174.977415 128.64 
L 175.118227 128.497475 
L 175.135766 128.533106 
L 175.206256 128.604369 
L 175.241334 128.497475 
L 175.382147 128.141163 
L 175.470175 128.283688 
L 175.57591 128.319319 
L 175.593449 128.283688 
L 175.787045 127.820483 
L 175.857535 127.998639 
L 175.980642 128.390582 
L 175.998348 128.319319 
L 176.227189 127.820483 
L 176.279973 127.963008 
L 176.52652 128.497475 
L 176.59701 128.461844 
L 176.649794 128.497475 
L 176.825852 128.390582 
L 176.896342 128.497475 
L 177.019615 128.675631 
L 177.05486 128.64 
L 177.301407 127.998639 
L 177.565494 128.604369 
L 177.618445 128.461844 
L 177.864992 127.642327 
L 178.005972 128.176795 
L 178.076461 128.426213 
L 178.129245 128.354951 
L 178.270225 128.283688 
L 178.516772 128.533106 
L 178.763487 128.64 
L 178.833977 128.675631 
L 178.851682 128.604369 
L 178.992662 128.461844 
L 179.010201 128.497475 
L 179.063152 128.568738 
L 179.098397 128.461844 
L 179.380356 127.713589 
L 179.556581 128.248057 
L 179.627071 128.03427 
L 179.64461 127.998639 
L 179.69756 128.105532 
L 179.732805 128.212426 
L 179.785756 128.105532 
L 179.856246 127.963008 
L 179.891491 128.105532 
L 179.944275 128.212426 
L 180.014765 128.176795 
L 180.085421 127.927376 
L 180.138205 128.03427 
L 180.279185 128.248057 
L 180.314597 128.176795 
L 180.543772 127.606696 
L 180.596556 127.74922 
L 180.843438 128.319319 
L 181.002123 128.212426 
L 181.372445 127.677958 
L 181.40769 127.74922 
L 181.443102 127.642327 
L 181.478347 127.571065 
L 181.513592 127.677958 
L 181.672278 128.319319 
L 181.707523 128.248057 
L 181.90162 128.141163 
L 181.936865 128.105532 
L 181.97211 128.248057 
L 182.042767 128.426213 
L 182.130963 128.319319 
L 182.342599 127.856114 
L 182.483746 128.069901 
L 182.518991 127.963008 
L 182.660137 127.820483 
L 182.677843 127.784852 
L 182.713088 127.856114 
L 182.766039 127.856114 
L 182.81899 127.963008 
L 182.88948 128.141163 
L 182.942431 128.03427 
L 182.995382 127.927376 
L 183.030627 127.891745 
L 183.066039 127.998639 
L 183.295381 128.533106 
L 183.365871 128.426213 
L 183.471773 128.141163 
L 183.524724 128.212426 
L 183.718988 128.675631 
L 183.789478 128.497475 
L 184.054232 127.963008 
L 184.107183 128.105532 
L 184.301448 128.711262 
L 184.318987 128.782525 
L 184.371938 128.568738 
L 184.47784 128.141163 
L 184.68981 127.214753 
L 184.7603 127.321646 
L 185.078172 128.64 
L 185.148829 128.283688 
L 185.290143 127.963008 
L 185.378339 128.069901 
L 185.554897 128.461844 
L 185.64326 128.354951 
L 185.713917 128.426213 
L 185.766868 128.497475 
L 185.80228 128.390582 
L 185.961133 128.176795 
L 185.996545 128.105532 
L 186.102446 127.74922 
L 186.155397 127.820483 
L 186.420319 128.354951 
L 186.455731 128.212426 
L 186.579338 127.74922 
L 186.632456 127.891745 
L 186.720652 128.248057 
L 186.897378 128.782525 
L 187.056397 128.319319 
L 187.091642 128.390582 
L 187.215417 128.283688 
L 187.392143 127.998639 
L 187.480506 127.963008 
L 187.498045 127.998639 
L 187.586407 128.176795 
L 187.657231 128.069901 
L 187.692476 127.998639 
L 187.763133 127.856114 
L 187.798545 127.998639 
L 187.833957 128.069901 
L 187.886908 127.998639 
L 187.939859 127.927376 
L 187.975271 127.998639 
L 188.045928 128.069901 
L 188.116584 128.03427 
L 188.187408 128.141163 
L 188.434791 128.533106 
L 188.470203 128.461844 
L 188.717585 127.927376 
L 188.788409 128.03427 
L 188.894478 128.461844 
L 188.965135 128.64 
L 189.000547 128.533106 
L 189.354165 127.499802 
L 189.38941 127.535433 
L 189.424822 127.42854 
L 189.460234 127.464171 
L 189.530891 127.42854 
L 189.548597 127.464171 
L 189.690078 127.891745 
L 189.72549 127.784852 
L 189.813853 127.42854 
L 189.86697 127.606696 
L 189.902215 127.677958 
L 190.11452 128.64 
L 190.149932 128.568738 
L 190.185177 128.497475 
L 190.256001 128.319319 
L 190.309119 128.390582 
L 190.415188 128.461844 
L 190.432893 128.426213 
L 190.680443 128.069901 
L 190.715855 128.105532 
L 190.804385 128.212426 
L 191.016523 128.426213 
L 191.051934 128.390582 
L 191.211121 128.105532 
L 191.352769 127.963008 
L 191.370475 127.998639 
L 191.688848 128.746894 
L 191.741966 128.533106 
L 191.936732 127.963008 
L 192.042801 128.141163 
L 192.149037 128.533106 
L 192.202155 128.426213 
L 192.237567 128.354951 
L 192.290685 128.426213 
L 192.325929 128.497475 
L 192.361341 128.319319 
L 192.538401 127.713589 
L 192.556107 127.74922 
L 192.803824 128.533106 
L 192.82153 128.497475 
L 192.963178 128.283688 
L 193.016295 128.354951 
L 193.087119 128.568738 
L 193.140237 128.461844 
L 193.335003 128.141163 
L 193.388121 128.212426 
L 193.582887 128.141163 
L 193.600593 128.069901 
L 193.671417 128.176795 
L 193.901594 128.533106 
L 193.9193 128.461844 
L 194.025536 128.354951 
L 194.060948 128.426213 
L 194.149478 128.604369 
L 194.18489 128.533106 
L 194.202596 128.497475 
L 194.27342 128.604369 
L 194.308832 128.64 
L 194.344244 128.533106 
L 194.503597 128.248057 
L 194.769354 128.604369 
L 195.052817 128.248057 
L 195.176758 128.497475 
L 195.229876 128.354951 
L 195.637281 128.248057 
L 195.796802 128.03427 
L 195.84992 128.141163 
L 195.903205 128.212426 
L 195.938617 128.105532 
L 196.09797 128.03427 
L 196.257491 128.141163 
L 196.346188 128.212426 
L 196.363894 128.141163 
L 196.47013 128.212426 
L 196.682769 128.64 
L 196.771465 128.533106 
L 196.860162 128.461844 
L 196.877868 128.497475 
L 196.91328 128.533106 
L 196.966398 128.426213 
L 197.125919 128.533106 
L 197.250028 128.64 
L 197.427255 128.03427 
L 197.56907 127.499802 
L 197.622355 127.606696 
L 197.92369 128.533106 
L 197.941396 128.461844 
L 198.171908 127.42854 
L 198.278311 127.499802 
L 198.544402 128.461844 
L 198.792619 128.426213 
L 198.916728 127.963008 
L 198.970013 127.998639 
L 199.076416 127.856114 
L 199.094122 127.891745 
L 199.271516 128.426213 
L 199.289222 128.354951 
L 199.342507 128.283688 
L 199.377919 128.390582 
L 199.431204 128.568738 
L 199.484322 128.390582 
L 199.644009 128.105532 
L 199.785991 127.927376 
L 200.158485 128.711262 
L 200.21177 128.568738 
L 200.40687 127.856114 
L 200.460155 127.963008 
L 200.495734 128.069901 
L 200.602136 128.533106 
L 200.655421 128.426213 
L 200.868394 127.784852 
L 200.903806 127.856114 
L 201.099073 128.248057 
L 201.436322 127.321646 
L 201.507313 127.179121 
L 201.525019 127.250384 
L 201.826855 128.604369 
L 201.844561 128.533106 
L 201.915552 128.248057 
L 201.968837 128.319319 
L 202.146398 128.426213 
L 202.270674 128.746894 
L 202.28838 128.675631 
L 202.590217 127.464171 
L 202.696787 127.891745 
L 202.892221 128.283688 
L 203.105193 128.069901 
L 203.282921 128.176795 
L 203.513767 128.426213 
L 203.85135 128.319319 
L 204.099902 127.998639 
L 204.27763 128.319319 
L 204.313209 128.176795 
L 204.544221 127.677958 
L 204.68637 127.74922 
L 204.757361 127.998639 
L 204.846225 127.963008 
L 204.970668 128.141163 
L 205.023953 128.105532 
L 205.077238 128.069901 
L 205.130523 128.105532 
L 205.23726 128.283688 
L 205.290545 128.176795 
L 205.414988 128.141163 
L 205.610422 128.03427 
L 205.752571 127.784852 
L 205.805856 127.820483 
L 206.01933 128.212426 
L 206.054742 128.141163 
L 206.303627 127.571065 
L 206.374785 127.535433 
L 206.392491 127.571065 
L 206.65925 128.248057 
L 206.730408 128.176795 
L 206.765987 128.212426 
L 206.926009 128.354951 
L 207.174895 127.998639 
L 207.192768 128.03427 
L 207.299338 127.927376 
L 207.334917 127.856114 
L 207.388369 127.963008 
L 207.477233 128.176795 
L 207.512812 128.03427 
L 207.548391 127.891745 
L 207.601676 128.03427 
L 207.637255 128.069901 
L 207.690707 128.03427 
L 207.833023 127.820483 
L 207.868602 127.891745 
L 208.099782 128.141163 
L 208.384414 128.212426 
L 208.455572 128.497475 
L 208.52673 128.390582 
L 208.633467 128.283688 
L 208.669046 128.248057 
L 208.686919 128.319319 
L 208.722498 128.319319 
L 208.811361 128.212426 
L 208.97155 127.74922 
L 209.09616 127.357277 
L 209.113866 127.392909 
L 209.345213 128.03427 
L 209.45195 127.820483 
L 209.612139 127.464171 
L 209.630012 127.499802 
L 209.736749 127.392909 
L 209.772328 127.321646 
L 209.82578 127.392909 
L 209.932517 127.856114 
L 209.985969 128.141163 
L 210.074833 128.105532 
L 210.181737 128.03427 
L 210.324053 127.642327 
L 210.341926 127.713589 
L 210.519988 128.283688 
L 210.573273 128.212426 
L 210.644598 128.105532 
L 210.697883 128.03427 
L 210.769208 128.069901 
L 210.858239 127.963008 
L 211.018428 127.713589 
L 211.214196 127.998639 
L 211.232069 127.963008 
L 211.338973 127.42854 
L 211.410131 127.535433 
L 211.677224 128.176795 
L 211.997769 128.568738 
L 212.22945 128.461844 
L 212.62132 127.784852 
L 212.656899 127.820483 
L 212.74593 128.141163 
L 212.781509 127.927376 
L 213.031063 126.466498 
L 213.191419 127.998639 
L 213.244871 128.426213 
L 213.298323 128.212426 
L 213.387354 127.998639 
L 213.440806 128.069901 
L 213.494258 128.176795 
L 213.529837 128.212426 
L 213.54771 128.141163 
L 213.690193 127.891745 
L 213.886295 127.998639 
L 213.993199 128.248057 
L 214.011072 128.176795 
L 214.064524 128.141163 
L 214.082397 128.212426 
L 214.135849 128.283688 
L 214.171428 128.212426 
L 214.314078 127.963008 
L 214.331784 127.998639 
L 214.438855 128.354951 
L 214.492307 128.105532 
L 214.688409 127.357277 
L 214.741861 127.286015 
L 214.77744 127.392909 
L 214.92009 128.319319 
L 214.991415 128.069901 
L 215.026994 127.963008 
L 215.080613 128.105532 
L 215.169644 128.354951 
L 215.223096 128.319319 
L 215.312294 128.426213 
L 215.330167 128.390582 
L 215.508396 128.03427 
L 215.579721 128.212426 
L 215.63334 128.105532 
L 215.722371 128.212426 
L 215.793696 128.354951 
L 215.847315 128.283688 
L 216.025544 128.105532 
L 216.096869 128.141163 
L 216.114742 128.105532 
L 216.328717 126.965334 
L 216.382169 127.072228 
L 216.453661 127.392909 
L 216.596311 128.319319 
L 216.63189 128.141163 
L 216.685509 128.03427 
L 216.738961 128.141163 
L 216.953103 128.711262 
L 216.970809 128.675631 
L 217.149205 128.105532 
L 217.309895 127.571065 
L 217.541743 128.03427 
L 217.595362 127.927376 
L 217.648814 127.891745 
L 217.666687 127.963008 
L 217.68456 127.963008 
L 217.755886 128.176795 
L 217.791632 128.105532 
L 218.005607 127.179121 
L 218.041353 127.250384 
L 218.273368 128.426213 
L 218.32682 128.354951 
L 218.416185 128.354951 
L 218.576708 128.568738 
L 218.594581 128.533106 
L 218.630327 128.497475 
L 218.6482 128.568738 
L 218.701652 128.64 
L 218.737398 128.533106 
L 218.933667 128.176795 
L 219.094357 127.820483 
L 219.130103 127.927376 
L 219.165849 127.998639 
L 219.219301 127.856114 
L 219.290793 127.963008 
L 219.504935 128.212426 
L 219.647752 128.069901 
L 219.844188 128.176795 
L 219.987005 128.354951 
L 220.094243 128.426213 
L 220.165568 128.568738 
L 220.201315 128.426213 
L 220.344132 128.141163 
L 220.487116 128.461844 
L 220.576314 128.390582 
L 220.629933 128.354951 
L 220.683552 128.105532 
L 220.754877 128.141163 
L 220.969186 128.604369 
L 221.130043 128.141163 
L 221.165789 128.176795 
L 221.27286 128.212426 
L 221.380098 128.176795 
L 221.45159 128.319319 
L 221.505209 128.212426 
L 221.737391 128.283688 
L 221.933994 128.711262 
L 222.255542 128.248057 
L 222.380653 128.319319 
L 222.487891 128.212426 
L 222.505764 128.283688 
L 222.648581 128.568738 
L 222.720073 128.497475 
L 222.970295 128.176795 
L 223.131152 128.319319 
L 223.256263 128.176795 
L 223.274136 128.212426 
L 223.399247 128.319319 
L 223.41712 128.283688 
L 223.470907 128.354951 
L 223.524526 128.461844 
L 223.578145 128.426213 
L 223.685383 128.105532 
L 223.792621 128.212426 
L 224.579367 128.105532 
L 224.722351 127.891745 
L 224.847463 127.963008 
L 225.008487 128.426213 
L 225.044233 128.354951 
L 225.079979 128.319319 
L 225.115725 128.390582 
L 225.169511 128.533106 
L 225.22313 128.426213 
L 225.384154 128.176795 
L 225.473519 128.283688 
L 225.634543 128.390582 
L 225.795567 128.283688 
L 225.849186 128.390582 
L 225.974298 128.675631 
L 225.992338 128.64 
L 226.189108 128.105532 
L 226.654307 128.176795 
L 226.797458 128.497475 
L 226.815331 128.426213 
L 226.976356 128.03427 
L 227.012102 128.069901 
L 227.262658 128.675631 
L 227.316444 128.497475 
L 227.567 128.212426 
L 227.620619 128.105532 
L 227.745897 128.069901 
L 227.799683 128.141163 
L 227.978581 128.497475 
L 228.175518 127.784852 
L 228.229304 127.856114 
L 228.47986 128.568738 
L 228.551519 128.319319 
L 228.658924 128.212426 
L 228.676797 128.248057 
L 228.927521 128.818156 
L 228.981307 128.675631 
L 229.285649 127.74922 
L 229.303522 127.820483 
L 229.44684 128.141163 
L 229.536372 128.069901 
L 229.67969 127.856114 
L 229.894668 128.319319 
L 229.930414 128.212426 
L 230.109645 127.820483 
L 230.127518 127.856114 
L 230.181304 127.963008 
L 230.360368 128.533106 
L 230.414154 128.497475 
L 230.557472 128.390582 
L 230.826236 128.03427 
L 231.041213 128.319319 
L 231.059086 128.283688 
L 231.184531 128.069901 
L 231.202404 128.105532 
L 231.435422 128.212426 
L 231.507081 128.390582 
L 231.542994 128.283688 
L 231.650399 128.069901 
L 231.668439 128.141163 
L 231.740098 128.248057 
L 231.775844 128.176795 
L 231.901456 127.998639 
L 231.937202 128.069901 
L 231.973115 127.998639 
L 232.09856 127.677958 
L 232.134306 127.784852 
L 232.313705 128.426213 
L 232.331578 128.354951 
L 232.546722 127.891745 
L 232.797612 127.784852 
L 232.923225 127.606696 
L 232.977011 127.677958 
L 233.245941 128.675631 
L 233.299727 128.604369 
L 233.461085 128.426213 
L 233.478958 128.461844 
L 233.514871 128.497475 
L 233.568657 128.426213 
L 233.927287 127.784852 
L 233.945327 127.820483 
L 234.106685 128.069901 
L 234.124558 128.03427 
L 234.160471 128.141163 
L 234.321997 128.568738 
L 234.357743 128.497475 
L 234.555181 128.141163 
L 234.62684 128.212426 
L 234.662753 128.141163 
L 234.680626 128.105532 
L 234.752452 128.176795 
L 234.770325 128.212426 
L 234.824111 128.105532 
L 234.895937 128.03427 
L 234.931851 128.105532 
L 235.057463 128.319319 
L 235.075336 128.283688 
L 235.254734 127.713589 
L 235.30852 127.784852 
L 235.380346 127.891745 
L 235.595658 128.319319 
L 235.649444 128.426213 
L 235.793096 128.497475 
L 235.900668 128.497475 
L 236.259632 128.426213 
L 236.385244 128.248057 
L 236.403284 128.283688 
L 236.636635 127.74922 
L 236.690421 127.927376 
L 236.78012 128.03427 
L 236.959686 128.818156 
L 236.995599 128.675631 
L 237.211077 127.998639 
L 237.264863 127.927376 
L 237.300776 127.998639 
L 237.372602 128.319319 
L 237.462469 128.64 
L 237.498382 128.568738 
L 237.713693 127.856114 
L 237.767646 127.963008 
L 237.911298 128.176795 
L 237.983125 127.856114 
L 238.090864 127.535433 
L 238.126777 127.571065 
L 238.414081 128.568738 
L 238.468034 128.497475 
L 238.755339 128.604369 
L 238.809292 128.64 
L 238.845205 128.604369 
L 238.970984 128.533106 
L 239.114637 128.03427 
L 239.240416 127.891745 
L 239.312242 127.963008 
L 239.348155 127.891745 
L 239.402108 127.998639 
L 239.509847 128.248057 
L 239.5638 128.212426 
L 239.761406 128.497475 
L 239.779279 128.461844 
L 239.959011 128.176795 
L 240.156616 127.606696 
L 240.264523 127.784852 
L 240.408342 128.283688 
L 240.480168 128.212426 
L 240.551994 128.105532 
L 240.605947 127.927376 
L 240.6599 128.03427 
L 240.78568 128.176795 
L 240.929499 127.713589 
L 241.001325 127.74922 
L 241.073318 127.677958 
L 241.091191 127.74922 
L 241.288964 128.533106 
L 241.307004 128.497475 
L 241.522649 128.069901 
L 241.594642 128.176795 
L 241.774375 128.390582 
L 241.792415 128.354951 
L 242.04414 128.248057 
L 242.115966 128.176795 
L 242.134006 128.212426 
L 242.349819 128.64 
L 242.511511 128.533106 
L 242.619417 128.426213 
L 242.799317 128.176795 
L 242.817357 128.212426 
L 242.979216 128.319319 
L 243.069082 128.212426 
L 243.141075 128.069901 
L 243.195029 128.141163 
L 243.374928 128.533106 
L 243.428881 128.461844 
L 243.60878 127.998639 
L 243.914626 128.105532 
L 243.986452 128.390582 
L 244.040572 128.141163 
L 244.274425 127.14349 
L 244.292298 127.214753 
L 244.490237 128.248057 
L 244.562231 128.212426 
L 244.958109 128.319319 
L 245.066183 128.461844 
L 245.084223 128.426213 
L 245.300202 127.891745 
L 245.318075 127.927376 
L 245.552095 128.64 
L 245.570135 128.604369 
L 245.750201 128.176795 
L 246.146247 127.606696 
L 246.254153 127.677958 
L 246.41618 128.141163 
L 246.43422 128.105532 
L 246.632326 128.03427 
L 246.686279 127.963008 
L 246.722359 128.069901 
L 246.902426 128.390582 
L 246.938506 128.319319 
L 246.974419 128.283688 
L 247.028539 128.354951 
L 247.082492 128.426213 
L 247.118572 128.319319 
L 247.496745 127.499802 
L 247.550698 127.642327 
L 247.856878 128.604369 
L 247.874918 128.568738 
L 248.163225 127.74922 
L 248.181265 127.784852 
L 248.361331 128.497475 
L 248.433492 128.426213 
L 248.901865 127.677958 
L 249.027978 127.927376 
L 249.064058 127.820483 
L 249.352365 126.965334 
L 249.370405 127.036597 
L 249.676752 127.963008 
L 249.766952 127.713589 
L 249.802865 127.784852 
L 250.019179 128.248057 
L 250.614166 128.354951 
L 250.686159 128.568738 
L 250.75832 128.497475 
L 251.010713 127.820483 
L 251.028753 127.856114 
L 251.191114 128.319319 
L 251.299187 128.176795 
L 251.407427 127.891745 
L 251.461547 127.963008 
L 251.479587 127.927376 
L 251.533708 128.03427 
L 251.623908 128.105532 
L 251.678028 128.319319 
L 251.731981 128.176795 
L 251.786101 128.105532 
L 251.840221 127.891745 
L 251.894342 128.03427 
L 251.912382 128.069901 
L 251.948462 127.963008 
L 252.038662 127.784852 
L 252.074742 127.856114 
L 252.363383 128.568738 
L 252.399463 128.497475 
L 252.706144 127.250384 
L 252.832424 127.357277 
L 252.994785 128.141163 
L 253.030865 128.03427 
L 253.084985 127.891745 
L 253.139105 127.963008 
L 253.373626 128.319319 
L 253.391666 128.283688 
L 253.481866 128.141163 
L 253.517946 128.212426 
L 253.842834 128.711262 
L 253.860874 128.675631 
L 254.203802 128.212426 
L 254.49261 128.283688 
L 254.65497 128.533106 
L 254.727131 128.497475 
L 254.745338 128.533106 
L 254.889658 128.711262 
L 254.907698 128.675631 
L 255.232753 127.891745 
L 255.286873 128.069901 
L 255.485481 128.604369 
L 255.503521 128.568738 
L 255.629968 128.390582 
L 255.648008 128.426213 
L 255.792496 128.354951 
L 255.900736 128.283688 
L 256.027183 128.03427 
L 256.045223 128.069901 
L 256.261871 128.568738 
L 256.334198 128.461844 
L 256.550846 127.998639 
L 256.858028 128.390582 
L 257.110923 128.105532 
L 257.30953 128.675631 
L 257.345777 128.818156 
L 257.417938 128.675631 
L 257.68904 128.283688 
L 257.70708 128.319319 
L 257.779407 128.497475 
L 257.833527 128.390582 
L 258.086589 127.784852 
L 258.122669 127.856114 
L 258.267156 128.426213 
L 258.339484 128.319319 
L 258.484138 128.212426 
L 258.574505 128.069901 
L 258.610585 128.141163 
L 258.77328 128.533106 
L 258.863647 128.426213 
L 259.008302 128.105532 
L 259.080462 128.176795 
L 259.279404 128.711262 
L 259.333691 128.533106 
L 259.532465 128.105532 
L 259.604793 128.283688 
L 259.65908 128.141163 
L 259.821774 127.642327 
L 259.966429 127.713589 
L 260.092876 128.069901 
L 260.129123 127.927376 
L 260.183411 127.856114 
L 260.219491 127.963008 
L 260.490759 128.604369 
L 260.689701 128.248057 
L 261.232239 128.354951 
L 261.286526 128.461844 
L 261.322773 128.319319 
L 261.340813 128.354951 
L 261.37706 128.283688 
L 261.576002 127.74922 
L 261.684577 128.141163 
L 261.847271 128.675631 
L 261.865478 128.568738 
L 261.974053 128.069901 
L 262.010133 128.141163 
L 262.04638 128.176795 
L 262.08246 128.105532 
L 262.191034 128.03427 
L 262.209241 128.069901 
L 262.371936 128.03427 
L 262.408183 127.891745 
L 262.46247 127.998639 
L 262.498717 128.105532 
L 262.553004 127.963008 
L 262.589085 127.856114 
L 262.643372 127.963008 
L 262.84248 128.426213 
L 262.914975 128.319319 
L 262.987302 127.998639 
L 263.168204 127.357277 
L 263.294985 127.784852 
L 263.457847 128.533106 
L 263.475887 128.461844 
L 263.584628 128.390582 
L 263.76553 128.105532 
L 263.856064 128.069901 
L 263.874271 128.105532 
L 264.019093 128.390582 
L 264.055173 128.283688 
L 264.236241 127.820483 
L 264.326776 127.927376 
L 264.507844 128.675631 
L 264.562132 128.497475 
L 264.779447 128.03427 
L 264.833735 128.141163 
L 264.978556 128.319319 
L 265.395148 128.212426 
L 265.558176 127.856114 
L 265.576216 127.891745 
L 265.64871 127.998639 
L 265.847986 128.818156 
L 265.92048 128.675631 
L 266.083509 128.568738 
L 266.228331 128.461844 
L 266.445813 127.499802 
L 266.699376 128.604369 
L 266.790078 128.426213 
L 267.134342 128.497475 
L 267.206836 128.604369 
L 267.243083 128.533106 
L 267.514853 128.426213 
L 267.732336 127.998639 
L 267.823038 128.105532 
L 267.949819 128.497475 
L 267.986066 128.390582 
L 268.203549 128.176795 
L 268.330498 128.248057 
L 268.493693 128.461844 
L 268.78367 128.03427 
L 268.801877 128.069901 
L 268.856165 128.212426 
L 268.928826 128.141163 
L 269.23701 128.248057 
L 269.327711 128.533106 
L 269.363959 128.319319 
L 269.418246 128.248057 
L 269.4727 128.319319 
L 269.853545 127.74922 
L 270.089402 128.426213 
L 270.12565 128.533106 
L 270.198144 128.461844 
L 270.325092 128.354951 
L 270.434001 128.248057 
L 270.470248 128.283688 
L 270.579156 128.176795 
L 270.597196 128.141163 
L 270.669858 128.212426 
L 270.742352 128.141163 
L 270.85126 127.963008 
L 270.8693 127.998639 
L 270.996249 128.390582 
L 271.050703 128.176795 
L 271.087117 128.141163 
L 271.123365 128.212426 
L 271.177819 128.319319 
L 271.214066 128.212426 
L 271.304767 128.069901 
L 271.322974 128.105532 
L 271.46813 128.354951 
L 271.48617 128.319319 
L 271.740234 127.677958 
L 272.030545 128.354951 
L 272.084999 128.176795 
L 272.248362 128.069901 
L 272.53884 128.497475 
L 272.593295 128.426213 
L 272.629542 128.497475 
L 272.756657 128.533106 
L 272.883606 128.64 
L 272.901813 128.675631 
L 272.974474 128.604369 
L 273.228538 128.497475 
L 273.482769 128.069901 
L 273.537223 128.105532 
L 273.900363 128.746894 
L 273.936777 128.675631 
L 274.227255 127.963008 
L 274.608602 127.891745 
L 274.717677 127.820483 
L 274.971909 128.497475 
L 275.026363 128.283688 
L 275.135438 127.74922 
L 275.189892 127.784852 
L 275.226307 127.856114 
L 275.480538 128.568738 
L 275.498745 128.533106 
L 275.644067 128.319319 
L 275.680482 128.390582 
L 275.753143 128.533106 
L 275.78939 128.426213 
L 275.916673 128.248057 
L 275.93488 128.283688 
L 275.95292 128.248057 
L 276.025581 128.319319 
L 276.207318 128.426213 
L 276.225525 128.461844 
L 276.261939 128.390582 
L 276.443676 127.998639 
L 276.461716 128.03427 
L 276.679867 128.141163 
L 276.734321 128.283688 
L 276.788942 128.212426 
L 276.970679 127.927376 
L 277.134209 128.03427 
L 277.297906 128.461844 
L 277.35236 128.426213 
L 277.388774 128.497475 
L 277.443228 128.426213 
L 277.552304 128.176795 
L 277.588718 128.248057 
L 277.679586 128.354951 
L 277.770455 128.461844 
L 277.806869 128.390582 
L 277.952359 128.283688 
L 278.043227 128.069901 
L 278.097681 128.141163 
L 278.152303 128.248057 
L 278.243171 128.533106 
L 278.297792 128.390582 
L 278.388661 128.354951 
L 278.406868 128.426213 
L 278.461322 128.248057 
L 278.552357 128.105532 
L 278.588604 128.176795 
L 278.843337 128.746894 
L 279.225184 127.998639 
L 279.261599 128.141163 
L 279.31622 128.283688 
L 279.352467 128.176795 
L 279.407088 128.069901 
L 279.443502 128.141163 
L 279.516164 128.390582 
L 279.552578 128.248057 
L 279.66182 127.891745 
L 279.698068 127.963008 
L 279.898178 128.354951 
L 279.971007 128.248057 
L 280.171118 127.784852 
L 280.189325 127.820483 
L 280.389436 128.248057 
L 280.42585 128.105532 
L 280.516885 127.998639 
L 280.535092 128.069901 
L 280.698789 128.176795 
L 280.935314 128.426213 
L 281.135592 128.533106 
L 281.172006 128.604369 
L 281.244668 128.533106 
L 281.299289 128.461844 
L 281.335703 128.568738 
L 281.426739 128.497475 
L 281.62685 128.141163 
L 281.845335 128.390582 
L 282.009198 128.283688 
L 282.227683 128.390582 
L 282.355133 128.568738 
L 282.37334 128.533106 
L 282.482583 128.426213 
L 282.573618 128.319319 
L 282.628239 128.354951 
L 282.883139 128.64 
L 283.028795 128.497475 
L 283.047002 128.533106 
L 283.156245 128.533106 
L 283.356523 127.820483 
L 283.556801 128.426213 
L 283.629796 128.675631 
L 283.684417 128.497475 
L 283.92111 128.248057 
L 284.176176 128.533106 
L 284.303625 128.64 
L 284.321833 128.675631 
L 284.358247 128.604369 
L 284.376454 128.604369 
L 284.394661 128.568738 
L 284.467656 128.64 
L 284.522278 128.711262 
L 284.558692 128.64 
L 284.813758 127.784852 
L 284.904793 127.713589 
L 284.923001 127.74922 
L 285.342098 128.675631 
L 285.451507 128.568738 
L 285.524336 128.461844 
L 285.761362 128.141163 
L 285.779569 128.176795 
L 285.888811 128.248057 
L 285.925393 128.426213 
L 286.016428 128.354951 
L 286.417485 128.248057 
L 286.563309 127.891745 
L 286.581516 127.963008 
L 286.909578 128.390582 
L 287.00078 128.319319 
L 287.018987 128.354951 
L 287.256013 128.64 
L 287.474832 128.354951 
L 287.49304 128.390582 
L 287.693652 128.711262 
L 287.711859 128.675631 
L 287.948885 127.713589 
L 287.985466 127.891745 
L 288.186078 128.461844 
L 288.240699 128.390582 
L 288.404897 127.820483 
L 288.423104 127.856114 
L 288.4961 128.141163 
L 288.569095 128.03427 
L 288.678505 128.141163 
L 288.86091 128.426213 
L 288.933905 128.533106 
L 288.952112 128.568738 
L 288.988693 128.426213 
L 289.11631 128.248057 
L 289.134517 128.283688 
L 289.298715 128.568738 
L 289.663692 126.787178 
L 289.773101 126.323973 
L 289.809683 126.359604 
L 289.882678 126.715916 
L 290.046876 128.64 
L 290.192867 128.354951 
L 290.247655 128.390582 
L 290.284069 128.354951 
L 290.411853 128.319319 
L 290.503055 128.461844 
L 290.521262 128.426213 
L 290.813411 128.03427 
L 291.105393 128.746894 
L 291.287964 128.212426 
L 291.488744 127.250384 
L 291.525325 127.42854 
L 291.726104 128.461844 
L 291.853888 128.319319 
L 291.963464 128.426213 
L 292.018252 128.533106 
L 292.03646 128.461844 
L 292.219032 127.998639 
L 292.474766 128.604369 
L 292.584343 128.497475 
L 292.7305 128.426213 
L 292.840077 128.853787 
L 292.876491 128.925049 
L 292.894865 128.853787 
L 293.132226 123.651634 
L 293.205388 124.292996 
L 293.38796 128.925049 
L 293.497537 128.354951 
L 293.625487 128.568738 
L 293.643694 128.497475 
L 293.84464 128.426213 
L 294.082168 127.891745 
L 294.539015 128.782525 
L 294.575597 128.711262 
L 294.831331 126.609023 
L 294.867912 126.680285 
L 294.995863 127.963008 
L 295.050651 128.568738 
L 295.123814 128.319319 
L 295.489292 128.426213 
L 295.562454 128.497475 
L 295.580661 128.426213 
L 295.726986 128.141163 
L 296.074257 128.64 
L 296.092631 128.604369 
L 296.129212 128.711262 
L 296.147419 128.711262 
L 296.202208 128.782525 
L 296.238789 128.675631 
L 296.494857 126.502129 
L 296.531439 126.680285 
L 296.714178 128.069901 
L 296.769133 127.784852 
L 296.860503 127.677958 
L 296.87871 127.74922 
L 296.933665 127.642327 
L 296.951872 127.606696 
L 296.988453 127.713589 
L 297.482216 128.461844 
L 297.628541 128.426213 
L 297.79324 127.927376 
L 297.811447 127.963008 
L 297.939565 128.141163 
L 297.957772 128.105532 
L 298.195633 127.357277 
L 298.323751 127.464171 
L 298.415121 127.713589 
L 298.470076 127.606696 
L 298.488283 127.571065 
L 298.524864 127.713589 
L 298.854262 128.568738 
L 298.945799 128.497475 
L 299.220241 127.74922 
L 299.238615 127.784852 
L 299.38494 128.283688 
L 299.439896 128.141163 
L 299.549639 128.03427 
L 299.568013 128.105532 
L 299.604595 128.176795 
L 299.641176 128.03427 
L 299.824082 127.713589 
L 299.86083 127.963008 
L 299.933993 131.811175 
L 299.970574 130.207772 
L 300.208602 101.417776 
L 300.26339 103.733803 
L 300.391508 124.043577 
L 300.446464 130.670977 
L 300.519793 128.141163 
L 300.574581 127.571065 
L 300.647911 127.784852 
L 300.702866 127.856114 
L 300.757654 127.963008 
L 300.794403 127.820483 
L 300.885939 127.74922 
L 301.050638 127.464171 
L 301.215504 127.891745 
L 301.270293 127.998639 
L 301.325248 127.927376 
L 301.490114 127.713589 
L 301.545069 128.03427 
L 301.618232 130.920396 
L 301.65498 129.210099 
L 301.874634 111.608294 
L 301.92959 112.570336 
L 302.0395 121.798813 
L 302.131037 130.350297 
L 302.185992 128.64 
L 302.332484 127.606696 
L 302.424188 127.713589 
L 302.625635 127.891745 
L 302.772127 127.963008 
L 302.936993 128.319319 
L 302.955367 128.283688 
L 303.046903 128.176795 
L 303.156814 128.03427 
L 303.175188 128.069901 
L 303.211769 128.960681 
L 303.303473 140.469553 
L 303.340054 130.350297 
L 303.559876 38.6 
L 303.596624 40.987289 
L 303.68816 72.841567 
L 303.816445 136.229442 
L 303.889775 128.782525 
L 304.036434 126.680285 
L 304.109763 126.609023 
L 304.12797 126.680285 
L 304.494617 128.141163 
L 304.549573 127.963008 
L 304.714439 127.677958 
L 304.806142 127.677958 
L 304.842891 127.642327 
L 304.861098 127.74922 
L 304.897846 128.319319 
L 304.971175 135.837499 
L 305.007757 132.274381 
L 305.246119 71.523213 
L 305.301074 76.404685 
L 305.429359 118.449482 
L 305.484482 133.16516 
L 305.557811 128.746894 
L 305.686096 126.894072 
L 305.70447 126.929703 
L 305.832755 126.894072 
L 305.869503 126.929703 
L 306.071117 127.464171 
L 306.30948 127.74922 
L 306.327854 127.713589 
L 306.364602 127.856114 
L 306.437932 128.069901 
L 306.47468 127.927376 
L 306.529635 127.677958 
L 306.548009 127.74922 
L 306.602965 131.775544 
L 306.65792 138.331682 
L 306.694668 129.423886 
L 306.914824 61.19017 
L 306.951405 63.470566 
L 307.043109 88.162976 
L 307.17156 135.730605 
L 307.226516 129.352624 
L 307.336593 127.286015 
L 307.354968 127.321646 
L 307.465045 127.42854 
L 307.795278 128.069901 
L 307.832027 127.927376 
L 308.052182 127.571065 
L 308.088763 127.606696 
L 308.253963 128.319319 
L 308.327293 133.735259 
L 308.364041 130.13651 
L 308.584197 94.149015 
L 308.620945 94.861638 
L 308.712648 106.334879 
L 308.841267 132.024962 
L 308.914597 127.499802 
L 308.969719 126.858441 
L 309.024674 127.179121 
L 309.244997 128.069901 
L 309.410197 127.891745 
L 309.428571 127.927376 
L 309.557023 127.963008 
L 309.740597 127.74922 
L 309.758971 127.784852 
L 309.942545 128.141163 
L 309.997501 128.960681 
L 310.034249 128.248057 
L 310.272946 120.51609 
L 310.29132 120.729877 
L 310.401565 124.11484 
L 310.511642 128.746894 
L 310.585139 127.820483 
L 310.621887 127.74922 
L 310.658468 127.820483 
L 310.897332 128.319319 
L 310.933913 128.354951 
L 310.952287 128.248057 
L 311.136028 127.784852 
L 311.393099 128.176795 
L 311.429847 128.141163 
L 311.57684 127.998639 
L 311.595214 128.03427 
L 311.705292 128.390582 
L 311.74204 128.141163 
L 311.925782 127.036597 
L 311.944156 127.072228 
L 312.072775 127.535433 
L 312.201394 128.604369 
L 312.256516 128.426213 
L 312.403342 128.319319 
L 312.568709 127.784852 
L 312.623831 127.820483 
L 312.917817 128.212426 
L 312.954566 128.141163 
L 313.028062 128.212426 
L 313.469208 128.141163 
L 313.634575 127.856114 
L 313.910187 128.461844 
L 313.96531 128.283688 
L 314.718983 128.212426 
L 314.847769 128.105532 
L 315.031677 128.390582 
L 315.068425 128.319319 
L 315.215418 128.176795 
L 315.344204 128.069901 
L 315.491364 127.998639 
L 315.656731 128.105532 
L 315.9878 128.568738 
L 316.061463 128.248057 
L 316.28212 127.179121 
L 316.300494 127.214753 
L 316.42928 127.642327 
L 316.502776 128.069901 
L 316.57644 127.856114 
L 316.705226 127.713589 
L 316.741974 127.74922 
L 316.797096 127.820483 
L 316.981172 128.354951 
L 317.036294 128.319319 
L 317.385903 128.212426 
L 317.533064 127.998639 
L 317.661849 128.105532 
L 317.901047 128.390582 
L 317.937962 128.354951 
L 317.974711 128.461844 
L 318.085122 128.390582 
L 318.361235 127.74922 
L 318.453273 127.856114 
L 318.600433 128.390582 
L 318.637348 128.354951 
L 318.674097 128.283688 
L 318.913294 127.784852 
L 318.968584 127.891745 
L 319.171033 128.461844 
L 319.207949 128.426213 
L 319.299986 128.533106 
L 319.336734 128.568738 
L 319.37365 128.497475 
L 319.502436 128.461844 
L 319.631389 128.354951 
L 319.778716 128.212426 
L 319.79709 128.248057 
L 319.925876 128.533106 
L 319.981165 128.426213 
L 320.110118 128.212426 
L 320.128492 128.283688 
L 320.294193 128.319319 
L 320.349483 128.461844 
L 320.404772 128.354951 
L 320.44152 128.283688 
L 320.644137 127.677958 
L 320.717801 127.74922 
L 320.994081 128.497475 
L 321.012455 128.461844 
L 321.159782 128.176795 
L 321.233612 128.248057 
L 321.32565 128.390582 
L 321.362398 128.319319 
L 321.60193 127.677958 
L 321.620304 127.713589 
L 321.712509 127.820483 
L 321.915125 128.212426 
L 322.044078 128.141163 
L 322.117909 128.212426 
L 322.136283 128.176795 
L 322.302151 127.927376 
L 322.394189 128.03427 
L 322.578431 128.354951 
L 322.652262 128.283688 
L 322.854878 127.927376 
L 323.094577 128.390582 
L 323.131325 128.319319 
L 323.278819 127.856114 
L 323.315735 127.891745 
L 323.499977 127.998639 
L 323.629097 128.069901 
L 323.721135 128.03427 
L 323.739676 128.069901 
L 323.88717 127.998639 
L 323.942459 127.927376 
L 323.979375 128.03427 
L 324.016123 128.069901 
L 324.053038 127.998639 
L 324.089954 127.963008 
L 324.126702 128.069901 
L 324.274196 128.141163 
L 324.366401 128.248057 
L 324.495521 128.604369 
L 324.532436 128.533106 
L 324.80905 127.856114 
L 324.993459 127.963008 
L 325.104038 128.212426 
L 325.159328 128.105532 
L 325.270073 127.856114 
L 325.325363 127.963008 
L 325.565062 128.604369 
L 325.583603 128.568738 
L 325.970963 127.499802 
L 326.081542 127.42854 
L 326.136998 127.357277 
L 326.173746 127.499802 
L 326.339782 128.354951 
L 326.376697 128.319319 
L 326.450528 128.212426 
L 326.616563 127.713589 
L 326.653478 127.784852 
L 326.690393 127.927376 
L 326.745683 127.784852 
L 326.856429 127.357277 
L 326.930259 127.072228 
L 326.985549 127.214753 
L 327.096294 127.571065 
L 327.26233 128.426213 
L 327.299245 128.283688 
L 327.428532 128.176795 
L 327.446906 128.212426 
L 327.520737 128.105532 
L 327.650024 127.963008 
L 327.926805 128.390582 
L 327.96372 128.354951 
L 328.259043 128.461844 
L 328.38833 128.568738 
L 328.406704 128.533106 
L 328.683652 127.392909 
L 328.702026 127.464171 
L 328.923685 128.64 
L 329.071346 128.497475 
L 329.366835 128.03427 
L 329.385209 128.069901 
L 329.551412 128.354951 
L 329.699073 128.283688 
L 329.809986 128.176795 
L 329.883816 128.105532 
L 329.939273 128.141163 
L 329.976188 128.212426 
L 330.050019 128.354951 
L 330.06856 128.283688 
L 330.345508 126.965334 
L 330.382423 127.000966 
L 330.474795 127.357277 
L 330.567167 127.784852 
L 330.622623 127.677958 
L 330.67808 127.784852 
L 330.788825 128.248057 
L 330.844282 128.176795 
L 330.918112 128.105532 
L 330.955195 128.141163 
L 331.213769 128.64 
L 331.250684 128.568738 
L 331.398512 128.390582 
L 331.527799 128.533106 
L 331.546341 128.497475 
L 331.805082 127.856114 
L 331.989825 127.072228 
L 332.008199 127.107859 
L 332.063656 127.000966 
L 332.119112 127.072228 
L 332.414768 128.105532 
L 332.470225 127.998639 
L 332.544223 128.03427 
L 332.562764 127.963008 
L 332.655135 127.784852 
L 332.710592 127.856114 
L 332.784422 128.176795 
L 332.876961 128.568738 
L 332.913877 128.497475 
L 333.172618 127.891745 
L 333.302072 127.998639 
L 333.376069 128.319319 
L 333.4499 128.141163 
L 333.671893 127.571065 
L 333.690267 127.606696 
L 333.893718 128.711262 
L 334.023173 128.497475 
L 334.244998 128.604369 
L 334.26354 128.64 
L 334.318996 128.533106 
L 334.503906 127.74922 
L 334.596445 127.820483 
L 334.818271 128.176795 
L 334.855353 128.141163 
L 334.892269 128.105532 
L 334.947725 128.141163 
L 335.114262 128.354951 
L 335.132803 128.319319 
L 335.391711 128.03427 
L 335.687701 128.390582 
L 335.817155 128.283688 
L 336.020774 127.963008 
L 336.057689 127.998639 
L 336.150228 128.069901 
L 336.168769 128.03427 
L 336.279682 127.856114 
L 336.335306 127.927376 
L 336.649837 128.426213 
L 336.686753 128.390582 
L 336.945828 128.283688 
L 337.075449 128.03427 
L 337.09399 128.069901 
L 337.130905 128.105532 
L 337.167988 128.03427 
L 337.241985 127.891745 
L 337.297609 127.927376 
L 337.408522 128.03427 
L 337.593599 128.319319 
L 337.72322 128.212426 
L 337.889924 127.677958 
L 337.982462 127.535433 
L 338.001004 127.571065 
L 338.223163 127.998639 
L 338.463697 127.74922 
L 338.648942 128.283688 
L 338.760022 128.105532 
L 338.963641 127.820483 
L 339.000723 127.856114 
L 339.093262 128.176795 
L 339.148885 128.03427 
L 339.185968 127.963008 
L 339.241424 128.069901 
L 339.371045 128.176795 
L 339.482292 128.354951 
L 339.537749 128.319319 
L 339.815532 127.713589 
L 339.593372 128.354951 
L 339.889697 127.856114 
L 340.074941 128.105532 
L 340.093482 128.069901 
L 340.186021 127.713589 
L 340.278727 127.784852 
L 340.537969 128.390582 
L 340.667757 128.248057 
L 340.686298 128.283688 
L 340.797378 128.354951 
L 340.81592 128.319319 
L 340.927167 128.390582 
L 340.964249 128.497475 
L 341.001164 128.248057 
L 341.205117 127.535433 
L 341.297656 127.571065 
L 341.464526 128.141163 
L 341.483067 128.105532 
L 341.742477 127.642327 
L 341.52015 128.141163 
L 341.7981 127.713589 
L 342.020427 128.354951 
L 342.038968 128.319319 
L 342.242921 127.499802 
L 342.335627 127.606696 
L 342.557954 128.604369 
L 342.650659 128.426213 
L 342.891695 127.784852 
L 342.965859 128.03427 
L 343.13273 128.248057 
L 343.262518 128.426213 
L 343.318141 128.390582 
L 343.633341 127.963008 
L 343.855835 128.461844 
L 343.911458 128.319319 
L 344.152494 127.998639 
L 344.171035 128.03427 
L 344.356613 128.426213 
L 344.375155 128.390582 
L 344.61619 127.963008 
L 344.653272 128.03427 
L 344.875933 128.711262 
L 344.968639 128.746894 
L 344.98718 128.711262 
L 345.135676 128.248057 
L 345.265464 127.74922 
L 345.321088 127.820483 
L 345.506667 128.390582 
L 345.543749 128.533106 
L 345.636622 128.497475 
L 345.877824 128.390582 
L 346.007612 127.998639 
L 346.044694 128.03427 
L 346.137567 128.141163 
L 346.341687 128.533106 
L 346.378769 128.426213 
L 346.508725 128.390582 
L 346.768468 128.283688 
L 347.176875 127.499802 
L 347.195416 127.571065 
L 347.436785 128.461844 
L 347.455326 128.426213 
L 347.51095 128.319319 
L 347.529491 128.283688 
L 347.585281 128.390582 
L 347.752319 128.675631 
L 347.789401 128.604369 
L 348.03077 128.283688 
L 348.049478 128.319319 
L 348.105102 128.354951 
L 348.160892 128.319319 
L 348.58784 128.283688 
L 348.736504 128.03427 
L 348.922249 128.176795 
L 349.052205 128.069901 
L 349.145077 128.03427 
L 349.163619 128.069901 
L 349.349364 128.461844 
L 349.405155 128.354951 
L 349.498028 128.176795 
L 349.572192 128.248057 
L 349.646524 128.141163 
L 349.702315 128.105532 
L 349.739397 128.141163 
L 349.88806 128.212426 
L 350.092347 128.105532 
L 350.222469 127.820483 
L 350.259552 127.856114 
L 350.426756 127.963008 
L 350.519796 128.069901 
L 350.556878 128.03427 
L 350.947078 128.711262 
L 350.965619 128.675631 
L 351.095741 128.604369 
L 351.170073 128.497475 
L 351.300195 128.248057 
L 351.318736 128.319319 
L 351.578981 128.426213 
L 351.597522 128.461844 
L 351.634771 128.319319 
L 351.987889 127.464171 
L 352.09947 127.642327 
L 352.322465 128.390582 
L 352.527086 128.03427 
L 352.564168 128.141163 
L 352.657208 128.248057 
L 352.675749 128.212426 
L 352.805871 128.03427 
L 352.861662 127.927376 
L 352.898911 127.820483 
L 352.954702 127.927376 
L 353.103365 128.319319 
L 353.214946 128.248057 
L 353.289278 127.891745 
L 353.400859 127.535433 
L 353.438108 127.677958 
L 353.51244 127.571065 
L 353.586939 127.499802 
L 353.624021 127.571065 
L 353.958764 128.711262 
L 353.977472 128.604369 
L 354.144844 128.248057 
L 354.163385 128.283688 
L 354.442505 128.604369 
L 354.758707 127.963008 
L 354.814497 128.105532 
L 354.907537 128.069901 
L 355.149407 127.107859 
L 355.167949 127.14349 
L 355.633148 128.497475 
L 355.707647 128.533106 
L 355.726188 128.461844 
L 355.781978 128.390582 
L 355.856477 128.141163 
L 355.930976 128.248057 
L 356.135597 128.426213 
L 356.358926 128.497475 
L 356.451966 128.746894 
L 356.507923 128.64 
L 356.694003 128.069901 
L 356.917332 127.642327 
L 357.010539 127.713589 
L 357.308367 128.533106 
L 357.326908 128.497475 
L 357.457365 128.390582 
L 357.550404 128.283688 
L 357.587654 128.354951 
L 357.829691 128.604369 
L 357.941439 128.533106 
L 358.053187 128.390582 
L 358.071728 128.426213 
L 358.146227 128.461844 
L 358.164935 128.426213 
L 358.667718 127.677958 
L 358.816716 127.74922 
L 359.040212 128.426213 
L 359.058753 128.319319 
L 359.189209 128.176795 
L 359.468663 128.497475 
L 359.636369 128.283688 
L 359.673618 128.319319 
L 359.710867 128.390582 
L 359.785366 128.675631 
L 359.841324 128.497475 
L 360.176568 127.392909 
L 360.195276 127.464171 
L 360.456189 128.354951 
L 360.511979 128.390582 
L 360.642436 128.64 
L 360.847558 128.176795 
L 360.866099 128.212426 
L 361.033804 128.319319 
L 361.164261 128.426213 
L 361.182969 128.390582 
L 361.481131 128.461844 
L 361.499839 128.533106 
L 361.555797 128.354951 
L 361.760752 127.820483 
L 361.872667 127.464171 
L 361.928624 127.606696 
L 362.245494 128.461844 
L 362.413367 128.319319 
L 362.599781 128.461844 
L 362.711696 128.390582 
L 362.842152 127.998639 
L 362.879402 128.069901 
L 362.89811 128.105532 
L 362.935359 127.963008 
L 363.065983 127.891745 
L 363.140481 128.105532 
L 363.177898 128.03427 
L 363.327062 127.14349 
L 363.38302 127.286015 
L 363.644099 127.891745 
L 363.718765 127.74922 
L 363.774723 127.642327 
L 363.811972 127.713589 
L 363.979845 128.461844 
L 364.09176 128.354951 
L 364.31559 128.604369 
L 364.427505 128.319319 
L 364.48363 128.354951 
L 364.576837 128.248057 
L 364.670044 128.105532 
L 364.688752 128.176795 
L 364.819375 128.426213 
L 364.838084 128.319319 
L 365.080622 127.250384 
L 365.173829 127.357277 
L 365.341869 127.74922 
L 365.360577 127.713589 
L 365.52845 127.464171 
L 365.547158 127.535433 
L 365.696489 128.03427 
L 365.88307 128.497475 
L 365.901778 128.461844 
L 366.05111 128.319319 
L 366.125776 128.390582 
L 366.163025 128.461844 
L 366.218983 128.319319 
L 366.44298 127.820483 
L 366.536354 127.963008 
L 366.57377 127.891745 
L 366.648436 128.03427 
L 366.685685 127.927376 
L 366.723102 127.891745 
L 366.741643 127.963008 
L 366.816309 128.212426 
L 366.853725 128.069901 
L 367.077722 127.42854 
L 367.133847 127.499802 
L 367.26447 128.426213 
L 367.320428 128.711262 
L 367.395261 128.64 
L 367.507176 128.533106 
L 367.73134 128.319319 
L 367.806006 128.390582 
L 367.992754 128.675631 
L 368.03017 128.604369 
L 368.086128 128.711262 
L 368.104836 128.746894 
L 368.142085 128.604369 
L 368.36625 128.176795 
L 368.440915 128.141163 
L 368.459624 128.176795 
L 368.478332 128.212426 
L 368.515748 128.105532 
L 368.79587 127.571065 
L 368.870536 127.642327 
L 368.945369 127.998639 
L 369.169533 128.64 
L 369.356281 128.248057 
L 369.393697 128.354951 
L 369.580445 128.675631 
L 369.879442 128.248057 
L 369.898151 128.283688 
L 370.047649 128.390582 
L 370.197148 128.497475 
L 370.290522 128.141163 
L 370.458728 127.713589 
L 371.000765 128.568738 
L 371.18768 128.176795 
L 371.206388 128.212426 
L 371.337179 128.319319 
L 371.486844 128.461844 
L 371.505552 128.497475 
L 371.542969 128.426213 
L 371.580218 128.426213 
L 371.636343 128.354951 
L 371.673759 128.426213 
L 371.80455 128.64 
L 371.823258 128.604369 
L 372.159838 127.606696 
L 372.178546 127.677958 
L 372.38417 128.069901 
L 372.440294 128.105532 
L 372.533835 128.390582 
L 372.58996 128.319319 
L 372.646084 128.283688 
L 372.664793 128.319319 
L 372.758334 128.497475 
L 372.795583 128.426213 
L 372.945249 128.283688 
L 372.963957 128.319319 
L 373.188455 128.675631 
L 373.225872 128.604369 
L 373.487619 128.212426 
L 373.506328 128.248057 
L 373.655993 128.354951 
L 373.730826 128.248057 
L 373.768242 128.354951 
L 373.936616 128.248057 
L 374.123698 127.784852 
L 374.198531 127.891745 
L 374.292072 128.426213 
L 374.385613 128.212426 
L 374.423029 128.141163 
L 374.51657 127.856114 
L 374.572695 127.891745 
L 374.741069 128.390582 
L 374.778652 128.497475 
L 374.816069 128.283688 
L 374.965734 128.141163 
L 375.1154 128.069901 
L 375.171524 128.141163 
L 375.208941 128.069901 
L 375.265065 127.998639 
L 375.32119 128.069901 
L 375.433606 128.176795 
L 375.583272 128.319319 
L 375.864062 127.606696 
L 376.088727 128.319319 
L 376.126144 128.212426 
L 376.219685 127.998639 
L 376.275809 128.141163 
L 376.44435 128.248057 
L 376.500475 128.319319 
L 376.537891 128.212426 
L 376.706432 127.927376 
L 376.743848 128.03427 
L 376.893681 128.212426 
L 376.987389 128.105532 
L 377.118346 128.03427 
L 377.305595 128.497475 
L 377.399304 128.390582 
L 377.661385 128.105532 
L 377.755093 128.283688 
L 377.79251 128.212426 
L 377.904926 127.927376 
L 377.923634 127.963008 
L 377.979759 128.105532 
L 378.054759 128.03427 
L 378.110883 128.141163 
L 378.260716 128.604369 
L 378.373132 128.426213 
L 378.597965 128.533106 
L 378.654089 128.604369 
L 378.710381 128.568738 
L 378.916505 128.390582 
L 379.197462 128.283688 
L 379.478586 127.963008 
L 379.534711 127.856114 
L 379.591003 127.784852 
L 379.647127 127.820483 
L 379.759543 128.069901 
L 379.834543 127.963008 
L 380.040668 127.571065 
L 380.115667 127.642327 
L 380.3405 128.390582 
L 380.602916 128.105532 
L 380.790332 128.212426 
L 380.827915 128.319319 
L 380.921623 128.248057 
L 381.015331 128.283688 
L 381.071623 128.461844 
L 381.127748 128.319319 
L 381.371455 127.820483 
L 381.634038 128.319319 
L 381.690163 128.212426 
L 381.877746 127.998639 
L 381.896454 128.03427 
L 382.196453 128.782525 
L 382.271453 128.604369 
L 382.552744 127.74922 
L 382.57162 127.856114 
L 382.665328 128.248057 
L 382.684036 128.319319 
L 382.740328 128.105532 
L 382.815327 128.03427 
L 382.909202 127.927376 
L 382.927911 127.998639 
L 383.153077 128.426213 
L 383.434368 127.998639 
L 383.471952 128.03427 
L 383.621952 128.105532 
L 383.809535 128.176795 
L 384.015993 128.533106 
L 384.090993 128.604369 
L 384.128576 128.533106 
L 384.316159 128.319319 
L 384.334868 128.354951 
L 384.353743 128.390582 
L 384.428743 128.319319 
L 384.578909 128.248057 
L 384.691493 128.212426 
L 384.804076 127.891745 
L 384.841492 127.963008 
L 385.029242 128.069901 
L 385.141826 128.390582 
L 385.235701 128.248057 
L 385.554742 127.856114 
L 385.911367 128.426213 
L 385.930243 128.390582 
L 386.117993 128.105532 
L 386.174285 128.069901 
L 386.192993 128.141163 
L 386.324451 128.390582 
L 386.380743 128.283688 
L 386.606076 128.390582 
L 386.699952 128.568738 
L 386.756243 128.497475 
L 387.113035 128.03427 
L 387.282077 128.283688 
L 387.319661 128.212426 
L 387.338369 128.176795 
L 387.375952 128.319319 
L 387.507411 128.461844 
L 387.526286 128.426213 
L 387.826787 128.069901 
L 387.864203 128.141163 
L 388.033412 128.533106 
L 388.127287 128.426213 
L 388.296329 128.105532 
L 388.315037 128.141163 
L 388.371496 128.212426 
L 388.521662 128.426213 
L 388.559246 128.390582 
L 388.596829 128.461844 
L 388.653288 128.568738 
L 388.70958 128.461844 
L 388.859913 128.319319 
L 388.897497 128.390582 
L 388.953789 128.319319 
L 389.066539 127.927376 
L 389.122998 127.998639 
L 389.254456 127.820483 
L 389.292039 127.891745 
L 389.329623 127.963008 
L 389.423665 128.248057 
L 389.461248 128.105532 
L 389.51754 127.998639 
L 389.555124 128.105532 
L 389.705457 128.390582 
L 389.724332 128.354951 
L 389.874666 128.283688 
L 389.987417 127.998639 
L 390.025 128.105532 
" clip-path="url(#p89efd3352a)" style="fill: none; stroke: #8286ff; stroke-width: 0.6; stroke-linecap: square"/>
   </g>
   <g id="line2d_14">
    <defs>
     <path id="m355d91d3f2" d="M -3 3 
L 3 -3 
M -3 -3 
L 3 3 
" style="stroke: #ff0000"/>
    </defs>
    <g clip-path="url(#p89efd3352a)">
     <use xlink:href="#m355d91d3f2" x="129.631411" y="44.728564" style="fill: #ff0000; stroke: #ff0000"/>
     <use xlink:href="#m355d91d3f2" x="303.559876" y="38.6" style="fill: #ff0000; stroke: #ff0000"/>
    </g>
   </g>
   <g id="patch_3">
    <path d="M 55.95 128.64 
L 55.95 38.6 
" style="fill: none; stroke: #000000; stroke-width: 0.5; stroke-linejoin: miter; stroke-linecap: square"/>
   </g>
   <g id="patch_4">
    <path d="M 55.95 128.64 
L 390.025 128.64 
" style="fill: none; stroke: #000000; stroke-width: 0.5; stroke-linejoin: miter; stroke-linecap: square"/>
   </g>
   <g id="text_15">
    <!-- 894.11 -->
    <g transform="translate(129.631411 42.927764) scale(0.08 -0.08)">
     <defs>
      <path id="Helvetica-34" d="M 2116 1584 
L 2116 3613 
L 681 1584 
L 2116 1584 
z
M 2125 0 
L 2125 1094 
L 163 1094 
L 163 1644 
L 2213 4488 
L 2688 4488 
L 2688 1584 
L 3347 1584 
L 3347 1094 
L 2688 1094 
L 2688 0 
L 2125 0 
z
" transform="scale(0.015625)"/>
     </defs>
     <use xlink:href="#Helvetica-38"/>
     <use xlink:href="#Helvetica-39" x="55.615234"/>
     <use xlink:href="#Helvetica-34" x="111.230469"/>
     <use xlink:href="#Helvetica-2e" x="166.845703"/>
     <use xlink:href="#Helvetica-31" x="194.628906"/>
     <use xlink:href="#Helvetica-31" x="250.244141"/>
    </g>
   </g>
   <g id="text_16">
    <!-- 998.24 -->
    <g transform="translate(303.559876 36.7992) scale(0.08 -0.08)">
     <use xlink:href="#Helvetica-39"/>
     <use xlink:href="#Helvetica-39" x="55.615234"/>
     <use xlink:href="#Helvetica-38" x="111.230469"/>
     <use xlink:href="#Helvetica-2e" x="166.845703"/>
     <use xlink:href="#Helvetica-32" x="194.628906"/>
     <use xlink:href="#Helvetica-34" x="250.244141"/>
    </g>
   </g>
   <g id="legend_1">
    <g id="patch_5">
     <path d="M 185.871875 60.857812 
L 260.103125 60.857812 
Q 262.103125 60.857812 262.103125 58.857812 
L 262.103125 45.6 
Q 262.103125 43.6 260.103125 43.6 
L 185.871875 43.6 
Q 183.871875 43.6 183.871875 45.6 
L 183.871875 58.857812 
Q 183.871875 60.857812 185.871875 60.857812 
z
" style="fill: #ffffff; opacity: 0.8; stroke: #cccccc; stroke-linejoin: miter"/>
    </g>
    <g id="line2d_15">
     <path d="M 187.871875 51.273438 
L 197.871875 51.273438 
L 207.871875 51.273438 
" style="fill: none; stroke: #8286ff; stroke-width: 0.6; stroke-linecap: square"/>
    </g>
    <g id="text_17">
     <!-- PS-SCF3 -->
     <g transform="translate(215.871875 54.773438) scale(0.1 -0.1)">
      <defs>
       <path id="Helvetica-50" d="M 547 4591 
L 2613 4591 
Q 3225 4591 3600 4245 
Q 3975 3900 3975 3275 
Q 3975 2738 3640 2339 
Q 3306 1941 2613 1941 
L 1169 1941 
L 1169 0 
L 547 0 
L 547 4591 
z
M 3347 3272 
Q 3347 3778 2972 3959 
Q 2766 4056 2406 4056 
L 1169 4056 
L 1169 2466 
L 2406 2466 
Q 2825 2466 3086 2644 
Q 3347 2822 3347 3272 
z
" transform="scale(0.015625)"/>
       <path id="Helvetica-53" d="M 894 1481 
Q 916 1091 1078 847 
Q 1388 391 2169 391 
Q 2519 391 2806 491 
Q 3363 684 3363 1184 
Q 3363 1559 3128 1719 
Q 2891 1875 2384 1991 
L 1763 2131 
Q 1153 2269 900 2434 
Q 463 2722 463 3294 
Q 463 3913 891 4309 
Q 1319 4706 2103 4706 
Q 2825 4706 3329 4357 
Q 3834 4009 3834 3244 
L 3250 3244 
Q 3203 3613 3050 3809 
Q 2766 4169 2084 4169 
Q 1534 4169 1293 3937 
Q 1053 3706 1053 3400 
Q 1053 3063 1334 2906 
Q 1519 2806 2169 2656 
L 2813 2509 
Q 3278 2403 3531 2219 
Q 3969 1897 3969 1284 
Q 3969 522 3414 194 
Q 2859 -134 2125 -134 
Q 1269 -134 784 303 
Q 300 738 309 1481 
L 894 1481 
z
M 2150 4716 
L 2150 4716 
z
" transform="scale(0.015625)"/>
       <path id="Helvetica-2d" d="M 266 2072 
L 1834 2072 
L 1834 1494 
L 266 1494 
L 266 2072 
z
" transform="scale(0.015625)"/>
       <path id="Helvetica-43" d="M 2422 4716 
Q 3294 4716 3775 4256 
Q 4256 3797 4309 3213 
L 3703 3213 
Q 3600 3656 3292 3915 
Q 2984 4175 2428 4175 
Q 1750 4175 1333 3698 
Q 916 3222 916 2238 
Q 916 1431 1292 929 
Q 1669 428 2416 428 
Q 3103 428 3463 956 
Q 3653 1234 3747 1688 
L 4353 1688 
Q 4272 963 3816 472 
Q 3269 -119 2341 -119 
Q 1541 -119 997 366 
Q 281 1006 281 2344 
Q 281 3359 819 4009 
Q 1400 4716 2422 4716 
z
M 2297 4716 
L 2297 4716 
z
" transform="scale(0.015625)"/>
       <path id="Helvetica-46" d="M 547 4591 
L 3731 4591 
L 3731 4028 
L 1169 4028 
L 1169 2634 
L 3422 2634 
L 3422 2088 
L 1169 2088 
L 1169 0 
L 547 0 
L 547 4591 
z
" transform="scale(0.015625)"/>
       <path id="Helvetica-33" d="M 1663 -122 
Q 869 -122 511 314 
Q 153 750 153 1375 
L 741 1375 
Q 778 941 903 744 
Q 1122 391 1694 391 
Q 2138 391 2406 628 
Q 2675 866 2675 1241 
Q 2675 1703 2392 1887 
Q 2109 2072 1606 2072 
Q 1550 2072 1492 2070 
Q 1434 2069 1375 2066 
L 1375 2563 
Q 1463 2553 1522 2550 
Q 1581 2547 1650 2547 
Q 1966 2547 2169 2647 
Q 2525 2822 2525 3272 
Q 2525 3606 2287 3787 
Q 2050 3969 1734 3969 
Q 1172 3969 956 3594 
Q 838 3388 822 3006 
L 266 3006 
Q 266 3506 466 3856 
Q 809 4481 1675 4481 
Q 2359 4481 2734 4176 
Q 3109 3872 3109 3294 
Q 3109 2881 2888 2625 
Q 2750 2466 2531 2375 
Q 2884 2278 3082 2001 
Q 3281 1725 3281 1325 
Q 3281 684 2859 281 
Q 2438 -122 1663 -122 
z
" transform="scale(0.015625)"/>
      </defs>
      <use xlink:href="#Helvetica-50"/>
      <use xlink:href="#Helvetica-53" x="66.699219"/>
      <use xlink:href="#Helvetica-2d" x="133.398438"/>
      <use xlink:href="#Helvetica-53" x="166.699219"/>
      <use xlink:href="#Helvetica-43" x="233.398438"/>
      <use xlink:href="#Helvetica-46" x="305.615234"/>
      <use xlink:href="#Helvetica-33" x="366.699219"/>
     </g>
    </g>
   </g>
  </g>
 </g>
 <defs>
  <clipPath id="p89efd3352a">
   <rect x="55.95" y="38.6" width="334.075" height="90.04"/>
  </clipPath>
 </defs>
</svg>
